<?xml version="1.0" encoding="utf-8" standalone="no"?>
<!DOCTYPE svg PUBLIC "-//W3C//DTD SVG 1.1//EN"
  "http://www.w3.org/Graphics/SVG/1.1/DTD/svg11.dtd">
<!-- Created with matplotlib (http://matplotlib.org/) -->
<svg height="432pt" version="1.1" viewBox="0 0 576 432" width="576pt" xmlns="http://www.w3.org/2000/svg" xmlns:xlink="http://www.w3.org/1999/xlink">
 <defs>
  <style type="text/css">
*{stroke-linecap:butt;stroke-linejoin:round;stroke-miterlimit:100000;}
  </style>
 </defs>
 <g id="figure_1">
  <g id="patch_1">
   <path d="M 0 432 
L 576 432 
L 576 0 
L 0 0 
z
" style="fill:#ffffff;"/>
  </g>
  <g id="axes_1">
   <g id="patch_2">
    <path d="M 72 388.8 
L 518.4 388.8 
L 518.4 43.2 
L 72 43.2 
z
" style="fill:#ffffff;"/>
   </g>
   <g id="line2d_1">
    <path clip-path="url(#p6d313abb73)" d="M 71.999139 320.730607 
L 84.399999 272.921645 
L 96.80003 218.745638 
L 109.199992 166.308972 
L 121.600013 123.448315 
L 134.000018 97.32067 
L 146.400033 93.518234 
L 158.799981 112.506165 
L 171.199962 149.165708 
L 183.600001 196.847931 
L 196.00003 248.681273 
L 208.399964 297.836424 
L 220.79998 337.696634 
L 233.199981 362.779579 
L 245.600008 371.067407 
L 258.000011 365.757805 
L 270.400009 354.346908 
L 282.800016 344.432718 
L 295.199399 340.067514 
L 307.59997 342.29011 
L 319.999995 350.536697 
L 332.400026 362.877174 
L 344.800013 376.003588 
L 357.19997 385.792901 
L 369.599989 388.8 
L 382.000003 383.948842 
L 394.400019 373.032935 
L 406.799976 359.773499 
L 419.200014 348.143444 
L 431.600036 341.171969 
L 444.000009 340.540275 
L 456.399999 346.591929 
L 468.799977 357.739355 
L 481.20004 368.51996 
L 493.600044 369.9312 
L 505.999991 354.525911 
" style="fill:none;stroke:#ff0000;stroke-linecap:square;"/>
    <defs>
     <path d="M 0 3 
C 0.795609 3 1.55874 2.683901 2.12132 2.12132 
C 2.683901 1.55874 3 0.795609 3 0 
C 3 -0.795609 2.683901 -1.55874 2.12132 -2.12132 
C 1.55874 -2.683901 0.795609 -3 0 -3 
C -0.795609 -3 -1.55874 -2.683901 -2.12132 -2.12132 
C -2.683901 -1.55874 -3 -0.795609 -3 0 
C -3 0.795609 -2.683901 1.55874 -2.12132 2.12132 
C -1.55874 2.683901 -0.795609 3 0 3 
z
" id="mda9f8b0841" style="stroke:#000000;stroke-width:0.5;"/>
    </defs>
    <g clip-path="url(#p6d313abb73)">
     <use style="fill:#ff0000;stroke:#000000;stroke-width:0.5;" x="71.9991389292" xlink:href="#mda9f8b0841" y="320.730606752"/>
     <use style="fill:#ff0000;stroke:#000000;stroke-width:0.5;" x="84.3999994904" xlink:href="#mda9f8b0841" y="272.921644797"/>
     <use style="fill:#ff0000;stroke:#000000;stroke-width:0.5;" x="96.800029547" xlink:href="#mda9f8b0841" y="218.745637821"/>
     <use style="fill:#ff0000;stroke:#000000;stroke-width:0.5;" x="109.199992285" xlink:href="#mda9f8b0841" y="166.308971953"/>
     <use style="fill:#ff0000;stroke:#000000;stroke-width:0.5;" x="121.600012818" xlink:href="#mda9f8b0841" y="123.448314846"/>
     <use style="fill:#ff0000;stroke:#000000;stroke-width:0.5;" x="134.00001797" xlink:href="#mda9f8b0841" y="97.3206696488"/>
     <use style="fill:#ff0000;stroke:#000000;stroke-width:0.5;" x="146.400033052" xlink:href="#mda9f8b0841" y="93.5182343066"/>
     <use style="fill:#ff0000;stroke:#000000;stroke-width:0.5;" x="158.799981418" xlink:href="#mda9f8b0841" y="112.506165064"/>
     <use style="fill:#ff0000;stroke:#000000;stroke-width:0.5;" x="171.199962045" xlink:href="#mda9f8b0841" y="149.16570753"/>
     <use style="fill:#ff0000;stroke:#000000;stroke-width:0.5;" x="183.600000566" xlink:href="#mda9f8b0841" y="196.847931361"/>
     <use style="fill:#ff0000;stroke:#000000;stroke-width:0.5;" x="196.000030243" xlink:href="#mda9f8b0841" y="248.681272785"/>
     <use style="fill:#ff0000;stroke:#000000;stroke-width:0.5;" x="208.399964313" xlink:href="#mda9f8b0841" y="297.836423585"/>
     <use style="fill:#ff0000;stroke:#000000;stroke-width:0.5;" x="220.799979631" xlink:href="#mda9f8b0841" y="337.696634373"/>
     <use style="fill:#ff0000;stroke:#000000;stroke-width:0.5;" x="233.199981389" xlink:href="#mda9f8b0841" y="362.779579234"/>
     <use style="fill:#ff0000;stroke:#000000;stroke-width:0.5;" x="245.600007856" xlink:href="#mda9f8b0841" y="371.06740672"/>
     <use style="fill:#ff0000;stroke:#000000;stroke-width:0.5;" x="258.000011342" xlink:href="#mda9f8b0841" y="365.757805159"/>
     <use style="fill:#ff0000;stroke:#000000;stroke-width:0.5;" x="270.400008914" xlink:href="#mda9f8b0841" y="354.346908303"/>
     <use style="fill:#ff0000;stroke:#000000;stroke-width:0.5;" x="282.800015551" xlink:href="#mda9f8b0841" y="344.432718087"/>
     <use style="fill:#ff0000;stroke:#000000;stroke-width:0.5;" x="295.199399122" xlink:href="#mda9f8b0841" y="340.067514392"/>
     <use style="fill:#ff0000;stroke:#000000;stroke-width:0.5;" x="307.599969986" xlink:href="#mda9f8b0841" y="342.290110083"/>
     <use style="fill:#ff0000;stroke:#000000;stroke-width:0.5;" x="319.999994776" xlink:href="#mda9f8b0841" y="350.536696679"/>
     <use style="fill:#ff0000;stroke:#000000;stroke-width:0.5;" x="332.400026382" xlink:href="#mda9f8b0841" y="362.877173521"/>
     <use style="fill:#ff0000;stroke:#000000;stroke-width:0.5;" x="344.80001327" xlink:href="#mda9f8b0841" y="376.003587751"/>
     <use style="fill:#ff0000;stroke:#000000;stroke-width:0.5;" x="357.199969506" xlink:href="#mda9f8b0841" y="385.792900798"/>
     <use style="fill:#ff0000;stroke:#000000;stroke-width:0.5;" x="369.599988814" xlink:href="#mda9f8b0841" y="388.8"/>
     <use style="fill:#ff0000;stroke:#000000;stroke-width:0.5;" x="382.00000299" xlink:href="#mda9f8b0841" y="383.948841651"/>
     <use style="fill:#ff0000;stroke:#000000;stroke-width:0.5;" x="394.400018746" xlink:href="#mda9f8b0841" y="373.032934527"/>
     <use style="fill:#ff0000;stroke:#000000;stroke-width:0.5;" x="406.799976359" xlink:href="#mda9f8b0841" y="359.773498585"/>
     <use style="fill:#ff0000;stroke:#000000;stroke-width:0.5;" x="419.200014487" xlink:href="#mda9f8b0841" y="348.143443915"/>
     <use style="fill:#ff0000;stroke:#000000;stroke-width:0.5;" x="431.600036326" xlink:href="#mda9f8b0841" y="341.171968799"/>
     <use style="fill:#ff0000;stroke:#000000;stroke-width:0.5;" x="444.000008576" xlink:href="#mda9f8b0841" y="340.540275441"/>
     <use style="fill:#ff0000;stroke:#000000;stroke-width:0.5;" x="456.399998539" xlink:href="#mda9f8b0841" y="346.591929204"/>
     <use style="fill:#ff0000;stroke:#000000;stroke-width:0.5;" x="468.799977439" xlink:href="#mda9f8b0841" y="357.739355005"/>
     <use style="fill:#ff0000;stroke:#000000;stroke-width:0.5;" x="481.200039549" xlink:href="#mda9f8b0841" y="368.519959826"/>
     <use style="fill:#ff0000;stroke:#000000;stroke-width:0.5;" x="493.600044376" xlink:href="#mda9f8b0841" y="369.931199755"/>
     <use style="fill:#ff0000;stroke:#000000;stroke-width:0.5;" x="505.999990892" xlink:href="#mda9f8b0841" y="354.525910768"/>
    </g>
   </g>
   <g id="line2d_2">
    <path clip-path="url(#p6d313abb73)" d="M 71.999139 298.501757 
L 84.399999 249.954434 
L 96.80003 195.092226 
L 109.199992 141.985751 
L 121.600013 98.607341 
L 134.000018 71.46595 
L 146.400033 65.963904 
L 158.799981 82.412643 
L 171.199962 118.262483 
L 183.600001 165.532585 
L 196.00003 218.060939 
L 208.399964 268.851714 
L 220.79998 310.970956 
L 233.199981 339.700483 
L 245.600008 352.39407 
L 258.000011 353.226813 
L 270.400009 347.838705 
L 282.800016 342.474455 
L 295.199399 341.605881 
L 307.59997 347.002722 
L 319.999995 357.542551 
L 332.400026 369.869392 
L 344.800013 379.880405 
L 357.19997 386.501142 
L 369.599989 388.8 
L 382.000003 386.688627 
L 394.400019 380.193501 
L 406.799976 369.529928 
L 419.200014 357.035683 
L 431.600036 346.365748 
L 444.000009 340.446454 
L 456.399999 343.185266 
L 468.799977 348.592165 
L 481.20004 353.539509 
L 493.600044 350.147324 
L 505.999991 332.707033 
" style="fill:none;stroke:#0000ff;stroke-linecap:square;"/>
    <defs>
     <path d="M 0 3 
C 0.795609 3 1.55874 2.683901 2.12132 2.12132 
C 2.683901 1.55874 3 0.795609 3 0 
C 3 -0.795609 2.683901 -1.55874 2.12132 -2.12132 
C 1.55874 -2.683901 0.795609 -3 0 -3 
C -0.795609 -3 -1.55874 -2.683901 -2.12132 -2.12132 
C -2.683901 -1.55874 -3 -0.795609 -3 0 
C -3 0.795609 -2.683901 1.55874 -2.12132 2.12132 
C -1.55874 2.683901 -0.795609 3 0 3 
z
" id="mfb8521cd44" style="stroke:#000000;stroke-width:0.5;"/>
    </defs>
    <g clip-path="url(#p6d313abb73)">
     <use style="fill:#0000ff;stroke:#000000;stroke-width:0.5;" x="71.9991389292" xlink:href="#mfb8521cd44" y="298.501757284"/>
     <use style="fill:#0000ff;stroke:#000000;stroke-width:0.5;" x="84.3999994904" xlink:href="#mfb8521cd44" y="249.954434316"/>
     <use style="fill:#0000ff;stroke:#000000;stroke-width:0.5;" x="96.800029547" xlink:href="#mfb8521cd44" y="195.092226017"/>
     <use style="fill:#0000ff;stroke:#000000;stroke-width:0.5;" x="109.199992285" xlink:href="#mfb8521cd44" y="141.985751295"/>
     <use style="fill:#0000ff;stroke:#000000;stroke-width:0.5;" x="121.600012818" xlink:href="#mfb8521cd44" y="98.6073409155"/>
     <use style="fill:#0000ff;stroke:#000000;stroke-width:0.5;" x="134.00001797" xlink:href="#mfb8521cd44" y="71.465950479"/>
     <use style="fill:#0000ff;stroke:#000000;stroke-width:0.5;" x="146.400033052" xlink:href="#mfb8521cd44" y="65.9639044659"/>
     <use style="fill:#0000ff;stroke:#000000;stroke-width:0.5;" x="158.799981418" xlink:href="#mfb8521cd44" y="82.4126431126"/>
     <use style="fill:#0000ff;stroke:#000000;stroke-width:0.5;" x="171.199962045" xlink:href="#mfb8521cd44" y="118.262482566"/>
     <use style="fill:#0000ff;stroke:#000000;stroke-width:0.5;" x="183.600000566" xlink:href="#mfb8521cd44" y="165.532584965"/>
     <use style="fill:#0000ff;stroke:#000000;stroke-width:0.5;" x="196.000030243" xlink:href="#mfb8521cd44" y="218.060939319"/>
     <use style="fill:#0000ff;stroke:#000000;stroke-width:0.5;" x="208.399964313" xlink:href="#mfb8521cd44" y="268.851713601"/>
     <use style="fill:#0000ff;stroke:#000000;stroke-width:0.5;" x="220.799979631" xlink:href="#mfb8521cd44" y="310.970956392"/>
     <use style="fill:#0000ff;stroke:#000000;stroke-width:0.5;" x="233.199981389" xlink:href="#mfb8521cd44" y="339.700482552"/>
     <use style="fill:#0000ff;stroke:#000000;stroke-width:0.5;" x="245.600007856" xlink:href="#mfb8521cd44" y="352.394069984"/>
     <use style="fill:#0000ff;stroke:#000000;stroke-width:0.5;" x="258.000011342" xlink:href="#mfb8521cd44" y="353.226812971"/>
     <use style="fill:#0000ff;stroke:#000000;stroke-width:0.5;" x="270.400008914" xlink:href="#mfb8521cd44" y="347.838704715"/>
     <use style="fill:#0000ff;stroke:#000000;stroke-width:0.5;" x="282.800015551" xlink:href="#mfb8521cd44" y="342.474454701"/>
     <use style="fill:#0000ff;stroke:#000000;stroke-width:0.5;" x="295.199399122" xlink:href="#mfb8521cd44" y="341.605881029"/>
     <use style="fill:#0000ff;stroke:#000000;stroke-width:0.5;" x="307.599969986" xlink:href="#mfb8521cd44" y="347.002722087"/>
     <use style="fill:#0000ff;stroke:#000000;stroke-width:0.5;" x="319.999994776" xlink:href="#mfb8521cd44" y="357.542551123"/>
     <use style="fill:#0000ff;stroke:#000000;stroke-width:0.5;" x="332.400026382" xlink:href="#mfb8521cd44" y="369.869391989"/>
     <use style="fill:#0000ff;stroke:#000000;stroke-width:0.5;" x="344.80001327" xlink:href="#mfb8521cd44" y="379.880404976"/>
     <use style="fill:#0000ff;stroke:#000000;stroke-width:0.5;" x="357.199969506" xlink:href="#mfb8521cd44" y="386.501141944"/>
     <use style="fill:#0000ff;stroke:#000000;stroke-width:0.5;" x="369.599988814" xlink:href="#mfb8521cd44" y="388.8"/>
     <use style="fill:#0000ff;stroke:#000000;stroke-width:0.5;" x="382.00000299" xlink:href="#mfb8521cd44" y="386.688626994"/>
     <use style="fill:#0000ff;stroke:#000000;stroke-width:0.5;" x="394.400018746" xlink:href="#mfb8521cd44" y="380.193500985"/>
     <use style="fill:#0000ff;stroke:#000000;stroke-width:0.5;" x="406.799976359" xlink:href="#mfb8521cd44" y="369.529928111"/>
     <use style="fill:#0000ff;stroke:#000000;stroke-width:0.5;" x="419.200014487" xlink:href="#mfb8521cd44" y="357.035683086"/>
     <use style="fill:#0000ff;stroke:#000000;stroke-width:0.5;" x="431.600036326" xlink:href="#mfb8521cd44" y="346.365748482"/>
     <use style="fill:#0000ff;stroke:#000000;stroke-width:0.5;" x="444.000008576" xlink:href="#mfb8521cd44" y="340.446454491"/>
     <use style="fill:#0000ff;stroke:#000000;stroke-width:0.5;" x="456.399998539" xlink:href="#mfb8521cd44" y="343.185266099"/>
     <use style="fill:#0000ff;stroke:#000000;stroke-width:0.5;" x="468.799977439" xlink:href="#mfb8521cd44" y="348.592165413"/>
     <use style="fill:#0000ff;stroke:#000000;stroke-width:0.5;" x="481.200039549" xlink:href="#mfb8521cd44" y="353.539508997"/>
     <use style="fill:#0000ff;stroke:#000000;stroke-width:0.5;" x="493.600044376" xlink:href="#mfb8521cd44" y="350.147324083"/>
     <use style="fill:#0000ff;stroke:#000000;stroke-width:0.5;" x="505.999990892" xlink:href="#mfb8521cd44" y="332.707033136"/>
    </g>
   </g>
   <g id="line2d_3">
    <path clip-path="url(#p6d313abb73)" d="M 71.999139 298.501757 
L 84.399999 249.954434 
L 96.80003 195.092226 
L 109.199992 141.985751 
L 121.600013 98.607341 
L 134.000018 71.46595 
L 146.400033 65.963904 
L 158.799981 82.412643 
L 171.199962 118.262483 
L 183.600001 165.532585 
L 196.00003 218.060939 
L 208.399964 268.851714 
L 220.79998 310.970956 
L 233.199981 339.700483 
L 245.600008 352.39407 
L 258.000011 353.226813 
L 270.400009 347.838705 
L 282.800016 342.474455 
L 295.199399 341.605881 
L 307.59997 347.002722 
L 319.999995 357.542551 
L 332.400026 369.869392 
L 344.800013 379.880405 
L 357.19997 386.501142 
L 369.599989 388.8 
L 382.000003 386.688627 
L 394.400019 380.193501 
L 406.799976 369.529928 
L 419.200014 357.035683 
L 431.600036 346.365748 
L 444.000009 340.446454 
L 456.399999 343.185266 
L 468.799977 348.592165 
L 481.20004 353.539509 
L 493.600044 350.147324 
L 505.999991 332.707033 
" style="fill:none;stroke:#000000;stroke-linecap:square;"/>
    <defs>
     <path d="M -3 3 
L 3 -3 
M -3 -3 
L 3 3 
" id="mb84f4f68f9" style="stroke:#000000;stroke-width:0.5;"/>
    </defs>
    <g clip-path="url(#p6d313abb73)">
     <use style="stroke:#000000;stroke-width:0.5;" x="71.9991389292" xlink:href="#mb84f4f68f9" y="298.501757284"/>
     <use style="stroke:#000000;stroke-width:0.5;" x="84.3999994904" xlink:href="#mb84f4f68f9" y="249.954434316"/>
     <use style="stroke:#000000;stroke-width:0.5;" x="96.800029547" xlink:href="#mb84f4f68f9" y="195.092226017"/>
     <use style="stroke:#000000;stroke-width:0.5;" x="109.199992285" xlink:href="#mb84f4f68f9" y="141.985751295"/>
     <use style="stroke:#000000;stroke-width:0.5;" x="121.600012818" xlink:href="#mb84f4f68f9" y="98.6073409155"/>
     <use style="stroke:#000000;stroke-width:0.5;" x="134.00001797" xlink:href="#mb84f4f68f9" y="71.465950479"/>
     <use style="stroke:#000000;stroke-width:0.5;" x="146.400033052" xlink:href="#mb84f4f68f9" y="65.9639044659"/>
     <use style="stroke:#000000;stroke-width:0.5;" x="158.799981418" xlink:href="#mb84f4f68f9" y="82.4126431126"/>
     <use style="stroke:#000000;stroke-width:0.5;" x="171.199962045" xlink:href="#mb84f4f68f9" y="118.262482566"/>
     <use style="stroke:#000000;stroke-width:0.5;" x="183.600000566" xlink:href="#mb84f4f68f9" y="165.532584965"/>
     <use style="stroke:#000000;stroke-width:0.5;" x="196.000030243" xlink:href="#mb84f4f68f9" y="218.060939319"/>
     <use style="stroke:#000000;stroke-width:0.5;" x="208.399964313" xlink:href="#mb84f4f68f9" y="268.851713601"/>
     <use style="stroke:#000000;stroke-width:0.5;" x="220.799979631" xlink:href="#mb84f4f68f9" y="310.970956392"/>
     <use style="stroke:#000000;stroke-width:0.5;" x="233.199981389" xlink:href="#mb84f4f68f9" y="339.700482552"/>
     <use style="stroke:#000000;stroke-width:0.5;" x="245.600007856" xlink:href="#mb84f4f68f9" y="352.394069984"/>
     <use style="stroke:#000000;stroke-width:0.5;" x="258.000011342" xlink:href="#mb84f4f68f9" y="353.226812971"/>
     <use style="stroke:#000000;stroke-width:0.5;" x="270.400008914" xlink:href="#mb84f4f68f9" y="347.838704715"/>
     <use style="stroke:#000000;stroke-width:0.5;" x="282.800015551" xlink:href="#mb84f4f68f9" y="342.474454701"/>
     <use style="stroke:#000000;stroke-width:0.5;" x="295.199399122" xlink:href="#mb84f4f68f9" y="341.605881029"/>
     <use style="stroke:#000000;stroke-width:0.5;" x="307.599969986" xlink:href="#mb84f4f68f9" y="347.002722087"/>
     <use style="stroke:#000000;stroke-width:0.5;" x="319.999994776" xlink:href="#mb84f4f68f9" y="357.542551123"/>
     <use style="stroke:#000000;stroke-width:0.5;" x="332.400026382" xlink:href="#mb84f4f68f9" y="369.869391989"/>
     <use style="stroke:#000000;stroke-width:0.5;" x="344.80001327" xlink:href="#mb84f4f68f9" y="379.880404976"/>
     <use style="stroke:#000000;stroke-width:0.5;" x="357.199969506" xlink:href="#mb84f4f68f9" y="386.501141944"/>
     <use style="stroke:#000000;stroke-width:0.5;" x="369.599988814" xlink:href="#mb84f4f68f9" y="388.8"/>
     <use style="stroke:#000000;stroke-width:0.5;" x="382.00000299" xlink:href="#mb84f4f68f9" y="386.688626994"/>
     <use style="stroke:#000000;stroke-width:0.5;" x="394.400018746" xlink:href="#mb84f4f68f9" y="380.193500985"/>
     <use style="stroke:#000000;stroke-width:0.5;" x="406.799976359" xlink:href="#mb84f4f68f9" y="369.529928111"/>
     <use style="stroke:#000000;stroke-width:0.5;" x="419.200014487" xlink:href="#mb84f4f68f9" y="357.035683086"/>
     <use style="stroke:#000000;stroke-width:0.5;" x="431.600036326" xlink:href="#mb84f4f68f9" y="346.365748482"/>
     <use style="stroke:#000000;stroke-width:0.5;" x="444.000008576" xlink:href="#mb84f4f68f9" y="340.446454491"/>
     <use style="stroke:#000000;stroke-width:0.5;" x="456.399998539" xlink:href="#mb84f4f68f9" y="343.185266099"/>
     <use style="stroke:#000000;stroke-width:0.5;" x="468.799977439" xlink:href="#mb84f4f68f9" y="348.592165413"/>
     <use style="stroke:#000000;stroke-width:0.5;" x="481.200039549" xlink:href="#mb84f4f68f9" y="353.539508997"/>
     <use style="stroke:#000000;stroke-width:0.5;" x="493.600044376" xlink:href="#mb84f4f68f9" y="350.147324083"/>
     <use style="stroke:#000000;stroke-width:0.5;" x="505.999990892" xlink:href="#mb84f4f68f9" y="332.707033136"/>
    </g>
   </g>
   <g id="line2d_4">
    <path clip-path="url(#p6d313abb73)" d="M 71.999139 379.713503 
L 84.399999 380.451864 
L 96.80003 381.138065 
L 109.199992 381.807874 
L 121.600013 382.325628 
L 134.000018 383.339373 
L 146.400033 385.038983 
L 158.799981 387.578176 
L 171.199962 388.387879 
L 183.600001 388.8 
L 196.00003 388.104987 
L 208.399964 386.469364 
L 220.79998 384.210332 
L 233.199981 380.56375 
L 245.600008 376.15799 
L 258.000011 370.015646 
L 270.400009 363.992857 
L 282.800016 359.442917 
L 295.199399 355.946287 
L 307.59997 352.772042 
L 319.999995 350.478799 
L 332.400026 350.492435 
L 344.800013 353.607836 
L 357.19997 356.776412 
L 369.599989 357.484654 
L 382.000003 354.744868 
L 394.400019 350.324087 
L 406.799976 347.728224 
L 419.200014 348.592414 
L 431.600036 352.290874 
L 444.000009 357.578475 
L 456.399999 360.891317 
L 468.799977 366.631843 
L 481.20004 372.465104 
L 493.600044 377.268529 
L 505.999991 379.303531 
" style="fill:none;stroke:#ff00ff;stroke-linecap:square;"/>
    <defs>
     <path d="M -3 3 
L 3 -3 
M -3 -3 
L 3 3 
" id="mf3739f3623" style="stroke:#ff00ff;stroke-width:0.5;"/>
    </defs>
    <g clip-path="url(#p6d313abb73)">
     <use style="fill:#ff00ff;stroke:#ff00ff;stroke-width:0.5;" x="71.9991389292" xlink:href="#mf3739f3623" y="379.713503071"/>
     <use style="fill:#ff00ff;stroke:#ff00ff;stroke-width:0.5;" x="84.3999994904" xlink:href="#mf3739f3623" y="380.451864085"/>
     <use style="fill:#ff00ff;stroke:#ff00ff;stroke-width:0.5;" x="96.800029547" xlink:href="#mf3739f3623" y="381.138065408"/>
     <use style="fill:#ff00ff;stroke:#ff00ff;stroke-width:0.5;" x="109.199992285" xlink:href="#mf3739f3623" y="381.807874262"/>
     <use style="fill:#ff00ff;stroke:#ff00ff;stroke-width:0.5;" x="121.600012818" xlink:href="#mf3739f3623" y="382.325627535"/>
     <use style="fill:#ff00ff;stroke:#ff00ff;stroke-width:0.5;" x="134.00001797" xlink:href="#mf3739f3623" y="383.339372774"/>
     <use style="fill:#ff00ff;stroke:#ff00ff;stroke-width:0.5;" x="146.400033052" xlink:href="#mf3739f3623" y="385.038983445"/>
     <use style="fill:#ff00ff;stroke:#ff00ff;stroke-width:0.5;" x="158.799981418" xlink:href="#mf3739f3623" y="387.578175556"/>
     <use style="fill:#ff00ff;stroke:#ff00ff;stroke-width:0.5;" x="171.199962045" xlink:href="#mf3739f3623" y="388.387878569"/>
     <use style="fill:#ff00ff;stroke:#ff00ff;stroke-width:0.5;" x="183.600000566" xlink:href="#mf3739f3623" y="388.8"/>
     <use style="fill:#ff00ff;stroke:#ff00ff;stroke-width:0.5;" x="196.000030243" xlink:href="#mf3739f3623" y="388.104987071"/>
     <use style="fill:#ff00ff;stroke:#ff00ff;stroke-width:0.5;" x="208.399964313" xlink:href="#mf3739f3623" y="386.469363588"/>
     <use style="fill:#ff00ff;stroke:#ff00ff;stroke-width:0.5;" x="220.799979631" xlink:href="#mf3739f3623" y="384.210331586"/>
     <use style="fill:#ff00ff;stroke:#ff00ff;stroke-width:0.5;" x="233.199981389" xlink:href="#mf3739f3623" y="380.563750285"/>
     <use style="fill:#ff00ff;stroke:#ff00ff;stroke-width:0.5;" x="245.600007856" xlink:href="#mf3739f3623" y="376.15799034"/>
     <use style="fill:#ff00ff;stroke:#ff00ff;stroke-width:0.5;" x="258.000011342" xlink:href="#mf3739f3623" y="370.015645792"/>
     <use style="fill:#ff00ff;stroke:#ff00ff;stroke-width:0.5;" x="270.400008914" xlink:href="#mf3739f3623" y="363.992857192"/>
     <use style="fill:#ff00ff;stroke:#ff00ff;stroke-width:0.5;" x="282.800015551" xlink:href="#mf3739f3623" y="359.44291699"/>
     <use style="fill:#ff00ff;stroke:#ff00ff;stroke-width:0.5;" x="295.199399122" xlink:href="#mf3739f3623" y="355.946286967"/>
     <use style="fill:#ff00ff;stroke:#ff00ff;stroke-width:0.5;" x="307.599969986" xlink:href="#mf3739f3623" y="352.7720416"/>
     <use style="fill:#ff00ff;stroke:#ff00ff;stroke-width:0.5;" x="319.999994776" xlink:href="#mf3739f3623" y="350.47879916"/>
     <use style="fill:#ff00ff;stroke:#ff00ff;stroke-width:0.5;" x="332.400026382" xlink:href="#mf3739f3623" y="350.492435136"/>
     <use style="fill:#ff00ff;stroke:#ff00ff;stroke-width:0.5;" x="344.80001327" xlink:href="#mf3739f3623" y="353.60783638"/>
     <use style="fill:#ff00ff;stroke:#ff00ff;stroke-width:0.5;" x="357.199969506" xlink:href="#mf3739f3623" y="356.776412459"/>
     <use style="fill:#ff00ff;stroke:#ff00ff;stroke-width:0.5;" x="369.599988814" xlink:href="#mf3739f3623" y="357.484653604"/>
     <use style="fill:#ff00ff;stroke:#ff00ff;stroke-width:0.5;" x="382.00000299" xlink:href="#mf3739f3623" y="354.744868261"/>
     <use style="fill:#ff00ff;stroke:#ff00ff;stroke-width:0.5;" x="394.400018746" xlink:href="#mf3739f3623" y="350.324087146"/>
     <use style="fill:#ff00ff;stroke:#ff00ff;stroke-width:0.5;" x="406.799976359" xlink:href="#mf3739f3623" y="347.728224079"/>
     <use style="fill:#ff00ff;stroke:#ff00ff;stroke-width:0.5;" x="419.200014487" xlink:href="#mf3739f3623" y="348.592414432"/>
     <use style="fill:#ff00ff;stroke:#ff00ff;stroke-width:0.5;" x="431.600036326" xlink:href="#mf3739f3623" y="352.29087392"/>
     <use style="fill:#ff00ff;stroke:#ff00ff;stroke-width:0.5;" x="444.000008576" xlink:href="#mf3739f3623" y="357.578474555"/>
     <use style="fill:#ff00ff;stroke:#ff00ff;stroke-width:0.5;" x="456.399998539" xlink:href="#mf3739f3623" y="360.891316709"/>
     <use style="fill:#ff00ff;stroke:#ff00ff;stroke-width:0.5;" x="468.799977439" xlink:href="#mf3739f3623" y="366.631843196"/>
     <use style="fill:#ff00ff;stroke:#ff00ff;stroke-width:0.5;" x="481.200039549" xlink:href="#mf3739f3623" y="372.465104433"/>
     <use style="fill:#ff00ff;stroke:#ff00ff;stroke-width:0.5;" x="493.600044376" xlink:href="#mf3739f3623" y="377.268529276"/>
     <use style="fill:#ff00ff;stroke:#ff00ff;stroke-width:0.5;" x="505.999990892" xlink:href="#mf3739f3623" y="379.303531236"/>
    </g>
   </g>
   <g id="line2d_5">
    <path clip-path="url(#p6d313abb73)" d="M 71.999139 325.418331 
L 84.399999 278.05699 
L 96.80003 223.169041 
L 109.199992 169.721167 
L 121.600013 126.475364 
L 134.000018 99.9825 
L 146.400033 94.991023 
L 158.799981 111.355701 
L 171.199962 146.816877 
L 183.600001 193.928655 
L 196.00003 246.490081 
L 208.399964 296.829524 
L 220.79998 337.221174 
L 233.199981 362.690251 
L 245.600008 371.019638 
L 258.000011 367.044803 
L 270.400009 356.726612 
L 282.800016 346.306926 
L 295.199399 340.494523 
L 307.59997 341.894136 
L 319.999995 350.539573 
L 332.400026 363.610949 
L 344.800013 376.233208 
L 357.19997 385.524121 
L 369.599989 388.8 
L 382.000003 385.344359 
L 394.400019 376.07326 
L 406.799976 363.087574 
L 419.200014 350.404989 
L 431.600036 342.134783 
L 444.000009 340.455311 
L 456.399999 348.222165 
L 468.799977 358.840878 
L 481.20004 368.949545 
L 493.600044 370.357083 
L 505.999991 356.907335 
" style="fill:none;stroke:#008000;stroke-linecap:square;"/>
    <defs>
     <path d="M 0 3 
C 0.795609 3 1.55874 2.683901 2.12132 2.12132 
C 2.683901 1.55874 3 0.795609 3 0 
C 3 -0.795609 2.683901 -1.55874 2.12132 -2.12132 
C 1.55874 -2.683901 0.795609 -3 0 -3 
C -0.795609 -3 -1.55874 -2.683901 -2.12132 -2.12132 
C -2.683901 -1.55874 -3 -0.795609 -3 0 
C -3 0.795609 -2.683901 1.55874 -2.12132 2.12132 
C -1.55874 2.683901 -0.795609 3 0 3 
z
" id="m04b758d5bf" style="stroke:#000000;stroke-width:0.5;"/>
    </defs>
    <g clip-path="url(#p6d313abb73)">
     <use style="fill:#008000;stroke:#000000;stroke-width:0.5;" x="71.9991389292" xlink:href="#m04b758d5bf" y="325.418330868"/>
     <use style="fill:#008000;stroke:#000000;stroke-width:0.5;" x="84.3999994904" xlink:href="#m04b758d5bf" y="278.056990209"/>
     <use style="fill:#008000;stroke:#000000;stroke-width:0.5;" x="96.800029547" xlink:href="#m04b758d5bf" y="223.169040907"/>
     <use style="fill:#008000;stroke:#000000;stroke-width:0.5;" x="109.199992285" xlink:href="#m04b758d5bf" y="169.721167179"/>
     <use style="fill:#008000;stroke:#000000;stroke-width:0.5;" x="121.600012818" xlink:href="#m04b758d5bf" y="126.475363562"/>
     <use style="fill:#008000;stroke:#000000;stroke-width:0.5;" x="134.00001797" xlink:href="#m04b758d5bf" y="99.9824999273"/>
     <use style="fill:#008000;stroke:#000000;stroke-width:0.5;" x="146.400033052" xlink:href="#m04b758d5bf" y="94.9910234486"/>
     <use style="fill:#008000;stroke:#000000;stroke-width:0.5;" x="158.799981418" xlink:href="#m04b758d5bf" y="111.355701258"/>
     <use style="fill:#008000;stroke:#000000;stroke-width:0.5;" x="171.199962045" xlink:href="#m04b758d5bf" y="146.816877265"/>
     <use style="fill:#008000;stroke:#000000;stroke-width:0.5;" x="183.600000566" xlink:href="#m04b758d5bf" y="193.928655353"/>
     <use style="fill:#008000;stroke:#000000;stroke-width:0.5;" x="196.000030243" xlink:href="#m04b758d5bf" y="246.490081472"/>
     <use style="fill:#008000;stroke:#000000;stroke-width:0.5;" x="208.399964313" xlink:href="#m04b758d5bf" y="296.829524277"/>
     <use style="fill:#008000;stroke:#000000;stroke-width:0.5;" x="220.799979631" xlink:href="#m04b758d5bf" y="337.221173548"/>
     <use style="fill:#008000;stroke:#000000;stroke-width:0.5;" x="233.199981389" xlink:href="#m04b758d5bf" y="362.690250915"/>
     <use style="fill:#008000;stroke:#000000;stroke-width:0.5;" x="245.600007856" xlink:href="#m04b758d5bf" y="371.019638013"/>
     <use style="fill:#008000;stroke:#000000;stroke-width:0.5;" x="258.000011342" xlink:href="#m04b758d5bf" y="367.044803294"/>
     <use style="fill:#008000;stroke:#000000;stroke-width:0.5;" x="270.400008914" xlink:href="#m04b758d5bf" y="356.726612028"/>
     <use style="fill:#008000;stroke:#000000;stroke-width:0.5;" x="282.800015551" xlink:href="#m04b758d5bf" y="346.306925692"/>
     <use style="fill:#008000;stroke:#000000;stroke-width:0.5;" x="295.199399122" xlink:href="#m04b758d5bf" y="340.494522596"/>
     <use style="fill:#008000;stroke:#000000;stroke-width:0.5;" x="307.599969986" xlink:href="#m04b758d5bf" y="341.894135563"/>
     <use style="fill:#008000;stroke:#000000;stroke-width:0.5;" x="319.999994776" xlink:href="#m04b758d5bf" y="350.539572551"/>
     <use style="fill:#008000;stroke:#000000;stroke-width:0.5;" x="332.400026382" xlink:href="#m04b758d5bf" y="363.610949076"/>
     <use style="fill:#008000;stroke:#000000;stroke-width:0.5;" x="344.80001327" xlink:href="#m04b758d5bf" y="376.233207955"/>
     <use style="fill:#008000;stroke:#000000;stroke-width:0.5;" x="357.199969506" xlink:href="#m04b758d5bf" y="385.524121115"/>
     <use style="fill:#008000;stroke:#000000;stroke-width:0.5;" x="369.599988814" xlink:href="#m04b758d5bf" y="388.8"/>
     <use style="fill:#008000;stroke:#000000;stroke-width:0.5;" x="382.00000299" xlink:href="#m04b758d5bf" y="385.344359248"/>
     <use style="fill:#008000;stroke:#000000;stroke-width:0.5;" x="394.400018746" xlink:href="#m04b758d5bf" y="376.073260206"/>
     <use style="fill:#008000;stroke:#000000;stroke-width:0.5;" x="406.799976359" xlink:href="#m04b758d5bf" y="363.087574496"/>
     <use style="fill:#008000;stroke:#000000;stroke-width:0.5;" x="419.200014487" xlink:href="#m04b758d5bf" y="350.40498945"/>
     <use style="fill:#008000;stroke:#000000;stroke-width:0.5;" x="431.600036326" xlink:href="#m04b758d5bf" y="342.134783429"/>
     <use style="fill:#008000;stroke:#000000;stroke-width:0.5;" x="444.000008576" xlink:href="#m04b758d5bf" y="340.455310631"/>
     <use style="fill:#008000;stroke:#000000;stroke-width:0.5;" x="456.399998539" xlink:href="#m04b758d5bf" y="348.22216549"/>
     <use style="fill:#008000;stroke:#000000;stroke-width:0.5;" x="468.799977439" xlink:href="#m04b758d5bf" y="358.840877503"/>
     <use style="fill:#008000;stroke:#000000;stroke-width:0.5;" x="481.200039549" xlink:href="#m04b758d5bf" y="368.949544685"/>
     <use style="fill:#008000;stroke:#000000;stroke-width:0.5;" x="493.600044376" xlink:href="#m04b758d5bf" y="370.357083213"/>
     <use style="fill:#008000;stroke:#000000;stroke-width:0.5;" x="505.999990892" xlink:href="#m04b758d5bf" y="356.907335126"/>
    </g>
   </g>
   <g id="patch_3">
    <path d="M 72 43.2 
L 518.4 43.2 
" style="fill:none;stroke:#000000;stroke-linecap:square;stroke-linejoin:miter;"/>
   </g>
   <g id="patch_4">
    <path d="M 72 388.8 
L 72 43.2 
" style="fill:none;stroke:#000000;stroke-linecap:square;stroke-linejoin:miter;"/>
   </g>
   <g id="patch_5">
    <path d="M 72 388.8 
L 518.4 388.8 
" style="fill:none;stroke:#000000;stroke-linecap:square;stroke-linejoin:miter;"/>
   </g>
   <g id="patch_6">
    <path d="M 518.4 388.8 
L 518.4 43.2 
" style="fill:none;stroke:#000000;stroke-linecap:square;stroke-linejoin:miter;"/>
   </g>
   <g id="matplotlib.axis_1">
    <g id="xtick_1">
     <g id="line2d_6">
      <defs>
       <path d="M 0 0 
L 0 -4 
" id="m2137564ca3" style="stroke:#000000;stroke-width:0.5;"/>
      </defs>
      <g>
       <use style="stroke:#000000;stroke-width:0.5;" x="72.0" xlink:href="#m2137564ca3" y="388.8"/>
      </g>
     </g>
     <g id="line2d_7">
      <defs>
       <path d="M 0 0 
L 0 4 
" id="m2f14251110" style="stroke:#000000;stroke-width:0.5;"/>
      </defs>
      <g>
       <use style="stroke:#000000;stroke-width:0.5;" x="72.0" xlink:href="#m2f14251110" y="43.2"/>
      </g>
     </g>
     <g id="text_1">
      <!-- −180 -->
      <defs>
       <path d="M 10.59375 35.5 
L 73.1875 35.5 
L 73.1875 27.203125 
L 10.59375 27.203125 
z
" id="BitstreamVeraSans-Roman-2212"/>
       <path d="M 31.78125 66.40625 
Q 24.171875 66.40625 20.328125 58.90625 
Q 16.5 51.421875 16.5 36.375 
Q 16.5 21.390625 20.328125 13.890625 
Q 24.171875 6.390625 31.78125 6.390625 
Q 39.453125 6.390625 43.28125 13.890625 
Q 47.125 21.390625 47.125 36.375 
Q 47.125 51.421875 43.28125 58.90625 
Q 39.453125 66.40625 31.78125 66.40625 
M 31.78125 74.21875 
Q 44.046875 74.21875 50.515625 64.515625 
Q 56.984375 54.828125 56.984375 36.375 
Q 56.984375 17.96875 50.515625 8.265625 
Q 44.046875 -1.421875 31.78125 -1.421875 
Q 19.53125 -1.421875 13.0625 8.265625 
Q 6.59375 17.96875 6.59375 36.375 
Q 6.59375 54.828125 13.0625 64.515625 
Q 19.53125 74.21875 31.78125 74.21875 
" id="BitstreamVeraSans-Roman-30"/>
       <path d="M 31.78125 34.625 
Q 24.75 34.625 20.71875 30.859375 
Q 16.703125 27.09375 16.703125 20.515625 
Q 16.703125 13.921875 20.71875 10.15625 
Q 24.75 6.390625 31.78125 6.390625 
Q 38.8125 6.390625 42.859375 10.171875 
Q 46.921875 13.96875 46.921875 20.515625 
Q 46.921875 27.09375 42.890625 30.859375 
Q 38.875 34.625 31.78125 34.625 
M 21.921875 38.8125 
Q 15.578125 40.375 12.03125 44.71875 
Q 8.5 49.078125 8.5 55.328125 
Q 8.5 64.0625 14.71875 69.140625 
Q 20.953125 74.21875 31.78125 74.21875 
Q 42.671875 74.21875 48.875 69.140625 
Q 55.078125 64.0625 55.078125 55.328125 
Q 55.078125 49.078125 51.53125 44.71875 
Q 48 40.375 41.703125 38.8125 
Q 48.828125 37.15625 52.796875 32.3125 
Q 56.78125 27.484375 56.78125 20.515625 
Q 56.78125 9.90625 50.3125 4.234375 
Q 43.84375 -1.421875 31.78125 -1.421875 
Q 19.734375 -1.421875 13.25 4.234375 
Q 6.78125 9.90625 6.78125 20.515625 
Q 6.78125 27.484375 10.78125 32.3125 
Q 14.796875 37.15625 21.921875 38.8125 
M 18.3125 54.390625 
Q 18.3125 48.734375 21.84375 45.5625 
Q 25.390625 42.390625 31.78125 42.390625 
Q 38.140625 42.390625 41.71875 45.5625 
Q 45.3125 48.734375 45.3125 54.390625 
Q 45.3125 60.0625 41.71875 63.234375 
Q 38.140625 66.40625 31.78125 66.40625 
Q 25.390625 66.40625 21.84375 63.234375 
Q 18.3125 60.0625 18.3125 54.390625 
" id="BitstreamVeraSans-Roman-38"/>
       <path d="M 12.40625 8.296875 
L 28.515625 8.296875 
L 28.515625 63.921875 
L 10.984375 60.40625 
L 10.984375 69.390625 
L 28.421875 72.90625 
L 38.28125 72.90625 
L 38.28125 8.296875 
L 54.390625 8.296875 
L 54.390625 0 
L 12.40625 0 
z
" id="BitstreamVeraSans-Roman-31"/>
      </defs>
      <g transform="translate(55.5196875 401.918125)scale(0.12 -0.12)">
       <use xlink:href="#BitstreamVeraSans-Roman-2212"/>
       <use x="83.7890625" xlink:href="#BitstreamVeraSans-Roman-31"/>
       <use x="147.412109375" xlink:href="#BitstreamVeraSans-Roman-38"/>
       <use x="211.03515625" xlink:href="#BitstreamVeraSans-Roman-30"/>
      </g>
     </g>
    </g>
    <g id="xtick_2">
     <g id="line2d_8">
      <g>
       <use style="stroke:#000000;stroke-width:0.5;" x="127.8" xlink:href="#m2137564ca3" y="388.8"/>
      </g>
     </g>
     <g id="line2d_9">
      <g>
       <use style="stroke:#000000;stroke-width:0.5;" x="127.8" xlink:href="#m2f14251110" y="43.2"/>
      </g>
     </g>
     <g id="text_2">
      <!-- −135 -->
      <defs>
       <path d="M 40.578125 39.3125 
Q 47.65625 37.796875 51.625 33 
Q 55.609375 28.21875 55.609375 21.1875 
Q 55.609375 10.40625 48.1875 4.484375 
Q 40.765625 -1.421875 27.09375 -1.421875 
Q 22.515625 -1.421875 17.65625 -0.515625 
Q 12.796875 0.390625 7.625 2.203125 
L 7.625 11.71875 
Q 11.71875 9.328125 16.59375 8.109375 
Q 21.484375 6.890625 26.8125 6.890625 
Q 36.078125 6.890625 40.9375 10.546875 
Q 45.796875 14.203125 45.796875 21.1875 
Q 45.796875 27.640625 41.28125 31.265625 
Q 36.765625 34.90625 28.71875 34.90625 
L 20.21875 34.90625 
L 20.21875 43.015625 
L 29.109375 43.015625 
Q 36.375 43.015625 40.234375 45.921875 
Q 44.09375 48.828125 44.09375 54.296875 
Q 44.09375 59.90625 40.109375 62.90625 
Q 36.140625 65.921875 28.71875 65.921875 
Q 24.65625 65.921875 20.015625 65.03125 
Q 15.375 64.15625 9.8125 62.3125 
L 9.8125 71.09375 
Q 15.4375 72.65625 20.34375 73.4375 
Q 25.25 74.21875 29.59375 74.21875 
Q 40.828125 74.21875 47.359375 69.109375 
Q 53.90625 64.015625 53.90625 55.328125 
Q 53.90625 49.265625 50.4375 45.09375 
Q 46.96875 40.921875 40.578125 39.3125 
" id="BitstreamVeraSans-Roman-33"/>
       <path d="M 10.796875 72.90625 
L 49.515625 72.90625 
L 49.515625 64.59375 
L 19.828125 64.59375 
L 19.828125 46.734375 
Q 21.96875 47.46875 24.109375 47.828125 
Q 26.265625 48.1875 28.421875 48.1875 
Q 40.625 48.1875 47.75 41.5 
Q 54.890625 34.8125 54.890625 23.390625 
Q 54.890625 11.625 47.5625 5.09375 
Q 40.234375 -1.421875 26.90625 -1.421875 
Q 22.3125 -1.421875 17.546875 -0.640625 
Q 12.796875 0.140625 7.71875 1.703125 
L 7.71875 11.625 
Q 12.109375 9.234375 16.796875 8.0625 
Q 21.484375 6.890625 26.703125 6.890625 
Q 35.15625 6.890625 40.078125 11.328125 
Q 45.015625 15.765625 45.015625 23.390625 
Q 45.015625 31 40.078125 35.4375 
Q 35.15625 39.890625 26.703125 39.890625 
Q 22.75 39.890625 18.8125 39.015625 
Q 14.890625 38.140625 10.796875 36.28125 
z
" id="BitstreamVeraSans-Roman-35"/>
      </defs>
      <g transform="translate(111.3196875 401.918125)scale(0.12 -0.12)">
       <use xlink:href="#BitstreamVeraSans-Roman-2212"/>
       <use x="83.7890625" xlink:href="#BitstreamVeraSans-Roman-31"/>
       <use x="147.412109375" xlink:href="#BitstreamVeraSans-Roman-33"/>
       <use x="211.03515625" xlink:href="#BitstreamVeraSans-Roman-35"/>
      </g>
     </g>
    </g>
    <g id="xtick_3">
     <g id="line2d_10">
      <g>
       <use style="stroke:#000000;stroke-width:0.5;" x="183.6" xlink:href="#m2137564ca3" y="388.8"/>
      </g>
     </g>
     <g id="line2d_11">
      <g>
       <use style="stroke:#000000;stroke-width:0.5;" x="183.6" xlink:href="#m2f14251110" y="43.2"/>
      </g>
     </g>
     <g id="text_3">
      <!-- −90 -->
      <defs>
       <path d="M 10.984375 1.515625 
L 10.984375 10.5 
Q 14.703125 8.734375 18.5 7.8125 
Q 22.3125 6.890625 25.984375 6.890625 
Q 35.75 6.890625 40.890625 13.453125 
Q 46.046875 20.015625 46.78125 33.40625 
Q 43.953125 29.203125 39.59375 26.953125 
Q 35.25 24.703125 29.984375 24.703125 
Q 19.046875 24.703125 12.671875 31.3125 
Q 6.296875 37.9375 6.296875 49.421875 
Q 6.296875 60.640625 12.9375 67.421875 
Q 19.578125 74.21875 30.609375 74.21875 
Q 43.265625 74.21875 49.921875 64.515625 
Q 56.59375 54.828125 56.59375 36.375 
Q 56.59375 19.140625 48.40625 8.859375 
Q 40.234375 -1.421875 26.421875 -1.421875 
Q 22.703125 -1.421875 18.890625 -0.6875 
Q 15.09375 0.046875 10.984375 1.515625 
M 30.609375 32.421875 
Q 37.25 32.421875 41.125 36.953125 
Q 45.015625 41.5 45.015625 49.421875 
Q 45.015625 57.28125 41.125 61.84375 
Q 37.25 66.40625 30.609375 66.40625 
Q 23.96875 66.40625 20.09375 61.84375 
Q 16.21875 57.28125 16.21875 49.421875 
Q 16.21875 41.5 20.09375 36.953125 
Q 23.96875 32.421875 30.609375 32.421875 
" id="BitstreamVeraSans-Roman-39"/>
      </defs>
      <g transform="translate(170.9371875 401.918125)scale(0.12 -0.12)">
       <use xlink:href="#BitstreamVeraSans-Roman-2212"/>
       <use x="83.7890625" xlink:href="#BitstreamVeraSans-Roman-39"/>
       <use x="147.412109375" xlink:href="#BitstreamVeraSans-Roman-30"/>
      </g>
     </g>
    </g>
    <g id="xtick_4">
     <g id="line2d_12">
      <g>
       <use style="stroke:#000000;stroke-width:0.5;" x="239.4" xlink:href="#m2137564ca3" y="388.8"/>
      </g>
     </g>
     <g id="line2d_13">
      <g>
       <use style="stroke:#000000;stroke-width:0.5;" x="239.4" xlink:href="#m2f14251110" y="43.2"/>
      </g>
     </g>
     <g id="text_4">
      <!-- −45 -->
      <defs>
       <path d="M 37.796875 64.3125 
L 12.890625 25.390625 
L 37.796875 25.390625 
z
M 35.203125 72.90625 
L 47.609375 72.90625 
L 47.609375 25.390625 
L 58.015625 25.390625 
L 58.015625 17.1875 
L 47.609375 17.1875 
L 47.609375 0 
L 37.796875 0 
L 37.796875 17.1875 
L 4.890625 17.1875 
L 4.890625 26.703125 
z
" id="BitstreamVeraSans-Roman-34"/>
      </defs>
      <g transform="translate(226.7371875 401.918125)scale(0.12 -0.12)">
       <use xlink:href="#BitstreamVeraSans-Roman-2212"/>
       <use x="83.7890625" xlink:href="#BitstreamVeraSans-Roman-34"/>
       <use x="147.412109375" xlink:href="#BitstreamVeraSans-Roman-35"/>
      </g>
     </g>
    </g>
    <g id="xtick_5">
     <g id="line2d_14">
      <g>
       <use style="stroke:#000000;stroke-width:0.5;" x="295.2" xlink:href="#m2137564ca3" y="388.8"/>
      </g>
     </g>
     <g id="line2d_15">
      <g>
       <use style="stroke:#000000;stroke-width:0.5;" x="295.2" xlink:href="#m2f14251110" y="43.2"/>
      </g>
     </g>
     <g id="text_5">
      <!-- 0 -->
      <g transform="translate(291.3825 401.918125)scale(0.12 -0.12)">
       <use xlink:href="#BitstreamVeraSans-Roman-30"/>
      </g>
     </g>
    </g>
    <g id="xtick_6">
     <g id="line2d_16">
      <g>
       <use style="stroke:#000000;stroke-width:0.5;" x="351.0" xlink:href="#m2137564ca3" y="388.8"/>
      </g>
     </g>
     <g id="line2d_17">
      <g>
       <use style="stroke:#000000;stroke-width:0.5;" x="351.0" xlink:href="#m2f14251110" y="43.2"/>
      </g>
     </g>
     <g id="text_6">
      <!-- 45 -->
      <g transform="translate(343.365 401.918125)scale(0.12 -0.12)">
       <use xlink:href="#BitstreamVeraSans-Roman-34"/>
       <use x="63.623046875" xlink:href="#BitstreamVeraSans-Roman-35"/>
      </g>
     </g>
    </g>
    <g id="xtick_7">
     <g id="line2d_18">
      <g>
       <use style="stroke:#000000;stroke-width:0.5;" x="406.8" xlink:href="#m2137564ca3" y="388.8"/>
      </g>
     </g>
     <g id="line2d_19">
      <g>
       <use style="stroke:#000000;stroke-width:0.5;" x="406.8" xlink:href="#m2f14251110" y="43.2"/>
      </g>
     </g>
     <g id="text_7">
      <!-- 90 -->
      <g transform="translate(399.165 401.918125)scale(0.12 -0.12)">
       <use xlink:href="#BitstreamVeraSans-Roman-39"/>
       <use x="63.623046875" xlink:href="#BitstreamVeraSans-Roman-30"/>
      </g>
     </g>
    </g>
    <g id="xtick_8">
     <g id="line2d_20">
      <g>
       <use style="stroke:#000000;stroke-width:0.5;" x="462.6" xlink:href="#m2137564ca3" y="388.8"/>
      </g>
     </g>
     <g id="line2d_21">
      <g>
       <use style="stroke:#000000;stroke-width:0.5;" x="462.6" xlink:href="#m2f14251110" y="43.2"/>
      </g>
     </g>
     <g id="text_8">
      <!-- 135 -->
      <g transform="translate(451.1475 401.918125)scale(0.12 -0.12)">
       <use xlink:href="#BitstreamVeraSans-Roman-31"/>
       <use x="63.623046875" xlink:href="#BitstreamVeraSans-Roman-33"/>
       <use x="127.24609375" xlink:href="#BitstreamVeraSans-Roman-35"/>
      </g>
     </g>
    </g>
    <g id="xtick_9">
     <g id="line2d_22">
      <g>
       <use style="stroke:#000000;stroke-width:0.5;" x="518.4" xlink:href="#m2137564ca3" y="388.8"/>
      </g>
     </g>
     <g id="line2d_23">
      <g>
       <use style="stroke:#000000;stroke-width:0.5;" x="518.4" xlink:href="#m2f14251110" y="43.2"/>
      </g>
     </g>
     <g id="text_9">
      <!-- 180 -->
      <g transform="translate(506.9475 401.918125)scale(0.12 -0.12)">
       <use xlink:href="#BitstreamVeraSans-Roman-31"/>
       <use x="63.623046875" xlink:href="#BitstreamVeraSans-Roman-38"/>
       <use x="127.24609375" xlink:href="#BitstreamVeraSans-Roman-30"/>
      </g>
     </g>
    </g>
    <g id="text_10">
     <!-- Phi -->
     <defs>
      <path d="M 54.890625 33.015625 
L 54.890625 0 
L 45.90625 0 
L 45.90625 32.71875 
Q 45.90625 40.484375 42.875 44.328125 
Q 39.84375 48.1875 33.796875 48.1875 
Q 26.515625 48.1875 22.3125 43.546875 
Q 18.109375 38.921875 18.109375 30.90625 
L 18.109375 0 
L 9.078125 0 
L 9.078125 75.984375 
L 18.109375 75.984375 
L 18.109375 46.1875 
Q 21.34375 51.125 25.703125 53.5625 
Q 30.078125 56 35.796875 56 
Q 45.21875 56 50.046875 50.171875 
Q 54.890625 44.34375 54.890625 33.015625 
" id="BitstreamVeraSans-Roman-68"/>
      <path d="M 19.671875 64.796875 
L 19.671875 37.40625 
L 32.078125 37.40625 
Q 38.96875 37.40625 42.71875 40.96875 
Q 46.484375 44.53125 46.484375 51.125 
Q 46.484375 57.671875 42.71875 61.234375 
Q 38.96875 64.796875 32.078125 64.796875 
z
M 9.8125 72.90625 
L 32.078125 72.90625 
Q 44.34375 72.90625 50.609375 67.359375 
Q 56.890625 61.8125 56.890625 51.125 
Q 56.890625 40.328125 50.609375 34.8125 
Q 44.34375 29.296875 32.078125 29.296875 
L 19.671875 29.296875 
L 19.671875 0 
L 9.8125 0 
z
" id="BitstreamVeraSans-Roman-50"/>
      <path d="M 9.421875 54.6875 
L 18.40625 54.6875 
L 18.40625 0 
L 9.421875 0 
z
M 9.421875 75.984375 
L 18.40625 75.984375 
L 18.40625 64.59375 
L 9.421875 64.59375 
z
" id="BitstreamVeraSans-Roman-69"/>
     </defs>
     <g transform="translate(286.1128125 418.531875)scale(0.12 -0.12)">
      <use xlink:href="#BitstreamVeraSans-Roman-50"/>
      <use x="60.302734375" xlink:href="#BitstreamVeraSans-Roman-68"/>
      <use x="123.681640625" xlink:href="#BitstreamVeraSans-Roman-69"/>
     </g>
    </g>
   </g>
   <g id="matplotlib.axis_2">
    <g id="ytick_1">
     <g id="line2d_24">
      <defs>
       <path d="M 0 0 
L 4 0 
" id="m08c1eef9d3" style="stroke:#000000;stroke-width:0.5;"/>
      </defs>
      <g>
       <use style="stroke:#000000;stroke-width:0.5;" x="72.0" xlink:href="#m08c1eef9d3" y="388.8"/>
      </g>
     </g>
     <g id="line2d_25">
      <defs>
       <path d="M 0 0 
L -4 0 
" id="m1c82d790ea" style="stroke:#000000;stroke-width:0.5;"/>
      </defs>
      <g>
       <use style="stroke:#000000;stroke-width:0.5;" x="518.4" xlink:href="#m1c82d790ea" y="388.8"/>
      </g>
     </g>
     <g id="text_11">
      <!-- 0 -->
      <g transform="translate(60.365 392.11125)scale(0.12 -0.12)">
       <use xlink:href="#BitstreamVeraSans-Roman-30"/>
      </g>
     </g>
    </g>
    <g id="ytick_2">
     <g id="line2d_26">
      <g>
       <use style="stroke:#000000;stroke-width:0.5;" x="72.0" xlink:href="#m08c1eef9d3" y="350.4"/>
      </g>
     </g>
     <g id="line2d_27">
      <g>
       <use style="stroke:#000000;stroke-width:0.5;" x="518.4" xlink:href="#m1c82d790ea" y="350.4"/>
      </g>
     </g>
     <g id="text_12">
      <!-- 1 -->
      <g transform="translate(60.365 353.71125)scale(0.12 -0.12)">
       <use xlink:href="#BitstreamVeraSans-Roman-31"/>
      </g>
     </g>
    </g>
    <g id="ytick_3">
     <g id="line2d_28">
      <g>
       <use style="stroke:#000000;stroke-width:0.5;" x="72.0" xlink:href="#m08c1eef9d3" y="312.0"/>
      </g>
     </g>
     <g id="line2d_29">
      <g>
       <use style="stroke:#000000;stroke-width:0.5;" x="518.4" xlink:href="#m1c82d790ea" y="312.0"/>
      </g>
     </g>
     <g id="text_13">
      <!-- 2 -->
      <defs>
       <path d="M 19.1875 8.296875 
L 53.609375 8.296875 
L 53.609375 0 
L 7.328125 0 
L 7.328125 8.296875 
Q 12.9375 14.109375 22.625 23.890625 
Q 32.328125 33.6875 34.8125 36.53125 
Q 39.546875 41.84375 41.421875 45.53125 
Q 43.3125 49.21875 43.3125 52.78125 
Q 43.3125 58.59375 39.234375 62.25 
Q 35.15625 65.921875 28.609375 65.921875 
Q 23.96875 65.921875 18.8125 64.3125 
Q 13.671875 62.703125 7.8125 59.421875 
L 7.8125 69.390625 
Q 13.765625 71.78125 18.9375 73 
Q 24.125 74.21875 28.421875 74.21875 
Q 39.75 74.21875 46.484375 68.546875 
Q 53.21875 62.890625 53.21875 53.421875 
Q 53.21875 48.921875 51.53125 44.890625 
Q 49.859375 40.875 45.40625 35.40625 
Q 44.1875 33.984375 37.640625 27.21875 
Q 31.109375 20.453125 19.1875 8.296875 
" id="BitstreamVeraSans-Roman-32"/>
      </defs>
      <g transform="translate(60.365 315.31125)scale(0.12 -0.12)">
       <use xlink:href="#BitstreamVeraSans-Roman-32"/>
      </g>
     </g>
    </g>
    <g id="ytick_4">
     <g id="line2d_30">
      <g>
       <use style="stroke:#000000;stroke-width:0.5;" x="72.0" xlink:href="#m08c1eef9d3" y="273.6"/>
      </g>
     </g>
     <g id="line2d_31">
      <g>
       <use style="stroke:#000000;stroke-width:0.5;" x="518.4" xlink:href="#m1c82d790ea" y="273.6"/>
      </g>
     </g>
     <g id="text_14">
      <!-- 3 -->
      <g transform="translate(60.365 276.91125)scale(0.12 -0.12)">
       <use xlink:href="#BitstreamVeraSans-Roman-33"/>
      </g>
     </g>
    </g>
    <g id="ytick_5">
     <g id="line2d_32">
      <g>
       <use style="stroke:#000000;stroke-width:0.5;" x="72.0" xlink:href="#m08c1eef9d3" y="235.2"/>
      </g>
     </g>
     <g id="line2d_33">
      <g>
       <use style="stroke:#000000;stroke-width:0.5;" x="518.4" xlink:href="#m1c82d790ea" y="235.2"/>
      </g>
     </g>
     <g id="text_15">
      <!-- 4 -->
      <g transform="translate(60.365 238.51125)scale(0.12 -0.12)">
       <use xlink:href="#BitstreamVeraSans-Roman-34"/>
      </g>
     </g>
    </g>
    <g id="ytick_6">
     <g id="line2d_34">
      <g>
       <use style="stroke:#000000;stroke-width:0.5;" x="72.0" xlink:href="#m08c1eef9d3" y="196.8"/>
      </g>
     </g>
     <g id="line2d_35">
      <g>
       <use style="stroke:#000000;stroke-width:0.5;" x="518.4" xlink:href="#m1c82d790ea" y="196.8"/>
      </g>
     </g>
     <g id="text_16">
      <!-- 5 -->
      <g transform="translate(60.365 200.11125)scale(0.12 -0.12)">
       <use xlink:href="#BitstreamVeraSans-Roman-35"/>
      </g>
     </g>
    </g>
    <g id="ytick_7">
     <g id="line2d_36">
      <g>
       <use style="stroke:#000000;stroke-width:0.5;" x="72.0" xlink:href="#m08c1eef9d3" y="158.4"/>
      </g>
     </g>
     <g id="line2d_37">
      <g>
       <use style="stroke:#000000;stroke-width:0.5;" x="518.4" xlink:href="#m1c82d790ea" y="158.4"/>
      </g>
     </g>
     <g id="text_17">
      <!-- 6 -->
      <defs>
       <path d="M 33.015625 40.375 
Q 26.375 40.375 22.484375 35.828125 
Q 18.609375 31.296875 18.609375 23.390625 
Q 18.609375 15.53125 22.484375 10.953125 
Q 26.375 6.390625 33.015625 6.390625 
Q 39.65625 6.390625 43.53125 10.953125 
Q 47.40625 15.53125 47.40625 23.390625 
Q 47.40625 31.296875 43.53125 35.828125 
Q 39.65625 40.375 33.015625 40.375 
M 52.59375 71.296875 
L 52.59375 62.3125 
Q 48.875 64.0625 45.09375 64.984375 
Q 41.3125 65.921875 37.59375 65.921875 
Q 27.828125 65.921875 22.671875 59.328125 
Q 17.53125 52.734375 16.796875 39.40625 
Q 19.671875 43.65625 24.015625 45.921875 
Q 28.375 48.1875 33.59375 48.1875 
Q 44.578125 48.1875 50.953125 41.515625 
Q 57.328125 34.859375 57.328125 23.390625 
Q 57.328125 12.15625 50.6875 5.359375 
Q 44.046875 -1.421875 33.015625 -1.421875 
Q 20.359375 -1.421875 13.671875 8.265625 
Q 6.984375 17.96875 6.984375 36.375 
Q 6.984375 53.65625 15.1875 63.9375 
Q 23.390625 74.21875 37.203125 74.21875 
Q 40.921875 74.21875 44.703125 73.484375 
Q 48.484375 72.75 52.59375 71.296875 
" id="BitstreamVeraSans-Roman-36"/>
      </defs>
      <g transform="translate(60.365 161.71125)scale(0.12 -0.12)">
       <use xlink:href="#BitstreamVeraSans-Roman-36"/>
      </g>
     </g>
    </g>
    <g id="ytick_8">
     <g id="line2d_38">
      <g>
       <use style="stroke:#000000;stroke-width:0.5;" x="72.0" xlink:href="#m08c1eef9d3" y="120.0"/>
      </g>
     </g>
     <g id="line2d_39">
      <g>
       <use style="stroke:#000000;stroke-width:0.5;" x="518.4" xlink:href="#m1c82d790ea" y="120.0"/>
      </g>
     </g>
     <g id="text_18">
      <!-- 7 -->
      <defs>
       <path d="M 8.203125 72.90625 
L 55.078125 72.90625 
L 55.078125 68.703125 
L 28.609375 0 
L 18.3125 0 
L 43.21875 64.59375 
L 8.203125 64.59375 
z
" id="BitstreamVeraSans-Roman-37"/>
      </defs>
      <g transform="translate(60.365 123.31125)scale(0.12 -0.12)">
       <use xlink:href="#BitstreamVeraSans-Roman-37"/>
      </g>
     </g>
    </g>
    <g id="ytick_9">
     <g id="line2d_40">
      <g>
       <use style="stroke:#000000;stroke-width:0.5;" x="72.0" xlink:href="#m08c1eef9d3" y="81.6"/>
      </g>
     </g>
     <g id="line2d_41">
      <g>
       <use style="stroke:#000000;stroke-width:0.5;" x="518.4" xlink:href="#m1c82d790ea" y="81.6"/>
      </g>
     </g>
     <g id="text_19">
      <!-- 8 -->
      <g transform="translate(60.365 84.91125)scale(0.12 -0.12)">
       <use xlink:href="#BitstreamVeraSans-Roman-38"/>
      </g>
     </g>
    </g>
    <g id="ytick_10">
     <g id="line2d_42">
      <g>
       <use style="stroke:#000000;stroke-width:0.5;" x="72.0" xlink:href="#m08c1eef9d3" y="43.2"/>
      </g>
     </g>
     <g id="line2d_43">
      <g>
       <use style="stroke:#000000;stroke-width:0.5;" x="518.4" xlink:href="#m1c82d790ea" y="43.2"/>
      </g>
     </g>
     <g id="text_20">
      <!-- 9 -->
      <g transform="translate(60.365 46.51125)scale(0.12 -0.12)">
       <use xlink:href="#BitstreamVeraSans-Roman-39"/>
      </g>
     </g>
    </g>
    <g id="text_21">
     <!-- kcal/mol -->
     <defs>
      <path d="M 25.390625 72.90625 
L 33.6875 72.90625 
L 8.296875 -9.28125 
L 0 -9.28125 
z
" id="BitstreamVeraSans-Roman-2f"/>
      <path d="M 48.78125 52.59375 
L 48.78125 44.1875 
Q 44.96875 46.296875 41.140625 47.34375 
Q 37.3125 48.390625 33.40625 48.390625 
Q 24.65625 48.390625 19.8125 42.84375 
Q 14.984375 37.3125 14.984375 27.296875 
Q 14.984375 17.28125 19.8125 11.734375 
Q 24.65625 6.203125 33.40625 6.203125 
Q 37.3125 6.203125 41.140625 7.25 
Q 44.96875 8.296875 48.78125 10.40625 
L 48.78125 2.09375 
Q 45.015625 0.34375 40.984375 -0.53125 
Q 36.96875 -1.421875 32.421875 -1.421875 
Q 20.0625 -1.421875 12.78125 6.34375 
Q 5.515625 14.109375 5.515625 27.296875 
Q 5.515625 40.671875 12.859375 48.328125 
Q 20.21875 56 33.015625 56 
Q 37.15625 56 41.109375 55.140625 
Q 45.0625 54.296875 48.78125 52.59375 
" id="BitstreamVeraSans-Roman-63"/>
      <path d="M 9.421875 75.984375 
L 18.40625 75.984375 
L 18.40625 0 
L 9.421875 0 
z
" id="BitstreamVeraSans-Roman-6c"/>
      <path d="M 52 44.1875 
Q 55.375 50.25 60.0625 53.125 
Q 64.75 56 71.09375 56 
Q 79.640625 56 84.28125 50.015625 
Q 88.921875 44.046875 88.921875 33.015625 
L 88.921875 0 
L 79.890625 0 
L 79.890625 32.71875 
Q 79.890625 40.578125 77.09375 44.375 
Q 74.3125 48.1875 68.609375 48.1875 
Q 61.625 48.1875 57.5625 43.546875 
Q 53.515625 38.921875 53.515625 30.90625 
L 53.515625 0 
L 44.484375 0 
L 44.484375 32.71875 
Q 44.484375 40.625 41.703125 44.40625 
Q 38.921875 48.1875 33.109375 48.1875 
Q 26.21875 48.1875 22.15625 43.53125 
Q 18.109375 38.875 18.109375 30.90625 
L 18.109375 0 
L 9.078125 0 
L 9.078125 54.6875 
L 18.109375 54.6875 
L 18.109375 46.1875 
Q 21.1875 51.21875 25.484375 53.609375 
Q 29.78125 56 35.6875 56 
Q 41.65625 56 45.828125 52.96875 
Q 50 49.953125 52 44.1875 
" id="BitstreamVeraSans-Roman-6d"/>
      <path d="M 34.28125 27.484375 
Q 23.390625 27.484375 19.1875 25 
Q 14.984375 22.515625 14.984375 16.5 
Q 14.984375 11.71875 18.140625 8.90625 
Q 21.296875 6.109375 26.703125 6.109375 
Q 34.1875 6.109375 38.703125 11.40625 
Q 43.21875 16.703125 43.21875 25.484375 
L 43.21875 27.484375 
z
M 52.203125 31.203125 
L 52.203125 0 
L 43.21875 0 
L 43.21875 8.296875 
Q 40.140625 3.328125 35.546875 0.953125 
Q 30.953125 -1.421875 24.3125 -1.421875 
Q 15.921875 -1.421875 10.953125 3.296875 
Q 6 8.015625 6 15.921875 
Q 6 25.140625 12.171875 29.828125 
Q 18.359375 34.515625 30.609375 34.515625 
L 43.21875 34.515625 
L 43.21875 35.40625 
Q 43.21875 41.609375 39.140625 45 
Q 35.0625 48.390625 27.6875 48.390625 
Q 23 48.390625 18.546875 47.265625 
Q 14.109375 46.140625 10.015625 43.890625 
L 10.015625 52.203125 
Q 14.9375 54.109375 19.578125 55.046875 
Q 24.21875 56 28.609375 56 
Q 40.484375 56 46.34375 49.84375 
Q 52.203125 43.703125 52.203125 31.203125 
" id="BitstreamVeraSans-Roman-61"/>
      <path d="M 9.078125 75.984375 
L 18.109375 75.984375 
L 18.109375 31.109375 
L 44.921875 54.6875 
L 56.390625 54.6875 
L 27.390625 29.109375 
L 57.625 0 
L 45.90625 0 
L 18.109375 26.703125 
L 18.109375 0 
L 9.078125 0 
z
" id="BitstreamVeraSans-Roman-6b"/>
      <path d="M 30.609375 48.390625 
Q 23.390625 48.390625 19.1875 42.75 
Q 14.984375 37.109375 14.984375 27.296875 
Q 14.984375 17.484375 19.15625 11.84375 
Q 23.34375 6.203125 30.609375 6.203125 
Q 37.796875 6.203125 41.984375 11.859375 
Q 46.1875 17.53125 46.1875 27.296875 
Q 46.1875 37.015625 41.984375 42.703125 
Q 37.796875 48.390625 30.609375 48.390625 
M 30.609375 56 
Q 42.328125 56 49.015625 48.375 
Q 55.71875 40.765625 55.71875 27.296875 
Q 55.71875 13.875 49.015625 6.21875 
Q 42.328125 -1.421875 30.609375 -1.421875 
Q 18.84375 -1.421875 12.171875 6.21875 
Q 5.515625 13.875 5.515625 27.296875 
Q 5.515625 40.765625 12.171875 48.375 
Q 18.84375 56 30.609375 56 
" id="BitstreamVeraSans-Roman-6f"/>
     </defs>
     <g transform="translate(52.869375 241.3209375)rotate(-90.0)scale(0.12 -0.12)">
      <use xlink:href="#BitstreamVeraSans-Roman-6b"/>
      <use x="57.91015625" xlink:href="#BitstreamVeraSans-Roman-63"/>
      <use x="112.890625" xlink:href="#BitstreamVeraSans-Roman-61"/>
      <use x="174.169921875" xlink:href="#BitstreamVeraSans-Roman-6c"/>
      <use x="201.953125" xlink:href="#BitstreamVeraSans-Roman-2f"/>
      <use x="235.64453125" xlink:href="#BitstreamVeraSans-Roman-6d"/>
      <use x="333.056640625" xlink:href="#BitstreamVeraSans-Roman-6f"/>
      <use x="394.23828125" xlink:href="#BitstreamVeraSans-Roman-6c"/>
     </g>
    </g>
   </g>
   <g id="text_22">
    <!-- H4-C3-O2-C1 -->
    <defs>
     <path d="M 39.40625 66.21875 
Q 28.65625 66.21875 22.328125 58.203125 
Q 16.015625 50.203125 16.015625 36.375 
Q 16.015625 22.609375 22.328125 14.59375 
Q 28.65625 6.59375 39.40625 6.59375 
Q 50.140625 6.59375 56.421875 14.59375 
Q 62.703125 22.609375 62.703125 36.375 
Q 62.703125 50.203125 56.421875 58.203125 
Q 50.140625 66.21875 39.40625 66.21875 
M 39.40625 74.21875 
Q 54.734375 74.21875 63.90625 63.9375 
Q 73.09375 53.65625 73.09375 36.375 
Q 73.09375 19.140625 63.90625 8.859375 
Q 54.734375 -1.421875 39.40625 -1.421875 
Q 24.03125 -1.421875 14.8125 8.828125 
Q 5.609375 19.09375 5.609375 36.375 
Q 5.609375 53.65625 14.8125 63.9375 
Q 24.03125 74.21875 39.40625 74.21875 
" id="BitstreamVeraSans-Roman-4f"/>
     <path d="M 4.890625 31.390625 
L 31.203125 31.390625 
L 31.203125 23.390625 
L 4.890625 23.390625 
z
" id="BitstreamVeraSans-Roman-2d"/>
     <path d="M 9.8125 72.90625 
L 19.671875 72.90625 
L 19.671875 43.015625 
L 55.515625 43.015625 
L 55.515625 72.90625 
L 65.375 72.90625 
L 65.375 0 
L 55.515625 0 
L 55.515625 34.71875 
L 19.671875 34.71875 
L 19.671875 0 
L 9.8125 0 
z
" id="BitstreamVeraSans-Roman-48"/>
     <path d="M 64.40625 67.28125 
L 64.40625 56.890625 
Q 59.421875 61.53125 53.78125 63.8125 
Q 48.140625 66.109375 41.796875 66.109375 
Q 29.296875 66.109375 22.65625 58.46875 
Q 16.015625 50.828125 16.015625 36.375 
Q 16.015625 21.96875 22.65625 14.328125 
Q 29.296875 6.6875 41.796875 6.6875 
Q 48.140625 6.6875 53.78125 8.984375 
Q 59.421875 11.28125 64.40625 15.921875 
L 64.40625 5.609375 
Q 59.234375 2.09375 53.4375 0.328125 
Q 47.65625 -1.421875 41.21875 -1.421875 
Q 24.65625 -1.421875 15.125 8.703125 
Q 5.609375 18.84375 5.609375 36.375 
Q 5.609375 53.953125 15.125 64.078125 
Q 24.65625 74.21875 41.21875 74.21875 
Q 47.75 74.21875 53.53125 72.484375 
Q 59.328125 70.75 64.40625 67.28125 
" id="BitstreamVeraSans-Roman-43"/>
    </defs>
    <g transform="translate(247.94325 38.2)scale(0.144 -0.144)">
     <use xlink:href="#BitstreamVeraSans-Roman-48"/>
     <use x="75.1953125" xlink:href="#BitstreamVeraSans-Roman-34"/>
     <use x="138.818359375" xlink:href="#BitstreamVeraSans-Roman-2d"/>
     <use x="174.90234375" xlink:href="#BitstreamVeraSans-Roman-43"/>
     <use x="244.7265625" xlink:href="#BitstreamVeraSans-Roman-33"/>
     <use x="308.349609375" xlink:href="#BitstreamVeraSans-Roman-2d"/>
     <use x="344.46484375" xlink:href="#BitstreamVeraSans-Roman-4f"/>
     <use x="423.17578125" xlink:href="#BitstreamVeraSans-Roman-32"/>
     <use x="486.798828125" xlink:href="#BitstreamVeraSans-Roman-2d"/>
     <use x="522.8828125" xlink:href="#BitstreamVeraSans-Roman-43"/>
     <use x="592.70703125" xlink:href="#BitstreamVeraSans-Roman-31"/>
    </g>
   </g>
   <g id="legend_1">
    <g id="patch_7">
     <path d="M 406.15625 108.3125 
L 514.4 108.3125 
L 514.4 47.2 
L 406.15625 47.2 
z
" style="fill:#ffffff;stroke:#000000;stroke-linejoin:miter;"/>
    </g>
    <g id="line2d_44">
     <path d="M 411.75625 53.67875 
L 422.95625 53.67875 
" style="fill:none;stroke:#ff0000;stroke-linecap:square;"/>
    </g>
    <g id="line2d_45">
     <g>
      <use style="fill:#ff0000;stroke:#000000;stroke-width:0.5;" x="411.75625" xlink:href="#mda9f8b0841" y="53.67875"/>
      <use style="fill:#ff0000;stroke:#000000;stroke-width:0.5;" x="422.95625" xlink:href="#mda9f8b0841" y="53.67875"/>
     </g>
    </g>
    <g id="text_23">
     <!-- QM -->
     <defs>
      <path d="M 39.40625 66.21875 
Q 28.65625 66.21875 22.328125 58.203125 
Q 16.015625 50.203125 16.015625 36.375 
Q 16.015625 22.609375 22.328125 14.59375 
Q 28.65625 6.59375 39.40625 6.59375 
Q 50.140625 6.59375 56.421875 14.59375 
Q 62.703125 22.609375 62.703125 36.375 
Q 62.703125 50.203125 56.421875 58.203125 
Q 50.140625 66.21875 39.40625 66.21875 
M 53.21875 1.3125 
L 66.21875 -12.890625 
L 54.296875 -12.890625 
L 43.5 -1.21875 
Q 41.890625 -1.3125 41.03125 -1.359375 
Q 40.1875 -1.421875 39.40625 -1.421875 
Q 24.03125 -1.421875 14.8125 8.859375 
Q 5.609375 19.140625 5.609375 36.375 
Q 5.609375 53.65625 14.8125 63.9375 
Q 24.03125 74.21875 39.40625 74.21875 
Q 54.734375 74.21875 63.90625 63.9375 
Q 73.09375 53.65625 73.09375 36.375 
Q 73.09375 23.6875 67.984375 14.640625 
Q 62.890625 5.609375 53.21875 1.3125 
" id="BitstreamVeraSans-Roman-51"/>
      <path d="M 9.8125 72.90625 
L 24.515625 72.90625 
L 43.109375 23.296875 
L 61.8125 72.90625 
L 76.515625 72.90625 
L 76.515625 0 
L 66.890625 0 
L 66.890625 64.015625 
L 48.09375 14.015625 
L 38.1875 14.015625 
L 19.390625 64.015625 
L 19.390625 0 
L 9.8125 0 
z
" id="BitstreamVeraSans-Roman-4d"/>
     </defs>
     <g transform="translate(431.75625 56.47875)scale(0.08 -0.08)">
      <use xlink:href="#BitstreamVeraSans-Roman-51"/>
      <use x="78.7109375" xlink:href="#BitstreamVeraSans-Roman-4d"/>
     </g>
    </g>
    <g id="line2d_46">
     <path d="M 411.75625 65.42125 
L 422.95625 65.42125 
" style="fill:none;stroke:#0000ff;stroke-linecap:square;"/>
    </g>
    <g id="line2d_47">
     <g>
      <use style="fill:#0000ff;stroke:#000000;stroke-width:0.5;" x="411.75625" xlink:href="#mfb8521cd44" y="65.42125"/>
      <use style="fill:#0000ff;stroke:#000000;stroke-width:0.5;" x="422.95625" xlink:href="#mfb8521cd44" y="65.42125"/>
     </g>
    </g>
    <g id="text_24">
     <!-- MM Original -->
     <defs>
      <path d="M 45.40625 27.984375 
Q 45.40625 37.75 41.375 43.109375 
Q 37.359375 48.484375 30.078125 48.484375 
Q 22.859375 48.484375 18.828125 43.109375 
Q 14.796875 37.75 14.796875 27.984375 
Q 14.796875 18.265625 18.828125 12.890625 
Q 22.859375 7.515625 30.078125 7.515625 
Q 37.359375 7.515625 41.375 12.890625 
Q 45.40625 18.265625 45.40625 27.984375 
M 54.390625 6.78125 
Q 54.390625 -7.171875 48.1875 -13.984375 
Q 42 -20.796875 29.203125 -20.796875 
Q 24.46875 -20.796875 20.265625 -20.09375 
Q 16.0625 -19.390625 12.109375 -17.921875 
L 12.109375 -9.1875 
Q 16.0625 -11.328125 19.921875 -12.34375 
Q 23.78125 -13.375 27.78125 -13.375 
Q 36.625 -13.375 41.015625 -8.765625 
Q 45.40625 -4.15625 45.40625 5.171875 
L 45.40625 9.625 
Q 42.625 4.78125 38.28125 2.390625 
Q 33.9375 0 27.875 0 
Q 17.828125 0 11.671875 7.65625 
Q 5.515625 15.328125 5.515625 27.984375 
Q 5.515625 40.671875 11.671875 48.328125 
Q 17.828125 56 27.875 56 
Q 33.9375 56 38.28125 53.609375 
Q 42.625 51.21875 45.40625 46.390625 
L 45.40625 54.6875 
L 54.390625 54.6875 
z
" id="BitstreamVeraSans-Roman-67"/>
      <path d="M 41.109375 46.296875 
Q 39.59375 47.171875 37.8125 47.578125 
Q 36.03125 48 33.890625 48 
Q 26.265625 48 22.1875 43.046875 
Q 18.109375 38.09375 18.109375 28.8125 
L 18.109375 0 
L 9.078125 0 
L 9.078125 54.6875 
L 18.109375 54.6875 
L 18.109375 46.1875 
Q 20.953125 51.171875 25.484375 53.578125 
Q 30.03125 56 36.53125 56 
Q 37.453125 56 38.578125 55.875 
Q 39.703125 55.765625 41.0625 55.515625 
z
" id="BitstreamVeraSans-Roman-72"/>
      <path id="BitstreamVeraSans-Roman-20"/>
      <path d="M 54.890625 33.015625 
L 54.890625 0 
L 45.90625 0 
L 45.90625 32.71875 
Q 45.90625 40.484375 42.875 44.328125 
Q 39.84375 48.1875 33.796875 48.1875 
Q 26.515625 48.1875 22.3125 43.546875 
Q 18.109375 38.921875 18.109375 30.90625 
L 18.109375 0 
L 9.078125 0 
L 9.078125 54.6875 
L 18.109375 54.6875 
L 18.109375 46.1875 
Q 21.34375 51.125 25.703125 53.5625 
Q 30.078125 56 35.796875 56 
Q 45.21875 56 50.046875 50.171875 
Q 54.890625 44.34375 54.890625 33.015625 
" id="BitstreamVeraSans-Roman-6e"/>
     </defs>
     <g transform="translate(431.75625 68.22125)scale(0.08 -0.08)">
      <use xlink:href="#BitstreamVeraSans-Roman-4d"/>
      <use x="86.279296875" xlink:href="#BitstreamVeraSans-Roman-4d"/>
      <use x="172.55859375" xlink:href="#BitstreamVeraSans-Roman-20"/>
      <use x="204.345703125" xlink:href="#BitstreamVeraSans-Roman-4f"/>
      <use x="283.056640625" xlink:href="#BitstreamVeraSans-Roman-72"/>
      <use x="324.169921875" xlink:href="#BitstreamVeraSans-Roman-69"/>
      <use x="351.953125" xlink:href="#BitstreamVeraSans-Roman-67"/>
      <use x="415.4296875" xlink:href="#BitstreamVeraSans-Roman-69"/>
      <use x="443.212890625" xlink:href="#BitstreamVeraSans-Roman-6e"/>
      <use x="506.591796875" xlink:href="#BitstreamVeraSans-Roman-61"/>
      <use x="567.87109375" xlink:href="#BitstreamVeraSans-Roman-6c"/>
     </g>
    </g>
    <g id="line2d_48">
     <path d="M 411.75625 77.16375 
L 422.95625 77.16375 
" style="fill:none;stroke:#000000;stroke-linecap:square;"/>
    </g>
    <g id="line2d_49">
     <g>
      <use style="stroke:#000000;stroke-width:0.5;" x="411.75625" xlink:href="#mb84f4f68f9" y="77.16375"/>
      <use style="stroke:#000000;stroke-width:0.5;" x="422.95625" xlink:href="#mb84f4f68f9" y="77.16375"/>
     </g>
    </g>
    <g id="text_25">
     <!-- MM With phi zeroed -->
     <defs>
      <path d="M 5.515625 54.6875 
L 48.1875 54.6875 
L 48.1875 46.484375 
L 14.40625 7.171875 
L 48.1875 7.171875 
L 48.1875 0 
L 4.296875 0 
L 4.296875 8.203125 
L 38.09375 47.515625 
L 5.515625 47.515625 
z
" id="BitstreamVeraSans-Roman-7a"/>
      <path d="M 3.328125 72.90625 
L 13.28125 72.90625 
L 28.609375 11.28125 
L 43.890625 72.90625 
L 54.984375 72.90625 
L 70.3125 11.28125 
L 85.59375 72.90625 
L 95.609375 72.90625 
L 77.296875 0 
L 64.890625 0 
L 49.515625 63.28125 
L 33.984375 0 
L 21.578125 0 
z
" id="BitstreamVeraSans-Roman-57"/>
      <path d="M 45.40625 46.390625 
L 45.40625 75.984375 
L 54.390625 75.984375 
L 54.390625 0 
L 45.40625 0 
L 45.40625 8.203125 
Q 42.578125 3.328125 38.25 0.953125 
Q 33.9375 -1.421875 27.875 -1.421875 
Q 17.96875 -1.421875 11.734375 6.484375 
Q 5.515625 14.40625 5.515625 27.296875 
Q 5.515625 40.1875 11.734375 48.09375 
Q 17.96875 56 27.875 56 
Q 33.9375 56 38.25 53.625 
Q 42.578125 51.265625 45.40625 46.390625 
M 14.796875 27.296875 
Q 14.796875 17.390625 18.875 11.75 
Q 22.953125 6.109375 30.078125 6.109375 
Q 37.203125 6.109375 41.296875 11.75 
Q 45.40625 17.390625 45.40625 27.296875 
Q 45.40625 37.203125 41.296875 42.84375 
Q 37.203125 48.484375 30.078125 48.484375 
Q 22.953125 48.484375 18.875 42.84375 
Q 14.796875 37.203125 14.796875 27.296875 
" id="BitstreamVeraSans-Roman-64"/>
      <path d="M 18.3125 70.21875 
L 18.3125 54.6875 
L 36.8125 54.6875 
L 36.8125 47.703125 
L 18.3125 47.703125 
L 18.3125 18.015625 
Q 18.3125 11.328125 20.140625 9.421875 
Q 21.96875 7.515625 27.59375 7.515625 
L 36.8125 7.515625 
L 36.8125 0 
L 27.59375 0 
Q 17.1875 0 13.234375 3.875 
Q 9.28125 7.765625 9.28125 18.015625 
L 9.28125 47.703125 
L 2.6875 47.703125 
L 2.6875 54.6875 
L 9.28125 54.6875 
L 9.28125 70.21875 
z
" id="BitstreamVeraSans-Roman-74"/>
      <path d="M 56.203125 29.59375 
L 56.203125 25.203125 
L 14.890625 25.203125 
Q 15.484375 15.921875 20.484375 11.0625 
Q 25.484375 6.203125 34.421875 6.203125 
Q 39.59375 6.203125 44.453125 7.46875 
Q 49.3125 8.734375 54.109375 11.28125 
L 54.109375 2.78125 
Q 49.265625 0.734375 44.1875 -0.34375 
Q 39.109375 -1.421875 33.890625 -1.421875 
Q 20.796875 -1.421875 13.15625 6.1875 
Q 5.515625 13.8125 5.515625 26.8125 
Q 5.515625 40.234375 12.765625 48.109375 
Q 20.015625 56 32.328125 56 
Q 43.359375 56 49.78125 48.890625 
Q 56.203125 41.796875 56.203125 29.59375 
M 47.21875 32.234375 
Q 47.125 39.59375 43.09375 43.984375 
Q 39.0625 48.390625 32.421875 48.390625 
Q 24.90625 48.390625 20.390625 44.140625 
Q 15.875 39.890625 15.1875 32.171875 
z
" id="BitstreamVeraSans-Roman-65"/>
      <path d="M 18.109375 8.203125 
L 18.109375 -20.796875 
L 9.078125 -20.796875 
L 9.078125 54.6875 
L 18.109375 54.6875 
L 18.109375 46.390625 
Q 20.953125 51.265625 25.265625 53.625 
Q 29.59375 56 35.59375 56 
Q 45.5625 56 51.78125 48.09375 
Q 58.015625 40.1875 58.015625 27.296875 
Q 58.015625 14.40625 51.78125 6.484375 
Q 45.5625 -1.421875 35.59375 -1.421875 
Q 29.59375 -1.421875 25.265625 0.953125 
Q 20.953125 3.328125 18.109375 8.203125 
M 48.6875 27.296875 
Q 48.6875 37.203125 44.609375 42.84375 
Q 40.53125 48.484375 33.40625 48.484375 
Q 26.265625 48.484375 22.1875 42.84375 
Q 18.109375 37.203125 18.109375 27.296875 
Q 18.109375 17.390625 22.1875 11.75 
Q 26.265625 6.109375 33.40625 6.109375 
Q 40.53125 6.109375 44.609375 11.75 
Q 48.6875 17.390625 48.6875 27.296875 
" id="BitstreamVeraSans-Roman-70"/>
     </defs>
     <g transform="translate(431.75625 79.96375)scale(0.08 -0.08)">
      <use xlink:href="#BitstreamVeraSans-Roman-4d"/>
      <use x="86.279296875" xlink:href="#BitstreamVeraSans-Roman-4d"/>
      <use x="172.55859375" xlink:href="#BitstreamVeraSans-Roman-20"/>
      <use x="204.345703125" xlink:href="#BitstreamVeraSans-Roman-57"/>
      <use x="303.19140625" xlink:href="#BitstreamVeraSans-Roman-69"/>
      <use x="330.974609375" xlink:href="#BitstreamVeraSans-Roman-74"/>
      <use x="370.18359375" xlink:href="#BitstreamVeraSans-Roman-68"/>
      <use x="433.5625" xlink:href="#BitstreamVeraSans-Roman-20"/>
      <use x="465.349609375" xlink:href="#BitstreamVeraSans-Roman-70"/>
      <use x="528.826171875" xlink:href="#BitstreamVeraSans-Roman-68"/>
      <use x="592.205078125" xlink:href="#BitstreamVeraSans-Roman-69"/>
      <use x="619.98828125" xlink:href="#BitstreamVeraSans-Roman-20"/>
      <use x="651.775390625" xlink:href="#BitstreamVeraSans-Roman-7a"/>
      <use x="704.265625" xlink:href="#BitstreamVeraSans-Roman-65"/>
      <use x="765.7890625" xlink:href="#BitstreamVeraSans-Roman-72"/>
      <use x="806.87109375" xlink:href="#BitstreamVeraSans-Roman-6f"/>
      <use x="868.052734375" xlink:href="#BitstreamVeraSans-Roman-65"/>
      <use x="929.576171875" xlink:href="#BitstreamVeraSans-Roman-64"/>
     </g>
    </g>
    <g id="line2d_50">
     <path d="M 411.75625 88.90625 
L 422.95625 88.90625 
" style="fill:none;stroke:#ff00ff;stroke-linecap:square;"/>
    </g>
    <g id="line2d_51">
     <g>
      <use style="fill:#ff00ff;stroke:#ff00ff;stroke-width:0.5;" x="411.75625" xlink:href="#mf3739f3623" y="88.90625"/>
      <use style="fill:#ff00ff;stroke:#ff00ff;stroke-width:0.5;" x="422.95625" xlink:href="#mf3739f3623" y="88.90625"/>
     </g>
    </g>
    <g id="text_26">
     <!-- QM-MM target -->
     <g transform="translate(431.75625 91.70625)scale(0.08 -0.08)">
      <use xlink:href="#BitstreamVeraSans-Roman-51"/>
      <use x="78.7109375" xlink:href="#BitstreamVeraSans-Roman-4d"/>
      <use x="164.990234375" xlink:href="#BitstreamVeraSans-Roman-2d"/>
      <use x="201.07421875" xlink:href="#BitstreamVeraSans-Roman-4d"/>
      <use x="287.353515625" xlink:href="#BitstreamVeraSans-Roman-4d"/>
      <use x="373.6328125" xlink:href="#BitstreamVeraSans-Roman-20"/>
      <use x="405.419921875" xlink:href="#BitstreamVeraSans-Roman-74"/>
      <use x="444.62890625" xlink:href="#BitstreamVeraSans-Roman-61"/>
      <use x="505.908203125" xlink:href="#BitstreamVeraSans-Roman-72"/>
      <use x="547.005859375" xlink:href="#BitstreamVeraSans-Roman-67"/>
      <use x="610.482421875" xlink:href="#BitstreamVeraSans-Roman-65"/>
      <use x="672.005859375" xlink:href="#BitstreamVeraSans-Roman-74"/>
     </g>
    </g>
    <g id="line2d_52">
     <path d="M 411.75625 100.64875 
L 422.95625 100.64875 
" style="fill:none;stroke:#008000;stroke-linecap:square;"/>
    </g>
    <g id="line2d_53">
     <g>
      <use style="fill:#008000;stroke:#000000;stroke-width:0.5;" x="411.75625" xlink:href="#m04b758d5bf" y="100.64875"/>
      <use style="fill:#008000;stroke:#000000;stroke-width:0.5;" x="422.95625" xlink:href="#m04b758d5bf" y="100.64875"/>
     </g>
    </g>
    <g id="text_27">
     <!-- MM Fitted -->
     <defs>
      <path d="M 9.8125 72.90625 
L 51.703125 72.90625 
L 51.703125 64.59375 
L 19.671875 64.59375 
L 19.671875 43.109375 
L 48.578125 43.109375 
L 48.578125 34.8125 
L 19.671875 34.8125 
L 19.671875 0 
L 9.8125 0 
z
" id="BitstreamVeraSans-Roman-46"/>
     </defs>
     <g transform="translate(431.75625 103.44875)scale(0.08 -0.08)">
      <use xlink:href="#BitstreamVeraSans-Roman-4d"/>
      <use x="86.279296875" xlink:href="#BitstreamVeraSans-Roman-4d"/>
      <use x="172.55859375" xlink:href="#BitstreamVeraSans-Roman-20"/>
      <use x="204.345703125" xlink:href="#BitstreamVeraSans-Roman-46"/>
      <use x="261.755859375" xlink:href="#BitstreamVeraSans-Roman-69"/>
      <use x="289.5390625" xlink:href="#BitstreamVeraSans-Roman-74"/>
      <use x="328.748046875" xlink:href="#BitstreamVeraSans-Roman-74"/>
      <use x="367.95703125" xlink:href="#BitstreamVeraSans-Roman-65"/>
      <use x="429.48046875" xlink:href="#BitstreamVeraSans-Roman-64"/>
     </g>
    </g>
   </g>
  </g>
 </g>
 <defs>
  <clipPath id="p6d313abb73">
   <rect height="345.6" width="446.4" x="72.0" y="43.2"/>
  </clipPath>
 </defs>
</svg>
