<?xml version="1.0" encoding="utf-8" standalone="no"?>
<!DOCTYPE svg PUBLIC "-//W3C//DTD SVG 1.1//EN"
  "http://www.w3.org/Graphics/SVG/1.1/DTD/svg11.dtd">
<!-- Created with matplotlib (http://matplotlib.org/) -->
<svg height="432pt" version="1.1" viewBox="0 0 576 432" width="576pt" xmlns="http://www.w3.org/2000/svg" xmlns:xlink="http://www.w3.org/1999/xlink">
 <defs>
  <style type="text/css">
*{stroke-linecap:butt;stroke-linejoin:round;stroke-miterlimit:100000;}
  </style>
 </defs>
 <g id="figure_1">
  <g id="patch_1">
   <path d="M 0 432 
L 576 432 
L 576 0 
L 0 0 
z
" style="fill:#ffffff;"/>
  </g>
  <g id="axes_1">
   <g id="patch_2">
    <path d="M 72 388.8 
L 518.4 388.8 
L 518.4 43.2 
L 72 43.2 
z
" style="fill:#ffffff;"/>
   </g>
   <g id="line2d_1">
    <path clip-path="url(#pd9059a0acb)" d="M 72.000974 388.8 
L 84.400015 372.060728 
L 96.799994 336.340684 
L 109.200053 290.249673 
L 121.600005 245.756159 
L 134 215.256082 
L 146.400033 207.701032 
L 158.799975 225.627963 
L 171.200033 263.839939 
L 183.599949 311.025163 
L 195.999943 353.270407 
L 208.399936 377.968473 
L 220.799988 376.935093 
L 233.199965 348.073007 
L 245.599942 295.466327 
L 257.999972 228.797231 
L 270.399968 161.279573 
L 282.799985 106.72611 
L 295.199629 76.242958 
L 307.600012 75.451921 
L 320.000003 103.950393 
L 332.399972 154.339217 
L 344.800039 215.291824 
L 357.200032 273.362457 
L 369.599973 316.164514 
L 382.000041 335.464127 
L 394.39999 330.614419 
L 406.800042 306.974741 
L 419.200012 275.912735 
L 431.599989 250.257289 
L 444.000059 240.504085 
L 456.400036 251.389373 
L 468.800048 280.609322 
L 481.200022 319.814822 
L 493.600057 357.630586 
L 506.000061 383.187 
" style="fill:none;stroke:#ff0000;stroke-linecap:square;"/>
    <defs>
     <path d="M 0 3 
C 0.795609 3 1.55874 2.683901 2.12132 2.12132 
C 2.683901 1.55874 3 0.795609 3 0 
C 3 -0.795609 2.683901 -1.55874 2.12132 -2.12132 
C 1.55874 -2.683901 0.795609 -3 0 -3 
C -0.795609 -3 -1.55874 -2.683901 -2.12132 -2.12132 
C -2.683901 -1.55874 -3 -0.795609 -3 0 
C -3 0.795609 -2.683901 1.55874 -2.12132 2.12132 
C -1.55874 2.683901 -0.795609 3 0 3 
z
" id="m64b54ff9c6" style="stroke:#000000;stroke-width:0.5;"/>
    </defs>
    <g clip-path="url(#pd9059a0acb)">
     <use style="fill:#ff0000;stroke:#000000;stroke-width:0.5;" x="72.0009739197" xlink:href="#m64b54ff9c6" y="388.8"/>
     <use style="fill:#ff0000;stroke:#000000;stroke-width:0.5;" x="84.4000152167" xlink:href="#m64b54ff9c6" y="372.060727693"/>
     <use style="fill:#ff0000;stroke:#000000;stroke-width:0.5;" x="96.7999935155" xlink:href="#m64b54ff9c6" y="336.340684174"/>
     <use style="fill:#ff0000;stroke:#000000;stroke-width:0.5;" x="109.200053022" xlink:href="#m64b54ff9c6" y="290.249673414"/>
     <use style="fill:#ff0000;stroke:#000000;stroke-width:0.5;" x="121.600004864" xlink:href="#m64b54ff9c6" y="245.75615914"/>
     <use style="fill:#ff0000;stroke:#000000;stroke-width:0.5;" x="134.000000204" xlink:href="#m64b54ff9c6" y="215.256081567"/>
     <use style="fill:#ff0000;stroke:#000000;stroke-width:0.5;" x="146.400032574" xlink:href="#m64b54ff9c6" y="207.701032099"/>
     <use style="fill:#ff0000;stroke:#000000;stroke-width:0.5;" x="158.799975436" xlink:href="#m64b54ff9c6" y="225.627963257"/>
     <use style="fill:#ff0000;stroke:#000000;stroke-width:0.5;" x="171.200032627" xlink:href="#m64b54ff9c6" y="263.839939091"/>
     <use style="fill:#ff0000;stroke:#000000;stroke-width:0.5;" x="183.599949441" xlink:href="#m64b54ff9c6" y="311.025162583"/>
     <use style="fill:#ff0000;stroke:#000000;stroke-width:0.5;" x="195.99994339" xlink:href="#m64b54ff9c6" y="353.270406726"/>
     <use style="fill:#ff0000;stroke:#000000;stroke-width:0.5;" x="208.399936109" xlink:href="#m64b54ff9c6" y="377.968472895"/>
     <use style="fill:#ff0000;stroke:#000000;stroke-width:0.5;" x="220.799987683" xlink:href="#m64b54ff9c6" y="376.9350934"/>
     <use style="fill:#ff0000;stroke:#000000;stroke-width:0.5;" x="233.199964983" xlink:href="#m64b54ff9c6" y="348.073006896"/>
     <use style="fill:#ff0000;stroke:#000000;stroke-width:0.5;" x="245.599941951" xlink:href="#m64b54ff9c6" y="295.466327011"/>
     <use style="fill:#ff0000;stroke:#000000;stroke-width:0.5;" x="257.999971952" xlink:href="#m64b54ff9c6" y="228.797230853"/>
     <use style="fill:#ff0000;stroke:#000000;stroke-width:0.5;" x="270.399968379" xlink:href="#m64b54ff9c6" y="161.279573087"/>
     <use style="fill:#ff0000;stroke:#000000;stroke-width:0.5;" x="282.799984585" xlink:href="#m64b54ff9c6" y="106.726109605"/>
     <use style="fill:#ff0000;stroke:#000000;stroke-width:0.5;" x="295.199629477" xlink:href="#m64b54ff9c6" y="76.2429582004"/>
     <use style="fill:#ff0000;stroke:#000000;stroke-width:0.5;" x="307.600011829" xlink:href="#m64b54ff9c6" y="75.4519205336"/>
     <use style="fill:#ff0000;stroke:#000000;stroke-width:0.5;" x="320.000003129" xlink:href="#m64b54ff9c6" y="103.950392951"/>
     <use style="fill:#ff0000;stroke:#000000;stroke-width:0.5;" x="332.399972454" xlink:href="#m64b54ff9c6" y="154.33921726"/>
     <use style="fill:#ff0000;stroke:#000000;stroke-width:0.5;" x="344.800039216" xlink:href="#m64b54ff9c6" y="215.291824165"/>
     <use style="fill:#ff0000;stroke:#000000;stroke-width:0.5;" x="357.200031714" xlink:href="#m64b54ff9c6" y="273.362456719"/>
     <use style="fill:#ff0000;stroke:#000000;stroke-width:0.5;" x="369.599972798" xlink:href="#m64b54ff9c6" y="316.164513663"/>
     <use style="fill:#ff0000;stroke:#000000;stroke-width:0.5;" x="382.000041285" xlink:href="#m64b54ff9c6" y="335.464127311"/>
     <use style="fill:#ff0000;stroke:#000000;stroke-width:0.5;" x="394.399989956" xlink:href="#m64b54ff9c6" y="330.614419058"/>
     <use style="fill:#ff0000;stroke:#000000;stroke-width:0.5;" x="406.800041685" xlink:href="#m64b54ff9c6" y="306.974741447"/>
     <use style="fill:#ff0000;stroke:#000000;stroke-width:0.5;" x="419.200011734" xlink:href="#m64b54ff9c6" y="275.912734819"/>
     <use style="fill:#ff0000;stroke:#000000;stroke-width:0.5;" x="431.599989138" xlink:href="#m64b54ff9c6" y="250.257289369"/>
     <use style="fill:#ff0000;stroke:#000000;stroke-width:0.5;" x="444.000058917" xlink:href="#m64b54ff9c6" y="240.504085021"/>
     <use style="fill:#ff0000;stroke:#000000;stroke-width:0.5;" x="456.400035939" xlink:href="#m64b54ff9c6" y="251.389373128"/>
     <use style="fill:#ff0000;stroke:#000000;stroke-width:0.5;" x="468.800047902" xlink:href="#m64b54ff9c6" y="280.609321628"/>
     <use style="fill:#ff0000;stroke:#000000;stroke-width:0.5;" x="481.200022482" xlink:href="#m64b54ff9c6" y="319.814821765"/>
     <use style="fill:#ff0000;stroke:#000000;stroke-width:0.5;" x="493.600057163" xlink:href="#m64b54ff9c6" y="357.630586441"/>
     <use style="fill:#ff0000;stroke:#000000;stroke-width:0.5;" x="506.000060586" xlink:href="#m64b54ff9c6" y="383.18700016"/>
    </g>
   </g>
   <g id="line2d_2">
    <path clip-path="url(#pd9059a0acb)" d="M 72.000974 371.278272 
L 84.400015 358.41979 
L 96.799994 331.577383 
L 109.200053 296.797755 
L 121.600005 262.911305 
L 134 235.225024 
L 146.400033 222.239003 
L 158.799975 224.878498 
L 171.200033 240.817005 
L 183.599949 263.944054 
L 195.999943 287.33249 
L 208.399936 303.736354 
L 220.799988 309.203302 
L 233.199965 301.915746 
L 245.599942 284.238647 
L 257.999972 260.717978 
L 270.399968 237.790104 
L 282.799985 221.007359 
L 295.199629 216.547564 
L 307.600012 229.185673 
L 320.000003 252.408632 
L 332.399972 289.84487 
L 344.800039 330.643494 
L 357.200032 366.336128 
L 369.599973 387.632379 
L 382.000041 388.8 
L 394.39999 374.654865 
L 406.800042 347.201926 
L 419.200012 316.762718 
L 431.599989 291.412435 
L 444.000059 278.93513 
L 456.400036 282.174784 
L 468.800048 299.221703 
L 481.200022 324.983646 
L 493.600057 350.354875 
L 506.000061 367.673791 
" style="fill:none;stroke:#0000ff;stroke-linecap:square;"/>
    <defs>
     <path d="M 0 3 
C 0.795609 3 1.55874 2.683901 2.12132 2.12132 
C 2.683901 1.55874 3 0.795609 3 0 
C 3 -0.795609 2.683901 -1.55874 2.12132 -2.12132 
C 1.55874 -2.683901 0.795609 -3 0 -3 
C -0.795609 -3 -1.55874 -2.683901 -2.12132 -2.12132 
C -2.683901 -1.55874 -3 -0.795609 -3 0 
C -3 0.795609 -2.683901 1.55874 -2.12132 2.12132 
C -1.55874 2.683901 -0.795609 3 0 3 
z
" id="mb84260f4a6" style="stroke:#000000;stroke-width:0.5;"/>
    </defs>
    <g clip-path="url(#pd9059a0acb)">
     <use style="fill:#0000ff;stroke:#000000;stroke-width:0.5;" x="72.0009739197" xlink:href="#mb84260f4a6" y="371.278271895"/>
     <use style="fill:#0000ff;stroke:#000000;stroke-width:0.5;" x="84.4000152167" xlink:href="#mb84260f4a6" y="358.419790098"/>
     <use style="fill:#0000ff;stroke:#000000;stroke-width:0.5;" x="96.7999935155" xlink:href="#mb84260f4a6" y="331.577383287"/>
     <use style="fill:#0000ff;stroke:#000000;stroke-width:0.5;" x="109.200053022" xlink:href="#mb84260f4a6" y="296.79775521"/>
     <use style="fill:#0000ff;stroke:#000000;stroke-width:0.5;" x="121.600004864" xlink:href="#mb84260f4a6" y="262.911304637"/>
     <use style="fill:#0000ff;stroke:#000000;stroke-width:0.5;" x="134.000000204" xlink:href="#mb84260f4a6" y="235.225024007"/>
     <use style="fill:#0000ff;stroke:#000000;stroke-width:0.5;" x="146.400032574" xlink:href="#mb84260f4a6" y="222.239002871"/>
     <use style="fill:#0000ff;stroke:#000000;stroke-width:0.5;" x="158.799975436" xlink:href="#mb84260f4a6" y="224.878497629"/>
     <use style="fill:#0000ff;stroke:#000000;stroke-width:0.5;" x="171.200032627" xlink:href="#mb84260f4a6" y="240.817004632"/>
     <use style="fill:#0000ff;stroke:#000000;stroke-width:0.5;" x="183.599949441" xlink:href="#mb84260f4a6" y="263.944053548"/>
     <use style="fill:#0000ff;stroke:#000000;stroke-width:0.5;" x="195.99994339" xlink:href="#mb84260f4a6" y="287.332490339"/>
     <use style="fill:#0000ff;stroke:#000000;stroke-width:0.5;" x="208.399936109" xlink:href="#mb84260f4a6" y="303.736354255"/>
     <use style="fill:#0000ff;stroke:#000000;stroke-width:0.5;" x="220.799987683" xlink:href="#mb84260f4a6" y="309.20330156"/>
     <use style="fill:#0000ff;stroke:#000000;stroke-width:0.5;" x="233.199964983" xlink:href="#mb84260f4a6" y="301.915746077"/>
     <use style="fill:#0000ff;stroke:#000000;stroke-width:0.5;" x="245.599941951" xlink:href="#mb84260f4a6" y="284.238647065"/>
     <use style="fill:#0000ff;stroke:#000000;stroke-width:0.5;" x="257.999971952" xlink:href="#mb84260f4a6" y="260.717977785"/>
     <use style="fill:#0000ff;stroke:#000000;stroke-width:0.5;" x="270.399968379" xlink:href="#mb84260f4a6" y="237.790103799"/>
     <use style="fill:#0000ff;stroke:#000000;stroke-width:0.5;" x="282.799984585" xlink:href="#mb84260f4a6" y="221.007358972"/>
     <use style="fill:#0000ff;stroke:#000000;stroke-width:0.5;" x="295.199629477" xlink:href="#mb84260f4a6" y="216.547563889"/>
     <use style="fill:#0000ff;stroke:#000000;stroke-width:0.5;" x="307.600011829" xlink:href="#mb84260f4a6" y="229.185672753"/>
     <use style="fill:#0000ff;stroke:#000000;stroke-width:0.5;" x="320.000003129" xlink:href="#mb84260f4a6" y="252.408631558"/>
     <use style="fill:#0000ff;stroke:#000000;stroke-width:0.5;" x="332.399972454" xlink:href="#mb84260f4a6" y="289.844870476"/>
     <use style="fill:#0000ff;stroke:#000000;stroke-width:0.5;" x="344.800039216" xlink:href="#mb84260f4a6" y="330.643494043"/>
     <use style="fill:#0000ff;stroke:#000000;stroke-width:0.5;" x="357.200031714" xlink:href="#mb84260f4a6" y="366.33612779"/>
     <use style="fill:#0000ff;stroke:#000000;stroke-width:0.5;" x="369.599972798" xlink:href="#mb84260f4a6" y="387.632378634"/>
     <use style="fill:#0000ff;stroke:#000000;stroke-width:0.5;" x="382.000041285" xlink:href="#mb84260f4a6" y="388.8"/>
     <use style="fill:#0000ff;stroke:#000000;stroke-width:0.5;" x="394.399989956" xlink:href="#mb84260f4a6" y="374.654864636"/>
     <use style="fill:#0000ff;stroke:#000000;stroke-width:0.5;" x="406.800041685" xlink:href="#mb84260f4a6" y="347.201926134"/>
     <use style="fill:#0000ff;stroke:#000000;stroke-width:0.5;" x="419.200011734" xlink:href="#mb84260f4a6" y="316.762718412"/>
     <use style="fill:#0000ff;stroke:#000000;stroke-width:0.5;" x="431.599989138" xlink:href="#mb84260f4a6" y="291.412435129"/>
     <use style="fill:#0000ff;stroke:#000000;stroke-width:0.5;" x="444.000058917" xlink:href="#mb84260f4a6" y="278.935130256"/>
     <use style="fill:#0000ff;stroke:#000000;stroke-width:0.5;" x="456.400035939" xlink:href="#mb84260f4a6" y="282.174784481"/>
     <use style="fill:#0000ff;stroke:#000000;stroke-width:0.5;" x="468.800047902" xlink:href="#mb84260f4a6" y="299.221703382"/>
     <use style="fill:#0000ff;stroke:#000000;stroke-width:0.5;" x="481.200022482" xlink:href="#mb84260f4a6" y="324.983645879"/>
     <use style="fill:#0000ff;stroke:#000000;stroke-width:0.5;" x="493.600057163" xlink:href="#mb84260f4a6" y="350.35487516"/>
     <use style="fill:#0000ff;stroke:#000000;stroke-width:0.5;" x="506.000060586" xlink:href="#mb84260f4a6" y="367.67379111"/>
    </g>
   </g>
   <g id="line2d_3">
    <path clip-path="url(#pd9059a0acb)" d="M 72.000974 338.04829 
L 84.400015 328.545903 
L 96.799994 310.967197 
L 109.200053 289.140831 
L 121.600005 268.841999 
L 134 252.324503 
L 146.400033 245.751983 
L 158.799975 249.108216 
L 171.200033 260.678416 
L 183.599949 276.361494 
L 195.999943 292.068207 
L 208.399936 303.38663 
L 220.799988 308.509863 
L 233.199965 306.405971 
L 245.599942 298.667224 
L 257.999972 287.708384 
L 270.399968 277.018504 
L 282.799985 269.142866 
L 295.199629 268.06067 
L 307.600012 277.712961 
L 320.000003 292.303442 
L 332.399972 317.664766 
L 344.800039 345.920128 
L 357.200032 371.550372 
L 369.599973 387.468167 
L 382.000041 388.8 
L 394.39999 379.55701 
L 406.800042 359.696078 
L 419.200012 336.635064 
L 431.599989 315.629061 
L 444.000059 302.435222 
L 456.400036 299.251869 
L 468.800048 305.143958 
L 481.200022 317.317419 
L 493.600057 329.741041 
L 506.000061 337.798938 
" style="fill:none;stroke:#000000;stroke-linecap:square;"/>
    <defs>
     <path d="M -3 3 
L 3 -3 
M -3 -3 
L 3 3 
" id="m47391f52fa" style="stroke:#000000;stroke-width:0.5;"/>
    </defs>
    <g clip-path="url(#pd9059a0acb)">
     <use style="stroke:#000000;stroke-width:0.5;" x="72.0009739197" xlink:href="#m47391f52fa" y="338.048290493"/>
     <use style="stroke:#000000;stroke-width:0.5;" x="84.4000152167" xlink:href="#m47391f52fa" y="328.545902842"/>
     <use style="stroke:#000000;stroke-width:0.5;" x="96.7999935155" xlink:href="#m47391f52fa" y="310.96719689"/>
     <use style="stroke:#000000;stroke-width:0.5;" x="109.200053022" xlink:href="#m47391f52fa" y="289.140831106"/>
     <use style="stroke:#000000;stroke-width:0.5;" x="121.600004864" xlink:href="#m47391f52fa" y="268.841999493"/>
     <use style="stroke:#000000;stroke-width:0.5;" x="134.000000204" xlink:href="#m47391f52fa" y="252.324502743"/>
     <use style="stroke:#000000;stroke-width:0.5;" x="146.400032574" xlink:href="#m47391f52fa" y="245.751983461"/>
     <use style="stroke:#000000;stroke-width:0.5;" x="158.799975436" xlink:href="#m47391f52fa" y="249.10821646"/>
     <use style="stroke:#000000;stroke-width:0.5;" x="171.200032627" xlink:href="#m47391f52fa" y="260.678416209"/>
     <use style="stroke:#000000;stroke-width:0.5;" x="183.599949441" xlink:href="#m47391f52fa" y="276.361493731"/>
     <use style="stroke:#000000;stroke-width:0.5;" x="195.99994339" xlink:href="#m47391f52fa" y="292.068207203"/>
     <use style="stroke:#000000;stroke-width:0.5;" x="208.399936109" xlink:href="#m47391f52fa" y="303.386630218"/>
     <use style="stroke:#000000;stroke-width:0.5;" x="220.799987683" xlink:href="#m47391f52fa" y="308.509862803"/>
     <use style="stroke:#000000;stroke-width:0.5;" x="233.199964983" xlink:href="#m47391f52fa" y="306.405970959"/>
     <use style="stroke:#000000;stroke-width:0.5;" x="245.599941951" xlink:href="#m47391f52fa" y="298.667224143"/>
     <use style="stroke:#000000;stroke-width:0.5;" x="257.999971952" xlink:href="#m47391f52fa" y="287.708383592"/>
     <use style="stroke:#000000;stroke-width:0.5;" x="270.399968379" xlink:href="#m47391f52fa" y="277.018504275"/>
     <use style="stroke:#000000;stroke-width:0.5;" x="282.799984585" xlink:href="#m47391f52fa" y="269.142866248"/>
     <use style="stroke:#000000;stroke-width:0.5;" x="295.199629477" xlink:href="#m47391f52fa" y="268.060670292"/>
     <use style="stroke:#000000;stroke-width:0.5;" x="307.600011829" xlink:href="#m47391f52fa" y="277.712961136"/>
     <use style="stroke:#000000;stroke-width:0.5;" x="320.000003129" xlink:href="#m47391f52fa" y="292.303442285"/>
     <use style="stroke:#000000;stroke-width:0.5;" x="332.399972454" xlink:href="#m47391f52fa" y="317.66476569"/>
     <use style="stroke:#000000;stroke-width:0.5;" x="344.800039216" xlink:href="#m47391f52fa" y="345.920127617"/>
     <use style="stroke:#000000;stroke-width:0.5;" x="357.200031714" xlink:href="#m47391f52fa" y="371.550372322"/>
     <use style="stroke:#000000;stroke-width:0.5;" x="369.599972798" xlink:href="#m47391f52fa" y="387.468166503"/>
     <use style="stroke:#000000;stroke-width:0.5;" x="382.000041285" xlink:href="#m47391f52fa" y="388.8"/>
     <use style="stroke:#000000;stroke-width:0.5;" x="394.399989956" xlink:href="#m47391f52fa" y="379.557010283"/>
     <use style="stroke:#000000;stroke-width:0.5;" x="406.800041685" xlink:href="#m47391f52fa" y="359.696077729"/>
     <use style="stroke:#000000;stroke-width:0.5;" x="419.200011734" xlink:href="#m47391f52fa" y="336.635064142"/>
     <use style="stroke:#000000;stroke-width:0.5;" x="431.599989138" xlink:href="#m47391f52fa" y="315.629061436"/>
     <use style="stroke:#000000;stroke-width:0.5;" x="444.000058917" xlink:href="#m47391f52fa" y="302.435221661"/>
     <use style="stroke:#000000;stroke-width:0.5;" x="456.400035939" xlink:href="#m47391f52fa" y="299.251868794"/>
     <use style="stroke:#000000;stroke-width:0.5;" x="468.800047902" xlink:href="#m47391f52fa" y="305.143957854"/>
     <use style="stroke:#000000;stroke-width:0.5;" x="481.200022482" xlink:href="#m47391f52fa" y="317.31741922"/>
     <use style="stroke:#000000;stroke-width:0.5;" x="493.600057163" xlink:href="#m47391f52fa" y="329.741040675"/>
     <use style="stroke:#000000;stroke-width:0.5;" x="506.000060586" xlink:href="#m47391f52fa" y="337.798937595"/>
    </g>
   </g>
   <g id="line2d_4">
    <path clip-path="url(#pd9059a0acb)" d="M 72.000974 364.969867 
L 84.400015 357.732982 
L 96.799994 339.591645 
L 109.200053 315.327 
L 121.600005 291.132317 
L 134 277.149736 
L 146.400033 276.167206 
L 158.799975 290.737904 
L 171.200033 317.37968 
L 183.599949 348.881826 
L 195.999943 375.420357 
L 208.399936 388.8 
L 220.799988 382.643388 
L 233.199965 355.885193 
L 245.599942 311.01726 
L 257.999972 255.307005 
L 270.399968 198.479226 
L 282.799985 151.801401 
L 295.199629 122.400445 
L 307.600012 111.957117 
L 320.000003 125.865108 
L 332.399972 150.892609 
L 344.800039 183.589854 
L 357.200032 216.030242 
L 369.599973 242.914504 
L 382.000041 260.882285 
L 394.39999 265.275566 
L 406.800042 261.496821 
L 419.200012 253.495828 
L 431.599989 248.846385 
L 444.000059 252.287021 
L 456.400036 266.355662 
L 468.800048 289.683521 
L 481.200022 316.71556 
L 493.600057 342.107703 
L 506.000061 359.60622 
" style="fill:none;stroke:#ff00ff;stroke-linecap:square;"/>
    <defs>
     <path d="M -3 3 
L 3 -3 
M -3 -3 
L 3 3 
" id="md7f65fb245" style="stroke:#ff00ff;stroke-width:0.5;"/>
    </defs>
    <g clip-path="url(#pd9059a0acb)">
     <use style="fill:#ff00ff;stroke:#ff00ff;stroke-width:0.5;" x="72.0009739197" xlink:href="#md7f65fb245" y="364.96986683"/>
     <use style="fill:#ff00ff;stroke:#ff00ff;stroke-width:0.5;" x="84.4000152167" xlink:href="#md7f65fb245" y="357.732982174"/>
     <use style="fill:#ff00ff;stroke:#ff00ff;stroke-width:0.5;" x="96.7999935155" xlink:href="#md7f65fb245" y="339.591644608"/>
     <use style="fill:#ff00ff;stroke:#ff00ff;stroke-width:0.5;" x="109.200053022" xlink:href="#md7f65fb245" y="315.326999631"/>
     <use style="fill:#ff00ff;stroke:#ff00ff;stroke-width:0.5;" x="121.600004864" xlink:href="#md7f65fb245" y="291.132316971"/>
     <use style="fill:#ff00ff;stroke:#ff00ff;stroke-width:0.5;" x="134.000000204" xlink:href="#md7f65fb245" y="277.149736147"/>
     <use style="fill:#ff00ff;stroke:#ff00ff;stroke-width:0.5;" x="146.400032574" xlink:href="#md7f65fb245" y="276.167205962"/>
     <use style="fill:#ff00ff;stroke:#ff00ff;stroke-width:0.5;" x="158.799975436" xlink:href="#md7f65fb245" y="290.73790412"/>
     <use style="fill:#ff00ff;stroke:#ff00ff;stroke-width:0.5;" x="171.200032627" xlink:href="#md7f65fb245" y="317.379680206"/>
     <use style="fill:#ff00ff;stroke:#ff00ff;stroke-width:0.5;" x="183.599949441" xlink:href="#md7f65fb245" y="348.881826175"/>
     <use style="fill:#ff00ff;stroke:#ff00ff;stroke-width:0.5;" x="195.99994339" xlink:href="#md7f65fb245" y="375.420356846"/>
     <use style="fill:#ff00ff;stroke:#ff00ff;stroke-width:0.5;" x="208.399936109" xlink:href="#md7f65fb245" y="388.8"/>
     <use style="fill:#ff00ff;stroke:#ff00ff;stroke-width:0.5;" x="220.799987683" xlink:href="#md7f65fb245" y="382.64338792"/>
     <use style="fill:#ff00ff;stroke:#ff00ff;stroke-width:0.5;" x="233.199964983" xlink:href="#md7f65fb245" y="355.88519326"/>
     <use style="fill:#ff00ff;stroke:#ff00ff;stroke-width:0.5;" x="245.599941951" xlink:href="#md7f65fb245" y="311.017260191"/>
     <use style="fill:#ff00ff;stroke:#ff00ff;stroke-width:0.5;" x="257.999971952" xlink:href="#md7f65fb245" y="255.307004584"/>
     <use style="fill:#ff00ff;stroke:#ff00ff;stroke-width:0.5;" x="270.399968379" xlink:href="#md7f65fb245" y="198.479226135"/>
     <use style="fill:#ff00ff;stroke:#ff00ff;stroke-width:0.5;" x="282.799984585" xlink:href="#md7f65fb245" y="151.80140068"/>
     <use style="fill:#ff00ff;stroke:#ff00ff;stroke-width:0.5;" x="295.199629477" xlink:href="#md7f65fb245" y="122.400445231"/>
     <use style="fill:#ff00ff;stroke:#ff00ff;stroke-width:0.5;" x="307.600011829" xlink:href="#md7f65fb245" y="111.95711672"/>
     <use style="fill:#ff00ff;stroke:#ff00ff;stroke-width:0.5;" x="320.000003129" xlink:href="#md7f65fb245" y="125.865107989"/>
     <use style="fill:#ff00ff;stroke:#ff00ff;stroke-width:0.5;" x="332.399972454" xlink:href="#md7f65fb245" y="150.892608892"/>
     <use style="fill:#ff00ff;stroke:#ff00ff;stroke-width:0.5;" x="344.800039216" xlink:href="#md7f65fb245" y="183.589853871"/>
     <use style="fill:#ff00ff;stroke:#ff00ff;stroke-width:0.5;" x="357.200031714" xlink:href="#md7f65fb245" y="216.03024172"/>
     <use style="fill:#ff00ff;stroke:#ff00ff;stroke-width:0.5;" x="369.599972798" xlink:href="#md7f65fb245" y="242.914504483"/>
     <use style="fill:#ff00ff;stroke:#ff00ff;stroke-width:0.5;" x="382.000041285" xlink:href="#md7f65fb245" y="260.882284634"/>
     <use style="fill:#ff00ff;stroke:#ff00ff;stroke-width:0.5;" x="394.399989956" xlink:href="#md7f65fb245" y="265.275566098"/>
     <use style="fill:#ff00ff;stroke:#ff00ff;stroke-width:0.5;" x="406.800041685" xlink:href="#md7f65fb245" y="261.496821041"/>
     <use style="fill:#ff00ff;stroke:#ff00ff;stroke-width:0.5;" x="419.200011734" xlink:href="#md7f65fb245" y="253.495828001"/>
     <use style="fill:#ff00ff;stroke:#ff00ff;stroke-width:0.5;" x="431.599989138" xlink:href="#md7f65fb245" y="248.846385256"/>
     <use style="fill:#ff00ff;stroke:#ff00ff;stroke-width:0.5;" x="444.000058917" xlink:href="#md7f65fb245" y="252.287020683"/>
     <use style="fill:#ff00ff;stroke:#ff00ff;stroke-width:0.5;" x="456.400035939" xlink:href="#md7f65fb245" y="266.355661657"/>
     <use style="fill:#ff00ff;stroke:#ff00ff;stroke-width:0.5;" x="468.800047902" xlink:href="#md7f65fb245" y="289.683521096"/>
     <use style="fill:#ff00ff;stroke:#ff00ff;stroke-width:0.5;" x="481.200022482" xlink:href="#md7f65fb245" y="316.715559869"/>
     <use style="fill:#ff00ff;stroke:#ff00ff;stroke-width:0.5;" x="493.600057163" xlink:href="#md7f65fb245" y="342.107703089"/>
     <use style="fill:#ff00ff;stroke:#ff00ff;stroke-width:0.5;" x="506.000060586" xlink:href="#md7f65fb245" y="359.606219888"/>
    </g>
   </g>
   <g id="line2d_5">
    <path clip-path="url(#pd9059a0acb)" d="M 72.000974 378.742275 
L 84.400015 362.820924 
L 96.799994 327.481886 
L 109.200053 280.866479 
L 121.600005 235.158082 
L 134 199.559757 
L 146.400033 185.513106 
L 158.799975 194.567216 
L 171.200033 222.041327 
L 183.599949 257.251323 
L 195.999943 288.132386 
L 208.399936 303.386636 
L 220.799988 297.216284 
L 233.199965 268.302373 
L 245.599942 221.668252 
L 257.999972 166.334631 
L 270.399968 114.432678 
L 282.799985 77.328324 
L 295.199629 65.671812 
L 307.600012 85.898413 
L 320.000003 129.717532 
L 332.399972 196.290814 
L 344.800039 268.92109 
L 357.200032 333.446765 
L 369.599973 376.174526 
L 382.000041 388.8 
L 394.39999 375.621245 
L 406.800042 340.58592 
L 419.200012 297.997907 
L 431.599989 261.088094 
L 444.000059 242.19635 
L 456.400036 246.487163 
L 468.800048 271.46014 
L 481.200022 309.043227 
L 493.600057 346.255821 
L 506.000061 372.074036 
" style="fill:none;stroke:#008000;stroke-linecap:square;"/>
    <defs>
     <path d="M 0 3 
C 0.795609 3 1.55874 2.683901 2.12132 2.12132 
C 2.683901 1.55874 3 0.795609 3 0 
C 3 -0.795609 2.683901 -1.55874 2.12132 -2.12132 
C 1.55874 -2.683901 0.795609 -3 0 -3 
C -0.795609 -3 -1.55874 -2.683901 -2.12132 -2.12132 
C -2.683901 -1.55874 -3 -0.795609 -3 0 
C -3 0.795609 -2.683901 1.55874 -2.12132 2.12132 
C -1.55874 2.683901 -0.795609 3 0 3 
z
" id="m5761dfab12" style="stroke:#000000;stroke-width:0.5;"/>
    </defs>
    <g clip-path="url(#pd9059a0acb)">
     <use style="fill:#008000;stroke:#000000;stroke-width:0.5;" x="72.0009739197" xlink:href="#m5761dfab12" y="378.742275286"/>
     <use style="fill:#008000;stroke:#000000;stroke-width:0.5;" x="84.4000152167" xlink:href="#m5761dfab12" y="362.820923953"/>
     <use style="fill:#008000;stroke:#000000;stroke-width:0.5;" x="96.7999935155" xlink:href="#m5761dfab12" y="327.481886042"/>
     <use style="fill:#008000;stroke:#000000;stroke-width:0.5;" x="109.200053022" xlink:href="#m5761dfab12" y="280.86647892"/>
     <use style="fill:#008000;stroke:#000000;stroke-width:0.5;" x="121.600004864" xlink:href="#m5761dfab12" y="235.1580819"/>
     <use style="fill:#008000;stroke:#000000;stroke-width:0.5;" x="134.000000204" xlink:href="#m5761dfab12" y="199.559756717"/>
     <use style="fill:#008000;stroke:#000000;stroke-width:0.5;" x="146.400032574" xlink:href="#m5761dfab12" y="185.513106359"/>
     <use style="fill:#008000;stroke:#000000;stroke-width:0.5;" x="158.799975436" xlink:href="#m5761dfab12" y="194.567216185"/>
     <use style="fill:#008000;stroke:#000000;stroke-width:0.5;" x="171.200032627" xlink:href="#m5761dfab12" y="222.041326912"/>
     <use style="fill:#008000;stroke:#000000;stroke-width:0.5;" x="183.599949441" xlink:href="#m5761dfab12" y="257.25132251"/>
     <use style="fill:#008000;stroke:#000000;stroke-width:0.5;" x="195.99994339" xlink:href="#m5761dfab12" y="288.132385789"/>
     <use style="fill:#008000;stroke:#000000;stroke-width:0.5;" x="208.399936109" xlink:href="#m5761dfab12" y="303.386636254"/>
     <use style="fill:#008000;stroke:#000000;stroke-width:0.5;" x="220.799987683" xlink:href="#m5761dfab12" y="297.216283688"/>
     <use style="fill:#008000;stroke:#000000;stroke-width:0.5;" x="233.199964983" xlink:href="#m5761dfab12" y="268.302372823"/>
     <use style="fill:#008000;stroke:#000000;stroke-width:0.5;" x="245.599941951" xlink:href="#m5761dfab12" y="221.668251818"/>
     <use style="fill:#008000;stroke:#000000;stroke-width:0.5;" x="257.999971952" xlink:href="#m5761dfab12" y="166.334630856"/>
     <use style="fill:#008000;stroke:#000000;stroke-width:0.5;" x="270.399968379" xlink:href="#m5761dfab12" y="114.432677793"/>
     <use style="fill:#008000;stroke:#000000;stroke-width:0.5;" x="282.799984585" xlink:href="#m5761dfab12" y="77.3283238278"/>
     <use style="fill:#008000;stroke:#000000;stroke-width:0.5;" x="295.199629477" xlink:href="#m5761dfab12" y="65.6718122207"/>
     <use style="fill:#008000;stroke:#000000;stroke-width:0.5;" x="307.600011829" xlink:href="#m5761dfab12" y="85.8984127247"/>
     <use style="fill:#008000;stroke:#000000;stroke-width:0.5;" x="320.000003129" xlink:href="#m5761dfab12" y="129.717531725"/>
     <use style="fill:#008000;stroke:#000000;stroke-width:0.5;" x="332.399972454" xlink:href="#m5761dfab12" y="196.290814239"/>
     <use style="fill:#008000;stroke:#000000;stroke-width:0.5;" x="344.800039216" xlink:href="#m5761dfab12" y="268.921090052"/>
     <use style="fill:#008000;stroke:#000000;stroke-width:0.5;" x="357.200031714" xlink:href="#m5761dfab12" y="333.446765205"/>
     <use style="fill:#008000;stroke:#000000;stroke-width:0.5;" x="369.599972798" xlink:href="#m5761dfab12" y="376.174525804"/>
     <use style="fill:#008000;stroke:#000000;stroke-width:0.5;" x="382.000041285" xlink:href="#m5761dfab12" y="388.8"/>
     <use style="fill:#008000;stroke:#000000;stroke-width:0.5;" x="394.399989956" xlink:href="#m5761dfab12" y="375.621245336"/>
     <use style="fill:#008000;stroke:#000000;stroke-width:0.5;" x="406.800041685" xlink:href="#m5761dfab12" y="340.585919865"/>
     <use style="fill:#008000;stroke:#000000;stroke-width:0.5;" x="419.200011734" xlink:href="#m5761dfab12" y="297.997906817"/>
     <use style="fill:#008000;stroke:#000000;stroke-width:0.5;" x="431.599989138" xlink:href="#m5761dfab12" y="261.088094459"/>
     <use style="fill:#008000;stroke:#000000;stroke-width:0.5;" x="444.000058917" xlink:href="#m5761dfab12" y="242.196350242"/>
     <use style="fill:#008000;stroke:#000000;stroke-width:0.5;" x="456.400035939" xlink:href="#m5761dfab12" y="246.487163288"/>
     <use style="fill:#008000;stroke:#000000;stroke-width:0.5;" x="468.800047902" xlink:href="#m5761dfab12" y="271.460139595"/>
     <use style="fill:#008000;stroke:#000000;stroke-width:0.5;" x="481.200022482" xlink:href="#m5761dfab12" y="309.043227047"/>
     <use style="fill:#008000;stroke:#000000;stroke-width:0.5;" x="493.600057163" xlink:href="#m5761dfab12" y="346.255820577"/>
     <use style="fill:#008000;stroke:#000000;stroke-width:0.5;" x="506.000060586" xlink:href="#m5761dfab12" y="372.074035646"/>
    </g>
   </g>
   <g id="patch_3">
    <path d="M 518.4 388.8 
L 518.4 43.2 
" style="fill:none;stroke:#000000;stroke-linecap:square;stroke-linejoin:miter;"/>
   </g>
   <g id="patch_4">
    <path d="M 72 388.8 
L 518.4 388.8 
" style="fill:none;stroke:#000000;stroke-linecap:square;stroke-linejoin:miter;"/>
   </g>
   <g id="patch_5">
    <path d="M 72 43.2 
L 518.4 43.2 
" style="fill:none;stroke:#000000;stroke-linecap:square;stroke-linejoin:miter;"/>
   </g>
   <g id="patch_6">
    <path d="M 72 388.8 
L 72 43.2 
" style="fill:none;stroke:#000000;stroke-linecap:square;stroke-linejoin:miter;"/>
   </g>
   <g id="matplotlib.axis_1">
    <g id="xtick_1">
     <g id="line2d_6">
      <defs>
       <path d="M 0 0 
L 0 -4 
" id="m33a38aa4b2" style="stroke:#000000;stroke-width:0.5;"/>
      </defs>
      <g>
       <use style="stroke:#000000;stroke-width:0.5;" x="72.0" xlink:href="#m33a38aa4b2" y="388.8"/>
      </g>
     </g>
     <g id="line2d_7">
      <defs>
       <path d="M 0 0 
L 0 4 
" id="m1058ae4913" style="stroke:#000000;stroke-width:0.5;"/>
      </defs>
      <g>
       <use style="stroke:#000000;stroke-width:0.5;" x="72.0" xlink:href="#m1058ae4913" y="43.2"/>
      </g>
     </g>
     <g id="text_1">
      <!-- −180 -->
      <defs>
       <path d="M 10.59375 35.5 
L 73.1875 35.5 
L 73.1875 27.203125 
L 10.59375 27.203125 
z
" id="BitstreamVeraSans-Roman-2212"/>
       <path d="M 12.40625 8.296875 
L 28.515625 8.296875 
L 28.515625 63.921875 
L 10.984375 60.40625 
L 10.984375 69.390625 
L 28.421875 72.90625 
L 38.28125 72.90625 
L 38.28125 8.296875 
L 54.390625 8.296875 
L 54.390625 0 
L 12.40625 0 
z
" id="BitstreamVeraSans-Roman-31"/>
       <path d="M 31.78125 34.625 
Q 24.75 34.625 20.71875 30.859375 
Q 16.703125 27.09375 16.703125 20.515625 
Q 16.703125 13.921875 20.71875 10.15625 
Q 24.75 6.390625 31.78125 6.390625 
Q 38.8125 6.390625 42.859375 10.171875 
Q 46.921875 13.96875 46.921875 20.515625 
Q 46.921875 27.09375 42.890625 30.859375 
Q 38.875 34.625 31.78125 34.625 
M 21.921875 38.8125 
Q 15.578125 40.375 12.03125 44.71875 
Q 8.5 49.078125 8.5 55.328125 
Q 8.5 64.0625 14.71875 69.140625 
Q 20.953125 74.21875 31.78125 74.21875 
Q 42.671875 74.21875 48.875 69.140625 
Q 55.078125 64.0625 55.078125 55.328125 
Q 55.078125 49.078125 51.53125 44.71875 
Q 48 40.375 41.703125 38.8125 
Q 48.828125 37.15625 52.796875 32.3125 
Q 56.78125 27.484375 56.78125 20.515625 
Q 56.78125 9.90625 50.3125 4.234375 
Q 43.84375 -1.421875 31.78125 -1.421875 
Q 19.734375 -1.421875 13.25 4.234375 
Q 6.78125 9.90625 6.78125 20.515625 
Q 6.78125 27.484375 10.78125 32.3125 
Q 14.796875 37.15625 21.921875 38.8125 
M 18.3125 54.390625 
Q 18.3125 48.734375 21.84375 45.5625 
Q 25.390625 42.390625 31.78125 42.390625 
Q 38.140625 42.390625 41.71875 45.5625 
Q 45.3125 48.734375 45.3125 54.390625 
Q 45.3125 60.0625 41.71875 63.234375 
Q 38.140625 66.40625 31.78125 66.40625 
Q 25.390625 66.40625 21.84375 63.234375 
Q 18.3125 60.0625 18.3125 54.390625 
" id="BitstreamVeraSans-Roman-38"/>
       <path d="M 31.78125 66.40625 
Q 24.171875 66.40625 20.328125 58.90625 
Q 16.5 51.421875 16.5 36.375 
Q 16.5 21.390625 20.328125 13.890625 
Q 24.171875 6.390625 31.78125 6.390625 
Q 39.453125 6.390625 43.28125 13.890625 
Q 47.125 21.390625 47.125 36.375 
Q 47.125 51.421875 43.28125 58.90625 
Q 39.453125 66.40625 31.78125 66.40625 
M 31.78125 74.21875 
Q 44.046875 74.21875 50.515625 64.515625 
Q 56.984375 54.828125 56.984375 36.375 
Q 56.984375 17.96875 50.515625 8.265625 
Q 44.046875 -1.421875 31.78125 -1.421875 
Q 19.53125 -1.421875 13.0625 8.265625 
Q 6.59375 17.96875 6.59375 36.375 
Q 6.59375 54.828125 13.0625 64.515625 
Q 19.53125 74.21875 31.78125 74.21875 
" id="BitstreamVeraSans-Roman-30"/>
      </defs>
      <g transform="translate(55.5196875 401.918125)scale(0.12 -0.12)">
       <use xlink:href="#BitstreamVeraSans-Roman-2212"/>
       <use x="83.7890625" xlink:href="#BitstreamVeraSans-Roman-31"/>
       <use x="147.412109375" xlink:href="#BitstreamVeraSans-Roman-38"/>
       <use x="211.03515625" xlink:href="#BitstreamVeraSans-Roman-30"/>
      </g>
     </g>
    </g>
    <g id="xtick_2">
     <g id="line2d_8">
      <g>
       <use style="stroke:#000000;stroke-width:0.5;" x="127.8" xlink:href="#m33a38aa4b2" y="388.8"/>
      </g>
     </g>
     <g id="line2d_9">
      <g>
       <use style="stroke:#000000;stroke-width:0.5;" x="127.8" xlink:href="#m1058ae4913" y="43.2"/>
      </g>
     </g>
     <g id="text_2">
      <!-- −135 -->
      <defs>
       <path d="M 10.796875 72.90625 
L 49.515625 72.90625 
L 49.515625 64.59375 
L 19.828125 64.59375 
L 19.828125 46.734375 
Q 21.96875 47.46875 24.109375 47.828125 
Q 26.265625 48.1875 28.421875 48.1875 
Q 40.625 48.1875 47.75 41.5 
Q 54.890625 34.8125 54.890625 23.390625 
Q 54.890625 11.625 47.5625 5.09375 
Q 40.234375 -1.421875 26.90625 -1.421875 
Q 22.3125 -1.421875 17.546875 -0.640625 
Q 12.796875 0.140625 7.71875 1.703125 
L 7.71875 11.625 
Q 12.109375 9.234375 16.796875 8.0625 
Q 21.484375 6.890625 26.703125 6.890625 
Q 35.15625 6.890625 40.078125 11.328125 
Q 45.015625 15.765625 45.015625 23.390625 
Q 45.015625 31 40.078125 35.4375 
Q 35.15625 39.890625 26.703125 39.890625 
Q 22.75 39.890625 18.8125 39.015625 
Q 14.890625 38.140625 10.796875 36.28125 
z
" id="BitstreamVeraSans-Roman-35"/>
       <path d="M 40.578125 39.3125 
Q 47.65625 37.796875 51.625 33 
Q 55.609375 28.21875 55.609375 21.1875 
Q 55.609375 10.40625 48.1875 4.484375 
Q 40.765625 -1.421875 27.09375 -1.421875 
Q 22.515625 -1.421875 17.65625 -0.515625 
Q 12.796875 0.390625 7.625 2.203125 
L 7.625 11.71875 
Q 11.71875 9.328125 16.59375 8.109375 
Q 21.484375 6.890625 26.8125 6.890625 
Q 36.078125 6.890625 40.9375 10.546875 
Q 45.796875 14.203125 45.796875 21.1875 
Q 45.796875 27.640625 41.28125 31.265625 
Q 36.765625 34.90625 28.71875 34.90625 
L 20.21875 34.90625 
L 20.21875 43.015625 
L 29.109375 43.015625 
Q 36.375 43.015625 40.234375 45.921875 
Q 44.09375 48.828125 44.09375 54.296875 
Q 44.09375 59.90625 40.109375 62.90625 
Q 36.140625 65.921875 28.71875 65.921875 
Q 24.65625 65.921875 20.015625 65.03125 
Q 15.375 64.15625 9.8125 62.3125 
L 9.8125 71.09375 
Q 15.4375 72.65625 20.34375 73.4375 
Q 25.25 74.21875 29.59375 74.21875 
Q 40.828125 74.21875 47.359375 69.109375 
Q 53.90625 64.015625 53.90625 55.328125 
Q 53.90625 49.265625 50.4375 45.09375 
Q 46.96875 40.921875 40.578125 39.3125 
" id="BitstreamVeraSans-Roman-33"/>
      </defs>
      <g transform="translate(111.3196875 401.918125)scale(0.12 -0.12)">
       <use xlink:href="#BitstreamVeraSans-Roman-2212"/>
       <use x="83.7890625" xlink:href="#BitstreamVeraSans-Roman-31"/>
       <use x="147.412109375" xlink:href="#BitstreamVeraSans-Roman-33"/>
       <use x="211.03515625" xlink:href="#BitstreamVeraSans-Roman-35"/>
      </g>
     </g>
    </g>
    <g id="xtick_3">
     <g id="line2d_10">
      <g>
       <use style="stroke:#000000;stroke-width:0.5;" x="183.6" xlink:href="#m33a38aa4b2" y="388.8"/>
      </g>
     </g>
     <g id="line2d_11">
      <g>
       <use style="stroke:#000000;stroke-width:0.5;" x="183.6" xlink:href="#m1058ae4913" y="43.2"/>
      </g>
     </g>
     <g id="text_3">
      <!-- −90 -->
      <defs>
       <path d="M 10.984375 1.515625 
L 10.984375 10.5 
Q 14.703125 8.734375 18.5 7.8125 
Q 22.3125 6.890625 25.984375 6.890625 
Q 35.75 6.890625 40.890625 13.453125 
Q 46.046875 20.015625 46.78125 33.40625 
Q 43.953125 29.203125 39.59375 26.953125 
Q 35.25 24.703125 29.984375 24.703125 
Q 19.046875 24.703125 12.671875 31.3125 
Q 6.296875 37.9375 6.296875 49.421875 
Q 6.296875 60.640625 12.9375 67.421875 
Q 19.578125 74.21875 30.609375 74.21875 
Q 43.265625 74.21875 49.921875 64.515625 
Q 56.59375 54.828125 56.59375 36.375 
Q 56.59375 19.140625 48.40625 8.859375 
Q 40.234375 -1.421875 26.421875 -1.421875 
Q 22.703125 -1.421875 18.890625 -0.6875 
Q 15.09375 0.046875 10.984375 1.515625 
M 30.609375 32.421875 
Q 37.25 32.421875 41.125 36.953125 
Q 45.015625 41.5 45.015625 49.421875 
Q 45.015625 57.28125 41.125 61.84375 
Q 37.25 66.40625 30.609375 66.40625 
Q 23.96875 66.40625 20.09375 61.84375 
Q 16.21875 57.28125 16.21875 49.421875 
Q 16.21875 41.5 20.09375 36.953125 
Q 23.96875 32.421875 30.609375 32.421875 
" id="BitstreamVeraSans-Roman-39"/>
      </defs>
      <g transform="translate(170.9371875 401.918125)scale(0.12 -0.12)">
       <use xlink:href="#BitstreamVeraSans-Roman-2212"/>
       <use x="83.7890625" xlink:href="#BitstreamVeraSans-Roman-39"/>
       <use x="147.412109375" xlink:href="#BitstreamVeraSans-Roman-30"/>
      </g>
     </g>
    </g>
    <g id="xtick_4">
     <g id="line2d_12">
      <g>
       <use style="stroke:#000000;stroke-width:0.5;" x="239.4" xlink:href="#m33a38aa4b2" y="388.8"/>
      </g>
     </g>
     <g id="line2d_13">
      <g>
       <use style="stroke:#000000;stroke-width:0.5;" x="239.4" xlink:href="#m1058ae4913" y="43.2"/>
      </g>
     </g>
     <g id="text_4">
      <!-- −45 -->
      <defs>
       <path d="M 37.796875 64.3125 
L 12.890625 25.390625 
L 37.796875 25.390625 
z
M 35.203125 72.90625 
L 47.609375 72.90625 
L 47.609375 25.390625 
L 58.015625 25.390625 
L 58.015625 17.1875 
L 47.609375 17.1875 
L 47.609375 0 
L 37.796875 0 
L 37.796875 17.1875 
L 4.890625 17.1875 
L 4.890625 26.703125 
z
" id="BitstreamVeraSans-Roman-34"/>
      </defs>
      <g transform="translate(226.7371875 401.918125)scale(0.12 -0.12)">
       <use xlink:href="#BitstreamVeraSans-Roman-2212"/>
       <use x="83.7890625" xlink:href="#BitstreamVeraSans-Roman-34"/>
       <use x="147.412109375" xlink:href="#BitstreamVeraSans-Roman-35"/>
      </g>
     </g>
    </g>
    <g id="xtick_5">
     <g id="line2d_14">
      <g>
       <use style="stroke:#000000;stroke-width:0.5;" x="295.2" xlink:href="#m33a38aa4b2" y="388.8"/>
      </g>
     </g>
     <g id="line2d_15">
      <g>
       <use style="stroke:#000000;stroke-width:0.5;" x="295.2" xlink:href="#m1058ae4913" y="43.2"/>
      </g>
     </g>
     <g id="text_5">
      <!-- 0 -->
      <g transform="translate(291.3825 401.918125)scale(0.12 -0.12)">
       <use xlink:href="#BitstreamVeraSans-Roman-30"/>
      </g>
     </g>
    </g>
    <g id="xtick_6">
     <g id="line2d_16">
      <g>
       <use style="stroke:#000000;stroke-width:0.5;" x="351.0" xlink:href="#m33a38aa4b2" y="388.8"/>
      </g>
     </g>
     <g id="line2d_17">
      <g>
       <use style="stroke:#000000;stroke-width:0.5;" x="351.0" xlink:href="#m1058ae4913" y="43.2"/>
      </g>
     </g>
     <g id="text_6">
      <!-- 45 -->
      <g transform="translate(343.365 401.918125)scale(0.12 -0.12)">
       <use xlink:href="#BitstreamVeraSans-Roman-34"/>
       <use x="63.623046875" xlink:href="#BitstreamVeraSans-Roman-35"/>
      </g>
     </g>
    </g>
    <g id="xtick_7">
     <g id="line2d_18">
      <g>
       <use style="stroke:#000000;stroke-width:0.5;" x="406.8" xlink:href="#m33a38aa4b2" y="388.8"/>
      </g>
     </g>
     <g id="line2d_19">
      <g>
       <use style="stroke:#000000;stroke-width:0.5;" x="406.8" xlink:href="#m1058ae4913" y="43.2"/>
      </g>
     </g>
     <g id="text_7">
      <!-- 90 -->
      <g transform="translate(399.165 401.918125)scale(0.12 -0.12)">
       <use xlink:href="#BitstreamVeraSans-Roman-39"/>
       <use x="63.623046875" xlink:href="#BitstreamVeraSans-Roman-30"/>
      </g>
     </g>
    </g>
    <g id="xtick_8">
     <g id="line2d_20">
      <g>
       <use style="stroke:#000000;stroke-width:0.5;" x="462.6" xlink:href="#m33a38aa4b2" y="388.8"/>
      </g>
     </g>
     <g id="line2d_21">
      <g>
       <use style="stroke:#000000;stroke-width:0.5;" x="462.6" xlink:href="#m1058ae4913" y="43.2"/>
      </g>
     </g>
     <g id="text_8">
      <!-- 135 -->
      <g transform="translate(451.1475 401.918125)scale(0.12 -0.12)">
       <use xlink:href="#BitstreamVeraSans-Roman-31"/>
       <use x="63.623046875" xlink:href="#BitstreamVeraSans-Roman-33"/>
       <use x="127.24609375" xlink:href="#BitstreamVeraSans-Roman-35"/>
      </g>
     </g>
    </g>
    <g id="xtick_9">
     <g id="line2d_22">
      <g>
       <use style="stroke:#000000;stroke-width:0.5;" x="518.4" xlink:href="#m33a38aa4b2" y="388.8"/>
      </g>
     </g>
     <g id="line2d_23">
      <g>
       <use style="stroke:#000000;stroke-width:0.5;" x="518.4" xlink:href="#m1058ae4913" y="43.2"/>
      </g>
     </g>
     <g id="text_9">
      <!-- 180 -->
      <g transform="translate(506.9475 401.918125)scale(0.12 -0.12)">
       <use xlink:href="#BitstreamVeraSans-Roman-31"/>
       <use x="63.623046875" xlink:href="#BitstreamVeraSans-Roman-38"/>
       <use x="127.24609375" xlink:href="#BitstreamVeraSans-Roman-30"/>
      </g>
     </g>
    </g>
    <g id="text_10">
     <!-- Phi -->
     <defs>
      <path d="M 9.421875 54.6875 
L 18.40625 54.6875 
L 18.40625 0 
L 9.421875 0 
z
M 9.421875 75.984375 
L 18.40625 75.984375 
L 18.40625 64.59375 
L 9.421875 64.59375 
z
" id="BitstreamVeraSans-Roman-69"/>
      <path d="M 54.890625 33.015625 
L 54.890625 0 
L 45.90625 0 
L 45.90625 32.71875 
Q 45.90625 40.484375 42.875 44.328125 
Q 39.84375 48.1875 33.796875 48.1875 
Q 26.515625 48.1875 22.3125 43.546875 
Q 18.109375 38.921875 18.109375 30.90625 
L 18.109375 0 
L 9.078125 0 
L 9.078125 75.984375 
L 18.109375 75.984375 
L 18.109375 46.1875 
Q 21.34375 51.125 25.703125 53.5625 
Q 30.078125 56 35.796875 56 
Q 45.21875 56 50.046875 50.171875 
Q 54.890625 44.34375 54.890625 33.015625 
" id="BitstreamVeraSans-Roman-68"/>
      <path d="M 19.671875 64.796875 
L 19.671875 37.40625 
L 32.078125 37.40625 
Q 38.96875 37.40625 42.71875 40.96875 
Q 46.484375 44.53125 46.484375 51.125 
Q 46.484375 57.671875 42.71875 61.234375 
Q 38.96875 64.796875 32.078125 64.796875 
z
M 9.8125 72.90625 
L 32.078125 72.90625 
Q 44.34375 72.90625 50.609375 67.359375 
Q 56.890625 61.8125 56.890625 51.125 
Q 56.890625 40.328125 50.609375 34.8125 
Q 44.34375 29.296875 32.078125 29.296875 
L 19.671875 29.296875 
L 19.671875 0 
L 9.8125 0 
z
" id="BitstreamVeraSans-Roman-50"/>
     </defs>
     <g transform="translate(286.1128125 418.531875)scale(0.12 -0.12)">
      <use xlink:href="#BitstreamVeraSans-Roman-50"/>
      <use x="60.302734375" xlink:href="#BitstreamVeraSans-Roman-68"/>
      <use x="123.681640625" xlink:href="#BitstreamVeraSans-Roman-69"/>
     </g>
    </g>
   </g>
   <g id="matplotlib.axis_2">
    <g id="ytick_1">
     <g id="line2d_24">
      <defs>
       <path d="M 0 0 
L 4 0 
" id="ma7209c6e5b" style="stroke:#000000;stroke-width:0.5;"/>
      </defs>
      <g>
       <use style="stroke:#000000;stroke-width:0.5;" x="72.0" xlink:href="#ma7209c6e5b" y="388.8"/>
      </g>
     </g>
     <g id="line2d_25">
      <defs>
       <path d="M 0 0 
L -4 0 
" id="maccf7fa1a3" style="stroke:#000000;stroke-width:0.5;"/>
      </defs>
      <g>
       <use style="stroke:#000000;stroke-width:0.5;" x="518.4" xlink:href="#maccf7fa1a3" y="388.8"/>
      </g>
     </g>
     <g id="text_11">
      <!-- 0.0 -->
      <defs>
       <path d="M 10.6875 12.40625 
L 21 12.40625 
L 21 0 
L 10.6875 0 
z
" id="BitstreamVeraSans-Roman-2e"/>
      </defs>
      <g transform="translate(48.91625 392.11125)scale(0.12 -0.12)">
       <use xlink:href="#BitstreamVeraSans-Roman-30"/>
       <use x="63.623046875" xlink:href="#BitstreamVeraSans-Roman-2e"/>
       <use x="95.41015625" xlink:href="#BitstreamVeraSans-Roman-30"/>
      </g>
     </g>
    </g>
    <g id="ytick_2">
     <g id="line2d_26">
      <g>
       <use style="stroke:#000000;stroke-width:0.5;" x="72.0" xlink:href="#ma7209c6e5b" y="319.68"/>
      </g>
     </g>
     <g id="line2d_27">
      <g>
       <use style="stroke:#000000;stroke-width:0.5;" x="518.4" xlink:href="#maccf7fa1a3" y="319.68"/>
      </g>
     </g>
     <g id="text_12">
      <!-- 0.5 -->
      <g transform="translate(48.91625 322.99125)scale(0.12 -0.12)">
       <use xlink:href="#BitstreamVeraSans-Roman-30"/>
       <use x="63.623046875" xlink:href="#BitstreamVeraSans-Roman-2e"/>
       <use x="95.41015625" xlink:href="#BitstreamVeraSans-Roman-35"/>
      </g>
     </g>
    </g>
    <g id="ytick_3">
     <g id="line2d_28">
      <g>
       <use style="stroke:#000000;stroke-width:0.5;" x="72.0" xlink:href="#ma7209c6e5b" y="250.56"/>
      </g>
     </g>
     <g id="line2d_29">
      <g>
       <use style="stroke:#000000;stroke-width:0.5;" x="518.4" xlink:href="#maccf7fa1a3" y="250.56"/>
      </g>
     </g>
     <g id="text_13">
      <!-- 1.0 -->
      <g transform="translate(48.91625 253.87125)scale(0.12 -0.12)">
       <use xlink:href="#BitstreamVeraSans-Roman-31"/>
       <use x="63.623046875" xlink:href="#BitstreamVeraSans-Roman-2e"/>
       <use x="95.41015625" xlink:href="#BitstreamVeraSans-Roman-30"/>
      </g>
     </g>
    </g>
    <g id="ytick_4">
     <g id="line2d_30">
      <g>
       <use style="stroke:#000000;stroke-width:0.5;" x="72.0" xlink:href="#ma7209c6e5b" y="181.44"/>
      </g>
     </g>
     <g id="line2d_31">
      <g>
       <use style="stroke:#000000;stroke-width:0.5;" x="518.4" xlink:href="#maccf7fa1a3" y="181.44"/>
      </g>
     </g>
     <g id="text_14">
      <!-- 1.5 -->
      <g transform="translate(48.91625 184.75125)scale(0.12 -0.12)">
       <use xlink:href="#BitstreamVeraSans-Roman-31"/>
       <use x="63.623046875" xlink:href="#BitstreamVeraSans-Roman-2e"/>
       <use x="95.41015625" xlink:href="#BitstreamVeraSans-Roman-35"/>
      </g>
     </g>
    </g>
    <g id="ytick_5">
     <g id="line2d_32">
      <g>
       <use style="stroke:#000000;stroke-width:0.5;" x="72.0" xlink:href="#ma7209c6e5b" y="112.32"/>
      </g>
     </g>
     <g id="line2d_33">
      <g>
       <use style="stroke:#000000;stroke-width:0.5;" x="518.4" xlink:href="#maccf7fa1a3" y="112.32"/>
      </g>
     </g>
     <g id="text_15">
      <!-- 2.0 -->
      <defs>
       <path d="M 19.1875 8.296875 
L 53.609375 8.296875 
L 53.609375 0 
L 7.328125 0 
L 7.328125 8.296875 
Q 12.9375 14.109375 22.625 23.890625 
Q 32.328125 33.6875 34.8125 36.53125 
Q 39.546875 41.84375 41.421875 45.53125 
Q 43.3125 49.21875 43.3125 52.78125 
Q 43.3125 58.59375 39.234375 62.25 
Q 35.15625 65.921875 28.609375 65.921875 
Q 23.96875 65.921875 18.8125 64.3125 
Q 13.671875 62.703125 7.8125 59.421875 
L 7.8125 69.390625 
Q 13.765625 71.78125 18.9375 73 
Q 24.125 74.21875 28.421875 74.21875 
Q 39.75 74.21875 46.484375 68.546875 
Q 53.21875 62.890625 53.21875 53.421875 
Q 53.21875 48.921875 51.53125 44.890625 
Q 49.859375 40.875 45.40625 35.40625 
Q 44.1875 33.984375 37.640625 27.21875 
Q 31.109375 20.453125 19.1875 8.296875 
" id="BitstreamVeraSans-Roman-32"/>
      </defs>
      <g transform="translate(48.91625 115.63125)scale(0.12 -0.12)">
       <use xlink:href="#BitstreamVeraSans-Roman-32"/>
       <use x="63.623046875" xlink:href="#BitstreamVeraSans-Roman-2e"/>
       <use x="95.41015625" xlink:href="#BitstreamVeraSans-Roman-30"/>
      </g>
     </g>
    </g>
    <g id="ytick_6">
     <g id="line2d_34">
      <g>
       <use style="stroke:#000000;stroke-width:0.5;" x="72.0" xlink:href="#ma7209c6e5b" y="43.2"/>
      </g>
     </g>
     <g id="line2d_35">
      <g>
       <use style="stroke:#000000;stroke-width:0.5;" x="518.4" xlink:href="#maccf7fa1a3" y="43.2"/>
      </g>
     </g>
     <g id="text_16">
      <!-- 2.5 -->
      <g transform="translate(48.91625 46.51125)scale(0.12 -0.12)">
       <use xlink:href="#BitstreamVeraSans-Roman-32"/>
       <use x="63.623046875" xlink:href="#BitstreamVeraSans-Roman-2e"/>
       <use x="95.41015625" xlink:href="#BitstreamVeraSans-Roman-35"/>
      </g>
     </g>
    </g>
    <g id="text_17">
     <!-- kcal/mol -->
     <defs>
      <path d="M 30.609375 48.390625 
Q 23.390625 48.390625 19.1875 42.75 
Q 14.984375 37.109375 14.984375 27.296875 
Q 14.984375 17.484375 19.15625 11.84375 
Q 23.34375 6.203125 30.609375 6.203125 
Q 37.796875 6.203125 41.984375 11.859375 
Q 46.1875 17.53125 46.1875 27.296875 
Q 46.1875 37.015625 41.984375 42.703125 
Q 37.796875 48.390625 30.609375 48.390625 
M 30.609375 56 
Q 42.328125 56 49.015625 48.375 
Q 55.71875 40.765625 55.71875 27.296875 
Q 55.71875 13.875 49.015625 6.21875 
Q 42.328125 -1.421875 30.609375 -1.421875 
Q 18.84375 -1.421875 12.171875 6.21875 
Q 5.515625 13.875 5.515625 27.296875 
Q 5.515625 40.765625 12.171875 48.375 
Q 18.84375 56 30.609375 56 
" id="BitstreamVeraSans-Roman-6f"/>
      <path d="M 52 44.1875 
Q 55.375 50.25 60.0625 53.125 
Q 64.75 56 71.09375 56 
Q 79.640625 56 84.28125 50.015625 
Q 88.921875 44.046875 88.921875 33.015625 
L 88.921875 0 
L 79.890625 0 
L 79.890625 32.71875 
Q 79.890625 40.578125 77.09375 44.375 
Q 74.3125 48.1875 68.609375 48.1875 
Q 61.625 48.1875 57.5625 43.546875 
Q 53.515625 38.921875 53.515625 30.90625 
L 53.515625 0 
L 44.484375 0 
L 44.484375 32.71875 
Q 44.484375 40.625 41.703125 44.40625 
Q 38.921875 48.1875 33.109375 48.1875 
Q 26.21875 48.1875 22.15625 43.53125 
Q 18.109375 38.875 18.109375 30.90625 
L 18.109375 0 
L 9.078125 0 
L 9.078125 54.6875 
L 18.109375 54.6875 
L 18.109375 46.1875 
Q 21.1875 51.21875 25.484375 53.609375 
Q 29.78125 56 35.6875 56 
Q 41.65625 56 45.828125 52.96875 
Q 50 49.953125 52 44.1875 
" id="BitstreamVeraSans-Roman-6d"/>
      <path d="M 9.078125 75.984375 
L 18.109375 75.984375 
L 18.109375 31.109375 
L 44.921875 54.6875 
L 56.390625 54.6875 
L 27.390625 29.109375 
L 57.625 0 
L 45.90625 0 
L 18.109375 26.703125 
L 18.109375 0 
L 9.078125 0 
z
" id="BitstreamVeraSans-Roman-6b"/>
      <path d="M 48.78125 52.59375 
L 48.78125 44.1875 
Q 44.96875 46.296875 41.140625 47.34375 
Q 37.3125 48.390625 33.40625 48.390625 
Q 24.65625 48.390625 19.8125 42.84375 
Q 14.984375 37.3125 14.984375 27.296875 
Q 14.984375 17.28125 19.8125 11.734375 
Q 24.65625 6.203125 33.40625 6.203125 
Q 37.3125 6.203125 41.140625 7.25 
Q 44.96875 8.296875 48.78125 10.40625 
L 48.78125 2.09375 
Q 45.015625 0.34375 40.984375 -0.53125 
Q 36.96875 -1.421875 32.421875 -1.421875 
Q 20.0625 -1.421875 12.78125 6.34375 
Q 5.515625 14.109375 5.515625 27.296875 
Q 5.515625 40.671875 12.859375 48.328125 
Q 20.21875 56 33.015625 56 
Q 37.15625 56 41.109375 55.140625 
Q 45.0625 54.296875 48.78125 52.59375 
" id="BitstreamVeraSans-Roman-63"/>
      <path d="M 34.28125 27.484375 
Q 23.390625 27.484375 19.1875 25 
Q 14.984375 22.515625 14.984375 16.5 
Q 14.984375 11.71875 18.140625 8.90625 
Q 21.296875 6.109375 26.703125 6.109375 
Q 34.1875 6.109375 38.703125 11.40625 
Q 43.21875 16.703125 43.21875 25.484375 
L 43.21875 27.484375 
z
M 52.203125 31.203125 
L 52.203125 0 
L 43.21875 0 
L 43.21875 8.296875 
Q 40.140625 3.328125 35.546875 0.953125 
Q 30.953125 -1.421875 24.3125 -1.421875 
Q 15.921875 -1.421875 10.953125 3.296875 
Q 6 8.015625 6 15.921875 
Q 6 25.140625 12.171875 29.828125 
Q 18.359375 34.515625 30.609375 34.515625 
L 43.21875 34.515625 
L 43.21875 35.40625 
Q 43.21875 41.609375 39.140625 45 
Q 35.0625 48.390625 27.6875 48.390625 
Q 23 48.390625 18.546875 47.265625 
Q 14.109375 46.140625 10.015625 43.890625 
L 10.015625 52.203125 
Q 14.9375 54.109375 19.578125 55.046875 
Q 24.21875 56 28.609375 56 
Q 40.484375 56 46.34375 49.84375 
Q 52.203125 43.703125 52.203125 31.203125 
" id="BitstreamVeraSans-Roman-61"/>
      <path d="M 9.421875 75.984375 
L 18.40625 75.984375 
L 18.40625 0 
L 9.421875 0 
z
" id="BitstreamVeraSans-Roman-6c"/>
      <path d="M 25.390625 72.90625 
L 33.6875 72.90625 
L 8.296875 -9.28125 
L 0 -9.28125 
z
" id="BitstreamVeraSans-Roman-2f"/>
     </defs>
     <g transform="translate(41.420625 241.3209375)rotate(-90.0)scale(0.12 -0.12)">
      <use xlink:href="#BitstreamVeraSans-Roman-6b"/>
      <use x="57.91015625" xlink:href="#BitstreamVeraSans-Roman-63"/>
      <use x="112.890625" xlink:href="#BitstreamVeraSans-Roman-61"/>
      <use x="174.169921875" xlink:href="#BitstreamVeraSans-Roman-6c"/>
      <use x="201.953125" xlink:href="#BitstreamVeraSans-Roman-2f"/>
      <use x="235.64453125" xlink:href="#BitstreamVeraSans-Roman-6d"/>
      <use x="333.056640625" xlink:href="#BitstreamVeraSans-Roman-6f"/>
      <use x="394.23828125" xlink:href="#BitstreamVeraSans-Roman-6c"/>
     </g>
    </g>
   </g>
   <g id="text_18">
    <!-- H1-O1-C1-C2 -->
    <defs>
     <path d="M 9.8125 72.90625 
L 19.671875 72.90625 
L 19.671875 43.015625 
L 55.515625 43.015625 
L 55.515625 72.90625 
L 65.375 72.90625 
L 65.375 0 
L 55.515625 0 
L 55.515625 34.71875 
L 19.671875 34.71875 
L 19.671875 0 
L 9.8125 0 
z
" id="BitstreamVeraSans-Roman-48"/>
     <path d="M 4.890625 31.390625 
L 31.203125 31.390625 
L 31.203125 23.390625 
L 4.890625 23.390625 
z
" id="BitstreamVeraSans-Roman-2d"/>
     <path d="M 64.40625 67.28125 
L 64.40625 56.890625 
Q 59.421875 61.53125 53.78125 63.8125 
Q 48.140625 66.109375 41.796875 66.109375 
Q 29.296875 66.109375 22.65625 58.46875 
Q 16.015625 50.828125 16.015625 36.375 
Q 16.015625 21.96875 22.65625 14.328125 
Q 29.296875 6.6875 41.796875 6.6875 
Q 48.140625 6.6875 53.78125 8.984375 
Q 59.421875 11.28125 64.40625 15.921875 
L 64.40625 5.609375 
Q 59.234375 2.09375 53.4375 0.328125 
Q 47.65625 -1.421875 41.21875 -1.421875 
Q 24.65625 -1.421875 15.125 8.703125 
Q 5.609375 18.84375 5.609375 36.375 
Q 5.609375 53.953125 15.125 64.078125 
Q 24.65625 74.21875 41.21875 74.21875 
Q 47.75 74.21875 53.53125 72.484375 
Q 59.328125 70.75 64.40625 67.28125 
" id="BitstreamVeraSans-Roman-43"/>
     <path d="M 39.40625 66.21875 
Q 28.65625 66.21875 22.328125 58.203125 
Q 16.015625 50.203125 16.015625 36.375 
Q 16.015625 22.609375 22.328125 14.59375 
Q 28.65625 6.59375 39.40625 6.59375 
Q 50.140625 6.59375 56.421875 14.59375 
Q 62.703125 22.609375 62.703125 36.375 
Q 62.703125 50.203125 56.421875 58.203125 
Q 50.140625 66.21875 39.40625 66.21875 
M 39.40625 74.21875 
Q 54.734375 74.21875 63.90625 63.9375 
Q 73.09375 53.65625 73.09375 36.375 
Q 73.09375 19.140625 63.90625 8.859375 
Q 54.734375 -1.421875 39.40625 -1.421875 
Q 24.03125 -1.421875 14.8125 8.828125 
Q 5.609375 19.09375 5.609375 36.375 
Q 5.609375 53.65625 14.8125 63.9375 
Q 24.03125 74.21875 39.40625 74.21875 
" id="BitstreamVeraSans-Roman-4f"/>
    </defs>
    <g transform="translate(247.94325 38.2)scale(0.144 -0.144)">
     <use xlink:href="#BitstreamVeraSans-Roman-48"/>
     <use x="75.1953125" xlink:href="#BitstreamVeraSans-Roman-31"/>
     <use x="138.818359375" xlink:href="#BitstreamVeraSans-Roman-2d"/>
     <use x="174.93359375" xlink:href="#BitstreamVeraSans-Roman-4f"/>
     <use x="253.64453125" xlink:href="#BitstreamVeraSans-Roman-31"/>
     <use x="317.267578125" xlink:href="#BitstreamVeraSans-Roman-2d"/>
     <use x="353.3515625" xlink:href="#BitstreamVeraSans-Roman-43"/>
     <use x="423.17578125" xlink:href="#BitstreamVeraSans-Roman-31"/>
     <use x="486.798828125" xlink:href="#BitstreamVeraSans-Roman-2d"/>
     <use x="522.8828125" xlink:href="#BitstreamVeraSans-Roman-43"/>
     <use x="592.70703125" xlink:href="#BitstreamVeraSans-Roman-32"/>
    </g>
   </g>
   <g id="legend_1">
    <g id="patch_7">
     <path d="M 406.15625 108.3125 
L 514.4 108.3125 
L 514.4 47.2 
L 406.15625 47.2 
z
" style="fill:#ffffff;stroke:#000000;stroke-linejoin:miter;"/>
    </g>
    <g id="line2d_36">
     <path d="M 411.75625 53.67875 
L 422.95625 53.67875 
" style="fill:none;stroke:#ff0000;stroke-linecap:square;"/>
    </g>
    <g id="line2d_37">
     <g>
      <use style="fill:#ff0000;stroke:#000000;stroke-width:0.5;" x="411.75625" xlink:href="#m64b54ff9c6" y="53.67875"/>
      <use style="fill:#ff0000;stroke:#000000;stroke-width:0.5;" x="422.95625" xlink:href="#m64b54ff9c6" y="53.67875"/>
     </g>
    </g>
    <g id="text_19">
     <!-- QM -->
     <defs>
      <path d="M 9.8125 72.90625 
L 24.515625 72.90625 
L 43.109375 23.296875 
L 61.8125 72.90625 
L 76.515625 72.90625 
L 76.515625 0 
L 66.890625 0 
L 66.890625 64.015625 
L 48.09375 14.015625 
L 38.1875 14.015625 
L 19.390625 64.015625 
L 19.390625 0 
L 9.8125 0 
z
" id="BitstreamVeraSans-Roman-4d"/>
      <path d="M 39.40625 66.21875 
Q 28.65625 66.21875 22.328125 58.203125 
Q 16.015625 50.203125 16.015625 36.375 
Q 16.015625 22.609375 22.328125 14.59375 
Q 28.65625 6.59375 39.40625 6.59375 
Q 50.140625 6.59375 56.421875 14.59375 
Q 62.703125 22.609375 62.703125 36.375 
Q 62.703125 50.203125 56.421875 58.203125 
Q 50.140625 66.21875 39.40625 66.21875 
M 53.21875 1.3125 
L 66.21875 -12.890625 
L 54.296875 -12.890625 
L 43.5 -1.21875 
Q 41.890625 -1.3125 41.03125 -1.359375 
Q 40.1875 -1.421875 39.40625 -1.421875 
Q 24.03125 -1.421875 14.8125 8.859375 
Q 5.609375 19.140625 5.609375 36.375 
Q 5.609375 53.65625 14.8125 63.9375 
Q 24.03125 74.21875 39.40625 74.21875 
Q 54.734375 74.21875 63.90625 63.9375 
Q 73.09375 53.65625 73.09375 36.375 
Q 73.09375 23.6875 67.984375 14.640625 
Q 62.890625 5.609375 53.21875 1.3125 
" id="BitstreamVeraSans-Roman-51"/>
     </defs>
     <g transform="translate(431.75625 56.47875)scale(0.08 -0.08)">
      <use xlink:href="#BitstreamVeraSans-Roman-51"/>
      <use x="78.7109375" xlink:href="#BitstreamVeraSans-Roman-4d"/>
     </g>
    </g>
    <g id="line2d_38">
     <path d="M 411.75625 65.42125 
L 422.95625 65.42125 
" style="fill:none;stroke:#0000ff;stroke-linecap:square;"/>
    </g>
    <g id="line2d_39">
     <g>
      <use style="fill:#0000ff;stroke:#000000;stroke-width:0.5;" x="411.75625" xlink:href="#mb84260f4a6" y="65.42125"/>
      <use style="fill:#0000ff;stroke:#000000;stroke-width:0.5;" x="422.95625" xlink:href="#mb84260f4a6" y="65.42125"/>
     </g>
    </g>
    <g id="text_20">
     <!-- MM Original -->
     <defs>
      <path id="BitstreamVeraSans-Roman-20"/>
      <path d="M 41.109375 46.296875 
Q 39.59375 47.171875 37.8125 47.578125 
Q 36.03125 48 33.890625 48 
Q 26.265625 48 22.1875 43.046875 
Q 18.109375 38.09375 18.109375 28.8125 
L 18.109375 0 
L 9.078125 0 
L 9.078125 54.6875 
L 18.109375 54.6875 
L 18.109375 46.1875 
Q 20.953125 51.171875 25.484375 53.578125 
Q 30.03125 56 36.53125 56 
Q 37.453125 56 38.578125 55.875 
Q 39.703125 55.765625 41.0625 55.515625 
z
" id="BitstreamVeraSans-Roman-72"/>
      <path d="M 54.890625 33.015625 
L 54.890625 0 
L 45.90625 0 
L 45.90625 32.71875 
Q 45.90625 40.484375 42.875 44.328125 
Q 39.84375 48.1875 33.796875 48.1875 
Q 26.515625 48.1875 22.3125 43.546875 
Q 18.109375 38.921875 18.109375 30.90625 
L 18.109375 0 
L 9.078125 0 
L 9.078125 54.6875 
L 18.109375 54.6875 
L 18.109375 46.1875 
Q 21.34375 51.125 25.703125 53.5625 
Q 30.078125 56 35.796875 56 
Q 45.21875 56 50.046875 50.171875 
Q 54.890625 44.34375 54.890625 33.015625 
" id="BitstreamVeraSans-Roman-6e"/>
      <path d="M 45.40625 27.984375 
Q 45.40625 37.75 41.375 43.109375 
Q 37.359375 48.484375 30.078125 48.484375 
Q 22.859375 48.484375 18.828125 43.109375 
Q 14.796875 37.75 14.796875 27.984375 
Q 14.796875 18.265625 18.828125 12.890625 
Q 22.859375 7.515625 30.078125 7.515625 
Q 37.359375 7.515625 41.375 12.890625 
Q 45.40625 18.265625 45.40625 27.984375 
M 54.390625 6.78125 
Q 54.390625 -7.171875 48.1875 -13.984375 
Q 42 -20.796875 29.203125 -20.796875 
Q 24.46875 -20.796875 20.265625 -20.09375 
Q 16.0625 -19.390625 12.109375 -17.921875 
L 12.109375 -9.1875 
Q 16.0625 -11.328125 19.921875 -12.34375 
Q 23.78125 -13.375 27.78125 -13.375 
Q 36.625 -13.375 41.015625 -8.765625 
Q 45.40625 -4.15625 45.40625 5.171875 
L 45.40625 9.625 
Q 42.625 4.78125 38.28125 2.390625 
Q 33.9375 0 27.875 0 
Q 17.828125 0 11.671875 7.65625 
Q 5.515625 15.328125 5.515625 27.984375 
Q 5.515625 40.671875 11.671875 48.328125 
Q 17.828125 56 27.875 56 
Q 33.9375 56 38.28125 53.609375 
Q 42.625 51.21875 45.40625 46.390625 
L 45.40625 54.6875 
L 54.390625 54.6875 
z
" id="BitstreamVeraSans-Roman-67"/>
     </defs>
     <g transform="translate(431.75625 68.22125)scale(0.08 -0.08)">
      <use xlink:href="#BitstreamVeraSans-Roman-4d"/>
      <use x="86.279296875" xlink:href="#BitstreamVeraSans-Roman-4d"/>
      <use x="172.55859375" xlink:href="#BitstreamVeraSans-Roman-20"/>
      <use x="204.345703125" xlink:href="#BitstreamVeraSans-Roman-4f"/>
      <use x="283.056640625" xlink:href="#BitstreamVeraSans-Roman-72"/>
      <use x="324.169921875" xlink:href="#BitstreamVeraSans-Roman-69"/>
      <use x="351.953125" xlink:href="#BitstreamVeraSans-Roman-67"/>
      <use x="415.4296875" xlink:href="#BitstreamVeraSans-Roman-69"/>
      <use x="443.212890625" xlink:href="#BitstreamVeraSans-Roman-6e"/>
      <use x="506.591796875" xlink:href="#BitstreamVeraSans-Roman-61"/>
      <use x="567.87109375" xlink:href="#BitstreamVeraSans-Roman-6c"/>
     </g>
    </g>
    <g id="line2d_40">
     <path d="M 411.75625 77.16375 
L 422.95625 77.16375 
" style="fill:none;stroke:#000000;stroke-linecap:square;"/>
    </g>
    <g id="line2d_41">
     <g>
      <use style="stroke:#000000;stroke-width:0.5;" x="411.75625" xlink:href="#m47391f52fa" y="77.16375"/>
      <use style="stroke:#000000;stroke-width:0.5;" x="422.95625" xlink:href="#m47391f52fa" y="77.16375"/>
     </g>
    </g>
    <g id="text_21">
     <!-- MM With phi zeroed -->
     <defs>
      <path d="M 18.109375 8.203125 
L 18.109375 -20.796875 
L 9.078125 -20.796875 
L 9.078125 54.6875 
L 18.109375 54.6875 
L 18.109375 46.390625 
Q 20.953125 51.265625 25.265625 53.625 
Q 29.59375 56 35.59375 56 
Q 45.5625 56 51.78125 48.09375 
Q 58.015625 40.1875 58.015625 27.296875 
Q 58.015625 14.40625 51.78125 6.484375 
Q 45.5625 -1.421875 35.59375 -1.421875 
Q 29.59375 -1.421875 25.265625 0.953125 
Q 20.953125 3.328125 18.109375 8.203125 
M 48.6875 27.296875 
Q 48.6875 37.203125 44.609375 42.84375 
Q 40.53125 48.484375 33.40625 48.484375 
Q 26.265625 48.484375 22.1875 42.84375 
Q 18.109375 37.203125 18.109375 27.296875 
Q 18.109375 17.390625 22.1875 11.75 
Q 26.265625 6.109375 33.40625 6.109375 
Q 40.53125 6.109375 44.609375 11.75 
Q 48.6875 17.390625 48.6875 27.296875 
" id="BitstreamVeraSans-Roman-70"/>
      <path d="M 56.203125 29.59375 
L 56.203125 25.203125 
L 14.890625 25.203125 
Q 15.484375 15.921875 20.484375 11.0625 
Q 25.484375 6.203125 34.421875 6.203125 
Q 39.59375 6.203125 44.453125 7.46875 
Q 49.3125 8.734375 54.109375 11.28125 
L 54.109375 2.78125 
Q 49.265625 0.734375 44.1875 -0.34375 
Q 39.109375 -1.421875 33.890625 -1.421875 
Q 20.796875 -1.421875 13.15625 6.1875 
Q 5.515625 13.8125 5.515625 26.8125 
Q 5.515625 40.234375 12.765625 48.109375 
Q 20.015625 56 32.328125 56 
Q 43.359375 56 49.78125 48.890625 
Q 56.203125 41.796875 56.203125 29.59375 
M 47.21875 32.234375 
Q 47.125 39.59375 43.09375 43.984375 
Q 39.0625 48.390625 32.421875 48.390625 
Q 24.90625 48.390625 20.390625 44.140625 
Q 15.875 39.890625 15.1875 32.171875 
z
" id="BitstreamVeraSans-Roman-65"/>
      <path d="M 3.328125 72.90625 
L 13.28125 72.90625 
L 28.609375 11.28125 
L 43.890625 72.90625 
L 54.984375 72.90625 
L 70.3125 11.28125 
L 85.59375 72.90625 
L 95.609375 72.90625 
L 77.296875 0 
L 64.890625 0 
L 49.515625 63.28125 
L 33.984375 0 
L 21.578125 0 
z
" id="BitstreamVeraSans-Roman-57"/>
      <path d="M 45.40625 46.390625 
L 45.40625 75.984375 
L 54.390625 75.984375 
L 54.390625 0 
L 45.40625 0 
L 45.40625 8.203125 
Q 42.578125 3.328125 38.25 0.953125 
Q 33.9375 -1.421875 27.875 -1.421875 
Q 17.96875 -1.421875 11.734375 6.484375 
Q 5.515625 14.40625 5.515625 27.296875 
Q 5.515625 40.1875 11.734375 48.09375 
Q 17.96875 56 27.875 56 
Q 33.9375 56 38.25 53.625 
Q 42.578125 51.265625 45.40625 46.390625 
M 14.796875 27.296875 
Q 14.796875 17.390625 18.875 11.75 
Q 22.953125 6.109375 30.078125 6.109375 
Q 37.203125 6.109375 41.296875 11.75 
Q 45.40625 17.390625 45.40625 27.296875 
Q 45.40625 37.203125 41.296875 42.84375 
Q 37.203125 48.484375 30.078125 48.484375 
Q 22.953125 48.484375 18.875 42.84375 
Q 14.796875 37.203125 14.796875 27.296875 
" id="BitstreamVeraSans-Roman-64"/>
      <path d="M 18.3125 70.21875 
L 18.3125 54.6875 
L 36.8125 54.6875 
L 36.8125 47.703125 
L 18.3125 47.703125 
L 18.3125 18.015625 
Q 18.3125 11.328125 20.140625 9.421875 
Q 21.96875 7.515625 27.59375 7.515625 
L 36.8125 7.515625 
L 36.8125 0 
L 27.59375 0 
Q 17.1875 0 13.234375 3.875 
Q 9.28125 7.765625 9.28125 18.015625 
L 9.28125 47.703125 
L 2.6875 47.703125 
L 2.6875 54.6875 
L 9.28125 54.6875 
L 9.28125 70.21875 
z
" id="BitstreamVeraSans-Roman-74"/>
      <path d="M 5.515625 54.6875 
L 48.1875 54.6875 
L 48.1875 46.484375 
L 14.40625 7.171875 
L 48.1875 7.171875 
L 48.1875 0 
L 4.296875 0 
L 4.296875 8.203125 
L 38.09375 47.515625 
L 5.515625 47.515625 
z
" id="BitstreamVeraSans-Roman-7a"/>
     </defs>
     <g transform="translate(431.75625 79.96375)scale(0.08 -0.08)">
      <use xlink:href="#BitstreamVeraSans-Roman-4d"/>
      <use x="86.279296875" xlink:href="#BitstreamVeraSans-Roman-4d"/>
      <use x="172.55859375" xlink:href="#BitstreamVeraSans-Roman-20"/>
      <use x="204.345703125" xlink:href="#BitstreamVeraSans-Roman-57"/>
      <use x="303.19140625" xlink:href="#BitstreamVeraSans-Roman-69"/>
      <use x="330.974609375" xlink:href="#BitstreamVeraSans-Roman-74"/>
      <use x="370.18359375" xlink:href="#BitstreamVeraSans-Roman-68"/>
      <use x="433.5625" xlink:href="#BitstreamVeraSans-Roman-20"/>
      <use x="465.349609375" xlink:href="#BitstreamVeraSans-Roman-70"/>
      <use x="528.826171875" xlink:href="#BitstreamVeraSans-Roman-68"/>
      <use x="592.205078125" xlink:href="#BitstreamVeraSans-Roman-69"/>
      <use x="619.98828125" xlink:href="#BitstreamVeraSans-Roman-20"/>
      <use x="651.775390625" xlink:href="#BitstreamVeraSans-Roman-7a"/>
      <use x="704.265625" xlink:href="#BitstreamVeraSans-Roman-65"/>
      <use x="765.7890625" xlink:href="#BitstreamVeraSans-Roman-72"/>
      <use x="806.87109375" xlink:href="#BitstreamVeraSans-Roman-6f"/>
      <use x="868.052734375" xlink:href="#BitstreamVeraSans-Roman-65"/>
      <use x="929.576171875" xlink:href="#BitstreamVeraSans-Roman-64"/>
     </g>
    </g>
    <g id="line2d_42">
     <path d="M 411.75625 88.90625 
L 422.95625 88.90625 
" style="fill:none;stroke:#ff00ff;stroke-linecap:square;"/>
    </g>
    <g id="line2d_43">
     <g>
      <use style="fill:#ff00ff;stroke:#ff00ff;stroke-width:0.5;" x="411.75625" xlink:href="#md7f65fb245" y="88.90625"/>
      <use style="fill:#ff00ff;stroke:#ff00ff;stroke-width:0.5;" x="422.95625" xlink:href="#md7f65fb245" y="88.90625"/>
     </g>
    </g>
    <g id="text_22">
     <!-- QM-MM target -->
     <g transform="translate(431.75625 91.70625)scale(0.08 -0.08)">
      <use xlink:href="#BitstreamVeraSans-Roman-51"/>
      <use x="78.7109375" xlink:href="#BitstreamVeraSans-Roman-4d"/>
      <use x="164.990234375" xlink:href="#BitstreamVeraSans-Roman-2d"/>
      <use x="201.07421875" xlink:href="#BitstreamVeraSans-Roman-4d"/>
      <use x="287.353515625" xlink:href="#BitstreamVeraSans-Roman-4d"/>
      <use x="373.6328125" xlink:href="#BitstreamVeraSans-Roman-20"/>
      <use x="405.419921875" xlink:href="#BitstreamVeraSans-Roman-74"/>
      <use x="444.62890625" xlink:href="#BitstreamVeraSans-Roman-61"/>
      <use x="505.908203125" xlink:href="#BitstreamVeraSans-Roman-72"/>
      <use x="547.005859375" xlink:href="#BitstreamVeraSans-Roman-67"/>
      <use x="610.482421875" xlink:href="#BitstreamVeraSans-Roman-65"/>
      <use x="672.005859375" xlink:href="#BitstreamVeraSans-Roman-74"/>
     </g>
    </g>
    <g id="line2d_44">
     <path d="M 411.75625 100.64875 
L 422.95625 100.64875 
" style="fill:none;stroke:#008000;stroke-linecap:square;"/>
    </g>
    <g id="line2d_45">
     <g>
      <use style="fill:#008000;stroke:#000000;stroke-width:0.5;" x="411.75625" xlink:href="#m5761dfab12" y="100.64875"/>
      <use style="fill:#008000;stroke:#000000;stroke-width:0.5;" x="422.95625" xlink:href="#m5761dfab12" y="100.64875"/>
     </g>
    </g>
    <g id="text_23">
     <!-- MM Fitted -->
     <defs>
      <path d="M 9.8125 72.90625 
L 51.703125 72.90625 
L 51.703125 64.59375 
L 19.671875 64.59375 
L 19.671875 43.109375 
L 48.578125 43.109375 
L 48.578125 34.8125 
L 19.671875 34.8125 
L 19.671875 0 
L 9.8125 0 
z
" id="BitstreamVeraSans-Roman-46"/>
     </defs>
     <g transform="translate(431.75625 103.44875)scale(0.08 -0.08)">
      <use xlink:href="#BitstreamVeraSans-Roman-4d"/>
      <use x="86.279296875" xlink:href="#BitstreamVeraSans-Roman-4d"/>
      <use x="172.55859375" xlink:href="#BitstreamVeraSans-Roman-20"/>
      <use x="204.345703125" xlink:href="#BitstreamVeraSans-Roman-46"/>
      <use x="261.755859375" xlink:href="#BitstreamVeraSans-Roman-69"/>
      <use x="289.5390625" xlink:href="#BitstreamVeraSans-Roman-74"/>
      <use x="328.748046875" xlink:href="#BitstreamVeraSans-Roman-74"/>
      <use x="367.95703125" xlink:href="#BitstreamVeraSans-Roman-65"/>
      <use x="429.48046875" xlink:href="#BitstreamVeraSans-Roman-64"/>
     </g>
    </g>
   </g>
  </g>
 </g>
 <defs>
  <clipPath id="pd9059a0acb">
   <rect height="345.6" width="446.4" x="72.0" y="43.2"/>
  </clipPath>
 </defs>
</svg>
