<?xml version="1.0" encoding="utf-8" standalone="no"?>
<!DOCTYPE svg PUBLIC "-//W3C//DTD SVG 1.1//EN"
  "http://www.w3.org/Graphics/SVG/1.1/DTD/svg11.dtd">
<!-- Created with matplotlib (http://matplotlib.org/) -->
<svg height="432pt" version="1.1" viewBox="0 0 576 432" width="576pt" xmlns="http://www.w3.org/2000/svg" xmlns:xlink="http://www.w3.org/1999/xlink">
 <defs>
  <style type="text/css">
*{stroke-linecap:butt;stroke-linejoin:round;stroke-miterlimit:100000;}
  </style>
 </defs>
 <g id="figure_1">
  <g id="patch_1">
   <path d="M 0 432 
L 576 432 
L 576 0 
L 0 0 
z
" style="fill:#ffffff;"/>
  </g>
  <g id="axes_1">
   <g id="patch_2">
    <path d="M 72 388.8 
L 518.4 388.8 
L 518.4 43.2 
L 72 43.2 
z
" style="fill:#ffffff;"/>
   </g>
   <g id="line2d_1">
    <path clip-path="url(#p206f6cfd97)" d="M 72.000033 234.522541 
L 84.400043 230.696132 
L 96.800036 218.807908 
L 109.200035 199.055492 
L 121.600035 173.162639 
L 134.000038 143.98731 
L 146.400026 115.198294 
L 158.800018 90.986614 
L 171.200015 75.696628 
L 183.599992 73.252132 
L 196.000046 86.115778 
L 208.40002 114.324255 
L 220.800006 155.269572 
L 233.199972 204.606162 
L 245.600004 257.773774 
L 257.999987 309.228021 
L 270.399995 351.619121 
L 282.799978 379.234673 
L 295.199889 388.8 
L 307.599988 379.234728 
L 319.999988 351.619174 
L 332.399984 309.228136 
L 344.799984 257.773806 
L 357.199964 204.60643 
L 369.599982 155.269618 
L 381.999979 114.324259 
L 394.399993 86.115712 
L 406.799968 73.252149 
L 419.199986 75.70049 
L 431.600012 90.986671 
L 444.000007 115.199424 
L 456.399982 143.987306 
L 468.799986 173.162675 
L 481.199998 199.055562 
L 493.600017 218.808024 
L 506.000019 230.696177 
" style="fill:none;stroke:#ff0000;stroke-linecap:square;"/>
    <defs>
     <path d="M 0 3 
C 0.795609 3 1.55874 2.683901 2.12132 2.12132 
C 2.683901 1.55874 3 0.795609 3 0 
C 3 -0.795609 2.683901 -1.55874 2.12132 -2.12132 
C 1.55874 -2.683901 0.795609 -3 0 -3 
C -0.795609 -3 -1.55874 -2.683901 -2.12132 -2.12132 
C -2.683901 -1.55874 -3 -0.795609 -3 0 
C -3 0.795609 -2.683901 1.55874 -2.12132 2.12132 
C -1.55874 2.683901 -0.795609 3 0 3 
z
" id="m4c6224dd8a" style="stroke:#000000;stroke-width:0.5;"/>
    </defs>
    <g clip-path="url(#p206f6cfd97)">
     <use style="fill:#ff0000;stroke:#000000;stroke-width:0.5;" x="72.0000328045" xlink:href="#m4c6224dd8a" y="234.522541418"/>
     <use style="fill:#ff0000;stroke:#000000;stroke-width:0.5;" x="84.4000431872" xlink:href="#m4c6224dd8a" y="230.696132485"/>
     <use style="fill:#ff0000;stroke:#000000;stroke-width:0.5;" x="96.800035973" xlink:href="#m4c6224dd8a" y="218.807908444"/>
     <use style="fill:#ff0000;stroke:#000000;stroke-width:0.5;" x="109.20003548" xlink:href="#m4c6224dd8a" y="199.055491978"/>
     <use style="fill:#ff0000;stroke:#000000;stroke-width:0.5;" x="121.600034829" xlink:href="#m4c6224dd8a" y="173.162639325"/>
     <use style="fill:#ff0000;stroke:#000000;stroke-width:0.5;" x="134.000037994" xlink:href="#m4c6224dd8a" y="143.987310143"/>
     <use style="fill:#ff0000;stroke:#000000;stroke-width:0.5;" x="146.400026337" xlink:href="#m4c6224dd8a" y="115.198293629"/>
     <use style="fill:#ff0000;stroke:#000000;stroke-width:0.5;" x="158.800017509" xlink:href="#m4c6224dd8a" y="90.9866142101"/>
     <use style="fill:#ff0000;stroke:#000000;stroke-width:0.5;" x="171.200014616" xlink:href="#m4c6224dd8a" y="75.6966281709"/>
     <use style="fill:#ff0000;stroke:#000000;stroke-width:0.5;" x="183.599992366" xlink:href="#m4c6224dd8a" y="73.2521321052"/>
     <use style="fill:#ff0000;stroke:#000000;stroke-width:0.5;" x="196.000045895" xlink:href="#m4c6224dd8a" y="86.1157780849"/>
     <use style="fill:#ff0000;stroke:#000000;stroke-width:0.5;" x="208.40001989" xlink:href="#m4c6224dd8a" y="114.324254916"/>
     <use style="fill:#ff0000;stroke:#000000;stroke-width:0.5;" x="220.800005809" xlink:href="#m4c6224dd8a" y="155.269571727"/>
     <use style="fill:#ff0000;stroke:#000000;stroke-width:0.5;" x="233.19997179" xlink:href="#m4c6224dd8a" y="204.606161841"/>
     <use style="fill:#ff0000;stroke:#000000;stroke-width:0.5;" x="245.600003674" xlink:href="#m4c6224dd8a" y="257.773773888"/>
     <use style="fill:#ff0000;stroke:#000000;stroke-width:0.5;" x="257.999987356" xlink:href="#m4c6224dd8a" y="309.228020728"/>
     <use style="fill:#ff0000;stroke:#000000;stroke-width:0.5;" x="270.399994657" xlink:href="#m4c6224dd8a" y="351.619120699"/>
     <use style="fill:#ff0000;stroke:#000000;stroke-width:0.5;" x="282.799978289" xlink:href="#m4c6224dd8a" y="379.234673355"/>
     <use style="fill:#ff0000;stroke:#000000;stroke-width:0.5;" x="295.199889068" xlink:href="#m4c6224dd8a" y="388.8"/>
     <use style="fill:#ff0000;stroke:#000000;stroke-width:0.5;" x="307.599988023" xlink:href="#m4c6224dd8a" y="379.234728182"/>
     <use style="fill:#ff0000;stroke:#000000;stroke-width:0.5;" x="319.999988498" xlink:href="#m4c6224dd8a" y="351.619174029"/>
     <use style="fill:#ff0000;stroke:#000000;stroke-width:0.5;" x="332.399983692" xlink:href="#m4c6224dd8a" y="309.228136305"/>
     <use style="fill:#ff0000;stroke:#000000;stroke-width:0.5;" x="344.79998411" xlink:href="#m4c6224dd8a" y="257.773806024"/>
     <use style="fill:#ff0000;stroke:#000000;stroke-width:0.5;" x="357.199963632" xlink:href="#m4c6224dd8a" y="204.606430435"/>
     <use style="fill:#ff0000;stroke:#000000;stroke-width:0.5;" x="369.5999823" xlink:href="#m4c6224dd8a" y="155.269618024"/>
     <use style="fill:#ff0000;stroke:#000000;stroke-width:0.5;" x="381.999978881" xlink:href="#m4c6224dd8a" y="114.324258606"/>
     <use style="fill:#ff0000;stroke:#000000;stroke-width:0.5;" x="394.399993496" xlink:href="#m4c6224dd8a" y="86.1157116643"/>
     <use style="fill:#ff0000;stroke:#000000;stroke-width:0.5;" x="406.79996788" xlink:href="#m4c6224dd8a" y="73.2521493566"/>
     <use style="fill:#ff0000;stroke:#000000;stroke-width:0.5;" x="419.199986077" xlink:href="#m4c6224dd8a" y="75.7004903054"/>
     <use style="fill:#ff0000;stroke:#000000;stroke-width:0.5;" x="431.600012497" xlink:href="#m4c6224dd8a" y="90.9866710308"/>
     <use style="fill:#ff0000;stroke:#000000;stroke-width:0.5;" x="444.000007434" xlink:href="#m4c6224dd8a" y="115.199424053"/>
     <use style="fill:#ff0000;stroke:#000000;stroke-width:0.5;" x="456.399982383" xlink:href="#m4c6224dd8a" y="143.987306427"/>
     <use style="fill:#ff0000;stroke:#000000;stroke-width:0.5;" x="468.799986471" xlink:href="#m4c6224dd8a" y="173.162674861"/>
     <use style="fill:#ff0000;stroke:#000000;stroke-width:0.5;" x="481.199997511" xlink:href="#m4c6224dd8a" y="199.055561588"/>
     <use style="fill:#ff0000;stroke:#000000;stroke-width:0.5;" x="493.600017459" xlink:href="#m4c6224dd8a" y="218.808024445"/>
     <use style="fill:#ff0000;stroke:#000000;stroke-width:0.5;" x="506.000019005" xlink:href="#m4c6224dd8a" y="230.696176555"/>
    </g>
   </g>
   <g id="line2d_2">
    <path clip-path="url(#p206f6cfd97)" d="M 72.000033 342.068283 
L 84.400043 334.358032 
L 96.800036 313.18061 
L 109.200035 281.924018 
L 121.600035 243.736812 
L 134.000038 203.161114 
L 146.400026 165.290602 
L 158.800018 135.314216 
L 171.200015 118.164129 
L 183.599992 117.922247 
L 196.000046 136.19973 
L 208.40002 170.82816 
L 220.800006 216.059648 
L 233.199972 264.715162 
L 245.600004 309.452443 
L 257.999987 344.968193 
L 270.399995 369.984641 
L 282.799978 384.43214 
L 295.199889 388.8 
L 307.599988 384.431807 
L 319.999988 369.985313 
L 332.399984 344.968115 
L 344.799984 309.452679 
L 357.199964 264.715484 
L 369.599982 216.059752 
L 381.999979 170.828051 
L 394.399993 136.199503 
L 406.799968 117.922261 
L 419.199986 118.125543 
L 431.600012 135.314488 
L 444.000007 165.385621 
L 456.399982 203.157798 
L 468.799986 243.733687 
L 481.199998 281.923146 
L 493.600017 313.271847 
L 506.000019 334.36156 
" style="fill:none;stroke:#0000ff;stroke-linecap:square;"/>
    <defs>
     <path d="M 0 3 
C 0.795609 3 1.55874 2.683901 2.12132 2.12132 
C 2.683901 1.55874 3 0.795609 3 0 
C 3 -0.795609 2.683901 -1.55874 2.12132 -2.12132 
C 1.55874 -2.683901 0.795609 -3 0 -3 
C -0.795609 -3 -1.55874 -2.683901 -2.12132 -2.12132 
C -2.683901 -1.55874 -3 -0.795609 -3 0 
C -3 0.795609 -2.683901 1.55874 -2.12132 2.12132 
C -1.55874 2.683901 -0.795609 3 0 3 
z
" id="ma8f2a8755e" style="stroke:#000000;stroke-width:0.5;"/>
    </defs>
    <g clip-path="url(#p206f6cfd97)">
     <use style="fill:#0000ff;stroke:#000000;stroke-width:0.5;" x="72.0000328045" xlink:href="#ma8f2a8755e" y="342.068283152"/>
     <use style="fill:#0000ff;stroke:#000000;stroke-width:0.5;" x="84.4000431872" xlink:href="#ma8f2a8755e" y="334.358031794"/>
     <use style="fill:#0000ff;stroke:#000000;stroke-width:0.5;" x="96.800035973" xlink:href="#ma8f2a8755e" y="313.180609758"/>
     <use style="fill:#0000ff;stroke:#000000;stroke-width:0.5;" x="109.20003548" xlink:href="#ma8f2a8755e" y="281.92401816"/>
     <use style="fill:#0000ff;stroke:#000000;stroke-width:0.5;" x="121.600034829" xlink:href="#ma8f2a8755e" y="243.736812326"/>
     <use style="fill:#0000ff;stroke:#000000;stroke-width:0.5;" x="134.000037994" xlink:href="#ma8f2a8755e" y="203.16111404"/>
     <use style="fill:#0000ff;stroke:#000000;stroke-width:0.5;" x="146.400026337" xlink:href="#ma8f2a8755e" y="165.290602405"/>
     <use style="fill:#0000ff;stroke:#000000;stroke-width:0.5;" x="158.800017509" xlink:href="#ma8f2a8755e" y="135.314216407"/>
     <use style="fill:#0000ff;stroke:#000000;stroke-width:0.5;" x="171.200014616" xlink:href="#ma8f2a8755e" y="118.164129001"/>
     <use style="fill:#0000ff;stroke:#000000;stroke-width:0.5;" x="183.599992366" xlink:href="#ma8f2a8755e" y="117.922246735"/>
     <use style="fill:#0000ff;stroke:#000000;stroke-width:0.5;" x="196.000045895" xlink:href="#ma8f2a8755e" y="136.199730344"/>
     <use style="fill:#0000ff;stroke:#000000;stroke-width:0.5;" x="208.40001989" xlink:href="#ma8f2a8755e" y="170.828159907"/>
     <use style="fill:#0000ff;stroke:#000000;stroke-width:0.5;" x="220.800005809" xlink:href="#ma8f2a8755e" y="216.059648401"/>
     <use style="fill:#0000ff;stroke:#000000;stroke-width:0.5;" x="233.19997179" xlink:href="#ma8f2a8755e" y="264.715162235"/>
     <use style="fill:#0000ff;stroke:#000000;stroke-width:0.5;" x="245.600003674" xlink:href="#ma8f2a8755e" y="309.452443182"/>
     <use style="fill:#0000ff;stroke:#000000;stroke-width:0.5;" x="257.999987356" xlink:href="#ma8f2a8755e" y="344.968192888"/>
     <use style="fill:#0000ff;stroke:#000000;stroke-width:0.5;" x="270.399994657" xlink:href="#ma8f2a8755e" y="369.98464125"/>
     <use style="fill:#0000ff;stroke:#000000;stroke-width:0.5;" x="282.799978289" xlink:href="#ma8f2a8755e" y="384.432139827"/>
     <use style="fill:#0000ff;stroke:#000000;stroke-width:0.5;" x="295.199889068" xlink:href="#ma8f2a8755e" y="388.8"/>
     <use style="fill:#0000ff;stroke:#000000;stroke-width:0.5;" x="307.599988023" xlink:href="#ma8f2a8755e" y="384.431806946"/>
     <use style="fill:#0000ff;stroke:#000000;stroke-width:0.5;" x="319.999988498" xlink:href="#ma8f2a8755e" y="369.985313293"/>
     <use style="fill:#0000ff;stroke:#000000;stroke-width:0.5;" x="332.399983692" xlink:href="#ma8f2a8755e" y="344.968115015"/>
     <use style="fill:#0000ff;stroke:#000000;stroke-width:0.5;" x="344.79998411" xlink:href="#ma8f2a8755e" y="309.452679482"/>
     <use style="fill:#0000ff;stroke:#000000;stroke-width:0.5;" x="357.199963632" xlink:href="#ma8f2a8755e" y="264.715483522"/>
     <use style="fill:#0000ff;stroke:#000000;stroke-width:0.5;" x="369.5999823" xlink:href="#ma8f2a8755e" y="216.059751773"/>
     <use style="fill:#0000ff;stroke:#000000;stroke-width:0.5;" x="381.999978881" xlink:href="#ma8f2a8755e" y="170.828050847"/>
     <use style="fill:#0000ff;stroke:#000000;stroke-width:0.5;" x="394.399993496" xlink:href="#ma8f2a8755e" y="136.199503288"/>
     <use style="fill:#0000ff;stroke:#000000;stroke-width:0.5;" x="406.79996788" xlink:href="#ma8f2a8755e" y="117.922261104"/>
     <use style="fill:#0000ff;stroke:#000000;stroke-width:0.5;" x="419.199986077" xlink:href="#ma8f2a8755e" y="118.125542623"/>
     <use style="fill:#0000ff;stroke:#000000;stroke-width:0.5;" x="431.600012497" xlink:href="#ma8f2a8755e" y="135.314488082"/>
     <use style="fill:#0000ff;stroke:#000000;stroke-width:0.5;" x="444.000007434" xlink:href="#ma8f2a8755e" y="165.385620775"/>
     <use style="fill:#0000ff;stroke:#000000;stroke-width:0.5;" x="456.399982383" xlink:href="#ma8f2a8755e" y="203.157797724"/>
     <use style="fill:#0000ff;stroke:#000000;stroke-width:0.5;" x="468.799986471" xlink:href="#ma8f2a8755e" y="243.733686915"/>
     <use style="fill:#0000ff;stroke:#000000;stroke-width:0.5;" x="481.199997511" xlink:href="#ma8f2a8755e" y="281.923145947"/>
     <use style="fill:#0000ff;stroke:#000000;stroke-width:0.5;" x="493.600017459" xlink:href="#ma8f2a8755e" y="313.271846751"/>
     <use style="fill:#0000ff;stroke:#000000;stroke-width:0.5;" x="506.000019005" xlink:href="#ma8f2a8755e" y="334.361559954"/>
    </g>
   </g>
   <g id="line2d_3">
    <path clip-path="url(#p206f6cfd97)" d="M 72.000033 382.831983 
L 84.400043 380.491476 
L 96.800036 374.742878 
L 109.200035 367.01629 
L 121.600035 357.463851 
L 134.000038 346.959015 
L 146.400026 336.703498 
L 158.800018 328.248596 
L 171.200015 323.591107 
L 183.599992 324.944235 
L 196.000046 333.353448 
L 208.40002 347.467463 
L 220.800006 363.650762 
L 233.199972 377.888449 
L 245.600004 386.682403 
L 257.999987 388.8 
L 270.399995 386.776683 
L 282.799978 383.645951 
L 295.199889 381.920271 
L 307.599988 383.645585 
L 319.999988 386.777325 
L 332.399984 388.79985 
L 344.799984 386.682605 
L 357.199964 377.888584 
L 369.599982 363.650834 
L 381.999979 347.467351 
L 394.399993 333.35327 
L 406.799968 324.944236 
L 419.199986 323.55252 
L 431.600012 328.248826 
L 444.000007 336.798448 
L 456.399982 346.955651 
L 468.799986 357.460674 
L 481.199998 367.015346 
L 493.600017 374.834029 
L 506.000019 380.494951 
" style="fill:none;stroke:#000000;stroke-linecap:square;"/>
    <defs>
     <path d="M -3 3 
L 3 -3 
M -3 -3 
L 3 3 
" id="m20104d07bc" style="stroke:#000000;stroke-width:0.5;"/>
    </defs>
    <g clip-path="url(#p206f6cfd97)">
     <use style="stroke:#000000;stroke-width:0.5;" x="72.0000328045" xlink:href="#m20104d07bc" y="382.831982866"/>
     <use style="stroke:#000000;stroke-width:0.5;" x="84.4000431872" xlink:href="#m20104d07bc" y="380.491476465"/>
     <use style="stroke:#000000;stroke-width:0.5;" x="96.800035973" xlink:href="#m20104d07bc" y="374.74287818"/>
     <use style="stroke:#000000;stroke-width:0.5;" x="109.20003548" xlink:href="#m20104d07bc" y="367.01628958"/>
     <use style="stroke:#000000;stroke-width:0.5;" x="121.600034829" xlink:href="#m20104d07bc" y="357.463851064"/>
     <use style="stroke:#000000;stroke-width:0.5;" x="134.000037994" xlink:href="#m20104d07bc" y="346.959015404"/>
     <use style="stroke:#000000;stroke-width:0.5;" x="146.400026337" xlink:href="#m20104d07bc" y="336.703498352"/>
     <use style="stroke:#000000;stroke-width:0.5;" x="158.800017509" xlink:href="#m20104d07bc" y="328.248596438"/>
     <use style="stroke:#000000;stroke-width:0.5;" x="171.200014616" xlink:href="#m20104d07bc" y="323.591106932"/>
     <use style="stroke:#000000;stroke-width:0.5;" x="183.599992366" xlink:href="#m20104d07bc" y="324.944234724"/>
     <use style="stroke:#000000;stroke-width:0.5;" x="196.000045895" xlink:href="#m20104d07bc" y="333.353448027"/>
     <use style="stroke:#000000;stroke-width:0.5;" x="208.40001989" xlink:href="#m20104d07bc" y="347.467462604"/>
     <use style="stroke:#000000;stroke-width:0.5;" x="220.800005809" xlink:href="#m20104d07bc" y="363.650761541"/>
     <use style="stroke:#000000;stroke-width:0.5;" x="233.19997179" xlink:href="#m20104d07bc" y="377.888449257"/>
     <use style="stroke:#000000;stroke-width:0.5;" x="245.600003674" xlink:href="#m20104d07bc" y="386.682403478"/>
     <use style="stroke:#000000;stroke-width:0.5;" x="257.999987356" xlink:href="#m20104d07bc" y="388.8"/>
     <use style="stroke:#000000;stroke-width:0.5;" x="270.399994657" xlink:href="#m20104d07bc" y="386.776683478"/>
     <use style="stroke:#000000;stroke-width:0.5;" x="282.799978289" xlink:href="#m20104d07bc" y="383.645950788"/>
     <use style="stroke:#000000;stroke-width:0.5;" x="295.199889068" xlink:href="#m20104d07bc" y="381.920271144"/>
     <use style="stroke:#000000;stroke-width:0.5;" x="307.599988023" xlink:href="#m20104d07bc" y="383.64558512"/>
     <use style="stroke:#000000;stroke-width:0.5;" x="319.999988498" xlink:href="#m20104d07bc" y="386.77732462"/>
     <use style="stroke:#000000;stroke-width:0.5;" x="332.399983692" xlink:href="#m20104d07bc" y="388.799850192"/>
     <use style="stroke:#000000;stroke-width:0.5;" x="344.79998411" xlink:href="#m20104d07bc" y="386.682604961"/>
     <use style="stroke:#000000;stroke-width:0.5;" x="357.199963632" xlink:href="#m20104d07bc" y="377.888583811"/>
     <use style="stroke:#000000;stroke-width:0.5;" x="369.5999823" xlink:href="#m20104d07bc" y="363.650833908"/>
     <use style="stroke:#000000;stroke-width:0.5;" x="381.999978881" xlink:href="#m20104d07bc" y="347.467351043"/>
     <use style="stroke:#000000;stroke-width:0.5;" x="394.399993496" xlink:href="#m20104d07bc" y="333.353270022"/>
     <use style="stroke:#000000;stroke-width:0.5;" x="406.79996788" xlink:href="#m20104d07bc" y="324.944235763"/>
     <use style="stroke:#000000;stroke-width:0.5;" x="419.199986077" xlink:href="#m20104d07bc" y="323.552520149"/>
     <use style="stroke:#000000;stroke-width:0.5;" x="431.600012497" xlink:href="#m20104d07bc" y="328.248825966"/>
     <use style="stroke:#000000;stroke-width:0.5;" x="444.000007434" xlink:href="#m20104d07bc" y="336.798448281"/>
     <use style="stroke:#000000;stroke-width:0.5;" x="456.399982383" xlink:href="#m20104d07bc" y="346.955650634"/>
     <use style="stroke:#000000;stroke-width:0.5;" x="468.799986471" xlink:href="#m20104d07bc" y="357.460674121"/>
     <use style="stroke:#000000;stroke-width:0.5;" x="481.199997511" xlink:href="#m20104d07bc" y="367.015346459"/>
     <use style="stroke:#000000;stroke-width:0.5;" x="493.600017459" xlink:href="#m20104d07bc" y="374.834029412"/>
     <use style="stroke:#000000;stroke-width:0.5;" x="506.000019005" xlink:href="#m20104d07bc" y="380.494951338"/>
    </g>
   </g>
   <g id="line2d_4">
    <path clip-path="url(#p206f6cfd97)" d="M 72.000033 233.61083 
L 84.400043 232.124927 
L 96.800036 225.985301 
L 109.200035 213.959474 
L 121.600035 197.619059 
L 134.000038 178.948566 
L 146.400026 160.415066 
L 158.800018 144.658289 
L 171.200015 134.025792 
L 183.599992 130.228169 
L 196.000046 134.682601 
L 208.40002 148.777063 
L 220.800006 173.539081 
L 233.199972 208.637984 
L 245.600004 253.011642 
L 257.999987 302.348292 
L 270.399995 346.762708 
L 282.799978 377.508994 
L 295.199889 388.8 
L 307.599988 377.509414 
L 319.999988 346.762121 
L 332.399984 302.348557 
L 344.799984 253.011472 
L 357.199964 208.638118 
L 369.599982 173.539055 
L 381.999979 148.777179 
L 394.399993 134.682713 
L 406.799968 130.228185 
L 419.199986 134.068241 
L 431.600012 144.658116 
L 444.000007 160.321247 
L 456.399982 178.951927 
L 468.799986 197.622272 
L 481.199998 213.960486 
L 493.600017 225.894266 
L 506.000019 232.121496 
" style="fill:none;stroke:#ff00ff;stroke-linecap:square;"/>
    <defs>
     <path d="M -3 3 
L 3 -3 
M -3 -3 
L 3 3 
" id="m4cf776b511" style="stroke:#ff00ff;stroke-width:0.5;"/>
    </defs>
    <g clip-path="url(#p206f6cfd97)">
     <use style="fill:#ff00ff;stroke:#ff00ff;stroke-width:0.5;" x="72.0000328045" xlink:href="#m4cf776b511" y="233.610829695"/>
     <use style="fill:#ff00ff;stroke:#ff00ff;stroke-width:0.5;" x="84.4000431872" xlink:href="#m4cf776b511" y="232.124927164"/>
     <use style="fill:#ff00ff;stroke:#ff00ff;stroke-width:0.5;" x="96.800035973" xlink:href="#m4cf776b511" y="225.985301408"/>
     <use style="fill:#ff00ff;stroke:#ff00ff;stroke-width:0.5;" x="109.20003548" xlink:href="#m4cf776b511" y="213.959473541"/>
     <use style="fill:#ff00ff;stroke:#ff00ff;stroke-width:0.5;" x="121.600034829" xlink:href="#m4cf776b511" y="197.619059404"/>
     <use style="fill:#ff00ff;stroke:#ff00ff;stroke-width:0.5;" x="134.000037994" xlink:href="#m4cf776b511" y="178.948565883"/>
     <use style="fill:#ff00ff;stroke:#ff00ff;stroke-width:0.5;" x="146.400026337" xlink:href="#m4cf776b511" y="160.415066421"/>
     <use style="fill:#ff00ff;stroke:#ff00ff;stroke-width:0.5;" x="158.800017509" xlink:href="#m4cf776b511" y="144.658288915"/>
     <use style="fill:#ff00ff;stroke:#ff00ff;stroke-width:0.5;" x="171.200014616" xlink:href="#m4cf776b511" y="134.025792383"/>
     <use style="fill:#ff00ff;stroke:#ff00ff;stroke-width:0.5;" x="183.599992366" xlink:href="#m4cf776b511" y="130.228168525"/>
     <use style="fill:#ff00ff;stroke:#ff00ff;stroke-width:0.5;" x="196.000045895" xlink:href="#m4cf776b511" y="134.682601201"/>
     <use style="fill:#ff00ff;stroke:#ff00ff;stroke-width:0.5;" x="208.40001989" xlink:href="#m4cf776b511" y="148.777063456"/>
     <use style="fill:#ff00ff;stroke:#ff00ff;stroke-width:0.5;" x="220.800005809" xlink:href="#m4cf776b511" y="173.53908133"/>
     <use style="fill:#ff00ff;stroke:#ff00ff;stroke-width:0.5;" x="233.19997179" xlink:href="#m4cf776b511" y="208.637983727"/>
     <use style="fill:#ff00ff;stroke:#ff00ff;stroke-width:0.5;" x="245.600003674" xlink:href="#m4cf776b511" y="253.011641554"/>
     <use style="fill:#ff00ff;stroke:#ff00ff;stroke-width:0.5;" x="257.999987356" xlink:href="#m4cf776b511" y="302.348291872"/>
     <use style="fill:#ff00ff;stroke:#ff00ff;stroke-width:0.5;" x="270.399994657" xlink:href="#m4cf776b511" y="346.762708365"/>
     <use style="fill:#ff00ff;stroke:#ff00ff;stroke-width:0.5;" x="282.799978289" xlink:href="#m4cf776b511" y="377.508993711"/>
     <use style="fill:#ff00ff;stroke:#ff00ff;stroke-width:0.5;" x="295.199889068" xlink:href="#m4cf776b511" y="388.8"/>
     <use style="fill:#ff00ff;stroke:#ff00ff;stroke-width:0.5;" x="307.599988023" xlink:href="#m4cf776b511" y="377.509414206"/>
     <use style="fill:#ff00ff;stroke:#ff00ff;stroke-width:0.5;" x="319.999988498" xlink:href="#m4cf776b511" y="346.762120552"/>
     <use style="fill:#ff00ff;stroke:#ff00ff;stroke-width:0.5;" x="332.399983692" xlink:href="#m4cf776b511" y="302.348557256"/>
     <use style="fill:#ff00ff;stroke:#ff00ff;stroke-width:0.5;" x="344.79998411" xlink:href="#m4cf776b511" y="253.011472206"/>
     <use style="fill:#ff00ff;stroke:#ff00ff;stroke-width:0.5;" x="357.199963632" xlink:href="#m4cf776b511" y="208.638117768"/>
     <use style="fill:#ff00ff;stroke:#ff00ff;stroke-width:0.5;" x="369.5999823" xlink:href="#m4cf776b511" y="173.539055259"/>
     <use style="fill:#ff00ff;stroke:#ff00ff;stroke-width:0.5;" x="381.999978881" xlink:href="#m4cf776b511" y="148.777178707"/>
     <use style="fill:#ff00ff;stroke:#ff00ff;stroke-width:0.5;" x="394.399993496" xlink:href="#m4cf776b511" y="134.682712786"/>
     <use style="fill:#ff00ff;stroke:#ff00ff;stroke-width:0.5;" x="406.79996788" xlink:href="#m4cf776b511" y="130.228184737"/>
     <use style="fill:#ff00ff;stroke:#ff00ff;stroke-width:0.5;" x="419.199986077" xlink:href="#m4cf776b511" y="134.0682413"/>
     <use style="fill:#ff00ff;stroke:#ff00ff;stroke-width:0.5;" x="431.600012497" xlink:href="#m4cf776b511" y="144.658116209"/>
     <use style="fill:#ff00ff;stroke:#ff00ff;stroke-width:0.5;" x="444.000007434" xlink:href="#m4cf776b511" y="160.321246916"/>
     <use style="fill:#ff00ff;stroke:#ff00ff;stroke-width:0.5;" x="456.399982383" xlink:href="#m4cf776b511" y="178.951926936"/>
     <use style="fill:#ff00ff;stroke:#ff00ff;stroke-width:0.5;" x="468.799986471" xlink:href="#m4cf776b511" y="197.622271883"/>
     <use style="fill:#ff00ff;stroke:#ff00ff;stroke-width:0.5;" x="481.199997511" xlink:href="#m4cf776b511" y="213.960486273"/>
     <use style="fill:#ff00ff;stroke:#ff00ff;stroke-width:0.5;" x="493.600017459" xlink:href="#m4cf776b511" y="225.894266176"/>
     <use style="fill:#ff00ff;stroke:#ff00ff;stroke-width:0.5;" x="506.000019005" xlink:href="#m4cf776b511" y="232.121496361"/>
    </g>
   </g>
   <g id="line2d_5">
    <path clip-path="url(#p206f6cfd97)" d="M 72.000033 234.962733 
L 84.400043 230.495036 
L 96.800036 218.106193 
L 109.200035 198.855384 
L 121.600035 173.276646 
L 134.000038 143.950456 
L 146.400026 114.876237 
L 158.800018 90.608462 
L 171.200015 75.500671 
L 183.599992 73.277922 
L 196.000046 86.12982 
L 208.40002 114.027435 
L 220.800006 154.713918 
L 233.199972 204.575773 
L 245.600004 258.105826 
L 257.999987 308.786943 
L 270.399995 351.101462 
L 282.799978 379.235239 
L 295.199889 388.8 
L 307.599988 379.234934 
L 319.999988 351.102156 
L 332.399984 308.786906 
L 344.799984 258.106074 
L 357.199964 204.57612 
L 369.599982 154.714019 
L 381.999979 114.027326 
L 394.399993 86.129614 
L 406.799968 73.277924 
L 419.199986 75.462084 
L 431.600012 90.608724 
L 444.000007 114.971236 
L 456.399982 143.947123 
L 468.799986 173.273499 
L 481.199998 198.854478 
L 493.600017 218.197383 
L 506.000019 230.498532 
" style="fill:none;stroke:#008000;stroke-linecap:square;"/>
    <defs>
     <path d="M 0 3 
C 0.795609 3 1.55874 2.683901 2.12132 2.12132 
C 2.683901 1.55874 3 0.795609 3 0 
C 3 -0.795609 2.683901 -1.55874 2.12132 -2.12132 
C 1.55874 -2.683901 0.795609 -3 0 -3 
C -0.795609 -3 -1.55874 -2.683901 -2.12132 -2.12132 
C -2.683901 -1.55874 -3 -0.795609 -3 0 
C -3 0.795609 -2.683901 1.55874 -2.12132 2.12132 
C -1.55874 2.683901 -0.795609 3 0 3 
z
" id="mc754ef41ef" style="stroke:#000000;stroke-width:0.5;"/>
    </defs>
    <g clip-path="url(#p206f6cfd97)">
     <use style="fill:#008000;stroke:#000000;stroke-width:0.5;" x="72.0000328045" xlink:href="#mc754ef41ef" y="234.962733015"/>
     <use style="fill:#008000;stroke:#000000;stroke-width:0.5;" x="84.4000431872" xlink:href="#mc754ef41ef" y="230.49503559"/>
     <use style="fill:#008000;stroke:#000000;stroke-width:0.5;" x="96.800035973" xlink:href="#mc754ef41ef" y="218.106192627"/>
     <use style="fill:#008000;stroke:#000000;stroke-width:0.5;" x="109.20003548" xlink:href="#mc754ef41ef" y="198.855384332"/>
     <use style="fill:#008000;stroke:#000000;stroke-width:0.5;" x="121.600034829" xlink:href="#mc754ef41ef" y="173.27664563"/>
     <use style="fill:#008000;stroke:#000000;stroke-width:0.5;" x="134.000037994" xlink:href="#mc754ef41ef" y="143.950456015"/>
     <use style="fill:#008000;stroke:#000000;stroke-width:0.5;" x="146.400026337" xlink:href="#mc754ef41ef" y="114.876237331"/>
     <use style="fill:#008000;stroke:#000000;stroke-width:0.5;" x="158.800017509" xlink:href="#mc754ef41ef" y="90.6084620796"/>
     <use style="fill:#008000;stroke:#000000;stroke-width:0.5;" x="171.200014616" xlink:href="#mc754ef41ef" y="75.5006706593"/>
     <use style="fill:#008000;stroke:#000000;stroke-width:0.5;" x="183.599992366" xlink:href="#mc754ef41ef" y="73.277921867"/>
     <use style="fill:#008000;stroke:#000000;stroke-width:0.5;" x="196.000045895" xlink:href="#mc754ef41ef" y="86.1298203201"/>
     <use style="fill:#008000;stroke:#000000;stroke-width:0.5;" x="208.40001989" xlink:href="#mc754ef41ef" y="114.027435211"/>
     <use style="fill:#008000;stroke:#000000;stroke-width:0.5;" x="220.800005809" xlink:href="#mc754ef41ef" y="154.713917696"/>
     <use style="fill:#008000;stroke:#000000;stroke-width:0.5;" x="233.19997179" xlink:href="#mc754ef41ef" y="204.575772827"/>
     <use style="fill:#008000;stroke:#000000;stroke-width:0.5;" x="245.600003674" xlink:href="#mc754ef41ef" y="258.105825646"/>
     <use style="fill:#008000;stroke:#000000;stroke-width:0.5;" x="257.999987356" xlink:href="#mc754ef41ef" y="308.786943379"/>
     <use style="fill:#008000;stroke:#000000;stroke-width:0.5;" x="270.399994657" xlink:href="#mc754ef41ef" y="351.101461991"/>
     <use style="fill:#008000;stroke:#000000;stroke-width:0.5;" x="282.799978289" xlink:href="#mc754ef41ef" y="379.235239401"/>
     <use style="fill:#008000;stroke:#000000;stroke-width:0.5;" x="295.199889068" xlink:href="#mc754ef41ef" y="388.8"/>
     <use style="fill:#008000;stroke:#000000;stroke-width:0.5;" x="307.599988023" xlink:href="#mc754ef41ef" y="379.234933856"/>
     <use style="fill:#008000;stroke:#000000;stroke-width:0.5;" x="319.999988498" xlink:href="#mc754ef41ef" y="351.102156396"/>
     <use style="fill:#008000;stroke:#000000;stroke-width:0.5;" x="332.399983692" xlink:href="#mc754ef41ef" y="308.786905515"/>
     <use style="fill:#008000;stroke:#000000;stroke-width:0.5;" x="344.79998411" xlink:href="#mc754ef41ef" y="258.106074222"/>
     <use style="fill:#008000;stroke:#000000;stroke-width:0.5;" x="357.199963632" xlink:href="#mc754ef41ef" y="204.576119747"/>
     <use style="fill:#008000;stroke:#000000;stroke-width:0.5;" x="369.5999823" xlink:href="#mc754ef41ef" y="154.714018978"/>
     <use style="fill:#008000;stroke:#000000;stroke-width:0.5;" x="381.999978881" xlink:href="#mc754ef41ef" y="114.027325528"/>
     <use style="fill:#008000;stroke:#000000;stroke-width:0.5;" x="394.399993496" xlink:href="#mc754ef41ef" y="86.1296141451"/>
     <use style="fill:#008000;stroke:#000000;stroke-width:0.5;" x="406.79996788" xlink:href="#mc754ef41ef" y="73.2779236739"/>
     <use style="fill:#008000;stroke:#000000;stroke-width:0.5;" x="419.199986077" xlink:href="#mc754ef41ef" y="75.4620842796"/>
     <use style="fill:#008000;stroke:#000000;stroke-width:0.5;" x="431.600012497" xlink:href="#mc754ef41ef" y="90.6087241458"/>
     <use style="fill:#008000;stroke:#000000;stroke-width:0.5;" x="444.000007434" xlink:href="#mc754ef41ef" y="114.971235691"/>
     <use style="fill:#008000;stroke:#000000;stroke-width:0.5;" x="456.399982383" xlink:href="#mc754ef41ef" y="143.947123023"/>
     <use style="fill:#008000;stroke:#000000;stroke-width:0.5;" x="468.799986471" xlink:href="#mc754ef41ef" y="173.273499301"/>
     <use style="fill:#008000;stroke:#000000;stroke-width:0.5;" x="481.199997511" xlink:href="#mc754ef41ef" y="198.854478304"/>
     <use style="fill:#008000;stroke:#000000;stroke-width:0.5;" x="493.600017459" xlink:href="#mc754ef41ef" y="218.197382871"/>
     <use style="fill:#008000;stroke:#000000;stroke-width:0.5;" x="506.000019005" xlink:href="#mc754ef41ef" y="230.498532055"/>
    </g>
   </g>
   <g id="patch_3">
    <path d="M 72 388.8 
L 72 43.2 
" style="fill:none;stroke:#000000;stroke-linecap:square;stroke-linejoin:miter;"/>
   </g>
   <g id="patch_4">
    <path d="M 72 43.2 
L 518.4 43.2 
" style="fill:none;stroke:#000000;stroke-linecap:square;stroke-linejoin:miter;"/>
   </g>
   <g id="patch_5">
    <path d="M 518.4 388.8 
L 518.4 43.2 
" style="fill:none;stroke:#000000;stroke-linecap:square;stroke-linejoin:miter;"/>
   </g>
   <g id="patch_6">
    <path d="M 72 388.8 
L 518.4 388.8 
" style="fill:none;stroke:#000000;stroke-linecap:square;stroke-linejoin:miter;"/>
   </g>
   <g id="matplotlib.axis_1">
    <g id="xtick_1">
     <g id="line2d_6">
      <defs>
       <path d="M 0 0 
L 0 -4 
" id="m71f00829b5" style="stroke:#000000;stroke-width:0.5;"/>
      </defs>
      <g>
       <use style="stroke:#000000;stroke-width:0.5;" x="72.0" xlink:href="#m71f00829b5" y="388.8"/>
      </g>
     </g>
     <g id="line2d_7">
      <defs>
       <path d="M 0 0 
L 0 4 
" id="mb326c357db" style="stroke:#000000;stroke-width:0.5;"/>
      </defs>
      <g>
       <use style="stroke:#000000;stroke-width:0.5;" x="72.0" xlink:href="#mb326c357db" y="43.2"/>
      </g>
     </g>
     <g id="text_1">
      <!-- −180 -->
      <defs>
       <path d="M 31.78125 34.625 
Q 24.75 34.625 20.71875 30.859375 
Q 16.703125 27.09375 16.703125 20.515625 
Q 16.703125 13.921875 20.71875 10.15625 
Q 24.75 6.390625 31.78125 6.390625 
Q 38.8125 6.390625 42.859375 10.171875 
Q 46.921875 13.96875 46.921875 20.515625 
Q 46.921875 27.09375 42.890625 30.859375 
Q 38.875 34.625 31.78125 34.625 
M 21.921875 38.8125 
Q 15.578125 40.375 12.03125 44.71875 
Q 8.5 49.078125 8.5 55.328125 
Q 8.5 64.0625 14.71875 69.140625 
Q 20.953125 74.21875 31.78125 74.21875 
Q 42.671875 74.21875 48.875 69.140625 
Q 55.078125 64.0625 55.078125 55.328125 
Q 55.078125 49.078125 51.53125 44.71875 
Q 48 40.375 41.703125 38.8125 
Q 48.828125 37.15625 52.796875 32.3125 
Q 56.78125 27.484375 56.78125 20.515625 
Q 56.78125 9.90625 50.3125 4.234375 
Q 43.84375 -1.421875 31.78125 -1.421875 
Q 19.734375 -1.421875 13.25 4.234375 
Q 6.78125 9.90625 6.78125 20.515625 
Q 6.78125 27.484375 10.78125 32.3125 
Q 14.796875 37.15625 21.921875 38.8125 
M 18.3125 54.390625 
Q 18.3125 48.734375 21.84375 45.5625 
Q 25.390625 42.390625 31.78125 42.390625 
Q 38.140625 42.390625 41.71875 45.5625 
Q 45.3125 48.734375 45.3125 54.390625 
Q 45.3125 60.0625 41.71875 63.234375 
Q 38.140625 66.40625 31.78125 66.40625 
Q 25.390625 66.40625 21.84375 63.234375 
Q 18.3125 60.0625 18.3125 54.390625 
" id="BitstreamVeraSans-Roman-38"/>
       <path d="M 10.59375 35.5 
L 73.1875 35.5 
L 73.1875 27.203125 
L 10.59375 27.203125 
z
" id="BitstreamVeraSans-Roman-2212"/>
       <path d="M 31.78125 66.40625 
Q 24.171875 66.40625 20.328125 58.90625 
Q 16.5 51.421875 16.5 36.375 
Q 16.5 21.390625 20.328125 13.890625 
Q 24.171875 6.390625 31.78125 6.390625 
Q 39.453125 6.390625 43.28125 13.890625 
Q 47.125 21.390625 47.125 36.375 
Q 47.125 51.421875 43.28125 58.90625 
Q 39.453125 66.40625 31.78125 66.40625 
M 31.78125 74.21875 
Q 44.046875 74.21875 50.515625 64.515625 
Q 56.984375 54.828125 56.984375 36.375 
Q 56.984375 17.96875 50.515625 8.265625 
Q 44.046875 -1.421875 31.78125 -1.421875 
Q 19.53125 -1.421875 13.0625 8.265625 
Q 6.59375 17.96875 6.59375 36.375 
Q 6.59375 54.828125 13.0625 64.515625 
Q 19.53125 74.21875 31.78125 74.21875 
" id="BitstreamVeraSans-Roman-30"/>
       <path d="M 12.40625 8.296875 
L 28.515625 8.296875 
L 28.515625 63.921875 
L 10.984375 60.40625 
L 10.984375 69.390625 
L 28.421875 72.90625 
L 38.28125 72.90625 
L 38.28125 8.296875 
L 54.390625 8.296875 
L 54.390625 0 
L 12.40625 0 
z
" id="BitstreamVeraSans-Roman-31"/>
      </defs>
      <g transform="translate(55.5196875 401.918125)scale(0.12 -0.12)">
       <use xlink:href="#BitstreamVeraSans-Roman-2212"/>
       <use x="83.7890625" xlink:href="#BitstreamVeraSans-Roman-31"/>
       <use x="147.412109375" xlink:href="#BitstreamVeraSans-Roman-38"/>
       <use x="211.03515625" xlink:href="#BitstreamVeraSans-Roman-30"/>
      </g>
     </g>
    </g>
    <g id="xtick_2">
     <g id="line2d_8">
      <g>
       <use style="stroke:#000000;stroke-width:0.5;" x="127.8" xlink:href="#m71f00829b5" y="388.8"/>
      </g>
     </g>
     <g id="line2d_9">
      <g>
       <use style="stroke:#000000;stroke-width:0.5;" x="127.8" xlink:href="#mb326c357db" y="43.2"/>
      </g>
     </g>
     <g id="text_2">
      <!-- −135 -->
      <defs>
       <path d="M 10.796875 72.90625 
L 49.515625 72.90625 
L 49.515625 64.59375 
L 19.828125 64.59375 
L 19.828125 46.734375 
Q 21.96875 47.46875 24.109375 47.828125 
Q 26.265625 48.1875 28.421875 48.1875 
Q 40.625 48.1875 47.75 41.5 
Q 54.890625 34.8125 54.890625 23.390625 
Q 54.890625 11.625 47.5625 5.09375 
Q 40.234375 -1.421875 26.90625 -1.421875 
Q 22.3125 -1.421875 17.546875 -0.640625 
Q 12.796875 0.140625 7.71875 1.703125 
L 7.71875 11.625 
Q 12.109375 9.234375 16.796875 8.0625 
Q 21.484375 6.890625 26.703125 6.890625 
Q 35.15625 6.890625 40.078125 11.328125 
Q 45.015625 15.765625 45.015625 23.390625 
Q 45.015625 31 40.078125 35.4375 
Q 35.15625 39.890625 26.703125 39.890625 
Q 22.75 39.890625 18.8125 39.015625 
Q 14.890625 38.140625 10.796875 36.28125 
z
" id="BitstreamVeraSans-Roman-35"/>
       <path d="M 40.578125 39.3125 
Q 47.65625 37.796875 51.625 33 
Q 55.609375 28.21875 55.609375 21.1875 
Q 55.609375 10.40625 48.1875 4.484375 
Q 40.765625 -1.421875 27.09375 -1.421875 
Q 22.515625 -1.421875 17.65625 -0.515625 
Q 12.796875 0.390625 7.625 2.203125 
L 7.625 11.71875 
Q 11.71875 9.328125 16.59375 8.109375 
Q 21.484375 6.890625 26.8125 6.890625 
Q 36.078125 6.890625 40.9375 10.546875 
Q 45.796875 14.203125 45.796875 21.1875 
Q 45.796875 27.640625 41.28125 31.265625 
Q 36.765625 34.90625 28.71875 34.90625 
L 20.21875 34.90625 
L 20.21875 43.015625 
L 29.109375 43.015625 
Q 36.375 43.015625 40.234375 45.921875 
Q 44.09375 48.828125 44.09375 54.296875 
Q 44.09375 59.90625 40.109375 62.90625 
Q 36.140625 65.921875 28.71875 65.921875 
Q 24.65625 65.921875 20.015625 65.03125 
Q 15.375 64.15625 9.8125 62.3125 
L 9.8125 71.09375 
Q 15.4375 72.65625 20.34375 73.4375 
Q 25.25 74.21875 29.59375 74.21875 
Q 40.828125 74.21875 47.359375 69.109375 
Q 53.90625 64.015625 53.90625 55.328125 
Q 53.90625 49.265625 50.4375 45.09375 
Q 46.96875 40.921875 40.578125 39.3125 
" id="BitstreamVeraSans-Roman-33"/>
      </defs>
      <g transform="translate(111.3196875 401.918125)scale(0.12 -0.12)">
       <use xlink:href="#BitstreamVeraSans-Roman-2212"/>
       <use x="83.7890625" xlink:href="#BitstreamVeraSans-Roman-31"/>
       <use x="147.412109375" xlink:href="#BitstreamVeraSans-Roman-33"/>
       <use x="211.03515625" xlink:href="#BitstreamVeraSans-Roman-35"/>
      </g>
     </g>
    </g>
    <g id="xtick_3">
     <g id="line2d_10">
      <g>
       <use style="stroke:#000000;stroke-width:0.5;" x="183.6" xlink:href="#m71f00829b5" y="388.8"/>
      </g>
     </g>
     <g id="line2d_11">
      <g>
       <use style="stroke:#000000;stroke-width:0.5;" x="183.6" xlink:href="#mb326c357db" y="43.2"/>
      </g>
     </g>
     <g id="text_3">
      <!-- −90 -->
      <defs>
       <path d="M 10.984375 1.515625 
L 10.984375 10.5 
Q 14.703125 8.734375 18.5 7.8125 
Q 22.3125 6.890625 25.984375 6.890625 
Q 35.75 6.890625 40.890625 13.453125 
Q 46.046875 20.015625 46.78125 33.40625 
Q 43.953125 29.203125 39.59375 26.953125 
Q 35.25 24.703125 29.984375 24.703125 
Q 19.046875 24.703125 12.671875 31.3125 
Q 6.296875 37.9375 6.296875 49.421875 
Q 6.296875 60.640625 12.9375 67.421875 
Q 19.578125 74.21875 30.609375 74.21875 
Q 43.265625 74.21875 49.921875 64.515625 
Q 56.59375 54.828125 56.59375 36.375 
Q 56.59375 19.140625 48.40625 8.859375 
Q 40.234375 -1.421875 26.421875 -1.421875 
Q 22.703125 -1.421875 18.890625 -0.6875 
Q 15.09375 0.046875 10.984375 1.515625 
M 30.609375 32.421875 
Q 37.25 32.421875 41.125 36.953125 
Q 45.015625 41.5 45.015625 49.421875 
Q 45.015625 57.28125 41.125 61.84375 
Q 37.25 66.40625 30.609375 66.40625 
Q 23.96875 66.40625 20.09375 61.84375 
Q 16.21875 57.28125 16.21875 49.421875 
Q 16.21875 41.5 20.09375 36.953125 
Q 23.96875 32.421875 30.609375 32.421875 
" id="BitstreamVeraSans-Roman-39"/>
      </defs>
      <g transform="translate(170.9371875 401.918125)scale(0.12 -0.12)">
       <use xlink:href="#BitstreamVeraSans-Roman-2212"/>
       <use x="83.7890625" xlink:href="#BitstreamVeraSans-Roman-39"/>
       <use x="147.412109375" xlink:href="#BitstreamVeraSans-Roman-30"/>
      </g>
     </g>
    </g>
    <g id="xtick_4">
     <g id="line2d_12">
      <g>
       <use style="stroke:#000000;stroke-width:0.5;" x="239.4" xlink:href="#m71f00829b5" y="388.8"/>
      </g>
     </g>
     <g id="line2d_13">
      <g>
       <use style="stroke:#000000;stroke-width:0.5;" x="239.4" xlink:href="#mb326c357db" y="43.2"/>
      </g>
     </g>
     <g id="text_4">
      <!-- −45 -->
      <defs>
       <path d="M 37.796875 64.3125 
L 12.890625 25.390625 
L 37.796875 25.390625 
z
M 35.203125 72.90625 
L 47.609375 72.90625 
L 47.609375 25.390625 
L 58.015625 25.390625 
L 58.015625 17.1875 
L 47.609375 17.1875 
L 47.609375 0 
L 37.796875 0 
L 37.796875 17.1875 
L 4.890625 17.1875 
L 4.890625 26.703125 
z
" id="BitstreamVeraSans-Roman-34"/>
      </defs>
      <g transform="translate(226.7371875 401.918125)scale(0.12 -0.12)">
       <use xlink:href="#BitstreamVeraSans-Roman-2212"/>
       <use x="83.7890625" xlink:href="#BitstreamVeraSans-Roman-34"/>
       <use x="147.412109375" xlink:href="#BitstreamVeraSans-Roman-35"/>
      </g>
     </g>
    </g>
    <g id="xtick_5">
     <g id="line2d_14">
      <g>
       <use style="stroke:#000000;stroke-width:0.5;" x="295.2" xlink:href="#m71f00829b5" y="388.8"/>
      </g>
     </g>
     <g id="line2d_15">
      <g>
       <use style="stroke:#000000;stroke-width:0.5;" x="295.2" xlink:href="#mb326c357db" y="43.2"/>
      </g>
     </g>
     <g id="text_5">
      <!-- 0 -->
      <g transform="translate(291.3825 401.918125)scale(0.12 -0.12)">
       <use xlink:href="#BitstreamVeraSans-Roman-30"/>
      </g>
     </g>
    </g>
    <g id="xtick_6">
     <g id="line2d_16">
      <g>
       <use style="stroke:#000000;stroke-width:0.5;" x="351.0" xlink:href="#m71f00829b5" y="388.8"/>
      </g>
     </g>
     <g id="line2d_17">
      <g>
       <use style="stroke:#000000;stroke-width:0.5;" x="351.0" xlink:href="#mb326c357db" y="43.2"/>
      </g>
     </g>
     <g id="text_6">
      <!-- 45 -->
      <g transform="translate(343.365 401.918125)scale(0.12 -0.12)">
       <use xlink:href="#BitstreamVeraSans-Roman-34"/>
       <use x="63.623046875" xlink:href="#BitstreamVeraSans-Roman-35"/>
      </g>
     </g>
    </g>
    <g id="xtick_7">
     <g id="line2d_18">
      <g>
       <use style="stroke:#000000;stroke-width:0.5;" x="406.8" xlink:href="#m71f00829b5" y="388.8"/>
      </g>
     </g>
     <g id="line2d_19">
      <g>
       <use style="stroke:#000000;stroke-width:0.5;" x="406.8" xlink:href="#mb326c357db" y="43.2"/>
      </g>
     </g>
     <g id="text_7">
      <!-- 90 -->
      <g transform="translate(399.165 401.918125)scale(0.12 -0.12)">
       <use xlink:href="#BitstreamVeraSans-Roman-39"/>
       <use x="63.623046875" xlink:href="#BitstreamVeraSans-Roman-30"/>
      </g>
     </g>
    </g>
    <g id="xtick_8">
     <g id="line2d_20">
      <g>
       <use style="stroke:#000000;stroke-width:0.5;" x="462.6" xlink:href="#m71f00829b5" y="388.8"/>
      </g>
     </g>
     <g id="line2d_21">
      <g>
       <use style="stroke:#000000;stroke-width:0.5;" x="462.6" xlink:href="#mb326c357db" y="43.2"/>
      </g>
     </g>
     <g id="text_8">
      <!-- 135 -->
      <g transform="translate(451.1475 401.918125)scale(0.12 -0.12)">
       <use xlink:href="#BitstreamVeraSans-Roman-31"/>
       <use x="63.623046875" xlink:href="#BitstreamVeraSans-Roman-33"/>
       <use x="127.24609375" xlink:href="#BitstreamVeraSans-Roman-35"/>
      </g>
     </g>
    </g>
    <g id="xtick_9">
     <g id="line2d_22">
      <g>
       <use style="stroke:#000000;stroke-width:0.5;" x="518.4" xlink:href="#m71f00829b5" y="388.8"/>
      </g>
     </g>
     <g id="line2d_23">
      <g>
       <use style="stroke:#000000;stroke-width:0.5;" x="518.4" xlink:href="#mb326c357db" y="43.2"/>
      </g>
     </g>
     <g id="text_9">
      <!-- 180 -->
      <g transform="translate(506.9475 401.918125)scale(0.12 -0.12)">
       <use xlink:href="#BitstreamVeraSans-Roman-31"/>
       <use x="63.623046875" xlink:href="#BitstreamVeraSans-Roman-38"/>
       <use x="127.24609375" xlink:href="#BitstreamVeraSans-Roman-30"/>
      </g>
     </g>
    </g>
    <g id="text_10">
     <!-- Phi -->
     <defs>
      <path d="M 9.421875 54.6875 
L 18.40625 54.6875 
L 18.40625 0 
L 9.421875 0 
z
M 9.421875 75.984375 
L 18.40625 75.984375 
L 18.40625 64.59375 
L 9.421875 64.59375 
z
" id="BitstreamVeraSans-Roman-69"/>
      <path d="M 19.671875 64.796875 
L 19.671875 37.40625 
L 32.078125 37.40625 
Q 38.96875 37.40625 42.71875 40.96875 
Q 46.484375 44.53125 46.484375 51.125 
Q 46.484375 57.671875 42.71875 61.234375 
Q 38.96875 64.796875 32.078125 64.796875 
z
M 9.8125 72.90625 
L 32.078125 72.90625 
Q 44.34375 72.90625 50.609375 67.359375 
Q 56.890625 61.8125 56.890625 51.125 
Q 56.890625 40.328125 50.609375 34.8125 
Q 44.34375 29.296875 32.078125 29.296875 
L 19.671875 29.296875 
L 19.671875 0 
L 9.8125 0 
z
" id="BitstreamVeraSans-Roman-50"/>
      <path d="M 54.890625 33.015625 
L 54.890625 0 
L 45.90625 0 
L 45.90625 32.71875 
Q 45.90625 40.484375 42.875 44.328125 
Q 39.84375 48.1875 33.796875 48.1875 
Q 26.515625 48.1875 22.3125 43.546875 
Q 18.109375 38.921875 18.109375 30.90625 
L 18.109375 0 
L 9.078125 0 
L 9.078125 75.984375 
L 18.109375 75.984375 
L 18.109375 46.1875 
Q 21.34375 51.125 25.703125 53.5625 
Q 30.078125 56 35.796875 56 
Q 45.21875 56 50.046875 50.171875 
Q 54.890625 44.34375 54.890625 33.015625 
" id="BitstreamVeraSans-Roman-68"/>
     </defs>
     <g transform="translate(286.1128125 418.531875)scale(0.12 -0.12)">
      <use xlink:href="#BitstreamVeraSans-Roman-50"/>
      <use x="60.302734375" xlink:href="#BitstreamVeraSans-Roman-68"/>
      <use x="123.681640625" xlink:href="#BitstreamVeraSans-Roman-69"/>
     </g>
    </g>
   </g>
   <g id="matplotlib.axis_2">
    <g id="ytick_1">
     <g id="line2d_24">
      <defs>
       <path d="M 0 0 
L 4 0 
" id="m72013adf0a" style="stroke:#000000;stroke-width:0.5;"/>
      </defs>
      <g>
       <use style="stroke:#000000;stroke-width:0.5;" x="72.0" xlink:href="#m72013adf0a" y="388.8"/>
      </g>
     </g>
     <g id="line2d_25">
      <defs>
       <path d="M 0 0 
L -4 0 
" id="m8d55667738" style="stroke:#000000;stroke-width:0.5;"/>
      </defs>
      <g>
       <use style="stroke:#000000;stroke-width:0.5;" x="518.4" xlink:href="#m8d55667738" y="388.8"/>
      </g>
     </g>
     <g id="text_11">
      <!-- 0 -->
      <g transform="translate(60.365 392.11125)scale(0.12 -0.12)">
       <use xlink:href="#BitstreamVeraSans-Roman-30"/>
      </g>
     </g>
    </g>
    <g id="ytick_2">
     <g id="line2d_26">
      <g>
       <use style="stroke:#000000;stroke-width:0.5;" x="72.0" xlink:href="#m72013adf0a" y="339.428571429"/>
      </g>
     </g>
     <g id="line2d_27">
      <g>
       <use style="stroke:#000000;stroke-width:0.5;" x="518.4" xlink:href="#m8d55667738" y="339.428571429"/>
      </g>
     </g>
     <g id="text_12">
      <!-- 2 -->
      <defs>
       <path d="M 19.1875 8.296875 
L 53.609375 8.296875 
L 53.609375 0 
L 7.328125 0 
L 7.328125 8.296875 
Q 12.9375 14.109375 22.625 23.890625 
Q 32.328125 33.6875 34.8125 36.53125 
Q 39.546875 41.84375 41.421875 45.53125 
Q 43.3125 49.21875 43.3125 52.78125 
Q 43.3125 58.59375 39.234375 62.25 
Q 35.15625 65.921875 28.609375 65.921875 
Q 23.96875 65.921875 18.8125 64.3125 
Q 13.671875 62.703125 7.8125 59.421875 
L 7.8125 69.390625 
Q 13.765625 71.78125 18.9375 73 
Q 24.125 74.21875 28.421875 74.21875 
Q 39.75 74.21875 46.484375 68.546875 
Q 53.21875 62.890625 53.21875 53.421875 
Q 53.21875 48.921875 51.53125 44.890625 
Q 49.859375 40.875 45.40625 35.40625 
Q 44.1875 33.984375 37.640625 27.21875 
Q 31.109375 20.453125 19.1875 8.296875 
" id="BitstreamVeraSans-Roman-32"/>
      </defs>
      <g transform="translate(60.365 342.739821429)scale(0.12 -0.12)">
       <use xlink:href="#BitstreamVeraSans-Roman-32"/>
      </g>
     </g>
    </g>
    <g id="ytick_3">
     <g id="line2d_28">
      <g>
       <use style="stroke:#000000;stroke-width:0.5;" x="72.0" xlink:href="#m72013adf0a" y="290.057142857"/>
      </g>
     </g>
     <g id="line2d_29">
      <g>
       <use style="stroke:#000000;stroke-width:0.5;" x="518.4" xlink:href="#m8d55667738" y="290.057142857"/>
      </g>
     </g>
     <g id="text_13">
      <!-- 4 -->
      <g transform="translate(60.365 293.368392857)scale(0.12 -0.12)">
       <use xlink:href="#BitstreamVeraSans-Roman-34"/>
      </g>
     </g>
    </g>
    <g id="ytick_4">
     <g id="line2d_30">
      <g>
       <use style="stroke:#000000;stroke-width:0.5;" x="72.0" xlink:href="#m72013adf0a" y="240.685714286"/>
      </g>
     </g>
     <g id="line2d_31">
      <g>
       <use style="stroke:#000000;stroke-width:0.5;" x="518.4" xlink:href="#m8d55667738" y="240.685714286"/>
      </g>
     </g>
     <g id="text_14">
      <!-- 6 -->
      <defs>
       <path d="M 33.015625 40.375 
Q 26.375 40.375 22.484375 35.828125 
Q 18.609375 31.296875 18.609375 23.390625 
Q 18.609375 15.53125 22.484375 10.953125 
Q 26.375 6.390625 33.015625 6.390625 
Q 39.65625 6.390625 43.53125 10.953125 
Q 47.40625 15.53125 47.40625 23.390625 
Q 47.40625 31.296875 43.53125 35.828125 
Q 39.65625 40.375 33.015625 40.375 
M 52.59375 71.296875 
L 52.59375 62.3125 
Q 48.875 64.0625 45.09375 64.984375 
Q 41.3125 65.921875 37.59375 65.921875 
Q 27.828125 65.921875 22.671875 59.328125 
Q 17.53125 52.734375 16.796875 39.40625 
Q 19.671875 43.65625 24.015625 45.921875 
Q 28.375 48.1875 33.59375 48.1875 
Q 44.578125 48.1875 50.953125 41.515625 
Q 57.328125 34.859375 57.328125 23.390625 
Q 57.328125 12.15625 50.6875 5.359375 
Q 44.046875 -1.421875 33.015625 -1.421875 
Q 20.359375 -1.421875 13.671875 8.265625 
Q 6.984375 17.96875 6.984375 36.375 
Q 6.984375 53.65625 15.1875 63.9375 
Q 23.390625 74.21875 37.203125 74.21875 
Q 40.921875 74.21875 44.703125 73.484375 
Q 48.484375 72.75 52.59375 71.296875 
" id="BitstreamVeraSans-Roman-36"/>
      </defs>
      <g transform="translate(60.365 243.996964286)scale(0.12 -0.12)">
       <use xlink:href="#BitstreamVeraSans-Roman-36"/>
      </g>
     </g>
    </g>
    <g id="ytick_5">
     <g id="line2d_32">
      <g>
       <use style="stroke:#000000;stroke-width:0.5;" x="72.0" xlink:href="#m72013adf0a" y="191.314285714"/>
      </g>
     </g>
     <g id="line2d_33">
      <g>
       <use style="stroke:#000000;stroke-width:0.5;" x="518.4" xlink:href="#m8d55667738" y="191.314285714"/>
      </g>
     </g>
     <g id="text_15">
      <!-- 8 -->
      <g transform="translate(60.365 194.625535714)scale(0.12 -0.12)">
       <use xlink:href="#BitstreamVeraSans-Roman-38"/>
      </g>
     </g>
    </g>
    <g id="ytick_6">
     <g id="line2d_34">
      <g>
       <use style="stroke:#000000;stroke-width:0.5;" x="72.0" xlink:href="#m72013adf0a" y="141.942857143"/>
      </g>
     </g>
     <g id="line2d_35">
      <g>
       <use style="stroke:#000000;stroke-width:0.5;" x="518.4" xlink:href="#m8d55667738" y="141.942857143"/>
      </g>
     </g>
     <g id="text_16">
      <!-- 10 -->
      <g transform="translate(52.73 145.254107143)scale(0.12 -0.12)">
       <use xlink:href="#BitstreamVeraSans-Roman-31"/>
       <use x="63.623046875" xlink:href="#BitstreamVeraSans-Roman-30"/>
      </g>
     </g>
    </g>
    <g id="ytick_7">
     <g id="line2d_36">
      <g>
       <use style="stroke:#000000;stroke-width:0.5;" x="72.0" xlink:href="#m72013adf0a" y="92.5714285714"/>
      </g>
     </g>
     <g id="line2d_37">
      <g>
       <use style="stroke:#000000;stroke-width:0.5;" x="518.4" xlink:href="#m8d55667738" y="92.5714285714"/>
      </g>
     </g>
     <g id="text_17">
      <!-- 12 -->
      <g transform="translate(52.73 95.8826785714)scale(0.12 -0.12)">
       <use xlink:href="#BitstreamVeraSans-Roman-31"/>
       <use x="63.623046875" xlink:href="#BitstreamVeraSans-Roman-32"/>
      </g>
     </g>
    </g>
    <g id="ytick_8">
     <g id="line2d_38">
      <g>
       <use style="stroke:#000000;stroke-width:0.5;" x="72.0" xlink:href="#m72013adf0a" y="43.2"/>
      </g>
     </g>
     <g id="line2d_39">
      <g>
       <use style="stroke:#000000;stroke-width:0.5;" x="518.4" xlink:href="#m8d55667738" y="43.2"/>
      </g>
     </g>
     <g id="text_18">
      <!-- 14 -->
      <g transform="translate(52.73 46.51125)scale(0.12 -0.12)">
       <use xlink:href="#BitstreamVeraSans-Roman-31"/>
       <use x="63.623046875" xlink:href="#BitstreamVeraSans-Roman-34"/>
      </g>
     </g>
    </g>
    <g id="text_19">
     <!-- kcal/mol -->
     <defs>
      <path d="M 52 44.1875 
Q 55.375 50.25 60.0625 53.125 
Q 64.75 56 71.09375 56 
Q 79.640625 56 84.28125 50.015625 
Q 88.921875 44.046875 88.921875 33.015625 
L 88.921875 0 
L 79.890625 0 
L 79.890625 32.71875 
Q 79.890625 40.578125 77.09375 44.375 
Q 74.3125 48.1875 68.609375 48.1875 
Q 61.625 48.1875 57.5625 43.546875 
Q 53.515625 38.921875 53.515625 30.90625 
L 53.515625 0 
L 44.484375 0 
L 44.484375 32.71875 
Q 44.484375 40.625 41.703125 44.40625 
Q 38.921875 48.1875 33.109375 48.1875 
Q 26.21875 48.1875 22.15625 43.53125 
Q 18.109375 38.875 18.109375 30.90625 
L 18.109375 0 
L 9.078125 0 
L 9.078125 54.6875 
L 18.109375 54.6875 
L 18.109375 46.1875 
Q 21.1875 51.21875 25.484375 53.609375 
Q 29.78125 56 35.6875 56 
Q 41.65625 56 45.828125 52.96875 
Q 50 49.953125 52 44.1875 
" id="BitstreamVeraSans-Roman-6d"/>
      <path d="M 25.390625 72.90625 
L 33.6875 72.90625 
L 8.296875 -9.28125 
L 0 -9.28125 
z
" id="BitstreamVeraSans-Roman-2f"/>
      <path d="M 9.421875 75.984375 
L 18.40625 75.984375 
L 18.40625 0 
L 9.421875 0 
z
" id="BitstreamVeraSans-Roman-6c"/>
      <path d="M 30.609375 48.390625 
Q 23.390625 48.390625 19.1875 42.75 
Q 14.984375 37.109375 14.984375 27.296875 
Q 14.984375 17.484375 19.15625 11.84375 
Q 23.34375 6.203125 30.609375 6.203125 
Q 37.796875 6.203125 41.984375 11.859375 
Q 46.1875 17.53125 46.1875 27.296875 
Q 46.1875 37.015625 41.984375 42.703125 
Q 37.796875 48.390625 30.609375 48.390625 
M 30.609375 56 
Q 42.328125 56 49.015625 48.375 
Q 55.71875 40.765625 55.71875 27.296875 
Q 55.71875 13.875 49.015625 6.21875 
Q 42.328125 -1.421875 30.609375 -1.421875 
Q 18.84375 -1.421875 12.171875 6.21875 
Q 5.515625 13.875 5.515625 27.296875 
Q 5.515625 40.765625 12.171875 48.375 
Q 18.84375 56 30.609375 56 
" id="BitstreamVeraSans-Roman-6f"/>
      <path d="M 34.28125 27.484375 
Q 23.390625 27.484375 19.1875 25 
Q 14.984375 22.515625 14.984375 16.5 
Q 14.984375 11.71875 18.140625 8.90625 
Q 21.296875 6.109375 26.703125 6.109375 
Q 34.1875 6.109375 38.703125 11.40625 
Q 43.21875 16.703125 43.21875 25.484375 
L 43.21875 27.484375 
z
M 52.203125 31.203125 
L 52.203125 0 
L 43.21875 0 
L 43.21875 8.296875 
Q 40.140625 3.328125 35.546875 0.953125 
Q 30.953125 -1.421875 24.3125 -1.421875 
Q 15.921875 -1.421875 10.953125 3.296875 
Q 6 8.015625 6 15.921875 
Q 6 25.140625 12.171875 29.828125 
Q 18.359375 34.515625 30.609375 34.515625 
L 43.21875 34.515625 
L 43.21875 35.40625 
Q 43.21875 41.609375 39.140625 45 
Q 35.0625 48.390625 27.6875 48.390625 
Q 23 48.390625 18.546875 47.265625 
Q 14.109375 46.140625 10.015625 43.890625 
L 10.015625 52.203125 
Q 14.9375 54.109375 19.578125 55.046875 
Q 24.21875 56 28.609375 56 
Q 40.484375 56 46.34375 49.84375 
Q 52.203125 43.703125 52.203125 31.203125 
" id="BitstreamVeraSans-Roman-61"/>
      <path d="M 48.78125 52.59375 
L 48.78125 44.1875 
Q 44.96875 46.296875 41.140625 47.34375 
Q 37.3125 48.390625 33.40625 48.390625 
Q 24.65625 48.390625 19.8125 42.84375 
Q 14.984375 37.3125 14.984375 27.296875 
Q 14.984375 17.28125 19.8125 11.734375 
Q 24.65625 6.203125 33.40625 6.203125 
Q 37.3125 6.203125 41.140625 7.25 
Q 44.96875 8.296875 48.78125 10.40625 
L 48.78125 2.09375 
Q 45.015625 0.34375 40.984375 -0.53125 
Q 36.96875 -1.421875 32.421875 -1.421875 
Q 20.0625 -1.421875 12.78125 6.34375 
Q 5.515625 14.109375 5.515625 27.296875 
Q 5.515625 40.671875 12.859375 48.328125 
Q 20.21875 56 33.015625 56 
Q 37.15625 56 41.109375 55.140625 
Q 45.0625 54.296875 48.78125 52.59375 
" id="BitstreamVeraSans-Roman-63"/>
      <path d="M 9.078125 75.984375 
L 18.109375 75.984375 
L 18.109375 31.109375 
L 44.921875 54.6875 
L 56.390625 54.6875 
L 27.390625 29.109375 
L 57.625 0 
L 45.90625 0 
L 18.109375 26.703125 
L 18.109375 0 
L 9.078125 0 
z
" id="BitstreamVeraSans-Roman-6b"/>
     </defs>
     <g transform="translate(45.234375 241.3209375)rotate(-90.0)scale(0.12 -0.12)">
      <use xlink:href="#BitstreamVeraSans-Roman-6b"/>
      <use x="57.91015625" xlink:href="#BitstreamVeraSans-Roman-63"/>
      <use x="112.890625" xlink:href="#BitstreamVeraSans-Roman-61"/>
      <use x="174.169921875" xlink:href="#BitstreamVeraSans-Roman-6c"/>
      <use x="201.953125" xlink:href="#BitstreamVeraSans-Roman-2f"/>
      <use x="235.64453125" xlink:href="#BitstreamVeraSans-Roman-6d"/>
      <use x="333.056640625" xlink:href="#BitstreamVeraSans-Roman-6f"/>
      <use x="394.23828125" xlink:href="#BitstreamVeraSans-Roman-6c"/>
     </g>
    </g>
   </g>
   <g id="text_20">
    <!-- C1-O1-C2-O2 -->
    <defs>
     <path d="M 64.40625 67.28125 
L 64.40625 56.890625 
Q 59.421875 61.53125 53.78125 63.8125 
Q 48.140625 66.109375 41.796875 66.109375 
Q 29.296875 66.109375 22.65625 58.46875 
Q 16.015625 50.828125 16.015625 36.375 
Q 16.015625 21.96875 22.65625 14.328125 
Q 29.296875 6.6875 41.796875 6.6875 
Q 48.140625 6.6875 53.78125 8.984375 
Q 59.421875 11.28125 64.40625 15.921875 
L 64.40625 5.609375 
Q 59.234375 2.09375 53.4375 0.328125 
Q 47.65625 -1.421875 41.21875 -1.421875 
Q 24.65625 -1.421875 15.125 8.703125 
Q 5.609375 18.84375 5.609375 36.375 
Q 5.609375 53.953125 15.125 64.078125 
Q 24.65625 74.21875 41.21875 74.21875 
Q 47.75 74.21875 53.53125 72.484375 
Q 59.328125 70.75 64.40625 67.28125 
" id="BitstreamVeraSans-Roman-43"/>
     <path d="M 4.890625 31.390625 
L 31.203125 31.390625 
L 31.203125 23.390625 
L 4.890625 23.390625 
z
" id="BitstreamVeraSans-Roman-2d"/>
     <path d="M 39.40625 66.21875 
Q 28.65625 66.21875 22.328125 58.203125 
Q 16.015625 50.203125 16.015625 36.375 
Q 16.015625 22.609375 22.328125 14.59375 
Q 28.65625 6.59375 39.40625 6.59375 
Q 50.140625 6.59375 56.421875 14.59375 
Q 62.703125 22.609375 62.703125 36.375 
Q 62.703125 50.203125 56.421875 58.203125 
Q 50.140625 66.21875 39.40625 66.21875 
M 39.40625 74.21875 
Q 54.734375 74.21875 63.90625 63.9375 
Q 73.09375 53.65625 73.09375 36.375 
Q 73.09375 19.140625 63.90625 8.859375 
Q 54.734375 -1.421875 39.40625 -1.421875 
Q 24.03125 -1.421875 14.8125 8.828125 
Q 5.609375 19.09375 5.609375 36.375 
Q 5.609375 53.65625 14.8125 63.9375 
Q 24.03125 74.21875 39.40625 74.21875 
" id="BitstreamVeraSans-Roman-4f"/>
    </defs>
    <g transform="translate(247.687875 38.2)scale(0.144 -0.144)">
     <use xlink:href="#BitstreamVeraSans-Roman-43"/>
     <use x="69.82421875" xlink:href="#BitstreamVeraSans-Roman-31"/>
     <use x="133.447265625" xlink:href="#BitstreamVeraSans-Roman-2d"/>
     <use x="169.5625" xlink:href="#BitstreamVeraSans-Roman-4f"/>
     <use x="248.2734375" xlink:href="#BitstreamVeraSans-Roman-31"/>
     <use x="311.896484375" xlink:href="#BitstreamVeraSans-Roman-2d"/>
     <use x="347.98046875" xlink:href="#BitstreamVeraSans-Roman-43"/>
     <use x="417.8046875" xlink:href="#BitstreamVeraSans-Roman-32"/>
     <use x="481.427734375" xlink:href="#BitstreamVeraSans-Roman-2d"/>
     <use x="517.54296875" xlink:href="#BitstreamVeraSans-Roman-4f"/>
     <use x="596.25390625" xlink:href="#BitstreamVeraSans-Roman-32"/>
    </g>
   </g>
   <g id="legend_1">
    <g id="patch_7">
     <path d="M 406.15625 108.3125 
L 514.4 108.3125 
L 514.4 47.2 
L 406.15625 47.2 
z
" style="fill:#ffffff;stroke:#000000;stroke-linejoin:miter;"/>
    </g>
    <g id="line2d_40">
     <path d="M 411.75625 53.67875 
L 422.95625 53.67875 
" style="fill:none;stroke:#ff0000;stroke-linecap:square;"/>
    </g>
    <g id="line2d_41">
     <g>
      <use style="fill:#ff0000;stroke:#000000;stroke-width:0.5;" x="411.75625" xlink:href="#m4c6224dd8a" y="53.67875"/>
      <use style="fill:#ff0000;stroke:#000000;stroke-width:0.5;" x="422.95625" xlink:href="#m4c6224dd8a" y="53.67875"/>
     </g>
    </g>
    <g id="text_21">
     <!-- QM -->
     <defs>
      <path d="M 39.40625 66.21875 
Q 28.65625 66.21875 22.328125 58.203125 
Q 16.015625 50.203125 16.015625 36.375 
Q 16.015625 22.609375 22.328125 14.59375 
Q 28.65625 6.59375 39.40625 6.59375 
Q 50.140625 6.59375 56.421875 14.59375 
Q 62.703125 22.609375 62.703125 36.375 
Q 62.703125 50.203125 56.421875 58.203125 
Q 50.140625 66.21875 39.40625 66.21875 
M 53.21875 1.3125 
L 66.21875 -12.890625 
L 54.296875 -12.890625 
L 43.5 -1.21875 
Q 41.890625 -1.3125 41.03125 -1.359375 
Q 40.1875 -1.421875 39.40625 -1.421875 
Q 24.03125 -1.421875 14.8125 8.859375 
Q 5.609375 19.140625 5.609375 36.375 
Q 5.609375 53.65625 14.8125 63.9375 
Q 24.03125 74.21875 39.40625 74.21875 
Q 54.734375 74.21875 63.90625 63.9375 
Q 73.09375 53.65625 73.09375 36.375 
Q 73.09375 23.6875 67.984375 14.640625 
Q 62.890625 5.609375 53.21875 1.3125 
" id="BitstreamVeraSans-Roman-51"/>
      <path d="M 9.8125 72.90625 
L 24.515625 72.90625 
L 43.109375 23.296875 
L 61.8125 72.90625 
L 76.515625 72.90625 
L 76.515625 0 
L 66.890625 0 
L 66.890625 64.015625 
L 48.09375 14.015625 
L 38.1875 14.015625 
L 19.390625 64.015625 
L 19.390625 0 
L 9.8125 0 
z
" id="BitstreamVeraSans-Roman-4d"/>
     </defs>
     <g transform="translate(431.75625 56.47875)scale(0.08 -0.08)">
      <use xlink:href="#BitstreamVeraSans-Roman-51"/>
      <use x="78.7109375" xlink:href="#BitstreamVeraSans-Roman-4d"/>
     </g>
    </g>
    <g id="line2d_42">
     <path d="M 411.75625 65.42125 
L 422.95625 65.42125 
" style="fill:none;stroke:#0000ff;stroke-linecap:square;"/>
    </g>
    <g id="line2d_43">
     <g>
      <use style="fill:#0000ff;stroke:#000000;stroke-width:0.5;" x="411.75625" xlink:href="#ma8f2a8755e" y="65.42125"/>
      <use style="fill:#0000ff;stroke:#000000;stroke-width:0.5;" x="422.95625" xlink:href="#ma8f2a8755e" y="65.42125"/>
     </g>
    </g>
    <g id="text_22">
     <!-- MM Original -->
     <defs>
      <path d="M 41.109375 46.296875 
Q 39.59375 47.171875 37.8125 47.578125 
Q 36.03125 48 33.890625 48 
Q 26.265625 48 22.1875 43.046875 
Q 18.109375 38.09375 18.109375 28.8125 
L 18.109375 0 
L 9.078125 0 
L 9.078125 54.6875 
L 18.109375 54.6875 
L 18.109375 46.1875 
Q 20.953125 51.171875 25.484375 53.578125 
Q 30.03125 56 36.53125 56 
Q 37.453125 56 38.578125 55.875 
Q 39.703125 55.765625 41.0625 55.515625 
z
" id="BitstreamVeraSans-Roman-72"/>
      <path d="M 45.40625 27.984375 
Q 45.40625 37.75 41.375 43.109375 
Q 37.359375 48.484375 30.078125 48.484375 
Q 22.859375 48.484375 18.828125 43.109375 
Q 14.796875 37.75 14.796875 27.984375 
Q 14.796875 18.265625 18.828125 12.890625 
Q 22.859375 7.515625 30.078125 7.515625 
Q 37.359375 7.515625 41.375 12.890625 
Q 45.40625 18.265625 45.40625 27.984375 
M 54.390625 6.78125 
Q 54.390625 -7.171875 48.1875 -13.984375 
Q 42 -20.796875 29.203125 -20.796875 
Q 24.46875 -20.796875 20.265625 -20.09375 
Q 16.0625 -19.390625 12.109375 -17.921875 
L 12.109375 -9.1875 
Q 16.0625 -11.328125 19.921875 -12.34375 
Q 23.78125 -13.375 27.78125 -13.375 
Q 36.625 -13.375 41.015625 -8.765625 
Q 45.40625 -4.15625 45.40625 5.171875 
L 45.40625 9.625 
Q 42.625 4.78125 38.28125 2.390625 
Q 33.9375 0 27.875 0 
Q 17.828125 0 11.671875 7.65625 
Q 5.515625 15.328125 5.515625 27.984375 
Q 5.515625 40.671875 11.671875 48.328125 
Q 17.828125 56 27.875 56 
Q 33.9375 56 38.28125 53.609375 
Q 42.625 51.21875 45.40625 46.390625 
L 45.40625 54.6875 
L 54.390625 54.6875 
z
" id="BitstreamVeraSans-Roman-67"/>
      <path d="M 54.890625 33.015625 
L 54.890625 0 
L 45.90625 0 
L 45.90625 32.71875 
Q 45.90625 40.484375 42.875 44.328125 
Q 39.84375 48.1875 33.796875 48.1875 
Q 26.515625 48.1875 22.3125 43.546875 
Q 18.109375 38.921875 18.109375 30.90625 
L 18.109375 0 
L 9.078125 0 
L 9.078125 54.6875 
L 18.109375 54.6875 
L 18.109375 46.1875 
Q 21.34375 51.125 25.703125 53.5625 
Q 30.078125 56 35.796875 56 
Q 45.21875 56 50.046875 50.171875 
Q 54.890625 44.34375 54.890625 33.015625 
" id="BitstreamVeraSans-Roman-6e"/>
      <path id="BitstreamVeraSans-Roman-20"/>
     </defs>
     <g transform="translate(431.75625 68.22125)scale(0.08 -0.08)">
      <use xlink:href="#BitstreamVeraSans-Roman-4d"/>
      <use x="86.279296875" xlink:href="#BitstreamVeraSans-Roman-4d"/>
      <use x="172.55859375" xlink:href="#BitstreamVeraSans-Roman-20"/>
      <use x="204.345703125" xlink:href="#BitstreamVeraSans-Roman-4f"/>
      <use x="283.056640625" xlink:href="#BitstreamVeraSans-Roman-72"/>
      <use x="324.169921875" xlink:href="#BitstreamVeraSans-Roman-69"/>
      <use x="351.953125" xlink:href="#BitstreamVeraSans-Roman-67"/>
      <use x="415.4296875" xlink:href="#BitstreamVeraSans-Roman-69"/>
      <use x="443.212890625" xlink:href="#BitstreamVeraSans-Roman-6e"/>
      <use x="506.591796875" xlink:href="#BitstreamVeraSans-Roman-61"/>
      <use x="567.87109375" xlink:href="#BitstreamVeraSans-Roman-6c"/>
     </g>
    </g>
    <g id="line2d_44">
     <path d="M 411.75625 77.16375 
L 422.95625 77.16375 
" style="fill:none;stroke:#000000;stroke-linecap:square;"/>
    </g>
    <g id="line2d_45">
     <g>
      <use style="stroke:#000000;stroke-width:0.5;" x="411.75625" xlink:href="#m20104d07bc" y="77.16375"/>
      <use style="stroke:#000000;stroke-width:0.5;" x="422.95625" xlink:href="#m20104d07bc" y="77.16375"/>
     </g>
    </g>
    <g id="text_23">
     <!-- MM With phi zeroed -->
     <defs>
      <path d="M 18.109375 8.203125 
L 18.109375 -20.796875 
L 9.078125 -20.796875 
L 9.078125 54.6875 
L 18.109375 54.6875 
L 18.109375 46.390625 
Q 20.953125 51.265625 25.265625 53.625 
Q 29.59375 56 35.59375 56 
Q 45.5625 56 51.78125 48.09375 
Q 58.015625 40.1875 58.015625 27.296875 
Q 58.015625 14.40625 51.78125 6.484375 
Q 45.5625 -1.421875 35.59375 -1.421875 
Q 29.59375 -1.421875 25.265625 0.953125 
Q 20.953125 3.328125 18.109375 8.203125 
M 48.6875 27.296875 
Q 48.6875 37.203125 44.609375 42.84375 
Q 40.53125 48.484375 33.40625 48.484375 
Q 26.265625 48.484375 22.1875 42.84375 
Q 18.109375 37.203125 18.109375 27.296875 
Q 18.109375 17.390625 22.1875 11.75 
Q 26.265625 6.109375 33.40625 6.109375 
Q 40.53125 6.109375 44.609375 11.75 
Q 48.6875 17.390625 48.6875 27.296875 
" id="BitstreamVeraSans-Roman-70"/>
      <path d="M 18.3125 70.21875 
L 18.3125 54.6875 
L 36.8125 54.6875 
L 36.8125 47.703125 
L 18.3125 47.703125 
L 18.3125 18.015625 
Q 18.3125 11.328125 20.140625 9.421875 
Q 21.96875 7.515625 27.59375 7.515625 
L 36.8125 7.515625 
L 36.8125 0 
L 27.59375 0 
Q 17.1875 0 13.234375 3.875 
Q 9.28125 7.765625 9.28125 18.015625 
L 9.28125 47.703125 
L 2.6875 47.703125 
L 2.6875 54.6875 
L 9.28125 54.6875 
L 9.28125 70.21875 
z
" id="BitstreamVeraSans-Roman-74"/>
      <path d="M 5.515625 54.6875 
L 48.1875 54.6875 
L 48.1875 46.484375 
L 14.40625 7.171875 
L 48.1875 7.171875 
L 48.1875 0 
L 4.296875 0 
L 4.296875 8.203125 
L 38.09375 47.515625 
L 5.515625 47.515625 
z
" id="BitstreamVeraSans-Roman-7a"/>
      <path d="M 56.203125 29.59375 
L 56.203125 25.203125 
L 14.890625 25.203125 
Q 15.484375 15.921875 20.484375 11.0625 
Q 25.484375 6.203125 34.421875 6.203125 
Q 39.59375 6.203125 44.453125 7.46875 
Q 49.3125 8.734375 54.109375 11.28125 
L 54.109375 2.78125 
Q 49.265625 0.734375 44.1875 -0.34375 
Q 39.109375 -1.421875 33.890625 -1.421875 
Q 20.796875 -1.421875 13.15625 6.1875 
Q 5.515625 13.8125 5.515625 26.8125 
Q 5.515625 40.234375 12.765625 48.109375 
Q 20.015625 56 32.328125 56 
Q 43.359375 56 49.78125 48.890625 
Q 56.203125 41.796875 56.203125 29.59375 
M 47.21875 32.234375 
Q 47.125 39.59375 43.09375 43.984375 
Q 39.0625 48.390625 32.421875 48.390625 
Q 24.90625 48.390625 20.390625 44.140625 
Q 15.875 39.890625 15.1875 32.171875 
z
" id="BitstreamVeraSans-Roman-65"/>
      <path d="M 3.328125 72.90625 
L 13.28125 72.90625 
L 28.609375 11.28125 
L 43.890625 72.90625 
L 54.984375 72.90625 
L 70.3125 11.28125 
L 85.59375 72.90625 
L 95.609375 72.90625 
L 77.296875 0 
L 64.890625 0 
L 49.515625 63.28125 
L 33.984375 0 
L 21.578125 0 
z
" id="BitstreamVeraSans-Roman-57"/>
      <path d="M 45.40625 46.390625 
L 45.40625 75.984375 
L 54.390625 75.984375 
L 54.390625 0 
L 45.40625 0 
L 45.40625 8.203125 
Q 42.578125 3.328125 38.25 0.953125 
Q 33.9375 -1.421875 27.875 -1.421875 
Q 17.96875 -1.421875 11.734375 6.484375 
Q 5.515625 14.40625 5.515625 27.296875 
Q 5.515625 40.1875 11.734375 48.09375 
Q 17.96875 56 27.875 56 
Q 33.9375 56 38.25 53.625 
Q 42.578125 51.265625 45.40625 46.390625 
M 14.796875 27.296875 
Q 14.796875 17.390625 18.875 11.75 
Q 22.953125 6.109375 30.078125 6.109375 
Q 37.203125 6.109375 41.296875 11.75 
Q 45.40625 17.390625 45.40625 27.296875 
Q 45.40625 37.203125 41.296875 42.84375 
Q 37.203125 48.484375 30.078125 48.484375 
Q 22.953125 48.484375 18.875 42.84375 
Q 14.796875 37.203125 14.796875 27.296875 
" id="BitstreamVeraSans-Roman-64"/>
     </defs>
     <g transform="translate(431.75625 79.96375)scale(0.08 -0.08)">
      <use xlink:href="#BitstreamVeraSans-Roman-4d"/>
      <use x="86.279296875" xlink:href="#BitstreamVeraSans-Roman-4d"/>
      <use x="172.55859375" xlink:href="#BitstreamVeraSans-Roman-20"/>
      <use x="204.345703125" xlink:href="#BitstreamVeraSans-Roman-57"/>
      <use x="303.19140625" xlink:href="#BitstreamVeraSans-Roman-69"/>
      <use x="330.974609375" xlink:href="#BitstreamVeraSans-Roman-74"/>
      <use x="370.18359375" xlink:href="#BitstreamVeraSans-Roman-68"/>
      <use x="433.5625" xlink:href="#BitstreamVeraSans-Roman-20"/>
      <use x="465.349609375" xlink:href="#BitstreamVeraSans-Roman-70"/>
      <use x="528.826171875" xlink:href="#BitstreamVeraSans-Roman-68"/>
      <use x="592.205078125" xlink:href="#BitstreamVeraSans-Roman-69"/>
      <use x="619.98828125" xlink:href="#BitstreamVeraSans-Roman-20"/>
      <use x="651.775390625" xlink:href="#BitstreamVeraSans-Roman-7a"/>
      <use x="704.265625" xlink:href="#BitstreamVeraSans-Roman-65"/>
      <use x="765.7890625" xlink:href="#BitstreamVeraSans-Roman-72"/>
      <use x="806.87109375" xlink:href="#BitstreamVeraSans-Roman-6f"/>
      <use x="868.052734375" xlink:href="#BitstreamVeraSans-Roman-65"/>
      <use x="929.576171875" xlink:href="#BitstreamVeraSans-Roman-64"/>
     </g>
    </g>
    <g id="line2d_46">
     <path d="M 411.75625 88.90625 
L 422.95625 88.90625 
" style="fill:none;stroke:#ff00ff;stroke-linecap:square;"/>
    </g>
    <g id="line2d_47">
     <g>
      <use style="fill:#ff00ff;stroke:#ff00ff;stroke-width:0.5;" x="411.75625" xlink:href="#m4cf776b511" y="88.90625"/>
      <use style="fill:#ff00ff;stroke:#ff00ff;stroke-width:0.5;" x="422.95625" xlink:href="#m4cf776b511" y="88.90625"/>
     </g>
    </g>
    <g id="text_24">
     <!-- QM-MM target -->
     <g transform="translate(431.75625 91.70625)scale(0.08 -0.08)">
      <use xlink:href="#BitstreamVeraSans-Roman-51"/>
      <use x="78.7109375" xlink:href="#BitstreamVeraSans-Roman-4d"/>
      <use x="164.990234375" xlink:href="#BitstreamVeraSans-Roman-2d"/>
      <use x="201.07421875" xlink:href="#BitstreamVeraSans-Roman-4d"/>
      <use x="287.353515625" xlink:href="#BitstreamVeraSans-Roman-4d"/>
      <use x="373.6328125" xlink:href="#BitstreamVeraSans-Roman-20"/>
      <use x="405.419921875" xlink:href="#BitstreamVeraSans-Roman-74"/>
      <use x="444.62890625" xlink:href="#BitstreamVeraSans-Roman-61"/>
      <use x="505.908203125" xlink:href="#BitstreamVeraSans-Roman-72"/>
      <use x="547.005859375" xlink:href="#BitstreamVeraSans-Roman-67"/>
      <use x="610.482421875" xlink:href="#BitstreamVeraSans-Roman-65"/>
      <use x="672.005859375" xlink:href="#BitstreamVeraSans-Roman-74"/>
     </g>
    </g>
    <g id="line2d_48">
     <path d="M 411.75625 100.64875 
L 422.95625 100.64875 
" style="fill:none;stroke:#008000;stroke-linecap:square;"/>
    </g>
    <g id="line2d_49">
     <g>
      <use style="fill:#008000;stroke:#000000;stroke-width:0.5;" x="411.75625" xlink:href="#mc754ef41ef" y="100.64875"/>
      <use style="fill:#008000;stroke:#000000;stroke-width:0.5;" x="422.95625" xlink:href="#mc754ef41ef" y="100.64875"/>
     </g>
    </g>
    <g id="text_25">
     <!-- MM Fitted -->
     <defs>
      <path d="M 9.8125 72.90625 
L 51.703125 72.90625 
L 51.703125 64.59375 
L 19.671875 64.59375 
L 19.671875 43.109375 
L 48.578125 43.109375 
L 48.578125 34.8125 
L 19.671875 34.8125 
L 19.671875 0 
L 9.8125 0 
z
" id="BitstreamVeraSans-Roman-46"/>
     </defs>
     <g transform="translate(431.75625 103.44875)scale(0.08 -0.08)">
      <use xlink:href="#BitstreamVeraSans-Roman-4d"/>
      <use x="86.279296875" xlink:href="#BitstreamVeraSans-Roman-4d"/>
      <use x="172.55859375" xlink:href="#BitstreamVeraSans-Roman-20"/>
      <use x="204.345703125" xlink:href="#BitstreamVeraSans-Roman-46"/>
      <use x="261.755859375" xlink:href="#BitstreamVeraSans-Roman-69"/>
      <use x="289.5390625" xlink:href="#BitstreamVeraSans-Roman-74"/>
      <use x="328.748046875" xlink:href="#BitstreamVeraSans-Roman-74"/>
      <use x="367.95703125" xlink:href="#BitstreamVeraSans-Roman-65"/>
      <use x="429.48046875" xlink:href="#BitstreamVeraSans-Roman-64"/>
     </g>
    </g>
   </g>
  </g>
 </g>
 <defs>
  <clipPath id="p206f6cfd97">
   <rect height="345.6" width="446.4" x="72.0" y="43.2"/>
  </clipPath>
 </defs>
</svg>
