<?xml version="1.0" encoding="utf-8" standalone="no"?>
<!DOCTYPE svg PUBLIC "-//W3C//DTD SVG 1.1//EN"
  "http://www.w3.org/Graphics/SVG/1.1/DTD/svg11.dtd">
<!-- Created with matplotlib (http://matplotlib.org/) -->
<svg height="432pt" version="1.1" viewBox="0 0 576 432" width="576pt" xmlns="http://www.w3.org/2000/svg" xmlns:xlink="http://www.w3.org/1999/xlink">
 <defs>
  <style type="text/css">
*{stroke-linecap:butt;stroke-linejoin:round;stroke-miterlimit:100000;}
  </style>
 </defs>
 <g id="figure_1">
  <g id="patch_1">
   <path d="M 0 432 
L 576 432 
L 576 0 
L 0 0 
z
" style="fill:#ffffff;"/>
  </g>
  <g id="axes_1">
   <g id="patch_2">
    <path d="M 72 388.8 
L 518.4 388.8 
L 518.4 43.2 
L 72 43.2 
z
" style="fill:#ffffff;"/>
   </g>
   <g id="line2d_1">
    <path clip-path="url(#p06df125245)" d="M 72.000832 368.185525 
L 84.400001 388.8 
L 96.800006 384.480002 
L 109.2 359.728042 
L 121.599995 215.959845 
L 134.000009 204.429404 
L 146.400023 196.863179 
L 158.80002 202.809583 
L 171.200015 225.462216 
L 183.599982 244.377993 
L 196.000007 281.86981 
L 208.400014 312.773133 
L 220.800024 330.431886 
L 233.199995 331.231379 
L 245.600017 315.072681 
L 258.000004 286.375485 
L 270.400009 251.197646 
L 282.799981 220.510603 
L 295.199278 204.757699 
L 307.599993 210.905588 
L 320.000018 236.445074 
L 332.39998 268.821456 
L 344.800024 277.586438 
L 357.199991 305.908652 
L 369.59997 318.285741 
L 381.999991 310.138223 
L 394.4 282.636348 
L 406.799997 238.745877 
L 419.199978 185.907206 
L 431.599995 136.975776 
L 444.000004 106.992011 
L 456.400002 107.274985 
L 468.799998 139.793333 
L 481.199987 197.428876 
L 493.599965 264.04086 
L 506.000008 324.437124 
" style="fill:none;stroke:#ff0000;stroke-linecap:square;"/>
    <defs>
     <path d="M 0 3 
C 0.795609 3 1.55874 2.683901 2.12132 2.12132 
C 2.683901 1.55874 3 0.795609 3 0 
C 3 -0.795609 2.683901 -1.55874 2.12132 -2.12132 
C 1.55874 -2.683901 0.795609 -3 0 -3 
C -0.795609 -3 -1.55874 -2.683901 -2.12132 -2.12132 
C -2.683901 -1.55874 -3 -0.795609 -3 0 
C -3 0.795609 -2.683901 1.55874 -2.12132 2.12132 
C -1.55874 2.683901 -0.795609 3 0 3 
z
" id="m4f53d23633" style="stroke:#000000;stroke-width:0.5;"/>
    </defs>
    <g clip-path="url(#p06df125245)">
     <use style="fill:#ff0000;stroke:#000000;stroke-width:0.5;" x="72.0008318876" xlink:href="#m4f53d23633" y="368.1855245"/>
     <use style="fill:#ff0000;stroke:#000000;stroke-width:0.5;" x="84.4000007531" xlink:href="#m4f53d23633" y="388.8"/>
     <use style="fill:#ff0000;stroke:#000000;stroke-width:0.5;" x="96.8000057402" xlink:href="#m4f53d23633" y="384.480001837"/>
     <use style="fill:#ff0000;stroke:#000000;stroke-width:0.5;" x="109.200000419" xlink:href="#m4f53d23633" y="359.72804169"/>
     <use style="fill:#ff0000;stroke:#000000;stroke-width:0.5;" x="121.599994836" xlink:href="#m4f53d23633" y="215.959845156"/>
     <use style="fill:#ff0000;stroke:#000000;stroke-width:0.5;" x="134.000008612" xlink:href="#m4f53d23633" y="204.429404006"/>
     <use style="fill:#ff0000;stroke:#000000;stroke-width:0.5;" x="146.400022887" xlink:href="#m4f53d23633" y="196.863179181"/>
     <use style="fill:#ff0000;stroke:#000000;stroke-width:0.5;" x="158.800019591" xlink:href="#m4f53d23633" y="202.8095831"/>
     <use style="fill:#ff0000;stroke:#000000;stroke-width:0.5;" x="171.200015162" xlink:href="#m4f53d23633" y="225.462216364"/>
     <use style="fill:#ff0000;stroke:#000000;stroke-width:0.5;" x="183.599982071" xlink:href="#m4f53d23633" y="244.377992961"/>
     <use style="fill:#ff0000;stroke:#000000;stroke-width:0.5;" x="196.000007364" xlink:href="#m4f53d23633" y="281.869810027"/>
     <use style="fill:#ff0000;stroke:#000000;stroke-width:0.5;" x="208.400014123" xlink:href="#m4f53d23633" y="312.773133184"/>
     <use style="fill:#ff0000;stroke:#000000;stroke-width:0.5;" x="220.800023755" xlink:href="#m4f53d23633" y="330.431886331"/>
     <use style="fill:#ff0000;stroke:#000000;stroke-width:0.5;" x="233.199995354" xlink:href="#m4f53d23633" y="331.23137904"/>
     <use style="fill:#ff0000;stroke:#000000;stroke-width:0.5;" x="245.600016694" xlink:href="#m4f53d23633" y="315.072680594"/>
     <use style="fill:#ff0000;stroke:#000000;stroke-width:0.5;" x="258.000004397" xlink:href="#m4f53d23633" y="286.375485261"/>
     <use style="fill:#ff0000;stroke:#000000;stroke-width:0.5;" x="270.400009043" xlink:href="#m4f53d23633" y="251.197645983"/>
     <use style="fill:#ff0000;stroke:#000000;stroke-width:0.5;" x="282.799981201" xlink:href="#m4f53d23633" y="220.51060328"/>
     <use style="fill:#ff0000;stroke:#000000;stroke-width:0.5;" x="295.199277527" xlink:href="#m4f53d23633" y="204.75769862"/>
     <use style="fill:#ff0000;stroke:#000000;stroke-width:0.5;" x="307.599993075" xlink:href="#m4f53d23633" y="210.905588224"/>
     <use style="fill:#ff0000;stroke:#000000;stroke-width:0.5;" x="320.000018469" xlink:href="#m4f53d23633" y="236.445074198"/>
     <use style="fill:#ff0000;stroke:#000000;stroke-width:0.5;" x="332.399980491" xlink:href="#m4f53d23633" y="268.821456347"/>
     <use style="fill:#ff0000;stroke:#000000;stroke-width:0.5;" x="344.800024437" xlink:href="#m4f53d23633" y="277.586438412"/>
     <use style="fill:#ff0000;stroke:#000000;stroke-width:0.5;" x="357.199990585" xlink:href="#m4f53d23633" y="305.908652242"/>
     <use style="fill:#ff0000;stroke:#000000;stroke-width:0.5;" x="369.599970195" xlink:href="#m4f53d23633" y="318.285741179"/>
     <use style="fill:#ff0000;stroke:#000000;stroke-width:0.5;" x="381.999990642" xlink:href="#m4f53d23633" y="310.138222748"/>
     <use style="fill:#ff0000;stroke:#000000;stroke-width:0.5;" x="394.400000323" xlink:href="#m4f53d23633" y="282.636347696"/>
     <use style="fill:#ff0000;stroke:#000000;stroke-width:0.5;" x="406.799997155" xlink:href="#m4f53d23633" y="238.745877073"/>
     <use style="fill:#ff0000;stroke:#000000;stroke-width:0.5;" x="419.199978374" xlink:href="#m4f53d23633" y="185.907205774"/>
     <use style="fill:#ff0000;stroke:#000000;stroke-width:0.5;" x="431.599994634" xlink:href="#m4f53d23633" y="136.975776285"/>
     <use style="fill:#ff0000;stroke:#000000;stroke-width:0.5;" x="444.000003853" xlink:href="#m4f53d23633" y="106.992010791"/>
     <use style="fill:#ff0000;stroke:#000000;stroke-width:0.5;" x="456.400001727" xlink:href="#m4f53d23633" y="107.274984505"/>
     <use style="fill:#ff0000;stroke:#000000;stroke-width:0.5;" x="468.799997782" xlink:href="#m4f53d23633" y="139.793332515"/>
     <use style="fill:#ff0000;stroke:#000000;stroke-width:0.5;" x="481.199986852" xlink:href="#m4f53d23633" y="197.42887566"/>
     <use style="fill:#ff0000;stroke:#000000;stroke-width:0.5;" x="493.5999647" xlink:href="#m4f53d23633" y="264.040859699"/>
     <use style="fill:#ff0000;stroke:#000000;stroke-width:0.5;" x="506.00000777" xlink:href="#m4f53d23633" y="324.437123816"/>
    </g>
   </g>
   <g id="line2d_2">
    <path clip-path="url(#p06df125245)" d="M 72.000832 380.338409 
L 84.400001 388.8 
L 96.800006 369.172751 
L 109.2 329.39518 
L 121.599995 216.458594 
L 134.000009 186.742806 
L 146.400023 165.175451 
L 158.80002 159.484344 
L 171.200015 172.294308 
L 183.599982 173.800079 
L 196.000007 209.396408 
L 208.400014 241.559154 
L 220.800024 260.997337 
L 233.199995 260.432285 
L 245.600017 246.078798 
L 258.000004 226.065278 
L 270.400009 192.317866 
L 282.799981 169.429511 
L 295.199278 159.42836 
L 307.599993 164.212204 
L 320.000018 188.910448 
L 332.39998 229.045057 
L 344.800024 251.235162 
L 357.199991 282.606685 
L 369.59997 298.59833 
L 381.999991 291.242926 
L 394.4 256.992372 
L 406.799997 204.64527 
L 419.199978 151.308808 
L 431.599995 106.842911 
L 444.000004 83.941847 
L 456.400002 87.728169 
L 468.799998 124.96137 
L 481.199987 201.782018 
L 493.599965 278.553246 
L 506.000008 341.5958 
" style="fill:none;stroke:#0000ff;stroke-linecap:square;"/>
    <defs>
     <path d="M 0 3 
C 0.795609 3 1.55874 2.683901 2.12132 2.12132 
C 2.683901 1.55874 3 0.795609 3 0 
C 3 -0.795609 2.683901 -1.55874 2.12132 -2.12132 
C 1.55874 -2.683901 0.795609 -3 0 -3 
C -0.795609 -3 -1.55874 -2.683901 -2.12132 -2.12132 
C -2.683901 -1.55874 -3 -0.795609 -3 0 
C -3 0.795609 -2.683901 1.55874 -2.12132 2.12132 
C -1.55874 2.683901 -0.795609 3 0 3 
z
" id="m309b2a0291" style="stroke:#000000;stroke-width:0.5;"/>
    </defs>
    <g clip-path="url(#p06df125245)">
     <use style="fill:#0000ff;stroke:#000000;stroke-width:0.5;" x="72.0008318876" xlink:href="#m309b2a0291" y="380.33840875"/>
     <use style="fill:#0000ff;stroke:#000000;stroke-width:0.5;" x="84.4000007531" xlink:href="#m309b2a0291" y="388.8"/>
     <use style="fill:#0000ff;stroke:#000000;stroke-width:0.5;" x="96.8000057402" xlink:href="#m309b2a0291" y="369.172751436"/>
     <use style="fill:#0000ff;stroke:#000000;stroke-width:0.5;" x="109.200000419" xlink:href="#m309b2a0291" y="329.395180098"/>
     <use style="fill:#0000ff;stroke:#000000;stroke-width:0.5;" x="121.599994836" xlink:href="#m309b2a0291" y="216.458594327"/>
     <use style="fill:#0000ff;stroke:#000000;stroke-width:0.5;" x="134.000008612" xlink:href="#m309b2a0291" y="186.742805669"/>
     <use style="fill:#0000ff;stroke:#000000;stroke-width:0.5;" x="146.400022887" xlink:href="#m309b2a0291" y="165.175450777"/>
     <use style="fill:#0000ff;stroke:#000000;stroke-width:0.5;" x="158.800019591" xlink:href="#m309b2a0291" y="159.4843443"/>
     <use style="fill:#0000ff;stroke:#000000;stroke-width:0.5;" x="171.200015162" xlink:href="#m309b2a0291" y="172.294307858"/>
     <use style="fill:#0000ff;stroke:#000000;stroke-width:0.5;" x="183.599982071" xlink:href="#m309b2a0291" y="173.800079226"/>
     <use style="fill:#0000ff;stroke:#000000;stroke-width:0.5;" x="196.000007364" xlink:href="#m309b2a0291" y="209.396408369"/>
     <use style="fill:#0000ff;stroke:#000000;stroke-width:0.5;" x="208.400014123" xlink:href="#m309b2a0291" y="241.559153608"/>
     <use style="fill:#0000ff;stroke:#000000;stroke-width:0.5;" x="220.800023755" xlink:href="#m309b2a0291" y="260.997336733"/>
     <use style="fill:#0000ff;stroke:#000000;stroke-width:0.5;" x="233.199995354" xlink:href="#m309b2a0291" y="260.432285124"/>
     <use style="fill:#0000ff;stroke:#000000;stroke-width:0.5;" x="245.600016694" xlink:href="#m309b2a0291" y="246.078798123"/>
     <use style="fill:#0000ff;stroke:#000000;stroke-width:0.5;" x="258.000004397" xlink:href="#m309b2a0291" y="226.065278141"/>
     <use style="fill:#0000ff;stroke:#000000;stroke-width:0.5;" x="270.400009043" xlink:href="#m309b2a0291" y="192.317865633"/>
     <use style="fill:#0000ff;stroke:#000000;stroke-width:0.5;" x="282.799981201" xlink:href="#m309b2a0291" y="169.429510966"/>
     <use style="fill:#0000ff;stroke:#000000;stroke-width:0.5;" x="295.199277527" xlink:href="#m309b2a0291" y="159.428360008"/>
     <use style="fill:#0000ff;stroke:#000000;stroke-width:0.5;" x="307.599993075" xlink:href="#m309b2a0291" y="164.212204451"/>
     <use style="fill:#0000ff;stroke:#000000;stroke-width:0.5;" x="320.000018469" xlink:href="#m309b2a0291" y="188.910447908"/>
     <use style="fill:#0000ff;stroke:#000000;stroke-width:0.5;" x="332.399980491" xlink:href="#m309b2a0291" y="229.045056635"/>
     <use style="fill:#0000ff;stroke:#000000;stroke-width:0.5;" x="344.800024437" xlink:href="#m309b2a0291" y="251.235162364"/>
     <use style="fill:#0000ff;stroke:#000000;stroke-width:0.5;" x="357.199990585" xlink:href="#m309b2a0291" y="282.606684799"/>
     <use style="fill:#0000ff;stroke:#000000;stroke-width:0.5;" x="369.599970195" xlink:href="#m309b2a0291" y="298.598330156"/>
     <use style="fill:#0000ff;stroke:#000000;stroke-width:0.5;" x="381.999990642" xlink:href="#m309b2a0291" y="291.242926214"/>
     <use style="fill:#0000ff;stroke:#000000;stroke-width:0.5;" x="394.400000323" xlink:href="#m309b2a0291" y="256.992372431"/>
     <use style="fill:#0000ff;stroke:#000000;stroke-width:0.5;" x="406.799997155" xlink:href="#m309b2a0291" y="204.645269623"/>
     <use style="fill:#0000ff;stroke:#000000;stroke-width:0.5;" x="419.199978374" xlink:href="#m309b2a0291" y="151.308808408"/>
     <use style="fill:#0000ff;stroke:#000000;stroke-width:0.5;" x="431.599994634" xlink:href="#m309b2a0291" y="106.84291085"/>
     <use style="fill:#0000ff;stroke:#000000;stroke-width:0.5;" x="444.000003853" xlink:href="#m309b2a0291" y="83.9418472683"/>
     <use style="fill:#0000ff;stroke:#000000;stroke-width:0.5;" x="456.400001727" xlink:href="#m309b2a0291" y="87.728168847"/>
     <use style="fill:#0000ff;stroke:#000000;stroke-width:0.5;" x="468.799997782" xlink:href="#m309b2a0291" y="124.961369781"/>
     <use style="fill:#0000ff;stroke:#000000;stroke-width:0.5;" x="481.199986852" xlink:href="#m309b2a0291" y="201.782018009"/>
     <use style="fill:#0000ff;stroke:#000000;stroke-width:0.5;" x="493.5999647" xlink:href="#m309b2a0291" y="278.553246367"/>
     <use style="fill:#0000ff;stroke:#000000;stroke-width:0.5;" x="506.00000777" xlink:href="#m309b2a0291" y="341.595800221"/>
    </g>
   </g>
   <g id="line2d_3">
    <path clip-path="url(#p06df125245)" d="M 72.000832 378.977839 
L 84.400001 388.8 
L 96.800006 374.382179 
L 109.2 342.410691 
L 121.599995 237.93466 
L 134.000009 215.706145 
L 146.400023 198.17323 
L 158.80002 191.441713 
L 171.200015 198.580051 
L 183.599982 189.212219 
L 196.000007 216.317251 
L 208.400014 242.224097 
L 220.800024 259.06447 
L 233.199995 260.242743 
L 245.600017 251.457972 
L 258.000004 240.260737 
L 270.400009 214.984635 
L 282.799981 199.213199 
L 295.199278 192.629863 
L 307.599993 195.994416 
L 320.000018 214.9057 
L 332.39998 247.039793 
L 344.800024 258.532787 
L 357.199991 283.725928 
L 369.59997 297.005469 
L 381.999991 291.143691 
L 394.4 262.367468 
L 406.799997 217.970102 
L 419.199978 173.23038 
L 431.599995 136.152066 
L 444.000004 117.085436 
L 456.400002 119.699253 
L 468.799998 150.970844 
L 481.199987 218.816001 
L 493.599965 286.729869 
L 506.000008 343.086776 
" style="fill:none;stroke:#000000;stroke-linecap:square;"/>
    <defs>
     <path d="M -3 3 
L 3 -3 
M -3 -3 
L 3 3 
" id="ma3d6439502" style="stroke:#000000;stroke-width:0.5;"/>
    </defs>
    <g clip-path="url(#p06df125245)">
     <use style="stroke:#000000;stroke-width:0.5;" x="72.0008318876" xlink:href="#ma3d6439502" y="378.977838836"/>
     <use style="stroke:#000000;stroke-width:0.5;" x="84.4000007531" xlink:href="#ma3d6439502" y="388.8"/>
     <use style="stroke:#000000;stroke-width:0.5;" x="96.8000057402" xlink:href="#ma3d6439502" y="374.382179162"/>
     <use style="stroke:#000000;stroke-width:0.5;" x="109.200000419" xlink:href="#ma3d6439502" y="342.410690777"/>
     <use style="stroke:#000000;stroke-width:0.5;" x="121.599994836" xlink:href="#ma3d6439502" y="237.93465987"/>
     <use style="stroke:#000000;stroke-width:0.5;" x="134.000008612" xlink:href="#ma3d6439502" y="215.706144997"/>
     <use style="stroke:#000000;stroke-width:0.5;" x="146.400022887" xlink:href="#ma3d6439502" y="198.173230485"/>
     <use style="stroke:#000000;stroke-width:0.5;" x="158.800019591" xlink:href="#ma3d6439502" y="191.441713234"/>
     <use style="stroke:#000000;stroke-width:0.5;" x="171.200015162" xlink:href="#ma3d6439502" y="198.580050876"/>
     <use style="stroke:#000000;stroke-width:0.5;" x="183.599982071" xlink:href="#ma3d6439502" y="189.212219059"/>
     <use style="stroke:#000000;stroke-width:0.5;" x="196.000007364" xlink:href="#ma3d6439502" y="216.317250523"/>
     <use style="stroke:#000000;stroke-width:0.5;" x="208.400014123" xlink:href="#ma3d6439502" y="242.224097211"/>
     <use style="stroke:#000000;stroke-width:0.5;" x="220.800023755" xlink:href="#ma3d6439502" y="259.064470383"/>
     <use style="stroke:#000000;stroke-width:0.5;" x="233.199995354" xlink:href="#ma3d6439502" y="260.242742924"/>
     <use style="stroke:#000000;stroke-width:0.5;" x="245.600016694" xlink:href="#ma3d6439502" y="251.457972209"/>
     <use style="stroke:#000000;stroke-width:0.5;" x="258.000004397" xlink:href="#ma3d6439502" y="240.260736653"/>
     <use style="stroke:#000000;stroke-width:0.5;" x="270.400009043" xlink:href="#ma3d6439502" y="214.98463523"/>
     <use style="stroke:#000000;stroke-width:0.5;" x="282.799981201" xlink:href="#ma3d6439502" y="199.213199267"/>
     <use style="stroke:#000000;stroke-width:0.5;" x="295.199277527" xlink:href="#ma3d6439502" y="192.629863273"/>
     <use style="stroke:#000000;stroke-width:0.5;" x="307.599993075" xlink:href="#ma3d6439502" y="195.994416454"/>
     <use style="stroke:#000000;stroke-width:0.5;" x="320.000018469" xlink:href="#ma3d6439502" y="214.905700208"/>
     <use style="stroke:#000000;stroke-width:0.5;" x="332.399980491" xlink:href="#ma3d6439502" y="247.039792776"/>
     <use style="stroke:#000000;stroke-width:0.5;" x="344.800024437" xlink:href="#ma3d6439502" y="258.532786699"/>
     <use style="stroke:#000000;stroke-width:0.5;" x="357.199990585" xlink:href="#ma3d6439502" y="283.725928196"/>
     <use style="stroke:#000000;stroke-width:0.5;" x="369.599970195" xlink:href="#ma3d6439502" y="297.005468725"/>
     <use style="stroke:#000000;stroke-width:0.5;" x="381.999990642" xlink:href="#ma3d6439502" y="291.143690643"/>
     <use style="stroke:#000000;stroke-width:0.5;" x="394.400000323" xlink:href="#ma3d6439502" y="262.367468241"/>
     <use style="stroke:#000000;stroke-width:0.5;" x="406.799997155" xlink:href="#ma3d6439502" y="217.970102163"/>
     <use style="stroke:#000000;stroke-width:0.5;" x="419.199978374" xlink:href="#ma3d6439502" y="173.230379719"/>
     <use style="stroke:#000000;stroke-width:0.5;" x="431.599994634" xlink:href="#ma3d6439502" y="136.152065625"/>
     <use style="stroke:#000000;stroke-width:0.5;" x="444.000003853" xlink:href="#ma3d6439502" y="117.085435576"/>
     <use style="stroke:#000000;stroke-width:0.5;" x="456.400001727" xlink:href="#ma3d6439502" y="119.699253069"/>
     <use style="stroke:#000000;stroke-width:0.5;" x="468.799997782" xlink:href="#ma3d6439502" y="150.970843748"/>
     <use style="stroke:#000000;stroke-width:0.5;" x="481.199986852" xlink:href="#ma3d6439502" y="218.816000893"/>
     <use style="stroke:#000000;stroke-width:0.5;" x="493.5999647" xlink:href="#ma3d6439502" y="286.72986913"/>
     <use style="stroke:#000000;stroke-width:0.5;" x="506.00000777" xlink:href="#ma3d6439502" y="343.0867763"/>
    </g>
   </g>
   <g id="line2d_4">
    <path clip-path="url(#p06df125245)" d="M 72.000832 306.64027 
L 84.400001 317.432584 
L 96.800006 327.530407 
L 109.2 334.749935 
L 121.599995 295.457769 
L 134.000009 306.155843 
L 146.400023 316.122533 
L 158.80002 328.800454 
L 171.200015 344.31475 
L 183.599982 372.598358 
L 196.000007 382.985144 
L 208.400014 387.98162 
L 220.800024 388.8 
L 233.199995 388.42122 
L 245.600017 381.047292 
L 258.000004 363.547333 
L 270.400009 353.645595 
L 282.799981 338.729988 
L 295.199278 329.560419 
L 307.599993 332.343756 
L 320.000018 338.971958 
L 332.39998 339.214248 
L 344.800024 336.486236 
L 357.199991 339.615308 
L 369.59997 338.712857 
L 381.999991 336.427116 
L 394.4 337.701464 
L 406.799997 338.208359 
L 419.199978 330.10941 
L 431.599995 318.256295 
L 444.000004 307.339159 
L 456.400002 305.008315 
L 468.799998 306.255073 
L 481.199987 296.045459 
L 493.599965 294.743575 
L 506.000008 298.782932 
" style="fill:none;stroke:#ff00ff;stroke-linecap:square;"/>
    <defs>
     <path d="M -3 3 
L 3 -3 
M -3 -3 
L 3 3 
" id="mf90825c54f" style="stroke:#ff00ff;stroke-width:0.5;"/>
    </defs>
    <g clip-path="url(#p06df125245)">
     <use style="fill:#ff00ff;stroke:#ff00ff;stroke-width:0.5;" x="72.0008318876" xlink:href="#mf90825c54f" y="306.640269715"/>
     <use style="fill:#ff00ff;stroke:#ff00ff;stroke-width:0.5;" x="84.4000007531" xlink:href="#mf90825c54f" y="317.432584051"/>
     <use style="fill:#ff00ff;stroke:#ff00ff;stroke-width:0.5;" x="96.8000057402" xlink:href="#mf90825c54f" y="327.530406726"/>
     <use style="fill:#ff00ff;stroke:#ff00ff;stroke-width:0.5;" x="109.200000419" xlink:href="#mf90825c54f" y="334.749934964"/>
     <use style="fill:#ff00ff;stroke:#ff00ff;stroke-width:0.5;" x="121.599994836" xlink:href="#mf90825c54f" y="295.457769337"/>
     <use style="fill:#ff00ff;stroke:#ff00ff;stroke-width:0.5;" x="134.000008612" xlink:href="#mf90825c54f" y="306.15584306"/>
     <use style="fill:#ff00ff;stroke:#ff00ff;stroke-width:0.5;" x="146.400022887" xlink:href="#mf90825c54f" y="316.122532748"/>
     <use style="fill:#ff00ff;stroke:#ff00ff;stroke-width:0.5;" x="158.800019591" xlink:href="#mf90825c54f" y="328.800453917"/>
     <use style="fill:#ff00ff;stroke:#ff00ff;stroke-width:0.5;" x="171.200015162" xlink:href="#mf90825c54f" y="344.314749539"/>
     <use style="fill:#ff00ff;stroke:#ff00ff;stroke-width:0.5;" x="183.599982071" xlink:href="#mf90825c54f" y="372.598357954"/>
     <use style="fill:#ff00ff;stroke:#ff00ff;stroke-width:0.5;" x="196.000007364" xlink:href="#mf90825c54f" y="382.985143555"/>
     <use style="fill:#ff00ff;stroke:#ff00ff;stroke-width:0.5;" x="208.400014123" xlink:href="#mf90825c54f" y="387.981620024"/>
     <use style="fill:#ff00ff;stroke:#ff00ff;stroke-width:0.5;" x="220.800023755" xlink:href="#mf90825c54f" y="388.8"/>
     <use style="fill:#ff00ff;stroke:#ff00ff;stroke-width:0.5;" x="233.199995354" xlink:href="#mf90825c54f" y="388.421220168"/>
     <use style="fill:#ff00ff;stroke:#ff00ff;stroke-width:0.5;" x="245.600016694" xlink:href="#mf90825c54f" y="381.047292437"/>
     <use style="fill:#ff00ff;stroke:#ff00ff;stroke-width:0.5;" x="258.000004397" xlink:href="#mf90825c54f" y="363.547332659"/>
     <use style="fill:#ff00ff;stroke:#ff00ff;stroke-width:0.5;" x="270.400009043" xlink:href="#mf90825c54f" y="353.645594804"/>
     <use style="fill:#ff00ff;stroke:#ff00ff;stroke-width:0.5;" x="282.799981201" xlink:href="#mf90825c54f" y="338.729988064"/>
     <use style="fill:#ff00ff;stroke:#ff00ff;stroke-width:0.5;" x="295.199277527" xlink:href="#mf90825c54f" y="329.560419398"/>
     <use style="fill:#ff00ff;stroke:#ff00ff;stroke-width:0.5;" x="307.599993075" xlink:href="#mf90825c54f" y="332.343755821"/>
     <use style="fill:#ff00ff;stroke:#ff00ff;stroke-width:0.5;" x="320.000018469" xlink:href="#mf90825c54f" y="338.971958041"/>
     <use style="fill:#ff00ff;stroke:#ff00ff;stroke-width:0.5;" x="332.399980491" xlink:href="#mf90825c54f" y="339.214247623"/>
     <use style="fill:#ff00ff;stroke:#ff00ff;stroke-width:0.5;" x="344.800024437" xlink:href="#mf90825c54f" y="336.486235765"/>
     <use style="fill:#ff00ff;stroke:#ff00ff;stroke-width:0.5;" x="357.199990585" xlink:href="#mf90825c54f" y="339.615308097"/>
     <use style="fill:#ff00ff;stroke:#ff00ff;stroke-width:0.5;" x="369.599970195" xlink:href="#mf90825c54f" y="338.712856505"/>
     <use style="fill:#ff00ff;stroke:#ff00ff;stroke-width:0.5;" x="381.999990642" xlink:href="#mf90825c54f" y="336.427116157"/>
     <use style="fill:#ff00ff;stroke:#ff00ff;stroke-width:0.5;" x="394.400000323" xlink:href="#mf90825c54f" y="337.701463507"/>
     <use style="fill:#ff00ff;stroke:#ff00ff;stroke-width:0.5;" x="406.799997155" xlink:href="#mf90825c54f" y="338.208358961"/>
     <use style="fill:#ff00ff;stroke:#ff00ff;stroke-width:0.5;" x="419.199978374" xlink:href="#mf90825c54f" y="330.109410107"/>
     <use style="fill:#ff00ff;stroke:#ff00ff;stroke-width:0.5;" x="431.599994634" xlink:href="#mf90825c54f" y="318.256294712"/>
     <use style="fill:#ff00ff;stroke:#ff00ff;stroke-width:0.5;" x="444.000003853" xlink:href="#mf90825c54f" y="307.339159266"/>
     <use style="fill:#ff00ff;stroke:#ff00ff;stroke-width:0.5;" x="456.400001727" xlink:href="#mf90825c54f" y="305.008315487"/>
     <use style="fill:#ff00ff;stroke:#ff00ff;stroke-width:0.5;" x="468.799997782" xlink:href="#mf90825c54f" y="306.255072818"/>
     <use style="fill:#ff00ff;stroke:#ff00ff;stroke-width:0.5;" x="481.199986852" xlink:href="#mf90825c54f" y="296.045458818"/>
     <use style="fill:#ff00ff;stroke:#ff00ff;stroke-width:0.5;" x="493.5999647" xlink:href="#mf90825c54f" y="294.74357462"/>
     <use style="fill:#ff00ff;stroke:#ff00ff;stroke-width:0.5;" x="506.00000777" xlink:href="#mf90825c54f" y="298.782931567"/>
    </g>
   </g>
   <g id="line2d_5">
    <path clip-path="url(#p06df125245)" d="M 72.000832 373.844733 
L 84.400001 388.8 
L 96.800006 377.772882 
L 109.2 344.833584 
L 121.599995 235.302938 
L 134.000009 206.978974 
L 146.400023 189.113885 
L 158.80002 192.74873 
L 171.200015 218.726196 
L 183.599982 226.995355 
L 196.000007 266.37372 
L 208.400014 297.761229 
L 220.800024 316.386688 
L 233.199995 317.345635 
L 245.600017 304.62885 
L 258.000004 283.789884 
L 270.400009 241.862472 
L 282.799981 207.349355 
L 295.199278 186.180837 
L 307.599993 184.35732 
L 320.000018 207.400653 
L 332.39998 247.169196 
L 344.800024 261.052894 
L 357.199991 284.991167 
L 369.59997 293.297446 
L 381.999991 282.50956 
L 394.4 250.747294 
L 406.799997 204.287358 
L 419.199978 156.896195 
L 431.599995 116.880965 
L 444.000004 96.538366 
L 456.400002 100.862509 
L 468.799998 135.282747 
L 481.199987 205.29778 
L 493.599965 274.820084 
L 506.000008 333.607812 
" style="fill:none;stroke:#008000;stroke-linecap:square;"/>
    <defs>
     <path d="M 0 3 
C 0.795609 3 1.55874 2.683901 2.12132 2.12132 
C 2.683901 1.55874 3 0.795609 3 0 
C 3 -0.795609 2.683901 -1.55874 2.12132 -2.12132 
C 1.55874 -2.683901 0.795609 -3 0 -3 
C -0.795609 -3 -1.55874 -2.683901 -2.12132 -2.12132 
C -2.683901 -1.55874 -3 -0.795609 -3 0 
C -3 0.795609 -2.683901 1.55874 -2.12132 2.12132 
C -1.55874 2.683901 -0.795609 3 0 3 
z
" id="m4b47690be0" style="stroke:#000000;stroke-width:0.5;"/>
    </defs>
    <g clip-path="url(#p06df125245)">
     <use style="fill:#008000;stroke:#000000;stroke-width:0.5;" x="72.0008318876" xlink:href="#m4b47690be0" y="373.844733365"/>
     <use style="fill:#008000;stroke:#000000;stroke-width:0.5;" x="84.4000007531" xlink:href="#m4b47690be0" y="388.8"/>
     <use style="fill:#008000;stroke:#000000;stroke-width:0.5;" x="96.8000057402" xlink:href="#m4b47690be0" y="377.772881751"/>
     <use style="fill:#008000;stroke:#000000;stroke-width:0.5;" x="109.200000419" xlink:href="#m4b47690be0" y="344.833584125"/>
     <use style="fill:#008000;stroke:#000000;stroke-width:0.5;" x="121.599994836" xlink:href="#m4b47690be0" y="235.30293843"/>
     <use style="fill:#008000;stroke:#000000;stroke-width:0.5;" x="134.000008612" xlink:href="#m4b47690be0" y="206.978974352"/>
     <use style="fill:#008000;stroke:#000000;stroke-width:0.5;" x="146.400022887" xlink:href="#m4b47690be0" y="189.11388462"/>
     <use style="fill:#008000;stroke:#000000;stroke-width:0.5;" x="158.800019591" xlink:href="#m4b47690be0" y="192.748730457"/>
     <use style="fill:#008000;stroke:#000000;stroke-width:0.5;" x="171.200015162" xlink:href="#m4b47690be0" y="218.726195552"/>
     <use style="fill:#008000;stroke:#000000;stroke-width:0.5;" x="183.599982071" xlink:href="#m4b47690be0" y="226.995355445"/>
     <use style="fill:#008000;stroke:#000000;stroke-width:0.5;" x="196.000007364" xlink:href="#m4b47690be0" y="266.373719505"/>
     <use style="fill:#008000;stroke:#000000;stroke-width:0.5;" x="208.400014123" xlink:href="#m4b47690be0" y="297.761229146"/>
     <use style="fill:#008000;stroke:#000000;stroke-width:0.5;" x="220.800023755" xlink:href="#m4b47690be0" y="316.386688219"/>
     <use style="fill:#008000;stroke:#000000;stroke-width:0.5;" x="233.199995354" xlink:href="#m4b47690be0" y="317.345635441"/>
     <use style="fill:#008000;stroke:#000000;stroke-width:0.5;" x="245.600016694" xlink:href="#m4b47690be0" y="304.628849723"/>
     <use style="fill:#008000;stroke:#000000;stroke-width:0.5;" x="258.000004397" xlink:href="#m4b47690be0" y="283.789884281"/>
     <use style="fill:#008000;stroke:#000000;stroke-width:0.5;" x="270.400009043" xlink:href="#m4b47690be0" y="241.862471594"/>
     <use style="fill:#008000;stroke:#000000;stroke-width:0.5;" x="282.799981201" xlink:href="#m4b47690be0" y="207.349354672"/>
     <use style="fill:#008000;stroke:#000000;stroke-width:0.5;" x="295.199277527" xlink:href="#m4b47690be0" y="186.180837429"/>
     <use style="fill:#008000;stroke:#000000;stroke-width:0.5;" x="307.599993075" xlink:href="#m4b47690be0" y="184.357319567"/>
     <use style="fill:#008000;stroke:#000000;stroke-width:0.5;" x="320.000018469" xlink:href="#m4b47690be0" y="207.400652653"/>
     <use style="fill:#008000;stroke:#000000;stroke-width:0.5;" x="332.399980491" xlink:href="#m4b47690be0" y="247.169196101"/>
     <use style="fill:#008000;stroke:#000000;stroke-width:0.5;" x="344.800024437" xlink:href="#m4b47690be0" y="261.052894204"/>
     <use style="fill:#008000;stroke:#000000;stroke-width:0.5;" x="357.199990585" xlink:href="#m4b47690be0" y="284.991167084"/>
     <use style="fill:#008000;stroke:#000000;stroke-width:0.5;" x="369.599970195" xlink:href="#m4b47690be0" y="293.297445746"/>
     <use style="fill:#008000;stroke:#000000;stroke-width:0.5;" x="381.999990642" xlink:href="#m4b47690be0" y="282.509560416"/>
     <use style="fill:#008000;stroke:#000000;stroke-width:0.5;" x="394.400000323" xlink:href="#m4b47690be0" y="250.74729369"/>
     <use style="fill:#008000;stroke:#000000;stroke-width:0.5;" x="406.799997155" xlink:href="#m4b47690be0" y="204.287357728"/>
     <use style="fill:#008000;stroke:#000000;stroke-width:0.5;" x="419.199978374" xlink:href="#m4b47690be0" y="156.89619464"/>
     <use style="fill:#008000;stroke:#000000;stroke-width:0.5;" x="431.599994634" xlink:href="#m4b47690be0" y="116.880964722"/>
     <use style="fill:#008000;stroke:#000000;stroke-width:0.5;" x="444.000003853" xlink:href="#m4b47690be0" y="96.5383655978"/>
     <use style="fill:#008000;stroke:#000000;stroke-width:0.5;" x="456.400001727" xlink:href="#m4b47690be0" y="100.862509234"/>
     <use style="fill:#008000;stroke:#000000;stroke-width:0.5;" x="468.799997782" xlink:href="#m4b47690be0" y="135.282746686"/>
     <use style="fill:#008000;stroke:#000000;stroke-width:0.5;" x="481.199986852" xlink:href="#m4b47690be0" y="205.297779779"/>
     <use style="fill:#008000;stroke:#000000;stroke-width:0.5;" x="493.5999647" xlink:href="#m4b47690be0" y="274.820083875"/>
     <use style="fill:#008000;stroke:#000000;stroke-width:0.5;" x="506.00000777" xlink:href="#m4b47690be0" y="333.607811572"/>
    </g>
   </g>
   <g id="patch_3">
    <path d="M 72 388.8 
L 518.4 388.8 
" style="fill:none;stroke:#000000;stroke-linecap:square;stroke-linejoin:miter;"/>
   </g>
   <g id="patch_4">
    <path d="M 72 388.8 
L 72 43.2 
" style="fill:none;stroke:#000000;stroke-linecap:square;stroke-linejoin:miter;"/>
   </g>
   <g id="patch_5">
    <path d="M 518.4 388.8 
L 518.4 43.2 
" style="fill:none;stroke:#000000;stroke-linecap:square;stroke-linejoin:miter;"/>
   </g>
   <g id="patch_6">
    <path d="M 72 43.2 
L 518.4 43.2 
" style="fill:none;stroke:#000000;stroke-linecap:square;stroke-linejoin:miter;"/>
   </g>
   <g id="matplotlib.axis_1">
    <g id="xtick_1">
     <g id="line2d_6">
      <defs>
       <path d="M 0 0 
L 0 -4 
" id="m9c681e2489" style="stroke:#000000;stroke-width:0.5;"/>
      </defs>
      <g>
       <use style="stroke:#000000;stroke-width:0.5;" x="72.0" xlink:href="#m9c681e2489" y="388.8"/>
      </g>
     </g>
     <g id="line2d_7">
      <defs>
       <path d="M 0 0 
L 0 4 
" id="mf1edd8b448" style="stroke:#000000;stroke-width:0.5;"/>
      </defs>
      <g>
       <use style="stroke:#000000;stroke-width:0.5;" x="72.0" xlink:href="#mf1edd8b448" y="43.2"/>
      </g>
     </g>
     <g id="text_1">
      <!-- −180 -->
      <defs>
       <path d="M 12.40625 8.296875 
L 28.515625 8.296875 
L 28.515625 63.921875 
L 10.984375 60.40625 
L 10.984375 69.390625 
L 28.421875 72.90625 
L 38.28125 72.90625 
L 38.28125 8.296875 
L 54.390625 8.296875 
L 54.390625 0 
L 12.40625 0 
z
" id="BitstreamVeraSans-Roman-31"/>
       <path d="M 31.78125 34.625 
Q 24.75 34.625 20.71875 30.859375 
Q 16.703125 27.09375 16.703125 20.515625 
Q 16.703125 13.921875 20.71875 10.15625 
Q 24.75 6.390625 31.78125 6.390625 
Q 38.8125 6.390625 42.859375 10.171875 
Q 46.921875 13.96875 46.921875 20.515625 
Q 46.921875 27.09375 42.890625 30.859375 
Q 38.875 34.625 31.78125 34.625 
M 21.921875 38.8125 
Q 15.578125 40.375 12.03125 44.71875 
Q 8.5 49.078125 8.5 55.328125 
Q 8.5 64.0625 14.71875 69.140625 
Q 20.953125 74.21875 31.78125 74.21875 
Q 42.671875 74.21875 48.875 69.140625 
Q 55.078125 64.0625 55.078125 55.328125 
Q 55.078125 49.078125 51.53125 44.71875 
Q 48 40.375 41.703125 38.8125 
Q 48.828125 37.15625 52.796875 32.3125 
Q 56.78125 27.484375 56.78125 20.515625 
Q 56.78125 9.90625 50.3125 4.234375 
Q 43.84375 -1.421875 31.78125 -1.421875 
Q 19.734375 -1.421875 13.25 4.234375 
Q 6.78125 9.90625 6.78125 20.515625 
Q 6.78125 27.484375 10.78125 32.3125 
Q 14.796875 37.15625 21.921875 38.8125 
M 18.3125 54.390625 
Q 18.3125 48.734375 21.84375 45.5625 
Q 25.390625 42.390625 31.78125 42.390625 
Q 38.140625 42.390625 41.71875 45.5625 
Q 45.3125 48.734375 45.3125 54.390625 
Q 45.3125 60.0625 41.71875 63.234375 
Q 38.140625 66.40625 31.78125 66.40625 
Q 25.390625 66.40625 21.84375 63.234375 
Q 18.3125 60.0625 18.3125 54.390625 
" id="BitstreamVeraSans-Roman-38"/>
       <path d="M 10.59375 35.5 
L 73.1875 35.5 
L 73.1875 27.203125 
L 10.59375 27.203125 
z
" id="BitstreamVeraSans-Roman-2212"/>
       <path d="M 31.78125 66.40625 
Q 24.171875 66.40625 20.328125 58.90625 
Q 16.5 51.421875 16.5 36.375 
Q 16.5 21.390625 20.328125 13.890625 
Q 24.171875 6.390625 31.78125 6.390625 
Q 39.453125 6.390625 43.28125 13.890625 
Q 47.125 21.390625 47.125 36.375 
Q 47.125 51.421875 43.28125 58.90625 
Q 39.453125 66.40625 31.78125 66.40625 
M 31.78125 74.21875 
Q 44.046875 74.21875 50.515625 64.515625 
Q 56.984375 54.828125 56.984375 36.375 
Q 56.984375 17.96875 50.515625 8.265625 
Q 44.046875 -1.421875 31.78125 -1.421875 
Q 19.53125 -1.421875 13.0625 8.265625 
Q 6.59375 17.96875 6.59375 36.375 
Q 6.59375 54.828125 13.0625 64.515625 
Q 19.53125 74.21875 31.78125 74.21875 
" id="BitstreamVeraSans-Roman-30"/>
      </defs>
      <g transform="translate(55.5196875 401.918125)scale(0.12 -0.12)">
       <use xlink:href="#BitstreamVeraSans-Roman-2212"/>
       <use x="83.7890625" xlink:href="#BitstreamVeraSans-Roman-31"/>
       <use x="147.412109375" xlink:href="#BitstreamVeraSans-Roman-38"/>
       <use x="211.03515625" xlink:href="#BitstreamVeraSans-Roman-30"/>
      </g>
     </g>
    </g>
    <g id="xtick_2">
     <g id="line2d_8">
      <g>
       <use style="stroke:#000000;stroke-width:0.5;" x="127.8" xlink:href="#m9c681e2489" y="388.8"/>
      </g>
     </g>
     <g id="line2d_9">
      <g>
       <use style="stroke:#000000;stroke-width:0.5;" x="127.8" xlink:href="#mf1edd8b448" y="43.2"/>
      </g>
     </g>
     <g id="text_2">
      <!-- −135 -->
      <defs>
       <path d="M 10.796875 72.90625 
L 49.515625 72.90625 
L 49.515625 64.59375 
L 19.828125 64.59375 
L 19.828125 46.734375 
Q 21.96875 47.46875 24.109375 47.828125 
Q 26.265625 48.1875 28.421875 48.1875 
Q 40.625 48.1875 47.75 41.5 
Q 54.890625 34.8125 54.890625 23.390625 
Q 54.890625 11.625 47.5625 5.09375 
Q 40.234375 -1.421875 26.90625 -1.421875 
Q 22.3125 -1.421875 17.546875 -0.640625 
Q 12.796875 0.140625 7.71875 1.703125 
L 7.71875 11.625 
Q 12.109375 9.234375 16.796875 8.0625 
Q 21.484375 6.890625 26.703125 6.890625 
Q 35.15625 6.890625 40.078125 11.328125 
Q 45.015625 15.765625 45.015625 23.390625 
Q 45.015625 31 40.078125 35.4375 
Q 35.15625 39.890625 26.703125 39.890625 
Q 22.75 39.890625 18.8125 39.015625 
Q 14.890625 38.140625 10.796875 36.28125 
z
" id="BitstreamVeraSans-Roman-35"/>
       <path d="M 40.578125 39.3125 
Q 47.65625 37.796875 51.625 33 
Q 55.609375 28.21875 55.609375 21.1875 
Q 55.609375 10.40625 48.1875 4.484375 
Q 40.765625 -1.421875 27.09375 -1.421875 
Q 22.515625 -1.421875 17.65625 -0.515625 
Q 12.796875 0.390625 7.625 2.203125 
L 7.625 11.71875 
Q 11.71875 9.328125 16.59375 8.109375 
Q 21.484375 6.890625 26.8125 6.890625 
Q 36.078125 6.890625 40.9375 10.546875 
Q 45.796875 14.203125 45.796875 21.1875 
Q 45.796875 27.640625 41.28125 31.265625 
Q 36.765625 34.90625 28.71875 34.90625 
L 20.21875 34.90625 
L 20.21875 43.015625 
L 29.109375 43.015625 
Q 36.375 43.015625 40.234375 45.921875 
Q 44.09375 48.828125 44.09375 54.296875 
Q 44.09375 59.90625 40.109375 62.90625 
Q 36.140625 65.921875 28.71875 65.921875 
Q 24.65625 65.921875 20.015625 65.03125 
Q 15.375 64.15625 9.8125 62.3125 
L 9.8125 71.09375 
Q 15.4375 72.65625 20.34375 73.4375 
Q 25.25 74.21875 29.59375 74.21875 
Q 40.828125 74.21875 47.359375 69.109375 
Q 53.90625 64.015625 53.90625 55.328125 
Q 53.90625 49.265625 50.4375 45.09375 
Q 46.96875 40.921875 40.578125 39.3125 
" id="BitstreamVeraSans-Roman-33"/>
      </defs>
      <g transform="translate(111.3196875 401.918125)scale(0.12 -0.12)">
       <use xlink:href="#BitstreamVeraSans-Roman-2212"/>
       <use x="83.7890625" xlink:href="#BitstreamVeraSans-Roman-31"/>
       <use x="147.412109375" xlink:href="#BitstreamVeraSans-Roman-33"/>
       <use x="211.03515625" xlink:href="#BitstreamVeraSans-Roman-35"/>
      </g>
     </g>
    </g>
    <g id="xtick_3">
     <g id="line2d_10">
      <g>
       <use style="stroke:#000000;stroke-width:0.5;" x="183.6" xlink:href="#m9c681e2489" y="388.8"/>
      </g>
     </g>
     <g id="line2d_11">
      <g>
       <use style="stroke:#000000;stroke-width:0.5;" x="183.6" xlink:href="#mf1edd8b448" y="43.2"/>
      </g>
     </g>
     <g id="text_3">
      <!-- −90 -->
      <defs>
       <path d="M 10.984375 1.515625 
L 10.984375 10.5 
Q 14.703125 8.734375 18.5 7.8125 
Q 22.3125 6.890625 25.984375 6.890625 
Q 35.75 6.890625 40.890625 13.453125 
Q 46.046875 20.015625 46.78125 33.40625 
Q 43.953125 29.203125 39.59375 26.953125 
Q 35.25 24.703125 29.984375 24.703125 
Q 19.046875 24.703125 12.671875 31.3125 
Q 6.296875 37.9375 6.296875 49.421875 
Q 6.296875 60.640625 12.9375 67.421875 
Q 19.578125 74.21875 30.609375 74.21875 
Q 43.265625 74.21875 49.921875 64.515625 
Q 56.59375 54.828125 56.59375 36.375 
Q 56.59375 19.140625 48.40625 8.859375 
Q 40.234375 -1.421875 26.421875 -1.421875 
Q 22.703125 -1.421875 18.890625 -0.6875 
Q 15.09375 0.046875 10.984375 1.515625 
M 30.609375 32.421875 
Q 37.25 32.421875 41.125 36.953125 
Q 45.015625 41.5 45.015625 49.421875 
Q 45.015625 57.28125 41.125 61.84375 
Q 37.25 66.40625 30.609375 66.40625 
Q 23.96875 66.40625 20.09375 61.84375 
Q 16.21875 57.28125 16.21875 49.421875 
Q 16.21875 41.5 20.09375 36.953125 
Q 23.96875 32.421875 30.609375 32.421875 
" id="BitstreamVeraSans-Roman-39"/>
      </defs>
      <g transform="translate(170.9371875 401.918125)scale(0.12 -0.12)">
       <use xlink:href="#BitstreamVeraSans-Roman-2212"/>
       <use x="83.7890625" xlink:href="#BitstreamVeraSans-Roman-39"/>
       <use x="147.412109375" xlink:href="#BitstreamVeraSans-Roman-30"/>
      </g>
     </g>
    </g>
    <g id="xtick_4">
     <g id="line2d_12">
      <g>
       <use style="stroke:#000000;stroke-width:0.5;" x="239.4" xlink:href="#m9c681e2489" y="388.8"/>
      </g>
     </g>
     <g id="line2d_13">
      <g>
       <use style="stroke:#000000;stroke-width:0.5;" x="239.4" xlink:href="#mf1edd8b448" y="43.2"/>
      </g>
     </g>
     <g id="text_4">
      <!-- −45 -->
      <defs>
       <path d="M 37.796875 64.3125 
L 12.890625 25.390625 
L 37.796875 25.390625 
z
M 35.203125 72.90625 
L 47.609375 72.90625 
L 47.609375 25.390625 
L 58.015625 25.390625 
L 58.015625 17.1875 
L 47.609375 17.1875 
L 47.609375 0 
L 37.796875 0 
L 37.796875 17.1875 
L 4.890625 17.1875 
L 4.890625 26.703125 
z
" id="BitstreamVeraSans-Roman-34"/>
      </defs>
      <g transform="translate(226.7371875 401.918125)scale(0.12 -0.12)">
       <use xlink:href="#BitstreamVeraSans-Roman-2212"/>
       <use x="83.7890625" xlink:href="#BitstreamVeraSans-Roman-34"/>
       <use x="147.412109375" xlink:href="#BitstreamVeraSans-Roman-35"/>
      </g>
     </g>
    </g>
    <g id="xtick_5">
     <g id="line2d_14">
      <g>
       <use style="stroke:#000000;stroke-width:0.5;" x="295.2" xlink:href="#m9c681e2489" y="388.8"/>
      </g>
     </g>
     <g id="line2d_15">
      <g>
       <use style="stroke:#000000;stroke-width:0.5;" x="295.2" xlink:href="#mf1edd8b448" y="43.2"/>
      </g>
     </g>
     <g id="text_5">
      <!-- 0 -->
      <g transform="translate(291.3825 401.918125)scale(0.12 -0.12)">
       <use xlink:href="#BitstreamVeraSans-Roman-30"/>
      </g>
     </g>
    </g>
    <g id="xtick_6">
     <g id="line2d_16">
      <g>
       <use style="stroke:#000000;stroke-width:0.5;" x="351.0" xlink:href="#m9c681e2489" y="388.8"/>
      </g>
     </g>
     <g id="line2d_17">
      <g>
       <use style="stroke:#000000;stroke-width:0.5;" x="351.0" xlink:href="#mf1edd8b448" y="43.2"/>
      </g>
     </g>
     <g id="text_6">
      <!-- 45 -->
      <g transform="translate(343.365 401.918125)scale(0.12 -0.12)">
       <use xlink:href="#BitstreamVeraSans-Roman-34"/>
       <use x="63.623046875" xlink:href="#BitstreamVeraSans-Roman-35"/>
      </g>
     </g>
    </g>
    <g id="xtick_7">
     <g id="line2d_18">
      <g>
       <use style="stroke:#000000;stroke-width:0.5;" x="406.8" xlink:href="#m9c681e2489" y="388.8"/>
      </g>
     </g>
     <g id="line2d_19">
      <g>
       <use style="stroke:#000000;stroke-width:0.5;" x="406.8" xlink:href="#mf1edd8b448" y="43.2"/>
      </g>
     </g>
     <g id="text_7">
      <!-- 90 -->
      <g transform="translate(399.165 401.918125)scale(0.12 -0.12)">
       <use xlink:href="#BitstreamVeraSans-Roman-39"/>
       <use x="63.623046875" xlink:href="#BitstreamVeraSans-Roman-30"/>
      </g>
     </g>
    </g>
    <g id="xtick_8">
     <g id="line2d_20">
      <g>
       <use style="stroke:#000000;stroke-width:0.5;" x="462.6" xlink:href="#m9c681e2489" y="388.8"/>
      </g>
     </g>
     <g id="line2d_21">
      <g>
       <use style="stroke:#000000;stroke-width:0.5;" x="462.6" xlink:href="#mf1edd8b448" y="43.2"/>
      </g>
     </g>
     <g id="text_8">
      <!-- 135 -->
      <g transform="translate(451.1475 401.918125)scale(0.12 -0.12)">
       <use xlink:href="#BitstreamVeraSans-Roman-31"/>
       <use x="63.623046875" xlink:href="#BitstreamVeraSans-Roman-33"/>
       <use x="127.24609375" xlink:href="#BitstreamVeraSans-Roman-35"/>
      </g>
     </g>
    </g>
    <g id="xtick_9">
     <g id="line2d_22">
      <g>
       <use style="stroke:#000000;stroke-width:0.5;" x="518.4" xlink:href="#m9c681e2489" y="388.8"/>
      </g>
     </g>
     <g id="line2d_23">
      <g>
       <use style="stroke:#000000;stroke-width:0.5;" x="518.4" xlink:href="#mf1edd8b448" y="43.2"/>
      </g>
     </g>
     <g id="text_9">
      <!-- 180 -->
      <g transform="translate(506.9475 401.918125)scale(0.12 -0.12)">
       <use xlink:href="#BitstreamVeraSans-Roman-31"/>
       <use x="63.623046875" xlink:href="#BitstreamVeraSans-Roman-38"/>
       <use x="127.24609375" xlink:href="#BitstreamVeraSans-Roman-30"/>
      </g>
     </g>
    </g>
    <g id="text_10">
     <!-- Phi -->
     <defs>
      <path d="M 9.421875 54.6875 
L 18.40625 54.6875 
L 18.40625 0 
L 9.421875 0 
z
M 9.421875 75.984375 
L 18.40625 75.984375 
L 18.40625 64.59375 
L 9.421875 64.59375 
z
" id="BitstreamVeraSans-Roman-69"/>
      <path d="M 19.671875 64.796875 
L 19.671875 37.40625 
L 32.078125 37.40625 
Q 38.96875 37.40625 42.71875 40.96875 
Q 46.484375 44.53125 46.484375 51.125 
Q 46.484375 57.671875 42.71875 61.234375 
Q 38.96875 64.796875 32.078125 64.796875 
z
M 9.8125 72.90625 
L 32.078125 72.90625 
Q 44.34375 72.90625 50.609375 67.359375 
Q 56.890625 61.8125 56.890625 51.125 
Q 56.890625 40.328125 50.609375 34.8125 
Q 44.34375 29.296875 32.078125 29.296875 
L 19.671875 29.296875 
L 19.671875 0 
L 9.8125 0 
z
" id="BitstreamVeraSans-Roman-50"/>
      <path d="M 54.890625 33.015625 
L 54.890625 0 
L 45.90625 0 
L 45.90625 32.71875 
Q 45.90625 40.484375 42.875 44.328125 
Q 39.84375 48.1875 33.796875 48.1875 
Q 26.515625 48.1875 22.3125 43.546875 
Q 18.109375 38.921875 18.109375 30.90625 
L 18.109375 0 
L 9.078125 0 
L 9.078125 75.984375 
L 18.109375 75.984375 
L 18.109375 46.1875 
Q 21.34375 51.125 25.703125 53.5625 
Q 30.078125 56 35.796875 56 
Q 45.21875 56 50.046875 50.171875 
Q 54.890625 44.34375 54.890625 33.015625 
" id="BitstreamVeraSans-Roman-68"/>
     </defs>
     <g transform="translate(286.1128125 418.531875)scale(0.12 -0.12)">
      <use xlink:href="#BitstreamVeraSans-Roman-50"/>
      <use x="60.302734375" xlink:href="#BitstreamVeraSans-Roman-68"/>
      <use x="123.681640625" xlink:href="#BitstreamVeraSans-Roman-69"/>
     </g>
    </g>
   </g>
   <g id="matplotlib.axis_2">
    <g id="ytick_1">
     <g id="line2d_24">
      <defs>
       <path d="M 0 0 
L 4 0 
" id="m46c9f60c8a" style="stroke:#000000;stroke-width:0.5;"/>
      </defs>
      <g>
       <use style="stroke:#000000;stroke-width:0.5;" x="72.0" xlink:href="#m46c9f60c8a" y="388.8"/>
      </g>
     </g>
     <g id="line2d_25">
      <defs>
       <path d="M 0 0 
L -4 0 
" id="m6703810b00" style="stroke:#000000;stroke-width:0.5;"/>
      </defs>
      <g>
       <use style="stroke:#000000;stroke-width:0.5;" x="518.4" xlink:href="#m6703810b00" y="388.8"/>
      </g>
     </g>
     <g id="text_11">
      <!-- 0 -->
      <g transform="translate(60.365 392.11125)scale(0.12 -0.12)">
       <use xlink:href="#BitstreamVeraSans-Roman-30"/>
      </g>
     </g>
    </g>
    <g id="ytick_2">
     <g id="line2d_26">
      <g>
       <use style="stroke:#000000;stroke-width:0.5;" x="72.0" xlink:href="#m46c9f60c8a" y="345.6"/>
      </g>
     </g>
     <g id="line2d_27">
      <g>
       <use style="stroke:#000000;stroke-width:0.5;" x="518.4" xlink:href="#m6703810b00" y="345.6"/>
      </g>
     </g>
     <g id="text_12">
      <!-- 1 -->
      <g transform="translate(60.365 348.91125)scale(0.12 -0.12)">
       <use xlink:href="#BitstreamVeraSans-Roman-31"/>
      </g>
     </g>
    </g>
    <g id="ytick_3">
     <g id="line2d_28">
      <g>
       <use style="stroke:#000000;stroke-width:0.5;" x="72.0" xlink:href="#m46c9f60c8a" y="302.4"/>
      </g>
     </g>
     <g id="line2d_29">
      <g>
       <use style="stroke:#000000;stroke-width:0.5;" x="518.4" xlink:href="#m6703810b00" y="302.4"/>
      </g>
     </g>
     <g id="text_13">
      <!-- 2 -->
      <defs>
       <path d="M 19.1875 8.296875 
L 53.609375 8.296875 
L 53.609375 0 
L 7.328125 0 
L 7.328125 8.296875 
Q 12.9375 14.109375 22.625 23.890625 
Q 32.328125 33.6875 34.8125 36.53125 
Q 39.546875 41.84375 41.421875 45.53125 
Q 43.3125 49.21875 43.3125 52.78125 
Q 43.3125 58.59375 39.234375 62.25 
Q 35.15625 65.921875 28.609375 65.921875 
Q 23.96875 65.921875 18.8125 64.3125 
Q 13.671875 62.703125 7.8125 59.421875 
L 7.8125 69.390625 
Q 13.765625 71.78125 18.9375 73 
Q 24.125 74.21875 28.421875 74.21875 
Q 39.75 74.21875 46.484375 68.546875 
Q 53.21875 62.890625 53.21875 53.421875 
Q 53.21875 48.921875 51.53125 44.890625 
Q 49.859375 40.875 45.40625 35.40625 
Q 44.1875 33.984375 37.640625 27.21875 
Q 31.109375 20.453125 19.1875 8.296875 
" id="BitstreamVeraSans-Roman-32"/>
      </defs>
      <g transform="translate(60.365 305.71125)scale(0.12 -0.12)">
       <use xlink:href="#BitstreamVeraSans-Roman-32"/>
      </g>
     </g>
    </g>
    <g id="ytick_4">
     <g id="line2d_30">
      <g>
       <use style="stroke:#000000;stroke-width:0.5;" x="72.0" xlink:href="#m46c9f60c8a" y="259.2"/>
      </g>
     </g>
     <g id="line2d_31">
      <g>
       <use style="stroke:#000000;stroke-width:0.5;" x="518.4" xlink:href="#m6703810b00" y="259.2"/>
      </g>
     </g>
     <g id="text_14">
      <!-- 3 -->
      <g transform="translate(60.365 262.51125)scale(0.12 -0.12)">
       <use xlink:href="#BitstreamVeraSans-Roman-33"/>
      </g>
     </g>
    </g>
    <g id="ytick_5">
     <g id="line2d_32">
      <g>
       <use style="stroke:#000000;stroke-width:0.5;" x="72.0" xlink:href="#m46c9f60c8a" y="216.0"/>
      </g>
     </g>
     <g id="line2d_33">
      <g>
       <use style="stroke:#000000;stroke-width:0.5;" x="518.4" xlink:href="#m6703810b00" y="216.0"/>
      </g>
     </g>
     <g id="text_15">
      <!-- 4 -->
      <g transform="translate(60.365 219.31125)scale(0.12 -0.12)">
       <use xlink:href="#BitstreamVeraSans-Roman-34"/>
      </g>
     </g>
    </g>
    <g id="ytick_6">
     <g id="line2d_34">
      <g>
       <use style="stroke:#000000;stroke-width:0.5;" x="72.0" xlink:href="#m46c9f60c8a" y="172.8"/>
      </g>
     </g>
     <g id="line2d_35">
      <g>
       <use style="stroke:#000000;stroke-width:0.5;" x="518.4" xlink:href="#m6703810b00" y="172.8"/>
      </g>
     </g>
     <g id="text_16">
      <!-- 5 -->
      <g transform="translate(60.365 176.11125)scale(0.12 -0.12)">
       <use xlink:href="#BitstreamVeraSans-Roman-35"/>
      </g>
     </g>
    </g>
    <g id="ytick_7">
     <g id="line2d_36">
      <g>
       <use style="stroke:#000000;stroke-width:0.5;" x="72.0" xlink:href="#m46c9f60c8a" y="129.6"/>
      </g>
     </g>
     <g id="line2d_37">
      <g>
       <use style="stroke:#000000;stroke-width:0.5;" x="518.4" xlink:href="#m6703810b00" y="129.6"/>
      </g>
     </g>
     <g id="text_17">
      <!-- 6 -->
      <defs>
       <path d="M 33.015625 40.375 
Q 26.375 40.375 22.484375 35.828125 
Q 18.609375 31.296875 18.609375 23.390625 
Q 18.609375 15.53125 22.484375 10.953125 
Q 26.375 6.390625 33.015625 6.390625 
Q 39.65625 6.390625 43.53125 10.953125 
Q 47.40625 15.53125 47.40625 23.390625 
Q 47.40625 31.296875 43.53125 35.828125 
Q 39.65625 40.375 33.015625 40.375 
M 52.59375 71.296875 
L 52.59375 62.3125 
Q 48.875 64.0625 45.09375 64.984375 
Q 41.3125 65.921875 37.59375 65.921875 
Q 27.828125 65.921875 22.671875 59.328125 
Q 17.53125 52.734375 16.796875 39.40625 
Q 19.671875 43.65625 24.015625 45.921875 
Q 28.375 48.1875 33.59375 48.1875 
Q 44.578125 48.1875 50.953125 41.515625 
Q 57.328125 34.859375 57.328125 23.390625 
Q 57.328125 12.15625 50.6875 5.359375 
Q 44.046875 -1.421875 33.015625 -1.421875 
Q 20.359375 -1.421875 13.671875 8.265625 
Q 6.984375 17.96875 6.984375 36.375 
Q 6.984375 53.65625 15.1875 63.9375 
Q 23.390625 74.21875 37.203125 74.21875 
Q 40.921875 74.21875 44.703125 73.484375 
Q 48.484375 72.75 52.59375 71.296875 
" id="BitstreamVeraSans-Roman-36"/>
      </defs>
      <g transform="translate(60.365 132.91125)scale(0.12 -0.12)">
       <use xlink:href="#BitstreamVeraSans-Roman-36"/>
      </g>
     </g>
    </g>
    <g id="ytick_8">
     <g id="line2d_38">
      <g>
       <use style="stroke:#000000;stroke-width:0.5;" x="72.0" xlink:href="#m46c9f60c8a" y="86.4"/>
      </g>
     </g>
     <g id="line2d_39">
      <g>
       <use style="stroke:#000000;stroke-width:0.5;" x="518.4" xlink:href="#m6703810b00" y="86.4"/>
      </g>
     </g>
     <g id="text_18">
      <!-- 7 -->
      <defs>
       <path d="M 8.203125 72.90625 
L 55.078125 72.90625 
L 55.078125 68.703125 
L 28.609375 0 
L 18.3125 0 
L 43.21875 64.59375 
L 8.203125 64.59375 
z
" id="BitstreamVeraSans-Roman-37"/>
      </defs>
      <g transform="translate(60.365 89.71125)scale(0.12 -0.12)">
       <use xlink:href="#BitstreamVeraSans-Roman-37"/>
      </g>
     </g>
    </g>
    <g id="ytick_9">
     <g id="line2d_40">
      <g>
       <use style="stroke:#000000;stroke-width:0.5;" x="72.0" xlink:href="#m46c9f60c8a" y="43.2"/>
      </g>
     </g>
     <g id="line2d_41">
      <g>
       <use style="stroke:#000000;stroke-width:0.5;" x="518.4" xlink:href="#m6703810b00" y="43.2"/>
      </g>
     </g>
     <g id="text_19">
      <!-- 8 -->
      <g transform="translate(60.365 46.51125)scale(0.12 -0.12)">
       <use xlink:href="#BitstreamVeraSans-Roman-38"/>
      </g>
     </g>
    </g>
    <g id="text_20">
     <!-- kcal/mol -->
     <defs>
      <path d="M 9.421875 75.984375 
L 18.40625 75.984375 
L 18.40625 0 
L 9.421875 0 
z
" id="BitstreamVeraSans-Roman-6c"/>
      <path d="M 34.28125 27.484375 
Q 23.390625 27.484375 19.1875 25 
Q 14.984375 22.515625 14.984375 16.5 
Q 14.984375 11.71875 18.140625 8.90625 
Q 21.296875 6.109375 26.703125 6.109375 
Q 34.1875 6.109375 38.703125 11.40625 
Q 43.21875 16.703125 43.21875 25.484375 
L 43.21875 27.484375 
z
M 52.203125 31.203125 
L 52.203125 0 
L 43.21875 0 
L 43.21875 8.296875 
Q 40.140625 3.328125 35.546875 0.953125 
Q 30.953125 -1.421875 24.3125 -1.421875 
Q 15.921875 -1.421875 10.953125 3.296875 
Q 6 8.015625 6 15.921875 
Q 6 25.140625 12.171875 29.828125 
Q 18.359375 34.515625 30.609375 34.515625 
L 43.21875 34.515625 
L 43.21875 35.40625 
Q 43.21875 41.609375 39.140625 45 
Q 35.0625 48.390625 27.6875 48.390625 
Q 23 48.390625 18.546875 47.265625 
Q 14.109375 46.140625 10.015625 43.890625 
L 10.015625 52.203125 
Q 14.9375 54.109375 19.578125 55.046875 
Q 24.21875 56 28.609375 56 
Q 40.484375 56 46.34375 49.84375 
Q 52.203125 43.703125 52.203125 31.203125 
" id="BitstreamVeraSans-Roman-61"/>
      <path d="M 30.609375 48.390625 
Q 23.390625 48.390625 19.1875 42.75 
Q 14.984375 37.109375 14.984375 27.296875 
Q 14.984375 17.484375 19.15625 11.84375 
Q 23.34375 6.203125 30.609375 6.203125 
Q 37.796875 6.203125 41.984375 11.859375 
Q 46.1875 17.53125 46.1875 27.296875 
Q 46.1875 37.015625 41.984375 42.703125 
Q 37.796875 48.390625 30.609375 48.390625 
M 30.609375 56 
Q 42.328125 56 49.015625 48.375 
Q 55.71875 40.765625 55.71875 27.296875 
Q 55.71875 13.875 49.015625 6.21875 
Q 42.328125 -1.421875 30.609375 -1.421875 
Q 18.84375 -1.421875 12.171875 6.21875 
Q 5.515625 13.875 5.515625 27.296875 
Q 5.515625 40.765625 12.171875 48.375 
Q 18.84375 56 30.609375 56 
" id="BitstreamVeraSans-Roman-6f"/>
      <path d="M 48.78125 52.59375 
L 48.78125 44.1875 
Q 44.96875 46.296875 41.140625 47.34375 
Q 37.3125 48.390625 33.40625 48.390625 
Q 24.65625 48.390625 19.8125 42.84375 
Q 14.984375 37.3125 14.984375 27.296875 
Q 14.984375 17.28125 19.8125 11.734375 
Q 24.65625 6.203125 33.40625 6.203125 
Q 37.3125 6.203125 41.140625 7.25 
Q 44.96875 8.296875 48.78125 10.40625 
L 48.78125 2.09375 
Q 45.015625 0.34375 40.984375 -0.53125 
Q 36.96875 -1.421875 32.421875 -1.421875 
Q 20.0625 -1.421875 12.78125 6.34375 
Q 5.515625 14.109375 5.515625 27.296875 
Q 5.515625 40.671875 12.859375 48.328125 
Q 20.21875 56 33.015625 56 
Q 37.15625 56 41.109375 55.140625 
Q 45.0625 54.296875 48.78125 52.59375 
" id="BitstreamVeraSans-Roman-63"/>
      <path d="M 52 44.1875 
Q 55.375 50.25 60.0625 53.125 
Q 64.75 56 71.09375 56 
Q 79.640625 56 84.28125 50.015625 
Q 88.921875 44.046875 88.921875 33.015625 
L 88.921875 0 
L 79.890625 0 
L 79.890625 32.71875 
Q 79.890625 40.578125 77.09375 44.375 
Q 74.3125 48.1875 68.609375 48.1875 
Q 61.625 48.1875 57.5625 43.546875 
Q 53.515625 38.921875 53.515625 30.90625 
L 53.515625 0 
L 44.484375 0 
L 44.484375 32.71875 
Q 44.484375 40.625 41.703125 44.40625 
Q 38.921875 48.1875 33.109375 48.1875 
Q 26.21875 48.1875 22.15625 43.53125 
Q 18.109375 38.875 18.109375 30.90625 
L 18.109375 0 
L 9.078125 0 
L 9.078125 54.6875 
L 18.109375 54.6875 
L 18.109375 46.1875 
Q 21.1875 51.21875 25.484375 53.609375 
Q 29.78125 56 35.6875 56 
Q 41.65625 56 45.828125 52.96875 
Q 50 49.953125 52 44.1875 
" id="BitstreamVeraSans-Roman-6d"/>
      <path d="M 25.390625 72.90625 
L 33.6875 72.90625 
L 8.296875 -9.28125 
L 0 -9.28125 
z
" id="BitstreamVeraSans-Roman-2f"/>
      <path d="M 9.078125 75.984375 
L 18.109375 75.984375 
L 18.109375 31.109375 
L 44.921875 54.6875 
L 56.390625 54.6875 
L 27.390625 29.109375 
L 57.625 0 
L 45.90625 0 
L 18.109375 26.703125 
L 18.109375 0 
L 9.078125 0 
z
" id="BitstreamVeraSans-Roman-6b"/>
     </defs>
     <g transform="translate(52.869375 241.3209375)rotate(-90.0)scale(0.12 -0.12)">
      <use xlink:href="#BitstreamVeraSans-Roman-6b"/>
      <use x="57.91015625" xlink:href="#BitstreamVeraSans-Roman-63"/>
      <use x="112.890625" xlink:href="#BitstreamVeraSans-Roman-61"/>
      <use x="174.169921875" xlink:href="#BitstreamVeraSans-Roman-6c"/>
      <use x="201.953125" xlink:href="#BitstreamVeraSans-Roman-2f"/>
      <use x="235.64453125" xlink:href="#BitstreamVeraSans-Roman-6d"/>
      <use x="333.056640625" xlink:href="#BitstreamVeraSans-Roman-6f"/>
      <use x="394.23828125" xlink:href="#BitstreamVeraSans-Roman-6c"/>
     </g>
    </g>
   </g>
   <g id="text_21">
    <!-- C5-C6-C7-H12 -->
    <defs>
     <path d="M 64.40625 67.28125 
L 64.40625 56.890625 
Q 59.421875 61.53125 53.78125 63.8125 
Q 48.140625 66.109375 41.796875 66.109375 
Q 29.296875 66.109375 22.65625 58.46875 
Q 16.015625 50.828125 16.015625 36.375 
Q 16.015625 21.96875 22.65625 14.328125 
Q 29.296875 6.6875 41.796875 6.6875 
Q 48.140625 6.6875 53.78125 8.984375 
Q 59.421875 11.28125 64.40625 15.921875 
L 64.40625 5.609375 
Q 59.234375 2.09375 53.4375 0.328125 
Q 47.65625 -1.421875 41.21875 -1.421875 
Q 24.65625 -1.421875 15.125 8.703125 
Q 5.609375 18.84375 5.609375 36.375 
Q 5.609375 53.953125 15.125 64.078125 
Q 24.65625 74.21875 41.21875 74.21875 
Q 47.75 74.21875 53.53125 72.484375 
Q 59.328125 70.75 64.40625 67.28125 
" id="BitstreamVeraSans-Roman-43"/>
     <path d="M 4.890625 31.390625 
L 31.203125 31.390625 
L 31.203125 23.390625 
L 4.890625 23.390625 
z
" id="BitstreamVeraSans-Roman-2d"/>
     <path d="M 9.8125 72.90625 
L 19.671875 72.90625 
L 19.671875 43.015625 
L 55.515625 43.015625 
L 55.515625 72.90625 
L 65.375 72.90625 
L 65.375 0 
L 55.515625 0 
L 55.515625 34.71875 
L 19.671875 34.71875 
L 19.671875 0 
L 9.8125 0 
z
" id="BitstreamVeraSans-Roman-48"/>
    </defs>
    <g transform="translate(244.004625 38.2)scale(0.144 -0.144)">
     <use xlink:href="#BitstreamVeraSans-Roman-43"/>
     <use x="69.82421875" xlink:href="#BitstreamVeraSans-Roman-35"/>
     <use x="133.447265625" xlink:href="#BitstreamVeraSans-Roman-2d"/>
     <use x="169.53125" xlink:href="#BitstreamVeraSans-Roman-43"/>
     <use x="239.35546875" xlink:href="#BitstreamVeraSans-Roman-36"/>
     <use x="302.978515625" xlink:href="#BitstreamVeraSans-Roman-2d"/>
     <use x="339.0625" xlink:href="#BitstreamVeraSans-Roman-43"/>
     <use x="408.88671875" xlink:href="#BitstreamVeraSans-Roman-37"/>
     <use x="472.509765625" xlink:href="#BitstreamVeraSans-Roman-2d"/>
     <use x="508.59375" xlink:href="#BitstreamVeraSans-Roman-48"/>
     <use x="583.7890625" xlink:href="#BitstreamVeraSans-Roman-31"/>
     <use x="647.412109375" xlink:href="#BitstreamVeraSans-Roman-32"/>
    </g>
   </g>
   <g id="legend_1">
    <g id="patch_7">
     <path d="M 406.15625 108.3125 
L 514.4 108.3125 
L 514.4 47.2 
L 406.15625 47.2 
z
" style="fill:#ffffff;stroke:#000000;stroke-linejoin:miter;"/>
    </g>
    <g id="line2d_42">
     <path d="M 411.75625 53.67875 
L 422.95625 53.67875 
" style="fill:none;stroke:#ff0000;stroke-linecap:square;"/>
    </g>
    <g id="line2d_43">
     <g>
      <use style="fill:#ff0000;stroke:#000000;stroke-width:0.5;" x="411.75625" xlink:href="#m4f53d23633" y="53.67875"/>
      <use style="fill:#ff0000;stroke:#000000;stroke-width:0.5;" x="422.95625" xlink:href="#m4f53d23633" y="53.67875"/>
     </g>
    </g>
    <g id="text_22">
     <!-- QM -->
     <defs>
      <path d="M 39.40625 66.21875 
Q 28.65625 66.21875 22.328125 58.203125 
Q 16.015625 50.203125 16.015625 36.375 
Q 16.015625 22.609375 22.328125 14.59375 
Q 28.65625 6.59375 39.40625 6.59375 
Q 50.140625 6.59375 56.421875 14.59375 
Q 62.703125 22.609375 62.703125 36.375 
Q 62.703125 50.203125 56.421875 58.203125 
Q 50.140625 66.21875 39.40625 66.21875 
M 53.21875 1.3125 
L 66.21875 -12.890625 
L 54.296875 -12.890625 
L 43.5 -1.21875 
Q 41.890625 -1.3125 41.03125 -1.359375 
Q 40.1875 -1.421875 39.40625 -1.421875 
Q 24.03125 -1.421875 14.8125 8.859375 
Q 5.609375 19.140625 5.609375 36.375 
Q 5.609375 53.65625 14.8125 63.9375 
Q 24.03125 74.21875 39.40625 74.21875 
Q 54.734375 74.21875 63.90625 63.9375 
Q 73.09375 53.65625 73.09375 36.375 
Q 73.09375 23.6875 67.984375 14.640625 
Q 62.890625 5.609375 53.21875 1.3125 
" id="BitstreamVeraSans-Roman-51"/>
      <path d="M 9.8125 72.90625 
L 24.515625 72.90625 
L 43.109375 23.296875 
L 61.8125 72.90625 
L 76.515625 72.90625 
L 76.515625 0 
L 66.890625 0 
L 66.890625 64.015625 
L 48.09375 14.015625 
L 38.1875 14.015625 
L 19.390625 64.015625 
L 19.390625 0 
L 9.8125 0 
z
" id="BitstreamVeraSans-Roman-4d"/>
     </defs>
     <g transform="translate(431.75625 56.47875)scale(0.08 -0.08)">
      <use xlink:href="#BitstreamVeraSans-Roman-51"/>
      <use x="78.7109375" xlink:href="#BitstreamVeraSans-Roman-4d"/>
     </g>
    </g>
    <g id="line2d_44">
     <path d="M 411.75625 65.42125 
L 422.95625 65.42125 
" style="fill:none;stroke:#0000ff;stroke-linecap:square;"/>
    </g>
    <g id="line2d_45">
     <g>
      <use style="fill:#0000ff;stroke:#000000;stroke-width:0.5;" x="411.75625" xlink:href="#m309b2a0291" y="65.42125"/>
      <use style="fill:#0000ff;stroke:#000000;stroke-width:0.5;" x="422.95625" xlink:href="#m309b2a0291" y="65.42125"/>
     </g>
    </g>
    <g id="text_23">
     <!-- MM Original -->
     <defs>
      <path d="M 41.109375 46.296875 
Q 39.59375 47.171875 37.8125 47.578125 
Q 36.03125 48 33.890625 48 
Q 26.265625 48 22.1875 43.046875 
Q 18.109375 38.09375 18.109375 28.8125 
L 18.109375 0 
L 9.078125 0 
L 9.078125 54.6875 
L 18.109375 54.6875 
L 18.109375 46.1875 
Q 20.953125 51.171875 25.484375 53.578125 
Q 30.03125 56 36.53125 56 
Q 37.453125 56 38.578125 55.875 
Q 39.703125 55.765625 41.0625 55.515625 
z
" id="BitstreamVeraSans-Roman-72"/>
      <path d="M 54.890625 33.015625 
L 54.890625 0 
L 45.90625 0 
L 45.90625 32.71875 
Q 45.90625 40.484375 42.875 44.328125 
Q 39.84375 48.1875 33.796875 48.1875 
Q 26.515625 48.1875 22.3125 43.546875 
Q 18.109375 38.921875 18.109375 30.90625 
L 18.109375 0 
L 9.078125 0 
L 9.078125 54.6875 
L 18.109375 54.6875 
L 18.109375 46.1875 
Q 21.34375 51.125 25.703125 53.5625 
Q 30.078125 56 35.796875 56 
Q 45.21875 56 50.046875 50.171875 
Q 54.890625 44.34375 54.890625 33.015625 
" id="BitstreamVeraSans-Roman-6e"/>
      <path d="M 39.40625 66.21875 
Q 28.65625 66.21875 22.328125 58.203125 
Q 16.015625 50.203125 16.015625 36.375 
Q 16.015625 22.609375 22.328125 14.59375 
Q 28.65625 6.59375 39.40625 6.59375 
Q 50.140625 6.59375 56.421875 14.59375 
Q 62.703125 22.609375 62.703125 36.375 
Q 62.703125 50.203125 56.421875 58.203125 
Q 50.140625 66.21875 39.40625 66.21875 
M 39.40625 74.21875 
Q 54.734375 74.21875 63.90625 63.9375 
Q 73.09375 53.65625 73.09375 36.375 
Q 73.09375 19.140625 63.90625 8.859375 
Q 54.734375 -1.421875 39.40625 -1.421875 
Q 24.03125 -1.421875 14.8125 8.828125 
Q 5.609375 19.09375 5.609375 36.375 
Q 5.609375 53.65625 14.8125 63.9375 
Q 24.03125 74.21875 39.40625 74.21875 
" id="BitstreamVeraSans-Roman-4f"/>
      <path id="BitstreamVeraSans-Roman-20"/>
      <path d="M 45.40625 27.984375 
Q 45.40625 37.75 41.375 43.109375 
Q 37.359375 48.484375 30.078125 48.484375 
Q 22.859375 48.484375 18.828125 43.109375 
Q 14.796875 37.75 14.796875 27.984375 
Q 14.796875 18.265625 18.828125 12.890625 
Q 22.859375 7.515625 30.078125 7.515625 
Q 37.359375 7.515625 41.375 12.890625 
Q 45.40625 18.265625 45.40625 27.984375 
M 54.390625 6.78125 
Q 54.390625 -7.171875 48.1875 -13.984375 
Q 42 -20.796875 29.203125 -20.796875 
Q 24.46875 -20.796875 20.265625 -20.09375 
Q 16.0625 -19.390625 12.109375 -17.921875 
L 12.109375 -9.1875 
Q 16.0625 -11.328125 19.921875 -12.34375 
Q 23.78125 -13.375 27.78125 -13.375 
Q 36.625 -13.375 41.015625 -8.765625 
Q 45.40625 -4.15625 45.40625 5.171875 
L 45.40625 9.625 
Q 42.625 4.78125 38.28125 2.390625 
Q 33.9375 0 27.875 0 
Q 17.828125 0 11.671875 7.65625 
Q 5.515625 15.328125 5.515625 27.984375 
Q 5.515625 40.671875 11.671875 48.328125 
Q 17.828125 56 27.875 56 
Q 33.9375 56 38.28125 53.609375 
Q 42.625 51.21875 45.40625 46.390625 
L 45.40625 54.6875 
L 54.390625 54.6875 
z
" id="BitstreamVeraSans-Roman-67"/>
     </defs>
     <g transform="translate(431.75625 68.22125)scale(0.08 -0.08)">
      <use xlink:href="#BitstreamVeraSans-Roman-4d"/>
      <use x="86.279296875" xlink:href="#BitstreamVeraSans-Roman-4d"/>
      <use x="172.55859375" xlink:href="#BitstreamVeraSans-Roman-20"/>
      <use x="204.345703125" xlink:href="#BitstreamVeraSans-Roman-4f"/>
      <use x="283.056640625" xlink:href="#BitstreamVeraSans-Roman-72"/>
      <use x="324.169921875" xlink:href="#BitstreamVeraSans-Roman-69"/>
      <use x="351.953125" xlink:href="#BitstreamVeraSans-Roman-67"/>
      <use x="415.4296875" xlink:href="#BitstreamVeraSans-Roman-69"/>
      <use x="443.212890625" xlink:href="#BitstreamVeraSans-Roman-6e"/>
      <use x="506.591796875" xlink:href="#BitstreamVeraSans-Roman-61"/>
      <use x="567.87109375" xlink:href="#BitstreamVeraSans-Roman-6c"/>
     </g>
    </g>
    <g id="line2d_46">
     <path d="M 411.75625 77.16375 
L 422.95625 77.16375 
" style="fill:none;stroke:#000000;stroke-linecap:square;"/>
    </g>
    <g id="line2d_47">
     <g>
      <use style="stroke:#000000;stroke-width:0.5;" x="411.75625" xlink:href="#ma3d6439502" y="77.16375"/>
      <use style="stroke:#000000;stroke-width:0.5;" x="422.95625" xlink:href="#ma3d6439502" y="77.16375"/>
     </g>
    </g>
    <g id="text_24">
     <!-- MM With phi zeroed -->
     <defs>
      <path d="M 18.109375 8.203125 
L 18.109375 -20.796875 
L 9.078125 -20.796875 
L 9.078125 54.6875 
L 18.109375 54.6875 
L 18.109375 46.390625 
Q 20.953125 51.265625 25.265625 53.625 
Q 29.59375 56 35.59375 56 
Q 45.5625 56 51.78125 48.09375 
Q 58.015625 40.1875 58.015625 27.296875 
Q 58.015625 14.40625 51.78125 6.484375 
Q 45.5625 -1.421875 35.59375 -1.421875 
Q 29.59375 -1.421875 25.265625 0.953125 
Q 20.953125 3.328125 18.109375 8.203125 
M 48.6875 27.296875 
Q 48.6875 37.203125 44.609375 42.84375 
Q 40.53125 48.484375 33.40625 48.484375 
Q 26.265625 48.484375 22.1875 42.84375 
Q 18.109375 37.203125 18.109375 27.296875 
Q 18.109375 17.390625 22.1875 11.75 
Q 26.265625 6.109375 33.40625 6.109375 
Q 40.53125 6.109375 44.609375 11.75 
Q 48.6875 17.390625 48.6875 27.296875 
" id="BitstreamVeraSans-Roman-70"/>
      <path d="M 3.328125 72.90625 
L 13.28125 72.90625 
L 28.609375 11.28125 
L 43.890625 72.90625 
L 54.984375 72.90625 
L 70.3125 11.28125 
L 85.59375 72.90625 
L 95.609375 72.90625 
L 77.296875 0 
L 64.890625 0 
L 49.515625 63.28125 
L 33.984375 0 
L 21.578125 0 
z
" id="BitstreamVeraSans-Roman-57"/>
      <path d="M 56.203125 29.59375 
L 56.203125 25.203125 
L 14.890625 25.203125 
Q 15.484375 15.921875 20.484375 11.0625 
Q 25.484375 6.203125 34.421875 6.203125 
Q 39.59375 6.203125 44.453125 7.46875 
Q 49.3125 8.734375 54.109375 11.28125 
L 54.109375 2.78125 
Q 49.265625 0.734375 44.1875 -0.34375 
Q 39.109375 -1.421875 33.890625 -1.421875 
Q 20.796875 -1.421875 13.15625 6.1875 
Q 5.515625 13.8125 5.515625 26.8125 
Q 5.515625 40.234375 12.765625 48.109375 
Q 20.015625 56 32.328125 56 
Q 43.359375 56 49.78125 48.890625 
Q 56.203125 41.796875 56.203125 29.59375 
M 47.21875 32.234375 
Q 47.125 39.59375 43.09375 43.984375 
Q 39.0625 48.390625 32.421875 48.390625 
Q 24.90625 48.390625 20.390625 44.140625 
Q 15.875 39.890625 15.1875 32.171875 
z
" id="BitstreamVeraSans-Roman-65"/>
      <path d="M 18.3125 70.21875 
L 18.3125 54.6875 
L 36.8125 54.6875 
L 36.8125 47.703125 
L 18.3125 47.703125 
L 18.3125 18.015625 
Q 18.3125 11.328125 20.140625 9.421875 
Q 21.96875 7.515625 27.59375 7.515625 
L 36.8125 7.515625 
L 36.8125 0 
L 27.59375 0 
Q 17.1875 0 13.234375 3.875 
Q 9.28125 7.765625 9.28125 18.015625 
L 9.28125 47.703125 
L 2.6875 47.703125 
L 2.6875 54.6875 
L 9.28125 54.6875 
L 9.28125 70.21875 
z
" id="BitstreamVeraSans-Roman-74"/>
      <path d="M 45.40625 46.390625 
L 45.40625 75.984375 
L 54.390625 75.984375 
L 54.390625 0 
L 45.40625 0 
L 45.40625 8.203125 
Q 42.578125 3.328125 38.25 0.953125 
Q 33.9375 -1.421875 27.875 -1.421875 
Q 17.96875 -1.421875 11.734375 6.484375 
Q 5.515625 14.40625 5.515625 27.296875 
Q 5.515625 40.1875 11.734375 48.09375 
Q 17.96875 56 27.875 56 
Q 33.9375 56 38.25 53.625 
Q 42.578125 51.265625 45.40625 46.390625 
M 14.796875 27.296875 
Q 14.796875 17.390625 18.875 11.75 
Q 22.953125 6.109375 30.078125 6.109375 
Q 37.203125 6.109375 41.296875 11.75 
Q 45.40625 17.390625 45.40625 27.296875 
Q 45.40625 37.203125 41.296875 42.84375 
Q 37.203125 48.484375 30.078125 48.484375 
Q 22.953125 48.484375 18.875 42.84375 
Q 14.796875 37.203125 14.796875 27.296875 
" id="BitstreamVeraSans-Roman-64"/>
      <path d="M 5.515625 54.6875 
L 48.1875 54.6875 
L 48.1875 46.484375 
L 14.40625 7.171875 
L 48.1875 7.171875 
L 48.1875 0 
L 4.296875 0 
L 4.296875 8.203125 
L 38.09375 47.515625 
L 5.515625 47.515625 
z
" id="BitstreamVeraSans-Roman-7a"/>
     </defs>
     <g transform="translate(431.75625 79.96375)scale(0.08 -0.08)">
      <use xlink:href="#BitstreamVeraSans-Roman-4d"/>
      <use x="86.279296875" xlink:href="#BitstreamVeraSans-Roman-4d"/>
      <use x="172.55859375" xlink:href="#BitstreamVeraSans-Roman-20"/>
      <use x="204.345703125" xlink:href="#BitstreamVeraSans-Roman-57"/>
      <use x="303.19140625" xlink:href="#BitstreamVeraSans-Roman-69"/>
      <use x="330.974609375" xlink:href="#BitstreamVeraSans-Roman-74"/>
      <use x="370.18359375" xlink:href="#BitstreamVeraSans-Roman-68"/>
      <use x="433.5625" xlink:href="#BitstreamVeraSans-Roman-20"/>
      <use x="465.349609375" xlink:href="#BitstreamVeraSans-Roman-70"/>
      <use x="528.826171875" xlink:href="#BitstreamVeraSans-Roman-68"/>
      <use x="592.205078125" xlink:href="#BitstreamVeraSans-Roman-69"/>
      <use x="619.98828125" xlink:href="#BitstreamVeraSans-Roman-20"/>
      <use x="651.775390625" xlink:href="#BitstreamVeraSans-Roman-7a"/>
      <use x="704.265625" xlink:href="#BitstreamVeraSans-Roman-65"/>
      <use x="765.7890625" xlink:href="#BitstreamVeraSans-Roman-72"/>
      <use x="806.87109375" xlink:href="#BitstreamVeraSans-Roman-6f"/>
      <use x="868.052734375" xlink:href="#BitstreamVeraSans-Roman-65"/>
      <use x="929.576171875" xlink:href="#BitstreamVeraSans-Roman-64"/>
     </g>
    </g>
    <g id="line2d_48">
     <path d="M 411.75625 88.90625 
L 422.95625 88.90625 
" style="fill:none;stroke:#ff00ff;stroke-linecap:square;"/>
    </g>
    <g id="line2d_49">
     <g>
      <use style="fill:#ff00ff;stroke:#ff00ff;stroke-width:0.5;" x="411.75625" xlink:href="#mf90825c54f" y="88.90625"/>
      <use style="fill:#ff00ff;stroke:#ff00ff;stroke-width:0.5;" x="422.95625" xlink:href="#mf90825c54f" y="88.90625"/>
     </g>
    </g>
    <g id="text_25">
     <!-- QM-MM target -->
     <g transform="translate(431.75625 91.70625)scale(0.08 -0.08)">
      <use xlink:href="#BitstreamVeraSans-Roman-51"/>
      <use x="78.7109375" xlink:href="#BitstreamVeraSans-Roman-4d"/>
      <use x="164.990234375" xlink:href="#BitstreamVeraSans-Roman-2d"/>
      <use x="201.07421875" xlink:href="#BitstreamVeraSans-Roman-4d"/>
      <use x="287.353515625" xlink:href="#BitstreamVeraSans-Roman-4d"/>
      <use x="373.6328125" xlink:href="#BitstreamVeraSans-Roman-20"/>
      <use x="405.419921875" xlink:href="#BitstreamVeraSans-Roman-74"/>
      <use x="444.62890625" xlink:href="#BitstreamVeraSans-Roman-61"/>
      <use x="505.908203125" xlink:href="#BitstreamVeraSans-Roman-72"/>
      <use x="547.005859375" xlink:href="#BitstreamVeraSans-Roman-67"/>
      <use x="610.482421875" xlink:href="#BitstreamVeraSans-Roman-65"/>
      <use x="672.005859375" xlink:href="#BitstreamVeraSans-Roman-74"/>
     </g>
    </g>
    <g id="line2d_50">
     <path d="M 411.75625 100.64875 
L 422.95625 100.64875 
" style="fill:none;stroke:#008000;stroke-linecap:square;"/>
    </g>
    <g id="line2d_51">
     <g>
      <use style="fill:#008000;stroke:#000000;stroke-width:0.5;" x="411.75625" xlink:href="#m4b47690be0" y="100.64875"/>
      <use style="fill:#008000;stroke:#000000;stroke-width:0.5;" x="422.95625" xlink:href="#m4b47690be0" y="100.64875"/>
     </g>
    </g>
    <g id="text_26">
     <!-- MM Fitted -->
     <defs>
      <path d="M 9.8125 72.90625 
L 51.703125 72.90625 
L 51.703125 64.59375 
L 19.671875 64.59375 
L 19.671875 43.109375 
L 48.578125 43.109375 
L 48.578125 34.8125 
L 19.671875 34.8125 
L 19.671875 0 
L 9.8125 0 
z
" id="BitstreamVeraSans-Roman-46"/>
     </defs>
     <g transform="translate(431.75625 103.44875)scale(0.08 -0.08)">
      <use xlink:href="#BitstreamVeraSans-Roman-4d"/>
      <use x="86.279296875" xlink:href="#BitstreamVeraSans-Roman-4d"/>
      <use x="172.55859375" xlink:href="#BitstreamVeraSans-Roman-20"/>
      <use x="204.345703125" xlink:href="#BitstreamVeraSans-Roman-46"/>
      <use x="261.755859375" xlink:href="#BitstreamVeraSans-Roman-69"/>
      <use x="289.5390625" xlink:href="#BitstreamVeraSans-Roman-74"/>
      <use x="328.748046875" xlink:href="#BitstreamVeraSans-Roman-74"/>
      <use x="367.95703125" xlink:href="#BitstreamVeraSans-Roman-65"/>
      <use x="429.48046875" xlink:href="#BitstreamVeraSans-Roman-64"/>
     </g>
    </g>
   </g>
  </g>
 </g>
 <defs>
  <clipPath id="p06df125245">
   <rect height="345.6" width="446.4" x="72.0" y="43.2"/>
  </clipPath>
 </defs>
</svg>
