<?xml version="1.0" encoding="utf-8" standalone="no"?>
<!DOCTYPE svg PUBLIC "-//W3C//DTD SVG 1.1//EN"
  "http://www.w3.org/Graphics/SVG/1.1/DTD/svg11.dtd">
<!-- Created with matplotlib (http://matplotlib.org/) -->
<svg height="432pt" version="1.1" viewBox="0 0 576 432" width="576pt" xmlns="http://www.w3.org/2000/svg" xmlns:xlink="http://www.w3.org/1999/xlink">
 <defs>
  <style type="text/css">
*{stroke-linecap:butt;stroke-linejoin:round;stroke-miterlimit:100000;}
  </style>
 </defs>
 <g id="figure_1">
  <g id="patch_1">
   <path d="M 0 432 
L 576 432 
L 576 0 
L 0 0 
z
" style="fill:#ffffff;"/>
  </g>
  <g id="axes_1">
   <g id="patch_2">
    <path d="M 72 388.8 
L 518.4 388.8 
L 518.4 43.2 
L 72 43.2 
z
" style="fill:#ffffff;"/>
   </g>
   <g id="line2d_1">
    <path clip-path="url(#p8bfc201be4)" d="M 71.99944 249.9615 
L 84.399954 246.043927 
L 96.79999 247.622471 
L 109.199969 246.409128 
L 121.599989 240.120008 
L 133.999972 230.444116 
L 146.399969 224.201333 
L 158.799945 227.367097 
L 171.199949 240.940438 
L 183.599988 262.879294 
L 195.999971 289.333897 
L 208.399989 315.358458 
L 220.800019 336.786644 
L 233.200013 353.127748 
L 245.600037 368.137049 
L 257.999993 381.589328 
L 270.399981 388.514888 
L 282.799989 388.8 
L 295.200494 383.250917 
L 307.600015 368.72475 
L 320.000057 342.042097 
L 332.400042 312.172901 
L 344.800009 294.57558 
L 357.200048 280.938911 
L 369.600007 264.775826 
L 382.000015 243.272016 
L 394.399997 217.0125 
L 406.80004 189.694314 
L 419.200017 165.853891 
L 431.600024 149.113364 
L 444.000042 141.935303 
L 456.399972 148.045667 
L 468.800034 186.576021 
L 481.199976 224.840123 
L 493.600014 252.397229 
L 506.000015 261.270243 
" style="fill:none;stroke:#ff0000;stroke-linecap:square;"/>
    <defs>
     <path d="M 0 3 
C 0.795609 3 1.55874 2.683901 2.12132 2.12132 
C 2.683901 1.55874 3 0.795609 3 0 
C 3 -0.795609 2.683901 -1.55874 2.12132 -2.12132 
C 1.55874 -2.683901 0.795609 -3 0 -3 
C -0.795609 -3 -1.55874 -2.683901 -2.12132 -2.12132 
C -2.683901 -1.55874 -3 -0.795609 -3 0 
C -3 0.795609 -2.683901 1.55874 -2.12132 2.12132 
C -1.55874 2.683901 -0.795609 3 0 3 
z
" id="mf80ce2ec15" style="stroke:#000000;stroke-width:0.5;"/>
    </defs>
    <g clip-path="url(#p8bfc201be4)">
     <use style="fill:#ff0000;stroke:#000000;stroke-width:0.5;" x="71.9994400456" xlink:href="#mf80ce2ec15" y="249.961500339"/>
     <use style="fill:#ff0000;stroke:#000000;stroke-width:0.5;" x="84.3999543428" xlink:href="#mf80ce2ec15" y="246.04392672"/>
     <use style="fill:#ff0000;stroke:#000000;stroke-width:0.5;" x="96.7999901352" xlink:href="#mf80ce2ec15" y="247.622471358"/>
     <use style="fill:#ff0000;stroke:#000000;stroke-width:0.5;" x="109.199969454" xlink:href="#mf80ce2ec15" y="246.409128154"/>
     <use style="fill:#ff0000;stroke:#000000;stroke-width:0.5;" x="121.599989212" xlink:href="#mf80ce2ec15" y="240.120008299"/>
     <use style="fill:#ff0000;stroke:#000000;stroke-width:0.5;" x="133.999972179" xlink:href="#mf80ce2ec15" y="230.44411601"/>
     <use style="fill:#ff0000;stroke:#000000;stroke-width:0.5;" x="146.399968744" xlink:href="#mf80ce2ec15" y="224.201333042"/>
     <use style="fill:#ff0000;stroke:#000000;stroke-width:0.5;" x="158.799944853" xlink:href="#mf80ce2ec15" y="227.367096645"/>
     <use style="fill:#ff0000;stroke:#000000;stroke-width:0.5;" x="171.199949222" xlink:href="#mf80ce2ec15" y="240.940437711"/>
     <use style="fill:#ff0000;stroke:#000000;stroke-width:0.5;" x="183.599988411" xlink:href="#mf80ce2ec15" y="262.879294277"/>
     <use style="fill:#ff0000;stroke:#000000;stroke-width:0.5;" x="195.999971277" xlink:href="#mf80ce2ec15" y="289.333896664"/>
     <use style="fill:#ff0000;stroke:#000000;stroke-width:0.5;" x="208.399989078" xlink:href="#mf80ce2ec15" y="315.358458365"/>
     <use style="fill:#ff0000;stroke:#000000;stroke-width:0.5;" x="220.800019388" xlink:href="#mf80ce2ec15" y="336.786644131"/>
     <use style="fill:#ff0000;stroke:#000000;stroke-width:0.5;" x="233.200012655" xlink:href="#mf80ce2ec15" y="353.127747981"/>
     <use style="fill:#ff0000;stroke:#000000;stroke-width:0.5;" x="245.600037275" xlink:href="#mf80ce2ec15" y="368.13704939"/>
     <use style="fill:#ff0000;stroke:#000000;stroke-width:0.5;" x="257.999992577" xlink:href="#mf80ce2ec15" y="381.589328308"/>
     <use style="fill:#ff0000;stroke:#000000;stroke-width:0.5;" x="270.399980741" xlink:href="#mf80ce2ec15" y="388.514887531"/>
     <use style="fill:#ff0000;stroke:#000000;stroke-width:0.5;" x="282.799988995" xlink:href="#mf80ce2ec15" y="388.8"/>
     <use style="fill:#ff0000;stroke:#000000;stroke-width:0.5;" x="295.200493559" xlink:href="#mf80ce2ec15" y="383.250916583"/>
     <use style="fill:#ff0000;stroke:#000000;stroke-width:0.5;" x="307.600014505" xlink:href="#mf80ce2ec15" y="368.724750496"/>
     <use style="fill:#ff0000;stroke:#000000;stroke-width:0.5;" x="320.000057382" xlink:href="#mf80ce2ec15" y="342.04209742"/>
     <use style="fill:#ff0000;stroke:#000000;stroke-width:0.5;" x="332.400041741" xlink:href="#mf80ce2ec15" y="312.172901134"/>
     <use style="fill:#ff0000;stroke:#000000;stroke-width:0.5;" x="344.800009258" xlink:href="#mf80ce2ec15" y="294.575580257"/>
     <use style="fill:#ff0000;stroke:#000000;stroke-width:0.5;" x="357.200047876" xlink:href="#mf80ce2ec15" y="280.938911104"/>
     <use style="fill:#ff0000;stroke:#000000;stroke-width:0.5;" x="369.600006547" xlink:href="#mf80ce2ec15" y="264.775825695"/>
     <use style="fill:#ff0000;stroke:#000000;stroke-width:0.5;" x="382.000014833" xlink:href="#mf80ce2ec15" y="243.272016293"/>
     <use style="fill:#ff0000;stroke:#000000;stroke-width:0.5;" x="394.39999689" xlink:href="#mf80ce2ec15" y="217.012499922"/>
     <use style="fill:#ff0000;stroke:#000000;stroke-width:0.5;" x="406.800039798" xlink:href="#mf80ce2ec15" y="189.694314402"/>
     <use style="fill:#ff0000;stroke:#000000;stroke-width:0.5;" x="419.200017347" xlink:href="#mf80ce2ec15" y="165.853890773"/>
     <use style="fill:#ff0000;stroke:#000000;stroke-width:0.5;" x="431.600024001" xlink:href="#mf80ce2ec15" y="149.113364124"/>
     <use style="fill:#ff0000;stroke:#000000;stroke-width:0.5;" x="444.000042104" xlink:href="#mf80ce2ec15" y="141.935302561"/>
     <use style="fill:#ff0000;stroke:#000000;stroke-width:0.5;" x="456.399971686" xlink:href="#mf80ce2ec15" y="148.045667315"/>
     <use style="fill:#ff0000;stroke:#000000;stroke-width:0.5;" x="468.800033899" xlink:href="#mf80ce2ec15" y="186.576021476"/>
     <use style="fill:#ff0000;stroke:#000000;stroke-width:0.5;" x="481.199976103" xlink:href="#mf80ce2ec15" y="224.84012281"/>
     <use style="fill:#ff0000;stroke:#000000;stroke-width:0.5;" x="493.600014246" xlink:href="#mf80ce2ec15" y="252.397229251"/>
     <use style="fill:#ff0000;stroke:#000000;stroke-width:0.5;" x="506.000014612" xlink:href="#mf80ce2ec15" y="261.27024283"/>
    </g>
   </g>
   <g id="line2d_2">
    <path clip-path="url(#p8bfc201be4)" d="M 71.99944 280.563418 
L 84.399954 267.869281 
L 96.79999 285.158022 
L 109.199969 285.038384 
L 121.599989 267.832858 
L 133.999972 245.903573 
L 146.399969 233.124945 
L 158.799945 237.968799 
L 171.199949 257.57809 
L 183.599988 285.741176 
L 195.999971 314.793671 
L 208.399989 338.971171 
L 220.800019 355.695887 
L 233.200013 368.181727 
L 245.600037 382.805159 
L 257.999993 388.8 
L 270.399981 386.168304 
L 282.799989 380.320203 
L 295.200494 381.058207 
L 307.600015 385.722436 
L 320.000057 388.163561 
L 332.400042 380.678566 
L 344.800009 375.949577 
L 357.200048 372.114826 
L 369.600007 355.576365 
L 382.000015 321.940343 
L 394.399997 272.136417 
L 406.80004 209.784811 
L 419.200017 143.489506 
L 431.600024 87.505426 
L 444.000042 57.796462 
L 456.399972 88.38363 
L 468.800034 143.356597 
L 481.199976 202.893631 
L 493.600014 253.014537 
L 506.000015 281.481921 
" style="fill:none;stroke:#0000ff;stroke-linecap:square;"/>
    <defs>
     <path d="M 0 3 
C 0.795609 3 1.55874 2.683901 2.12132 2.12132 
C 2.683901 1.55874 3 0.795609 3 0 
C 3 -0.795609 2.683901 -1.55874 2.12132 -2.12132 
C 1.55874 -2.683901 0.795609 -3 0 -3 
C -0.795609 -3 -1.55874 -2.683901 -2.12132 -2.12132 
C -2.683901 -1.55874 -3 -0.795609 -3 0 
C -3 0.795609 -2.683901 1.55874 -2.12132 2.12132 
C -1.55874 2.683901 -0.795609 3 0 3 
z
" id="m2ba873589e" style="stroke:#000000;stroke-width:0.5;"/>
    </defs>
    <g clip-path="url(#p8bfc201be4)">
     <use style="fill:#0000ff;stroke:#000000;stroke-width:0.5;" x="71.9994400456" xlink:href="#m2ba873589e" y="280.563417902"/>
     <use style="fill:#0000ff;stroke:#000000;stroke-width:0.5;" x="84.3999543428" xlink:href="#m2ba873589e" y="267.869281059"/>
     <use style="fill:#0000ff;stroke:#000000;stroke-width:0.5;" x="96.7999901352" xlink:href="#m2ba873589e" y="285.158022426"/>
     <use style="fill:#0000ff;stroke:#000000;stroke-width:0.5;" x="109.199969454" xlink:href="#m2ba873589e" y="285.038383507"/>
     <use style="fill:#0000ff;stroke:#000000;stroke-width:0.5;" x="121.599989212" xlink:href="#m2ba873589e" y="267.832858106"/>
     <use style="fill:#0000ff;stroke:#000000;stroke-width:0.5;" x="133.999972179" xlink:href="#m2ba873589e" y="245.903573235"/>
     <use style="fill:#0000ff;stroke:#000000;stroke-width:0.5;" x="146.399968744" xlink:href="#m2ba873589e" y="233.124945248"/>
     <use style="fill:#0000ff;stroke:#000000;stroke-width:0.5;" x="158.799944853" xlink:href="#m2ba873589e" y="237.968798948"/>
     <use style="fill:#0000ff;stroke:#000000;stroke-width:0.5;" x="171.199949222" xlink:href="#m2ba873589e" y="257.5780898"/>
     <use style="fill:#0000ff;stroke:#000000;stroke-width:0.5;" x="183.599988411" xlink:href="#m2ba873589e" y="285.74117616"/>
     <use style="fill:#0000ff;stroke:#000000;stroke-width:0.5;" x="195.999971277" xlink:href="#m2ba873589e" y="314.793671405"/>
     <use style="fill:#0000ff;stroke:#000000;stroke-width:0.5;" x="208.399989078" xlink:href="#m2ba873589e" y="338.971170658"/>
     <use style="fill:#0000ff;stroke:#000000;stroke-width:0.5;" x="220.800019388" xlink:href="#m2ba873589e" y="355.695887066"/>
     <use style="fill:#0000ff;stroke:#000000;stroke-width:0.5;" x="233.200012655" xlink:href="#m2ba873589e" y="368.18172659"/>
     <use style="fill:#0000ff;stroke:#000000;stroke-width:0.5;" x="245.600037275" xlink:href="#m2ba873589e" y="382.805159293"/>
     <use style="fill:#0000ff;stroke:#000000;stroke-width:0.5;" x="257.999992577" xlink:href="#m2ba873589e" y="388.8"/>
     <use style="fill:#0000ff;stroke:#000000;stroke-width:0.5;" x="270.399980741" xlink:href="#m2ba873589e" y="386.168304451"/>
     <use style="fill:#0000ff;stroke:#000000;stroke-width:0.5;" x="282.799988995" xlink:href="#m2ba873589e" y="380.320202807"/>
     <use style="fill:#0000ff;stroke:#000000;stroke-width:0.5;" x="295.200493559" xlink:href="#m2ba873589e" y="381.058207143"/>
     <use style="fill:#0000ff;stroke:#000000;stroke-width:0.5;" x="307.600014505" xlink:href="#m2ba873589e" y="385.722436344"/>
     <use style="fill:#0000ff;stroke:#000000;stroke-width:0.5;" x="320.000057382" xlink:href="#m2ba873589e" y="388.163560646"/>
     <use style="fill:#0000ff;stroke:#000000;stroke-width:0.5;" x="332.400041741" xlink:href="#m2ba873589e" y="380.678565666"/>
     <use style="fill:#0000ff;stroke:#000000;stroke-width:0.5;" x="344.800009258" xlink:href="#m2ba873589e" y="375.949577125"/>
     <use style="fill:#0000ff;stroke:#000000;stroke-width:0.5;" x="357.200047876" xlink:href="#m2ba873589e" y="372.114826124"/>
     <use style="fill:#0000ff;stroke:#000000;stroke-width:0.5;" x="369.600006547" xlink:href="#m2ba873589e" y="355.576365254"/>
     <use style="fill:#0000ff;stroke:#000000;stroke-width:0.5;" x="382.000014833" xlink:href="#m2ba873589e" y="321.940342644"/>
     <use style="fill:#0000ff;stroke:#000000;stroke-width:0.5;" x="394.39999689" xlink:href="#m2ba873589e" y="272.136416999"/>
     <use style="fill:#0000ff;stroke:#000000;stroke-width:0.5;" x="406.800039798" xlink:href="#m2ba873589e" y="209.784811379"/>
     <use style="fill:#0000ff;stroke:#000000;stroke-width:0.5;" x="419.200017347" xlink:href="#m2ba873589e" y="143.489505529"/>
     <use style="fill:#0000ff;stroke:#000000;stroke-width:0.5;" x="431.600024001" xlink:href="#m2ba873589e" y="87.5054257206"/>
     <use style="fill:#0000ff;stroke:#000000;stroke-width:0.5;" x="444.000042104" xlink:href="#m2ba873589e" y="57.7964617539"/>
     <use style="fill:#0000ff;stroke:#000000;stroke-width:0.5;" x="456.399971686" xlink:href="#m2ba873589e" y="88.3836296013"/>
     <use style="fill:#0000ff;stroke:#000000;stroke-width:0.5;" x="468.800033899" xlink:href="#m2ba873589e" y="143.356597284"/>
     <use style="fill:#0000ff;stroke:#000000;stroke-width:0.5;" x="481.199976103" xlink:href="#m2ba873589e" y="202.893631165"/>
     <use style="fill:#0000ff;stroke:#000000;stroke-width:0.5;" x="493.600014246" xlink:href="#m2ba873589e" y="253.014537484"/>
     <use style="fill:#0000ff;stroke:#000000;stroke-width:0.5;" x="506.000014612" xlink:href="#m2ba873589e" y="281.48192075"/>
    </g>
   </g>
   <g id="line2d_3">
    <path clip-path="url(#p8bfc201be4)" d="M 71.99944 270.558759 
L 84.399954 258.803877 
L 96.79999 278.658733 
L 109.199969 282.044459 
L 121.599989 268.344311 
L 133.999972 248.981135 
L 146.399969 237.141772 
L 158.799945 241.046373 
L 171.199949 258.089559 
L 183.599988 282.747264 
L 195.999971 308.294392 
L 208.399989 329.905775 
L 220.800019 345.691229 
L 233.200013 359.116331 
L 245.600037 376.305882 
L 257.999993 385.806082 
L 270.399981 386.679755 
L 282.799989 383.397767 
L 295.200494 385.075034 
L 307.600015 388.8 
L 320.000057 388.675002 
L 332.400042 377.684638 
L 344.800009 369.450288 
L 357.200048 363.049422 
L 369.600007 345.571707 
L 382.000015 312.874948 
L 394.399997 265.637129 
L 406.80004 206.790908 
L 419.200017 144.000966 
L 431.600024 90.582995 
L 444.000042 61.813289 
L 456.399972 91.4612 
L 468.800034 143.868044 
L 481.199976 199.899723 
L 493.600014 246.515247 
L 506.000015 272.416522 
" style="fill:none;stroke:#000000;stroke-linecap:square;"/>
    <defs>
     <path d="M -3 3 
L 3 -3 
M -3 -3 
L 3 3 
" id="m5635931358" style="stroke:#000000;stroke-width:0.5;"/>
    </defs>
    <g clip-path="url(#p8bfc201be4)">
     <use style="stroke:#000000;stroke-width:0.5;" x="71.9994400456" xlink:href="#m5635931358" y="270.558759437"/>
     <use style="stroke:#000000;stroke-width:0.5;" x="84.3999543428" xlink:href="#m5635931358" y="258.803877277"/>
     <use style="stroke:#000000;stroke-width:0.5;" x="96.7999901352" xlink:href="#m5635931358" y="278.658732858"/>
     <use style="stroke:#000000;stroke-width:0.5;" x="109.199969454" xlink:href="#m5635931358" y="282.044458853"/>
     <use style="stroke:#000000;stroke-width:0.5;" x="121.599989212" xlink:href="#m5635931358" y="268.344311158"/>
     <use style="stroke:#000000;stroke-width:0.5;" x="133.999972179" xlink:href="#m5635931358" y="248.981134921"/>
     <use style="stroke:#000000;stroke-width:0.5;" x="146.399968744" xlink:href="#m5635931358" y="237.141772494"/>
     <use style="stroke:#000000;stroke-width:0.5;" x="158.799944853" xlink:href="#m5635931358" y="241.046372914"/>
     <use style="stroke:#000000;stroke-width:0.5;" x="171.199949222" xlink:href="#m5635931358" y="258.089558636"/>
     <use style="stroke:#000000;stroke-width:0.5;" x="183.599988411" xlink:href="#m5635931358" y="282.747263981"/>
     <use style="stroke:#000000;stroke-width:0.5;" x="195.999971277" xlink:href="#m5635931358" y="308.29439173"/>
     <use style="stroke:#000000;stroke-width:0.5;" x="208.399989078" xlink:href="#m5635931358" y="329.905775251"/>
     <use style="stroke:#000000;stroke-width:0.5;" x="220.800019388" xlink:href="#m5635931358" y="345.691228598"/>
     <use style="stroke:#000000;stroke-width:0.5;" x="233.200012655" xlink:href="#m5635931358" y="359.116331439"/>
     <use style="stroke:#000000;stroke-width:0.5;" x="245.600037275" xlink:href="#m5635931358" y="376.305881811"/>
     <use style="stroke:#000000;stroke-width:0.5;" x="257.999992577" xlink:href="#m5635931358" y="385.806082192"/>
     <use style="stroke:#000000;stroke-width:0.5;" x="270.399980741" xlink:href="#m5635931358" y="386.679755331"/>
     <use style="stroke:#000000;stroke-width:0.5;" x="282.799988995" xlink:href="#m5635931358" y="383.397766981"/>
     <use style="stroke:#000000;stroke-width:0.5;" x="295.200493559" xlink:href="#m5635931358" y="385.075034388"/>
     <use style="stroke:#000000;stroke-width:0.5;" x="307.600014505" xlink:href="#m5635931358" y="388.8"/>
     <use style="stroke:#000000;stroke-width:0.5;" x="320.000057382" xlink:href="#m5635931358" y="388.675001753"/>
     <use style="stroke:#000000;stroke-width:0.5;" x="332.400041741" xlink:href="#m5635931358" y="377.684637699"/>
     <use style="stroke:#000000;stroke-width:0.5;" x="344.800009258" xlink:href="#m5635931358" y="369.450287713"/>
     <use style="stroke:#000000;stroke-width:0.5;" x="357.200047876" xlink:href="#m5635931358" y="363.049422013"/>
     <use style="stroke:#000000;stroke-width:0.5;" x="369.600006547" xlink:href="#m5635931358" y="345.571706786"/>
     <use style="stroke:#000000;stroke-width:0.5;" x="382.000014833" xlink:href="#m5635931358" y="312.874947815"/>
     <use style="stroke:#000000;stroke-width:0.5;" x="394.39999689" xlink:href="#m5635931358" y="265.637129162"/>
     <use style="stroke:#000000;stroke-width:0.5;" x="406.800039798" xlink:href="#m5635931358" y="206.79090755"/>
     <use style="stroke:#000000;stroke-width:0.5;" x="419.200017347" xlink:href="#m5635931358" y="144.000965795"/>
     <use style="stroke:#000000;stroke-width:0.5;" x="431.600024001" xlink:href="#m5635931358" y="90.5829950765"/>
     <use style="stroke:#000000;stroke-width:0.5;" x="444.000042104" xlink:href="#m5635931358" y="61.8132890006"/>
     <use style="stroke:#000000;stroke-width:0.5;" x="456.399971686" xlink:href="#m5635931358" y="91.4611995956"/>
     <use style="stroke:#000000;stroke-width:0.5;" x="468.800033899" xlink:href="#m5635931358" y="143.868044412"/>
     <use style="stroke:#000000;stroke-width:0.5;" x="481.199976103" xlink:href="#m5635931358" y="199.899722629"/>
     <use style="stroke:#000000;stroke-width:0.5;" x="493.600014246" xlink:href="#m5635931358" y="246.515246793"/>
     <use style="stroke:#000000;stroke-width:0.5;" x="506.000014612" xlink:href="#m5635931358" y="272.416521563"/>
    </g>
   </g>
   <g id="line2d_4">
    <path clip-path="url(#p8bfc201be4)" d="M 71.99944 288.080727 
L 84.399954 295.918036 
L 96.79999 277.641725 
L 109.199969 273.042656 
L 121.599989 280.453684 
L 133.999972 290.140968 
L 146.399969 295.737547 
L 158.799945 294.99871 
L 171.199949 291.528866 
L 183.599988 288.810017 
L 195.999971 289.717491 
L 208.399989 294.13067 
L 220.800019 299.773402 
L 233.200013 302.689403 
L 245.600037 300.509154 
L 257.999993 304.461233 
L 270.399981 310.513119 
L 282.799989 314.080219 
L 295.200494 306.853869 
L 307.600015 288.602737 
L 320.000057 262.045082 
L 332.400042 243.16625 
L 344.800009 233.803279 
L 357.200048 226.567476 
L 369.600007 227.882105 
L 382.000015 239.075055 
L 394.399997 260.053357 
L 406.80004 291.581393 
L 419.200017 330.530911 
L 431.600024 367.208355 
L 444.000042 388.8 
L 456.399972 365.262454 
L 468.800034 351.385964 
L 481.199976 333.618387 
L 493.600014 314.559969 
L 506.000015 297.531708 
" style="fill:none;stroke:#ff00ff;stroke-linecap:square;"/>
    <defs>
     <path d="M -3 3 
L 3 -3 
M -3 -3 
L 3 3 
" id="m157e61c9c7" style="stroke:#ff00ff;stroke-width:0.5;"/>
    </defs>
    <g clip-path="url(#p8bfc201be4)">
     <use style="fill:#ff00ff;stroke:#ff00ff;stroke-width:0.5;" x="71.9994400456" xlink:href="#m157e61c9c7" y="288.080727341"/>
     <use style="fill:#ff00ff;stroke:#ff00ff;stroke-width:0.5;" x="84.3999543428" xlink:href="#m157e61c9c7" y="295.918035882"/>
     <use style="fill:#ff00ff;stroke:#ff00ff;stroke-width:0.5;" x="96.7999901352" xlink:href="#m157e61c9c7" y="277.64172494"/>
     <use style="fill:#ff00ff;stroke:#ff00ff;stroke-width:0.5;" x="109.199969454" xlink:href="#m157e61c9c7" y="273.042655739"/>
     <use style="fill:#ff00ff;stroke:#ff00ff;stroke-width:0.5;" x="121.599989212" xlink:href="#m157e61c9c7" y="280.45368358"/>
     <use style="fill:#ff00ff;stroke:#ff00ff;stroke-width:0.5;" x="133.999972179" xlink:href="#m157e61c9c7" y="290.140967529"/>
     <use style="fill:#ff00ff;stroke:#ff00ff;stroke-width:0.5;" x="146.399968744" xlink:href="#m157e61c9c7" y="295.737546987"/>
     <use style="fill:#ff00ff;stroke:#ff00ff;stroke-width:0.5;" x="158.799944853" xlink:href="#m157e61c9c7" y="294.998710171"/>
     <use style="fill:#ff00ff;stroke:#ff00ff;stroke-width:0.5;" x="171.199949222" xlink:href="#m157e61c9c7" y="291.528865514"/>
     <use style="fill:#ff00ff;stroke:#ff00ff;stroke-width:0.5;" x="183.599988411" xlink:href="#m157e61c9c7" y="288.810016736"/>
     <use style="fill:#ff00ff;stroke:#ff00ff;stroke-width:0.5;" x="195.999971277" xlink:href="#m157e61c9c7" y="289.717491373"/>
     <use style="fill:#ff00ff;stroke:#ff00ff;stroke-width:0.5;" x="208.399989078" xlink:href="#m157e61c9c7" y="294.130669553"/>
     <use style="fill:#ff00ff;stroke:#ff00ff;stroke-width:0.5;" x="220.800019388" xlink:href="#m157e61c9c7" y="299.773401972"/>
     <use style="fill:#ff00ff;stroke:#ff00ff;stroke-width:0.5;" x="233.200012655" xlink:href="#m157e61c9c7" y="302.689402982"/>
     <use style="fill:#ff00ff;stroke:#ff00ff;stroke-width:0.5;" x="245.600037275" xlink:href="#m157e61c9c7" y="300.509154019"/>
     <use style="fill:#ff00ff;stroke:#ff00ff;stroke-width:0.5;" x="257.999992577" xlink:href="#m157e61c9c7" y="304.461232556"/>
     <use style="fill:#ff00ff;stroke:#ff00ff;stroke-width:0.5;" x="270.399980741" xlink:href="#m157e61c9c7" y="310.513118639"/>
     <use style="fill:#ff00ff;stroke:#ff00ff;stroke-width:0.5;" x="282.799988995" xlink:href="#m157e61c9c7" y="314.080219458"/>
     <use style="fill:#ff00ff;stroke:#ff00ff;stroke-width:0.5;" x="295.200493559" xlink:href="#m157e61c9c7" y="306.853868634"/>
     <use style="fill:#ff00ff;stroke:#ff00ff;stroke-width:0.5;" x="307.600014505" xlink:href="#m157e61c9c7" y="288.602736936"/>
     <use style="fill:#ff00ff;stroke:#ff00ff;stroke-width:0.5;" x="320.000057382" xlink:href="#m157e61c9c7" y="262.045082107"/>
     <use style="fill:#ff00ff;stroke:#ff00ff;stroke-width:0.5;" x="332.400041741" xlink:href="#m157e61c9c7" y="243.166249875"/>
     <use style="fill:#ff00ff;stroke:#ff00ff;stroke-width:0.5;" x="344.800009258" xlink:href="#m157e61c9c7" y="233.803278983"/>
     <use style="fill:#ff00ff;stroke:#ff00ff;stroke-width:0.5;" x="357.200047876" xlink:href="#m157e61c9c7" y="226.56747553"/>
     <use style="fill:#ff00ff;stroke:#ff00ff;stroke-width:0.5;" x="369.600006547" xlink:href="#m157e61c9c7" y="227.882105348"/>
     <use style="fill:#ff00ff;stroke:#ff00ff;stroke-width:0.5;" x="382.000014833" xlink:href="#m157e61c9c7" y="239.075054918"/>
     <use style="fill:#ff00ff;stroke:#ff00ff;stroke-width:0.5;" x="394.39999689" xlink:href="#m157e61c9c7" y="260.053357199"/>
     <use style="fill:#ff00ff;stroke:#ff00ff;stroke-width:0.5;" x="406.800039798" xlink:href="#m157e61c9c7" y="291.581393291"/>
     <use style="fill:#ff00ff;stroke:#ff00ff;stroke-width:0.5;" x="419.200017347" xlink:href="#m157e61c9c7" y="330.530911417"/>
     <use style="fill:#ff00ff;stroke:#ff00ff;stroke-width:0.5;" x="431.600024001" xlink:href="#m157e61c9c7" y="367.208355487"/>
     <use style="fill:#ff00ff;stroke:#ff00ff;stroke-width:0.5;" x="444.000042104" xlink:href="#m157e61c9c7" y="388.8"/>
     <use style="fill:#ff00ff;stroke:#ff00ff;stroke-width:0.5;" x="456.399971686" xlink:href="#m157e61c9c7" y="365.262454159"/>
     <use style="fill:#ff00ff;stroke:#ff00ff;stroke-width:0.5;" x="468.800033899" xlink:href="#m157e61c9c7" y="351.385963504"/>
     <use style="fill:#ff00ff;stroke:#ff00ff;stroke-width:0.5;" x="481.199976103" xlink:href="#m157e61c9c7" y="333.61838662"/>
     <use style="fill:#ff00ff;stroke:#ff00ff;stroke-width:0.5;" x="493.600014246" xlink:href="#m157e61c9c7" y="314.559968898"/>
     <use style="fill:#ff00ff;stroke:#ff00ff;stroke-width:0.5;" x="506.000014612" xlink:href="#m157e61c9c7" y="297.531707706"/>
    </g>
   </g>
   <g id="line2d_5">
    <path clip-path="url(#p8bfc201be4)" d="M 71.99944 263.144861 
L 84.399954 250.689866 
L 96.79999 271.227101 
L 109.199969 281.756336 
L 121.599989 282.538707 
L 133.999972 278.625182 
L 146.399969 273.439349 
L 158.799945 269.608952 
L 171.199949 267.553176 
L 183.599988 270.801531 
L 195.999971 280.704448 
L 208.399989 294.544567 
L 220.800019 307.607825 
L 233.200013 320.623927 
L 245.600037 340.427237 
L 257.999993 358.016614 
L 270.399981 372.071947 
L 282.799989 381.701708 
L 295.200494 388.8 
L 307.600015 387.103938 
L 320.000057 374.067149 
L 332.400042 349.895139 
L 344.800009 333.571625 
L 357.200048 324.557014 
L 369.600007 307.488306 
L 382.000015 277.513741 
L 394.399997 238.047156 
L 406.80004 194.845219 
L 419.200017 153.464524 
L 431.600024 119.145537 
L 444.000042 98.110866 
L 456.399972 121.105304 
L 468.800034 158.062409 
L 481.199976 199.611649 
L 493.600014 239.083614 
L 506.000015 264.302508 
" style="fill:none;stroke:#008000;stroke-linecap:square;"/>
    <defs>
     <path d="M 0 3 
C 0.795609 3 1.55874 2.683901 2.12132 2.12132 
C 2.683901 1.55874 3 0.795609 3 0 
C 3 -0.795609 2.683901 -1.55874 2.12132 -2.12132 
C 1.55874 -2.683901 0.795609 -3 0 -3 
C -0.795609 -3 -1.55874 -2.683901 -2.12132 -2.12132 
C -2.683901 -1.55874 -3 -0.795609 -3 0 
C -3 0.795609 -2.683901 1.55874 -2.12132 2.12132 
C -1.55874 2.683901 -0.795609 3 0 3 
z
" id="mb8b97b3e57" style="stroke:#000000;stroke-width:0.5;"/>
    </defs>
    <g clip-path="url(#p8bfc201be4)">
     <use style="fill:#008000;stroke:#000000;stroke-width:0.5;" x="71.9994400456" xlink:href="#mb8b97b3e57" y="263.144860838"/>
     <use style="fill:#008000;stroke:#000000;stroke-width:0.5;" x="84.3999543428" xlink:href="#mb8b97b3e57" y="250.689865886"/>
     <use style="fill:#008000;stroke:#000000;stroke-width:0.5;" x="96.7999901352" xlink:href="#mb8b97b3e57" y="271.227101468"/>
     <use style="fill:#008000;stroke:#000000;stroke-width:0.5;" x="109.199969454" xlink:href="#mb8b97b3e57" y="281.756336149"/>
     <use style="fill:#008000;stroke:#000000;stroke-width:0.5;" x="121.599989212" xlink:href="#mb8b97b3e57" y="282.538706931"/>
     <use style="fill:#008000;stroke:#000000;stroke-width:0.5;" x="133.999972179" xlink:href="#mb8b97b3e57" y="278.625182118"/>
     <use style="fill:#008000;stroke:#000000;stroke-width:0.5;" x="146.399968744" xlink:href="#mb8b97b3e57" y="273.439348998"/>
     <use style="fill:#008000;stroke:#000000;stroke-width:0.5;" x="158.799944853" xlink:href="#mb8b97b3e57" y="269.608951948"/>
     <use style="fill:#008000;stroke:#000000;stroke-width:0.5;" x="171.199949222" xlink:href="#mb8b97b3e57" y="267.55317594"/>
     <use style="fill:#008000;stroke:#000000;stroke-width:0.5;" x="183.599988411" xlink:href="#mb8b97b3e57" y="270.801531244"/>
     <use style="fill:#008000;stroke:#000000;stroke-width:0.5;" x="195.999971277" xlink:href="#mb8b97b3e57" y="280.704448335"/>
     <use style="fill:#008000;stroke:#000000;stroke-width:0.5;" x="208.399989078" xlink:href="#mb8b97b3e57" y="294.544567262"/>
     <use style="fill:#008000;stroke:#000000;stroke-width:0.5;" x="220.800019388" xlink:href="#mb8b97b3e57" y="307.607824785"/>
     <use style="fill:#008000;stroke:#000000;stroke-width:0.5;" x="233.200012655" xlink:href="#mb8b97b3e57" y="320.623926953"/>
     <use style="fill:#008000;stroke:#000000;stroke-width:0.5;" x="245.600037275" xlink:href="#mb8b97b3e57" y="340.42723747"/>
     <use style="fill:#008000;stroke:#000000;stroke-width:0.5;" x="257.999992577" xlink:href="#mb8b97b3e57" y="358.016614056"/>
     <use style="fill:#008000;stroke:#000000;stroke-width:0.5;" x="270.399980741" xlink:href="#mb8b97b3e57" y="372.071946687"/>
     <use style="fill:#008000;stroke:#000000;stroke-width:0.5;" x="282.799988995" xlink:href="#mb8b97b3e57" y="381.70170809"/>
     <use style="fill:#008000;stroke:#000000;stroke-width:0.5;" x="295.200493559" xlink:href="#mb8b97b3e57" y="388.8"/>
     <use style="fill:#008000;stroke:#000000;stroke-width:0.5;" x="307.600014505" xlink:href="#mb8b97b3e57" y="387.103938222"/>
     <use style="fill:#008000;stroke:#000000;stroke-width:0.5;" x="320.000057382" xlink:href="#mb8b97b3e57" y="374.067149205"/>
     <use style="fill:#008000;stroke:#000000;stroke-width:0.5;" x="332.400041741" xlink:href="#mb8b97b3e57" y="349.895138761"/>
     <use style="fill:#008000;stroke:#000000;stroke-width:0.5;" x="344.800009258" xlink:href="#mb8b97b3e57" y="333.5716245"/>
     <use style="fill:#008000;stroke:#000000;stroke-width:0.5;" x="357.200047876" xlink:href="#mb8b97b3e57" y="324.557014115"/>
     <use style="fill:#008000;stroke:#000000;stroke-width:0.5;" x="369.600006547" xlink:href="#mb8b97b3e57" y="307.488305826"/>
     <use style="fill:#008000;stroke:#000000;stroke-width:0.5;" x="382.000014833" xlink:href="#mb8b97b3e57" y="277.513741279"/>
     <use style="fill:#008000;stroke:#000000;stroke-width:0.5;" x="394.39999689" xlink:href="#mb8b97b3e57" y="238.047156216"/>
     <use style="fill:#008000;stroke:#000000;stroke-width:0.5;" x="406.800039798" xlink:href="#mb8b97b3e57" y="194.84521906"/>
     <use style="fill:#008000;stroke:#000000;stroke-width:0.5;" x="419.200017347" xlink:href="#mb8b97b3e57" y="153.464523977"/>
     <use style="fill:#008000;stroke:#000000;stroke-width:0.5;" x="431.600024001" xlink:href="#mb8b97b3e57" y="119.145537376"/>
     <use style="fill:#008000;stroke:#000000;stroke-width:0.5;" x="444.000042104" xlink:href="#mb8b97b3e57" y="98.110865758"/>
     <use style="fill:#008000;stroke:#000000;stroke-width:0.5;" x="456.399971686" xlink:href="#mb8b97b3e57" y="121.105303743"/>
     <use style="fill:#008000;stroke:#000000;stroke-width:0.5;" x="468.800033899" xlink:href="#mb8b97b3e57" y="158.062409344"/>
     <use style="fill:#008000;stroke:#000000;stroke-width:0.5;" x="481.199976103" xlink:href="#mb8b97b3e57" y="199.611649464"/>
     <use style="fill:#008000;stroke:#000000;stroke-width:0.5;" x="493.600014246" xlink:href="#mb8b97b3e57" y="239.083614268"/>
     <use style="fill:#008000;stroke:#000000;stroke-width:0.5;" x="506.000014612" xlink:href="#mb8b97b3e57" y="264.302507988"/>
    </g>
   </g>
   <g id="patch_3">
    <path d="M 72 388.8 
L 518.4 388.8 
" style="fill:none;stroke:#000000;stroke-linecap:square;stroke-linejoin:miter;"/>
   </g>
   <g id="patch_4">
    <path d="M 72 388.8 
L 72 43.2 
" style="fill:none;stroke:#000000;stroke-linecap:square;stroke-linejoin:miter;"/>
   </g>
   <g id="patch_5">
    <path d="M 518.4 388.8 
L 518.4 43.2 
" style="fill:none;stroke:#000000;stroke-linecap:square;stroke-linejoin:miter;"/>
   </g>
   <g id="patch_6">
    <path d="M 72 43.2 
L 518.4 43.2 
" style="fill:none;stroke:#000000;stroke-linecap:square;stroke-linejoin:miter;"/>
   </g>
   <g id="matplotlib.axis_1">
    <g id="xtick_1">
     <g id="line2d_6">
      <defs>
       <path d="M 0 0 
L 0 -4 
" id="mc9ecfd794a" style="stroke:#000000;stroke-width:0.5;"/>
      </defs>
      <g>
       <use style="stroke:#000000;stroke-width:0.5;" x="72.0" xlink:href="#mc9ecfd794a" y="388.8"/>
      </g>
     </g>
     <g id="line2d_7">
      <defs>
       <path d="M 0 0 
L 0 4 
" id="md7efe96099" style="stroke:#000000;stroke-width:0.5;"/>
      </defs>
      <g>
       <use style="stroke:#000000;stroke-width:0.5;" x="72.0" xlink:href="#md7efe96099" y="43.2"/>
      </g>
     </g>
     <g id="text_1">
      <!-- −180 -->
      <defs>
       <path d="M 12.40625 8.296875 
L 28.515625 8.296875 
L 28.515625 63.921875 
L 10.984375 60.40625 
L 10.984375 69.390625 
L 28.421875 72.90625 
L 38.28125 72.90625 
L 38.28125 8.296875 
L 54.390625 8.296875 
L 54.390625 0 
L 12.40625 0 
z
" id="BitstreamVeraSans-Roman-31"/>
       <path d="M 31.78125 66.40625 
Q 24.171875 66.40625 20.328125 58.90625 
Q 16.5 51.421875 16.5 36.375 
Q 16.5 21.390625 20.328125 13.890625 
Q 24.171875 6.390625 31.78125 6.390625 
Q 39.453125 6.390625 43.28125 13.890625 
Q 47.125 21.390625 47.125 36.375 
Q 47.125 51.421875 43.28125 58.90625 
Q 39.453125 66.40625 31.78125 66.40625 
M 31.78125 74.21875 
Q 44.046875 74.21875 50.515625 64.515625 
Q 56.984375 54.828125 56.984375 36.375 
Q 56.984375 17.96875 50.515625 8.265625 
Q 44.046875 -1.421875 31.78125 -1.421875 
Q 19.53125 -1.421875 13.0625 8.265625 
Q 6.59375 17.96875 6.59375 36.375 
Q 6.59375 54.828125 13.0625 64.515625 
Q 19.53125 74.21875 31.78125 74.21875 
" id="BitstreamVeraSans-Roman-30"/>
       <path d="M 10.59375 35.5 
L 73.1875 35.5 
L 73.1875 27.203125 
L 10.59375 27.203125 
z
" id="BitstreamVeraSans-Roman-2212"/>
       <path d="M 31.78125 34.625 
Q 24.75 34.625 20.71875 30.859375 
Q 16.703125 27.09375 16.703125 20.515625 
Q 16.703125 13.921875 20.71875 10.15625 
Q 24.75 6.390625 31.78125 6.390625 
Q 38.8125 6.390625 42.859375 10.171875 
Q 46.921875 13.96875 46.921875 20.515625 
Q 46.921875 27.09375 42.890625 30.859375 
Q 38.875 34.625 31.78125 34.625 
M 21.921875 38.8125 
Q 15.578125 40.375 12.03125 44.71875 
Q 8.5 49.078125 8.5 55.328125 
Q 8.5 64.0625 14.71875 69.140625 
Q 20.953125 74.21875 31.78125 74.21875 
Q 42.671875 74.21875 48.875 69.140625 
Q 55.078125 64.0625 55.078125 55.328125 
Q 55.078125 49.078125 51.53125 44.71875 
Q 48 40.375 41.703125 38.8125 
Q 48.828125 37.15625 52.796875 32.3125 
Q 56.78125 27.484375 56.78125 20.515625 
Q 56.78125 9.90625 50.3125 4.234375 
Q 43.84375 -1.421875 31.78125 -1.421875 
Q 19.734375 -1.421875 13.25 4.234375 
Q 6.78125 9.90625 6.78125 20.515625 
Q 6.78125 27.484375 10.78125 32.3125 
Q 14.796875 37.15625 21.921875 38.8125 
M 18.3125 54.390625 
Q 18.3125 48.734375 21.84375 45.5625 
Q 25.390625 42.390625 31.78125 42.390625 
Q 38.140625 42.390625 41.71875 45.5625 
Q 45.3125 48.734375 45.3125 54.390625 
Q 45.3125 60.0625 41.71875 63.234375 
Q 38.140625 66.40625 31.78125 66.40625 
Q 25.390625 66.40625 21.84375 63.234375 
Q 18.3125 60.0625 18.3125 54.390625 
" id="BitstreamVeraSans-Roman-38"/>
      </defs>
      <g transform="translate(55.5196875 401.918125)scale(0.12 -0.12)">
       <use xlink:href="#BitstreamVeraSans-Roman-2212"/>
       <use x="83.7890625" xlink:href="#BitstreamVeraSans-Roman-31"/>
       <use x="147.412109375" xlink:href="#BitstreamVeraSans-Roman-38"/>
       <use x="211.03515625" xlink:href="#BitstreamVeraSans-Roman-30"/>
      </g>
     </g>
    </g>
    <g id="xtick_2">
     <g id="line2d_8">
      <g>
       <use style="stroke:#000000;stroke-width:0.5;" x="127.8" xlink:href="#mc9ecfd794a" y="388.8"/>
      </g>
     </g>
     <g id="line2d_9">
      <g>
       <use style="stroke:#000000;stroke-width:0.5;" x="127.8" xlink:href="#md7efe96099" y="43.2"/>
      </g>
     </g>
     <g id="text_2">
      <!-- −135 -->
      <defs>
       <path d="M 40.578125 39.3125 
Q 47.65625 37.796875 51.625 33 
Q 55.609375 28.21875 55.609375 21.1875 
Q 55.609375 10.40625 48.1875 4.484375 
Q 40.765625 -1.421875 27.09375 -1.421875 
Q 22.515625 -1.421875 17.65625 -0.515625 
Q 12.796875 0.390625 7.625 2.203125 
L 7.625 11.71875 
Q 11.71875 9.328125 16.59375 8.109375 
Q 21.484375 6.890625 26.8125 6.890625 
Q 36.078125 6.890625 40.9375 10.546875 
Q 45.796875 14.203125 45.796875 21.1875 
Q 45.796875 27.640625 41.28125 31.265625 
Q 36.765625 34.90625 28.71875 34.90625 
L 20.21875 34.90625 
L 20.21875 43.015625 
L 29.109375 43.015625 
Q 36.375 43.015625 40.234375 45.921875 
Q 44.09375 48.828125 44.09375 54.296875 
Q 44.09375 59.90625 40.109375 62.90625 
Q 36.140625 65.921875 28.71875 65.921875 
Q 24.65625 65.921875 20.015625 65.03125 
Q 15.375 64.15625 9.8125 62.3125 
L 9.8125 71.09375 
Q 15.4375 72.65625 20.34375 73.4375 
Q 25.25 74.21875 29.59375 74.21875 
Q 40.828125 74.21875 47.359375 69.109375 
Q 53.90625 64.015625 53.90625 55.328125 
Q 53.90625 49.265625 50.4375 45.09375 
Q 46.96875 40.921875 40.578125 39.3125 
" id="BitstreamVeraSans-Roman-33"/>
       <path d="M 10.796875 72.90625 
L 49.515625 72.90625 
L 49.515625 64.59375 
L 19.828125 64.59375 
L 19.828125 46.734375 
Q 21.96875 47.46875 24.109375 47.828125 
Q 26.265625 48.1875 28.421875 48.1875 
Q 40.625 48.1875 47.75 41.5 
Q 54.890625 34.8125 54.890625 23.390625 
Q 54.890625 11.625 47.5625 5.09375 
Q 40.234375 -1.421875 26.90625 -1.421875 
Q 22.3125 -1.421875 17.546875 -0.640625 
Q 12.796875 0.140625 7.71875 1.703125 
L 7.71875 11.625 
Q 12.109375 9.234375 16.796875 8.0625 
Q 21.484375 6.890625 26.703125 6.890625 
Q 35.15625 6.890625 40.078125 11.328125 
Q 45.015625 15.765625 45.015625 23.390625 
Q 45.015625 31 40.078125 35.4375 
Q 35.15625 39.890625 26.703125 39.890625 
Q 22.75 39.890625 18.8125 39.015625 
Q 14.890625 38.140625 10.796875 36.28125 
z
" id="BitstreamVeraSans-Roman-35"/>
      </defs>
      <g transform="translate(111.3196875 401.918125)scale(0.12 -0.12)">
       <use xlink:href="#BitstreamVeraSans-Roman-2212"/>
       <use x="83.7890625" xlink:href="#BitstreamVeraSans-Roman-31"/>
       <use x="147.412109375" xlink:href="#BitstreamVeraSans-Roman-33"/>
       <use x="211.03515625" xlink:href="#BitstreamVeraSans-Roman-35"/>
      </g>
     </g>
    </g>
    <g id="xtick_3">
     <g id="line2d_10">
      <g>
       <use style="stroke:#000000;stroke-width:0.5;" x="183.6" xlink:href="#mc9ecfd794a" y="388.8"/>
      </g>
     </g>
     <g id="line2d_11">
      <g>
       <use style="stroke:#000000;stroke-width:0.5;" x="183.6" xlink:href="#md7efe96099" y="43.2"/>
      </g>
     </g>
     <g id="text_3">
      <!-- −90 -->
      <defs>
       <path d="M 10.984375 1.515625 
L 10.984375 10.5 
Q 14.703125 8.734375 18.5 7.8125 
Q 22.3125 6.890625 25.984375 6.890625 
Q 35.75 6.890625 40.890625 13.453125 
Q 46.046875 20.015625 46.78125 33.40625 
Q 43.953125 29.203125 39.59375 26.953125 
Q 35.25 24.703125 29.984375 24.703125 
Q 19.046875 24.703125 12.671875 31.3125 
Q 6.296875 37.9375 6.296875 49.421875 
Q 6.296875 60.640625 12.9375 67.421875 
Q 19.578125 74.21875 30.609375 74.21875 
Q 43.265625 74.21875 49.921875 64.515625 
Q 56.59375 54.828125 56.59375 36.375 
Q 56.59375 19.140625 48.40625 8.859375 
Q 40.234375 -1.421875 26.421875 -1.421875 
Q 22.703125 -1.421875 18.890625 -0.6875 
Q 15.09375 0.046875 10.984375 1.515625 
M 30.609375 32.421875 
Q 37.25 32.421875 41.125 36.953125 
Q 45.015625 41.5 45.015625 49.421875 
Q 45.015625 57.28125 41.125 61.84375 
Q 37.25 66.40625 30.609375 66.40625 
Q 23.96875 66.40625 20.09375 61.84375 
Q 16.21875 57.28125 16.21875 49.421875 
Q 16.21875 41.5 20.09375 36.953125 
Q 23.96875 32.421875 30.609375 32.421875 
" id="BitstreamVeraSans-Roman-39"/>
      </defs>
      <g transform="translate(170.9371875 401.918125)scale(0.12 -0.12)">
       <use xlink:href="#BitstreamVeraSans-Roman-2212"/>
       <use x="83.7890625" xlink:href="#BitstreamVeraSans-Roman-39"/>
       <use x="147.412109375" xlink:href="#BitstreamVeraSans-Roman-30"/>
      </g>
     </g>
    </g>
    <g id="xtick_4">
     <g id="line2d_12">
      <g>
       <use style="stroke:#000000;stroke-width:0.5;" x="239.4" xlink:href="#mc9ecfd794a" y="388.8"/>
      </g>
     </g>
     <g id="line2d_13">
      <g>
       <use style="stroke:#000000;stroke-width:0.5;" x="239.4" xlink:href="#md7efe96099" y="43.2"/>
      </g>
     </g>
     <g id="text_4">
      <!-- −45 -->
      <defs>
       <path d="M 37.796875 64.3125 
L 12.890625 25.390625 
L 37.796875 25.390625 
z
M 35.203125 72.90625 
L 47.609375 72.90625 
L 47.609375 25.390625 
L 58.015625 25.390625 
L 58.015625 17.1875 
L 47.609375 17.1875 
L 47.609375 0 
L 37.796875 0 
L 37.796875 17.1875 
L 4.890625 17.1875 
L 4.890625 26.703125 
z
" id="BitstreamVeraSans-Roman-34"/>
      </defs>
      <g transform="translate(226.7371875 401.918125)scale(0.12 -0.12)">
       <use xlink:href="#BitstreamVeraSans-Roman-2212"/>
       <use x="83.7890625" xlink:href="#BitstreamVeraSans-Roman-34"/>
       <use x="147.412109375" xlink:href="#BitstreamVeraSans-Roman-35"/>
      </g>
     </g>
    </g>
    <g id="xtick_5">
     <g id="line2d_14">
      <g>
       <use style="stroke:#000000;stroke-width:0.5;" x="295.2" xlink:href="#mc9ecfd794a" y="388.8"/>
      </g>
     </g>
     <g id="line2d_15">
      <g>
       <use style="stroke:#000000;stroke-width:0.5;" x="295.2" xlink:href="#md7efe96099" y="43.2"/>
      </g>
     </g>
     <g id="text_5">
      <!-- 0 -->
      <g transform="translate(291.3825 401.918125)scale(0.12 -0.12)">
       <use xlink:href="#BitstreamVeraSans-Roman-30"/>
      </g>
     </g>
    </g>
    <g id="xtick_6">
     <g id="line2d_16">
      <g>
       <use style="stroke:#000000;stroke-width:0.5;" x="351.0" xlink:href="#mc9ecfd794a" y="388.8"/>
      </g>
     </g>
     <g id="line2d_17">
      <g>
       <use style="stroke:#000000;stroke-width:0.5;" x="351.0" xlink:href="#md7efe96099" y="43.2"/>
      </g>
     </g>
     <g id="text_6">
      <!-- 45 -->
      <g transform="translate(343.365 401.918125)scale(0.12 -0.12)">
       <use xlink:href="#BitstreamVeraSans-Roman-34"/>
       <use x="63.623046875" xlink:href="#BitstreamVeraSans-Roman-35"/>
      </g>
     </g>
    </g>
    <g id="xtick_7">
     <g id="line2d_18">
      <g>
       <use style="stroke:#000000;stroke-width:0.5;" x="406.8" xlink:href="#mc9ecfd794a" y="388.8"/>
      </g>
     </g>
     <g id="line2d_19">
      <g>
       <use style="stroke:#000000;stroke-width:0.5;" x="406.8" xlink:href="#md7efe96099" y="43.2"/>
      </g>
     </g>
     <g id="text_7">
      <!-- 90 -->
      <g transform="translate(399.165 401.918125)scale(0.12 -0.12)">
       <use xlink:href="#BitstreamVeraSans-Roman-39"/>
       <use x="63.623046875" xlink:href="#BitstreamVeraSans-Roman-30"/>
      </g>
     </g>
    </g>
    <g id="xtick_8">
     <g id="line2d_20">
      <g>
       <use style="stroke:#000000;stroke-width:0.5;" x="462.6" xlink:href="#mc9ecfd794a" y="388.8"/>
      </g>
     </g>
     <g id="line2d_21">
      <g>
       <use style="stroke:#000000;stroke-width:0.5;" x="462.6" xlink:href="#md7efe96099" y="43.2"/>
      </g>
     </g>
     <g id="text_8">
      <!-- 135 -->
      <g transform="translate(451.1475 401.918125)scale(0.12 -0.12)">
       <use xlink:href="#BitstreamVeraSans-Roman-31"/>
       <use x="63.623046875" xlink:href="#BitstreamVeraSans-Roman-33"/>
       <use x="127.24609375" xlink:href="#BitstreamVeraSans-Roman-35"/>
      </g>
     </g>
    </g>
    <g id="xtick_9">
     <g id="line2d_22">
      <g>
       <use style="stroke:#000000;stroke-width:0.5;" x="518.4" xlink:href="#mc9ecfd794a" y="388.8"/>
      </g>
     </g>
     <g id="line2d_23">
      <g>
       <use style="stroke:#000000;stroke-width:0.5;" x="518.4" xlink:href="#md7efe96099" y="43.2"/>
      </g>
     </g>
     <g id="text_9">
      <!-- 180 -->
      <g transform="translate(506.9475 401.918125)scale(0.12 -0.12)">
       <use xlink:href="#BitstreamVeraSans-Roman-31"/>
       <use x="63.623046875" xlink:href="#BitstreamVeraSans-Roman-38"/>
       <use x="127.24609375" xlink:href="#BitstreamVeraSans-Roman-30"/>
      </g>
     </g>
    </g>
    <g id="text_10">
     <!-- Phi -->
     <defs>
      <path d="M 19.671875 64.796875 
L 19.671875 37.40625 
L 32.078125 37.40625 
Q 38.96875 37.40625 42.71875 40.96875 
Q 46.484375 44.53125 46.484375 51.125 
Q 46.484375 57.671875 42.71875 61.234375 
Q 38.96875 64.796875 32.078125 64.796875 
z
M 9.8125 72.90625 
L 32.078125 72.90625 
Q 44.34375 72.90625 50.609375 67.359375 
Q 56.890625 61.8125 56.890625 51.125 
Q 56.890625 40.328125 50.609375 34.8125 
Q 44.34375 29.296875 32.078125 29.296875 
L 19.671875 29.296875 
L 19.671875 0 
L 9.8125 0 
z
" id="BitstreamVeraSans-Roman-50"/>
      <path d="M 9.421875 54.6875 
L 18.40625 54.6875 
L 18.40625 0 
L 9.421875 0 
z
M 9.421875 75.984375 
L 18.40625 75.984375 
L 18.40625 64.59375 
L 9.421875 64.59375 
z
" id="BitstreamVeraSans-Roman-69"/>
      <path d="M 54.890625 33.015625 
L 54.890625 0 
L 45.90625 0 
L 45.90625 32.71875 
Q 45.90625 40.484375 42.875 44.328125 
Q 39.84375 48.1875 33.796875 48.1875 
Q 26.515625 48.1875 22.3125 43.546875 
Q 18.109375 38.921875 18.109375 30.90625 
L 18.109375 0 
L 9.078125 0 
L 9.078125 75.984375 
L 18.109375 75.984375 
L 18.109375 46.1875 
Q 21.34375 51.125 25.703125 53.5625 
Q 30.078125 56 35.796875 56 
Q 45.21875 56 50.046875 50.171875 
Q 54.890625 44.34375 54.890625 33.015625 
" id="BitstreamVeraSans-Roman-68"/>
     </defs>
     <g transform="translate(286.1128125 418.531875)scale(0.12 -0.12)">
      <use xlink:href="#BitstreamVeraSans-Roman-50"/>
      <use x="60.302734375" xlink:href="#BitstreamVeraSans-Roman-68"/>
      <use x="123.681640625" xlink:href="#BitstreamVeraSans-Roman-69"/>
     </g>
    </g>
   </g>
   <g id="matplotlib.axis_2">
    <g id="ytick_1">
     <g id="line2d_24">
      <defs>
       <path d="M 0 0 
L 4 0 
" id="m368b7d44c2" style="stroke:#000000;stroke-width:0.5;"/>
      </defs>
      <g>
       <use style="stroke:#000000;stroke-width:0.5;" x="72.0" xlink:href="#m368b7d44c2" y="388.8"/>
      </g>
     </g>
     <g id="line2d_25">
      <defs>
       <path d="M 0 0 
L -4 0 
" id="m10c49f9faa" style="stroke:#000000;stroke-width:0.5;"/>
      </defs>
      <g>
       <use style="stroke:#000000;stroke-width:0.5;" x="518.4" xlink:href="#m10c49f9faa" y="388.8"/>
      </g>
     </g>
     <g id="text_11">
      <!-- 0 -->
      <g transform="translate(60.365 392.11125)scale(0.12 -0.12)">
       <use xlink:href="#BitstreamVeraSans-Roman-30"/>
      </g>
     </g>
    </g>
    <g id="ytick_2">
     <g id="line2d_26">
      <g>
       <use style="stroke:#000000;stroke-width:0.5;" x="72.0" xlink:href="#m368b7d44c2" y="339.428571429"/>
      </g>
     </g>
     <g id="line2d_27">
      <g>
       <use style="stroke:#000000;stroke-width:0.5;" x="518.4" xlink:href="#m10c49f9faa" y="339.428571429"/>
      </g>
     </g>
     <g id="text_12">
      <!-- 2 -->
      <defs>
       <path d="M 19.1875 8.296875 
L 53.609375 8.296875 
L 53.609375 0 
L 7.328125 0 
L 7.328125 8.296875 
Q 12.9375 14.109375 22.625 23.890625 
Q 32.328125 33.6875 34.8125 36.53125 
Q 39.546875 41.84375 41.421875 45.53125 
Q 43.3125 49.21875 43.3125 52.78125 
Q 43.3125 58.59375 39.234375 62.25 
Q 35.15625 65.921875 28.609375 65.921875 
Q 23.96875 65.921875 18.8125 64.3125 
Q 13.671875 62.703125 7.8125 59.421875 
L 7.8125 69.390625 
Q 13.765625 71.78125 18.9375 73 
Q 24.125 74.21875 28.421875 74.21875 
Q 39.75 74.21875 46.484375 68.546875 
Q 53.21875 62.890625 53.21875 53.421875 
Q 53.21875 48.921875 51.53125 44.890625 
Q 49.859375 40.875 45.40625 35.40625 
Q 44.1875 33.984375 37.640625 27.21875 
Q 31.109375 20.453125 19.1875 8.296875 
" id="BitstreamVeraSans-Roman-32"/>
      </defs>
      <g transform="translate(60.365 342.739821429)scale(0.12 -0.12)">
       <use xlink:href="#BitstreamVeraSans-Roman-32"/>
      </g>
     </g>
    </g>
    <g id="ytick_3">
     <g id="line2d_28">
      <g>
       <use style="stroke:#000000;stroke-width:0.5;" x="72.0" xlink:href="#m368b7d44c2" y="290.057142857"/>
      </g>
     </g>
     <g id="line2d_29">
      <g>
       <use style="stroke:#000000;stroke-width:0.5;" x="518.4" xlink:href="#m10c49f9faa" y="290.057142857"/>
      </g>
     </g>
     <g id="text_13">
      <!-- 4 -->
      <g transform="translate(60.365 293.368392857)scale(0.12 -0.12)">
       <use xlink:href="#BitstreamVeraSans-Roman-34"/>
      </g>
     </g>
    </g>
    <g id="ytick_4">
     <g id="line2d_30">
      <g>
       <use style="stroke:#000000;stroke-width:0.5;" x="72.0" xlink:href="#m368b7d44c2" y="240.685714286"/>
      </g>
     </g>
     <g id="line2d_31">
      <g>
       <use style="stroke:#000000;stroke-width:0.5;" x="518.4" xlink:href="#m10c49f9faa" y="240.685714286"/>
      </g>
     </g>
     <g id="text_14">
      <!-- 6 -->
      <defs>
       <path d="M 33.015625 40.375 
Q 26.375 40.375 22.484375 35.828125 
Q 18.609375 31.296875 18.609375 23.390625 
Q 18.609375 15.53125 22.484375 10.953125 
Q 26.375 6.390625 33.015625 6.390625 
Q 39.65625 6.390625 43.53125 10.953125 
Q 47.40625 15.53125 47.40625 23.390625 
Q 47.40625 31.296875 43.53125 35.828125 
Q 39.65625 40.375 33.015625 40.375 
M 52.59375 71.296875 
L 52.59375 62.3125 
Q 48.875 64.0625 45.09375 64.984375 
Q 41.3125 65.921875 37.59375 65.921875 
Q 27.828125 65.921875 22.671875 59.328125 
Q 17.53125 52.734375 16.796875 39.40625 
Q 19.671875 43.65625 24.015625 45.921875 
Q 28.375 48.1875 33.59375 48.1875 
Q 44.578125 48.1875 50.953125 41.515625 
Q 57.328125 34.859375 57.328125 23.390625 
Q 57.328125 12.15625 50.6875 5.359375 
Q 44.046875 -1.421875 33.015625 -1.421875 
Q 20.359375 -1.421875 13.671875 8.265625 
Q 6.984375 17.96875 6.984375 36.375 
Q 6.984375 53.65625 15.1875 63.9375 
Q 23.390625 74.21875 37.203125 74.21875 
Q 40.921875 74.21875 44.703125 73.484375 
Q 48.484375 72.75 52.59375 71.296875 
" id="BitstreamVeraSans-Roman-36"/>
      </defs>
      <g transform="translate(60.365 243.996964286)scale(0.12 -0.12)">
       <use xlink:href="#BitstreamVeraSans-Roman-36"/>
      </g>
     </g>
    </g>
    <g id="ytick_5">
     <g id="line2d_32">
      <g>
       <use style="stroke:#000000;stroke-width:0.5;" x="72.0" xlink:href="#m368b7d44c2" y="191.314285714"/>
      </g>
     </g>
     <g id="line2d_33">
      <g>
       <use style="stroke:#000000;stroke-width:0.5;" x="518.4" xlink:href="#m10c49f9faa" y="191.314285714"/>
      </g>
     </g>
     <g id="text_15">
      <!-- 8 -->
      <g transform="translate(60.365 194.625535714)scale(0.12 -0.12)">
       <use xlink:href="#BitstreamVeraSans-Roman-38"/>
      </g>
     </g>
    </g>
    <g id="ytick_6">
     <g id="line2d_34">
      <g>
       <use style="stroke:#000000;stroke-width:0.5;" x="72.0" xlink:href="#m368b7d44c2" y="141.942857143"/>
      </g>
     </g>
     <g id="line2d_35">
      <g>
       <use style="stroke:#000000;stroke-width:0.5;" x="518.4" xlink:href="#m10c49f9faa" y="141.942857143"/>
      </g>
     </g>
     <g id="text_16">
      <!-- 10 -->
      <g transform="translate(52.73 145.254107143)scale(0.12 -0.12)">
       <use xlink:href="#BitstreamVeraSans-Roman-31"/>
       <use x="63.623046875" xlink:href="#BitstreamVeraSans-Roman-30"/>
      </g>
     </g>
    </g>
    <g id="ytick_7">
     <g id="line2d_36">
      <g>
       <use style="stroke:#000000;stroke-width:0.5;" x="72.0" xlink:href="#m368b7d44c2" y="92.5714285714"/>
      </g>
     </g>
     <g id="line2d_37">
      <g>
       <use style="stroke:#000000;stroke-width:0.5;" x="518.4" xlink:href="#m10c49f9faa" y="92.5714285714"/>
      </g>
     </g>
     <g id="text_17">
      <!-- 12 -->
      <g transform="translate(52.73 95.8826785714)scale(0.12 -0.12)">
       <use xlink:href="#BitstreamVeraSans-Roman-31"/>
       <use x="63.623046875" xlink:href="#BitstreamVeraSans-Roman-32"/>
      </g>
     </g>
    </g>
    <g id="ytick_8">
     <g id="line2d_38">
      <g>
       <use style="stroke:#000000;stroke-width:0.5;" x="72.0" xlink:href="#m368b7d44c2" y="43.2"/>
      </g>
     </g>
     <g id="line2d_39">
      <g>
       <use style="stroke:#000000;stroke-width:0.5;" x="518.4" xlink:href="#m10c49f9faa" y="43.2"/>
      </g>
     </g>
     <g id="text_18">
      <!-- 14 -->
      <g transform="translate(52.73 46.51125)scale(0.12 -0.12)">
       <use xlink:href="#BitstreamVeraSans-Roman-31"/>
       <use x="63.623046875" xlink:href="#BitstreamVeraSans-Roman-34"/>
      </g>
     </g>
    </g>
    <g id="text_19">
     <!-- kcal/mol -->
     <defs>
      <path d="M 30.609375 48.390625 
Q 23.390625 48.390625 19.1875 42.75 
Q 14.984375 37.109375 14.984375 27.296875 
Q 14.984375 17.484375 19.15625 11.84375 
Q 23.34375 6.203125 30.609375 6.203125 
Q 37.796875 6.203125 41.984375 11.859375 
Q 46.1875 17.53125 46.1875 27.296875 
Q 46.1875 37.015625 41.984375 42.703125 
Q 37.796875 48.390625 30.609375 48.390625 
M 30.609375 56 
Q 42.328125 56 49.015625 48.375 
Q 55.71875 40.765625 55.71875 27.296875 
Q 55.71875 13.875 49.015625 6.21875 
Q 42.328125 -1.421875 30.609375 -1.421875 
Q 18.84375 -1.421875 12.171875 6.21875 
Q 5.515625 13.875 5.515625 27.296875 
Q 5.515625 40.765625 12.171875 48.375 
Q 18.84375 56 30.609375 56 
" id="BitstreamVeraSans-Roman-6f"/>
      <path d="M 52 44.1875 
Q 55.375 50.25 60.0625 53.125 
Q 64.75 56 71.09375 56 
Q 79.640625 56 84.28125 50.015625 
Q 88.921875 44.046875 88.921875 33.015625 
L 88.921875 0 
L 79.890625 0 
L 79.890625 32.71875 
Q 79.890625 40.578125 77.09375 44.375 
Q 74.3125 48.1875 68.609375 48.1875 
Q 61.625 48.1875 57.5625 43.546875 
Q 53.515625 38.921875 53.515625 30.90625 
L 53.515625 0 
L 44.484375 0 
L 44.484375 32.71875 
Q 44.484375 40.625 41.703125 44.40625 
Q 38.921875 48.1875 33.109375 48.1875 
Q 26.21875 48.1875 22.15625 43.53125 
Q 18.109375 38.875 18.109375 30.90625 
L 18.109375 0 
L 9.078125 0 
L 9.078125 54.6875 
L 18.109375 54.6875 
L 18.109375 46.1875 
Q 21.1875 51.21875 25.484375 53.609375 
Q 29.78125 56 35.6875 56 
Q 41.65625 56 45.828125 52.96875 
Q 50 49.953125 52 44.1875 
" id="BitstreamVeraSans-Roman-6d"/>
      <path d="M 9.078125 75.984375 
L 18.109375 75.984375 
L 18.109375 31.109375 
L 44.921875 54.6875 
L 56.390625 54.6875 
L 27.390625 29.109375 
L 57.625 0 
L 45.90625 0 
L 18.109375 26.703125 
L 18.109375 0 
L 9.078125 0 
z
" id="BitstreamVeraSans-Roman-6b"/>
      <path d="M 34.28125 27.484375 
Q 23.390625 27.484375 19.1875 25 
Q 14.984375 22.515625 14.984375 16.5 
Q 14.984375 11.71875 18.140625 8.90625 
Q 21.296875 6.109375 26.703125 6.109375 
Q 34.1875 6.109375 38.703125 11.40625 
Q 43.21875 16.703125 43.21875 25.484375 
L 43.21875 27.484375 
z
M 52.203125 31.203125 
L 52.203125 0 
L 43.21875 0 
L 43.21875 8.296875 
Q 40.140625 3.328125 35.546875 0.953125 
Q 30.953125 -1.421875 24.3125 -1.421875 
Q 15.921875 -1.421875 10.953125 3.296875 
Q 6 8.015625 6 15.921875 
Q 6 25.140625 12.171875 29.828125 
Q 18.359375 34.515625 30.609375 34.515625 
L 43.21875 34.515625 
L 43.21875 35.40625 
Q 43.21875 41.609375 39.140625 45 
Q 35.0625 48.390625 27.6875 48.390625 
Q 23 48.390625 18.546875 47.265625 
Q 14.109375 46.140625 10.015625 43.890625 
L 10.015625 52.203125 
Q 14.9375 54.109375 19.578125 55.046875 
Q 24.21875 56 28.609375 56 
Q 40.484375 56 46.34375 49.84375 
Q 52.203125 43.703125 52.203125 31.203125 
" id="BitstreamVeraSans-Roman-61"/>
      <path d="M 48.78125 52.59375 
L 48.78125 44.1875 
Q 44.96875 46.296875 41.140625 47.34375 
Q 37.3125 48.390625 33.40625 48.390625 
Q 24.65625 48.390625 19.8125 42.84375 
Q 14.984375 37.3125 14.984375 27.296875 
Q 14.984375 17.28125 19.8125 11.734375 
Q 24.65625 6.203125 33.40625 6.203125 
Q 37.3125 6.203125 41.140625 7.25 
Q 44.96875 8.296875 48.78125 10.40625 
L 48.78125 2.09375 
Q 45.015625 0.34375 40.984375 -0.53125 
Q 36.96875 -1.421875 32.421875 -1.421875 
Q 20.0625 -1.421875 12.78125 6.34375 
Q 5.515625 14.109375 5.515625 27.296875 
Q 5.515625 40.671875 12.859375 48.328125 
Q 20.21875 56 33.015625 56 
Q 37.15625 56 41.109375 55.140625 
Q 45.0625 54.296875 48.78125 52.59375 
" id="BitstreamVeraSans-Roman-63"/>
      <path d="M 9.421875 75.984375 
L 18.40625 75.984375 
L 18.40625 0 
L 9.421875 0 
z
" id="BitstreamVeraSans-Roman-6c"/>
      <path d="M 25.390625 72.90625 
L 33.6875 72.90625 
L 8.296875 -9.28125 
L 0 -9.28125 
z
" id="BitstreamVeraSans-Roman-2f"/>
     </defs>
     <g transform="translate(45.234375 241.3209375)rotate(-90.0)scale(0.12 -0.12)">
      <use xlink:href="#BitstreamVeraSans-Roman-6b"/>
      <use x="57.91015625" xlink:href="#BitstreamVeraSans-Roman-63"/>
      <use x="112.890625" xlink:href="#BitstreamVeraSans-Roman-61"/>
      <use x="174.169921875" xlink:href="#BitstreamVeraSans-Roman-6c"/>
      <use x="201.953125" xlink:href="#BitstreamVeraSans-Roman-2f"/>
      <use x="235.64453125" xlink:href="#BitstreamVeraSans-Roman-6d"/>
      <use x="333.056640625" xlink:href="#BitstreamVeraSans-Roman-6f"/>
      <use x="394.23828125" xlink:href="#BitstreamVeraSans-Roman-6c"/>
     </g>
    </g>
   </g>
   <g id="text_20">
    <!-- H2-C2-O1-C1 -->
    <defs>
     <path d="M 9.8125 72.90625 
L 19.671875 72.90625 
L 19.671875 43.015625 
L 55.515625 43.015625 
L 55.515625 72.90625 
L 65.375 72.90625 
L 65.375 0 
L 55.515625 0 
L 55.515625 34.71875 
L 19.671875 34.71875 
L 19.671875 0 
L 9.8125 0 
z
" id="BitstreamVeraSans-Roman-48"/>
     <path d="M 64.40625 67.28125 
L 64.40625 56.890625 
Q 59.421875 61.53125 53.78125 63.8125 
Q 48.140625 66.109375 41.796875 66.109375 
Q 29.296875 66.109375 22.65625 58.46875 
Q 16.015625 50.828125 16.015625 36.375 
Q 16.015625 21.96875 22.65625 14.328125 
Q 29.296875 6.6875 41.796875 6.6875 
Q 48.140625 6.6875 53.78125 8.984375 
Q 59.421875 11.28125 64.40625 15.921875 
L 64.40625 5.609375 
Q 59.234375 2.09375 53.4375 0.328125 
Q 47.65625 -1.421875 41.21875 -1.421875 
Q 24.65625 -1.421875 15.125 8.703125 
Q 5.609375 18.84375 5.609375 36.375 
Q 5.609375 53.953125 15.125 64.078125 
Q 24.65625 74.21875 41.21875 74.21875 
Q 47.75 74.21875 53.53125 72.484375 
Q 59.328125 70.75 64.40625 67.28125 
" id="BitstreamVeraSans-Roman-43"/>
     <path d="M 39.40625 66.21875 
Q 28.65625 66.21875 22.328125 58.203125 
Q 16.015625 50.203125 16.015625 36.375 
Q 16.015625 22.609375 22.328125 14.59375 
Q 28.65625 6.59375 39.40625 6.59375 
Q 50.140625 6.59375 56.421875 14.59375 
Q 62.703125 22.609375 62.703125 36.375 
Q 62.703125 50.203125 56.421875 58.203125 
Q 50.140625 66.21875 39.40625 66.21875 
M 39.40625 74.21875 
Q 54.734375 74.21875 63.90625 63.9375 
Q 73.09375 53.65625 73.09375 36.375 
Q 73.09375 19.140625 63.90625 8.859375 
Q 54.734375 -1.421875 39.40625 -1.421875 
Q 24.03125 -1.421875 14.8125 8.828125 
Q 5.609375 19.09375 5.609375 36.375 
Q 5.609375 53.65625 14.8125 63.9375 
Q 24.03125 74.21875 39.40625 74.21875 
" id="BitstreamVeraSans-Roman-4f"/>
     <path d="M 4.890625 31.390625 
L 31.203125 31.390625 
L 31.203125 23.390625 
L 4.890625 23.390625 
z
" id="BitstreamVeraSans-Roman-2d"/>
    </defs>
    <g transform="translate(247.94325 38.2)scale(0.144 -0.144)">
     <use xlink:href="#BitstreamVeraSans-Roman-48"/>
     <use x="75.1953125" xlink:href="#BitstreamVeraSans-Roman-32"/>
     <use x="138.818359375" xlink:href="#BitstreamVeraSans-Roman-2d"/>
     <use x="174.90234375" xlink:href="#BitstreamVeraSans-Roman-43"/>
     <use x="244.7265625" xlink:href="#BitstreamVeraSans-Roman-32"/>
     <use x="308.349609375" xlink:href="#BitstreamVeraSans-Roman-2d"/>
     <use x="344.46484375" xlink:href="#BitstreamVeraSans-Roman-4f"/>
     <use x="423.17578125" xlink:href="#BitstreamVeraSans-Roman-31"/>
     <use x="486.798828125" xlink:href="#BitstreamVeraSans-Roman-2d"/>
     <use x="522.8828125" xlink:href="#BitstreamVeraSans-Roman-43"/>
     <use x="592.70703125" xlink:href="#BitstreamVeraSans-Roman-31"/>
    </g>
   </g>
   <g id="legend_1">
    <g id="patch_7">
     <path d="M 406.15625 108.3125 
L 514.4 108.3125 
L 514.4 47.2 
L 406.15625 47.2 
z
" style="fill:#ffffff;stroke:#000000;stroke-linejoin:miter;"/>
    </g>
    <g id="line2d_40">
     <path d="M 411.75625 53.67875 
L 422.95625 53.67875 
" style="fill:none;stroke:#ff0000;stroke-linecap:square;"/>
    </g>
    <g id="line2d_41">
     <g>
      <use style="fill:#ff0000;stroke:#000000;stroke-width:0.5;" x="411.75625" xlink:href="#mf80ce2ec15" y="53.67875"/>
      <use style="fill:#ff0000;stroke:#000000;stroke-width:0.5;" x="422.95625" xlink:href="#mf80ce2ec15" y="53.67875"/>
     </g>
    </g>
    <g id="text_21">
     <!-- QM -->
     <defs>
      <path d="M 9.8125 72.90625 
L 24.515625 72.90625 
L 43.109375 23.296875 
L 61.8125 72.90625 
L 76.515625 72.90625 
L 76.515625 0 
L 66.890625 0 
L 66.890625 64.015625 
L 48.09375 14.015625 
L 38.1875 14.015625 
L 19.390625 64.015625 
L 19.390625 0 
L 9.8125 0 
z
" id="BitstreamVeraSans-Roman-4d"/>
      <path d="M 39.40625 66.21875 
Q 28.65625 66.21875 22.328125 58.203125 
Q 16.015625 50.203125 16.015625 36.375 
Q 16.015625 22.609375 22.328125 14.59375 
Q 28.65625 6.59375 39.40625 6.59375 
Q 50.140625 6.59375 56.421875 14.59375 
Q 62.703125 22.609375 62.703125 36.375 
Q 62.703125 50.203125 56.421875 58.203125 
Q 50.140625 66.21875 39.40625 66.21875 
M 53.21875 1.3125 
L 66.21875 -12.890625 
L 54.296875 -12.890625 
L 43.5 -1.21875 
Q 41.890625 -1.3125 41.03125 -1.359375 
Q 40.1875 -1.421875 39.40625 -1.421875 
Q 24.03125 -1.421875 14.8125 8.859375 
Q 5.609375 19.140625 5.609375 36.375 
Q 5.609375 53.65625 14.8125 63.9375 
Q 24.03125 74.21875 39.40625 74.21875 
Q 54.734375 74.21875 63.90625 63.9375 
Q 73.09375 53.65625 73.09375 36.375 
Q 73.09375 23.6875 67.984375 14.640625 
Q 62.890625 5.609375 53.21875 1.3125 
" id="BitstreamVeraSans-Roman-51"/>
     </defs>
     <g transform="translate(431.75625 56.47875)scale(0.08 -0.08)">
      <use xlink:href="#BitstreamVeraSans-Roman-51"/>
      <use x="78.7109375" xlink:href="#BitstreamVeraSans-Roman-4d"/>
     </g>
    </g>
    <g id="line2d_42">
     <path d="M 411.75625 65.42125 
L 422.95625 65.42125 
" style="fill:none;stroke:#0000ff;stroke-linecap:square;"/>
    </g>
    <g id="line2d_43">
     <g>
      <use style="fill:#0000ff;stroke:#000000;stroke-width:0.5;" x="411.75625" xlink:href="#m2ba873589e" y="65.42125"/>
      <use style="fill:#0000ff;stroke:#000000;stroke-width:0.5;" x="422.95625" xlink:href="#m2ba873589e" y="65.42125"/>
     </g>
    </g>
    <g id="text_22">
     <!-- MM Original -->
     <defs>
      <path d="M 41.109375 46.296875 
Q 39.59375 47.171875 37.8125 47.578125 
Q 36.03125 48 33.890625 48 
Q 26.265625 48 22.1875 43.046875 
Q 18.109375 38.09375 18.109375 28.8125 
L 18.109375 0 
L 9.078125 0 
L 9.078125 54.6875 
L 18.109375 54.6875 
L 18.109375 46.1875 
Q 20.953125 51.171875 25.484375 53.578125 
Q 30.03125 56 36.53125 56 
Q 37.453125 56 38.578125 55.875 
Q 39.703125 55.765625 41.0625 55.515625 
z
" id="BitstreamVeraSans-Roman-72"/>
      <path d="M 54.890625 33.015625 
L 54.890625 0 
L 45.90625 0 
L 45.90625 32.71875 
Q 45.90625 40.484375 42.875 44.328125 
Q 39.84375 48.1875 33.796875 48.1875 
Q 26.515625 48.1875 22.3125 43.546875 
Q 18.109375 38.921875 18.109375 30.90625 
L 18.109375 0 
L 9.078125 0 
L 9.078125 54.6875 
L 18.109375 54.6875 
L 18.109375 46.1875 
Q 21.34375 51.125 25.703125 53.5625 
Q 30.078125 56 35.796875 56 
Q 45.21875 56 50.046875 50.171875 
Q 54.890625 44.34375 54.890625 33.015625 
" id="BitstreamVeraSans-Roman-6e"/>
      <path d="M 45.40625 27.984375 
Q 45.40625 37.75 41.375 43.109375 
Q 37.359375 48.484375 30.078125 48.484375 
Q 22.859375 48.484375 18.828125 43.109375 
Q 14.796875 37.75 14.796875 27.984375 
Q 14.796875 18.265625 18.828125 12.890625 
Q 22.859375 7.515625 30.078125 7.515625 
Q 37.359375 7.515625 41.375 12.890625 
Q 45.40625 18.265625 45.40625 27.984375 
M 54.390625 6.78125 
Q 54.390625 -7.171875 48.1875 -13.984375 
Q 42 -20.796875 29.203125 -20.796875 
Q 24.46875 -20.796875 20.265625 -20.09375 
Q 16.0625 -19.390625 12.109375 -17.921875 
L 12.109375 -9.1875 
Q 16.0625 -11.328125 19.921875 -12.34375 
Q 23.78125 -13.375 27.78125 -13.375 
Q 36.625 -13.375 41.015625 -8.765625 
Q 45.40625 -4.15625 45.40625 5.171875 
L 45.40625 9.625 
Q 42.625 4.78125 38.28125 2.390625 
Q 33.9375 0 27.875 0 
Q 17.828125 0 11.671875 7.65625 
Q 5.515625 15.328125 5.515625 27.984375 
Q 5.515625 40.671875 11.671875 48.328125 
Q 17.828125 56 27.875 56 
Q 33.9375 56 38.28125 53.609375 
Q 42.625 51.21875 45.40625 46.390625 
L 45.40625 54.6875 
L 54.390625 54.6875 
z
" id="BitstreamVeraSans-Roman-67"/>
      <path id="BitstreamVeraSans-Roman-20"/>
     </defs>
     <g transform="translate(431.75625 68.22125)scale(0.08 -0.08)">
      <use xlink:href="#BitstreamVeraSans-Roman-4d"/>
      <use x="86.279296875" xlink:href="#BitstreamVeraSans-Roman-4d"/>
      <use x="172.55859375" xlink:href="#BitstreamVeraSans-Roman-20"/>
      <use x="204.345703125" xlink:href="#BitstreamVeraSans-Roman-4f"/>
      <use x="283.056640625" xlink:href="#BitstreamVeraSans-Roman-72"/>
      <use x="324.169921875" xlink:href="#BitstreamVeraSans-Roman-69"/>
      <use x="351.953125" xlink:href="#BitstreamVeraSans-Roman-67"/>
      <use x="415.4296875" xlink:href="#BitstreamVeraSans-Roman-69"/>
      <use x="443.212890625" xlink:href="#BitstreamVeraSans-Roman-6e"/>
      <use x="506.591796875" xlink:href="#BitstreamVeraSans-Roman-61"/>
      <use x="567.87109375" xlink:href="#BitstreamVeraSans-Roman-6c"/>
     </g>
    </g>
    <g id="line2d_44">
     <path d="M 411.75625 77.16375 
L 422.95625 77.16375 
" style="fill:none;stroke:#000000;stroke-linecap:square;"/>
    </g>
    <g id="line2d_45">
     <g>
      <use style="stroke:#000000;stroke-width:0.5;" x="411.75625" xlink:href="#m5635931358" y="77.16375"/>
      <use style="stroke:#000000;stroke-width:0.5;" x="422.95625" xlink:href="#m5635931358" y="77.16375"/>
     </g>
    </g>
    <g id="text_23">
     <!-- MM With phi zeroed -->
     <defs>
      <path d="M 45.40625 46.390625 
L 45.40625 75.984375 
L 54.390625 75.984375 
L 54.390625 0 
L 45.40625 0 
L 45.40625 8.203125 
Q 42.578125 3.328125 38.25 0.953125 
Q 33.9375 -1.421875 27.875 -1.421875 
Q 17.96875 -1.421875 11.734375 6.484375 
Q 5.515625 14.40625 5.515625 27.296875 
Q 5.515625 40.1875 11.734375 48.09375 
Q 17.96875 56 27.875 56 
Q 33.9375 56 38.25 53.625 
Q 42.578125 51.265625 45.40625 46.390625 
M 14.796875 27.296875 
Q 14.796875 17.390625 18.875 11.75 
Q 22.953125 6.109375 30.078125 6.109375 
Q 37.203125 6.109375 41.296875 11.75 
Q 45.40625 17.390625 45.40625 27.296875 
Q 45.40625 37.203125 41.296875 42.84375 
Q 37.203125 48.484375 30.078125 48.484375 
Q 22.953125 48.484375 18.875 42.84375 
Q 14.796875 37.203125 14.796875 27.296875 
" id="BitstreamVeraSans-Roman-64"/>
      <path d="M 18.3125 70.21875 
L 18.3125 54.6875 
L 36.8125 54.6875 
L 36.8125 47.703125 
L 18.3125 47.703125 
L 18.3125 18.015625 
Q 18.3125 11.328125 20.140625 9.421875 
Q 21.96875 7.515625 27.59375 7.515625 
L 36.8125 7.515625 
L 36.8125 0 
L 27.59375 0 
Q 17.1875 0 13.234375 3.875 
Q 9.28125 7.765625 9.28125 18.015625 
L 9.28125 47.703125 
L 2.6875 47.703125 
L 2.6875 54.6875 
L 9.28125 54.6875 
L 9.28125 70.21875 
z
" id="BitstreamVeraSans-Roman-74"/>
      <path d="M 56.203125 29.59375 
L 56.203125 25.203125 
L 14.890625 25.203125 
Q 15.484375 15.921875 20.484375 11.0625 
Q 25.484375 6.203125 34.421875 6.203125 
Q 39.59375 6.203125 44.453125 7.46875 
Q 49.3125 8.734375 54.109375 11.28125 
L 54.109375 2.78125 
Q 49.265625 0.734375 44.1875 -0.34375 
Q 39.109375 -1.421875 33.890625 -1.421875 
Q 20.796875 -1.421875 13.15625 6.1875 
Q 5.515625 13.8125 5.515625 26.8125 
Q 5.515625 40.234375 12.765625 48.109375 
Q 20.015625 56 32.328125 56 
Q 43.359375 56 49.78125 48.890625 
Q 56.203125 41.796875 56.203125 29.59375 
M 47.21875 32.234375 
Q 47.125 39.59375 43.09375 43.984375 
Q 39.0625 48.390625 32.421875 48.390625 
Q 24.90625 48.390625 20.390625 44.140625 
Q 15.875 39.890625 15.1875 32.171875 
z
" id="BitstreamVeraSans-Roman-65"/>
      <path d="M 18.109375 8.203125 
L 18.109375 -20.796875 
L 9.078125 -20.796875 
L 9.078125 54.6875 
L 18.109375 54.6875 
L 18.109375 46.390625 
Q 20.953125 51.265625 25.265625 53.625 
Q 29.59375 56 35.59375 56 
Q 45.5625 56 51.78125 48.09375 
Q 58.015625 40.1875 58.015625 27.296875 
Q 58.015625 14.40625 51.78125 6.484375 
Q 45.5625 -1.421875 35.59375 -1.421875 
Q 29.59375 -1.421875 25.265625 0.953125 
Q 20.953125 3.328125 18.109375 8.203125 
M 48.6875 27.296875 
Q 48.6875 37.203125 44.609375 42.84375 
Q 40.53125 48.484375 33.40625 48.484375 
Q 26.265625 48.484375 22.1875 42.84375 
Q 18.109375 37.203125 18.109375 27.296875 
Q 18.109375 17.390625 22.1875 11.75 
Q 26.265625 6.109375 33.40625 6.109375 
Q 40.53125 6.109375 44.609375 11.75 
Q 48.6875 17.390625 48.6875 27.296875 
" id="BitstreamVeraSans-Roman-70"/>
      <path d="M 3.328125 72.90625 
L 13.28125 72.90625 
L 28.609375 11.28125 
L 43.890625 72.90625 
L 54.984375 72.90625 
L 70.3125 11.28125 
L 85.59375 72.90625 
L 95.609375 72.90625 
L 77.296875 0 
L 64.890625 0 
L 49.515625 63.28125 
L 33.984375 0 
L 21.578125 0 
z
" id="BitstreamVeraSans-Roman-57"/>
      <path d="M 5.515625 54.6875 
L 48.1875 54.6875 
L 48.1875 46.484375 
L 14.40625 7.171875 
L 48.1875 7.171875 
L 48.1875 0 
L 4.296875 0 
L 4.296875 8.203125 
L 38.09375 47.515625 
L 5.515625 47.515625 
z
" id="BitstreamVeraSans-Roman-7a"/>
     </defs>
     <g transform="translate(431.75625 79.96375)scale(0.08 -0.08)">
      <use xlink:href="#BitstreamVeraSans-Roman-4d"/>
      <use x="86.279296875" xlink:href="#BitstreamVeraSans-Roman-4d"/>
      <use x="172.55859375" xlink:href="#BitstreamVeraSans-Roman-20"/>
      <use x="204.345703125" xlink:href="#BitstreamVeraSans-Roman-57"/>
      <use x="303.19140625" xlink:href="#BitstreamVeraSans-Roman-69"/>
      <use x="330.974609375" xlink:href="#BitstreamVeraSans-Roman-74"/>
      <use x="370.18359375" xlink:href="#BitstreamVeraSans-Roman-68"/>
      <use x="433.5625" xlink:href="#BitstreamVeraSans-Roman-20"/>
      <use x="465.349609375" xlink:href="#BitstreamVeraSans-Roman-70"/>
      <use x="528.826171875" xlink:href="#BitstreamVeraSans-Roman-68"/>
      <use x="592.205078125" xlink:href="#BitstreamVeraSans-Roman-69"/>
      <use x="619.98828125" xlink:href="#BitstreamVeraSans-Roman-20"/>
      <use x="651.775390625" xlink:href="#BitstreamVeraSans-Roman-7a"/>
      <use x="704.265625" xlink:href="#BitstreamVeraSans-Roman-65"/>
      <use x="765.7890625" xlink:href="#BitstreamVeraSans-Roman-72"/>
      <use x="806.87109375" xlink:href="#BitstreamVeraSans-Roman-6f"/>
      <use x="868.052734375" xlink:href="#BitstreamVeraSans-Roman-65"/>
      <use x="929.576171875" xlink:href="#BitstreamVeraSans-Roman-64"/>
     </g>
    </g>
    <g id="line2d_46">
     <path d="M 411.75625 88.90625 
L 422.95625 88.90625 
" style="fill:none;stroke:#ff00ff;stroke-linecap:square;"/>
    </g>
    <g id="line2d_47">
     <g>
      <use style="fill:#ff00ff;stroke:#ff00ff;stroke-width:0.5;" x="411.75625" xlink:href="#m157e61c9c7" y="88.90625"/>
      <use style="fill:#ff00ff;stroke:#ff00ff;stroke-width:0.5;" x="422.95625" xlink:href="#m157e61c9c7" y="88.90625"/>
     </g>
    </g>
    <g id="text_24">
     <!-- QM-MM target -->
     <g transform="translate(431.75625 91.70625)scale(0.08 -0.08)">
      <use xlink:href="#BitstreamVeraSans-Roman-51"/>
      <use x="78.7109375" xlink:href="#BitstreamVeraSans-Roman-4d"/>
      <use x="164.990234375" xlink:href="#BitstreamVeraSans-Roman-2d"/>
      <use x="201.07421875" xlink:href="#BitstreamVeraSans-Roman-4d"/>
      <use x="287.353515625" xlink:href="#BitstreamVeraSans-Roman-4d"/>
      <use x="373.6328125" xlink:href="#BitstreamVeraSans-Roman-20"/>
      <use x="405.419921875" xlink:href="#BitstreamVeraSans-Roman-74"/>
      <use x="444.62890625" xlink:href="#BitstreamVeraSans-Roman-61"/>
      <use x="505.908203125" xlink:href="#BitstreamVeraSans-Roman-72"/>
      <use x="547.005859375" xlink:href="#BitstreamVeraSans-Roman-67"/>
      <use x="610.482421875" xlink:href="#BitstreamVeraSans-Roman-65"/>
      <use x="672.005859375" xlink:href="#BitstreamVeraSans-Roman-74"/>
     </g>
    </g>
    <g id="line2d_48">
     <path d="M 411.75625 100.64875 
L 422.95625 100.64875 
" style="fill:none;stroke:#008000;stroke-linecap:square;"/>
    </g>
    <g id="line2d_49">
     <g>
      <use style="fill:#008000;stroke:#000000;stroke-width:0.5;" x="411.75625" xlink:href="#mb8b97b3e57" y="100.64875"/>
      <use style="fill:#008000;stroke:#000000;stroke-width:0.5;" x="422.95625" xlink:href="#mb8b97b3e57" y="100.64875"/>
     </g>
    </g>
    <g id="text_25">
     <!-- MM Fitted -->
     <defs>
      <path d="M 9.8125 72.90625 
L 51.703125 72.90625 
L 51.703125 64.59375 
L 19.671875 64.59375 
L 19.671875 43.109375 
L 48.578125 43.109375 
L 48.578125 34.8125 
L 19.671875 34.8125 
L 19.671875 0 
L 9.8125 0 
z
" id="BitstreamVeraSans-Roman-46"/>
     </defs>
     <g transform="translate(431.75625 103.44875)scale(0.08 -0.08)">
      <use xlink:href="#BitstreamVeraSans-Roman-4d"/>
      <use x="86.279296875" xlink:href="#BitstreamVeraSans-Roman-4d"/>
      <use x="172.55859375" xlink:href="#BitstreamVeraSans-Roman-20"/>
      <use x="204.345703125" xlink:href="#BitstreamVeraSans-Roman-46"/>
      <use x="261.755859375" xlink:href="#BitstreamVeraSans-Roman-69"/>
      <use x="289.5390625" xlink:href="#BitstreamVeraSans-Roman-74"/>
      <use x="328.748046875" xlink:href="#BitstreamVeraSans-Roman-74"/>
      <use x="367.95703125" xlink:href="#BitstreamVeraSans-Roman-65"/>
      <use x="429.48046875" xlink:href="#BitstreamVeraSans-Roman-64"/>
     </g>
    </g>
   </g>
  </g>
 </g>
 <defs>
  <clipPath id="p8bfc201be4">
   <rect height="345.6" width="446.4" x="72.0" y="43.2"/>
  </clipPath>
 </defs>
</svg>
