<?xml version="1.0" encoding="utf-8" standalone="no"?>
<!DOCTYPE svg PUBLIC "-//W3C//DTD SVG 1.1//EN"
  "http://www.w3.org/Graphics/SVG/1.1/DTD/svg11.dtd">
<!-- Created with matplotlib (http://matplotlib.org/) -->
<svg height="432pt" version="1.1" viewBox="0 0 576 432" width="576pt" xmlns="http://www.w3.org/2000/svg" xmlns:xlink="http://www.w3.org/1999/xlink">
 <defs>
  <style type="text/css">
*{stroke-linecap:butt;stroke-linejoin:round;stroke-miterlimit:100000;}
  </style>
 </defs>
 <g id="figure_1">
  <g id="patch_1">
   <path d="M 0 432 
L 576 432 
L 576 0 
L 0 0 
z
" style="fill:#ffffff;"/>
  </g>
  <g id="axes_1">
   <g id="patch_2">
    <path d="M 72 388.8 
L 518.4 388.8 
L 518.4 43.2 
L 72 43.2 
z
" style="fill:#ffffff;"/>
   </g>
   <g id="line2d_1">
    <path clip-path="url(#pa178f7d7ff)" d="M 71.999354 331.064856 
L 84.399969 303.879587 
L 96.800009 255.206213 
L 109.199948 192.903214 
L 121.599981 130.57949 
L 133.999972 86.383577 
L 146.400008 77.35386 
L 158.79996 107.177214 
L 171.199959 162.446405 
L 183.600014 225.393733 
L 195.999985 280.851993 
L 208.399958 318.687025 
L 220.79997 335.112821 
L 233.200019 332.668803 
L 245.599979 315.72849 
L 258.000009 287.269623 
L 270.400026 254.03641 
L 282.800043 228.774602 
L 295.199338 223.017615 
L 307.600035 240.674804 
L 320.000023 276.497475 
L 332.400034 319.431615 
L 344.800059 357.846606 
L 357.200007 382.666002 
L 369.600048 388.8 
L 382.000054 374.989625 
L 394.400048 343.962084 
L 406.800001 302.388732 
L 419.200032 260.81917 
L 431.600003 231.016969 
L 444.000014 222.14353 
L 456.399979 236.272035 
L 468.800012 266.268236 
L 481.200003 299.427374 
L 493.600004 324.713031 
L 506.000005 336.62626 
" style="fill:none;stroke:#ff0000;stroke-linecap:square;"/>
    <defs>
     <path d="M 0 3 
C 0.795609 3 1.55874 2.683901 2.12132 2.12132 
C 2.683901 1.55874 3 0.795609 3 0 
C 3 -0.795609 2.683901 -1.55874 2.12132 -2.12132 
C 1.55874 -2.683901 0.795609 -3 0 -3 
C -0.795609 -3 -1.55874 -2.683901 -2.12132 -2.12132 
C -2.683901 -1.55874 -3 -0.795609 -3 0 
C -3 0.795609 -2.683901 1.55874 -2.12132 2.12132 
C -1.55874 2.683901 -0.795609 3 0 3 
z
" id="m4411dabeab" style="stroke:#000000;stroke-width:0.5;"/>
    </defs>
    <g clip-path="url(#pa178f7d7ff)">
     <use style="fill:#ff0000;stroke:#000000;stroke-width:0.5;" x="71.9993543866" xlink:href="#m4411dabeab" y="331.064856165"/>
     <use style="fill:#ff0000;stroke:#000000;stroke-width:0.5;" x="84.3999693584" xlink:href="#m4411dabeab" y="303.879586977"/>
     <use style="fill:#ff0000;stroke:#000000;stroke-width:0.5;" x="96.8000092576" xlink:href="#m4411dabeab" y="255.206212774"/>
     <use style="fill:#ff0000;stroke:#000000;stroke-width:0.5;" x="109.199948148" xlink:href="#m4411dabeab" y="192.903213928"/>
     <use style="fill:#ff0000;stroke:#000000;stroke-width:0.5;" x="121.599980873" xlink:href="#m4411dabeab" y="130.579489891"/>
     <use style="fill:#ff0000;stroke:#000000;stroke-width:0.5;" x="133.999972354" xlink:href="#m4411dabeab" y="86.3835773242"/>
     <use style="fill:#ff0000;stroke:#000000;stroke-width:0.5;" x="146.40000801" xlink:href="#m4411dabeab" y="77.3538604772"/>
     <use style="fill:#ff0000;stroke:#000000;stroke-width:0.5;" x="158.799960283" xlink:href="#m4411dabeab" y="107.17721361"/>
     <use style="fill:#ff0000;stroke:#000000;stroke-width:0.5;" x="171.199959153" xlink:href="#m4411dabeab" y="162.446404818"/>
     <use style="fill:#ff0000;stroke:#000000;stroke-width:0.5;" x="183.600013891" xlink:href="#m4411dabeab" y="225.393733463"/>
     <use style="fill:#ff0000;stroke:#000000;stroke-width:0.5;" x="195.999984938" xlink:href="#m4411dabeab" y="280.851992611"/>
     <use style="fill:#ff0000;stroke:#000000;stroke-width:0.5;" x="208.399957794" xlink:href="#m4411dabeab" y="318.687024557"/>
     <use style="fill:#ff0000;stroke:#000000;stroke-width:0.5;" x="220.799970337" xlink:href="#m4411dabeab" y="335.11282132"/>
     <use style="fill:#ff0000;stroke:#000000;stroke-width:0.5;" x="233.200018807" xlink:href="#m4411dabeab" y="332.668802622"/>
     <use style="fill:#ff0000;stroke:#000000;stroke-width:0.5;" x="245.599979193" xlink:href="#m4411dabeab" y="315.72848951"/>
     <use style="fill:#ff0000;stroke:#000000;stroke-width:0.5;" x="258.000008755" xlink:href="#m4411dabeab" y="287.269622873"/>
     <use style="fill:#ff0000;stroke:#000000;stroke-width:0.5;" x="270.400026025" xlink:href="#m4411dabeab" y="254.036409723"/>
     <use style="fill:#ff0000;stroke:#000000;stroke-width:0.5;" x="282.800043133" xlink:href="#m4411dabeab" y="228.774601998"/>
     <use style="fill:#ff0000;stroke:#000000;stroke-width:0.5;" x="295.199337837" xlink:href="#m4411dabeab" y="223.017614836"/>
     <use style="fill:#ff0000;stroke:#000000;stroke-width:0.5;" x="307.600035278" xlink:href="#m4411dabeab" y="240.674804345"/>
     <use style="fill:#ff0000;stroke:#000000;stroke-width:0.5;" x="320.000022834" xlink:href="#m4411dabeab" y="276.497474869"/>
     <use style="fill:#ff0000;stroke:#000000;stroke-width:0.5;" x="332.400034072" xlink:href="#m4411dabeab" y="319.431614944"/>
     <use style="fill:#ff0000;stroke:#000000;stroke-width:0.5;" x="344.800059489" xlink:href="#m4411dabeab" y="357.8466063"/>
     <use style="fill:#ff0000;stroke:#000000;stroke-width:0.5;" x="357.200006882" xlink:href="#m4411dabeab" y="382.666001813"/>
     <use style="fill:#ff0000;stroke:#000000;stroke-width:0.5;" x="369.600047685" xlink:href="#m4411dabeab" y="388.8"/>
     <use style="fill:#ff0000;stroke:#000000;stroke-width:0.5;" x="382.000053968" xlink:href="#m4411dabeab" y="374.989624934"/>
     <use style="fill:#ff0000;stroke:#000000;stroke-width:0.5;" x="394.40004759" xlink:href="#m4411dabeab" y="343.962083678"/>
     <use style="fill:#ff0000;stroke:#000000;stroke-width:0.5;" x="406.800000923" xlink:href="#m4411dabeab" y="302.388731963"/>
     <use style="fill:#ff0000;stroke:#000000;stroke-width:0.5;" x="419.200032142" xlink:href="#m4411dabeab" y="260.819169585"/>
     <use style="fill:#ff0000;stroke:#000000;stroke-width:0.5;" x="431.600003331" xlink:href="#m4411dabeab" y="231.016969355"/>
     <use style="fill:#ff0000;stroke:#000000;stroke-width:0.5;" x="444.000013681" xlink:href="#m4411dabeab" y="222.143529504"/>
     <use style="fill:#ff0000;stroke:#000000;stroke-width:0.5;" x="456.399979073" xlink:href="#m4411dabeab" y="236.272034687"/>
     <use style="fill:#ff0000;stroke:#000000;stroke-width:0.5;" x="468.800011842" xlink:href="#m4411dabeab" y="266.268235534"/>
     <use style="fill:#ff0000;stroke:#000000;stroke-width:0.5;" x="481.200003328" xlink:href="#m4411dabeab" y="299.427373616"/>
     <use style="fill:#ff0000;stroke:#000000;stroke-width:0.5;" x="493.600003998" xlink:href="#m4411dabeab" y="324.7130305"/>
     <use style="fill:#ff0000;stroke:#000000;stroke-width:0.5;" x="506.000005173" xlink:href="#m4411dabeab" y="336.626259554"/>
    </g>
   </g>
   <g id="line2d_2">
    <path clip-path="url(#pa178f7d7ff)" d="M 71.999354 347.004379 
L 84.399969 325.584874 
L 96.800009 285.075809 
L 109.199948 232.787873 
L 121.599981 179.673826 
L 133.999972 141.690393 
L 146.400008 133.634178 
L 158.79996 158.279338 
L 171.199959 204.499313 
L 183.600014 257.076757 
L 195.999985 303.558039 
L 208.399958 336.090492 
L 220.79997 350.736707 
L 233.200019 347.758079 
L 245.599979 326.203375 
L 258.000009 289.135957 
L 270.400026 246.093175 
L 282.800043 214.268776 
L 295.199338 205.107017 
L 307.600035 223.447074 
L 320.000023 262.446298 
L 332.400034 309.392311 
L 344.800059 352.143831 
L 357.200007 380.749492 
L 369.600048 388.8 
L 382.000054 374.330646 
L 394.400048 340.338092 
L 406.800001 294.257437 
L 419.200032 247.634659 
L 431.600003 213.902168 
L 444.000014 203.580656 
L 456.399979 221.178011 
L 468.800012 258.708889 
L 481.200003 301.487572 
L 493.600004 334.530304 
L 506.000005 350.415587 
" style="fill:none;stroke:#0000ff;stroke-linecap:square;"/>
    <defs>
     <path d="M 0 3 
C 0.795609 3 1.55874 2.683901 2.12132 2.12132 
C 2.683901 1.55874 3 0.795609 3 0 
C 3 -0.795609 2.683901 -1.55874 2.12132 -2.12132 
C 1.55874 -2.683901 0.795609 -3 0 -3 
C -0.795609 -3 -1.55874 -2.683901 -2.12132 -2.12132 
C -2.683901 -1.55874 -3 -0.795609 -3 0 
C -3 0.795609 -2.683901 1.55874 -2.12132 2.12132 
C -1.55874 2.683901 -0.795609 3 0 3 
z
" id="mc3c1def235" style="stroke:#000000;stroke-width:0.5;"/>
    </defs>
    <g clip-path="url(#pa178f7d7ff)">
     <use style="fill:#0000ff;stroke:#000000;stroke-width:0.5;" x="71.9993543866" xlink:href="#mc3c1def235" y="347.004378921"/>
     <use style="fill:#0000ff;stroke:#000000;stroke-width:0.5;" x="84.3999693584" xlink:href="#mc3c1def235" y="325.584873837"/>
     <use style="fill:#0000ff;stroke:#000000;stroke-width:0.5;" x="96.8000092576" xlink:href="#mc3c1def235" y="285.075808606"/>
     <use style="fill:#0000ff;stroke:#000000;stroke-width:0.5;" x="109.199948148" xlink:href="#mc3c1def235" y="232.787872696"/>
     <use style="fill:#0000ff;stroke:#000000;stroke-width:0.5;" x="121.599980873" xlink:href="#mc3c1def235" y="179.673825847"/>
     <use style="fill:#0000ff;stroke:#000000;stroke-width:0.5;" x="133.999972354" xlink:href="#mc3c1def235" y="141.690393222"/>
     <use style="fill:#0000ff;stroke:#000000;stroke-width:0.5;" x="146.40000801" xlink:href="#mc3c1def235" y="133.634178104"/>
     <use style="fill:#0000ff;stroke:#000000;stroke-width:0.5;" x="158.799960283" xlink:href="#mc3c1def235" y="158.279337914"/>
     <use style="fill:#0000ff;stroke:#000000;stroke-width:0.5;" x="171.199959153" xlink:href="#mc3c1def235" y="204.499313068"/>
     <use style="fill:#0000ff;stroke:#000000;stroke-width:0.5;" x="183.600013891" xlink:href="#mc3c1def235" y="257.076757422"/>
     <use style="fill:#0000ff;stroke:#000000;stroke-width:0.5;" x="195.999984938" xlink:href="#mc3c1def235" y="303.558038949"/>
     <use style="fill:#0000ff;stroke:#000000;stroke-width:0.5;" x="208.399957794" xlink:href="#mc3c1def235" y="336.090492031"/>
     <use style="fill:#0000ff;stroke:#000000;stroke-width:0.5;" x="220.799970337" xlink:href="#mc3c1def235" y="350.736707231"/>
     <use style="fill:#0000ff;stroke:#000000;stroke-width:0.5;" x="233.200018807" xlink:href="#mc3c1def235" y="347.758078837"/>
     <use style="fill:#0000ff;stroke:#000000;stroke-width:0.5;" x="245.599979193" xlink:href="#mc3c1def235" y="326.203375044"/>
     <use style="fill:#0000ff;stroke:#000000;stroke-width:0.5;" x="258.000008755" xlink:href="#mc3c1def235" y="289.135957105"/>
     <use style="fill:#0000ff;stroke:#000000;stroke-width:0.5;" x="270.400026025" xlink:href="#mc3c1def235" y="246.093175223"/>
     <use style="fill:#0000ff;stroke:#000000;stroke-width:0.5;" x="282.800043133" xlink:href="#mc3c1def235" y="214.268775511"/>
     <use style="fill:#0000ff;stroke:#000000;stroke-width:0.5;" x="295.199337837" xlink:href="#mc3c1def235" y="205.107016656"/>
     <use style="fill:#0000ff;stroke:#000000;stroke-width:0.5;" x="307.600035278" xlink:href="#mc3c1def235" y="223.447074191"/>
     <use style="fill:#0000ff;stroke:#000000;stroke-width:0.5;" x="320.000022834" xlink:href="#mc3c1def235" y="262.446297973"/>
     <use style="fill:#0000ff;stroke:#000000;stroke-width:0.5;" x="332.400034072" xlink:href="#mc3c1def235" y="309.392311011"/>
     <use style="fill:#0000ff;stroke:#000000;stroke-width:0.5;" x="344.800059489" xlink:href="#mc3c1def235" y="352.143830552"/>
     <use style="fill:#0000ff;stroke:#000000;stroke-width:0.5;" x="357.200006882" xlink:href="#mc3c1def235" y="380.749491605"/>
     <use style="fill:#0000ff;stroke:#000000;stroke-width:0.5;" x="369.600047685" xlink:href="#mc3c1def235" y="388.8"/>
     <use style="fill:#0000ff;stroke:#000000;stroke-width:0.5;" x="382.000053968" xlink:href="#mc3c1def235" y="374.330646486"/>
     <use style="fill:#0000ff;stroke:#000000;stroke-width:0.5;" x="394.40004759" xlink:href="#mc3c1def235" y="340.338092383"/>
     <use style="fill:#0000ff;stroke:#000000;stroke-width:0.5;" x="406.800000923" xlink:href="#mc3c1def235" y="294.25743738"/>
     <use style="fill:#0000ff;stroke:#000000;stroke-width:0.5;" x="419.200032142" xlink:href="#mc3c1def235" y="247.634659072"/>
     <use style="fill:#0000ff;stroke:#000000;stroke-width:0.5;" x="431.600003331" xlink:href="#mc3c1def235" y="213.902167511"/>
     <use style="fill:#0000ff;stroke:#000000;stroke-width:0.5;" x="444.000013681" xlink:href="#mc3c1def235" y="203.580656284"/>
     <use style="fill:#0000ff;stroke:#000000;stroke-width:0.5;" x="456.399979073" xlink:href="#mc3c1def235" y="221.17801127"/>
     <use style="fill:#0000ff;stroke:#000000;stroke-width:0.5;" x="468.800011842" xlink:href="#mc3c1def235" y="258.708888808"/>
     <use style="fill:#0000ff;stroke:#000000;stroke-width:0.5;" x="481.200003328" xlink:href="#mc3c1def235" y="301.487571989"/>
     <use style="fill:#0000ff;stroke:#000000;stroke-width:0.5;" x="493.600003998" xlink:href="#mc3c1def235" y="334.530303929"/>
     <use style="fill:#0000ff;stroke:#000000;stroke-width:0.5;" x="506.000005173" xlink:href="#mc3c1def235" y="350.415586875"/>
    </g>
   </g>
   <g id="line2d_3">
    <path clip-path="url(#pa178f7d7ff)" d="M 71.999354 347.034979 
L 84.399969 328.382675 
L 96.800009 293.961614 
L 109.199948 249.624529 
L 121.599981 204.356649 
L 133.999972 171.737966 
L 146.400008 164.691672 
L 158.79996 185.705626 
L 171.199959 225.095189 
L 183.600014 269.737166 
L 195.999985 309.167683 
L 208.399958 337.167977 
L 220.79997 350.84418 
L 233.200019 350.731451 
L 245.599979 335.226392 
L 258.000009 305.945176 
L 270.400026 270.585262 
L 282.800043 244.166785 
L 295.199338 236.346424 
L 307.600035 251.475386 
L 320.000023 283.829249 
L 332.400034 322.721406 
L 344.800059 358.157864 
L 357.200007 381.9531 
L 369.600048 388.8 
L 382.000054 377.036394 
L 394.400048 349.064751 
L 406.800001 310.917877 
L 419.200032 272.09006 
L 431.600003 243.793688 
L 444.000014 234.832061 
L 456.399979 249.284495 
L 468.800012 280.244958 
L 481.200003 314.959445 
L 493.600004 340.598211 
L 506.000005 351.603812 
" style="fill:none;stroke:#000000;stroke-linecap:square;"/>
    <defs>
     <path d="M -3 3 
L 3 -3 
M -3 -3 
L 3 3 
" id="m7acce0d3b0" style="stroke:#000000;stroke-width:0.5;"/>
    </defs>
    <g clip-path="url(#pa178f7d7ff)">
     <use style="stroke:#000000;stroke-width:0.5;" x="71.9993543866" xlink:href="#m7acce0d3b0" y="347.034978518"/>
     <use style="stroke:#000000;stroke-width:0.5;" x="84.3999693584" xlink:href="#m7acce0d3b0" y="328.382675051"/>
     <use style="stroke:#000000;stroke-width:0.5;" x="96.8000092576" xlink:href="#m7acce0d3b0" y="293.961613648"/>
     <use style="stroke:#000000;stroke-width:0.5;" x="109.199948148" xlink:href="#m7acce0d3b0" y="249.624528658"/>
     <use style="stroke:#000000;stroke-width:0.5;" x="121.599980873" xlink:href="#m7acce0d3b0" y="204.356649472"/>
     <use style="stroke:#000000;stroke-width:0.5;" x="133.999972354" xlink:href="#m7acce0d3b0" y="171.737965875"/>
     <use style="stroke:#000000;stroke-width:0.5;" x="146.40000801" xlink:href="#m7acce0d3b0" y="164.691672029"/>
     <use style="stroke:#000000;stroke-width:0.5;" x="158.799960283" xlink:href="#m7acce0d3b0" y="185.705626379"/>
     <use style="stroke:#000000;stroke-width:0.5;" x="171.199959153" xlink:href="#m7acce0d3b0" y="225.095189416"/>
     <use style="stroke:#000000;stroke-width:0.5;" x="183.600013891" xlink:href="#m7acce0d3b0" y="269.737166013"/>
     <use style="stroke:#000000;stroke-width:0.5;" x="195.999984938" xlink:href="#m7acce0d3b0" y="309.167683174"/>
     <use style="stroke:#000000;stroke-width:0.5;" x="208.399957794" xlink:href="#m7acce0d3b0" y="337.167977395"/>
     <use style="stroke:#000000;stroke-width:0.5;" x="220.799970337" xlink:href="#m7acce0d3b0" y="350.844180484"/>
     <use style="stroke:#000000;stroke-width:0.5;" x="233.200018807" xlink:href="#m7acce0d3b0" y="350.731451126"/>
     <use style="stroke:#000000;stroke-width:0.5;" x="245.599979193" xlink:href="#m7acce0d3b0" y="335.226392468"/>
     <use style="stroke:#000000;stroke-width:0.5;" x="258.000008755" xlink:href="#m7acce0d3b0" y="305.945176194"/>
     <use style="stroke:#000000;stroke-width:0.5;" x="270.400026025" xlink:href="#m7acce0d3b0" y="270.585262233"/>
     <use style="stroke:#000000;stroke-width:0.5;" x="282.800043133" xlink:href="#m7acce0d3b0" y="244.166785358"/>
     <use style="stroke:#000000;stroke-width:0.5;" x="295.199337837" xlink:href="#m7acce0d3b0" y="236.346423544"/>
     <use style="stroke:#000000;stroke-width:0.5;" x="307.600035278" xlink:href="#m7acce0d3b0" y="251.475386303"/>
     <use style="stroke:#000000;stroke-width:0.5;" x="320.000022834" xlink:href="#m7acce0d3b0" y="283.829248725"/>
     <use style="stroke:#000000;stroke-width:0.5;" x="332.400034072" xlink:href="#m7acce0d3b0" y="322.721405721"/>
     <use style="stroke:#000000;stroke-width:0.5;" x="344.800059489" xlink:href="#m7acce0d3b0" y="358.157863816"/>
     <use style="stroke:#000000;stroke-width:0.5;" x="357.200006882" xlink:href="#m7acce0d3b0" y="381.953100445"/>
     <use style="stroke:#000000;stroke-width:0.5;" x="369.600047685" xlink:href="#m7acce0d3b0" y="388.8"/>
     <use style="stroke:#000000;stroke-width:0.5;" x="382.000053968" xlink:href="#m7acce0d3b0" y="377.036394441"/>
     <use style="stroke:#000000;stroke-width:0.5;" x="394.40004759" xlink:href="#m7acce0d3b0" y="349.064750562"/>
     <use style="stroke:#000000;stroke-width:0.5;" x="406.800000923" xlink:href="#m7acce0d3b0" y="310.917876797"/>
     <use style="stroke:#000000;stroke-width:0.5;" x="419.200032142" xlink:href="#m7acce0d3b0" y="272.090060399"/>
     <use style="stroke:#000000;stroke-width:0.5;" x="431.600003331" xlink:href="#m7acce0d3b0" y="243.793688114"/>
     <use style="stroke:#000000;stroke-width:0.5;" x="444.000013681" xlink:href="#m7acce0d3b0" y="234.832061152"/>
     <use style="stroke:#000000;stroke-width:0.5;" x="456.399979073" xlink:href="#m7acce0d3b0" y="249.284494855"/>
     <use style="stroke:#000000;stroke-width:0.5;" x="468.800011842" xlink:href="#m7acce0d3b0" y="280.244957969"/>
     <use style="stroke:#000000;stroke-width:0.5;" x="481.200003328" xlink:href="#m7acce0d3b0" y="314.959444641"/>
     <use style="stroke:#000000;stroke-width:0.5;" x="493.600003998" xlink:href="#m7acce0d3b0" y="340.598211327"/>
     <use style="stroke:#000000;stroke-width:0.5;" x="506.000005173" xlink:href="#m7acce0d3b0" y="351.603812073"/>
    </g>
   </g>
   <g id="line2d_4">
    <path clip-path="url(#pa178f7d7ff)" d="M 71.999354 372.116976 
L 84.399969 363.584011 
L 96.800009 349.331698 
L 109.199948 331.365784 
L 121.599981 314.309939 
L 133.999972 302.73271 
L 146.400008 300.749287 
L 158.79996 309.558686 
L 171.199959 325.438314 
L 183.600014 343.743666 
L 195.999985 359.771408 
L 208.399958 369.606146 
L 220.79997 372.355739 
L 233.200019 370.02445 
L 245.599979 368.589196 
L 258.000009 369.411545 
L 270.400026 371.538246 
L 282.800043 372.694915 
L 295.199338 374.75829 
L 307.600035 377.286517 
L 320.000023 380.755325 
L 332.400034 384.797308 
L 344.800059 387.775841 
L 357.200007 388.8 
L 369.600048 388.087099 
L 382.000054 386.040329 
L 394.400048 382.984432 
L 406.800001 379.557954 
L 419.200032 376.816208 
L 431.600003 375.31038 
L 444.000014 375.398567 
L 456.399979 375.074638 
L 468.800012 374.110376 
L 481.200003 372.555028 
L 493.600004 372.201918 
L 506.000005 373.109546 
" style="fill:none;stroke:#ff00ff;stroke-linecap:square;"/>
    <defs>
     <path d="M -3 3 
L 3 -3 
M -3 -3 
L 3 3 
" id="m0074fc5ecd" style="stroke:#ff00ff;stroke-width:0.5;"/>
    </defs>
    <g clip-path="url(#pa178f7d7ff)">
     <use style="fill:#ff00ff;stroke:#ff00ff;stroke-width:0.5;" x="71.9993543866" xlink:href="#m0074fc5ecd" y="372.116976279"/>
     <use style="fill:#ff00ff;stroke:#ff00ff;stroke-width:0.5;" x="84.3999693584" xlink:href="#m0074fc5ecd" y="363.584010559"/>
     <use style="fill:#ff00ff;stroke:#ff00ff;stroke-width:0.5;" x="96.8000092576" xlink:href="#m0074fc5ecd" y="349.331697758"/>
     <use style="fill:#ff00ff;stroke:#ff00ff;stroke-width:0.5;" x="109.199948148" xlink:href="#m0074fc5ecd" y="331.365783902"/>
     <use style="fill:#ff00ff;stroke:#ff00ff;stroke-width:0.5;" x="121.599980873" xlink:href="#m0074fc5ecd" y="314.309939051"/>
     <use style="fill:#ff00ff;stroke:#ff00ff;stroke-width:0.5;" x="133.999972354" xlink:href="#m0074fc5ecd" y="302.732710082"/>
     <use style="fill:#ff00ff;stroke:#ff00ff;stroke-width:0.5;" x="146.40000801" xlink:href="#m0074fc5ecd" y="300.749287081"/>
     <use style="fill:#ff00ff;stroke:#ff00ff;stroke-width:0.5;" x="158.799960283" xlink:href="#m0074fc5ecd" y="309.558685864"/>
     <use style="fill:#ff00ff;stroke:#ff00ff;stroke-width:0.5;" x="171.199959153" xlink:href="#m0074fc5ecd" y="325.438314034"/>
     <use style="fill:#ff00ff;stroke:#ff00ff;stroke-width:0.5;" x="183.600013891" xlink:href="#m0074fc5ecd" y="343.743666082"/>
     <use style="fill:#ff00ff;stroke:#ff00ff;stroke-width:0.5;" x="195.999984938" xlink:href="#m0074fc5ecd" y="359.77140807"/>
     <use style="fill:#ff00ff;stroke:#ff00ff;stroke-width:0.5;" x="208.399957794" xlink:href="#m0074fc5ecd" y="369.606145795"/>
     <use style="fill:#ff00ff;stroke:#ff00ff;stroke-width:0.5;" x="220.799970337" xlink:href="#m0074fc5ecd" y="372.355739468"/>
     <use style="fill:#ff00ff;stroke:#ff00ff;stroke-width:0.5;" x="233.200018807" xlink:href="#m0074fc5ecd" y="370.024450129"/>
     <use style="fill:#ff00ff;stroke:#ff00ff;stroke-width:0.5;" x="245.599979193" xlink:href="#m0074fc5ecd" y="368.589195674"/>
     <use style="fill:#ff00ff;stroke:#ff00ff;stroke-width:0.5;" x="258.000008755" xlink:href="#m0074fc5ecd" y="369.411545311"/>
     <use style="fill:#ff00ff;stroke:#ff00ff;stroke-width:0.5;" x="270.400026025" xlink:href="#m0074fc5ecd" y="371.538246123"/>
     <use style="fill:#ff00ff;stroke:#ff00ff;stroke-width:0.5;" x="282.800043133" xlink:href="#m0074fc5ecd" y="372.694915272"/>
     <use style="fill:#ff00ff;stroke:#ff00ff;stroke-width:0.5;" x="295.199337837" xlink:href="#m0074fc5ecd" y="374.758289924"/>
     <use style="fill:#ff00ff;stroke:#ff00ff;stroke-width:0.5;" x="307.600035278" xlink:href="#m0074fc5ecd" y="377.286516675"/>
     <use style="fill:#ff00ff;stroke:#ff00ff;stroke-width:0.5;" x="320.000022834" xlink:href="#m0074fc5ecd" y="380.755324777"/>
     <use style="fill:#ff00ff;stroke:#ff00ff;stroke-width:0.5;" x="332.400034072" xlink:href="#m0074fc5ecd" y="384.797307855"/>
     <use style="fill:#ff00ff;stroke:#ff00ff;stroke-width:0.5;" x="344.800059489" xlink:href="#m0074fc5ecd" y="387.775841116"/>
     <use style="fill:#ff00ff;stroke:#ff00ff;stroke-width:0.5;" x="357.200006882" xlink:href="#m0074fc5ecd" y="388.8"/>
     <use style="fill:#ff00ff;stroke:#ff00ff;stroke-width:0.5;" x="369.600047685" xlink:href="#m0074fc5ecd" y="388.087098632"/>
     <use style="fill:#ff00ff;stroke:#ff00ff;stroke-width:0.5;" x="382.000053968" xlink:href="#m0074fc5ecd" y="386.040329125"/>
     <use style="fill:#ff00ff;stroke:#ff00ff;stroke-width:0.5;" x="394.40004759" xlink:href="#m0074fc5ecd" y="382.984431749"/>
     <use style="fill:#ff00ff;stroke:#ff00ff;stroke-width:0.5;" x="406.800000923" xlink:href="#m0074fc5ecd" y="379.557953799"/>
     <use style="fill:#ff00ff;stroke:#ff00ff;stroke-width:0.5;" x="419.200032142" xlink:href="#m0074fc5ecd" y="376.816207818"/>
     <use style="fill:#ff00ff;stroke:#ff00ff;stroke-width:0.5;" x="431.600003331" xlink:href="#m0074fc5ecd" y="375.310379874"/>
     <use style="fill:#ff00ff;stroke:#ff00ff;stroke-width:0.5;" x="444.000013681" xlink:href="#m0074fc5ecd" y="375.398566985"/>
     <use style="fill:#ff00ff;stroke:#ff00ff;stroke-width:0.5;" x="456.399979073" xlink:href="#m0074fc5ecd" y="375.074638464"/>
     <use style="fill:#ff00ff;stroke:#ff00ff;stroke-width:0.5;" x="468.800011842" xlink:href="#m0074fc5ecd" y="374.110376198"/>
     <use style="fill:#ff00ff;stroke:#ff00ff;stroke-width:0.5;" x="481.200003328" xlink:href="#m0074fc5ecd" y="372.555027607"/>
     <use style="fill:#ff00ff;stroke:#ff00ff;stroke-width:0.5;" x="493.600003998" xlink:href="#m0074fc5ecd" y="372.201917805"/>
     <use style="fill:#ff00ff;stroke:#ff00ff;stroke-width:0.5;" x="506.000005173" xlink:href="#m0074fc5ecd" y="373.109546113"/>
    </g>
   </g>
   <g id="line2d_5">
    <path clip-path="url(#pa178f7d7ff)" d="M 71.999354 329.19794 
L 84.399969 303.790647 
L 96.800009 256.512274 
L 109.199948 194.64043 
L 121.599981 131.011415 
L 133.999972 85.46014 
L 146.400008 76.064564 
L 158.79996 105.656588 
L 171.199959 160.648975 
L 183.600014 223.009348 
L 195.999985 277.898732 
L 208.399958 316.129778 
L 220.79997 334.209157 
L 233.200019 334.422502 
L 245.599979 318.041104 
L 258.000009 288.795467 
L 270.400026 254.444351 
L 282.800043 229.302782 
L 295.199338 223.027324 
L 307.600035 240.455787 
L 320.000023 275.644085 
L 332.400034 317.448452 
L 344.800059 355.62852 
L 357.200007 381.506955 
L 369.600048 388.8 
L 382.000054 375.06421 
L 394.400048 343.239415 
L 406.800001 301.241575 
L 419.200032 260.200385 
L 431.600003 231.059587 
L 444.000014 220.780584 
L 456.399979 232.74433 
L 468.800012 261.602037 
L 481.200003 296.079822 
L 493.600004 323.167634 
L 506.000005 335.411373 
" style="fill:none;stroke:#008000;stroke-linecap:square;"/>
    <defs>
     <path d="M 0 3 
C 0.795609 3 1.55874 2.683901 2.12132 2.12132 
C 2.683901 1.55874 3 0.795609 3 0 
C 3 -0.795609 2.683901 -1.55874 2.12132 -2.12132 
C 1.55874 -2.683901 0.795609 -3 0 -3 
C -0.795609 -3 -1.55874 -2.683901 -2.12132 -2.12132 
C -2.683901 -1.55874 -3 -0.795609 -3 0 
C -3 0.795609 -2.683901 1.55874 -2.12132 2.12132 
C -1.55874 2.683901 -0.795609 3 0 3 
z
" id="mbd2cbdd386" style="stroke:#000000;stroke-width:0.5;"/>
    </defs>
    <g clip-path="url(#pa178f7d7ff)">
     <use style="fill:#008000;stroke:#000000;stroke-width:0.5;" x="71.9993543866" xlink:href="#mbd2cbdd386" y="329.197940314"/>
     <use style="fill:#008000;stroke:#000000;stroke-width:0.5;" x="84.3999693584" xlink:href="#mbd2cbdd386" y="303.79064714"/>
     <use style="fill:#008000;stroke:#000000;stroke-width:0.5;" x="96.8000092576" xlink:href="#mbd2cbdd386" y="256.512274463"/>
     <use style="fill:#008000;stroke:#000000;stroke-width:0.5;" x="109.199948148" xlink:href="#mbd2cbdd386" y="194.640430217"/>
     <use style="fill:#008000;stroke:#000000;stroke-width:0.5;" x="121.599980873" xlink:href="#mbd2cbdd386" y="131.011414935"/>
     <use style="fill:#008000;stroke:#000000;stroke-width:0.5;" x="133.999972354" xlink:href="#mbd2cbdd386" y="85.4601401584"/>
     <use style="fill:#008000;stroke:#000000;stroke-width:0.5;" x="146.40000801" xlink:href="#mbd2cbdd386" y="76.0645640264"/>
     <use style="fill:#008000;stroke:#000000;stroke-width:0.5;" x="158.799960283" xlink:href="#mbd2cbdd386" y="105.656587855"/>
     <use style="fill:#008000;stroke:#000000;stroke-width:0.5;" x="171.199959153" xlink:href="#mbd2cbdd386" y="160.648975289"/>
     <use style="fill:#008000;stroke:#000000;stroke-width:0.5;" x="183.600013891" xlink:href="#mbd2cbdd386" y="223.009347765"/>
     <use style="fill:#008000;stroke:#000000;stroke-width:0.5;" x="195.999984938" xlink:href="#mbd2cbdd386" y="277.898732304"/>
     <use style="fill:#008000;stroke:#000000;stroke-width:0.5;" x="208.399957794" xlink:href="#mbd2cbdd386" y="316.129778436"/>
     <use style="fill:#008000;stroke:#000000;stroke-width:0.5;" x="220.799970337" xlink:href="#mbd2cbdd386" y="334.209156588"/>
     <use style="fill:#008000;stroke:#000000;stroke-width:0.5;" x="233.200018807" xlink:href="#mbd2cbdd386" y="334.422501702"/>
     <use style="fill:#008000;stroke:#000000;stroke-width:0.5;" x="245.599979193" xlink:href="#mbd2cbdd386" y="318.041103649"/>
     <use style="fill:#008000;stroke:#000000;stroke-width:0.5;" x="258.000008755" xlink:href="#mbd2cbdd386" y="288.795467299"/>
     <use style="fill:#008000;stroke:#000000;stroke-width:0.5;" x="270.400026025" xlink:href="#mbd2cbdd386" y="254.444351174"/>
     <use style="fill:#008000;stroke:#000000;stroke-width:0.5;" x="282.800043133" xlink:href="#mbd2cbdd386" y="229.302782226"/>
     <use style="fill:#008000;stroke:#000000;stroke-width:0.5;" x="295.199337837" xlink:href="#mbd2cbdd386" y="223.027323754"/>
     <use style="fill:#008000;stroke:#000000;stroke-width:0.5;" x="307.600035278" xlink:href="#mbd2cbdd386" y="240.455787453"/>
     <use style="fill:#008000;stroke:#000000;stroke-width:0.5;" x="320.000022834" xlink:href="#mbd2cbdd386" y="275.644085415"/>
     <use style="fill:#008000;stroke:#000000;stroke-width:0.5;" x="332.400034072" xlink:href="#mbd2cbdd386" y="317.448451972"/>
     <use style="fill:#008000;stroke:#000000;stroke-width:0.5;" x="344.800059489" xlink:href="#mbd2cbdd386" y="355.628519564"/>
     <use style="fill:#008000;stroke:#000000;stroke-width:0.5;" x="357.200006882" xlink:href="#mbd2cbdd386" y="381.506955393"/>
     <use style="fill:#008000;stroke:#000000;stroke-width:0.5;" x="369.600047685" xlink:href="#mbd2cbdd386" y="388.8"/>
     <use style="fill:#008000;stroke:#000000;stroke-width:0.5;" x="382.000053968" xlink:href="#mbd2cbdd386" y="375.064210073"/>
     <use style="fill:#008000;stroke:#000000;stroke-width:0.5;" x="394.40004759" xlink:href="#mbd2cbdd386" y="343.239414749"/>
     <use style="fill:#008000;stroke:#000000;stroke-width:0.5;" x="406.800000923" xlink:href="#mbd2cbdd386" y="301.241575157"/>
     <use style="fill:#008000;stroke:#000000;stroke-width:0.5;" x="419.200032142" xlink:href="#mbd2cbdd386" y="260.200385016"/>
     <use style="fill:#008000;stroke:#000000;stroke-width:0.5;" x="431.600003331" xlink:href="#mbd2cbdd386" y="231.059587303"/>
     <use style="fill:#008000;stroke:#000000;stroke-width:0.5;" x="444.000013681" xlink:href="#mbd2cbdd386" y="220.780583534"/>
     <use style="fill:#008000;stroke:#000000;stroke-width:0.5;" x="456.399979073" xlink:href="#mbd2cbdd386" y="232.744330378"/>
     <use style="fill:#008000;stroke:#000000;stroke-width:0.5;" x="468.800011842" xlink:href="#mbd2cbdd386" y="261.602037005"/>
     <use style="fill:#008000;stroke:#000000;stroke-width:0.5;" x="481.200003328" xlink:href="#mbd2cbdd386" y="296.079822082"/>
     <use style="fill:#008000;stroke:#000000;stroke-width:0.5;" x="493.600003998" xlink:href="#mbd2cbdd386" y="323.167634057"/>
     <use style="fill:#008000;stroke:#000000;stroke-width:0.5;" x="506.000005173" xlink:href="#mbd2cbdd386" y="335.411372578"/>
    </g>
   </g>
   <g id="patch_3">
    <path d="M 72 43.2 
L 518.4 43.2 
" style="fill:none;stroke:#000000;stroke-linecap:square;stroke-linejoin:miter;"/>
   </g>
   <g id="patch_4">
    <path d="M 72 388.8 
L 518.4 388.8 
" style="fill:none;stroke:#000000;stroke-linecap:square;stroke-linejoin:miter;"/>
   </g>
   <g id="patch_5">
    <path d="M 518.4 388.8 
L 518.4 43.2 
" style="fill:none;stroke:#000000;stroke-linecap:square;stroke-linejoin:miter;"/>
   </g>
   <g id="patch_6">
    <path d="M 72 388.8 
L 72 43.2 
" style="fill:none;stroke:#000000;stroke-linecap:square;stroke-linejoin:miter;"/>
   </g>
   <g id="matplotlib.axis_1">
    <g id="xtick_1">
     <g id="line2d_6">
      <defs>
       <path d="M 0 0 
L 0 -4 
" id="m1f32b0621c" style="stroke:#000000;stroke-width:0.5;"/>
      </defs>
      <g>
       <use style="stroke:#000000;stroke-width:0.5;" x="72.0" xlink:href="#m1f32b0621c" y="388.8"/>
      </g>
     </g>
     <g id="line2d_7">
      <defs>
       <path d="M 0 0 
L 0 4 
" id="m4b23f28970" style="stroke:#000000;stroke-width:0.5;"/>
      </defs>
      <g>
       <use style="stroke:#000000;stroke-width:0.5;" x="72.0" xlink:href="#m4b23f28970" y="43.2"/>
      </g>
     </g>
     <g id="text_1">
      <!-- −180 -->
      <defs>
       <path d="M 10.59375 35.5 
L 73.1875 35.5 
L 73.1875 27.203125 
L 10.59375 27.203125 
z
" id="BitstreamVeraSans-Roman-2212"/>
       <path d="M 12.40625 8.296875 
L 28.515625 8.296875 
L 28.515625 63.921875 
L 10.984375 60.40625 
L 10.984375 69.390625 
L 28.421875 72.90625 
L 38.28125 72.90625 
L 38.28125 8.296875 
L 54.390625 8.296875 
L 54.390625 0 
L 12.40625 0 
z
" id="BitstreamVeraSans-Roman-31"/>
       <path d="M 31.78125 66.40625 
Q 24.171875 66.40625 20.328125 58.90625 
Q 16.5 51.421875 16.5 36.375 
Q 16.5 21.390625 20.328125 13.890625 
Q 24.171875 6.390625 31.78125 6.390625 
Q 39.453125 6.390625 43.28125 13.890625 
Q 47.125 21.390625 47.125 36.375 
Q 47.125 51.421875 43.28125 58.90625 
Q 39.453125 66.40625 31.78125 66.40625 
M 31.78125 74.21875 
Q 44.046875 74.21875 50.515625 64.515625 
Q 56.984375 54.828125 56.984375 36.375 
Q 56.984375 17.96875 50.515625 8.265625 
Q 44.046875 -1.421875 31.78125 -1.421875 
Q 19.53125 -1.421875 13.0625 8.265625 
Q 6.59375 17.96875 6.59375 36.375 
Q 6.59375 54.828125 13.0625 64.515625 
Q 19.53125 74.21875 31.78125 74.21875 
" id="BitstreamVeraSans-Roman-30"/>
       <path d="M 31.78125 34.625 
Q 24.75 34.625 20.71875 30.859375 
Q 16.703125 27.09375 16.703125 20.515625 
Q 16.703125 13.921875 20.71875 10.15625 
Q 24.75 6.390625 31.78125 6.390625 
Q 38.8125 6.390625 42.859375 10.171875 
Q 46.921875 13.96875 46.921875 20.515625 
Q 46.921875 27.09375 42.890625 30.859375 
Q 38.875 34.625 31.78125 34.625 
M 21.921875 38.8125 
Q 15.578125 40.375 12.03125 44.71875 
Q 8.5 49.078125 8.5 55.328125 
Q 8.5 64.0625 14.71875 69.140625 
Q 20.953125 74.21875 31.78125 74.21875 
Q 42.671875 74.21875 48.875 69.140625 
Q 55.078125 64.0625 55.078125 55.328125 
Q 55.078125 49.078125 51.53125 44.71875 
Q 48 40.375 41.703125 38.8125 
Q 48.828125 37.15625 52.796875 32.3125 
Q 56.78125 27.484375 56.78125 20.515625 
Q 56.78125 9.90625 50.3125 4.234375 
Q 43.84375 -1.421875 31.78125 -1.421875 
Q 19.734375 -1.421875 13.25 4.234375 
Q 6.78125 9.90625 6.78125 20.515625 
Q 6.78125 27.484375 10.78125 32.3125 
Q 14.796875 37.15625 21.921875 38.8125 
M 18.3125 54.390625 
Q 18.3125 48.734375 21.84375 45.5625 
Q 25.390625 42.390625 31.78125 42.390625 
Q 38.140625 42.390625 41.71875 45.5625 
Q 45.3125 48.734375 45.3125 54.390625 
Q 45.3125 60.0625 41.71875 63.234375 
Q 38.140625 66.40625 31.78125 66.40625 
Q 25.390625 66.40625 21.84375 63.234375 
Q 18.3125 60.0625 18.3125 54.390625 
" id="BitstreamVeraSans-Roman-38"/>
      </defs>
      <g transform="translate(55.5196875 401.918125)scale(0.12 -0.12)">
       <use xlink:href="#BitstreamVeraSans-Roman-2212"/>
       <use x="83.7890625" xlink:href="#BitstreamVeraSans-Roman-31"/>
       <use x="147.412109375" xlink:href="#BitstreamVeraSans-Roman-38"/>
       <use x="211.03515625" xlink:href="#BitstreamVeraSans-Roman-30"/>
      </g>
     </g>
    </g>
    <g id="xtick_2">
     <g id="line2d_8">
      <g>
       <use style="stroke:#000000;stroke-width:0.5;" x="127.8" xlink:href="#m1f32b0621c" y="388.8"/>
      </g>
     </g>
     <g id="line2d_9">
      <g>
       <use style="stroke:#000000;stroke-width:0.5;" x="127.8" xlink:href="#m4b23f28970" y="43.2"/>
      </g>
     </g>
     <g id="text_2">
      <!-- −135 -->
      <defs>
       <path d="M 40.578125 39.3125 
Q 47.65625 37.796875 51.625 33 
Q 55.609375 28.21875 55.609375 21.1875 
Q 55.609375 10.40625 48.1875 4.484375 
Q 40.765625 -1.421875 27.09375 -1.421875 
Q 22.515625 -1.421875 17.65625 -0.515625 
Q 12.796875 0.390625 7.625 2.203125 
L 7.625 11.71875 
Q 11.71875 9.328125 16.59375 8.109375 
Q 21.484375 6.890625 26.8125 6.890625 
Q 36.078125 6.890625 40.9375 10.546875 
Q 45.796875 14.203125 45.796875 21.1875 
Q 45.796875 27.640625 41.28125 31.265625 
Q 36.765625 34.90625 28.71875 34.90625 
L 20.21875 34.90625 
L 20.21875 43.015625 
L 29.109375 43.015625 
Q 36.375 43.015625 40.234375 45.921875 
Q 44.09375 48.828125 44.09375 54.296875 
Q 44.09375 59.90625 40.109375 62.90625 
Q 36.140625 65.921875 28.71875 65.921875 
Q 24.65625 65.921875 20.015625 65.03125 
Q 15.375 64.15625 9.8125 62.3125 
L 9.8125 71.09375 
Q 15.4375 72.65625 20.34375 73.4375 
Q 25.25 74.21875 29.59375 74.21875 
Q 40.828125 74.21875 47.359375 69.109375 
Q 53.90625 64.015625 53.90625 55.328125 
Q 53.90625 49.265625 50.4375 45.09375 
Q 46.96875 40.921875 40.578125 39.3125 
" id="BitstreamVeraSans-Roman-33"/>
       <path d="M 10.796875 72.90625 
L 49.515625 72.90625 
L 49.515625 64.59375 
L 19.828125 64.59375 
L 19.828125 46.734375 
Q 21.96875 47.46875 24.109375 47.828125 
Q 26.265625 48.1875 28.421875 48.1875 
Q 40.625 48.1875 47.75 41.5 
Q 54.890625 34.8125 54.890625 23.390625 
Q 54.890625 11.625 47.5625 5.09375 
Q 40.234375 -1.421875 26.90625 -1.421875 
Q 22.3125 -1.421875 17.546875 -0.640625 
Q 12.796875 0.140625 7.71875 1.703125 
L 7.71875 11.625 
Q 12.109375 9.234375 16.796875 8.0625 
Q 21.484375 6.890625 26.703125 6.890625 
Q 35.15625 6.890625 40.078125 11.328125 
Q 45.015625 15.765625 45.015625 23.390625 
Q 45.015625 31 40.078125 35.4375 
Q 35.15625 39.890625 26.703125 39.890625 
Q 22.75 39.890625 18.8125 39.015625 
Q 14.890625 38.140625 10.796875 36.28125 
z
" id="BitstreamVeraSans-Roman-35"/>
      </defs>
      <g transform="translate(111.3196875 401.918125)scale(0.12 -0.12)">
       <use xlink:href="#BitstreamVeraSans-Roman-2212"/>
       <use x="83.7890625" xlink:href="#BitstreamVeraSans-Roman-31"/>
       <use x="147.412109375" xlink:href="#BitstreamVeraSans-Roman-33"/>
       <use x="211.03515625" xlink:href="#BitstreamVeraSans-Roman-35"/>
      </g>
     </g>
    </g>
    <g id="xtick_3">
     <g id="line2d_10">
      <g>
       <use style="stroke:#000000;stroke-width:0.5;" x="183.6" xlink:href="#m1f32b0621c" y="388.8"/>
      </g>
     </g>
     <g id="line2d_11">
      <g>
       <use style="stroke:#000000;stroke-width:0.5;" x="183.6" xlink:href="#m4b23f28970" y="43.2"/>
      </g>
     </g>
     <g id="text_3">
      <!-- −90 -->
      <defs>
       <path d="M 10.984375 1.515625 
L 10.984375 10.5 
Q 14.703125 8.734375 18.5 7.8125 
Q 22.3125 6.890625 25.984375 6.890625 
Q 35.75 6.890625 40.890625 13.453125 
Q 46.046875 20.015625 46.78125 33.40625 
Q 43.953125 29.203125 39.59375 26.953125 
Q 35.25 24.703125 29.984375 24.703125 
Q 19.046875 24.703125 12.671875 31.3125 
Q 6.296875 37.9375 6.296875 49.421875 
Q 6.296875 60.640625 12.9375 67.421875 
Q 19.578125 74.21875 30.609375 74.21875 
Q 43.265625 74.21875 49.921875 64.515625 
Q 56.59375 54.828125 56.59375 36.375 
Q 56.59375 19.140625 48.40625 8.859375 
Q 40.234375 -1.421875 26.421875 -1.421875 
Q 22.703125 -1.421875 18.890625 -0.6875 
Q 15.09375 0.046875 10.984375 1.515625 
M 30.609375 32.421875 
Q 37.25 32.421875 41.125 36.953125 
Q 45.015625 41.5 45.015625 49.421875 
Q 45.015625 57.28125 41.125 61.84375 
Q 37.25 66.40625 30.609375 66.40625 
Q 23.96875 66.40625 20.09375 61.84375 
Q 16.21875 57.28125 16.21875 49.421875 
Q 16.21875 41.5 20.09375 36.953125 
Q 23.96875 32.421875 30.609375 32.421875 
" id="BitstreamVeraSans-Roman-39"/>
      </defs>
      <g transform="translate(170.9371875 401.918125)scale(0.12 -0.12)">
       <use xlink:href="#BitstreamVeraSans-Roman-2212"/>
       <use x="83.7890625" xlink:href="#BitstreamVeraSans-Roman-39"/>
       <use x="147.412109375" xlink:href="#BitstreamVeraSans-Roman-30"/>
      </g>
     </g>
    </g>
    <g id="xtick_4">
     <g id="line2d_12">
      <g>
       <use style="stroke:#000000;stroke-width:0.5;" x="239.4" xlink:href="#m1f32b0621c" y="388.8"/>
      </g>
     </g>
     <g id="line2d_13">
      <g>
       <use style="stroke:#000000;stroke-width:0.5;" x="239.4" xlink:href="#m4b23f28970" y="43.2"/>
      </g>
     </g>
     <g id="text_4">
      <!-- −45 -->
      <defs>
       <path d="M 37.796875 64.3125 
L 12.890625 25.390625 
L 37.796875 25.390625 
z
M 35.203125 72.90625 
L 47.609375 72.90625 
L 47.609375 25.390625 
L 58.015625 25.390625 
L 58.015625 17.1875 
L 47.609375 17.1875 
L 47.609375 0 
L 37.796875 0 
L 37.796875 17.1875 
L 4.890625 17.1875 
L 4.890625 26.703125 
z
" id="BitstreamVeraSans-Roman-34"/>
      </defs>
      <g transform="translate(226.7371875 401.918125)scale(0.12 -0.12)">
       <use xlink:href="#BitstreamVeraSans-Roman-2212"/>
       <use x="83.7890625" xlink:href="#BitstreamVeraSans-Roman-34"/>
       <use x="147.412109375" xlink:href="#BitstreamVeraSans-Roman-35"/>
      </g>
     </g>
    </g>
    <g id="xtick_5">
     <g id="line2d_14">
      <g>
       <use style="stroke:#000000;stroke-width:0.5;" x="295.2" xlink:href="#m1f32b0621c" y="388.8"/>
      </g>
     </g>
     <g id="line2d_15">
      <g>
       <use style="stroke:#000000;stroke-width:0.5;" x="295.2" xlink:href="#m4b23f28970" y="43.2"/>
      </g>
     </g>
     <g id="text_5">
      <!-- 0 -->
      <g transform="translate(291.3825 401.918125)scale(0.12 -0.12)">
       <use xlink:href="#BitstreamVeraSans-Roman-30"/>
      </g>
     </g>
    </g>
    <g id="xtick_6">
     <g id="line2d_16">
      <g>
       <use style="stroke:#000000;stroke-width:0.5;" x="351.0" xlink:href="#m1f32b0621c" y="388.8"/>
      </g>
     </g>
     <g id="line2d_17">
      <g>
       <use style="stroke:#000000;stroke-width:0.5;" x="351.0" xlink:href="#m4b23f28970" y="43.2"/>
      </g>
     </g>
     <g id="text_6">
      <!-- 45 -->
      <g transform="translate(343.365 401.918125)scale(0.12 -0.12)">
       <use xlink:href="#BitstreamVeraSans-Roman-34"/>
       <use x="63.623046875" xlink:href="#BitstreamVeraSans-Roman-35"/>
      </g>
     </g>
    </g>
    <g id="xtick_7">
     <g id="line2d_18">
      <g>
       <use style="stroke:#000000;stroke-width:0.5;" x="406.8" xlink:href="#m1f32b0621c" y="388.8"/>
      </g>
     </g>
     <g id="line2d_19">
      <g>
       <use style="stroke:#000000;stroke-width:0.5;" x="406.8" xlink:href="#m4b23f28970" y="43.2"/>
      </g>
     </g>
     <g id="text_7">
      <!-- 90 -->
      <g transform="translate(399.165 401.918125)scale(0.12 -0.12)">
       <use xlink:href="#BitstreamVeraSans-Roman-39"/>
       <use x="63.623046875" xlink:href="#BitstreamVeraSans-Roman-30"/>
      </g>
     </g>
    </g>
    <g id="xtick_8">
     <g id="line2d_20">
      <g>
       <use style="stroke:#000000;stroke-width:0.5;" x="462.6" xlink:href="#m1f32b0621c" y="388.8"/>
      </g>
     </g>
     <g id="line2d_21">
      <g>
       <use style="stroke:#000000;stroke-width:0.5;" x="462.6" xlink:href="#m4b23f28970" y="43.2"/>
      </g>
     </g>
     <g id="text_8">
      <!-- 135 -->
      <g transform="translate(451.1475 401.918125)scale(0.12 -0.12)">
       <use xlink:href="#BitstreamVeraSans-Roman-31"/>
       <use x="63.623046875" xlink:href="#BitstreamVeraSans-Roman-33"/>
       <use x="127.24609375" xlink:href="#BitstreamVeraSans-Roman-35"/>
      </g>
     </g>
    </g>
    <g id="xtick_9">
     <g id="line2d_22">
      <g>
       <use style="stroke:#000000;stroke-width:0.5;" x="518.4" xlink:href="#m1f32b0621c" y="388.8"/>
      </g>
     </g>
     <g id="line2d_23">
      <g>
       <use style="stroke:#000000;stroke-width:0.5;" x="518.4" xlink:href="#m4b23f28970" y="43.2"/>
      </g>
     </g>
     <g id="text_9">
      <!-- 180 -->
      <g transform="translate(506.9475 401.918125)scale(0.12 -0.12)">
       <use xlink:href="#BitstreamVeraSans-Roman-31"/>
       <use x="63.623046875" xlink:href="#BitstreamVeraSans-Roman-38"/>
       <use x="127.24609375" xlink:href="#BitstreamVeraSans-Roman-30"/>
      </g>
     </g>
    </g>
    <g id="text_10">
     <!-- Phi -->
     <defs>
      <path d="M 19.671875 64.796875 
L 19.671875 37.40625 
L 32.078125 37.40625 
Q 38.96875 37.40625 42.71875 40.96875 
Q 46.484375 44.53125 46.484375 51.125 
Q 46.484375 57.671875 42.71875 61.234375 
Q 38.96875 64.796875 32.078125 64.796875 
z
M 9.8125 72.90625 
L 32.078125 72.90625 
Q 44.34375 72.90625 50.609375 67.359375 
Q 56.890625 61.8125 56.890625 51.125 
Q 56.890625 40.328125 50.609375 34.8125 
Q 44.34375 29.296875 32.078125 29.296875 
L 19.671875 29.296875 
L 19.671875 0 
L 9.8125 0 
z
" id="BitstreamVeraSans-Roman-50"/>
      <path d="M 54.890625 33.015625 
L 54.890625 0 
L 45.90625 0 
L 45.90625 32.71875 
Q 45.90625 40.484375 42.875 44.328125 
Q 39.84375 48.1875 33.796875 48.1875 
Q 26.515625 48.1875 22.3125 43.546875 
Q 18.109375 38.921875 18.109375 30.90625 
L 18.109375 0 
L 9.078125 0 
L 9.078125 75.984375 
L 18.109375 75.984375 
L 18.109375 46.1875 
Q 21.34375 51.125 25.703125 53.5625 
Q 30.078125 56 35.796875 56 
Q 45.21875 56 50.046875 50.171875 
Q 54.890625 44.34375 54.890625 33.015625 
" id="BitstreamVeraSans-Roman-68"/>
      <path d="M 9.421875 54.6875 
L 18.40625 54.6875 
L 18.40625 0 
L 9.421875 0 
z
M 9.421875 75.984375 
L 18.40625 75.984375 
L 18.40625 64.59375 
L 9.421875 64.59375 
z
" id="BitstreamVeraSans-Roman-69"/>
     </defs>
     <g transform="translate(286.1128125 418.531875)scale(0.12 -0.12)">
      <use xlink:href="#BitstreamVeraSans-Roman-50"/>
      <use x="60.302734375" xlink:href="#BitstreamVeraSans-Roman-68"/>
      <use x="123.681640625" xlink:href="#BitstreamVeraSans-Roman-69"/>
     </g>
    </g>
   </g>
   <g id="matplotlib.axis_2">
    <g id="ytick_1">
     <g id="line2d_24">
      <defs>
       <path d="M 0 0 
L 4 0 
" id="m881cd55095" style="stroke:#000000;stroke-width:0.5;"/>
      </defs>
      <g>
       <use style="stroke:#000000;stroke-width:0.5;" x="72.0" xlink:href="#m881cd55095" y="388.8"/>
      </g>
     </g>
     <g id="line2d_25">
      <defs>
       <path d="M 0 0 
L -4 0 
" id="m16c365bb9b" style="stroke:#000000;stroke-width:0.5;"/>
      </defs>
      <g>
       <use style="stroke:#000000;stroke-width:0.5;" x="518.4" xlink:href="#m16c365bb9b" y="388.8"/>
      </g>
     </g>
     <g id="text_11">
      <!-- 0 -->
      <g transform="translate(60.365 392.11125)scale(0.12 -0.12)">
       <use xlink:href="#BitstreamVeraSans-Roman-30"/>
      </g>
     </g>
    </g>
    <g id="ytick_2">
     <g id="line2d_26">
      <g>
       <use style="stroke:#000000;stroke-width:0.5;" x="72.0" xlink:href="#m881cd55095" y="339.428571429"/>
      </g>
     </g>
     <g id="line2d_27">
      <g>
       <use style="stroke:#000000;stroke-width:0.5;" x="518.4" xlink:href="#m16c365bb9b" y="339.428571429"/>
      </g>
     </g>
     <g id="text_12">
      <!-- 1 -->
      <g transform="translate(60.365 342.739821429)scale(0.12 -0.12)">
       <use xlink:href="#BitstreamVeraSans-Roman-31"/>
      </g>
     </g>
    </g>
    <g id="ytick_3">
     <g id="line2d_28">
      <g>
       <use style="stroke:#000000;stroke-width:0.5;" x="72.0" xlink:href="#m881cd55095" y="290.057142857"/>
      </g>
     </g>
     <g id="line2d_29">
      <g>
       <use style="stroke:#000000;stroke-width:0.5;" x="518.4" xlink:href="#m16c365bb9b" y="290.057142857"/>
      </g>
     </g>
     <g id="text_13">
      <!-- 2 -->
      <defs>
       <path d="M 19.1875 8.296875 
L 53.609375 8.296875 
L 53.609375 0 
L 7.328125 0 
L 7.328125 8.296875 
Q 12.9375 14.109375 22.625 23.890625 
Q 32.328125 33.6875 34.8125 36.53125 
Q 39.546875 41.84375 41.421875 45.53125 
Q 43.3125 49.21875 43.3125 52.78125 
Q 43.3125 58.59375 39.234375 62.25 
Q 35.15625 65.921875 28.609375 65.921875 
Q 23.96875 65.921875 18.8125 64.3125 
Q 13.671875 62.703125 7.8125 59.421875 
L 7.8125 69.390625 
Q 13.765625 71.78125 18.9375 73 
Q 24.125 74.21875 28.421875 74.21875 
Q 39.75 74.21875 46.484375 68.546875 
Q 53.21875 62.890625 53.21875 53.421875 
Q 53.21875 48.921875 51.53125 44.890625 
Q 49.859375 40.875 45.40625 35.40625 
Q 44.1875 33.984375 37.640625 27.21875 
Q 31.109375 20.453125 19.1875 8.296875 
" id="BitstreamVeraSans-Roman-32"/>
      </defs>
      <g transform="translate(60.365 293.368392857)scale(0.12 -0.12)">
       <use xlink:href="#BitstreamVeraSans-Roman-32"/>
      </g>
     </g>
    </g>
    <g id="ytick_4">
     <g id="line2d_30">
      <g>
       <use style="stroke:#000000;stroke-width:0.5;" x="72.0" xlink:href="#m881cd55095" y="240.685714286"/>
      </g>
     </g>
     <g id="line2d_31">
      <g>
       <use style="stroke:#000000;stroke-width:0.5;" x="518.4" xlink:href="#m16c365bb9b" y="240.685714286"/>
      </g>
     </g>
     <g id="text_14">
      <!-- 3 -->
      <g transform="translate(60.365 243.996964286)scale(0.12 -0.12)">
       <use xlink:href="#BitstreamVeraSans-Roman-33"/>
      </g>
     </g>
    </g>
    <g id="ytick_5">
     <g id="line2d_32">
      <g>
       <use style="stroke:#000000;stroke-width:0.5;" x="72.0" xlink:href="#m881cd55095" y="191.314285714"/>
      </g>
     </g>
     <g id="line2d_33">
      <g>
       <use style="stroke:#000000;stroke-width:0.5;" x="518.4" xlink:href="#m16c365bb9b" y="191.314285714"/>
      </g>
     </g>
     <g id="text_15">
      <!-- 4 -->
      <g transform="translate(60.365 194.625535714)scale(0.12 -0.12)">
       <use xlink:href="#BitstreamVeraSans-Roman-34"/>
      </g>
     </g>
    </g>
    <g id="ytick_6">
     <g id="line2d_34">
      <g>
       <use style="stroke:#000000;stroke-width:0.5;" x="72.0" xlink:href="#m881cd55095" y="141.942857143"/>
      </g>
     </g>
     <g id="line2d_35">
      <g>
       <use style="stroke:#000000;stroke-width:0.5;" x="518.4" xlink:href="#m16c365bb9b" y="141.942857143"/>
      </g>
     </g>
     <g id="text_16">
      <!-- 5 -->
      <g transform="translate(60.365 145.254107143)scale(0.12 -0.12)">
       <use xlink:href="#BitstreamVeraSans-Roman-35"/>
      </g>
     </g>
    </g>
    <g id="ytick_7">
     <g id="line2d_36">
      <g>
       <use style="stroke:#000000;stroke-width:0.5;" x="72.0" xlink:href="#m881cd55095" y="92.5714285714"/>
      </g>
     </g>
     <g id="line2d_37">
      <g>
       <use style="stroke:#000000;stroke-width:0.5;" x="518.4" xlink:href="#m16c365bb9b" y="92.5714285714"/>
      </g>
     </g>
     <g id="text_17">
      <!-- 6 -->
      <defs>
       <path d="M 33.015625 40.375 
Q 26.375 40.375 22.484375 35.828125 
Q 18.609375 31.296875 18.609375 23.390625 
Q 18.609375 15.53125 22.484375 10.953125 
Q 26.375 6.390625 33.015625 6.390625 
Q 39.65625 6.390625 43.53125 10.953125 
Q 47.40625 15.53125 47.40625 23.390625 
Q 47.40625 31.296875 43.53125 35.828125 
Q 39.65625 40.375 33.015625 40.375 
M 52.59375 71.296875 
L 52.59375 62.3125 
Q 48.875 64.0625 45.09375 64.984375 
Q 41.3125 65.921875 37.59375 65.921875 
Q 27.828125 65.921875 22.671875 59.328125 
Q 17.53125 52.734375 16.796875 39.40625 
Q 19.671875 43.65625 24.015625 45.921875 
Q 28.375 48.1875 33.59375 48.1875 
Q 44.578125 48.1875 50.953125 41.515625 
Q 57.328125 34.859375 57.328125 23.390625 
Q 57.328125 12.15625 50.6875 5.359375 
Q 44.046875 -1.421875 33.015625 -1.421875 
Q 20.359375 -1.421875 13.671875 8.265625 
Q 6.984375 17.96875 6.984375 36.375 
Q 6.984375 53.65625 15.1875 63.9375 
Q 23.390625 74.21875 37.203125 74.21875 
Q 40.921875 74.21875 44.703125 73.484375 
Q 48.484375 72.75 52.59375 71.296875 
" id="BitstreamVeraSans-Roman-36"/>
      </defs>
      <g transform="translate(60.365 95.8826785714)scale(0.12 -0.12)">
       <use xlink:href="#BitstreamVeraSans-Roman-36"/>
      </g>
     </g>
    </g>
    <g id="ytick_8">
     <g id="line2d_38">
      <g>
       <use style="stroke:#000000;stroke-width:0.5;" x="72.0" xlink:href="#m881cd55095" y="43.2"/>
      </g>
     </g>
     <g id="line2d_39">
      <g>
       <use style="stroke:#000000;stroke-width:0.5;" x="518.4" xlink:href="#m16c365bb9b" y="43.2"/>
      </g>
     </g>
     <g id="text_18">
      <!-- 7 -->
      <defs>
       <path d="M 8.203125 72.90625 
L 55.078125 72.90625 
L 55.078125 68.703125 
L 28.609375 0 
L 18.3125 0 
L 43.21875 64.59375 
L 8.203125 64.59375 
z
" id="BitstreamVeraSans-Roman-37"/>
      </defs>
      <g transform="translate(60.365 46.51125)scale(0.12 -0.12)">
       <use xlink:href="#BitstreamVeraSans-Roman-37"/>
      </g>
     </g>
    </g>
    <g id="text_19">
     <!-- kcal/mol -->
     <defs>
      <path d="M 52 44.1875 
Q 55.375 50.25 60.0625 53.125 
Q 64.75 56 71.09375 56 
Q 79.640625 56 84.28125 50.015625 
Q 88.921875 44.046875 88.921875 33.015625 
L 88.921875 0 
L 79.890625 0 
L 79.890625 32.71875 
Q 79.890625 40.578125 77.09375 44.375 
Q 74.3125 48.1875 68.609375 48.1875 
Q 61.625 48.1875 57.5625 43.546875 
Q 53.515625 38.921875 53.515625 30.90625 
L 53.515625 0 
L 44.484375 0 
L 44.484375 32.71875 
Q 44.484375 40.625 41.703125 44.40625 
Q 38.921875 48.1875 33.109375 48.1875 
Q 26.21875 48.1875 22.15625 43.53125 
Q 18.109375 38.875 18.109375 30.90625 
L 18.109375 0 
L 9.078125 0 
L 9.078125 54.6875 
L 18.109375 54.6875 
L 18.109375 46.1875 
Q 21.1875 51.21875 25.484375 53.609375 
Q 29.78125 56 35.6875 56 
Q 41.65625 56 45.828125 52.96875 
Q 50 49.953125 52 44.1875 
" id="BitstreamVeraSans-Roman-6d"/>
      <path d="M 34.28125 27.484375 
Q 23.390625 27.484375 19.1875 25 
Q 14.984375 22.515625 14.984375 16.5 
Q 14.984375 11.71875 18.140625 8.90625 
Q 21.296875 6.109375 26.703125 6.109375 
Q 34.1875 6.109375 38.703125 11.40625 
Q 43.21875 16.703125 43.21875 25.484375 
L 43.21875 27.484375 
z
M 52.203125 31.203125 
L 52.203125 0 
L 43.21875 0 
L 43.21875 8.296875 
Q 40.140625 3.328125 35.546875 0.953125 
Q 30.953125 -1.421875 24.3125 -1.421875 
Q 15.921875 -1.421875 10.953125 3.296875 
Q 6 8.015625 6 15.921875 
Q 6 25.140625 12.171875 29.828125 
Q 18.359375 34.515625 30.609375 34.515625 
L 43.21875 34.515625 
L 43.21875 35.40625 
Q 43.21875 41.609375 39.140625 45 
Q 35.0625 48.390625 27.6875 48.390625 
Q 23 48.390625 18.546875 47.265625 
Q 14.109375 46.140625 10.015625 43.890625 
L 10.015625 52.203125 
Q 14.9375 54.109375 19.578125 55.046875 
Q 24.21875 56 28.609375 56 
Q 40.484375 56 46.34375 49.84375 
Q 52.203125 43.703125 52.203125 31.203125 
" id="BitstreamVeraSans-Roman-61"/>
      <path d="M 30.609375 48.390625 
Q 23.390625 48.390625 19.1875 42.75 
Q 14.984375 37.109375 14.984375 27.296875 
Q 14.984375 17.484375 19.15625 11.84375 
Q 23.34375 6.203125 30.609375 6.203125 
Q 37.796875 6.203125 41.984375 11.859375 
Q 46.1875 17.53125 46.1875 27.296875 
Q 46.1875 37.015625 41.984375 42.703125 
Q 37.796875 48.390625 30.609375 48.390625 
M 30.609375 56 
Q 42.328125 56 49.015625 48.375 
Q 55.71875 40.765625 55.71875 27.296875 
Q 55.71875 13.875 49.015625 6.21875 
Q 42.328125 -1.421875 30.609375 -1.421875 
Q 18.84375 -1.421875 12.171875 6.21875 
Q 5.515625 13.875 5.515625 27.296875 
Q 5.515625 40.765625 12.171875 48.375 
Q 18.84375 56 30.609375 56 
" id="BitstreamVeraSans-Roman-6f"/>
      <path d="M 25.390625 72.90625 
L 33.6875 72.90625 
L 8.296875 -9.28125 
L 0 -9.28125 
z
" id="BitstreamVeraSans-Roman-2f"/>
      <path d="M 48.78125 52.59375 
L 48.78125 44.1875 
Q 44.96875 46.296875 41.140625 47.34375 
Q 37.3125 48.390625 33.40625 48.390625 
Q 24.65625 48.390625 19.8125 42.84375 
Q 14.984375 37.3125 14.984375 27.296875 
Q 14.984375 17.28125 19.8125 11.734375 
Q 24.65625 6.203125 33.40625 6.203125 
Q 37.3125 6.203125 41.140625 7.25 
Q 44.96875 8.296875 48.78125 10.40625 
L 48.78125 2.09375 
Q 45.015625 0.34375 40.984375 -0.53125 
Q 36.96875 -1.421875 32.421875 -1.421875 
Q 20.0625 -1.421875 12.78125 6.34375 
Q 5.515625 14.109375 5.515625 27.296875 
Q 5.515625 40.671875 12.859375 48.328125 
Q 20.21875 56 33.015625 56 
Q 37.15625 56 41.109375 55.140625 
Q 45.0625 54.296875 48.78125 52.59375 
" id="BitstreamVeraSans-Roman-63"/>
      <path d="M 9.421875 75.984375 
L 18.40625 75.984375 
L 18.40625 0 
L 9.421875 0 
z
" id="BitstreamVeraSans-Roman-6c"/>
      <path d="M 9.078125 75.984375 
L 18.109375 75.984375 
L 18.109375 31.109375 
L 44.921875 54.6875 
L 56.390625 54.6875 
L 27.390625 29.109375 
L 57.625 0 
L 45.90625 0 
L 18.109375 26.703125 
L 18.109375 0 
L 9.078125 0 
z
" id="BitstreamVeraSans-Roman-6b"/>
     </defs>
     <g transform="translate(52.869375 241.3209375)rotate(-90.0)scale(0.12 -0.12)">
      <use xlink:href="#BitstreamVeraSans-Roman-6b"/>
      <use x="57.91015625" xlink:href="#BitstreamVeraSans-Roman-63"/>
      <use x="112.890625" xlink:href="#BitstreamVeraSans-Roman-61"/>
      <use x="174.169921875" xlink:href="#BitstreamVeraSans-Roman-6c"/>
      <use x="201.953125" xlink:href="#BitstreamVeraSans-Roman-2f"/>
      <use x="235.64453125" xlink:href="#BitstreamVeraSans-Roman-6d"/>
      <use x="333.056640625" xlink:href="#BitstreamVeraSans-Roman-6f"/>
      <use x="394.23828125" xlink:href="#BitstreamVeraSans-Roman-6c"/>
     </g>
    </g>
   </g>
   <g id="text_20">
    <!-- H8-C4-C5-C6 -->
    <defs>
     <path d="M 64.40625 67.28125 
L 64.40625 56.890625 
Q 59.421875 61.53125 53.78125 63.8125 
Q 48.140625 66.109375 41.796875 66.109375 
Q 29.296875 66.109375 22.65625 58.46875 
Q 16.015625 50.828125 16.015625 36.375 
Q 16.015625 21.96875 22.65625 14.328125 
Q 29.296875 6.6875 41.796875 6.6875 
Q 48.140625 6.6875 53.78125 8.984375 
Q 59.421875 11.28125 64.40625 15.921875 
L 64.40625 5.609375 
Q 59.234375 2.09375 53.4375 0.328125 
Q 47.65625 -1.421875 41.21875 -1.421875 
Q 24.65625 -1.421875 15.125 8.703125 
Q 5.609375 18.84375 5.609375 36.375 
Q 5.609375 53.953125 15.125 64.078125 
Q 24.65625 74.21875 41.21875 74.21875 
Q 47.75 74.21875 53.53125 72.484375 
Q 59.328125 70.75 64.40625 67.28125 
" id="BitstreamVeraSans-Roman-43"/>
     <path d="M 4.890625 31.390625 
L 31.203125 31.390625 
L 31.203125 23.390625 
L 4.890625 23.390625 
z
" id="BitstreamVeraSans-Roman-2d"/>
     <path d="M 9.8125 72.90625 
L 19.671875 72.90625 
L 19.671875 43.015625 
L 55.515625 43.015625 
L 55.515625 72.90625 
L 65.375 72.90625 
L 65.375 0 
L 55.515625 0 
L 55.515625 34.71875 
L 19.671875 34.71875 
L 19.671875 0 
L 9.8125 0 
z
" id="BitstreamVeraSans-Roman-48"/>
    </defs>
    <g transform="translate(248.585625 38.2)scale(0.144 -0.144)">
     <use xlink:href="#BitstreamVeraSans-Roman-48"/>
     <use x="75.1953125" xlink:href="#BitstreamVeraSans-Roman-38"/>
     <use x="138.818359375" xlink:href="#BitstreamVeraSans-Roman-2d"/>
     <use x="174.90234375" xlink:href="#BitstreamVeraSans-Roman-43"/>
     <use x="244.7265625" xlink:href="#BitstreamVeraSans-Roman-34"/>
     <use x="308.349609375" xlink:href="#BitstreamVeraSans-Roman-2d"/>
     <use x="344.43359375" xlink:href="#BitstreamVeraSans-Roman-43"/>
     <use x="414.2578125" xlink:href="#BitstreamVeraSans-Roman-35"/>
     <use x="477.880859375" xlink:href="#BitstreamVeraSans-Roman-2d"/>
     <use x="513.96484375" xlink:href="#BitstreamVeraSans-Roman-43"/>
     <use x="583.7890625" xlink:href="#BitstreamVeraSans-Roman-36"/>
    </g>
   </g>
   <g id="legend_1">
    <g id="patch_7">
     <path d="M 406.15625 108.3125 
L 514.4 108.3125 
L 514.4 47.2 
L 406.15625 47.2 
z
" style="fill:#ffffff;stroke:#000000;stroke-linejoin:miter;"/>
    </g>
    <g id="line2d_40">
     <path d="M 411.75625 53.67875 
L 422.95625 53.67875 
" style="fill:none;stroke:#ff0000;stroke-linecap:square;"/>
    </g>
    <g id="line2d_41">
     <g>
      <use style="fill:#ff0000;stroke:#000000;stroke-width:0.5;" x="411.75625" xlink:href="#m4411dabeab" y="53.67875"/>
      <use style="fill:#ff0000;stroke:#000000;stroke-width:0.5;" x="422.95625" xlink:href="#m4411dabeab" y="53.67875"/>
     </g>
    </g>
    <g id="text_21">
     <!-- QM -->
     <defs>
      <path d="M 9.8125 72.90625 
L 24.515625 72.90625 
L 43.109375 23.296875 
L 61.8125 72.90625 
L 76.515625 72.90625 
L 76.515625 0 
L 66.890625 0 
L 66.890625 64.015625 
L 48.09375 14.015625 
L 38.1875 14.015625 
L 19.390625 64.015625 
L 19.390625 0 
L 9.8125 0 
z
" id="BitstreamVeraSans-Roman-4d"/>
      <path d="M 39.40625 66.21875 
Q 28.65625 66.21875 22.328125 58.203125 
Q 16.015625 50.203125 16.015625 36.375 
Q 16.015625 22.609375 22.328125 14.59375 
Q 28.65625 6.59375 39.40625 6.59375 
Q 50.140625 6.59375 56.421875 14.59375 
Q 62.703125 22.609375 62.703125 36.375 
Q 62.703125 50.203125 56.421875 58.203125 
Q 50.140625 66.21875 39.40625 66.21875 
M 53.21875 1.3125 
L 66.21875 -12.890625 
L 54.296875 -12.890625 
L 43.5 -1.21875 
Q 41.890625 -1.3125 41.03125 -1.359375 
Q 40.1875 -1.421875 39.40625 -1.421875 
Q 24.03125 -1.421875 14.8125 8.859375 
Q 5.609375 19.140625 5.609375 36.375 
Q 5.609375 53.65625 14.8125 63.9375 
Q 24.03125 74.21875 39.40625 74.21875 
Q 54.734375 74.21875 63.90625 63.9375 
Q 73.09375 53.65625 73.09375 36.375 
Q 73.09375 23.6875 67.984375 14.640625 
Q 62.890625 5.609375 53.21875 1.3125 
" id="BitstreamVeraSans-Roman-51"/>
     </defs>
     <g transform="translate(431.75625 56.47875)scale(0.08 -0.08)">
      <use xlink:href="#BitstreamVeraSans-Roman-51"/>
      <use x="78.7109375" xlink:href="#BitstreamVeraSans-Roman-4d"/>
     </g>
    </g>
    <g id="line2d_42">
     <path d="M 411.75625 65.42125 
L 422.95625 65.42125 
" style="fill:none;stroke:#0000ff;stroke-linecap:square;"/>
    </g>
    <g id="line2d_43">
     <g>
      <use style="fill:#0000ff;stroke:#000000;stroke-width:0.5;" x="411.75625" xlink:href="#mc3c1def235" y="65.42125"/>
      <use style="fill:#0000ff;stroke:#000000;stroke-width:0.5;" x="422.95625" xlink:href="#mc3c1def235" y="65.42125"/>
     </g>
    </g>
    <g id="text_22">
     <!-- MM Original -->
     <defs>
      <path d="M 54.890625 33.015625 
L 54.890625 0 
L 45.90625 0 
L 45.90625 32.71875 
Q 45.90625 40.484375 42.875 44.328125 
Q 39.84375 48.1875 33.796875 48.1875 
Q 26.515625 48.1875 22.3125 43.546875 
Q 18.109375 38.921875 18.109375 30.90625 
L 18.109375 0 
L 9.078125 0 
L 9.078125 54.6875 
L 18.109375 54.6875 
L 18.109375 46.1875 
Q 21.34375 51.125 25.703125 53.5625 
Q 30.078125 56 35.796875 56 
Q 45.21875 56 50.046875 50.171875 
Q 54.890625 44.34375 54.890625 33.015625 
" id="BitstreamVeraSans-Roman-6e"/>
      <path d="M 41.109375 46.296875 
Q 39.59375 47.171875 37.8125 47.578125 
Q 36.03125 48 33.890625 48 
Q 26.265625 48 22.1875 43.046875 
Q 18.109375 38.09375 18.109375 28.8125 
L 18.109375 0 
L 9.078125 0 
L 9.078125 54.6875 
L 18.109375 54.6875 
L 18.109375 46.1875 
Q 20.953125 51.171875 25.484375 53.578125 
Q 30.03125 56 36.53125 56 
Q 37.453125 56 38.578125 55.875 
Q 39.703125 55.765625 41.0625 55.515625 
z
" id="BitstreamVeraSans-Roman-72"/>
      <path id="BitstreamVeraSans-Roman-20"/>
      <path d="M 45.40625 27.984375 
Q 45.40625 37.75 41.375 43.109375 
Q 37.359375 48.484375 30.078125 48.484375 
Q 22.859375 48.484375 18.828125 43.109375 
Q 14.796875 37.75 14.796875 27.984375 
Q 14.796875 18.265625 18.828125 12.890625 
Q 22.859375 7.515625 30.078125 7.515625 
Q 37.359375 7.515625 41.375 12.890625 
Q 45.40625 18.265625 45.40625 27.984375 
M 54.390625 6.78125 
Q 54.390625 -7.171875 48.1875 -13.984375 
Q 42 -20.796875 29.203125 -20.796875 
Q 24.46875 -20.796875 20.265625 -20.09375 
Q 16.0625 -19.390625 12.109375 -17.921875 
L 12.109375 -9.1875 
Q 16.0625 -11.328125 19.921875 -12.34375 
Q 23.78125 -13.375 27.78125 -13.375 
Q 36.625 -13.375 41.015625 -8.765625 
Q 45.40625 -4.15625 45.40625 5.171875 
L 45.40625 9.625 
Q 42.625 4.78125 38.28125 2.390625 
Q 33.9375 0 27.875 0 
Q 17.828125 0 11.671875 7.65625 
Q 5.515625 15.328125 5.515625 27.984375 
Q 5.515625 40.671875 11.671875 48.328125 
Q 17.828125 56 27.875 56 
Q 33.9375 56 38.28125 53.609375 
Q 42.625 51.21875 45.40625 46.390625 
L 45.40625 54.6875 
L 54.390625 54.6875 
z
" id="BitstreamVeraSans-Roman-67"/>
      <path d="M 39.40625 66.21875 
Q 28.65625 66.21875 22.328125 58.203125 
Q 16.015625 50.203125 16.015625 36.375 
Q 16.015625 22.609375 22.328125 14.59375 
Q 28.65625 6.59375 39.40625 6.59375 
Q 50.140625 6.59375 56.421875 14.59375 
Q 62.703125 22.609375 62.703125 36.375 
Q 62.703125 50.203125 56.421875 58.203125 
Q 50.140625 66.21875 39.40625 66.21875 
M 39.40625 74.21875 
Q 54.734375 74.21875 63.90625 63.9375 
Q 73.09375 53.65625 73.09375 36.375 
Q 73.09375 19.140625 63.90625 8.859375 
Q 54.734375 -1.421875 39.40625 -1.421875 
Q 24.03125 -1.421875 14.8125 8.828125 
Q 5.609375 19.09375 5.609375 36.375 
Q 5.609375 53.65625 14.8125 63.9375 
Q 24.03125 74.21875 39.40625 74.21875 
" id="BitstreamVeraSans-Roman-4f"/>
     </defs>
     <g transform="translate(431.75625 68.22125)scale(0.08 -0.08)">
      <use xlink:href="#BitstreamVeraSans-Roman-4d"/>
      <use x="86.279296875" xlink:href="#BitstreamVeraSans-Roman-4d"/>
      <use x="172.55859375" xlink:href="#BitstreamVeraSans-Roman-20"/>
      <use x="204.345703125" xlink:href="#BitstreamVeraSans-Roman-4f"/>
      <use x="283.056640625" xlink:href="#BitstreamVeraSans-Roman-72"/>
      <use x="324.169921875" xlink:href="#BitstreamVeraSans-Roman-69"/>
      <use x="351.953125" xlink:href="#BitstreamVeraSans-Roman-67"/>
      <use x="415.4296875" xlink:href="#BitstreamVeraSans-Roman-69"/>
      <use x="443.212890625" xlink:href="#BitstreamVeraSans-Roman-6e"/>
      <use x="506.591796875" xlink:href="#BitstreamVeraSans-Roman-61"/>
      <use x="567.87109375" xlink:href="#BitstreamVeraSans-Roman-6c"/>
     </g>
    </g>
    <g id="line2d_44">
     <path d="M 411.75625 77.16375 
L 422.95625 77.16375 
" style="fill:none;stroke:#000000;stroke-linecap:square;"/>
    </g>
    <g id="line2d_45">
     <g>
      <use style="stroke:#000000;stroke-width:0.5;" x="411.75625" xlink:href="#m7acce0d3b0" y="77.16375"/>
      <use style="stroke:#000000;stroke-width:0.5;" x="422.95625" xlink:href="#m7acce0d3b0" y="77.16375"/>
     </g>
    </g>
    <g id="text_23">
     <!-- MM With phi zeroed -->
     <defs>
      <path d="M 18.3125 70.21875 
L 18.3125 54.6875 
L 36.8125 54.6875 
L 36.8125 47.703125 
L 18.3125 47.703125 
L 18.3125 18.015625 
Q 18.3125 11.328125 20.140625 9.421875 
Q 21.96875 7.515625 27.59375 7.515625 
L 36.8125 7.515625 
L 36.8125 0 
L 27.59375 0 
Q 17.1875 0 13.234375 3.875 
Q 9.28125 7.765625 9.28125 18.015625 
L 9.28125 47.703125 
L 2.6875 47.703125 
L 2.6875 54.6875 
L 9.28125 54.6875 
L 9.28125 70.21875 
z
" id="BitstreamVeraSans-Roman-74"/>
      <path d="M 3.328125 72.90625 
L 13.28125 72.90625 
L 28.609375 11.28125 
L 43.890625 72.90625 
L 54.984375 72.90625 
L 70.3125 11.28125 
L 85.59375 72.90625 
L 95.609375 72.90625 
L 77.296875 0 
L 64.890625 0 
L 49.515625 63.28125 
L 33.984375 0 
L 21.578125 0 
z
" id="BitstreamVeraSans-Roman-57"/>
      <path d="M 18.109375 8.203125 
L 18.109375 -20.796875 
L 9.078125 -20.796875 
L 9.078125 54.6875 
L 18.109375 54.6875 
L 18.109375 46.390625 
Q 20.953125 51.265625 25.265625 53.625 
Q 29.59375 56 35.59375 56 
Q 45.5625 56 51.78125 48.09375 
Q 58.015625 40.1875 58.015625 27.296875 
Q 58.015625 14.40625 51.78125 6.484375 
Q 45.5625 -1.421875 35.59375 -1.421875 
Q 29.59375 -1.421875 25.265625 0.953125 
Q 20.953125 3.328125 18.109375 8.203125 
M 48.6875 27.296875 
Q 48.6875 37.203125 44.609375 42.84375 
Q 40.53125 48.484375 33.40625 48.484375 
Q 26.265625 48.484375 22.1875 42.84375 
Q 18.109375 37.203125 18.109375 27.296875 
Q 18.109375 17.390625 22.1875 11.75 
Q 26.265625 6.109375 33.40625 6.109375 
Q 40.53125 6.109375 44.609375 11.75 
Q 48.6875 17.390625 48.6875 27.296875 
" id="BitstreamVeraSans-Roman-70"/>
      <path d="M 5.515625 54.6875 
L 48.1875 54.6875 
L 48.1875 46.484375 
L 14.40625 7.171875 
L 48.1875 7.171875 
L 48.1875 0 
L 4.296875 0 
L 4.296875 8.203125 
L 38.09375 47.515625 
L 5.515625 47.515625 
z
" id="BitstreamVeraSans-Roman-7a"/>
      <path d="M 45.40625 46.390625 
L 45.40625 75.984375 
L 54.390625 75.984375 
L 54.390625 0 
L 45.40625 0 
L 45.40625 8.203125 
Q 42.578125 3.328125 38.25 0.953125 
Q 33.9375 -1.421875 27.875 -1.421875 
Q 17.96875 -1.421875 11.734375 6.484375 
Q 5.515625 14.40625 5.515625 27.296875 
Q 5.515625 40.1875 11.734375 48.09375 
Q 17.96875 56 27.875 56 
Q 33.9375 56 38.25 53.625 
Q 42.578125 51.265625 45.40625 46.390625 
M 14.796875 27.296875 
Q 14.796875 17.390625 18.875 11.75 
Q 22.953125 6.109375 30.078125 6.109375 
Q 37.203125 6.109375 41.296875 11.75 
Q 45.40625 17.390625 45.40625 27.296875 
Q 45.40625 37.203125 41.296875 42.84375 
Q 37.203125 48.484375 30.078125 48.484375 
Q 22.953125 48.484375 18.875 42.84375 
Q 14.796875 37.203125 14.796875 27.296875 
" id="BitstreamVeraSans-Roman-64"/>
      <path d="M 56.203125 29.59375 
L 56.203125 25.203125 
L 14.890625 25.203125 
Q 15.484375 15.921875 20.484375 11.0625 
Q 25.484375 6.203125 34.421875 6.203125 
Q 39.59375 6.203125 44.453125 7.46875 
Q 49.3125 8.734375 54.109375 11.28125 
L 54.109375 2.78125 
Q 49.265625 0.734375 44.1875 -0.34375 
Q 39.109375 -1.421875 33.890625 -1.421875 
Q 20.796875 -1.421875 13.15625 6.1875 
Q 5.515625 13.8125 5.515625 26.8125 
Q 5.515625 40.234375 12.765625 48.109375 
Q 20.015625 56 32.328125 56 
Q 43.359375 56 49.78125 48.890625 
Q 56.203125 41.796875 56.203125 29.59375 
M 47.21875 32.234375 
Q 47.125 39.59375 43.09375 43.984375 
Q 39.0625 48.390625 32.421875 48.390625 
Q 24.90625 48.390625 20.390625 44.140625 
Q 15.875 39.890625 15.1875 32.171875 
z
" id="BitstreamVeraSans-Roman-65"/>
     </defs>
     <g transform="translate(431.75625 79.96375)scale(0.08 -0.08)">
      <use xlink:href="#BitstreamVeraSans-Roman-4d"/>
      <use x="86.279296875" xlink:href="#BitstreamVeraSans-Roman-4d"/>
      <use x="172.55859375" xlink:href="#BitstreamVeraSans-Roman-20"/>
      <use x="204.345703125" xlink:href="#BitstreamVeraSans-Roman-57"/>
      <use x="303.19140625" xlink:href="#BitstreamVeraSans-Roman-69"/>
      <use x="330.974609375" xlink:href="#BitstreamVeraSans-Roman-74"/>
      <use x="370.18359375" xlink:href="#BitstreamVeraSans-Roman-68"/>
      <use x="433.5625" xlink:href="#BitstreamVeraSans-Roman-20"/>
      <use x="465.349609375" xlink:href="#BitstreamVeraSans-Roman-70"/>
      <use x="528.826171875" xlink:href="#BitstreamVeraSans-Roman-68"/>
      <use x="592.205078125" xlink:href="#BitstreamVeraSans-Roman-69"/>
      <use x="619.98828125" xlink:href="#BitstreamVeraSans-Roman-20"/>
      <use x="651.775390625" xlink:href="#BitstreamVeraSans-Roman-7a"/>
      <use x="704.265625" xlink:href="#BitstreamVeraSans-Roman-65"/>
      <use x="765.7890625" xlink:href="#BitstreamVeraSans-Roman-72"/>
      <use x="806.87109375" xlink:href="#BitstreamVeraSans-Roman-6f"/>
      <use x="868.052734375" xlink:href="#BitstreamVeraSans-Roman-65"/>
      <use x="929.576171875" xlink:href="#BitstreamVeraSans-Roman-64"/>
     </g>
    </g>
    <g id="line2d_46">
     <path d="M 411.75625 88.90625 
L 422.95625 88.90625 
" style="fill:none;stroke:#ff00ff;stroke-linecap:square;"/>
    </g>
    <g id="line2d_47">
     <g>
      <use style="fill:#ff00ff;stroke:#ff00ff;stroke-width:0.5;" x="411.75625" xlink:href="#m0074fc5ecd" y="88.90625"/>
      <use style="fill:#ff00ff;stroke:#ff00ff;stroke-width:0.5;" x="422.95625" xlink:href="#m0074fc5ecd" y="88.90625"/>
     </g>
    </g>
    <g id="text_24">
     <!-- QM-MM target -->
     <g transform="translate(431.75625 91.70625)scale(0.08 -0.08)">
      <use xlink:href="#BitstreamVeraSans-Roman-51"/>
      <use x="78.7109375" xlink:href="#BitstreamVeraSans-Roman-4d"/>
      <use x="164.990234375" xlink:href="#BitstreamVeraSans-Roman-2d"/>
      <use x="201.07421875" xlink:href="#BitstreamVeraSans-Roman-4d"/>
      <use x="287.353515625" xlink:href="#BitstreamVeraSans-Roman-4d"/>
      <use x="373.6328125" xlink:href="#BitstreamVeraSans-Roman-20"/>
      <use x="405.419921875" xlink:href="#BitstreamVeraSans-Roman-74"/>
      <use x="444.62890625" xlink:href="#BitstreamVeraSans-Roman-61"/>
      <use x="505.908203125" xlink:href="#BitstreamVeraSans-Roman-72"/>
      <use x="547.005859375" xlink:href="#BitstreamVeraSans-Roman-67"/>
      <use x="610.482421875" xlink:href="#BitstreamVeraSans-Roman-65"/>
      <use x="672.005859375" xlink:href="#BitstreamVeraSans-Roman-74"/>
     </g>
    </g>
    <g id="line2d_48">
     <path d="M 411.75625 100.64875 
L 422.95625 100.64875 
" style="fill:none;stroke:#008000;stroke-linecap:square;"/>
    </g>
    <g id="line2d_49">
     <g>
      <use style="fill:#008000;stroke:#000000;stroke-width:0.5;" x="411.75625" xlink:href="#mbd2cbdd386" y="100.64875"/>
      <use style="fill:#008000;stroke:#000000;stroke-width:0.5;" x="422.95625" xlink:href="#mbd2cbdd386" y="100.64875"/>
     </g>
    </g>
    <g id="text_25">
     <!-- MM Fitted -->
     <defs>
      <path d="M 9.8125 72.90625 
L 51.703125 72.90625 
L 51.703125 64.59375 
L 19.671875 64.59375 
L 19.671875 43.109375 
L 48.578125 43.109375 
L 48.578125 34.8125 
L 19.671875 34.8125 
L 19.671875 0 
L 9.8125 0 
z
" id="BitstreamVeraSans-Roman-46"/>
     </defs>
     <g transform="translate(431.75625 103.44875)scale(0.08 -0.08)">
      <use xlink:href="#BitstreamVeraSans-Roman-4d"/>
      <use x="86.279296875" xlink:href="#BitstreamVeraSans-Roman-4d"/>
      <use x="172.55859375" xlink:href="#BitstreamVeraSans-Roman-20"/>
      <use x="204.345703125" xlink:href="#BitstreamVeraSans-Roman-46"/>
      <use x="261.755859375" xlink:href="#BitstreamVeraSans-Roman-69"/>
      <use x="289.5390625" xlink:href="#BitstreamVeraSans-Roman-74"/>
      <use x="328.748046875" xlink:href="#BitstreamVeraSans-Roman-74"/>
      <use x="367.95703125" xlink:href="#BitstreamVeraSans-Roman-65"/>
      <use x="429.48046875" xlink:href="#BitstreamVeraSans-Roman-64"/>
     </g>
    </g>
   </g>
  </g>
 </g>
 <defs>
  <clipPath id="pa178f7d7ff">
   <rect height="345.6" width="446.4" x="72.0" y="43.2"/>
  </clipPath>
 </defs>
</svg>
