<?xml version="1.0" encoding="utf-8" standalone="no"?>
<!DOCTYPE svg PUBLIC "-//W3C//DTD SVG 1.1//EN"
  "http://www.w3.org/Graphics/SVG/1.1/DTD/svg11.dtd">
<!-- Created with matplotlib (http://matplotlib.org/) -->
<svg height="432pt" version="1.1" viewBox="0 0 576 432" width="576pt" xmlns="http://www.w3.org/2000/svg" xmlns:xlink="http://www.w3.org/1999/xlink">
 <defs>
  <style type="text/css">
*{stroke-linecap:butt;stroke-linejoin:round;stroke-miterlimit:100000;}
  </style>
 </defs>
 <g id="figure_1">
  <g id="patch_1">
   <path d="M 0 432 
L 576 432 
L 576 0 
L 0 0 
z
" style="fill:#ffffff;"/>
  </g>
  <g id="axes_1">
   <g id="patch_2">
    <path d="M 72 388.8 
L 518.4 388.8 
L 518.4 43.2 
L 72 43.2 
z
" style="fill:#ffffff;"/>
   </g>
   <g id="line2d_1">
    <path clip-path="url(#peeddf006a0)" d="M 72.00014 292.16593 
L 84.399987 294.253108 
L 96.799952 287.938835 
L 109.199974 277.801691 
L 121.599993 270.349663 
L 134.000017 270.383238 
L 146.400014 279.16184 
L 158.799999 295.491669 
L 171.199996 316.979241 
L 183.599996 340.700538 
L 195.999995 363.069697 
L 208.400016 380.219934 
L 220.800018 388.8 
L 233.199999 386.909776 
L 245.599986 374.576613 
L 257.999997 353.926725 
L 270.400032 328.843475 
L 282.800005 303.99918 
L 295.20072 283.811573 
L 307.600031 271.790803 
L 319.999997 269.682178 
L 332.400019 276.038793 
L 344.799996 285.893548 
L 357.200012 293.221185 
L 369.600008 294.016685 
L 381.999993 287.326549 
L 394.400009 274.824149 
L 406.800015 259.548285 
L 419.199988 244.769032 
L 431.60002 233.279204 
L 444.000013 227.241491 
L 456.399988 227.961961 
L 468.800022 235.575832 
L 481.199971 248.89321 
L 493.6 265.439163 
L 505.999968 281.398653 
" style="fill:none;stroke:#ff0000;stroke-linecap:square;"/>
    <defs>
     <path d="M 0 3 
C 0.795609 3 1.55874 2.683901 2.12132 2.12132 
C 2.683901 1.55874 3 0.795609 3 0 
C 3 -0.795609 2.683901 -1.55874 2.12132 -2.12132 
C 1.55874 -2.683901 0.795609 -3 0 -3 
C -0.795609 -3 -1.55874 -2.683901 -2.12132 -2.12132 
C -2.683901 -1.55874 -3 -0.795609 -3 0 
C -3 0.795609 -2.683901 1.55874 -2.12132 2.12132 
C -1.55874 2.683901 -0.795609 3 0 3 
z
" id="m1d96d6aec3" style="stroke:#000000;stroke-width:0.5;"/>
    </defs>
    <g clip-path="url(#peeddf006a0)">
     <use style="fill:#ff0000;stroke:#000000;stroke-width:0.5;" x="72.0001397386" xlink:href="#m1d96d6aec3" y="292.165929528"/>
     <use style="fill:#ff0000;stroke:#000000;stroke-width:0.5;" x="84.3999868417" xlink:href="#m1d96d6aec3" y="294.253107732"/>
     <use style="fill:#ff0000;stroke:#000000;stroke-width:0.5;" x="96.7999521303" xlink:href="#m1d96d6aec3" y="287.938835115"/>
     <use style="fill:#ff0000;stroke:#000000;stroke-width:0.5;" x="109.199974067" xlink:href="#m1d96d6aec3" y="277.80169114"/>
     <use style="fill:#ff0000;stroke:#000000;stroke-width:0.5;" x="121.599993116" xlink:href="#m1d96d6aec3" y="270.349663008"/>
     <use style="fill:#ff0000;stroke:#000000;stroke-width:0.5;" x="134.000016693" xlink:href="#m1d96d6aec3" y="270.383238224"/>
     <use style="fill:#ff0000;stroke:#000000;stroke-width:0.5;" x="146.400013729" xlink:href="#m1d96d6aec3" y="279.161840336"/>
     <use style="fill:#ff0000;stroke:#000000;stroke-width:0.5;" x="158.799998828" xlink:href="#m1d96d6aec3" y="295.491668698"/>
     <use style="fill:#ff0000;stroke:#000000;stroke-width:0.5;" x="171.199995764" xlink:href="#m1d96d6aec3" y="316.979240644"/>
     <use style="fill:#ff0000;stroke:#000000;stroke-width:0.5;" x="183.599995519" xlink:href="#m1d96d6aec3" y="340.700538131"/>
     <use style="fill:#ff0000;stroke:#000000;stroke-width:0.5;" x="195.99999485" xlink:href="#m1d96d6aec3" y="363.069697231"/>
     <use style="fill:#ff0000;stroke:#000000;stroke-width:0.5;" x="208.400015519" xlink:href="#m1d96d6aec3" y="380.219933681"/>
     <use style="fill:#ff0000;stroke:#000000;stroke-width:0.5;" x="220.800018121" xlink:href="#m1d96d6aec3" y="388.8"/>
     <use style="fill:#ff0000;stroke:#000000;stroke-width:0.5;" x="233.199999182" xlink:href="#m1d96d6aec3" y="386.909776391"/>
     <use style="fill:#ff0000;stroke:#000000;stroke-width:0.5;" x="245.599985623" xlink:href="#m1d96d6aec3" y="374.57661287"/>
     <use style="fill:#ff0000;stroke:#000000;stroke-width:0.5;" x="257.999996612" xlink:href="#m1d96d6aec3" y="353.926724772"/>
     <use style="fill:#ff0000;stroke:#000000;stroke-width:0.5;" x="270.400031783" xlink:href="#m1d96d6aec3" y="328.843475157"/>
     <use style="fill:#ff0000;stroke:#000000;stroke-width:0.5;" x="282.80000516" xlink:href="#m1d96d6aec3" y="303.99918"/>
     <use style="fill:#ff0000;stroke:#000000;stroke-width:0.5;" x="295.200719975" xlink:href="#m1d96d6aec3" y="283.811573222"/>
     <use style="fill:#ff0000;stroke:#000000;stroke-width:0.5;" x="307.600030637" xlink:href="#m1d96d6aec3" y="271.790802926"/>
     <use style="fill:#ff0000;stroke:#000000;stroke-width:0.5;" x="319.999997349" xlink:href="#m1d96d6aec3" y="269.682177774"/>
     <use style="fill:#ff0000;stroke:#000000;stroke-width:0.5;" x="332.400019334" xlink:href="#m1d96d6aec3" y="276.038793449"/>
     <use style="fill:#ff0000;stroke:#000000;stroke-width:0.5;" x="344.799996053" xlink:href="#m1d96d6aec3" y="285.893547876"/>
     <use style="fill:#ff0000;stroke:#000000;stroke-width:0.5;" x="357.200011944" xlink:href="#m1d96d6aec3" y="293.22118512"/>
     <use style="fill:#ff0000;stroke:#000000;stroke-width:0.5;" x="369.600008161" xlink:href="#m1d96d6aec3" y="294.016684587"/>
     <use style="fill:#ff0000;stroke:#000000;stroke-width:0.5;" x="381.999992613" xlink:href="#m1d96d6aec3" y="287.326548707"/>
     <use style="fill:#ff0000;stroke:#000000;stroke-width:0.5;" x="394.400009337" xlink:href="#m1d96d6aec3" y="274.82414913"/>
     <use style="fill:#ff0000;stroke:#000000;stroke-width:0.5;" x="406.800014969" xlink:href="#m1d96d6aec3" y="259.548284759"/>
     <use style="fill:#ff0000;stroke:#000000;stroke-width:0.5;" x="419.199987873" xlink:href="#m1d96d6aec3" y="244.769031765"/>
     <use style="fill:#ff0000;stroke:#000000;stroke-width:0.5;" x="431.600019759" xlink:href="#m1d96d6aec3" y="233.279204055"/>
     <use style="fill:#ff0000;stroke:#000000;stroke-width:0.5;" x="444.000012659" xlink:href="#m1d96d6aec3" y="227.241490886"/>
     <use style="fill:#ff0000;stroke:#000000;stroke-width:0.5;" x="456.399987701" xlink:href="#m1d96d6aec3" y="227.961960519"/>
     <use style="fill:#ff0000;stroke:#000000;stroke-width:0.5;" x="468.800021727" xlink:href="#m1d96d6aec3" y="235.575831702"/>
     <use style="fill:#ff0000;stroke:#000000;stroke-width:0.5;" x="481.199970792" xlink:href="#m1d96d6aec3" y="248.893209544"/>
     <use style="fill:#ff0000;stroke:#000000;stroke-width:0.5;" x="493.59999987" xlink:href="#m1d96d6aec3" y="265.439162716"/>
     <use style="fill:#ff0000;stroke:#000000;stroke-width:0.5;" x="505.999968119" xlink:href="#m1d96d6aec3" y="281.398653332"/>
    </g>
   </g>
   <g id="line2d_2">
    <path clip-path="url(#peeddf006a0)" d="M 72.00014 306.797186 
L 84.399987 346.089732 
L 96.799952 368.461699 
L 109.199974 376.695497 
L 121.599993 375.800906 
L 134.000017 371.032219 
L 146.400014 365.355095 
L 158.799999 361.527357 
L 171.199996 361.72982 
L 183.599996 366.738522 
L 195.999995 375.59965 
L 208.400016 384.271078 
L 220.800018 388.8 
L 233.199999 385.984752 
L 245.599986 376.897469 
L 257.999997 366.242361 
L 270.400032 359.164733 
L 282.800005 358.456976 
L 295.20072 363.005469 
L 307.600031 369.718526 
L 319.999997 375.001934 
L 332.400019 376.215622 
L 344.799996 370.685459 
L 357.200012 353.883586 
L 369.600008 322.794461 
L 381.999993 277.959005 
L 394.400009 226.13455 
L 406.800015 174.818814 
L 419.199988 131.960849 
L 431.60002 101.790339 
L 444.000013 86.971216 
L 456.399988 90.406355 
L 468.800022 111.130536 
L 481.199971 148.253438 
L 493.6 198.315297 
L 505.999968 253.866232 
" style="fill:none;stroke:#0000ff;stroke-linecap:square;"/>
    <defs>
     <path d="M 0 3 
C 0.795609 3 1.55874 2.683901 2.12132 2.12132 
C 2.683901 1.55874 3 0.795609 3 0 
C 3 -0.795609 2.683901 -1.55874 2.12132 -2.12132 
C 1.55874 -2.683901 0.795609 -3 0 -3 
C -0.795609 -3 -1.55874 -2.683901 -2.12132 -2.12132 
C -2.683901 -1.55874 -3 -0.795609 -3 0 
C -3 0.795609 -2.683901 1.55874 -2.12132 2.12132 
C -1.55874 2.683901 -0.795609 3 0 3 
z
" id="ma50678d1e6" style="stroke:#000000;stroke-width:0.5;"/>
    </defs>
    <g clip-path="url(#peeddf006a0)">
     <use style="fill:#0000ff;stroke:#000000;stroke-width:0.5;" x="72.0001397386" xlink:href="#ma50678d1e6" y="306.797185543"/>
     <use style="fill:#0000ff;stroke:#000000;stroke-width:0.5;" x="84.3999868417" xlink:href="#ma50678d1e6" y="346.089731862"/>
     <use style="fill:#0000ff;stroke:#000000;stroke-width:0.5;" x="96.7999521303" xlink:href="#ma50678d1e6" y="368.461699117"/>
     <use style="fill:#0000ff;stroke:#000000;stroke-width:0.5;" x="109.199974067" xlink:href="#ma50678d1e6" y="376.695497471"/>
     <use style="fill:#0000ff;stroke:#000000;stroke-width:0.5;" x="121.599993116" xlink:href="#ma50678d1e6" y="375.800905914"/>
     <use style="fill:#0000ff;stroke:#000000;stroke-width:0.5;" x="134.000016693" xlink:href="#ma50678d1e6" y="371.032218725"/>
     <use style="fill:#0000ff;stroke:#000000;stroke-width:0.5;" x="146.400013729" xlink:href="#ma50678d1e6" y="365.35509465"/>
     <use style="fill:#0000ff;stroke:#000000;stroke-width:0.5;" x="158.799998828" xlink:href="#ma50678d1e6" y="361.527356663"/>
     <use style="fill:#0000ff;stroke:#000000;stroke-width:0.5;" x="171.199995764" xlink:href="#ma50678d1e6" y="361.729820367"/>
     <use style="fill:#0000ff;stroke:#000000;stroke-width:0.5;" x="183.599995519" xlink:href="#ma50678d1e6" y="366.738521708"/>
     <use style="fill:#0000ff;stroke:#000000;stroke-width:0.5;" x="195.99999485" xlink:href="#ma50678d1e6" y="375.599650495"/>
     <use style="fill:#0000ff;stroke:#000000;stroke-width:0.5;" x="208.400015519" xlink:href="#ma50678d1e6" y="384.271078272"/>
     <use style="fill:#0000ff;stroke:#000000;stroke-width:0.5;" x="220.800018121" xlink:href="#ma50678d1e6" y="388.8"/>
     <use style="fill:#0000ff;stroke:#000000;stroke-width:0.5;" x="233.199999182" xlink:href="#ma50678d1e6" y="385.984752309"/>
     <use style="fill:#0000ff;stroke:#000000;stroke-width:0.5;" x="245.599985623" xlink:href="#ma50678d1e6" y="376.897469214"/>
     <use style="fill:#0000ff;stroke:#000000;stroke-width:0.5;" x="257.999996612" xlink:href="#ma50678d1e6" y="366.242360694"/>
     <use style="fill:#0000ff;stroke:#000000;stroke-width:0.5;" x="270.400031783" xlink:href="#ma50678d1e6" y="359.164732872"/>
     <use style="fill:#0000ff;stroke:#000000;stroke-width:0.5;" x="282.80000516" xlink:href="#ma50678d1e6" y="358.456976413"/>
     <use style="fill:#0000ff;stroke:#000000;stroke-width:0.5;" x="295.200719975" xlink:href="#ma50678d1e6" y="363.005469251"/>
     <use style="fill:#0000ff;stroke:#000000;stroke-width:0.5;" x="307.600030637" xlink:href="#ma50678d1e6" y="369.718525719"/>
     <use style="fill:#0000ff;stroke:#000000;stroke-width:0.5;" x="319.999997349" xlink:href="#ma50678d1e6" y="375.001933642"/>
     <use style="fill:#0000ff;stroke:#000000;stroke-width:0.5;" x="332.400019334" xlink:href="#ma50678d1e6" y="376.215621756"/>
     <use style="fill:#0000ff;stroke:#000000;stroke-width:0.5;" x="344.799996053" xlink:href="#ma50678d1e6" y="370.685458574"/>
     <use style="fill:#0000ff;stroke:#000000;stroke-width:0.5;" x="357.200011944" xlink:href="#ma50678d1e6" y="353.883586387"/>
     <use style="fill:#0000ff;stroke:#000000;stroke-width:0.5;" x="369.600008161" xlink:href="#ma50678d1e6" y="322.794461076"/>
     <use style="fill:#0000ff;stroke:#000000;stroke-width:0.5;" x="381.999992613" xlink:href="#ma50678d1e6" y="277.959005259"/>
     <use style="fill:#0000ff;stroke:#000000;stroke-width:0.5;" x="394.400009337" xlink:href="#ma50678d1e6" y="226.134550189"/>
     <use style="fill:#0000ff;stroke:#000000;stroke-width:0.5;" x="406.800014969" xlink:href="#ma50678d1e6" y="174.818813741"/>
     <use style="fill:#0000ff;stroke:#000000;stroke-width:0.5;" x="419.199987873" xlink:href="#ma50678d1e6" y="131.960848894"/>
     <use style="fill:#0000ff;stroke:#000000;stroke-width:0.5;" x="431.600019759" xlink:href="#ma50678d1e6" y="101.790338533"/>
     <use style="fill:#0000ff;stroke:#000000;stroke-width:0.5;" x="444.000012659" xlink:href="#ma50678d1e6" y="86.9712156619"/>
     <use style="fill:#0000ff;stroke:#000000;stroke-width:0.5;" x="456.399987701" xlink:href="#ma50678d1e6" y="90.4063545492"/>
     <use style="fill:#0000ff;stroke:#000000;stroke-width:0.5;" x="468.800021727" xlink:href="#ma50678d1e6" y="111.130535738"/>
     <use style="fill:#0000ff;stroke:#000000;stroke-width:0.5;" x="481.199970792" xlink:href="#ma50678d1e6" y="148.253437885"/>
     <use style="fill:#0000ff;stroke:#000000;stroke-width:0.5;" x="493.59999987" xlink:href="#ma50678d1e6" y="198.315296977"/>
     <use style="fill:#0000ff;stroke:#000000;stroke-width:0.5;" x="505.999968119" xlink:href="#ma50678d1e6" y="253.86623179"/>
    </g>
   </g>
   <g id="line2d_3">
    <path clip-path="url(#peeddf006a0)" d="M 72.00014 297.602753 
L 84.399987 338.044101 
L 96.799952 361.495521 
L 109.199974 370.692169 
L 121.599993 370.6505 
L 134.000017 366.688872 
L 146.400014 361.810547 
L 158.799999 358.786111 
L 171.199996 359.78017 
L 183.599996 365.500912 
L 195.999995 374.954027 
L 208.400016 384.054822 
L 220.800018 388.8 
L 233.199999 385.980057 
L 245.599986 376.646222 
L 257.999997 365.491563 
L 270.400032 357.705153 
L 282.800005 356.139995 
L 295.20072 359.780584 
L 307.600031 365.595359 
L 319.999997 370.01265 
L 332.400019 370.36592 
L 344.799996 363.928014 
L 357.200012 346.148976 
L 369.600008 314.020327 
L 381.999993 268.142261 
L 394.400009 215.348389 
L 406.800015 163.182131 
L 419.199988 119.646138 
L 431.60002 89.008583 
L 444.000013 73.965341 
L 456.399988 77.431132 
L 468.800022 98.45182 
L 481.199971 136.133817 
L 493.6 186.998789 
L 505.999968 243.541406 
" style="fill:none;stroke:#000000;stroke-linecap:square;"/>
    <defs>
     <path d="M -3 3 
L 3 -3 
M -3 -3 
L 3 3 
" id="m4bfb4e8efb" style="stroke:#000000;stroke-width:0.5;"/>
    </defs>
    <g clip-path="url(#peeddf006a0)">
     <use style="stroke:#000000;stroke-width:0.5;" x="72.0001397386" xlink:href="#m4bfb4e8efb" y="297.602752692"/>
     <use style="stroke:#000000;stroke-width:0.5;" x="84.3999868417" xlink:href="#m4bfb4e8efb" y="338.04410143"/>
     <use style="stroke:#000000;stroke-width:0.5;" x="96.7999521303" xlink:href="#m4bfb4e8efb" y="361.495520588"/>
     <use style="stroke:#000000;stroke-width:0.5;" x="109.199974067" xlink:href="#m4bfb4e8efb" y="370.692168662"/>
     <use style="stroke:#000000;stroke-width:0.5;" x="121.599993116" xlink:href="#m4bfb4e8efb" y="370.650499905"/>
     <use style="stroke:#000000;stroke-width:0.5;" x="134.000016693" xlink:href="#m4bfb4e8efb" y="366.688872206"/>
     <use style="stroke:#000000;stroke-width:0.5;" x="146.400013729" xlink:href="#m4bfb4e8efb" y="361.810547131"/>
     <use style="stroke:#000000;stroke-width:0.5;" x="158.799998828" xlink:href="#m4bfb4e8efb" y="358.786111288"/>
     <use style="stroke:#000000;stroke-width:0.5;" x="171.199995764" xlink:href="#m4bfb4e8efb" y="359.780170175"/>
     <use style="stroke:#000000;stroke-width:0.5;" x="183.599995519" xlink:href="#m4bfb4e8efb" y="365.500912325"/>
     <use style="stroke:#000000;stroke-width:0.5;" x="195.99999485" xlink:href="#m4bfb4e8efb" y="374.954027409"/>
     <use style="stroke:#000000;stroke-width:0.5;" x="208.400015519" xlink:href="#m4bfb4e8efb" y="384.054822336"/>
     <use style="stroke:#000000;stroke-width:0.5;" x="220.800018121" xlink:href="#m4bfb4e8efb" y="388.8"/>
     <use style="stroke:#000000;stroke-width:0.5;" x="233.199999182" xlink:href="#m4bfb4e8efb" y="385.980057159"/>
     <use style="stroke:#000000;stroke-width:0.5;" x="245.599985623" xlink:href="#m4bfb4e8efb" y="376.646222317"/>
     <use style="stroke:#000000;stroke-width:0.5;" x="257.999996612" xlink:href="#m4bfb4e8efb" y="365.491562688"/>
     <use style="stroke:#000000;stroke-width:0.5;" x="270.400031783" xlink:href="#m4bfb4e8efb" y="357.705153272"/>
     <use style="stroke:#000000;stroke-width:0.5;" x="282.80000516" xlink:href="#m4bfb4e8efb" y="356.139995069"/>
     <use style="stroke:#000000;stroke-width:0.5;" x="295.200719975" xlink:href="#m4bfb4e8efb" y="359.780584161"/>
     <use style="stroke:#000000;stroke-width:0.5;" x="307.600030637" xlink:href="#m4bfb4e8efb" y="365.595358853"/>
     <use style="stroke:#000000;stroke-width:0.5;" x="319.999997349" xlink:href="#m4bfb4e8efb" y="370.012650006"/>
     <use style="stroke:#000000;stroke-width:0.5;" x="332.400019334" xlink:href="#m4bfb4e8efb" y="370.365920434"/>
     <use style="stroke:#000000;stroke-width:0.5;" x="344.799996053" xlink:href="#m4bfb4e8efb" y="363.928013717"/>
     <use style="stroke:#000000;stroke-width:0.5;" x="357.200011944" xlink:href="#m4bfb4e8efb" y="346.14897626"/>
     <use style="stroke:#000000;stroke-width:0.5;" x="369.600008161" xlink:href="#m4bfb4e8efb" y="314.020326817"/>
     <use style="stroke:#000000;stroke-width:0.5;" x="381.999992613" xlink:href="#m4bfb4e8efb" y="268.142260959"/>
     <use style="stroke:#000000;stroke-width:0.5;" x="394.400009337" xlink:href="#m4bfb4e8efb" y="215.348388581"/>
     <use style="stroke:#000000;stroke-width:0.5;" x="406.800014969" xlink:href="#m4bfb4e8efb" y="163.182131336"/>
     <use style="stroke:#000000;stroke-width:0.5;" x="419.199987873" xlink:href="#m4bfb4e8efb" y="119.646137763"/>
     <use style="stroke:#000000;stroke-width:0.5;" x="431.600019759" xlink:href="#m4bfb4e8efb" y="89.0085833124"/>
     <use style="stroke:#000000;stroke-width:0.5;" x="444.000012659" xlink:href="#m4bfb4e8efb" y="73.9653407085"/>
     <use style="stroke:#000000;stroke-width:0.5;" x="456.399987701" xlink:href="#m4bfb4e8efb" y="77.4311319852"/>
     <use style="stroke:#000000;stroke-width:0.5;" x="468.800021727" xlink:href="#m4bfb4e8efb" y="98.4518195325"/>
     <use style="stroke:#000000;stroke-width:0.5;" x="481.199970792" xlink:href="#m4bfb4e8efb" y="136.133816829"/>
     <use style="stroke:#000000;stroke-width:0.5;" x="493.59999987" xlink:href="#m4bfb4e8efb" y="186.998788862"/>
     <use style="stroke:#000000;stroke-width:0.5;" x="505.999968119" xlink:href="#m4bfb4e8efb" y="243.54140619"/>
    </g>
   </g>
   <g id="line2d_4">
    <path clip-path="url(#peeddf006a0)" d="M 72.00014 230.087027 
L 84.399987 191.732856 
L 96.799952 161.967164 
L 109.199974 142.633372 
L 121.599993 135.223013 
L 134.000017 139.218216 
L 146.400014 152.875143 
L 158.799999 172.229407 
L 171.199996 192.72292 
L 183.599996 210.723476 
L 195.999995 223.63952 
L 208.400016 231.688961 
L 220.800018 235.52385 
L 233.199999 236.453569 
L 245.599986 233.45424 
L 257.999997 223.959012 
L 270.400032 206.662172 
L 282.800005 183.383035 
L 295.20072 159.554839 
L 307.600031 141.719294 
L 319.999997 135.193378 
L 332.400019 141.196723 
L 344.799996 157.489384 
L 357.200012 182.596059 
L 369.600008 215.520208 
L 381.999993 254.708138 
L 394.400009 294.99961 
L 406.800015 331.890003 
L 419.199988 360.646744 
L 431.60002 379.794471 
L 444.000013 388.8 
L 456.399988 386.054678 
L 468.800022 372.647862 
L 481.199971 348.283243 
L 493.6 313.964224 
L 505.999968 273.381097 
" style="fill:none;stroke:#ff00ff;stroke-linecap:square;"/>
    <defs>
     <path d="M -3 3 
L 3 -3 
M -3 -3 
L 3 3 
" id="m207b586144" style="stroke:#ff00ff;stroke-width:0.5;"/>
    </defs>
    <g clip-path="url(#peeddf006a0)">
     <use style="fill:#ff00ff;stroke:#ff00ff;stroke-width:0.5;" x="72.0001397386" xlink:href="#m207b586144" y="230.087026658"/>
     <use style="fill:#ff00ff;stroke:#ff00ff;stroke-width:0.5;" x="84.3999868417" xlink:href="#m207b586144" y="191.732856124"/>
     <use style="fill:#ff00ff;stroke:#ff00ff;stroke-width:0.5;" x="96.7999521303" xlink:href="#m207b586144" y="161.967164349"/>
     <use style="fill:#ff00ff;stroke:#ff00ff;stroke-width:0.5;" x="109.199974067" xlink:href="#m207b586144" y="142.633372301"/>
     <use style="fill:#ff00ff;stroke:#ff00ff;stroke-width:0.5;" x="121.599993116" xlink:href="#m207b586144" y="135.223012926"/>
     <use style="fill:#ff00ff;stroke:#ff00ff;stroke-width:0.5;" x="134.000016693" xlink:href="#m207b586144" y="139.21821584"/>
     <use style="fill:#ff00ff;stroke:#ff00ff;stroke-width:0.5;" x="146.400013729" xlink:href="#m207b586144" y="152.875143028"/>
     <use style="fill:#ff00ff;stroke:#ff00ff;stroke-width:0.5;" x="158.799998828" xlink:href="#m207b586144" y="172.229407232"/>
     <use style="fill:#ff00ff;stroke:#ff00ff;stroke-width:0.5;" x="171.199995764" xlink:href="#m207b586144" y="192.722920292"/>
     <use style="fill:#ff00ff;stroke:#ff00ff;stroke-width:0.5;" x="183.599995519" xlink:href="#m207b586144" y="210.723475627"/>
     <use style="fill:#ff00ff;stroke:#ff00ff;stroke-width:0.5;" x="195.99999485" xlink:href="#m207b586144" y="223.639519644"/>
     <use style="fill:#ff00ff;stroke:#ff00ff;stroke-width:0.5;" x="208.400015519" xlink:href="#m207b586144" y="231.688961167"/>
     <use style="fill:#ff00ff;stroke:#ff00ff;stroke-width:0.5;" x="220.800018121" xlink:href="#m207b586144" y="235.523849822"/>
     <use style="fill:#ff00ff;stroke:#ff00ff;stroke-width:0.5;" x="233.199999182" xlink:href="#m207b586144" y="236.453569054"/>
     <use style="fill:#ff00ff;stroke:#ff00ff;stroke-width:0.5;" x="245.599985623" xlink:href="#m207b586144" y="233.454240375"/>
     <use style="fill:#ff00ff;stroke:#ff00ff;stroke-width:0.5;" x="257.999996612" xlink:href="#m207b586144" y="223.959011907"/>
     <use style="fill:#ff00ff;stroke:#ff00ff;stroke-width:0.5;" x="270.400031783" xlink:href="#m207b586144" y="206.662171707"/>
     <use style="fill:#ff00ff;stroke:#ff00ff;stroke-width:0.5;" x="282.80000516" xlink:href="#m207b586144" y="183.383034754"/>
     <use style="fill:#ff00ff;stroke:#ff00ff;stroke-width:0.5;" x="295.200719975" xlink:href="#m207b586144" y="159.554838882"/>
     <use style="fill:#ff00ff;stroke:#ff00ff;stroke-width:0.5;" x="307.600030637" xlink:href="#m207b586144" y="141.719293895"/>
     <use style="fill:#ff00ff;stroke:#ff00ff;stroke-width:0.5;" x="319.999997349" xlink:href="#m207b586144" y="135.19337759"/>
     <use style="fill:#ff00ff;stroke:#ff00ff;stroke-width:0.5;" x="332.400019334" xlink:href="#m207b586144" y="141.196722837"/>
     <use style="fill:#ff00ff;stroke:#ff00ff;stroke-width:0.5;" x="344.799996053" xlink:href="#m207b586144" y="157.489383981"/>
     <use style="fill:#ff00ff;stroke:#ff00ff;stroke-width:0.5;" x="357.200011944" xlink:href="#m207b586144" y="182.596058682"/>
     <use style="fill:#ff00ff;stroke:#ff00ff;stroke-width:0.5;" x="369.600008161" xlink:href="#m207b586144" y="215.520207592"/>
     <use style="fill:#ff00ff;stroke:#ff00ff;stroke-width:0.5;" x="381.999992613" xlink:href="#m207b586144" y="254.708137571"/>
     <use style="fill:#ff00ff;stroke:#ff00ff;stroke-width:0.5;" x="394.400009337" xlink:href="#m207b586144" y="294.999610371"/>
     <use style="fill:#ff00ff;stroke:#ff00ff;stroke-width:0.5;" x="406.800014969" xlink:href="#m207b586144" y="331.890003245"/>
     <use style="fill:#ff00ff;stroke:#ff00ff;stroke-width:0.5;" x="419.199987873" xlink:href="#m207b586144" y="360.646743824"/>
     <use style="fill:#ff00ff;stroke:#ff00ff;stroke-width:0.5;" x="431.600019759" xlink:href="#m207b586144" y="379.794470565"/>
     <use style="fill:#ff00ff;stroke:#ff00ff;stroke-width:0.5;" x="444.000012659" xlink:href="#m207b586144" y="388.8"/>
     <use style="fill:#ff00ff;stroke:#ff00ff;stroke-width:0.5;" x="456.399987701" xlink:href="#m207b586144" y="386.054678356"/>
     <use style="fill:#ff00ff;stroke:#ff00ff;stroke-width:0.5;" x="468.800021727" xlink:href="#m207b586144" y="372.647861992"/>
     <use style="fill:#ff00ff;stroke:#ff00ff;stroke-width:0.5;" x="481.199970792" xlink:href="#m207b586144" y="348.283242537"/>
     <use style="fill:#ff00ff;stroke:#ff00ff;stroke-width:0.5;" x="493.59999987" xlink:href="#m207b586144" y="313.964223676"/>
     <use style="fill:#ff00ff;stroke:#ff00ff;stroke-width:0.5;" x="505.999968119" xlink:href="#m207b586144" y="273.381096965"/>
    </g>
   </g>
   <g id="line2d_5">
    <path clip-path="url(#peeddf006a0)" d="M 72.00014 291.606637 
L 84.399987 293.734004 
L 96.799952 287.65715 
L 109.199974 277.784292 
L 121.599993 269.863975 
L 134.000017 269.334221 
L 146.400014 278.04998 
L 158.799999 295.337552 
L 171.199996 318.371833 
L 183.599996 343.14301 
L 195.999995 365.796075 
L 208.400016 381.87242 
L 220.800018 388.8 
L 233.199999 384.592529 
L 245.599986 370.2343 
L 257.999997 349.011745 
L 270.400032 324.853255 
L 282.800005 301.665257 
L 295.20072 282.824186 
L 307.600031 271.407667 
L 319.999997 268.708357 
L 332.400019 274.03074 
L 344.799996 283.989185 
L 357.200012 292.203504 
L 369.600008 293.425735 
L 381.999993 285.70164 
L 394.400009 272.232479 
L 406.800015 256.209654 
L 419.199988 241.68652 
L 431.60002 230.666096 
L 444.000013 225.137357 
L 456.399988 227.83909 
L 468.800022 237.082963 
L 481.199971 251.054645 
L 493.6 266.929494 
L 505.999968 281.1008 
" style="fill:none;stroke:#008000;stroke-linecap:square;"/>
    <defs>
     <path d="M 0 3 
C 0.795609 3 1.55874 2.683901 2.12132 2.12132 
C 2.683901 1.55874 3 0.795609 3 0 
C 3 -0.795609 2.683901 -1.55874 2.12132 -2.12132 
C 1.55874 -2.683901 0.795609 -3 0 -3 
C -0.795609 -3 -1.55874 -2.683901 -2.12132 -2.12132 
C -2.683901 -1.55874 -3 -0.795609 -3 0 
C -3 0.795609 -2.683901 1.55874 -2.12132 2.12132 
C -1.55874 2.683901 -0.795609 3 0 3 
z
" id="ma86782a48b" style="stroke:#000000;stroke-width:0.5;"/>
    </defs>
    <g clip-path="url(#peeddf006a0)">
     <use style="fill:#008000;stroke:#000000;stroke-width:0.5;" x="72.0001397386" xlink:href="#ma86782a48b" y="291.606637061"/>
     <use style="fill:#008000;stroke:#000000;stroke-width:0.5;" x="84.3999868417" xlink:href="#ma86782a48b" y="293.734003905"/>
     <use style="fill:#008000;stroke:#000000;stroke-width:0.5;" x="96.7999521303" xlink:href="#ma86782a48b" y="287.657150026"/>
     <use style="fill:#008000;stroke:#000000;stroke-width:0.5;" x="109.199974067" xlink:href="#ma86782a48b" y="277.784292358"/>
     <use style="fill:#008000;stroke:#000000;stroke-width:0.5;" x="121.599993116" xlink:href="#ma86782a48b" y="269.863974894"/>
     <use style="fill:#008000;stroke:#000000;stroke-width:0.5;" x="134.000016693" xlink:href="#ma86782a48b" y="269.334220981"/>
     <use style="fill:#008000;stroke:#000000;stroke-width:0.5;" x="146.400013729" xlink:href="#ma86782a48b" y="278.049979774"/>
     <use style="fill:#008000;stroke:#000000;stroke-width:0.5;" x="158.799998828" xlink:href="#ma86782a48b" y="295.337552136"/>
     <use style="fill:#008000;stroke:#000000;stroke-width:0.5;" x="171.199995764" xlink:href="#ma86782a48b" y="318.371832951"/>
     <use style="fill:#008000;stroke:#000000;stroke-width:0.5;" x="183.599995519" xlink:href="#ma86782a48b" y="343.14300977"/>
     <use style="fill:#008000;stroke:#000000;stroke-width:0.5;" x="195.99999485" xlink:href="#ma86782a48b" y="365.796074621"/>
     <use style="fill:#008000;stroke:#000000;stroke-width:0.5;" x="208.400015519" xlink:href="#ma86782a48b" y="381.872420012"/>
     <use style="fill:#008000;stroke:#000000;stroke-width:0.5;" x="220.800018121" xlink:href="#ma86782a48b" y="388.8"/>
     <use style="fill:#008000;stroke:#000000;stroke-width:0.5;" x="233.199999182" xlink:href="#ma86782a48b" y="384.59252853"/>
     <use style="fill:#008000;stroke:#000000;stroke-width:0.5;" x="245.599985623" xlink:href="#ma86782a48b" y="370.234300012"/>
     <use style="fill:#008000;stroke:#000000;stroke-width:0.5;" x="257.999996612" xlink:href="#ma86782a48b" y="349.011745421"/>
     <use style="fill:#008000;stroke:#000000;stroke-width:0.5;" x="270.400031783" xlink:href="#ma86782a48b" y="324.853255124"/>
     <use style="fill:#008000;stroke:#000000;stroke-width:0.5;" x="282.80000516" xlink:href="#ma86782a48b" y="301.665257437"/>
     <use style="fill:#008000;stroke:#000000;stroke-width:0.5;" x="295.200719975" xlink:href="#ma86782a48b" y="282.824186254"/>
     <use style="fill:#008000;stroke:#000000;stroke-width:0.5;" x="307.600030637" xlink:href="#ma86782a48b" y="271.407666968"/>
     <use style="fill:#008000;stroke:#000000;stroke-width:0.5;" x="319.999997349" xlink:href="#ma86782a48b" y="268.708356986"/>
     <use style="fill:#008000;stroke:#000000;stroke-width:0.5;" x="332.400019334" xlink:href="#ma86782a48b" y="274.030739692"/>
     <use style="fill:#008000;stroke:#000000;stroke-width:0.5;" x="344.799996053" xlink:href="#ma86782a48b" y="283.989184872"/>
     <use style="fill:#008000;stroke:#000000;stroke-width:0.5;" x="357.200011944" xlink:href="#ma86782a48b" y="292.20350405"/>
     <use style="fill:#008000;stroke:#000000;stroke-width:0.5;" x="369.600008161" xlink:href="#ma86782a48b" y="293.425734956"/>
     <use style="fill:#008000;stroke:#000000;stroke-width:0.5;" x="381.999992613" xlink:href="#ma86782a48b" y="285.701639686"/>
     <use style="fill:#008000;stroke:#000000;stroke-width:0.5;" x="394.400009337" xlink:href="#ma86782a48b" y="272.232479436"/>
     <use style="fill:#008000;stroke:#000000;stroke-width:0.5;" x="406.800014969" xlink:href="#ma86782a48b" y="256.209653845"/>
     <use style="fill:#008000;stroke:#000000;stroke-width:0.5;" x="419.199987873" xlink:href="#ma86782a48b" y="241.686520022"/>
     <use style="fill:#008000;stroke:#000000;stroke-width:0.5;" x="431.600019759" xlink:href="#ma86782a48b" y="230.666096416"/>
     <use style="fill:#008000;stroke:#000000;stroke-width:0.5;" x="444.000012659" xlink:href="#ma86782a48b" y="225.137356996"/>
     <use style="fill:#008000;stroke:#000000;stroke-width:0.5;" x="456.399987701" xlink:href="#ma86782a48b" y="227.839089818"/>
     <use style="fill:#008000;stroke:#000000;stroke-width:0.5;" x="468.800021727" xlink:href="#ma86782a48b" y="237.082963075"/>
     <use style="fill:#008000;stroke:#000000;stroke-width:0.5;" x="481.199970792" xlink:href="#ma86782a48b" y="251.054645028"/>
     <use style="fill:#008000;stroke:#000000;stroke-width:0.5;" x="493.59999987" xlink:href="#ma86782a48b" y="266.929493951"/>
     <use style="fill:#008000;stroke:#000000;stroke-width:0.5;" x="505.999968119" xlink:href="#ma86782a48b" y="281.100800457"/>
    </g>
   </g>
   <g id="patch_3">
    <path d="M 72 43.2 
L 518.4 43.2 
" style="fill:none;stroke:#000000;stroke-linecap:square;stroke-linejoin:miter;"/>
   </g>
   <g id="patch_4">
    <path d="M 518.4 388.8 
L 518.4 43.2 
" style="fill:none;stroke:#000000;stroke-linecap:square;stroke-linejoin:miter;"/>
   </g>
   <g id="patch_5">
    <path d="M 72 388.8 
L 72 43.2 
" style="fill:none;stroke:#000000;stroke-linecap:square;stroke-linejoin:miter;"/>
   </g>
   <g id="patch_6">
    <path d="M 72 388.8 
L 518.4 388.8 
" style="fill:none;stroke:#000000;stroke-linecap:square;stroke-linejoin:miter;"/>
   </g>
   <g id="matplotlib.axis_1">
    <g id="xtick_1">
     <g id="line2d_6">
      <defs>
       <path d="M 0 0 
L 0 -4 
" id="m2dfa53daf8" style="stroke:#000000;stroke-width:0.5;"/>
      </defs>
      <g>
       <use style="stroke:#000000;stroke-width:0.5;" x="72.0" xlink:href="#m2dfa53daf8" y="388.8"/>
      </g>
     </g>
     <g id="line2d_7">
      <defs>
       <path d="M 0 0 
L 0 4 
" id="m5e8f83e033" style="stroke:#000000;stroke-width:0.5;"/>
      </defs>
      <g>
       <use style="stroke:#000000;stroke-width:0.5;" x="72.0" xlink:href="#m5e8f83e033" y="43.2"/>
      </g>
     </g>
     <g id="text_1">
      <!-- −180 -->
      <defs>
       <path d="M 12.40625 8.296875 
L 28.515625 8.296875 
L 28.515625 63.921875 
L 10.984375 60.40625 
L 10.984375 69.390625 
L 28.421875 72.90625 
L 38.28125 72.90625 
L 38.28125 8.296875 
L 54.390625 8.296875 
L 54.390625 0 
L 12.40625 0 
z
" id="BitstreamVeraSans-Roman-31"/>
       <path d="M 10.59375 35.5 
L 73.1875 35.5 
L 73.1875 27.203125 
L 10.59375 27.203125 
z
" id="BitstreamVeraSans-Roman-2212"/>
       <path d="M 31.78125 34.625 
Q 24.75 34.625 20.71875 30.859375 
Q 16.703125 27.09375 16.703125 20.515625 
Q 16.703125 13.921875 20.71875 10.15625 
Q 24.75 6.390625 31.78125 6.390625 
Q 38.8125 6.390625 42.859375 10.171875 
Q 46.921875 13.96875 46.921875 20.515625 
Q 46.921875 27.09375 42.890625 30.859375 
Q 38.875 34.625 31.78125 34.625 
M 21.921875 38.8125 
Q 15.578125 40.375 12.03125 44.71875 
Q 8.5 49.078125 8.5 55.328125 
Q 8.5 64.0625 14.71875 69.140625 
Q 20.953125 74.21875 31.78125 74.21875 
Q 42.671875 74.21875 48.875 69.140625 
Q 55.078125 64.0625 55.078125 55.328125 
Q 55.078125 49.078125 51.53125 44.71875 
Q 48 40.375 41.703125 38.8125 
Q 48.828125 37.15625 52.796875 32.3125 
Q 56.78125 27.484375 56.78125 20.515625 
Q 56.78125 9.90625 50.3125 4.234375 
Q 43.84375 -1.421875 31.78125 -1.421875 
Q 19.734375 -1.421875 13.25 4.234375 
Q 6.78125 9.90625 6.78125 20.515625 
Q 6.78125 27.484375 10.78125 32.3125 
Q 14.796875 37.15625 21.921875 38.8125 
M 18.3125 54.390625 
Q 18.3125 48.734375 21.84375 45.5625 
Q 25.390625 42.390625 31.78125 42.390625 
Q 38.140625 42.390625 41.71875 45.5625 
Q 45.3125 48.734375 45.3125 54.390625 
Q 45.3125 60.0625 41.71875 63.234375 
Q 38.140625 66.40625 31.78125 66.40625 
Q 25.390625 66.40625 21.84375 63.234375 
Q 18.3125 60.0625 18.3125 54.390625 
" id="BitstreamVeraSans-Roman-38"/>
       <path d="M 31.78125 66.40625 
Q 24.171875 66.40625 20.328125 58.90625 
Q 16.5 51.421875 16.5 36.375 
Q 16.5 21.390625 20.328125 13.890625 
Q 24.171875 6.390625 31.78125 6.390625 
Q 39.453125 6.390625 43.28125 13.890625 
Q 47.125 21.390625 47.125 36.375 
Q 47.125 51.421875 43.28125 58.90625 
Q 39.453125 66.40625 31.78125 66.40625 
M 31.78125 74.21875 
Q 44.046875 74.21875 50.515625 64.515625 
Q 56.984375 54.828125 56.984375 36.375 
Q 56.984375 17.96875 50.515625 8.265625 
Q 44.046875 -1.421875 31.78125 -1.421875 
Q 19.53125 -1.421875 13.0625 8.265625 
Q 6.59375 17.96875 6.59375 36.375 
Q 6.59375 54.828125 13.0625 64.515625 
Q 19.53125 74.21875 31.78125 74.21875 
" id="BitstreamVeraSans-Roman-30"/>
      </defs>
      <g transform="translate(55.5196875 401.918125)scale(0.12 -0.12)">
       <use xlink:href="#BitstreamVeraSans-Roman-2212"/>
       <use x="83.7890625" xlink:href="#BitstreamVeraSans-Roman-31"/>
       <use x="147.412109375" xlink:href="#BitstreamVeraSans-Roman-38"/>
       <use x="211.03515625" xlink:href="#BitstreamVeraSans-Roman-30"/>
      </g>
     </g>
    </g>
    <g id="xtick_2">
     <g id="line2d_8">
      <g>
       <use style="stroke:#000000;stroke-width:0.5;" x="127.8" xlink:href="#m2dfa53daf8" y="388.8"/>
      </g>
     </g>
     <g id="line2d_9">
      <g>
       <use style="stroke:#000000;stroke-width:0.5;" x="127.8" xlink:href="#m5e8f83e033" y="43.2"/>
      </g>
     </g>
     <g id="text_2">
      <!-- −135 -->
      <defs>
       <path d="M 40.578125 39.3125 
Q 47.65625 37.796875 51.625 33 
Q 55.609375 28.21875 55.609375 21.1875 
Q 55.609375 10.40625 48.1875 4.484375 
Q 40.765625 -1.421875 27.09375 -1.421875 
Q 22.515625 -1.421875 17.65625 -0.515625 
Q 12.796875 0.390625 7.625 2.203125 
L 7.625 11.71875 
Q 11.71875 9.328125 16.59375 8.109375 
Q 21.484375 6.890625 26.8125 6.890625 
Q 36.078125 6.890625 40.9375 10.546875 
Q 45.796875 14.203125 45.796875 21.1875 
Q 45.796875 27.640625 41.28125 31.265625 
Q 36.765625 34.90625 28.71875 34.90625 
L 20.21875 34.90625 
L 20.21875 43.015625 
L 29.109375 43.015625 
Q 36.375 43.015625 40.234375 45.921875 
Q 44.09375 48.828125 44.09375 54.296875 
Q 44.09375 59.90625 40.109375 62.90625 
Q 36.140625 65.921875 28.71875 65.921875 
Q 24.65625 65.921875 20.015625 65.03125 
Q 15.375 64.15625 9.8125 62.3125 
L 9.8125 71.09375 
Q 15.4375 72.65625 20.34375 73.4375 
Q 25.25 74.21875 29.59375 74.21875 
Q 40.828125 74.21875 47.359375 69.109375 
Q 53.90625 64.015625 53.90625 55.328125 
Q 53.90625 49.265625 50.4375 45.09375 
Q 46.96875 40.921875 40.578125 39.3125 
" id="BitstreamVeraSans-Roman-33"/>
       <path d="M 10.796875 72.90625 
L 49.515625 72.90625 
L 49.515625 64.59375 
L 19.828125 64.59375 
L 19.828125 46.734375 
Q 21.96875 47.46875 24.109375 47.828125 
Q 26.265625 48.1875 28.421875 48.1875 
Q 40.625 48.1875 47.75 41.5 
Q 54.890625 34.8125 54.890625 23.390625 
Q 54.890625 11.625 47.5625 5.09375 
Q 40.234375 -1.421875 26.90625 -1.421875 
Q 22.3125 -1.421875 17.546875 -0.640625 
Q 12.796875 0.140625 7.71875 1.703125 
L 7.71875 11.625 
Q 12.109375 9.234375 16.796875 8.0625 
Q 21.484375 6.890625 26.703125 6.890625 
Q 35.15625 6.890625 40.078125 11.328125 
Q 45.015625 15.765625 45.015625 23.390625 
Q 45.015625 31 40.078125 35.4375 
Q 35.15625 39.890625 26.703125 39.890625 
Q 22.75 39.890625 18.8125 39.015625 
Q 14.890625 38.140625 10.796875 36.28125 
z
" id="BitstreamVeraSans-Roman-35"/>
      </defs>
      <g transform="translate(111.3196875 401.918125)scale(0.12 -0.12)">
       <use xlink:href="#BitstreamVeraSans-Roman-2212"/>
       <use x="83.7890625" xlink:href="#BitstreamVeraSans-Roman-31"/>
       <use x="147.412109375" xlink:href="#BitstreamVeraSans-Roman-33"/>
       <use x="211.03515625" xlink:href="#BitstreamVeraSans-Roman-35"/>
      </g>
     </g>
    </g>
    <g id="xtick_3">
     <g id="line2d_10">
      <g>
       <use style="stroke:#000000;stroke-width:0.5;" x="183.6" xlink:href="#m2dfa53daf8" y="388.8"/>
      </g>
     </g>
     <g id="line2d_11">
      <g>
       <use style="stroke:#000000;stroke-width:0.5;" x="183.6" xlink:href="#m5e8f83e033" y="43.2"/>
      </g>
     </g>
     <g id="text_3">
      <!-- −90 -->
      <defs>
       <path d="M 10.984375 1.515625 
L 10.984375 10.5 
Q 14.703125 8.734375 18.5 7.8125 
Q 22.3125 6.890625 25.984375 6.890625 
Q 35.75 6.890625 40.890625 13.453125 
Q 46.046875 20.015625 46.78125 33.40625 
Q 43.953125 29.203125 39.59375 26.953125 
Q 35.25 24.703125 29.984375 24.703125 
Q 19.046875 24.703125 12.671875 31.3125 
Q 6.296875 37.9375 6.296875 49.421875 
Q 6.296875 60.640625 12.9375 67.421875 
Q 19.578125 74.21875 30.609375 74.21875 
Q 43.265625 74.21875 49.921875 64.515625 
Q 56.59375 54.828125 56.59375 36.375 
Q 56.59375 19.140625 48.40625 8.859375 
Q 40.234375 -1.421875 26.421875 -1.421875 
Q 22.703125 -1.421875 18.890625 -0.6875 
Q 15.09375 0.046875 10.984375 1.515625 
M 30.609375 32.421875 
Q 37.25 32.421875 41.125 36.953125 
Q 45.015625 41.5 45.015625 49.421875 
Q 45.015625 57.28125 41.125 61.84375 
Q 37.25 66.40625 30.609375 66.40625 
Q 23.96875 66.40625 20.09375 61.84375 
Q 16.21875 57.28125 16.21875 49.421875 
Q 16.21875 41.5 20.09375 36.953125 
Q 23.96875 32.421875 30.609375 32.421875 
" id="BitstreamVeraSans-Roman-39"/>
      </defs>
      <g transform="translate(170.9371875 401.918125)scale(0.12 -0.12)">
       <use xlink:href="#BitstreamVeraSans-Roman-2212"/>
       <use x="83.7890625" xlink:href="#BitstreamVeraSans-Roman-39"/>
       <use x="147.412109375" xlink:href="#BitstreamVeraSans-Roman-30"/>
      </g>
     </g>
    </g>
    <g id="xtick_4">
     <g id="line2d_12">
      <g>
       <use style="stroke:#000000;stroke-width:0.5;" x="239.4" xlink:href="#m2dfa53daf8" y="388.8"/>
      </g>
     </g>
     <g id="line2d_13">
      <g>
       <use style="stroke:#000000;stroke-width:0.5;" x="239.4" xlink:href="#m5e8f83e033" y="43.2"/>
      </g>
     </g>
     <g id="text_4">
      <!-- −45 -->
      <defs>
       <path d="M 37.796875 64.3125 
L 12.890625 25.390625 
L 37.796875 25.390625 
z
M 35.203125 72.90625 
L 47.609375 72.90625 
L 47.609375 25.390625 
L 58.015625 25.390625 
L 58.015625 17.1875 
L 47.609375 17.1875 
L 47.609375 0 
L 37.796875 0 
L 37.796875 17.1875 
L 4.890625 17.1875 
L 4.890625 26.703125 
z
" id="BitstreamVeraSans-Roman-34"/>
      </defs>
      <g transform="translate(226.7371875 401.918125)scale(0.12 -0.12)">
       <use xlink:href="#BitstreamVeraSans-Roman-2212"/>
       <use x="83.7890625" xlink:href="#BitstreamVeraSans-Roman-34"/>
       <use x="147.412109375" xlink:href="#BitstreamVeraSans-Roman-35"/>
      </g>
     </g>
    </g>
    <g id="xtick_5">
     <g id="line2d_14">
      <g>
       <use style="stroke:#000000;stroke-width:0.5;" x="295.2" xlink:href="#m2dfa53daf8" y="388.8"/>
      </g>
     </g>
     <g id="line2d_15">
      <g>
       <use style="stroke:#000000;stroke-width:0.5;" x="295.2" xlink:href="#m5e8f83e033" y="43.2"/>
      </g>
     </g>
     <g id="text_5">
      <!-- 0 -->
      <g transform="translate(291.3825 401.918125)scale(0.12 -0.12)">
       <use xlink:href="#BitstreamVeraSans-Roman-30"/>
      </g>
     </g>
    </g>
    <g id="xtick_6">
     <g id="line2d_16">
      <g>
       <use style="stroke:#000000;stroke-width:0.5;" x="351.0" xlink:href="#m2dfa53daf8" y="388.8"/>
      </g>
     </g>
     <g id="line2d_17">
      <g>
       <use style="stroke:#000000;stroke-width:0.5;" x="351.0" xlink:href="#m5e8f83e033" y="43.2"/>
      </g>
     </g>
     <g id="text_6">
      <!-- 45 -->
      <g transform="translate(343.365 401.918125)scale(0.12 -0.12)">
       <use xlink:href="#BitstreamVeraSans-Roman-34"/>
       <use x="63.623046875" xlink:href="#BitstreamVeraSans-Roman-35"/>
      </g>
     </g>
    </g>
    <g id="xtick_7">
     <g id="line2d_18">
      <g>
       <use style="stroke:#000000;stroke-width:0.5;" x="406.8" xlink:href="#m2dfa53daf8" y="388.8"/>
      </g>
     </g>
     <g id="line2d_19">
      <g>
       <use style="stroke:#000000;stroke-width:0.5;" x="406.8" xlink:href="#m5e8f83e033" y="43.2"/>
      </g>
     </g>
     <g id="text_7">
      <!-- 90 -->
      <g transform="translate(399.165 401.918125)scale(0.12 -0.12)">
       <use xlink:href="#BitstreamVeraSans-Roman-39"/>
       <use x="63.623046875" xlink:href="#BitstreamVeraSans-Roman-30"/>
      </g>
     </g>
    </g>
    <g id="xtick_8">
     <g id="line2d_20">
      <g>
       <use style="stroke:#000000;stroke-width:0.5;" x="462.6" xlink:href="#m2dfa53daf8" y="388.8"/>
      </g>
     </g>
     <g id="line2d_21">
      <g>
       <use style="stroke:#000000;stroke-width:0.5;" x="462.6" xlink:href="#m5e8f83e033" y="43.2"/>
      </g>
     </g>
     <g id="text_8">
      <!-- 135 -->
      <g transform="translate(451.1475 401.918125)scale(0.12 -0.12)">
       <use xlink:href="#BitstreamVeraSans-Roman-31"/>
       <use x="63.623046875" xlink:href="#BitstreamVeraSans-Roman-33"/>
       <use x="127.24609375" xlink:href="#BitstreamVeraSans-Roman-35"/>
      </g>
     </g>
    </g>
    <g id="xtick_9">
     <g id="line2d_22">
      <g>
       <use style="stroke:#000000;stroke-width:0.5;" x="518.4" xlink:href="#m2dfa53daf8" y="388.8"/>
      </g>
     </g>
     <g id="line2d_23">
      <g>
       <use style="stroke:#000000;stroke-width:0.5;" x="518.4" xlink:href="#m5e8f83e033" y="43.2"/>
      </g>
     </g>
     <g id="text_9">
      <!-- 180 -->
      <g transform="translate(506.9475 401.918125)scale(0.12 -0.12)">
       <use xlink:href="#BitstreamVeraSans-Roman-31"/>
       <use x="63.623046875" xlink:href="#BitstreamVeraSans-Roman-38"/>
       <use x="127.24609375" xlink:href="#BitstreamVeraSans-Roman-30"/>
      </g>
     </g>
    </g>
    <g id="text_10">
     <!-- Phi -->
     <defs>
      <path d="M 9.421875 54.6875 
L 18.40625 54.6875 
L 18.40625 0 
L 9.421875 0 
z
M 9.421875 75.984375 
L 18.40625 75.984375 
L 18.40625 64.59375 
L 9.421875 64.59375 
z
" id="BitstreamVeraSans-Roman-69"/>
      <path d="M 54.890625 33.015625 
L 54.890625 0 
L 45.90625 0 
L 45.90625 32.71875 
Q 45.90625 40.484375 42.875 44.328125 
Q 39.84375 48.1875 33.796875 48.1875 
Q 26.515625 48.1875 22.3125 43.546875 
Q 18.109375 38.921875 18.109375 30.90625 
L 18.109375 0 
L 9.078125 0 
L 9.078125 75.984375 
L 18.109375 75.984375 
L 18.109375 46.1875 
Q 21.34375 51.125 25.703125 53.5625 
Q 30.078125 56 35.796875 56 
Q 45.21875 56 50.046875 50.171875 
Q 54.890625 44.34375 54.890625 33.015625 
" id="BitstreamVeraSans-Roman-68"/>
      <path d="M 19.671875 64.796875 
L 19.671875 37.40625 
L 32.078125 37.40625 
Q 38.96875 37.40625 42.71875 40.96875 
Q 46.484375 44.53125 46.484375 51.125 
Q 46.484375 57.671875 42.71875 61.234375 
Q 38.96875 64.796875 32.078125 64.796875 
z
M 9.8125 72.90625 
L 32.078125 72.90625 
Q 44.34375 72.90625 50.609375 67.359375 
Q 56.890625 61.8125 56.890625 51.125 
Q 56.890625 40.328125 50.609375 34.8125 
Q 44.34375 29.296875 32.078125 29.296875 
L 19.671875 29.296875 
L 19.671875 0 
L 9.8125 0 
z
" id="BitstreamVeraSans-Roman-50"/>
     </defs>
     <g transform="translate(286.1128125 418.531875)scale(0.12 -0.12)">
      <use xlink:href="#BitstreamVeraSans-Roman-50"/>
      <use x="60.302734375" xlink:href="#BitstreamVeraSans-Roman-68"/>
      <use x="123.681640625" xlink:href="#BitstreamVeraSans-Roman-69"/>
     </g>
    </g>
   </g>
   <g id="matplotlib.axis_2">
    <g id="ytick_1">
     <g id="line2d_24">
      <defs>
       <path d="M 0 0 
L 4 0 
" id="m0304dce2f3" style="stroke:#000000;stroke-width:0.5;"/>
      </defs>
      <g>
       <use style="stroke:#000000;stroke-width:0.5;" x="72.0" xlink:href="#m0304dce2f3" y="388.8"/>
      </g>
     </g>
     <g id="line2d_25">
      <defs>
       <path d="M 0 0 
L -4 0 
" id="m1431a35a0c" style="stroke:#000000;stroke-width:0.5;"/>
      </defs>
      <g>
       <use style="stroke:#000000;stroke-width:0.5;" x="518.4" xlink:href="#m1431a35a0c" y="388.8"/>
      </g>
     </g>
     <g id="text_11">
      <!-- 0.0 -->
      <defs>
       <path d="M 10.6875 12.40625 
L 21 12.40625 
L 21 0 
L 10.6875 0 
z
" id="BitstreamVeraSans-Roman-2e"/>
      </defs>
      <g transform="translate(48.91625 392.11125)scale(0.12 -0.12)">
       <use xlink:href="#BitstreamVeraSans-Roman-30"/>
       <use x="63.623046875" xlink:href="#BitstreamVeraSans-Roman-2e"/>
       <use x="95.41015625" xlink:href="#BitstreamVeraSans-Roman-30"/>
      </g>
     </g>
    </g>
    <g id="ytick_2">
     <g id="line2d_26">
      <g>
       <use style="stroke:#000000;stroke-width:0.5;" x="72.0" xlink:href="#m0304dce2f3" y="339.428571429"/>
      </g>
     </g>
     <g id="line2d_27">
      <g>
       <use style="stroke:#000000;stroke-width:0.5;" x="518.4" xlink:href="#m1431a35a0c" y="339.428571429"/>
      </g>
     </g>
     <g id="text_12">
      <!-- 0.5 -->
      <g transform="translate(48.91625 342.739821429)scale(0.12 -0.12)">
       <use xlink:href="#BitstreamVeraSans-Roman-30"/>
       <use x="63.623046875" xlink:href="#BitstreamVeraSans-Roman-2e"/>
       <use x="95.41015625" xlink:href="#BitstreamVeraSans-Roman-35"/>
      </g>
     </g>
    </g>
    <g id="ytick_3">
     <g id="line2d_28">
      <g>
       <use style="stroke:#000000;stroke-width:0.5;" x="72.0" xlink:href="#m0304dce2f3" y="290.057142857"/>
      </g>
     </g>
     <g id="line2d_29">
      <g>
       <use style="stroke:#000000;stroke-width:0.5;" x="518.4" xlink:href="#m1431a35a0c" y="290.057142857"/>
      </g>
     </g>
     <g id="text_13">
      <!-- 1.0 -->
      <g transform="translate(48.91625 293.368392857)scale(0.12 -0.12)">
       <use xlink:href="#BitstreamVeraSans-Roman-31"/>
       <use x="63.623046875" xlink:href="#BitstreamVeraSans-Roman-2e"/>
       <use x="95.41015625" xlink:href="#BitstreamVeraSans-Roman-30"/>
      </g>
     </g>
    </g>
    <g id="ytick_4">
     <g id="line2d_30">
      <g>
       <use style="stroke:#000000;stroke-width:0.5;" x="72.0" xlink:href="#m0304dce2f3" y="240.685714286"/>
      </g>
     </g>
     <g id="line2d_31">
      <g>
       <use style="stroke:#000000;stroke-width:0.5;" x="518.4" xlink:href="#m1431a35a0c" y="240.685714286"/>
      </g>
     </g>
     <g id="text_14">
      <!-- 1.5 -->
      <g transform="translate(48.91625 243.996964286)scale(0.12 -0.12)">
       <use xlink:href="#BitstreamVeraSans-Roman-31"/>
       <use x="63.623046875" xlink:href="#BitstreamVeraSans-Roman-2e"/>
       <use x="95.41015625" xlink:href="#BitstreamVeraSans-Roman-35"/>
      </g>
     </g>
    </g>
    <g id="ytick_5">
     <g id="line2d_32">
      <g>
       <use style="stroke:#000000;stroke-width:0.5;" x="72.0" xlink:href="#m0304dce2f3" y="191.314285714"/>
      </g>
     </g>
     <g id="line2d_33">
      <g>
       <use style="stroke:#000000;stroke-width:0.5;" x="518.4" xlink:href="#m1431a35a0c" y="191.314285714"/>
      </g>
     </g>
     <g id="text_15">
      <!-- 2.0 -->
      <defs>
       <path d="M 19.1875 8.296875 
L 53.609375 8.296875 
L 53.609375 0 
L 7.328125 0 
L 7.328125 8.296875 
Q 12.9375 14.109375 22.625 23.890625 
Q 32.328125 33.6875 34.8125 36.53125 
Q 39.546875 41.84375 41.421875 45.53125 
Q 43.3125 49.21875 43.3125 52.78125 
Q 43.3125 58.59375 39.234375 62.25 
Q 35.15625 65.921875 28.609375 65.921875 
Q 23.96875 65.921875 18.8125 64.3125 
Q 13.671875 62.703125 7.8125 59.421875 
L 7.8125 69.390625 
Q 13.765625 71.78125 18.9375 73 
Q 24.125 74.21875 28.421875 74.21875 
Q 39.75 74.21875 46.484375 68.546875 
Q 53.21875 62.890625 53.21875 53.421875 
Q 53.21875 48.921875 51.53125 44.890625 
Q 49.859375 40.875 45.40625 35.40625 
Q 44.1875 33.984375 37.640625 27.21875 
Q 31.109375 20.453125 19.1875 8.296875 
" id="BitstreamVeraSans-Roman-32"/>
      </defs>
      <g transform="translate(48.91625 194.625535714)scale(0.12 -0.12)">
       <use xlink:href="#BitstreamVeraSans-Roman-32"/>
       <use x="63.623046875" xlink:href="#BitstreamVeraSans-Roman-2e"/>
       <use x="95.41015625" xlink:href="#BitstreamVeraSans-Roman-30"/>
      </g>
     </g>
    </g>
    <g id="ytick_6">
     <g id="line2d_34">
      <g>
       <use style="stroke:#000000;stroke-width:0.5;" x="72.0" xlink:href="#m0304dce2f3" y="141.942857143"/>
      </g>
     </g>
     <g id="line2d_35">
      <g>
       <use style="stroke:#000000;stroke-width:0.5;" x="518.4" xlink:href="#m1431a35a0c" y="141.942857143"/>
      </g>
     </g>
     <g id="text_16">
      <!-- 2.5 -->
      <g transform="translate(48.91625 145.254107143)scale(0.12 -0.12)">
       <use xlink:href="#BitstreamVeraSans-Roman-32"/>
       <use x="63.623046875" xlink:href="#BitstreamVeraSans-Roman-2e"/>
       <use x="95.41015625" xlink:href="#BitstreamVeraSans-Roman-35"/>
      </g>
     </g>
    </g>
    <g id="ytick_7">
     <g id="line2d_36">
      <g>
       <use style="stroke:#000000;stroke-width:0.5;" x="72.0" xlink:href="#m0304dce2f3" y="92.5714285714"/>
      </g>
     </g>
     <g id="line2d_37">
      <g>
       <use style="stroke:#000000;stroke-width:0.5;" x="518.4" xlink:href="#m1431a35a0c" y="92.5714285714"/>
      </g>
     </g>
     <g id="text_17">
      <!-- 3.0 -->
      <g transform="translate(48.91625 95.8826785714)scale(0.12 -0.12)">
       <use xlink:href="#BitstreamVeraSans-Roman-33"/>
       <use x="63.623046875" xlink:href="#BitstreamVeraSans-Roman-2e"/>
       <use x="95.41015625" xlink:href="#BitstreamVeraSans-Roman-30"/>
      </g>
     </g>
    </g>
    <g id="ytick_8">
     <g id="line2d_38">
      <g>
       <use style="stroke:#000000;stroke-width:0.5;" x="72.0" xlink:href="#m0304dce2f3" y="43.2"/>
      </g>
     </g>
     <g id="line2d_39">
      <g>
       <use style="stroke:#000000;stroke-width:0.5;" x="518.4" xlink:href="#m1431a35a0c" y="43.2"/>
      </g>
     </g>
     <g id="text_18">
      <!-- 3.5 -->
      <g transform="translate(48.91625 46.51125)scale(0.12 -0.12)">
       <use xlink:href="#BitstreamVeraSans-Roman-33"/>
       <use x="63.623046875" xlink:href="#BitstreamVeraSans-Roman-2e"/>
       <use x="95.41015625" xlink:href="#BitstreamVeraSans-Roman-35"/>
      </g>
     </g>
    </g>
    <g id="text_19">
     <!-- kcal/mol -->
     <defs>
      <path d="M 9.078125 75.984375 
L 18.109375 75.984375 
L 18.109375 31.109375 
L 44.921875 54.6875 
L 56.390625 54.6875 
L 27.390625 29.109375 
L 57.625 0 
L 45.90625 0 
L 18.109375 26.703125 
L 18.109375 0 
L 9.078125 0 
z
" id="BitstreamVeraSans-Roman-6b"/>
      <path d="M 34.28125 27.484375 
Q 23.390625 27.484375 19.1875 25 
Q 14.984375 22.515625 14.984375 16.5 
Q 14.984375 11.71875 18.140625 8.90625 
Q 21.296875 6.109375 26.703125 6.109375 
Q 34.1875 6.109375 38.703125 11.40625 
Q 43.21875 16.703125 43.21875 25.484375 
L 43.21875 27.484375 
z
M 52.203125 31.203125 
L 52.203125 0 
L 43.21875 0 
L 43.21875 8.296875 
Q 40.140625 3.328125 35.546875 0.953125 
Q 30.953125 -1.421875 24.3125 -1.421875 
Q 15.921875 -1.421875 10.953125 3.296875 
Q 6 8.015625 6 15.921875 
Q 6 25.140625 12.171875 29.828125 
Q 18.359375 34.515625 30.609375 34.515625 
L 43.21875 34.515625 
L 43.21875 35.40625 
Q 43.21875 41.609375 39.140625 45 
Q 35.0625 48.390625 27.6875 48.390625 
Q 23 48.390625 18.546875 47.265625 
Q 14.109375 46.140625 10.015625 43.890625 
L 10.015625 52.203125 
Q 14.9375 54.109375 19.578125 55.046875 
Q 24.21875 56 28.609375 56 
Q 40.484375 56 46.34375 49.84375 
Q 52.203125 43.703125 52.203125 31.203125 
" id="BitstreamVeraSans-Roman-61"/>
      <path d="M 30.609375 48.390625 
Q 23.390625 48.390625 19.1875 42.75 
Q 14.984375 37.109375 14.984375 27.296875 
Q 14.984375 17.484375 19.15625 11.84375 
Q 23.34375 6.203125 30.609375 6.203125 
Q 37.796875 6.203125 41.984375 11.859375 
Q 46.1875 17.53125 46.1875 27.296875 
Q 46.1875 37.015625 41.984375 42.703125 
Q 37.796875 48.390625 30.609375 48.390625 
M 30.609375 56 
Q 42.328125 56 49.015625 48.375 
Q 55.71875 40.765625 55.71875 27.296875 
Q 55.71875 13.875 49.015625 6.21875 
Q 42.328125 -1.421875 30.609375 -1.421875 
Q 18.84375 -1.421875 12.171875 6.21875 
Q 5.515625 13.875 5.515625 27.296875 
Q 5.515625 40.765625 12.171875 48.375 
Q 18.84375 56 30.609375 56 
" id="BitstreamVeraSans-Roman-6f"/>
      <path d="M 48.78125 52.59375 
L 48.78125 44.1875 
Q 44.96875 46.296875 41.140625 47.34375 
Q 37.3125 48.390625 33.40625 48.390625 
Q 24.65625 48.390625 19.8125 42.84375 
Q 14.984375 37.3125 14.984375 27.296875 
Q 14.984375 17.28125 19.8125 11.734375 
Q 24.65625 6.203125 33.40625 6.203125 
Q 37.3125 6.203125 41.140625 7.25 
Q 44.96875 8.296875 48.78125 10.40625 
L 48.78125 2.09375 
Q 45.015625 0.34375 40.984375 -0.53125 
Q 36.96875 -1.421875 32.421875 -1.421875 
Q 20.0625 -1.421875 12.78125 6.34375 
Q 5.515625 14.109375 5.515625 27.296875 
Q 5.515625 40.671875 12.859375 48.328125 
Q 20.21875 56 33.015625 56 
Q 37.15625 56 41.109375 55.140625 
Q 45.0625 54.296875 48.78125 52.59375 
" id="BitstreamVeraSans-Roman-63"/>
      <path d="M 25.390625 72.90625 
L 33.6875 72.90625 
L 8.296875 -9.28125 
L 0 -9.28125 
z
" id="BitstreamVeraSans-Roman-2f"/>
      <path d="M 9.421875 75.984375 
L 18.40625 75.984375 
L 18.40625 0 
L 9.421875 0 
z
" id="BitstreamVeraSans-Roman-6c"/>
      <path d="M 52 44.1875 
Q 55.375 50.25 60.0625 53.125 
Q 64.75 56 71.09375 56 
Q 79.640625 56 84.28125 50.015625 
Q 88.921875 44.046875 88.921875 33.015625 
L 88.921875 0 
L 79.890625 0 
L 79.890625 32.71875 
Q 79.890625 40.578125 77.09375 44.375 
Q 74.3125 48.1875 68.609375 48.1875 
Q 61.625 48.1875 57.5625 43.546875 
Q 53.515625 38.921875 53.515625 30.90625 
L 53.515625 0 
L 44.484375 0 
L 44.484375 32.71875 
Q 44.484375 40.625 41.703125 44.40625 
Q 38.921875 48.1875 33.109375 48.1875 
Q 26.21875 48.1875 22.15625 43.53125 
Q 18.109375 38.875 18.109375 30.90625 
L 18.109375 0 
L 9.078125 0 
L 9.078125 54.6875 
L 18.109375 54.6875 
L 18.109375 46.1875 
Q 21.1875 51.21875 25.484375 53.609375 
Q 29.78125 56 35.6875 56 
Q 41.65625 56 45.828125 52.96875 
Q 50 49.953125 52 44.1875 
" id="BitstreamVeraSans-Roman-6d"/>
     </defs>
     <g transform="translate(41.420625 241.3209375)rotate(-90.0)scale(0.12 -0.12)">
      <use xlink:href="#BitstreamVeraSans-Roman-6b"/>
      <use x="57.91015625" xlink:href="#BitstreamVeraSans-Roman-63"/>
      <use x="112.890625" xlink:href="#BitstreamVeraSans-Roman-61"/>
      <use x="174.169921875" xlink:href="#BitstreamVeraSans-Roman-6c"/>
      <use x="201.953125" xlink:href="#BitstreamVeraSans-Roman-2f"/>
      <use x="235.64453125" xlink:href="#BitstreamVeraSans-Roman-6d"/>
      <use x="333.056640625" xlink:href="#BitstreamVeraSans-Roman-6f"/>
      <use x="394.23828125" xlink:href="#BitstreamVeraSans-Roman-6c"/>
     </g>
    </g>
   </g>
   <g id="text_20">
    <!-- O2-C1-C2-H1 -->
    <defs>
     <path d="M 4.890625 31.390625 
L 31.203125 31.390625 
L 31.203125 23.390625 
L 4.890625 23.390625 
z
" id="BitstreamVeraSans-Roman-2d"/>
     <path d="M 39.40625 66.21875 
Q 28.65625 66.21875 22.328125 58.203125 
Q 16.015625 50.203125 16.015625 36.375 
Q 16.015625 22.609375 22.328125 14.59375 
Q 28.65625 6.59375 39.40625 6.59375 
Q 50.140625 6.59375 56.421875 14.59375 
Q 62.703125 22.609375 62.703125 36.375 
Q 62.703125 50.203125 56.421875 58.203125 
Q 50.140625 66.21875 39.40625 66.21875 
M 39.40625 74.21875 
Q 54.734375 74.21875 63.90625 63.9375 
Q 73.09375 53.65625 73.09375 36.375 
Q 73.09375 19.140625 63.90625 8.859375 
Q 54.734375 -1.421875 39.40625 -1.421875 
Q 24.03125 -1.421875 14.8125 8.828125 
Q 5.609375 19.09375 5.609375 36.375 
Q 5.609375 53.65625 14.8125 63.9375 
Q 24.03125 74.21875 39.40625 74.21875 
" id="BitstreamVeraSans-Roman-4f"/>
     <path d="M 9.8125 72.90625 
L 19.671875 72.90625 
L 19.671875 43.015625 
L 55.515625 43.015625 
L 55.515625 72.90625 
L 65.375 72.90625 
L 65.375 0 
L 55.515625 0 
L 55.515625 34.71875 
L 19.671875 34.71875 
L 19.671875 0 
L 9.8125 0 
z
" id="BitstreamVeraSans-Roman-48"/>
     <path d="M 64.40625 67.28125 
L 64.40625 56.890625 
Q 59.421875 61.53125 53.78125 63.8125 
Q 48.140625 66.109375 41.796875 66.109375 
Q 29.296875 66.109375 22.65625 58.46875 
Q 16.015625 50.828125 16.015625 36.375 
Q 16.015625 21.96875 22.65625 14.328125 
Q 29.296875 6.6875 41.796875 6.6875 
Q 48.140625 6.6875 53.78125 8.984375 
Q 59.421875 11.28125 64.40625 15.921875 
L 64.40625 5.609375 
Q 59.234375 2.09375 53.4375 0.328125 
Q 47.65625 -1.421875 41.21875 -1.421875 
Q 24.65625 -1.421875 15.125 8.703125 
Q 5.609375 18.84375 5.609375 36.375 
Q 5.609375 53.953125 15.125 64.078125 
Q 24.65625 74.21875 41.21875 74.21875 
Q 47.75 74.21875 53.53125 72.484375 
Q 59.328125 70.75 64.40625 67.28125 
" id="BitstreamVeraSans-Roman-43"/>
    </defs>
    <g transform="translate(247.9455 38.2)scale(0.144 -0.144)">
     <use xlink:href="#BitstreamVeraSans-Roman-4f"/>
     <use x="78.7109375" xlink:href="#BitstreamVeraSans-Roman-32"/>
     <use x="142.333984375" xlink:href="#BitstreamVeraSans-Roman-2d"/>
     <use x="178.41796875" xlink:href="#BitstreamVeraSans-Roman-43"/>
     <use x="248.2421875" xlink:href="#BitstreamVeraSans-Roman-31"/>
     <use x="311.865234375" xlink:href="#BitstreamVeraSans-Roman-2d"/>
     <use x="347.94921875" xlink:href="#BitstreamVeraSans-Roman-43"/>
     <use x="417.7734375" xlink:href="#BitstreamVeraSans-Roman-32"/>
     <use x="481.396484375" xlink:href="#BitstreamVeraSans-Roman-2d"/>
     <use x="517.48046875" xlink:href="#BitstreamVeraSans-Roman-48"/>
     <use x="592.67578125" xlink:href="#BitstreamVeraSans-Roman-31"/>
    </g>
   </g>
   <g id="legend_1">
    <g id="patch_7">
     <path d="M 406.15625 108.3125 
L 514.4 108.3125 
L 514.4 47.2 
L 406.15625 47.2 
z
" style="fill:#ffffff;stroke:#000000;stroke-linejoin:miter;"/>
    </g>
    <g id="line2d_40">
     <path d="M 411.75625 53.67875 
L 422.95625 53.67875 
" style="fill:none;stroke:#ff0000;stroke-linecap:square;"/>
    </g>
    <g id="line2d_41">
     <g>
      <use style="fill:#ff0000;stroke:#000000;stroke-width:0.5;" x="411.75625" xlink:href="#m1d96d6aec3" y="53.67875"/>
      <use style="fill:#ff0000;stroke:#000000;stroke-width:0.5;" x="422.95625" xlink:href="#m1d96d6aec3" y="53.67875"/>
     </g>
    </g>
    <g id="text_21">
     <!-- QM -->
     <defs>
      <path d="M 9.8125 72.90625 
L 24.515625 72.90625 
L 43.109375 23.296875 
L 61.8125 72.90625 
L 76.515625 72.90625 
L 76.515625 0 
L 66.890625 0 
L 66.890625 64.015625 
L 48.09375 14.015625 
L 38.1875 14.015625 
L 19.390625 64.015625 
L 19.390625 0 
L 9.8125 0 
z
" id="BitstreamVeraSans-Roman-4d"/>
      <path d="M 39.40625 66.21875 
Q 28.65625 66.21875 22.328125 58.203125 
Q 16.015625 50.203125 16.015625 36.375 
Q 16.015625 22.609375 22.328125 14.59375 
Q 28.65625 6.59375 39.40625 6.59375 
Q 50.140625 6.59375 56.421875 14.59375 
Q 62.703125 22.609375 62.703125 36.375 
Q 62.703125 50.203125 56.421875 58.203125 
Q 50.140625 66.21875 39.40625 66.21875 
M 53.21875 1.3125 
L 66.21875 -12.890625 
L 54.296875 -12.890625 
L 43.5 -1.21875 
Q 41.890625 -1.3125 41.03125 -1.359375 
Q 40.1875 -1.421875 39.40625 -1.421875 
Q 24.03125 -1.421875 14.8125 8.859375 
Q 5.609375 19.140625 5.609375 36.375 
Q 5.609375 53.65625 14.8125 63.9375 
Q 24.03125 74.21875 39.40625 74.21875 
Q 54.734375 74.21875 63.90625 63.9375 
Q 73.09375 53.65625 73.09375 36.375 
Q 73.09375 23.6875 67.984375 14.640625 
Q 62.890625 5.609375 53.21875 1.3125 
" id="BitstreamVeraSans-Roman-51"/>
     </defs>
     <g transform="translate(431.75625 56.47875)scale(0.08 -0.08)">
      <use xlink:href="#BitstreamVeraSans-Roman-51"/>
      <use x="78.7109375" xlink:href="#BitstreamVeraSans-Roman-4d"/>
     </g>
    </g>
    <g id="line2d_42">
     <path d="M 411.75625 65.42125 
L 422.95625 65.42125 
" style="fill:none;stroke:#0000ff;stroke-linecap:square;"/>
    </g>
    <g id="line2d_43">
     <g>
      <use style="fill:#0000ff;stroke:#000000;stroke-width:0.5;" x="411.75625" xlink:href="#ma50678d1e6" y="65.42125"/>
      <use style="fill:#0000ff;stroke:#000000;stroke-width:0.5;" x="422.95625" xlink:href="#ma50678d1e6" y="65.42125"/>
     </g>
    </g>
    <g id="text_22">
     <!-- MM Original -->
     <defs>
      <path d="M 41.109375 46.296875 
Q 39.59375 47.171875 37.8125 47.578125 
Q 36.03125 48 33.890625 48 
Q 26.265625 48 22.1875 43.046875 
Q 18.109375 38.09375 18.109375 28.8125 
L 18.109375 0 
L 9.078125 0 
L 9.078125 54.6875 
L 18.109375 54.6875 
L 18.109375 46.1875 
Q 20.953125 51.171875 25.484375 53.578125 
Q 30.03125 56 36.53125 56 
Q 37.453125 56 38.578125 55.875 
Q 39.703125 55.765625 41.0625 55.515625 
z
" id="BitstreamVeraSans-Roman-72"/>
      <path d="M 45.40625 27.984375 
Q 45.40625 37.75 41.375 43.109375 
Q 37.359375 48.484375 30.078125 48.484375 
Q 22.859375 48.484375 18.828125 43.109375 
Q 14.796875 37.75 14.796875 27.984375 
Q 14.796875 18.265625 18.828125 12.890625 
Q 22.859375 7.515625 30.078125 7.515625 
Q 37.359375 7.515625 41.375 12.890625 
Q 45.40625 18.265625 45.40625 27.984375 
M 54.390625 6.78125 
Q 54.390625 -7.171875 48.1875 -13.984375 
Q 42 -20.796875 29.203125 -20.796875 
Q 24.46875 -20.796875 20.265625 -20.09375 
Q 16.0625 -19.390625 12.109375 -17.921875 
L 12.109375 -9.1875 
Q 16.0625 -11.328125 19.921875 -12.34375 
Q 23.78125 -13.375 27.78125 -13.375 
Q 36.625 -13.375 41.015625 -8.765625 
Q 45.40625 -4.15625 45.40625 5.171875 
L 45.40625 9.625 
Q 42.625 4.78125 38.28125 2.390625 
Q 33.9375 0 27.875 0 
Q 17.828125 0 11.671875 7.65625 
Q 5.515625 15.328125 5.515625 27.984375 
Q 5.515625 40.671875 11.671875 48.328125 
Q 17.828125 56 27.875 56 
Q 33.9375 56 38.28125 53.609375 
Q 42.625 51.21875 45.40625 46.390625 
L 45.40625 54.6875 
L 54.390625 54.6875 
z
" id="BitstreamVeraSans-Roman-67"/>
      <path id="BitstreamVeraSans-Roman-20"/>
      <path d="M 54.890625 33.015625 
L 54.890625 0 
L 45.90625 0 
L 45.90625 32.71875 
Q 45.90625 40.484375 42.875 44.328125 
Q 39.84375 48.1875 33.796875 48.1875 
Q 26.515625 48.1875 22.3125 43.546875 
Q 18.109375 38.921875 18.109375 30.90625 
L 18.109375 0 
L 9.078125 0 
L 9.078125 54.6875 
L 18.109375 54.6875 
L 18.109375 46.1875 
Q 21.34375 51.125 25.703125 53.5625 
Q 30.078125 56 35.796875 56 
Q 45.21875 56 50.046875 50.171875 
Q 54.890625 44.34375 54.890625 33.015625 
" id="BitstreamVeraSans-Roman-6e"/>
     </defs>
     <g transform="translate(431.75625 68.22125)scale(0.08 -0.08)">
      <use xlink:href="#BitstreamVeraSans-Roman-4d"/>
      <use x="86.279296875" xlink:href="#BitstreamVeraSans-Roman-4d"/>
      <use x="172.55859375" xlink:href="#BitstreamVeraSans-Roman-20"/>
      <use x="204.345703125" xlink:href="#BitstreamVeraSans-Roman-4f"/>
      <use x="283.056640625" xlink:href="#BitstreamVeraSans-Roman-72"/>
      <use x="324.169921875" xlink:href="#BitstreamVeraSans-Roman-69"/>
      <use x="351.953125" xlink:href="#BitstreamVeraSans-Roman-67"/>
      <use x="415.4296875" xlink:href="#BitstreamVeraSans-Roman-69"/>
      <use x="443.212890625" xlink:href="#BitstreamVeraSans-Roman-6e"/>
      <use x="506.591796875" xlink:href="#BitstreamVeraSans-Roman-61"/>
      <use x="567.87109375" xlink:href="#BitstreamVeraSans-Roman-6c"/>
     </g>
    </g>
    <g id="line2d_44">
     <path d="M 411.75625 77.16375 
L 422.95625 77.16375 
" style="fill:none;stroke:#000000;stroke-linecap:square;"/>
    </g>
    <g id="line2d_45">
     <g>
      <use style="stroke:#000000;stroke-width:0.5;" x="411.75625" xlink:href="#m4bfb4e8efb" y="77.16375"/>
      <use style="stroke:#000000;stroke-width:0.5;" x="422.95625" xlink:href="#m4bfb4e8efb" y="77.16375"/>
     </g>
    </g>
    <g id="text_23">
     <!-- MM With phi zeroed -->
     <defs>
      <path d="M 5.515625 54.6875 
L 48.1875 54.6875 
L 48.1875 46.484375 
L 14.40625 7.171875 
L 48.1875 7.171875 
L 48.1875 0 
L 4.296875 0 
L 4.296875 8.203125 
L 38.09375 47.515625 
L 5.515625 47.515625 
z
" id="BitstreamVeraSans-Roman-7a"/>
      <path d="M 18.109375 8.203125 
L 18.109375 -20.796875 
L 9.078125 -20.796875 
L 9.078125 54.6875 
L 18.109375 54.6875 
L 18.109375 46.390625 
Q 20.953125 51.265625 25.265625 53.625 
Q 29.59375 56 35.59375 56 
Q 45.5625 56 51.78125 48.09375 
Q 58.015625 40.1875 58.015625 27.296875 
Q 58.015625 14.40625 51.78125 6.484375 
Q 45.5625 -1.421875 35.59375 -1.421875 
Q 29.59375 -1.421875 25.265625 0.953125 
Q 20.953125 3.328125 18.109375 8.203125 
M 48.6875 27.296875 
Q 48.6875 37.203125 44.609375 42.84375 
Q 40.53125 48.484375 33.40625 48.484375 
Q 26.265625 48.484375 22.1875 42.84375 
Q 18.109375 37.203125 18.109375 27.296875 
Q 18.109375 17.390625 22.1875 11.75 
Q 26.265625 6.109375 33.40625 6.109375 
Q 40.53125 6.109375 44.609375 11.75 
Q 48.6875 17.390625 48.6875 27.296875 
" id="BitstreamVeraSans-Roman-70"/>
      <path d="M 56.203125 29.59375 
L 56.203125 25.203125 
L 14.890625 25.203125 
Q 15.484375 15.921875 20.484375 11.0625 
Q 25.484375 6.203125 34.421875 6.203125 
Q 39.59375 6.203125 44.453125 7.46875 
Q 49.3125 8.734375 54.109375 11.28125 
L 54.109375 2.78125 
Q 49.265625 0.734375 44.1875 -0.34375 
Q 39.109375 -1.421875 33.890625 -1.421875 
Q 20.796875 -1.421875 13.15625 6.1875 
Q 5.515625 13.8125 5.515625 26.8125 
Q 5.515625 40.234375 12.765625 48.109375 
Q 20.015625 56 32.328125 56 
Q 43.359375 56 49.78125 48.890625 
Q 56.203125 41.796875 56.203125 29.59375 
M 47.21875 32.234375 
Q 47.125 39.59375 43.09375 43.984375 
Q 39.0625 48.390625 32.421875 48.390625 
Q 24.90625 48.390625 20.390625 44.140625 
Q 15.875 39.890625 15.1875 32.171875 
z
" id="BitstreamVeraSans-Roman-65"/>
      <path d="M 45.40625 46.390625 
L 45.40625 75.984375 
L 54.390625 75.984375 
L 54.390625 0 
L 45.40625 0 
L 45.40625 8.203125 
Q 42.578125 3.328125 38.25 0.953125 
Q 33.9375 -1.421875 27.875 -1.421875 
Q 17.96875 -1.421875 11.734375 6.484375 
Q 5.515625 14.40625 5.515625 27.296875 
Q 5.515625 40.1875 11.734375 48.09375 
Q 17.96875 56 27.875 56 
Q 33.9375 56 38.25 53.625 
Q 42.578125 51.265625 45.40625 46.390625 
M 14.796875 27.296875 
Q 14.796875 17.390625 18.875 11.75 
Q 22.953125 6.109375 30.078125 6.109375 
Q 37.203125 6.109375 41.296875 11.75 
Q 45.40625 17.390625 45.40625 27.296875 
Q 45.40625 37.203125 41.296875 42.84375 
Q 37.203125 48.484375 30.078125 48.484375 
Q 22.953125 48.484375 18.875 42.84375 
Q 14.796875 37.203125 14.796875 27.296875 
" id="BitstreamVeraSans-Roman-64"/>
      <path d="M 3.328125 72.90625 
L 13.28125 72.90625 
L 28.609375 11.28125 
L 43.890625 72.90625 
L 54.984375 72.90625 
L 70.3125 11.28125 
L 85.59375 72.90625 
L 95.609375 72.90625 
L 77.296875 0 
L 64.890625 0 
L 49.515625 63.28125 
L 33.984375 0 
L 21.578125 0 
z
" id="BitstreamVeraSans-Roman-57"/>
      <path d="M 18.3125 70.21875 
L 18.3125 54.6875 
L 36.8125 54.6875 
L 36.8125 47.703125 
L 18.3125 47.703125 
L 18.3125 18.015625 
Q 18.3125 11.328125 20.140625 9.421875 
Q 21.96875 7.515625 27.59375 7.515625 
L 36.8125 7.515625 
L 36.8125 0 
L 27.59375 0 
Q 17.1875 0 13.234375 3.875 
Q 9.28125 7.765625 9.28125 18.015625 
L 9.28125 47.703125 
L 2.6875 47.703125 
L 2.6875 54.6875 
L 9.28125 54.6875 
L 9.28125 70.21875 
z
" id="BitstreamVeraSans-Roman-74"/>
     </defs>
     <g transform="translate(431.75625 79.96375)scale(0.08 -0.08)">
      <use xlink:href="#BitstreamVeraSans-Roman-4d"/>
      <use x="86.279296875" xlink:href="#BitstreamVeraSans-Roman-4d"/>
      <use x="172.55859375" xlink:href="#BitstreamVeraSans-Roman-20"/>
      <use x="204.345703125" xlink:href="#BitstreamVeraSans-Roman-57"/>
      <use x="303.19140625" xlink:href="#BitstreamVeraSans-Roman-69"/>
      <use x="330.974609375" xlink:href="#BitstreamVeraSans-Roman-74"/>
      <use x="370.18359375" xlink:href="#BitstreamVeraSans-Roman-68"/>
      <use x="433.5625" xlink:href="#BitstreamVeraSans-Roman-20"/>
      <use x="465.349609375" xlink:href="#BitstreamVeraSans-Roman-70"/>
      <use x="528.826171875" xlink:href="#BitstreamVeraSans-Roman-68"/>
      <use x="592.205078125" xlink:href="#BitstreamVeraSans-Roman-69"/>
      <use x="619.98828125" xlink:href="#BitstreamVeraSans-Roman-20"/>
      <use x="651.775390625" xlink:href="#BitstreamVeraSans-Roman-7a"/>
      <use x="704.265625" xlink:href="#BitstreamVeraSans-Roman-65"/>
      <use x="765.7890625" xlink:href="#BitstreamVeraSans-Roman-72"/>
      <use x="806.87109375" xlink:href="#BitstreamVeraSans-Roman-6f"/>
      <use x="868.052734375" xlink:href="#BitstreamVeraSans-Roman-65"/>
      <use x="929.576171875" xlink:href="#BitstreamVeraSans-Roman-64"/>
     </g>
    </g>
    <g id="line2d_46">
     <path d="M 411.75625 88.90625 
L 422.95625 88.90625 
" style="fill:none;stroke:#ff00ff;stroke-linecap:square;"/>
    </g>
    <g id="line2d_47">
     <g>
      <use style="fill:#ff00ff;stroke:#ff00ff;stroke-width:0.5;" x="411.75625" xlink:href="#m207b586144" y="88.90625"/>
      <use style="fill:#ff00ff;stroke:#ff00ff;stroke-width:0.5;" x="422.95625" xlink:href="#m207b586144" y="88.90625"/>
     </g>
    </g>
    <g id="text_24">
     <!-- QM-MM target -->
     <g transform="translate(431.75625 91.70625)scale(0.08 -0.08)">
      <use xlink:href="#BitstreamVeraSans-Roman-51"/>
      <use x="78.7109375" xlink:href="#BitstreamVeraSans-Roman-4d"/>
      <use x="164.990234375" xlink:href="#BitstreamVeraSans-Roman-2d"/>
      <use x="201.07421875" xlink:href="#BitstreamVeraSans-Roman-4d"/>
      <use x="287.353515625" xlink:href="#BitstreamVeraSans-Roman-4d"/>
      <use x="373.6328125" xlink:href="#BitstreamVeraSans-Roman-20"/>
      <use x="405.419921875" xlink:href="#BitstreamVeraSans-Roman-74"/>
      <use x="444.62890625" xlink:href="#BitstreamVeraSans-Roman-61"/>
      <use x="505.908203125" xlink:href="#BitstreamVeraSans-Roman-72"/>
      <use x="547.005859375" xlink:href="#BitstreamVeraSans-Roman-67"/>
      <use x="610.482421875" xlink:href="#BitstreamVeraSans-Roman-65"/>
      <use x="672.005859375" xlink:href="#BitstreamVeraSans-Roman-74"/>
     </g>
    </g>
    <g id="line2d_48">
     <path d="M 411.75625 100.64875 
L 422.95625 100.64875 
" style="fill:none;stroke:#008000;stroke-linecap:square;"/>
    </g>
    <g id="line2d_49">
     <g>
      <use style="fill:#008000;stroke:#000000;stroke-width:0.5;" x="411.75625" xlink:href="#ma86782a48b" y="100.64875"/>
      <use style="fill:#008000;stroke:#000000;stroke-width:0.5;" x="422.95625" xlink:href="#ma86782a48b" y="100.64875"/>
     </g>
    </g>
    <g id="text_25">
     <!-- MM Fitted -->
     <defs>
      <path d="M 9.8125 72.90625 
L 51.703125 72.90625 
L 51.703125 64.59375 
L 19.671875 64.59375 
L 19.671875 43.109375 
L 48.578125 43.109375 
L 48.578125 34.8125 
L 19.671875 34.8125 
L 19.671875 0 
L 9.8125 0 
z
" id="BitstreamVeraSans-Roman-46"/>
     </defs>
     <g transform="translate(431.75625 103.44875)scale(0.08 -0.08)">
      <use xlink:href="#BitstreamVeraSans-Roman-4d"/>
      <use x="86.279296875" xlink:href="#BitstreamVeraSans-Roman-4d"/>
      <use x="172.55859375" xlink:href="#BitstreamVeraSans-Roman-20"/>
      <use x="204.345703125" xlink:href="#BitstreamVeraSans-Roman-46"/>
      <use x="261.755859375" xlink:href="#BitstreamVeraSans-Roman-69"/>
      <use x="289.5390625" xlink:href="#BitstreamVeraSans-Roman-74"/>
      <use x="328.748046875" xlink:href="#BitstreamVeraSans-Roman-74"/>
      <use x="367.95703125" xlink:href="#BitstreamVeraSans-Roman-65"/>
      <use x="429.48046875" xlink:href="#BitstreamVeraSans-Roman-64"/>
     </g>
    </g>
   </g>
  </g>
 </g>
 <defs>
  <clipPath id="peeddf006a0">
   <rect height="345.6" width="446.4" x="72.0" y="43.2"/>
  </clipPath>
 </defs>
</svg>
