<?xml version="1.0" encoding="utf-8" standalone="no"?>
<!DOCTYPE svg PUBLIC "-//W3C//DTD SVG 1.1//EN"
  "http://www.w3.org/Graphics/SVG/1.1/DTD/svg11.dtd">
<!-- Created with matplotlib (http://matplotlib.org/) -->
<svg height="432pt" version="1.1" viewBox="0 0 576 432" width="576pt" xmlns="http://www.w3.org/2000/svg" xmlns:xlink="http://www.w3.org/1999/xlink">
 <defs>
  <style type="text/css">
*{stroke-linecap:butt;stroke-linejoin:round;stroke-miterlimit:100000;}
  </style>
 </defs>
 <g id="figure_1">
  <g id="patch_1">
   <path d="M 0 432 
L 576 432 
L 576 0 
L 0 0 
z
" style="fill:#ffffff;"/>
  </g>
  <g id="axes_1">
   <g id="patch_2">
    <path d="M 72 388.8 
L 518.4 388.8 
L 518.4 43.2 
L 72 43.2 
z
" style="fill:#ffffff;"/>
   </g>
   <g id="line2d_1">
    <path clip-path="url(#p62226eefea)" d="M 71.999664 388.8 
L 84.399995 386.140068 
L 96.799998 372.606707 
L 109.199988 349.67405 
L 121.600017 325.566908 
L 134.000013 306.591559 
L 146.400005 295.859623 
L 158.79999 292.837389 
L 171.200005 293.744401 
L 183.60003 292.052081 
L 196.000017 281.749861 
L 208.400046 270.901028 
L 220.800026 270.851451 
L 233.200029 264.24143 
L 245.600043 247.100913 
L 258.000044 222.529553 
L 270.400012 196.439674 
L 282.800009 175.952359 
L 295.200642 167.918902 
L 307.600006 175.992912 
L 319.999999 196.465603 
L 332.399999 222.488728 
L 344.799999 247.089612 
L 357.200004 264.191571 
L 369.599963 270.807166 
L 382.000009 270.891939 
L 394.399957 281.759025 
L 406.799984 292.060265 
L 419.199965 293.758217 
L 431.599989 292.858082 
L 443.999965 295.788577 
L 456.399967 306.583434 
L 468.799982 325.559283 
L 481.199986 349.736937 
L 493.599958 372.600619 
L 506.000004 386.122045 
" style="fill:none;stroke:#ff0000;stroke-linecap:square;"/>
    <defs>
     <path d="M 0 3 
C 0.795609 3 1.55874 2.683901 2.12132 2.12132 
C 2.683901 1.55874 3 0.795609 3 0 
C 3 -0.795609 2.683901 -1.55874 2.12132 -2.12132 
C 1.55874 -2.683901 0.795609 -3 0 -3 
C -0.795609 -3 -1.55874 -2.683901 -2.12132 -2.12132 
C -2.683901 -1.55874 -3 -0.795609 -3 0 
C -3 0.795609 -2.683901 1.55874 -2.12132 2.12132 
C -1.55874 2.683901 -0.795609 3 0 3 
z
" id="m6f0d45f88f" style="stroke:#000000;stroke-width:0.5;"/>
    </defs>
    <g clip-path="url(#p62226eefea)">
     <use style="fill:#ff0000;stroke:#000000;stroke-width:0.5;" x="71.9996635178" xlink:href="#m6f0d45f88f" y="388.8"/>
     <use style="fill:#ff0000;stroke:#000000;stroke-width:0.5;" x="84.3999947818" xlink:href="#m6f0d45f88f" y="386.140068208"/>
     <use style="fill:#ff0000;stroke:#000000;stroke-width:0.5;" x="96.7999975433" xlink:href="#m6f0d45f88f" y="372.606707029"/>
     <use style="fill:#ff0000;stroke:#000000;stroke-width:0.5;" x="109.199987735" xlink:href="#m6f0d45f88f" y="349.674049737"/>
     <use style="fill:#ff0000;stroke:#000000;stroke-width:0.5;" x="121.600016954" xlink:href="#m6f0d45f88f" y="325.566907901"/>
     <use style="fill:#ff0000;stroke:#000000;stroke-width:0.5;" x="134.000013216" xlink:href="#m6f0d45f88f" y="306.591559361"/>
     <use style="fill:#ff0000;stroke:#000000;stroke-width:0.5;" x="146.400004788" xlink:href="#m6f0d45f88f" y="295.859623133"/>
     <use style="fill:#ff0000;stroke:#000000;stroke-width:0.5;" x="158.799990045" xlink:href="#m6f0d45f88f" y="292.837388639"/>
     <use style="fill:#ff0000;stroke:#000000;stroke-width:0.5;" x="171.20000484" xlink:href="#m6f0d45f88f" y="293.7444011"/>
     <use style="fill:#ff0000;stroke:#000000;stroke-width:0.5;" x="183.600030316" xlink:href="#m6f0d45f88f" y="292.052080929"/>
     <use style="fill:#ff0000;stroke:#000000;stroke-width:0.5;" x="196.000017389" xlink:href="#m6f0d45f88f" y="281.749860781"/>
     <use style="fill:#ff0000;stroke:#000000;stroke-width:0.5;" x="208.400046317" xlink:href="#m6f0d45f88f" y="270.901028084"/>
     <use style="fill:#ff0000;stroke:#000000;stroke-width:0.5;" x="220.800025825" xlink:href="#m6f0d45f88f" y="270.851450783"/>
     <use style="fill:#ff0000;stroke:#000000;stroke-width:0.5;" x="233.200028611" xlink:href="#m6f0d45f88f" y="264.241430432"/>
     <use style="fill:#ff0000;stroke:#000000;stroke-width:0.5;" x="245.600042983" xlink:href="#m6f0d45f88f" y="247.100912697"/>
     <use style="fill:#ff0000;stroke:#000000;stroke-width:0.5;" x="258.000044441" xlink:href="#m6f0d45f88f" y="222.529552726"/>
     <use style="fill:#ff0000;stroke:#000000;stroke-width:0.5;" x="270.400012289" xlink:href="#m6f0d45f88f" y="196.439674314"/>
     <use style="fill:#ff0000;stroke:#000000;stroke-width:0.5;" x="282.800008637" xlink:href="#m6f0d45f88f" y="175.952359472"/>
     <use style="fill:#ff0000;stroke:#000000;stroke-width:0.5;" x="295.200642021" xlink:href="#m6f0d45f88f" y="167.918901998"/>
     <use style="fill:#ff0000;stroke:#000000;stroke-width:0.5;" x="307.600005778" xlink:href="#m6f0d45f88f" y="175.992912396"/>
     <use style="fill:#ff0000;stroke:#000000;stroke-width:0.5;" x="319.999998764" xlink:href="#m6f0d45f88f" y="196.465603226"/>
     <use style="fill:#ff0000;stroke:#000000;stroke-width:0.5;" x="332.399999488" xlink:href="#m6f0d45f88f" y="222.488728237"/>
     <use style="fill:#ff0000;stroke:#000000;stroke-width:0.5;" x="344.799998818" xlink:href="#m6f0d45f88f" y="247.089611641"/>
     <use style="fill:#ff0000;stroke:#000000;stroke-width:0.5;" x="357.200003596" xlink:href="#m6f0d45f88f" y="264.191571379"/>
     <use style="fill:#ff0000;stroke:#000000;stroke-width:0.5;" x="369.59996342" xlink:href="#m6f0d45f88f" y="270.807166386"/>
     <use style="fill:#ff0000;stroke:#000000;stroke-width:0.5;" x="382.000009385" xlink:href="#m6f0d45f88f" y="270.891939014"/>
     <use style="fill:#ff0000;stroke:#000000;stroke-width:0.5;" x="394.399956617" xlink:href="#m6f0d45f88f" y="281.759024694"/>
     <use style="fill:#ff0000;stroke:#000000;stroke-width:0.5;" x="406.799984306" xlink:href="#m6f0d45f88f" y="292.060265411"/>
     <use style="fill:#ff0000;stroke:#000000;stroke-width:0.5;" x="419.199964632" xlink:href="#m6f0d45f88f" y="293.758216906"/>
     <use style="fill:#ff0000;stroke:#000000;stroke-width:0.5;" x="431.599988857" xlink:href="#m6f0d45f88f" y="292.85808179"/>
     <use style="fill:#ff0000;stroke:#000000;stroke-width:0.5;" x="443.999965407" xlink:href="#m6f0d45f88f" y="295.788576501"/>
     <use style="fill:#ff0000;stroke:#000000;stroke-width:0.5;" x="456.399967067" xlink:href="#m6f0d45f88f" y="306.583433928"/>
     <use style="fill:#ff0000;stroke:#000000;stroke-width:0.5;" x="468.799982188" xlink:href="#m6f0d45f88f" y="325.559283292"/>
     <use style="fill:#ff0000;stroke:#000000;stroke-width:0.5;" x="481.19998624" xlink:href="#m6f0d45f88f" y="349.736936753"/>
     <use style="fill:#ff0000;stroke:#000000;stroke-width:0.5;" x="493.59995845" xlink:href="#m6f0d45f88f" y="372.600618949"/>
     <use style="fill:#ff0000;stroke:#000000;stroke-width:0.5;" x="506.000003645" xlink:href="#m6f0d45f88f" y="386.122045042"/>
    </g>
   </g>
   <g id="line2d_2">
    <path clip-path="url(#p62226eefea)" d="M 71.999664 388.8 
L 84.399995 381.260098 
L 96.799998 366.123541 
L 109.199988 343.354127 
L 121.600017 319.02406 
L 134.000013 298.833057 
L 146.400005 287.786252 
L 158.79999 288.734437 
L 171.200005 298.430964 
L 183.60003 310.205328 
L 196.000017 315.913066 
L 208.400046 310.616493 
L 220.800026 286.363501 
L 233.200029 254.737162 
L 245.600043 211.546055 
L 258.000044 161.860038 
L 270.400012 115.250574 
L 282.800009 82.29192 
L 295.200642 70.514334 
L 307.600006 82.480001 
L 319.999999 115.717879 
L 332.399999 161.911855 
L 344.799999 211.579992 
L 357.200004 254.847596 
L 369.599963 286.625596 
L 382.000009 310.365144 
L 394.399957 315.64955 
L 406.799984 309.865761 
L 419.199965 298.393704 
L 431.599989 288.856778 
L 443.999965 286.829303 
L 456.399967 298.782964 
L 468.799982 319.507999 
L 481.199986 344.484245 
L 493.599958 366.074631 
L 506.000004 381.541698 
" style="fill:none;stroke:#0000ff;stroke-linecap:square;"/>
    <defs>
     <path d="M 0 3 
C 0.795609 3 1.55874 2.683901 2.12132 2.12132 
C 2.683901 1.55874 3 0.795609 3 0 
C 3 -0.795609 2.683901 -1.55874 2.12132 -2.12132 
C 1.55874 -2.683901 0.795609 -3 0 -3 
C -0.795609 -3 -1.55874 -2.683901 -2.12132 -2.12132 
C -2.683901 -1.55874 -3 -0.795609 -3 0 
C -3 0.795609 -2.683901 1.55874 -2.12132 2.12132 
C -1.55874 2.683901 -0.795609 3 0 3 
z
" id="m32c1f05917" style="stroke:#000000;stroke-width:0.5;"/>
    </defs>
    <g clip-path="url(#p62226eefea)">
     <use style="fill:#0000ff;stroke:#000000;stroke-width:0.5;" x="71.9996635178" xlink:href="#m32c1f05917" y="388.8"/>
     <use style="fill:#0000ff;stroke:#000000;stroke-width:0.5;" x="84.3999947818" xlink:href="#m32c1f05917" y="381.260098166"/>
     <use style="fill:#0000ff;stroke:#000000;stroke-width:0.5;" x="96.7999975433" xlink:href="#m32c1f05917" y="366.123541479"/>
     <use style="fill:#0000ff;stroke:#000000;stroke-width:0.5;" x="109.199987735" xlink:href="#m32c1f05917" y="343.354126918"/>
     <use style="fill:#0000ff;stroke:#000000;stroke-width:0.5;" x="121.600016954" xlink:href="#m32c1f05917" y="319.024060194"/>
     <use style="fill:#0000ff;stroke:#000000;stroke-width:0.5;" x="134.000013216" xlink:href="#m32c1f05917" y="298.833056775"/>
     <use style="fill:#0000ff;stroke:#000000;stroke-width:0.5;" x="146.400004788" xlink:href="#m32c1f05917" y="287.786252348"/>
     <use style="fill:#0000ff;stroke:#000000;stroke-width:0.5;" x="158.799990045" xlink:href="#m32c1f05917" y="288.734437315"/>
     <use style="fill:#0000ff;stroke:#000000;stroke-width:0.5;" x="171.20000484" xlink:href="#m32c1f05917" y="298.430963696"/>
     <use style="fill:#0000ff;stroke:#000000;stroke-width:0.5;" x="183.600030316" xlink:href="#m32c1f05917" y="310.205327913"/>
     <use style="fill:#0000ff;stroke:#000000;stroke-width:0.5;" x="196.000017389" xlink:href="#m32c1f05917" y="315.913065763"/>
     <use style="fill:#0000ff;stroke:#000000;stroke-width:0.5;" x="208.400046317" xlink:href="#m32c1f05917" y="310.616493302"/>
     <use style="fill:#0000ff;stroke:#000000;stroke-width:0.5;" x="220.800025825" xlink:href="#m32c1f05917" y="286.363501014"/>
     <use style="fill:#0000ff;stroke:#000000;stroke-width:0.5;" x="233.200028611" xlink:href="#m32c1f05917" y="254.737162269"/>
     <use style="fill:#0000ff;stroke:#000000;stroke-width:0.5;" x="245.600042983" xlink:href="#m32c1f05917" y="211.546054566"/>
     <use style="fill:#0000ff;stroke:#000000;stroke-width:0.5;" x="258.000044441" xlink:href="#m32c1f05917" y="161.860037951"/>
     <use style="fill:#0000ff;stroke:#000000;stroke-width:0.5;" x="270.400012289" xlink:href="#m32c1f05917" y="115.250573752"/>
     <use style="fill:#0000ff;stroke:#000000;stroke-width:0.5;" x="282.800008637" xlink:href="#m32c1f05917" y="82.2919201688"/>
     <use style="fill:#0000ff;stroke:#000000;stroke-width:0.5;" x="295.200642021" xlink:href="#m32c1f05917" y="70.514333523"/>
     <use style="fill:#0000ff;stroke:#000000;stroke-width:0.5;" x="307.600005778" xlink:href="#m32c1f05917" y="82.4800007475"/>
     <use style="fill:#0000ff;stroke:#000000;stroke-width:0.5;" x="319.999998764" xlink:href="#m32c1f05917" y="115.71787888"/>
     <use style="fill:#0000ff;stroke:#000000;stroke-width:0.5;" x="332.399999488" xlink:href="#m32c1f05917" y="161.911855493"/>
     <use style="fill:#0000ff;stroke:#000000;stroke-width:0.5;" x="344.799998818" xlink:href="#m32c1f05917" y="211.579991504"/>
     <use style="fill:#0000ff;stroke:#000000;stroke-width:0.5;" x="357.200003596" xlink:href="#m32c1f05917" y="254.84759622"/>
     <use style="fill:#0000ff;stroke:#000000;stroke-width:0.5;" x="369.59996342" xlink:href="#m32c1f05917" y="286.625595692"/>
     <use style="fill:#0000ff;stroke:#000000;stroke-width:0.5;" x="382.000009385" xlink:href="#m32c1f05917" y="310.365143735"/>
     <use style="fill:#0000ff;stroke:#000000;stroke-width:0.5;" x="394.399956617" xlink:href="#m32c1f05917" y="315.649549834"/>
     <use style="fill:#0000ff;stroke:#000000;stroke-width:0.5;" x="406.799984306" xlink:href="#m32c1f05917" y="309.865760636"/>
     <use style="fill:#0000ff;stroke:#000000;stroke-width:0.5;" x="419.199964632" xlink:href="#m32c1f05917" y="298.393704101"/>
     <use style="fill:#0000ff;stroke:#000000;stroke-width:0.5;" x="431.599988857" xlink:href="#m32c1f05917" y="288.85677773"/>
     <use style="fill:#0000ff;stroke:#000000;stroke-width:0.5;" x="443.999965407" xlink:href="#m32c1f05917" y="286.829302644"/>
     <use style="fill:#0000ff;stroke:#000000;stroke-width:0.5;" x="456.399967067" xlink:href="#m32c1f05917" y="298.782964238"/>
     <use style="fill:#0000ff;stroke:#000000;stroke-width:0.5;" x="468.799982188" xlink:href="#m32c1f05917" y="319.507999197"/>
     <use style="fill:#0000ff;stroke:#000000;stroke-width:0.5;" x="481.19998624" xlink:href="#m32c1f05917" y="344.484244686"/>
     <use style="fill:#0000ff;stroke:#000000;stroke-width:0.5;" x="493.59995845" xlink:href="#m32c1f05917" y="366.074631295"/>
     <use style="fill:#0000ff;stroke:#000000;stroke-width:0.5;" x="506.000003645" xlink:href="#m32c1f05917" y="381.541698445"/>
    </g>
   </g>
   <g id="line2d_3">
    <path clip-path="url(#p62226eefea)" d="M 71.999664 388.8 
L 84.399995 383.215054 
L 96.799998 373.41954 
L 109.199988 357.946119 
L 121.600017 340.912069 
L 134.000013 326.062104 
L 146.400005 316.970252 
L 158.79999 315.963483 
L 171.200005 320.318961 
L 183.60003 324.797309 
L 196.000017 323.209056 
L 208.400046 312.571436 
L 220.800026 286.363501 
L 233.200029 256.692128 
L 245.600043 218.842078 
L 258.000044 176.452065 
L 270.400012 137.13858 
L 282.800009 109.520966 
L 295.200642 99.698334 
L 307.600006 109.709042 
L 319.999999 137.60588 
L 332.399999 176.503856 
L 344.799999 218.875992 
L 357.200004 256.802552 
L 369.599963 286.625596 
L 382.000009 312.320104 
L 394.399957 322.945527 
L 406.799984 324.457751 
L 419.199965 320.281685 
L 431.599989 316.085817 
L 443.999965 316.013303 
L 456.399967 326.012017 
L 468.799982 341.396009 
L 481.199986 359.076253 
L 493.599958 373.370653 
L 506.000004 383.496655 
" style="fill:none;stroke:#000000;stroke-linecap:square;"/>
    <defs>
     <path d="M -3 3 
L 3 -3 
M -3 -3 
L 3 3 
" id="md0bfe5de2e" style="stroke:#000000;stroke-width:0.5;"/>
    </defs>
    <g clip-path="url(#p62226eefea)">
     <use style="stroke:#000000;stroke-width:0.5;" x="71.9996635178" xlink:href="#md0bfe5de2e" y="388.8"/>
     <use style="stroke:#000000;stroke-width:0.5;" x="84.3999947818" xlink:href="#md0bfe5de2e" y="383.215053865"/>
     <use style="stroke:#000000;stroke-width:0.5;" x="96.7999975433" xlink:href="#md0bfe5de2e" y="373.419540167"/>
     <use style="stroke:#000000;stroke-width:0.5;" x="109.199987735" xlink:href="#md0bfe5de2e" y="357.94611936"/>
     <use style="stroke:#000000;stroke-width:0.5;" x="121.600016954" xlink:href="#md0bfe5de2e" y="340.912069239"/>
     <use style="stroke:#000000;stroke-width:0.5;" x="134.000013216" xlink:href="#md0bfe5de2e" y="326.062103537"/>
     <use style="stroke:#000000;stroke-width:0.5;" x="146.400004788" xlink:href="#md0bfe5de2e" y="316.970252347"/>
     <use style="stroke:#000000;stroke-width:0.5;" x="158.799990045" xlink:href="#md0bfe5de2e" y="315.963483072"/>
     <use style="stroke:#000000;stroke-width:0.5;" x="171.20000484" xlink:href="#md0bfe5de2e" y="320.318961112"/>
     <use style="stroke:#000000;stroke-width:0.5;" x="183.600030316" xlink:href="#md0bfe5de2e" y="324.797309232"/>
     <use style="stroke:#000000;stroke-width:0.5;" x="196.000017389" xlink:href="#md0bfe5de2e" y="323.209056482"/>
     <use style="stroke:#000000;stroke-width:0.5;" x="208.400046317" xlink:href="#md0bfe5de2e" y="312.571436339"/>
     <use style="stroke:#000000;stroke-width:0.5;" x="220.800025825" xlink:href="#md0bfe5de2e" y="286.363501013"/>
     <use style="stroke:#000000;stroke-width:0.5;" x="233.200028611" xlink:href="#md0bfe5de2e" y="256.69212839"/>
     <use style="stroke:#000000;stroke-width:0.5;" x="245.600042983" xlink:href="#md0bfe5de2e" y="218.8420775"/>
     <use style="stroke:#000000;stroke-width:0.5;" x="258.000044441" xlink:href="#md0bfe5de2e" y="176.452065332"/>
     <use style="stroke:#000000;stroke-width:0.5;" x="270.400012289" xlink:href="#md0bfe5de2e" y="137.138580308"/>
     <use style="stroke:#000000;stroke-width:0.5;" x="282.800008637" xlink:href="#md0bfe5de2e" y="109.52096552"/>
     <use style="stroke:#000000;stroke-width:0.5;" x="295.200642021" xlink:href="#md0bfe5de2e" y="99.6983335161"/>
     <use style="stroke:#000000;stroke-width:0.5;" x="307.600005778" xlink:href="#md0bfe5de2e" y="109.709041658"/>
     <use style="stroke:#000000;stroke-width:0.5;" x="319.999998764" xlink:href="#md0bfe5de2e" y="137.605879538"/>
     <use style="stroke:#000000;stroke-width:0.5;" x="332.399999488" xlink:href="#md0bfe5de2e" y="176.503855807"/>
     <use style="stroke:#000000;stroke-width:0.5;" x="344.799998818" xlink:href="#md0bfe5de2e" y="218.875992133"/>
     <use style="stroke:#000000;stroke-width:0.5;" x="357.200003596" xlink:href="#md0bfe5de2e" y="256.802552418"/>
     <use style="stroke:#000000;stroke-width:0.5;" x="369.59996342" xlink:href="#md0bfe5de2e" y="286.625595691"/>
     <use style="stroke:#000000;stroke-width:0.5;" x="382.000009385" xlink:href="#md0bfe5de2e" y="312.320103933"/>
     <use style="stroke:#000000;stroke-width:0.5;" x="394.399956617" xlink:href="#md0bfe5de2e" y="322.945526683"/>
     <use style="stroke:#000000;stroke-width:0.5;" x="406.799984306" xlink:href="#md0bfe5de2e" y="324.457750965"/>
     <use style="stroke:#000000;stroke-width:0.5;" x="419.199964632" xlink:href="#md0bfe5de2e" y="320.281685227"/>
     <use style="stroke:#000000;stroke-width:0.5;" x="431.599988857" xlink:href="#md0bfe5de2e" y="316.085816988"/>
     <use style="stroke:#000000;stroke-width:0.5;" x="443.999965407" xlink:href="#md0bfe5de2e" y="316.013302643"/>
     <use style="stroke:#000000;stroke-width:0.5;" x="456.399967067" xlink:href="#md0bfe5de2e" y="326.012017074"/>
     <use style="stroke:#000000;stroke-width:0.5;" x="468.799982188" xlink:href="#md0bfe5de2e" y="341.3960087"/>
     <use style="stroke:#000000;stroke-width:0.5;" x="481.19998624" xlink:href="#md0bfe5de2e" y="359.076253163"/>
     <use style="stroke:#000000;stroke-width:0.5;" x="493.59995845" xlink:href="#md0bfe5de2e" y="373.370653465"/>
     <use style="stroke:#000000;stroke-width:0.5;" x="506.000003645" xlink:href="#md0bfe5de2e" y="383.496654629"/>
    </g>
   </g>
   <g id="line2d_4">
    <path clip-path="url(#p62226eefea)" d="M 71.999664 320.579432 
L 84.399995 323.504446 
L 96.799998 319.766598 
L 109.199988 312.307362 
L 121.600017 305.23427 
L 134.000013 301.108887 
L 146.400005 299.468802 
L 158.79999 297.453337 
L 171.200005 294.004872 
L 183.60003 287.834203 
L 196.000017 279.120236 
L 208.400046 278.909023 
L 220.800026 305.067381 
L 233.200029 328.128734 
L 245.600043 348.838267 
L 258.000044 366.656919 
L 270.400012 379.880526 
L 282.800009 387.010825 
L 295.200642 388.8 
L 307.600006 386.863302 
L 319.999999 379.439155 
L 332.399999 366.564304 
L 344.799999 348.793051 
L 357.200004 327.96845 
L 369.599963 304.761002 
L 382.000009 279.151267 
L 394.399957 279.39293 
L 406.799984 288.181946 
L 419.199965 294.055963 
L 431.599989 297.351696 
L 443.999965 300.354705 
L 456.399967 301.150848 
L 468.799982 304.742706 
L 481.199986 311.240115 
L 493.599958 319.809397 
L 506.000004 323.204822 
" style="fill:none;stroke:#ff00ff;stroke-linecap:square;"/>
    <defs>
     <path d="M -3 3 
L 3 -3 
M -3 -3 
L 3 3 
" id="m6e19633ad4" style="stroke:#ff00ff;stroke-width:0.5;"/>
    </defs>
    <g clip-path="url(#p62226eefea)">
     <use style="fill:#ff00ff;stroke:#ff00ff;stroke-width:0.5;" x="71.9996635178" xlink:href="#m6e19633ad4" y="320.579431518"/>
     <use style="fill:#ff00ff;stroke:#ff00ff;stroke-width:0.5;" x="84.3999947818" xlink:href="#m6e19633ad4" y="323.504445862"/>
     <use style="fill:#ff00ff;stroke:#ff00ff;stroke-width:0.5;" x="96.7999975433" xlink:href="#m6e19633ad4" y="319.766598381"/>
     <use style="fill:#ff00ff;stroke:#ff00ff;stroke-width:0.5;" x="109.199987735" xlink:href="#m6e19633ad4" y="312.307361895"/>
     <use style="fill:#ff00ff;stroke:#ff00ff;stroke-width:0.5;" x="121.600016954" xlink:href="#m6e19633ad4" y="305.23427018"/>
     <use style="fill:#ff00ff;stroke:#ff00ff;stroke-width:0.5;" x="134.000013216" xlink:href="#m6e19633ad4" y="301.108887343"/>
     <use style="fill:#ff00ff;stroke:#ff00ff;stroke-width:0.5;" x="146.400004788" xlink:href="#m6e19633ad4" y="299.468802304"/>
     <use style="fill:#ff00ff;stroke:#ff00ff;stroke-width:0.5;" x="158.799990045" xlink:href="#m6e19633ad4" y="297.453337085"/>
     <use style="fill:#ff00ff;stroke:#ff00ff;stroke-width:0.5;" x="171.20000484" xlink:href="#m6e19633ad4" y="294.004871507"/>
     <use style="fill:#ff00ff;stroke:#ff00ff;stroke-width:0.5;" x="183.600030316" xlink:href="#m6e19633ad4" y="287.834203216"/>
     <use style="fill:#ff00ff;stroke:#ff00ff;stroke-width:0.5;" x="196.000017389" xlink:href="#m6e19633ad4" y="279.120235817"/>
     <use style="fill:#ff00ff;stroke:#ff00ff;stroke-width:0.5;" x="208.400046317" xlink:href="#m6e19633ad4" y="278.909023263"/>
     <use style="fill:#ff00ff;stroke:#ff00ff;stroke-width:0.5;" x="220.800025825" xlink:href="#m6e19633ad4" y="305.067381289"/>
     <use style="fill:#ff00ff;stroke:#ff00ff;stroke-width:0.5;" x="233.200028611" xlink:href="#m6e19633ad4" y="328.12873356"/>
     <use style="fill:#ff00ff;stroke:#ff00ff;stroke-width:0.5;" x="245.600042983" xlink:href="#m6e19633ad4" y="348.838266715"/>
     <use style="fill:#ff00ff;stroke:#ff00ff;stroke-width:0.5;" x="258.000044441" xlink:href="#m6e19633ad4" y="366.656918912"/>
     <use style="fill:#ff00ff;stroke:#ff00ff;stroke-width:0.5;" x="270.400012289" xlink:href="#m6e19633ad4" y="379.880525524"/>
     <use style="fill:#ff00ff;stroke:#ff00ff;stroke-width:0.5;" x="282.800008637" xlink:href="#m6e19633ad4" y="387.01082547"/>
     <use style="fill:#ff00ff;stroke:#ff00ff;stroke-width:0.5;" x="295.200642021" xlink:href="#m6e19633ad4" y="388.8"/>
     <use style="fill:#ff00ff;stroke:#ff00ff;stroke-width:0.5;" x="307.600005778" xlink:href="#m6e19633ad4" y="386.863302256"/>
     <use style="fill:#ff00ff;stroke:#ff00ff;stroke-width:0.5;" x="319.999998764" xlink:href="#m6e19633ad4" y="379.439155207"/>
     <use style="fill:#ff00ff;stroke:#ff00ff;stroke-width:0.5;" x="332.399999488" xlink:href="#m6e19633ad4" y="366.564303948"/>
     <use style="fill:#ff00ff;stroke:#ff00ff;stroke-width:0.5;" x="344.799998818" xlink:href="#m6e19633ad4" y="348.793051026"/>
     <use style="fill:#ff00ff;stroke:#ff00ff;stroke-width:0.5;" x="357.200003596" xlink:href="#m6e19633ad4" y="327.968450479"/>
     <use style="fill:#ff00ff;stroke:#ff00ff;stroke-width:0.5;" x="369.59996342" xlink:href="#m6e19633ad4" y="304.761002213"/>
     <use style="fill:#ff00ff;stroke:#ff00ff;stroke-width:0.5;" x="382.000009385" xlink:href="#m6e19633ad4" y="279.1512666"/>
     <use style="fill:#ff00ff;stroke:#ff00ff;stroke-width:0.5;" x="394.399956617" xlink:href="#m6e19633ad4" y="279.392929529"/>
     <use style="fill:#ff00ff;stroke:#ff00ff;stroke-width:0.5;" x="406.799984306" xlink:href="#m6e19633ad4" y="288.181945964"/>
     <use style="fill:#ff00ff;stroke:#ff00ff;stroke-width:0.5;" x="419.199964632" xlink:href="#m6e19633ad4" y="294.055963198"/>
     <use style="fill:#ff00ff;stroke:#ff00ff;stroke-width:0.5;" x="431.599988857" xlink:href="#m6e19633ad4" y="297.351696321"/>
     <use style="fill:#ff00ff;stroke:#ff00ff;stroke-width:0.5;" x="443.999965407" xlink:href="#m6e19633ad4" y="300.354705376"/>
     <use style="fill:#ff00ff;stroke:#ff00ff;stroke-width:0.5;" x="456.399967067" xlink:href="#m6e19633ad4" y="301.150848373"/>
     <use style="fill:#ff00ff;stroke:#ff00ff;stroke-width:0.5;" x="468.799982188" xlink:href="#m6e19633ad4" y="304.742706111"/>
     <use style="fill:#ff00ff;stroke:#ff00ff;stroke-width:0.5;" x="481.19998624" xlink:href="#m6e19633ad4" y="311.240115108"/>
     <use style="fill:#ff00ff;stroke:#ff00ff;stroke-width:0.5;" x="493.59995845" xlink:href="#m6e19633ad4" y="319.809397002"/>
     <use style="fill:#ff00ff;stroke:#ff00ff;stroke-width:0.5;" x="506.000003645" xlink:href="#m6e19633ad4" y="323.204821932"/>
    </g>
   </g>
   <g id="line2d_5">
    <path clip-path="url(#p62226eefea)" d="M 71.999664 388.8 
L 84.399995 381.064428 
L 96.799998 365.73763 
L 109.199988 343.636758 
L 121.600017 321.26769 
L 134.000013 303.403501 
L 146.400005 292.549562 
L 158.79999 288.639538 
L 171.200005 287.361149 
L 183.60003 284.790693 
L 196.000017 279.214356 
L 208.400046 272.953087 
L 220.800026 261.991752 
L 233.200029 255.866689 
L 245.600043 243.235951 
L 258.000044 220.881066 
L 270.400012 193.184571 
L 282.800009 170.129069 
L 295.200642 161.249369 
L 307.600006 170.317143 
L 319.999999 193.651863 
L 332.399999 220.9328 
L 344.799999 243.269787 
L 357.200004 255.977046 
L 369.599963 262.253864 
L 382.000009 272.701711 
L 394.399957 278.950825 
L 406.799984 284.451143 
L 419.199965 287.323857 
L 431.599989 288.761865 
L 443.999965 291.592607 
L 456.399967 303.353411 
L 468.799982 321.751629 
L 481.199986 344.766879 
L 493.599958 365.688721 
L 506.000004 381.346029 
" style="fill:none;stroke:#008000;stroke-linecap:square;"/>
    <defs>
     <path d="M 0 3 
C 0.795609 3 1.55874 2.683901 2.12132 2.12132 
C 2.683901 1.55874 3 0.795609 3 0 
C 3 -0.795609 2.683901 -1.55874 2.12132 -2.12132 
C 1.55874 -2.683901 0.795609 -3 0 -3 
C -0.795609 -3 -1.55874 -2.683901 -2.12132 -2.12132 
C -2.683901 -1.55874 -3 -0.795609 -3 0 
C -3 0.795609 -2.683901 1.55874 -2.12132 2.12132 
C -1.55874 2.683901 -0.795609 3 0 3 
z
" id="mb6a2955bc9" style="stroke:#000000;stroke-width:0.5;"/>
    </defs>
    <g clip-path="url(#p62226eefea)">
     <use style="fill:#008000;stroke:#000000;stroke-width:0.5;" x="71.9996635178" xlink:href="#mb6a2955bc9" y="388.8"/>
     <use style="fill:#008000;stroke:#000000;stroke-width:0.5;" x="84.3999947818" xlink:href="#mb6a2955bc9" y="381.064428305"/>
     <use style="fill:#008000;stroke:#000000;stroke-width:0.5;" x="96.7999975433" xlink:href="#mb6a2955bc9" y="365.737630425"/>
     <use style="fill:#008000;stroke:#000000;stroke-width:0.5;" x="109.199987735" xlink:href="#mb6a2955bc9" y="343.636758028"/>
     <use style="fill:#008000;stroke:#000000;stroke-width:0.5;" x="121.600016954" xlink:href="#mb6a2955bc9" y="321.267690137"/>
     <use style="fill:#008000;stroke:#000000;stroke-width:0.5;" x="134.000013216" xlink:href="#mb6a2955bc9" y="303.403501199"/>
     <use style="fill:#008000;stroke:#000000;stroke-width:0.5;" x="146.400004788" xlink:href="#mb6a2955bc9" y="292.549561546"/>
     <use style="fill:#008000;stroke:#000000;stroke-width:0.5;" x="158.799990045" xlink:href="#mb6a2955bc9" y="288.639538244"/>
     <use style="fill:#008000;stroke:#000000;stroke-width:0.5;" x="171.20000484" xlink:href="#mb6a2955bc9" y="287.361149432"/>
     <use style="fill:#008000;stroke:#000000;stroke-width:0.5;" x="183.600030316" xlink:href="#mb6a2955bc9" y="284.790693478"/>
     <use style="fill:#008000;stroke:#000000;stroke-width:0.5;" x="196.000017389" xlink:href="#mb6a2955bc9" y="279.214355861"/>
     <use style="fill:#008000;stroke:#000000;stroke-width:0.5;" x="208.400046317" xlink:href="#mb6a2955bc9" y="272.953087099"/>
     <use style="fill:#008000;stroke:#000000;stroke-width:0.5;" x="220.800025825" xlink:href="#mb6a2955bc9" y="261.991751686"/>
     <use style="fill:#008000;stroke:#000000;stroke-width:0.5;" x="233.200028611" xlink:href="#mb6a2955bc9" y="255.866688992"/>
     <use style="fill:#008000;stroke:#000000;stroke-width:0.5;" x="245.600042983" xlink:href="#mb6a2955bc9" y="243.235951349"/>
     <use style="fill:#008000;stroke:#000000;stroke-width:0.5;" x="258.000044441" xlink:href="#mb6a2955bc9" y="220.881065838"/>
     <use style="fill:#008000;stroke:#000000;stroke-width:0.5;" x="270.400012289" xlink:href="#mb6a2955bc9" y="193.184570569"/>
     <use style="fill:#008000;stroke:#000000;stroke-width:0.5;" x="282.800008637" xlink:href="#mb6a2955bc9" y="170.129069043"/>
     <use style="fill:#008000;stroke:#000000;stroke-width:0.5;" x="295.200642021" xlink:href="#mb6a2955bc9" y="161.249368706"/>
     <use style="fill:#008000;stroke:#000000;stroke-width:0.5;" x="307.600005778" xlink:href="#mb6a2955bc9" y="170.317142614"/>
     <use style="fill:#008000;stroke:#000000;stroke-width:0.5;" x="319.999998764" xlink:href="#mb6a2955bc9" y="193.651863059"/>
     <use style="fill:#008000;stroke:#000000;stroke-width:0.5;" x="332.399999488" xlink:href="#mb6a2955bc9" y="220.932799812"/>
     <use style="fill:#008000;stroke:#000000;stroke-width:0.5;" x="344.799998818" xlink:href="#mb6a2955bc9" y="243.269786547"/>
     <use style="fill:#008000;stroke:#000000;stroke-width:0.5;" x="357.200003596" xlink:href="#mb6a2955bc9" y="255.977046374"/>
     <use style="fill:#008000;stroke:#000000;stroke-width:0.5;" x="369.59996342" xlink:href="#mb6a2955bc9" y="262.253863934"/>
     <use style="fill:#008000;stroke:#000000;stroke-width:0.5;" x="382.000009385" xlink:href="#mb6a2955bc9" y="272.701710719"/>
     <use style="fill:#008000;stroke:#000000;stroke-width:0.5;" x="394.399956617" xlink:href="#mb6a2955bc9" y="278.950824856"/>
     <use style="fill:#008000;stroke:#000000;stroke-width:0.5;" x="406.799984306" xlink:href="#mb6a2955bc9" y="284.451142816"/>
     <use style="fill:#008000;stroke:#000000;stroke-width:0.5;" x="419.199964632" xlink:href="#mb6a2955bc9" y="287.323856657"/>
     <use style="fill:#008000;stroke:#000000;stroke-width:0.5;" x="431.599988857" xlink:href="#mb6a2955bc9" y="288.761865022"/>
     <use style="fill:#008000;stroke:#000000;stroke-width:0.5;" x="443.999965407" xlink:href="#mb6a2955bc9" y="291.592607235"/>
     <use style="fill:#008000;stroke:#000000;stroke-width:0.5;" x="456.399967067" xlink:href="#mb6a2955bc9" y="303.353411484"/>
     <use style="fill:#008000;stroke:#000000;stroke-width:0.5;" x="468.799982188" xlink:href="#mb6a2955bc9" y="321.751629309"/>
     <use style="fill:#008000;stroke:#000000;stroke-width:0.5;" x="481.19998624" xlink:href="#mb6a2955bc9" y="344.766878588"/>
     <use style="fill:#008000;stroke:#000000;stroke-width:0.5;" x="493.59995845" xlink:href="#mb6a2955bc9" y="365.688720585"/>
     <use style="fill:#008000;stroke:#000000;stroke-width:0.5;" x="506.000003645" xlink:href="#mb6a2955bc9" y="381.346028544"/>
    </g>
   </g>
   <g id="patch_3">
    <path d="M 518.4 388.8 
L 518.4 43.2 
" style="fill:none;stroke:#000000;stroke-linecap:square;stroke-linejoin:miter;"/>
   </g>
   <g id="patch_4">
    <path d="M 72 388.8 
L 72 43.2 
" style="fill:none;stroke:#000000;stroke-linecap:square;stroke-linejoin:miter;"/>
   </g>
   <g id="patch_5">
    <path d="M 72 388.8 
L 518.4 388.8 
" style="fill:none;stroke:#000000;stroke-linecap:square;stroke-linejoin:miter;"/>
   </g>
   <g id="patch_6">
    <path d="M 72 43.2 
L 518.4 43.2 
" style="fill:none;stroke:#000000;stroke-linecap:square;stroke-linejoin:miter;"/>
   </g>
   <g id="matplotlib.axis_1">
    <g id="xtick_1">
     <g id="line2d_6">
      <defs>
       <path d="M 0 0 
L 0 -4 
" id="m3b969c26d5" style="stroke:#000000;stroke-width:0.5;"/>
      </defs>
      <g>
       <use style="stroke:#000000;stroke-width:0.5;" x="72.0" xlink:href="#m3b969c26d5" y="388.8"/>
      </g>
     </g>
     <g id="line2d_7">
      <defs>
       <path d="M 0 0 
L 0 4 
" id="m9ff5ae4fa2" style="stroke:#000000;stroke-width:0.5;"/>
      </defs>
      <g>
       <use style="stroke:#000000;stroke-width:0.5;" x="72.0" xlink:href="#m9ff5ae4fa2" y="43.2"/>
      </g>
     </g>
     <g id="text_1">
      <!-- −180 -->
      <defs>
       <path d="M 12.40625 8.296875 
L 28.515625 8.296875 
L 28.515625 63.921875 
L 10.984375 60.40625 
L 10.984375 69.390625 
L 28.421875 72.90625 
L 38.28125 72.90625 
L 38.28125 8.296875 
L 54.390625 8.296875 
L 54.390625 0 
L 12.40625 0 
z
" id="BitstreamVeraSans-Roman-31"/>
       <path d="M 10.59375 35.5 
L 73.1875 35.5 
L 73.1875 27.203125 
L 10.59375 27.203125 
z
" id="BitstreamVeraSans-Roman-2212"/>
       <path d="M 31.78125 66.40625 
Q 24.171875 66.40625 20.328125 58.90625 
Q 16.5 51.421875 16.5 36.375 
Q 16.5 21.390625 20.328125 13.890625 
Q 24.171875 6.390625 31.78125 6.390625 
Q 39.453125 6.390625 43.28125 13.890625 
Q 47.125 21.390625 47.125 36.375 
Q 47.125 51.421875 43.28125 58.90625 
Q 39.453125 66.40625 31.78125 66.40625 
M 31.78125 74.21875 
Q 44.046875 74.21875 50.515625 64.515625 
Q 56.984375 54.828125 56.984375 36.375 
Q 56.984375 17.96875 50.515625 8.265625 
Q 44.046875 -1.421875 31.78125 -1.421875 
Q 19.53125 -1.421875 13.0625 8.265625 
Q 6.59375 17.96875 6.59375 36.375 
Q 6.59375 54.828125 13.0625 64.515625 
Q 19.53125 74.21875 31.78125 74.21875 
" id="BitstreamVeraSans-Roman-30"/>
       <path d="M 31.78125 34.625 
Q 24.75 34.625 20.71875 30.859375 
Q 16.703125 27.09375 16.703125 20.515625 
Q 16.703125 13.921875 20.71875 10.15625 
Q 24.75 6.390625 31.78125 6.390625 
Q 38.8125 6.390625 42.859375 10.171875 
Q 46.921875 13.96875 46.921875 20.515625 
Q 46.921875 27.09375 42.890625 30.859375 
Q 38.875 34.625 31.78125 34.625 
M 21.921875 38.8125 
Q 15.578125 40.375 12.03125 44.71875 
Q 8.5 49.078125 8.5 55.328125 
Q 8.5 64.0625 14.71875 69.140625 
Q 20.953125 74.21875 31.78125 74.21875 
Q 42.671875 74.21875 48.875 69.140625 
Q 55.078125 64.0625 55.078125 55.328125 
Q 55.078125 49.078125 51.53125 44.71875 
Q 48 40.375 41.703125 38.8125 
Q 48.828125 37.15625 52.796875 32.3125 
Q 56.78125 27.484375 56.78125 20.515625 
Q 56.78125 9.90625 50.3125 4.234375 
Q 43.84375 -1.421875 31.78125 -1.421875 
Q 19.734375 -1.421875 13.25 4.234375 
Q 6.78125 9.90625 6.78125 20.515625 
Q 6.78125 27.484375 10.78125 32.3125 
Q 14.796875 37.15625 21.921875 38.8125 
M 18.3125 54.390625 
Q 18.3125 48.734375 21.84375 45.5625 
Q 25.390625 42.390625 31.78125 42.390625 
Q 38.140625 42.390625 41.71875 45.5625 
Q 45.3125 48.734375 45.3125 54.390625 
Q 45.3125 60.0625 41.71875 63.234375 
Q 38.140625 66.40625 31.78125 66.40625 
Q 25.390625 66.40625 21.84375 63.234375 
Q 18.3125 60.0625 18.3125 54.390625 
" id="BitstreamVeraSans-Roman-38"/>
      </defs>
      <g transform="translate(55.5196875 401.918125)scale(0.12 -0.12)">
       <use xlink:href="#BitstreamVeraSans-Roman-2212"/>
       <use x="83.7890625" xlink:href="#BitstreamVeraSans-Roman-31"/>
       <use x="147.412109375" xlink:href="#BitstreamVeraSans-Roman-38"/>
       <use x="211.03515625" xlink:href="#BitstreamVeraSans-Roman-30"/>
      </g>
     </g>
    </g>
    <g id="xtick_2">
     <g id="line2d_8">
      <g>
       <use style="stroke:#000000;stroke-width:0.5;" x="127.8" xlink:href="#m3b969c26d5" y="388.8"/>
      </g>
     </g>
     <g id="line2d_9">
      <g>
       <use style="stroke:#000000;stroke-width:0.5;" x="127.8" xlink:href="#m9ff5ae4fa2" y="43.2"/>
      </g>
     </g>
     <g id="text_2">
      <!-- −135 -->
      <defs>
       <path d="M 10.796875 72.90625 
L 49.515625 72.90625 
L 49.515625 64.59375 
L 19.828125 64.59375 
L 19.828125 46.734375 
Q 21.96875 47.46875 24.109375 47.828125 
Q 26.265625 48.1875 28.421875 48.1875 
Q 40.625 48.1875 47.75 41.5 
Q 54.890625 34.8125 54.890625 23.390625 
Q 54.890625 11.625 47.5625 5.09375 
Q 40.234375 -1.421875 26.90625 -1.421875 
Q 22.3125 -1.421875 17.546875 -0.640625 
Q 12.796875 0.140625 7.71875 1.703125 
L 7.71875 11.625 
Q 12.109375 9.234375 16.796875 8.0625 
Q 21.484375 6.890625 26.703125 6.890625 
Q 35.15625 6.890625 40.078125 11.328125 
Q 45.015625 15.765625 45.015625 23.390625 
Q 45.015625 31 40.078125 35.4375 
Q 35.15625 39.890625 26.703125 39.890625 
Q 22.75 39.890625 18.8125 39.015625 
Q 14.890625 38.140625 10.796875 36.28125 
z
" id="BitstreamVeraSans-Roman-35"/>
       <path d="M 40.578125 39.3125 
Q 47.65625 37.796875 51.625 33 
Q 55.609375 28.21875 55.609375 21.1875 
Q 55.609375 10.40625 48.1875 4.484375 
Q 40.765625 -1.421875 27.09375 -1.421875 
Q 22.515625 -1.421875 17.65625 -0.515625 
Q 12.796875 0.390625 7.625 2.203125 
L 7.625 11.71875 
Q 11.71875 9.328125 16.59375 8.109375 
Q 21.484375 6.890625 26.8125 6.890625 
Q 36.078125 6.890625 40.9375 10.546875 
Q 45.796875 14.203125 45.796875 21.1875 
Q 45.796875 27.640625 41.28125 31.265625 
Q 36.765625 34.90625 28.71875 34.90625 
L 20.21875 34.90625 
L 20.21875 43.015625 
L 29.109375 43.015625 
Q 36.375 43.015625 40.234375 45.921875 
Q 44.09375 48.828125 44.09375 54.296875 
Q 44.09375 59.90625 40.109375 62.90625 
Q 36.140625 65.921875 28.71875 65.921875 
Q 24.65625 65.921875 20.015625 65.03125 
Q 15.375 64.15625 9.8125 62.3125 
L 9.8125 71.09375 
Q 15.4375 72.65625 20.34375 73.4375 
Q 25.25 74.21875 29.59375 74.21875 
Q 40.828125 74.21875 47.359375 69.109375 
Q 53.90625 64.015625 53.90625 55.328125 
Q 53.90625 49.265625 50.4375 45.09375 
Q 46.96875 40.921875 40.578125 39.3125 
" id="BitstreamVeraSans-Roman-33"/>
      </defs>
      <g transform="translate(111.3196875 401.918125)scale(0.12 -0.12)">
       <use xlink:href="#BitstreamVeraSans-Roman-2212"/>
       <use x="83.7890625" xlink:href="#BitstreamVeraSans-Roman-31"/>
       <use x="147.412109375" xlink:href="#BitstreamVeraSans-Roman-33"/>
       <use x="211.03515625" xlink:href="#BitstreamVeraSans-Roman-35"/>
      </g>
     </g>
    </g>
    <g id="xtick_3">
     <g id="line2d_10">
      <g>
       <use style="stroke:#000000;stroke-width:0.5;" x="183.6" xlink:href="#m3b969c26d5" y="388.8"/>
      </g>
     </g>
     <g id="line2d_11">
      <g>
       <use style="stroke:#000000;stroke-width:0.5;" x="183.6" xlink:href="#m9ff5ae4fa2" y="43.2"/>
      </g>
     </g>
     <g id="text_3">
      <!-- −90 -->
      <defs>
       <path d="M 10.984375 1.515625 
L 10.984375 10.5 
Q 14.703125 8.734375 18.5 7.8125 
Q 22.3125 6.890625 25.984375 6.890625 
Q 35.75 6.890625 40.890625 13.453125 
Q 46.046875 20.015625 46.78125 33.40625 
Q 43.953125 29.203125 39.59375 26.953125 
Q 35.25 24.703125 29.984375 24.703125 
Q 19.046875 24.703125 12.671875 31.3125 
Q 6.296875 37.9375 6.296875 49.421875 
Q 6.296875 60.640625 12.9375 67.421875 
Q 19.578125 74.21875 30.609375 74.21875 
Q 43.265625 74.21875 49.921875 64.515625 
Q 56.59375 54.828125 56.59375 36.375 
Q 56.59375 19.140625 48.40625 8.859375 
Q 40.234375 -1.421875 26.421875 -1.421875 
Q 22.703125 -1.421875 18.890625 -0.6875 
Q 15.09375 0.046875 10.984375 1.515625 
M 30.609375 32.421875 
Q 37.25 32.421875 41.125 36.953125 
Q 45.015625 41.5 45.015625 49.421875 
Q 45.015625 57.28125 41.125 61.84375 
Q 37.25 66.40625 30.609375 66.40625 
Q 23.96875 66.40625 20.09375 61.84375 
Q 16.21875 57.28125 16.21875 49.421875 
Q 16.21875 41.5 20.09375 36.953125 
Q 23.96875 32.421875 30.609375 32.421875 
" id="BitstreamVeraSans-Roman-39"/>
      </defs>
      <g transform="translate(170.9371875 401.918125)scale(0.12 -0.12)">
       <use xlink:href="#BitstreamVeraSans-Roman-2212"/>
       <use x="83.7890625" xlink:href="#BitstreamVeraSans-Roman-39"/>
       <use x="147.412109375" xlink:href="#BitstreamVeraSans-Roman-30"/>
      </g>
     </g>
    </g>
    <g id="xtick_4">
     <g id="line2d_12">
      <g>
       <use style="stroke:#000000;stroke-width:0.5;" x="239.4" xlink:href="#m3b969c26d5" y="388.8"/>
      </g>
     </g>
     <g id="line2d_13">
      <g>
       <use style="stroke:#000000;stroke-width:0.5;" x="239.4" xlink:href="#m9ff5ae4fa2" y="43.2"/>
      </g>
     </g>
     <g id="text_4">
      <!-- −45 -->
      <defs>
       <path d="M 37.796875 64.3125 
L 12.890625 25.390625 
L 37.796875 25.390625 
z
M 35.203125 72.90625 
L 47.609375 72.90625 
L 47.609375 25.390625 
L 58.015625 25.390625 
L 58.015625 17.1875 
L 47.609375 17.1875 
L 47.609375 0 
L 37.796875 0 
L 37.796875 17.1875 
L 4.890625 17.1875 
L 4.890625 26.703125 
z
" id="BitstreamVeraSans-Roman-34"/>
      </defs>
      <g transform="translate(226.7371875 401.918125)scale(0.12 -0.12)">
       <use xlink:href="#BitstreamVeraSans-Roman-2212"/>
       <use x="83.7890625" xlink:href="#BitstreamVeraSans-Roman-34"/>
       <use x="147.412109375" xlink:href="#BitstreamVeraSans-Roman-35"/>
      </g>
     </g>
    </g>
    <g id="xtick_5">
     <g id="line2d_14">
      <g>
       <use style="stroke:#000000;stroke-width:0.5;" x="295.2" xlink:href="#m3b969c26d5" y="388.8"/>
      </g>
     </g>
     <g id="line2d_15">
      <g>
       <use style="stroke:#000000;stroke-width:0.5;" x="295.2" xlink:href="#m9ff5ae4fa2" y="43.2"/>
      </g>
     </g>
     <g id="text_5">
      <!-- 0 -->
      <g transform="translate(291.3825 401.918125)scale(0.12 -0.12)">
       <use xlink:href="#BitstreamVeraSans-Roman-30"/>
      </g>
     </g>
    </g>
    <g id="xtick_6">
     <g id="line2d_16">
      <g>
       <use style="stroke:#000000;stroke-width:0.5;" x="351.0" xlink:href="#m3b969c26d5" y="388.8"/>
      </g>
     </g>
     <g id="line2d_17">
      <g>
       <use style="stroke:#000000;stroke-width:0.5;" x="351.0" xlink:href="#m9ff5ae4fa2" y="43.2"/>
      </g>
     </g>
     <g id="text_6">
      <!-- 45 -->
      <g transform="translate(343.365 401.918125)scale(0.12 -0.12)">
       <use xlink:href="#BitstreamVeraSans-Roman-34"/>
       <use x="63.623046875" xlink:href="#BitstreamVeraSans-Roman-35"/>
      </g>
     </g>
    </g>
    <g id="xtick_7">
     <g id="line2d_18">
      <g>
       <use style="stroke:#000000;stroke-width:0.5;" x="406.8" xlink:href="#m3b969c26d5" y="388.8"/>
      </g>
     </g>
     <g id="line2d_19">
      <g>
       <use style="stroke:#000000;stroke-width:0.5;" x="406.8" xlink:href="#m9ff5ae4fa2" y="43.2"/>
      </g>
     </g>
     <g id="text_7">
      <!-- 90 -->
      <g transform="translate(399.165 401.918125)scale(0.12 -0.12)">
       <use xlink:href="#BitstreamVeraSans-Roman-39"/>
       <use x="63.623046875" xlink:href="#BitstreamVeraSans-Roman-30"/>
      </g>
     </g>
    </g>
    <g id="xtick_8">
     <g id="line2d_20">
      <g>
       <use style="stroke:#000000;stroke-width:0.5;" x="462.6" xlink:href="#m3b969c26d5" y="388.8"/>
      </g>
     </g>
     <g id="line2d_21">
      <g>
       <use style="stroke:#000000;stroke-width:0.5;" x="462.6" xlink:href="#m9ff5ae4fa2" y="43.2"/>
      </g>
     </g>
     <g id="text_8">
      <!-- 135 -->
      <g transform="translate(451.1475 401.918125)scale(0.12 -0.12)">
       <use xlink:href="#BitstreamVeraSans-Roman-31"/>
       <use x="63.623046875" xlink:href="#BitstreamVeraSans-Roman-33"/>
       <use x="127.24609375" xlink:href="#BitstreamVeraSans-Roman-35"/>
      </g>
     </g>
    </g>
    <g id="xtick_9">
     <g id="line2d_22">
      <g>
       <use style="stroke:#000000;stroke-width:0.5;" x="518.4" xlink:href="#m3b969c26d5" y="388.8"/>
      </g>
     </g>
     <g id="line2d_23">
      <g>
       <use style="stroke:#000000;stroke-width:0.5;" x="518.4" xlink:href="#m9ff5ae4fa2" y="43.2"/>
      </g>
     </g>
     <g id="text_9">
      <!-- 180 -->
      <g transform="translate(506.9475 401.918125)scale(0.12 -0.12)">
       <use xlink:href="#BitstreamVeraSans-Roman-31"/>
       <use x="63.623046875" xlink:href="#BitstreamVeraSans-Roman-38"/>
       <use x="127.24609375" xlink:href="#BitstreamVeraSans-Roman-30"/>
      </g>
     </g>
    </g>
    <g id="text_10">
     <!-- Phi -->
     <defs>
      <path d="M 54.890625 33.015625 
L 54.890625 0 
L 45.90625 0 
L 45.90625 32.71875 
Q 45.90625 40.484375 42.875 44.328125 
Q 39.84375 48.1875 33.796875 48.1875 
Q 26.515625 48.1875 22.3125 43.546875 
Q 18.109375 38.921875 18.109375 30.90625 
L 18.109375 0 
L 9.078125 0 
L 9.078125 75.984375 
L 18.109375 75.984375 
L 18.109375 46.1875 
Q 21.34375 51.125 25.703125 53.5625 
Q 30.078125 56 35.796875 56 
Q 45.21875 56 50.046875 50.171875 
Q 54.890625 44.34375 54.890625 33.015625 
" id="BitstreamVeraSans-Roman-68"/>
      <path d="M 19.671875 64.796875 
L 19.671875 37.40625 
L 32.078125 37.40625 
Q 38.96875 37.40625 42.71875 40.96875 
Q 46.484375 44.53125 46.484375 51.125 
Q 46.484375 57.671875 42.71875 61.234375 
Q 38.96875 64.796875 32.078125 64.796875 
z
M 9.8125 72.90625 
L 32.078125 72.90625 
Q 44.34375 72.90625 50.609375 67.359375 
Q 56.890625 61.8125 56.890625 51.125 
Q 56.890625 40.328125 50.609375 34.8125 
Q 44.34375 29.296875 32.078125 29.296875 
L 19.671875 29.296875 
L 19.671875 0 
L 9.8125 0 
z
" id="BitstreamVeraSans-Roman-50"/>
      <path d="M 9.421875 54.6875 
L 18.40625 54.6875 
L 18.40625 0 
L 9.421875 0 
z
M 9.421875 75.984375 
L 18.40625 75.984375 
L 18.40625 64.59375 
L 9.421875 64.59375 
z
" id="BitstreamVeraSans-Roman-69"/>
     </defs>
     <g transform="translate(286.1128125 418.531875)scale(0.12 -0.12)">
      <use xlink:href="#BitstreamVeraSans-Roman-50"/>
      <use x="60.302734375" xlink:href="#BitstreamVeraSans-Roman-68"/>
      <use x="123.681640625" xlink:href="#BitstreamVeraSans-Roman-69"/>
     </g>
    </g>
   </g>
   <g id="matplotlib.axis_2">
    <g id="ytick_1">
     <g id="line2d_24">
      <defs>
       <path d="M 0 0 
L 4 0 
" id="md49d6e2bda" style="stroke:#000000;stroke-width:0.5;"/>
      </defs>
      <g>
       <use style="stroke:#000000;stroke-width:0.5;" x="72.0" xlink:href="#md49d6e2bda" y="388.8"/>
      </g>
     </g>
     <g id="line2d_25">
      <defs>
       <path d="M 0 0 
L -4 0 
" id="m2abf795a92" style="stroke:#000000;stroke-width:0.5;"/>
      </defs>
      <g>
       <use style="stroke:#000000;stroke-width:0.5;" x="518.4" xlink:href="#m2abf795a92" y="388.8"/>
      </g>
     </g>
     <g id="text_11">
      <!-- 0.0 -->
      <defs>
       <path d="M 10.6875 12.40625 
L 21 12.40625 
L 21 0 
L 10.6875 0 
z
" id="BitstreamVeraSans-Roman-2e"/>
      </defs>
      <g transform="translate(48.91625 392.11125)scale(0.12 -0.12)">
       <use xlink:href="#BitstreamVeraSans-Roman-30"/>
       <use x="63.623046875" xlink:href="#BitstreamVeraSans-Roman-2e"/>
       <use x="95.41015625" xlink:href="#BitstreamVeraSans-Roman-30"/>
      </g>
     </g>
    </g>
    <g id="ytick_2">
     <g id="line2d_26">
      <g>
       <use style="stroke:#000000;stroke-width:0.5;" x="72.0" xlink:href="#md49d6e2bda" y="350.4"/>
      </g>
     </g>
     <g id="line2d_27">
      <g>
       <use style="stroke:#000000;stroke-width:0.5;" x="518.4" xlink:href="#m2abf795a92" y="350.4"/>
      </g>
     </g>
     <g id="text_12">
      <!-- 0.5 -->
      <g transform="translate(48.91625 353.71125)scale(0.12 -0.12)">
       <use xlink:href="#BitstreamVeraSans-Roman-30"/>
       <use x="63.623046875" xlink:href="#BitstreamVeraSans-Roman-2e"/>
       <use x="95.41015625" xlink:href="#BitstreamVeraSans-Roman-35"/>
      </g>
     </g>
    </g>
    <g id="ytick_3">
     <g id="line2d_28">
      <g>
       <use style="stroke:#000000;stroke-width:0.5;" x="72.0" xlink:href="#md49d6e2bda" y="312.0"/>
      </g>
     </g>
     <g id="line2d_29">
      <g>
       <use style="stroke:#000000;stroke-width:0.5;" x="518.4" xlink:href="#m2abf795a92" y="312.0"/>
      </g>
     </g>
     <g id="text_13">
      <!-- 1.0 -->
      <g transform="translate(48.91625 315.31125)scale(0.12 -0.12)">
       <use xlink:href="#BitstreamVeraSans-Roman-31"/>
       <use x="63.623046875" xlink:href="#BitstreamVeraSans-Roman-2e"/>
       <use x="95.41015625" xlink:href="#BitstreamVeraSans-Roman-30"/>
      </g>
     </g>
    </g>
    <g id="ytick_4">
     <g id="line2d_30">
      <g>
       <use style="stroke:#000000;stroke-width:0.5;" x="72.0" xlink:href="#md49d6e2bda" y="273.6"/>
      </g>
     </g>
     <g id="line2d_31">
      <g>
       <use style="stroke:#000000;stroke-width:0.5;" x="518.4" xlink:href="#m2abf795a92" y="273.6"/>
      </g>
     </g>
     <g id="text_14">
      <!-- 1.5 -->
      <g transform="translate(48.91625 276.91125)scale(0.12 -0.12)">
       <use xlink:href="#BitstreamVeraSans-Roman-31"/>
       <use x="63.623046875" xlink:href="#BitstreamVeraSans-Roman-2e"/>
       <use x="95.41015625" xlink:href="#BitstreamVeraSans-Roman-35"/>
      </g>
     </g>
    </g>
    <g id="ytick_5">
     <g id="line2d_32">
      <g>
       <use style="stroke:#000000;stroke-width:0.5;" x="72.0" xlink:href="#md49d6e2bda" y="235.2"/>
      </g>
     </g>
     <g id="line2d_33">
      <g>
       <use style="stroke:#000000;stroke-width:0.5;" x="518.4" xlink:href="#m2abf795a92" y="235.2"/>
      </g>
     </g>
     <g id="text_15">
      <!-- 2.0 -->
      <defs>
       <path d="M 19.1875 8.296875 
L 53.609375 8.296875 
L 53.609375 0 
L 7.328125 0 
L 7.328125 8.296875 
Q 12.9375 14.109375 22.625 23.890625 
Q 32.328125 33.6875 34.8125 36.53125 
Q 39.546875 41.84375 41.421875 45.53125 
Q 43.3125 49.21875 43.3125 52.78125 
Q 43.3125 58.59375 39.234375 62.25 
Q 35.15625 65.921875 28.609375 65.921875 
Q 23.96875 65.921875 18.8125 64.3125 
Q 13.671875 62.703125 7.8125 59.421875 
L 7.8125 69.390625 
Q 13.765625 71.78125 18.9375 73 
Q 24.125 74.21875 28.421875 74.21875 
Q 39.75 74.21875 46.484375 68.546875 
Q 53.21875 62.890625 53.21875 53.421875 
Q 53.21875 48.921875 51.53125 44.890625 
Q 49.859375 40.875 45.40625 35.40625 
Q 44.1875 33.984375 37.640625 27.21875 
Q 31.109375 20.453125 19.1875 8.296875 
" id="BitstreamVeraSans-Roman-32"/>
      </defs>
      <g transform="translate(48.91625 238.51125)scale(0.12 -0.12)">
       <use xlink:href="#BitstreamVeraSans-Roman-32"/>
       <use x="63.623046875" xlink:href="#BitstreamVeraSans-Roman-2e"/>
       <use x="95.41015625" xlink:href="#BitstreamVeraSans-Roman-30"/>
      </g>
     </g>
    </g>
    <g id="ytick_6">
     <g id="line2d_34">
      <g>
       <use style="stroke:#000000;stroke-width:0.5;" x="72.0" xlink:href="#md49d6e2bda" y="196.8"/>
      </g>
     </g>
     <g id="line2d_35">
      <g>
       <use style="stroke:#000000;stroke-width:0.5;" x="518.4" xlink:href="#m2abf795a92" y="196.8"/>
      </g>
     </g>
     <g id="text_16">
      <!-- 2.5 -->
      <g transform="translate(48.91625 200.11125)scale(0.12 -0.12)">
       <use xlink:href="#BitstreamVeraSans-Roman-32"/>
       <use x="63.623046875" xlink:href="#BitstreamVeraSans-Roman-2e"/>
       <use x="95.41015625" xlink:href="#BitstreamVeraSans-Roman-35"/>
      </g>
     </g>
    </g>
    <g id="ytick_7">
     <g id="line2d_36">
      <g>
       <use style="stroke:#000000;stroke-width:0.5;" x="72.0" xlink:href="#md49d6e2bda" y="158.4"/>
      </g>
     </g>
     <g id="line2d_37">
      <g>
       <use style="stroke:#000000;stroke-width:0.5;" x="518.4" xlink:href="#m2abf795a92" y="158.4"/>
      </g>
     </g>
     <g id="text_17">
      <!-- 3.0 -->
      <g transform="translate(48.91625 161.71125)scale(0.12 -0.12)">
       <use xlink:href="#BitstreamVeraSans-Roman-33"/>
       <use x="63.623046875" xlink:href="#BitstreamVeraSans-Roman-2e"/>
       <use x="95.41015625" xlink:href="#BitstreamVeraSans-Roman-30"/>
      </g>
     </g>
    </g>
    <g id="ytick_8">
     <g id="line2d_38">
      <g>
       <use style="stroke:#000000;stroke-width:0.5;" x="72.0" xlink:href="#md49d6e2bda" y="120.0"/>
      </g>
     </g>
     <g id="line2d_39">
      <g>
       <use style="stroke:#000000;stroke-width:0.5;" x="518.4" xlink:href="#m2abf795a92" y="120.0"/>
      </g>
     </g>
     <g id="text_18">
      <!-- 3.5 -->
      <g transform="translate(48.91625 123.31125)scale(0.12 -0.12)">
       <use xlink:href="#BitstreamVeraSans-Roman-33"/>
       <use x="63.623046875" xlink:href="#BitstreamVeraSans-Roman-2e"/>
       <use x="95.41015625" xlink:href="#BitstreamVeraSans-Roman-35"/>
      </g>
     </g>
    </g>
    <g id="ytick_9">
     <g id="line2d_40">
      <g>
       <use style="stroke:#000000;stroke-width:0.5;" x="72.0" xlink:href="#md49d6e2bda" y="81.6"/>
      </g>
     </g>
     <g id="line2d_41">
      <g>
       <use style="stroke:#000000;stroke-width:0.5;" x="518.4" xlink:href="#m2abf795a92" y="81.6"/>
      </g>
     </g>
     <g id="text_19">
      <!-- 4.0 -->
      <g transform="translate(48.91625 84.91125)scale(0.12 -0.12)">
       <use xlink:href="#BitstreamVeraSans-Roman-34"/>
       <use x="63.623046875" xlink:href="#BitstreamVeraSans-Roman-2e"/>
       <use x="95.41015625" xlink:href="#BitstreamVeraSans-Roman-30"/>
      </g>
     </g>
    </g>
    <g id="ytick_10">
     <g id="line2d_42">
      <g>
       <use style="stroke:#000000;stroke-width:0.5;" x="72.0" xlink:href="#md49d6e2bda" y="43.2"/>
      </g>
     </g>
     <g id="line2d_43">
      <g>
       <use style="stroke:#000000;stroke-width:0.5;" x="518.4" xlink:href="#m2abf795a92" y="43.2"/>
      </g>
     </g>
     <g id="text_20">
      <!-- 4.5 -->
      <g transform="translate(48.91625 46.51125)scale(0.12 -0.12)">
       <use xlink:href="#BitstreamVeraSans-Roman-34"/>
       <use x="63.623046875" xlink:href="#BitstreamVeraSans-Roman-2e"/>
       <use x="95.41015625" xlink:href="#BitstreamVeraSans-Roman-35"/>
      </g>
     </g>
    </g>
    <g id="text_21">
     <!-- kcal/mol -->
     <defs>
      <path d="M 9.421875 75.984375 
L 18.40625 75.984375 
L 18.40625 0 
L 9.421875 0 
z
" id="BitstreamVeraSans-Roman-6c"/>
      <path d="M 52 44.1875 
Q 55.375 50.25 60.0625 53.125 
Q 64.75 56 71.09375 56 
Q 79.640625 56 84.28125 50.015625 
Q 88.921875 44.046875 88.921875 33.015625 
L 88.921875 0 
L 79.890625 0 
L 79.890625 32.71875 
Q 79.890625 40.578125 77.09375 44.375 
Q 74.3125 48.1875 68.609375 48.1875 
Q 61.625 48.1875 57.5625 43.546875 
Q 53.515625 38.921875 53.515625 30.90625 
L 53.515625 0 
L 44.484375 0 
L 44.484375 32.71875 
Q 44.484375 40.625 41.703125 44.40625 
Q 38.921875 48.1875 33.109375 48.1875 
Q 26.21875 48.1875 22.15625 43.53125 
Q 18.109375 38.875 18.109375 30.90625 
L 18.109375 0 
L 9.078125 0 
L 9.078125 54.6875 
L 18.109375 54.6875 
L 18.109375 46.1875 
Q 21.1875 51.21875 25.484375 53.609375 
Q 29.78125 56 35.6875 56 
Q 41.65625 56 45.828125 52.96875 
Q 50 49.953125 52 44.1875 
" id="BitstreamVeraSans-Roman-6d"/>
      <path d="M 34.28125 27.484375 
Q 23.390625 27.484375 19.1875 25 
Q 14.984375 22.515625 14.984375 16.5 
Q 14.984375 11.71875 18.140625 8.90625 
Q 21.296875 6.109375 26.703125 6.109375 
Q 34.1875 6.109375 38.703125 11.40625 
Q 43.21875 16.703125 43.21875 25.484375 
L 43.21875 27.484375 
z
M 52.203125 31.203125 
L 52.203125 0 
L 43.21875 0 
L 43.21875 8.296875 
Q 40.140625 3.328125 35.546875 0.953125 
Q 30.953125 -1.421875 24.3125 -1.421875 
Q 15.921875 -1.421875 10.953125 3.296875 
Q 6 8.015625 6 15.921875 
Q 6 25.140625 12.171875 29.828125 
Q 18.359375 34.515625 30.609375 34.515625 
L 43.21875 34.515625 
L 43.21875 35.40625 
Q 43.21875 41.609375 39.140625 45 
Q 35.0625 48.390625 27.6875 48.390625 
Q 23 48.390625 18.546875 47.265625 
Q 14.109375 46.140625 10.015625 43.890625 
L 10.015625 52.203125 
Q 14.9375 54.109375 19.578125 55.046875 
Q 24.21875 56 28.609375 56 
Q 40.484375 56 46.34375 49.84375 
Q 52.203125 43.703125 52.203125 31.203125 
" id="BitstreamVeraSans-Roman-61"/>
      <path d="M 48.78125 52.59375 
L 48.78125 44.1875 
Q 44.96875 46.296875 41.140625 47.34375 
Q 37.3125 48.390625 33.40625 48.390625 
Q 24.65625 48.390625 19.8125 42.84375 
Q 14.984375 37.3125 14.984375 27.296875 
Q 14.984375 17.28125 19.8125 11.734375 
Q 24.65625 6.203125 33.40625 6.203125 
Q 37.3125 6.203125 41.140625 7.25 
Q 44.96875 8.296875 48.78125 10.40625 
L 48.78125 2.09375 
Q 45.015625 0.34375 40.984375 -0.53125 
Q 36.96875 -1.421875 32.421875 -1.421875 
Q 20.0625 -1.421875 12.78125 6.34375 
Q 5.515625 14.109375 5.515625 27.296875 
Q 5.515625 40.671875 12.859375 48.328125 
Q 20.21875 56 33.015625 56 
Q 37.15625 56 41.109375 55.140625 
Q 45.0625 54.296875 48.78125 52.59375 
" id="BitstreamVeraSans-Roman-63"/>
      <path d="M 25.390625 72.90625 
L 33.6875 72.90625 
L 8.296875 -9.28125 
L 0 -9.28125 
z
" id="BitstreamVeraSans-Roman-2f"/>
      <path d="M 30.609375 48.390625 
Q 23.390625 48.390625 19.1875 42.75 
Q 14.984375 37.109375 14.984375 27.296875 
Q 14.984375 17.484375 19.15625 11.84375 
Q 23.34375 6.203125 30.609375 6.203125 
Q 37.796875 6.203125 41.984375 11.859375 
Q 46.1875 17.53125 46.1875 27.296875 
Q 46.1875 37.015625 41.984375 42.703125 
Q 37.796875 48.390625 30.609375 48.390625 
M 30.609375 56 
Q 42.328125 56 49.015625 48.375 
Q 55.71875 40.765625 55.71875 27.296875 
Q 55.71875 13.875 49.015625 6.21875 
Q 42.328125 -1.421875 30.609375 -1.421875 
Q 18.84375 -1.421875 12.171875 6.21875 
Q 5.515625 13.875 5.515625 27.296875 
Q 5.515625 40.765625 12.171875 48.375 
Q 18.84375 56 30.609375 56 
" id="BitstreamVeraSans-Roman-6f"/>
      <path d="M 9.078125 75.984375 
L 18.109375 75.984375 
L 18.109375 31.109375 
L 44.921875 54.6875 
L 56.390625 54.6875 
L 27.390625 29.109375 
L 57.625 0 
L 45.90625 0 
L 18.109375 26.703125 
L 18.109375 0 
L 9.078125 0 
z
" id="BitstreamVeraSans-Roman-6b"/>
     </defs>
     <g transform="translate(41.420625 241.3209375)rotate(-90.0)scale(0.12 -0.12)">
      <use xlink:href="#BitstreamVeraSans-Roman-6b"/>
      <use x="57.91015625" xlink:href="#BitstreamVeraSans-Roman-63"/>
      <use x="112.890625" xlink:href="#BitstreamVeraSans-Roman-61"/>
      <use x="174.169921875" xlink:href="#BitstreamVeraSans-Roman-6c"/>
      <use x="201.953125" xlink:href="#BitstreamVeraSans-Roman-2f"/>
      <use x="235.64453125" xlink:href="#BitstreamVeraSans-Roman-6d"/>
      <use x="333.056640625" xlink:href="#BitstreamVeraSans-Roman-6f"/>
      <use x="394.23828125" xlink:href="#BitstreamVeraSans-Roman-6c"/>
     </g>
    </g>
   </g>
   <g id="text_22">
    <!-- C4-C2-C1-C3 -->
    <defs>
     <path d="M 4.890625 31.390625 
L 31.203125 31.390625 
L 31.203125 23.390625 
L 4.890625 23.390625 
z
" id="BitstreamVeraSans-Roman-2d"/>
     <path d="M 64.40625 67.28125 
L 64.40625 56.890625 
Q 59.421875 61.53125 53.78125 63.8125 
Q 48.140625 66.109375 41.796875 66.109375 
Q 29.296875 66.109375 22.65625 58.46875 
Q 16.015625 50.828125 16.015625 36.375 
Q 16.015625 21.96875 22.65625 14.328125 
Q 29.296875 6.6875 41.796875 6.6875 
Q 48.140625 6.6875 53.78125 8.984375 
Q 59.421875 11.28125 64.40625 15.921875 
L 64.40625 5.609375 
Q 59.234375 2.09375 53.4375 0.328125 
Q 47.65625 -1.421875 41.21875 -1.421875 
Q 24.65625 -1.421875 15.125 8.703125 
Q 5.609375 18.84375 5.609375 36.375 
Q 5.609375 53.953125 15.125 64.078125 
Q 24.65625 74.21875 41.21875 74.21875 
Q 47.75 74.21875 53.53125 72.484375 
Q 59.328125 70.75 64.40625 67.28125 
" id="BitstreamVeraSans-Roman-43"/>
    </defs>
    <g transform="translate(248.972625 38.2)scale(0.144 -0.144)">
     <use xlink:href="#BitstreamVeraSans-Roman-43"/>
     <use x="69.82421875" xlink:href="#BitstreamVeraSans-Roman-34"/>
     <use x="133.447265625" xlink:href="#BitstreamVeraSans-Roman-2d"/>
     <use x="169.53125" xlink:href="#BitstreamVeraSans-Roman-43"/>
     <use x="239.35546875" xlink:href="#BitstreamVeraSans-Roman-32"/>
     <use x="302.978515625" xlink:href="#BitstreamVeraSans-Roman-2d"/>
     <use x="339.0625" xlink:href="#BitstreamVeraSans-Roman-43"/>
     <use x="408.88671875" xlink:href="#BitstreamVeraSans-Roman-31"/>
     <use x="472.509765625" xlink:href="#BitstreamVeraSans-Roman-2d"/>
     <use x="508.59375" xlink:href="#BitstreamVeraSans-Roman-43"/>
     <use x="578.41796875" xlink:href="#BitstreamVeraSans-Roman-33"/>
    </g>
   </g>
   <g id="legend_1">
    <g id="patch_7">
     <path d="M 406.15625 108.3125 
L 514.4 108.3125 
L 514.4 47.2 
L 406.15625 47.2 
z
" style="fill:#ffffff;stroke:#000000;stroke-linejoin:miter;"/>
    </g>
    <g id="line2d_44">
     <path d="M 411.75625 53.67875 
L 422.95625 53.67875 
" style="fill:none;stroke:#ff0000;stroke-linecap:square;"/>
    </g>
    <g id="line2d_45">
     <g>
      <use style="fill:#ff0000;stroke:#000000;stroke-width:0.5;" x="411.75625" xlink:href="#m6f0d45f88f" y="53.67875"/>
      <use style="fill:#ff0000;stroke:#000000;stroke-width:0.5;" x="422.95625" xlink:href="#m6f0d45f88f" y="53.67875"/>
     </g>
    </g>
    <g id="text_23">
     <!-- QM -->
     <defs>
      <path d="M 9.8125 72.90625 
L 24.515625 72.90625 
L 43.109375 23.296875 
L 61.8125 72.90625 
L 76.515625 72.90625 
L 76.515625 0 
L 66.890625 0 
L 66.890625 64.015625 
L 48.09375 14.015625 
L 38.1875 14.015625 
L 19.390625 64.015625 
L 19.390625 0 
L 9.8125 0 
z
" id="BitstreamVeraSans-Roman-4d"/>
      <path d="M 39.40625 66.21875 
Q 28.65625 66.21875 22.328125 58.203125 
Q 16.015625 50.203125 16.015625 36.375 
Q 16.015625 22.609375 22.328125 14.59375 
Q 28.65625 6.59375 39.40625 6.59375 
Q 50.140625 6.59375 56.421875 14.59375 
Q 62.703125 22.609375 62.703125 36.375 
Q 62.703125 50.203125 56.421875 58.203125 
Q 50.140625 66.21875 39.40625 66.21875 
M 53.21875 1.3125 
L 66.21875 -12.890625 
L 54.296875 -12.890625 
L 43.5 -1.21875 
Q 41.890625 -1.3125 41.03125 -1.359375 
Q 40.1875 -1.421875 39.40625 -1.421875 
Q 24.03125 -1.421875 14.8125 8.859375 
Q 5.609375 19.140625 5.609375 36.375 
Q 5.609375 53.65625 14.8125 63.9375 
Q 24.03125 74.21875 39.40625 74.21875 
Q 54.734375 74.21875 63.90625 63.9375 
Q 73.09375 53.65625 73.09375 36.375 
Q 73.09375 23.6875 67.984375 14.640625 
Q 62.890625 5.609375 53.21875 1.3125 
" id="BitstreamVeraSans-Roman-51"/>
     </defs>
     <g transform="translate(431.75625 56.47875)scale(0.08 -0.08)">
      <use xlink:href="#BitstreamVeraSans-Roman-51"/>
      <use x="78.7109375" xlink:href="#BitstreamVeraSans-Roman-4d"/>
     </g>
    </g>
    <g id="line2d_46">
     <path d="M 411.75625 65.42125 
L 422.95625 65.42125 
" style="fill:none;stroke:#0000ff;stroke-linecap:square;"/>
    </g>
    <g id="line2d_47">
     <g>
      <use style="fill:#0000ff;stroke:#000000;stroke-width:0.5;" x="411.75625" xlink:href="#m32c1f05917" y="65.42125"/>
      <use style="fill:#0000ff;stroke:#000000;stroke-width:0.5;" x="422.95625" xlink:href="#m32c1f05917" y="65.42125"/>
     </g>
    </g>
    <g id="text_24">
     <!-- MM Original -->
     <defs>
      <path id="BitstreamVeraSans-Roman-20"/>
      <path d="M 54.890625 33.015625 
L 54.890625 0 
L 45.90625 0 
L 45.90625 32.71875 
Q 45.90625 40.484375 42.875 44.328125 
Q 39.84375 48.1875 33.796875 48.1875 
Q 26.515625 48.1875 22.3125 43.546875 
Q 18.109375 38.921875 18.109375 30.90625 
L 18.109375 0 
L 9.078125 0 
L 9.078125 54.6875 
L 18.109375 54.6875 
L 18.109375 46.1875 
Q 21.34375 51.125 25.703125 53.5625 
Q 30.078125 56 35.796875 56 
Q 45.21875 56 50.046875 50.171875 
Q 54.890625 44.34375 54.890625 33.015625 
" id="BitstreamVeraSans-Roman-6e"/>
      <path d="M 39.40625 66.21875 
Q 28.65625 66.21875 22.328125 58.203125 
Q 16.015625 50.203125 16.015625 36.375 
Q 16.015625 22.609375 22.328125 14.59375 
Q 28.65625 6.59375 39.40625 6.59375 
Q 50.140625 6.59375 56.421875 14.59375 
Q 62.703125 22.609375 62.703125 36.375 
Q 62.703125 50.203125 56.421875 58.203125 
Q 50.140625 66.21875 39.40625 66.21875 
M 39.40625 74.21875 
Q 54.734375 74.21875 63.90625 63.9375 
Q 73.09375 53.65625 73.09375 36.375 
Q 73.09375 19.140625 63.90625 8.859375 
Q 54.734375 -1.421875 39.40625 -1.421875 
Q 24.03125 -1.421875 14.8125 8.828125 
Q 5.609375 19.09375 5.609375 36.375 
Q 5.609375 53.65625 14.8125 63.9375 
Q 24.03125 74.21875 39.40625 74.21875 
" id="BitstreamVeraSans-Roman-4f"/>
      <path d="M 41.109375 46.296875 
Q 39.59375 47.171875 37.8125 47.578125 
Q 36.03125 48 33.890625 48 
Q 26.265625 48 22.1875 43.046875 
Q 18.109375 38.09375 18.109375 28.8125 
L 18.109375 0 
L 9.078125 0 
L 9.078125 54.6875 
L 18.109375 54.6875 
L 18.109375 46.1875 
Q 20.953125 51.171875 25.484375 53.578125 
Q 30.03125 56 36.53125 56 
Q 37.453125 56 38.578125 55.875 
Q 39.703125 55.765625 41.0625 55.515625 
z
" id="BitstreamVeraSans-Roman-72"/>
      <path d="M 45.40625 27.984375 
Q 45.40625 37.75 41.375 43.109375 
Q 37.359375 48.484375 30.078125 48.484375 
Q 22.859375 48.484375 18.828125 43.109375 
Q 14.796875 37.75 14.796875 27.984375 
Q 14.796875 18.265625 18.828125 12.890625 
Q 22.859375 7.515625 30.078125 7.515625 
Q 37.359375 7.515625 41.375 12.890625 
Q 45.40625 18.265625 45.40625 27.984375 
M 54.390625 6.78125 
Q 54.390625 -7.171875 48.1875 -13.984375 
Q 42 -20.796875 29.203125 -20.796875 
Q 24.46875 -20.796875 20.265625 -20.09375 
Q 16.0625 -19.390625 12.109375 -17.921875 
L 12.109375 -9.1875 
Q 16.0625 -11.328125 19.921875 -12.34375 
Q 23.78125 -13.375 27.78125 -13.375 
Q 36.625 -13.375 41.015625 -8.765625 
Q 45.40625 -4.15625 45.40625 5.171875 
L 45.40625 9.625 
Q 42.625 4.78125 38.28125 2.390625 
Q 33.9375 0 27.875 0 
Q 17.828125 0 11.671875 7.65625 
Q 5.515625 15.328125 5.515625 27.984375 
Q 5.515625 40.671875 11.671875 48.328125 
Q 17.828125 56 27.875 56 
Q 33.9375 56 38.28125 53.609375 
Q 42.625 51.21875 45.40625 46.390625 
L 45.40625 54.6875 
L 54.390625 54.6875 
z
" id="BitstreamVeraSans-Roman-67"/>
     </defs>
     <g transform="translate(431.75625 68.22125)scale(0.08 -0.08)">
      <use xlink:href="#BitstreamVeraSans-Roman-4d"/>
      <use x="86.279296875" xlink:href="#BitstreamVeraSans-Roman-4d"/>
      <use x="172.55859375" xlink:href="#BitstreamVeraSans-Roman-20"/>
      <use x="204.345703125" xlink:href="#BitstreamVeraSans-Roman-4f"/>
      <use x="283.056640625" xlink:href="#BitstreamVeraSans-Roman-72"/>
      <use x="324.169921875" xlink:href="#BitstreamVeraSans-Roman-69"/>
      <use x="351.953125" xlink:href="#BitstreamVeraSans-Roman-67"/>
      <use x="415.4296875" xlink:href="#BitstreamVeraSans-Roman-69"/>
      <use x="443.212890625" xlink:href="#BitstreamVeraSans-Roman-6e"/>
      <use x="506.591796875" xlink:href="#BitstreamVeraSans-Roman-61"/>
      <use x="567.87109375" xlink:href="#BitstreamVeraSans-Roman-6c"/>
     </g>
    </g>
    <g id="line2d_48">
     <path d="M 411.75625 77.16375 
L 422.95625 77.16375 
" style="fill:none;stroke:#000000;stroke-linecap:square;"/>
    </g>
    <g id="line2d_49">
     <g>
      <use style="stroke:#000000;stroke-width:0.5;" x="411.75625" xlink:href="#md0bfe5de2e" y="77.16375"/>
      <use style="stroke:#000000;stroke-width:0.5;" x="422.95625" xlink:href="#md0bfe5de2e" y="77.16375"/>
     </g>
    </g>
    <g id="text_25">
     <!-- MM With phi zeroed -->
     <defs>
      <path d="M 5.515625 54.6875 
L 48.1875 54.6875 
L 48.1875 46.484375 
L 14.40625 7.171875 
L 48.1875 7.171875 
L 48.1875 0 
L 4.296875 0 
L 4.296875 8.203125 
L 38.09375 47.515625 
L 5.515625 47.515625 
z
" id="BitstreamVeraSans-Roman-7a"/>
      <path d="M 56.203125 29.59375 
L 56.203125 25.203125 
L 14.890625 25.203125 
Q 15.484375 15.921875 20.484375 11.0625 
Q 25.484375 6.203125 34.421875 6.203125 
Q 39.59375 6.203125 44.453125 7.46875 
Q 49.3125 8.734375 54.109375 11.28125 
L 54.109375 2.78125 
Q 49.265625 0.734375 44.1875 -0.34375 
Q 39.109375 -1.421875 33.890625 -1.421875 
Q 20.796875 -1.421875 13.15625 6.1875 
Q 5.515625 13.8125 5.515625 26.8125 
Q 5.515625 40.234375 12.765625 48.109375 
Q 20.015625 56 32.328125 56 
Q 43.359375 56 49.78125 48.890625 
Q 56.203125 41.796875 56.203125 29.59375 
M 47.21875 32.234375 
Q 47.125 39.59375 43.09375 43.984375 
Q 39.0625 48.390625 32.421875 48.390625 
Q 24.90625 48.390625 20.390625 44.140625 
Q 15.875 39.890625 15.1875 32.171875 
z
" id="BitstreamVeraSans-Roman-65"/>
      <path d="M 45.40625 46.390625 
L 45.40625 75.984375 
L 54.390625 75.984375 
L 54.390625 0 
L 45.40625 0 
L 45.40625 8.203125 
Q 42.578125 3.328125 38.25 0.953125 
Q 33.9375 -1.421875 27.875 -1.421875 
Q 17.96875 -1.421875 11.734375 6.484375 
Q 5.515625 14.40625 5.515625 27.296875 
Q 5.515625 40.1875 11.734375 48.09375 
Q 17.96875 56 27.875 56 
Q 33.9375 56 38.25 53.625 
Q 42.578125 51.265625 45.40625 46.390625 
M 14.796875 27.296875 
Q 14.796875 17.390625 18.875 11.75 
Q 22.953125 6.109375 30.078125 6.109375 
Q 37.203125 6.109375 41.296875 11.75 
Q 45.40625 17.390625 45.40625 27.296875 
Q 45.40625 37.203125 41.296875 42.84375 
Q 37.203125 48.484375 30.078125 48.484375 
Q 22.953125 48.484375 18.875 42.84375 
Q 14.796875 37.203125 14.796875 27.296875 
" id="BitstreamVeraSans-Roman-64"/>
      <path d="M 3.328125 72.90625 
L 13.28125 72.90625 
L 28.609375 11.28125 
L 43.890625 72.90625 
L 54.984375 72.90625 
L 70.3125 11.28125 
L 85.59375 72.90625 
L 95.609375 72.90625 
L 77.296875 0 
L 64.890625 0 
L 49.515625 63.28125 
L 33.984375 0 
L 21.578125 0 
z
" id="BitstreamVeraSans-Roman-57"/>
      <path d="M 18.3125 70.21875 
L 18.3125 54.6875 
L 36.8125 54.6875 
L 36.8125 47.703125 
L 18.3125 47.703125 
L 18.3125 18.015625 
Q 18.3125 11.328125 20.140625 9.421875 
Q 21.96875 7.515625 27.59375 7.515625 
L 36.8125 7.515625 
L 36.8125 0 
L 27.59375 0 
Q 17.1875 0 13.234375 3.875 
Q 9.28125 7.765625 9.28125 18.015625 
L 9.28125 47.703125 
L 2.6875 47.703125 
L 2.6875 54.6875 
L 9.28125 54.6875 
L 9.28125 70.21875 
z
" id="BitstreamVeraSans-Roman-74"/>
      <path d="M 18.109375 8.203125 
L 18.109375 -20.796875 
L 9.078125 -20.796875 
L 9.078125 54.6875 
L 18.109375 54.6875 
L 18.109375 46.390625 
Q 20.953125 51.265625 25.265625 53.625 
Q 29.59375 56 35.59375 56 
Q 45.5625 56 51.78125 48.09375 
Q 58.015625 40.1875 58.015625 27.296875 
Q 58.015625 14.40625 51.78125 6.484375 
Q 45.5625 -1.421875 35.59375 -1.421875 
Q 29.59375 -1.421875 25.265625 0.953125 
Q 20.953125 3.328125 18.109375 8.203125 
M 48.6875 27.296875 
Q 48.6875 37.203125 44.609375 42.84375 
Q 40.53125 48.484375 33.40625 48.484375 
Q 26.265625 48.484375 22.1875 42.84375 
Q 18.109375 37.203125 18.109375 27.296875 
Q 18.109375 17.390625 22.1875 11.75 
Q 26.265625 6.109375 33.40625 6.109375 
Q 40.53125 6.109375 44.609375 11.75 
Q 48.6875 17.390625 48.6875 27.296875 
" id="BitstreamVeraSans-Roman-70"/>
     </defs>
     <g transform="translate(431.75625 79.96375)scale(0.08 -0.08)">
      <use xlink:href="#BitstreamVeraSans-Roman-4d"/>
      <use x="86.279296875" xlink:href="#BitstreamVeraSans-Roman-4d"/>
      <use x="172.55859375" xlink:href="#BitstreamVeraSans-Roman-20"/>
      <use x="204.345703125" xlink:href="#BitstreamVeraSans-Roman-57"/>
      <use x="303.19140625" xlink:href="#BitstreamVeraSans-Roman-69"/>
      <use x="330.974609375" xlink:href="#BitstreamVeraSans-Roman-74"/>
      <use x="370.18359375" xlink:href="#BitstreamVeraSans-Roman-68"/>
      <use x="433.5625" xlink:href="#BitstreamVeraSans-Roman-20"/>
      <use x="465.349609375" xlink:href="#BitstreamVeraSans-Roman-70"/>
      <use x="528.826171875" xlink:href="#BitstreamVeraSans-Roman-68"/>
      <use x="592.205078125" xlink:href="#BitstreamVeraSans-Roman-69"/>
      <use x="619.98828125" xlink:href="#BitstreamVeraSans-Roman-20"/>
      <use x="651.775390625" xlink:href="#BitstreamVeraSans-Roman-7a"/>
      <use x="704.265625" xlink:href="#BitstreamVeraSans-Roman-65"/>
      <use x="765.7890625" xlink:href="#BitstreamVeraSans-Roman-72"/>
      <use x="806.87109375" xlink:href="#BitstreamVeraSans-Roman-6f"/>
      <use x="868.052734375" xlink:href="#BitstreamVeraSans-Roman-65"/>
      <use x="929.576171875" xlink:href="#BitstreamVeraSans-Roman-64"/>
     </g>
    </g>
    <g id="line2d_50">
     <path d="M 411.75625 88.90625 
L 422.95625 88.90625 
" style="fill:none;stroke:#ff00ff;stroke-linecap:square;"/>
    </g>
    <g id="line2d_51">
     <g>
      <use style="fill:#ff00ff;stroke:#ff00ff;stroke-width:0.5;" x="411.75625" xlink:href="#m6e19633ad4" y="88.90625"/>
      <use style="fill:#ff00ff;stroke:#ff00ff;stroke-width:0.5;" x="422.95625" xlink:href="#m6e19633ad4" y="88.90625"/>
     </g>
    </g>
    <g id="text_26">
     <!-- QM-MM target -->
     <g transform="translate(431.75625 91.70625)scale(0.08 -0.08)">
      <use xlink:href="#BitstreamVeraSans-Roman-51"/>
      <use x="78.7109375" xlink:href="#BitstreamVeraSans-Roman-4d"/>
      <use x="164.990234375" xlink:href="#BitstreamVeraSans-Roman-2d"/>
      <use x="201.07421875" xlink:href="#BitstreamVeraSans-Roman-4d"/>
      <use x="287.353515625" xlink:href="#BitstreamVeraSans-Roman-4d"/>
      <use x="373.6328125" xlink:href="#BitstreamVeraSans-Roman-20"/>
      <use x="405.419921875" xlink:href="#BitstreamVeraSans-Roman-74"/>
      <use x="444.62890625" xlink:href="#BitstreamVeraSans-Roman-61"/>
      <use x="505.908203125" xlink:href="#BitstreamVeraSans-Roman-72"/>
      <use x="547.005859375" xlink:href="#BitstreamVeraSans-Roman-67"/>
      <use x="610.482421875" xlink:href="#BitstreamVeraSans-Roman-65"/>
      <use x="672.005859375" xlink:href="#BitstreamVeraSans-Roman-74"/>
     </g>
    </g>
    <g id="line2d_52">
     <path d="M 411.75625 100.64875 
L 422.95625 100.64875 
" style="fill:none;stroke:#008000;stroke-linecap:square;"/>
    </g>
    <g id="line2d_53">
     <g>
      <use style="fill:#008000;stroke:#000000;stroke-width:0.5;" x="411.75625" xlink:href="#mb6a2955bc9" y="100.64875"/>
      <use style="fill:#008000;stroke:#000000;stroke-width:0.5;" x="422.95625" xlink:href="#mb6a2955bc9" y="100.64875"/>
     </g>
    </g>
    <g id="text_27">
     <!-- MM Fitted -->
     <defs>
      <path d="M 9.8125 72.90625 
L 51.703125 72.90625 
L 51.703125 64.59375 
L 19.671875 64.59375 
L 19.671875 43.109375 
L 48.578125 43.109375 
L 48.578125 34.8125 
L 19.671875 34.8125 
L 19.671875 0 
L 9.8125 0 
z
" id="BitstreamVeraSans-Roman-46"/>
     </defs>
     <g transform="translate(431.75625 103.44875)scale(0.08 -0.08)">
      <use xlink:href="#BitstreamVeraSans-Roman-4d"/>
      <use x="86.279296875" xlink:href="#BitstreamVeraSans-Roman-4d"/>
      <use x="172.55859375" xlink:href="#BitstreamVeraSans-Roman-20"/>
      <use x="204.345703125" xlink:href="#BitstreamVeraSans-Roman-46"/>
      <use x="261.755859375" xlink:href="#BitstreamVeraSans-Roman-69"/>
      <use x="289.5390625" xlink:href="#BitstreamVeraSans-Roman-74"/>
      <use x="328.748046875" xlink:href="#BitstreamVeraSans-Roman-74"/>
      <use x="367.95703125" xlink:href="#BitstreamVeraSans-Roman-65"/>
      <use x="429.48046875" xlink:href="#BitstreamVeraSans-Roman-64"/>
     </g>
    </g>
   </g>
  </g>
 </g>
 <defs>
  <clipPath id="p62226eefea">
   <rect height="345.6" width="446.4" x="72.0" y="43.2"/>
  </clipPath>
 </defs>
</svg>
