<?xml version="1.0" encoding="utf-8" standalone="no"?>
<!DOCTYPE svg PUBLIC "-//W3C//DTD SVG 1.1//EN"
  "http://www.w3.org/Graphics/SVG/1.1/DTD/svg11.dtd">
<!-- Created with matplotlib (http://matplotlib.org/) -->
<svg height="432pt" version="1.1" viewBox="0 0 576 432" width="576pt" xmlns="http://www.w3.org/2000/svg" xmlns:xlink="http://www.w3.org/1999/xlink">
 <defs>
  <style type="text/css">
*{stroke-linecap:butt;stroke-linejoin:round;stroke-miterlimit:100000;}
  </style>
 </defs>
 <g id="figure_1">
  <g id="patch_1">
   <path d="M 0 432 
L 576 432 
L 576 0 
L 0 0 
z
" style="fill:#ffffff;"/>
  </g>
  <g id="axes_1">
   <g id="patch_2">
    <path d="M 72 388.8 
L 518.4 388.8 
L 518.4 43.2 
L 72 43.2 
z
" style="fill:#ffffff;"/>
   </g>
   <g id="line2d_1">
    <path clip-path="url(#p8251b4ddf2)" d="M 72.000844 373.914635 
L 84.400031 356.171066 
L 96.800022 313.885804 
L 109.20003 252.25813 
L 121.600005 181.328267 
L 134.000049 117.109099 
L 146.400057 79.038988 
L 158.800075 79.924925 
L 171.200043 116.313556 
L 183.599992 172.997016 
L 196.000029 232.255749 
L 208.400016 279.623962 
L 220.799969 306.276272 
L 233.199959 311.474712 
L 245.599985 305.701854 
L 258.000007 289.733047 
L 270.399999 261.258943 
L 282.799941 231.948626 
L 295.200931 216.383735 
L 307.59998 224.262249 
L 319.999977 255.076681 
L 332.399941 299.172097 
L 344.799975 343.298626 
L 357.199955 375.701584 
L 369.599995 388.8 
L 381.999988 380.01241 
L 394.399963 351.563517 
L 406.799979 309.516639 
L 419.199971 263.773672 
L 431.599985 226.899385 
L 444.00001 210.704865 
L 456.400016 221.182039 
L 468.799989 254.947419 
L 481.2 299.663142 
L 493.600034 340.604843 
L 506.000068 367.391101 
" style="fill:none;stroke:#ff0000;stroke-linecap:square;"/>
    <defs>
     <path d="M 0 3 
C 0.795609 3 1.55874 2.683901 2.12132 2.12132 
C 2.683901 1.55874 3 0.795609 3 0 
C 3 -0.795609 2.683901 -1.55874 2.12132 -2.12132 
C 1.55874 -2.683901 0.795609 -3 0 -3 
C -0.795609 -3 -1.55874 -2.683901 -2.12132 -2.12132 
C -2.683901 -1.55874 -3 -0.795609 -3 0 
C -3 0.795609 -2.683901 1.55874 -2.12132 2.12132 
C -1.55874 2.683901 -0.795609 3 0 3 
z
" id="m606031ebc5" style="stroke:#000000;stroke-width:0.5;"/>
    </defs>
    <g clip-path="url(#p8251b4ddf2)">
     <use style="fill:#ff0000;stroke:#000000;stroke-width:0.5;" x="72.0008444118" xlink:href="#m606031ebc5" y="373.914635252"/>
     <use style="fill:#ff0000;stroke:#000000;stroke-width:0.5;" x="84.4000313775" xlink:href="#m606031ebc5" y="356.171065828"/>
     <use style="fill:#ff0000;stroke:#000000;stroke-width:0.5;" x="96.8000223275" xlink:href="#m606031ebc5" y="313.885803812"/>
     <use style="fill:#ff0000;stroke:#000000;stroke-width:0.5;" x="109.200030147" xlink:href="#m606031ebc5" y="252.25813015"/>
     <use style="fill:#ff0000;stroke:#000000;stroke-width:0.5;" x="121.600005138" xlink:href="#m606031ebc5" y="181.328267066"/>
     <use style="fill:#ff0000;stroke:#000000;stroke-width:0.5;" x="134.000048532" xlink:href="#m606031ebc5" y="117.109098595"/>
     <use style="fill:#ff0000;stroke:#000000;stroke-width:0.5;" x="146.400056837" xlink:href="#m606031ebc5" y="79.0389875829"/>
     <use style="fill:#ff0000;stroke:#000000;stroke-width:0.5;" x="158.800075158" xlink:href="#m606031ebc5" y="79.9249249974"/>
     <use style="fill:#ff0000;stroke:#000000;stroke-width:0.5;" x="171.200042937" xlink:href="#m606031ebc5" y="116.313556169"/>
     <use style="fill:#ff0000;stroke:#000000;stroke-width:0.5;" x="183.599991586" xlink:href="#m606031ebc5" y="172.997015719"/>
     <use style="fill:#ff0000;stroke:#000000;stroke-width:0.5;" x="196.000028649" xlink:href="#m606031ebc5" y="232.255749099"/>
     <use style="fill:#ff0000;stroke:#000000;stroke-width:0.5;" x="208.400016082" xlink:href="#m606031ebc5" y="279.623961732"/>
     <use style="fill:#ff0000;stroke:#000000;stroke-width:0.5;" x="220.79996875" xlink:href="#m606031ebc5" y="306.276271626"/>
     <use style="fill:#ff0000;stroke:#000000;stroke-width:0.5;" x="233.199958642" xlink:href="#m606031ebc5" y="311.474711829"/>
     <use style="fill:#ff0000;stroke:#000000;stroke-width:0.5;" x="245.599985404" xlink:href="#m606031ebc5" y="305.701853837"/>
     <use style="fill:#ff0000;stroke:#000000;stroke-width:0.5;" x="258.000006609" xlink:href="#m606031ebc5" y="289.733047235"/>
     <use style="fill:#ff0000;stroke:#000000;stroke-width:0.5;" x="270.399998708" xlink:href="#m606031ebc5" y="261.258943471"/>
     <use style="fill:#ff0000;stroke:#000000;stroke-width:0.5;" x="282.799941457" xlink:href="#m606031ebc5" y="231.948625747"/>
     <use style="fill:#ff0000;stroke:#000000;stroke-width:0.5;" x="295.200931009" xlink:href="#m606031ebc5" y="216.383735305"/>
     <use style="fill:#ff0000;stroke:#000000;stroke-width:0.5;" x="307.599980227" xlink:href="#m606031ebc5" y="224.262248503"/>
     <use style="fill:#ff0000;stroke:#000000;stroke-width:0.5;" x="319.999976935" xlink:href="#m606031ebc5" y="255.076680722"/>
     <use style="fill:#ff0000;stroke:#000000;stroke-width:0.5;" x="332.399940937" xlink:href="#m606031ebc5" y="299.172097274"/>
     <use style="fill:#ff0000;stroke:#000000;stroke-width:0.5;" x="344.799975173" xlink:href="#m606031ebc5" y="343.298625601"/>
     <use style="fill:#ff0000;stroke:#000000;stroke-width:0.5;" x="357.199954775" xlink:href="#m606031ebc5" y="375.701583624"/>
     <use style="fill:#ff0000;stroke:#000000;stroke-width:0.5;" x="369.599994557" xlink:href="#m606031ebc5" y="388.8"/>
     <use style="fill:#ff0000;stroke:#000000;stroke-width:0.5;" x="381.99998818" xlink:href="#m606031ebc5" y="380.01240955"/>
     <use style="fill:#ff0000;stroke:#000000;stroke-width:0.5;" x="394.399963378" xlink:href="#m606031ebc5" y="351.563516529"/>
     <use style="fill:#ff0000;stroke:#000000;stroke-width:0.5;" x="406.799979333" xlink:href="#m606031ebc5" y="309.516639433"/>
     <use style="fill:#ff0000;stroke:#000000;stroke-width:0.5;" x="419.199970886" xlink:href="#m606031ebc5" y="263.773672436"/>
     <use style="fill:#ff0000;stroke:#000000;stroke-width:0.5;" x="431.599985337" xlink:href="#m606031ebc5" y="226.899384712"/>
     <use style="fill:#ff0000;stroke:#000000;stroke-width:0.5;" x="444.000009794" xlink:href="#m606031ebc5" y="210.70486502"/>
     <use style="fill:#ff0000;stroke:#000000;stroke-width:0.5;" x="456.400015662" xlink:href="#m606031ebc5" y="221.182038673"/>
     <use style="fill:#ff0000;stroke:#000000;stroke-width:0.5;" x="468.799988658" xlink:href="#m606031ebc5" y="254.947419008"/>
     <use style="fill:#ff0000;stroke:#000000;stroke-width:0.5;" x="481.200000354" xlink:href="#m606031ebc5" y="299.663141677"/>
     <use style="fill:#ff0000;stroke:#000000;stroke-width:0.5;" x="493.600033824" xlink:href="#m606031ebc5" y="340.604842897"/>
     <use style="fill:#ff0000;stroke:#000000;stroke-width:0.5;" x="506.00006794" xlink:href="#m606031ebc5" y="367.391101178"/>
    </g>
   </g>
   <g id="line2d_2">
    <path clip-path="url(#p8251b4ddf2)" d="M 72.000844 388.8 
L 84.400031 374.384448 
L 96.800022 333.591332 
L 109.20003 268.259054 
L 121.600005 194.899827 
L 134.000049 131.200657 
L 146.400057 94.054015 
L 158.800075 95.910673 
L 171.200043 136.687989 
L 183.599992 204.124443 
L 196.000029 277.560536 
L 208.400016 337.088484 
L 220.799969 369.887866 
L 233.199959 369.867477 
L 245.599985 336.644172 
L 258.000007 289.929254 
L 270.399999 239.540002 
L 282.799941 198.156154 
L 295.200931 177.892107 
L 307.59998 179.185476 
L 319.999977 199.567281 
L 332.399941 235.995198 
L 344.799975 279.010533 
L 357.199955 315.030456 
L 369.599995 332.316424 
L 381.999988 325.720992 
L 394.399963 295.684766 
L 406.799979 253.250114 
L 419.199971 212.065182 
L 431.599985 185.525217 
L 444.00001 179.536618 
L 456.400016 193.755622 
L 468.799989 228.67331 
L 481.2 279.977905 
L 493.600034 334.046045 
L 506.000068 374.283897 
" style="fill:none;stroke:#0000ff;stroke-linecap:square;"/>
    <defs>
     <path d="M 0 3 
C 0.795609 3 1.55874 2.683901 2.12132 2.12132 
C 2.683901 1.55874 3 0.795609 3 0 
C 3 -0.795609 2.683901 -1.55874 2.12132 -2.12132 
C 1.55874 -2.683901 0.795609 -3 0 -3 
C -0.795609 -3 -1.55874 -2.683901 -2.12132 -2.12132 
C -2.683901 -1.55874 -3 -0.795609 -3 0 
C -3 0.795609 -2.683901 1.55874 -2.12132 2.12132 
C -1.55874 2.683901 -0.795609 3 0 3 
z
" id="md779446adc" style="stroke:#000000;stroke-width:0.5;"/>
    </defs>
    <g clip-path="url(#p8251b4ddf2)">
     <use style="fill:#0000ff;stroke:#000000;stroke-width:0.5;" x="72.0008444118" xlink:href="#md779446adc" y="388.8"/>
     <use style="fill:#0000ff;stroke:#000000;stroke-width:0.5;" x="84.4000313775" xlink:href="#md779446adc" y="374.384448281"/>
     <use style="fill:#0000ff;stroke:#000000;stroke-width:0.5;" x="96.8000223275" xlink:href="#md779446adc" y="333.591332291"/>
     <use style="fill:#0000ff;stroke:#000000;stroke-width:0.5;" x="109.200030147" xlink:href="#md779446adc" y="268.259053994"/>
     <use style="fill:#0000ff;stroke:#000000;stroke-width:0.5;" x="121.600005138" xlink:href="#md779446adc" y="194.899826871"/>
     <use style="fill:#0000ff;stroke:#000000;stroke-width:0.5;" x="134.000048532" xlink:href="#md779446adc" y="131.200656541"/>
     <use style="fill:#0000ff;stroke:#000000;stroke-width:0.5;" x="146.400056837" xlink:href="#md779446adc" y="94.054015397"/>
     <use style="fill:#0000ff;stroke:#000000;stroke-width:0.5;" x="158.800075158" xlink:href="#md779446adc" y="95.9106725546"/>
     <use style="fill:#0000ff;stroke:#000000;stroke-width:0.5;" x="171.200042937" xlink:href="#md779446adc" y="136.687989264"/>
     <use style="fill:#0000ff;stroke:#000000;stroke-width:0.5;" x="183.599991586" xlink:href="#md779446adc" y="204.124443161"/>
     <use style="fill:#0000ff;stroke:#000000;stroke-width:0.5;" x="196.000028649" xlink:href="#md779446adc" y="277.560536202"/>
     <use style="fill:#0000ff;stroke:#000000;stroke-width:0.5;" x="208.400016082" xlink:href="#md779446adc" y="337.08848444"/>
     <use style="fill:#0000ff;stroke:#000000;stroke-width:0.5;" x="220.79996875" xlink:href="#md779446adc" y="369.887865506"/>
     <use style="fill:#0000ff;stroke:#000000;stroke-width:0.5;" x="233.199958642" xlink:href="#md779446adc" y="369.867477189"/>
     <use style="fill:#0000ff;stroke:#000000;stroke-width:0.5;" x="245.599985404" xlink:href="#md779446adc" y="336.644172343"/>
     <use style="fill:#0000ff;stroke:#000000;stroke-width:0.5;" x="258.000006609" xlink:href="#md779446adc" y="289.929254395"/>
     <use style="fill:#0000ff;stroke:#000000;stroke-width:0.5;" x="270.399998708" xlink:href="#md779446adc" y="239.540002005"/>
     <use style="fill:#0000ff;stroke:#000000;stroke-width:0.5;" x="282.799941457" xlink:href="#md779446adc" y="198.156154129"/>
     <use style="fill:#0000ff;stroke:#000000;stroke-width:0.5;" x="295.200931009" xlink:href="#md779446adc" y="177.892106999"/>
     <use style="fill:#0000ff;stroke:#000000;stroke-width:0.5;" x="307.599980227" xlink:href="#md779446adc" y="179.185475804"/>
     <use style="fill:#0000ff;stroke:#000000;stroke-width:0.5;" x="319.999976935" xlink:href="#md779446adc" y="199.56728109"/>
     <use style="fill:#0000ff;stroke:#000000;stroke-width:0.5;" x="332.399940937" xlink:href="#md779446adc" y="235.995197912"/>
     <use style="fill:#0000ff;stroke:#000000;stroke-width:0.5;" x="344.799975173" xlink:href="#md779446adc" y="279.010532621"/>
     <use style="fill:#0000ff;stroke:#000000;stroke-width:0.5;" x="357.199954775" xlink:href="#md779446adc" y="315.030455701"/>
     <use style="fill:#0000ff;stroke:#000000;stroke-width:0.5;" x="369.599994557" xlink:href="#md779446adc" y="332.316424387"/>
     <use style="fill:#0000ff;stroke:#000000;stroke-width:0.5;" x="381.99998818" xlink:href="#md779446adc" y="325.720991703"/>
     <use style="fill:#0000ff;stroke:#000000;stroke-width:0.5;" x="394.399963378" xlink:href="#md779446adc" y="295.684765779"/>
     <use style="fill:#0000ff;stroke:#000000;stroke-width:0.5;" x="406.799979333" xlink:href="#md779446adc" y="253.250113518"/>
     <use style="fill:#0000ff;stroke:#000000;stroke-width:0.5;" x="419.199970886" xlink:href="#md779446adc" y="212.065182385"/>
     <use style="fill:#0000ff;stroke:#000000;stroke-width:0.5;" x="431.599985337" xlink:href="#md779446adc" y="185.525217454"/>
     <use style="fill:#0000ff;stroke:#000000;stroke-width:0.5;" x="444.000009794" xlink:href="#md779446adc" y="179.536618464"/>
     <use style="fill:#0000ff;stroke:#000000;stroke-width:0.5;" x="456.400015662" xlink:href="#md779446adc" y="193.75562178"/>
     <use style="fill:#0000ff;stroke:#000000;stroke-width:0.5;" x="468.799988658" xlink:href="#md779446adc" y="228.673310273"/>
     <use style="fill:#0000ff;stroke:#000000;stroke-width:0.5;" x="481.200000354" xlink:href="#md779446adc" y="279.977904618"/>
     <use style="fill:#0000ff;stroke:#000000;stroke-width:0.5;" x="493.600033824" xlink:href="#md779446adc" y="334.046045452"/>
     <use style="fill:#0000ff;stroke:#000000;stroke-width:0.5;" x="506.00006794" xlink:href="#md779446adc" y="374.283896547"/>
    </g>
   </g>
   <g id="line2d_3">
    <path clip-path="url(#p8251b4ddf2)" d="M 72.000844 388.8 
L 84.400031 376.510454 
L 96.800022 348.561678 
L 109.20003 304.098549 
L 121.600005 256.030601 
L 134.000049 215.863702 
L 146.400057 192.601756 
L 158.800075 192.355955 
L 171.200043 215.558211 
L 183.599992 257.216558 
L 196.000029 305.119677 
L 208.400016 345.646332 
L 220.799969 369.649899 
L 233.199959 372.496424 
L 245.599985 353.77897 
L 258.000007 329.636214 
L 270.399999 304.738137 
L 282.799941 285.610752 
L 295.200931 277.236733 
L 307.59998 274.896993 
L 319.999977 277.223975 
L 332.399941 287.964744 
L 344.799975 305.714203 
L 357.199955 323.00727 
L 369.599995 331.846996 
L 381.999988 328.538624 
L 394.399963 312.748434 
L 406.799979 292.819703 
L 419.199971 277.587293 
L 431.599985 273.60459 
L 444.00001 279.149233 
L 456.400016 289.105016 
L 468.799989 305.695291 
L 481.2 331.856369 
L 493.600034 361.463478 
L 506.000068 383.232194 
" style="fill:none;stroke:#000000;stroke-linecap:square;"/>
    <defs>
     <path d="M -3 3 
L 3 -3 
M -3 -3 
L 3 3 
" id="mcf46633995" style="stroke:#000000;stroke-width:0.5;"/>
    </defs>
    <g clip-path="url(#p8251b4ddf2)">
     <use style="stroke:#000000;stroke-width:0.5;" x="72.0008444118" xlink:href="#mcf46633995" y="388.8"/>
     <use style="stroke:#000000;stroke-width:0.5;" x="84.4000313775" xlink:href="#mcf46633995" y="376.510454336"/>
     <use style="stroke:#000000;stroke-width:0.5;" x="96.8000223275" xlink:href="#mcf46633995" y="348.561678454"/>
     <use style="stroke:#000000;stroke-width:0.5;" x="109.200030147" xlink:href="#mcf46633995" y="304.09854918"/>
     <use style="stroke:#000000;stroke-width:0.5;" x="121.600005138" xlink:href="#mcf46633995" y="256.030601492"/>
     <use style="stroke:#000000;stroke-width:0.5;" x="134.000048532" xlink:href="#mcf46633995" y="215.863701505"/>
     <use style="stroke:#000000;stroke-width:0.5;" x="146.400056837" xlink:href="#mcf46633995" y="192.601756333"/>
     <use style="stroke:#000000;stroke-width:0.5;" x="158.800075158" xlink:href="#mcf46633995" y="192.355955129"/>
     <use style="stroke:#000000;stroke-width:0.5;" x="171.200042937" xlink:href="#mcf46633995" y="215.558211051"/>
     <use style="stroke:#000000;stroke-width:0.5;" x="183.599991586" xlink:href="#mcf46633995" y="257.216557653"/>
     <use style="stroke:#000000;stroke-width:0.5;" x="196.000028649" xlink:href="#mcf46633995" y="305.119677256"/>
     <use style="stroke:#000000;stroke-width:0.5;" x="208.400016082" xlink:href="#mcf46633995" y="345.646332369"/>
     <use style="stroke:#000000;stroke-width:0.5;" x="220.79996875" xlink:href="#mcf46633995" y="369.649899095"/>
     <use style="stroke:#000000;stroke-width:0.5;" x="233.199958642" xlink:href="#mcf46633995" y="372.496424166"/>
     <use style="stroke:#000000;stroke-width:0.5;" x="245.599985404" xlink:href="#mcf46633995" y="353.778970057"/>
     <use style="stroke:#000000;stroke-width:0.5;" x="258.000006609" xlink:href="#mcf46633995" y="329.636214409"/>
     <use style="stroke:#000000;stroke-width:0.5;" x="270.399998708" xlink:href="#mcf46633995" y="304.738137124"/>
     <use style="stroke:#000000;stroke-width:0.5;" x="282.799941457" xlink:href="#mcf46633995" y="285.610752206"/>
     <use style="stroke:#000000;stroke-width:0.5;" x="295.200931009" xlink:href="#mcf46633995" y="277.236732764"/>
     <use style="stroke:#000000;stroke-width:0.5;" x="307.599980227" xlink:href="#mcf46633995" y="274.89699304"/>
     <use style="stroke:#000000;stroke-width:0.5;" x="319.999976935" xlink:href="#mcf46633995" y="277.223975313"/>
     <use style="stroke:#000000;stroke-width:0.5;" x="332.399940937" xlink:href="#mcf46633995" y="287.964743918"/>
     <use style="stroke:#000000;stroke-width:0.5;" x="344.799975173" xlink:href="#mcf46633995" y="305.714202774"/>
     <use style="stroke:#000000;stroke-width:0.5;" x="357.199954775" xlink:href="#mcf46633995" y="323.007269855"/>
     <use style="stroke:#000000;stroke-width:0.5;" x="369.599994557" xlink:href="#mcf46633995" y="331.84699649"/>
     <use style="stroke:#000000;stroke-width:0.5;" x="381.99998818" xlink:href="#mcf46633995" y="328.538623728"/>
     <use style="stroke:#000000;stroke-width:0.5;" x="394.399963378" xlink:href="#mcf46633995" y="312.748434226"/>
     <use style="stroke:#000000;stroke-width:0.5;" x="406.799979333" xlink:href="#mcf46633995" y="292.819702768"/>
     <use style="stroke:#000000;stroke-width:0.5;" x="419.199970886" xlink:href="#mcf46633995" y="277.587292846"/>
     <use style="stroke:#000000;stroke-width:0.5;" x="431.599985337" xlink:href="#mcf46633995" y="273.604590187"/>
     <use style="stroke:#000000;stroke-width:0.5;" x="444.000009794" xlink:href="#mcf46633995" y="279.149233049"/>
     <use style="stroke:#000000;stroke-width:0.5;" x="456.400015662" xlink:href="#mcf46633995" y="289.10501584"/>
     <use style="stroke:#000000;stroke-width:0.5;" x="468.799988658" xlink:href="#mcf46633995" y="305.695290851"/>
     <use style="stroke:#000000;stroke-width:0.5;" x="481.200000354" xlink:href="#mcf46633995" y="331.856369035"/>
     <use style="stroke:#000000;stroke-width:0.5;" x="493.600033824" xlink:href="#mcf46633995" y="361.463478251"/>
     <use style="stroke:#000000;stroke-width:0.5;" x="506.00006794" xlink:href="#mcf46633995" y="383.232194297"/>
    </g>
   </g>
   <g id="line2d_4">
    <path clip-path="url(#p8251b4ddf2)" d="M 72.000844 316.961632 
L 84.400031 311.507608 
L 96.800022 297.171122 
L 109.20003 280.006577 
L 121.600005 257.144662 
L 134.000049 233.092394 
L 146.400057 218.284228 
L 158.800075 219.415966 
L 171.200043 232.602342 
L 183.599992 247.627455 
L 196.000029 258.983068 
L 208.400016 265.824626 
L 220.799969 268.473369 
L 233.199959 270.825284 
L 245.599985 283.76988 
L 258.000007 291.943829 
L 270.399999 288.367803 
L 282.799941 278.18487 
L 295.200931 270.993999 
L 307.59998 281.212252 
L 319.999977 309.699702 
L 332.399941 343.05435 
L 344.799975 369.431419 
L 357.199955 384.54131 
L 369.599995 388.8 
L 381.999988 383.320782 
L 394.399963 370.662079 
L 406.799979 348.543933 
L 419.199971 318.033376 
L 431.599985 285.141791 
L 444.00001 263.402628 
L 456.400016 263.924019 
L 468.799989 281.099125 
L 481.2 299.653769 
L 493.600034 310.988361 
L 506.000068 316.005903 
" style="fill:none;stroke:#ff00ff;stroke-linecap:square;"/>
    <defs>
     <path d="M -3 3 
L 3 -3 
M -3 -3 
L 3 3 
" id="m8b8cd3f183" style="stroke:#ff00ff;stroke-width:0.5;"/>
    </defs>
    <g clip-path="url(#p8251b4ddf2)">
     <use style="fill:#ff00ff;stroke:#ff00ff;stroke-width:0.5;" x="72.0008444118" xlink:href="#m8b8cd3f183" y="316.961631741"/>
     <use style="fill:#ff00ff;stroke:#ff00ff;stroke-width:0.5;" x="84.4000313775" xlink:href="#m8b8cd3f183" y="311.507607982"/>
     <use style="fill:#ff00ff;stroke:#ff00ff;stroke-width:0.5;" x="96.8000223275" xlink:href="#m8b8cd3f183" y="297.171121848"/>
     <use style="fill:#ff00ff;stroke:#ff00ff;stroke-width:0.5;" x="109.200030147" xlink:href="#m8b8cd3f183" y="280.006577459"/>
     <use style="fill:#ff00ff;stroke:#ff00ff;stroke-width:0.5;" x="121.600005138" xlink:href="#m8b8cd3f183" y="257.144662064"/>
     <use style="fill:#ff00ff;stroke:#ff00ff;stroke-width:0.5;" x="134.000048532" xlink:href="#m8b8cd3f183" y="233.092393579"/>
     <use style="fill:#ff00ff;stroke:#ff00ff;stroke-width:0.5;" x="146.400056837" xlink:href="#m8b8cd3f183" y="218.284227739"/>
     <use style="fill:#ff00ff;stroke:#ff00ff;stroke-width:0.5;" x="158.800075158" xlink:href="#m8b8cd3f183" y="219.415966358"/>
     <use style="fill:#ff00ff;stroke:#ff00ff;stroke-width:0.5;" x="171.200042937" xlink:href="#m8b8cd3f183" y="232.602341608"/>
     <use style="fill:#ff00ff;stroke:#ff00ff;stroke-width:0.5;" x="183.599991586" xlink:href="#m8b8cd3f183" y="247.627454555"/>
     <use style="fill:#ff00ff;stroke:#ff00ff;stroke-width:0.5;" x="196.000028649" xlink:href="#m8b8cd3f183" y="258.983068333"/>
     <use style="fill:#ff00ff;stroke:#ff00ff;stroke-width:0.5;" x="208.400016082" xlink:href="#m8b8cd3f183" y="265.824625852"/>
     <use style="fill:#ff00ff;stroke:#ff00ff;stroke-width:0.5;" x="220.79996875" xlink:href="#m8b8cd3f183" y="268.47336902"/>
     <use style="fill:#ff00ff;stroke:#ff00ff;stroke-width:0.5;" x="233.199958642" xlink:href="#m8b8cd3f183" y="270.825284152"/>
     <use style="fill:#ff00ff;stroke:#ff00ff;stroke-width:0.5;" x="245.599985404" xlink:href="#m8b8cd3f183" y="283.769880269"/>
     <use style="fill:#ff00ff;stroke:#ff00ff;stroke-width:0.5;" x="258.000006609" xlink:href="#m8b8cd3f183" y="291.943829316"/>
     <use style="fill:#ff00ff;stroke:#ff00ff;stroke-width:0.5;" x="270.399998708" xlink:href="#m8b8cd3f183" y="288.367802836"/>
     <use style="fill:#ff00ff;stroke:#ff00ff;stroke-width:0.5;" x="282.799941457" xlink:href="#m8b8cd3f183" y="278.18487003"/>
     <use style="fill:#ff00ff;stroke:#ff00ff;stroke-width:0.5;" x="295.200931009" xlink:href="#m8b8cd3f183" y="270.993999031"/>
     <use style="fill:#ff00ff;stroke:#ff00ff;stroke-width:0.5;" x="307.599980227" xlink:href="#m8b8cd3f183" y="281.212251952"/>
     <use style="fill:#ff00ff;stroke:#ff00ff;stroke-width:0.5;" x="319.999976935" xlink:href="#m8b8cd3f183" y="309.699701898"/>
     <use style="fill:#ff00ff;stroke:#ff00ff;stroke-width:0.5;" x="332.399940937" xlink:href="#m8b8cd3f183" y="343.054349846"/>
     <use style="fill:#ff00ff;stroke:#ff00ff;stroke-width:0.5;" x="344.799975173" xlink:href="#m8b8cd3f183" y="369.431419316"/>
     <use style="fill:#ff00ff;stroke:#ff00ff;stroke-width:0.5;" x="357.199954775" xlink:href="#m8b8cd3f183" y="384.541310259"/>
     <use style="fill:#ff00ff;stroke:#ff00ff;stroke-width:0.5;" x="369.599994557" xlink:href="#m8b8cd3f183" y="388.8"/>
     <use style="fill:#ff00ff;stroke:#ff00ff;stroke-width:0.5;" x="381.99998818" xlink:href="#m8b8cd3f183" y="383.320782312"/>
     <use style="fill:#ff00ff;stroke:#ff00ff;stroke-width:0.5;" x="394.399963378" xlink:href="#m8b8cd3f183" y="370.662078792"/>
     <use style="fill:#ff00ff;stroke:#ff00ff;stroke-width:0.5;" x="406.799979333" xlink:href="#m8b8cd3f183" y="348.543933155"/>
     <use style="fill:#ff00ff;stroke:#ff00ff;stroke-width:0.5;" x="419.199970886" xlink:href="#m8b8cd3f183" y="318.033376079"/>
     <use style="fill:#ff00ff;stroke:#ff00ff;stroke-width:0.5;" x="431.599985337" xlink:href="#m8b8cd3f183" y="285.141791014"/>
     <use style="fill:#ff00ff;stroke:#ff00ff;stroke-width:0.5;" x="444.000009794" xlink:href="#m8b8cd3f183" y="263.402628461"/>
     <use style="fill:#ff00ff;stroke:#ff00ff;stroke-width:0.5;" x="456.400015662" xlink:href="#m8b8cd3f183" y="263.924019323"/>
     <use style="fill:#ff00ff;stroke:#ff00ff;stroke-width:0.5;" x="468.799988658" xlink:href="#m8b8cd3f183" y="281.099124647"/>
     <use style="fill:#ff00ff;stroke:#ff00ff;stroke-width:0.5;" x="481.200000354" xlink:href="#m8b8cd3f183" y="299.653769132"/>
     <use style="fill:#ff00ff;stroke:#ff00ff;stroke-width:0.5;" x="493.600033824" xlink:href="#m8b8cd3f183" y="310.988361136"/>
     <use style="fill:#ff00ff;stroke:#ff00ff;stroke-width:0.5;" x="506.00006794" xlink:href="#m8b8cd3f183" y="316.005903371"/>
    </g>
   </g>
   <g id="line2d_5">
    <path clip-path="url(#p8251b4ddf2)" d="M 72.000844 357.197574 
L 84.400031 336.639118 
L 96.800022 298.426017 
L 109.20003 240.604704 
L 121.600005 175.504648 
L 134.000049 117.099281 
L 146.400057 82.287478 
L 158.800075 86.130325 
L 171.200043 127.430214 
L 183.599992 189.885144 
L 196.000029 253.164182 
L 208.400016 303.223537 
L 220.799969 334.171075 
L 233.199959 343.489191 
L 245.599985 328.815721 
L 258.000007 301.842574 
L 270.399999 265.737717 
L 282.799941 231.426493 
L 295.200931 215.764816 
L 307.59998 225.57123 
L 319.999977 257.083531 
L 332.399941 300.130297 
L 344.799975 342.363473 
L 357.199955 373.948265 
L 369.599995 388.8 
L 381.999988 384.454668 
L 394.399963 359.385206 
L 406.799979 319.616781 
L 419.199971 274.708317 
L 431.599985 238.248369 
L 444.00001 221.037523 
L 456.400016 227.18646 
L 468.799989 255.422064 
L 481.2 296.360093 
L 493.600034 334.6738 
L 506.000068 356.960177 
" style="fill:none;stroke:#008000;stroke-linecap:square;"/>
    <defs>
     <path d="M 0 3 
C 0.795609 3 1.55874 2.683901 2.12132 2.12132 
C 2.683901 1.55874 3 0.795609 3 0 
C 3 -0.795609 2.683901 -1.55874 2.12132 -2.12132 
C 1.55874 -2.683901 0.795609 -3 0 -3 
C -0.795609 -3 -1.55874 -2.683901 -2.12132 -2.12132 
C -2.683901 -1.55874 -3 -0.795609 -3 0 
C -3 0.795609 -2.683901 1.55874 -2.12132 2.12132 
C -1.55874 2.683901 -0.795609 3 0 3 
z
" id="m094cb02db3" style="stroke:#000000;stroke-width:0.5;"/>
    </defs>
    <g clip-path="url(#p8251b4ddf2)">
     <use style="fill:#008000;stroke:#000000;stroke-width:0.5;" x="72.0008444118" xlink:href="#m094cb02db3" y="357.1975743"/>
     <use style="fill:#008000;stroke:#000000;stroke-width:0.5;" x="84.4000313775" xlink:href="#m094cb02db3" y="336.639118412"/>
     <use style="fill:#008000;stroke:#000000;stroke-width:0.5;" x="96.8000223275" xlink:href="#m094cb02db3" y="298.426017316"/>
     <use style="fill:#008000;stroke:#000000;stroke-width:0.5;" x="109.200030147" xlink:href="#m094cb02db3" y="240.60470398"/>
     <use style="fill:#008000;stroke:#000000;stroke-width:0.5;" x="121.600005138" xlink:href="#m094cb02db3" y="175.504648003"/>
     <use style="fill:#008000;stroke:#000000;stroke-width:0.5;" x="134.000048532" xlink:href="#m094cb02db3" y="117.099281079"/>
     <use style="fill:#008000;stroke:#000000;stroke-width:0.5;" x="146.400056837" xlink:href="#m094cb02db3" y="82.2874783006"/>
     <use style="fill:#008000;stroke:#000000;stroke-width:0.5;" x="158.800075158" xlink:href="#m094cb02db3" y="86.1303254437"/>
     <use style="fill:#008000;stroke:#000000;stroke-width:0.5;" x="171.200042937" xlink:href="#m094cb02db3" y="127.430214113"/>
     <use style="fill:#008000;stroke:#000000;stroke-width:0.5;" x="183.599991586" xlink:href="#m094cb02db3" y="189.885143542"/>
     <use style="fill:#008000;stroke:#000000;stroke-width:0.5;" x="196.000028649" xlink:href="#m094cb02db3" y="253.164181759"/>
     <use style="fill:#008000;stroke:#000000;stroke-width:0.5;" x="208.400016082" xlink:href="#m094cb02db3" y="303.223537454"/>
     <use style="fill:#008000;stroke:#000000;stroke-width:0.5;" x="220.79996875" xlink:href="#m094cb02db3" y="334.171075129"/>
     <use style="fill:#008000;stroke:#000000;stroke-width:0.5;" x="233.199958642" xlink:href="#m094cb02db3" y="343.489191397"/>
     <use style="fill:#008000;stroke:#000000;stroke-width:0.5;" x="245.599985404" xlink:href="#m094cb02db3" y="328.815720549"/>
     <use style="fill:#008000;stroke:#000000;stroke-width:0.5;" x="258.000006609" xlink:href="#m094cb02db3" y="301.842574265"/>
     <use style="fill:#008000;stroke:#000000;stroke-width:0.5;" x="270.399998708" xlink:href="#m094cb02db3" y="265.737716533"/>
     <use style="fill:#008000;stroke:#000000;stroke-width:0.5;" x="282.799941457" xlink:href="#m094cb02db3" y="231.426493314"/>
     <use style="fill:#008000;stroke:#000000;stroke-width:0.5;" x="295.200931009" xlink:href="#m094cb02db3" y="215.764815648"/>
     <use style="fill:#008000;stroke:#000000;stroke-width:0.5;" x="307.599980227" xlink:href="#m094cb02db3" y="225.571230407"/>
     <use style="fill:#008000;stroke:#000000;stroke-width:0.5;" x="319.999976935" xlink:href="#m094cb02db3" y="257.08353079"/>
     <use style="fill:#008000;stroke:#000000;stroke-width:0.5;" x="332.399940937" xlink:href="#m094cb02db3" y="300.130297128"/>
     <use style="fill:#008000;stroke:#000000;stroke-width:0.5;" x="344.799975173" xlink:href="#m094cb02db3" y="342.363472749"/>
     <use style="fill:#008000;stroke:#000000;stroke-width:0.5;" x="357.199954775" xlink:href="#m094cb02db3" y="373.948265429"/>
     <use style="fill:#008000;stroke:#000000;stroke-width:0.5;" x="369.599994557" xlink:href="#m094cb02db3" y="388.8"/>
     <use style="fill:#008000;stroke:#000000;stroke-width:0.5;" x="381.99998818" xlink:href="#m094cb02db3" y="384.45466768"/>
     <use style="fill:#008000;stroke:#000000;stroke-width:0.5;" x="394.399963378" xlink:href="#m094cb02db3" y="359.385205734"/>
     <use style="fill:#008000;stroke:#000000;stroke-width:0.5;" x="406.799979333" xlink:href="#m094cb02db3" y="319.616780683"/>
     <use style="fill:#008000;stroke:#000000;stroke-width:0.5;" x="419.199970886" xlink:href="#m094cb02db3" y="274.708317395"/>
     <use style="fill:#008000;stroke:#000000;stroke-width:0.5;" x="431.599985337" xlink:href="#m094cb02db3" y="238.248368652"/>
     <use style="fill:#008000;stroke:#000000;stroke-width:0.5;" x="444.000009794" xlink:href="#m094cb02db3" y="221.03752333"/>
     <use style="fill:#008000;stroke:#000000;stroke-width:0.5;" x="456.400015662" xlink:href="#m094cb02db3" y="227.186459648"/>
     <use style="fill:#008000;stroke:#000000;stroke-width:0.5;" x="468.799988658" xlink:href="#m094cb02db3" y="255.42206353"/>
     <use style="fill:#008000;stroke:#000000;stroke-width:0.5;" x="481.200000354" xlink:href="#m094cb02db3" y="296.360093365"/>
     <use style="fill:#008000;stroke:#000000;stroke-width:0.5;" x="493.600033824" xlink:href="#m094cb02db3" y="334.67380016"/>
     <use style="fill:#008000;stroke:#000000;stroke-width:0.5;" x="506.00006794" xlink:href="#m094cb02db3" y="356.960176644"/>
    </g>
   </g>
   <g id="patch_3">
    <path d="M 72 388.8 
L 518.4 388.8 
" style="fill:none;stroke:#000000;stroke-linecap:square;stroke-linejoin:miter;"/>
   </g>
   <g id="patch_4">
    <path d="M 518.4 388.8 
L 518.4 43.2 
" style="fill:none;stroke:#000000;stroke-linecap:square;stroke-linejoin:miter;"/>
   </g>
   <g id="patch_5">
    <path d="M 72 388.8 
L 72 43.2 
" style="fill:none;stroke:#000000;stroke-linecap:square;stroke-linejoin:miter;"/>
   </g>
   <g id="patch_6">
    <path d="M 72 43.2 
L 518.4 43.2 
" style="fill:none;stroke:#000000;stroke-linecap:square;stroke-linejoin:miter;"/>
   </g>
   <g id="matplotlib.axis_1">
    <g id="xtick_1">
     <g id="line2d_6">
      <defs>
       <path d="M 0 0 
L 0 -4 
" id="me89c820a03" style="stroke:#000000;stroke-width:0.5;"/>
      </defs>
      <g>
       <use style="stroke:#000000;stroke-width:0.5;" x="72.0" xlink:href="#me89c820a03" y="388.8"/>
      </g>
     </g>
     <g id="line2d_7">
      <defs>
       <path d="M 0 0 
L 0 4 
" id="m0c1faabeeb" style="stroke:#000000;stroke-width:0.5;"/>
      </defs>
      <g>
       <use style="stroke:#000000;stroke-width:0.5;" x="72.0" xlink:href="#m0c1faabeeb" y="43.2"/>
      </g>
     </g>
     <g id="text_1">
      <!-- −180 -->
      <defs>
       <path d="M 31.78125 66.40625 
Q 24.171875 66.40625 20.328125 58.90625 
Q 16.5 51.421875 16.5 36.375 
Q 16.5 21.390625 20.328125 13.890625 
Q 24.171875 6.390625 31.78125 6.390625 
Q 39.453125 6.390625 43.28125 13.890625 
Q 47.125 21.390625 47.125 36.375 
Q 47.125 51.421875 43.28125 58.90625 
Q 39.453125 66.40625 31.78125 66.40625 
M 31.78125 74.21875 
Q 44.046875 74.21875 50.515625 64.515625 
Q 56.984375 54.828125 56.984375 36.375 
Q 56.984375 17.96875 50.515625 8.265625 
Q 44.046875 -1.421875 31.78125 -1.421875 
Q 19.53125 -1.421875 13.0625 8.265625 
Q 6.59375 17.96875 6.59375 36.375 
Q 6.59375 54.828125 13.0625 64.515625 
Q 19.53125 74.21875 31.78125 74.21875 
" id="BitstreamVeraSans-Roman-30"/>
       <path d="M 10.59375 35.5 
L 73.1875 35.5 
L 73.1875 27.203125 
L 10.59375 27.203125 
z
" id="BitstreamVeraSans-Roman-2212"/>
       <path d="M 31.78125 34.625 
Q 24.75 34.625 20.71875 30.859375 
Q 16.703125 27.09375 16.703125 20.515625 
Q 16.703125 13.921875 20.71875 10.15625 
Q 24.75 6.390625 31.78125 6.390625 
Q 38.8125 6.390625 42.859375 10.171875 
Q 46.921875 13.96875 46.921875 20.515625 
Q 46.921875 27.09375 42.890625 30.859375 
Q 38.875 34.625 31.78125 34.625 
M 21.921875 38.8125 
Q 15.578125 40.375 12.03125 44.71875 
Q 8.5 49.078125 8.5 55.328125 
Q 8.5 64.0625 14.71875 69.140625 
Q 20.953125 74.21875 31.78125 74.21875 
Q 42.671875 74.21875 48.875 69.140625 
Q 55.078125 64.0625 55.078125 55.328125 
Q 55.078125 49.078125 51.53125 44.71875 
Q 48 40.375 41.703125 38.8125 
Q 48.828125 37.15625 52.796875 32.3125 
Q 56.78125 27.484375 56.78125 20.515625 
Q 56.78125 9.90625 50.3125 4.234375 
Q 43.84375 -1.421875 31.78125 -1.421875 
Q 19.734375 -1.421875 13.25 4.234375 
Q 6.78125 9.90625 6.78125 20.515625 
Q 6.78125 27.484375 10.78125 32.3125 
Q 14.796875 37.15625 21.921875 38.8125 
M 18.3125 54.390625 
Q 18.3125 48.734375 21.84375 45.5625 
Q 25.390625 42.390625 31.78125 42.390625 
Q 38.140625 42.390625 41.71875 45.5625 
Q 45.3125 48.734375 45.3125 54.390625 
Q 45.3125 60.0625 41.71875 63.234375 
Q 38.140625 66.40625 31.78125 66.40625 
Q 25.390625 66.40625 21.84375 63.234375 
Q 18.3125 60.0625 18.3125 54.390625 
" id="BitstreamVeraSans-Roman-38"/>
       <path d="M 12.40625 8.296875 
L 28.515625 8.296875 
L 28.515625 63.921875 
L 10.984375 60.40625 
L 10.984375 69.390625 
L 28.421875 72.90625 
L 38.28125 72.90625 
L 38.28125 8.296875 
L 54.390625 8.296875 
L 54.390625 0 
L 12.40625 0 
z
" id="BitstreamVeraSans-Roman-31"/>
      </defs>
      <g transform="translate(55.5196875 401.918125)scale(0.12 -0.12)">
       <use xlink:href="#BitstreamVeraSans-Roman-2212"/>
       <use x="83.7890625" xlink:href="#BitstreamVeraSans-Roman-31"/>
       <use x="147.412109375" xlink:href="#BitstreamVeraSans-Roman-38"/>
       <use x="211.03515625" xlink:href="#BitstreamVeraSans-Roman-30"/>
      </g>
     </g>
    </g>
    <g id="xtick_2">
     <g id="line2d_8">
      <g>
       <use style="stroke:#000000;stroke-width:0.5;" x="127.8" xlink:href="#me89c820a03" y="388.8"/>
      </g>
     </g>
     <g id="line2d_9">
      <g>
       <use style="stroke:#000000;stroke-width:0.5;" x="127.8" xlink:href="#m0c1faabeeb" y="43.2"/>
      </g>
     </g>
     <g id="text_2">
      <!-- −135 -->
      <defs>
       <path d="M 10.796875 72.90625 
L 49.515625 72.90625 
L 49.515625 64.59375 
L 19.828125 64.59375 
L 19.828125 46.734375 
Q 21.96875 47.46875 24.109375 47.828125 
Q 26.265625 48.1875 28.421875 48.1875 
Q 40.625 48.1875 47.75 41.5 
Q 54.890625 34.8125 54.890625 23.390625 
Q 54.890625 11.625 47.5625 5.09375 
Q 40.234375 -1.421875 26.90625 -1.421875 
Q 22.3125 -1.421875 17.546875 -0.640625 
Q 12.796875 0.140625 7.71875 1.703125 
L 7.71875 11.625 
Q 12.109375 9.234375 16.796875 8.0625 
Q 21.484375 6.890625 26.703125 6.890625 
Q 35.15625 6.890625 40.078125 11.328125 
Q 45.015625 15.765625 45.015625 23.390625 
Q 45.015625 31 40.078125 35.4375 
Q 35.15625 39.890625 26.703125 39.890625 
Q 22.75 39.890625 18.8125 39.015625 
Q 14.890625 38.140625 10.796875 36.28125 
z
" id="BitstreamVeraSans-Roman-35"/>
       <path d="M 40.578125 39.3125 
Q 47.65625 37.796875 51.625 33 
Q 55.609375 28.21875 55.609375 21.1875 
Q 55.609375 10.40625 48.1875 4.484375 
Q 40.765625 -1.421875 27.09375 -1.421875 
Q 22.515625 -1.421875 17.65625 -0.515625 
Q 12.796875 0.390625 7.625 2.203125 
L 7.625 11.71875 
Q 11.71875 9.328125 16.59375 8.109375 
Q 21.484375 6.890625 26.8125 6.890625 
Q 36.078125 6.890625 40.9375 10.546875 
Q 45.796875 14.203125 45.796875 21.1875 
Q 45.796875 27.640625 41.28125 31.265625 
Q 36.765625 34.90625 28.71875 34.90625 
L 20.21875 34.90625 
L 20.21875 43.015625 
L 29.109375 43.015625 
Q 36.375 43.015625 40.234375 45.921875 
Q 44.09375 48.828125 44.09375 54.296875 
Q 44.09375 59.90625 40.109375 62.90625 
Q 36.140625 65.921875 28.71875 65.921875 
Q 24.65625 65.921875 20.015625 65.03125 
Q 15.375 64.15625 9.8125 62.3125 
L 9.8125 71.09375 
Q 15.4375 72.65625 20.34375 73.4375 
Q 25.25 74.21875 29.59375 74.21875 
Q 40.828125 74.21875 47.359375 69.109375 
Q 53.90625 64.015625 53.90625 55.328125 
Q 53.90625 49.265625 50.4375 45.09375 
Q 46.96875 40.921875 40.578125 39.3125 
" id="BitstreamVeraSans-Roman-33"/>
      </defs>
      <g transform="translate(111.3196875 401.918125)scale(0.12 -0.12)">
       <use xlink:href="#BitstreamVeraSans-Roman-2212"/>
       <use x="83.7890625" xlink:href="#BitstreamVeraSans-Roman-31"/>
       <use x="147.412109375" xlink:href="#BitstreamVeraSans-Roman-33"/>
       <use x="211.03515625" xlink:href="#BitstreamVeraSans-Roman-35"/>
      </g>
     </g>
    </g>
    <g id="xtick_3">
     <g id="line2d_10">
      <g>
       <use style="stroke:#000000;stroke-width:0.5;" x="183.6" xlink:href="#me89c820a03" y="388.8"/>
      </g>
     </g>
     <g id="line2d_11">
      <g>
       <use style="stroke:#000000;stroke-width:0.5;" x="183.6" xlink:href="#m0c1faabeeb" y="43.2"/>
      </g>
     </g>
     <g id="text_3">
      <!-- −90 -->
      <defs>
       <path d="M 10.984375 1.515625 
L 10.984375 10.5 
Q 14.703125 8.734375 18.5 7.8125 
Q 22.3125 6.890625 25.984375 6.890625 
Q 35.75 6.890625 40.890625 13.453125 
Q 46.046875 20.015625 46.78125 33.40625 
Q 43.953125 29.203125 39.59375 26.953125 
Q 35.25 24.703125 29.984375 24.703125 
Q 19.046875 24.703125 12.671875 31.3125 
Q 6.296875 37.9375 6.296875 49.421875 
Q 6.296875 60.640625 12.9375 67.421875 
Q 19.578125 74.21875 30.609375 74.21875 
Q 43.265625 74.21875 49.921875 64.515625 
Q 56.59375 54.828125 56.59375 36.375 
Q 56.59375 19.140625 48.40625 8.859375 
Q 40.234375 -1.421875 26.421875 -1.421875 
Q 22.703125 -1.421875 18.890625 -0.6875 
Q 15.09375 0.046875 10.984375 1.515625 
M 30.609375 32.421875 
Q 37.25 32.421875 41.125 36.953125 
Q 45.015625 41.5 45.015625 49.421875 
Q 45.015625 57.28125 41.125 61.84375 
Q 37.25 66.40625 30.609375 66.40625 
Q 23.96875 66.40625 20.09375 61.84375 
Q 16.21875 57.28125 16.21875 49.421875 
Q 16.21875 41.5 20.09375 36.953125 
Q 23.96875 32.421875 30.609375 32.421875 
" id="BitstreamVeraSans-Roman-39"/>
      </defs>
      <g transform="translate(170.9371875 401.918125)scale(0.12 -0.12)">
       <use xlink:href="#BitstreamVeraSans-Roman-2212"/>
       <use x="83.7890625" xlink:href="#BitstreamVeraSans-Roman-39"/>
       <use x="147.412109375" xlink:href="#BitstreamVeraSans-Roman-30"/>
      </g>
     </g>
    </g>
    <g id="xtick_4">
     <g id="line2d_12">
      <g>
       <use style="stroke:#000000;stroke-width:0.5;" x="239.4" xlink:href="#me89c820a03" y="388.8"/>
      </g>
     </g>
     <g id="line2d_13">
      <g>
       <use style="stroke:#000000;stroke-width:0.5;" x="239.4" xlink:href="#m0c1faabeeb" y="43.2"/>
      </g>
     </g>
     <g id="text_4">
      <!-- −45 -->
      <defs>
       <path d="M 37.796875 64.3125 
L 12.890625 25.390625 
L 37.796875 25.390625 
z
M 35.203125 72.90625 
L 47.609375 72.90625 
L 47.609375 25.390625 
L 58.015625 25.390625 
L 58.015625 17.1875 
L 47.609375 17.1875 
L 47.609375 0 
L 37.796875 0 
L 37.796875 17.1875 
L 4.890625 17.1875 
L 4.890625 26.703125 
z
" id="BitstreamVeraSans-Roman-34"/>
      </defs>
      <g transform="translate(226.7371875 401.918125)scale(0.12 -0.12)">
       <use xlink:href="#BitstreamVeraSans-Roman-2212"/>
       <use x="83.7890625" xlink:href="#BitstreamVeraSans-Roman-34"/>
       <use x="147.412109375" xlink:href="#BitstreamVeraSans-Roman-35"/>
      </g>
     </g>
    </g>
    <g id="xtick_5">
     <g id="line2d_14">
      <g>
       <use style="stroke:#000000;stroke-width:0.5;" x="295.2" xlink:href="#me89c820a03" y="388.8"/>
      </g>
     </g>
     <g id="line2d_15">
      <g>
       <use style="stroke:#000000;stroke-width:0.5;" x="295.2" xlink:href="#m0c1faabeeb" y="43.2"/>
      </g>
     </g>
     <g id="text_5">
      <!-- 0 -->
      <g transform="translate(291.3825 401.918125)scale(0.12 -0.12)">
       <use xlink:href="#BitstreamVeraSans-Roman-30"/>
      </g>
     </g>
    </g>
    <g id="xtick_6">
     <g id="line2d_16">
      <g>
       <use style="stroke:#000000;stroke-width:0.5;" x="351.0" xlink:href="#me89c820a03" y="388.8"/>
      </g>
     </g>
     <g id="line2d_17">
      <g>
       <use style="stroke:#000000;stroke-width:0.5;" x="351.0" xlink:href="#m0c1faabeeb" y="43.2"/>
      </g>
     </g>
     <g id="text_6">
      <!-- 45 -->
      <g transform="translate(343.365 401.918125)scale(0.12 -0.12)">
       <use xlink:href="#BitstreamVeraSans-Roman-34"/>
       <use x="63.623046875" xlink:href="#BitstreamVeraSans-Roman-35"/>
      </g>
     </g>
    </g>
    <g id="xtick_7">
     <g id="line2d_18">
      <g>
       <use style="stroke:#000000;stroke-width:0.5;" x="406.8" xlink:href="#me89c820a03" y="388.8"/>
      </g>
     </g>
     <g id="line2d_19">
      <g>
       <use style="stroke:#000000;stroke-width:0.5;" x="406.8" xlink:href="#m0c1faabeeb" y="43.2"/>
      </g>
     </g>
     <g id="text_7">
      <!-- 90 -->
      <g transform="translate(399.165 401.918125)scale(0.12 -0.12)">
       <use xlink:href="#BitstreamVeraSans-Roman-39"/>
       <use x="63.623046875" xlink:href="#BitstreamVeraSans-Roman-30"/>
      </g>
     </g>
    </g>
    <g id="xtick_8">
     <g id="line2d_20">
      <g>
       <use style="stroke:#000000;stroke-width:0.5;" x="462.6" xlink:href="#me89c820a03" y="388.8"/>
      </g>
     </g>
     <g id="line2d_21">
      <g>
       <use style="stroke:#000000;stroke-width:0.5;" x="462.6" xlink:href="#m0c1faabeeb" y="43.2"/>
      </g>
     </g>
     <g id="text_8">
      <!-- 135 -->
      <g transform="translate(451.1475 401.918125)scale(0.12 -0.12)">
       <use xlink:href="#BitstreamVeraSans-Roman-31"/>
       <use x="63.623046875" xlink:href="#BitstreamVeraSans-Roman-33"/>
       <use x="127.24609375" xlink:href="#BitstreamVeraSans-Roman-35"/>
      </g>
     </g>
    </g>
    <g id="xtick_9">
     <g id="line2d_22">
      <g>
       <use style="stroke:#000000;stroke-width:0.5;" x="518.4" xlink:href="#me89c820a03" y="388.8"/>
      </g>
     </g>
     <g id="line2d_23">
      <g>
       <use style="stroke:#000000;stroke-width:0.5;" x="518.4" xlink:href="#m0c1faabeeb" y="43.2"/>
      </g>
     </g>
     <g id="text_9">
      <!-- 180 -->
      <g transform="translate(506.9475 401.918125)scale(0.12 -0.12)">
       <use xlink:href="#BitstreamVeraSans-Roman-31"/>
       <use x="63.623046875" xlink:href="#BitstreamVeraSans-Roman-38"/>
       <use x="127.24609375" xlink:href="#BitstreamVeraSans-Roman-30"/>
      </g>
     </g>
    </g>
    <g id="text_10">
     <!-- Phi -->
     <defs>
      <path d="M 19.671875 64.796875 
L 19.671875 37.40625 
L 32.078125 37.40625 
Q 38.96875 37.40625 42.71875 40.96875 
Q 46.484375 44.53125 46.484375 51.125 
Q 46.484375 57.671875 42.71875 61.234375 
Q 38.96875 64.796875 32.078125 64.796875 
z
M 9.8125 72.90625 
L 32.078125 72.90625 
Q 44.34375 72.90625 50.609375 67.359375 
Q 56.890625 61.8125 56.890625 51.125 
Q 56.890625 40.328125 50.609375 34.8125 
Q 44.34375 29.296875 32.078125 29.296875 
L 19.671875 29.296875 
L 19.671875 0 
L 9.8125 0 
z
" id="BitstreamVeraSans-Roman-50"/>
      <path d="M 54.890625 33.015625 
L 54.890625 0 
L 45.90625 0 
L 45.90625 32.71875 
Q 45.90625 40.484375 42.875 44.328125 
Q 39.84375 48.1875 33.796875 48.1875 
Q 26.515625 48.1875 22.3125 43.546875 
Q 18.109375 38.921875 18.109375 30.90625 
L 18.109375 0 
L 9.078125 0 
L 9.078125 75.984375 
L 18.109375 75.984375 
L 18.109375 46.1875 
Q 21.34375 51.125 25.703125 53.5625 
Q 30.078125 56 35.796875 56 
Q 45.21875 56 50.046875 50.171875 
Q 54.890625 44.34375 54.890625 33.015625 
" id="BitstreamVeraSans-Roman-68"/>
      <path d="M 9.421875 54.6875 
L 18.40625 54.6875 
L 18.40625 0 
L 9.421875 0 
z
M 9.421875 75.984375 
L 18.40625 75.984375 
L 18.40625 64.59375 
L 9.421875 64.59375 
z
" id="BitstreamVeraSans-Roman-69"/>
     </defs>
     <g transform="translate(286.1128125 418.531875)scale(0.12 -0.12)">
      <use xlink:href="#BitstreamVeraSans-Roman-50"/>
      <use x="60.302734375" xlink:href="#BitstreamVeraSans-Roman-68"/>
      <use x="123.681640625" xlink:href="#BitstreamVeraSans-Roman-69"/>
     </g>
    </g>
   </g>
   <g id="matplotlib.axis_2">
    <g id="ytick_1">
     <g id="line2d_24">
      <defs>
       <path d="M 0 0 
L 4 0 
" id="m4bf34716ba" style="stroke:#000000;stroke-width:0.5;"/>
      </defs>
      <g>
       <use style="stroke:#000000;stroke-width:0.5;" x="72.0" xlink:href="#m4bf34716ba" y="388.8"/>
      </g>
     </g>
     <g id="line2d_25">
      <defs>
       <path d="M 0 0 
L -4 0 
" id="me07d59835d" style="stroke:#000000;stroke-width:0.5;"/>
      </defs>
      <g>
       <use style="stroke:#000000;stroke-width:0.5;" x="518.4" xlink:href="#me07d59835d" y="388.8"/>
      </g>
     </g>
     <g id="text_11">
      <!-- 0 -->
      <g transform="translate(60.365 392.11125)scale(0.12 -0.12)">
       <use xlink:href="#BitstreamVeraSans-Roman-30"/>
      </g>
     </g>
    </g>
    <g id="ytick_2">
     <g id="line2d_26">
      <g>
       <use style="stroke:#000000;stroke-width:0.5;" x="72.0" xlink:href="#m4bf34716ba" y="331.2"/>
      </g>
     </g>
     <g id="line2d_27">
      <g>
       <use style="stroke:#000000;stroke-width:0.5;" x="518.4" xlink:href="#me07d59835d" y="331.2"/>
      </g>
     </g>
     <g id="text_12">
      <!-- 1 -->
      <g transform="translate(60.365 334.51125)scale(0.12 -0.12)">
       <use xlink:href="#BitstreamVeraSans-Roman-31"/>
      </g>
     </g>
    </g>
    <g id="ytick_3">
     <g id="line2d_28">
      <g>
       <use style="stroke:#000000;stroke-width:0.5;" x="72.0" xlink:href="#m4bf34716ba" y="273.6"/>
      </g>
     </g>
     <g id="line2d_29">
      <g>
       <use style="stroke:#000000;stroke-width:0.5;" x="518.4" xlink:href="#me07d59835d" y="273.6"/>
      </g>
     </g>
     <g id="text_13">
      <!-- 2 -->
      <defs>
       <path d="M 19.1875 8.296875 
L 53.609375 8.296875 
L 53.609375 0 
L 7.328125 0 
L 7.328125 8.296875 
Q 12.9375 14.109375 22.625 23.890625 
Q 32.328125 33.6875 34.8125 36.53125 
Q 39.546875 41.84375 41.421875 45.53125 
Q 43.3125 49.21875 43.3125 52.78125 
Q 43.3125 58.59375 39.234375 62.25 
Q 35.15625 65.921875 28.609375 65.921875 
Q 23.96875 65.921875 18.8125 64.3125 
Q 13.671875 62.703125 7.8125 59.421875 
L 7.8125 69.390625 
Q 13.765625 71.78125 18.9375 73 
Q 24.125 74.21875 28.421875 74.21875 
Q 39.75 74.21875 46.484375 68.546875 
Q 53.21875 62.890625 53.21875 53.421875 
Q 53.21875 48.921875 51.53125 44.890625 
Q 49.859375 40.875 45.40625 35.40625 
Q 44.1875 33.984375 37.640625 27.21875 
Q 31.109375 20.453125 19.1875 8.296875 
" id="BitstreamVeraSans-Roman-32"/>
      </defs>
      <g transform="translate(60.365 276.91125)scale(0.12 -0.12)">
       <use xlink:href="#BitstreamVeraSans-Roman-32"/>
      </g>
     </g>
    </g>
    <g id="ytick_4">
     <g id="line2d_30">
      <g>
       <use style="stroke:#000000;stroke-width:0.5;" x="72.0" xlink:href="#m4bf34716ba" y="216.0"/>
      </g>
     </g>
     <g id="line2d_31">
      <g>
       <use style="stroke:#000000;stroke-width:0.5;" x="518.4" xlink:href="#me07d59835d" y="216.0"/>
      </g>
     </g>
     <g id="text_14">
      <!-- 3 -->
      <g transform="translate(60.365 219.31125)scale(0.12 -0.12)">
       <use xlink:href="#BitstreamVeraSans-Roman-33"/>
      </g>
     </g>
    </g>
    <g id="ytick_5">
     <g id="line2d_32">
      <g>
       <use style="stroke:#000000;stroke-width:0.5;" x="72.0" xlink:href="#m4bf34716ba" y="158.4"/>
      </g>
     </g>
     <g id="line2d_33">
      <g>
       <use style="stroke:#000000;stroke-width:0.5;" x="518.4" xlink:href="#me07d59835d" y="158.4"/>
      </g>
     </g>
     <g id="text_15">
      <!-- 4 -->
      <g transform="translate(60.365 161.71125)scale(0.12 -0.12)">
       <use xlink:href="#BitstreamVeraSans-Roman-34"/>
      </g>
     </g>
    </g>
    <g id="ytick_6">
     <g id="line2d_34">
      <g>
       <use style="stroke:#000000;stroke-width:0.5;" x="72.0" xlink:href="#m4bf34716ba" y="100.8"/>
      </g>
     </g>
     <g id="line2d_35">
      <g>
       <use style="stroke:#000000;stroke-width:0.5;" x="518.4" xlink:href="#me07d59835d" y="100.8"/>
      </g>
     </g>
     <g id="text_16">
      <!-- 5 -->
      <g transform="translate(60.365 104.11125)scale(0.12 -0.12)">
       <use xlink:href="#BitstreamVeraSans-Roman-35"/>
      </g>
     </g>
    </g>
    <g id="ytick_7">
     <g id="line2d_36">
      <g>
       <use style="stroke:#000000;stroke-width:0.5;" x="72.0" xlink:href="#m4bf34716ba" y="43.2"/>
      </g>
     </g>
     <g id="line2d_37">
      <g>
       <use style="stroke:#000000;stroke-width:0.5;" x="518.4" xlink:href="#me07d59835d" y="43.2"/>
      </g>
     </g>
     <g id="text_17">
      <!-- 6 -->
      <defs>
       <path d="M 33.015625 40.375 
Q 26.375 40.375 22.484375 35.828125 
Q 18.609375 31.296875 18.609375 23.390625 
Q 18.609375 15.53125 22.484375 10.953125 
Q 26.375 6.390625 33.015625 6.390625 
Q 39.65625 6.390625 43.53125 10.953125 
Q 47.40625 15.53125 47.40625 23.390625 
Q 47.40625 31.296875 43.53125 35.828125 
Q 39.65625 40.375 33.015625 40.375 
M 52.59375 71.296875 
L 52.59375 62.3125 
Q 48.875 64.0625 45.09375 64.984375 
Q 41.3125 65.921875 37.59375 65.921875 
Q 27.828125 65.921875 22.671875 59.328125 
Q 17.53125 52.734375 16.796875 39.40625 
Q 19.671875 43.65625 24.015625 45.921875 
Q 28.375 48.1875 33.59375 48.1875 
Q 44.578125 48.1875 50.953125 41.515625 
Q 57.328125 34.859375 57.328125 23.390625 
Q 57.328125 12.15625 50.6875 5.359375 
Q 44.046875 -1.421875 33.015625 -1.421875 
Q 20.359375 -1.421875 13.671875 8.265625 
Q 6.984375 17.96875 6.984375 36.375 
Q 6.984375 53.65625 15.1875 63.9375 
Q 23.390625 74.21875 37.203125 74.21875 
Q 40.921875 74.21875 44.703125 73.484375 
Q 48.484375 72.75 52.59375 71.296875 
" id="BitstreamVeraSans-Roman-36"/>
      </defs>
      <g transform="translate(60.365 46.51125)scale(0.12 -0.12)">
       <use xlink:href="#BitstreamVeraSans-Roman-36"/>
      </g>
     </g>
    </g>
    <g id="text_18">
     <!-- kcal/mol -->
     <defs>
      <path d="M 48.78125 52.59375 
L 48.78125 44.1875 
Q 44.96875 46.296875 41.140625 47.34375 
Q 37.3125 48.390625 33.40625 48.390625 
Q 24.65625 48.390625 19.8125 42.84375 
Q 14.984375 37.3125 14.984375 27.296875 
Q 14.984375 17.28125 19.8125 11.734375 
Q 24.65625 6.203125 33.40625 6.203125 
Q 37.3125 6.203125 41.140625 7.25 
Q 44.96875 8.296875 48.78125 10.40625 
L 48.78125 2.09375 
Q 45.015625 0.34375 40.984375 -0.53125 
Q 36.96875 -1.421875 32.421875 -1.421875 
Q 20.0625 -1.421875 12.78125 6.34375 
Q 5.515625 14.109375 5.515625 27.296875 
Q 5.515625 40.671875 12.859375 48.328125 
Q 20.21875 56 33.015625 56 
Q 37.15625 56 41.109375 55.140625 
Q 45.0625 54.296875 48.78125 52.59375 
" id="BitstreamVeraSans-Roman-63"/>
      <path d="M 9.078125 75.984375 
L 18.109375 75.984375 
L 18.109375 31.109375 
L 44.921875 54.6875 
L 56.390625 54.6875 
L 27.390625 29.109375 
L 57.625 0 
L 45.90625 0 
L 18.109375 26.703125 
L 18.109375 0 
L 9.078125 0 
z
" id="BitstreamVeraSans-Roman-6b"/>
      <path d="M 25.390625 72.90625 
L 33.6875 72.90625 
L 8.296875 -9.28125 
L 0 -9.28125 
z
" id="BitstreamVeraSans-Roman-2f"/>
      <path d="M 30.609375 48.390625 
Q 23.390625 48.390625 19.1875 42.75 
Q 14.984375 37.109375 14.984375 27.296875 
Q 14.984375 17.484375 19.15625 11.84375 
Q 23.34375 6.203125 30.609375 6.203125 
Q 37.796875 6.203125 41.984375 11.859375 
Q 46.1875 17.53125 46.1875 27.296875 
Q 46.1875 37.015625 41.984375 42.703125 
Q 37.796875 48.390625 30.609375 48.390625 
M 30.609375 56 
Q 42.328125 56 49.015625 48.375 
Q 55.71875 40.765625 55.71875 27.296875 
Q 55.71875 13.875 49.015625 6.21875 
Q 42.328125 -1.421875 30.609375 -1.421875 
Q 18.84375 -1.421875 12.171875 6.21875 
Q 5.515625 13.875 5.515625 27.296875 
Q 5.515625 40.765625 12.171875 48.375 
Q 18.84375 56 30.609375 56 
" id="BitstreamVeraSans-Roman-6f"/>
      <path d="M 34.28125 27.484375 
Q 23.390625 27.484375 19.1875 25 
Q 14.984375 22.515625 14.984375 16.5 
Q 14.984375 11.71875 18.140625 8.90625 
Q 21.296875 6.109375 26.703125 6.109375 
Q 34.1875 6.109375 38.703125 11.40625 
Q 43.21875 16.703125 43.21875 25.484375 
L 43.21875 27.484375 
z
M 52.203125 31.203125 
L 52.203125 0 
L 43.21875 0 
L 43.21875 8.296875 
Q 40.140625 3.328125 35.546875 0.953125 
Q 30.953125 -1.421875 24.3125 -1.421875 
Q 15.921875 -1.421875 10.953125 3.296875 
Q 6 8.015625 6 15.921875 
Q 6 25.140625 12.171875 29.828125 
Q 18.359375 34.515625 30.609375 34.515625 
L 43.21875 34.515625 
L 43.21875 35.40625 
Q 43.21875 41.609375 39.140625 45 
Q 35.0625 48.390625 27.6875 48.390625 
Q 23 48.390625 18.546875 47.265625 
Q 14.109375 46.140625 10.015625 43.890625 
L 10.015625 52.203125 
Q 14.9375 54.109375 19.578125 55.046875 
Q 24.21875 56 28.609375 56 
Q 40.484375 56 46.34375 49.84375 
Q 52.203125 43.703125 52.203125 31.203125 
" id="BitstreamVeraSans-Roman-61"/>
      <path d="M 52 44.1875 
Q 55.375 50.25 60.0625 53.125 
Q 64.75 56 71.09375 56 
Q 79.640625 56 84.28125 50.015625 
Q 88.921875 44.046875 88.921875 33.015625 
L 88.921875 0 
L 79.890625 0 
L 79.890625 32.71875 
Q 79.890625 40.578125 77.09375 44.375 
Q 74.3125 48.1875 68.609375 48.1875 
Q 61.625 48.1875 57.5625 43.546875 
Q 53.515625 38.921875 53.515625 30.90625 
L 53.515625 0 
L 44.484375 0 
L 44.484375 32.71875 
Q 44.484375 40.625 41.703125 44.40625 
Q 38.921875 48.1875 33.109375 48.1875 
Q 26.21875 48.1875 22.15625 43.53125 
Q 18.109375 38.875 18.109375 30.90625 
L 18.109375 0 
L 9.078125 0 
L 9.078125 54.6875 
L 18.109375 54.6875 
L 18.109375 46.1875 
Q 21.1875 51.21875 25.484375 53.609375 
Q 29.78125 56 35.6875 56 
Q 41.65625 56 45.828125 52.96875 
Q 50 49.953125 52 44.1875 
" id="BitstreamVeraSans-Roman-6d"/>
      <path d="M 9.421875 75.984375 
L 18.40625 75.984375 
L 18.40625 0 
L 9.421875 0 
z
" id="BitstreamVeraSans-Roman-6c"/>
     </defs>
     <g transform="translate(52.869375 241.3209375)rotate(-90.0)scale(0.12 -0.12)">
      <use xlink:href="#BitstreamVeraSans-Roman-6b"/>
      <use x="57.91015625" xlink:href="#BitstreamVeraSans-Roman-63"/>
      <use x="112.890625" xlink:href="#BitstreamVeraSans-Roman-61"/>
      <use x="174.169921875" xlink:href="#BitstreamVeraSans-Roman-6c"/>
      <use x="201.953125" xlink:href="#BitstreamVeraSans-Roman-2f"/>
      <use x="235.64453125" xlink:href="#BitstreamVeraSans-Roman-6d"/>
      <use x="333.056640625" xlink:href="#BitstreamVeraSans-Roman-6f"/>
      <use x="394.23828125" xlink:href="#BitstreamVeraSans-Roman-6c"/>
     </g>
    </g>
   </g>
   <g id="text_19">
    <!-- H2-C2-C3-H4 -->
    <defs>
     <path d="M 4.890625 31.390625 
L 31.203125 31.390625 
L 31.203125 23.390625 
L 4.890625 23.390625 
z
" id="BitstreamVeraSans-Roman-2d"/>
     <path d="M 9.8125 72.90625 
L 19.671875 72.90625 
L 19.671875 43.015625 
L 55.515625 43.015625 
L 55.515625 72.90625 
L 65.375 72.90625 
L 65.375 0 
L 55.515625 0 
L 55.515625 34.71875 
L 19.671875 34.71875 
L 19.671875 0 
L 9.8125 0 
z
" id="BitstreamVeraSans-Roman-48"/>
     <path d="M 64.40625 67.28125 
L 64.40625 56.890625 
Q 59.421875 61.53125 53.78125 63.8125 
Q 48.140625 66.109375 41.796875 66.109375 
Q 29.296875 66.109375 22.65625 58.46875 
Q 16.015625 50.828125 16.015625 36.375 
Q 16.015625 21.96875 22.65625 14.328125 
Q 29.296875 6.6875 41.796875 6.6875 
Q 48.140625 6.6875 53.78125 8.984375 
Q 59.421875 11.28125 64.40625 15.921875 
L 64.40625 5.609375 
Q 59.234375 2.09375 53.4375 0.328125 
Q 47.65625 -1.421875 41.21875 -1.421875 
Q 24.65625 -1.421875 15.125 8.703125 
Q 5.609375 18.84375 5.609375 36.375 
Q 5.609375 53.953125 15.125 64.078125 
Q 24.65625 74.21875 41.21875 74.21875 
Q 47.75 74.21875 53.53125 72.484375 
Q 59.328125 70.75 64.40625 67.28125 
" id="BitstreamVeraSans-Roman-43"/>
    </defs>
    <g transform="translate(248.198625 38.2)scale(0.144 -0.144)">
     <use xlink:href="#BitstreamVeraSans-Roman-48"/>
     <use x="75.1953125" xlink:href="#BitstreamVeraSans-Roman-32"/>
     <use x="138.818359375" xlink:href="#BitstreamVeraSans-Roman-2d"/>
     <use x="174.90234375" xlink:href="#BitstreamVeraSans-Roman-43"/>
     <use x="244.7265625" xlink:href="#BitstreamVeraSans-Roman-32"/>
     <use x="308.349609375" xlink:href="#BitstreamVeraSans-Roman-2d"/>
     <use x="344.43359375" xlink:href="#BitstreamVeraSans-Roman-43"/>
     <use x="414.2578125" xlink:href="#BitstreamVeraSans-Roman-33"/>
     <use x="477.880859375" xlink:href="#BitstreamVeraSans-Roman-2d"/>
     <use x="513.96484375" xlink:href="#BitstreamVeraSans-Roman-48"/>
     <use x="589.16015625" xlink:href="#BitstreamVeraSans-Roman-34"/>
    </g>
   </g>
   <g id="legend_1">
    <g id="patch_7">
     <path d="M 406.15625 108.3125 
L 514.4 108.3125 
L 514.4 47.2 
L 406.15625 47.2 
z
" style="fill:#ffffff;stroke:#000000;stroke-linejoin:miter;"/>
    </g>
    <g id="line2d_38">
     <path d="M 411.75625 53.67875 
L 422.95625 53.67875 
" style="fill:none;stroke:#ff0000;stroke-linecap:square;"/>
    </g>
    <g id="line2d_39">
     <g>
      <use style="fill:#ff0000;stroke:#000000;stroke-width:0.5;" x="411.75625" xlink:href="#m606031ebc5" y="53.67875"/>
      <use style="fill:#ff0000;stroke:#000000;stroke-width:0.5;" x="422.95625" xlink:href="#m606031ebc5" y="53.67875"/>
     </g>
    </g>
    <g id="text_20">
     <!-- QM -->
     <defs>
      <path d="M 39.40625 66.21875 
Q 28.65625 66.21875 22.328125 58.203125 
Q 16.015625 50.203125 16.015625 36.375 
Q 16.015625 22.609375 22.328125 14.59375 
Q 28.65625 6.59375 39.40625 6.59375 
Q 50.140625 6.59375 56.421875 14.59375 
Q 62.703125 22.609375 62.703125 36.375 
Q 62.703125 50.203125 56.421875 58.203125 
Q 50.140625 66.21875 39.40625 66.21875 
M 53.21875 1.3125 
L 66.21875 -12.890625 
L 54.296875 -12.890625 
L 43.5 -1.21875 
Q 41.890625 -1.3125 41.03125 -1.359375 
Q 40.1875 -1.421875 39.40625 -1.421875 
Q 24.03125 -1.421875 14.8125 8.859375 
Q 5.609375 19.140625 5.609375 36.375 
Q 5.609375 53.65625 14.8125 63.9375 
Q 24.03125 74.21875 39.40625 74.21875 
Q 54.734375 74.21875 63.90625 63.9375 
Q 73.09375 53.65625 73.09375 36.375 
Q 73.09375 23.6875 67.984375 14.640625 
Q 62.890625 5.609375 53.21875 1.3125 
" id="BitstreamVeraSans-Roman-51"/>
      <path d="M 9.8125 72.90625 
L 24.515625 72.90625 
L 43.109375 23.296875 
L 61.8125 72.90625 
L 76.515625 72.90625 
L 76.515625 0 
L 66.890625 0 
L 66.890625 64.015625 
L 48.09375 14.015625 
L 38.1875 14.015625 
L 19.390625 64.015625 
L 19.390625 0 
L 9.8125 0 
z
" id="BitstreamVeraSans-Roman-4d"/>
     </defs>
     <g transform="translate(431.75625 56.47875)scale(0.08 -0.08)">
      <use xlink:href="#BitstreamVeraSans-Roman-51"/>
      <use x="78.7109375" xlink:href="#BitstreamVeraSans-Roman-4d"/>
     </g>
    </g>
    <g id="line2d_40">
     <path d="M 411.75625 65.42125 
L 422.95625 65.42125 
" style="fill:none;stroke:#0000ff;stroke-linecap:square;"/>
    </g>
    <g id="line2d_41">
     <g>
      <use style="fill:#0000ff;stroke:#000000;stroke-width:0.5;" x="411.75625" xlink:href="#md779446adc" y="65.42125"/>
      <use style="fill:#0000ff;stroke:#000000;stroke-width:0.5;" x="422.95625" xlink:href="#md779446adc" y="65.42125"/>
     </g>
    </g>
    <g id="text_21">
     <!-- MM Original -->
     <defs>
      <path d="M 54.890625 33.015625 
L 54.890625 0 
L 45.90625 0 
L 45.90625 32.71875 
Q 45.90625 40.484375 42.875 44.328125 
Q 39.84375 48.1875 33.796875 48.1875 
Q 26.515625 48.1875 22.3125 43.546875 
Q 18.109375 38.921875 18.109375 30.90625 
L 18.109375 0 
L 9.078125 0 
L 9.078125 54.6875 
L 18.109375 54.6875 
L 18.109375 46.1875 
Q 21.34375 51.125 25.703125 53.5625 
Q 30.078125 56 35.796875 56 
Q 45.21875 56 50.046875 50.171875 
Q 54.890625 44.34375 54.890625 33.015625 
" id="BitstreamVeraSans-Roman-6e"/>
      <path id="BitstreamVeraSans-Roman-20"/>
      <path d="M 41.109375 46.296875 
Q 39.59375 47.171875 37.8125 47.578125 
Q 36.03125 48 33.890625 48 
Q 26.265625 48 22.1875 43.046875 
Q 18.109375 38.09375 18.109375 28.8125 
L 18.109375 0 
L 9.078125 0 
L 9.078125 54.6875 
L 18.109375 54.6875 
L 18.109375 46.1875 
Q 20.953125 51.171875 25.484375 53.578125 
Q 30.03125 56 36.53125 56 
Q 37.453125 56 38.578125 55.875 
Q 39.703125 55.765625 41.0625 55.515625 
z
" id="BitstreamVeraSans-Roman-72"/>
      <path d="M 39.40625 66.21875 
Q 28.65625 66.21875 22.328125 58.203125 
Q 16.015625 50.203125 16.015625 36.375 
Q 16.015625 22.609375 22.328125 14.59375 
Q 28.65625 6.59375 39.40625 6.59375 
Q 50.140625 6.59375 56.421875 14.59375 
Q 62.703125 22.609375 62.703125 36.375 
Q 62.703125 50.203125 56.421875 58.203125 
Q 50.140625 66.21875 39.40625 66.21875 
M 39.40625 74.21875 
Q 54.734375 74.21875 63.90625 63.9375 
Q 73.09375 53.65625 73.09375 36.375 
Q 73.09375 19.140625 63.90625 8.859375 
Q 54.734375 -1.421875 39.40625 -1.421875 
Q 24.03125 -1.421875 14.8125 8.828125 
Q 5.609375 19.09375 5.609375 36.375 
Q 5.609375 53.65625 14.8125 63.9375 
Q 24.03125 74.21875 39.40625 74.21875 
" id="BitstreamVeraSans-Roman-4f"/>
      <path d="M 45.40625 27.984375 
Q 45.40625 37.75 41.375 43.109375 
Q 37.359375 48.484375 30.078125 48.484375 
Q 22.859375 48.484375 18.828125 43.109375 
Q 14.796875 37.75 14.796875 27.984375 
Q 14.796875 18.265625 18.828125 12.890625 
Q 22.859375 7.515625 30.078125 7.515625 
Q 37.359375 7.515625 41.375 12.890625 
Q 45.40625 18.265625 45.40625 27.984375 
M 54.390625 6.78125 
Q 54.390625 -7.171875 48.1875 -13.984375 
Q 42 -20.796875 29.203125 -20.796875 
Q 24.46875 -20.796875 20.265625 -20.09375 
Q 16.0625 -19.390625 12.109375 -17.921875 
L 12.109375 -9.1875 
Q 16.0625 -11.328125 19.921875 -12.34375 
Q 23.78125 -13.375 27.78125 -13.375 
Q 36.625 -13.375 41.015625 -8.765625 
Q 45.40625 -4.15625 45.40625 5.171875 
L 45.40625 9.625 
Q 42.625 4.78125 38.28125 2.390625 
Q 33.9375 0 27.875 0 
Q 17.828125 0 11.671875 7.65625 
Q 5.515625 15.328125 5.515625 27.984375 
Q 5.515625 40.671875 11.671875 48.328125 
Q 17.828125 56 27.875 56 
Q 33.9375 56 38.28125 53.609375 
Q 42.625 51.21875 45.40625 46.390625 
L 45.40625 54.6875 
L 54.390625 54.6875 
z
" id="BitstreamVeraSans-Roman-67"/>
     </defs>
     <g transform="translate(431.75625 68.22125)scale(0.08 -0.08)">
      <use xlink:href="#BitstreamVeraSans-Roman-4d"/>
      <use x="86.279296875" xlink:href="#BitstreamVeraSans-Roman-4d"/>
      <use x="172.55859375" xlink:href="#BitstreamVeraSans-Roman-20"/>
      <use x="204.345703125" xlink:href="#BitstreamVeraSans-Roman-4f"/>
      <use x="283.056640625" xlink:href="#BitstreamVeraSans-Roman-72"/>
      <use x="324.169921875" xlink:href="#BitstreamVeraSans-Roman-69"/>
      <use x="351.953125" xlink:href="#BitstreamVeraSans-Roman-67"/>
      <use x="415.4296875" xlink:href="#BitstreamVeraSans-Roman-69"/>
      <use x="443.212890625" xlink:href="#BitstreamVeraSans-Roman-6e"/>
      <use x="506.591796875" xlink:href="#BitstreamVeraSans-Roman-61"/>
      <use x="567.87109375" xlink:href="#BitstreamVeraSans-Roman-6c"/>
     </g>
    </g>
    <g id="line2d_42">
     <path d="M 411.75625 77.16375 
L 422.95625 77.16375 
" style="fill:none;stroke:#000000;stroke-linecap:square;"/>
    </g>
    <g id="line2d_43">
     <g>
      <use style="stroke:#000000;stroke-width:0.5;" x="411.75625" xlink:href="#mcf46633995" y="77.16375"/>
      <use style="stroke:#000000;stroke-width:0.5;" x="422.95625" xlink:href="#mcf46633995" y="77.16375"/>
     </g>
    </g>
    <g id="text_22">
     <!-- MM With phi zeroed -->
     <defs>
      <path d="M 56.203125 29.59375 
L 56.203125 25.203125 
L 14.890625 25.203125 
Q 15.484375 15.921875 20.484375 11.0625 
Q 25.484375 6.203125 34.421875 6.203125 
Q 39.59375 6.203125 44.453125 7.46875 
Q 49.3125 8.734375 54.109375 11.28125 
L 54.109375 2.78125 
Q 49.265625 0.734375 44.1875 -0.34375 
Q 39.109375 -1.421875 33.890625 -1.421875 
Q 20.796875 -1.421875 13.15625 6.1875 
Q 5.515625 13.8125 5.515625 26.8125 
Q 5.515625 40.234375 12.765625 48.109375 
Q 20.015625 56 32.328125 56 
Q 43.359375 56 49.78125 48.890625 
Q 56.203125 41.796875 56.203125 29.59375 
M 47.21875 32.234375 
Q 47.125 39.59375 43.09375 43.984375 
Q 39.0625 48.390625 32.421875 48.390625 
Q 24.90625 48.390625 20.390625 44.140625 
Q 15.875 39.890625 15.1875 32.171875 
z
" id="BitstreamVeraSans-Roman-65"/>
      <path d="M 18.109375 8.203125 
L 18.109375 -20.796875 
L 9.078125 -20.796875 
L 9.078125 54.6875 
L 18.109375 54.6875 
L 18.109375 46.390625 
Q 20.953125 51.265625 25.265625 53.625 
Q 29.59375 56 35.59375 56 
Q 45.5625 56 51.78125 48.09375 
Q 58.015625 40.1875 58.015625 27.296875 
Q 58.015625 14.40625 51.78125 6.484375 
Q 45.5625 -1.421875 35.59375 -1.421875 
Q 29.59375 -1.421875 25.265625 0.953125 
Q 20.953125 3.328125 18.109375 8.203125 
M 48.6875 27.296875 
Q 48.6875 37.203125 44.609375 42.84375 
Q 40.53125 48.484375 33.40625 48.484375 
Q 26.265625 48.484375 22.1875 42.84375 
Q 18.109375 37.203125 18.109375 27.296875 
Q 18.109375 17.390625 22.1875 11.75 
Q 26.265625 6.109375 33.40625 6.109375 
Q 40.53125 6.109375 44.609375 11.75 
Q 48.6875 17.390625 48.6875 27.296875 
" id="BitstreamVeraSans-Roman-70"/>
      <path d="M 5.515625 54.6875 
L 48.1875 54.6875 
L 48.1875 46.484375 
L 14.40625 7.171875 
L 48.1875 7.171875 
L 48.1875 0 
L 4.296875 0 
L 4.296875 8.203125 
L 38.09375 47.515625 
L 5.515625 47.515625 
z
" id="BitstreamVeraSans-Roman-7a"/>
      <path d="M 18.3125 70.21875 
L 18.3125 54.6875 
L 36.8125 54.6875 
L 36.8125 47.703125 
L 18.3125 47.703125 
L 18.3125 18.015625 
Q 18.3125 11.328125 20.140625 9.421875 
Q 21.96875 7.515625 27.59375 7.515625 
L 36.8125 7.515625 
L 36.8125 0 
L 27.59375 0 
Q 17.1875 0 13.234375 3.875 
Q 9.28125 7.765625 9.28125 18.015625 
L 9.28125 47.703125 
L 2.6875 47.703125 
L 2.6875 54.6875 
L 9.28125 54.6875 
L 9.28125 70.21875 
z
" id="BitstreamVeraSans-Roman-74"/>
      <path d="M 3.328125 72.90625 
L 13.28125 72.90625 
L 28.609375 11.28125 
L 43.890625 72.90625 
L 54.984375 72.90625 
L 70.3125 11.28125 
L 85.59375 72.90625 
L 95.609375 72.90625 
L 77.296875 0 
L 64.890625 0 
L 49.515625 63.28125 
L 33.984375 0 
L 21.578125 0 
z
" id="BitstreamVeraSans-Roman-57"/>
      <path d="M 45.40625 46.390625 
L 45.40625 75.984375 
L 54.390625 75.984375 
L 54.390625 0 
L 45.40625 0 
L 45.40625 8.203125 
Q 42.578125 3.328125 38.25 0.953125 
Q 33.9375 -1.421875 27.875 -1.421875 
Q 17.96875 -1.421875 11.734375 6.484375 
Q 5.515625 14.40625 5.515625 27.296875 
Q 5.515625 40.1875 11.734375 48.09375 
Q 17.96875 56 27.875 56 
Q 33.9375 56 38.25 53.625 
Q 42.578125 51.265625 45.40625 46.390625 
M 14.796875 27.296875 
Q 14.796875 17.390625 18.875 11.75 
Q 22.953125 6.109375 30.078125 6.109375 
Q 37.203125 6.109375 41.296875 11.75 
Q 45.40625 17.390625 45.40625 27.296875 
Q 45.40625 37.203125 41.296875 42.84375 
Q 37.203125 48.484375 30.078125 48.484375 
Q 22.953125 48.484375 18.875 42.84375 
Q 14.796875 37.203125 14.796875 27.296875 
" id="BitstreamVeraSans-Roman-64"/>
     </defs>
     <g transform="translate(431.75625 79.96375)scale(0.08 -0.08)">
      <use xlink:href="#BitstreamVeraSans-Roman-4d"/>
      <use x="86.279296875" xlink:href="#BitstreamVeraSans-Roman-4d"/>
      <use x="172.55859375" xlink:href="#BitstreamVeraSans-Roman-20"/>
      <use x="204.345703125" xlink:href="#BitstreamVeraSans-Roman-57"/>
      <use x="303.19140625" xlink:href="#BitstreamVeraSans-Roman-69"/>
      <use x="330.974609375" xlink:href="#BitstreamVeraSans-Roman-74"/>
      <use x="370.18359375" xlink:href="#BitstreamVeraSans-Roman-68"/>
      <use x="433.5625" xlink:href="#BitstreamVeraSans-Roman-20"/>
      <use x="465.349609375" xlink:href="#BitstreamVeraSans-Roman-70"/>
      <use x="528.826171875" xlink:href="#BitstreamVeraSans-Roman-68"/>
      <use x="592.205078125" xlink:href="#BitstreamVeraSans-Roman-69"/>
      <use x="619.98828125" xlink:href="#BitstreamVeraSans-Roman-20"/>
      <use x="651.775390625" xlink:href="#BitstreamVeraSans-Roman-7a"/>
      <use x="704.265625" xlink:href="#BitstreamVeraSans-Roman-65"/>
      <use x="765.7890625" xlink:href="#BitstreamVeraSans-Roman-72"/>
      <use x="806.87109375" xlink:href="#BitstreamVeraSans-Roman-6f"/>
      <use x="868.052734375" xlink:href="#BitstreamVeraSans-Roman-65"/>
      <use x="929.576171875" xlink:href="#BitstreamVeraSans-Roman-64"/>
     </g>
    </g>
    <g id="line2d_44">
     <path d="M 411.75625 88.90625 
L 422.95625 88.90625 
" style="fill:none;stroke:#ff00ff;stroke-linecap:square;"/>
    </g>
    <g id="line2d_45">
     <g>
      <use style="fill:#ff00ff;stroke:#ff00ff;stroke-width:0.5;" x="411.75625" xlink:href="#m8b8cd3f183" y="88.90625"/>
      <use style="fill:#ff00ff;stroke:#ff00ff;stroke-width:0.5;" x="422.95625" xlink:href="#m8b8cd3f183" y="88.90625"/>
     </g>
    </g>
    <g id="text_23">
     <!-- QM-MM target -->
     <g transform="translate(431.75625 91.70625)scale(0.08 -0.08)">
      <use xlink:href="#BitstreamVeraSans-Roman-51"/>
      <use x="78.7109375" xlink:href="#BitstreamVeraSans-Roman-4d"/>
      <use x="164.990234375" xlink:href="#BitstreamVeraSans-Roman-2d"/>
      <use x="201.07421875" xlink:href="#BitstreamVeraSans-Roman-4d"/>
      <use x="287.353515625" xlink:href="#BitstreamVeraSans-Roman-4d"/>
      <use x="373.6328125" xlink:href="#BitstreamVeraSans-Roman-20"/>
      <use x="405.419921875" xlink:href="#BitstreamVeraSans-Roman-74"/>
      <use x="444.62890625" xlink:href="#BitstreamVeraSans-Roman-61"/>
      <use x="505.908203125" xlink:href="#BitstreamVeraSans-Roman-72"/>
      <use x="547.005859375" xlink:href="#BitstreamVeraSans-Roman-67"/>
      <use x="610.482421875" xlink:href="#BitstreamVeraSans-Roman-65"/>
      <use x="672.005859375" xlink:href="#BitstreamVeraSans-Roman-74"/>
     </g>
    </g>
    <g id="line2d_46">
     <path d="M 411.75625 100.64875 
L 422.95625 100.64875 
" style="fill:none;stroke:#008000;stroke-linecap:square;"/>
    </g>
    <g id="line2d_47">
     <g>
      <use style="fill:#008000;stroke:#000000;stroke-width:0.5;" x="411.75625" xlink:href="#m094cb02db3" y="100.64875"/>
      <use style="fill:#008000;stroke:#000000;stroke-width:0.5;" x="422.95625" xlink:href="#m094cb02db3" y="100.64875"/>
     </g>
    </g>
    <g id="text_24">
     <!-- MM Fitted -->
     <defs>
      <path d="M 9.8125 72.90625 
L 51.703125 72.90625 
L 51.703125 64.59375 
L 19.671875 64.59375 
L 19.671875 43.109375 
L 48.578125 43.109375 
L 48.578125 34.8125 
L 19.671875 34.8125 
L 19.671875 0 
L 9.8125 0 
z
" id="BitstreamVeraSans-Roman-46"/>
     </defs>
     <g transform="translate(431.75625 103.44875)scale(0.08 -0.08)">
      <use xlink:href="#BitstreamVeraSans-Roman-4d"/>
      <use x="86.279296875" xlink:href="#BitstreamVeraSans-Roman-4d"/>
      <use x="172.55859375" xlink:href="#BitstreamVeraSans-Roman-20"/>
      <use x="204.345703125" xlink:href="#BitstreamVeraSans-Roman-46"/>
      <use x="261.755859375" xlink:href="#BitstreamVeraSans-Roman-69"/>
      <use x="289.5390625" xlink:href="#BitstreamVeraSans-Roman-74"/>
      <use x="328.748046875" xlink:href="#BitstreamVeraSans-Roman-74"/>
      <use x="367.95703125" xlink:href="#BitstreamVeraSans-Roman-65"/>
      <use x="429.48046875" xlink:href="#BitstreamVeraSans-Roman-64"/>
     </g>
    </g>
   </g>
  </g>
 </g>
 <defs>
  <clipPath id="p8251b4ddf2">
   <rect height="345.6" width="446.4" x="72.0" y="43.2"/>
  </clipPath>
 </defs>
</svg>
