<?xml version="1.0" encoding="utf-8" standalone="no"?>
<!DOCTYPE svg PUBLIC "-//W3C//DTD SVG 1.1//EN"
  "http://www.w3.org/Graphics/SVG/1.1/DTD/svg11.dtd">
<!-- Created with matplotlib (http://matplotlib.org/) -->
<svg height="432pt" version="1.1" viewBox="0 0 576 432" width="576pt" xmlns="http://www.w3.org/2000/svg" xmlns:xlink="http://www.w3.org/1999/xlink">
 <defs>
  <style type="text/css">
*{stroke-linecap:butt;stroke-linejoin:round;stroke-miterlimit:100000;}
  </style>
 </defs>
 <g id="figure_1">
  <g id="patch_1">
   <path d="M 0 432 
L 576 432 
L 576 0 
L 0 0 
z
" style="fill:#ffffff;"/>
  </g>
  <g id="axes_1">
   <g id="patch_2">
    <path d="M 72 388.8 
L 518.4 388.8 
L 518.4 43.2 
L 72 43.2 
z
" style="fill:#ffffff;"/>
   </g>
   <g id="line2d_1">
    <path clip-path="url(#padb8c9173b)" d="M 72.00093 388.8 
L 84.399977 385.997918 
L 96.800017 372.279452 
L 109.199999 349.086424 
L 121.600005 324.497341 
L 133.999975 305.049124 
L 146.399988 293.820822 
L 158.800005 290.264809 
L 171.200027 290.657483 
L 183.600002 288.563281 
L 196.000009 278.114129 
L 208.400021 267.159238 
L 220.800014 267.115051 
L 233.200019 260.732526 
L 245.599987 243.878101 
L 258.000028 219.587989 
L 270.40001 193.71204 
L 282.800031 173.33597 
L 295.200391 165.401746 
L 307.600021 173.338108 
L 319.999998 193.707374 
L 332.400011 219.595108 
L 344.799987 243.867935 
L 357.199995 260.73505 
L 369.600003 267.126589 
L 382.000014 267.15618 
L 394.399983 278.112867 
L 406.799998 288.568177 
L 419.199971 290.6532 
L 431.600005 290.271154 
L 443.999981 293.82319 
L 456.39999 305.049093 
L 468.799993 324.496756 
L 481.199994 349.143487 
L 493.599976 372.281143 
L 505.999978 386.004725 
" style="fill:none;stroke:#ff0000;stroke-linecap:square;"/>
    <defs>
     <path d="M 0 3 
C 0.795609 3 1.55874 2.683901 2.12132 2.12132 
C 2.683901 1.55874 3 0.795609 3 0 
C 3 -0.795609 2.683901 -1.55874 2.12132 -2.12132 
C 1.55874 -2.683901 0.795609 -3 0 -3 
C -0.795609 -3 -1.55874 -2.683901 -2.12132 -2.12132 
C -2.683901 -1.55874 -3 -0.795609 -3 0 
C -3 0.795609 -2.683901 1.55874 -2.12132 2.12132 
C -1.55874 2.683901 -0.795609 3 0 3 
z
" id="md1fdae9540" style="stroke:#000000;stroke-width:0.5;"/>
    </defs>
    <g clip-path="url(#padb8c9173b)">
     <use style="fill:#ff0000;stroke:#000000;stroke-width:0.5;" x="72.00093006" xlink:href="#md1fdae9540" y="388.8"/>
     <use style="fill:#ff0000;stroke:#000000;stroke-width:0.5;" x="84.3999770157" xlink:href="#md1fdae9540" y="385.997917664"/>
     <use style="fill:#ff0000;stroke:#000000;stroke-width:0.5;" x="96.8000165624" xlink:href="#md1fdae9540" y="372.279452033"/>
     <use style="fill:#ff0000;stroke:#000000;stroke-width:0.5;" x="109.199999177" xlink:href="#md1fdae9540" y="349.086423507"/>
     <use style="fill:#ff0000;stroke:#000000;stroke-width:0.5;" x="121.600004926" xlink:href="#md1fdae9540" y="324.497340759"/>
     <use style="fill:#ff0000;stroke:#000000;stroke-width:0.5;" x="133.999975029" xlink:href="#md1fdae9540" y="305.049123766"/>
     <use style="fill:#ff0000;stroke:#000000;stroke-width:0.5;" x="146.399987789" xlink:href="#md1fdae9540" y="293.8208216"/>
     <use style="fill:#ff0000;stroke:#000000;stroke-width:0.5;" x="158.80000512" xlink:href="#md1fdae9540" y="290.264808802"/>
     <use style="fill:#ff0000;stroke:#000000;stroke-width:0.5;" x="171.200027169" xlink:href="#md1fdae9540" y="290.657483069"/>
     <use style="fill:#ff0000;stroke:#000000;stroke-width:0.5;" x="183.600002101" xlink:href="#md1fdae9540" y="288.563280644"/>
     <use style="fill:#ff0000;stroke:#000000;stroke-width:0.5;" x="196.00000932" xlink:href="#md1fdae9540" y="278.114128952"/>
     <use style="fill:#ff0000;stroke:#000000;stroke-width:0.5;" x="208.400021227" xlink:href="#md1fdae9540" y="267.159237689"/>
     <use style="fill:#ff0000;stroke:#000000;stroke-width:0.5;" x="220.800014059" xlink:href="#md1fdae9540" y="267.115051125"/>
     <use style="fill:#ff0000;stroke:#000000;stroke-width:0.5;" x="233.20001916" xlink:href="#md1fdae9540" y="260.732525758"/>
     <use style="fill:#ff0000;stroke:#000000;stroke-width:0.5;" x="245.59998744" xlink:href="#md1fdae9540" y="243.87810133"/>
     <use style="fill:#ff0000;stroke:#000000;stroke-width:0.5;" x="258.000027945" xlink:href="#md1fdae9540" y="219.587988663"/>
     <use style="fill:#ff0000;stroke:#000000;stroke-width:0.5;" x="270.400009993" xlink:href="#md1fdae9540" y="193.712040263"/>
     <use style="fill:#ff0000;stroke:#000000;stroke-width:0.5;" x="282.800031458" xlink:href="#md1fdae9540" y="173.33597021"/>
     <use style="fill:#ff0000;stroke:#000000;stroke-width:0.5;" x="295.200391343" xlink:href="#md1fdae9540" y="165.401746036"/>
     <use style="fill:#ff0000;stroke:#000000;stroke-width:0.5;" x="307.600020533" xlink:href="#md1fdae9540" y="173.338108329"/>
     <use style="fill:#ff0000;stroke:#000000;stroke-width:0.5;" x="319.999998456" xlink:href="#md1fdae9540" y="193.707374456"/>
     <use style="fill:#ff0000;stroke:#000000;stroke-width:0.5;" x="332.400011313" xlink:href="#md1fdae9540" y="219.595108165"/>
     <use style="fill:#ff0000;stroke:#000000;stroke-width:0.5;" x="344.799986591" xlink:href="#md1fdae9540" y="243.867934991"/>
     <use style="fill:#ff0000;stroke:#000000;stroke-width:0.5;" x="357.199995342" xlink:href="#md1fdae9540" y="260.735049802"/>
     <use style="fill:#ff0000;stroke:#000000;stroke-width:0.5;" x="369.600002514" xlink:href="#md1fdae9540" y="267.126589233"/>
     <use style="fill:#ff0000;stroke:#000000;stroke-width:0.5;" x="382.000013808" xlink:href="#md1fdae9540" y="267.156180067"/>
     <use style="fill:#ff0000;stroke:#000000;stroke-width:0.5;" x="394.399982777" xlink:href="#md1fdae9540" y="278.112866791"/>
     <use style="fill:#ff0000;stroke:#000000;stroke-width:0.5;" x="406.799998118" xlink:href="#md1fdae9540" y="288.568176947"/>
     <use style="fill:#ff0000;stroke:#000000;stroke-width:0.5;" x="419.19997084" xlink:href="#md1fdae9540" y="290.653199626"/>
     <use style="fill:#ff0000;stroke:#000000;stroke-width:0.5;" x="431.600005053" xlink:href="#md1fdae9540" y="290.271154401"/>
     <use style="fill:#ff0000;stroke:#000000;stroke-width:0.5;" x="443.999981028" xlink:href="#md1fdae9540" y="293.823190112"/>
     <use style="fill:#ff0000;stroke:#000000;stroke-width:0.5;" x="456.399990409" xlink:href="#md1fdae9540" y="305.049092596"/>
     <use style="fill:#ff0000;stroke:#000000;stroke-width:0.5;" x="468.799993155" xlink:href="#md1fdae9540" y="324.496756306"/>
     <use style="fill:#ff0000;stroke:#000000;stroke-width:0.5;" x="481.199994477" xlink:href="#md1fdae9540" y="349.143486795"/>
     <use style="fill:#ff0000;stroke:#000000;stroke-width:0.5;" x="493.599976238" xlink:href="#md1fdae9540" y="372.281142629"/>
     <use style="fill:#ff0000;stroke:#000000;stroke-width:0.5;" x="505.999978369" xlink:href="#md1fdae9540" y="386.004725198"/>
    </g>
   </g>
   <g id="line2d_2">
    <path clip-path="url(#padb8c9173b)" d="M 72.00093 388.8 
L 84.399977 379.981388 
L 96.800017 360.136746 
L 109.199999 332.895515 
L 121.600005 301.151545 
L 133.999975 272.569839 
L 146.399988 249.908874 
L 158.800005 233.161621 
L 171.200027 221.478303 
L 183.600002 209.687482 
L 196.000009 194.091647 
L 208.400021 184.159067 
L 220.800014 176.504524 
L 233.200019 163.589551 
L 245.599987 143.339399 
L 258.000028 119.744204 
L 270.40001 96.906052 
L 282.800031 81.166142 
L 295.200391 75.435798 
L 307.600021 80.983352 
L 319.999998 96.938813 
L 332.400011 119.269275 
L 344.799987 143.302838 
L 357.199995 163.592649 
L 369.600003 176.479135 
L 382.000014 183.855525 
L 394.399983 194.295802 
L 406.799998 210.07352 
L 419.199971 221.194087 
L 431.600005 233.291212 
L 443.999981 249.883033 
L 456.39999 272.581699 
L 468.799993 301.111576 
L 481.199994 332.620892 
L 493.599976 360.067383 
L 505.999978 379.699417 
" style="fill:none;stroke:#0000ff;stroke-linecap:square;"/>
    <defs>
     <path d="M 0 3 
C 0.795609 3 1.55874 2.683901 2.12132 2.12132 
C 2.683901 1.55874 3 0.795609 3 0 
C 3 -0.795609 2.683901 -1.55874 2.12132 -2.12132 
C 1.55874 -2.683901 0.795609 -3 0 -3 
C -0.795609 -3 -1.55874 -2.683901 -2.12132 -2.12132 
C -2.683901 -1.55874 -3 -0.795609 -3 0 
C -3 0.795609 -2.683901 1.55874 -2.12132 2.12132 
C -1.55874 2.683901 -0.795609 3 0 3 
z
" id="m8b5e4e4926" style="stroke:#000000;stroke-width:0.5;"/>
    </defs>
    <g clip-path="url(#padb8c9173b)">
     <use style="fill:#0000ff;stroke:#000000;stroke-width:0.5;" x="72.00093006" xlink:href="#m8b5e4e4926" y="388.8"/>
     <use style="fill:#0000ff;stroke:#000000;stroke-width:0.5;" x="84.3999770157" xlink:href="#m8b5e4e4926" y="379.981388051"/>
     <use style="fill:#0000ff;stroke:#000000;stroke-width:0.5;" x="96.8000165624" xlink:href="#m8b5e4e4926" y="360.136745701"/>
     <use style="fill:#0000ff;stroke:#000000;stroke-width:0.5;" x="109.199999177" xlink:href="#m8b5e4e4926" y="332.895514677"/>
     <use style="fill:#0000ff;stroke:#000000;stroke-width:0.5;" x="121.600004926" xlink:href="#m8b5e4e4926" y="301.151544729"/>
     <use style="fill:#0000ff;stroke:#000000;stroke-width:0.5;" x="133.999975029" xlink:href="#m8b5e4e4926" y="272.569839481"/>
     <use style="fill:#0000ff;stroke:#000000;stroke-width:0.5;" x="146.399987789" xlink:href="#m8b5e4e4926" y="249.908874445"/>
     <use style="fill:#0000ff;stroke:#000000;stroke-width:0.5;" x="158.80000512" xlink:href="#m8b5e4e4926" y="233.161621422"/>
     <use style="fill:#0000ff;stroke:#000000;stroke-width:0.5;" x="171.200027169" xlink:href="#m8b5e4e4926" y="221.478303379"/>
     <use style="fill:#0000ff;stroke:#000000;stroke-width:0.5;" x="183.600002101" xlink:href="#m8b5e4e4926" y="209.687481568"/>
     <use style="fill:#0000ff;stroke:#000000;stroke-width:0.5;" x="196.00000932" xlink:href="#m8b5e4e4926" y="194.091646675"/>
     <use style="fill:#0000ff;stroke:#000000;stroke-width:0.5;" x="208.400021227" xlink:href="#m8b5e4e4926" y="184.159066824"/>
     <use style="fill:#0000ff;stroke:#000000;stroke-width:0.5;" x="220.800014059" xlink:href="#m8b5e4e4926" y="176.504523609"/>
     <use style="fill:#0000ff;stroke:#000000;stroke-width:0.5;" x="233.20001916" xlink:href="#m8b5e4e4926" y="163.589551181"/>
     <use style="fill:#0000ff;stroke:#000000;stroke-width:0.5;" x="245.59998744" xlink:href="#m8b5e4e4926" y="143.339398754"/>
     <use style="fill:#0000ff;stroke:#000000;stroke-width:0.5;" x="258.000027945" xlink:href="#m8b5e4e4926" y="119.744204061"/>
     <use style="fill:#0000ff;stroke:#000000;stroke-width:0.5;" x="270.400009993" xlink:href="#m8b5e4e4926" y="96.9060518688"/>
     <use style="fill:#0000ff;stroke:#000000;stroke-width:0.5;" x="282.800031458" xlink:href="#m8b5e4e4926" y="81.1661421504"/>
     <use style="fill:#0000ff;stroke:#000000;stroke-width:0.5;" x="295.200391343" xlink:href="#m8b5e4e4926" y="75.4357979862"/>
     <use style="fill:#0000ff;stroke:#000000;stroke-width:0.5;" x="307.600020533" xlink:href="#m8b5e4e4926" y="80.9833515093"/>
     <use style="fill:#0000ff;stroke:#000000;stroke-width:0.5;" x="319.999998456" xlink:href="#m8b5e4e4926" y="96.9388134158"/>
     <use style="fill:#0000ff;stroke:#000000;stroke-width:0.5;" x="332.400011313" xlink:href="#m8b5e4e4926" y="119.26927484"/>
     <use style="fill:#0000ff;stroke:#000000;stroke-width:0.5;" x="344.799986591" xlink:href="#m8b5e4e4926" y="143.302838423"/>
     <use style="fill:#0000ff;stroke:#000000;stroke-width:0.5;" x="357.199995342" xlink:href="#m8b5e4e4926" y="163.592648597"/>
     <use style="fill:#0000ff;stroke:#000000;stroke-width:0.5;" x="369.600002514" xlink:href="#m8b5e4e4926" y="176.479135039"/>
     <use style="fill:#0000ff;stroke:#000000;stroke-width:0.5;" x="382.000013808" xlink:href="#m8b5e4e4926" y="183.855524791"/>
     <use style="fill:#0000ff;stroke:#000000;stroke-width:0.5;" x="394.399982777" xlink:href="#m8b5e4e4926" y="194.295801855"/>
     <use style="fill:#0000ff;stroke:#000000;stroke-width:0.5;" x="406.799998118" xlink:href="#m8b5e4e4926" y="210.073520144"/>
     <use style="fill:#0000ff;stroke:#000000;stroke-width:0.5;" x="419.19997084" xlink:href="#m8b5e4e4926" y="221.194087474"/>
     <use style="fill:#0000ff;stroke:#000000;stroke-width:0.5;" x="431.600005053" xlink:href="#m8b5e4e4926" y="233.291212478"/>
     <use style="fill:#0000ff;stroke:#000000;stroke-width:0.5;" x="443.999981028" xlink:href="#m8b5e4e4926" y="249.883032776"/>
     <use style="fill:#0000ff;stroke:#000000;stroke-width:0.5;" x="456.399990409" xlink:href="#m8b5e4e4926" y="272.581698951"/>
     <use style="fill:#0000ff;stroke:#000000;stroke-width:0.5;" x="468.799993155" xlink:href="#m8b5e4e4926" y="301.111575523"/>
     <use style="fill:#0000ff;stroke:#000000;stroke-width:0.5;" x="481.199994477" xlink:href="#m8b5e4e4926" y="332.620892015"/>
     <use style="fill:#0000ff;stroke:#000000;stroke-width:0.5;" x="493.599976238" xlink:href="#m8b5e4e4926" y="360.067382865"/>
     <use style="fill:#0000ff;stroke:#000000;stroke-width:0.5;" x="505.999978369" xlink:href="#m8b5e4e4926" y="379.699416771"/>
    </g>
   </g>
   <g id="line2d_3">
    <path clip-path="url(#padb8c9173b)" d="M 72.00093 388.8 
L 84.399977 380.229345 
L 96.800017 361.095382 
L 109.199999 335.016153 
L 121.600005 304.945748 
L 133.999975 278.601528 
L 146.399988 258.775725 
L 158.800005 245.419099 
L 171.200027 237.558518 
L 183.600002 229.670689 
L 196.000009 217.673731 
L 208.400021 211.360762 
L 220.800014 207.551303 
L 233.200019 197.60668 
L 245.599987 179.525139 
L 258.000028 157.375549 
L 270.40001 135.346204 
L 282.800031 119.97387 
L 295.200391 114.318595 
L 307.600021 119.786562 
L 319.999998 135.388016 
L 332.400011 156.879043 
L 344.799987 179.471907 
L 357.199995 197.620669 
L 369.600003 207.512597 
L 382.000014 211.034165 
L 394.399983 217.879298 
L 406.799998 230.061531 
L 419.199971 237.272665 
L 431.600005 245.550614 
L 443.999981 258.748793 
L 456.39999 278.615221 
L 468.799993 304.909323 
L 481.199994 334.748609 
L 493.599976 361.022344 
L 505.999978 379.947635 
" style="fill:none;stroke:#000000;stroke-linecap:square;"/>
    <defs>
     <path d="M -3 3 
L 3 -3 
M -3 -3 
L 3 3 
" id="m9703f22c25" style="stroke:#000000;stroke-width:0.5;"/>
    </defs>
    <g clip-path="url(#padb8c9173b)">
     <use style="stroke:#000000;stroke-width:0.5;" x="72.00093006" xlink:href="#m9703f22c25" y="388.8"/>
     <use style="stroke:#000000;stroke-width:0.5;" x="84.3999770157" xlink:href="#m9703f22c25" y="380.229344977"/>
     <use style="stroke:#000000;stroke-width:0.5;" x="96.8000165624" xlink:href="#m9703f22c25" y="361.09538239"/>
     <use style="stroke:#000000;stroke-width:0.5;" x="109.199999177" xlink:href="#m9703f22c25" y="335.016153365"/>
     <use style="stroke:#000000;stroke-width:0.5;" x="121.600004926" xlink:href="#m9703f22c25" y="304.945747639"/>
     <use style="stroke:#000000;stroke-width:0.5;" x="133.999975029" xlink:href="#m9703f22c25" y="278.601528234"/>
     <use style="stroke:#000000;stroke-width:0.5;" x="146.399987789" xlink:href="#m9703f22c25" y="258.775724791"/>
     <use style="stroke:#000000;stroke-width:0.5;" x="158.80000512" xlink:href="#m9703f22c25" y="245.419098743"/>
     <use style="stroke:#000000;stroke-width:0.5;" x="171.200027169" xlink:href="#m9703f22c25" y="237.558517948"/>
     <use style="stroke:#000000;stroke-width:0.5;" x="183.600002101" xlink:href="#m9703f22c25" y="229.670688651"/>
     <use style="stroke:#000000;stroke-width:0.5;" x="196.00000932" xlink:href="#m9703f22c25" y="217.673731011"/>
     <use style="stroke:#000000;stroke-width:0.5;" x="208.400021227" xlink:href="#m9703f22c25" y="211.36076229"/>
     <use style="stroke:#000000;stroke-width:0.5;" x="220.800014059" xlink:href="#m9703f22c25" y="207.551302686"/>
     <use style="stroke:#000000;stroke-width:0.5;" x="233.20001916" xlink:href="#m9703f22c25" y="197.606680083"/>
     <use style="stroke:#000000;stroke-width:0.5;" x="245.59998744" xlink:href="#m9703f22c25" y="179.52513924"/>
     <use style="stroke:#000000;stroke-width:0.5;" x="258.000027945" xlink:href="#m9703f22c25" y="157.375548635"/>
     <use style="stroke:#000000;stroke-width:0.5;" x="270.400009993" xlink:href="#m9703f22c25" y="135.346204375"/>
     <use style="stroke:#000000;stroke-width:0.5;" x="282.800031458" xlink:href="#m9703f22c25" y="119.973870299"/>
     <use style="stroke:#000000;stroke-width:0.5;" x="295.200391343" xlink:href="#m9703f22c25" y="114.318594539"/>
     <use style="stroke:#000000;stroke-width:0.5;" x="307.600020533" xlink:href="#m9703f22c25" y="119.786562242"/>
     <use style="stroke:#000000;stroke-width:0.5;" x="319.999998456" xlink:href="#m9703f22c25" y="135.388016331"/>
     <use style="stroke:#000000;stroke-width:0.5;" x="332.400011313" xlink:href="#m9703f22c25" y="156.879043464"/>
     <use style="stroke:#000000;stroke-width:0.5;" x="344.799986591" xlink:href="#m9703f22c25" y="179.471907297"/>
     <use style="stroke:#000000;stroke-width:0.5;" x="357.199995342" xlink:href="#m9703f22c25" y="197.620668797"/>
     <use style="stroke:#000000;stroke-width:0.5;" x="369.600002514" xlink:href="#m9703f22c25" y="207.512596923"/>
     <use style="stroke:#000000;stroke-width:0.5;" x="382.000013808" xlink:href="#m9703f22c25" y="211.034164894"/>
     <use style="stroke:#000000;stroke-width:0.5;" x="394.399982777" xlink:href="#m9703f22c25" y="217.879298163"/>
     <use style="stroke:#000000;stroke-width:0.5;" x="406.799998118" xlink:href="#m9703f22c25" y="230.061530572"/>
     <use style="stroke:#000000;stroke-width:0.5;" x="419.19997084" xlink:href="#m9703f22c25" y="237.272665395"/>
     <use style="stroke:#000000;stroke-width:0.5;" x="431.600005053" xlink:href="#m9703f22c25" y="245.550613673"/>
     <use style="stroke:#000000;stroke-width:0.5;" x="443.999981028" xlink:href="#m9703f22c25" y="258.748793129"/>
     <use style="stroke:#000000;stroke-width:0.5;" x="456.399990409" xlink:href="#m9703f22c25" y="278.615220768"/>
     <use style="stroke:#000000;stroke-width:0.5;" x="468.799993155" xlink:href="#m9703f22c25" y="304.909323391"/>
     <use style="stroke:#000000;stroke-width:0.5;" x="481.199994477" xlink:href="#m9703f22c25" y="334.748608983"/>
     <use style="stroke:#000000;stroke-width:0.5;" x="493.599976238" xlink:href="#m9703f22c25" y="361.022344194"/>
     <use style="stroke:#000000;stroke-width:0.5;" x="505.999978369" xlink:href="#m9703f22c25" y="379.947635217"/>
    </g>
   </g>
   <g id="line2d_4">
    <path clip-path="url(#padb8c9173b)" d="M 72.00093 324.403972 
L 84.399977 330.172545 
L 96.800017 335.588042 
L 109.199999 338.474242 
L 121.600005 343.955565 
L 133.999975 350.851568 
L 146.399988 359.449069 
L 158.800005 369.249682 
L 171.200027 377.502937 
L 183.600002 383.296564 
L 196.000009 384.84437 
L 208.400021 380.202448 
L 220.800014 383.967721 
L 233.200019 387.529818 
L 245.599987 388.756934 
L 258.000028 386.616412 
L 270.40001 382.769808 
L 282.800031 377.766072 
L 295.200391 375.487124 
L 307.600021 377.955518 
L 319.999998 382.72333 
L 332.400011 387.120037 
L 344.799987 388.8 
L 357.199995 387.518353 
L 369.600003 384.017965 
L 382.000014 380.525987 
L 394.399983 384.637541 
L 406.799998 382.910619 
L 419.199971 377.784507 
L 431.600005 369.124513 
L 443.999981 359.478369 
L 456.39999 350.837844 
L 468.799993 343.991405 
L 481.199994 338.79885 
L 493.599976 335.662771 
L 505.999978 330.461062 
" style="fill:none;stroke:#ff00ff;stroke-linecap:square;"/>
    <defs>
     <path d="M -3 3 
L 3 -3 
M -3 -3 
L 3 3 
" id="m166a4df3c9" style="stroke:#ff00ff;stroke-width:0.5;"/>
    </defs>
    <g clip-path="url(#padb8c9173b)">
     <use style="fill:#ff00ff;stroke:#ff00ff;stroke-width:0.5;" x="72.00093006" xlink:href="#m166a4df3c9" y="324.403972306"/>
     <use style="fill:#ff00ff;stroke:#ff00ff;stroke-width:0.5;" x="84.3999770157" xlink:href="#m166a4df3c9" y="330.172544993"/>
     <use style="fill:#ff00ff;stroke:#ff00ff;stroke-width:0.5;" x="96.8000165624" xlink:href="#m166a4df3c9" y="335.588041948"/>
     <use style="fill:#ff00ff;stroke:#ff00ff;stroke-width:0.5;" x="109.199999177" xlink:href="#m166a4df3c9" y="338.474242448"/>
     <use style="fill:#ff00ff;stroke:#ff00ff;stroke-width:0.5;" x="121.600004926" xlink:href="#m166a4df3c9" y="343.955565425"/>
     <use style="fill:#ff00ff;stroke:#ff00ff;stroke-width:0.5;" x="133.999975029" xlink:href="#m166a4df3c9" y="350.851567837"/>
     <use style="fill:#ff00ff;stroke:#ff00ff;stroke-width:0.5;" x="146.399987789" xlink:href="#m166a4df3c9" y="359.449069115"/>
     <use style="fill:#ff00ff;stroke:#ff00ff;stroke-width:0.5;" x="158.80000512" xlink:href="#m166a4df3c9" y="369.249682365"/>
     <use style="fill:#ff00ff;stroke:#ff00ff;stroke-width:0.5;" x="171.200027169" xlink:href="#m166a4df3c9" y="377.502937427"/>
     <use style="fill:#ff00ff;stroke:#ff00ff;stroke-width:0.5;" x="183.600002101" xlink:href="#m166a4df3c9" y="383.296564298"/>
     <use style="fill:#ff00ff;stroke:#ff00ff;stroke-width:0.5;" x="196.00000932" xlink:href="#m166a4df3c9" y="384.844370246"/>
     <use style="fill:#ff00ff;stroke:#ff00ff;stroke-width:0.5;" x="208.400021227" xlink:href="#m166a4df3c9" y="380.202447704"/>
     <use style="fill:#ff00ff;stroke:#ff00ff;stroke-width:0.5;" x="220.800014059" xlink:href="#m166a4df3c9" y="383.967720745"/>
     <use style="fill:#ff00ff;stroke:#ff00ff;stroke-width:0.5;" x="233.20001916" xlink:href="#m166a4df3c9" y="387.529817981"/>
     <use style="fill:#ff00ff;stroke:#ff00ff;stroke-width:0.5;" x="245.59998744" xlink:href="#m166a4df3c9" y="388.756934396"/>
     <use style="fill:#ff00ff;stroke:#ff00ff;stroke-width:0.5;" x="258.000027945" xlink:href="#m166a4df3c9" y="386.616412334"/>
     <use style="fill:#ff00ff;stroke:#ff00ff;stroke-width:0.5;" x="270.400009993" xlink:href="#m166a4df3c9" y="382.769808194"/>
     <use style="fill:#ff00ff;stroke:#ff00ff;stroke-width:0.5;" x="282.800031458" xlink:href="#m166a4df3c9" y="377.766072217"/>
     <use style="fill:#ff00ff;stroke:#ff00ff;stroke-width:0.5;" x="295.200391343" xlink:href="#m166a4df3c9" y="375.487123803"/>
     <use style="fill:#ff00ff;stroke:#ff00ff;stroke-width:0.5;" x="307.600020533" xlink:href="#m166a4df3c9" y="377.955518392"/>
     <use style="fill:#ff00ff;stroke:#ff00ff;stroke-width:0.5;" x="319.999998456" xlink:href="#m166a4df3c9" y="382.72333043"/>
     <use style="fill:#ff00ff;stroke:#ff00ff;stroke-width:0.5;" x="332.400011313" xlink:href="#m166a4df3c9" y="387.120037006"/>
     <use style="fill:#ff00ff;stroke:#ff00ff;stroke-width:0.5;" x="344.799986591" xlink:href="#m166a4df3c9" y="388.8"/>
     <use style="fill:#ff00ff;stroke:#ff00ff;stroke-width:0.5;" x="357.199995342" xlink:href="#m166a4df3c9" y="387.518353311"/>
     <use style="fill:#ff00ff;stroke:#ff00ff;stroke-width:0.5;" x="369.600002514" xlink:href="#m166a4df3c9" y="384.017964615"/>
     <use style="fill:#ff00ff;stroke:#ff00ff;stroke-width:0.5;" x="382.000013808" xlink:href="#m166a4df3c9" y="380.525987478"/>
     <use style="fill:#ff00ff;stroke:#ff00ff;stroke-width:0.5;" x="394.399982777" xlink:href="#m166a4df3c9" y="384.637540934"/>
     <use style="fill:#ff00ff;stroke:#ff00ff;stroke-width:0.5;" x="406.799998118" xlink:href="#m166a4df3c9" y="382.91061868"/>
     <use style="fill:#ff00ff;stroke:#ff00ff;stroke-width:0.5;" x="419.19997084" xlink:href="#m166a4df3c9" y="377.784506537"/>
     <use style="fill:#ff00ff;stroke:#ff00ff;stroke-width:0.5;" x="431.600005053" xlink:href="#m166a4df3c9" y="369.124513034"/>
     <use style="fill:#ff00ff;stroke:#ff00ff;stroke-width:0.5;" x="443.999981028" xlink:href="#m166a4df3c9" y="359.478369289"/>
     <use style="fill:#ff00ff;stroke:#ff00ff;stroke-width:0.5;" x="456.399990409" xlink:href="#m166a4df3c9" y="350.837844134"/>
     <use style="fill:#ff00ff;stroke:#ff00ff;stroke-width:0.5;" x="468.799993155" xlink:href="#m166a4df3c9" y="343.99140522"/>
     <use style="fill:#ff00ff;stroke:#ff00ff;stroke-width:0.5;" x="481.199994477" xlink:href="#m166a4df3c9" y="338.798850118"/>
     <use style="fill:#ff00ff;stroke:#ff00ff;stroke-width:0.5;" x="493.599976238" xlink:href="#m166a4df3c9" y="335.66277074"/>
     <use style="fill:#ff00ff;stroke:#ff00ff;stroke-width:0.5;" x="505.999978369" xlink:href="#m166a4df3c9" y="330.461062286"/>
    </g>
   </g>
   <g id="line2d_5">
    <path clip-path="url(#padb8c9173b)" d="M 72.00093 388.8 
L 84.399977 381.995162 
L 96.800017 367.261307 
L 109.199999 346.475683 
L 121.600005 321.813027 
L 133.999975 301.809516 
L 146.399988 290.347247 
L 158.800005 286.816026 
L 171.200027 287.685605 
L 183.600002 284.768614 
L 196.000009 273.630705 
L 208.400021 266.50122 
L 220.800014 263.249504 
L 233.200019 256.008454 
L 245.599987 240.479705 
L 258.000028 217.606043 
L 270.40001 190.879738 
L 282.800031 169.725099 
L 295.200391 161.472787 
L 307.600021 169.537811 
L 319.999998 190.921554 
L 332.400011 217.109547 
L 344.799987 240.426476 
L 357.199995 256.022439 
L 369.600003 263.210796 
L 382.000014 266.174624 
L 394.399983 273.836272 
L 406.799998 285.159456 
L 419.199971 287.399754 
L 431.600005 286.947533 
L 443.999981 290.320339 
L 456.39999 301.823228 
L 468.799993 321.776604 
L 481.199994 346.208141 
L 493.599976 367.188272 
L 505.999978 381.713464 
" style="fill:none;stroke:#008000;stroke-linecap:square;"/>
    <defs>
     <path d="M 0 3 
C 0.795609 3 1.55874 2.683901 2.12132 2.12132 
C 2.683901 1.55874 3 0.795609 3 0 
C 3 -0.795609 2.683901 -1.55874 2.12132 -2.12132 
C 1.55874 -2.683901 0.795609 -3 0 -3 
C -0.795609 -3 -1.55874 -2.683901 -2.12132 -2.12132 
C -2.683901 -1.55874 -3 -0.795609 -3 0 
C -3 0.795609 -2.683901 1.55874 -2.12132 2.12132 
C -1.55874 2.683901 -0.795609 3 0 3 
z
" id="m28d0acb1a2" style="stroke:#000000;stroke-width:0.5;"/>
    </defs>
    <g clip-path="url(#padb8c9173b)">
     <use style="fill:#008000;stroke:#000000;stroke-width:0.5;" x="72.00093006" xlink:href="#m28d0acb1a2" y="388.8"/>
     <use style="fill:#008000;stroke:#000000;stroke-width:0.5;" x="84.3999770157" xlink:href="#m28d0acb1a2" y="381.995162047"/>
     <use style="fill:#008000;stroke:#000000;stroke-width:0.5;" x="96.8000165624" xlink:href="#m28d0acb1a2" y="367.261306866"/>
     <use style="fill:#008000;stroke:#000000;stroke-width:0.5;" x="109.199999177" xlink:href="#m28d0acb1a2" y="346.475683027"/>
     <use style="fill:#008000;stroke:#000000;stroke-width:0.5;" x="121.600004926" xlink:href="#m28d0acb1a2" y="321.813026919"/>
     <use style="fill:#008000;stroke:#000000;stroke-width:0.5;" x="133.999975029" xlink:href="#m28d0acb1a2" y="301.809515659"/>
     <use style="fill:#008000;stroke:#000000;stroke-width:0.5;" x="146.399987789" xlink:href="#m28d0acb1a2" y="290.347246798"/>
     <use style="fill:#008000;stroke:#000000;stroke-width:0.5;" x="158.80000512" xlink:href="#m28d0acb1a2" y="286.816025669"/>
     <use style="fill:#008000;stroke:#000000;stroke-width:0.5;" x="171.200027169" xlink:href="#m28d0acb1a2" y="287.685605473"/>
     <use style="fill:#008000;stroke:#000000;stroke-width:0.5;" x="183.600002101" xlink:href="#m28d0acb1a2" y="284.76861367"/>
     <use style="fill:#008000;stroke:#000000;stroke-width:0.5;" x="196.00000932" xlink:href="#m28d0acb1a2" y="273.63070473"/>
     <use style="fill:#008000;stroke:#000000;stroke-width:0.5;" x="208.400021227" xlink:href="#m28d0acb1a2" y="266.5012204"/>
     <use style="fill:#008000;stroke:#000000;stroke-width:0.5;" x="220.800014059" xlink:href="#m28d0acb1a2" y="263.249503759"/>
     <use style="fill:#008000;stroke:#000000;stroke-width:0.5;" x="233.20001916" xlink:href="#m28d0acb1a2" y="256.008454344"/>
     <use style="fill:#008000;stroke:#000000;stroke-width:0.5;" x="245.59998744" xlink:href="#m28d0acb1a2" y="240.479704985"/>
     <use style="fill:#008000;stroke:#000000;stroke-width:0.5;" x="258.000027945" xlink:href="#m28d0acb1a2" y="217.606042811"/>
     <use style="fill:#008000;stroke:#000000;stroke-width:0.5;" x="270.400009993" xlink:href="#m28d0acb1a2" y="190.879738156"/>
     <use style="fill:#008000;stroke:#000000;stroke-width:0.5;" x="282.800031458" xlink:href="#m28d0acb1a2" y="169.725099161"/>
     <use style="fill:#008000;stroke:#000000;stroke-width:0.5;" x="295.200391343" xlink:href="#m28d0acb1a2" y="161.472787293"/>
     <use style="fill:#008000;stroke:#000000;stroke-width:0.5;" x="307.600020533" xlink:href="#m28d0acb1a2" y="169.537811336"/>
     <use style="fill:#008000;stroke:#000000;stroke-width:0.5;" x="319.999998456" xlink:href="#m28d0acb1a2" y="190.921554172"/>
     <use style="fill:#008000;stroke:#000000;stroke-width:0.5;" x="332.400011313" xlink:href="#m28d0acb1a2" y="217.109546864"/>
     <use style="fill:#008000;stroke:#000000;stroke-width:0.5;" x="344.799986591" xlink:href="#m28d0acb1a2" y="240.42647582"/>
     <use style="fill:#008000;stroke:#000000;stroke-width:0.5;" x="357.199995342" xlink:href="#m28d0acb1a2" y="256.022439321"/>
     <use style="fill:#008000;stroke:#000000;stroke-width:0.5;" x="369.600002514" xlink:href="#m28d0acb1a2" y="263.210795609"/>
     <use style="fill:#008000;stroke:#000000;stroke-width:0.5;" x="382.000013808" xlink:href="#m28d0acb1a2" y="266.174624491"/>
     <use style="fill:#008000;stroke:#000000;stroke-width:0.5;" x="394.399982777" xlink:href="#m28d0acb1a2" y="273.836271536"/>
     <use style="fill:#008000;stroke:#000000;stroke-width:0.5;" x="406.799998118" xlink:href="#m28d0acb1a2" y="285.159455543"/>
     <use style="fill:#008000;stroke:#000000;stroke-width:0.5;" x="419.19997084" xlink:href="#m28d0acb1a2" y="287.399754071"/>
     <use style="fill:#008000;stroke:#000000;stroke-width:0.5;" x="431.600005053" xlink:href="#m28d0acb1a2" y="286.947532556"/>
     <use style="fill:#008000;stroke:#000000;stroke-width:0.5;" x="443.999981028" xlink:href="#m28d0acb1a2" y="290.320338736"/>
     <use style="fill:#008000;stroke:#000000;stroke-width:0.5;" x="456.399990409" xlink:href="#m28d0acb1a2" y="301.823228419"/>
     <use style="fill:#008000;stroke:#000000;stroke-width:0.5;" x="468.799993155" xlink:href="#m28d0acb1a2" y="321.776603544"/>
     <use style="fill:#008000;stroke:#000000;stroke-width:0.5;" x="481.199994477" xlink:href="#m28d0acb1a2" y="346.208141375"/>
     <use style="fill:#008000;stroke:#000000;stroke-width:0.5;" x="493.599976238" xlink:href="#m28d0acb1a2" y="367.188271638"/>
     <use style="fill:#008000;stroke:#000000;stroke-width:0.5;" x="505.999978369" xlink:href="#m28d0acb1a2" y="381.713464388"/>
    </g>
   </g>
   <g id="patch_3">
    <path d="M 518.4 388.8 
L 518.4 43.2 
" style="fill:none;stroke:#000000;stroke-linecap:square;stroke-linejoin:miter;"/>
   </g>
   <g id="patch_4">
    <path d="M 72 43.2 
L 518.4 43.2 
" style="fill:none;stroke:#000000;stroke-linecap:square;stroke-linejoin:miter;"/>
   </g>
   <g id="patch_5">
    <path d="M 72 388.8 
L 518.4 388.8 
" style="fill:none;stroke:#000000;stroke-linecap:square;stroke-linejoin:miter;"/>
   </g>
   <g id="patch_6">
    <path d="M 72 388.8 
L 72 43.2 
" style="fill:none;stroke:#000000;stroke-linecap:square;stroke-linejoin:miter;"/>
   </g>
   <g id="matplotlib.axis_1">
    <g id="xtick_1">
     <g id="line2d_6">
      <defs>
       <path d="M 0 0 
L 0 -4 
" id="m1923fea517" style="stroke:#000000;stroke-width:0.5;"/>
      </defs>
      <g>
       <use style="stroke:#000000;stroke-width:0.5;" x="72.0" xlink:href="#m1923fea517" y="388.8"/>
      </g>
     </g>
     <g id="line2d_7">
      <defs>
       <path d="M 0 0 
L 0 4 
" id="m3583baaf22" style="stroke:#000000;stroke-width:0.5;"/>
      </defs>
      <g>
       <use style="stroke:#000000;stroke-width:0.5;" x="72.0" xlink:href="#m3583baaf22" y="43.2"/>
      </g>
     </g>
     <g id="text_1">
      <!-- −180 -->
      <defs>
       <path d="M 31.78125 66.40625 
Q 24.171875 66.40625 20.328125 58.90625 
Q 16.5 51.421875 16.5 36.375 
Q 16.5 21.390625 20.328125 13.890625 
Q 24.171875 6.390625 31.78125 6.390625 
Q 39.453125 6.390625 43.28125 13.890625 
Q 47.125 21.390625 47.125 36.375 
Q 47.125 51.421875 43.28125 58.90625 
Q 39.453125 66.40625 31.78125 66.40625 
M 31.78125 74.21875 
Q 44.046875 74.21875 50.515625 64.515625 
Q 56.984375 54.828125 56.984375 36.375 
Q 56.984375 17.96875 50.515625 8.265625 
Q 44.046875 -1.421875 31.78125 -1.421875 
Q 19.53125 -1.421875 13.0625 8.265625 
Q 6.59375 17.96875 6.59375 36.375 
Q 6.59375 54.828125 13.0625 64.515625 
Q 19.53125 74.21875 31.78125 74.21875 
" id="BitstreamVeraSans-Roman-30"/>
       <path d="M 10.59375 35.5 
L 73.1875 35.5 
L 73.1875 27.203125 
L 10.59375 27.203125 
z
" id="BitstreamVeraSans-Roman-2212"/>
       <path d="M 31.78125 34.625 
Q 24.75 34.625 20.71875 30.859375 
Q 16.703125 27.09375 16.703125 20.515625 
Q 16.703125 13.921875 20.71875 10.15625 
Q 24.75 6.390625 31.78125 6.390625 
Q 38.8125 6.390625 42.859375 10.171875 
Q 46.921875 13.96875 46.921875 20.515625 
Q 46.921875 27.09375 42.890625 30.859375 
Q 38.875 34.625 31.78125 34.625 
M 21.921875 38.8125 
Q 15.578125 40.375 12.03125 44.71875 
Q 8.5 49.078125 8.5 55.328125 
Q 8.5 64.0625 14.71875 69.140625 
Q 20.953125 74.21875 31.78125 74.21875 
Q 42.671875 74.21875 48.875 69.140625 
Q 55.078125 64.0625 55.078125 55.328125 
Q 55.078125 49.078125 51.53125 44.71875 
Q 48 40.375 41.703125 38.8125 
Q 48.828125 37.15625 52.796875 32.3125 
Q 56.78125 27.484375 56.78125 20.515625 
Q 56.78125 9.90625 50.3125 4.234375 
Q 43.84375 -1.421875 31.78125 -1.421875 
Q 19.734375 -1.421875 13.25 4.234375 
Q 6.78125 9.90625 6.78125 20.515625 
Q 6.78125 27.484375 10.78125 32.3125 
Q 14.796875 37.15625 21.921875 38.8125 
M 18.3125 54.390625 
Q 18.3125 48.734375 21.84375 45.5625 
Q 25.390625 42.390625 31.78125 42.390625 
Q 38.140625 42.390625 41.71875 45.5625 
Q 45.3125 48.734375 45.3125 54.390625 
Q 45.3125 60.0625 41.71875 63.234375 
Q 38.140625 66.40625 31.78125 66.40625 
Q 25.390625 66.40625 21.84375 63.234375 
Q 18.3125 60.0625 18.3125 54.390625 
" id="BitstreamVeraSans-Roman-38"/>
       <path d="M 12.40625 8.296875 
L 28.515625 8.296875 
L 28.515625 63.921875 
L 10.984375 60.40625 
L 10.984375 69.390625 
L 28.421875 72.90625 
L 38.28125 72.90625 
L 38.28125 8.296875 
L 54.390625 8.296875 
L 54.390625 0 
L 12.40625 0 
z
" id="BitstreamVeraSans-Roman-31"/>
      </defs>
      <g transform="translate(55.5196875 401.918125)scale(0.12 -0.12)">
       <use xlink:href="#BitstreamVeraSans-Roman-2212"/>
       <use x="83.7890625" xlink:href="#BitstreamVeraSans-Roman-31"/>
       <use x="147.412109375" xlink:href="#BitstreamVeraSans-Roman-38"/>
       <use x="211.03515625" xlink:href="#BitstreamVeraSans-Roman-30"/>
      </g>
     </g>
    </g>
    <g id="xtick_2">
     <g id="line2d_8">
      <g>
       <use style="stroke:#000000;stroke-width:0.5;" x="127.8" xlink:href="#m1923fea517" y="388.8"/>
      </g>
     </g>
     <g id="line2d_9">
      <g>
       <use style="stroke:#000000;stroke-width:0.5;" x="127.8" xlink:href="#m3583baaf22" y="43.2"/>
      </g>
     </g>
     <g id="text_2">
      <!-- −135 -->
      <defs>
       <path d="M 10.796875 72.90625 
L 49.515625 72.90625 
L 49.515625 64.59375 
L 19.828125 64.59375 
L 19.828125 46.734375 
Q 21.96875 47.46875 24.109375 47.828125 
Q 26.265625 48.1875 28.421875 48.1875 
Q 40.625 48.1875 47.75 41.5 
Q 54.890625 34.8125 54.890625 23.390625 
Q 54.890625 11.625 47.5625 5.09375 
Q 40.234375 -1.421875 26.90625 -1.421875 
Q 22.3125 -1.421875 17.546875 -0.640625 
Q 12.796875 0.140625 7.71875 1.703125 
L 7.71875 11.625 
Q 12.109375 9.234375 16.796875 8.0625 
Q 21.484375 6.890625 26.703125 6.890625 
Q 35.15625 6.890625 40.078125 11.328125 
Q 45.015625 15.765625 45.015625 23.390625 
Q 45.015625 31 40.078125 35.4375 
Q 35.15625 39.890625 26.703125 39.890625 
Q 22.75 39.890625 18.8125 39.015625 
Q 14.890625 38.140625 10.796875 36.28125 
z
" id="BitstreamVeraSans-Roman-35"/>
       <path d="M 40.578125 39.3125 
Q 47.65625 37.796875 51.625 33 
Q 55.609375 28.21875 55.609375 21.1875 
Q 55.609375 10.40625 48.1875 4.484375 
Q 40.765625 -1.421875 27.09375 -1.421875 
Q 22.515625 -1.421875 17.65625 -0.515625 
Q 12.796875 0.390625 7.625 2.203125 
L 7.625 11.71875 
Q 11.71875 9.328125 16.59375 8.109375 
Q 21.484375 6.890625 26.8125 6.890625 
Q 36.078125 6.890625 40.9375 10.546875 
Q 45.796875 14.203125 45.796875 21.1875 
Q 45.796875 27.640625 41.28125 31.265625 
Q 36.765625 34.90625 28.71875 34.90625 
L 20.21875 34.90625 
L 20.21875 43.015625 
L 29.109375 43.015625 
Q 36.375 43.015625 40.234375 45.921875 
Q 44.09375 48.828125 44.09375 54.296875 
Q 44.09375 59.90625 40.109375 62.90625 
Q 36.140625 65.921875 28.71875 65.921875 
Q 24.65625 65.921875 20.015625 65.03125 
Q 15.375 64.15625 9.8125 62.3125 
L 9.8125 71.09375 
Q 15.4375 72.65625 20.34375 73.4375 
Q 25.25 74.21875 29.59375 74.21875 
Q 40.828125 74.21875 47.359375 69.109375 
Q 53.90625 64.015625 53.90625 55.328125 
Q 53.90625 49.265625 50.4375 45.09375 
Q 46.96875 40.921875 40.578125 39.3125 
" id="BitstreamVeraSans-Roman-33"/>
      </defs>
      <g transform="translate(111.3196875 401.918125)scale(0.12 -0.12)">
       <use xlink:href="#BitstreamVeraSans-Roman-2212"/>
       <use x="83.7890625" xlink:href="#BitstreamVeraSans-Roman-31"/>
       <use x="147.412109375" xlink:href="#BitstreamVeraSans-Roman-33"/>
       <use x="211.03515625" xlink:href="#BitstreamVeraSans-Roman-35"/>
      </g>
     </g>
    </g>
    <g id="xtick_3">
     <g id="line2d_10">
      <g>
       <use style="stroke:#000000;stroke-width:0.5;" x="183.6" xlink:href="#m1923fea517" y="388.8"/>
      </g>
     </g>
     <g id="line2d_11">
      <g>
       <use style="stroke:#000000;stroke-width:0.5;" x="183.6" xlink:href="#m3583baaf22" y="43.2"/>
      </g>
     </g>
     <g id="text_3">
      <!-- −90 -->
      <defs>
       <path d="M 10.984375 1.515625 
L 10.984375 10.5 
Q 14.703125 8.734375 18.5 7.8125 
Q 22.3125 6.890625 25.984375 6.890625 
Q 35.75 6.890625 40.890625 13.453125 
Q 46.046875 20.015625 46.78125 33.40625 
Q 43.953125 29.203125 39.59375 26.953125 
Q 35.25 24.703125 29.984375 24.703125 
Q 19.046875 24.703125 12.671875 31.3125 
Q 6.296875 37.9375 6.296875 49.421875 
Q 6.296875 60.640625 12.9375 67.421875 
Q 19.578125 74.21875 30.609375 74.21875 
Q 43.265625 74.21875 49.921875 64.515625 
Q 56.59375 54.828125 56.59375 36.375 
Q 56.59375 19.140625 48.40625 8.859375 
Q 40.234375 -1.421875 26.421875 -1.421875 
Q 22.703125 -1.421875 18.890625 -0.6875 
Q 15.09375 0.046875 10.984375 1.515625 
M 30.609375 32.421875 
Q 37.25 32.421875 41.125 36.953125 
Q 45.015625 41.5 45.015625 49.421875 
Q 45.015625 57.28125 41.125 61.84375 
Q 37.25 66.40625 30.609375 66.40625 
Q 23.96875 66.40625 20.09375 61.84375 
Q 16.21875 57.28125 16.21875 49.421875 
Q 16.21875 41.5 20.09375 36.953125 
Q 23.96875 32.421875 30.609375 32.421875 
" id="BitstreamVeraSans-Roman-39"/>
      </defs>
      <g transform="translate(170.9371875 401.918125)scale(0.12 -0.12)">
       <use xlink:href="#BitstreamVeraSans-Roman-2212"/>
       <use x="83.7890625" xlink:href="#BitstreamVeraSans-Roman-39"/>
       <use x="147.412109375" xlink:href="#BitstreamVeraSans-Roman-30"/>
      </g>
     </g>
    </g>
    <g id="xtick_4">
     <g id="line2d_12">
      <g>
       <use style="stroke:#000000;stroke-width:0.5;" x="239.4" xlink:href="#m1923fea517" y="388.8"/>
      </g>
     </g>
     <g id="line2d_13">
      <g>
       <use style="stroke:#000000;stroke-width:0.5;" x="239.4" xlink:href="#m3583baaf22" y="43.2"/>
      </g>
     </g>
     <g id="text_4">
      <!-- −45 -->
      <defs>
       <path d="M 37.796875 64.3125 
L 12.890625 25.390625 
L 37.796875 25.390625 
z
M 35.203125 72.90625 
L 47.609375 72.90625 
L 47.609375 25.390625 
L 58.015625 25.390625 
L 58.015625 17.1875 
L 47.609375 17.1875 
L 47.609375 0 
L 37.796875 0 
L 37.796875 17.1875 
L 4.890625 17.1875 
L 4.890625 26.703125 
z
" id="BitstreamVeraSans-Roman-34"/>
      </defs>
      <g transform="translate(226.7371875 401.918125)scale(0.12 -0.12)">
       <use xlink:href="#BitstreamVeraSans-Roman-2212"/>
       <use x="83.7890625" xlink:href="#BitstreamVeraSans-Roman-34"/>
       <use x="147.412109375" xlink:href="#BitstreamVeraSans-Roman-35"/>
      </g>
     </g>
    </g>
    <g id="xtick_5">
     <g id="line2d_14">
      <g>
       <use style="stroke:#000000;stroke-width:0.5;" x="295.2" xlink:href="#m1923fea517" y="388.8"/>
      </g>
     </g>
     <g id="line2d_15">
      <g>
       <use style="stroke:#000000;stroke-width:0.5;" x="295.2" xlink:href="#m3583baaf22" y="43.2"/>
      </g>
     </g>
     <g id="text_5">
      <!-- 0 -->
      <g transform="translate(291.3825 401.918125)scale(0.12 -0.12)">
       <use xlink:href="#BitstreamVeraSans-Roman-30"/>
      </g>
     </g>
    </g>
    <g id="xtick_6">
     <g id="line2d_16">
      <g>
       <use style="stroke:#000000;stroke-width:0.5;" x="351.0" xlink:href="#m1923fea517" y="388.8"/>
      </g>
     </g>
     <g id="line2d_17">
      <g>
       <use style="stroke:#000000;stroke-width:0.5;" x="351.0" xlink:href="#m3583baaf22" y="43.2"/>
      </g>
     </g>
     <g id="text_6">
      <!-- 45 -->
      <g transform="translate(343.365 401.918125)scale(0.12 -0.12)">
       <use xlink:href="#BitstreamVeraSans-Roman-34"/>
       <use x="63.623046875" xlink:href="#BitstreamVeraSans-Roman-35"/>
      </g>
     </g>
    </g>
    <g id="xtick_7">
     <g id="line2d_18">
      <g>
       <use style="stroke:#000000;stroke-width:0.5;" x="406.8" xlink:href="#m1923fea517" y="388.8"/>
      </g>
     </g>
     <g id="line2d_19">
      <g>
       <use style="stroke:#000000;stroke-width:0.5;" x="406.8" xlink:href="#m3583baaf22" y="43.2"/>
      </g>
     </g>
     <g id="text_7">
      <!-- 90 -->
      <g transform="translate(399.165 401.918125)scale(0.12 -0.12)">
       <use xlink:href="#BitstreamVeraSans-Roman-39"/>
       <use x="63.623046875" xlink:href="#BitstreamVeraSans-Roman-30"/>
      </g>
     </g>
    </g>
    <g id="xtick_8">
     <g id="line2d_20">
      <g>
       <use style="stroke:#000000;stroke-width:0.5;" x="462.6" xlink:href="#m1923fea517" y="388.8"/>
      </g>
     </g>
     <g id="line2d_21">
      <g>
       <use style="stroke:#000000;stroke-width:0.5;" x="462.6" xlink:href="#m3583baaf22" y="43.2"/>
      </g>
     </g>
     <g id="text_8">
      <!-- 135 -->
      <g transform="translate(451.1475 401.918125)scale(0.12 -0.12)">
       <use xlink:href="#BitstreamVeraSans-Roman-31"/>
       <use x="63.623046875" xlink:href="#BitstreamVeraSans-Roman-33"/>
       <use x="127.24609375" xlink:href="#BitstreamVeraSans-Roman-35"/>
      </g>
     </g>
    </g>
    <g id="xtick_9">
     <g id="line2d_22">
      <g>
       <use style="stroke:#000000;stroke-width:0.5;" x="518.4" xlink:href="#m1923fea517" y="388.8"/>
      </g>
     </g>
     <g id="line2d_23">
      <g>
       <use style="stroke:#000000;stroke-width:0.5;" x="518.4" xlink:href="#m3583baaf22" y="43.2"/>
      </g>
     </g>
     <g id="text_9">
      <!-- 180 -->
      <g transform="translate(506.9475 401.918125)scale(0.12 -0.12)">
       <use xlink:href="#BitstreamVeraSans-Roman-31"/>
       <use x="63.623046875" xlink:href="#BitstreamVeraSans-Roman-38"/>
       <use x="127.24609375" xlink:href="#BitstreamVeraSans-Roman-30"/>
      </g>
     </g>
    </g>
    <g id="text_10">
     <!-- Phi -->
     <defs>
      <path d="M 54.890625 33.015625 
L 54.890625 0 
L 45.90625 0 
L 45.90625 32.71875 
Q 45.90625 40.484375 42.875 44.328125 
Q 39.84375 48.1875 33.796875 48.1875 
Q 26.515625 48.1875 22.3125 43.546875 
Q 18.109375 38.921875 18.109375 30.90625 
L 18.109375 0 
L 9.078125 0 
L 9.078125 75.984375 
L 18.109375 75.984375 
L 18.109375 46.1875 
Q 21.34375 51.125 25.703125 53.5625 
Q 30.078125 56 35.796875 56 
Q 45.21875 56 50.046875 50.171875 
Q 54.890625 44.34375 54.890625 33.015625 
" id="BitstreamVeraSans-Roman-68"/>
      <path d="M 9.421875 54.6875 
L 18.40625 54.6875 
L 18.40625 0 
L 9.421875 0 
z
M 9.421875 75.984375 
L 18.40625 75.984375 
L 18.40625 64.59375 
L 9.421875 64.59375 
z
" id="BitstreamVeraSans-Roman-69"/>
      <path d="M 19.671875 64.796875 
L 19.671875 37.40625 
L 32.078125 37.40625 
Q 38.96875 37.40625 42.71875 40.96875 
Q 46.484375 44.53125 46.484375 51.125 
Q 46.484375 57.671875 42.71875 61.234375 
Q 38.96875 64.796875 32.078125 64.796875 
z
M 9.8125 72.90625 
L 32.078125 72.90625 
Q 44.34375 72.90625 50.609375 67.359375 
Q 56.890625 61.8125 56.890625 51.125 
Q 56.890625 40.328125 50.609375 34.8125 
Q 44.34375 29.296875 32.078125 29.296875 
L 19.671875 29.296875 
L 19.671875 0 
L 9.8125 0 
z
" id="BitstreamVeraSans-Roman-50"/>
     </defs>
     <g transform="translate(286.1128125 418.531875)scale(0.12 -0.12)">
      <use xlink:href="#BitstreamVeraSans-Roman-50"/>
      <use x="60.302734375" xlink:href="#BitstreamVeraSans-Roman-68"/>
      <use x="123.681640625" xlink:href="#BitstreamVeraSans-Roman-69"/>
     </g>
    </g>
   </g>
   <g id="matplotlib.axis_2">
    <g id="ytick_1">
     <g id="line2d_24">
      <defs>
       <path d="M 0 0 
L 4 0 
" id="macbf52d043" style="stroke:#000000;stroke-width:0.5;"/>
      </defs>
      <g>
       <use style="stroke:#000000;stroke-width:0.5;" x="72.0" xlink:href="#macbf52d043" y="388.8"/>
      </g>
     </g>
     <g id="line2d_25">
      <defs>
       <path d="M 0 0 
L -4 0 
" id="mfa21b0395e" style="stroke:#000000;stroke-width:0.5;"/>
      </defs>
      <g>
       <use style="stroke:#000000;stroke-width:0.5;" x="518.4" xlink:href="#mfa21b0395e" y="388.8"/>
      </g>
     </g>
     <g id="text_11">
      <!-- 0.0 -->
      <defs>
       <path d="M 10.6875 12.40625 
L 21 12.40625 
L 21 0 
L 10.6875 0 
z
" id="BitstreamVeraSans-Roman-2e"/>
      </defs>
      <g transform="translate(48.91625 392.11125)scale(0.12 -0.12)">
       <use xlink:href="#BitstreamVeraSans-Roman-30"/>
       <use x="63.623046875" xlink:href="#BitstreamVeraSans-Roman-2e"/>
       <use x="95.41015625" xlink:href="#BitstreamVeraSans-Roman-30"/>
      </g>
     </g>
    </g>
    <g id="ytick_2">
     <g id="line2d_26">
      <g>
       <use style="stroke:#000000;stroke-width:0.5;" x="72.0" xlink:href="#macbf52d043" y="350.4"/>
      </g>
     </g>
     <g id="line2d_27">
      <g>
       <use style="stroke:#000000;stroke-width:0.5;" x="518.4" xlink:href="#mfa21b0395e" y="350.4"/>
      </g>
     </g>
     <g id="text_12">
      <!-- 0.5 -->
      <g transform="translate(48.91625 353.71125)scale(0.12 -0.12)">
       <use xlink:href="#BitstreamVeraSans-Roman-30"/>
       <use x="63.623046875" xlink:href="#BitstreamVeraSans-Roman-2e"/>
       <use x="95.41015625" xlink:href="#BitstreamVeraSans-Roman-35"/>
      </g>
     </g>
    </g>
    <g id="ytick_3">
     <g id="line2d_28">
      <g>
       <use style="stroke:#000000;stroke-width:0.5;" x="72.0" xlink:href="#macbf52d043" y="312.0"/>
      </g>
     </g>
     <g id="line2d_29">
      <g>
       <use style="stroke:#000000;stroke-width:0.5;" x="518.4" xlink:href="#mfa21b0395e" y="312.0"/>
      </g>
     </g>
     <g id="text_13">
      <!-- 1.0 -->
      <g transform="translate(48.91625 315.31125)scale(0.12 -0.12)">
       <use xlink:href="#BitstreamVeraSans-Roman-31"/>
       <use x="63.623046875" xlink:href="#BitstreamVeraSans-Roman-2e"/>
       <use x="95.41015625" xlink:href="#BitstreamVeraSans-Roman-30"/>
      </g>
     </g>
    </g>
    <g id="ytick_4">
     <g id="line2d_30">
      <g>
       <use style="stroke:#000000;stroke-width:0.5;" x="72.0" xlink:href="#macbf52d043" y="273.6"/>
      </g>
     </g>
     <g id="line2d_31">
      <g>
       <use style="stroke:#000000;stroke-width:0.5;" x="518.4" xlink:href="#mfa21b0395e" y="273.6"/>
      </g>
     </g>
     <g id="text_14">
      <!-- 1.5 -->
      <g transform="translate(48.91625 276.91125)scale(0.12 -0.12)">
       <use xlink:href="#BitstreamVeraSans-Roman-31"/>
       <use x="63.623046875" xlink:href="#BitstreamVeraSans-Roman-2e"/>
       <use x="95.41015625" xlink:href="#BitstreamVeraSans-Roman-35"/>
      </g>
     </g>
    </g>
    <g id="ytick_5">
     <g id="line2d_32">
      <g>
       <use style="stroke:#000000;stroke-width:0.5;" x="72.0" xlink:href="#macbf52d043" y="235.2"/>
      </g>
     </g>
     <g id="line2d_33">
      <g>
       <use style="stroke:#000000;stroke-width:0.5;" x="518.4" xlink:href="#mfa21b0395e" y="235.2"/>
      </g>
     </g>
     <g id="text_15">
      <!-- 2.0 -->
      <defs>
       <path d="M 19.1875 8.296875 
L 53.609375 8.296875 
L 53.609375 0 
L 7.328125 0 
L 7.328125 8.296875 
Q 12.9375 14.109375 22.625 23.890625 
Q 32.328125 33.6875 34.8125 36.53125 
Q 39.546875 41.84375 41.421875 45.53125 
Q 43.3125 49.21875 43.3125 52.78125 
Q 43.3125 58.59375 39.234375 62.25 
Q 35.15625 65.921875 28.609375 65.921875 
Q 23.96875 65.921875 18.8125 64.3125 
Q 13.671875 62.703125 7.8125 59.421875 
L 7.8125 69.390625 
Q 13.765625 71.78125 18.9375 73 
Q 24.125 74.21875 28.421875 74.21875 
Q 39.75 74.21875 46.484375 68.546875 
Q 53.21875 62.890625 53.21875 53.421875 
Q 53.21875 48.921875 51.53125 44.890625 
Q 49.859375 40.875 45.40625 35.40625 
Q 44.1875 33.984375 37.640625 27.21875 
Q 31.109375 20.453125 19.1875 8.296875 
" id="BitstreamVeraSans-Roman-32"/>
      </defs>
      <g transform="translate(48.91625 238.51125)scale(0.12 -0.12)">
       <use xlink:href="#BitstreamVeraSans-Roman-32"/>
       <use x="63.623046875" xlink:href="#BitstreamVeraSans-Roman-2e"/>
       <use x="95.41015625" xlink:href="#BitstreamVeraSans-Roman-30"/>
      </g>
     </g>
    </g>
    <g id="ytick_6">
     <g id="line2d_34">
      <g>
       <use style="stroke:#000000;stroke-width:0.5;" x="72.0" xlink:href="#macbf52d043" y="196.8"/>
      </g>
     </g>
     <g id="line2d_35">
      <g>
       <use style="stroke:#000000;stroke-width:0.5;" x="518.4" xlink:href="#mfa21b0395e" y="196.8"/>
      </g>
     </g>
     <g id="text_16">
      <!-- 2.5 -->
      <g transform="translate(48.91625 200.11125)scale(0.12 -0.12)">
       <use xlink:href="#BitstreamVeraSans-Roman-32"/>
       <use x="63.623046875" xlink:href="#BitstreamVeraSans-Roman-2e"/>
       <use x="95.41015625" xlink:href="#BitstreamVeraSans-Roman-35"/>
      </g>
     </g>
    </g>
    <g id="ytick_7">
     <g id="line2d_36">
      <g>
       <use style="stroke:#000000;stroke-width:0.5;" x="72.0" xlink:href="#macbf52d043" y="158.4"/>
      </g>
     </g>
     <g id="line2d_37">
      <g>
       <use style="stroke:#000000;stroke-width:0.5;" x="518.4" xlink:href="#mfa21b0395e" y="158.4"/>
      </g>
     </g>
     <g id="text_17">
      <!-- 3.0 -->
      <g transform="translate(48.91625 161.71125)scale(0.12 -0.12)">
       <use xlink:href="#BitstreamVeraSans-Roman-33"/>
       <use x="63.623046875" xlink:href="#BitstreamVeraSans-Roman-2e"/>
       <use x="95.41015625" xlink:href="#BitstreamVeraSans-Roman-30"/>
      </g>
     </g>
    </g>
    <g id="ytick_8">
     <g id="line2d_38">
      <g>
       <use style="stroke:#000000;stroke-width:0.5;" x="72.0" xlink:href="#macbf52d043" y="120.0"/>
      </g>
     </g>
     <g id="line2d_39">
      <g>
       <use style="stroke:#000000;stroke-width:0.5;" x="518.4" xlink:href="#mfa21b0395e" y="120.0"/>
      </g>
     </g>
     <g id="text_18">
      <!-- 3.5 -->
      <g transform="translate(48.91625 123.31125)scale(0.12 -0.12)">
       <use xlink:href="#BitstreamVeraSans-Roman-33"/>
       <use x="63.623046875" xlink:href="#BitstreamVeraSans-Roman-2e"/>
       <use x="95.41015625" xlink:href="#BitstreamVeraSans-Roman-35"/>
      </g>
     </g>
    </g>
    <g id="ytick_9">
     <g id="line2d_40">
      <g>
       <use style="stroke:#000000;stroke-width:0.5;" x="72.0" xlink:href="#macbf52d043" y="81.6"/>
      </g>
     </g>
     <g id="line2d_41">
      <g>
       <use style="stroke:#000000;stroke-width:0.5;" x="518.4" xlink:href="#mfa21b0395e" y="81.6"/>
      </g>
     </g>
     <g id="text_19">
      <!-- 4.0 -->
      <g transform="translate(48.91625 84.91125)scale(0.12 -0.12)">
       <use xlink:href="#BitstreamVeraSans-Roman-34"/>
       <use x="63.623046875" xlink:href="#BitstreamVeraSans-Roman-2e"/>
       <use x="95.41015625" xlink:href="#BitstreamVeraSans-Roman-30"/>
      </g>
     </g>
    </g>
    <g id="ytick_10">
     <g id="line2d_42">
      <g>
       <use style="stroke:#000000;stroke-width:0.5;" x="72.0" xlink:href="#macbf52d043" y="43.2"/>
      </g>
     </g>
     <g id="line2d_43">
      <g>
       <use style="stroke:#000000;stroke-width:0.5;" x="518.4" xlink:href="#mfa21b0395e" y="43.2"/>
      </g>
     </g>
     <g id="text_20">
      <!-- 4.5 -->
      <g transform="translate(48.91625 46.51125)scale(0.12 -0.12)">
       <use xlink:href="#BitstreamVeraSans-Roman-34"/>
       <use x="63.623046875" xlink:href="#BitstreamVeraSans-Roman-2e"/>
       <use x="95.41015625" xlink:href="#BitstreamVeraSans-Roman-35"/>
      </g>
     </g>
    </g>
    <g id="text_21">
     <!-- kcal/mol -->
     <defs>
      <path d="M 9.078125 75.984375 
L 18.109375 75.984375 
L 18.109375 31.109375 
L 44.921875 54.6875 
L 56.390625 54.6875 
L 27.390625 29.109375 
L 57.625 0 
L 45.90625 0 
L 18.109375 26.703125 
L 18.109375 0 
L 9.078125 0 
z
" id="BitstreamVeraSans-Roman-6b"/>
      <path d="M 34.28125 27.484375 
Q 23.390625 27.484375 19.1875 25 
Q 14.984375 22.515625 14.984375 16.5 
Q 14.984375 11.71875 18.140625 8.90625 
Q 21.296875 6.109375 26.703125 6.109375 
Q 34.1875 6.109375 38.703125 11.40625 
Q 43.21875 16.703125 43.21875 25.484375 
L 43.21875 27.484375 
z
M 52.203125 31.203125 
L 52.203125 0 
L 43.21875 0 
L 43.21875 8.296875 
Q 40.140625 3.328125 35.546875 0.953125 
Q 30.953125 -1.421875 24.3125 -1.421875 
Q 15.921875 -1.421875 10.953125 3.296875 
Q 6 8.015625 6 15.921875 
Q 6 25.140625 12.171875 29.828125 
Q 18.359375 34.515625 30.609375 34.515625 
L 43.21875 34.515625 
L 43.21875 35.40625 
Q 43.21875 41.609375 39.140625 45 
Q 35.0625 48.390625 27.6875 48.390625 
Q 23 48.390625 18.546875 47.265625 
Q 14.109375 46.140625 10.015625 43.890625 
L 10.015625 52.203125 
Q 14.9375 54.109375 19.578125 55.046875 
Q 24.21875 56 28.609375 56 
Q 40.484375 56 46.34375 49.84375 
Q 52.203125 43.703125 52.203125 31.203125 
" id="BitstreamVeraSans-Roman-61"/>
      <path d="M 52 44.1875 
Q 55.375 50.25 60.0625 53.125 
Q 64.75 56 71.09375 56 
Q 79.640625 56 84.28125 50.015625 
Q 88.921875 44.046875 88.921875 33.015625 
L 88.921875 0 
L 79.890625 0 
L 79.890625 32.71875 
Q 79.890625 40.578125 77.09375 44.375 
Q 74.3125 48.1875 68.609375 48.1875 
Q 61.625 48.1875 57.5625 43.546875 
Q 53.515625 38.921875 53.515625 30.90625 
L 53.515625 0 
L 44.484375 0 
L 44.484375 32.71875 
Q 44.484375 40.625 41.703125 44.40625 
Q 38.921875 48.1875 33.109375 48.1875 
Q 26.21875 48.1875 22.15625 43.53125 
Q 18.109375 38.875 18.109375 30.90625 
L 18.109375 0 
L 9.078125 0 
L 9.078125 54.6875 
L 18.109375 54.6875 
L 18.109375 46.1875 
Q 21.1875 51.21875 25.484375 53.609375 
Q 29.78125 56 35.6875 56 
Q 41.65625 56 45.828125 52.96875 
Q 50 49.953125 52 44.1875 
" id="BitstreamVeraSans-Roman-6d"/>
      <path d="M 30.609375 48.390625 
Q 23.390625 48.390625 19.1875 42.75 
Q 14.984375 37.109375 14.984375 27.296875 
Q 14.984375 17.484375 19.15625 11.84375 
Q 23.34375 6.203125 30.609375 6.203125 
Q 37.796875 6.203125 41.984375 11.859375 
Q 46.1875 17.53125 46.1875 27.296875 
Q 46.1875 37.015625 41.984375 42.703125 
Q 37.796875 48.390625 30.609375 48.390625 
M 30.609375 56 
Q 42.328125 56 49.015625 48.375 
Q 55.71875 40.765625 55.71875 27.296875 
Q 55.71875 13.875 49.015625 6.21875 
Q 42.328125 -1.421875 30.609375 -1.421875 
Q 18.84375 -1.421875 12.171875 6.21875 
Q 5.515625 13.875 5.515625 27.296875 
Q 5.515625 40.765625 12.171875 48.375 
Q 18.84375 56 30.609375 56 
" id="BitstreamVeraSans-Roman-6f"/>
      <path d="M 25.390625 72.90625 
L 33.6875 72.90625 
L 8.296875 -9.28125 
L 0 -9.28125 
z
" id="BitstreamVeraSans-Roman-2f"/>
      <path d="M 48.78125 52.59375 
L 48.78125 44.1875 
Q 44.96875 46.296875 41.140625 47.34375 
Q 37.3125 48.390625 33.40625 48.390625 
Q 24.65625 48.390625 19.8125 42.84375 
Q 14.984375 37.3125 14.984375 27.296875 
Q 14.984375 17.28125 19.8125 11.734375 
Q 24.65625 6.203125 33.40625 6.203125 
Q 37.3125 6.203125 41.140625 7.25 
Q 44.96875 8.296875 48.78125 10.40625 
L 48.78125 2.09375 
Q 45.015625 0.34375 40.984375 -0.53125 
Q 36.96875 -1.421875 32.421875 -1.421875 
Q 20.0625 -1.421875 12.78125 6.34375 
Q 5.515625 14.109375 5.515625 27.296875 
Q 5.515625 40.671875 12.859375 48.328125 
Q 20.21875 56 33.015625 56 
Q 37.15625 56 41.109375 55.140625 
Q 45.0625 54.296875 48.78125 52.59375 
" id="BitstreamVeraSans-Roman-63"/>
      <path d="M 9.421875 75.984375 
L 18.40625 75.984375 
L 18.40625 0 
L 9.421875 0 
z
" id="BitstreamVeraSans-Roman-6c"/>
     </defs>
     <g transform="translate(41.420625 241.3209375)rotate(-90.0)scale(0.12 -0.12)">
      <use xlink:href="#BitstreamVeraSans-Roman-6b"/>
      <use x="57.91015625" xlink:href="#BitstreamVeraSans-Roman-63"/>
      <use x="112.890625" xlink:href="#BitstreamVeraSans-Roman-61"/>
      <use x="174.169921875" xlink:href="#BitstreamVeraSans-Roman-6c"/>
      <use x="201.953125" xlink:href="#BitstreamVeraSans-Roman-2f"/>
      <use x="235.64453125" xlink:href="#BitstreamVeraSans-Roman-6d"/>
      <use x="333.056640625" xlink:href="#BitstreamVeraSans-Roman-6f"/>
      <use x="394.23828125" xlink:href="#BitstreamVeraSans-Roman-6c"/>
     </g>
    </g>
   </g>
   <g id="text_22">
    <!-- C3-C1-C2-C4 -->
    <defs>
     <path d="M 4.890625 31.390625 
L 31.203125 31.390625 
L 31.203125 23.390625 
L 4.890625 23.390625 
z
" id="BitstreamVeraSans-Roman-2d"/>
     <path d="M 64.40625 67.28125 
L 64.40625 56.890625 
Q 59.421875 61.53125 53.78125 63.8125 
Q 48.140625 66.109375 41.796875 66.109375 
Q 29.296875 66.109375 22.65625 58.46875 
Q 16.015625 50.828125 16.015625 36.375 
Q 16.015625 21.96875 22.65625 14.328125 
Q 29.296875 6.6875 41.796875 6.6875 
Q 48.140625 6.6875 53.78125 8.984375 
Q 59.421875 11.28125 64.40625 15.921875 
L 64.40625 5.609375 
Q 59.234375 2.09375 53.4375 0.328125 
Q 47.65625 -1.421875 41.21875 -1.421875 
Q 24.65625 -1.421875 15.125 8.703125 
Q 5.609375 18.84375 5.609375 36.375 
Q 5.609375 53.953125 15.125 64.078125 
Q 24.65625 74.21875 41.21875 74.21875 
Q 47.75 74.21875 53.53125 72.484375 
Q 59.328125 70.75 64.40625 67.28125 
" id="BitstreamVeraSans-Roman-43"/>
    </defs>
    <g transform="translate(248.972625 38.2)scale(0.144 -0.144)">
     <use xlink:href="#BitstreamVeraSans-Roman-43"/>
     <use x="69.82421875" xlink:href="#BitstreamVeraSans-Roman-33"/>
     <use x="133.447265625" xlink:href="#BitstreamVeraSans-Roman-2d"/>
     <use x="169.53125" xlink:href="#BitstreamVeraSans-Roman-43"/>
     <use x="239.35546875" xlink:href="#BitstreamVeraSans-Roman-31"/>
     <use x="302.978515625" xlink:href="#BitstreamVeraSans-Roman-2d"/>
     <use x="339.0625" xlink:href="#BitstreamVeraSans-Roman-43"/>
     <use x="408.88671875" xlink:href="#BitstreamVeraSans-Roman-32"/>
     <use x="472.509765625" xlink:href="#BitstreamVeraSans-Roman-2d"/>
     <use x="508.59375" xlink:href="#BitstreamVeraSans-Roman-43"/>
     <use x="578.41796875" xlink:href="#BitstreamVeraSans-Roman-34"/>
    </g>
   </g>
   <g id="legend_1">
    <g id="patch_7">
     <path d="M 406.15625 108.3125 
L 514.4 108.3125 
L 514.4 47.2 
L 406.15625 47.2 
z
" style="fill:#ffffff;stroke:#000000;stroke-linejoin:miter;"/>
    </g>
    <g id="line2d_44">
     <path d="M 411.75625 53.67875 
L 422.95625 53.67875 
" style="fill:none;stroke:#ff0000;stroke-linecap:square;"/>
    </g>
    <g id="line2d_45">
     <g>
      <use style="fill:#ff0000;stroke:#000000;stroke-width:0.5;" x="411.75625" xlink:href="#md1fdae9540" y="53.67875"/>
      <use style="fill:#ff0000;stroke:#000000;stroke-width:0.5;" x="422.95625" xlink:href="#md1fdae9540" y="53.67875"/>
     </g>
    </g>
    <g id="text_23">
     <!-- QM -->
     <defs>
      <path d="M 9.8125 72.90625 
L 24.515625 72.90625 
L 43.109375 23.296875 
L 61.8125 72.90625 
L 76.515625 72.90625 
L 76.515625 0 
L 66.890625 0 
L 66.890625 64.015625 
L 48.09375 14.015625 
L 38.1875 14.015625 
L 19.390625 64.015625 
L 19.390625 0 
L 9.8125 0 
z
" id="BitstreamVeraSans-Roman-4d"/>
      <path d="M 39.40625 66.21875 
Q 28.65625 66.21875 22.328125 58.203125 
Q 16.015625 50.203125 16.015625 36.375 
Q 16.015625 22.609375 22.328125 14.59375 
Q 28.65625 6.59375 39.40625 6.59375 
Q 50.140625 6.59375 56.421875 14.59375 
Q 62.703125 22.609375 62.703125 36.375 
Q 62.703125 50.203125 56.421875 58.203125 
Q 50.140625 66.21875 39.40625 66.21875 
M 53.21875 1.3125 
L 66.21875 -12.890625 
L 54.296875 -12.890625 
L 43.5 -1.21875 
Q 41.890625 -1.3125 41.03125 -1.359375 
Q 40.1875 -1.421875 39.40625 -1.421875 
Q 24.03125 -1.421875 14.8125 8.859375 
Q 5.609375 19.140625 5.609375 36.375 
Q 5.609375 53.65625 14.8125 63.9375 
Q 24.03125 74.21875 39.40625 74.21875 
Q 54.734375 74.21875 63.90625 63.9375 
Q 73.09375 53.65625 73.09375 36.375 
Q 73.09375 23.6875 67.984375 14.640625 
Q 62.890625 5.609375 53.21875 1.3125 
" id="BitstreamVeraSans-Roman-51"/>
     </defs>
     <g transform="translate(431.75625 56.47875)scale(0.08 -0.08)">
      <use xlink:href="#BitstreamVeraSans-Roman-51"/>
      <use x="78.7109375" xlink:href="#BitstreamVeraSans-Roman-4d"/>
     </g>
    </g>
    <g id="line2d_46">
     <path d="M 411.75625 65.42125 
L 422.95625 65.42125 
" style="fill:none;stroke:#0000ff;stroke-linecap:square;"/>
    </g>
    <g id="line2d_47">
     <g>
      <use style="fill:#0000ff;stroke:#000000;stroke-width:0.5;" x="411.75625" xlink:href="#m8b5e4e4926" y="65.42125"/>
      <use style="fill:#0000ff;stroke:#000000;stroke-width:0.5;" x="422.95625" xlink:href="#m8b5e4e4926" y="65.42125"/>
     </g>
    </g>
    <g id="text_24">
     <!-- MM Original -->
     <defs>
      <path id="BitstreamVeraSans-Roman-20"/>
      <path d="M 41.109375 46.296875 
Q 39.59375 47.171875 37.8125 47.578125 
Q 36.03125 48 33.890625 48 
Q 26.265625 48 22.1875 43.046875 
Q 18.109375 38.09375 18.109375 28.8125 
L 18.109375 0 
L 9.078125 0 
L 9.078125 54.6875 
L 18.109375 54.6875 
L 18.109375 46.1875 
Q 20.953125 51.171875 25.484375 53.578125 
Q 30.03125 56 36.53125 56 
Q 37.453125 56 38.578125 55.875 
Q 39.703125 55.765625 41.0625 55.515625 
z
" id="BitstreamVeraSans-Roman-72"/>
      <path d="M 39.40625 66.21875 
Q 28.65625 66.21875 22.328125 58.203125 
Q 16.015625 50.203125 16.015625 36.375 
Q 16.015625 22.609375 22.328125 14.59375 
Q 28.65625 6.59375 39.40625 6.59375 
Q 50.140625 6.59375 56.421875 14.59375 
Q 62.703125 22.609375 62.703125 36.375 
Q 62.703125 50.203125 56.421875 58.203125 
Q 50.140625 66.21875 39.40625 66.21875 
M 39.40625 74.21875 
Q 54.734375 74.21875 63.90625 63.9375 
Q 73.09375 53.65625 73.09375 36.375 
Q 73.09375 19.140625 63.90625 8.859375 
Q 54.734375 -1.421875 39.40625 -1.421875 
Q 24.03125 -1.421875 14.8125 8.828125 
Q 5.609375 19.09375 5.609375 36.375 
Q 5.609375 53.65625 14.8125 63.9375 
Q 24.03125 74.21875 39.40625 74.21875 
" id="BitstreamVeraSans-Roman-4f"/>
      <path d="M 45.40625 27.984375 
Q 45.40625 37.75 41.375 43.109375 
Q 37.359375 48.484375 30.078125 48.484375 
Q 22.859375 48.484375 18.828125 43.109375 
Q 14.796875 37.75 14.796875 27.984375 
Q 14.796875 18.265625 18.828125 12.890625 
Q 22.859375 7.515625 30.078125 7.515625 
Q 37.359375 7.515625 41.375 12.890625 
Q 45.40625 18.265625 45.40625 27.984375 
M 54.390625 6.78125 
Q 54.390625 -7.171875 48.1875 -13.984375 
Q 42 -20.796875 29.203125 -20.796875 
Q 24.46875 -20.796875 20.265625 -20.09375 
Q 16.0625 -19.390625 12.109375 -17.921875 
L 12.109375 -9.1875 
Q 16.0625 -11.328125 19.921875 -12.34375 
Q 23.78125 -13.375 27.78125 -13.375 
Q 36.625 -13.375 41.015625 -8.765625 
Q 45.40625 -4.15625 45.40625 5.171875 
L 45.40625 9.625 
Q 42.625 4.78125 38.28125 2.390625 
Q 33.9375 0 27.875 0 
Q 17.828125 0 11.671875 7.65625 
Q 5.515625 15.328125 5.515625 27.984375 
Q 5.515625 40.671875 11.671875 48.328125 
Q 17.828125 56 27.875 56 
Q 33.9375 56 38.28125 53.609375 
Q 42.625 51.21875 45.40625 46.390625 
L 45.40625 54.6875 
L 54.390625 54.6875 
z
" id="BitstreamVeraSans-Roman-67"/>
      <path d="M 54.890625 33.015625 
L 54.890625 0 
L 45.90625 0 
L 45.90625 32.71875 
Q 45.90625 40.484375 42.875 44.328125 
Q 39.84375 48.1875 33.796875 48.1875 
Q 26.515625 48.1875 22.3125 43.546875 
Q 18.109375 38.921875 18.109375 30.90625 
L 18.109375 0 
L 9.078125 0 
L 9.078125 54.6875 
L 18.109375 54.6875 
L 18.109375 46.1875 
Q 21.34375 51.125 25.703125 53.5625 
Q 30.078125 56 35.796875 56 
Q 45.21875 56 50.046875 50.171875 
Q 54.890625 44.34375 54.890625 33.015625 
" id="BitstreamVeraSans-Roman-6e"/>
     </defs>
     <g transform="translate(431.75625 68.22125)scale(0.08 -0.08)">
      <use xlink:href="#BitstreamVeraSans-Roman-4d"/>
      <use x="86.279296875" xlink:href="#BitstreamVeraSans-Roman-4d"/>
      <use x="172.55859375" xlink:href="#BitstreamVeraSans-Roman-20"/>
      <use x="204.345703125" xlink:href="#BitstreamVeraSans-Roman-4f"/>
      <use x="283.056640625" xlink:href="#BitstreamVeraSans-Roman-72"/>
      <use x="324.169921875" xlink:href="#BitstreamVeraSans-Roman-69"/>
      <use x="351.953125" xlink:href="#BitstreamVeraSans-Roman-67"/>
      <use x="415.4296875" xlink:href="#BitstreamVeraSans-Roman-69"/>
      <use x="443.212890625" xlink:href="#BitstreamVeraSans-Roman-6e"/>
      <use x="506.591796875" xlink:href="#BitstreamVeraSans-Roman-61"/>
      <use x="567.87109375" xlink:href="#BitstreamVeraSans-Roman-6c"/>
     </g>
    </g>
    <g id="line2d_48">
     <path d="M 411.75625 77.16375 
L 422.95625 77.16375 
" style="fill:none;stroke:#000000;stroke-linecap:square;"/>
    </g>
    <g id="line2d_49">
     <g>
      <use style="stroke:#000000;stroke-width:0.5;" x="411.75625" xlink:href="#m9703f22c25" y="77.16375"/>
      <use style="stroke:#000000;stroke-width:0.5;" x="422.95625" xlink:href="#m9703f22c25" y="77.16375"/>
     </g>
    </g>
    <g id="text_25">
     <!-- MM With phi zeroed -->
     <defs>
      <path d="M 5.515625 54.6875 
L 48.1875 54.6875 
L 48.1875 46.484375 
L 14.40625 7.171875 
L 48.1875 7.171875 
L 48.1875 0 
L 4.296875 0 
L 4.296875 8.203125 
L 38.09375 47.515625 
L 5.515625 47.515625 
z
" id="BitstreamVeraSans-Roman-7a"/>
      <path d="M 3.328125 72.90625 
L 13.28125 72.90625 
L 28.609375 11.28125 
L 43.890625 72.90625 
L 54.984375 72.90625 
L 70.3125 11.28125 
L 85.59375 72.90625 
L 95.609375 72.90625 
L 77.296875 0 
L 64.890625 0 
L 49.515625 63.28125 
L 33.984375 0 
L 21.578125 0 
z
" id="BitstreamVeraSans-Roman-57"/>
      <path d="M 18.109375 8.203125 
L 18.109375 -20.796875 
L 9.078125 -20.796875 
L 9.078125 54.6875 
L 18.109375 54.6875 
L 18.109375 46.390625 
Q 20.953125 51.265625 25.265625 53.625 
Q 29.59375 56 35.59375 56 
Q 45.5625 56 51.78125 48.09375 
Q 58.015625 40.1875 58.015625 27.296875 
Q 58.015625 14.40625 51.78125 6.484375 
Q 45.5625 -1.421875 35.59375 -1.421875 
Q 29.59375 -1.421875 25.265625 0.953125 
Q 20.953125 3.328125 18.109375 8.203125 
M 48.6875 27.296875 
Q 48.6875 37.203125 44.609375 42.84375 
Q 40.53125 48.484375 33.40625 48.484375 
Q 26.265625 48.484375 22.1875 42.84375 
Q 18.109375 37.203125 18.109375 27.296875 
Q 18.109375 17.390625 22.1875 11.75 
Q 26.265625 6.109375 33.40625 6.109375 
Q 40.53125 6.109375 44.609375 11.75 
Q 48.6875 17.390625 48.6875 27.296875 
" id="BitstreamVeraSans-Roman-70"/>
      <path d="M 18.3125 70.21875 
L 18.3125 54.6875 
L 36.8125 54.6875 
L 36.8125 47.703125 
L 18.3125 47.703125 
L 18.3125 18.015625 
Q 18.3125 11.328125 20.140625 9.421875 
Q 21.96875 7.515625 27.59375 7.515625 
L 36.8125 7.515625 
L 36.8125 0 
L 27.59375 0 
Q 17.1875 0 13.234375 3.875 
Q 9.28125 7.765625 9.28125 18.015625 
L 9.28125 47.703125 
L 2.6875 47.703125 
L 2.6875 54.6875 
L 9.28125 54.6875 
L 9.28125 70.21875 
z
" id="BitstreamVeraSans-Roman-74"/>
      <path d="M 45.40625 46.390625 
L 45.40625 75.984375 
L 54.390625 75.984375 
L 54.390625 0 
L 45.40625 0 
L 45.40625 8.203125 
Q 42.578125 3.328125 38.25 0.953125 
Q 33.9375 -1.421875 27.875 -1.421875 
Q 17.96875 -1.421875 11.734375 6.484375 
Q 5.515625 14.40625 5.515625 27.296875 
Q 5.515625 40.1875 11.734375 48.09375 
Q 17.96875 56 27.875 56 
Q 33.9375 56 38.25 53.625 
Q 42.578125 51.265625 45.40625 46.390625 
M 14.796875 27.296875 
Q 14.796875 17.390625 18.875 11.75 
Q 22.953125 6.109375 30.078125 6.109375 
Q 37.203125 6.109375 41.296875 11.75 
Q 45.40625 17.390625 45.40625 27.296875 
Q 45.40625 37.203125 41.296875 42.84375 
Q 37.203125 48.484375 30.078125 48.484375 
Q 22.953125 48.484375 18.875 42.84375 
Q 14.796875 37.203125 14.796875 27.296875 
" id="BitstreamVeraSans-Roman-64"/>
      <path d="M 56.203125 29.59375 
L 56.203125 25.203125 
L 14.890625 25.203125 
Q 15.484375 15.921875 20.484375 11.0625 
Q 25.484375 6.203125 34.421875 6.203125 
Q 39.59375 6.203125 44.453125 7.46875 
Q 49.3125 8.734375 54.109375 11.28125 
L 54.109375 2.78125 
Q 49.265625 0.734375 44.1875 -0.34375 
Q 39.109375 -1.421875 33.890625 -1.421875 
Q 20.796875 -1.421875 13.15625 6.1875 
Q 5.515625 13.8125 5.515625 26.8125 
Q 5.515625 40.234375 12.765625 48.109375 
Q 20.015625 56 32.328125 56 
Q 43.359375 56 49.78125 48.890625 
Q 56.203125 41.796875 56.203125 29.59375 
M 47.21875 32.234375 
Q 47.125 39.59375 43.09375 43.984375 
Q 39.0625 48.390625 32.421875 48.390625 
Q 24.90625 48.390625 20.390625 44.140625 
Q 15.875 39.890625 15.1875 32.171875 
z
" id="BitstreamVeraSans-Roman-65"/>
     </defs>
     <g transform="translate(431.75625 79.96375)scale(0.08 -0.08)">
      <use xlink:href="#BitstreamVeraSans-Roman-4d"/>
      <use x="86.279296875" xlink:href="#BitstreamVeraSans-Roman-4d"/>
      <use x="172.55859375" xlink:href="#BitstreamVeraSans-Roman-20"/>
      <use x="204.345703125" xlink:href="#BitstreamVeraSans-Roman-57"/>
      <use x="303.19140625" xlink:href="#BitstreamVeraSans-Roman-69"/>
      <use x="330.974609375" xlink:href="#BitstreamVeraSans-Roman-74"/>
      <use x="370.18359375" xlink:href="#BitstreamVeraSans-Roman-68"/>
      <use x="433.5625" xlink:href="#BitstreamVeraSans-Roman-20"/>
      <use x="465.349609375" xlink:href="#BitstreamVeraSans-Roman-70"/>
      <use x="528.826171875" xlink:href="#BitstreamVeraSans-Roman-68"/>
      <use x="592.205078125" xlink:href="#BitstreamVeraSans-Roman-69"/>
      <use x="619.98828125" xlink:href="#BitstreamVeraSans-Roman-20"/>
      <use x="651.775390625" xlink:href="#BitstreamVeraSans-Roman-7a"/>
      <use x="704.265625" xlink:href="#BitstreamVeraSans-Roman-65"/>
      <use x="765.7890625" xlink:href="#BitstreamVeraSans-Roman-72"/>
      <use x="806.87109375" xlink:href="#BitstreamVeraSans-Roman-6f"/>
      <use x="868.052734375" xlink:href="#BitstreamVeraSans-Roman-65"/>
      <use x="929.576171875" xlink:href="#BitstreamVeraSans-Roman-64"/>
     </g>
    </g>
    <g id="line2d_50">
     <path d="M 411.75625 88.90625 
L 422.95625 88.90625 
" style="fill:none;stroke:#ff00ff;stroke-linecap:square;"/>
    </g>
    <g id="line2d_51">
     <g>
      <use style="fill:#ff00ff;stroke:#ff00ff;stroke-width:0.5;" x="411.75625" xlink:href="#m166a4df3c9" y="88.90625"/>
      <use style="fill:#ff00ff;stroke:#ff00ff;stroke-width:0.5;" x="422.95625" xlink:href="#m166a4df3c9" y="88.90625"/>
     </g>
    </g>
    <g id="text_26">
     <!-- QM-MM target -->
     <g transform="translate(431.75625 91.70625)scale(0.08 -0.08)">
      <use xlink:href="#BitstreamVeraSans-Roman-51"/>
      <use x="78.7109375" xlink:href="#BitstreamVeraSans-Roman-4d"/>
      <use x="164.990234375" xlink:href="#BitstreamVeraSans-Roman-2d"/>
      <use x="201.07421875" xlink:href="#BitstreamVeraSans-Roman-4d"/>
      <use x="287.353515625" xlink:href="#BitstreamVeraSans-Roman-4d"/>
      <use x="373.6328125" xlink:href="#BitstreamVeraSans-Roman-20"/>
      <use x="405.419921875" xlink:href="#BitstreamVeraSans-Roman-74"/>
      <use x="444.62890625" xlink:href="#BitstreamVeraSans-Roman-61"/>
      <use x="505.908203125" xlink:href="#BitstreamVeraSans-Roman-72"/>
      <use x="547.005859375" xlink:href="#BitstreamVeraSans-Roman-67"/>
      <use x="610.482421875" xlink:href="#BitstreamVeraSans-Roman-65"/>
      <use x="672.005859375" xlink:href="#BitstreamVeraSans-Roman-74"/>
     </g>
    </g>
    <g id="line2d_52">
     <path d="M 411.75625 100.64875 
L 422.95625 100.64875 
" style="fill:none;stroke:#008000;stroke-linecap:square;"/>
    </g>
    <g id="line2d_53">
     <g>
      <use style="fill:#008000;stroke:#000000;stroke-width:0.5;" x="411.75625" xlink:href="#m28d0acb1a2" y="100.64875"/>
      <use style="fill:#008000;stroke:#000000;stroke-width:0.5;" x="422.95625" xlink:href="#m28d0acb1a2" y="100.64875"/>
     </g>
    </g>
    <g id="text_27">
     <!-- MM Fitted -->
     <defs>
      <path d="M 9.8125 72.90625 
L 51.703125 72.90625 
L 51.703125 64.59375 
L 19.671875 64.59375 
L 19.671875 43.109375 
L 48.578125 43.109375 
L 48.578125 34.8125 
L 19.671875 34.8125 
L 19.671875 0 
L 9.8125 0 
z
" id="BitstreamVeraSans-Roman-46"/>
     </defs>
     <g transform="translate(431.75625 103.44875)scale(0.08 -0.08)">
      <use xlink:href="#BitstreamVeraSans-Roman-4d"/>
      <use x="86.279296875" xlink:href="#BitstreamVeraSans-Roman-4d"/>
      <use x="172.55859375" xlink:href="#BitstreamVeraSans-Roman-20"/>
      <use x="204.345703125" xlink:href="#BitstreamVeraSans-Roman-46"/>
      <use x="261.755859375" xlink:href="#BitstreamVeraSans-Roman-69"/>
      <use x="289.5390625" xlink:href="#BitstreamVeraSans-Roman-74"/>
      <use x="328.748046875" xlink:href="#BitstreamVeraSans-Roman-74"/>
      <use x="367.95703125" xlink:href="#BitstreamVeraSans-Roman-65"/>
      <use x="429.48046875" xlink:href="#BitstreamVeraSans-Roman-64"/>
     </g>
    </g>
   </g>
  </g>
 </g>
 <defs>
  <clipPath id="padb8c9173b">
   <rect height="345.6" width="446.4" x="72.0" y="43.2"/>
  </clipPath>
 </defs>
</svg>
