<?xml version="1.0" encoding="utf-8" standalone="no"?>
<!DOCTYPE svg PUBLIC "-//W3C//DTD SVG 1.1//EN"
  "http://www.w3.org/Graphics/SVG/1.1/DTD/svg11.dtd">
<!-- Created with matplotlib (http://matplotlib.org/) -->
<svg height="432pt" version="1.1" viewBox="0 0 576 432" width="576pt" xmlns="http://www.w3.org/2000/svg" xmlns:xlink="http://www.w3.org/1999/xlink">
 <defs>
  <style type="text/css">
*{stroke-linecap:butt;stroke-linejoin:round;stroke-miterlimit:100000;}
  </style>
 </defs>
 <g id="figure_1">
  <g id="patch_1">
   <path d="M 0 432 
L 576 432 
L 576 0 
L 0 0 
z
" style="fill:#ffffff;"/>
  </g>
  <g id="axes_1">
   <g id="patch_2">
    <path d="M 72 388.8 
L 518.4 388.8 
L 518.4 43.2 
L 72 43.2 
z
" style="fill:#ffffff;"/>
   </g>
   <g id="line2d_1">
    <path clip-path="url(#p2dcf8f185d)" d="M 71.999521 320.95492 
L 84.400006 323.721171 
L 96.799992 311.348273 
L 109.199996 284.292235 
L 121.59999 248.47704 
L 134.000019 216.610863 
L 146.400009 202.442861 
L 158.799986 211.242003 
L 171.199993 238.546824 
L 183.599975 274.399986 
L 196.000015 308.82024 
L 208.400019 336.320046 
L 220.799981 347.060264 
L 233.199988 339.027526 
L 245.599965 314.392446 
L 258.000007 279.072578 
L 270.400018 241.994118 
L 282.799984 212.782849 
L 295.199685 198.351365 
L 307.60001 199.160164 
L 319.999998 308.326529 
L 332.399951 343.77449 
L 344.8 374.592677 
L 357.20003 388.8 
L 369.599998 380.138543 
L 381.999999 348.109813 
L 394.400007 296.314463 
L 419.200051 165.994999 
L 431.599986 121.724813 
L 444.000036 106.604365 
L 456.400051 123.144806 
L 468.800032 164.817241 
L 481.200012 218.008805 
L 493.600021 267.956888 
L 506.000051 303.702089 
" style="fill:none;stroke:#ff0000;stroke-linecap:square;"/>
    <defs>
     <path d="M 0 3 
C 0.795609 3 1.55874 2.683901 2.12132 2.12132 
C 2.683901 1.55874 3 0.795609 3 0 
C 3 -0.795609 2.683901 -1.55874 2.12132 -2.12132 
C 1.55874 -2.683901 0.795609 -3 0 -3 
C -0.795609 -3 -1.55874 -2.683901 -2.12132 -2.12132 
C -2.683901 -1.55874 -3 -0.795609 -3 0 
C -3 0.795609 -2.683901 1.55874 -2.12132 2.12132 
C -1.55874 2.683901 -0.795609 3 0 3 
z
" id="ma51602f169" style="stroke:#000000;stroke-width:0.5;"/>
    </defs>
    <g clip-path="url(#p2dcf8f185d)">
     <use style="fill:#ff0000;stroke:#000000;stroke-width:0.5;" x="71.9995207358" xlink:href="#ma51602f169" y="320.954919534"/>
     <use style="fill:#ff0000;stroke:#000000;stroke-width:0.5;" x="84.4000063669" xlink:href="#ma51602f169" y="323.721171276"/>
     <use style="fill:#ff0000;stroke:#000000;stroke-width:0.5;" x="96.7999919617" xlink:href="#ma51602f169" y="311.348272985"/>
     <use style="fill:#ff0000;stroke:#000000;stroke-width:0.5;" x="109.199995512" xlink:href="#ma51602f169" y="284.292235486"/>
     <use style="fill:#ff0000;stroke:#000000;stroke-width:0.5;" x="121.59998981" xlink:href="#ma51602f169" y="248.47704041"/>
     <use style="fill:#ff0000;stroke:#000000;stroke-width:0.5;" x="134.000019216" xlink:href="#ma51602f169" y="216.610863493"/>
     <use style="fill:#ff0000;stroke:#000000;stroke-width:0.5;" x="146.400009201" xlink:href="#ma51602f169" y="202.442861329"/>
     <use style="fill:#ff0000;stroke:#000000;stroke-width:0.5;" x="158.799986327" xlink:href="#ma51602f169" y="211.242003078"/>
     <use style="fill:#ff0000;stroke:#000000;stroke-width:0.5;" x="171.199993296" xlink:href="#ma51602f169" y="238.546823604"/>
     <use style="fill:#ff0000;stroke:#000000;stroke-width:0.5;" x="183.599975076" xlink:href="#ma51602f169" y="274.39998559"/>
     <use style="fill:#ff0000;stroke:#000000;stroke-width:0.5;" x="196.000014922" xlink:href="#ma51602f169" y="308.820240234"/>
     <use style="fill:#ff0000;stroke:#000000;stroke-width:0.5;" x="208.4000195" xlink:href="#ma51602f169" y="336.320046464"/>
     <use style="fill:#ff0000;stroke:#000000;stroke-width:0.5;" x="220.799980809" xlink:href="#ma51602f169" y="347.060263973"/>
     <use style="fill:#ff0000;stroke:#000000;stroke-width:0.5;" x="233.199988407" xlink:href="#ma51602f169" y="339.027525552"/>
     <use style="fill:#ff0000;stroke:#000000;stroke-width:0.5;" x="245.599964918" xlink:href="#ma51602f169" y="314.392446473"/>
     <use style="fill:#ff0000;stroke:#000000;stroke-width:0.5;" x="258.000006593" xlink:href="#ma51602f169" y="279.072577614"/>
     <use style="fill:#ff0000;stroke:#000000;stroke-width:0.5;" x="270.40001843" xlink:href="#ma51602f169" y="241.994117716"/>
     <use style="fill:#ff0000;stroke:#000000;stroke-width:0.5;" x="282.799984079" xlink:href="#ma51602f169" y="212.782848667"/>
     <use style="fill:#ff0000;stroke:#000000;stroke-width:0.5;" x="295.1996852" xlink:href="#ma51602f169" y="198.351364574"/>
     <use style="fill:#ff0000;stroke:#000000;stroke-width:0.5;" x="307.60001032" xlink:href="#ma51602f169" y="199.160163956"/>
     <use style="fill:#ff0000;stroke:#000000;stroke-width:0.5;" x="319.999998046" xlink:href="#ma51602f169" y="308.326528514"/>
     <use style="fill:#ff0000;stroke:#000000;stroke-width:0.5;" x="332.399950583" xlink:href="#ma51602f169" y="343.774490099"/>
     <use style="fill:#ff0000;stroke:#000000;stroke-width:0.5;" x="344.799999538" xlink:href="#ma51602f169" y="374.592676948"/>
     <use style="fill:#ff0000;stroke:#000000;stroke-width:0.5;" x="357.200030351" xlink:href="#ma51602f169" y="388.8"/>
     <use style="fill:#ff0000;stroke:#000000;stroke-width:0.5;" x="369.599997893" xlink:href="#ma51602f169" y="380.138542641"/>
     <use style="fill:#ff0000;stroke:#000000;stroke-width:0.5;" x="381.999999228" xlink:href="#ma51602f169" y="348.109813374"/>
     <use style="fill:#ff0000;stroke:#000000;stroke-width:0.5;" x="394.400006509" xlink:href="#ma51602f169" y="296.314462905"/>
     <use style="fill:#ff0000;stroke:#000000;stroke-width:0.5;" x="419.200051437" xlink:href="#ma51602f169" y="165.994998547"/>
     <use style="fill:#ff0000;stroke:#000000;stroke-width:0.5;" x="431.599985668" xlink:href="#ma51602f169" y="121.724813227"/>
     <use style="fill:#ff0000;stroke:#000000;stroke-width:0.5;" x="444.000036016" xlink:href="#ma51602f169" y="106.604365116"/>
     <use style="fill:#ff0000;stroke:#000000;stroke-width:0.5;" x="456.400050576" xlink:href="#ma51602f169" y="123.144805845"/>
     <use style="fill:#ff0000;stroke:#000000;stroke-width:0.5;" x="468.800032159" xlink:href="#ma51602f169" y="164.817240983"/>
     <use style="fill:#ff0000;stroke:#000000;stroke-width:0.5;" x="481.200011679" xlink:href="#ma51602f169" y="218.008804854"/>
     <use style="fill:#ff0000;stroke:#000000;stroke-width:0.5;" x="493.600021317" xlink:href="#ma51602f169" y="267.956888057"/>
     <use style="fill:#ff0000;stroke:#000000;stroke-width:0.5;" x="506.000051252" xlink:href="#ma51602f169" y="303.702088624"/>
    </g>
   </g>
   <g id="line2d_2">
    <path clip-path="url(#p2dcf8f185d)" d="M 71.999521 293.648605 
L 84.400006 297.86524 
L 96.799992 287.969849 
L 109.199996 263.850073 
L 121.59999 230.261492 
L 134.000019 199.289596 
L 146.400009 185.867001 
L 158.799986 197.410273 
L 171.199993 229.227741 
L 183.599975 269.817755 
L 196.000015 313.899927 
L 208.400019 342.8051 
L 220.799981 354.224751 
L 233.199988 346.19749 
L 245.599965 319.044138 
L 258.000007 280.614507 
L 270.400018 238.864547 
L 282.799984 205.242231 
L 295.199685 189.242131 
L 307.60001 192.659286 
L 319.999998 279.102995 
L 332.399951 327.495206 
L 344.8 369.094026 
L 357.20003 388.8 
L 369.599998 380.690447 
L 381.999999 346.638941 
L 394.400007 288.756339 
L 419.200051 163.111683 
L 431.599986 109.732747 
L 444.000036 83.993654 
L 456.400051 93.272934 
L 468.800032 131.702886 
L 481.200012 184.78229 
L 493.600021 236.781742 
L 506.000051 275.191237 
" style="fill:none;stroke:#0000ff;stroke-linecap:square;"/>
    <defs>
     <path d="M 0 3 
C 0.795609 3 1.55874 2.683901 2.12132 2.12132 
C 2.683901 1.55874 3 0.795609 3 0 
C 3 -0.795609 2.683901 -1.55874 2.12132 -2.12132 
C 1.55874 -2.683901 0.795609 -3 0 -3 
C -0.795609 -3 -1.55874 -2.683901 -2.12132 -2.12132 
C -2.683901 -1.55874 -3 -0.795609 -3 0 
C -3 0.795609 -2.683901 1.55874 -2.12132 2.12132 
C -1.55874 2.683901 -0.795609 3 0 3 
z
" id="m18e7f9df62" style="stroke:#000000;stroke-width:0.5;"/>
    </defs>
    <g clip-path="url(#p2dcf8f185d)">
     <use style="fill:#0000ff;stroke:#000000;stroke-width:0.5;" x="71.9995207358" xlink:href="#m18e7f9df62" y="293.648604713"/>
     <use style="fill:#0000ff;stroke:#000000;stroke-width:0.5;" x="84.4000063669" xlink:href="#m18e7f9df62" y="297.865240041"/>
     <use style="fill:#0000ff;stroke:#000000;stroke-width:0.5;" x="96.7999919617" xlink:href="#m18e7f9df62" y="287.969848887"/>
     <use style="fill:#0000ff;stroke:#000000;stroke-width:0.5;" x="109.199995512" xlink:href="#m18e7f9df62" y="263.850072747"/>
     <use style="fill:#0000ff;stroke:#000000;stroke-width:0.5;" x="121.59998981" xlink:href="#m18e7f9df62" y="230.261491786"/>
     <use style="fill:#0000ff;stroke:#000000;stroke-width:0.5;" x="134.000019216" xlink:href="#m18e7f9df62" y="199.289596027"/>
     <use style="fill:#0000ff;stroke:#000000;stroke-width:0.5;" x="146.400009201" xlink:href="#m18e7f9df62" y="185.867001274"/>
     <use style="fill:#0000ff;stroke:#000000;stroke-width:0.5;" x="158.799986327" xlink:href="#m18e7f9df62" y="197.410272725"/>
     <use style="fill:#0000ff;stroke:#000000;stroke-width:0.5;" x="171.199993296" xlink:href="#m18e7f9df62" y="229.22774147"/>
     <use style="fill:#0000ff;stroke:#000000;stroke-width:0.5;" x="183.599975076" xlink:href="#m18e7f9df62" y="269.817755226"/>
     <use style="fill:#0000ff;stroke:#000000;stroke-width:0.5;" x="196.000014922" xlink:href="#m18e7f9df62" y="313.899927016"/>
     <use style="fill:#0000ff;stroke:#000000;stroke-width:0.5;" x="208.4000195" xlink:href="#m18e7f9df62" y="342.805100076"/>
     <use style="fill:#0000ff;stroke:#000000;stroke-width:0.5;" x="220.799980809" xlink:href="#m18e7f9df62" y="354.224751091"/>
     <use style="fill:#0000ff;stroke:#000000;stroke-width:0.5;" x="233.199988407" xlink:href="#m18e7f9df62" y="346.197490329"/>
     <use style="fill:#0000ff;stroke:#000000;stroke-width:0.5;" x="245.599964918" xlink:href="#m18e7f9df62" y="319.044138081"/>
     <use style="fill:#0000ff;stroke:#000000;stroke-width:0.5;" x="258.000006593" xlink:href="#m18e7f9df62" y="280.614507052"/>
     <use style="fill:#0000ff;stroke:#000000;stroke-width:0.5;" x="270.40001843" xlink:href="#m18e7f9df62" y="238.864546731"/>
     <use style="fill:#0000ff;stroke:#000000;stroke-width:0.5;" x="282.799984079" xlink:href="#m18e7f9df62" y="205.242231328"/>
     <use style="fill:#0000ff;stroke:#000000;stroke-width:0.5;" x="295.1996852" xlink:href="#m18e7f9df62" y="189.242130568"/>
     <use style="fill:#0000ff;stroke:#000000;stroke-width:0.5;" x="307.60001032" xlink:href="#m18e7f9df62" y="192.659286451"/>
     <use style="fill:#0000ff;stroke:#000000;stroke-width:0.5;" x="319.999998046" xlink:href="#m18e7f9df62" y="279.102994969"/>
     <use style="fill:#0000ff;stroke:#000000;stroke-width:0.5;" x="332.399950583" xlink:href="#m18e7f9df62" y="327.495206095"/>
     <use style="fill:#0000ff;stroke:#000000;stroke-width:0.5;" x="344.799999538" xlink:href="#m18e7f9df62" y="369.094025712"/>
     <use style="fill:#0000ff;stroke:#000000;stroke-width:0.5;" x="357.200030351" xlink:href="#m18e7f9df62" y="388.8"/>
     <use style="fill:#0000ff;stroke:#000000;stroke-width:0.5;" x="369.599997893" xlink:href="#m18e7f9df62" y="380.690447093"/>
     <use style="fill:#0000ff;stroke:#000000;stroke-width:0.5;" x="381.999999228" xlink:href="#m18e7f9df62" y="346.638940543"/>
     <use style="fill:#0000ff;stroke:#000000;stroke-width:0.5;" x="394.400006509" xlink:href="#m18e7f9df62" y="288.756338764"/>
     <use style="fill:#0000ff;stroke:#000000;stroke-width:0.5;" x="419.200051437" xlink:href="#m18e7f9df62" y="163.111682607"/>
     <use style="fill:#0000ff;stroke:#000000;stroke-width:0.5;" x="431.599985668" xlink:href="#m18e7f9df62" y="109.732746944"/>
     <use style="fill:#0000ff;stroke:#000000;stroke-width:0.5;" x="444.000036016" xlink:href="#m18e7f9df62" y="83.9936540089"/>
     <use style="fill:#0000ff;stroke:#000000;stroke-width:0.5;" x="456.400050576" xlink:href="#m18e7f9df62" y="93.2729341062"/>
     <use style="fill:#0000ff;stroke:#000000;stroke-width:0.5;" x="468.800032159" xlink:href="#m18e7f9df62" y="131.702885707"/>
     <use style="fill:#0000ff;stroke:#000000;stroke-width:0.5;" x="481.200011679" xlink:href="#m18e7f9df62" y="184.78228953"/>
     <use style="fill:#0000ff;stroke:#000000;stroke-width:0.5;" x="493.600021317" xlink:href="#m18e7f9df62" y="236.781741738"/>
     <use style="fill:#0000ff;stroke:#000000;stroke-width:0.5;" x="506.000051252" xlink:href="#m18e7f9df62" y="275.191236926"/>
    </g>
   </g>
   <g id="line2d_3">
    <path clip-path="url(#p2dcf8f185d)" d="M 71.999521 291.278101 
L 84.400006 296.408634 
L 96.799992 290.584248 
L 109.199996 272.690462 
L 121.59999 245.959644 
L 134.000019 220.669339 
L 146.400009 209.94359 
L 158.799986 220.223373 
L 171.199993 247.273133 
L 183.599975 281.153656 
L 196.000015 318.491484 
L 208.400019 342.408338 
L 220.799981 351.624586 
L 233.199988 344.636882 
L 245.599965 321.552924 
L 258.000007 289.323871 
L 270.400018 254.406242 
L 282.799984 226.440447 
L 295.199685 213.222832 
L 307.60001 215.706218 
L 319.999998 297.296709 
L 332.399951 339.050852 
L 344.8 374.062947 
L 357.20003 388.8 
L 369.599998 378.369163 
L 381.999999 345.111144 
L 394.400007 291.076011 
L 419.200051 178.340764 
L 431.599986 130.855113 
L 444.000036 108.115588 
L 456.400051 116.436603 
L 468.800032 150.297467 
L 481.200012 196.750542 
L 493.600021 242.008916 
L 506.000051 275.251811 
" style="fill:none;stroke:#000000;stroke-linecap:square;"/>
    <defs>
     <path d="M -3 3 
L 3 -3 
M -3 -3 
L 3 3 
" id="m15dcef9c41" style="stroke:#000000;stroke-width:0.5;"/>
    </defs>
    <g clip-path="url(#p2dcf8f185d)">
     <use style="stroke:#000000;stroke-width:0.5;" x="71.9995207358" xlink:href="#m15dcef9c41" y="291.278100527"/>
     <use style="stroke:#000000;stroke-width:0.5;" x="84.4000063669" xlink:href="#m15dcef9c41" y="296.408633564"/>
     <use style="stroke:#000000;stroke-width:0.5;" x="96.7999919617" xlink:href="#m15dcef9c41" y="290.584247571"/>
     <use style="stroke:#000000;stroke-width:0.5;" x="109.199995512" xlink:href="#m15dcef9c41" y="272.690461541"/>
     <use style="stroke:#000000;stroke-width:0.5;" x="121.59998981" xlink:href="#m15dcef9c41" y="245.959644248"/>
     <use style="stroke:#000000;stroke-width:0.5;" x="134.000019216" xlink:href="#m15dcef9c41" y="220.669338778"/>
     <use style="stroke:#000000;stroke-width:0.5;" x="146.400009201" xlink:href="#m15dcef9c41" y="209.943590471"/>
     <use style="stroke:#000000;stroke-width:0.5;" x="158.799986327" xlink:href="#m15dcef9c41" y="220.223373095"/>
     <use style="stroke:#000000;stroke-width:0.5;" x="171.199993296" xlink:href="#m15dcef9c41" y="247.273132953"/>
     <use style="stroke:#000000;stroke-width:0.5;" x="183.599975076" xlink:href="#m15dcef9c41" y="281.153656394"/>
     <use style="stroke:#000000;stroke-width:0.5;" x="196.000014922" xlink:href="#m15dcef9c41" y="318.491483745"/>
     <use style="stroke:#000000;stroke-width:0.5;" x="208.4000195" xlink:href="#m15dcef9c41" y="342.408338431"/>
     <use style="stroke:#000000;stroke-width:0.5;" x="220.799980809" xlink:href="#m15dcef9c41" y="351.624586354"/>
     <use style="stroke:#000000;stroke-width:0.5;" x="233.199988407" xlink:href="#m15dcef9c41" y="344.636881855"/>
     <use style="stroke:#000000;stroke-width:0.5;" x="245.599964918" xlink:href="#m15dcef9c41" y="321.552924165"/>
     <use style="stroke:#000000;stroke-width:0.5;" x="258.000006593" xlink:href="#m15dcef9c41" y="289.323871203"/>
     <use style="stroke:#000000;stroke-width:0.5;" x="270.40001843" xlink:href="#m15dcef9c41" y="254.406242378"/>
     <use style="stroke:#000000;stroke-width:0.5;" x="282.799984079" xlink:href="#m15dcef9c41" y="226.440446594"/>
     <use style="stroke:#000000;stroke-width:0.5;" x="295.1996852" xlink:href="#m15dcef9c41" y="213.222832493"/>
     <use style="stroke:#000000;stroke-width:0.5;" x="307.60001032" xlink:href="#m15dcef9c41" y="215.706218451"/>
     <use style="stroke:#000000;stroke-width:0.5;" x="319.999998046" xlink:href="#m15dcef9c41" y="297.296709415"/>
     <use style="stroke:#000000;stroke-width:0.5;" x="332.399950583" xlink:href="#m15dcef9c41" y="339.050852221"/>
     <use style="stroke:#000000;stroke-width:0.5;" x="344.799999538" xlink:href="#m15dcef9c41" y="374.06294663"/>
     <use style="stroke:#000000;stroke-width:0.5;" x="357.200030351" xlink:href="#m15dcef9c41" y="388.8"/>
     <use style="stroke:#000000;stroke-width:0.5;" x="369.599997893" xlink:href="#m15dcef9c41" y="378.369163299"/>
     <use style="stroke:#000000;stroke-width:0.5;" x="381.999999228" xlink:href="#m15dcef9c41" y="345.111143935"/>
     <use style="stroke:#000000;stroke-width:0.5;" x="394.400006509" xlink:href="#m15dcef9c41" y="291.076010567"/>
     <use style="stroke:#000000;stroke-width:0.5;" x="419.200051437" xlink:href="#m15dcef9c41" y="178.340764116"/>
     <use style="stroke:#000000;stroke-width:0.5;" x="431.599985668" xlink:href="#m15dcef9c41" y="130.855113237"/>
     <use style="stroke:#000000;stroke-width:0.5;" x="444.000036016" xlink:href="#m15dcef9c41" y="108.115587844"/>
     <use style="stroke:#000000;stroke-width:0.5;" x="456.400050576" xlink:href="#m15dcef9c41" y="116.436603014"/>
     <use style="stroke:#000000;stroke-width:0.5;" x="468.800032159" xlink:href="#m15dcef9c41" y="150.297467305"/>
     <use style="stroke:#000000;stroke-width:0.5;" x="481.200011679" xlink:href="#m15dcef9c41" y="196.750542462"/>
     <use style="stroke:#000000;stroke-width:0.5;" x="493.600021317" xlink:href="#m15dcef9c41" y="242.008915998"/>
     <use style="stroke:#000000;stroke-width:0.5;" x="506.000051252" xlink:href="#m15dcef9c41" y="275.251810858"/>
    </g>
   </g>
   <g id="line2d_4">
    <path clip-path="url(#p2dcf8f185d)" d="M 71.999521 388.8 
L 84.400006 386.435719 
L 96.799992 379.887206 
L 109.199996 370.724955 
L 121.59999 361.640577 
L 134.000019 355.064706 
L 146.400009 351.622452 
L 158.799986 350.141811 
L 171.199993 350.396872 
L 183.599975 352.36951 
L 196.000015 349.451937 
L 208.400019 353.034889 
L 220.799981 354.558859 
L 233.199988 353.513825 
L 245.599965 351.962703 
L 258.000007 348.871887 
L 270.400018 346.711056 
L 282.799984 345.465583 
L 295.199685 344.251713 
L 307.60001 342.577126 
L 319.999998 370.153 
L 332.399951 363.846819 
L 344.8 359.652911 
L 357.20003 359.123181 
L 369.599998 360.89256 
L 381.999999 362.12185 
L 394.400007 364.361633 
L 419.200051 346.777415 
L 431.599986 349.992881 
L 444.000036 357.611958 
L 456.400051 365.831384 
L 468.800032 373.642955 
L 481.200012 380.381443 
L 493.600021 385.071153 
L 506.000051 387.573459 
" style="fill:none;stroke:#ff00ff;stroke-linecap:square;"/>
    <defs>
     <path d="M -3 3 
L 3 -3 
M -3 -3 
L 3 3 
" id="m227e50c1d9" style="stroke:#ff00ff;stroke-width:0.5;"/>
    </defs>
    <g clip-path="url(#p2dcf8f185d)">
     <use style="fill:#ff00ff;stroke:#ff00ff;stroke-width:0.5;" x="71.9995207358" xlink:href="#m227e50c1d9" y="388.8"/>
     <use style="fill:#ff00ff;stroke:#ff00ff;stroke-width:0.5;" x="84.4000063669" xlink:href="#m227e50c1d9" y="386.435718705"/>
     <use style="fill:#ff00ff;stroke:#ff00ff;stroke-width:0.5;" x="96.7999919617" xlink:href="#m227e50c1d9" y="379.887206407"/>
     <use style="fill:#ff00ff;stroke:#ff00ff;stroke-width:0.5;" x="109.199995512" xlink:href="#m227e50c1d9" y="370.724954938"/>
     <use style="fill:#ff00ff;stroke:#ff00ff;stroke-width:0.5;" x="121.59998981" xlink:href="#m227e50c1d9" y="361.640577155"/>
     <use style="fill:#ff00ff;stroke:#ff00ff;stroke-width:0.5;" x="134.000019216" xlink:href="#m227e50c1d9" y="355.064705708"/>
     <use style="fill:#ff00ff;stroke:#ff00ff;stroke-width:0.5;" x="146.400009201" xlink:href="#m227e50c1d9" y="351.622451851"/>
     <use style="fill:#ff00ff;stroke:#ff00ff;stroke-width:0.5;" x="158.799986327" xlink:href="#m227e50c1d9" y="350.141810976"/>
     <use style="fill:#ff00ff;stroke:#ff00ff;stroke-width:0.5;" x="171.199993296" xlink:href="#m227e50c1d9" y="350.396871643"/>
     <use style="fill:#ff00ff;stroke:#ff00ff;stroke-width:0.5;" x="183.599975076" xlink:href="#m227e50c1d9" y="352.36951019"/>
     <use style="fill:#ff00ff;stroke:#ff00ff;stroke-width:0.5;" x="196.000014922" xlink:href="#m227e50c1d9" y="349.451937482"/>
     <use style="fill:#ff00ff;stroke:#ff00ff;stroke-width:0.5;" x="208.4000195" xlink:href="#m227e50c1d9" y="353.034889025"/>
     <use style="fill:#ff00ff;stroke:#ff00ff;stroke-width:0.5;" x="220.799980809" xlink:href="#m227e50c1d9" y="354.558858611"/>
     <use style="fill:#ff00ff;stroke:#ff00ff;stroke-width:0.5;" x="233.199988407" xlink:href="#m227e50c1d9" y="353.51382469"/>
     <use style="fill:#ff00ff;stroke:#ff00ff;stroke-width:0.5;" x="245.599964918" xlink:href="#m227e50c1d9" y="351.962703301"/>
     <use style="fill:#ff00ff;stroke:#ff00ff;stroke-width:0.5;" x="258.000006593" xlink:href="#m227e50c1d9" y="348.871887405"/>
     <use style="fill:#ff00ff;stroke:#ff00ff;stroke-width:0.5;" x="270.40001843" xlink:href="#m227e50c1d9" y="346.711056331"/>
     <use style="fill:#ff00ff;stroke:#ff00ff;stroke-width:0.5;" x="282.799984079" xlink:href="#m227e50c1d9" y="345.465583067"/>
     <use style="fill:#ff00ff;stroke:#ff00ff;stroke-width:0.5;" x="295.1996852" xlink:href="#m227e50c1d9" y="344.251713074"/>
     <use style="fill:#ff00ff;stroke:#ff00ff;stroke-width:0.5;" x="307.60001032" xlink:href="#m227e50c1d9" y="342.577126498"/>
     <use style="fill:#ff00ff;stroke:#ff00ff;stroke-width:0.5;" x="319.999998046" xlink:href="#m227e50c1d9" y="370.153000091"/>
     <use style="fill:#ff00ff;stroke:#ff00ff;stroke-width:0.5;" x="332.399950583" xlink:href="#m227e50c1d9" y="363.846818872"/>
     <use style="fill:#ff00ff;stroke:#ff00ff;stroke-width:0.5;" x="344.799999538" xlink:href="#m227e50c1d9" y="359.652911311"/>
     <use style="fill:#ff00ff;stroke:#ff00ff;stroke-width:0.5;" x="357.200030351" xlink:href="#m227e50c1d9" y="359.123180993"/>
     <use style="fill:#ff00ff;stroke:#ff00ff;stroke-width:0.5;" x="369.599997893" xlink:href="#m227e50c1d9" y="360.892560335"/>
     <use style="fill:#ff00ff;stroke:#ff00ff;stroke-width:0.5;" x="381.999999228" xlink:href="#m227e50c1d9" y="362.121850432"/>
     <use style="fill:#ff00ff;stroke:#ff00ff;stroke-width:0.5;" x="394.400006509" xlink:href="#m227e50c1d9" y="364.361633332"/>
     <use style="fill:#ff00ff;stroke:#ff00ff;stroke-width:0.5;" x="419.200051437" xlink:href="#m227e50c1d9" y="346.777415424"/>
     <use style="fill:#ff00ff;stroke:#ff00ff;stroke-width:0.5;" x="431.599985668" xlink:href="#m227e50c1d9" y="349.992880983"/>
     <use style="fill:#ff00ff;stroke:#ff00ff;stroke-width:0.5;" x="444.000036016" xlink:href="#m227e50c1d9" y="357.611958265"/>
     <use style="fill:#ff00ff;stroke:#ff00ff;stroke-width:0.5;" x="456.400050576" xlink:href="#m227e50c1d9" y="365.831383825"/>
     <use style="fill:#ff00ff;stroke:#ff00ff;stroke-width:0.5;" x="468.800032159" xlink:href="#m227e50c1d9" y="373.642954671"/>
     <use style="fill:#ff00ff;stroke:#ff00ff;stroke-width:0.5;" x="481.200011679" xlink:href="#m227e50c1d9" y="380.381443386"/>
     <use style="fill:#ff00ff;stroke:#ff00ff;stroke-width:0.5;" x="493.600021317" xlink:href="#m227e50c1d9" y="385.071153052"/>
     <use style="fill:#ff00ff;stroke:#ff00ff;stroke-width:0.5;" x="506.000051252" xlink:href="#m227e50c1d9" y="387.573458759"/>
    </g>
   </g>
   <g id="line2d_5">
    <path clip-path="url(#p2dcf8f185d)" d="M 71.999521 294.587691 
L 84.400006 297.546634 
L 96.799992 289.822227 
L 109.199996 269.051953 
L 121.59999 237.34129 
L 134.000019 205.527903 
L 146.400009 188.756996 
L 158.799986 195.59054 
L 171.199993 222.681617 
L 183.599975 259.172816 
L 196.000015 299.703453 
L 208.400019 325.687546 
L 220.799981 335.408302 
L 233.199988 327.844709 
L 245.599965 303.484438 
L 258.000007 269.139862 
L 270.400018 231.474434 
L 282.799984 201.690463 
L 295.199685 189.926021 
L 307.60001 197.611852 
L 319.999998 287.525174 
L 332.399951 334.462077 
L 344.8 372.163323 
L 357.20003 388.8 
L 369.599998 380.608358 
L 381.999999 349.556761 
L 394.400007 296.343025 
L 419.200051 176.073187 
L 431.599986 121.281156 
L 444.000036 93.399076 
L 456.400051 102.70238 
L 468.800032 143.398576 
L 481.200012 197.661011 
L 493.600021 247.236058 
L 506.000051 280.596307 
" style="fill:none;stroke:#008000;stroke-linecap:square;"/>
    <defs>
     <path d="M 0 3 
C 0.795609 3 1.55874 2.683901 2.12132 2.12132 
C 2.683901 1.55874 3 0.795609 3 0 
C 3 -0.795609 2.683901 -1.55874 2.12132 -2.12132 
C 1.55874 -2.683901 0.795609 -3 0 -3 
C -0.795609 -3 -1.55874 -2.683901 -2.12132 -2.12132 
C -2.683901 -1.55874 -3 -0.795609 -3 0 
C -3 0.795609 -2.683901 1.55874 -2.12132 2.12132 
C -1.55874 2.683901 -0.795609 3 0 3 
z
" id="m53eb622c22" style="stroke:#000000;stroke-width:0.5;"/>
    </defs>
    <g clip-path="url(#p2dcf8f185d)">
     <use style="fill:#008000;stroke:#000000;stroke-width:0.5;" x="71.9995207358" xlink:href="#m53eb622c22" y="294.587691493"/>
     <use style="fill:#008000;stroke:#000000;stroke-width:0.5;" x="84.4000063669" xlink:href="#m53eb622c22" y="297.546634285"/>
     <use style="fill:#008000;stroke:#000000;stroke-width:0.5;" x="96.7999919617" xlink:href="#m53eb622c22" y="289.8222271"/>
     <use style="fill:#008000;stroke:#000000;stroke-width:0.5;" x="109.199995512" xlink:href="#m53eb622c22" y="269.051953263"/>
     <use style="fill:#008000;stroke:#000000;stroke-width:0.5;" x="121.59998981" xlink:href="#m53eb622c22" y="237.341290424"/>
     <use style="fill:#008000;stroke:#000000;stroke-width:0.5;" x="134.000019216" xlink:href="#m53eb622c22" y="205.527903288"/>
     <use style="fill:#008000;stroke:#000000;stroke-width:0.5;" x="146.400009201" xlink:href="#m53eb622c22" y="188.756996233"/>
     <use style="fill:#008000;stroke:#000000;stroke-width:0.5;" x="158.799986327" xlink:href="#m53eb622c22" y="195.590539898"/>
     <use style="fill:#008000;stroke:#000000;stroke-width:0.5;" x="171.199993296" xlink:href="#m53eb622c22" y="222.681616854"/>
     <use style="fill:#008000;stroke:#000000;stroke-width:0.5;" x="183.599975076" xlink:href="#m53eb622c22" y="259.172816337"/>
     <use style="fill:#008000;stroke:#000000;stroke-width:0.5;" x="196.000014922" xlink:href="#m53eb622c22" y="299.703452819"/>
     <use style="fill:#008000;stroke:#000000;stroke-width:0.5;" x="208.4000195" xlink:href="#m53eb622c22" y="325.687545851"/>
     <use style="fill:#008000;stroke:#000000;stroke-width:0.5;" x="220.799980809" xlink:href="#m53eb622c22" y="335.408301674"/>
     <use style="fill:#008000;stroke:#000000;stroke-width:0.5;" x="233.199988407" xlink:href="#m53eb622c22" y="327.844708836"/>
     <use style="fill:#008000;stroke:#000000;stroke-width:0.5;" x="245.599964918" xlink:href="#m53eb622c22" y="303.484437991"/>
     <use style="fill:#008000;stroke:#000000;stroke-width:0.5;" x="258.000006593" xlink:href="#m53eb622c22" y="269.139862128"/>
     <use style="fill:#008000;stroke:#000000;stroke-width:0.5;" x="270.40001843" xlink:href="#m53eb622c22" y="231.474433863"/>
     <use style="fill:#008000;stroke:#000000;stroke-width:0.5;" x="282.799984079" xlink:href="#m53eb622c22" y="201.690463446"/>
     <use style="fill:#008000;stroke:#000000;stroke-width:0.5;" x="295.1996852" xlink:href="#m53eb622c22" y="189.926020958"/>
     <use style="fill:#008000;stroke:#000000;stroke-width:0.5;" x="307.60001032" xlink:href="#m53eb622c22" y="197.611852202"/>
     <use style="fill:#008000;stroke:#000000;stroke-width:0.5;" x="319.999998046" xlink:href="#m53eb622c22" y="287.525173933"/>
     <use style="fill:#008000;stroke:#000000;stroke-width:0.5;" x="332.399950583" xlink:href="#m53eb622c22" y="334.46207709"/>
     <use style="fill:#008000;stroke:#000000;stroke-width:0.5;" x="344.799999538" xlink:href="#m53eb622c22" y="372.163323068"/>
     <use style="fill:#008000;stroke:#000000;stroke-width:0.5;" x="357.200030351" xlink:href="#m53eb622c22" y="388.8"/>
     <use style="fill:#008000;stroke:#000000;stroke-width:0.5;" x="369.599997893" xlink:href="#m53eb622c22" y="380.608357751"/>
     <use style="fill:#008000;stroke:#000000;stroke-width:0.5;" x="381.999999228" xlink:href="#m53eb622c22" y="349.556761006"/>
     <use style="fill:#008000;stroke:#000000;stroke-width:0.5;" x="394.400006509" xlink:href="#m53eb622c22" y="296.343025072"/>
     <use style="fill:#008000;stroke:#000000;stroke-width:0.5;" x="419.200051437" xlink:href="#m53eb622c22" y="176.073186642"/>
     <use style="fill:#008000;stroke:#000000;stroke-width:0.5;" x="431.599985668" xlink:href="#m53eb622c22" y="121.281156069"/>
     <use style="fill:#008000;stroke:#000000;stroke-width:0.5;" x="444.000036016" xlink:href="#m53eb622c22" y="93.3990757689"/>
     <use style="fill:#008000;stroke:#000000;stroke-width:0.5;" x="456.400050576" xlink:href="#m53eb622c22" y="102.7023796"/>
     <use style="fill:#008000;stroke:#000000;stroke-width:0.5;" x="468.800032159" xlink:href="#m53eb622c22" y="143.398576272"/>
     <use style="fill:#008000;stroke:#000000;stroke-width:0.5;" x="481.200011679" xlink:href="#m53eb622c22" y="197.661011277"/>
     <use style="fill:#008000;stroke:#000000;stroke-width:0.5;" x="493.600021317" xlink:href="#m53eb622c22" y="247.236058156"/>
     <use style="fill:#008000;stroke:#000000;stroke-width:0.5;" x="506.000051252" xlink:href="#m53eb622c22" y="280.596307255"/>
    </g>
   </g>
   <g id="patch_3">
    <path d="M 518.4 388.8 
L 518.4 43.2 
" style="fill:none;stroke:#000000;stroke-linecap:square;stroke-linejoin:miter;"/>
   </g>
   <g id="patch_4">
    <path d="M 72 43.2 
L 518.4 43.2 
" style="fill:none;stroke:#000000;stroke-linecap:square;stroke-linejoin:miter;"/>
   </g>
   <g id="patch_5">
    <path d="M 72 388.8 
L 518.4 388.8 
" style="fill:none;stroke:#000000;stroke-linecap:square;stroke-linejoin:miter;"/>
   </g>
   <g id="patch_6">
    <path d="M 72 388.8 
L 72 43.2 
" style="fill:none;stroke:#000000;stroke-linecap:square;stroke-linejoin:miter;"/>
   </g>
   <g id="matplotlib.axis_1">
    <g id="xtick_1">
     <g id="line2d_6">
      <defs>
       <path d="M 0 0 
L 0 -4 
" id="m33d2abfcce" style="stroke:#000000;stroke-width:0.5;"/>
      </defs>
      <g>
       <use style="stroke:#000000;stroke-width:0.5;" x="72.0" xlink:href="#m33d2abfcce" y="388.8"/>
      </g>
     </g>
     <g id="line2d_7">
      <defs>
       <path d="M 0 0 
L 0 4 
" id="m2806dfb767" style="stroke:#000000;stroke-width:0.5;"/>
      </defs>
      <g>
       <use style="stroke:#000000;stroke-width:0.5;" x="72.0" xlink:href="#m2806dfb767" y="43.2"/>
      </g>
     </g>
     <g id="text_1">
      <!-- −180 -->
      <defs>
       <path d="M 31.78125 66.40625 
Q 24.171875 66.40625 20.328125 58.90625 
Q 16.5 51.421875 16.5 36.375 
Q 16.5 21.390625 20.328125 13.890625 
Q 24.171875 6.390625 31.78125 6.390625 
Q 39.453125 6.390625 43.28125 13.890625 
Q 47.125 21.390625 47.125 36.375 
Q 47.125 51.421875 43.28125 58.90625 
Q 39.453125 66.40625 31.78125 66.40625 
M 31.78125 74.21875 
Q 44.046875 74.21875 50.515625 64.515625 
Q 56.984375 54.828125 56.984375 36.375 
Q 56.984375 17.96875 50.515625 8.265625 
Q 44.046875 -1.421875 31.78125 -1.421875 
Q 19.53125 -1.421875 13.0625 8.265625 
Q 6.59375 17.96875 6.59375 36.375 
Q 6.59375 54.828125 13.0625 64.515625 
Q 19.53125 74.21875 31.78125 74.21875 
" id="BitstreamVeraSans-Roman-30"/>
       <path d="M 10.59375 35.5 
L 73.1875 35.5 
L 73.1875 27.203125 
L 10.59375 27.203125 
z
" id="BitstreamVeraSans-Roman-2212"/>
       <path d="M 31.78125 34.625 
Q 24.75 34.625 20.71875 30.859375 
Q 16.703125 27.09375 16.703125 20.515625 
Q 16.703125 13.921875 20.71875 10.15625 
Q 24.75 6.390625 31.78125 6.390625 
Q 38.8125 6.390625 42.859375 10.171875 
Q 46.921875 13.96875 46.921875 20.515625 
Q 46.921875 27.09375 42.890625 30.859375 
Q 38.875 34.625 31.78125 34.625 
M 21.921875 38.8125 
Q 15.578125 40.375 12.03125 44.71875 
Q 8.5 49.078125 8.5 55.328125 
Q 8.5 64.0625 14.71875 69.140625 
Q 20.953125 74.21875 31.78125 74.21875 
Q 42.671875 74.21875 48.875 69.140625 
Q 55.078125 64.0625 55.078125 55.328125 
Q 55.078125 49.078125 51.53125 44.71875 
Q 48 40.375 41.703125 38.8125 
Q 48.828125 37.15625 52.796875 32.3125 
Q 56.78125 27.484375 56.78125 20.515625 
Q 56.78125 9.90625 50.3125 4.234375 
Q 43.84375 -1.421875 31.78125 -1.421875 
Q 19.734375 -1.421875 13.25 4.234375 
Q 6.78125 9.90625 6.78125 20.515625 
Q 6.78125 27.484375 10.78125 32.3125 
Q 14.796875 37.15625 21.921875 38.8125 
M 18.3125 54.390625 
Q 18.3125 48.734375 21.84375 45.5625 
Q 25.390625 42.390625 31.78125 42.390625 
Q 38.140625 42.390625 41.71875 45.5625 
Q 45.3125 48.734375 45.3125 54.390625 
Q 45.3125 60.0625 41.71875 63.234375 
Q 38.140625 66.40625 31.78125 66.40625 
Q 25.390625 66.40625 21.84375 63.234375 
Q 18.3125 60.0625 18.3125 54.390625 
" id="BitstreamVeraSans-Roman-38"/>
       <path d="M 12.40625 8.296875 
L 28.515625 8.296875 
L 28.515625 63.921875 
L 10.984375 60.40625 
L 10.984375 69.390625 
L 28.421875 72.90625 
L 38.28125 72.90625 
L 38.28125 8.296875 
L 54.390625 8.296875 
L 54.390625 0 
L 12.40625 0 
z
" id="BitstreamVeraSans-Roman-31"/>
      </defs>
      <g transform="translate(55.5196875 401.918125)scale(0.12 -0.12)">
       <use xlink:href="#BitstreamVeraSans-Roman-2212"/>
       <use x="83.7890625" xlink:href="#BitstreamVeraSans-Roman-31"/>
       <use x="147.412109375" xlink:href="#BitstreamVeraSans-Roman-38"/>
       <use x="211.03515625" xlink:href="#BitstreamVeraSans-Roman-30"/>
      </g>
     </g>
    </g>
    <g id="xtick_2">
     <g id="line2d_8">
      <g>
       <use style="stroke:#000000;stroke-width:0.5;" x="127.8" xlink:href="#m33d2abfcce" y="388.8"/>
      </g>
     </g>
     <g id="line2d_9">
      <g>
       <use style="stroke:#000000;stroke-width:0.5;" x="127.8" xlink:href="#m2806dfb767" y="43.2"/>
      </g>
     </g>
     <g id="text_2">
      <!-- −135 -->
      <defs>
       <path d="M 10.796875 72.90625 
L 49.515625 72.90625 
L 49.515625 64.59375 
L 19.828125 64.59375 
L 19.828125 46.734375 
Q 21.96875 47.46875 24.109375 47.828125 
Q 26.265625 48.1875 28.421875 48.1875 
Q 40.625 48.1875 47.75 41.5 
Q 54.890625 34.8125 54.890625 23.390625 
Q 54.890625 11.625 47.5625 5.09375 
Q 40.234375 -1.421875 26.90625 -1.421875 
Q 22.3125 -1.421875 17.546875 -0.640625 
Q 12.796875 0.140625 7.71875 1.703125 
L 7.71875 11.625 
Q 12.109375 9.234375 16.796875 8.0625 
Q 21.484375 6.890625 26.703125 6.890625 
Q 35.15625 6.890625 40.078125 11.328125 
Q 45.015625 15.765625 45.015625 23.390625 
Q 45.015625 31 40.078125 35.4375 
Q 35.15625 39.890625 26.703125 39.890625 
Q 22.75 39.890625 18.8125 39.015625 
Q 14.890625 38.140625 10.796875 36.28125 
z
" id="BitstreamVeraSans-Roman-35"/>
       <path d="M 40.578125 39.3125 
Q 47.65625 37.796875 51.625 33 
Q 55.609375 28.21875 55.609375 21.1875 
Q 55.609375 10.40625 48.1875 4.484375 
Q 40.765625 -1.421875 27.09375 -1.421875 
Q 22.515625 -1.421875 17.65625 -0.515625 
Q 12.796875 0.390625 7.625 2.203125 
L 7.625 11.71875 
Q 11.71875 9.328125 16.59375 8.109375 
Q 21.484375 6.890625 26.8125 6.890625 
Q 36.078125 6.890625 40.9375 10.546875 
Q 45.796875 14.203125 45.796875 21.1875 
Q 45.796875 27.640625 41.28125 31.265625 
Q 36.765625 34.90625 28.71875 34.90625 
L 20.21875 34.90625 
L 20.21875 43.015625 
L 29.109375 43.015625 
Q 36.375 43.015625 40.234375 45.921875 
Q 44.09375 48.828125 44.09375 54.296875 
Q 44.09375 59.90625 40.109375 62.90625 
Q 36.140625 65.921875 28.71875 65.921875 
Q 24.65625 65.921875 20.015625 65.03125 
Q 15.375 64.15625 9.8125 62.3125 
L 9.8125 71.09375 
Q 15.4375 72.65625 20.34375 73.4375 
Q 25.25 74.21875 29.59375 74.21875 
Q 40.828125 74.21875 47.359375 69.109375 
Q 53.90625 64.015625 53.90625 55.328125 
Q 53.90625 49.265625 50.4375 45.09375 
Q 46.96875 40.921875 40.578125 39.3125 
" id="BitstreamVeraSans-Roman-33"/>
      </defs>
      <g transform="translate(111.3196875 401.918125)scale(0.12 -0.12)">
       <use xlink:href="#BitstreamVeraSans-Roman-2212"/>
       <use x="83.7890625" xlink:href="#BitstreamVeraSans-Roman-31"/>
       <use x="147.412109375" xlink:href="#BitstreamVeraSans-Roman-33"/>
       <use x="211.03515625" xlink:href="#BitstreamVeraSans-Roman-35"/>
      </g>
     </g>
    </g>
    <g id="xtick_3">
     <g id="line2d_10">
      <g>
       <use style="stroke:#000000;stroke-width:0.5;" x="183.6" xlink:href="#m33d2abfcce" y="388.8"/>
      </g>
     </g>
     <g id="line2d_11">
      <g>
       <use style="stroke:#000000;stroke-width:0.5;" x="183.6" xlink:href="#m2806dfb767" y="43.2"/>
      </g>
     </g>
     <g id="text_3">
      <!-- −90 -->
      <defs>
       <path d="M 10.984375 1.515625 
L 10.984375 10.5 
Q 14.703125 8.734375 18.5 7.8125 
Q 22.3125 6.890625 25.984375 6.890625 
Q 35.75 6.890625 40.890625 13.453125 
Q 46.046875 20.015625 46.78125 33.40625 
Q 43.953125 29.203125 39.59375 26.953125 
Q 35.25 24.703125 29.984375 24.703125 
Q 19.046875 24.703125 12.671875 31.3125 
Q 6.296875 37.9375 6.296875 49.421875 
Q 6.296875 60.640625 12.9375 67.421875 
Q 19.578125 74.21875 30.609375 74.21875 
Q 43.265625 74.21875 49.921875 64.515625 
Q 56.59375 54.828125 56.59375 36.375 
Q 56.59375 19.140625 48.40625 8.859375 
Q 40.234375 -1.421875 26.421875 -1.421875 
Q 22.703125 -1.421875 18.890625 -0.6875 
Q 15.09375 0.046875 10.984375 1.515625 
M 30.609375 32.421875 
Q 37.25 32.421875 41.125 36.953125 
Q 45.015625 41.5 45.015625 49.421875 
Q 45.015625 57.28125 41.125 61.84375 
Q 37.25 66.40625 30.609375 66.40625 
Q 23.96875 66.40625 20.09375 61.84375 
Q 16.21875 57.28125 16.21875 49.421875 
Q 16.21875 41.5 20.09375 36.953125 
Q 23.96875 32.421875 30.609375 32.421875 
" id="BitstreamVeraSans-Roman-39"/>
      </defs>
      <g transform="translate(170.9371875 401.918125)scale(0.12 -0.12)">
       <use xlink:href="#BitstreamVeraSans-Roman-2212"/>
       <use x="83.7890625" xlink:href="#BitstreamVeraSans-Roman-39"/>
       <use x="147.412109375" xlink:href="#BitstreamVeraSans-Roman-30"/>
      </g>
     </g>
    </g>
    <g id="xtick_4">
     <g id="line2d_12">
      <g>
       <use style="stroke:#000000;stroke-width:0.5;" x="239.4" xlink:href="#m33d2abfcce" y="388.8"/>
      </g>
     </g>
     <g id="line2d_13">
      <g>
       <use style="stroke:#000000;stroke-width:0.5;" x="239.4" xlink:href="#m2806dfb767" y="43.2"/>
      </g>
     </g>
     <g id="text_4">
      <!-- −45 -->
      <defs>
       <path d="M 37.796875 64.3125 
L 12.890625 25.390625 
L 37.796875 25.390625 
z
M 35.203125 72.90625 
L 47.609375 72.90625 
L 47.609375 25.390625 
L 58.015625 25.390625 
L 58.015625 17.1875 
L 47.609375 17.1875 
L 47.609375 0 
L 37.796875 0 
L 37.796875 17.1875 
L 4.890625 17.1875 
L 4.890625 26.703125 
z
" id="BitstreamVeraSans-Roman-34"/>
      </defs>
      <g transform="translate(226.7371875 401.918125)scale(0.12 -0.12)">
       <use xlink:href="#BitstreamVeraSans-Roman-2212"/>
       <use x="83.7890625" xlink:href="#BitstreamVeraSans-Roman-34"/>
       <use x="147.412109375" xlink:href="#BitstreamVeraSans-Roman-35"/>
      </g>
     </g>
    </g>
    <g id="xtick_5">
     <g id="line2d_14">
      <g>
       <use style="stroke:#000000;stroke-width:0.5;" x="295.2" xlink:href="#m33d2abfcce" y="388.8"/>
      </g>
     </g>
     <g id="line2d_15">
      <g>
       <use style="stroke:#000000;stroke-width:0.5;" x="295.2" xlink:href="#m2806dfb767" y="43.2"/>
      </g>
     </g>
     <g id="text_5">
      <!-- 0 -->
      <g transform="translate(291.3825 401.918125)scale(0.12 -0.12)">
       <use xlink:href="#BitstreamVeraSans-Roman-30"/>
      </g>
     </g>
    </g>
    <g id="xtick_6">
     <g id="line2d_16">
      <g>
       <use style="stroke:#000000;stroke-width:0.5;" x="351.0" xlink:href="#m33d2abfcce" y="388.8"/>
      </g>
     </g>
     <g id="line2d_17">
      <g>
       <use style="stroke:#000000;stroke-width:0.5;" x="351.0" xlink:href="#m2806dfb767" y="43.2"/>
      </g>
     </g>
     <g id="text_6">
      <!-- 45 -->
      <g transform="translate(343.365 401.918125)scale(0.12 -0.12)">
       <use xlink:href="#BitstreamVeraSans-Roman-34"/>
       <use x="63.623046875" xlink:href="#BitstreamVeraSans-Roman-35"/>
      </g>
     </g>
    </g>
    <g id="xtick_7">
     <g id="line2d_18">
      <g>
       <use style="stroke:#000000;stroke-width:0.5;" x="406.8" xlink:href="#m33d2abfcce" y="388.8"/>
      </g>
     </g>
     <g id="line2d_19">
      <g>
       <use style="stroke:#000000;stroke-width:0.5;" x="406.8" xlink:href="#m2806dfb767" y="43.2"/>
      </g>
     </g>
     <g id="text_7">
      <!-- 90 -->
      <g transform="translate(399.165 401.918125)scale(0.12 -0.12)">
       <use xlink:href="#BitstreamVeraSans-Roman-39"/>
       <use x="63.623046875" xlink:href="#BitstreamVeraSans-Roman-30"/>
      </g>
     </g>
    </g>
    <g id="xtick_8">
     <g id="line2d_20">
      <g>
       <use style="stroke:#000000;stroke-width:0.5;" x="462.6" xlink:href="#m33d2abfcce" y="388.8"/>
      </g>
     </g>
     <g id="line2d_21">
      <g>
       <use style="stroke:#000000;stroke-width:0.5;" x="462.6" xlink:href="#m2806dfb767" y="43.2"/>
      </g>
     </g>
     <g id="text_8">
      <!-- 135 -->
      <g transform="translate(451.1475 401.918125)scale(0.12 -0.12)">
       <use xlink:href="#BitstreamVeraSans-Roman-31"/>
       <use x="63.623046875" xlink:href="#BitstreamVeraSans-Roman-33"/>
       <use x="127.24609375" xlink:href="#BitstreamVeraSans-Roman-35"/>
      </g>
     </g>
    </g>
    <g id="xtick_9">
     <g id="line2d_22">
      <g>
       <use style="stroke:#000000;stroke-width:0.5;" x="518.4" xlink:href="#m33d2abfcce" y="388.8"/>
      </g>
     </g>
     <g id="line2d_23">
      <g>
       <use style="stroke:#000000;stroke-width:0.5;" x="518.4" xlink:href="#m2806dfb767" y="43.2"/>
      </g>
     </g>
     <g id="text_9">
      <!-- 180 -->
      <g transform="translate(506.9475 401.918125)scale(0.12 -0.12)">
       <use xlink:href="#BitstreamVeraSans-Roman-31"/>
       <use x="63.623046875" xlink:href="#BitstreamVeraSans-Roman-38"/>
       <use x="127.24609375" xlink:href="#BitstreamVeraSans-Roman-30"/>
      </g>
     </g>
    </g>
    <g id="text_10">
     <!-- Phi -->
     <defs>
      <path d="M 54.890625 33.015625 
L 54.890625 0 
L 45.90625 0 
L 45.90625 32.71875 
Q 45.90625 40.484375 42.875 44.328125 
Q 39.84375 48.1875 33.796875 48.1875 
Q 26.515625 48.1875 22.3125 43.546875 
Q 18.109375 38.921875 18.109375 30.90625 
L 18.109375 0 
L 9.078125 0 
L 9.078125 75.984375 
L 18.109375 75.984375 
L 18.109375 46.1875 
Q 21.34375 51.125 25.703125 53.5625 
Q 30.078125 56 35.796875 56 
Q 45.21875 56 50.046875 50.171875 
Q 54.890625 44.34375 54.890625 33.015625 
" id="BitstreamVeraSans-Roman-68"/>
      <path d="M 9.421875 54.6875 
L 18.40625 54.6875 
L 18.40625 0 
L 9.421875 0 
z
M 9.421875 75.984375 
L 18.40625 75.984375 
L 18.40625 64.59375 
L 9.421875 64.59375 
z
" id="BitstreamVeraSans-Roman-69"/>
      <path d="M 19.671875 64.796875 
L 19.671875 37.40625 
L 32.078125 37.40625 
Q 38.96875 37.40625 42.71875 40.96875 
Q 46.484375 44.53125 46.484375 51.125 
Q 46.484375 57.671875 42.71875 61.234375 
Q 38.96875 64.796875 32.078125 64.796875 
z
M 9.8125 72.90625 
L 32.078125 72.90625 
Q 44.34375 72.90625 50.609375 67.359375 
Q 56.890625 61.8125 56.890625 51.125 
Q 56.890625 40.328125 50.609375 34.8125 
Q 44.34375 29.296875 32.078125 29.296875 
L 19.671875 29.296875 
L 19.671875 0 
L 9.8125 0 
z
" id="BitstreamVeraSans-Roman-50"/>
     </defs>
     <g transform="translate(286.1128125 418.531875)scale(0.12 -0.12)">
      <use xlink:href="#BitstreamVeraSans-Roman-50"/>
      <use x="60.302734375" xlink:href="#BitstreamVeraSans-Roman-68"/>
      <use x="123.681640625" xlink:href="#BitstreamVeraSans-Roman-69"/>
     </g>
    </g>
   </g>
   <g id="matplotlib.axis_2">
    <g id="ytick_1">
     <g id="line2d_24">
      <defs>
       <path d="M 0 0 
L 4 0 
" id="m0d1a63585f" style="stroke:#000000;stroke-width:0.5;"/>
      </defs>
      <g>
       <use style="stroke:#000000;stroke-width:0.5;" x="72.0" xlink:href="#m0d1a63585f" y="388.8"/>
      </g>
     </g>
     <g id="line2d_25">
      <defs>
       <path d="M 0 0 
L -4 0 
" id="m76503cfad3" style="stroke:#000000;stroke-width:0.5;"/>
      </defs>
      <g>
       <use style="stroke:#000000;stroke-width:0.5;" x="518.4" xlink:href="#m76503cfad3" y="388.8"/>
      </g>
     </g>
     <g id="text_11">
      <!-- 0 -->
      <g transform="translate(60.365 392.11125)scale(0.12 -0.12)">
       <use xlink:href="#BitstreamVeraSans-Roman-30"/>
      </g>
     </g>
    </g>
    <g id="ytick_2">
     <g id="line2d_26">
      <g>
       <use style="stroke:#000000;stroke-width:0.5;" x="72.0" xlink:href="#m0d1a63585f" y="345.6"/>
      </g>
     </g>
     <g id="line2d_27">
      <g>
       <use style="stroke:#000000;stroke-width:0.5;" x="518.4" xlink:href="#m76503cfad3" y="345.6"/>
      </g>
     </g>
     <g id="text_12">
      <!-- 1 -->
      <g transform="translate(60.365 348.91125)scale(0.12 -0.12)">
       <use xlink:href="#BitstreamVeraSans-Roman-31"/>
      </g>
     </g>
    </g>
    <g id="ytick_3">
     <g id="line2d_28">
      <g>
       <use style="stroke:#000000;stroke-width:0.5;" x="72.0" xlink:href="#m0d1a63585f" y="302.4"/>
      </g>
     </g>
     <g id="line2d_29">
      <g>
       <use style="stroke:#000000;stroke-width:0.5;" x="518.4" xlink:href="#m76503cfad3" y="302.4"/>
      </g>
     </g>
     <g id="text_13">
      <!-- 2 -->
      <defs>
       <path d="M 19.1875 8.296875 
L 53.609375 8.296875 
L 53.609375 0 
L 7.328125 0 
L 7.328125 8.296875 
Q 12.9375 14.109375 22.625 23.890625 
Q 32.328125 33.6875 34.8125 36.53125 
Q 39.546875 41.84375 41.421875 45.53125 
Q 43.3125 49.21875 43.3125 52.78125 
Q 43.3125 58.59375 39.234375 62.25 
Q 35.15625 65.921875 28.609375 65.921875 
Q 23.96875 65.921875 18.8125 64.3125 
Q 13.671875 62.703125 7.8125 59.421875 
L 7.8125 69.390625 
Q 13.765625 71.78125 18.9375 73 
Q 24.125 74.21875 28.421875 74.21875 
Q 39.75 74.21875 46.484375 68.546875 
Q 53.21875 62.890625 53.21875 53.421875 
Q 53.21875 48.921875 51.53125 44.890625 
Q 49.859375 40.875 45.40625 35.40625 
Q 44.1875 33.984375 37.640625 27.21875 
Q 31.109375 20.453125 19.1875 8.296875 
" id="BitstreamVeraSans-Roman-32"/>
      </defs>
      <g transform="translate(60.365 305.71125)scale(0.12 -0.12)">
       <use xlink:href="#BitstreamVeraSans-Roman-32"/>
      </g>
     </g>
    </g>
    <g id="ytick_4">
     <g id="line2d_30">
      <g>
       <use style="stroke:#000000;stroke-width:0.5;" x="72.0" xlink:href="#m0d1a63585f" y="259.2"/>
      </g>
     </g>
     <g id="line2d_31">
      <g>
       <use style="stroke:#000000;stroke-width:0.5;" x="518.4" xlink:href="#m76503cfad3" y="259.2"/>
      </g>
     </g>
     <g id="text_14">
      <!-- 3 -->
      <g transform="translate(60.365 262.51125)scale(0.12 -0.12)">
       <use xlink:href="#BitstreamVeraSans-Roman-33"/>
      </g>
     </g>
    </g>
    <g id="ytick_5">
     <g id="line2d_32">
      <g>
       <use style="stroke:#000000;stroke-width:0.5;" x="72.0" xlink:href="#m0d1a63585f" y="216.0"/>
      </g>
     </g>
     <g id="line2d_33">
      <g>
       <use style="stroke:#000000;stroke-width:0.5;" x="518.4" xlink:href="#m76503cfad3" y="216.0"/>
      </g>
     </g>
     <g id="text_15">
      <!-- 4 -->
      <g transform="translate(60.365 219.31125)scale(0.12 -0.12)">
       <use xlink:href="#BitstreamVeraSans-Roman-34"/>
      </g>
     </g>
    </g>
    <g id="ytick_6">
     <g id="line2d_34">
      <g>
       <use style="stroke:#000000;stroke-width:0.5;" x="72.0" xlink:href="#m0d1a63585f" y="172.8"/>
      </g>
     </g>
     <g id="line2d_35">
      <g>
       <use style="stroke:#000000;stroke-width:0.5;" x="518.4" xlink:href="#m76503cfad3" y="172.8"/>
      </g>
     </g>
     <g id="text_16">
      <!-- 5 -->
      <g transform="translate(60.365 176.11125)scale(0.12 -0.12)">
       <use xlink:href="#BitstreamVeraSans-Roman-35"/>
      </g>
     </g>
    </g>
    <g id="ytick_7">
     <g id="line2d_36">
      <g>
       <use style="stroke:#000000;stroke-width:0.5;" x="72.0" xlink:href="#m0d1a63585f" y="129.6"/>
      </g>
     </g>
     <g id="line2d_37">
      <g>
       <use style="stroke:#000000;stroke-width:0.5;" x="518.4" xlink:href="#m76503cfad3" y="129.6"/>
      </g>
     </g>
     <g id="text_17">
      <!-- 6 -->
      <defs>
       <path d="M 33.015625 40.375 
Q 26.375 40.375 22.484375 35.828125 
Q 18.609375 31.296875 18.609375 23.390625 
Q 18.609375 15.53125 22.484375 10.953125 
Q 26.375 6.390625 33.015625 6.390625 
Q 39.65625 6.390625 43.53125 10.953125 
Q 47.40625 15.53125 47.40625 23.390625 
Q 47.40625 31.296875 43.53125 35.828125 
Q 39.65625 40.375 33.015625 40.375 
M 52.59375 71.296875 
L 52.59375 62.3125 
Q 48.875 64.0625 45.09375 64.984375 
Q 41.3125 65.921875 37.59375 65.921875 
Q 27.828125 65.921875 22.671875 59.328125 
Q 17.53125 52.734375 16.796875 39.40625 
Q 19.671875 43.65625 24.015625 45.921875 
Q 28.375 48.1875 33.59375 48.1875 
Q 44.578125 48.1875 50.953125 41.515625 
Q 57.328125 34.859375 57.328125 23.390625 
Q 57.328125 12.15625 50.6875 5.359375 
Q 44.046875 -1.421875 33.015625 -1.421875 
Q 20.359375 -1.421875 13.671875 8.265625 
Q 6.984375 17.96875 6.984375 36.375 
Q 6.984375 53.65625 15.1875 63.9375 
Q 23.390625 74.21875 37.203125 74.21875 
Q 40.921875 74.21875 44.703125 73.484375 
Q 48.484375 72.75 52.59375 71.296875 
" id="BitstreamVeraSans-Roman-36"/>
      </defs>
      <g transform="translate(60.365 132.91125)scale(0.12 -0.12)">
       <use xlink:href="#BitstreamVeraSans-Roman-36"/>
      </g>
     </g>
    </g>
    <g id="ytick_8">
     <g id="line2d_38">
      <g>
       <use style="stroke:#000000;stroke-width:0.5;" x="72.0" xlink:href="#m0d1a63585f" y="86.4"/>
      </g>
     </g>
     <g id="line2d_39">
      <g>
       <use style="stroke:#000000;stroke-width:0.5;" x="518.4" xlink:href="#m76503cfad3" y="86.4"/>
      </g>
     </g>
     <g id="text_18">
      <!-- 7 -->
      <defs>
       <path d="M 8.203125 72.90625 
L 55.078125 72.90625 
L 55.078125 68.703125 
L 28.609375 0 
L 18.3125 0 
L 43.21875 64.59375 
L 8.203125 64.59375 
z
" id="BitstreamVeraSans-Roman-37"/>
      </defs>
      <g transform="translate(60.365 89.71125)scale(0.12 -0.12)">
       <use xlink:href="#BitstreamVeraSans-Roman-37"/>
      </g>
     </g>
    </g>
    <g id="ytick_9">
     <g id="line2d_40">
      <g>
       <use style="stroke:#000000;stroke-width:0.5;" x="72.0" xlink:href="#m0d1a63585f" y="43.2"/>
      </g>
     </g>
     <g id="line2d_41">
      <g>
       <use style="stroke:#000000;stroke-width:0.5;" x="518.4" xlink:href="#m76503cfad3" y="43.2"/>
      </g>
     </g>
     <g id="text_19">
      <!-- 8 -->
      <g transform="translate(60.365 46.51125)scale(0.12 -0.12)">
       <use xlink:href="#BitstreamVeraSans-Roman-38"/>
      </g>
     </g>
    </g>
    <g id="text_20">
     <!-- kcal/mol -->
     <defs>
      <path d="M 9.078125 75.984375 
L 18.109375 75.984375 
L 18.109375 31.109375 
L 44.921875 54.6875 
L 56.390625 54.6875 
L 27.390625 29.109375 
L 57.625 0 
L 45.90625 0 
L 18.109375 26.703125 
L 18.109375 0 
L 9.078125 0 
z
" id="BitstreamVeraSans-Roman-6b"/>
      <path d="M 34.28125 27.484375 
Q 23.390625 27.484375 19.1875 25 
Q 14.984375 22.515625 14.984375 16.5 
Q 14.984375 11.71875 18.140625 8.90625 
Q 21.296875 6.109375 26.703125 6.109375 
Q 34.1875 6.109375 38.703125 11.40625 
Q 43.21875 16.703125 43.21875 25.484375 
L 43.21875 27.484375 
z
M 52.203125 31.203125 
L 52.203125 0 
L 43.21875 0 
L 43.21875 8.296875 
Q 40.140625 3.328125 35.546875 0.953125 
Q 30.953125 -1.421875 24.3125 -1.421875 
Q 15.921875 -1.421875 10.953125 3.296875 
Q 6 8.015625 6 15.921875 
Q 6 25.140625 12.171875 29.828125 
Q 18.359375 34.515625 30.609375 34.515625 
L 43.21875 34.515625 
L 43.21875 35.40625 
Q 43.21875 41.609375 39.140625 45 
Q 35.0625 48.390625 27.6875 48.390625 
Q 23 48.390625 18.546875 47.265625 
Q 14.109375 46.140625 10.015625 43.890625 
L 10.015625 52.203125 
Q 14.9375 54.109375 19.578125 55.046875 
Q 24.21875 56 28.609375 56 
Q 40.484375 56 46.34375 49.84375 
Q 52.203125 43.703125 52.203125 31.203125 
" id="BitstreamVeraSans-Roman-61"/>
      <path d="M 52 44.1875 
Q 55.375 50.25 60.0625 53.125 
Q 64.75 56 71.09375 56 
Q 79.640625 56 84.28125 50.015625 
Q 88.921875 44.046875 88.921875 33.015625 
L 88.921875 0 
L 79.890625 0 
L 79.890625 32.71875 
Q 79.890625 40.578125 77.09375 44.375 
Q 74.3125 48.1875 68.609375 48.1875 
Q 61.625 48.1875 57.5625 43.546875 
Q 53.515625 38.921875 53.515625 30.90625 
L 53.515625 0 
L 44.484375 0 
L 44.484375 32.71875 
Q 44.484375 40.625 41.703125 44.40625 
Q 38.921875 48.1875 33.109375 48.1875 
Q 26.21875 48.1875 22.15625 43.53125 
Q 18.109375 38.875 18.109375 30.90625 
L 18.109375 0 
L 9.078125 0 
L 9.078125 54.6875 
L 18.109375 54.6875 
L 18.109375 46.1875 
Q 21.1875 51.21875 25.484375 53.609375 
Q 29.78125 56 35.6875 56 
Q 41.65625 56 45.828125 52.96875 
Q 50 49.953125 52 44.1875 
" id="BitstreamVeraSans-Roman-6d"/>
      <path d="M 30.609375 48.390625 
Q 23.390625 48.390625 19.1875 42.75 
Q 14.984375 37.109375 14.984375 27.296875 
Q 14.984375 17.484375 19.15625 11.84375 
Q 23.34375 6.203125 30.609375 6.203125 
Q 37.796875 6.203125 41.984375 11.859375 
Q 46.1875 17.53125 46.1875 27.296875 
Q 46.1875 37.015625 41.984375 42.703125 
Q 37.796875 48.390625 30.609375 48.390625 
M 30.609375 56 
Q 42.328125 56 49.015625 48.375 
Q 55.71875 40.765625 55.71875 27.296875 
Q 55.71875 13.875 49.015625 6.21875 
Q 42.328125 -1.421875 30.609375 -1.421875 
Q 18.84375 -1.421875 12.171875 6.21875 
Q 5.515625 13.875 5.515625 27.296875 
Q 5.515625 40.765625 12.171875 48.375 
Q 18.84375 56 30.609375 56 
" id="BitstreamVeraSans-Roman-6f"/>
      <path d="M 25.390625 72.90625 
L 33.6875 72.90625 
L 8.296875 -9.28125 
L 0 -9.28125 
z
" id="BitstreamVeraSans-Roman-2f"/>
      <path d="M 48.78125 52.59375 
L 48.78125 44.1875 
Q 44.96875 46.296875 41.140625 47.34375 
Q 37.3125 48.390625 33.40625 48.390625 
Q 24.65625 48.390625 19.8125 42.84375 
Q 14.984375 37.3125 14.984375 27.296875 
Q 14.984375 17.28125 19.8125 11.734375 
Q 24.65625 6.203125 33.40625 6.203125 
Q 37.3125 6.203125 41.140625 7.25 
Q 44.96875 8.296875 48.78125 10.40625 
L 48.78125 2.09375 
Q 45.015625 0.34375 40.984375 -0.53125 
Q 36.96875 -1.421875 32.421875 -1.421875 
Q 20.0625 -1.421875 12.78125 6.34375 
Q 5.515625 14.109375 5.515625 27.296875 
Q 5.515625 40.671875 12.859375 48.328125 
Q 20.21875 56 33.015625 56 
Q 37.15625 56 41.109375 55.140625 
Q 45.0625 54.296875 48.78125 52.59375 
" id="BitstreamVeraSans-Roman-63"/>
      <path d="M 9.421875 75.984375 
L 18.40625 75.984375 
L 18.40625 0 
L 9.421875 0 
z
" id="BitstreamVeraSans-Roman-6c"/>
     </defs>
     <g transform="translate(52.869375 241.3209375)rotate(-90.0)scale(0.12 -0.12)">
      <use xlink:href="#BitstreamVeraSans-Roman-6b"/>
      <use x="57.91015625" xlink:href="#BitstreamVeraSans-Roman-63"/>
      <use x="112.890625" xlink:href="#BitstreamVeraSans-Roman-61"/>
      <use x="174.169921875" xlink:href="#BitstreamVeraSans-Roman-6c"/>
      <use x="201.953125" xlink:href="#BitstreamVeraSans-Roman-2f"/>
      <use x="235.64453125" xlink:href="#BitstreamVeraSans-Roman-6d"/>
      <use x="333.056640625" xlink:href="#BitstreamVeraSans-Roman-6f"/>
      <use x="394.23828125" xlink:href="#BitstreamVeraSans-Roman-6c"/>
     </g>
    </g>
   </g>
   <g id="text_21">
    <!-- H3-C4-C2-C1 -->
    <defs>
     <path d="M 4.890625 31.390625 
L 31.203125 31.390625 
L 31.203125 23.390625 
L 4.890625 23.390625 
z
" id="BitstreamVeraSans-Roman-2d"/>
     <path d="M 9.8125 72.90625 
L 19.671875 72.90625 
L 19.671875 43.015625 
L 55.515625 43.015625 
L 55.515625 72.90625 
L 65.375 72.90625 
L 65.375 0 
L 55.515625 0 
L 55.515625 34.71875 
L 19.671875 34.71875 
L 19.671875 0 
L 9.8125 0 
z
" id="BitstreamVeraSans-Roman-48"/>
     <path d="M 64.40625 67.28125 
L 64.40625 56.890625 
Q 59.421875 61.53125 53.78125 63.8125 
Q 48.140625 66.109375 41.796875 66.109375 
Q 29.296875 66.109375 22.65625 58.46875 
Q 16.015625 50.828125 16.015625 36.375 
Q 16.015625 21.96875 22.65625 14.328125 
Q 29.296875 6.6875 41.796875 6.6875 
Q 48.140625 6.6875 53.78125 8.984375 
Q 59.421875 11.28125 64.40625 15.921875 
L 64.40625 5.609375 
Q 59.234375 2.09375 53.4375 0.328125 
Q 47.65625 -1.421875 41.21875 -1.421875 
Q 24.65625 -1.421875 15.125 8.703125 
Q 5.609375 18.84375 5.609375 36.375 
Q 5.609375 53.953125 15.125 64.078125 
Q 24.65625 74.21875 41.21875 74.21875 
Q 47.75 74.21875 53.53125 72.484375 
Q 59.328125 70.75 64.40625 67.28125 
" id="BitstreamVeraSans-Roman-43"/>
    </defs>
    <g transform="translate(248.585625 38.2)scale(0.144 -0.144)">
     <use xlink:href="#BitstreamVeraSans-Roman-48"/>
     <use x="75.1953125" xlink:href="#BitstreamVeraSans-Roman-33"/>
     <use x="138.818359375" xlink:href="#BitstreamVeraSans-Roman-2d"/>
     <use x="174.90234375" xlink:href="#BitstreamVeraSans-Roman-43"/>
     <use x="244.7265625" xlink:href="#BitstreamVeraSans-Roman-34"/>
     <use x="308.349609375" xlink:href="#BitstreamVeraSans-Roman-2d"/>
     <use x="344.43359375" xlink:href="#BitstreamVeraSans-Roman-43"/>
     <use x="414.2578125" xlink:href="#BitstreamVeraSans-Roman-32"/>
     <use x="477.880859375" xlink:href="#BitstreamVeraSans-Roman-2d"/>
     <use x="513.96484375" xlink:href="#BitstreamVeraSans-Roman-43"/>
     <use x="583.7890625" xlink:href="#BitstreamVeraSans-Roman-31"/>
    </g>
   </g>
   <g id="legend_1">
    <g id="patch_7">
     <path d="M 406.15625 108.3125 
L 514.4 108.3125 
L 514.4 47.2 
L 406.15625 47.2 
z
" style="fill:#ffffff;stroke:#000000;stroke-linejoin:miter;"/>
    </g>
    <g id="line2d_42">
     <path d="M 411.75625 53.67875 
L 422.95625 53.67875 
" style="fill:none;stroke:#ff0000;stroke-linecap:square;"/>
    </g>
    <g id="line2d_43">
     <g>
      <use style="fill:#ff0000;stroke:#000000;stroke-width:0.5;" x="411.75625" xlink:href="#ma51602f169" y="53.67875"/>
      <use style="fill:#ff0000;stroke:#000000;stroke-width:0.5;" x="422.95625" xlink:href="#ma51602f169" y="53.67875"/>
     </g>
    </g>
    <g id="text_22">
     <!-- QM -->
     <defs>
      <path d="M 9.8125 72.90625 
L 24.515625 72.90625 
L 43.109375 23.296875 
L 61.8125 72.90625 
L 76.515625 72.90625 
L 76.515625 0 
L 66.890625 0 
L 66.890625 64.015625 
L 48.09375 14.015625 
L 38.1875 14.015625 
L 19.390625 64.015625 
L 19.390625 0 
L 9.8125 0 
z
" id="BitstreamVeraSans-Roman-4d"/>
      <path d="M 39.40625 66.21875 
Q 28.65625 66.21875 22.328125 58.203125 
Q 16.015625 50.203125 16.015625 36.375 
Q 16.015625 22.609375 22.328125 14.59375 
Q 28.65625 6.59375 39.40625 6.59375 
Q 50.140625 6.59375 56.421875 14.59375 
Q 62.703125 22.609375 62.703125 36.375 
Q 62.703125 50.203125 56.421875 58.203125 
Q 50.140625 66.21875 39.40625 66.21875 
M 53.21875 1.3125 
L 66.21875 -12.890625 
L 54.296875 -12.890625 
L 43.5 -1.21875 
Q 41.890625 -1.3125 41.03125 -1.359375 
Q 40.1875 -1.421875 39.40625 -1.421875 
Q 24.03125 -1.421875 14.8125 8.859375 
Q 5.609375 19.140625 5.609375 36.375 
Q 5.609375 53.65625 14.8125 63.9375 
Q 24.03125 74.21875 39.40625 74.21875 
Q 54.734375 74.21875 63.90625 63.9375 
Q 73.09375 53.65625 73.09375 36.375 
Q 73.09375 23.6875 67.984375 14.640625 
Q 62.890625 5.609375 53.21875 1.3125 
" id="BitstreamVeraSans-Roman-51"/>
     </defs>
     <g transform="translate(431.75625 56.47875)scale(0.08 -0.08)">
      <use xlink:href="#BitstreamVeraSans-Roman-51"/>
      <use x="78.7109375" xlink:href="#BitstreamVeraSans-Roman-4d"/>
     </g>
    </g>
    <g id="line2d_44">
     <path d="M 411.75625 65.42125 
L 422.95625 65.42125 
" style="fill:none;stroke:#0000ff;stroke-linecap:square;"/>
    </g>
    <g id="line2d_45">
     <g>
      <use style="fill:#0000ff;stroke:#000000;stroke-width:0.5;" x="411.75625" xlink:href="#m18e7f9df62" y="65.42125"/>
      <use style="fill:#0000ff;stroke:#000000;stroke-width:0.5;" x="422.95625" xlink:href="#m18e7f9df62" y="65.42125"/>
     </g>
    </g>
    <g id="text_23">
     <!-- MM Original -->
     <defs>
      <path id="BitstreamVeraSans-Roman-20"/>
      <path d="M 41.109375 46.296875 
Q 39.59375 47.171875 37.8125 47.578125 
Q 36.03125 48 33.890625 48 
Q 26.265625 48 22.1875 43.046875 
Q 18.109375 38.09375 18.109375 28.8125 
L 18.109375 0 
L 9.078125 0 
L 9.078125 54.6875 
L 18.109375 54.6875 
L 18.109375 46.1875 
Q 20.953125 51.171875 25.484375 53.578125 
Q 30.03125 56 36.53125 56 
Q 37.453125 56 38.578125 55.875 
Q 39.703125 55.765625 41.0625 55.515625 
z
" id="BitstreamVeraSans-Roman-72"/>
      <path d="M 39.40625 66.21875 
Q 28.65625 66.21875 22.328125 58.203125 
Q 16.015625 50.203125 16.015625 36.375 
Q 16.015625 22.609375 22.328125 14.59375 
Q 28.65625 6.59375 39.40625 6.59375 
Q 50.140625 6.59375 56.421875 14.59375 
Q 62.703125 22.609375 62.703125 36.375 
Q 62.703125 50.203125 56.421875 58.203125 
Q 50.140625 66.21875 39.40625 66.21875 
M 39.40625 74.21875 
Q 54.734375 74.21875 63.90625 63.9375 
Q 73.09375 53.65625 73.09375 36.375 
Q 73.09375 19.140625 63.90625 8.859375 
Q 54.734375 -1.421875 39.40625 -1.421875 
Q 24.03125 -1.421875 14.8125 8.828125 
Q 5.609375 19.09375 5.609375 36.375 
Q 5.609375 53.65625 14.8125 63.9375 
Q 24.03125 74.21875 39.40625 74.21875 
" id="BitstreamVeraSans-Roman-4f"/>
      <path d="M 45.40625 27.984375 
Q 45.40625 37.75 41.375 43.109375 
Q 37.359375 48.484375 30.078125 48.484375 
Q 22.859375 48.484375 18.828125 43.109375 
Q 14.796875 37.75 14.796875 27.984375 
Q 14.796875 18.265625 18.828125 12.890625 
Q 22.859375 7.515625 30.078125 7.515625 
Q 37.359375 7.515625 41.375 12.890625 
Q 45.40625 18.265625 45.40625 27.984375 
M 54.390625 6.78125 
Q 54.390625 -7.171875 48.1875 -13.984375 
Q 42 -20.796875 29.203125 -20.796875 
Q 24.46875 -20.796875 20.265625 -20.09375 
Q 16.0625 -19.390625 12.109375 -17.921875 
L 12.109375 -9.1875 
Q 16.0625 -11.328125 19.921875 -12.34375 
Q 23.78125 -13.375 27.78125 -13.375 
Q 36.625 -13.375 41.015625 -8.765625 
Q 45.40625 -4.15625 45.40625 5.171875 
L 45.40625 9.625 
Q 42.625 4.78125 38.28125 2.390625 
Q 33.9375 0 27.875 0 
Q 17.828125 0 11.671875 7.65625 
Q 5.515625 15.328125 5.515625 27.984375 
Q 5.515625 40.671875 11.671875 48.328125 
Q 17.828125 56 27.875 56 
Q 33.9375 56 38.28125 53.609375 
Q 42.625 51.21875 45.40625 46.390625 
L 45.40625 54.6875 
L 54.390625 54.6875 
z
" id="BitstreamVeraSans-Roman-67"/>
      <path d="M 54.890625 33.015625 
L 54.890625 0 
L 45.90625 0 
L 45.90625 32.71875 
Q 45.90625 40.484375 42.875 44.328125 
Q 39.84375 48.1875 33.796875 48.1875 
Q 26.515625 48.1875 22.3125 43.546875 
Q 18.109375 38.921875 18.109375 30.90625 
L 18.109375 0 
L 9.078125 0 
L 9.078125 54.6875 
L 18.109375 54.6875 
L 18.109375 46.1875 
Q 21.34375 51.125 25.703125 53.5625 
Q 30.078125 56 35.796875 56 
Q 45.21875 56 50.046875 50.171875 
Q 54.890625 44.34375 54.890625 33.015625 
" id="BitstreamVeraSans-Roman-6e"/>
     </defs>
     <g transform="translate(431.75625 68.22125)scale(0.08 -0.08)">
      <use xlink:href="#BitstreamVeraSans-Roman-4d"/>
      <use x="86.279296875" xlink:href="#BitstreamVeraSans-Roman-4d"/>
      <use x="172.55859375" xlink:href="#BitstreamVeraSans-Roman-20"/>
      <use x="204.345703125" xlink:href="#BitstreamVeraSans-Roman-4f"/>
      <use x="283.056640625" xlink:href="#BitstreamVeraSans-Roman-72"/>
      <use x="324.169921875" xlink:href="#BitstreamVeraSans-Roman-69"/>
      <use x="351.953125" xlink:href="#BitstreamVeraSans-Roman-67"/>
      <use x="415.4296875" xlink:href="#BitstreamVeraSans-Roman-69"/>
      <use x="443.212890625" xlink:href="#BitstreamVeraSans-Roman-6e"/>
      <use x="506.591796875" xlink:href="#BitstreamVeraSans-Roman-61"/>
      <use x="567.87109375" xlink:href="#BitstreamVeraSans-Roman-6c"/>
     </g>
    </g>
    <g id="line2d_46">
     <path d="M 411.75625 77.16375 
L 422.95625 77.16375 
" style="fill:none;stroke:#000000;stroke-linecap:square;"/>
    </g>
    <g id="line2d_47">
     <g>
      <use style="stroke:#000000;stroke-width:0.5;" x="411.75625" xlink:href="#m15dcef9c41" y="77.16375"/>
      <use style="stroke:#000000;stroke-width:0.5;" x="422.95625" xlink:href="#m15dcef9c41" y="77.16375"/>
     </g>
    </g>
    <g id="text_24">
     <!-- MM With phi zeroed -->
     <defs>
      <path d="M 5.515625 54.6875 
L 48.1875 54.6875 
L 48.1875 46.484375 
L 14.40625 7.171875 
L 48.1875 7.171875 
L 48.1875 0 
L 4.296875 0 
L 4.296875 8.203125 
L 38.09375 47.515625 
L 5.515625 47.515625 
z
" id="BitstreamVeraSans-Roman-7a"/>
      <path d="M 3.328125 72.90625 
L 13.28125 72.90625 
L 28.609375 11.28125 
L 43.890625 72.90625 
L 54.984375 72.90625 
L 70.3125 11.28125 
L 85.59375 72.90625 
L 95.609375 72.90625 
L 77.296875 0 
L 64.890625 0 
L 49.515625 63.28125 
L 33.984375 0 
L 21.578125 0 
z
" id="BitstreamVeraSans-Roman-57"/>
      <path d="M 18.109375 8.203125 
L 18.109375 -20.796875 
L 9.078125 -20.796875 
L 9.078125 54.6875 
L 18.109375 54.6875 
L 18.109375 46.390625 
Q 20.953125 51.265625 25.265625 53.625 
Q 29.59375 56 35.59375 56 
Q 45.5625 56 51.78125 48.09375 
Q 58.015625 40.1875 58.015625 27.296875 
Q 58.015625 14.40625 51.78125 6.484375 
Q 45.5625 -1.421875 35.59375 -1.421875 
Q 29.59375 -1.421875 25.265625 0.953125 
Q 20.953125 3.328125 18.109375 8.203125 
M 48.6875 27.296875 
Q 48.6875 37.203125 44.609375 42.84375 
Q 40.53125 48.484375 33.40625 48.484375 
Q 26.265625 48.484375 22.1875 42.84375 
Q 18.109375 37.203125 18.109375 27.296875 
Q 18.109375 17.390625 22.1875 11.75 
Q 26.265625 6.109375 33.40625 6.109375 
Q 40.53125 6.109375 44.609375 11.75 
Q 48.6875 17.390625 48.6875 27.296875 
" id="BitstreamVeraSans-Roman-70"/>
      <path d="M 18.3125 70.21875 
L 18.3125 54.6875 
L 36.8125 54.6875 
L 36.8125 47.703125 
L 18.3125 47.703125 
L 18.3125 18.015625 
Q 18.3125 11.328125 20.140625 9.421875 
Q 21.96875 7.515625 27.59375 7.515625 
L 36.8125 7.515625 
L 36.8125 0 
L 27.59375 0 
Q 17.1875 0 13.234375 3.875 
Q 9.28125 7.765625 9.28125 18.015625 
L 9.28125 47.703125 
L 2.6875 47.703125 
L 2.6875 54.6875 
L 9.28125 54.6875 
L 9.28125 70.21875 
z
" id="BitstreamVeraSans-Roman-74"/>
      <path d="M 45.40625 46.390625 
L 45.40625 75.984375 
L 54.390625 75.984375 
L 54.390625 0 
L 45.40625 0 
L 45.40625 8.203125 
Q 42.578125 3.328125 38.25 0.953125 
Q 33.9375 -1.421875 27.875 -1.421875 
Q 17.96875 -1.421875 11.734375 6.484375 
Q 5.515625 14.40625 5.515625 27.296875 
Q 5.515625 40.1875 11.734375 48.09375 
Q 17.96875 56 27.875 56 
Q 33.9375 56 38.25 53.625 
Q 42.578125 51.265625 45.40625 46.390625 
M 14.796875 27.296875 
Q 14.796875 17.390625 18.875 11.75 
Q 22.953125 6.109375 30.078125 6.109375 
Q 37.203125 6.109375 41.296875 11.75 
Q 45.40625 17.390625 45.40625 27.296875 
Q 45.40625 37.203125 41.296875 42.84375 
Q 37.203125 48.484375 30.078125 48.484375 
Q 22.953125 48.484375 18.875 42.84375 
Q 14.796875 37.203125 14.796875 27.296875 
" id="BitstreamVeraSans-Roman-64"/>
      <path d="M 56.203125 29.59375 
L 56.203125 25.203125 
L 14.890625 25.203125 
Q 15.484375 15.921875 20.484375 11.0625 
Q 25.484375 6.203125 34.421875 6.203125 
Q 39.59375 6.203125 44.453125 7.46875 
Q 49.3125 8.734375 54.109375 11.28125 
L 54.109375 2.78125 
Q 49.265625 0.734375 44.1875 -0.34375 
Q 39.109375 -1.421875 33.890625 -1.421875 
Q 20.796875 -1.421875 13.15625 6.1875 
Q 5.515625 13.8125 5.515625 26.8125 
Q 5.515625 40.234375 12.765625 48.109375 
Q 20.015625 56 32.328125 56 
Q 43.359375 56 49.78125 48.890625 
Q 56.203125 41.796875 56.203125 29.59375 
M 47.21875 32.234375 
Q 47.125 39.59375 43.09375 43.984375 
Q 39.0625 48.390625 32.421875 48.390625 
Q 24.90625 48.390625 20.390625 44.140625 
Q 15.875 39.890625 15.1875 32.171875 
z
" id="BitstreamVeraSans-Roman-65"/>
     </defs>
     <g transform="translate(431.75625 79.96375)scale(0.08 -0.08)">
      <use xlink:href="#BitstreamVeraSans-Roman-4d"/>
      <use x="86.279296875" xlink:href="#BitstreamVeraSans-Roman-4d"/>
      <use x="172.55859375" xlink:href="#BitstreamVeraSans-Roman-20"/>
      <use x="204.345703125" xlink:href="#BitstreamVeraSans-Roman-57"/>
      <use x="303.19140625" xlink:href="#BitstreamVeraSans-Roman-69"/>
      <use x="330.974609375" xlink:href="#BitstreamVeraSans-Roman-74"/>
      <use x="370.18359375" xlink:href="#BitstreamVeraSans-Roman-68"/>
      <use x="433.5625" xlink:href="#BitstreamVeraSans-Roman-20"/>
      <use x="465.349609375" xlink:href="#BitstreamVeraSans-Roman-70"/>
      <use x="528.826171875" xlink:href="#BitstreamVeraSans-Roman-68"/>
      <use x="592.205078125" xlink:href="#BitstreamVeraSans-Roman-69"/>
      <use x="619.98828125" xlink:href="#BitstreamVeraSans-Roman-20"/>
      <use x="651.775390625" xlink:href="#BitstreamVeraSans-Roman-7a"/>
      <use x="704.265625" xlink:href="#BitstreamVeraSans-Roman-65"/>
      <use x="765.7890625" xlink:href="#BitstreamVeraSans-Roman-72"/>
      <use x="806.87109375" xlink:href="#BitstreamVeraSans-Roman-6f"/>
      <use x="868.052734375" xlink:href="#BitstreamVeraSans-Roman-65"/>
      <use x="929.576171875" xlink:href="#BitstreamVeraSans-Roman-64"/>
     </g>
    </g>
    <g id="line2d_48">
     <path d="M 411.75625 88.90625 
L 422.95625 88.90625 
" style="fill:none;stroke:#ff00ff;stroke-linecap:square;"/>
    </g>
    <g id="line2d_49">
     <g>
      <use style="fill:#ff00ff;stroke:#ff00ff;stroke-width:0.5;" x="411.75625" xlink:href="#m227e50c1d9" y="88.90625"/>
      <use style="fill:#ff00ff;stroke:#ff00ff;stroke-width:0.5;" x="422.95625" xlink:href="#m227e50c1d9" y="88.90625"/>
     </g>
    </g>
    <g id="text_25">
     <!-- QM-MM target -->
     <g transform="translate(431.75625 91.70625)scale(0.08 -0.08)">
      <use xlink:href="#BitstreamVeraSans-Roman-51"/>
      <use x="78.7109375" xlink:href="#BitstreamVeraSans-Roman-4d"/>
      <use x="164.990234375" xlink:href="#BitstreamVeraSans-Roman-2d"/>
      <use x="201.07421875" xlink:href="#BitstreamVeraSans-Roman-4d"/>
      <use x="287.353515625" xlink:href="#BitstreamVeraSans-Roman-4d"/>
      <use x="373.6328125" xlink:href="#BitstreamVeraSans-Roman-20"/>
      <use x="405.419921875" xlink:href="#BitstreamVeraSans-Roman-74"/>
      <use x="444.62890625" xlink:href="#BitstreamVeraSans-Roman-61"/>
      <use x="505.908203125" xlink:href="#BitstreamVeraSans-Roman-72"/>
      <use x="547.005859375" xlink:href="#BitstreamVeraSans-Roman-67"/>
      <use x="610.482421875" xlink:href="#BitstreamVeraSans-Roman-65"/>
      <use x="672.005859375" xlink:href="#BitstreamVeraSans-Roman-74"/>
     </g>
    </g>
    <g id="line2d_50">
     <path d="M 411.75625 100.64875 
L 422.95625 100.64875 
" style="fill:none;stroke:#008000;stroke-linecap:square;"/>
    </g>
    <g id="line2d_51">
     <g>
      <use style="fill:#008000;stroke:#000000;stroke-width:0.5;" x="411.75625" xlink:href="#m53eb622c22" y="100.64875"/>
      <use style="fill:#008000;stroke:#000000;stroke-width:0.5;" x="422.95625" xlink:href="#m53eb622c22" y="100.64875"/>
     </g>
    </g>
    <g id="text_26">
     <!-- MM Fitted -->
     <defs>
      <path d="M 9.8125 72.90625 
L 51.703125 72.90625 
L 51.703125 64.59375 
L 19.671875 64.59375 
L 19.671875 43.109375 
L 48.578125 43.109375 
L 48.578125 34.8125 
L 19.671875 34.8125 
L 19.671875 0 
L 9.8125 0 
z
" id="BitstreamVeraSans-Roman-46"/>
     </defs>
     <g transform="translate(431.75625 103.44875)scale(0.08 -0.08)">
      <use xlink:href="#BitstreamVeraSans-Roman-4d"/>
      <use x="86.279296875" xlink:href="#BitstreamVeraSans-Roman-4d"/>
      <use x="172.55859375" xlink:href="#BitstreamVeraSans-Roman-20"/>
      <use x="204.345703125" xlink:href="#BitstreamVeraSans-Roman-46"/>
      <use x="261.755859375" xlink:href="#BitstreamVeraSans-Roman-69"/>
      <use x="289.5390625" xlink:href="#BitstreamVeraSans-Roman-74"/>
      <use x="328.748046875" xlink:href="#BitstreamVeraSans-Roman-74"/>
      <use x="367.95703125" xlink:href="#BitstreamVeraSans-Roman-65"/>
      <use x="429.48046875" xlink:href="#BitstreamVeraSans-Roman-64"/>
     </g>
    </g>
   </g>
  </g>
 </g>
 <defs>
  <clipPath id="p2dcf8f185d">
   <rect height="345.6" width="446.4" x="72.0" y="43.2"/>
  </clipPath>
 </defs>
</svg>
