<?xml version="1.0" encoding="utf-8" standalone="no"?>
<!DOCTYPE svg PUBLIC "-//W3C//DTD SVG 1.1//EN"
  "http://www.w3.org/Graphics/SVG/1.1/DTD/svg11.dtd">
<!-- Created with matplotlib (http://matplotlib.org/) -->
<svg height="432pt" version="1.1" viewBox="0 0 576 432" width="576pt" xmlns="http://www.w3.org/2000/svg" xmlns:xlink="http://www.w3.org/1999/xlink">
 <defs>
  <style type="text/css">
*{stroke-linecap:butt;stroke-linejoin:round;stroke-miterlimit:100000;}
  </style>
 </defs>
 <g id="figure_1">
  <g id="patch_1">
   <path d="M 0 432 
L 576 432 
L 576 0 
L 0 0 
z
" style="fill:#ffffff;"/>
  </g>
  <g id="axes_1">
   <g id="patch_2">
    <path d="M 72 388.8 
L 518.4 388.8 
L 518.4 43.2 
L 72 43.2 
z
" style="fill:#ffffff;"/>
   </g>
   <g id="line2d_1">
    <path clip-path="url(#p05def7f2c3)" d="M 71.999924 304.116437 
L 84.399997 321.199119 
L 96.799997 329.584719 
L 109.199964 331.209449 
L 121.599999 326.696738 
L 134 320.32791 
L 146.399981 318.191886 
L 158.799978 323.885164 
L 171.199945 337.200216 
L 183.599978 354.940202 
L 195.99998 372.422182 
L 208.399974 384.89521 
L 220.799995 388.8 
L 233.200019 382.780345 
L 245.599998 368.149186 
L 258.000008 348.586067 
L 270.400014 328.992775 
L 282.800005 313.994813 
L 295.200495 306.619852 
L 307.599995 307.263715 
L 320.000014 313.043781 
L 332.400021 318.368785 
L 344.800007 318.120576 
L 357.200047 311.389606 
L 369.60002 298.003906 
L 382.000009 275.694426 
L 394.400007 244.252018 
L 406.800036 206.793449 
L 419.200032 169.002152 
L 431.600007 138.144911 
L 444.000031 122.353113 
L 456.399989 128.854677 
L 468.800013 156.289824 
L 481.200012 195.7854 
L 493.599987 238.285712 
L 505.999986 276.083292 
" style="fill:none;stroke:#ff0000;stroke-linecap:square;"/>
    <defs>
     <path d="M 0 3 
C 0.795609 3 1.55874 2.683901 2.12132 2.12132 
C 2.683901 1.55874 3 0.795609 3 0 
C 3 -0.795609 2.683901 -1.55874 2.12132 -2.12132 
C 1.55874 -2.683901 0.795609 -3 0 -3 
C -0.795609 -3 -1.55874 -2.683901 -2.12132 -2.12132 
C -2.683901 -1.55874 -3 -0.795609 -3 0 
C -3 0.795609 -2.683901 1.55874 -2.12132 2.12132 
C -1.55874 2.683901 -0.795609 3 0 3 
z
" id="m2e33466cf3" style="stroke:#000000;stroke-width:0.5;"/>
    </defs>
    <g clip-path="url(#p05def7f2c3)">
     <use style="fill:#ff0000;stroke:#000000;stroke-width:0.5;" x="71.9999239535" xlink:href="#m2e33466cf3" y="304.116436526"/>
     <use style="fill:#ff0000;stroke:#000000;stroke-width:0.5;" x="84.3999966242" xlink:href="#m2e33466cf3" y="321.199119048"/>
     <use style="fill:#ff0000;stroke:#000000;stroke-width:0.5;" x="96.7999972285" xlink:href="#m2e33466cf3" y="329.584719008"/>
     <use style="fill:#ff0000;stroke:#000000;stroke-width:0.5;" x="109.19996406" xlink:href="#m2e33466cf3" y="331.209448596"/>
     <use style="fill:#ff0000;stroke:#000000;stroke-width:0.5;" x="121.599998685" xlink:href="#m2e33466cf3" y="326.696738449"/>
     <use style="fill:#ff0000;stroke:#000000;stroke-width:0.5;" x="133.999999812" xlink:href="#m2e33466cf3" y="320.327909639"/>
     <use style="fill:#ff0000;stroke:#000000;stroke-width:0.5;" x="146.399980785" xlink:href="#m2e33466cf3" y="318.191886267"/>
     <use style="fill:#ff0000;stroke:#000000;stroke-width:0.5;" x="158.799977569" xlink:href="#m2e33466cf3" y="323.885164214"/>
     <use style="fill:#ff0000;stroke:#000000;stroke-width:0.5;" x="171.199944782" xlink:href="#m2e33466cf3" y="337.200215534"/>
     <use style="fill:#ff0000;stroke:#000000;stroke-width:0.5;" x="183.599978293" xlink:href="#m2e33466cf3" y="354.940201977"/>
     <use style="fill:#ff0000;stroke:#000000;stroke-width:0.5;" x="195.999980076" xlink:href="#m2e33466cf3" y="372.422182048"/>
     <use style="fill:#ff0000;stroke:#000000;stroke-width:0.5;" x="208.399974196" xlink:href="#m2e33466cf3" y="384.895209756"/>
     <use style="fill:#ff0000;stroke:#000000;stroke-width:0.5;" x="220.799995049" xlink:href="#m2e33466cf3" y="388.8"/>
     <use style="fill:#ff0000;stroke:#000000;stroke-width:0.5;" x="233.200018624" xlink:href="#m2e33466cf3" y="382.780344728"/>
     <use style="fill:#ff0000;stroke:#000000;stroke-width:0.5;" x="245.599998185" xlink:href="#m2e33466cf3" y="368.149185845"/>
     <use style="fill:#ff0000;stroke:#000000;stroke-width:0.5;" x="258.000007585" xlink:href="#m2e33466cf3" y="348.586067184"/>
     <use style="fill:#ff0000;stroke:#000000;stroke-width:0.5;" x="270.400014029" xlink:href="#m2e33466cf3" y="328.992775004"/>
     <use style="fill:#ff0000;stroke:#000000;stroke-width:0.5;" x="282.800004859" xlink:href="#m2e33466cf3" y="313.994812774"/>
     <use style="fill:#ff0000;stroke:#000000;stroke-width:0.5;" x="295.20049474" xlink:href="#m2e33466cf3" y="306.619851692"/>
     <use style="fill:#ff0000;stroke:#000000;stroke-width:0.5;" x="307.599995021" xlink:href="#m2e33466cf3" y="307.263714796"/>
     <use style="fill:#ff0000;stroke:#000000;stroke-width:0.5;" x="320.000014096" xlink:href="#m2e33466cf3" y="313.043781375"/>
     <use style="fill:#ff0000;stroke:#000000;stroke-width:0.5;" x="332.40002138" xlink:href="#m2e33466cf3" y="318.368785046"/>
     <use style="fill:#ff0000;stroke:#000000;stroke-width:0.5;" x="344.800006989" xlink:href="#m2e33466cf3" y="318.120575715"/>
     <use style="fill:#ff0000;stroke:#000000;stroke-width:0.5;" x="357.200046842" xlink:href="#m2e33466cf3" y="311.38960593"/>
     <use style="fill:#ff0000;stroke:#000000;stroke-width:0.5;" x="369.600020436" xlink:href="#m2e33466cf3" y="298.003906351"/>
     <use style="fill:#ff0000;stroke:#000000;stroke-width:0.5;" x="382.000008636" xlink:href="#m2e33466cf3" y="275.694426296"/>
     <use style="fill:#ff0000;stroke:#000000;stroke-width:0.5;" x="394.400007102" xlink:href="#m2e33466cf3" y="244.252018394"/>
     <use style="fill:#ff0000;stroke:#000000;stroke-width:0.5;" x="406.800036463" xlink:href="#m2e33466cf3" y="206.793448778"/>
     <use style="fill:#ff0000;stroke:#000000;stroke-width:0.5;" x="419.200032327" xlink:href="#m2e33466cf3" y="169.002151712"/>
     <use style="fill:#ff0000;stroke:#000000;stroke-width:0.5;" x="431.600006602" xlink:href="#m2e33466cf3" y="138.144910792"/>
     <use style="fill:#ff0000;stroke:#000000;stroke-width:0.5;" x="444.00003093" xlink:href="#m2e33466cf3" y="122.353112911"/>
     <use style="fill:#ff0000;stroke:#000000;stroke-width:0.5;" x="456.399988995" xlink:href="#m2e33466cf3" y="128.854677243"/>
     <use style="fill:#ff0000;stroke:#000000;stroke-width:0.5;" x="468.800013367" xlink:href="#m2e33466cf3" y="156.289824316"/>
     <use style="fill:#ff0000;stroke:#000000;stroke-width:0.5;" x="481.200011563" xlink:href="#m2e33466cf3" y="195.785399753"/>
     <use style="fill:#ff0000;stroke:#000000;stroke-width:0.5;" x="493.599986926" xlink:href="#m2e33466cf3" y="238.285711876"/>
     <use style="fill:#ff0000;stroke:#000000;stroke-width:0.5;" x="505.999986409" xlink:href="#m2e33466cf3" y="276.083292141"/>
    </g>
   </g>
   <g id="line2d_2">
    <path clip-path="url(#p05def7f2c3)" d="M 71.999924 302.434086 
L 84.399997 329.049844 
L 96.799997 339.17191 
L 109.199964 333.044049 
L 121.599999 316.63559 
L 134 300.278732 
L 146.399981 292.440674 
L 158.799978 297.45167 
L 171.199945 314.993397 
L 183.599978 340.040883 
L 195.99998 365.309021 
L 208.399974 383.379546 
L 220.799995 388.8 
L 233.200019 379.393199 
L 245.599998 357.38708 
L 258.000008 328.574409 
L 270.400014 300.625823 
L 282.800005 280.442455 
L 295.200495 272.605327 
L 307.599995 277.501012 
L 320.000014 291.792286 
L 332.400021 308.86357 
L 344.800007 319.905139 
L 357.200047 316.895319 
L 369.60002 298.467338 
L 382.000009 265.666817 
L 394.400007 220.114514 
L 406.800036 166.372745 
L 419.200032 113.410897 
L 431.600007 72.425434 
L 444.000031 54.704511 
L 456.399989 63.131537 
L 468.800013 95.771453 
L 481.200012 147.249342 
L 493.599987 205.651245 
L 505.999986 260.023675 
" style="fill:none;stroke:#0000ff;stroke-linecap:square;"/>
    <defs>
     <path d="M 0 3 
C 0.795609 3 1.55874 2.683901 2.12132 2.12132 
C 2.683901 1.55874 3 0.795609 3 0 
C 3 -0.795609 2.683901 -1.55874 2.12132 -2.12132 
C 1.55874 -2.683901 0.795609 -3 0 -3 
C -0.795609 -3 -1.55874 -2.683901 -2.12132 -2.12132 
C -2.683901 -1.55874 -3 -0.795609 -3 0 
C -3 0.795609 -2.683901 1.55874 -2.12132 2.12132 
C -1.55874 2.683901 -0.795609 3 0 3 
z
" id="m8a80da3f58" style="stroke:#000000;stroke-width:0.5;"/>
    </defs>
    <g clip-path="url(#p05def7f2c3)">
     <use style="fill:#0000ff;stroke:#000000;stroke-width:0.5;" x="71.9999239535" xlink:href="#m8a80da3f58" y="302.434086178"/>
     <use style="fill:#0000ff;stroke:#000000;stroke-width:0.5;" x="84.3999966242" xlink:href="#m8a80da3f58" y="329.049843543"/>
     <use style="fill:#0000ff;stroke:#000000;stroke-width:0.5;" x="96.7999972285" xlink:href="#m8a80da3f58" y="339.171910465"/>
     <use style="fill:#0000ff;stroke:#000000;stroke-width:0.5;" x="109.19996406" xlink:href="#m8a80da3f58" y="333.044049089"/>
     <use style="fill:#0000ff;stroke:#000000;stroke-width:0.5;" x="121.599998685" xlink:href="#m8a80da3f58" y="316.635589558"/>
     <use style="fill:#0000ff;stroke:#000000;stroke-width:0.5;" x="133.999999812" xlink:href="#m8a80da3f58" y="300.278732496"/>
     <use style="fill:#0000ff;stroke:#000000;stroke-width:0.5;" x="146.399980785" xlink:href="#m8a80da3f58" y="292.440674438"/>
     <use style="fill:#0000ff;stroke:#000000;stroke-width:0.5;" x="158.799977569" xlink:href="#m8a80da3f58" y="297.451670022"/>
     <use style="fill:#0000ff;stroke:#000000;stroke-width:0.5;" x="171.199944782" xlink:href="#m8a80da3f58" y="314.993396657"/>
     <use style="fill:#0000ff;stroke:#000000;stroke-width:0.5;" x="183.599978293" xlink:href="#m8a80da3f58" y="340.040883114"/>
     <use style="fill:#0000ff;stroke:#000000;stroke-width:0.5;" x="195.999980076" xlink:href="#m8a80da3f58" y="365.309021092"/>
     <use style="fill:#0000ff;stroke:#000000;stroke-width:0.5;" x="208.399974196" xlink:href="#m8a80da3f58" y="383.379545665"/>
     <use style="fill:#0000ff;stroke:#000000;stroke-width:0.5;" x="220.799995049" xlink:href="#m8a80da3f58" y="388.8"/>
     <use style="fill:#0000ff;stroke:#000000;stroke-width:0.5;" x="233.200018624" xlink:href="#m8a80da3f58" y="379.393198863"/>
     <use style="fill:#0000ff;stroke:#000000;stroke-width:0.5;" x="245.599998185" xlink:href="#m8a80da3f58" y="357.387079871"/>
     <use style="fill:#0000ff;stroke:#000000;stroke-width:0.5;" x="258.000007585" xlink:href="#m8a80da3f58" y="328.574409239"/>
     <use style="fill:#0000ff;stroke:#000000;stroke-width:0.5;" x="270.400014029" xlink:href="#m8a80da3f58" y="300.625822931"/>
     <use style="fill:#0000ff;stroke:#000000;stroke-width:0.5;" x="282.800004859" xlink:href="#m8a80da3f58" y="280.442455393"/>
     <use style="fill:#0000ff;stroke:#000000;stroke-width:0.5;" x="295.20049474" xlink:href="#m8a80da3f58" y="272.605327093"/>
     <use style="fill:#0000ff;stroke:#000000;stroke-width:0.5;" x="307.599995021" xlink:href="#m8a80da3f58" y="277.501011953"/>
     <use style="fill:#0000ff;stroke:#000000;stroke-width:0.5;" x="320.000014096" xlink:href="#m8a80da3f58" y="291.792286393"/>
     <use style="fill:#0000ff;stroke:#000000;stroke-width:0.5;" x="332.40002138" xlink:href="#m8a80da3f58" y="308.863569851"/>
     <use style="fill:#0000ff;stroke:#000000;stroke-width:0.5;" x="344.800006989" xlink:href="#m8a80da3f58" y="319.905139008"/>
     <use style="fill:#0000ff;stroke:#000000;stroke-width:0.5;" x="357.200046842" xlink:href="#m8a80da3f58" y="316.895318917"/>
     <use style="fill:#0000ff;stroke:#000000;stroke-width:0.5;" x="369.600020436" xlink:href="#m8a80da3f58" y="298.467337921"/>
     <use style="fill:#0000ff;stroke:#000000;stroke-width:0.5;" x="382.000008636" xlink:href="#m8a80da3f58" y="265.666817246"/>
     <use style="fill:#0000ff;stroke:#000000;stroke-width:0.5;" x="394.400007102" xlink:href="#m8a80da3f58" y="220.114514167"/>
     <use style="fill:#0000ff;stroke:#000000;stroke-width:0.5;" x="406.800036463" xlink:href="#m8a80da3f58" y="166.372745304"/>
     <use style="fill:#0000ff;stroke:#000000;stroke-width:0.5;" x="419.200032327" xlink:href="#m8a80da3f58" y="113.410896506"/>
     <use style="fill:#0000ff;stroke:#000000;stroke-width:0.5;" x="431.600006602" xlink:href="#m8a80da3f58" y="72.4254339669"/>
     <use style="fill:#0000ff;stroke:#000000;stroke-width:0.5;" x="444.00003093" xlink:href="#m8a80da3f58" y="54.7045114706"/>
     <use style="fill:#0000ff;stroke:#000000;stroke-width:0.5;" x="456.399988995" xlink:href="#m8a80da3f58" y="63.1315366851"/>
     <use style="fill:#0000ff;stroke:#000000;stroke-width:0.5;" x="468.800013367" xlink:href="#m8a80da3f58" y="95.7714530534"/>
     <use style="fill:#0000ff;stroke:#000000;stroke-width:0.5;" x="481.200011563" xlink:href="#m8a80da3f58" y="147.249342428"/>
     <use style="fill:#0000ff;stroke:#000000;stroke-width:0.5;" x="493.599986926" xlink:href="#m8a80da3f58" y="205.651244988"/>
     <use style="fill:#0000ff;stroke:#000000;stroke-width:0.5;" x="505.999986409" xlink:href="#m8a80da3f58" y="260.023675065"/>
    </g>
   </g>
   <g id="line2d_3">
    <path clip-path="url(#p05def7f2c3)" d="M 71.999924 302.516668 
L 84.399997 331.033262 
L 96.799997 347.74344 
L 109.199964 351.218919 
L 121.599999 344.848578 
L 134 336.281751 
L 146.399981 331.66238 
L 158.799978 334.250026 
L 171.199945 344.489542 
L 183.599978 359.60056 
L 195.99998 375.101928 
L 208.399974 386.079322 
L 220.799995 388.8 
L 233.200019 381.700885 
L 245.599998 366.49492 
L 258.000008 347.289954 
L 270.400014 329.258096 
L 282.800005 316.601266 
L 295.200495 311.822541 
L 307.599995 314.505513 
L 320.000014 322.041301 
L 332.400021 329.738271 
L 344.800007 331.185224 
L 357.200047 320.644011 
L 369.60002 298.710375 
L 382.000009 267.310364 
L 394.400007 227.686465 
L 406.800036 182.997594 
L 419.200032 140.00198 
L 431.600007 107.273395 
L 444.000031 93.653476 
L 456.399989 100.525708 
L 468.800013 126.375862 
L 481.200012 168.036129 
L 493.599987 216.432524 
L 505.999986 263.293632 
" style="fill:none;stroke:#000000;stroke-linecap:square;"/>
    <defs>
     <path d="M -3 3 
L 3 -3 
M -3 -3 
L 3 3 
" id="m96e4011309" style="stroke:#000000;stroke-width:0.5;"/>
    </defs>
    <g clip-path="url(#p05def7f2c3)">
     <use style="stroke:#000000;stroke-width:0.5;" x="71.9999239535" xlink:href="#m96e4011309" y="302.516667925"/>
     <use style="stroke:#000000;stroke-width:0.5;" x="84.3999966242" xlink:href="#m96e4011309" y="331.033262012"/>
     <use style="stroke:#000000;stroke-width:0.5;" x="96.7999972285" xlink:href="#m96e4011309" y="347.743439514"/>
     <use style="stroke:#000000;stroke-width:0.5;" x="109.19996406" xlink:href="#m96e4011309" y="351.218918737"/>
     <use style="stroke:#000000;stroke-width:0.5;" x="121.599998685" xlink:href="#m96e4011309" y="344.848578343"/>
     <use style="stroke:#000000;stroke-width:0.5;" x="133.999999812" xlink:href="#m96e4011309" y="336.281751259"/>
     <use style="stroke:#000000;stroke-width:0.5;" x="146.399980785" xlink:href="#m96e4011309" y="331.66238019"/>
     <use style="stroke:#000000;stroke-width:0.5;" x="158.799977569" xlink:href="#m96e4011309" y="334.250026296"/>
     <use style="stroke:#000000;stroke-width:0.5;" x="171.199944782" xlink:href="#m96e4011309" y="344.489542245"/>
     <use style="stroke:#000000;stroke-width:0.5;" x="183.599978293" xlink:href="#m96e4011309" y="359.600559765"/>
     <use style="stroke:#000000;stroke-width:0.5;" x="195.999980076" xlink:href="#m96e4011309" y="375.101927778"/>
     <use style="stroke:#000000;stroke-width:0.5;" x="208.399974196" xlink:href="#m96e4011309" y="386.079322024"/>
     <use style="stroke:#000000;stroke-width:0.5;" x="220.799995049" xlink:href="#m96e4011309" y="388.8"/>
     <use style="stroke:#000000;stroke-width:0.5;" x="233.200018624" xlink:href="#m96e4011309" y="381.700884908"/>
     <use style="stroke:#000000;stroke-width:0.5;" x="245.599998185" xlink:href="#m96e4011309" y="366.494920325"/>
     <use style="stroke:#000000;stroke-width:0.5;" x="258.000007585" xlink:href="#m96e4011309" y="347.28995425"/>
     <use style="stroke:#000000;stroke-width:0.5;" x="270.400014029" xlink:href="#m96e4011309" y="329.258095986"/>
     <use style="stroke:#000000;stroke-width:0.5;" x="282.800004859" xlink:href="#m96e4011309" y="316.60126571"/>
     <use style="stroke:#000000;stroke-width:0.5;" x="295.20049474" xlink:href="#m96e4011309" y="311.822541327"/>
     <use style="stroke:#000000;stroke-width:0.5;" x="307.599995021" xlink:href="#m96e4011309" y="314.505513315"/>
     <use style="stroke:#000000;stroke-width:0.5;" x="320.000014096" xlink:href="#m96e4011309" y="322.041300879"/>
     <use style="stroke:#000000;stroke-width:0.5;" x="332.40002138" xlink:href="#m96e4011309" y="329.738270572"/>
     <use style="stroke:#000000;stroke-width:0.5;" x="344.800006989" xlink:href="#m96e4011309" y="331.185223567"/>
     <use style="stroke:#000000;stroke-width:0.5;" x="357.200046842" xlink:href="#m96e4011309" y="320.644010777"/>
     <use style="stroke:#000000;stroke-width:0.5;" x="369.600020436" xlink:href="#m96e4011309" y="298.710375267"/>
     <use style="stroke:#000000;stroke-width:0.5;" x="382.000008636" xlink:href="#m96e4011309" y="267.310363823"/>
     <use style="stroke:#000000;stroke-width:0.5;" x="394.400007102" xlink:href="#m96e4011309" y="227.686465078"/>
     <use style="stroke:#000000;stroke-width:0.5;" x="406.800036463" xlink:href="#m96e4011309" y="182.997594316"/>
     <use style="stroke:#000000;stroke-width:0.5;" x="419.200032327" xlink:href="#m96e4011309" y="140.001979708"/>
     <use style="stroke:#000000;stroke-width:0.5;" x="431.600006602" xlink:href="#m96e4011309" y="107.273395189"/>
     <use style="stroke:#000000;stroke-width:0.5;" x="444.00003093" xlink:href="#m96e4011309" y="93.6534761913"/>
     <use style="stroke:#000000;stroke-width:0.5;" x="456.399988995" xlink:href="#m96e4011309" y="100.525708264"/>
     <use style="stroke:#000000;stroke-width:0.5;" x="468.800013367" xlink:href="#m96e4011309" y="126.375861682"/>
     <use style="stroke:#000000;stroke-width:0.5;" x="481.200011563" xlink:href="#m96e4011309" y="168.036129428"/>
     <use style="stroke:#000000;stroke-width:0.5;" x="493.599986926" xlink:href="#m96e4011309" y="216.432524491"/>
     <use style="stroke:#000000;stroke-width:0.5;" x="505.999986409" xlink:href="#m96e4011309" y="263.293632047"/>
    </g>
   </g>
   <g id="line2d_4">
    <path clip-path="url(#p05def7f2c3)" d="M 71.999924 359.528253 
L 84.399997 348.094341 
L 96.799997 339.769764 
L 109.199964 337.919014 
L 121.599999 339.776645 
L 134 341.974643 
L 146.399981 344.45799 
L 158.799978 347.563622 
L 171.199945 350.639158 
L 183.599978 353.268127 
L 195.99998 355.248739 
L 208.399974 356.744372 
L 220.799995 357.928484 
L 233.200019 359.007944 
L 245.599998 359.58275 
L 258.000008 359.224597 
L 270.400014 357.663163 
L 282.800005 355.322031 
L 295.200495 352.725795 
L 307.599995 350.686686 
L 320.000014 348.930965 
L 332.400021 346.558999 
L 344.800007 344.863837 
L 357.200047 348.67408 
L 369.60002 357.222015 
L 382.000009 366.312547 
L 394.400007 374.494038 
L 406.800036 381.724339 
L 419.200032 386.928656 
L 431.600007 388.8 
L 444.000031 386.628121 
L 456.399989 386.257453 
L 468.800013 387.842447 
L 481.200012 385.677755 
L 493.599987 379.781672 
L 505.999986 370.718144 
" style="fill:none;stroke:#ff00ff;stroke-linecap:square;"/>
    <defs>
     <path d="M -3 3 
L 3 -3 
M -3 -3 
L 3 3 
" id="m223c1b2c64" style="stroke:#ff00ff;stroke-width:0.5;"/>
    </defs>
    <g clip-path="url(#p05def7f2c3)">
     <use style="fill:#ff00ff;stroke:#ff00ff;stroke-width:0.5;" x="71.9999239535" xlink:href="#m223c1b2c64" y="359.528252997"/>
     <use style="fill:#ff00ff;stroke:#ff00ff;stroke-width:0.5;" x="84.3999966242" xlink:href="#m223c1b2c64" y="348.094341433"/>
     <use style="fill:#ff00ff;stroke:#ff00ff;stroke-width:0.5;" x="96.7999972285" xlink:href="#m223c1b2c64" y="339.769763891"/>
     <use style="fill:#ff00ff;stroke:#ff00ff;stroke-width:0.5;" x="109.19996406" xlink:href="#m223c1b2c64" y="337.919014255"/>
     <use style="fill:#ff00ff;stroke:#ff00ff;stroke-width:0.5;" x="121.599998685" xlink:href="#m223c1b2c64" y="339.776644502"/>
     <use style="fill:#ff00ff;stroke:#ff00ff;stroke-width:0.5;" x="133.999999812" xlink:href="#m223c1b2c64" y="341.974642776"/>
     <use style="fill:#ff00ff;stroke:#ff00ff;stroke-width:0.5;" x="146.399980785" xlink:href="#m223c1b2c64" y="344.457990473"/>
     <use style="fill:#ff00ff;stroke:#ff00ff;stroke-width:0.5;" x="158.799977569" xlink:href="#m223c1b2c64" y="347.563622314"/>
     <use style="fill:#ff00ff;stroke:#ff00ff;stroke-width:0.5;" x="171.199944782" xlink:href="#m223c1b2c64" y="350.639157685"/>
     <use style="fill:#ff00ff;stroke:#ff00ff;stroke-width:0.5;" x="183.599978293" xlink:href="#m223c1b2c64" y="353.268126608"/>
     <use style="fill:#ff00ff;stroke:#ff00ff;stroke-width:0.5;" x="195.999980076" xlink:href="#m223c1b2c64" y="355.248738666"/>
     <use style="fill:#ff00ff;stroke:#ff00ff;stroke-width:0.5;" x="208.399974196" xlink:href="#m223c1b2c64" y="356.744372128"/>
     <use style="fill:#ff00ff;stroke:#ff00ff;stroke-width:0.5;" x="220.799995049" xlink:href="#m223c1b2c64" y="357.928484396"/>
     <use style="fill:#ff00ff;stroke:#ff00ff;stroke-width:0.5;" x="233.200018624" xlink:href="#m223c1b2c64" y="359.007944217"/>
     <use style="fill:#ff00ff;stroke:#ff00ff;stroke-width:0.5;" x="245.599998185" xlink:href="#m223c1b2c64" y="359.582749917"/>
     <use style="fill:#ff00ff;stroke:#ff00ff;stroke-width:0.5;" x="258.000007585" xlink:href="#m223c1b2c64" y="359.22459733"/>
     <use style="fill:#ff00ff;stroke:#ff00ff;stroke-width:0.5;" x="270.400014029" xlink:href="#m223c1b2c64" y="357.663163414"/>
     <use style="fill:#ff00ff;stroke:#ff00ff;stroke-width:0.5;" x="282.800004859" xlink:href="#m223c1b2c64" y="355.322031461"/>
     <use style="fill:#ff00ff;stroke:#ff00ff;stroke-width:0.5;" x="295.20049474" xlink:href="#m223c1b2c64" y="352.725794761"/>
     <use style="fill:#ff00ff;stroke:#ff00ff;stroke-width:0.5;" x="307.599995021" xlink:href="#m223c1b2c64" y="350.686685877"/>
     <use style="fill:#ff00ff;stroke:#ff00ff;stroke-width:0.5;" x="320.000014096" xlink:href="#m223c1b2c64" y="348.930964892"/>
     <use style="fill:#ff00ff;stroke:#ff00ff;stroke-width:0.5;" x="332.40002138" xlink:href="#m223c1b2c64" y="346.55899887"/>
     <use style="fill:#ff00ff;stroke:#ff00ff;stroke-width:0.5;" x="344.800006989" xlink:href="#m223c1b2c64" y="344.863836544"/>
     <use style="fill:#ff00ff;stroke:#ff00ff;stroke-width:0.5;" x="357.200046842" xlink:href="#m223c1b2c64" y="348.67407955"/>
     <use style="fill:#ff00ff;stroke:#ff00ff;stroke-width:0.5;" x="369.600020436" xlink:href="#m223c1b2c64" y="357.22201548"/>
     <use style="fill:#ff00ff;stroke:#ff00ff;stroke-width:0.5;" x="382.000008636" xlink:href="#m223c1b2c64" y="366.312546869"/>
     <use style="fill:#ff00ff;stroke:#ff00ff;stroke-width:0.5;" x="394.400007102" xlink:href="#m223c1b2c64" y="374.494037713"/>
     <use style="fill:#ff00ff;stroke:#ff00ff;stroke-width:0.5;" x="406.800036463" xlink:href="#m223c1b2c64" y="381.724338858"/>
     <use style="fill:#ff00ff;stroke:#ff00ff;stroke-width:0.5;" x="419.200032327" xlink:href="#m223c1b2c64" y="386.928656401"/>
     <use style="fill:#ff00ff;stroke:#ff00ff;stroke-width:0.5;" x="431.600006602" xlink:href="#m223c1b2c64" y="388.8"/>
     <use style="fill:#ff00ff;stroke:#ff00ff;stroke-width:0.5;" x="444.00003093" xlink:href="#m223c1b2c64" y="386.628121116"/>
     <use style="fill:#ff00ff;stroke:#ff00ff;stroke-width:0.5;" x="456.399988995" xlink:href="#m223c1b2c64" y="386.257453376"/>
     <use style="fill:#ff00ff;stroke:#ff00ff;stroke-width:0.5;" x="468.800013367" xlink:href="#m223c1b2c64" y="387.84244703"/>
     <use style="fill:#ff00ff;stroke:#ff00ff;stroke-width:0.5;" x="481.200011563" xlink:href="#m223c1b2c64" y="385.677754721"/>
     <use style="fill:#ff00ff;stroke:#ff00ff;stroke-width:0.5;" x="493.599986926" xlink:href="#m223c1b2c64" y="379.781671782"/>
     <use style="fill:#ff00ff;stroke:#ff00ff;stroke-width:0.5;" x="505.999986409" xlink:href="#m223c1b2c64" y="370.71814449"/>
    </g>
   </g>
   <g id="line2d_5">
    <path clip-path="url(#p05def7f2c3)" d="M 71.999924 302.574726 
L 84.399997 321.840687 
L 96.799997 332.950145 
L 109.199964 334.86181 
L 121.599999 329.888556 
L 134 324.091633 
L 146.399981 322.37409 
L 158.799978 327.420572 
L 171.199945 339.858485 
L 183.599978 357.135777 
L 195.99998 374.425747 
L 208.399974 386.276335 
L 220.799995 388.8 
L 233.200019 380.979253 
L 245.599998 364.911927 
L 258.000008 344.594385 
L 270.400014 324.972149 
L 282.800005 310.219641 
L 295.200495 302.956736 
L 307.599995 302.831524 
L 320.000014 307.531432 
L 332.400021 313.413229 
L 344.800007 315.67087 
L 357.200047 309.715559 
L 369.60002 296.176753 
L 382.000009 275.292935 
L 394.400007 245.550899 
L 406.800036 207.816501 
L 419.200032 168.058722 
L 431.600007 135.807456 
L 444.000031 121.929505 
L 456.399989 129.335429 
L 468.800013 155.749221 
L 481.200012 195.461041 
L 493.599987 237.557799 
L 505.999986 274.410281 
" style="fill:none;stroke:#008000;stroke-linecap:square;"/>
    <defs>
     <path d="M 0 3 
C 0.795609 3 1.55874 2.683901 2.12132 2.12132 
C 2.683901 1.55874 3 0.795609 3 0 
C 3 -0.795609 2.683901 -1.55874 2.12132 -2.12132 
C 1.55874 -2.683901 0.795609 -3 0 -3 
C -0.795609 -3 -1.55874 -2.683901 -2.12132 -2.12132 
C -2.683901 -1.55874 -3 -0.795609 -3 0 
C -3 0.795609 -2.683901 1.55874 -2.12132 2.12132 
C -1.55874 2.683901 -0.795609 3 0 3 
z
" id="m0b4ead7336" style="stroke:#000000;stroke-width:0.5;"/>
    </defs>
    <g clip-path="url(#p05def7f2c3)">
     <use style="fill:#008000;stroke:#000000;stroke-width:0.5;" x="71.9999239535" xlink:href="#m0b4ead7336" y="302.574725998"/>
     <use style="fill:#008000;stroke:#000000;stroke-width:0.5;" x="84.3999966242" xlink:href="#m0b4ead7336" y="321.840687039"/>
     <use style="fill:#008000;stroke:#000000;stroke-width:0.5;" x="96.7999972285" xlink:href="#m0b4ead7336" y="332.950145356"/>
     <use style="fill:#008000;stroke:#000000;stroke-width:0.5;" x="109.19996406" xlink:href="#m0b4ead7336" y="334.861809575"/>
     <use style="fill:#008000;stroke:#000000;stroke-width:0.5;" x="121.599998685" xlink:href="#m0b4ead7336" y="329.888556347"/>
     <use style="fill:#008000;stroke:#000000;stroke-width:0.5;" x="133.999999812" xlink:href="#m0b4ead7336" y="324.091632888"/>
     <use style="fill:#008000;stroke:#000000;stroke-width:0.5;" x="146.399980785" xlink:href="#m0b4ead7336" y="322.374089936"/>
     <use style="fill:#008000;stroke:#000000;stroke-width:0.5;" x="158.799977569" xlink:href="#m0b4ead7336" y="327.420572293"/>
     <use style="fill:#008000;stroke:#000000;stroke-width:0.5;" x="171.199944782" xlink:href="#m0b4ead7336" y="339.858485172"/>
     <use style="fill:#008000;stroke:#000000;stroke-width:0.5;" x="183.599978293" xlink:href="#m0b4ead7336" y="357.135777005"/>
     <use style="fill:#008000;stroke:#000000;stroke-width:0.5;" x="195.999980076" xlink:href="#m0b4ead7336" y="374.425746852"/>
     <use style="fill:#008000;stroke:#000000;stroke-width:0.5;" x="208.399974196" xlink:href="#m0b4ead7336" y="386.276335088"/>
     <use style="fill:#008000;stroke:#000000;stroke-width:0.5;" x="220.799995049" xlink:href="#m0b4ead7336" y="388.8"/>
     <use style="fill:#008000;stroke:#000000;stroke-width:0.5;" x="233.200018624" xlink:href="#m0b4ead7336" y="380.97925347"/>
     <use style="fill:#008000;stroke:#000000;stroke-width:0.5;" x="245.599998185" xlink:href="#m0b4ead7336" y="364.911927411"/>
     <use style="fill:#008000;stroke:#000000;stroke-width:0.5;" x="258.000007585" xlink:href="#m0b4ead7336" y="344.594385259"/>
     <use style="fill:#008000;stroke:#000000;stroke-width:0.5;" x="270.400014029" xlink:href="#m0b4ead7336" y="324.972149413"/>
     <use style="fill:#008000;stroke:#000000;stroke-width:0.5;" x="282.800004859" xlink:href="#m0b4ead7336" y="310.219640904"/>
     <use style="fill:#008000;stroke:#000000;stroke-width:0.5;" x="295.20049474" xlink:href="#m0b4ead7336" y="302.956736199"/>
     <use style="fill:#008000;stroke:#000000;stroke-width:0.5;" x="307.599995021" xlink:href="#m0b4ead7336" y="302.831524186"/>
     <use style="fill:#008000;stroke:#000000;stroke-width:0.5;" x="320.000014096" xlink:href="#m0b4ead7336" y="307.53143186"/>
     <use style="fill:#008000;stroke:#000000;stroke-width:0.5;" x="332.40002138" xlink:href="#m0b4ead7336" y="313.413228584"/>
     <use style="fill:#008000;stroke:#000000;stroke-width:0.5;" x="344.800006989" xlink:href="#m0b4ead7336" y="315.670869912"/>
     <use style="fill:#008000;stroke:#000000;stroke-width:0.5;" x="357.200046842" xlink:href="#m0b4ead7336" y="309.715558751"/>
     <use style="fill:#008000;stroke:#000000;stroke-width:0.5;" x="369.600020436" xlink:href="#m0b4ead7336" y="296.176753126"/>
     <use style="fill:#008000;stroke:#000000;stroke-width:0.5;" x="382.000008636" xlink:href="#m0b4ead7336" y="275.292935282"/>
     <use style="fill:#008000;stroke:#000000;stroke-width:0.5;" x="394.400007102" xlink:href="#m0b4ead7336" y="245.550898835"/>
     <use style="fill:#008000;stroke:#000000;stroke-width:0.5;" x="406.800036463" xlink:href="#m0b4ead7336" y="207.816500771"/>
     <use style="fill:#008000;stroke:#000000;stroke-width:0.5;" x="419.200032327" xlink:href="#m0b4ead7336" y="168.05872171"/>
     <use style="fill:#008000;stroke:#000000;stroke-width:0.5;" x="431.600006602" xlink:href="#m0b4ead7336" y="135.807455597"/>
     <use style="fill:#008000;stroke:#000000;stroke-width:0.5;" x="444.00003093" xlink:href="#m0b4ead7336" y="121.929504915"/>
     <use style="fill:#008000;stroke:#000000;stroke-width:0.5;" x="456.399988995" xlink:href="#m0b4ead7336" y="129.335428548"/>
     <use style="fill:#008000;stroke:#000000;stroke-width:0.5;" x="468.800013367" xlink:href="#m0b4ead7336" y="155.74922064"/>
     <use style="fill:#008000;stroke:#000000;stroke-width:0.5;" x="481.200011563" xlink:href="#m0b4ead7336" y="195.461040674"/>
     <use style="fill:#008000;stroke:#000000;stroke-width:0.5;" x="493.599986926" xlink:href="#m0b4ead7336" y="237.557798856"/>
     <use style="fill:#008000;stroke:#000000;stroke-width:0.5;" x="505.999986409" xlink:href="#m0b4ead7336" y="274.410281167"/>
    </g>
   </g>
   <g id="patch_3">
    <path d="M 72 388.8 
L 72 43.2 
" style="fill:none;stroke:#000000;stroke-linecap:square;stroke-linejoin:miter;"/>
   </g>
   <g id="patch_4">
    <path d="M 518.4 388.8 
L 518.4 43.2 
" style="fill:none;stroke:#000000;stroke-linecap:square;stroke-linejoin:miter;"/>
   </g>
   <g id="patch_5">
    <path d="M 72 43.2 
L 518.4 43.2 
" style="fill:none;stroke:#000000;stroke-linecap:square;stroke-linejoin:miter;"/>
   </g>
   <g id="patch_6">
    <path d="M 72 388.8 
L 518.4 388.8 
" style="fill:none;stroke:#000000;stroke-linecap:square;stroke-linejoin:miter;"/>
   </g>
   <g id="matplotlib.axis_1">
    <g id="xtick_1">
     <g id="line2d_6">
      <defs>
       <path d="M 0 0 
L 0 -4 
" id="m6d4d17639e" style="stroke:#000000;stroke-width:0.5;"/>
      </defs>
      <g>
       <use style="stroke:#000000;stroke-width:0.5;" x="72.0" xlink:href="#m6d4d17639e" y="388.8"/>
      </g>
     </g>
     <g id="line2d_7">
      <defs>
       <path d="M 0 0 
L 0 4 
" id="m033e9e0d74" style="stroke:#000000;stroke-width:0.5;"/>
      </defs>
      <g>
       <use style="stroke:#000000;stroke-width:0.5;" x="72.0" xlink:href="#m033e9e0d74" y="43.2"/>
      </g>
     </g>
     <g id="text_1">
      <!-- −180 -->
      <defs>
       <path d="M 31.78125 34.625 
Q 24.75 34.625 20.71875 30.859375 
Q 16.703125 27.09375 16.703125 20.515625 
Q 16.703125 13.921875 20.71875 10.15625 
Q 24.75 6.390625 31.78125 6.390625 
Q 38.8125 6.390625 42.859375 10.171875 
Q 46.921875 13.96875 46.921875 20.515625 
Q 46.921875 27.09375 42.890625 30.859375 
Q 38.875 34.625 31.78125 34.625 
M 21.921875 38.8125 
Q 15.578125 40.375 12.03125 44.71875 
Q 8.5 49.078125 8.5 55.328125 
Q 8.5 64.0625 14.71875 69.140625 
Q 20.953125 74.21875 31.78125 74.21875 
Q 42.671875 74.21875 48.875 69.140625 
Q 55.078125 64.0625 55.078125 55.328125 
Q 55.078125 49.078125 51.53125 44.71875 
Q 48 40.375 41.703125 38.8125 
Q 48.828125 37.15625 52.796875 32.3125 
Q 56.78125 27.484375 56.78125 20.515625 
Q 56.78125 9.90625 50.3125 4.234375 
Q 43.84375 -1.421875 31.78125 -1.421875 
Q 19.734375 -1.421875 13.25 4.234375 
Q 6.78125 9.90625 6.78125 20.515625 
Q 6.78125 27.484375 10.78125 32.3125 
Q 14.796875 37.15625 21.921875 38.8125 
M 18.3125 54.390625 
Q 18.3125 48.734375 21.84375 45.5625 
Q 25.390625 42.390625 31.78125 42.390625 
Q 38.140625 42.390625 41.71875 45.5625 
Q 45.3125 48.734375 45.3125 54.390625 
Q 45.3125 60.0625 41.71875 63.234375 
Q 38.140625 66.40625 31.78125 66.40625 
Q 25.390625 66.40625 21.84375 63.234375 
Q 18.3125 60.0625 18.3125 54.390625 
" id="BitstreamVeraSans-Roman-38"/>
       <path d="M 12.40625 8.296875 
L 28.515625 8.296875 
L 28.515625 63.921875 
L 10.984375 60.40625 
L 10.984375 69.390625 
L 28.421875 72.90625 
L 38.28125 72.90625 
L 38.28125 8.296875 
L 54.390625 8.296875 
L 54.390625 0 
L 12.40625 0 
z
" id="BitstreamVeraSans-Roman-31"/>
       <path d="M 31.78125 66.40625 
Q 24.171875 66.40625 20.328125 58.90625 
Q 16.5 51.421875 16.5 36.375 
Q 16.5 21.390625 20.328125 13.890625 
Q 24.171875 6.390625 31.78125 6.390625 
Q 39.453125 6.390625 43.28125 13.890625 
Q 47.125 21.390625 47.125 36.375 
Q 47.125 51.421875 43.28125 58.90625 
Q 39.453125 66.40625 31.78125 66.40625 
M 31.78125 74.21875 
Q 44.046875 74.21875 50.515625 64.515625 
Q 56.984375 54.828125 56.984375 36.375 
Q 56.984375 17.96875 50.515625 8.265625 
Q 44.046875 -1.421875 31.78125 -1.421875 
Q 19.53125 -1.421875 13.0625 8.265625 
Q 6.59375 17.96875 6.59375 36.375 
Q 6.59375 54.828125 13.0625 64.515625 
Q 19.53125 74.21875 31.78125 74.21875 
" id="BitstreamVeraSans-Roman-30"/>
       <path d="M 10.59375 35.5 
L 73.1875 35.5 
L 73.1875 27.203125 
L 10.59375 27.203125 
z
" id="BitstreamVeraSans-Roman-2212"/>
      </defs>
      <g transform="translate(55.5196875 401.918125)scale(0.12 -0.12)">
       <use xlink:href="#BitstreamVeraSans-Roman-2212"/>
       <use x="83.7890625" xlink:href="#BitstreamVeraSans-Roman-31"/>
       <use x="147.412109375" xlink:href="#BitstreamVeraSans-Roman-38"/>
       <use x="211.03515625" xlink:href="#BitstreamVeraSans-Roman-30"/>
      </g>
     </g>
    </g>
    <g id="xtick_2">
     <g id="line2d_8">
      <g>
       <use style="stroke:#000000;stroke-width:0.5;" x="127.8" xlink:href="#m6d4d17639e" y="388.8"/>
      </g>
     </g>
     <g id="line2d_9">
      <g>
       <use style="stroke:#000000;stroke-width:0.5;" x="127.8" xlink:href="#m033e9e0d74" y="43.2"/>
      </g>
     </g>
     <g id="text_2">
      <!-- −135 -->
      <defs>
       <path d="M 10.796875 72.90625 
L 49.515625 72.90625 
L 49.515625 64.59375 
L 19.828125 64.59375 
L 19.828125 46.734375 
Q 21.96875 47.46875 24.109375 47.828125 
Q 26.265625 48.1875 28.421875 48.1875 
Q 40.625 48.1875 47.75 41.5 
Q 54.890625 34.8125 54.890625 23.390625 
Q 54.890625 11.625 47.5625 5.09375 
Q 40.234375 -1.421875 26.90625 -1.421875 
Q 22.3125 -1.421875 17.546875 -0.640625 
Q 12.796875 0.140625 7.71875 1.703125 
L 7.71875 11.625 
Q 12.109375 9.234375 16.796875 8.0625 
Q 21.484375 6.890625 26.703125 6.890625 
Q 35.15625 6.890625 40.078125 11.328125 
Q 45.015625 15.765625 45.015625 23.390625 
Q 45.015625 31 40.078125 35.4375 
Q 35.15625 39.890625 26.703125 39.890625 
Q 22.75 39.890625 18.8125 39.015625 
Q 14.890625 38.140625 10.796875 36.28125 
z
" id="BitstreamVeraSans-Roman-35"/>
       <path d="M 40.578125 39.3125 
Q 47.65625 37.796875 51.625 33 
Q 55.609375 28.21875 55.609375 21.1875 
Q 55.609375 10.40625 48.1875 4.484375 
Q 40.765625 -1.421875 27.09375 -1.421875 
Q 22.515625 -1.421875 17.65625 -0.515625 
Q 12.796875 0.390625 7.625 2.203125 
L 7.625 11.71875 
Q 11.71875 9.328125 16.59375 8.109375 
Q 21.484375 6.890625 26.8125 6.890625 
Q 36.078125 6.890625 40.9375 10.546875 
Q 45.796875 14.203125 45.796875 21.1875 
Q 45.796875 27.640625 41.28125 31.265625 
Q 36.765625 34.90625 28.71875 34.90625 
L 20.21875 34.90625 
L 20.21875 43.015625 
L 29.109375 43.015625 
Q 36.375 43.015625 40.234375 45.921875 
Q 44.09375 48.828125 44.09375 54.296875 
Q 44.09375 59.90625 40.109375 62.90625 
Q 36.140625 65.921875 28.71875 65.921875 
Q 24.65625 65.921875 20.015625 65.03125 
Q 15.375 64.15625 9.8125 62.3125 
L 9.8125 71.09375 
Q 15.4375 72.65625 20.34375 73.4375 
Q 25.25 74.21875 29.59375 74.21875 
Q 40.828125 74.21875 47.359375 69.109375 
Q 53.90625 64.015625 53.90625 55.328125 
Q 53.90625 49.265625 50.4375 45.09375 
Q 46.96875 40.921875 40.578125 39.3125 
" id="BitstreamVeraSans-Roman-33"/>
      </defs>
      <g transform="translate(111.3196875 401.918125)scale(0.12 -0.12)">
       <use xlink:href="#BitstreamVeraSans-Roman-2212"/>
       <use x="83.7890625" xlink:href="#BitstreamVeraSans-Roman-31"/>
       <use x="147.412109375" xlink:href="#BitstreamVeraSans-Roman-33"/>
       <use x="211.03515625" xlink:href="#BitstreamVeraSans-Roman-35"/>
      </g>
     </g>
    </g>
    <g id="xtick_3">
     <g id="line2d_10">
      <g>
       <use style="stroke:#000000;stroke-width:0.5;" x="183.6" xlink:href="#m6d4d17639e" y="388.8"/>
      </g>
     </g>
     <g id="line2d_11">
      <g>
       <use style="stroke:#000000;stroke-width:0.5;" x="183.6" xlink:href="#m033e9e0d74" y="43.2"/>
      </g>
     </g>
     <g id="text_3">
      <!-- −90 -->
      <defs>
       <path d="M 10.984375 1.515625 
L 10.984375 10.5 
Q 14.703125 8.734375 18.5 7.8125 
Q 22.3125 6.890625 25.984375 6.890625 
Q 35.75 6.890625 40.890625 13.453125 
Q 46.046875 20.015625 46.78125 33.40625 
Q 43.953125 29.203125 39.59375 26.953125 
Q 35.25 24.703125 29.984375 24.703125 
Q 19.046875 24.703125 12.671875 31.3125 
Q 6.296875 37.9375 6.296875 49.421875 
Q 6.296875 60.640625 12.9375 67.421875 
Q 19.578125 74.21875 30.609375 74.21875 
Q 43.265625 74.21875 49.921875 64.515625 
Q 56.59375 54.828125 56.59375 36.375 
Q 56.59375 19.140625 48.40625 8.859375 
Q 40.234375 -1.421875 26.421875 -1.421875 
Q 22.703125 -1.421875 18.890625 -0.6875 
Q 15.09375 0.046875 10.984375 1.515625 
M 30.609375 32.421875 
Q 37.25 32.421875 41.125 36.953125 
Q 45.015625 41.5 45.015625 49.421875 
Q 45.015625 57.28125 41.125 61.84375 
Q 37.25 66.40625 30.609375 66.40625 
Q 23.96875 66.40625 20.09375 61.84375 
Q 16.21875 57.28125 16.21875 49.421875 
Q 16.21875 41.5 20.09375 36.953125 
Q 23.96875 32.421875 30.609375 32.421875 
" id="BitstreamVeraSans-Roman-39"/>
      </defs>
      <g transform="translate(170.9371875 401.918125)scale(0.12 -0.12)">
       <use xlink:href="#BitstreamVeraSans-Roman-2212"/>
       <use x="83.7890625" xlink:href="#BitstreamVeraSans-Roman-39"/>
       <use x="147.412109375" xlink:href="#BitstreamVeraSans-Roman-30"/>
      </g>
     </g>
    </g>
    <g id="xtick_4">
     <g id="line2d_12">
      <g>
       <use style="stroke:#000000;stroke-width:0.5;" x="239.4" xlink:href="#m6d4d17639e" y="388.8"/>
      </g>
     </g>
     <g id="line2d_13">
      <g>
       <use style="stroke:#000000;stroke-width:0.5;" x="239.4" xlink:href="#m033e9e0d74" y="43.2"/>
      </g>
     </g>
     <g id="text_4">
      <!-- −45 -->
      <defs>
       <path d="M 37.796875 64.3125 
L 12.890625 25.390625 
L 37.796875 25.390625 
z
M 35.203125 72.90625 
L 47.609375 72.90625 
L 47.609375 25.390625 
L 58.015625 25.390625 
L 58.015625 17.1875 
L 47.609375 17.1875 
L 47.609375 0 
L 37.796875 0 
L 37.796875 17.1875 
L 4.890625 17.1875 
L 4.890625 26.703125 
z
" id="BitstreamVeraSans-Roman-34"/>
      </defs>
      <g transform="translate(226.7371875 401.918125)scale(0.12 -0.12)">
       <use xlink:href="#BitstreamVeraSans-Roman-2212"/>
       <use x="83.7890625" xlink:href="#BitstreamVeraSans-Roman-34"/>
       <use x="147.412109375" xlink:href="#BitstreamVeraSans-Roman-35"/>
      </g>
     </g>
    </g>
    <g id="xtick_5">
     <g id="line2d_14">
      <g>
       <use style="stroke:#000000;stroke-width:0.5;" x="295.2" xlink:href="#m6d4d17639e" y="388.8"/>
      </g>
     </g>
     <g id="line2d_15">
      <g>
       <use style="stroke:#000000;stroke-width:0.5;" x="295.2" xlink:href="#m033e9e0d74" y="43.2"/>
      </g>
     </g>
     <g id="text_5">
      <!-- 0 -->
      <g transform="translate(291.3825 401.918125)scale(0.12 -0.12)">
       <use xlink:href="#BitstreamVeraSans-Roman-30"/>
      </g>
     </g>
    </g>
    <g id="xtick_6">
     <g id="line2d_16">
      <g>
       <use style="stroke:#000000;stroke-width:0.5;" x="351.0" xlink:href="#m6d4d17639e" y="388.8"/>
      </g>
     </g>
     <g id="line2d_17">
      <g>
       <use style="stroke:#000000;stroke-width:0.5;" x="351.0" xlink:href="#m033e9e0d74" y="43.2"/>
      </g>
     </g>
     <g id="text_6">
      <!-- 45 -->
      <g transform="translate(343.365 401.918125)scale(0.12 -0.12)">
       <use xlink:href="#BitstreamVeraSans-Roman-34"/>
       <use x="63.623046875" xlink:href="#BitstreamVeraSans-Roman-35"/>
      </g>
     </g>
    </g>
    <g id="xtick_7">
     <g id="line2d_18">
      <g>
       <use style="stroke:#000000;stroke-width:0.5;" x="406.8" xlink:href="#m6d4d17639e" y="388.8"/>
      </g>
     </g>
     <g id="line2d_19">
      <g>
       <use style="stroke:#000000;stroke-width:0.5;" x="406.8" xlink:href="#m033e9e0d74" y="43.2"/>
      </g>
     </g>
     <g id="text_7">
      <!-- 90 -->
      <g transform="translate(399.165 401.918125)scale(0.12 -0.12)">
       <use xlink:href="#BitstreamVeraSans-Roman-39"/>
       <use x="63.623046875" xlink:href="#BitstreamVeraSans-Roman-30"/>
      </g>
     </g>
    </g>
    <g id="xtick_8">
     <g id="line2d_20">
      <g>
       <use style="stroke:#000000;stroke-width:0.5;" x="462.6" xlink:href="#m6d4d17639e" y="388.8"/>
      </g>
     </g>
     <g id="line2d_21">
      <g>
       <use style="stroke:#000000;stroke-width:0.5;" x="462.6" xlink:href="#m033e9e0d74" y="43.2"/>
      </g>
     </g>
     <g id="text_8">
      <!-- 135 -->
      <g transform="translate(451.1475 401.918125)scale(0.12 -0.12)">
       <use xlink:href="#BitstreamVeraSans-Roman-31"/>
       <use x="63.623046875" xlink:href="#BitstreamVeraSans-Roman-33"/>
       <use x="127.24609375" xlink:href="#BitstreamVeraSans-Roman-35"/>
      </g>
     </g>
    </g>
    <g id="xtick_9">
     <g id="line2d_22">
      <g>
       <use style="stroke:#000000;stroke-width:0.5;" x="518.4" xlink:href="#m6d4d17639e" y="388.8"/>
      </g>
     </g>
     <g id="line2d_23">
      <g>
       <use style="stroke:#000000;stroke-width:0.5;" x="518.4" xlink:href="#m033e9e0d74" y="43.2"/>
      </g>
     </g>
     <g id="text_9">
      <!-- 180 -->
      <g transform="translate(506.9475 401.918125)scale(0.12 -0.12)">
       <use xlink:href="#BitstreamVeraSans-Roman-31"/>
       <use x="63.623046875" xlink:href="#BitstreamVeraSans-Roman-38"/>
       <use x="127.24609375" xlink:href="#BitstreamVeraSans-Roman-30"/>
      </g>
     </g>
    </g>
    <g id="text_10">
     <!-- Phi -->
     <defs>
      <path d="M 19.671875 64.796875 
L 19.671875 37.40625 
L 32.078125 37.40625 
Q 38.96875 37.40625 42.71875 40.96875 
Q 46.484375 44.53125 46.484375 51.125 
Q 46.484375 57.671875 42.71875 61.234375 
Q 38.96875 64.796875 32.078125 64.796875 
z
M 9.8125 72.90625 
L 32.078125 72.90625 
Q 44.34375 72.90625 50.609375 67.359375 
Q 56.890625 61.8125 56.890625 51.125 
Q 56.890625 40.328125 50.609375 34.8125 
Q 44.34375 29.296875 32.078125 29.296875 
L 19.671875 29.296875 
L 19.671875 0 
L 9.8125 0 
z
" id="BitstreamVeraSans-Roman-50"/>
      <path d="M 54.890625 33.015625 
L 54.890625 0 
L 45.90625 0 
L 45.90625 32.71875 
Q 45.90625 40.484375 42.875 44.328125 
Q 39.84375 48.1875 33.796875 48.1875 
Q 26.515625 48.1875 22.3125 43.546875 
Q 18.109375 38.921875 18.109375 30.90625 
L 18.109375 0 
L 9.078125 0 
L 9.078125 75.984375 
L 18.109375 75.984375 
L 18.109375 46.1875 
Q 21.34375 51.125 25.703125 53.5625 
Q 30.078125 56 35.796875 56 
Q 45.21875 56 50.046875 50.171875 
Q 54.890625 44.34375 54.890625 33.015625 
" id="BitstreamVeraSans-Roman-68"/>
      <path d="M 9.421875 54.6875 
L 18.40625 54.6875 
L 18.40625 0 
L 9.421875 0 
z
M 9.421875 75.984375 
L 18.40625 75.984375 
L 18.40625 64.59375 
L 9.421875 64.59375 
z
" id="BitstreamVeraSans-Roman-69"/>
     </defs>
     <g transform="translate(286.1128125 418.531875)scale(0.12 -0.12)">
      <use xlink:href="#BitstreamVeraSans-Roman-50"/>
      <use x="60.302734375" xlink:href="#BitstreamVeraSans-Roman-68"/>
      <use x="123.681640625" xlink:href="#BitstreamVeraSans-Roman-69"/>
     </g>
    </g>
   </g>
   <g id="matplotlib.axis_2">
    <g id="ytick_1">
     <g id="line2d_24">
      <defs>
       <path d="M 0 0 
L 4 0 
" id="m87f919e461" style="stroke:#000000;stroke-width:0.5;"/>
      </defs>
      <g>
       <use style="stroke:#000000;stroke-width:0.5;" x="72.0" xlink:href="#m87f919e461" y="388.8"/>
      </g>
     </g>
     <g id="line2d_25">
      <defs>
       <path d="M 0 0 
L -4 0 
" id="m0a5cef3cf6" style="stroke:#000000;stroke-width:0.5;"/>
      </defs>
      <g>
       <use style="stroke:#000000;stroke-width:0.5;" x="518.4" xlink:href="#m0a5cef3cf6" y="388.8"/>
      </g>
     </g>
     <g id="text_11">
      <!-- 0 -->
      <g transform="translate(60.365 392.11125)scale(0.12 -0.12)">
       <use xlink:href="#BitstreamVeraSans-Roman-30"/>
      </g>
     </g>
    </g>
    <g id="ytick_2">
     <g id="line2d_26">
      <g>
       <use style="stroke:#000000;stroke-width:0.5;" x="72.0" xlink:href="#m87f919e461" y="319.68"/>
      </g>
     </g>
     <g id="line2d_27">
      <g>
       <use style="stroke:#000000;stroke-width:0.5;" x="518.4" xlink:href="#m0a5cef3cf6" y="319.68"/>
      </g>
     </g>
     <g id="text_12">
      <!-- 2 -->
      <defs>
       <path d="M 19.1875 8.296875 
L 53.609375 8.296875 
L 53.609375 0 
L 7.328125 0 
L 7.328125 8.296875 
Q 12.9375 14.109375 22.625 23.890625 
Q 32.328125 33.6875 34.8125 36.53125 
Q 39.546875 41.84375 41.421875 45.53125 
Q 43.3125 49.21875 43.3125 52.78125 
Q 43.3125 58.59375 39.234375 62.25 
Q 35.15625 65.921875 28.609375 65.921875 
Q 23.96875 65.921875 18.8125 64.3125 
Q 13.671875 62.703125 7.8125 59.421875 
L 7.8125 69.390625 
Q 13.765625 71.78125 18.9375 73 
Q 24.125 74.21875 28.421875 74.21875 
Q 39.75 74.21875 46.484375 68.546875 
Q 53.21875 62.890625 53.21875 53.421875 
Q 53.21875 48.921875 51.53125 44.890625 
Q 49.859375 40.875 45.40625 35.40625 
Q 44.1875 33.984375 37.640625 27.21875 
Q 31.109375 20.453125 19.1875 8.296875 
" id="BitstreamVeraSans-Roman-32"/>
      </defs>
      <g transform="translate(60.365 322.99125)scale(0.12 -0.12)">
       <use xlink:href="#BitstreamVeraSans-Roman-32"/>
      </g>
     </g>
    </g>
    <g id="ytick_3">
     <g id="line2d_28">
      <g>
       <use style="stroke:#000000;stroke-width:0.5;" x="72.0" xlink:href="#m87f919e461" y="250.56"/>
      </g>
     </g>
     <g id="line2d_29">
      <g>
       <use style="stroke:#000000;stroke-width:0.5;" x="518.4" xlink:href="#m0a5cef3cf6" y="250.56"/>
      </g>
     </g>
     <g id="text_13">
      <!-- 4 -->
      <g transform="translate(60.365 253.87125)scale(0.12 -0.12)">
       <use xlink:href="#BitstreamVeraSans-Roman-34"/>
      </g>
     </g>
    </g>
    <g id="ytick_4">
     <g id="line2d_30">
      <g>
       <use style="stroke:#000000;stroke-width:0.5;" x="72.0" xlink:href="#m87f919e461" y="181.44"/>
      </g>
     </g>
     <g id="line2d_31">
      <g>
       <use style="stroke:#000000;stroke-width:0.5;" x="518.4" xlink:href="#m0a5cef3cf6" y="181.44"/>
      </g>
     </g>
     <g id="text_14">
      <!-- 6 -->
      <defs>
       <path d="M 33.015625 40.375 
Q 26.375 40.375 22.484375 35.828125 
Q 18.609375 31.296875 18.609375 23.390625 
Q 18.609375 15.53125 22.484375 10.953125 
Q 26.375 6.390625 33.015625 6.390625 
Q 39.65625 6.390625 43.53125 10.953125 
Q 47.40625 15.53125 47.40625 23.390625 
Q 47.40625 31.296875 43.53125 35.828125 
Q 39.65625 40.375 33.015625 40.375 
M 52.59375 71.296875 
L 52.59375 62.3125 
Q 48.875 64.0625 45.09375 64.984375 
Q 41.3125 65.921875 37.59375 65.921875 
Q 27.828125 65.921875 22.671875 59.328125 
Q 17.53125 52.734375 16.796875 39.40625 
Q 19.671875 43.65625 24.015625 45.921875 
Q 28.375 48.1875 33.59375 48.1875 
Q 44.578125 48.1875 50.953125 41.515625 
Q 57.328125 34.859375 57.328125 23.390625 
Q 57.328125 12.15625 50.6875 5.359375 
Q 44.046875 -1.421875 33.015625 -1.421875 
Q 20.359375 -1.421875 13.671875 8.265625 
Q 6.984375 17.96875 6.984375 36.375 
Q 6.984375 53.65625 15.1875 63.9375 
Q 23.390625 74.21875 37.203125 74.21875 
Q 40.921875 74.21875 44.703125 73.484375 
Q 48.484375 72.75 52.59375 71.296875 
" id="BitstreamVeraSans-Roman-36"/>
      </defs>
      <g transform="translate(60.365 184.75125)scale(0.12 -0.12)">
       <use xlink:href="#BitstreamVeraSans-Roman-36"/>
      </g>
     </g>
    </g>
    <g id="ytick_5">
     <g id="line2d_32">
      <g>
       <use style="stroke:#000000;stroke-width:0.5;" x="72.0" xlink:href="#m87f919e461" y="112.32"/>
      </g>
     </g>
     <g id="line2d_33">
      <g>
       <use style="stroke:#000000;stroke-width:0.5;" x="518.4" xlink:href="#m0a5cef3cf6" y="112.32"/>
      </g>
     </g>
     <g id="text_15">
      <!-- 8 -->
      <g transform="translate(60.365 115.63125)scale(0.12 -0.12)">
       <use xlink:href="#BitstreamVeraSans-Roman-38"/>
      </g>
     </g>
    </g>
    <g id="ytick_6">
     <g id="line2d_34">
      <g>
       <use style="stroke:#000000;stroke-width:0.5;" x="72.0" xlink:href="#m87f919e461" y="43.2"/>
      </g>
     </g>
     <g id="line2d_35">
      <g>
       <use style="stroke:#000000;stroke-width:0.5;" x="518.4" xlink:href="#m0a5cef3cf6" y="43.2"/>
      </g>
     </g>
     <g id="text_16">
      <!-- 10 -->
      <g transform="translate(52.73 46.51125)scale(0.12 -0.12)">
       <use xlink:href="#BitstreamVeraSans-Roman-31"/>
       <use x="63.623046875" xlink:href="#BitstreamVeraSans-Roman-30"/>
      </g>
     </g>
    </g>
    <g id="text_17">
     <!-- kcal/mol -->
     <defs>
      <path d="M 48.78125 52.59375 
L 48.78125 44.1875 
Q 44.96875 46.296875 41.140625 47.34375 
Q 37.3125 48.390625 33.40625 48.390625 
Q 24.65625 48.390625 19.8125 42.84375 
Q 14.984375 37.3125 14.984375 27.296875 
Q 14.984375 17.28125 19.8125 11.734375 
Q 24.65625 6.203125 33.40625 6.203125 
Q 37.3125 6.203125 41.140625 7.25 
Q 44.96875 8.296875 48.78125 10.40625 
L 48.78125 2.09375 
Q 45.015625 0.34375 40.984375 -0.53125 
Q 36.96875 -1.421875 32.421875 -1.421875 
Q 20.0625 -1.421875 12.78125 6.34375 
Q 5.515625 14.109375 5.515625 27.296875 
Q 5.515625 40.671875 12.859375 48.328125 
Q 20.21875 56 33.015625 56 
Q 37.15625 56 41.109375 55.140625 
Q 45.0625 54.296875 48.78125 52.59375 
" id="BitstreamVeraSans-Roman-63"/>
      <path d="M 9.421875 75.984375 
L 18.40625 75.984375 
L 18.40625 0 
L 9.421875 0 
z
" id="BitstreamVeraSans-Roman-6c"/>
      <path d="M 25.390625 72.90625 
L 33.6875 72.90625 
L 8.296875 -9.28125 
L 0 -9.28125 
z
" id="BitstreamVeraSans-Roman-2f"/>
      <path d="M 52 44.1875 
Q 55.375 50.25 60.0625 53.125 
Q 64.75 56 71.09375 56 
Q 79.640625 56 84.28125 50.015625 
Q 88.921875 44.046875 88.921875 33.015625 
L 88.921875 0 
L 79.890625 0 
L 79.890625 32.71875 
Q 79.890625 40.578125 77.09375 44.375 
Q 74.3125 48.1875 68.609375 48.1875 
Q 61.625 48.1875 57.5625 43.546875 
Q 53.515625 38.921875 53.515625 30.90625 
L 53.515625 0 
L 44.484375 0 
L 44.484375 32.71875 
Q 44.484375 40.625 41.703125 44.40625 
Q 38.921875 48.1875 33.109375 48.1875 
Q 26.21875 48.1875 22.15625 43.53125 
Q 18.109375 38.875 18.109375 30.90625 
L 18.109375 0 
L 9.078125 0 
L 9.078125 54.6875 
L 18.109375 54.6875 
L 18.109375 46.1875 
Q 21.1875 51.21875 25.484375 53.609375 
Q 29.78125 56 35.6875 56 
Q 41.65625 56 45.828125 52.96875 
Q 50 49.953125 52 44.1875 
" id="BitstreamVeraSans-Roman-6d"/>
      <path d="M 30.609375 48.390625 
Q 23.390625 48.390625 19.1875 42.75 
Q 14.984375 37.109375 14.984375 27.296875 
Q 14.984375 17.484375 19.15625 11.84375 
Q 23.34375 6.203125 30.609375 6.203125 
Q 37.796875 6.203125 41.984375 11.859375 
Q 46.1875 17.53125 46.1875 27.296875 
Q 46.1875 37.015625 41.984375 42.703125 
Q 37.796875 48.390625 30.609375 48.390625 
M 30.609375 56 
Q 42.328125 56 49.015625 48.375 
Q 55.71875 40.765625 55.71875 27.296875 
Q 55.71875 13.875 49.015625 6.21875 
Q 42.328125 -1.421875 30.609375 -1.421875 
Q 18.84375 -1.421875 12.171875 6.21875 
Q 5.515625 13.875 5.515625 27.296875 
Q 5.515625 40.765625 12.171875 48.375 
Q 18.84375 56 30.609375 56 
" id="BitstreamVeraSans-Roman-6f"/>
      <path d="M 34.28125 27.484375 
Q 23.390625 27.484375 19.1875 25 
Q 14.984375 22.515625 14.984375 16.5 
Q 14.984375 11.71875 18.140625 8.90625 
Q 21.296875 6.109375 26.703125 6.109375 
Q 34.1875 6.109375 38.703125 11.40625 
Q 43.21875 16.703125 43.21875 25.484375 
L 43.21875 27.484375 
z
M 52.203125 31.203125 
L 52.203125 0 
L 43.21875 0 
L 43.21875 8.296875 
Q 40.140625 3.328125 35.546875 0.953125 
Q 30.953125 -1.421875 24.3125 -1.421875 
Q 15.921875 -1.421875 10.953125 3.296875 
Q 6 8.015625 6 15.921875 
Q 6 25.140625 12.171875 29.828125 
Q 18.359375 34.515625 30.609375 34.515625 
L 43.21875 34.515625 
L 43.21875 35.40625 
Q 43.21875 41.609375 39.140625 45 
Q 35.0625 48.390625 27.6875 48.390625 
Q 23 48.390625 18.546875 47.265625 
Q 14.109375 46.140625 10.015625 43.890625 
L 10.015625 52.203125 
Q 14.9375 54.109375 19.578125 55.046875 
Q 24.21875 56 28.609375 56 
Q 40.484375 56 46.34375 49.84375 
Q 52.203125 43.703125 52.203125 31.203125 
" id="BitstreamVeraSans-Roman-61"/>
      <path d="M 9.078125 75.984375 
L 18.109375 75.984375 
L 18.109375 31.109375 
L 44.921875 54.6875 
L 56.390625 54.6875 
L 27.390625 29.109375 
L 57.625 0 
L 45.90625 0 
L 18.109375 26.703125 
L 18.109375 0 
L 9.078125 0 
z
" id="BitstreamVeraSans-Roman-6b"/>
     </defs>
     <g transform="translate(45.234375 241.3209375)rotate(-90.0)scale(0.12 -0.12)">
      <use xlink:href="#BitstreamVeraSans-Roman-6b"/>
      <use x="57.91015625" xlink:href="#BitstreamVeraSans-Roman-63"/>
      <use x="112.890625" xlink:href="#BitstreamVeraSans-Roman-61"/>
      <use x="174.169921875" xlink:href="#BitstreamVeraSans-Roman-6c"/>
      <use x="201.953125" xlink:href="#BitstreamVeraSans-Roman-2f"/>
      <use x="235.64453125" xlink:href="#BitstreamVeraSans-Roman-6d"/>
      <use x="333.056640625" xlink:href="#BitstreamVeraSans-Roman-6f"/>
      <use x="394.23828125" xlink:href="#BitstreamVeraSans-Roman-6c"/>
     </g>
    </g>
   </g>
   <g id="text_18">
    <!-- C3-O2-C2-H4 -->
    <defs>
     <path d="M 39.40625 66.21875 
Q 28.65625 66.21875 22.328125 58.203125 
Q 16.015625 50.203125 16.015625 36.375 
Q 16.015625 22.609375 22.328125 14.59375 
Q 28.65625 6.59375 39.40625 6.59375 
Q 50.140625 6.59375 56.421875 14.59375 
Q 62.703125 22.609375 62.703125 36.375 
Q 62.703125 50.203125 56.421875 58.203125 
Q 50.140625 66.21875 39.40625 66.21875 
M 39.40625 74.21875 
Q 54.734375 74.21875 63.90625 63.9375 
Q 73.09375 53.65625 73.09375 36.375 
Q 73.09375 19.140625 63.90625 8.859375 
Q 54.734375 -1.421875 39.40625 -1.421875 
Q 24.03125 -1.421875 14.8125 8.828125 
Q 5.609375 19.09375 5.609375 36.375 
Q 5.609375 53.65625 14.8125 63.9375 
Q 24.03125 74.21875 39.40625 74.21875 
" id="BitstreamVeraSans-Roman-4f"/>
     <path d="M 64.40625 67.28125 
L 64.40625 56.890625 
Q 59.421875 61.53125 53.78125 63.8125 
Q 48.140625 66.109375 41.796875 66.109375 
Q 29.296875 66.109375 22.65625 58.46875 
Q 16.015625 50.828125 16.015625 36.375 
Q 16.015625 21.96875 22.65625 14.328125 
Q 29.296875 6.6875 41.796875 6.6875 
Q 48.140625 6.6875 53.78125 8.984375 
Q 59.421875 11.28125 64.40625 15.921875 
L 64.40625 5.609375 
Q 59.234375 2.09375 53.4375 0.328125 
Q 47.65625 -1.421875 41.21875 -1.421875 
Q 24.65625 -1.421875 15.125 8.703125 
Q 5.609375 18.84375 5.609375 36.375 
Q 5.609375 53.953125 15.125 64.078125 
Q 24.65625 74.21875 41.21875 74.21875 
Q 47.75 74.21875 53.53125 72.484375 
Q 59.328125 70.75 64.40625 67.28125 
" id="BitstreamVeraSans-Roman-43"/>
     <path d="M 9.8125 72.90625 
L 19.671875 72.90625 
L 19.671875 43.015625 
L 55.515625 43.015625 
L 55.515625 72.90625 
L 65.375 72.90625 
L 65.375 0 
L 55.515625 0 
L 55.515625 34.71875 
L 19.671875 34.71875 
L 19.671875 0 
L 9.8125 0 
z
" id="BitstreamVeraSans-Roman-48"/>
     <path d="M 4.890625 31.390625 
L 31.203125 31.390625 
L 31.203125 23.390625 
L 4.890625 23.390625 
z
" id="BitstreamVeraSans-Roman-2d"/>
    </defs>
    <g transform="translate(247.94325 38.2)scale(0.144 -0.144)">
     <use xlink:href="#BitstreamVeraSans-Roman-43"/>
     <use x="69.82421875" xlink:href="#BitstreamVeraSans-Roman-33"/>
     <use x="133.447265625" xlink:href="#BitstreamVeraSans-Roman-2d"/>
     <use x="169.5625" xlink:href="#BitstreamVeraSans-Roman-4f"/>
     <use x="248.2734375" xlink:href="#BitstreamVeraSans-Roman-32"/>
     <use x="311.896484375" xlink:href="#BitstreamVeraSans-Roman-2d"/>
     <use x="347.98046875" xlink:href="#BitstreamVeraSans-Roman-43"/>
     <use x="417.8046875" xlink:href="#BitstreamVeraSans-Roman-32"/>
     <use x="481.427734375" xlink:href="#BitstreamVeraSans-Roman-2d"/>
     <use x="517.51171875" xlink:href="#BitstreamVeraSans-Roman-48"/>
     <use x="592.70703125" xlink:href="#BitstreamVeraSans-Roman-34"/>
    </g>
   </g>
   <g id="legend_1">
    <g id="patch_7">
     <path d="M 406.15625 108.3125 
L 514.4 108.3125 
L 514.4 47.2 
L 406.15625 47.2 
z
" style="fill:#ffffff;stroke:#000000;stroke-linejoin:miter;"/>
    </g>
    <g id="line2d_36">
     <path d="M 411.75625 53.67875 
L 422.95625 53.67875 
" style="fill:none;stroke:#ff0000;stroke-linecap:square;"/>
    </g>
    <g id="line2d_37">
     <g>
      <use style="fill:#ff0000;stroke:#000000;stroke-width:0.5;" x="411.75625" xlink:href="#m2e33466cf3" y="53.67875"/>
      <use style="fill:#ff0000;stroke:#000000;stroke-width:0.5;" x="422.95625" xlink:href="#m2e33466cf3" y="53.67875"/>
     </g>
    </g>
    <g id="text_19">
     <!-- QM -->
     <defs>
      <path d="M 39.40625 66.21875 
Q 28.65625 66.21875 22.328125 58.203125 
Q 16.015625 50.203125 16.015625 36.375 
Q 16.015625 22.609375 22.328125 14.59375 
Q 28.65625 6.59375 39.40625 6.59375 
Q 50.140625 6.59375 56.421875 14.59375 
Q 62.703125 22.609375 62.703125 36.375 
Q 62.703125 50.203125 56.421875 58.203125 
Q 50.140625 66.21875 39.40625 66.21875 
M 53.21875 1.3125 
L 66.21875 -12.890625 
L 54.296875 -12.890625 
L 43.5 -1.21875 
Q 41.890625 -1.3125 41.03125 -1.359375 
Q 40.1875 -1.421875 39.40625 -1.421875 
Q 24.03125 -1.421875 14.8125 8.859375 
Q 5.609375 19.140625 5.609375 36.375 
Q 5.609375 53.65625 14.8125 63.9375 
Q 24.03125 74.21875 39.40625 74.21875 
Q 54.734375 74.21875 63.90625 63.9375 
Q 73.09375 53.65625 73.09375 36.375 
Q 73.09375 23.6875 67.984375 14.640625 
Q 62.890625 5.609375 53.21875 1.3125 
" id="BitstreamVeraSans-Roman-51"/>
      <path d="M 9.8125 72.90625 
L 24.515625 72.90625 
L 43.109375 23.296875 
L 61.8125 72.90625 
L 76.515625 72.90625 
L 76.515625 0 
L 66.890625 0 
L 66.890625 64.015625 
L 48.09375 14.015625 
L 38.1875 14.015625 
L 19.390625 64.015625 
L 19.390625 0 
L 9.8125 0 
z
" id="BitstreamVeraSans-Roman-4d"/>
     </defs>
     <g transform="translate(431.75625 56.47875)scale(0.08 -0.08)">
      <use xlink:href="#BitstreamVeraSans-Roman-51"/>
      <use x="78.7109375" xlink:href="#BitstreamVeraSans-Roman-4d"/>
     </g>
    </g>
    <g id="line2d_38">
     <path d="M 411.75625 65.42125 
L 422.95625 65.42125 
" style="fill:none;stroke:#0000ff;stroke-linecap:square;"/>
    </g>
    <g id="line2d_39">
     <g>
      <use style="fill:#0000ff;stroke:#000000;stroke-width:0.5;" x="411.75625" xlink:href="#m8a80da3f58" y="65.42125"/>
      <use style="fill:#0000ff;stroke:#000000;stroke-width:0.5;" x="422.95625" xlink:href="#m8a80da3f58" y="65.42125"/>
     </g>
    </g>
    <g id="text_20">
     <!-- MM Original -->
     <defs>
      <path d="M 45.40625 27.984375 
Q 45.40625 37.75 41.375 43.109375 
Q 37.359375 48.484375 30.078125 48.484375 
Q 22.859375 48.484375 18.828125 43.109375 
Q 14.796875 37.75 14.796875 27.984375 
Q 14.796875 18.265625 18.828125 12.890625 
Q 22.859375 7.515625 30.078125 7.515625 
Q 37.359375 7.515625 41.375 12.890625 
Q 45.40625 18.265625 45.40625 27.984375 
M 54.390625 6.78125 
Q 54.390625 -7.171875 48.1875 -13.984375 
Q 42 -20.796875 29.203125 -20.796875 
Q 24.46875 -20.796875 20.265625 -20.09375 
Q 16.0625 -19.390625 12.109375 -17.921875 
L 12.109375 -9.1875 
Q 16.0625 -11.328125 19.921875 -12.34375 
Q 23.78125 -13.375 27.78125 -13.375 
Q 36.625 -13.375 41.015625 -8.765625 
Q 45.40625 -4.15625 45.40625 5.171875 
L 45.40625 9.625 
Q 42.625 4.78125 38.28125 2.390625 
Q 33.9375 0 27.875 0 
Q 17.828125 0 11.671875 7.65625 
Q 5.515625 15.328125 5.515625 27.984375 
Q 5.515625 40.671875 11.671875 48.328125 
Q 17.828125 56 27.875 56 
Q 33.9375 56 38.28125 53.609375 
Q 42.625 51.21875 45.40625 46.390625 
L 45.40625 54.6875 
L 54.390625 54.6875 
z
" id="BitstreamVeraSans-Roman-67"/>
      <path id="BitstreamVeraSans-Roman-20"/>
      <path d="M 41.109375 46.296875 
Q 39.59375 47.171875 37.8125 47.578125 
Q 36.03125 48 33.890625 48 
Q 26.265625 48 22.1875 43.046875 
Q 18.109375 38.09375 18.109375 28.8125 
L 18.109375 0 
L 9.078125 0 
L 9.078125 54.6875 
L 18.109375 54.6875 
L 18.109375 46.1875 
Q 20.953125 51.171875 25.484375 53.578125 
Q 30.03125 56 36.53125 56 
Q 37.453125 56 38.578125 55.875 
Q 39.703125 55.765625 41.0625 55.515625 
z
" id="BitstreamVeraSans-Roman-72"/>
      <path d="M 54.890625 33.015625 
L 54.890625 0 
L 45.90625 0 
L 45.90625 32.71875 
Q 45.90625 40.484375 42.875 44.328125 
Q 39.84375 48.1875 33.796875 48.1875 
Q 26.515625 48.1875 22.3125 43.546875 
Q 18.109375 38.921875 18.109375 30.90625 
L 18.109375 0 
L 9.078125 0 
L 9.078125 54.6875 
L 18.109375 54.6875 
L 18.109375 46.1875 
Q 21.34375 51.125 25.703125 53.5625 
Q 30.078125 56 35.796875 56 
Q 45.21875 56 50.046875 50.171875 
Q 54.890625 44.34375 54.890625 33.015625 
" id="BitstreamVeraSans-Roman-6e"/>
     </defs>
     <g transform="translate(431.75625 68.22125)scale(0.08 -0.08)">
      <use xlink:href="#BitstreamVeraSans-Roman-4d"/>
      <use x="86.279296875" xlink:href="#BitstreamVeraSans-Roman-4d"/>
      <use x="172.55859375" xlink:href="#BitstreamVeraSans-Roman-20"/>
      <use x="204.345703125" xlink:href="#BitstreamVeraSans-Roman-4f"/>
      <use x="283.056640625" xlink:href="#BitstreamVeraSans-Roman-72"/>
      <use x="324.169921875" xlink:href="#BitstreamVeraSans-Roman-69"/>
      <use x="351.953125" xlink:href="#BitstreamVeraSans-Roman-67"/>
      <use x="415.4296875" xlink:href="#BitstreamVeraSans-Roman-69"/>
      <use x="443.212890625" xlink:href="#BitstreamVeraSans-Roman-6e"/>
      <use x="506.591796875" xlink:href="#BitstreamVeraSans-Roman-61"/>
      <use x="567.87109375" xlink:href="#BitstreamVeraSans-Roman-6c"/>
     </g>
    </g>
    <g id="line2d_40">
     <path d="M 411.75625 77.16375 
L 422.95625 77.16375 
" style="fill:none;stroke:#000000;stroke-linecap:square;"/>
    </g>
    <g id="line2d_41">
     <g>
      <use style="stroke:#000000;stroke-width:0.5;" x="411.75625" xlink:href="#m96e4011309" y="77.16375"/>
      <use style="stroke:#000000;stroke-width:0.5;" x="422.95625" xlink:href="#m96e4011309" y="77.16375"/>
     </g>
    </g>
    <g id="text_21">
     <!-- MM With phi zeroed -->
     <defs>
      <path d="M 45.40625 46.390625 
L 45.40625 75.984375 
L 54.390625 75.984375 
L 54.390625 0 
L 45.40625 0 
L 45.40625 8.203125 
Q 42.578125 3.328125 38.25 0.953125 
Q 33.9375 -1.421875 27.875 -1.421875 
Q 17.96875 -1.421875 11.734375 6.484375 
Q 5.515625 14.40625 5.515625 27.296875 
Q 5.515625 40.1875 11.734375 48.09375 
Q 17.96875 56 27.875 56 
Q 33.9375 56 38.25 53.625 
Q 42.578125 51.265625 45.40625 46.390625 
M 14.796875 27.296875 
Q 14.796875 17.390625 18.875 11.75 
Q 22.953125 6.109375 30.078125 6.109375 
Q 37.203125 6.109375 41.296875 11.75 
Q 45.40625 17.390625 45.40625 27.296875 
Q 45.40625 37.203125 41.296875 42.84375 
Q 37.203125 48.484375 30.078125 48.484375 
Q 22.953125 48.484375 18.875 42.84375 
Q 14.796875 37.203125 14.796875 27.296875 
" id="BitstreamVeraSans-Roman-64"/>
      <path d="M 18.3125 70.21875 
L 18.3125 54.6875 
L 36.8125 54.6875 
L 36.8125 47.703125 
L 18.3125 47.703125 
L 18.3125 18.015625 
Q 18.3125 11.328125 20.140625 9.421875 
Q 21.96875 7.515625 27.59375 7.515625 
L 36.8125 7.515625 
L 36.8125 0 
L 27.59375 0 
Q 17.1875 0 13.234375 3.875 
Q 9.28125 7.765625 9.28125 18.015625 
L 9.28125 47.703125 
L 2.6875 47.703125 
L 2.6875 54.6875 
L 9.28125 54.6875 
L 9.28125 70.21875 
z
" id="BitstreamVeraSans-Roman-74"/>
      <path d="M 18.109375 8.203125 
L 18.109375 -20.796875 
L 9.078125 -20.796875 
L 9.078125 54.6875 
L 18.109375 54.6875 
L 18.109375 46.390625 
Q 20.953125 51.265625 25.265625 53.625 
Q 29.59375 56 35.59375 56 
Q 45.5625 56 51.78125 48.09375 
Q 58.015625 40.1875 58.015625 27.296875 
Q 58.015625 14.40625 51.78125 6.484375 
Q 45.5625 -1.421875 35.59375 -1.421875 
Q 29.59375 -1.421875 25.265625 0.953125 
Q 20.953125 3.328125 18.109375 8.203125 
M 48.6875 27.296875 
Q 48.6875 37.203125 44.609375 42.84375 
Q 40.53125 48.484375 33.40625 48.484375 
Q 26.265625 48.484375 22.1875 42.84375 
Q 18.109375 37.203125 18.109375 27.296875 
Q 18.109375 17.390625 22.1875 11.75 
Q 26.265625 6.109375 33.40625 6.109375 
Q 40.53125 6.109375 44.609375 11.75 
Q 48.6875 17.390625 48.6875 27.296875 
" id="BitstreamVeraSans-Roman-70"/>
      <path d="M 56.203125 29.59375 
L 56.203125 25.203125 
L 14.890625 25.203125 
Q 15.484375 15.921875 20.484375 11.0625 
Q 25.484375 6.203125 34.421875 6.203125 
Q 39.59375 6.203125 44.453125 7.46875 
Q 49.3125 8.734375 54.109375 11.28125 
L 54.109375 2.78125 
Q 49.265625 0.734375 44.1875 -0.34375 
Q 39.109375 -1.421875 33.890625 -1.421875 
Q 20.796875 -1.421875 13.15625 6.1875 
Q 5.515625 13.8125 5.515625 26.8125 
Q 5.515625 40.234375 12.765625 48.109375 
Q 20.015625 56 32.328125 56 
Q 43.359375 56 49.78125 48.890625 
Q 56.203125 41.796875 56.203125 29.59375 
M 47.21875 32.234375 
Q 47.125 39.59375 43.09375 43.984375 
Q 39.0625 48.390625 32.421875 48.390625 
Q 24.90625 48.390625 20.390625 44.140625 
Q 15.875 39.890625 15.1875 32.171875 
z
" id="BitstreamVeraSans-Roman-65"/>
      <path d="M 3.328125 72.90625 
L 13.28125 72.90625 
L 28.609375 11.28125 
L 43.890625 72.90625 
L 54.984375 72.90625 
L 70.3125 11.28125 
L 85.59375 72.90625 
L 95.609375 72.90625 
L 77.296875 0 
L 64.890625 0 
L 49.515625 63.28125 
L 33.984375 0 
L 21.578125 0 
z
" id="BitstreamVeraSans-Roman-57"/>
      <path d="M 5.515625 54.6875 
L 48.1875 54.6875 
L 48.1875 46.484375 
L 14.40625 7.171875 
L 48.1875 7.171875 
L 48.1875 0 
L 4.296875 0 
L 4.296875 8.203125 
L 38.09375 47.515625 
L 5.515625 47.515625 
z
" id="BitstreamVeraSans-Roman-7a"/>
     </defs>
     <g transform="translate(431.75625 79.96375)scale(0.08 -0.08)">
      <use xlink:href="#BitstreamVeraSans-Roman-4d"/>
      <use x="86.279296875" xlink:href="#BitstreamVeraSans-Roman-4d"/>
      <use x="172.55859375" xlink:href="#BitstreamVeraSans-Roman-20"/>
      <use x="204.345703125" xlink:href="#BitstreamVeraSans-Roman-57"/>
      <use x="303.19140625" xlink:href="#BitstreamVeraSans-Roman-69"/>
      <use x="330.974609375" xlink:href="#BitstreamVeraSans-Roman-74"/>
      <use x="370.18359375" xlink:href="#BitstreamVeraSans-Roman-68"/>
      <use x="433.5625" xlink:href="#BitstreamVeraSans-Roman-20"/>
      <use x="465.349609375" xlink:href="#BitstreamVeraSans-Roman-70"/>
      <use x="528.826171875" xlink:href="#BitstreamVeraSans-Roman-68"/>
      <use x="592.205078125" xlink:href="#BitstreamVeraSans-Roman-69"/>
      <use x="619.98828125" xlink:href="#BitstreamVeraSans-Roman-20"/>
      <use x="651.775390625" xlink:href="#BitstreamVeraSans-Roman-7a"/>
      <use x="704.265625" xlink:href="#BitstreamVeraSans-Roman-65"/>
      <use x="765.7890625" xlink:href="#BitstreamVeraSans-Roman-72"/>
      <use x="806.87109375" xlink:href="#BitstreamVeraSans-Roman-6f"/>
      <use x="868.052734375" xlink:href="#BitstreamVeraSans-Roman-65"/>
      <use x="929.576171875" xlink:href="#BitstreamVeraSans-Roman-64"/>
     </g>
    </g>
    <g id="line2d_42">
     <path d="M 411.75625 88.90625 
L 422.95625 88.90625 
" style="fill:none;stroke:#ff00ff;stroke-linecap:square;"/>
    </g>
    <g id="line2d_43">
     <g>
      <use style="fill:#ff00ff;stroke:#ff00ff;stroke-width:0.5;" x="411.75625" xlink:href="#m223c1b2c64" y="88.90625"/>
      <use style="fill:#ff00ff;stroke:#ff00ff;stroke-width:0.5;" x="422.95625" xlink:href="#m223c1b2c64" y="88.90625"/>
     </g>
    </g>
    <g id="text_22">
     <!-- QM-MM target -->
     <g transform="translate(431.75625 91.70625)scale(0.08 -0.08)">
      <use xlink:href="#BitstreamVeraSans-Roman-51"/>
      <use x="78.7109375" xlink:href="#BitstreamVeraSans-Roman-4d"/>
      <use x="164.990234375" xlink:href="#BitstreamVeraSans-Roman-2d"/>
      <use x="201.07421875" xlink:href="#BitstreamVeraSans-Roman-4d"/>
      <use x="287.353515625" xlink:href="#BitstreamVeraSans-Roman-4d"/>
      <use x="373.6328125" xlink:href="#BitstreamVeraSans-Roman-20"/>
      <use x="405.419921875" xlink:href="#BitstreamVeraSans-Roman-74"/>
      <use x="444.62890625" xlink:href="#BitstreamVeraSans-Roman-61"/>
      <use x="505.908203125" xlink:href="#BitstreamVeraSans-Roman-72"/>
      <use x="547.005859375" xlink:href="#BitstreamVeraSans-Roman-67"/>
      <use x="610.482421875" xlink:href="#BitstreamVeraSans-Roman-65"/>
      <use x="672.005859375" xlink:href="#BitstreamVeraSans-Roman-74"/>
     </g>
    </g>
    <g id="line2d_44">
     <path d="M 411.75625 100.64875 
L 422.95625 100.64875 
" style="fill:none;stroke:#008000;stroke-linecap:square;"/>
    </g>
    <g id="line2d_45">
     <g>
      <use style="fill:#008000;stroke:#000000;stroke-width:0.5;" x="411.75625" xlink:href="#m0b4ead7336" y="100.64875"/>
      <use style="fill:#008000;stroke:#000000;stroke-width:0.5;" x="422.95625" xlink:href="#m0b4ead7336" y="100.64875"/>
     </g>
    </g>
    <g id="text_23">
     <!-- MM Fitted -->
     <defs>
      <path d="M 9.8125 72.90625 
L 51.703125 72.90625 
L 51.703125 64.59375 
L 19.671875 64.59375 
L 19.671875 43.109375 
L 48.578125 43.109375 
L 48.578125 34.8125 
L 19.671875 34.8125 
L 19.671875 0 
L 9.8125 0 
z
" id="BitstreamVeraSans-Roman-46"/>
     </defs>
     <g transform="translate(431.75625 103.44875)scale(0.08 -0.08)">
      <use xlink:href="#BitstreamVeraSans-Roman-4d"/>
      <use x="86.279296875" xlink:href="#BitstreamVeraSans-Roman-4d"/>
      <use x="172.55859375" xlink:href="#BitstreamVeraSans-Roman-20"/>
      <use x="204.345703125" xlink:href="#BitstreamVeraSans-Roman-46"/>
      <use x="261.755859375" xlink:href="#BitstreamVeraSans-Roman-69"/>
      <use x="289.5390625" xlink:href="#BitstreamVeraSans-Roman-74"/>
      <use x="328.748046875" xlink:href="#BitstreamVeraSans-Roman-74"/>
      <use x="367.95703125" xlink:href="#BitstreamVeraSans-Roman-65"/>
      <use x="429.48046875" xlink:href="#BitstreamVeraSans-Roman-64"/>
     </g>
    </g>
   </g>
  </g>
 </g>
 <defs>
  <clipPath id="p05def7f2c3">
   <rect height="345.6" width="446.4" x="72.0" y="43.2"/>
  </clipPath>
 </defs>
</svg>
