<?xml version="1.0" encoding="utf-8" standalone="no"?>
<!DOCTYPE svg PUBLIC "-//W3C//DTD SVG 1.1//EN"
  "http://www.w3.org/Graphics/SVG/1.1/DTD/svg11.dtd">
<!-- Created with matplotlib (http://matplotlib.org/) -->
<svg height="432pt" version="1.1" viewBox="0 0 576 432" width="576pt" xmlns="http://www.w3.org/2000/svg" xmlns:xlink="http://www.w3.org/1999/xlink">
 <defs>
  <style type="text/css">
*{stroke-linecap:butt;stroke-linejoin:round;stroke-miterlimit:100000;}
  </style>
 </defs>
 <g id="figure_1">
  <g id="patch_1">
   <path d="M 0 432 
L 576 432 
L 576 0 
L 0 0 
z
" style="fill:#ffffff;"/>
  </g>
  <g id="axes_1">
   <g id="patch_2">
    <path d="M 72 388.8 
L 518.4 388.8 
L 518.4 43.2 
L 72 43.2 
z
" style="fill:#ffffff;"/>
   </g>
   <g id="line2d_1">
    <path clip-path="url(#p68cb9ef497)" d="M 72.000566 340.903742 
L 84.399987 330.965956 
L 96.799972 300.152694 
L 109.199982 249.973912 
L 121.599991 187.767596 
L 133.999956 126.418743 
L 146.400006 84.428183 
L 158.799976 82.423661 
L 171.199972 122.958103 
L 183.599969 185.626695 
L 195.999964 250.036785 
L 208.399958 301.476314 
L 220.799979 332.205109 
L 233.199985 340.839132 
L 245.599978 330.800006 
L 257.999981 306.757076 
L 270.399991 273.802752 
L 282.800052 241.264581 
L 295.200805 222.103193 
L 307.600036 226.197147 
L 320.000035 253.580866 
L 332.400051 295.102846 
L 344.800064 338.142239 
L 357.200009 371.752036 
L 369.60008 388.8 
L 381.999977 386.352611 
L 394.400038 364.944401 
L 406.800028 328.506001 
L 419.200013 284.873412 
L 431.599997 245.554958 
L 444.000006 222.977201 
L 456.400005 224.759312 
L 468.79998 248.146162 
L 481.199986 281.296344 
L 493.599968 311.928748 
L 506.000017 333.000938 
" style="fill:none;stroke:#ff0000;stroke-linecap:square;"/>
    <defs>
     <path d="M 0 3 
C 0.795609 3 1.55874 2.683901 2.12132 2.12132 
C 2.683901 1.55874 3 0.795609 3 0 
C 3 -0.795609 2.683901 -1.55874 2.12132 -2.12132 
C 1.55874 -2.683901 0.795609 -3 0 -3 
C -0.795609 -3 -1.55874 -2.683901 -2.12132 -2.12132 
C -2.683901 -1.55874 -3 -0.795609 -3 0 
C -3 0.795609 -2.683901 1.55874 -2.12132 2.12132 
C -1.55874 2.683901 -0.795609 3 0 3 
z
" id="m8df570abdf" style="stroke:#000000;stroke-width:0.5;"/>
    </defs>
    <g clip-path="url(#p68cb9ef497)">
     <use style="fill:#ff0000;stroke:#000000;stroke-width:0.5;" x="72.0005661144" xlink:href="#m8df570abdf" y="340.903741652"/>
     <use style="fill:#ff0000;stroke:#000000;stroke-width:0.5;" x="84.3999870694" xlink:href="#m8df570abdf" y="330.965955578"/>
     <use style="fill:#ff0000;stroke:#000000;stroke-width:0.5;" x="96.7999716008" xlink:href="#m8df570abdf" y="300.152693533"/>
     <use style="fill:#ff0000;stroke:#000000;stroke-width:0.5;" x="109.199981881" xlink:href="#m8df570abdf" y="249.973911879"/>
     <use style="fill:#ff0000;stroke:#000000;stroke-width:0.5;" x="121.599991055" xlink:href="#m8df570abdf" y="187.76759554"/>
     <use style="fill:#ff0000;stroke:#000000;stroke-width:0.5;" x="133.999955987" xlink:href="#m8df570abdf" y="126.418742513"/>
     <use style="fill:#ff0000;stroke:#000000;stroke-width:0.5;" x="146.400005997" xlink:href="#m8df570abdf" y="84.4281833078"/>
     <use style="fill:#ff0000;stroke:#000000;stroke-width:0.5;" x="158.799975758" xlink:href="#m8df570abdf" y="82.4236612408"/>
     <use style="fill:#ff0000;stroke:#000000;stroke-width:0.5;" x="171.199972094" xlink:href="#m8df570abdf" y="122.958103348"/>
     <use style="fill:#ff0000;stroke:#000000;stroke-width:0.5;" x="183.59996919" xlink:href="#m8df570abdf" y="185.626695008"/>
     <use style="fill:#ff0000;stroke:#000000;stroke-width:0.5;" x="195.999963528" xlink:href="#m8df570abdf" y="250.036784667"/>
     <use style="fill:#ff0000;stroke:#000000;stroke-width:0.5;" x="208.399957809" xlink:href="#m8df570abdf" y="301.476313686"/>
     <use style="fill:#ff0000;stroke:#000000;stroke-width:0.5;" x="220.799978582" xlink:href="#m8df570abdf" y="332.205108712"/>
     <use style="fill:#ff0000;stroke:#000000;stroke-width:0.5;" x="233.19998502" xlink:href="#m8df570abdf" y="340.839132203"/>
     <use style="fill:#ff0000;stroke:#000000;stroke-width:0.5;" x="245.599977514" xlink:href="#m8df570abdf" y="330.800005522"/>
     <use style="fill:#ff0000;stroke:#000000;stroke-width:0.5;" x="257.999980668" xlink:href="#m8df570abdf" y="306.75707641"/>
     <use style="fill:#ff0000;stroke:#000000;stroke-width:0.5;" x="270.399990897" xlink:href="#m8df570abdf" y="273.802751845"/>
     <use style="fill:#ff0000;stroke:#000000;stroke-width:0.5;" x="282.800051654" xlink:href="#m8df570abdf" y="241.264580724"/>
     <use style="fill:#ff0000;stroke:#000000;stroke-width:0.5;" x="295.200804778" xlink:href="#m8df570abdf" y="222.103192545"/>
     <use style="fill:#ff0000;stroke:#000000;stroke-width:0.5;" x="307.600036484" xlink:href="#m8df570abdf" y="226.197146527"/>
     <use style="fill:#ff0000;stroke:#000000;stroke-width:0.5;" x="320.000034899" xlink:href="#m8df570abdf" y="253.580866278"/>
     <use style="fill:#ff0000;stroke:#000000;stroke-width:0.5;" x="332.40005108" xlink:href="#m8df570abdf" y="295.102845727"/>
     <use style="fill:#ff0000;stroke:#000000;stroke-width:0.5;" x="344.800064049" xlink:href="#m8df570abdf" y="338.142239348"/>
     <use style="fill:#ff0000;stroke:#000000;stroke-width:0.5;" x="357.200009022" xlink:href="#m8df570abdf" y="371.752036171"/>
     <use style="fill:#ff0000;stroke:#000000;stroke-width:0.5;" x="369.600079882" xlink:href="#m8df570abdf" y="388.8"/>
     <use style="fill:#ff0000;stroke:#000000;stroke-width:0.5;" x="381.999976513" xlink:href="#m8df570abdf" y="386.352611332"/>
     <use style="fill:#ff0000;stroke:#000000;stroke-width:0.5;" x="394.400037963" xlink:href="#m8df570abdf" y="364.944400573"/>
     <use style="fill:#ff0000;stroke:#000000;stroke-width:0.5;" x="406.800027968" xlink:href="#m8df570abdf" y="328.506001176"/>
     <use style="fill:#ff0000;stroke:#000000;stroke-width:0.5;" x="419.200013429" xlink:href="#m8df570abdf" y="284.873412429"/>
     <use style="fill:#ff0000;stroke:#000000;stroke-width:0.5;" x="431.599997317" xlink:href="#m8df570abdf" y="245.554957912"/>
     <use style="fill:#ff0000;stroke:#000000;stroke-width:0.5;" x="444.000006493" xlink:href="#m8df570abdf" y="222.977201239"/>
     <use style="fill:#ff0000;stroke:#000000;stroke-width:0.5;" x="456.400005274" xlink:href="#m8df570abdf" y="224.759312284"/>
     <use style="fill:#ff0000;stroke:#000000;stroke-width:0.5;" x="468.799980076" xlink:href="#m8df570abdf" y="248.146162448"/>
     <use style="fill:#ff0000;stroke:#000000;stroke-width:0.5;" x="481.199986468" xlink:href="#m8df570abdf" y="281.296343602"/>
     <use style="fill:#ff0000;stroke:#000000;stroke-width:0.5;" x="493.599967801" xlink:href="#m8df570abdf" y="311.928748247"/>
     <use style="fill:#ff0000;stroke:#000000;stroke-width:0.5;" x="506.000016588" xlink:href="#m8df570abdf" y="333.000938393"/>
    </g>
   </g>
   <g id="line2d_2">
    <path clip-path="url(#p68cb9ef497)" d="M 72.000566 374.517479 
L 84.399987 366.667602 
L 96.799972 339.389287 
L 109.199982 293.60743 
L 121.599991 233.728306 
L 133.999956 169.253881 
L 146.400006 122.244987 
L 158.799976 118.218428 
L 171.199972 162.238927 
L 183.599969 228.014276 
L 195.999964 290.700509 
L 208.399958 339.431442 
L 220.799979 368.167303 
L 233.199985 373.897345 
L 245.599978 356.632089 
L 257.999981 319.184578 
L 270.399991 272.918721 
L 282.800052 231.723009 
L 295.200805 206.868125 
L 307.600036 207.095178 
L 320.000035 233.568069 
L 332.400051 279.03269 
L 344.800064 328.905327 
L 357.200009 368.639393 
L 369.60008 388.8 
L 381.999977 384.98565 
L 394.400038 357.987829 
L 406.800028 314.731336 
L 419.200013 265.961747 
L 431.599997 225.326315 
L 444.000006 204.851264 
L 456.400005 209.901071 
L 468.79998 237.398973 
L 481.199986 280.148012 
L 493.599968 326.025636 
L 506.000017 360.323746 
" style="fill:none;stroke:#0000ff;stroke-linecap:square;"/>
    <defs>
     <path d="M 0 3 
C 0.795609 3 1.55874 2.683901 2.12132 2.12132 
C 2.683901 1.55874 3 0.795609 3 0 
C 3 -0.795609 2.683901 -1.55874 2.12132 -2.12132 
C 1.55874 -2.683901 0.795609 -3 0 -3 
C -0.795609 -3 -1.55874 -2.683901 -2.12132 -2.12132 
C -2.683901 -1.55874 -3 -0.795609 -3 0 
C -3 0.795609 -2.683901 1.55874 -2.12132 2.12132 
C -1.55874 2.683901 -0.795609 3 0 3 
z
" id="m01ef3acf6f" style="stroke:#000000;stroke-width:0.5;"/>
    </defs>
    <g clip-path="url(#p68cb9ef497)">
     <use style="fill:#0000ff;stroke:#000000;stroke-width:0.5;" x="72.0005661144" xlink:href="#m01ef3acf6f" y="374.517478815"/>
     <use style="fill:#0000ff;stroke:#000000;stroke-width:0.5;" x="84.3999870694" xlink:href="#m01ef3acf6f" y="366.667601607"/>
     <use style="fill:#0000ff;stroke:#000000;stroke-width:0.5;" x="96.7999716008" xlink:href="#m01ef3acf6f" y="339.389287065"/>
     <use style="fill:#0000ff;stroke:#000000;stroke-width:0.5;" x="109.199981881" xlink:href="#m01ef3acf6f" y="293.607430356"/>
     <use style="fill:#0000ff;stroke:#000000;stroke-width:0.5;" x="121.599991055" xlink:href="#m01ef3acf6f" y="233.728306065"/>
     <use style="fill:#0000ff;stroke:#000000;stroke-width:0.5;" x="133.999955987" xlink:href="#m01ef3acf6f" y="169.253881463"/>
     <use style="fill:#0000ff;stroke:#000000;stroke-width:0.5;" x="146.400005997" xlink:href="#m01ef3acf6f" y="122.24498658"/>
     <use style="fill:#0000ff;stroke:#000000;stroke-width:0.5;" x="158.799975758" xlink:href="#m01ef3acf6f" y="118.218428122"/>
     <use style="fill:#0000ff;stroke:#000000;stroke-width:0.5;" x="171.199972094" xlink:href="#m01ef3acf6f" y="162.238927002"/>
     <use style="fill:#0000ff;stroke:#000000;stroke-width:0.5;" x="183.59996919" xlink:href="#m01ef3acf6f" y="228.014276148"/>
     <use style="fill:#0000ff;stroke:#000000;stroke-width:0.5;" x="195.999963528" xlink:href="#m01ef3acf6f" y="290.700509066"/>
     <use style="fill:#0000ff;stroke:#000000;stroke-width:0.5;" x="208.399957809" xlink:href="#m01ef3acf6f" y="339.431442083"/>
     <use style="fill:#0000ff;stroke:#000000;stroke-width:0.5;" x="220.799978582" xlink:href="#m01ef3acf6f" y="368.167302681"/>
     <use style="fill:#0000ff;stroke:#000000;stroke-width:0.5;" x="233.19998502" xlink:href="#m01ef3acf6f" y="373.897344698"/>
     <use style="fill:#0000ff;stroke:#000000;stroke-width:0.5;" x="245.599977514" xlink:href="#m01ef3acf6f" y="356.632088828"/>
     <use style="fill:#0000ff;stroke:#000000;stroke-width:0.5;" x="257.999980668" xlink:href="#m01ef3acf6f" y="319.184577568"/>
     <use style="fill:#0000ff;stroke:#000000;stroke-width:0.5;" x="270.399990897" xlink:href="#m01ef3acf6f" y="272.918720791"/>
     <use style="fill:#0000ff;stroke:#000000;stroke-width:0.5;" x="282.800051654" xlink:href="#m01ef3acf6f" y="231.723008653"/>
     <use style="fill:#0000ff;stroke:#000000;stroke-width:0.5;" x="295.200804778" xlink:href="#m01ef3acf6f" y="206.868124619"/>
     <use style="fill:#0000ff;stroke:#000000;stroke-width:0.5;" x="307.600036484" xlink:href="#m01ef3acf6f" y="207.095177528"/>
     <use style="fill:#0000ff;stroke:#000000;stroke-width:0.5;" x="320.000034899" xlink:href="#m01ef3acf6f" y="233.568068934"/>
     <use style="fill:#0000ff;stroke:#000000;stroke-width:0.5;" x="332.40005108" xlink:href="#m01ef3acf6f" y="279.032690431"/>
     <use style="fill:#0000ff;stroke:#000000;stroke-width:0.5;" x="344.800064049" xlink:href="#m01ef3acf6f" y="328.905326863"/>
     <use style="fill:#0000ff;stroke:#000000;stroke-width:0.5;" x="357.200009022" xlink:href="#m01ef3acf6f" y="368.639392901"/>
     <use style="fill:#0000ff;stroke:#000000;stroke-width:0.5;" x="369.600079882" xlink:href="#m01ef3acf6f" y="388.8"/>
     <use style="fill:#0000ff;stroke:#000000;stroke-width:0.5;" x="381.999976513" xlink:href="#m01ef3acf6f" y="384.985649649"/>
     <use style="fill:#0000ff;stroke:#000000;stroke-width:0.5;" x="394.400037963" xlink:href="#m01ef3acf6f" y="357.987828623"/>
     <use style="fill:#0000ff;stroke:#000000;stroke-width:0.5;" x="406.800027968" xlink:href="#m01ef3acf6f" y="314.731335677"/>
     <use style="fill:#0000ff;stroke:#000000;stroke-width:0.5;" x="419.200013429" xlink:href="#m01ef3acf6f" y="265.961746738"/>
     <use style="fill:#0000ff;stroke:#000000;stroke-width:0.5;" x="431.599997317" xlink:href="#m01ef3acf6f" y="225.326314622"/>
     <use style="fill:#0000ff;stroke:#000000;stroke-width:0.5;" x="444.000006493" xlink:href="#m01ef3acf6f" y="204.851264316"/>
     <use style="fill:#0000ff;stroke:#000000;stroke-width:0.5;" x="456.400005274" xlink:href="#m01ef3acf6f" y="209.901071393"/>
     <use style="fill:#0000ff;stroke:#000000;stroke-width:0.5;" x="468.799980076" xlink:href="#m01ef3acf6f" y="237.398973451"/>
     <use style="fill:#0000ff;stroke:#000000;stroke-width:0.5;" x="481.199986468" xlink:href="#m01ef3acf6f" y="280.148011937"/>
     <use style="fill:#0000ff;stroke:#000000;stroke-width:0.5;" x="493.599967801" xlink:href="#m01ef3acf6f" y="326.025636387"/>
     <use style="fill:#0000ff;stroke:#000000;stroke-width:0.5;" x="506.000016588" xlink:href="#m01ef3acf6f" y="360.323745528"/>
    </g>
   </g>
   <g id="line2d_3">
    <path clip-path="url(#p68cb9ef497)" d="M 72.000566 375.260953 
L 84.399987 367.665066 
L 96.799972 349.878286 
L 109.199982 320.821658 
L 121.599991 281.755265 
L 133.999956 237.672006 
L 146.400006 204.611025 
L 158.799976 201.726308 
L 171.199972 232.397127 
L 183.599969 276.74521 
L 195.999964 317.254948 
L 208.399958 348.739161 
L 220.799979 368.492984 
L 233.199985 375.135299 
L 245.599978 368.821217 
L 257.999981 350.146329 
L 270.399991 325.890307 
L 282.800052 304.471217 
L 295.200805 291.134284 
L 307.600036 289.889048 
L 320.000035 302.186488 
L 332.400051 326.248798 
L 344.800064 354.244668 
L 357.200009 377.121312 
L 369.60008 388.8 
L 381.999977 386.368471 
L 394.400038 370.283642 
L 406.800028 345.274067 
L 419.200013 318.301137 
L 431.599997 297.741429 
L 444.000006 289.045396 
L 456.400005 292.746597 
L 468.79998 306.356991 
L 481.199986 328.483649 
L 493.599968 353.120994 
L 506.000017 370.384805 
" style="fill:none;stroke:#000000;stroke-linecap:square;"/>
    <defs>
     <path d="M -3 3 
L 3 -3 
M -3 -3 
L 3 3 
" id="m7f7bcf5863" style="stroke:#000000;stroke-width:0.5;"/>
    </defs>
    <g clip-path="url(#p68cb9ef497)">
     <use style="stroke:#000000;stroke-width:0.5;" x="72.0005661144" xlink:href="#m7f7bcf5863" y="375.260952532"/>
     <use style="stroke:#000000;stroke-width:0.5;" x="84.3999870694" xlink:href="#m7f7bcf5863" y="367.665065764"/>
     <use style="stroke:#000000;stroke-width:0.5;" x="96.7999716008" xlink:href="#m7f7bcf5863" y="349.878286247"/>
     <use style="stroke:#000000;stroke-width:0.5;" x="109.199981881" xlink:href="#m7f7bcf5863" y="320.821657715"/>
     <use style="stroke:#000000;stroke-width:0.5;" x="121.599991055" xlink:href="#m7f7bcf5863" y="281.755264502"/>
     <use style="stroke:#000000;stroke-width:0.5;" x="133.999955987" xlink:href="#m7f7bcf5863" y="237.67200629"/>
     <use style="stroke:#000000;stroke-width:0.5;" x="146.400005997" xlink:href="#m7f7bcf5863" y="204.611025165"/>
     <use style="stroke:#000000;stroke-width:0.5;" x="158.799975758" xlink:href="#m7f7bcf5863" y="201.726308468"/>
     <use style="stroke:#000000;stroke-width:0.5;" x="171.199972094" xlink:href="#m7f7bcf5863" y="232.39712685"/>
     <use style="stroke:#000000;stroke-width:0.5;" x="183.59996919" xlink:href="#m7f7bcf5863" y="276.74521002"/>
     <use style="stroke:#000000;stroke-width:0.5;" x="195.999963528" xlink:href="#m7f7bcf5863" y="317.25494821"/>
     <use style="stroke:#000000;stroke-width:0.5;" x="208.399957809" xlink:href="#m7f7bcf5863" y="348.739160956"/>
     <use style="stroke:#000000;stroke-width:0.5;" x="220.799978582" xlink:href="#m7f7bcf5863" y="368.492983766"/>
     <use style="stroke:#000000;stroke-width:0.5;" x="233.19998502" xlink:href="#m7f7bcf5863" y="375.135299289"/>
     <use style="stroke:#000000;stroke-width:0.5;" x="245.599977514" xlink:href="#m7f7bcf5863" y="368.821217402"/>
     <use style="stroke:#000000;stroke-width:0.5;" x="257.999980668" xlink:href="#m7f7bcf5863" y="350.146329326"/>
     <use style="stroke:#000000;stroke-width:0.5;" x="270.399990897" xlink:href="#m7f7bcf5863" y="325.890306563"/>
     <use style="stroke:#000000;stroke-width:0.5;" x="282.800051654" xlink:href="#m7f7bcf5863" y="304.471216835"/>
     <use style="stroke:#000000;stroke-width:0.5;" x="295.200804778" xlink:href="#m7f7bcf5863" y="291.134283649"/>
     <use style="stroke:#000000;stroke-width:0.5;" x="307.600036484" xlink:href="#m7f7bcf5863" y="289.889048188"/>
     <use style="stroke:#000000;stroke-width:0.5;" x="320.000034899" xlink:href="#m7f7bcf5863" y="302.186487862"/>
     <use style="stroke:#000000;stroke-width:0.5;" x="332.40005108" xlink:href="#m7f7bcf5863" y="326.24879847"/>
     <use style="stroke:#000000;stroke-width:0.5;" x="344.800064049" xlink:href="#m7f7bcf5863" y="354.244667637"/>
     <use style="stroke:#000000;stroke-width:0.5;" x="357.200009022" xlink:href="#m7f7bcf5863" y="377.121311702"/>
     <use style="stroke:#000000;stroke-width:0.5;" x="369.600079882" xlink:href="#m7f7bcf5863" y="388.8"/>
     <use style="stroke:#000000;stroke-width:0.5;" x="381.999976513" xlink:href="#m7f7bcf5863" y="386.368471462"/>
     <use style="stroke:#000000;stroke-width:0.5;" x="394.400037963" xlink:href="#m7f7bcf5863" y="370.283642078"/>
     <use style="stroke:#000000;stroke-width:0.5;" x="406.800027968" xlink:href="#m7f7bcf5863" y="345.274066965"/>
     <use style="stroke:#000000;stroke-width:0.5;" x="419.200013429" xlink:href="#m7f7bcf5863" y="318.301136517"/>
     <use style="stroke:#000000;stroke-width:0.5;" x="431.599997317" xlink:href="#m7f7bcf5863" y="297.741429153"/>
     <use style="stroke:#000000;stroke-width:0.5;" x="444.000006493" xlink:href="#m7f7bcf5863" y="289.045396432"/>
     <use style="stroke:#000000;stroke-width:0.5;" x="456.400005274" xlink:href="#m7f7bcf5863" y="292.746597281"/>
     <use style="stroke:#000000;stroke-width:0.5;" x="468.799980076" xlink:href="#m7f7bcf5863" y="306.356991207"/>
     <use style="stroke:#000000;stroke-width:0.5;" x="481.199986468" xlink:href="#m7f7bcf5863" y="328.483648759"/>
     <use style="stroke:#000000;stroke-width:0.5;" x="493.599967801" xlink:href="#m7f7bcf5863" y="353.120993723"/>
     <use style="stroke:#000000;stroke-width:0.5;" x="506.000016588" xlink:href="#m7f7bcf5863" y="370.384805061"/>
    </g>
   </g>
   <g id="line2d_4">
    <path clip-path="url(#p68cb9ef497)" d="M 72.000566 354.442789 
L 84.399987 352.10089 
L 96.799972 339.074407 
L 109.199982 317.952254 
L 121.599991 294.812331 
L 133.999956 277.546736 
L 146.400006 268.617158 
L 158.799976 269.497353 
L 171.199972 279.360976 
L 183.599969 297.681485 
L 195.999964 321.581836 
L 208.399958 341.537153 
L 220.799979 352.512125 
L 233.199985 354.503833 
L 245.599978 350.778788 
L 257.999981 345.410747 
L 270.399991 336.712445 
L 282.800052 325.593364 
L 295.200805 319.768909 
L 307.600036 325.108098 
L 320.000035 340.194378 
L 332.400051 357.654047 
L 344.800064 372.697572 
L 357.200009 383.430724 
L 369.60008 388.8 
L 381.999977 388.78414 
L 394.400038 383.460758 
L 406.800028 372.031934 
L 419.200013 355.372276 
L 431.599997 336.613529 
L 444.000006 322.731805 
L 456.400005 320.812715 
L 468.79998 330.589171 
L 481.199986 341.612695 
L 493.599968 347.607755 
L 506.000017 351.416133 
" style="fill:none;stroke:#ff00ff;stroke-linecap:square;"/>
    <defs>
     <path d="M -3 3 
L 3 -3 
M -3 -3 
L 3 3 
" id="maed237cfa2" style="stroke:#ff00ff;stroke-width:0.5;"/>
    </defs>
    <g clip-path="url(#p68cb9ef497)">
     <use style="fill:#ff00ff;stroke:#ff00ff;stroke-width:0.5;" x="72.0005661144" xlink:href="#maed237cfa2" y="354.44278912"/>
     <use style="fill:#ff00ff;stroke:#ff00ff;stroke-width:0.5;" x="84.3999870694" xlink:href="#maed237cfa2" y="352.100889814"/>
     <use style="fill:#ff00ff;stroke:#ff00ff;stroke-width:0.5;" x="96.7999716008" xlink:href="#maed237cfa2" y="339.074407286"/>
     <use style="fill:#ff00ff;stroke:#ff00ff;stroke-width:0.5;" x="109.199981881" xlink:href="#maed237cfa2" y="317.952254163"/>
     <use style="fill:#ff00ff;stroke:#ff00ff;stroke-width:0.5;" x="121.599991055" xlink:href="#maed237cfa2" y="294.812331038"/>
     <use style="fill:#ff00ff;stroke:#ff00ff;stroke-width:0.5;" x="133.999955987" xlink:href="#maed237cfa2" y="277.546736224"/>
     <use style="fill:#ff00ff;stroke:#ff00ff;stroke-width:0.5;" x="146.400005997" xlink:href="#maed237cfa2" y="268.617158142"/>
     <use style="fill:#ff00ff;stroke:#ff00ff;stroke-width:0.5;" x="158.799975758" xlink:href="#maed237cfa2" y="269.497352773"/>
     <use style="fill:#ff00ff;stroke:#ff00ff;stroke-width:0.5;" x="171.199972094" xlink:href="#maed237cfa2" y="279.360976498"/>
     <use style="fill:#ff00ff;stroke:#ff00ff;stroke-width:0.5;" x="183.59996919" xlink:href="#maed237cfa2" y="297.681484988"/>
     <use style="fill:#ff00ff;stroke:#ff00ff;stroke-width:0.5;" x="195.999963528" xlink:href="#maed237cfa2" y="321.581836457"/>
     <use style="fill:#ff00ff;stroke:#ff00ff;stroke-width:0.5;" x="208.399957809" xlink:href="#maed237cfa2" y="341.537152731"/>
     <use style="fill:#ff00ff;stroke:#ff00ff;stroke-width:0.5;" x="220.799978582" xlink:href="#maed237cfa2" y="352.512124946"/>
     <use style="fill:#ff00ff;stroke:#ff00ff;stroke-width:0.5;" x="233.19998502" xlink:href="#maed237cfa2" y="354.503832914"/>
     <use style="fill:#ff00ff;stroke:#ff00ff;stroke-width:0.5;" x="245.599977514" xlink:href="#maed237cfa2" y="350.778788121"/>
     <use style="fill:#ff00ff;stroke:#ff00ff;stroke-width:0.5;" x="257.999980668" xlink:href="#maed237cfa2" y="345.410747084"/>
     <use style="fill:#ff00ff;stroke:#ff00ff;stroke-width:0.5;" x="270.399990897" xlink:href="#maed237cfa2" y="336.712445282"/>
     <use style="fill:#ff00ff;stroke:#ff00ff;stroke-width:0.5;" x="282.800051654" xlink:href="#maed237cfa2" y="325.593363888"/>
     <use style="fill:#ff00ff;stroke:#ff00ff;stroke-width:0.5;" x="295.200804778" xlink:href="#maed237cfa2" y="319.768908895"/>
     <use style="fill:#ff00ff;stroke:#ff00ff;stroke-width:0.5;" x="307.600036484" xlink:href="#maed237cfa2" y="325.108098339"/>
     <use style="fill:#ff00ff;stroke:#ff00ff;stroke-width:0.5;" x="320.000034899" xlink:href="#maed237cfa2" y="340.194378416"/>
     <use style="fill:#ff00ff;stroke:#ff00ff;stroke-width:0.5;" x="332.40005108" xlink:href="#maed237cfa2" y="357.654047258"/>
     <use style="fill:#ff00ff;stroke:#ff00ff;stroke-width:0.5;" x="344.800064049" xlink:href="#maed237cfa2" y="372.697571711"/>
     <use style="fill:#ff00ff;stroke:#ff00ff;stroke-width:0.5;" x="357.200009022" xlink:href="#maed237cfa2" y="383.430724469"/>
     <use style="fill:#ff00ff;stroke:#ff00ff;stroke-width:0.5;" x="369.600079882" xlink:href="#maed237cfa2" y="388.8"/>
     <use style="fill:#ff00ff;stroke:#ff00ff;stroke-width:0.5;" x="381.999976513" xlink:href="#maed237cfa2" y="388.78413987"/>
     <use style="fill:#ff00ff;stroke:#ff00ff;stroke-width:0.5;" x="394.400037963" xlink:href="#maed237cfa2" y="383.460758494"/>
     <use style="fill:#ff00ff;stroke:#ff00ff;stroke-width:0.5;" x="406.800027968" xlink:href="#maed237cfa2" y="372.031934211"/>
     <use style="fill:#ff00ff;stroke:#ff00ff;stroke-width:0.5;" x="419.200013429" xlink:href="#maed237cfa2" y="355.372275912"/>
     <use style="fill:#ff00ff;stroke:#ff00ff;stroke-width:0.5;" x="431.599997317" xlink:href="#maed237cfa2" y="336.613528759"/>
     <use style="fill:#ff00ff;stroke:#ff00ff;stroke-width:0.5;" x="444.000006493" xlink:href="#maed237cfa2" y="322.731804807"/>
     <use style="fill:#ff00ff;stroke:#ff00ff;stroke-width:0.5;" x="456.400005274" xlink:href="#maed237cfa2" y="320.812715003"/>
     <use style="fill:#ff00ff;stroke:#ff00ff;stroke-width:0.5;" x="468.799980076" xlink:href="#maed237cfa2" y="330.589171241"/>
     <use style="fill:#ff00ff;stroke:#ff00ff;stroke-width:0.5;" x="481.199986468" xlink:href="#maed237cfa2" y="341.612694843"/>
     <use style="fill:#ff00ff;stroke:#ff00ff;stroke-width:0.5;" x="493.599967801" xlink:href="#maed237cfa2" y="347.607754524"/>
     <use style="fill:#ff00ff;stroke:#ff00ff;stroke-width:0.5;" x="506.000016588" xlink:href="#maed237cfa2" y="351.416133332"/>
    </g>
   </g>
   <g id="line2d_5">
    <path clip-path="url(#p68cb9ef497)" d="M 72.000566 340.790929 
L 84.399987 326.84983 
L 96.799972 296.542518 
L 109.199982 250.024066 
L 121.599991 190.672032 
L 133.999956 127.216404 
L 146.400006 81.386875 
L 158.799976 78.494301 
L 171.199972 122.592652 
L 183.599969 187.33999 
L 195.999964 249.004655 
L 208.399958 297.996917 
L 220.799979 329.348504 
L 233.199985 340.81211 
L 245.599978 332.482179 
L 257.999981 306.079822 
L 270.399991 271.204915 
L 282.800052 240.219668 
L 295.200805 222.802431 
L 307.600036 226.32548 
L 320.000035 251.606084 
L 332.400051 292.388828 
L 344.800064 336.137001 
L 357.200009 370.800167 
L 369.60008 388.8 
L 381.999977 386.412481 
L 394.400038 363.965654 
L 406.800028 326.741367 
L 419.200013 283.366583 
L 431.599997 245.507734 
L 444.000006 224.040498 
L 456.400005 224.327735 
L 468.79998 244.164863 
L 481.199986 277.201621 
L 493.599968 312.140127 
L 506.000017 335.633157 
" style="fill:none;stroke:#008000;stroke-linecap:square;"/>
    <defs>
     <path d="M 0 3 
C 0.795609 3 1.55874 2.683901 2.12132 2.12132 
C 2.683901 1.55874 3 0.795609 3 0 
C 3 -0.795609 2.683901 -1.55874 2.12132 -2.12132 
C 1.55874 -2.683901 0.795609 -3 0 -3 
C -0.795609 -3 -1.55874 -2.683901 -2.12132 -2.12132 
C -2.683901 -1.55874 -3 -0.795609 -3 0 
C -3 0.795609 -2.683901 1.55874 -2.12132 2.12132 
C -1.55874 2.683901 -0.795609 3 0 3 
z
" id="me816bb1572" style="stroke:#000000;stroke-width:0.5;"/>
    </defs>
    <g clip-path="url(#p68cb9ef497)">
     <use style="fill:#008000;stroke:#000000;stroke-width:0.5;" x="72.0005661144" xlink:href="#me816bb1572" y="340.790928814"/>
     <use style="fill:#008000;stroke:#000000;stroke-width:0.5;" x="84.3999870694" xlink:href="#me816bb1572" y="326.849829725"/>
     <use style="fill:#008000;stroke:#000000;stroke-width:0.5;" x="96.7999716008" xlink:href="#me816bb1572" y="296.542517653"/>
     <use style="fill:#008000;stroke:#000000;stroke-width:0.5;" x="109.199981881" xlink:href="#me816bb1572" y="250.024065896"/>
     <use style="fill:#008000;stroke:#000000;stroke-width:0.5;" x="121.599991055" xlink:href="#me816bb1572" y="190.67203168"/>
     <use style="fill:#008000;stroke:#000000;stroke-width:0.5;" x="133.999955987" xlink:href="#me816bb1572" y="127.216403839"/>
     <use style="fill:#008000;stroke:#000000;stroke-width:0.5;" x="146.400005997" xlink:href="#me816bb1572" y="81.3868746743"/>
     <use style="fill:#008000;stroke:#000000;stroke-width:0.5;" x="158.799975758" xlink:href="#me816bb1572" y="78.4943011214"/>
     <use style="fill:#008000;stroke:#000000;stroke-width:0.5;" x="171.199972094" xlink:href="#me816bb1572" y="122.592652178"/>
     <use style="fill:#008000;stroke:#000000;stroke-width:0.5;" x="183.59996919" xlink:href="#me816bb1572" y="187.339989606"/>
     <use style="fill:#008000;stroke:#000000;stroke-width:0.5;" x="195.999963528" xlink:href="#me816bb1572" y="249.004655265"/>
     <use style="fill:#008000;stroke:#000000;stroke-width:0.5;" x="208.399957809" xlink:href="#me816bb1572" y="297.996917118"/>
     <use style="fill:#008000;stroke:#000000;stroke-width:0.5;" x="220.799978582" xlink:href="#me816bb1572" y="329.348504018"/>
     <use style="fill:#008000;stroke:#000000;stroke-width:0.5;" x="233.19998502" xlink:href="#me816bb1572" y="340.812110319"/>
     <use style="fill:#008000;stroke:#000000;stroke-width:0.5;" x="245.599977514" xlink:href="#me816bb1572" y="332.482178546"/>
     <use style="fill:#008000;stroke:#000000;stroke-width:0.5;" x="257.999980668" xlink:href="#me816bb1572" y="306.079822191"/>
     <use style="fill:#008000;stroke:#000000;stroke-width:0.5;" x="270.399990897" xlink:href="#me816bb1572" y="271.2049146"/>
     <use style="fill:#008000;stroke:#000000;stroke-width:0.5;" x="282.800051654" xlink:href="#me816bb1572" y="240.219668061"/>
     <use style="fill:#008000;stroke:#000000;stroke-width:0.5;" x="295.200804778" xlink:href="#me816bb1572" y="222.802430852"/>
     <use style="fill:#008000;stroke:#000000;stroke-width:0.5;" x="307.600036484" xlink:href="#me816bb1572" y="226.325479953"/>
     <use style="fill:#008000;stroke:#000000;stroke-width:0.5;" x="320.000034899" xlink:href="#me816bb1572" y="251.606084428"/>
     <use style="fill:#008000;stroke:#000000;stroke-width:0.5;" x="332.40005108" xlink:href="#me816bb1572" y="292.388828366"/>
     <use style="fill:#008000;stroke:#000000;stroke-width:0.5;" x="344.800064049" xlink:href="#me816bb1572" y="336.137000742"/>
     <use style="fill:#008000;stroke:#000000;stroke-width:0.5;" x="357.200009022" xlink:href="#me816bb1572" y="370.800166729"/>
     <use style="fill:#008000;stroke:#000000;stroke-width:0.5;" x="369.600079882" xlink:href="#me816bb1572" y="388.8"/>
     <use style="fill:#008000;stroke:#000000;stroke-width:0.5;" x="381.999976513" xlink:href="#me816bb1572" y="386.4124807"/>
     <use style="fill:#008000;stroke:#000000;stroke-width:0.5;" x="394.400037963" xlink:href="#me816bb1572" y="363.965654122"/>
     <use style="fill:#008000;stroke:#000000;stroke-width:0.5;" x="406.800027968" xlink:href="#me816bb1572" y="326.741367334"/>
     <use style="fill:#008000;stroke:#000000;stroke-width:0.5;" x="419.200013429" xlink:href="#me816bb1572" y="283.366582585"/>
     <use style="fill:#008000;stroke:#000000;stroke-width:0.5;" x="431.599997317" xlink:href="#me816bb1572" y="245.507733855"/>
     <use style="fill:#008000;stroke:#000000;stroke-width:0.5;" x="444.000006493" xlink:href="#me816bb1572" y="224.040498324"/>
     <use style="fill:#008000;stroke:#000000;stroke-width:0.5;" x="456.400005274" xlink:href="#me816bb1572" y="224.327735386"/>
     <use style="fill:#008000;stroke:#000000;stroke-width:0.5;" x="468.799980076" xlink:href="#me816bb1572" y="244.164862547"/>
     <use style="fill:#008000;stroke:#000000;stroke-width:0.5;" x="481.199986468" xlink:href="#me816bb1572" y="277.201621143"/>
     <use style="fill:#008000;stroke:#000000;stroke-width:0.5;" x="493.599967801" xlink:href="#me816bb1572" y="312.14012748"/>
     <use style="fill:#008000;stroke:#000000;stroke-width:0.5;" x="506.000016588" xlink:href="#me816bb1572" y="335.633156717"/>
    </g>
   </g>
   <g id="patch_3">
    <path d="M 72 43.2 
L 518.4 43.2 
" style="fill:none;stroke:#000000;stroke-linecap:square;stroke-linejoin:miter;"/>
   </g>
   <g id="patch_4">
    <path d="M 72 388.8 
L 518.4 388.8 
" style="fill:none;stroke:#000000;stroke-linecap:square;stroke-linejoin:miter;"/>
   </g>
   <g id="patch_5">
    <path d="M 518.4 388.8 
L 518.4 43.2 
" style="fill:none;stroke:#000000;stroke-linecap:square;stroke-linejoin:miter;"/>
   </g>
   <g id="patch_6">
    <path d="M 72 388.8 
L 72 43.2 
" style="fill:none;stroke:#000000;stroke-linecap:square;stroke-linejoin:miter;"/>
   </g>
   <g id="matplotlib.axis_1">
    <g id="xtick_1">
     <g id="line2d_6">
      <defs>
       <path d="M 0 0 
L 0 -4 
" id="md3ae1ff8ac" style="stroke:#000000;stroke-width:0.5;"/>
      </defs>
      <g>
       <use style="stroke:#000000;stroke-width:0.5;" x="72.0" xlink:href="#md3ae1ff8ac" y="388.8"/>
      </g>
     </g>
     <g id="line2d_7">
      <defs>
       <path d="M 0 0 
L 0 4 
" id="mb9351640fb" style="stroke:#000000;stroke-width:0.5;"/>
      </defs>
      <g>
       <use style="stroke:#000000;stroke-width:0.5;" x="72.0" xlink:href="#mb9351640fb" y="43.2"/>
      </g>
     </g>
     <g id="text_1">
      <!-- −180 -->
      <defs>
       <path d="M 31.78125 34.625 
Q 24.75 34.625 20.71875 30.859375 
Q 16.703125 27.09375 16.703125 20.515625 
Q 16.703125 13.921875 20.71875 10.15625 
Q 24.75 6.390625 31.78125 6.390625 
Q 38.8125 6.390625 42.859375 10.171875 
Q 46.921875 13.96875 46.921875 20.515625 
Q 46.921875 27.09375 42.890625 30.859375 
Q 38.875 34.625 31.78125 34.625 
M 21.921875 38.8125 
Q 15.578125 40.375 12.03125 44.71875 
Q 8.5 49.078125 8.5 55.328125 
Q 8.5 64.0625 14.71875 69.140625 
Q 20.953125 74.21875 31.78125 74.21875 
Q 42.671875 74.21875 48.875 69.140625 
Q 55.078125 64.0625 55.078125 55.328125 
Q 55.078125 49.078125 51.53125 44.71875 
Q 48 40.375 41.703125 38.8125 
Q 48.828125 37.15625 52.796875 32.3125 
Q 56.78125 27.484375 56.78125 20.515625 
Q 56.78125 9.90625 50.3125 4.234375 
Q 43.84375 -1.421875 31.78125 -1.421875 
Q 19.734375 -1.421875 13.25 4.234375 
Q 6.78125 9.90625 6.78125 20.515625 
Q 6.78125 27.484375 10.78125 32.3125 
Q 14.796875 37.15625 21.921875 38.8125 
M 18.3125 54.390625 
Q 18.3125 48.734375 21.84375 45.5625 
Q 25.390625 42.390625 31.78125 42.390625 
Q 38.140625 42.390625 41.71875 45.5625 
Q 45.3125 48.734375 45.3125 54.390625 
Q 45.3125 60.0625 41.71875 63.234375 
Q 38.140625 66.40625 31.78125 66.40625 
Q 25.390625 66.40625 21.84375 63.234375 
Q 18.3125 60.0625 18.3125 54.390625 
" id="BitstreamVeraSans-Roman-38"/>
       <path d="M 31.78125 66.40625 
Q 24.171875 66.40625 20.328125 58.90625 
Q 16.5 51.421875 16.5 36.375 
Q 16.5 21.390625 20.328125 13.890625 
Q 24.171875 6.390625 31.78125 6.390625 
Q 39.453125 6.390625 43.28125 13.890625 
Q 47.125 21.390625 47.125 36.375 
Q 47.125 51.421875 43.28125 58.90625 
Q 39.453125 66.40625 31.78125 66.40625 
M 31.78125 74.21875 
Q 44.046875 74.21875 50.515625 64.515625 
Q 56.984375 54.828125 56.984375 36.375 
Q 56.984375 17.96875 50.515625 8.265625 
Q 44.046875 -1.421875 31.78125 -1.421875 
Q 19.53125 -1.421875 13.0625 8.265625 
Q 6.59375 17.96875 6.59375 36.375 
Q 6.59375 54.828125 13.0625 64.515625 
Q 19.53125 74.21875 31.78125 74.21875 
" id="BitstreamVeraSans-Roman-30"/>
       <path d="M 12.40625 8.296875 
L 28.515625 8.296875 
L 28.515625 63.921875 
L 10.984375 60.40625 
L 10.984375 69.390625 
L 28.421875 72.90625 
L 38.28125 72.90625 
L 38.28125 8.296875 
L 54.390625 8.296875 
L 54.390625 0 
L 12.40625 0 
z
" id="BitstreamVeraSans-Roman-31"/>
       <path d="M 10.59375 35.5 
L 73.1875 35.5 
L 73.1875 27.203125 
L 10.59375 27.203125 
z
" id="BitstreamVeraSans-Roman-2212"/>
      </defs>
      <g transform="translate(55.5196875 401.918125)scale(0.12 -0.12)">
       <use xlink:href="#BitstreamVeraSans-Roman-2212"/>
       <use x="83.7890625" xlink:href="#BitstreamVeraSans-Roman-31"/>
       <use x="147.412109375" xlink:href="#BitstreamVeraSans-Roman-38"/>
       <use x="211.03515625" xlink:href="#BitstreamVeraSans-Roman-30"/>
      </g>
     </g>
    </g>
    <g id="xtick_2">
     <g id="line2d_8">
      <g>
       <use style="stroke:#000000;stroke-width:0.5;" x="127.8" xlink:href="#md3ae1ff8ac" y="388.8"/>
      </g>
     </g>
     <g id="line2d_9">
      <g>
       <use style="stroke:#000000;stroke-width:0.5;" x="127.8" xlink:href="#mb9351640fb" y="43.2"/>
      </g>
     </g>
     <g id="text_2">
      <!-- −135 -->
      <defs>
       <path d="M 10.796875 72.90625 
L 49.515625 72.90625 
L 49.515625 64.59375 
L 19.828125 64.59375 
L 19.828125 46.734375 
Q 21.96875 47.46875 24.109375 47.828125 
Q 26.265625 48.1875 28.421875 48.1875 
Q 40.625 48.1875 47.75 41.5 
Q 54.890625 34.8125 54.890625 23.390625 
Q 54.890625 11.625 47.5625 5.09375 
Q 40.234375 -1.421875 26.90625 -1.421875 
Q 22.3125 -1.421875 17.546875 -0.640625 
Q 12.796875 0.140625 7.71875 1.703125 
L 7.71875 11.625 
Q 12.109375 9.234375 16.796875 8.0625 
Q 21.484375 6.890625 26.703125 6.890625 
Q 35.15625 6.890625 40.078125 11.328125 
Q 45.015625 15.765625 45.015625 23.390625 
Q 45.015625 31 40.078125 35.4375 
Q 35.15625 39.890625 26.703125 39.890625 
Q 22.75 39.890625 18.8125 39.015625 
Q 14.890625 38.140625 10.796875 36.28125 
z
" id="BitstreamVeraSans-Roman-35"/>
       <path d="M 40.578125 39.3125 
Q 47.65625 37.796875 51.625 33 
Q 55.609375 28.21875 55.609375 21.1875 
Q 55.609375 10.40625 48.1875 4.484375 
Q 40.765625 -1.421875 27.09375 -1.421875 
Q 22.515625 -1.421875 17.65625 -0.515625 
Q 12.796875 0.390625 7.625 2.203125 
L 7.625 11.71875 
Q 11.71875 9.328125 16.59375 8.109375 
Q 21.484375 6.890625 26.8125 6.890625 
Q 36.078125 6.890625 40.9375 10.546875 
Q 45.796875 14.203125 45.796875 21.1875 
Q 45.796875 27.640625 41.28125 31.265625 
Q 36.765625 34.90625 28.71875 34.90625 
L 20.21875 34.90625 
L 20.21875 43.015625 
L 29.109375 43.015625 
Q 36.375 43.015625 40.234375 45.921875 
Q 44.09375 48.828125 44.09375 54.296875 
Q 44.09375 59.90625 40.109375 62.90625 
Q 36.140625 65.921875 28.71875 65.921875 
Q 24.65625 65.921875 20.015625 65.03125 
Q 15.375 64.15625 9.8125 62.3125 
L 9.8125 71.09375 
Q 15.4375 72.65625 20.34375 73.4375 
Q 25.25 74.21875 29.59375 74.21875 
Q 40.828125 74.21875 47.359375 69.109375 
Q 53.90625 64.015625 53.90625 55.328125 
Q 53.90625 49.265625 50.4375 45.09375 
Q 46.96875 40.921875 40.578125 39.3125 
" id="BitstreamVeraSans-Roman-33"/>
      </defs>
      <g transform="translate(111.3196875 401.918125)scale(0.12 -0.12)">
       <use xlink:href="#BitstreamVeraSans-Roman-2212"/>
       <use x="83.7890625" xlink:href="#BitstreamVeraSans-Roman-31"/>
       <use x="147.412109375" xlink:href="#BitstreamVeraSans-Roman-33"/>
       <use x="211.03515625" xlink:href="#BitstreamVeraSans-Roman-35"/>
      </g>
     </g>
    </g>
    <g id="xtick_3">
     <g id="line2d_10">
      <g>
       <use style="stroke:#000000;stroke-width:0.5;" x="183.6" xlink:href="#md3ae1ff8ac" y="388.8"/>
      </g>
     </g>
     <g id="line2d_11">
      <g>
       <use style="stroke:#000000;stroke-width:0.5;" x="183.6" xlink:href="#mb9351640fb" y="43.2"/>
      </g>
     </g>
     <g id="text_3">
      <!-- −90 -->
      <defs>
       <path d="M 10.984375 1.515625 
L 10.984375 10.5 
Q 14.703125 8.734375 18.5 7.8125 
Q 22.3125 6.890625 25.984375 6.890625 
Q 35.75 6.890625 40.890625 13.453125 
Q 46.046875 20.015625 46.78125 33.40625 
Q 43.953125 29.203125 39.59375 26.953125 
Q 35.25 24.703125 29.984375 24.703125 
Q 19.046875 24.703125 12.671875 31.3125 
Q 6.296875 37.9375 6.296875 49.421875 
Q 6.296875 60.640625 12.9375 67.421875 
Q 19.578125 74.21875 30.609375 74.21875 
Q 43.265625 74.21875 49.921875 64.515625 
Q 56.59375 54.828125 56.59375 36.375 
Q 56.59375 19.140625 48.40625 8.859375 
Q 40.234375 -1.421875 26.421875 -1.421875 
Q 22.703125 -1.421875 18.890625 -0.6875 
Q 15.09375 0.046875 10.984375 1.515625 
M 30.609375 32.421875 
Q 37.25 32.421875 41.125 36.953125 
Q 45.015625 41.5 45.015625 49.421875 
Q 45.015625 57.28125 41.125 61.84375 
Q 37.25 66.40625 30.609375 66.40625 
Q 23.96875 66.40625 20.09375 61.84375 
Q 16.21875 57.28125 16.21875 49.421875 
Q 16.21875 41.5 20.09375 36.953125 
Q 23.96875 32.421875 30.609375 32.421875 
" id="BitstreamVeraSans-Roman-39"/>
      </defs>
      <g transform="translate(170.9371875 401.918125)scale(0.12 -0.12)">
       <use xlink:href="#BitstreamVeraSans-Roman-2212"/>
       <use x="83.7890625" xlink:href="#BitstreamVeraSans-Roman-39"/>
       <use x="147.412109375" xlink:href="#BitstreamVeraSans-Roman-30"/>
      </g>
     </g>
    </g>
    <g id="xtick_4">
     <g id="line2d_12">
      <g>
       <use style="stroke:#000000;stroke-width:0.5;" x="239.4" xlink:href="#md3ae1ff8ac" y="388.8"/>
      </g>
     </g>
     <g id="line2d_13">
      <g>
       <use style="stroke:#000000;stroke-width:0.5;" x="239.4" xlink:href="#mb9351640fb" y="43.2"/>
      </g>
     </g>
     <g id="text_4">
      <!-- −45 -->
      <defs>
       <path d="M 37.796875 64.3125 
L 12.890625 25.390625 
L 37.796875 25.390625 
z
M 35.203125 72.90625 
L 47.609375 72.90625 
L 47.609375 25.390625 
L 58.015625 25.390625 
L 58.015625 17.1875 
L 47.609375 17.1875 
L 47.609375 0 
L 37.796875 0 
L 37.796875 17.1875 
L 4.890625 17.1875 
L 4.890625 26.703125 
z
" id="BitstreamVeraSans-Roman-34"/>
      </defs>
      <g transform="translate(226.7371875 401.918125)scale(0.12 -0.12)">
       <use xlink:href="#BitstreamVeraSans-Roman-2212"/>
       <use x="83.7890625" xlink:href="#BitstreamVeraSans-Roman-34"/>
       <use x="147.412109375" xlink:href="#BitstreamVeraSans-Roman-35"/>
      </g>
     </g>
    </g>
    <g id="xtick_5">
     <g id="line2d_14">
      <g>
       <use style="stroke:#000000;stroke-width:0.5;" x="295.2" xlink:href="#md3ae1ff8ac" y="388.8"/>
      </g>
     </g>
     <g id="line2d_15">
      <g>
       <use style="stroke:#000000;stroke-width:0.5;" x="295.2" xlink:href="#mb9351640fb" y="43.2"/>
      </g>
     </g>
     <g id="text_5">
      <!-- 0 -->
      <g transform="translate(291.3825 401.918125)scale(0.12 -0.12)">
       <use xlink:href="#BitstreamVeraSans-Roman-30"/>
      </g>
     </g>
    </g>
    <g id="xtick_6">
     <g id="line2d_16">
      <g>
       <use style="stroke:#000000;stroke-width:0.5;" x="351.0" xlink:href="#md3ae1ff8ac" y="388.8"/>
      </g>
     </g>
     <g id="line2d_17">
      <g>
       <use style="stroke:#000000;stroke-width:0.5;" x="351.0" xlink:href="#mb9351640fb" y="43.2"/>
      </g>
     </g>
     <g id="text_6">
      <!-- 45 -->
      <g transform="translate(343.365 401.918125)scale(0.12 -0.12)">
       <use xlink:href="#BitstreamVeraSans-Roman-34"/>
       <use x="63.623046875" xlink:href="#BitstreamVeraSans-Roman-35"/>
      </g>
     </g>
    </g>
    <g id="xtick_7">
     <g id="line2d_18">
      <g>
       <use style="stroke:#000000;stroke-width:0.5;" x="406.8" xlink:href="#md3ae1ff8ac" y="388.8"/>
      </g>
     </g>
     <g id="line2d_19">
      <g>
       <use style="stroke:#000000;stroke-width:0.5;" x="406.8" xlink:href="#mb9351640fb" y="43.2"/>
      </g>
     </g>
     <g id="text_7">
      <!-- 90 -->
      <g transform="translate(399.165 401.918125)scale(0.12 -0.12)">
       <use xlink:href="#BitstreamVeraSans-Roman-39"/>
       <use x="63.623046875" xlink:href="#BitstreamVeraSans-Roman-30"/>
      </g>
     </g>
    </g>
    <g id="xtick_8">
     <g id="line2d_20">
      <g>
       <use style="stroke:#000000;stroke-width:0.5;" x="462.6" xlink:href="#md3ae1ff8ac" y="388.8"/>
      </g>
     </g>
     <g id="line2d_21">
      <g>
       <use style="stroke:#000000;stroke-width:0.5;" x="462.6" xlink:href="#mb9351640fb" y="43.2"/>
      </g>
     </g>
     <g id="text_8">
      <!-- 135 -->
      <g transform="translate(451.1475 401.918125)scale(0.12 -0.12)">
       <use xlink:href="#BitstreamVeraSans-Roman-31"/>
       <use x="63.623046875" xlink:href="#BitstreamVeraSans-Roman-33"/>
       <use x="127.24609375" xlink:href="#BitstreamVeraSans-Roman-35"/>
      </g>
     </g>
    </g>
    <g id="xtick_9">
     <g id="line2d_22">
      <g>
       <use style="stroke:#000000;stroke-width:0.5;" x="518.4" xlink:href="#md3ae1ff8ac" y="388.8"/>
      </g>
     </g>
     <g id="line2d_23">
      <g>
       <use style="stroke:#000000;stroke-width:0.5;" x="518.4" xlink:href="#mb9351640fb" y="43.2"/>
      </g>
     </g>
     <g id="text_9">
      <!-- 180 -->
      <g transform="translate(506.9475 401.918125)scale(0.12 -0.12)">
       <use xlink:href="#BitstreamVeraSans-Roman-31"/>
       <use x="63.623046875" xlink:href="#BitstreamVeraSans-Roman-38"/>
       <use x="127.24609375" xlink:href="#BitstreamVeraSans-Roman-30"/>
      </g>
     </g>
    </g>
    <g id="text_10">
     <!-- Phi -->
     <defs>
      <path d="M 54.890625 33.015625 
L 54.890625 0 
L 45.90625 0 
L 45.90625 32.71875 
Q 45.90625 40.484375 42.875 44.328125 
Q 39.84375 48.1875 33.796875 48.1875 
Q 26.515625 48.1875 22.3125 43.546875 
Q 18.109375 38.921875 18.109375 30.90625 
L 18.109375 0 
L 9.078125 0 
L 9.078125 75.984375 
L 18.109375 75.984375 
L 18.109375 46.1875 
Q 21.34375 51.125 25.703125 53.5625 
Q 30.078125 56 35.796875 56 
Q 45.21875 56 50.046875 50.171875 
Q 54.890625 44.34375 54.890625 33.015625 
" id="BitstreamVeraSans-Roman-68"/>
      <path d="M 9.421875 54.6875 
L 18.40625 54.6875 
L 18.40625 0 
L 9.421875 0 
z
M 9.421875 75.984375 
L 18.40625 75.984375 
L 18.40625 64.59375 
L 9.421875 64.59375 
z
" id="BitstreamVeraSans-Roman-69"/>
      <path d="M 19.671875 64.796875 
L 19.671875 37.40625 
L 32.078125 37.40625 
Q 38.96875 37.40625 42.71875 40.96875 
Q 46.484375 44.53125 46.484375 51.125 
Q 46.484375 57.671875 42.71875 61.234375 
Q 38.96875 64.796875 32.078125 64.796875 
z
M 9.8125 72.90625 
L 32.078125 72.90625 
Q 44.34375 72.90625 50.609375 67.359375 
Q 56.890625 61.8125 56.890625 51.125 
Q 56.890625 40.328125 50.609375 34.8125 
Q 44.34375 29.296875 32.078125 29.296875 
L 19.671875 29.296875 
L 19.671875 0 
L 9.8125 0 
z
" id="BitstreamVeraSans-Roman-50"/>
     </defs>
     <g transform="translate(286.1128125 418.531875)scale(0.12 -0.12)">
      <use xlink:href="#BitstreamVeraSans-Roman-50"/>
      <use x="60.302734375" xlink:href="#BitstreamVeraSans-Roman-68"/>
      <use x="123.681640625" xlink:href="#BitstreamVeraSans-Roman-69"/>
     </g>
    </g>
   </g>
   <g id="matplotlib.axis_2">
    <g id="ytick_1">
     <g id="line2d_24">
      <defs>
       <path d="M 0 0 
L 4 0 
" id="m193de2352a" style="stroke:#000000;stroke-width:0.5;"/>
      </defs>
      <g>
       <use style="stroke:#000000;stroke-width:0.5;" x="72.0" xlink:href="#m193de2352a" y="388.8"/>
      </g>
     </g>
     <g id="line2d_25">
      <defs>
       <path d="M 0 0 
L -4 0 
" id="m1b12e3405a" style="stroke:#000000;stroke-width:0.5;"/>
      </defs>
      <g>
       <use style="stroke:#000000;stroke-width:0.5;" x="518.4" xlink:href="#m1b12e3405a" y="388.8"/>
      </g>
     </g>
     <g id="text_11">
      <!-- 0 -->
      <g transform="translate(60.365 392.11125)scale(0.12 -0.12)">
       <use xlink:href="#BitstreamVeraSans-Roman-30"/>
      </g>
     </g>
    </g>
    <g id="ytick_2">
     <g id="line2d_26">
      <g>
       <use style="stroke:#000000;stroke-width:0.5;" x="72.0" xlink:href="#m193de2352a" y="339.428571429"/>
      </g>
     </g>
     <g id="line2d_27">
      <g>
       <use style="stroke:#000000;stroke-width:0.5;" x="518.4" xlink:href="#m1b12e3405a" y="339.428571429"/>
      </g>
     </g>
     <g id="text_12">
      <!-- 1 -->
      <g transform="translate(60.365 342.739821429)scale(0.12 -0.12)">
       <use xlink:href="#BitstreamVeraSans-Roman-31"/>
      </g>
     </g>
    </g>
    <g id="ytick_3">
     <g id="line2d_28">
      <g>
       <use style="stroke:#000000;stroke-width:0.5;" x="72.0" xlink:href="#m193de2352a" y="290.057142857"/>
      </g>
     </g>
     <g id="line2d_29">
      <g>
       <use style="stroke:#000000;stroke-width:0.5;" x="518.4" xlink:href="#m1b12e3405a" y="290.057142857"/>
      </g>
     </g>
     <g id="text_13">
      <!-- 2 -->
      <defs>
       <path d="M 19.1875 8.296875 
L 53.609375 8.296875 
L 53.609375 0 
L 7.328125 0 
L 7.328125 8.296875 
Q 12.9375 14.109375 22.625 23.890625 
Q 32.328125 33.6875 34.8125 36.53125 
Q 39.546875 41.84375 41.421875 45.53125 
Q 43.3125 49.21875 43.3125 52.78125 
Q 43.3125 58.59375 39.234375 62.25 
Q 35.15625 65.921875 28.609375 65.921875 
Q 23.96875 65.921875 18.8125 64.3125 
Q 13.671875 62.703125 7.8125 59.421875 
L 7.8125 69.390625 
Q 13.765625 71.78125 18.9375 73 
Q 24.125 74.21875 28.421875 74.21875 
Q 39.75 74.21875 46.484375 68.546875 
Q 53.21875 62.890625 53.21875 53.421875 
Q 53.21875 48.921875 51.53125 44.890625 
Q 49.859375 40.875 45.40625 35.40625 
Q 44.1875 33.984375 37.640625 27.21875 
Q 31.109375 20.453125 19.1875 8.296875 
" id="BitstreamVeraSans-Roman-32"/>
      </defs>
      <g transform="translate(60.365 293.368392857)scale(0.12 -0.12)">
       <use xlink:href="#BitstreamVeraSans-Roman-32"/>
      </g>
     </g>
    </g>
    <g id="ytick_4">
     <g id="line2d_30">
      <g>
       <use style="stroke:#000000;stroke-width:0.5;" x="72.0" xlink:href="#m193de2352a" y="240.685714286"/>
      </g>
     </g>
     <g id="line2d_31">
      <g>
       <use style="stroke:#000000;stroke-width:0.5;" x="518.4" xlink:href="#m1b12e3405a" y="240.685714286"/>
      </g>
     </g>
     <g id="text_14">
      <!-- 3 -->
      <g transform="translate(60.365 243.996964286)scale(0.12 -0.12)">
       <use xlink:href="#BitstreamVeraSans-Roman-33"/>
      </g>
     </g>
    </g>
    <g id="ytick_5">
     <g id="line2d_32">
      <g>
       <use style="stroke:#000000;stroke-width:0.5;" x="72.0" xlink:href="#m193de2352a" y="191.314285714"/>
      </g>
     </g>
     <g id="line2d_33">
      <g>
       <use style="stroke:#000000;stroke-width:0.5;" x="518.4" xlink:href="#m1b12e3405a" y="191.314285714"/>
      </g>
     </g>
     <g id="text_15">
      <!-- 4 -->
      <g transform="translate(60.365 194.625535714)scale(0.12 -0.12)">
       <use xlink:href="#BitstreamVeraSans-Roman-34"/>
      </g>
     </g>
    </g>
    <g id="ytick_6">
     <g id="line2d_34">
      <g>
       <use style="stroke:#000000;stroke-width:0.5;" x="72.0" xlink:href="#m193de2352a" y="141.942857143"/>
      </g>
     </g>
     <g id="line2d_35">
      <g>
       <use style="stroke:#000000;stroke-width:0.5;" x="518.4" xlink:href="#m1b12e3405a" y="141.942857143"/>
      </g>
     </g>
     <g id="text_16">
      <!-- 5 -->
      <g transform="translate(60.365 145.254107143)scale(0.12 -0.12)">
       <use xlink:href="#BitstreamVeraSans-Roman-35"/>
      </g>
     </g>
    </g>
    <g id="ytick_7">
     <g id="line2d_36">
      <g>
       <use style="stroke:#000000;stroke-width:0.5;" x="72.0" xlink:href="#m193de2352a" y="92.5714285714"/>
      </g>
     </g>
     <g id="line2d_37">
      <g>
       <use style="stroke:#000000;stroke-width:0.5;" x="518.4" xlink:href="#m1b12e3405a" y="92.5714285714"/>
      </g>
     </g>
     <g id="text_17">
      <!-- 6 -->
      <defs>
       <path d="M 33.015625 40.375 
Q 26.375 40.375 22.484375 35.828125 
Q 18.609375 31.296875 18.609375 23.390625 
Q 18.609375 15.53125 22.484375 10.953125 
Q 26.375 6.390625 33.015625 6.390625 
Q 39.65625 6.390625 43.53125 10.953125 
Q 47.40625 15.53125 47.40625 23.390625 
Q 47.40625 31.296875 43.53125 35.828125 
Q 39.65625 40.375 33.015625 40.375 
M 52.59375 71.296875 
L 52.59375 62.3125 
Q 48.875 64.0625 45.09375 64.984375 
Q 41.3125 65.921875 37.59375 65.921875 
Q 27.828125 65.921875 22.671875 59.328125 
Q 17.53125 52.734375 16.796875 39.40625 
Q 19.671875 43.65625 24.015625 45.921875 
Q 28.375 48.1875 33.59375 48.1875 
Q 44.578125 48.1875 50.953125 41.515625 
Q 57.328125 34.859375 57.328125 23.390625 
Q 57.328125 12.15625 50.6875 5.359375 
Q 44.046875 -1.421875 33.015625 -1.421875 
Q 20.359375 -1.421875 13.671875 8.265625 
Q 6.984375 17.96875 6.984375 36.375 
Q 6.984375 53.65625 15.1875 63.9375 
Q 23.390625 74.21875 37.203125 74.21875 
Q 40.921875 74.21875 44.703125 73.484375 
Q 48.484375 72.75 52.59375 71.296875 
" id="BitstreamVeraSans-Roman-36"/>
      </defs>
      <g transform="translate(60.365 95.8826785714)scale(0.12 -0.12)">
       <use xlink:href="#BitstreamVeraSans-Roman-36"/>
      </g>
     </g>
    </g>
    <g id="ytick_8">
     <g id="line2d_38">
      <g>
       <use style="stroke:#000000;stroke-width:0.5;" x="72.0" xlink:href="#m193de2352a" y="43.2"/>
      </g>
     </g>
     <g id="line2d_39">
      <g>
       <use style="stroke:#000000;stroke-width:0.5;" x="518.4" xlink:href="#m1b12e3405a" y="43.2"/>
      </g>
     </g>
     <g id="text_18">
      <!-- 7 -->
      <defs>
       <path d="M 8.203125 72.90625 
L 55.078125 72.90625 
L 55.078125 68.703125 
L 28.609375 0 
L 18.3125 0 
L 43.21875 64.59375 
L 8.203125 64.59375 
z
" id="BitstreamVeraSans-Roman-37"/>
      </defs>
      <g transform="translate(60.365 46.51125)scale(0.12 -0.12)">
       <use xlink:href="#BitstreamVeraSans-Roman-37"/>
      </g>
     </g>
    </g>
    <g id="text_19">
     <!-- kcal/mol -->
     <defs>
      <path d="M 30.609375 48.390625 
Q 23.390625 48.390625 19.1875 42.75 
Q 14.984375 37.109375 14.984375 27.296875 
Q 14.984375 17.484375 19.15625 11.84375 
Q 23.34375 6.203125 30.609375 6.203125 
Q 37.796875 6.203125 41.984375 11.859375 
Q 46.1875 17.53125 46.1875 27.296875 
Q 46.1875 37.015625 41.984375 42.703125 
Q 37.796875 48.390625 30.609375 48.390625 
M 30.609375 56 
Q 42.328125 56 49.015625 48.375 
Q 55.71875 40.765625 55.71875 27.296875 
Q 55.71875 13.875 49.015625 6.21875 
Q 42.328125 -1.421875 30.609375 -1.421875 
Q 18.84375 -1.421875 12.171875 6.21875 
Q 5.515625 13.875 5.515625 27.296875 
Q 5.515625 40.765625 12.171875 48.375 
Q 18.84375 56 30.609375 56 
" id="BitstreamVeraSans-Roman-6f"/>
      <path d="M 52 44.1875 
Q 55.375 50.25 60.0625 53.125 
Q 64.75 56 71.09375 56 
Q 79.640625 56 84.28125 50.015625 
Q 88.921875 44.046875 88.921875 33.015625 
L 88.921875 0 
L 79.890625 0 
L 79.890625 32.71875 
Q 79.890625 40.578125 77.09375 44.375 
Q 74.3125 48.1875 68.609375 48.1875 
Q 61.625 48.1875 57.5625 43.546875 
Q 53.515625 38.921875 53.515625 30.90625 
L 53.515625 0 
L 44.484375 0 
L 44.484375 32.71875 
Q 44.484375 40.625 41.703125 44.40625 
Q 38.921875 48.1875 33.109375 48.1875 
Q 26.21875 48.1875 22.15625 43.53125 
Q 18.109375 38.875 18.109375 30.90625 
L 18.109375 0 
L 9.078125 0 
L 9.078125 54.6875 
L 18.109375 54.6875 
L 18.109375 46.1875 
Q 21.1875 51.21875 25.484375 53.609375 
Q 29.78125 56 35.6875 56 
Q 41.65625 56 45.828125 52.96875 
Q 50 49.953125 52 44.1875 
" id="BitstreamVeraSans-Roman-6d"/>
      <path d="M 9.421875 75.984375 
L 18.40625 75.984375 
L 18.40625 0 
L 9.421875 0 
z
" id="BitstreamVeraSans-Roman-6c"/>
      <path d="M 9.078125 75.984375 
L 18.109375 75.984375 
L 18.109375 31.109375 
L 44.921875 54.6875 
L 56.390625 54.6875 
L 27.390625 29.109375 
L 57.625 0 
L 45.90625 0 
L 18.109375 26.703125 
L 18.109375 0 
L 9.078125 0 
z
" id="BitstreamVeraSans-Roman-6b"/>
      <path d="M 34.28125 27.484375 
Q 23.390625 27.484375 19.1875 25 
Q 14.984375 22.515625 14.984375 16.5 
Q 14.984375 11.71875 18.140625 8.90625 
Q 21.296875 6.109375 26.703125 6.109375 
Q 34.1875 6.109375 38.703125 11.40625 
Q 43.21875 16.703125 43.21875 25.484375 
L 43.21875 27.484375 
z
M 52.203125 31.203125 
L 52.203125 0 
L 43.21875 0 
L 43.21875 8.296875 
Q 40.140625 3.328125 35.546875 0.953125 
Q 30.953125 -1.421875 24.3125 -1.421875 
Q 15.921875 -1.421875 10.953125 3.296875 
Q 6 8.015625 6 15.921875 
Q 6 25.140625 12.171875 29.828125 
Q 18.359375 34.515625 30.609375 34.515625 
L 43.21875 34.515625 
L 43.21875 35.40625 
Q 43.21875 41.609375 39.140625 45 
Q 35.0625 48.390625 27.6875 48.390625 
Q 23 48.390625 18.546875 47.265625 
Q 14.109375 46.140625 10.015625 43.890625 
L 10.015625 52.203125 
Q 14.9375 54.109375 19.578125 55.046875 
Q 24.21875 56 28.609375 56 
Q 40.484375 56 46.34375 49.84375 
Q 52.203125 43.703125 52.203125 31.203125 
" id="BitstreamVeraSans-Roman-61"/>
      <path d="M 48.78125 52.59375 
L 48.78125 44.1875 
Q 44.96875 46.296875 41.140625 47.34375 
Q 37.3125 48.390625 33.40625 48.390625 
Q 24.65625 48.390625 19.8125 42.84375 
Q 14.984375 37.3125 14.984375 27.296875 
Q 14.984375 17.28125 19.8125 11.734375 
Q 24.65625 6.203125 33.40625 6.203125 
Q 37.3125 6.203125 41.140625 7.25 
Q 44.96875 8.296875 48.78125 10.40625 
L 48.78125 2.09375 
Q 45.015625 0.34375 40.984375 -0.53125 
Q 36.96875 -1.421875 32.421875 -1.421875 
Q 20.0625 -1.421875 12.78125 6.34375 
Q 5.515625 14.109375 5.515625 27.296875 
Q 5.515625 40.671875 12.859375 48.328125 
Q 20.21875 56 33.015625 56 
Q 37.15625 56 41.109375 55.140625 
Q 45.0625 54.296875 48.78125 52.59375 
" id="BitstreamVeraSans-Roman-63"/>
      <path d="M 25.390625 72.90625 
L 33.6875 72.90625 
L 8.296875 -9.28125 
L 0 -9.28125 
z
" id="BitstreamVeraSans-Roman-2f"/>
     </defs>
     <g transform="translate(52.869375 241.3209375)rotate(-90.0)scale(0.12 -0.12)">
      <use xlink:href="#BitstreamVeraSans-Roman-6b"/>
      <use x="57.91015625" xlink:href="#BitstreamVeraSans-Roman-63"/>
      <use x="112.890625" xlink:href="#BitstreamVeraSans-Roman-61"/>
      <use x="174.169921875" xlink:href="#BitstreamVeraSans-Roman-6c"/>
      <use x="201.953125" xlink:href="#BitstreamVeraSans-Roman-2f"/>
      <use x="235.64453125" xlink:href="#BitstreamVeraSans-Roman-6d"/>
      <use x="333.056640625" xlink:href="#BitstreamVeraSans-Roman-6f"/>
      <use x="394.23828125" xlink:href="#BitstreamVeraSans-Roman-6c"/>
     </g>
    </g>
   </g>
   <g id="text_20">
    <!-- H3-C3-C4-H5 -->
    <defs>
     <path d="M 9.8125 72.90625 
L 19.671875 72.90625 
L 19.671875 43.015625 
L 55.515625 43.015625 
L 55.515625 72.90625 
L 65.375 72.90625 
L 65.375 0 
L 55.515625 0 
L 55.515625 34.71875 
L 19.671875 34.71875 
L 19.671875 0 
L 9.8125 0 
z
" id="BitstreamVeraSans-Roman-48"/>
     <path d="M 4.890625 31.390625 
L 31.203125 31.390625 
L 31.203125 23.390625 
L 4.890625 23.390625 
z
" id="BitstreamVeraSans-Roman-2d"/>
     <path d="M 64.40625 67.28125 
L 64.40625 56.890625 
Q 59.421875 61.53125 53.78125 63.8125 
Q 48.140625 66.109375 41.796875 66.109375 
Q 29.296875 66.109375 22.65625 58.46875 
Q 16.015625 50.828125 16.015625 36.375 
Q 16.015625 21.96875 22.65625 14.328125 
Q 29.296875 6.6875 41.796875 6.6875 
Q 48.140625 6.6875 53.78125 8.984375 
Q 59.421875 11.28125 64.40625 15.921875 
L 64.40625 5.609375 
Q 59.234375 2.09375 53.4375 0.328125 
Q 47.65625 -1.421875 41.21875 -1.421875 
Q 24.65625 -1.421875 15.125 8.703125 
Q 5.609375 18.84375 5.609375 36.375 
Q 5.609375 53.953125 15.125 64.078125 
Q 24.65625 74.21875 41.21875 74.21875 
Q 47.75 74.21875 53.53125 72.484375 
Q 59.328125 70.75 64.40625 67.28125 
" id="BitstreamVeraSans-Roman-43"/>
    </defs>
    <g transform="translate(248.198625 38.2)scale(0.144 -0.144)">
     <use xlink:href="#BitstreamVeraSans-Roman-48"/>
     <use x="75.1953125" xlink:href="#BitstreamVeraSans-Roman-33"/>
     <use x="138.818359375" xlink:href="#BitstreamVeraSans-Roman-2d"/>
     <use x="174.90234375" xlink:href="#BitstreamVeraSans-Roman-43"/>
     <use x="244.7265625" xlink:href="#BitstreamVeraSans-Roman-33"/>
     <use x="308.349609375" xlink:href="#BitstreamVeraSans-Roman-2d"/>
     <use x="344.43359375" xlink:href="#BitstreamVeraSans-Roman-43"/>
     <use x="414.2578125" xlink:href="#BitstreamVeraSans-Roman-34"/>
     <use x="477.880859375" xlink:href="#BitstreamVeraSans-Roman-2d"/>
     <use x="513.96484375" xlink:href="#BitstreamVeraSans-Roman-48"/>
     <use x="589.16015625" xlink:href="#BitstreamVeraSans-Roman-35"/>
    </g>
   </g>
   <g id="legend_1">
    <g id="patch_7">
     <path d="M 406.15625 108.3125 
L 514.4 108.3125 
L 514.4 47.2 
L 406.15625 47.2 
z
" style="fill:#ffffff;stroke:#000000;stroke-linejoin:miter;"/>
    </g>
    <g id="line2d_40">
     <path d="M 411.75625 53.67875 
L 422.95625 53.67875 
" style="fill:none;stroke:#ff0000;stroke-linecap:square;"/>
    </g>
    <g id="line2d_41">
     <g>
      <use style="fill:#ff0000;stroke:#000000;stroke-width:0.5;" x="411.75625" xlink:href="#m8df570abdf" y="53.67875"/>
      <use style="fill:#ff0000;stroke:#000000;stroke-width:0.5;" x="422.95625" xlink:href="#m8df570abdf" y="53.67875"/>
     </g>
    </g>
    <g id="text_21">
     <!-- QM -->
     <defs>
      <path d="M 39.40625 66.21875 
Q 28.65625 66.21875 22.328125 58.203125 
Q 16.015625 50.203125 16.015625 36.375 
Q 16.015625 22.609375 22.328125 14.59375 
Q 28.65625 6.59375 39.40625 6.59375 
Q 50.140625 6.59375 56.421875 14.59375 
Q 62.703125 22.609375 62.703125 36.375 
Q 62.703125 50.203125 56.421875 58.203125 
Q 50.140625 66.21875 39.40625 66.21875 
M 53.21875 1.3125 
L 66.21875 -12.890625 
L 54.296875 -12.890625 
L 43.5 -1.21875 
Q 41.890625 -1.3125 41.03125 -1.359375 
Q 40.1875 -1.421875 39.40625 -1.421875 
Q 24.03125 -1.421875 14.8125 8.859375 
Q 5.609375 19.140625 5.609375 36.375 
Q 5.609375 53.65625 14.8125 63.9375 
Q 24.03125 74.21875 39.40625 74.21875 
Q 54.734375 74.21875 63.90625 63.9375 
Q 73.09375 53.65625 73.09375 36.375 
Q 73.09375 23.6875 67.984375 14.640625 
Q 62.890625 5.609375 53.21875 1.3125 
" id="BitstreamVeraSans-Roman-51"/>
      <path d="M 9.8125 72.90625 
L 24.515625 72.90625 
L 43.109375 23.296875 
L 61.8125 72.90625 
L 76.515625 72.90625 
L 76.515625 0 
L 66.890625 0 
L 66.890625 64.015625 
L 48.09375 14.015625 
L 38.1875 14.015625 
L 19.390625 64.015625 
L 19.390625 0 
L 9.8125 0 
z
" id="BitstreamVeraSans-Roman-4d"/>
     </defs>
     <g transform="translate(431.75625 56.47875)scale(0.08 -0.08)">
      <use xlink:href="#BitstreamVeraSans-Roman-51"/>
      <use x="78.7109375" xlink:href="#BitstreamVeraSans-Roman-4d"/>
     </g>
    </g>
    <g id="line2d_42">
     <path d="M 411.75625 65.42125 
L 422.95625 65.42125 
" style="fill:none;stroke:#0000ff;stroke-linecap:square;"/>
    </g>
    <g id="line2d_43">
     <g>
      <use style="fill:#0000ff;stroke:#000000;stroke-width:0.5;" x="411.75625" xlink:href="#m01ef3acf6f" y="65.42125"/>
      <use style="fill:#0000ff;stroke:#000000;stroke-width:0.5;" x="422.95625" xlink:href="#m01ef3acf6f" y="65.42125"/>
     </g>
    </g>
    <g id="text_22">
     <!-- MM Original -->
     <defs>
      <path d="M 41.109375 46.296875 
Q 39.59375 47.171875 37.8125 47.578125 
Q 36.03125 48 33.890625 48 
Q 26.265625 48 22.1875 43.046875 
Q 18.109375 38.09375 18.109375 28.8125 
L 18.109375 0 
L 9.078125 0 
L 9.078125 54.6875 
L 18.109375 54.6875 
L 18.109375 46.1875 
Q 20.953125 51.171875 25.484375 53.578125 
Q 30.03125 56 36.53125 56 
Q 37.453125 56 38.578125 55.875 
Q 39.703125 55.765625 41.0625 55.515625 
z
" id="BitstreamVeraSans-Roman-72"/>
      <path d="M 54.890625 33.015625 
L 54.890625 0 
L 45.90625 0 
L 45.90625 32.71875 
Q 45.90625 40.484375 42.875 44.328125 
Q 39.84375 48.1875 33.796875 48.1875 
Q 26.515625 48.1875 22.3125 43.546875 
Q 18.109375 38.921875 18.109375 30.90625 
L 18.109375 0 
L 9.078125 0 
L 9.078125 54.6875 
L 18.109375 54.6875 
L 18.109375 46.1875 
Q 21.34375 51.125 25.703125 53.5625 
Q 30.078125 56 35.796875 56 
Q 45.21875 56 50.046875 50.171875 
Q 54.890625 44.34375 54.890625 33.015625 
" id="BitstreamVeraSans-Roman-6e"/>
      <path d="M 45.40625 27.984375 
Q 45.40625 37.75 41.375 43.109375 
Q 37.359375 48.484375 30.078125 48.484375 
Q 22.859375 48.484375 18.828125 43.109375 
Q 14.796875 37.75 14.796875 27.984375 
Q 14.796875 18.265625 18.828125 12.890625 
Q 22.859375 7.515625 30.078125 7.515625 
Q 37.359375 7.515625 41.375 12.890625 
Q 45.40625 18.265625 45.40625 27.984375 
M 54.390625 6.78125 
Q 54.390625 -7.171875 48.1875 -13.984375 
Q 42 -20.796875 29.203125 -20.796875 
Q 24.46875 -20.796875 20.265625 -20.09375 
Q 16.0625 -19.390625 12.109375 -17.921875 
L 12.109375 -9.1875 
Q 16.0625 -11.328125 19.921875 -12.34375 
Q 23.78125 -13.375 27.78125 -13.375 
Q 36.625 -13.375 41.015625 -8.765625 
Q 45.40625 -4.15625 45.40625 5.171875 
L 45.40625 9.625 
Q 42.625 4.78125 38.28125 2.390625 
Q 33.9375 0 27.875 0 
Q 17.828125 0 11.671875 7.65625 
Q 5.515625 15.328125 5.515625 27.984375 
Q 5.515625 40.671875 11.671875 48.328125 
Q 17.828125 56 27.875 56 
Q 33.9375 56 38.28125 53.609375 
Q 42.625 51.21875 45.40625 46.390625 
L 45.40625 54.6875 
L 54.390625 54.6875 
z
" id="BitstreamVeraSans-Roman-67"/>
      <path id="BitstreamVeraSans-Roman-20"/>
      <path d="M 39.40625 66.21875 
Q 28.65625 66.21875 22.328125 58.203125 
Q 16.015625 50.203125 16.015625 36.375 
Q 16.015625 22.609375 22.328125 14.59375 
Q 28.65625 6.59375 39.40625 6.59375 
Q 50.140625 6.59375 56.421875 14.59375 
Q 62.703125 22.609375 62.703125 36.375 
Q 62.703125 50.203125 56.421875 58.203125 
Q 50.140625 66.21875 39.40625 66.21875 
M 39.40625 74.21875 
Q 54.734375 74.21875 63.90625 63.9375 
Q 73.09375 53.65625 73.09375 36.375 
Q 73.09375 19.140625 63.90625 8.859375 
Q 54.734375 -1.421875 39.40625 -1.421875 
Q 24.03125 -1.421875 14.8125 8.828125 
Q 5.609375 19.09375 5.609375 36.375 
Q 5.609375 53.65625 14.8125 63.9375 
Q 24.03125 74.21875 39.40625 74.21875 
" id="BitstreamVeraSans-Roman-4f"/>
     </defs>
     <g transform="translate(431.75625 68.22125)scale(0.08 -0.08)">
      <use xlink:href="#BitstreamVeraSans-Roman-4d"/>
      <use x="86.279296875" xlink:href="#BitstreamVeraSans-Roman-4d"/>
      <use x="172.55859375" xlink:href="#BitstreamVeraSans-Roman-20"/>
      <use x="204.345703125" xlink:href="#BitstreamVeraSans-Roman-4f"/>
      <use x="283.056640625" xlink:href="#BitstreamVeraSans-Roman-72"/>
      <use x="324.169921875" xlink:href="#BitstreamVeraSans-Roman-69"/>
      <use x="351.953125" xlink:href="#BitstreamVeraSans-Roman-67"/>
      <use x="415.4296875" xlink:href="#BitstreamVeraSans-Roman-69"/>
      <use x="443.212890625" xlink:href="#BitstreamVeraSans-Roman-6e"/>
      <use x="506.591796875" xlink:href="#BitstreamVeraSans-Roman-61"/>
      <use x="567.87109375" xlink:href="#BitstreamVeraSans-Roman-6c"/>
     </g>
    </g>
    <g id="line2d_44">
     <path d="M 411.75625 77.16375 
L 422.95625 77.16375 
" style="fill:none;stroke:#000000;stroke-linecap:square;"/>
    </g>
    <g id="line2d_45">
     <g>
      <use style="stroke:#000000;stroke-width:0.5;" x="411.75625" xlink:href="#m7f7bcf5863" y="77.16375"/>
      <use style="stroke:#000000;stroke-width:0.5;" x="422.95625" xlink:href="#m7f7bcf5863" y="77.16375"/>
     </g>
    </g>
    <g id="text_23">
     <!-- MM With phi zeroed -->
     <defs>
      <path d="M 56.203125 29.59375 
L 56.203125 25.203125 
L 14.890625 25.203125 
Q 15.484375 15.921875 20.484375 11.0625 
Q 25.484375 6.203125 34.421875 6.203125 
Q 39.59375 6.203125 44.453125 7.46875 
Q 49.3125 8.734375 54.109375 11.28125 
L 54.109375 2.78125 
Q 49.265625 0.734375 44.1875 -0.34375 
Q 39.109375 -1.421875 33.890625 -1.421875 
Q 20.796875 -1.421875 13.15625 6.1875 
Q 5.515625 13.8125 5.515625 26.8125 
Q 5.515625 40.234375 12.765625 48.109375 
Q 20.015625 56 32.328125 56 
Q 43.359375 56 49.78125 48.890625 
Q 56.203125 41.796875 56.203125 29.59375 
M 47.21875 32.234375 
Q 47.125 39.59375 43.09375 43.984375 
Q 39.0625 48.390625 32.421875 48.390625 
Q 24.90625 48.390625 20.390625 44.140625 
Q 15.875 39.890625 15.1875 32.171875 
z
" id="BitstreamVeraSans-Roman-65"/>
      <path d="M 5.515625 54.6875 
L 48.1875 54.6875 
L 48.1875 46.484375 
L 14.40625 7.171875 
L 48.1875 7.171875 
L 48.1875 0 
L 4.296875 0 
L 4.296875 8.203125 
L 38.09375 47.515625 
L 5.515625 47.515625 
z
" id="BitstreamVeraSans-Roman-7a"/>
      <path d="M 18.3125 70.21875 
L 18.3125 54.6875 
L 36.8125 54.6875 
L 36.8125 47.703125 
L 18.3125 47.703125 
L 18.3125 18.015625 
Q 18.3125 11.328125 20.140625 9.421875 
Q 21.96875 7.515625 27.59375 7.515625 
L 36.8125 7.515625 
L 36.8125 0 
L 27.59375 0 
Q 17.1875 0 13.234375 3.875 
Q 9.28125 7.765625 9.28125 18.015625 
L 9.28125 47.703125 
L 2.6875 47.703125 
L 2.6875 54.6875 
L 9.28125 54.6875 
L 9.28125 70.21875 
z
" id="BitstreamVeraSans-Roman-74"/>
      <path d="M 45.40625 46.390625 
L 45.40625 75.984375 
L 54.390625 75.984375 
L 54.390625 0 
L 45.40625 0 
L 45.40625 8.203125 
Q 42.578125 3.328125 38.25 0.953125 
Q 33.9375 -1.421875 27.875 -1.421875 
Q 17.96875 -1.421875 11.734375 6.484375 
Q 5.515625 14.40625 5.515625 27.296875 
Q 5.515625 40.1875 11.734375 48.09375 
Q 17.96875 56 27.875 56 
Q 33.9375 56 38.25 53.625 
Q 42.578125 51.265625 45.40625 46.390625 
M 14.796875 27.296875 
Q 14.796875 17.390625 18.875 11.75 
Q 22.953125 6.109375 30.078125 6.109375 
Q 37.203125 6.109375 41.296875 11.75 
Q 45.40625 17.390625 45.40625 27.296875 
Q 45.40625 37.203125 41.296875 42.84375 
Q 37.203125 48.484375 30.078125 48.484375 
Q 22.953125 48.484375 18.875 42.84375 
Q 14.796875 37.203125 14.796875 27.296875 
" id="BitstreamVeraSans-Roman-64"/>
      <path d="M 18.109375 8.203125 
L 18.109375 -20.796875 
L 9.078125 -20.796875 
L 9.078125 54.6875 
L 18.109375 54.6875 
L 18.109375 46.390625 
Q 20.953125 51.265625 25.265625 53.625 
Q 29.59375 56 35.59375 56 
Q 45.5625 56 51.78125 48.09375 
Q 58.015625 40.1875 58.015625 27.296875 
Q 58.015625 14.40625 51.78125 6.484375 
Q 45.5625 -1.421875 35.59375 -1.421875 
Q 29.59375 -1.421875 25.265625 0.953125 
Q 20.953125 3.328125 18.109375 8.203125 
M 48.6875 27.296875 
Q 48.6875 37.203125 44.609375 42.84375 
Q 40.53125 48.484375 33.40625 48.484375 
Q 26.265625 48.484375 22.1875 42.84375 
Q 18.109375 37.203125 18.109375 27.296875 
Q 18.109375 17.390625 22.1875 11.75 
Q 26.265625 6.109375 33.40625 6.109375 
Q 40.53125 6.109375 44.609375 11.75 
Q 48.6875 17.390625 48.6875 27.296875 
" id="BitstreamVeraSans-Roman-70"/>
      <path d="M 3.328125 72.90625 
L 13.28125 72.90625 
L 28.609375 11.28125 
L 43.890625 72.90625 
L 54.984375 72.90625 
L 70.3125 11.28125 
L 85.59375 72.90625 
L 95.609375 72.90625 
L 77.296875 0 
L 64.890625 0 
L 49.515625 63.28125 
L 33.984375 0 
L 21.578125 0 
z
" id="BitstreamVeraSans-Roman-57"/>
     </defs>
     <g transform="translate(431.75625 79.96375)scale(0.08 -0.08)">
      <use xlink:href="#BitstreamVeraSans-Roman-4d"/>
      <use x="86.279296875" xlink:href="#BitstreamVeraSans-Roman-4d"/>
      <use x="172.55859375" xlink:href="#BitstreamVeraSans-Roman-20"/>
      <use x="204.345703125" xlink:href="#BitstreamVeraSans-Roman-57"/>
      <use x="303.19140625" xlink:href="#BitstreamVeraSans-Roman-69"/>
      <use x="330.974609375" xlink:href="#BitstreamVeraSans-Roman-74"/>
      <use x="370.18359375" xlink:href="#BitstreamVeraSans-Roman-68"/>
      <use x="433.5625" xlink:href="#BitstreamVeraSans-Roman-20"/>
      <use x="465.349609375" xlink:href="#BitstreamVeraSans-Roman-70"/>
      <use x="528.826171875" xlink:href="#BitstreamVeraSans-Roman-68"/>
      <use x="592.205078125" xlink:href="#BitstreamVeraSans-Roman-69"/>
      <use x="619.98828125" xlink:href="#BitstreamVeraSans-Roman-20"/>
      <use x="651.775390625" xlink:href="#BitstreamVeraSans-Roman-7a"/>
      <use x="704.265625" xlink:href="#BitstreamVeraSans-Roman-65"/>
      <use x="765.7890625" xlink:href="#BitstreamVeraSans-Roman-72"/>
      <use x="806.87109375" xlink:href="#BitstreamVeraSans-Roman-6f"/>
      <use x="868.052734375" xlink:href="#BitstreamVeraSans-Roman-65"/>
      <use x="929.576171875" xlink:href="#BitstreamVeraSans-Roman-64"/>
     </g>
    </g>
    <g id="line2d_46">
     <path d="M 411.75625 88.90625 
L 422.95625 88.90625 
" style="fill:none;stroke:#ff00ff;stroke-linecap:square;"/>
    </g>
    <g id="line2d_47">
     <g>
      <use style="fill:#ff00ff;stroke:#ff00ff;stroke-width:0.5;" x="411.75625" xlink:href="#maed237cfa2" y="88.90625"/>
      <use style="fill:#ff00ff;stroke:#ff00ff;stroke-width:0.5;" x="422.95625" xlink:href="#maed237cfa2" y="88.90625"/>
     </g>
    </g>
    <g id="text_24">
     <!-- QM-MM target -->
     <g transform="translate(431.75625 91.70625)scale(0.08 -0.08)">
      <use xlink:href="#BitstreamVeraSans-Roman-51"/>
      <use x="78.7109375" xlink:href="#BitstreamVeraSans-Roman-4d"/>
      <use x="164.990234375" xlink:href="#BitstreamVeraSans-Roman-2d"/>
      <use x="201.07421875" xlink:href="#BitstreamVeraSans-Roman-4d"/>
      <use x="287.353515625" xlink:href="#BitstreamVeraSans-Roman-4d"/>
      <use x="373.6328125" xlink:href="#BitstreamVeraSans-Roman-20"/>
      <use x="405.419921875" xlink:href="#BitstreamVeraSans-Roman-74"/>
      <use x="444.62890625" xlink:href="#BitstreamVeraSans-Roman-61"/>
      <use x="505.908203125" xlink:href="#BitstreamVeraSans-Roman-72"/>
      <use x="547.005859375" xlink:href="#BitstreamVeraSans-Roman-67"/>
      <use x="610.482421875" xlink:href="#BitstreamVeraSans-Roman-65"/>
      <use x="672.005859375" xlink:href="#BitstreamVeraSans-Roman-74"/>
     </g>
    </g>
    <g id="line2d_48">
     <path d="M 411.75625 100.64875 
L 422.95625 100.64875 
" style="fill:none;stroke:#008000;stroke-linecap:square;"/>
    </g>
    <g id="line2d_49">
     <g>
      <use style="fill:#008000;stroke:#000000;stroke-width:0.5;" x="411.75625" xlink:href="#me816bb1572" y="100.64875"/>
      <use style="fill:#008000;stroke:#000000;stroke-width:0.5;" x="422.95625" xlink:href="#me816bb1572" y="100.64875"/>
     </g>
    </g>
    <g id="text_25">
     <!-- MM Fitted -->
     <defs>
      <path d="M 9.8125 72.90625 
L 51.703125 72.90625 
L 51.703125 64.59375 
L 19.671875 64.59375 
L 19.671875 43.109375 
L 48.578125 43.109375 
L 48.578125 34.8125 
L 19.671875 34.8125 
L 19.671875 0 
L 9.8125 0 
z
" id="BitstreamVeraSans-Roman-46"/>
     </defs>
     <g transform="translate(431.75625 103.44875)scale(0.08 -0.08)">
      <use xlink:href="#BitstreamVeraSans-Roman-4d"/>
      <use x="86.279296875" xlink:href="#BitstreamVeraSans-Roman-4d"/>
      <use x="172.55859375" xlink:href="#BitstreamVeraSans-Roman-20"/>
      <use x="204.345703125" xlink:href="#BitstreamVeraSans-Roman-46"/>
      <use x="261.755859375" xlink:href="#BitstreamVeraSans-Roman-69"/>
      <use x="289.5390625" xlink:href="#BitstreamVeraSans-Roman-74"/>
      <use x="328.748046875" xlink:href="#BitstreamVeraSans-Roman-74"/>
      <use x="367.95703125" xlink:href="#BitstreamVeraSans-Roman-65"/>
      <use x="429.48046875" xlink:href="#BitstreamVeraSans-Roman-64"/>
     </g>
    </g>
   </g>
  </g>
 </g>
 <defs>
  <clipPath id="p68cb9ef497">
   <rect height="345.6" width="446.4" x="72.0" y="43.2"/>
  </clipPath>
 </defs>
</svg>
