<?xml version="1.0" encoding="utf-8" standalone="no"?>
<!DOCTYPE svg PUBLIC "-//W3C//DTD SVG 1.1//EN"
  "http://www.w3.org/Graphics/SVG/1.1/DTD/svg11.dtd">
<!-- Created with matplotlib (http://matplotlib.org/) -->
<svg height="432pt" version="1.1" viewBox="0 0 576 432" width="576pt" xmlns="http://www.w3.org/2000/svg" xmlns:xlink="http://www.w3.org/1999/xlink">
 <defs>
  <style type="text/css">
*{stroke-linecap:butt;stroke-linejoin:round;stroke-miterlimit:100000;}
  </style>
 </defs>
 <g id="figure_1">
  <g id="patch_1">
   <path d="M 0 432 
L 576 432 
L 576 0 
L 0 0 
z
" style="fill:#ffffff;"/>
  </g>
  <g id="axes_1">
   <g id="patch_2">
    <path d="M 72 388.8 
L 518.4 388.8 
L 518.4 43.2 
L 72 43.2 
z
" style="fill:#ffffff;"/>
   </g>
   <g id="line2d_1">
    <path clip-path="url(#ped62ecbd31)" d="M 71.999972 388.8 
L 84.400018 384.029926 
L 96.800002 370.222778 
L 109.199992 348.94166 
L 121.600001 322.891971 
L 134.000028 295.736392 
L 146.400029 270.636885 
L 158.800006 249.486249 
L 171.200037 233.350359 
L 183.600022 222.188946 
L 196.000015 214.882772 
L 208.400046 209.771328 
L 220.800003 205.231855 
L 233.20003 200.344426 
L 245.600026 199.52138 
L 258.00005 197.693868 
L 270.40003 194.010509 
L 282.799991 188.579409 
L 295.199144 136.387191 
L 307.600014 188.577359 
L 319.999991 194.010018 
L 332.399961 197.693825 
L 344.800018 199.521072 
L 357.200001 200.340874 
L 369.599961 205.231825 
L 381.999972 209.771076 
L 394.400001 214.882773 
L 406.799985 222.18895 
L 419.199979 233.34987 
L 431.599943 249.486189 
L 443.99997 270.636889 
L 456.4 295.736455 
L 468.800001 322.891984 
L 481.199963 348.941568 
L 493.600001 370.222778 
L 505.999978 384.029925 
" style="fill:none;stroke:#ff0000;stroke-linecap:square;"/>
    <defs>
     <path d="M 0 3 
C 0.795609 3 1.55874 2.683901 2.12132 2.12132 
C 2.683901 1.55874 3 0.795609 3 0 
C 3 -0.795609 2.683901 -1.55874 2.12132 -2.12132 
C 1.55874 -2.683901 0.795609 -3 0 -3 
C -0.795609 -3 -1.55874 -2.683901 -2.12132 -2.12132 
C -2.683901 -1.55874 -3 -0.795609 -3 0 
C -3 0.795609 -2.683901 1.55874 -2.12132 2.12132 
C -1.55874 2.683901 -0.795609 3 0 3 
z
" id="mdcd235c438" style="stroke:#000000;stroke-width:0.5;"/>
    </defs>
    <g clip-path="url(#ped62ecbd31)">
     <use style="fill:#ff0000;stroke:#000000;stroke-width:0.5;" x="71.999971674" xlink:href="#mdcd235c438" y="388.8"/>
     <use style="fill:#ff0000;stroke:#000000;stroke-width:0.5;" x="84.4000182775" xlink:href="#mdcd235c438" y="384.029926103"/>
     <use style="fill:#ff0000;stroke:#000000;stroke-width:0.5;" x="96.8000023025" xlink:href="#mdcd235c438" y="370.222778314"/>
     <use style="fill:#ff0000;stroke:#000000;stroke-width:0.5;" x="109.199992453" xlink:href="#mdcd235c438" y="348.941659904"/>
     <use style="fill:#ff0000;stroke:#000000;stroke-width:0.5;" x="121.600000673" xlink:href="#mdcd235c438" y="322.891971057"/>
     <use style="fill:#ff0000;stroke:#000000;stroke-width:0.5;" x="134.000027601" xlink:href="#mdcd235c438" y="295.736392119"/>
     <use style="fill:#ff0000;stroke:#000000;stroke-width:0.5;" x="146.400029122" xlink:href="#mdcd235c438" y="270.636884884"/>
     <use style="fill:#ff0000;stroke:#000000;stroke-width:0.5;" x="158.800006363" xlink:href="#mdcd235c438" y="249.486249225"/>
     <use style="fill:#ff0000;stroke:#000000;stroke-width:0.5;" x="171.200037095" xlink:href="#mdcd235c438" y="233.350359076"/>
     <use style="fill:#ff0000;stroke:#000000;stroke-width:0.5;" x="183.600021829" xlink:href="#mdcd235c438" y="222.188946151"/>
     <use style="fill:#ff0000;stroke:#000000;stroke-width:0.5;" x="196.000015255" xlink:href="#mdcd235c438" y="214.88277171"/>
     <use style="fill:#ff0000;stroke:#000000;stroke-width:0.5;" x="208.400045572" xlink:href="#mdcd235c438" y="209.771327585"/>
     <use style="fill:#ff0000;stroke:#000000;stroke-width:0.5;" x="220.800002699" xlink:href="#mdcd235c438" y="205.23185487"/>
     <use style="fill:#ff0000;stroke:#000000;stroke-width:0.5;" x="233.200029696" xlink:href="#mdcd235c438" y="200.344426463"/>
     <use style="fill:#ff0000;stroke:#000000;stroke-width:0.5;" x="245.600026322" xlink:href="#mdcd235c438" y="199.521379642"/>
     <use style="fill:#ff0000;stroke:#000000;stroke-width:0.5;" x="258.000049614" xlink:href="#mdcd235c438" y="197.693868406"/>
     <use style="fill:#ff0000;stroke:#000000;stroke-width:0.5;" x="270.400030111" xlink:href="#mdcd235c438" y="194.010509154"/>
     <use style="fill:#ff0000;stroke:#000000;stroke-width:0.5;" x="282.79999103" xlink:href="#mdcd235c438" y="188.579409391"/>
     <use style="fill:#ff0000;stroke:#000000;stroke-width:0.5;" x="295.199143596" xlink:href="#mdcd235c438" y="136.387191209"/>
     <use style="fill:#ff0000;stroke:#000000;stroke-width:0.5;" x="307.600013666" xlink:href="#mdcd235c438" y="188.577359327"/>
     <use style="fill:#ff0000;stroke:#000000;stroke-width:0.5;" x="319.999991402" xlink:href="#mdcd235c438" y="194.010017744"/>
     <use style="fill:#ff0000;stroke:#000000;stroke-width:0.5;" x="332.399961293" xlink:href="#mdcd235c438" y="197.693825007"/>
     <use style="fill:#ff0000;stroke:#000000;stroke-width:0.5;" x="344.80001806" xlink:href="#mdcd235c438" y="199.521072275"/>
     <use style="fill:#ff0000;stroke:#000000;stroke-width:0.5;" x="357.200000534" xlink:href="#mdcd235c438" y="200.340874282"/>
     <use style="fill:#ff0000;stroke:#000000;stroke-width:0.5;" x="369.599960687" xlink:href="#mdcd235c438" y="205.231825347"/>
     <use style="fill:#ff0000;stroke:#000000;stroke-width:0.5;" x="381.999972352" xlink:href="#mdcd235c438" y="209.77107581"/>
     <use style="fill:#ff0000;stroke:#000000;stroke-width:0.5;" x="394.400001115" xlink:href="#mdcd235c438" y="214.882773422"/>
     <use style="fill:#ff0000;stroke:#000000;stroke-width:0.5;" x="406.799984975" xlink:href="#mdcd235c438" y="222.188950201"/>
     <use style="fill:#ff0000;stroke:#000000;stroke-width:0.5;" x="419.199978646" xlink:href="#mdcd235c438" y="233.349870059"/>
     <use style="fill:#ff0000;stroke:#000000;stroke-width:0.5;" x="431.599942836" xlink:href="#mdcd235c438" y="249.486189373"/>
     <use style="fill:#ff0000;stroke:#000000;stroke-width:0.5;" x="443.999969875" xlink:href="#mdcd235c438" y="270.636888504"/>
     <use style="fill:#ff0000;stroke:#000000;stroke-width:0.5;" x="456.400000299" xlink:href="#mdcd235c438" y="295.7364546"/>
     <use style="fill:#ff0000;stroke:#000000;stroke-width:0.5;" x="468.800001235" xlink:href="#mdcd235c438" y="322.891983696"/>
     <use style="fill:#ff0000;stroke:#000000;stroke-width:0.5;" x="481.199963131" xlink:href="#mdcd235c438" y="348.941568395"/>
     <use style="fill:#ff0000;stroke:#000000;stroke-width:0.5;" x="493.600001029" xlink:href="#mdcd235c438" y="370.222777964"/>
     <use style="fill:#ff0000;stroke:#000000;stroke-width:0.5;" x="505.999977884" xlink:href="#mdcd235c438" y="384.029925237"/>
    </g>
   </g>
   <g id="line2d_2">
    <path clip-path="url(#ped62ecbd31)" d="M 71.999972 388.8 
L 84.400018 385.732819 
L 96.800002 377.090657 
L 109.199992 363.588853 
L 121.600001 346.630968 
L 134.000028 325.980515 
L 146.400029 302.397666 
L 158.800006 279.908176 
L 171.200037 261.053396 
L 183.600022 247.178309 
L 196.000015 238.266893 
L 208.400046 233.44334 
L 220.800003 231.54635 
L 233.20003 236.055006 
L 245.600026 221.022321 
L 258.00005 228.963914 
L 270.40003 235.801815 
L 282.799991 240.313465 
L 295.199144 137.728559 
L 307.600014 239.964631 
L 319.999991 235.648449 
L 332.399961 228.966746 
L 344.800018 221.014859 
L 357.200001 235.998213 
L 369.599961 231.543809 
L 381.999972 233.41045 
L 394.400001 238.267148 
L 406.799985 247.178125 
L 419.199979 261.050644 
L 431.599943 279.896788 
L 443.99997 302.397547 
L 456.4 325.980994 
L 468.800001 346.630802 
L 481.199963 363.588821 
L 493.600001 377.091465 
L 505.999978 385.73365 
" style="fill:none;stroke:#0000ff;stroke-linecap:square;"/>
    <defs>
     <path d="M 0 3 
C 0.795609 3 1.55874 2.683901 2.12132 2.12132 
C 2.683901 1.55874 3 0.795609 3 0 
C 3 -0.795609 2.683901 -1.55874 2.12132 -2.12132 
C 1.55874 -2.683901 0.795609 -3 0 -3 
C -0.795609 -3 -1.55874 -2.683901 -2.12132 -2.12132 
C -2.683901 -1.55874 -3 -0.795609 -3 0 
C -3 0.795609 -2.683901 1.55874 -2.12132 2.12132 
C -1.55874 2.683901 -0.795609 3 0 3 
z
" id="mfc69079119" style="stroke:#000000;stroke-width:0.5;"/>
    </defs>
    <g clip-path="url(#ped62ecbd31)">
     <use style="fill:#0000ff;stroke:#000000;stroke-width:0.5;" x="71.999971674" xlink:href="#mfc69079119" y="388.8"/>
     <use style="fill:#0000ff;stroke:#000000;stroke-width:0.5;" x="84.4000182775" xlink:href="#mfc69079119" y="385.732819297"/>
     <use style="fill:#0000ff;stroke:#000000;stroke-width:0.5;" x="96.8000023025" xlink:href="#mfc69079119" y="377.090657131"/>
     <use style="fill:#0000ff;stroke:#000000;stroke-width:0.5;" x="109.199992453" xlink:href="#mfc69079119" y="363.588853026"/>
     <use style="fill:#0000ff;stroke:#000000;stroke-width:0.5;" x="121.600000673" xlink:href="#mfc69079119" y="346.630968161"/>
     <use style="fill:#0000ff;stroke:#000000;stroke-width:0.5;" x="134.000027601" xlink:href="#mfc69079119" y="325.980515007"/>
     <use style="fill:#0000ff;stroke:#000000;stroke-width:0.5;" x="146.400029122" xlink:href="#mfc69079119" y="302.397665913"/>
     <use style="fill:#0000ff;stroke:#000000;stroke-width:0.5;" x="158.800006363" xlink:href="#mfc69079119" y="279.908176084"/>
     <use style="fill:#0000ff;stroke:#000000;stroke-width:0.5;" x="171.200037095" xlink:href="#mfc69079119" y="261.053395603"/>
     <use style="fill:#0000ff;stroke:#000000;stroke-width:0.5;" x="183.600021829" xlink:href="#mfc69079119" y="247.178309401"/>
     <use style="fill:#0000ff;stroke:#000000;stroke-width:0.5;" x="196.000015255" xlink:href="#mfc69079119" y="238.266893193"/>
     <use style="fill:#0000ff;stroke:#000000;stroke-width:0.5;" x="208.400045572" xlink:href="#mfc69079119" y="233.443339646"/>
     <use style="fill:#0000ff;stroke:#000000;stroke-width:0.5;" x="220.800002699" xlink:href="#mfc69079119" y="231.546350307"/>
     <use style="fill:#0000ff;stroke:#000000;stroke-width:0.5;" x="233.200029696" xlink:href="#mfc69079119" y="236.055006267"/>
     <use style="fill:#0000ff;stroke:#000000;stroke-width:0.5;" x="245.600026322" xlink:href="#mfc69079119" y="221.02232086"/>
     <use style="fill:#0000ff;stroke:#000000;stroke-width:0.5;" x="258.000049614" xlink:href="#mfc69079119" y="228.963914231"/>
     <use style="fill:#0000ff;stroke:#000000;stroke-width:0.5;" x="270.400030111" xlink:href="#mfc69079119" y="235.80181532"/>
     <use style="fill:#0000ff;stroke:#000000;stroke-width:0.5;" x="282.79999103" xlink:href="#mfc69079119" y="240.313465422"/>
     <use style="fill:#0000ff;stroke:#000000;stroke-width:0.5;" x="295.199143596" xlink:href="#mfc69079119" y="137.7285592"/>
     <use style="fill:#0000ff;stroke:#000000;stroke-width:0.5;" x="307.600013666" xlink:href="#mfc69079119" y="239.964630765"/>
     <use style="fill:#0000ff;stroke:#000000;stroke-width:0.5;" x="319.999991402" xlink:href="#mfc69079119" y="235.648449137"/>
     <use style="fill:#0000ff;stroke:#000000;stroke-width:0.5;" x="332.399961293" xlink:href="#mfc69079119" y="228.966745757"/>
     <use style="fill:#0000ff;stroke:#000000;stroke-width:0.5;" x="344.80001806" xlink:href="#mfc69079119" y="221.014859181"/>
     <use style="fill:#0000ff;stroke:#000000;stroke-width:0.5;" x="357.200000534" xlink:href="#mfc69079119" y="235.998212813"/>
     <use style="fill:#0000ff;stroke:#000000;stroke-width:0.5;" x="369.599960687" xlink:href="#mfc69079119" y="231.543809121"/>
     <use style="fill:#0000ff;stroke:#000000;stroke-width:0.5;" x="381.999972352" xlink:href="#mfc69079119" y="233.410450454"/>
     <use style="fill:#0000ff;stroke:#000000;stroke-width:0.5;" x="394.400001115" xlink:href="#mfc69079119" y="238.267147983"/>
     <use style="fill:#0000ff;stroke:#000000;stroke-width:0.5;" x="406.799984975" xlink:href="#mfc69079119" y="247.178124561"/>
     <use style="fill:#0000ff;stroke:#000000;stroke-width:0.5;" x="419.199978646" xlink:href="#mfc69079119" y="261.050643749"/>
     <use style="fill:#0000ff;stroke:#000000;stroke-width:0.5;" x="431.599942836" xlink:href="#mfc69079119" y="279.896787876"/>
     <use style="fill:#0000ff;stroke:#000000;stroke-width:0.5;" x="443.999969875" xlink:href="#mfc69079119" y="302.397546709"/>
     <use style="fill:#0000ff;stroke:#000000;stroke-width:0.5;" x="456.400000299" xlink:href="#mfc69079119" y="325.98099423"/>
     <use style="fill:#0000ff;stroke:#000000;stroke-width:0.5;" x="468.800001235" xlink:href="#mfc69079119" y="346.630801804"/>
     <use style="fill:#0000ff;stroke:#000000;stroke-width:0.5;" x="481.199963131" xlink:href="#mfc69079119" y="363.588821095"/>
     <use style="fill:#0000ff;stroke:#000000;stroke-width:0.5;" x="493.600001029" xlink:href="#mfc69079119" y="377.091465377"/>
     <use style="fill:#0000ff;stroke:#000000;stroke-width:0.5;" x="505.999977884" xlink:href="#mfc69079119" y="385.733649773"/>
    </g>
   </g>
   <g id="line2d_3">
    <path clip-path="url(#ped62ecbd31)" d="M 71.999972 388.8 
L 84.400018 387.441887 
L 96.800002 383.720772 
L 109.199992 377.758448 
L 121.600001 370.049118 
L 134.000028 359.240787 
L 146.400029 344.906486 
L 158.800006 329.956466 
L 171.200037 316.022743 
L 183.600022 303.856709 
L 196.000015 293.236226 
L 208.400046 283.491603 
L 220.800003 274.055148 
L 233.20003 269.315233 
L 245.600026 244.44045 
L 258.00005 243.13348 
L 270.40003 242.431913 
L 282.799991 242.022531 
L 295.199144 137.728559 
L 307.600014 241.673697 
L 319.999991 242.278558 
L 332.399961 243.136319 
L 344.800018 244.433023 
L 357.200001 269.258464 
L 369.599961 274.052582 
L 381.999972 283.458723 
L 394.400001 293.236485 
L 406.799985 303.856525 
L 419.199979 316.019987 
L 431.599943 329.945104 
L 443.99997 344.906368 
L 456.4 359.241244 
L 468.800001 370.04895 
L 481.199963 377.758447 
L 493.600001 383.721578 
L 505.999978 387.442719 
" style="fill:none;stroke:#000000;stroke-linecap:square;"/>
    <defs>
     <path d="M -3 3 
L 3 -3 
M -3 -3 
L 3 3 
" id="mc4bdc7d016" style="stroke:#000000;stroke-width:0.5;"/>
    </defs>
    <g clip-path="url(#ped62ecbd31)">
     <use style="stroke:#000000;stroke-width:0.5;" x="71.999971674" xlink:href="#mc4bdc7d016" y="388.8"/>
     <use style="stroke:#000000;stroke-width:0.5;" x="84.4000182775" xlink:href="#mc4bdc7d016" y="387.441887165"/>
     <use style="stroke:#000000;stroke-width:0.5;" x="96.8000023025" xlink:href="#mc4bdc7d016" y="383.720771629"/>
     <use style="stroke:#000000;stroke-width:0.5;" x="109.199992453" xlink:href="#mc4bdc7d016" y="377.758447812"/>
     <use style="stroke:#000000;stroke-width:0.5;" x="121.600000673" xlink:href="#mc4bdc7d016" y="370.049118253"/>
     <use style="stroke:#000000;stroke-width:0.5;" x="134.000027601" xlink:href="#mc4bdc7d016" y="359.240787128"/>
     <use style="stroke:#000000;stroke-width:0.5;" x="146.400029122" xlink:href="#mc4bdc7d016" y="344.906486033"/>
     <use style="stroke:#000000;stroke-width:0.5;" x="158.800006363" xlink:href="#mc4bdc7d016" y="329.95646603"/>
     <use style="stroke:#000000;stroke-width:0.5;" x="171.200037095" xlink:href="#mc4bdc7d016" y="316.022742843"/>
     <use style="stroke:#000000;stroke-width:0.5;" x="183.600021829" xlink:href="#mc4bdc7d016" y="303.856709401"/>
     <use style="stroke:#000000;stroke-width:0.5;" x="196.000015255" xlink:href="#mc4bdc7d016" y="293.23622615"/>
     <use style="stroke:#000000;stroke-width:0.5;" x="208.400045572" xlink:href="#mc4bdc7d016" y="283.491602959"/>
     <use style="stroke:#000000;stroke-width:0.5;" x="220.800002699" xlink:href="#mc4bdc7d016" y="274.055148443"/>
     <use style="stroke:#000000;stroke-width:0.5;" x="233.200029696" xlink:href="#mc4bdc7d016" y="269.315233373"/>
     <use style="stroke:#000000;stroke-width:0.5;" x="245.600026322" xlink:href="#mc4bdc7d016" y="244.440449744"/>
     <use style="stroke:#000000;stroke-width:0.5;" x="258.000049614" xlink:href="#mc4bdc7d016" y="243.133479953"/>
     <use style="stroke:#000000;stroke-width:0.5;" x="270.400030111" xlink:href="#mc4bdc7d016" y="242.431913197"/>
     <use style="stroke:#000000;stroke-width:0.5;" x="282.79999103" xlink:href="#mc4bdc7d016" y="242.022530751"/>
     <use style="stroke:#000000;stroke-width:0.5;" x="295.199143596" xlink:href="#mc4bdc7d016" y="137.728559209"/>
     <use style="stroke:#000000;stroke-width:0.5;" x="307.600013666" xlink:href="#mc4bdc7d016" y="241.673697375"/>
     <use style="stroke:#000000;stroke-width:0.5;" x="319.999991402" xlink:href="#mc4bdc7d016" y="242.278558046"/>
     <use style="stroke:#000000;stroke-width:0.5;" x="332.399961293" xlink:href="#mc4bdc7d016" y="243.136319014"/>
     <use style="stroke:#000000;stroke-width:0.5;" x="344.80001806" xlink:href="#mc4bdc7d016" y="244.433022934"/>
     <use style="stroke:#000000;stroke-width:0.5;" x="357.200000534" xlink:href="#mc4bdc7d016" y="269.258463669"/>
     <use style="stroke:#000000;stroke-width:0.5;" x="369.599960687" xlink:href="#mc4bdc7d016" y="274.05258196"/>
     <use style="stroke:#000000;stroke-width:0.5;" x="381.999972352" xlink:href="#mc4bdc7d016" y="283.458722959"/>
     <use style="stroke:#000000;stroke-width:0.5;" x="394.400001115" xlink:href="#mc4bdc7d016" y="293.236485406"/>
     <use style="stroke:#000000;stroke-width:0.5;" x="406.799984975" xlink:href="#mc4bdc7d016" y="303.856524561"/>
     <use style="stroke:#000000;stroke-width:0.5;" x="419.199978646" xlink:href="#mc4bdc7d016" y="316.019986694"/>
     <use style="stroke:#000000;stroke-width:0.5;" x="431.599942836" xlink:href="#mc4bdc7d016" y="329.945103872"/>
     <use style="stroke:#000000;stroke-width:0.5;" x="443.999969875" xlink:href="#mc4bdc7d016" y="344.906367522"/>
     <use style="stroke:#000000;stroke-width:0.5;" x="456.400000299" xlink:href="#mc4bdc7d016" y="359.241244432"/>
     <use style="stroke:#000000;stroke-width:0.5;" x="468.800001235" xlink:href="#mc4bdc7d016" y="370.048950398"/>
     <use style="stroke:#000000;stroke-width:0.5;" x="481.199963131" xlink:href="#mc4bdc7d016" y="377.758446568"/>
     <use style="stroke:#000000;stroke-width:0.5;" x="493.600001029" xlink:href="#mc4bdc7d016" y="383.721578167"/>
     <use style="stroke:#000000;stroke-width:0.5;" x="505.999977884" xlink:href="#mc4bdc7d016" y="387.442718688"/>
    </g>
   </g>
   <g id="line2d_4">
    <path clip-path="url(#ped62ecbd31)" d="M 71.999972 388.8 
L 84.400018 385.388039 
L 96.800002 375.302007 
L 109.199992 359.983212 
L 121.600001 341.642853 
L 134.000028 325.295605 
L 146.400029 314.530399 
L 158.800006 308.329783 
L 171.200037 306.127616 
L 183.600022 307.132237 
L 196.000015 310.446546 
L 208.400046 315.079725 
L 220.800003 319.976706 
L 233.20003 319.829193 
L 245.600026 343.88093 
L 258.00005 343.360388 
L 270.40003 340.378596 
L 282.799991 335.356879 
L 295.199144 387.458632 
L 307.600014 335.703662 
L 319.999991 340.53146 
L 332.399961 343.357506 
L 344.800018 343.888049 
L 357.200001 319.882411 
L 369.599961 319.979243 
L 381.999972 315.112353 
L 394.400001 310.446288 
L 406.799985 307.132426 
L 419.199979 306.129883 
L 431.599943 308.341086 
L 443.99997 314.530521 
L 456.4 325.29521 
L 468.800001 341.643033 
L 481.199963 359.983122 
L 493.600001 375.3012 
L 505.999978 385.387207 
" style="fill:none;stroke:#ff00ff;stroke-linecap:square;"/>
    <defs>
     <path d="M -3 3 
L 3 -3 
M -3 -3 
L 3 3 
" id="m905548703f" style="stroke:#ff00ff;stroke-width:0.5;"/>
    </defs>
    <g clip-path="url(#ped62ecbd31)">
     <use style="fill:#ff00ff;stroke:#ff00ff;stroke-width:0.5;" x="71.999971674" xlink:href="#m905548703f" y="388.8"/>
     <use style="fill:#ff00ff;stroke:#ff00ff;stroke-width:0.5;" x="84.4000182775" xlink:href="#m905548703f" y="385.388038938"/>
     <use style="fill:#ff00ff;stroke:#ff00ff;stroke-width:0.5;" x="96.8000023025" xlink:href="#m905548703f" y="375.302006685"/>
     <use style="fill:#ff00ff;stroke:#ff00ff;stroke-width:0.5;" x="109.199992453" xlink:href="#m905548703f" y="359.983212092"/>
     <use style="fill:#ff00ff;stroke:#ff00ff;stroke-width:0.5;" x="121.600000673" xlink:href="#m905548703f" y="341.642852804"/>
     <use style="fill:#ff00ff;stroke:#ff00ff;stroke-width:0.5;" x="134.000027601" xlink:href="#m905548703f" y="325.295604991"/>
     <use style="fill:#ff00ff;stroke:#ff00ff;stroke-width:0.5;" x="146.400029122" xlink:href="#m905548703f" y="314.530398851"/>
     <use style="fill:#ff00ff;stroke:#ff00ff;stroke-width:0.5;" x="158.800006363" xlink:href="#m905548703f" y="308.329783196"/>
     <use style="fill:#ff00ff;stroke:#ff00ff;stroke-width:0.5;" x="171.200037095" xlink:href="#m905548703f" y="306.127616233"/>
     <use style="fill:#ff00ff;stroke:#ff00ff;stroke-width:0.5;" x="183.600021829" xlink:href="#m905548703f" y="307.13223675"/>
     <use style="fill:#ff00ff;stroke:#ff00ff;stroke-width:0.5;" x="196.000015255" xlink:href="#m905548703f" y="310.446545561"/>
     <use style="fill:#ff00ff;stroke:#ff00ff;stroke-width:0.5;" x="208.400045572" xlink:href="#m905548703f" y="315.079724626"/>
     <use style="fill:#ff00ff;stroke:#ff00ff;stroke-width:0.5;" x="220.800002699" xlink:href="#m905548703f" y="319.976706428"/>
     <use style="fill:#ff00ff;stroke:#ff00ff;stroke-width:0.5;" x="233.200029696" xlink:href="#m905548703f" y="319.82919309"/>
     <use style="fill:#ff00ff;stroke:#ff00ff;stroke-width:0.5;" x="245.600026322" xlink:href="#m905548703f" y="343.880929898"/>
     <use style="fill:#ff00ff;stroke:#ff00ff;stroke-width:0.5;" x="258.000049614" xlink:href="#m905548703f" y="343.360388453"/>
     <use style="fill:#ff00ff;stroke:#ff00ff;stroke-width:0.5;" x="270.400030111" xlink:href="#m905548703f" y="340.378595957"/>
     <use style="fill:#ff00ff;stroke:#ff00ff;stroke-width:0.5;" x="282.79999103" xlink:href="#m905548703f" y="335.356878641"/>
     <use style="fill:#ff00ff;stroke:#ff00ff;stroke-width:0.5;" x="295.199143596" xlink:href="#m905548703f" y="387.458632001"/>
     <use style="fill:#ff00ff;stroke:#ff00ff;stroke-width:0.5;" x="307.600013666" xlink:href="#m905548703f" y="335.703661952"/>
     <use style="fill:#ff00ff;stroke:#ff00ff;stroke-width:0.5;" x="319.999991402" xlink:href="#m905548703f" y="340.531459698"/>
     <use style="fill:#ff00ff;stroke:#ff00ff;stroke-width:0.5;" x="332.399961293" xlink:href="#m905548703f" y="343.357505992"/>
     <use style="fill:#ff00ff;stroke:#ff00ff;stroke-width:0.5;" x="344.80001806" xlink:href="#m905548703f" y="343.888049342"/>
     <use style="fill:#ff00ff;stroke:#ff00ff;stroke-width:0.5;" x="357.200000534" xlink:href="#m905548703f" y="319.882410614"/>
     <use style="fill:#ff00ff;stroke:#ff00ff;stroke-width:0.5;" x="369.599960687" xlink:href="#m905548703f" y="319.979243387"/>
     <use style="fill:#ff00ff;stroke:#ff00ff;stroke-width:0.5;" x="381.999972352" xlink:href="#m905548703f" y="315.112352851"/>
     <use style="fill:#ff00ff;stroke:#ff00ff;stroke-width:0.5;" x="394.400001115" xlink:href="#m905548703f" y="310.446288016"/>
     <use style="fill:#ff00ff;stroke:#ff00ff;stroke-width:0.5;" x="406.799984975" xlink:href="#m905548703f" y="307.13242564"/>
     <use style="fill:#ff00ff;stroke:#ff00ff;stroke-width:0.5;" x="419.199978646" xlink:href="#m905548703f" y="306.129883365"/>
     <use style="fill:#ff00ff;stroke:#ff00ff;stroke-width:0.5;" x="431.599942836" xlink:href="#m905548703f" y="308.341085501"/>
     <use style="fill:#ff00ff;stroke:#ff00ff;stroke-width:0.5;" x="443.999969875" xlink:href="#m905548703f" y="314.530520982"/>
     <use style="fill:#ff00ff;stroke:#ff00ff;stroke-width:0.5;" x="456.400000299" xlink:href="#m905548703f" y="325.295210168"/>
     <use style="fill:#ff00ff;stroke:#ff00ff;stroke-width:0.5;" x="468.800001235" xlink:href="#m905548703f" y="341.643033298"/>
     <use style="fill:#ff00ff;stroke:#ff00ff;stroke-width:0.5;" x="481.199963131" xlink:href="#m905548703f" y="359.983121827"/>
     <use style="fill:#ff00ff;stroke:#ff00ff;stroke-width:0.5;" x="493.600001029" xlink:href="#m905548703f" y="375.301199796"/>
     <use style="fill:#ff00ff;stroke:#ff00ff;stroke-width:0.5;" x="505.999977884" xlink:href="#m905548703f" y="385.387206549"/>
    </g>
   </g>
   <g id="line2d_5">
    <path clip-path="url(#ped62ecbd31)" d="M 71.999972 388.8 
L 84.400018 383.534868 
L 96.800002 368.901528 
L 109.199992 347.271055 
L 121.600001 322.293475 
L 134.000028 295.846938 
L 146.400029 269.906013 
L 158.800006 248.351491 
L 171.200037 232.357099 
L 183.600022 221.385053 
L 196.000015 213.919666 
L 208.400046 208.554632 
L 220.800003 204.560492 
L 233.20003 206.328819 
L 245.600026 188.737815 
L 258.00005 194.732982 
L 270.40003 200.300496 
L 282.799991 204.116588 
L 295.199144 101.311626 
L 307.600014 203.767753 
L 319.999991 200.147132 
L 332.399961 194.735815 
L 344.800018 188.730362 
L 357.200001 206.272032 
L 369.599961 204.557943 
L 381.999972 208.521745 
L 394.400001 213.91992 
L 406.799985 221.384867 
L 419.199979 232.354343 
L 431.599943 248.340112 
L 443.99997 269.905894 
L 456.4 295.847427 
L 468.800001 322.293309 
L 481.199963 347.270993 
L 493.600001 368.902338 
L 505.999978 383.535697 
" style="fill:none;stroke:#008000;stroke-linecap:square;"/>
    <defs>
     <path d="M 0 3 
C 0.795609 3 1.55874 2.683901 2.12132 2.12132 
C 2.683901 1.55874 3 0.795609 3 0 
C 3 -0.795609 2.683901 -1.55874 2.12132 -2.12132 
C 1.55874 -2.683901 0.795609 -3 0 -3 
C -0.795609 -3 -1.55874 -2.683901 -2.12132 -2.12132 
C -2.683901 -1.55874 -3 -0.795609 -3 0 
C -3 0.795609 -2.683901 1.55874 -2.12132 2.12132 
C -1.55874 2.683901 -0.795609 3 0 3 
z
" id="m27118818aa" style="stroke:#000000;stroke-width:0.5;"/>
    </defs>
    <g clip-path="url(#ped62ecbd31)">
     <use style="fill:#008000;stroke:#000000;stroke-width:0.5;" x="71.999971674" xlink:href="#m27118818aa" y="388.8"/>
     <use style="fill:#008000;stroke:#000000;stroke-width:0.5;" x="84.4000182775" xlink:href="#m27118818aa" y="383.534867882"/>
     <use style="fill:#008000;stroke:#000000;stroke-width:0.5;" x="96.8000023025" xlink:href="#m27118818aa" y="368.901527768"/>
     <use style="fill:#008000;stroke:#000000;stroke-width:0.5;" x="109.199992453" xlink:href="#m27118818aa" y="347.271055051"/>
     <use style="fill:#008000;stroke:#000000;stroke-width:0.5;" x="121.600000673" xlink:href="#m27118818aa" y="322.293474607"/>
     <use style="fill:#008000;stroke:#000000;stroke-width:0.5;" x="134.000027601" xlink:href="#m27118818aa" y="295.846938218"/>
     <use style="fill:#008000;stroke:#000000;stroke-width:0.5;" x="146.400029122" xlink:href="#m27118818aa" y="269.906013114"/>
     <use style="fill:#008000;stroke:#000000;stroke-width:0.5;" x="158.800006363" xlink:href="#m27118818aa" y="248.351491357"/>
     <use style="fill:#008000;stroke:#000000;stroke-width:0.5;" x="171.200037095" xlink:href="#m27118818aa" y="232.357098963"/>
     <use style="fill:#008000;stroke:#000000;stroke-width:0.5;" x="183.600021829" xlink:href="#m27118818aa" y="221.385052806"/>
     <use style="fill:#008000;stroke:#000000;stroke-width:0.5;" x="196.000015255" xlink:href="#m27118818aa" y="213.919666303"/>
     <use style="fill:#008000;stroke:#000000;stroke-width:0.5;" x="208.400045572" xlink:href="#m27118818aa" y="208.554631995"/>
     <use style="fill:#008000;stroke:#000000;stroke-width:0.5;" x="220.800002699" xlink:href="#m27118818aa" y="204.560491577"/>
     <use style="fill:#008000;stroke:#000000;stroke-width:0.5;" x="233.200029696" xlink:href="#m27118818aa" y="206.328818959"/>
     <use style="fill:#008000;stroke:#000000;stroke-width:0.5;" x="245.600026322" xlink:href="#m27118818aa" y="188.737815028"/>
     <use style="fill:#008000;stroke:#000000;stroke-width:0.5;" x="258.000049614" xlink:href="#m27118818aa" y="194.732981974"/>
     <use style="fill:#008000;stroke:#000000;stroke-width:0.5;" x="270.400030111" xlink:href="#m27118818aa" y="200.300496027"/>
     <use style="fill:#008000;stroke:#000000;stroke-width:0.5;" x="282.79999103" xlink:href="#m27118818aa" y="204.116587985"/>
     <use style="fill:#008000;stroke:#000000;stroke-width:0.5;" x="295.199143596" xlink:href="#m27118818aa" y="101.311625985"/>
     <use style="fill:#008000;stroke:#000000;stroke-width:0.5;" x="307.600013666" xlink:href="#m27118818aa" y="203.767753496"/>
     <use style="fill:#008000;stroke:#000000;stroke-width:0.5;" x="319.999991402" xlink:href="#m27118818aa" y="200.147131514"/>
     <use style="fill:#008000;stroke:#000000;stroke-width:0.5;" x="332.399961293" xlink:href="#m27118818aa" y="194.735814905"/>
     <use style="fill:#008000;stroke:#000000;stroke-width:0.5;" x="344.80001806" xlink:href="#m27118818aa" y="188.730361539"/>
     <use style="fill:#008000;stroke:#000000;stroke-width:0.5;" x="357.200000534" xlink:href="#m27118818aa" y="206.272032228"/>
     <use style="fill:#008000;stroke:#000000;stroke-width:0.5;" x="369.599960687" xlink:href="#m27118818aa" y="204.557942773"/>
     <use style="fill:#008000;stroke:#000000;stroke-width:0.5;" x="381.999972352" xlink:href="#m27118818aa" y="208.521744902"/>
     <use style="fill:#008000;stroke:#000000;stroke-width:0.5;" x="394.400001115" xlink:href="#m27118818aa" y="213.919920499"/>
     <use style="fill:#008000;stroke:#000000;stroke-width:0.5;" x="406.799984975" xlink:href="#m27118818aa" y="221.384866675"/>
     <use style="fill:#008000;stroke:#000000;stroke-width:0.5;" x="419.199978646" xlink:href="#m27118818aa" y="232.354343058"/>
     <use style="fill:#008000;stroke:#000000;stroke-width:0.5;" x="431.599942836" xlink:href="#m27118818aa" y="248.340112158"/>
     <use style="fill:#008000;stroke:#000000;stroke-width:0.5;" x="443.999969875" xlink:href="#m27118818aa" y="269.905893863"/>
     <use style="fill:#008000;stroke:#000000;stroke-width:0.5;" x="456.400000299" xlink:href="#m27118818aa" y="295.84742683"/>
     <use style="fill:#008000;stroke:#000000;stroke-width:0.5;" x="468.800001235" xlink:href="#m27118818aa" y="322.29330936"/>
     <use style="fill:#008000;stroke:#000000;stroke-width:0.5;" x="481.199963131" xlink:href="#m27118818aa" y="347.2709928"/>
     <use style="fill:#008000;stroke:#000000;stroke-width:0.5;" x="493.600001029" xlink:href="#m27118818aa" y="368.902338005"/>
     <use style="fill:#008000;stroke:#000000;stroke-width:0.5;" x="505.999977884" xlink:href="#m27118818aa" y="383.535697029"/>
    </g>
   </g>
   <g id="patch_3">
    <path d="M 72 43.2 
L 518.4 43.2 
" style="fill:none;stroke:#000000;stroke-linecap:square;stroke-linejoin:miter;"/>
   </g>
   <g id="patch_4">
    <path d="M 72 388.8 
L 518.4 388.8 
" style="fill:none;stroke:#000000;stroke-linecap:square;stroke-linejoin:miter;"/>
   </g>
   <g id="patch_5">
    <path d="M 72 388.8 
L 72 43.2 
" style="fill:none;stroke:#000000;stroke-linecap:square;stroke-linejoin:miter;"/>
   </g>
   <g id="patch_6">
    <path d="M 518.4 388.8 
L 518.4 43.2 
" style="fill:none;stroke:#000000;stroke-linecap:square;stroke-linejoin:miter;"/>
   </g>
   <g id="matplotlib.axis_1">
    <g id="xtick_1">
     <g id="line2d_6">
      <defs>
       <path d="M 0 0 
L 0 -4 
" id="m1a56001b88" style="stroke:#000000;stroke-width:0.5;"/>
      </defs>
      <g>
       <use style="stroke:#000000;stroke-width:0.5;" x="72.0" xlink:href="#m1a56001b88" y="388.8"/>
      </g>
     </g>
     <g id="line2d_7">
      <defs>
       <path d="M 0 0 
L 0 4 
" id="m693d67378f" style="stroke:#000000;stroke-width:0.5;"/>
      </defs>
      <g>
       <use style="stroke:#000000;stroke-width:0.5;" x="72.0" xlink:href="#m693d67378f" y="43.2"/>
      </g>
     </g>
     <g id="text_1">
      <!-- −180 -->
      <defs>
       <path d="M 31.78125 34.625 
Q 24.75 34.625 20.71875 30.859375 
Q 16.703125 27.09375 16.703125 20.515625 
Q 16.703125 13.921875 20.71875 10.15625 
Q 24.75 6.390625 31.78125 6.390625 
Q 38.8125 6.390625 42.859375 10.171875 
Q 46.921875 13.96875 46.921875 20.515625 
Q 46.921875 27.09375 42.890625 30.859375 
Q 38.875 34.625 31.78125 34.625 
M 21.921875 38.8125 
Q 15.578125 40.375 12.03125 44.71875 
Q 8.5 49.078125 8.5 55.328125 
Q 8.5 64.0625 14.71875 69.140625 
Q 20.953125 74.21875 31.78125 74.21875 
Q 42.671875 74.21875 48.875 69.140625 
Q 55.078125 64.0625 55.078125 55.328125 
Q 55.078125 49.078125 51.53125 44.71875 
Q 48 40.375 41.703125 38.8125 
Q 48.828125 37.15625 52.796875 32.3125 
Q 56.78125 27.484375 56.78125 20.515625 
Q 56.78125 9.90625 50.3125 4.234375 
Q 43.84375 -1.421875 31.78125 -1.421875 
Q 19.734375 -1.421875 13.25 4.234375 
Q 6.78125 9.90625 6.78125 20.515625 
Q 6.78125 27.484375 10.78125 32.3125 
Q 14.796875 37.15625 21.921875 38.8125 
M 18.3125 54.390625 
Q 18.3125 48.734375 21.84375 45.5625 
Q 25.390625 42.390625 31.78125 42.390625 
Q 38.140625 42.390625 41.71875 45.5625 
Q 45.3125 48.734375 45.3125 54.390625 
Q 45.3125 60.0625 41.71875 63.234375 
Q 38.140625 66.40625 31.78125 66.40625 
Q 25.390625 66.40625 21.84375 63.234375 
Q 18.3125 60.0625 18.3125 54.390625 
" id="BitstreamVeraSans-Roman-38"/>
       <path d="M 31.78125 66.40625 
Q 24.171875 66.40625 20.328125 58.90625 
Q 16.5 51.421875 16.5 36.375 
Q 16.5 21.390625 20.328125 13.890625 
Q 24.171875 6.390625 31.78125 6.390625 
Q 39.453125 6.390625 43.28125 13.890625 
Q 47.125 21.390625 47.125 36.375 
Q 47.125 51.421875 43.28125 58.90625 
Q 39.453125 66.40625 31.78125 66.40625 
M 31.78125 74.21875 
Q 44.046875 74.21875 50.515625 64.515625 
Q 56.984375 54.828125 56.984375 36.375 
Q 56.984375 17.96875 50.515625 8.265625 
Q 44.046875 -1.421875 31.78125 -1.421875 
Q 19.53125 -1.421875 13.0625 8.265625 
Q 6.59375 17.96875 6.59375 36.375 
Q 6.59375 54.828125 13.0625 64.515625 
Q 19.53125 74.21875 31.78125 74.21875 
" id="BitstreamVeraSans-Roman-30"/>
       <path d="M 10.59375 35.5 
L 73.1875 35.5 
L 73.1875 27.203125 
L 10.59375 27.203125 
z
" id="BitstreamVeraSans-Roman-2212"/>
       <path d="M 12.40625 8.296875 
L 28.515625 8.296875 
L 28.515625 63.921875 
L 10.984375 60.40625 
L 10.984375 69.390625 
L 28.421875 72.90625 
L 38.28125 72.90625 
L 38.28125 8.296875 
L 54.390625 8.296875 
L 54.390625 0 
L 12.40625 0 
z
" id="BitstreamVeraSans-Roman-31"/>
      </defs>
      <g transform="translate(55.5196875 401.918125)scale(0.12 -0.12)">
       <use xlink:href="#BitstreamVeraSans-Roman-2212"/>
       <use x="83.7890625" xlink:href="#BitstreamVeraSans-Roman-31"/>
       <use x="147.412109375" xlink:href="#BitstreamVeraSans-Roman-38"/>
       <use x="211.03515625" xlink:href="#BitstreamVeraSans-Roman-30"/>
      </g>
     </g>
    </g>
    <g id="xtick_2">
     <g id="line2d_8">
      <g>
       <use style="stroke:#000000;stroke-width:0.5;" x="127.8" xlink:href="#m1a56001b88" y="388.8"/>
      </g>
     </g>
     <g id="line2d_9">
      <g>
       <use style="stroke:#000000;stroke-width:0.5;" x="127.8" xlink:href="#m693d67378f" y="43.2"/>
      </g>
     </g>
     <g id="text_2">
      <!-- −135 -->
      <defs>
       <path d="M 40.578125 39.3125 
Q 47.65625 37.796875 51.625 33 
Q 55.609375 28.21875 55.609375 21.1875 
Q 55.609375 10.40625 48.1875 4.484375 
Q 40.765625 -1.421875 27.09375 -1.421875 
Q 22.515625 -1.421875 17.65625 -0.515625 
Q 12.796875 0.390625 7.625 2.203125 
L 7.625 11.71875 
Q 11.71875 9.328125 16.59375 8.109375 
Q 21.484375 6.890625 26.8125 6.890625 
Q 36.078125 6.890625 40.9375 10.546875 
Q 45.796875 14.203125 45.796875 21.1875 
Q 45.796875 27.640625 41.28125 31.265625 
Q 36.765625 34.90625 28.71875 34.90625 
L 20.21875 34.90625 
L 20.21875 43.015625 
L 29.109375 43.015625 
Q 36.375 43.015625 40.234375 45.921875 
Q 44.09375 48.828125 44.09375 54.296875 
Q 44.09375 59.90625 40.109375 62.90625 
Q 36.140625 65.921875 28.71875 65.921875 
Q 24.65625 65.921875 20.015625 65.03125 
Q 15.375 64.15625 9.8125 62.3125 
L 9.8125 71.09375 
Q 15.4375 72.65625 20.34375 73.4375 
Q 25.25 74.21875 29.59375 74.21875 
Q 40.828125 74.21875 47.359375 69.109375 
Q 53.90625 64.015625 53.90625 55.328125 
Q 53.90625 49.265625 50.4375 45.09375 
Q 46.96875 40.921875 40.578125 39.3125 
" id="BitstreamVeraSans-Roman-33"/>
       <path d="M 10.796875 72.90625 
L 49.515625 72.90625 
L 49.515625 64.59375 
L 19.828125 64.59375 
L 19.828125 46.734375 
Q 21.96875 47.46875 24.109375 47.828125 
Q 26.265625 48.1875 28.421875 48.1875 
Q 40.625 48.1875 47.75 41.5 
Q 54.890625 34.8125 54.890625 23.390625 
Q 54.890625 11.625 47.5625 5.09375 
Q 40.234375 -1.421875 26.90625 -1.421875 
Q 22.3125 -1.421875 17.546875 -0.640625 
Q 12.796875 0.140625 7.71875 1.703125 
L 7.71875 11.625 
Q 12.109375 9.234375 16.796875 8.0625 
Q 21.484375 6.890625 26.703125 6.890625 
Q 35.15625 6.890625 40.078125 11.328125 
Q 45.015625 15.765625 45.015625 23.390625 
Q 45.015625 31 40.078125 35.4375 
Q 35.15625 39.890625 26.703125 39.890625 
Q 22.75 39.890625 18.8125 39.015625 
Q 14.890625 38.140625 10.796875 36.28125 
z
" id="BitstreamVeraSans-Roman-35"/>
      </defs>
      <g transform="translate(111.3196875 401.918125)scale(0.12 -0.12)">
       <use xlink:href="#BitstreamVeraSans-Roman-2212"/>
       <use x="83.7890625" xlink:href="#BitstreamVeraSans-Roman-31"/>
       <use x="147.412109375" xlink:href="#BitstreamVeraSans-Roman-33"/>
       <use x="211.03515625" xlink:href="#BitstreamVeraSans-Roman-35"/>
      </g>
     </g>
    </g>
    <g id="xtick_3">
     <g id="line2d_10">
      <g>
       <use style="stroke:#000000;stroke-width:0.5;" x="183.6" xlink:href="#m1a56001b88" y="388.8"/>
      </g>
     </g>
     <g id="line2d_11">
      <g>
       <use style="stroke:#000000;stroke-width:0.5;" x="183.6" xlink:href="#m693d67378f" y="43.2"/>
      </g>
     </g>
     <g id="text_3">
      <!-- −90 -->
      <defs>
       <path d="M 10.984375 1.515625 
L 10.984375 10.5 
Q 14.703125 8.734375 18.5 7.8125 
Q 22.3125 6.890625 25.984375 6.890625 
Q 35.75 6.890625 40.890625 13.453125 
Q 46.046875 20.015625 46.78125 33.40625 
Q 43.953125 29.203125 39.59375 26.953125 
Q 35.25 24.703125 29.984375 24.703125 
Q 19.046875 24.703125 12.671875 31.3125 
Q 6.296875 37.9375 6.296875 49.421875 
Q 6.296875 60.640625 12.9375 67.421875 
Q 19.578125 74.21875 30.609375 74.21875 
Q 43.265625 74.21875 49.921875 64.515625 
Q 56.59375 54.828125 56.59375 36.375 
Q 56.59375 19.140625 48.40625 8.859375 
Q 40.234375 -1.421875 26.421875 -1.421875 
Q 22.703125 -1.421875 18.890625 -0.6875 
Q 15.09375 0.046875 10.984375 1.515625 
M 30.609375 32.421875 
Q 37.25 32.421875 41.125 36.953125 
Q 45.015625 41.5 45.015625 49.421875 
Q 45.015625 57.28125 41.125 61.84375 
Q 37.25 66.40625 30.609375 66.40625 
Q 23.96875 66.40625 20.09375 61.84375 
Q 16.21875 57.28125 16.21875 49.421875 
Q 16.21875 41.5 20.09375 36.953125 
Q 23.96875 32.421875 30.609375 32.421875 
" id="BitstreamVeraSans-Roman-39"/>
      </defs>
      <g transform="translate(170.9371875 401.918125)scale(0.12 -0.12)">
       <use xlink:href="#BitstreamVeraSans-Roman-2212"/>
       <use x="83.7890625" xlink:href="#BitstreamVeraSans-Roman-39"/>
       <use x="147.412109375" xlink:href="#BitstreamVeraSans-Roman-30"/>
      </g>
     </g>
    </g>
    <g id="xtick_4">
     <g id="line2d_12">
      <g>
       <use style="stroke:#000000;stroke-width:0.5;" x="239.4" xlink:href="#m1a56001b88" y="388.8"/>
      </g>
     </g>
     <g id="line2d_13">
      <g>
       <use style="stroke:#000000;stroke-width:0.5;" x="239.4" xlink:href="#m693d67378f" y="43.2"/>
      </g>
     </g>
     <g id="text_4">
      <!-- −45 -->
      <defs>
       <path d="M 37.796875 64.3125 
L 12.890625 25.390625 
L 37.796875 25.390625 
z
M 35.203125 72.90625 
L 47.609375 72.90625 
L 47.609375 25.390625 
L 58.015625 25.390625 
L 58.015625 17.1875 
L 47.609375 17.1875 
L 47.609375 0 
L 37.796875 0 
L 37.796875 17.1875 
L 4.890625 17.1875 
L 4.890625 26.703125 
z
" id="BitstreamVeraSans-Roman-34"/>
      </defs>
      <g transform="translate(226.7371875 401.918125)scale(0.12 -0.12)">
       <use xlink:href="#BitstreamVeraSans-Roman-2212"/>
       <use x="83.7890625" xlink:href="#BitstreamVeraSans-Roman-34"/>
       <use x="147.412109375" xlink:href="#BitstreamVeraSans-Roman-35"/>
      </g>
     </g>
    </g>
    <g id="xtick_5">
     <g id="line2d_14">
      <g>
       <use style="stroke:#000000;stroke-width:0.5;" x="295.2" xlink:href="#m1a56001b88" y="388.8"/>
      </g>
     </g>
     <g id="line2d_15">
      <g>
       <use style="stroke:#000000;stroke-width:0.5;" x="295.2" xlink:href="#m693d67378f" y="43.2"/>
      </g>
     </g>
     <g id="text_5">
      <!-- 0 -->
      <g transform="translate(291.3825 401.918125)scale(0.12 -0.12)">
       <use xlink:href="#BitstreamVeraSans-Roman-30"/>
      </g>
     </g>
    </g>
    <g id="xtick_6">
     <g id="line2d_16">
      <g>
       <use style="stroke:#000000;stroke-width:0.5;" x="351.0" xlink:href="#m1a56001b88" y="388.8"/>
      </g>
     </g>
     <g id="line2d_17">
      <g>
       <use style="stroke:#000000;stroke-width:0.5;" x="351.0" xlink:href="#m693d67378f" y="43.2"/>
      </g>
     </g>
     <g id="text_6">
      <!-- 45 -->
      <g transform="translate(343.365 401.918125)scale(0.12 -0.12)">
       <use xlink:href="#BitstreamVeraSans-Roman-34"/>
       <use x="63.623046875" xlink:href="#BitstreamVeraSans-Roman-35"/>
      </g>
     </g>
    </g>
    <g id="xtick_7">
     <g id="line2d_18">
      <g>
       <use style="stroke:#000000;stroke-width:0.5;" x="406.8" xlink:href="#m1a56001b88" y="388.8"/>
      </g>
     </g>
     <g id="line2d_19">
      <g>
       <use style="stroke:#000000;stroke-width:0.5;" x="406.8" xlink:href="#m693d67378f" y="43.2"/>
      </g>
     </g>
     <g id="text_7">
      <!-- 90 -->
      <g transform="translate(399.165 401.918125)scale(0.12 -0.12)">
       <use xlink:href="#BitstreamVeraSans-Roman-39"/>
       <use x="63.623046875" xlink:href="#BitstreamVeraSans-Roman-30"/>
      </g>
     </g>
    </g>
    <g id="xtick_8">
     <g id="line2d_20">
      <g>
       <use style="stroke:#000000;stroke-width:0.5;" x="462.6" xlink:href="#m1a56001b88" y="388.8"/>
      </g>
     </g>
     <g id="line2d_21">
      <g>
       <use style="stroke:#000000;stroke-width:0.5;" x="462.6" xlink:href="#m693d67378f" y="43.2"/>
      </g>
     </g>
     <g id="text_8">
      <!-- 135 -->
      <g transform="translate(451.1475 401.918125)scale(0.12 -0.12)">
       <use xlink:href="#BitstreamVeraSans-Roman-31"/>
       <use x="63.623046875" xlink:href="#BitstreamVeraSans-Roman-33"/>
       <use x="127.24609375" xlink:href="#BitstreamVeraSans-Roman-35"/>
      </g>
     </g>
    </g>
    <g id="xtick_9">
     <g id="line2d_22">
      <g>
       <use style="stroke:#000000;stroke-width:0.5;" x="518.4" xlink:href="#m1a56001b88" y="388.8"/>
      </g>
     </g>
     <g id="line2d_23">
      <g>
       <use style="stroke:#000000;stroke-width:0.5;" x="518.4" xlink:href="#m693d67378f" y="43.2"/>
      </g>
     </g>
     <g id="text_9">
      <!-- 180 -->
      <g transform="translate(506.9475 401.918125)scale(0.12 -0.12)">
       <use xlink:href="#BitstreamVeraSans-Roman-31"/>
       <use x="63.623046875" xlink:href="#BitstreamVeraSans-Roman-38"/>
       <use x="127.24609375" xlink:href="#BitstreamVeraSans-Roman-30"/>
      </g>
     </g>
    </g>
    <g id="text_10">
     <!-- Phi -->
     <defs>
      <path d="M 19.671875 64.796875 
L 19.671875 37.40625 
L 32.078125 37.40625 
Q 38.96875 37.40625 42.71875 40.96875 
Q 46.484375 44.53125 46.484375 51.125 
Q 46.484375 57.671875 42.71875 61.234375 
Q 38.96875 64.796875 32.078125 64.796875 
z
M 9.8125 72.90625 
L 32.078125 72.90625 
Q 44.34375 72.90625 50.609375 67.359375 
Q 56.890625 61.8125 56.890625 51.125 
Q 56.890625 40.328125 50.609375 34.8125 
Q 44.34375 29.296875 32.078125 29.296875 
L 19.671875 29.296875 
L 19.671875 0 
L 9.8125 0 
z
" id="BitstreamVeraSans-Roman-50"/>
      <path d="M 9.421875 54.6875 
L 18.40625 54.6875 
L 18.40625 0 
L 9.421875 0 
z
M 9.421875 75.984375 
L 18.40625 75.984375 
L 18.40625 64.59375 
L 9.421875 64.59375 
z
" id="BitstreamVeraSans-Roman-69"/>
      <path d="M 54.890625 33.015625 
L 54.890625 0 
L 45.90625 0 
L 45.90625 32.71875 
Q 45.90625 40.484375 42.875 44.328125 
Q 39.84375 48.1875 33.796875 48.1875 
Q 26.515625 48.1875 22.3125 43.546875 
Q 18.109375 38.921875 18.109375 30.90625 
L 18.109375 0 
L 9.078125 0 
L 9.078125 75.984375 
L 18.109375 75.984375 
L 18.109375 46.1875 
Q 21.34375 51.125 25.703125 53.5625 
Q 30.078125 56 35.796875 56 
Q 45.21875 56 50.046875 50.171875 
Q 54.890625 44.34375 54.890625 33.015625 
" id="BitstreamVeraSans-Roman-68"/>
     </defs>
     <g transform="translate(286.1128125 418.531875)scale(0.12 -0.12)">
      <use xlink:href="#BitstreamVeraSans-Roman-50"/>
      <use x="60.302734375" xlink:href="#BitstreamVeraSans-Roman-68"/>
      <use x="123.681640625" xlink:href="#BitstreamVeraSans-Roman-69"/>
     </g>
    </g>
   </g>
   <g id="matplotlib.axis_2">
    <g id="ytick_1">
     <g id="line2d_24">
      <defs>
       <path d="M 0 0 
L 4 0 
" id="ma9c1a0471b" style="stroke:#000000;stroke-width:0.5;"/>
      </defs>
      <g>
       <use style="stroke:#000000;stroke-width:0.5;" x="72.0" xlink:href="#ma9c1a0471b" y="388.8"/>
      </g>
     </g>
     <g id="line2d_25">
      <defs>
       <path d="M 0 0 
L -4 0 
" id="mf7a1039482" style="stroke:#000000;stroke-width:0.5;"/>
      </defs>
      <g>
       <use style="stroke:#000000;stroke-width:0.5;" x="518.4" xlink:href="#mf7a1039482" y="388.8"/>
      </g>
     </g>
     <g id="text_11">
      <!-- 0 -->
      <g transform="translate(60.365 392.11125)scale(0.12 -0.12)">
       <use xlink:href="#BitstreamVeraSans-Roman-30"/>
      </g>
     </g>
    </g>
    <g id="ytick_2">
     <g id="line2d_26">
      <g>
       <use style="stroke:#000000;stroke-width:0.5;" x="72.0" xlink:href="#ma9c1a0471b" y="319.68"/>
      </g>
     </g>
     <g id="line2d_27">
      <g>
       <use style="stroke:#000000;stroke-width:0.5;" x="518.4" xlink:href="#mf7a1039482" y="319.68"/>
      </g>
     </g>
     <g id="text_12">
      <!-- 5 -->
      <g transform="translate(60.365 322.99125)scale(0.12 -0.12)">
       <use xlink:href="#BitstreamVeraSans-Roman-35"/>
      </g>
     </g>
    </g>
    <g id="ytick_3">
     <g id="line2d_28">
      <g>
       <use style="stroke:#000000;stroke-width:0.5;" x="72.0" xlink:href="#ma9c1a0471b" y="250.56"/>
      </g>
     </g>
     <g id="line2d_29">
      <g>
       <use style="stroke:#000000;stroke-width:0.5;" x="518.4" xlink:href="#mf7a1039482" y="250.56"/>
      </g>
     </g>
     <g id="text_13">
      <!-- 10 -->
      <g transform="translate(52.73 253.87125)scale(0.12 -0.12)">
       <use xlink:href="#BitstreamVeraSans-Roman-31"/>
       <use x="63.623046875" xlink:href="#BitstreamVeraSans-Roman-30"/>
      </g>
     </g>
    </g>
    <g id="ytick_4">
     <g id="line2d_30">
      <g>
       <use style="stroke:#000000;stroke-width:0.5;" x="72.0" xlink:href="#ma9c1a0471b" y="181.44"/>
      </g>
     </g>
     <g id="line2d_31">
      <g>
       <use style="stroke:#000000;stroke-width:0.5;" x="518.4" xlink:href="#mf7a1039482" y="181.44"/>
      </g>
     </g>
     <g id="text_14">
      <!-- 15 -->
      <g transform="translate(52.73 184.75125)scale(0.12 -0.12)">
       <use xlink:href="#BitstreamVeraSans-Roman-31"/>
       <use x="63.623046875" xlink:href="#BitstreamVeraSans-Roman-35"/>
      </g>
     </g>
    </g>
    <g id="ytick_5">
     <g id="line2d_32">
      <g>
       <use style="stroke:#000000;stroke-width:0.5;" x="72.0" xlink:href="#ma9c1a0471b" y="112.32"/>
      </g>
     </g>
     <g id="line2d_33">
      <g>
       <use style="stroke:#000000;stroke-width:0.5;" x="518.4" xlink:href="#mf7a1039482" y="112.32"/>
      </g>
     </g>
     <g id="text_15">
      <!-- 20 -->
      <defs>
       <path d="M 19.1875 8.296875 
L 53.609375 8.296875 
L 53.609375 0 
L 7.328125 0 
L 7.328125 8.296875 
Q 12.9375 14.109375 22.625 23.890625 
Q 32.328125 33.6875 34.8125 36.53125 
Q 39.546875 41.84375 41.421875 45.53125 
Q 43.3125 49.21875 43.3125 52.78125 
Q 43.3125 58.59375 39.234375 62.25 
Q 35.15625 65.921875 28.609375 65.921875 
Q 23.96875 65.921875 18.8125 64.3125 
Q 13.671875 62.703125 7.8125 59.421875 
L 7.8125 69.390625 
Q 13.765625 71.78125 18.9375 73 
Q 24.125 74.21875 28.421875 74.21875 
Q 39.75 74.21875 46.484375 68.546875 
Q 53.21875 62.890625 53.21875 53.421875 
Q 53.21875 48.921875 51.53125 44.890625 
Q 49.859375 40.875 45.40625 35.40625 
Q 44.1875 33.984375 37.640625 27.21875 
Q 31.109375 20.453125 19.1875 8.296875 
" id="BitstreamVeraSans-Roman-32"/>
      </defs>
      <g transform="translate(52.73 115.63125)scale(0.12 -0.12)">
       <use xlink:href="#BitstreamVeraSans-Roman-32"/>
       <use x="63.623046875" xlink:href="#BitstreamVeraSans-Roman-30"/>
      </g>
     </g>
    </g>
    <g id="ytick_6">
     <g id="line2d_34">
      <g>
       <use style="stroke:#000000;stroke-width:0.5;" x="72.0" xlink:href="#ma9c1a0471b" y="43.2"/>
      </g>
     </g>
     <g id="line2d_35">
      <g>
       <use style="stroke:#000000;stroke-width:0.5;" x="518.4" xlink:href="#mf7a1039482" y="43.2"/>
      </g>
     </g>
     <g id="text_16">
      <!-- 25 -->
      <g transform="translate(52.73 46.51125)scale(0.12 -0.12)">
       <use xlink:href="#BitstreamVeraSans-Roman-32"/>
       <use x="63.623046875" xlink:href="#BitstreamVeraSans-Roman-35"/>
      </g>
     </g>
    </g>
    <g id="text_17">
     <!-- kcal/mol -->
     <defs>
      <path d="M 52 44.1875 
Q 55.375 50.25 60.0625 53.125 
Q 64.75 56 71.09375 56 
Q 79.640625 56 84.28125 50.015625 
Q 88.921875 44.046875 88.921875 33.015625 
L 88.921875 0 
L 79.890625 0 
L 79.890625 32.71875 
Q 79.890625 40.578125 77.09375 44.375 
Q 74.3125 48.1875 68.609375 48.1875 
Q 61.625 48.1875 57.5625 43.546875 
Q 53.515625 38.921875 53.515625 30.90625 
L 53.515625 0 
L 44.484375 0 
L 44.484375 32.71875 
Q 44.484375 40.625 41.703125 44.40625 
Q 38.921875 48.1875 33.109375 48.1875 
Q 26.21875 48.1875 22.15625 43.53125 
Q 18.109375 38.875 18.109375 30.90625 
L 18.109375 0 
L 9.078125 0 
L 9.078125 54.6875 
L 18.109375 54.6875 
L 18.109375 46.1875 
Q 21.1875 51.21875 25.484375 53.609375 
Q 29.78125 56 35.6875 56 
Q 41.65625 56 45.828125 52.96875 
Q 50 49.953125 52 44.1875 
" id="BitstreamVeraSans-Roman-6d"/>
      <path d="M 9.421875 75.984375 
L 18.40625 75.984375 
L 18.40625 0 
L 9.421875 0 
z
" id="BitstreamVeraSans-Roman-6c"/>
      <path d="M 34.28125 27.484375 
Q 23.390625 27.484375 19.1875 25 
Q 14.984375 22.515625 14.984375 16.5 
Q 14.984375 11.71875 18.140625 8.90625 
Q 21.296875 6.109375 26.703125 6.109375 
Q 34.1875 6.109375 38.703125 11.40625 
Q 43.21875 16.703125 43.21875 25.484375 
L 43.21875 27.484375 
z
M 52.203125 31.203125 
L 52.203125 0 
L 43.21875 0 
L 43.21875 8.296875 
Q 40.140625 3.328125 35.546875 0.953125 
Q 30.953125 -1.421875 24.3125 -1.421875 
Q 15.921875 -1.421875 10.953125 3.296875 
Q 6 8.015625 6 15.921875 
Q 6 25.140625 12.171875 29.828125 
Q 18.359375 34.515625 30.609375 34.515625 
L 43.21875 34.515625 
L 43.21875 35.40625 
Q 43.21875 41.609375 39.140625 45 
Q 35.0625 48.390625 27.6875 48.390625 
Q 23 48.390625 18.546875 47.265625 
Q 14.109375 46.140625 10.015625 43.890625 
L 10.015625 52.203125 
Q 14.9375 54.109375 19.578125 55.046875 
Q 24.21875 56 28.609375 56 
Q 40.484375 56 46.34375 49.84375 
Q 52.203125 43.703125 52.203125 31.203125 
" id="BitstreamVeraSans-Roman-61"/>
      <path d="M 25.390625 72.90625 
L 33.6875 72.90625 
L 8.296875 -9.28125 
L 0 -9.28125 
z
" id="BitstreamVeraSans-Roman-2f"/>
      <path d="M 48.78125 52.59375 
L 48.78125 44.1875 
Q 44.96875 46.296875 41.140625 47.34375 
Q 37.3125 48.390625 33.40625 48.390625 
Q 24.65625 48.390625 19.8125 42.84375 
Q 14.984375 37.3125 14.984375 27.296875 
Q 14.984375 17.28125 19.8125 11.734375 
Q 24.65625 6.203125 33.40625 6.203125 
Q 37.3125 6.203125 41.140625 7.25 
Q 44.96875 8.296875 48.78125 10.40625 
L 48.78125 2.09375 
Q 45.015625 0.34375 40.984375 -0.53125 
Q 36.96875 -1.421875 32.421875 -1.421875 
Q 20.0625 -1.421875 12.78125 6.34375 
Q 5.515625 14.109375 5.515625 27.296875 
Q 5.515625 40.671875 12.859375 48.328125 
Q 20.21875 56 33.015625 56 
Q 37.15625 56 41.109375 55.140625 
Q 45.0625 54.296875 48.78125 52.59375 
" id="BitstreamVeraSans-Roman-63"/>
      <path d="M 30.609375 48.390625 
Q 23.390625 48.390625 19.1875 42.75 
Q 14.984375 37.109375 14.984375 27.296875 
Q 14.984375 17.484375 19.15625 11.84375 
Q 23.34375 6.203125 30.609375 6.203125 
Q 37.796875 6.203125 41.984375 11.859375 
Q 46.1875 17.53125 46.1875 27.296875 
Q 46.1875 37.015625 41.984375 42.703125 
Q 37.796875 48.390625 30.609375 48.390625 
M 30.609375 56 
Q 42.328125 56 49.015625 48.375 
Q 55.71875 40.765625 55.71875 27.296875 
Q 55.71875 13.875 49.015625 6.21875 
Q 42.328125 -1.421875 30.609375 -1.421875 
Q 18.84375 -1.421875 12.171875 6.21875 
Q 5.515625 13.875 5.515625 27.296875 
Q 5.515625 40.765625 12.171875 48.375 
Q 18.84375 56 30.609375 56 
" id="BitstreamVeraSans-Roman-6f"/>
      <path d="M 9.078125 75.984375 
L 18.109375 75.984375 
L 18.109375 31.109375 
L 44.921875 54.6875 
L 56.390625 54.6875 
L 27.390625 29.109375 
L 57.625 0 
L 45.90625 0 
L 18.109375 26.703125 
L 18.109375 0 
L 9.078125 0 
z
" id="BitstreamVeraSans-Roman-6b"/>
     </defs>
     <g transform="translate(45.234375 241.3209375)rotate(-90.0)scale(0.12 -0.12)">
      <use xlink:href="#BitstreamVeraSans-Roman-6b"/>
      <use x="57.91015625" xlink:href="#BitstreamVeraSans-Roman-63"/>
      <use x="112.890625" xlink:href="#BitstreamVeraSans-Roman-61"/>
      <use x="174.169921875" xlink:href="#BitstreamVeraSans-Roman-6c"/>
      <use x="201.953125" xlink:href="#BitstreamVeraSans-Roman-2f"/>
      <use x="235.64453125" xlink:href="#BitstreamVeraSans-Roman-6d"/>
      <use x="333.056640625" xlink:href="#BitstreamVeraSans-Roman-6f"/>
      <use x="394.23828125" xlink:href="#BitstreamVeraSans-Roman-6c"/>
     </g>
    </g>
   </g>
   <g id="text_18">
    <!-- C6-C7-O1-C8 -->
    <defs>
     <path d="M 33.015625 40.375 
Q 26.375 40.375 22.484375 35.828125 
Q 18.609375 31.296875 18.609375 23.390625 
Q 18.609375 15.53125 22.484375 10.953125 
Q 26.375 6.390625 33.015625 6.390625 
Q 39.65625 6.390625 43.53125 10.953125 
Q 47.40625 15.53125 47.40625 23.390625 
Q 47.40625 31.296875 43.53125 35.828125 
Q 39.65625 40.375 33.015625 40.375 
M 52.59375 71.296875 
L 52.59375 62.3125 
Q 48.875 64.0625 45.09375 64.984375 
Q 41.3125 65.921875 37.59375 65.921875 
Q 27.828125 65.921875 22.671875 59.328125 
Q 17.53125 52.734375 16.796875 39.40625 
Q 19.671875 43.65625 24.015625 45.921875 
Q 28.375 48.1875 33.59375 48.1875 
Q 44.578125 48.1875 50.953125 41.515625 
Q 57.328125 34.859375 57.328125 23.390625 
Q 57.328125 12.15625 50.6875 5.359375 
Q 44.046875 -1.421875 33.015625 -1.421875 
Q 20.359375 -1.421875 13.671875 8.265625 
Q 6.984375 17.96875 6.984375 36.375 
Q 6.984375 53.65625 15.1875 63.9375 
Q 23.390625 74.21875 37.203125 74.21875 
Q 40.921875 74.21875 44.703125 73.484375 
Q 48.484375 72.75 52.59375 71.296875 
" id="BitstreamVeraSans-Roman-36"/>
     <path d="M 64.40625 67.28125 
L 64.40625 56.890625 
Q 59.421875 61.53125 53.78125 63.8125 
Q 48.140625 66.109375 41.796875 66.109375 
Q 29.296875 66.109375 22.65625 58.46875 
Q 16.015625 50.828125 16.015625 36.375 
Q 16.015625 21.96875 22.65625 14.328125 
Q 29.296875 6.6875 41.796875 6.6875 
Q 48.140625 6.6875 53.78125 8.984375 
Q 59.421875 11.28125 64.40625 15.921875 
L 64.40625 5.609375 
Q 59.234375 2.09375 53.4375 0.328125 
Q 47.65625 -1.421875 41.21875 -1.421875 
Q 24.65625 -1.421875 15.125 8.703125 
Q 5.609375 18.84375 5.609375 36.375 
Q 5.609375 53.953125 15.125 64.078125 
Q 24.65625 74.21875 41.21875 74.21875 
Q 47.75 74.21875 53.53125 72.484375 
Q 59.328125 70.75 64.40625 67.28125 
" id="BitstreamVeraSans-Roman-43"/>
     <path d="M 8.203125 72.90625 
L 55.078125 72.90625 
L 55.078125 68.703125 
L 28.609375 0 
L 18.3125 0 
L 43.21875 64.59375 
L 8.203125 64.59375 
z
" id="BitstreamVeraSans-Roman-37"/>
     <path d="M 4.890625 31.390625 
L 31.203125 31.390625 
L 31.203125 23.390625 
L 4.890625 23.390625 
z
" id="BitstreamVeraSans-Roman-2d"/>
     <path d="M 39.40625 66.21875 
Q 28.65625 66.21875 22.328125 58.203125 
Q 16.015625 50.203125 16.015625 36.375 
Q 16.015625 22.609375 22.328125 14.59375 
Q 28.65625 6.59375 39.40625 6.59375 
Q 50.140625 6.59375 56.421875 14.59375 
Q 62.703125 22.609375 62.703125 36.375 
Q 62.703125 50.203125 56.421875 58.203125 
Q 50.140625 66.21875 39.40625 66.21875 
M 39.40625 74.21875 
Q 54.734375 74.21875 63.90625 63.9375 
Q 73.09375 53.65625 73.09375 36.375 
Q 73.09375 19.140625 63.90625 8.859375 
Q 54.734375 -1.421875 39.40625 -1.421875 
Q 24.03125 -1.421875 14.8125 8.828125 
Q 5.609375 19.09375 5.609375 36.375 
Q 5.609375 53.65625 14.8125 63.9375 
Q 24.03125 74.21875 39.40625 74.21875 
" id="BitstreamVeraSans-Roman-4f"/>
    </defs>
    <g transform="translate(248.33025 38.2)scale(0.144 -0.144)">
     <use xlink:href="#BitstreamVeraSans-Roman-43"/>
     <use x="69.82421875" xlink:href="#BitstreamVeraSans-Roman-36"/>
     <use x="133.447265625" xlink:href="#BitstreamVeraSans-Roman-2d"/>
     <use x="169.53125" xlink:href="#BitstreamVeraSans-Roman-43"/>
     <use x="239.35546875" xlink:href="#BitstreamVeraSans-Roman-37"/>
     <use x="302.978515625" xlink:href="#BitstreamVeraSans-Roman-2d"/>
     <use x="339.09375" xlink:href="#BitstreamVeraSans-Roman-4f"/>
     <use x="417.8046875" xlink:href="#BitstreamVeraSans-Roman-31"/>
     <use x="481.427734375" xlink:href="#BitstreamVeraSans-Roman-2d"/>
     <use x="517.51171875" xlink:href="#BitstreamVeraSans-Roman-43"/>
     <use x="587.3359375" xlink:href="#BitstreamVeraSans-Roman-38"/>
    </g>
   </g>
   <g id="legend_1">
    <g id="patch_7">
     <path d="M 406.15625 108.3125 
L 514.4 108.3125 
L 514.4 47.2 
L 406.15625 47.2 
z
" style="fill:#ffffff;stroke:#000000;stroke-linejoin:miter;"/>
    </g>
    <g id="line2d_36">
     <path d="M 411.75625 53.67875 
L 422.95625 53.67875 
" style="fill:none;stroke:#ff0000;stroke-linecap:square;"/>
    </g>
    <g id="line2d_37">
     <g>
      <use style="fill:#ff0000;stroke:#000000;stroke-width:0.5;" x="411.75625" xlink:href="#mdcd235c438" y="53.67875"/>
      <use style="fill:#ff0000;stroke:#000000;stroke-width:0.5;" x="422.95625" xlink:href="#mdcd235c438" y="53.67875"/>
     </g>
    </g>
    <g id="text_19">
     <!-- QM -->
     <defs>
      <path d="M 9.8125 72.90625 
L 24.515625 72.90625 
L 43.109375 23.296875 
L 61.8125 72.90625 
L 76.515625 72.90625 
L 76.515625 0 
L 66.890625 0 
L 66.890625 64.015625 
L 48.09375 14.015625 
L 38.1875 14.015625 
L 19.390625 64.015625 
L 19.390625 0 
L 9.8125 0 
z
" id="BitstreamVeraSans-Roman-4d"/>
      <path d="M 39.40625 66.21875 
Q 28.65625 66.21875 22.328125 58.203125 
Q 16.015625 50.203125 16.015625 36.375 
Q 16.015625 22.609375 22.328125 14.59375 
Q 28.65625 6.59375 39.40625 6.59375 
Q 50.140625 6.59375 56.421875 14.59375 
Q 62.703125 22.609375 62.703125 36.375 
Q 62.703125 50.203125 56.421875 58.203125 
Q 50.140625 66.21875 39.40625 66.21875 
M 53.21875 1.3125 
L 66.21875 -12.890625 
L 54.296875 -12.890625 
L 43.5 -1.21875 
Q 41.890625 -1.3125 41.03125 -1.359375 
Q 40.1875 -1.421875 39.40625 -1.421875 
Q 24.03125 -1.421875 14.8125 8.859375 
Q 5.609375 19.140625 5.609375 36.375 
Q 5.609375 53.65625 14.8125 63.9375 
Q 24.03125 74.21875 39.40625 74.21875 
Q 54.734375 74.21875 63.90625 63.9375 
Q 73.09375 53.65625 73.09375 36.375 
Q 73.09375 23.6875 67.984375 14.640625 
Q 62.890625 5.609375 53.21875 1.3125 
" id="BitstreamVeraSans-Roman-51"/>
     </defs>
     <g transform="translate(431.75625 56.47875)scale(0.08 -0.08)">
      <use xlink:href="#BitstreamVeraSans-Roman-51"/>
      <use x="78.7109375" xlink:href="#BitstreamVeraSans-Roman-4d"/>
     </g>
    </g>
    <g id="line2d_38">
     <path d="M 411.75625 65.42125 
L 422.95625 65.42125 
" style="fill:none;stroke:#0000ff;stroke-linecap:square;"/>
    </g>
    <g id="line2d_39">
     <g>
      <use style="fill:#0000ff;stroke:#000000;stroke-width:0.5;" x="411.75625" xlink:href="#mfc69079119" y="65.42125"/>
      <use style="fill:#0000ff;stroke:#000000;stroke-width:0.5;" x="422.95625" xlink:href="#mfc69079119" y="65.42125"/>
     </g>
    </g>
    <g id="text_20">
     <!-- MM Original -->
     <defs>
      <path d="M 41.109375 46.296875 
Q 39.59375 47.171875 37.8125 47.578125 
Q 36.03125 48 33.890625 48 
Q 26.265625 48 22.1875 43.046875 
Q 18.109375 38.09375 18.109375 28.8125 
L 18.109375 0 
L 9.078125 0 
L 9.078125 54.6875 
L 18.109375 54.6875 
L 18.109375 46.1875 
Q 20.953125 51.171875 25.484375 53.578125 
Q 30.03125 56 36.53125 56 
Q 37.453125 56 38.578125 55.875 
Q 39.703125 55.765625 41.0625 55.515625 
z
" id="BitstreamVeraSans-Roman-72"/>
      <path id="BitstreamVeraSans-Roman-20"/>
      <path d="M 54.890625 33.015625 
L 54.890625 0 
L 45.90625 0 
L 45.90625 32.71875 
Q 45.90625 40.484375 42.875 44.328125 
Q 39.84375 48.1875 33.796875 48.1875 
Q 26.515625 48.1875 22.3125 43.546875 
Q 18.109375 38.921875 18.109375 30.90625 
L 18.109375 0 
L 9.078125 0 
L 9.078125 54.6875 
L 18.109375 54.6875 
L 18.109375 46.1875 
Q 21.34375 51.125 25.703125 53.5625 
Q 30.078125 56 35.796875 56 
Q 45.21875 56 50.046875 50.171875 
Q 54.890625 44.34375 54.890625 33.015625 
" id="BitstreamVeraSans-Roman-6e"/>
      <path d="M 45.40625 27.984375 
Q 45.40625 37.75 41.375 43.109375 
Q 37.359375 48.484375 30.078125 48.484375 
Q 22.859375 48.484375 18.828125 43.109375 
Q 14.796875 37.75 14.796875 27.984375 
Q 14.796875 18.265625 18.828125 12.890625 
Q 22.859375 7.515625 30.078125 7.515625 
Q 37.359375 7.515625 41.375 12.890625 
Q 45.40625 18.265625 45.40625 27.984375 
M 54.390625 6.78125 
Q 54.390625 -7.171875 48.1875 -13.984375 
Q 42 -20.796875 29.203125 -20.796875 
Q 24.46875 -20.796875 20.265625 -20.09375 
Q 16.0625 -19.390625 12.109375 -17.921875 
L 12.109375 -9.1875 
Q 16.0625 -11.328125 19.921875 -12.34375 
Q 23.78125 -13.375 27.78125 -13.375 
Q 36.625 -13.375 41.015625 -8.765625 
Q 45.40625 -4.15625 45.40625 5.171875 
L 45.40625 9.625 
Q 42.625 4.78125 38.28125 2.390625 
Q 33.9375 0 27.875 0 
Q 17.828125 0 11.671875 7.65625 
Q 5.515625 15.328125 5.515625 27.984375 
Q 5.515625 40.671875 11.671875 48.328125 
Q 17.828125 56 27.875 56 
Q 33.9375 56 38.28125 53.609375 
Q 42.625 51.21875 45.40625 46.390625 
L 45.40625 54.6875 
L 54.390625 54.6875 
z
" id="BitstreamVeraSans-Roman-67"/>
     </defs>
     <g transform="translate(431.75625 68.22125)scale(0.08 -0.08)">
      <use xlink:href="#BitstreamVeraSans-Roman-4d"/>
      <use x="86.279296875" xlink:href="#BitstreamVeraSans-Roman-4d"/>
      <use x="172.55859375" xlink:href="#BitstreamVeraSans-Roman-20"/>
      <use x="204.345703125" xlink:href="#BitstreamVeraSans-Roman-4f"/>
      <use x="283.056640625" xlink:href="#BitstreamVeraSans-Roman-72"/>
      <use x="324.169921875" xlink:href="#BitstreamVeraSans-Roman-69"/>
      <use x="351.953125" xlink:href="#BitstreamVeraSans-Roman-67"/>
      <use x="415.4296875" xlink:href="#BitstreamVeraSans-Roman-69"/>
      <use x="443.212890625" xlink:href="#BitstreamVeraSans-Roman-6e"/>
      <use x="506.591796875" xlink:href="#BitstreamVeraSans-Roman-61"/>
      <use x="567.87109375" xlink:href="#BitstreamVeraSans-Roman-6c"/>
     </g>
    </g>
    <g id="line2d_40">
     <path d="M 411.75625 77.16375 
L 422.95625 77.16375 
" style="fill:none;stroke:#000000;stroke-linecap:square;"/>
    </g>
    <g id="line2d_41">
     <g>
      <use style="stroke:#000000;stroke-width:0.5;" x="411.75625" xlink:href="#mc4bdc7d016" y="77.16375"/>
      <use style="stroke:#000000;stroke-width:0.5;" x="422.95625" xlink:href="#mc4bdc7d016" y="77.16375"/>
     </g>
    </g>
    <g id="text_21">
     <!-- MM With phi zeroed -->
     <defs>
      <path d="M 45.40625 46.390625 
L 45.40625 75.984375 
L 54.390625 75.984375 
L 54.390625 0 
L 45.40625 0 
L 45.40625 8.203125 
Q 42.578125 3.328125 38.25 0.953125 
Q 33.9375 -1.421875 27.875 -1.421875 
Q 17.96875 -1.421875 11.734375 6.484375 
Q 5.515625 14.40625 5.515625 27.296875 
Q 5.515625 40.1875 11.734375 48.09375 
Q 17.96875 56 27.875 56 
Q 33.9375 56 38.25 53.625 
Q 42.578125 51.265625 45.40625 46.390625 
M 14.796875 27.296875 
Q 14.796875 17.390625 18.875 11.75 
Q 22.953125 6.109375 30.078125 6.109375 
Q 37.203125 6.109375 41.296875 11.75 
Q 45.40625 17.390625 45.40625 27.296875 
Q 45.40625 37.203125 41.296875 42.84375 
Q 37.203125 48.484375 30.078125 48.484375 
Q 22.953125 48.484375 18.875 42.84375 
Q 14.796875 37.203125 14.796875 27.296875 
" id="BitstreamVeraSans-Roman-64"/>
      <path d="M 3.328125 72.90625 
L 13.28125 72.90625 
L 28.609375 11.28125 
L 43.890625 72.90625 
L 54.984375 72.90625 
L 70.3125 11.28125 
L 85.59375 72.90625 
L 95.609375 72.90625 
L 77.296875 0 
L 64.890625 0 
L 49.515625 63.28125 
L 33.984375 0 
L 21.578125 0 
z
" id="BitstreamVeraSans-Roman-57"/>
      <path d="M 5.515625 54.6875 
L 48.1875 54.6875 
L 48.1875 46.484375 
L 14.40625 7.171875 
L 48.1875 7.171875 
L 48.1875 0 
L 4.296875 0 
L 4.296875 8.203125 
L 38.09375 47.515625 
L 5.515625 47.515625 
z
" id="BitstreamVeraSans-Roman-7a"/>
      <path d="M 18.109375 8.203125 
L 18.109375 -20.796875 
L 9.078125 -20.796875 
L 9.078125 54.6875 
L 18.109375 54.6875 
L 18.109375 46.390625 
Q 20.953125 51.265625 25.265625 53.625 
Q 29.59375 56 35.59375 56 
Q 45.5625 56 51.78125 48.09375 
Q 58.015625 40.1875 58.015625 27.296875 
Q 58.015625 14.40625 51.78125 6.484375 
Q 45.5625 -1.421875 35.59375 -1.421875 
Q 29.59375 -1.421875 25.265625 0.953125 
Q 20.953125 3.328125 18.109375 8.203125 
M 48.6875 27.296875 
Q 48.6875 37.203125 44.609375 42.84375 
Q 40.53125 48.484375 33.40625 48.484375 
Q 26.265625 48.484375 22.1875 42.84375 
Q 18.109375 37.203125 18.109375 27.296875 
Q 18.109375 17.390625 22.1875 11.75 
Q 26.265625 6.109375 33.40625 6.109375 
Q 40.53125 6.109375 44.609375 11.75 
Q 48.6875 17.390625 48.6875 27.296875 
" id="BitstreamVeraSans-Roman-70"/>
      <path d="M 56.203125 29.59375 
L 56.203125 25.203125 
L 14.890625 25.203125 
Q 15.484375 15.921875 20.484375 11.0625 
Q 25.484375 6.203125 34.421875 6.203125 
Q 39.59375 6.203125 44.453125 7.46875 
Q 49.3125 8.734375 54.109375 11.28125 
L 54.109375 2.78125 
Q 49.265625 0.734375 44.1875 -0.34375 
Q 39.109375 -1.421875 33.890625 -1.421875 
Q 20.796875 -1.421875 13.15625 6.1875 
Q 5.515625 13.8125 5.515625 26.8125 
Q 5.515625 40.234375 12.765625 48.109375 
Q 20.015625 56 32.328125 56 
Q 43.359375 56 49.78125 48.890625 
Q 56.203125 41.796875 56.203125 29.59375 
M 47.21875 32.234375 
Q 47.125 39.59375 43.09375 43.984375 
Q 39.0625 48.390625 32.421875 48.390625 
Q 24.90625 48.390625 20.390625 44.140625 
Q 15.875 39.890625 15.1875 32.171875 
z
" id="BitstreamVeraSans-Roman-65"/>
      <path d="M 18.3125 70.21875 
L 18.3125 54.6875 
L 36.8125 54.6875 
L 36.8125 47.703125 
L 18.3125 47.703125 
L 18.3125 18.015625 
Q 18.3125 11.328125 20.140625 9.421875 
Q 21.96875 7.515625 27.59375 7.515625 
L 36.8125 7.515625 
L 36.8125 0 
L 27.59375 0 
Q 17.1875 0 13.234375 3.875 
Q 9.28125 7.765625 9.28125 18.015625 
L 9.28125 47.703125 
L 2.6875 47.703125 
L 2.6875 54.6875 
L 9.28125 54.6875 
L 9.28125 70.21875 
z
" id="BitstreamVeraSans-Roman-74"/>
     </defs>
     <g transform="translate(431.75625 79.96375)scale(0.08 -0.08)">
      <use xlink:href="#BitstreamVeraSans-Roman-4d"/>
      <use x="86.279296875" xlink:href="#BitstreamVeraSans-Roman-4d"/>
      <use x="172.55859375" xlink:href="#BitstreamVeraSans-Roman-20"/>
      <use x="204.345703125" xlink:href="#BitstreamVeraSans-Roman-57"/>
      <use x="303.19140625" xlink:href="#BitstreamVeraSans-Roman-69"/>
      <use x="330.974609375" xlink:href="#BitstreamVeraSans-Roman-74"/>
      <use x="370.18359375" xlink:href="#BitstreamVeraSans-Roman-68"/>
      <use x="433.5625" xlink:href="#BitstreamVeraSans-Roman-20"/>
      <use x="465.349609375" xlink:href="#BitstreamVeraSans-Roman-70"/>
      <use x="528.826171875" xlink:href="#BitstreamVeraSans-Roman-68"/>
      <use x="592.205078125" xlink:href="#BitstreamVeraSans-Roman-69"/>
      <use x="619.98828125" xlink:href="#BitstreamVeraSans-Roman-20"/>
      <use x="651.775390625" xlink:href="#BitstreamVeraSans-Roman-7a"/>
      <use x="704.265625" xlink:href="#BitstreamVeraSans-Roman-65"/>
      <use x="765.7890625" xlink:href="#BitstreamVeraSans-Roman-72"/>
      <use x="806.87109375" xlink:href="#BitstreamVeraSans-Roman-6f"/>
      <use x="868.052734375" xlink:href="#BitstreamVeraSans-Roman-65"/>
      <use x="929.576171875" xlink:href="#BitstreamVeraSans-Roman-64"/>
     </g>
    </g>
    <g id="line2d_42">
     <path d="M 411.75625 88.90625 
L 422.95625 88.90625 
" style="fill:none;stroke:#ff00ff;stroke-linecap:square;"/>
    </g>
    <g id="line2d_43">
     <g>
      <use style="fill:#ff00ff;stroke:#ff00ff;stroke-width:0.5;" x="411.75625" xlink:href="#m905548703f" y="88.90625"/>
      <use style="fill:#ff00ff;stroke:#ff00ff;stroke-width:0.5;" x="422.95625" xlink:href="#m905548703f" y="88.90625"/>
     </g>
    </g>
    <g id="text_22">
     <!-- QM-MM target -->
     <g transform="translate(431.75625 91.70625)scale(0.08 -0.08)">
      <use xlink:href="#BitstreamVeraSans-Roman-51"/>
      <use x="78.7109375" xlink:href="#BitstreamVeraSans-Roman-4d"/>
      <use x="164.990234375" xlink:href="#BitstreamVeraSans-Roman-2d"/>
      <use x="201.07421875" xlink:href="#BitstreamVeraSans-Roman-4d"/>
      <use x="287.353515625" xlink:href="#BitstreamVeraSans-Roman-4d"/>
      <use x="373.6328125" xlink:href="#BitstreamVeraSans-Roman-20"/>
      <use x="405.419921875" xlink:href="#BitstreamVeraSans-Roman-74"/>
      <use x="444.62890625" xlink:href="#BitstreamVeraSans-Roman-61"/>
      <use x="505.908203125" xlink:href="#BitstreamVeraSans-Roman-72"/>
      <use x="547.005859375" xlink:href="#BitstreamVeraSans-Roman-67"/>
      <use x="610.482421875" xlink:href="#BitstreamVeraSans-Roman-65"/>
      <use x="672.005859375" xlink:href="#BitstreamVeraSans-Roman-74"/>
     </g>
    </g>
    <g id="line2d_44">
     <path d="M 411.75625 100.64875 
L 422.95625 100.64875 
" style="fill:none;stroke:#008000;stroke-linecap:square;"/>
    </g>
    <g id="line2d_45">
     <g>
      <use style="fill:#008000;stroke:#000000;stroke-width:0.5;" x="411.75625" xlink:href="#m27118818aa" y="100.64875"/>
      <use style="fill:#008000;stroke:#000000;stroke-width:0.5;" x="422.95625" xlink:href="#m27118818aa" y="100.64875"/>
     </g>
    </g>
    <g id="text_23">
     <!-- MM Fitted -->
     <defs>
      <path d="M 9.8125 72.90625 
L 51.703125 72.90625 
L 51.703125 64.59375 
L 19.671875 64.59375 
L 19.671875 43.109375 
L 48.578125 43.109375 
L 48.578125 34.8125 
L 19.671875 34.8125 
L 19.671875 0 
L 9.8125 0 
z
" id="BitstreamVeraSans-Roman-46"/>
     </defs>
     <g transform="translate(431.75625 103.44875)scale(0.08 -0.08)">
      <use xlink:href="#BitstreamVeraSans-Roman-4d"/>
      <use x="86.279296875" xlink:href="#BitstreamVeraSans-Roman-4d"/>
      <use x="172.55859375" xlink:href="#BitstreamVeraSans-Roman-20"/>
      <use x="204.345703125" xlink:href="#BitstreamVeraSans-Roman-46"/>
      <use x="261.755859375" xlink:href="#BitstreamVeraSans-Roman-69"/>
      <use x="289.5390625" xlink:href="#BitstreamVeraSans-Roman-74"/>
      <use x="328.748046875" xlink:href="#BitstreamVeraSans-Roman-74"/>
      <use x="367.95703125" xlink:href="#BitstreamVeraSans-Roman-65"/>
      <use x="429.48046875" xlink:href="#BitstreamVeraSans-Roman-64"/>
     </g>
    </g>
   </g>
  </g>
 </g>
 <defs>
  <clipPath id="ped62ecbd31">
   <rect height="345.6" width="446.4" x="72.0" y="43.2"/>
  </clipPath>
 </defs>
</svg>
