<?xml version="1.0" encoding="utf-8" standalone="no"?>
<!DOCTYPE svg PUBLIC "-//W3C//DTD SVG 1.1//EN"
  "http://www.w3.org/Graphics/SVG/1.1/DTD/svg11.dtd">
<!-- Created with matplotlib (http://matplotlib.org/) -->
<svg height="432pt" version="1.1" viewBox="0 0 576 432" width="576pt" xmlns="http://www.w3.org/2000/svg" xmlns:xlink="http://www.w3.org/1999/xlink">
 <defs>
  <style type="text/css">
*{stroke-linecap:butt;stroke-linejoin:round;stroke-miterlimit:100000;}
  </style>
 </defs>
 <g id="figure_1">
  <g id="patch_1">
   <path d="M 0 432 
L 576 432 
L 576 0 
L 0 0 
z
" style="fill:#ffffff;"/>
  </g>
  <g id="axes_1">
   <g id="patch_2">
    <path d="M 72 388.8 
L 518.4 388.8 
L 518.4 43.2 
L 72 43.2 
z
" style="fill:#ffffff;"/>
   </g>
   <g id="line2d_1">
    <path clip-path="url(#p3fe4ca5f6c)" d="M 71.999234 316.887942 
L 84.400029 319.573312 
L 96.800012 327.071522 
L 109.200016 338.690092 
L 121.600005 353.489458 
L 134.00004 368.77769 
L 146.400018 380.861796 
L 158.800012 387.138223 
L 171.200027 388.740627 
L 183.600005 388.609819 
L 196.000022 388.796491 
L 208.400037 387.580359 
L 220.79999 380.855748 
L 233.200044 367.350386 
L 245.599977 350.795381 
L 257.999984 336.141843 
L 270.399997 325.561966 
L 282.799966 319.115614 
L 295.199071 316.882175 
L 307.599944 319.078184 
L 319.999997 325.545149 
L 332.400001 336.151574 
L 344.800013 350.800813 
L 357.199948 367.321298 
L 369.599954 380.847478 
L 381.999995 387.560994 
L 394.399958 388.795548 
L 406.799949 388.611401 
L 419.199985 388.8 
L 431.600003 387.235246 
L 443.999979 380.85983 
L 456.400021 368.845093 
L 468.799999 353.5014 
L 481.200034 338.678906 
L 493.599994 326.924328 
L 506.000031 319.577582 
" style="fill:none;stroke:#ff0000;stroke-linecap:square;"/>
    <defs>
     <path d="M 0 3 
C 0.795609 3 1.55874 2.683901 2.12132 2.12132 
C 2.683901 1.55874 3 0.795609 3 0 
C 3 -0.795609 2.683901 -1.55874 2.12132 -2.12132 
C 1.55874 -2.683901 0.795609 -3 0 -3 
C -0.795609 -3 -1.55874 -2.683901 -2.12132 -2.12132 
C -2.683901 -1.55874 -3 -0.795609 -3 0 
C -3 0.795609 -2.683901 1.55874 -2.12132 2.12132 
C -1.55874 2.683901 -0.795609 3 0 3 
z
" id="m47642e603c" style="stroke:#000000;stroke-width:0.5;"/>
    </defs>
    <g clip-path="url(#p3fe4ca5f6c)">
     <use style="fill:#ff0000;stroke:#000000;stroke-width:0.5;" x="71.9992340464" xlink:href="#m47642e603c" y="316.887942017"/>
     <use style="fill:#ff0000;stroke:#000000;stroke-width:0.5;" x="84.4000288623" xlink:href="#m47642e603c" y="319.573311926"/>
     <use style="fill:#ff0000;stroke:#000000;stroke-width:0.5;" x="96.800012231" xlink:href="#m47642e603c" y="327.07152206"/>
     <use style="fill:#ff0000;stroke:#000000;stroke-width:0.5;" x="109.200016137" xlink:href="#m47642e603c" y="338.690092425"/>
     <use style="fill:#ff0000;stroke:#000000;stroke-width:0.5;" x="121.600005292" xlink:href="#m47642e603c" y="353.489457541"/>
     <use style="fill:#ff0000;stroke:#000000;stroke-width:0.5;" x="134.000040298" xlink:href="#m47642e603c" y="368.77769017"/>
     <use style="fill:#ff0000;stroke:#000000;stroke-width:0.5;" x="146.400017947" xlink:href="#m47642e603c" y="380.861796164"/>
     <use style="fill:#ff0000;stroke:#000000;stroke-width:0.5;" x="158.800012287" xlink:href="#m47642e603c" y="387.138222552"/>
     <use style="fill:#ff0000;stroke:#000000;stroke-width:0.5;" x="171.200026541" xlink:href="#m47642e603c" y="388.740627174"/>
     <use style="fill:#ff0000;stroke:#000000;stroke-width:0.5;" x="183.600005181" xlink:href="#m47642e603c" y="388.609819439"/>
     <use style="fill:#ff0000;stroke:#000000;stroke-width:0.5;" x="196.000022045" xlink:href="#m47642e603c" y="388.796491307"/>
     <use style="fill:#ff0000;stroke:#000000;stroke-width:0.5;" x="208.40003679" xlink:href="#m47642e603c" y="387.580358819"/>
     <use style="fill:#ff0000;stroke:#000000;stroke-width:0.5;" x="220.799989778" xlink:href="#m47642e603c" y="380.855748096"/>
     <use style="fill:#ff0000;stroke:#000000;stroke-width:0.5;" x="233.200044176" xlink:href="#m47642e603c" y="367.350385991"/>
     <use style="fill:#ff0000;stroke:#000000;stroke-width:0.5;" x="245.599976727" xlink:href="#m47642e603c" y="350.795381378"/>
     <use style="fill:#ff0000;stroke:#000000;stroke-width:0.5;" x="257.999984336" xlink:href="#m47642e603c" y="336.141842981"/>
     <use style="fill:#ff0000;stroke:#000000;stroke-width:0.5;" x="270.399997456" xlink:href="#m47642e603c" y="325.561966383"/>
     <use style="fill:#ff0000;stroke:#000000;stroke-width:0.5;" x="282.799966452" xlink:href="#m47642e603c" y="319.115614125"/>
     <use style="fill:#ff0000;stroke:#000000;stroke-width:0.5;" x="295.199070534" xlink:href="#m47642e603c" y="316.882175128"/>
     <use style="fill:#ff0000;stroke:#000000;stroke-width:0.5;" x="307.599944269" xlink:href="#m47642e603c" y="319.078184032"/>
     <use style="fill:#ff0000;stroke:#000000;stroke-width:0.5;" x="319.999997381" xlink:href="#m47642e603c" y="325.545149363"/>
     <use style="fill:#ff0000;stroke:#000000;stroke-width:0.5;" x="332.400000812" xlink:href="#m47642e603c" y="336.151574047"/>
     <use style="fill:#ff0000;stroke:#000000;stroke-width:0.5;" x="344.800012638" xlink:href="#m47642e603c" y="350.800813242"/>
     <use style="fill:#ff0000;stroke:#000000;stroke-width:0.5;" x="357.199948342" xlink:href="#m47642e603c" y="367.321298401"/>
     <use style="fill:#ff0000;stroke:#000000;stroke-width:0.5;" x="369.599953536" xlink:href="#m47642e603c" y="380.847477795"/>
     <use style="fill:#ff0000;stroke:#000000;stroke-width:0.5;" x="381.999995128" xlink:href="#m47642e603c" y="387.560993538"/>
     <use style="fill:#ff0000;stroke:#000000;stroke-width:0.5;" x="394.399957912" xlink:href="#m47642e603c" y="388.795547818"/>
     <use style="fill:#ff0000;stroke:#000000;stroke-width:0.5;" x="406.799948888" xlink:href="#m47642e603c" y="388.611401222"/>
     <use style="fill:#ff0000;stroke:#000000;stroke-width:0.5;" x="419.199984818" xlink:href="#m47642e603c" y="388.8"/>
     <use style="fill:#ff0000;stroke:#000000;stroke-width:0.5;" x="431.600003252" xlink:href="#m47642e603c" y="387.235246356"/>
     <use style="fill:#ff0000;stroke:#000000;stroke-width:0.5;" x="443.999979012" xlink:href="#m47642e603c" y="380.859830206"/>
     <use style="fill:#ff0000;stroke:#000000;stroke-width:0.5;" x="456.400020933" xlink:href="#m47642e603c" y="368.845093238"/>
     <use style="fill:#ff0000;stroke:#000000;stroke-width:0.5;" x="468.799998738" xlink:href="#m47642e603c" y="353.501400189"/>
     <use style="fill:#ff0000;stroke:#000000;stroke-width:0.5;" x="481.200034053" xlink:href="#m47642e603c" y="338.678906356"/>
     <use style="fill:#ff0000;stroke:#000000;stroke-width:0.5;" x="493.59999443" xlink:href="#m47642e603c" y="326.924328151"/>
     <use style="fill:#ff0000;stroke:#000000;stroke-width:0.5;" x="506.000031493" xlink:href="#m47642e603c" y="319.57758164"/>
    </g>
   </g>
   <g id="line2d_2">
    <path clip-path="url(#p3fe4ca5f6c)" d="M 71.999234 71.578032 
L 84.400029 81.807541 
L 96.800012 110.61941 
L 109.200016 152.97848 
L 121.600005 202.282992 
L 134.00004 255.794731 
L 146.400018 306.500738 
L 158.800012 347.831002 
L 171.200027 377.245495 
L 183.600005 388.8 
L 196.000022 380.682664 
L 208.400037 351.76844 
L 220.79999 305.320734 
L 233.200044 249.073453 
L 245.599977 192.121294 
L 257.999984 143.240047 
L 270.399997 104.032484 
L 282.799966 79.544537 
L 295.199071 71.168328 
L 307.599944 79.674173 
L 319.999997 103.492317 
L 332.400001 143.703536 
L 344.800013 192.153979 
L 357.199948 248.988423 
L 369.599954 305.181989 
L 381.999995 351.568424 
L 394.399958 380.43281 
L 406.799949 388.619098 
L 419.199985 376.887922 
L 431.600003 348.139441 
L 443.999979 305.787803 
L 456.400021 256.681741 
L 468.799999 202.965546 
L 481.200034 153.603418 
L 493.599994 110.537237 
L 506.000031 81.499937 
" style="fill:none;stroke:#0000ff;stroke-linecap:square;"/>
    <defs>
     <path d="M 0 3 
C 0.795609 3 1.55874 2.683901 2.12132 2.12132 
C 2.683901 1.55874 3 0.795609 3 0 
C 3 -0.795609 2.683901 -1.55874 2.12132 -2.12132 
C 1.55874 -2.683901 0.795609 -3 0 -3 
C -0.795609 -3 -1.55874 -2.683901 -2.12132 -2.12132 
C -2.683901 -1.55874 -3 -0.795609 -3 0 
C -3 0.795609 -2.683901 1.55874 -2.12132 2.12132 
C -1.55874 2.683901 -0.795609 3 0 3 
z
" id="m7606a06caa" style="stroke:#000000;stroke-width:0.5;"/>
    </defs>
    <g clip-path="url(#p3fe4ca5f6c)">
     <use style="fill:#0000ff;stroke:#000000;stroke-width:0.5;" x="71.9992340464" xlink:href="#m7606a06caa" y="71.5780322264"/>
     <use style="fill:#0000ff;stroke:#000000;stroke-width:0.5;" x="84.4000288623" xlink:href="#m7606a06caa" y="81.8075410447"/>
     <use style="fill:#0000ff;stroke:#000000;stroke-width:0.5;" x="96.800012231" xlink:href="#m7606a06caa" y="110.619410376"/>
     <use style="fill:#0000ff;stroke:#000000;stroke-width:0.5;" x="109.200016137" xlink:href="#m7606a06caa" y="152.978479918"/>
     <use style="fill:#0000ff;stroke:#000000;stroke-width:0.5;" x="121.600005292" xlink:href="#m7606a06caa" y="202.282991779"/>
     <use style="fill:#0000ff;stroke:#000000;stroke-width:0.5;" x="134.000040298" xlink:href="#m7606a06caa" y="255.794730845"/>
     <use style="fill:#0000ff;stroke:#000000;stroke-width:0.5;" x="146.400017947" xlink:href="#m7606a06caa" y="306.50073764"/>
     <use style="fill:#0000ff;stroke:#000000;stroke-width:0.5;" x="158.800012287" xlink:href="#m7606a06caa" y="347.831001986"/>
     <use style="fill:#0000ff;stroke:#000000;stroke-width:0.5;" x="171.200026541" xlink:href="#m7606a06caa" y="377.245495296"/>
     <use style="fill:#0000ff;stroke:#000000;stroke-width:0.5;" x="183.600005181" xlink:href="#m7606a06caa" y="388.8"/>
     <use style="fill:#0000ff;stroke:#000000;stroke-width:0.5;" x="196.000022045" xlink:href="#m7606a06caa" y="380.682663789"/>
     <use style="fill:#0000ff;stroke:#000000;stroke-width:0.5;" x="208.40003679" xlink:href="#m7606a06caa" y="351.768439999"/>
     <use style="fill:#0000ff;stroke:#000000;stroke-width:0.5;" x="220.799989778" xlink:href="#m7606a06caa" y="305.320733738"/>
     <use style="fill:#0000ff;stroke:#000000;stroke-width:0.5;" x="233.200044176" xlink:href="#m7606a06caa" y="249.073452956"/>
     <use style="fill:#0000ff;stroke:#000000;stroke-width:0.5;" x="245.599976727" xlink:href="#m7606a06caa" y="192.121293546"/>
     <use style="fill:#0000ff;stroke:#000000;stroke-width:0.5;" x="257.999984336" xlink:href="#m7606a06caa" y="143.240046844"/>
     <use style="fill:#0000ff;stroke:#000000;stroke-width:0.5;" x="270.399997456" xlink:href="#m7606a06caa" y="104.03248355"/>
     <use style="fill:#0000ff;stroke:#000000;stroke-width:0.5;" x="282.799966452" xlink:href="#m7606a06caa" y="79.5445370525"/>
     <use style="fill:#0000ff;stroke:#000000;stroke-width:0.5;" x="295.199070534" xlink:href="#m7606a06caa" y="71.1683282907"/>
     <use style="fill:#0000ff;stroke:#000000;stroke-width:0.5;" x="307.599944269" xlink:href="#m7606a06caa" y="79.67417328"/>
     <use style="fill:#0000ff;stroke:#000000;stroke-width:0.5;" x="319.999997381" xlink:href="#m7606a06caa" y="103.49231661"/>
     <use style="fill:#0000ff;stroke:#000000;stroke-width:0.5;" x="332.400000812" xlink:href="#m7606a06caa" y="143.703535887"/>
     <use style="fill:#0000ff;stroke:#000000;stroke-width:0.5;" x="344.800012638" xlink:href="#m7606a06caa" y="192.153979468"/>
     <use style="fill:#0000ff;stroke:#000000;stroke-width:0.5;" x="357.199948342" xlink:href="#m7606a06caa" y="248.988423063"/>
     <use style="fill:#0000ff;stroke:#000000;stroke-width:0.5;" x="369.599953536" xlink:href="#m7606a06caa" y="305.181989001"/>
     <use style="fill:#0000ff;stroke:#000000;stroke-width:0.5;" x="381.999995128" xlink:href="#m7606a06caa" y="351.568424384"/>
     <use style="fill:#0000ff;stroke:#000000;stroke-width:0.5;" x="394.399957912" xlink:href="#m7606a06caa" y="380.43281028"/>
     <use style="fill:#0000ff;stroke:#000000;stroke-width:0.5;" x="406.799948888" xlink:href="#m7606a06caa" y="388.619097712"/>
     <use style="fill:#0000ff;stroke:#000000;stroke-width:0.5;" x="419.199984818" xlink:href="#m7606a06caa" y="376.887922201"/>
     <use style="fill:#0000ff;stroke:#000000;stroke-width:0.5;" x="431.600003252" xlink:href="#m7606a06caa" y="348.13944052"/>
     <use style="fill:#0000ff;stroke:#000000;stroke-width:0.5;" x="443.999979012" xlink:href="#m7606a06caa" y="305.787802843"/>
     <use style="fill:#0000ff;stroke:#000000;stroke-width:0.5;" x="456.400020933" xlink:href="#m7606a06caa" y="256.681740504"/>
     <use style="fill:#0000ff;stroke:#000000;stroke-width:0.5;" x="468.799998738" xlink:href="#m7606a06caa" y="202.965546109"/>
     <use style="fill:#0000ff;stroke:#000000;stroke-width:0.5;" x="481.200034053" xlink:href="#m7606a06caa" y="153.603417935"/>
     <use style="fill:#0000ff;stroke:#000000;stroke-width:0.5;" x="493.59999443" xlink:href="#m7606a06caa" y="110.537236983"/>
     <use style="fill:#0000ff;stroke:#000000;stroke-width:0.5;" x="506.000031493" xlink:href="#m7606a06caa" y="81.4999366929"/>
    </g>
   </g>
   <g id="line2d_3">
    <path clip-path="url(#p3fe4ca5f6c)" d="M 71.999234 73.232448 
L 84.400029 83.282195 
L 96.800012 111.477695 
L 109.200016 153.030274 
L 121.600005 201.78879 
L 134.00004 254.836808 
L 146.400018 305.774247 
L 158.800012 347.370731 
L 171.200027 377.078845 
L 183.600005 388.8 
L 196.000022 380.609216 
L 208.400037 351.465486 
L 220.79999 304.796043 
L 233.200044 248.55093 
L 245.599977 191.908624 
L 257.999984 143.652195 
L 270.399997 105.068751 
L 282.799966 81.098752 
L 295.199071 72.797206 
L 307.599944 81.120075 
L 319.999997 104.454349 
L 332.400001 143.989164 
L 344.800013 191.956381 
L 357.199948 248.440851 
L 369.599954 304.675145 
L 381.999995 351.213479 
L 394.399958 380.325489 
L 406.799949 388.617775 
L 419.199985 376.730878 
L 431.600003 347.681269 
L 443.999979 305.071303 
L 456.400021 255.817366 
L 468.799999 202.421044 
L 481.200034 153.695341 
L 493.599994 111.210446 
L 506.000031 82.982379 
" style="fill:none;stroke:#000000;stroke-linecap:square;"/>
    <defs>
     <path d="M -3 3 
L 3 -3 
M -3 -3 
L 3 3 
" id="m2ac3c2a398" style="stroke:#000000;stroke-width:0.5;"/>
    </defs>
    <g clip-path="url(#p3fe4ca5f6c)">
     <use style="stroke:#000000;stroke-width:0.5;" x="71.9992340464" xlink:href="#m2ac3c2a398" y="73.2324480732"/>
     <use style="stroke:#000000;stroke-width:0.5;" x="84.4000288623" xlink:href="#m2ac3c2a398" y="83.2821949314"/>
     <use style="stroke:#000000;stroke-width:0.5;" x="96.800012231" xlink:href="#m2ac3c2a398" y="111.477694993"/>
     <use style="stroke:#000000;stroke-width:0.5;" x="109.200016137" xlink:href="#m2ac3c2a398" y="153.030274197"/>
     <use style="stroke:#000000;stroke-width:0.5;" x="121.600005292" xlink:href="#m2ac3c2a398" y="201.788790067"/>
     <use style="stroke:#000000;stroke-width:0.5;" x="134.000040298" xlink:href="#m2ac3c2a398" y="254.836807534"/>
     <use style="stroke:#000000;stroke-width:0.5;" x="146.400017947" xlink:href="#m2ac3c2a398" y="305.774247249"/>
     <use style="stroke:#000000;stroke-width:0.5;" x="158.800012287" xlink:href="#m2ac3c2a398" y="347.370730982"/>
     <use style="stroke:#000000;stroke-width:0.5;" x="171.200026541" xlink:href="#m2ac3c2a398" y="377.078844867"/>
     <use style="stroke:#000000;stroke-width:0.5;" x="183.600005181" xlink:href="#m2ac3c2a398" y="388.8"/>
     <use style="stroke:#000000;stroke-width:0.5;" x="196.000022045" xlink:href="#m2ac3c2a398" y="380.609216422"/>
     <use style="stroke:#000000;stroke-width:0.5;" x="208.40003679" xlink:href="#m2ac3c2a398" y="351.465485747"/>
     <use style="stroke:#000000;stroke-width:0.5;" x="220.799989778" xlink:href="#m2ac3c2a398" y="304.796042912"/>
     <use style="stroke:#000000;stroke-width:0.5;" x="233.200044176" xlink:href="#m2ac3c2a398" y="248.550930252"/>
     <use style="stroke:#000000;stroke-width:0.5;" x="245.599976727" xlink:href="#m2ac3c2a398" y="191.908623699"/>
     <use style="stroke:#000000;stroke-width:0.5;" x="257.999984336" xlink:href="#m2ac3c2a398" y="143.652195278"/>
     <use style="stroke:#000000;stroke-width:0.5;" x="270.399997456" xlink:href="#m2ac3c2a398" y="105.068750682"/>
     <use style="stroke:#000000;stroke-width:0.5;" x="282.799966452" xlink:href="#m2ac3c2a398" y="81.0987522071"/>
     <use style="stroke:#000000;stroke-width:0.5;" x="295.199070534" xlink:href="#m2ac3c2a398" y="72.7972061914"/>
     <use style="stroke:#000000;stroke-width:0.5;" x="307.599944269" xlink:href="#m2ac3c2a398" y="81.1200748959"/>
     <use style="stroke:#000000;stroke-width:0.5;" x="319.999997381" xlink:href="#m2ac3c2a398" y="104.454348533"/>
     <use style="stroke:#000000;stroke-width:0.5;" x="332.400000812" xlink:href="#m2ac3c2a398" y="143.989163878"/>
     <use style="stroke:#000000;stroke-width:0.5;" x="344.800012638" xlink:href="#m2ac3c2a398" y="191.956381066"/>
     <use style="stroke:#000000;stroke-width:0.5;" x="357.199948342" xlink:href="#m2ac3c2a398" y="248.440851495"/>
     <use style="stroke:#000000;stroke-width:0.5;" x="369.599953536" xlink:href="#m2ac3c2a398" y="304.675145104"/>
     <use style="stroke:#000000;stroke-width:0.5;" x="381.999995128" xlink:href="#m2ac3c2a398" y="351.213478514"/>
     <use style="stroke:#000000;stroke-width:0.5;" x="394.399957912" xlink:href="#m2ac3c2a398" y="380.325489352"/>
     <use style="stroke:#000000;stroke-width:0.5;" x="406.799948888" xlink:href="#m2ac3c2a398" y="388.617775481"/>
     <use style="stroke:#000000;stroke-width:0.5;" x="419.199984818" xlink:href="#m2ac3c2a398" y="376.73087815"/>
     <use style="stroke:#000000;stroke-width:0.5;" x="431.600003252" xlink:href="#m2ac3c2a398" y="347.681268902"/>
     <use style="stroke:#000000;stroke-width:0.5;" x="443.999979012" xlink:href="#m2ac3c2a398" y="305.07130265"/>
     <use style="stroke:#000000;stroke-width:0.5;" x="456.400020933" xlink:href="#m2ac3c2a398" y="255.81736564"/>
     <use style="stroke:#000000;stroke-width:0.5;" x="468.799998738" xlink:href="#m2ac3c2a398" y="202.421044041"/>
     <use style="stroke:#000000;stroke-width:0.5;" x="481.200034053" xlink:href="#m2ac3c2a398" y="153.695341013"/>
     <use style="stroke:#000000;stroke-width:0.5;" x="493.59999443" xlink:href="#m2ac3c2a398" y="111.210445601"/>
     <use style="stroke:#000000;stroke-width:0.5;" x="506.000031493" xlink:href="#m2ac3c2a398" y="82.982378809"/>
    </g>
   </g>
   <g id="line2d_4">
    <path clip-path="url(#p3fe4ca5f6c)" d="M 71.999234 388.370525 
L 84.400029 381.006148 
L 96.800012 360.308858 
L 109.200016 330.374849 
L 121.600005 296.415699 
L 134.00004 258.655914 
L 146.400018 219.80258 
L 158.800012 184.482523 
L 171.200027 156.376813 
L 183.600005 144.524851 
L 196.000022 152.902306 
L 208.400037 180.829904 
L 220.79999 220.774736 
L 233.200044 263.514487 
L 245.599977 303.601789 
L 257.999984 337.204679 
L 270.399997 365.208247 
L 282.799966 382.731893 
L 295.199071 388.8 
L 307.599944 382.67314 
L 319.999997 365.805832 
L 332.400001 336.877441 
L 344.800013 303.559463 
L 357.199948 263.595478 
L 369.599954 220.887364 
L 381.999995 181.062546 
L 394.399958 153.18509 
L 406.799949 144.708657 
L 419.199985 156.784153 
L 431.600003 184.269009 
L 443.999979 220.503559 
L 456.400021 257.742759 
L 468.799999 295.795387 
L 481.200034 329.698596 
L 493.599994 360.428914 
L 506.000031 381.310234 
" style="fill:none;stroke:#ff00ff;stroke-linecap:square;"/>
    <defs>
     <path d="M -3 3 
L 3 -3 
M -3 -3 
L 3 3 
" id="mb9f6971573" style="stroke:#ff00ff;stroke-width:0.5;"/>
    </defs>
    <g clip-path="url(#p3fe4ca5f6c)">
     <use style="fill:#ff00ff;stroke:#ff00ff;stroke-width:0.5;" x="71.9992340464" xlink:href="#mb9f6971573" y="388.370525007"/>
     <use style="fill:#ff00ff;stroke:#ff00ff;stroke-width:0.5;" x="84.4000288623" xlink:href="#mb9f6971573" y="381.006148058"/>
     <use style="fill:#ff00ff;stroke:#ff00ff;stroke-width:0.5;" x="96.800012231" xlink:href="#mb9f6971573" y="360.308858131"/>
     <use style="fill:#ff00ff;stroke:#ff00ff;stroke-width:0.5;" x="109.200016137" xlink:href="#mb9f6971573" y="330.374849291"/>
     <use style="fill:#ff00ff;stroke:#ff00ff;stroke-width:0.5;" x="121.600005292" xlink:href="#mb9f6971573" y="296.415698538"/>
     <use style="fill:#ff00ff;stroke:#ff00ff;stroke-width:0.5;" x="134.000040298" xlink:href="#mb9f6971573" y="258.655913699"/>
     <use style="fill:#ff00ff;stroke:#ff00ff;stroke-width:0.5;" x="146.400017947" xlink:href="#mb9f6971573" y="219.802579979"/>
     <use style="fill:#ff00ff;stroke:#ff00ff;stroke-width:0.5;" x="158.800012287" xlink:href="#mb9f6971573" y="184.482522633"/>
     <use style="fill:#ff00ff;stroke:#ff00ff;stroke-width:0.5;" x="171.200026541" xlink:href="#mb9f6971573" y="156.37681337"/>
     <use style="fill:#ff00ff;stroke:#ff00ff;stroke-width:0.5;" x="183.600005181" xlink:href="#mb9f6971573" y="144.524850503"/>
     <use style="fill:#ff00ff;stroke:#ff00ff;stroke-width:0.5;" x="196.000022045" xlink:href="#mb9f6971573" y="152.902305948"/>
     <use style="fill:#ff00ff;stroke:#ff00ff;stroke-width:0.5;" x="208.40003679" xlink:href="#mb9f6971573" y="180.829904135"/>
     <use style="fill:#ff00ff;stroke:#ff00ff;stroke-width:0.5;" x="220.799989778" xlink:href="#mb9f6971573" y="220.774736247"/>
     <use style="fill:#ff00ff;stroke:#ff00ff;stroke-width:0.5;" x="233.200044176" xlink:href="#mb9f6971573" y="263.514486802"/>
     <use style="fill:#ff00ff;stroke:#ff00ff;stroke-width:0.5;" x="245.599976727" xlink:href="#mb9f6971573" y="303.601788742"/>
     <use style="fill:#ff00ff;stroke:#ff00ff;stroke-width:0.5;" x="257.999984336" xlink:href="#mb9f6971573" y="337.204678766"/>
     <use style="fill:#ff00ff;stroke:#ff00ff;stroke-width:0.5;" x="270.399997456" xlink:href="#mb9f6971573" y="365.208246764"/>
     <use style="fill:#ff00ff;stroke:#ff00ff;stroke-width:0.5;" x="282.799966452" xlink:href="#mb9f6971573" y="382.731892981"/>
     <use style="fill:#ff00ff;stroke:#ff00ff;stroke-width:0.5;" x="295.199070534" xlink:href="#mb9f6971573" y="388.8"/>
     <use style="fill:#ff00ff;stroke:#ff00ff;stroke-width:0.5;" x="307.599944269" xlink:href="#mb9f6971573" y="382.673140199"/>
     <use style="fill:#ff00ff;stroke:#ff00ff;stroke-width:0.5;" x="319.999997381" xlink:href="#mb9f6971573" y="365.805831893"/>
     <use style="fill:#ff00ff;stroke:#ff00ff;stroke-width:0.5;" x="332.400000812" xlink:href="#mb9f6971573" y="336.877441232"/>
     <use style="fill:#ff00ff;stroke:#ff00ff;stroke-width:0.5;" x="344.800012638" xlink:href="#mb9f6971573" y="303.559463239"/>
     <use style="fill:#ff00ff;stroke:#ff00ff;stroke-width:0.5;" x="357.199948342" xlink:href="#mb9f6971573" y="263.595477969"/>
     <use style="fill:#ff00ff;stroke:#ff00ff;stroke-width:0.5;" x="369.599953536" xlink:href="#mb9f6971573" y="220.887363754"/>
     <use style="fill:#ff00ff;stroke:#ff00ff;stroke-width:0.5;" x="381.999995128" xlink:href="#mb9f6971573" y="181.062546088"/>
     <use style="fill:#ff00ff;stroke:#ff00ff;stroke-width:0.5;" x="394.399957912" xlink:href="#mb9f6971573" y="153.185089529"/>
     <use style="fill:#ff00ff;stroke:#ff00ff;stroke-width:0.5;" x="406.799948888" xlink:href="#mb9f6971573" y="144.708656804"/>
     <use style="fill:#ff00ff;stroke:#ff00ff;stroke-width:0.5;" x="419.199984818" xlink:href="#mb9f6971573" y="156.784152914"/>
     <use style="fill:#ff00ff;stroke:#ff00ff;stroke-width:0.5;" x="431.600003252" xlink:href="#mb9f6971573" y="184.269008517"/>
     <use style="fill:#ff00ff;stroke:#ff00ff;stroke-width:0.5;" x="443.999979012" xlink:href="#mb9f6971573" y="220.503558618"/>
     <use style="fill:#ff00ff;stroke:#ff00ff;stroke-width:0.5;" x="456.400020933" xlink:href="#mb9f6971573" y="257.742758661"/>
     <use style="fill:#ff00ff;stroke:#ff00ff;stroke-width:0.5;" x="468.799998738" xlink:href="#mb9f6971573" y="295.795387211"/>
     <use style="fill:#ff00ff;stroke:#ff00ff;stroke-width:0.5;" x="481.200034053" xlink:href="#mb9f6971573" y="329.698596406"/>
     <use style="fill:#ff00ff;stroke:#ff00ff;stroke-width:0.5;" x="493.59999443" xlink:href="#mb9f6971573" y="360.428913613"/>
     <use style="fill:#ff00ff;stroke:#ff00ff;stroke-width:0.5;" x="506.000031493" xlink:href="#mb9f6971573" y="381.310233894"/>
    </g>
   </g>
   <g id="line2d_5">
    <path clip-path="url(#p3fe4ca5f6c)" d="M 71.999234 317.12685 
L 84.400029 319.469994 
L 96.800012 326.584166 
L 109.200016 338.541319 
L 121.600005 352.578616 
L 134.00004 368.245338 
L 146.400018 381.081818 
L 158.800012 386.833602 
L 171.200027 388.8 
L 183.600005 388.351295 
L 196.000022 388.668888 
L 208.400037 387.421685 
L 220.79999 380.553215 
L 233.200044 367.055649 
L 245.599977 350.245733 
L 257.999984 336.445444 
L 270.399997 324.994714 
L 282.799966 318.792759 
L 295.199071 316.691663 
L 307.599944 318.81186 
L 319.999997 324.402971 
L 332.400001 336.713746 
L 344.800013 350.352466 
L 357.199948 366.957815 
L 369.599954 380.433799 
L 381.999995 387.198848 
L 394.399958 388.394414 
L 406.799949 388.169669 
L 419.199985 388.408277 
L 431.600003 387.057205 
L 443.999979 380.375765 
L 456.400021 369.174404 
L 468.799999 353.188292 
L 481.200034 339.120832 
L 493.599994 326.380389 
L 506.000031 319.157962 
" style="fill:none;stroke:#008000;stroke-linecap:square;"/>
    <defs>
     <path d="M 0 3 
C 0.795609 3 1.55874 2.683901 2.12132 2.12132 
C 2.683901 1.55874 3 0.795609 3 0 
C 3 -0.795609 2.683901 -1.55874 2.12132 -2.12132 
C 1.55874 -2.683901 0.795609 -3 0 -3 
C -0.795609 -3 -1.55874 -2.683901 -2.12132 -2.12132 
C -2.683901 -1.55874 -3 -0.795609 -3 0 
C -3 0.795609 -2.683901 1.55874 -2.12132 2.12132 
C -1.55874 2.683901 -0.795609 3 0 3 
z
" id="m2fd0f1ddac" style="stroke:#000000;stroke-width:0.5;"/>
    </defs>
    <g clip-path="url(#p3fe4ca5f6c)">
     <use style="fill:#008000;stroke:#000000;stroke-width:0.5;" x="71.9992340464" xlink:href="#m2fd0f1ddac" y="317.126850074"/>
     <use style="fill:#008000;stroke:#000000;stroke-width:0.5;" x="84.4000288623" xlink:href="#m2fd0f1ddac" y="319.469994442"/>
     <use style="fill:#008000;stroke:#000000;stroke-width:0.5;" x="96.800012231" xlink:href="#m2fd0f1ddac" y="326.58416597"/>
     <use style="fill:#008000;stroke:#000000;stroke-width:0.5;" x="109.200016137" xlink:href="#m2fd0f1ddac" y="338.541319235"/>
     <use style="fill:#008000;stroke:#000000;stroke-width:0.5;" x="121.600005292" xlink:href="#m2fd0f1ddac" y="352.578616029"/>
     <use style="fill:#008000;stroke:#000000;stroke-width:0.5;" x="134.000040298" xlink:href="#m2fd0f1ddac" y="368.245337818"/>
     <use style="fill:#008000;stroke:#000000;stroke-width:0.5;" x="146.400017947" xlink:href="#m2fd0f1ddac" y="381.081818417"/>
     <use style="fill:#008000;stroke:#000000;stroke-width:0.5;" x="158.800012287" xlink:href="#m2fd0f1ddac" y="386.833601677"/>
     <use style="fill:#008000;stroke:#000000;stroke-width:0.5;" x="171.200026541" xlink:href="#m2fd0f1ddac" y="388.8"/>
     <use style="fill:#008000;stroke:#000000;stroke-width:0.5;" x="183.600005181" xlink:href="#m2fd0f1ddac" y="388.351295206"/>
     <use style="fill:#008000;stroke:#000000;stroke-width:0.5;" x="196.000022045" xlink:href="#m2fd0f1ddac" y="388.668888025"/>
     <use style="fill:#008000;stroke:#000000;stroke-width:0.5;" x="208.40003679" xlink:href="#m2fd0f1ddac" y="387.421685409"/>
     <use style="fill:#008000;stroke:#000000;stroke-width:0.5;" x="220.799989778" xlink:href="#m2fd0f1ddac" y="380.553214939"/>
     <use style="fill:#008000;stroke:#000000;stroke-width:0.5;" x="233.200044176" xlink:href="#m2fd0f1ddac" y="367.055648578"/>
     <use style="fill:#008000;stroke:#000000;stroke-width:0.5;" x="245.599976727" xlink:href="#m2fd0f1ddac" y="350.245732822"/>
     <use style="fill:#008000;stroke:#000000;stroke-width:0.5;" x="257.999984336" xlink:href="#m2fd0f1ddac" y="336.445444118"/>
     <use style="fill:#008000;stroke:#000000;stroke-width:0.5;" x="270.399997456" xlink:href="#m2fd0f1ddac" y="324.994713951"/>
     <use style="fill:#008000;stroke:#000000;stroke-width:0.5;" x="282.799966452" xlink:href="#m2fd0f1ddac" y="318.792759277"/>
     <use style="fill:#008000;stroke:#000000;stroke-width:0.5;" x="295.199070534" xlink:href="#m2fd0f1ddac" y="316.691662556"/>
     <use style="fill:#008000;stroke:#000000;stroke-width:0.5;" x="307.599944269" xlink:href="#m2fd0f1ddac" y="318.81186041"/>
     <use style="fill:#008000;stroke:#000000;stroke-width:0.5;" x="319.999997381" xlink:href="#m2fd0f1ddac" y="324.402971253"/>
     <use style="fill:#008000;stroke:#000000;stroke-width:0.5;" x="332.400000812" xlink:href="#m2fd0f1ddac" y="336.713746395"/>
     <use style="fill:#008000;stroke:#000000;stroke-width:0.5;" x="344.800012638" xlink:href="#m2fd0f1ddac" y="350.352466246"/>
     <use style="fill:#008000;stroke:#000000;stroke-width:0.5;" x="357.199948342" xlink:href="#m2fd0f1ddac" y="366.957814816"/>
     <use style="fill:#008000;stroke:#000000;stroke-width:0.5;" x="369.599953536" xlink:href="#m2fd0f1ddac" y="380.43379932"/>
     <use style="fill:#008000;stroke:#000000;stroke-width:0.5;" x="381.999995128" xlink:href="#m2fd0f1ddac" y="387.198848246"/>
     <use style="fill:#008000;stroke:#000000;stroke-width:0.5;" x="394.399957912" xlink:href="#m2fd0f1ddac" y="388.394414074"/>
     <use style="fill:#008000;stroke:#000000;stroke-width:0.5;" x="406.799948888" xlink:href="#m2fd0f1ddac" y="388.169668692"/>
     <use style="fill:#008000;stroke:#000000;stroke-width:0.5;" x="419.199984818" xlink:href="#m2fd0f1ddac" y="388.408277075"/>
     <use style="fill:#008000;stroke:#000000;stroke-width:0.5;" x="431.600003252" xlink:href="#m2fd0f1ddac" y="387.057205383"/>
     <use style="fill:#008000;stroke:#000000;stroke-width:0.5;" x="443.999979012" xlink:href="#m2fd0f1ddac" y="380.37576493"/>
     <use style="fill:#008000;stroke:#000000;stroke-width:0.5;" x="456.400020933" xlink:href="#m2fd0f1ddac" y="369.174404195"/>
     <use style="fill:#008000;stroke:#000000;stroke-width:0.5;" x="468.799998738" xlink:href="#m2fd0f1ddac" y="353.188291617"/>
     <use style="fill:#008000;stroke:#000000;stroke-width:0.5;" x="481.200034053" xlink:href="#m2fd0f1ddac" y="339.120832275"/>
     <use style="fill:#008000;stroke:#000000;stroke-width:0.5;" x="493.59999443" xlink:href="#m2fd0f1ddac" y="326.380388632"/>
     <use style="fill:#008000;stroke:#000000;stroke-width:0.5;" x="506.000031493" xlink:href="#m2fd0f1ddac" y="319.157962239"/>
    </g>
   </g>
   <g id="patch_3">
    <path d="M 72 43.2 
L 518.4 43.2 
" style="fill:none;stroke:#000000;stroke-linecap:square;stroke-linejoin:miter;"/>
   </g>
   <g id="patch_4">
    <path d="M 518.4 388.8 
L 518.4 43.2 
" style="fill:none;stroke:#000000;stroke-linecap:square;stroke-linejoin:miter;"/>
   </g>
   <g id="patch_5">
    <path d="M 72 388.8 
L 72 43.2 
" style="fill:none;stroke:#000000;stroke-linecap:square;stroke-linejoin:miter;"/>
   </g>
   <g id="patch_6">
    <path d="M 72 388.8 
L 518.4 388.8 
" style="fill:none;stroke:#000000;stroke-linecap:square;stroke-linejoin:miter;"/>
   </g>
   <g id="matplotlib.axis_1">
    <g id="xtick_1">
     <g id="line2d_6">
      <defs>
       <path d="M 0 0 
L 0 -4 
" id="m5e0c555b4f" style="stroke:#000000;stroke-width:0.5;"/>
      </defs>
      <g>
       <use style="stroke:#000000;stroke-width:0.5;" x="72.0" xlink:href="#m5e0c555b4f" y="388.8"/>
      </g>
     </g>
     <g id="line2d_7">
      <defs>
       <path d="M 0 0 
L 0 4 
" id="mc7a0afa43f" style="stroke:#000000;stroke-width:0.5;"/>
      </defs>
      <g>
       <use style="stroke:#000000;stroke-width:0.5;" x="72.0" xlink:href="#mc7a0afa43f" y="43.2"/>
      </g>
     </g>
     <g id="text_1">
      <!-- −180 -->
      <defs>
       <path d="M 31.78125 66.40625 
Q 24.171875 66.40625 20.328125 58.90625 
Q 16.5 51.421875 16.5 36.375 
Q 16.5 21.390625 20.328125 13.890625 
Q 24.171875 6.390625 31.78125 6.390625 
Q 39.453125 6.390625 43.28125 13.890625 
Q 47.125 21.390625 47.125 36.375 
Q 47.125 51.421875 43.28125 58.90625 
Q 39.453125 66.40625 31.78125 66.40625 
M 31.78125 74.21875 
Q 44.046875 74.21875 50.515625 64.515625 
Q 56.984375 54.828125 56.984375 36.375 
Q 56.984375 17.96875 50.515625 8.265625 
Q 44.046875 -1.421875 31.78125 -1.421875 
Q 19.53125 -1.421875 13.0625 8.265625 
Q 6.59375 17.96875 6.59375 36.375 
Q 6.59375 54.828125 13.0625 64.515625 
Q 19.53125 74.21875 31.78125 74.21875 
" id="BitstreamVeraSans-Roman-30"/>
       <path d="M 31.78125 34.625 
Q 24.75 34.625 20.71875 30.859375 
Q 16.703125 27.09375 16.703125 20.515625 
Q 16.703125 13.921875 20.71875 10.15625 
Q 24.75 6.390625 31.78125 6.390625 
Q 38.8125 6.390625 42.859375 10.171875 
Q 46.921875 13.96875 46.921875 20.515625 
Q 46.921875 27.09375 42.890625 30.859375 
Q 38.875 34.625 31.78125 34.625 
M 21.921875 38.8125 
Q 15.578125 40.375 12.03125 44.71875 
Q 8.5 49.078125 8.5 55.328125 
Q 8.5 64.0625 14.71875 69.140625 
Q 20.953125 74.21875 31.78125 74.21875 
Q 42.671875 74.21875 48.875 69.140625 
Q 55.078125 64.0625 55.078125 55.328125 
Q 55.078125 49.078125 51.53125 44.71875 
Q 48 40.375 41.703125 38.8125 
Q 48.828125 37.15625 52.796875 32.3125 
Q 56.78125 27.484375 56.78125 20.515625 
Q 56.78125 9.90625 50.3125 4.234375 
Q 43.84375 -1.421875 31.78125 -1.421875 
Q 19.734375 -1.421875 13.25 4.234375 
Q 6.78125 9.90625 6.78125 20.515625 
Q 6.78125 27.484375 10.78125 32.3125 
Q 14.796875 37.15625 21.921875 38.8125 
M 18.3125 54.390625 
Q 18.3125 48.734375 21.84375 45.5625 
Q 25.390625 42.390625 31.78125 42.390625 
Q 38.140625 42.390625 41.71875 45.5625 
Q 45.3125 48.734375 45.3125 54.390625 
Q 45.3125 60.0625 41.71875 63.234375 
Q 38.140625 66.40625 31.78125 66.40625 
Q 25.390625 66.40625 21.84375 63.234375 
Q 18.3125 60.0625 18.3125 54.390625 
" id="BitstreamVeraSans-Roman-38"/>
       <path d="M 12.40625 8.296875 
L 28.515625 8.296875 
L 28.515625 63.921875 
L 10.984375 60.40625 
L 10.984375 69.390625 
L 28.421875 72.90625 
L 38.28125 72.90625 
L 38.28125 8.296875 
L 54.390625 8.296875 
L 54.390625 0 
L 12.40625 0 
z
" id="BitstreamVeraSans-Roman-31"/>
       <path d="M 10.59375 35.5 
L 73.1875 35.5 
L 73.1875 27.203125 
L 10.59375 27.203125 
z
" id="BitstreamVeraSans-Roman-2212"/>
      </defs>
      <g transform="translate(55.5196875 401.918125)scale(0.12 -0.12)">
       <use xlink:href="#BitstreamVeraSans-Roman-2212"/>
       <use x="83.7890625" xlink:href="#BitstreamVeraSans-Roman-31"/>
       <use x="147.412109375" xlink:href="#BitstreamVeraSans-Roman-38"/>
       <use x="211.03515625" xlink:href="#BitstreamVeraSans-Roman-30"/>
      </g>
     </g>
    </g>
    <g id="xtick_2">
     <g id="line2d_8">
      <g>
       <use style="stroke:#000000;stroke-width:0.5;" x="127.8" xlink:href="#m5e0c555b4f" y="388.8"/>
      </g>
     </g>
     <g id="line2d_9">
      <g>
       <use style="stroke:#000000;stroke-width:0.5;" x="127.8" xlink:href="#mc7a0afa43f" y="43.2"/>
      </g>
     </g>
     <g id="text_2">
      <!-- −135 -->
      <defs>
       <path d="M 10.796875 72.90625 
L 49.515625 72.90625 
L 49.515625 64.59375 
L 19.828125 64.59375 
L 19.828125 46.734375 
Q 21.96875 47.46875 24.109375 47.828125 
Q 26.265625 48.1875 28.421875 48.1875 
Q 40.625 48.1875 47.75 41.5 
Q 54.890625 34.8125 54.890625 23.390625 
Q 54.890625 11.625 47.5625 5.09375 
Q 40.234375 -1.421875 26.90625 -1.421875 
Q 22.3125 -1.421875 17.546875 -0.640625 
Q 12.796875 0.140625 7.71875 1.703125 
L 7.71875 11.625 
Q 12.109375 9.234375 16.796875 8.0625 
Q 21.484375 6.890625 26.703125 6.890625 
Q 35.15625 6.890625 40.078125 11.328125 
Q 45.015625 15.765625 45.015625 23.390625 
Q 45.015625 31 40.078125 35.4375 
Q 35.15625 39.890625 26.703125 39.890625 
Q 22.75 39.890625 18.8125 39.015625 
Q 14.890625 38.140625 10.796875 36.28125 
z
" id="BitstreamVeraSans-Roman-35"/>
       <path d="M 40.578125 39.3125 
Q 47.65625 37.796875 51.625 33 
Q 55.609375 28.21875 55.609375 21.1875 
Q 55.609375 10.40625 48.1875 4.484375 
Q 40.765625 -1.421875 27.09375 -1.421875 
Q 22.515625 -1.421875 17.65625 -0.515625 
Q 12.796875 0.390625 7.625 2.203125 
L 7.625 11.71875 
Q 11.71875 9.328125 16.59375 8.109375 
Q 21.484375 6.890625 26.8125 6.890625 
Q 36.078125 6.890625 40.9375 10.546875 
Q 45.796875 14.203125 45.796875 21.1875 
Q 45.796875 27.640625 41.28125 31.265625 
Q 36.765625 34.90625 28.71875 34.90625 
L 20.21875 34.90625 
L 20.21875 43.015625 
L 29.109375 43.015625 
Q 36.375 43.015625 40.234375 45.921875 
Q 44.09375 48.828125 44.09375 54.296875 
Q 44.09375 59.90625 40.109375 62.90625 
Q 36.140625 65.921875 28.71875 65.921875 
Q 24.65625 65.921875 20.015625 65.03125 
Q 15.375 64.15625 9.8125 62.3125 
L 9.8125 71.09375 
Q 15.4375 72.65625 20.34375 73.4375 
Q 25.25 74.21875 29.59375 74.21875 
Q 40.828125 74.21875 47.359375 69.109375 
Q 53.90625 64.015625 53.90625 55.328125 
Q 53.90625 49.265625 50.4375 45.09375 
Q 46.96875 40.921875 40.578125 39.3125 
" id="BitstreamVeraSans-Roman-33"/>
      </defs>
      <g transform="translate(111.3196875 401.918125)scale(0.12 -0.12)">
       <use xlink:href="#BitstreamVeraSans-Roman-2212"/>
       <use x="83.7890625" xlink:href="#BitstreamVeraSans-Roman-31"/>
       <use x="147.412109375" xlink:href="#BitstreamVeraSans-Roman-33"/>
       <use x="211.03515625" xlink:href="#BitstreamVeraSans-Roman-35"/>
      </g>
     </g>
    </g>
    <g id="xtick_3">
     <g id="line2d_10">
      <g>
       <use style="stroke:#000000;stroke-width:0.5;" x="183.6" xlink:href="#m5e0c555b4f" y="388.8"/>
      </g>
     </g>
     <g id="line2d_11">
      <g>
       <use style="stroke:#000000;stroke-width:0.5;" x="183.6" xlink:href="#mc7a0afa43f" y="43.2"/>
      </g>
     </g>
     <g id="text_3">
      <!-- −90 -->
      <defs>
       <path d="M 10.984375 1.515625 
L 10.984375 10.5 
Q 14.703125 8.734375 18.5 7.8125 
Q 22.3125 6.890625 25.984375 6.890625 
Q 35.75 6.890625 40.890625 13.453125 
Q 46.046875 20.015625 46.78125 33.40625 
Q 43.953125 29.203125 39.59375 26.953125 
Q 35.25 24.703125 29.984375 24.703125 
Q 19.046875 24.703125 12.671875 31.3125 
Q 6.296875 37.9375 6.296875 49.421875 
Q 6.296875 60.640625 12.9375 67.421875 
Q 19.578125 74.21875 30.609375 74.21875 
Q 43.265625 74.21875 49.921875 64.515625 
Q 56.59375 54.828125 56.59375 36.375 
Q 56.59375 19.140625 48.40625 8.859375 
Q 40.234375 -1.421875 26.421875 -1.421875 
Q 22.703125 -1.421875 18.890625 -0.6875 
Q 15.09375 0.046875 10.984375 1.515625 
M 30.609375 32.421875 
Q 37.25 32.421875 41.125 36.953125 
Q 45.015625 41.5 45.015625 49.421875 
Q 45.015625 57.28125 41.125 61.84375 
Q 37.25 66.40625 30.609375 66.40625 
Q 23.96875 66.40625 20.09375 61.84375 
Q 16.21875 57.28125 16.21875 49.421875 
Q 16.21875 41.5 20.09375 36.953125 
Q 23.96875 32.421875 30.609375 32.421875 
" id="BitstreamVeraSans-Roman-39"/>
      </defs>
      <g transform="translate(170.9371875 401.918125)scale(0.12 -0.12)">
       <use xlink:href="#BitstreamVeraSans-Roman-2212"/>
       <use x="83.7890625" xlink:href="#BitstreamVeraSans-Roman-39"/>
       <use x="147.412109375" xlink:href="#BitstreamVeraSans-Roman-30"/>
      </g>
     </g>
    </g>
    <g id="xtick_4">
     <g id="line2d_12">
      <g>
       <use style="stroke:#000000;stroke-width:0.5;" x="239.4" xlink:href="#m5e0c555b4f" y="388.8"/>
      </g>
     </g>
     <g id="line2d_13">
      <g>
       <use style="stroke:#000000;stroke-width:0.5;" x="239.4" xlink:href="#mc7a0afa43f" y="43.2"/>
      </g>
     </g>
     <g id="text_4">
      <!-- −45 -->
      <defs>
       <path d="M 37.796875 64.3125 
L 12.890625 25.390625 
L 37.796875 25.390625 
z
M 35.203125 72.90625 
L 47.609375 72.90625 
L 47.609375 25.390625 
L 58.015625 25.390625 
L 58.015625 17.1875 
L 47.609375 17.1875 
L 47.609375 0 
L 37.796875 0 
L 37.796875 17.1875 
L 4.890625 17.1875 
L 4.890625 26.703125 
z
" id="BitstreamVeraSans-Roman-34"/>
      </defs>
      <g transform="translate(226.7371875 401.918125)scale(0.12 -0.12)">
       <use xlink:href="#BitstreamVeraSans-Roman-2212"/>
       <use x="83.7890625" xlink:href="#BitstreamVeraSans-Roman-34"/>
       <use x="147.412109375" xlink:href="#BitstreamVeraSans-Roman-35"/>
      </g>
     </g>
    </g>
    <g id="xtick_5">
     <g id="line2d_14">
      <g>
       <use style="stroke:#000000;stroke-width:0.5;" x="295.2" xlink:href="#m5e0c555b4f" y="388.8"/>
      </g>
     </g>
     <g id="line2d_15">
      <g>
       <use style="stroke:#000000;stroke-width:0.5;" x="295.2" xlink:href="#mc7a0afa43f" y="43.2"/>
      </g>
     </g>
     <g id="text_5">
      <!-- 0 -->
      <g transform="translate(291.3825 401.918125)scale(0.12 -0.12)">
       <use xlink:href="#BitstreamVeraSans-Roman-30"/>
      </g>
     </g>
    </g>
    <g id="xtick_6">
     <g id="line2d_16">
      <g>
       <use style="stroke:#000000;stroke-width:0.5;" x="351.0" xlink:href="#m5e0c555b4f" y="388.8"/>
      </g>
     </g>
     <g id="line2d_17">
      <g>
       <use style="stroke:#000000;stroke-width:0.5;" x="351.0" xlink:href="#mc7a0afa43f" y="43.2"/>
      </g>
     </g>
     <g id="text_6">
      <!-- 45 -->
      <g transform="translate(343.365 401.918125)scale(0.12 -0.12)">
       <use xlink:href="#BitstreamVeraSans-Roman-34"/>
       <use x="63.623046875" xlink:href="#BitstreamVeraSans-Roman-35"/>
      </g>
     </g>
    </g>
    <g id="xtick_7">
     <g id="line2d_18">
      <g>
       <use style="stroke:#000000;stroke-width:0.5;" x="406.8" xlink:href="#m5e0c555b4f" y="388.8"/>
      </g>
     </g>
     <g id="line2d_19">
      <g>
       <use style="stroke:#000000;stroke-width:0.5;" x="406.8" xlink:href="#mc7a0afa43f" y="43.2"/>
      </g>
     </g>
     <g id="text_7">
      <!-- 90 -->
      <g transform="translate(399.165 401.918125)scale(0.12 -0.12)">
       <use xlink:href="#BitstreamVeraSans-Roman-39"/>
       <use x="63.623046875" xlink:href="#BitstreamVeraSans-Roman-30"/>
      </g>
     </g>
    </g>
    <g id="xtick_8">
     <g id="line2d_20">
      <g>
       <use style="stroke:#000000;stroke-width:0.5;" x="462.6" xlink:href="#m5e0c555b4f" y="388.8"/>
      </g>
     </g>
     <g id="line2d_21">
      <g>
       <use style="stroke:#000000;stroke-width:0.5;" x="462.6" xlink:href="#mc7a0afa43f" y="43.2"/>
      </g>
     </g>
     <g id="text_8">
      <!-- 135 -->
      <g transform="translate(451.1475 401.918125)scale(0.12 -0.12)">
       <use xlink:href="#BitstreamVeraSans-Roman-31"/>
       <use x="63.623046875" xlink:href="#BitstreamVeraSans-Roman-33"/>
       <use x="127.24609375" xlink:href="#BitstreamVeraSans-Roman-35"/>
      </g>
     </g>
    </g>
    <g id="xtick_9">
     <g id="line2d_22">
      <g>
       <use style="stroke:#000000;stroke-width:0.5;" x="518.4" xlink:href="#m5e0c555b4f" y="388.8"/>
      </g>
     </g>
     <g id="line2d_23">
      <g>
       <use style="stroke:#000000;stroke-width:0.5;" x="518.4" xlink:href="#mc7a0afa43f" y="43.2"/>
      </g>
     </g>
     <g id="text_9">
      <!-- 180 -->
      <g transform="translate(506.9475 401.918125)scale(0.12 -0.12)">
       <use xlink:href="#BitstreamVeraSans-Roman-31"/>
       <use x="63.623046875" xlink:href="#BitstreamVeraSans-Roman-38"/>
       <use x="127.24609375" xlink:href="#BitstreamVeraSans-Roman-30"/>
      </g>
     </g>
    </g>
    <g id="text_10">
     <!-- Phi -->
     <defs>
      <path d="M 19.671875 64.796875 
L 19.671875 37.40625 
L 32.078125 37.40625 
Q 38.96875 37.40625 42.71875 40.96875 
Q 46.484375 44.53125 46.484375 51.125 
Q 46.484375 57.671875 42.71875 61.234375 
Q 38.96875 64.796875 32.078125 64.796875 
z
M 9.8125 72.90625 
L 32.078125 72.90625 
Q 44.34375 72.90625 50.609375 67.359375 
Q 56.890625 61.8125 56.890625 51.125 
Q 56.890625 40.328125 50.609375 34.8125 
Q 44.34375 29.296875 32.078125 29.296875 
L 19.671875 29.296875 
L 19.671875 0 
L 9.8125 0 
z
" id="BitstreamVeraSans-Roman-50"/>
      <path d="M 9.421875 54.6875 
L 18.40625 54.6875 
L 18.40625 0 
L 9.421875 0 
z
M 9.421875 75.984375 
L 18.40625 75.984375 
L 18.40625 64.59375 
L 9.421875 64.59375 
z
" id="BitstreamVeraSans-Roman-69"/>
      <path d="M 54.890625 33.015625 
L 54.890625 0 
L 45.90625 0 
L 45.90625 32.71875 
Q 45.90625 40.484375 42.875 44.328125 
Q 39.84375 48.1875 33.796875 48.1875 
Q 26.515625 48.1875 22.3125 43.546875 
Q 18.109375 38.921875 18.109375 30.90625 
L 18.109375 0 
L 9.078125 0 
L 9.078125 75.984375 
L 18.109375 75.984375 
L 18.109375 46.1875 
Q 21.34375 51.125 25.703125 53.5625 
Q 30.078125 56 35.796875 56 
Q 45.21875 56 50.046875 50.171875 
Q 54.890625 44.34375 54.890625 33.015625 
" id="BitstreamVeraSans-Roman-68"/>
     </defs>
     <g transform="translate(286.1128125 418.531875)scale(0.12 -0.12)">
      <use xlink:href="#BitstreamVeraSans-Roman-50"/>
      <use x="60.302734375" xlink:href="#BitstreamVeraSans-Roman-68"/>
      <use x="123.681640625" xlink:href="#BitstreamVeraSans-Roman-69"/>
     </g>
    </g>
   </g>
   <g id="matplotlib.axis_2">
    <g id="ytick_1">
     <g id="line2d_24">
      <defs>
       <path d="M 0 0 
L 4 0 
" id="m961b1886b1" style="stroke:#000000;stroke-width:0.5;"/>
      </defs>
      <g>
       <use style="stroke:#000000;stroke-width:0.5;" x="72.0" xlink:href="#m961b1886b1" y="388.8"/>
      </g>
     </g>
     <g id="line2d_25">
      <defs>
       <path d="M 0 0 
L -4 0 
" id="m6794ba9661" style="stroke:#000000;stroke-width:0.5;"/>
      </defs>
      <g>
       <use style="stroke:#000000;stroke-width:0.5;" x="518.4" xlink:href="#m6794ba9661" y="388.8"/>
      </g>
     </g>
     <g id="text_11">
      <!-- 0.0 -->
      <defs>
       <path d="M 10.6875 12.40625 
L 21 12.40625 
L 21 0 
L 10.6875 0 
z
" id="BitstreamVeraSans-Roman-2e"/>
      </defs>
      <g transform="translate(48.91625 392.11125)scale(0.12 -0.12)">
       <use xlink:href="#BitstreamVeraSans-Roman-30"/>
       <use x="63.623046875" xlink:href="#BitstreamVeraSans-Roman-2e"/>
       <use x="95.41015625" xlink:href="#BitstreamVeraSans-Roman-30"/>
      </g>
     </g>
    </g>
    <g id="ytick_2">
     <g id="line2d_26">
      <g>
       <use style="stroke:#000000;stroke-width:0.5;" x="72.0" xlink:href="#m961b1886b1" y="350.4"/>
      </g>
     </g>
     <g id="line2d_27">
      <g>
       <use style="stroke:#000000;stroke-width:0.5;" x="518.4" xlink:href="#m6794ba9661" y="350.4"/>
      </g>
     </g>
     <g id="text_12">
      <!-- 0.2 -->
      <defs>
       <path d="M 19.1875 8.296875 
L 53.609375 8.296875 
L 53.609375 0 
L 7.328125 0 
L 7.328125 8.296875 
Q 12.9375 14.109375 22.625 23.890625 
Q 32.328125 33.6875 34.8125 36.53125 
Q 39.546875 41.84375 41.421875 45.53125 
Q 43.3125 49.21875 43.3125 52.78125 
Q 43.3125 58.59375 39.234375 62.25 
Q 35.15625 65.921875 28.609375 65.921875 
Q 23.96875 65.921875 18.8125 64.3125 
Q 13.671875 62.703125 7.8125 59.421875 
L 7.8125 69.390625 
Q 13.765625 71.78125 18.9375 73 
Q 24.125 74.21875 28.421875 74.21875 
Q 39.75 74.21875 46.484375 68.546875 
Q 53.21875 62.890625 53.21875 53.421875 
Q 53.21875 48.921875 51.53125 44.890625 
Q 49.859375 40.875 45.40625 35.40625 
Q 44.1875 33.984375 37.640625 27.21875 
Q 31.109375 20.453125 19.1875 8.296875 
" id="BitstreamVeraSans-Roman-32"/>
      </defs>
      <g transform="translate(48.91625 353.71125)scale(0.12 -0.12)">
       <use xlink:href="#BitstreamVeraSans-Roman-30"/>
       <use x="63.623046875" xlink:href="#BitstreamVeraSans-Roman-2e"/>
       <use x="95.41015625" xlink:href="#BitstreamVeraSans-Roman-32"/>
      </g>
     </g>
    </g>
    <g id="ytick_3">
     <g id="line2d_28">
      <g>
       <use style="stroke:#000000;stroke-width:0.5;" x="72.0" xlink:href="#m961b1886b1" y="312.0"/>
      </g>
     </g>
     <g id="line2d_29">
      <g>
       <use style="stroke:#000000;stroke-width:0.5;" x="518.4" xlink:href="#m6794ba9661" y="312.0"/>
      </g>
     </g>
     <g id="text_13">
      <!-- 0.4 -->
      <g transform="translate(48.91625 315.31125)scale(0.12 -0.12)">
       <use xlink:href="#BitstreamVeraSans-Roman-30"/>
       <use x="63.623046875" xlink:href="#BitstreamVeraSans-Roman-2e"/>
       <use x="95.41015625" xlink:href="#BitstreamVeraSans-Roman-34"/>
      </g>
     </g>
    </g>
    <g id="ytick_4">
     <g id="line2d_30">
      <g>
       <use style="stroke:#000000;stroke-width:0.5;" x="72.0" xlink:href="#m961b1886b1" y="273.6"/>
      </g>
     </g>
     <g id="line2d_31">
      <g>
       <use style="stroke:#000000;stroke-width:0.5;" x="518.4" xlink:href="#m6794ba9661" y="273.6"/>
      </g>
     </g>
     <g id="text_14">
      <!-- 0.6 -->
      <defs>
       <path d="M 33.015625 40.375 
Q 26.375 40.375 22.484375 35.828125 
Q 18.609375 31.296875 18.609375 23.390625 
Q 18.609375 15.53125 22.484375 10.953125 
Q 26.375 6.390625 33.015625 6.390625 
Q 39.65625 6.390625 43.53125 10.953125 
Q 47.40625 15.53125 47.40625 23.390625 
Q 47.40625 31.296875 43.53125 35.828125 
Q 39.65625 40.375 33.015625 40.375 
M 52.59375 71.296875 
L 52.59375 62.3125 
Q 48.875 64.0625 45.09375 64.984375 
Q 41.3125 65.921875 37.59375 65.921875 
Q 27.828125 65.921875 22.671875 59.328125 
Q 17.53125 52.734375 16.796875 39.40625 
Q 19.671875 43.65625 24.015625 45.921875 
Q 28.375 48.1875 33.59375 48.1875 
Q 44.578125 48.1875 50.953125 41.515625 
Q 57.328125 34.859375 57.328125 23.390625 
Q 57.328125 12.15625 50.6875 5.359375 
Q 44.046875 -1.421875 33.015625 -1.421875 
Q 20.359375 -1.421875 13.671875 8.265625 
Q 6.984375 17.96875 6.984375 36.375 
Q 6.984375 53.65625 15.1875 63.9375 
Q 23.390625 74.21875 37.203125 74.21875 
Q 40.921875 74.21875 44.703125 73.484375 
Q 48.484375 72.75 52.59375 71.296875 
" id="BitstreamVeraSans-Roman-36"/>
      </defs>
      <g transform="translate(48.91625 276.91125)scale(0.12 -0.12)">
       <use xlink:href="#BitstreamVeraSans-Roman-30"/>
       <use x="63.623046875" xlink:href="#BitstreamVeraSans-Roman-2e"/>
       <use x="95.41015625" xlink:href="#BitstreamVeraSans-Roman-36"/>
      </g>
     </g>
    </g>
    <g id="ytick_5">
     <g id="line2d_32">
      <g>
       <use style="stroke:#000000;stroke-width:0.5;" x="72.0" xlink:href="#m961b1886b1" y="235.2"/>
      </g>
     </g>
     <g id="line2d_33">
      <g>
       <use style="stroke:#000000;stroke-width:0.5;" x="518.4" xlink:href="#m6794ba9661" y="235.2"/>
      </g>
     </g>
     <g id="text_15">
      <!-- 0.8 -->
      <g transform="translate(48.91625 238.51125)scale(0.12 -0.12)">
       <use xlink:href="#BitstreamVeraSans-Roman-30"/>
       <use x="63.623046875" xlink:href="#BitstreamVeraSans-Roman-2e"/>
       <use x="95.41015625" xlink:href="#BitstreamVeraSans-Roman-38"/>
      </g>
     </g>
    </g>
    <g id="ytick_6">
     <g id="line2d_34">
      <g>
       <use style="stroke:#000000;stroke-width:0.5;" x="72.0" xlink:href="#m961b1886b1" y="196.8"/>
      </g>
     </g>
     <g id="line2d_35">
      <g>
       <use style="stroke:#000000;stroke-width:0.5;" x="518.4" xlink:href="#m6794ba9661" y="196.8"/>
      </g>
     </g>
     <g id="text_16">
      <!-- 1.0 -->
      <g transform="translate(48.91625 200.11125)scale(0.12 -0.12)">
       <use xlink:href="#BitstreamVeraSans-Roman-31"/>
       <use x="63.623046875" xlink:href="#BitstreamVeraSans-Roman-2e"/>
       <use x="95.41015625" xlink:href="#BitstreamVeraSans-Roman-30"/>
      </g>
     </g>
    </g>
    <g id="ytick_7">
     <g id="line2d_36">
      <g>
       <use style="stroke:#000000;stroke-width:0.5;" x="72.0" xlink:href="#m961b1886b1" y="158.4"/>
      </g>
     </g>
     <g id="line2d_37">
      <g>
       <use style="stroke:#000000;stroke-width:0.5;" x="518.4" xlink:href="#m6794ba9661" y="158.4"/>
      </g>
     </g>
     <g id="text_17">
      <!-- 1.2 -->
      <g transform="translate(48.91625 161.71125)scale(0.12 -0.12)">
       <use xlink:href="#BitstreamVeraSans-Roman-31"/>
       <use x="63.623046875" xlink:href="#BitstreamVeraSans-Roman-2e"/>
       <use x="95.41015625" xlink:href="#BitstreamVeraSans-Roman-32"/>
      </g>
     </g>
    </g>
    <g id="ytick_8">
     <g id="line2d_38">
      <g>
       <use style="stroke:#000000;stroke-width:0.5;" x="72.0" xlink:href="#m961b1886b1" y="120.0"/>
      </g>
     </g>
     <g id="line2d_39">
      <g>
       <use style="stroke:#000000;stroke-width:0.5;" x="518.4" xlink:href="#m6794ba9661" y="120.0"/>
      </g>
     </g>
     <g id="text_18">
      <!-- 1.4 -->
      <g transform="translate(48.91625 123.31125)scale(0.12 -0.12)">
       <use xlink:href="#BitstreamVeraSans-Roman-31"/>
       <use x="63.623046875" xlink:href="#BitstreamVeraSans-Roman-2e"/>
       <use x="95.41015625" xlink:href="#BitstreamVeraSans-Roman-34"/>
      </g>
     </g>
    </g>
    <g id="ytick_9">
     <g id="line2d_40">
      <g>
       <use style="stroke:#000000;stroke-width:0.5;" x="72.0" xlink:href="#m961b1886b1" y="81.6"/>
      </g>
     </g>
     <g id="line2d_41">
      <g>
       <use style="stroke:#000000;stroke-width:0.5;" x="518.4" xlink:href="#m6794ba9661" y="81.6"/>
      </g>
     </g>
     <g id="text_19">
      <!-- 1.6 -->
      <g transform="translate(48.91625 84.91125)scale(0.12 -0.12)">
       <use xlink:href="#BitstreamVeraSans-Roman-31"/>
       <use x="63.623046875" xlink:href="#BitstreamVeraSans-Roman-2e"/>
       <use x="95.41015625" xlink:href="#BitstreamVeraSans-Roman-36"/>
      </g>
     </g>
    </g>
    <g id="ytick_10">
     <g id="line2d_42">
      <g>
       <use style="stroke:#000000;stroke-width:0.5;" x="72.0" xlink:href="#m961b1886b1" y="43.2"/>
      </g>
     </g>
     <g id="line2d_43">
      <g>
       <use style="stroke:#000000;stroke-width:0.5;" x="518.4" xlink:href="#m6794ba9661" y="43.2"/>
      </g>
     </g>
     <g id="text_20">
      <!-- 1.8 -->
      <g transform="translate(48.91625 46.51125)scale(0.12 -0.12)">
       <use xlink:href="#BitstreamVeraSans-Roman-31"/>
       <use x="63.623046875" xlink:href="#BitstreamVeraSans-Roman-2e"/>
       <use x="95.41015625" xlink:href="#BitstreamVeraSans-Roman-38"/>
      </g>
     </g>
    </g>
    <g id="text_21">
     <!-- kcal/mol -->
     <defs>
      <path d="M 9.421875 75.984375 
L 18.40625 75.984375 
L 18.40625 0 
L 9.421875 0 
z
" id="BitstreamVeraSans-Roman-6c"/>
      <path d="M 30.609375 48.390625 
Q 23.390625 48.390625 19.1875 42.75 
Q 14.984375 37.109375 14.984375 27.296875 
Q 14.984375 17.484375 19.15625 11.84375 
Q 23.34375 6.203125 30.609375 6.203125 
Q 37.796875 6.203125 41.984375 11.859375 
Q 46.1875 17.53125 46.1875 27.296875 
Q 46.1875 37.015625 41.984375 42.703125 
Q 37.796875 48.390625 30.609375 48.390625 
M 30.609375 56 
Q 42.328125 56 49.015625 48.375 
Q 55.71875 40.765625 55.71875 27.296875 
Q 55.71875 13.875 49.015625 6.21875 
Q 42.328125 -1.421875 30.609375 -1.421875 
Q 18.84375 -1.421875 12.171875 6.21875 
Q 5.515625 13.875 5.515625 27.296875 
Q 5.515625 40.765625 12.171875 48.375 
Q 18.84375 56 30.609375 56 
" id="BitstreamVeraSans-Roman-6f"/>
      <path d="M 52 44.1875 
Q 55.375 50.25 60.0625 53.125 
Q 64.75 56 71.09375 56 
Q 79.640625 56 84.28125 50.015625 
Q 88.921875 44.046875 88.921875 33.015625 
L 88.921875 0 
L 79.890625 0 
L 79.890625 32.71875 
Q 79.890625 40.578125 77.09375 44.375 
Q 74.3125 48.1875 68.609375 48.1875 
Q 61.625 48.1875 57.5625 43.546875 
Q 53.515625 38.921875 53.515625 30.90625 
L 53.515625 0 
L 44.484375 0 
L 44.484375 32.71875 
Q 44.484375 40.625 41.703125 44.40625 
Q 38.921875 48.1875 33.109375 48.1875 
Q 26.21875 48.1875 22.15625 43.53125 
Q 18.109375 38.875 18.109375 30.90625 
L 18.109375 0 
L 9.078125 0 
L 9.078125 54.6875 
L 18.109375 54.6875 
L 18.109375 46.1875 
Q 21.1875 51.21875 25.484375 53.609375 
Q 29.78125 56 35.6875 56 
Q 41.65625 56 45.828125 52.96875 
Q 50 49.953125 52 44.1875 
" id="BitstreamVeraSans-Roman-6d"/>
      <path d="M 34.28125 27.484375 
Q 23.390625 27.484375 19.1875 25 
Q 14.984375 22.515625 14.984375 16.5 
Q 14.984375 11.71875 18.140625 8.90625 
Q 21.296875 6.109375 26.703125 6.109375 
Q 34.1875 6.109375 38.703125 11.40625 
Q 43.21875 16.703125 43.21875 25.484375 
L 43.21875 27.484375 
z
M 52.203125 31.203125 
L 52.203125 0 
L 43.21875 0 
L 43.21875 8.296875 
Q 40.140625 3.328125 35.546875 0.953125 
Q 30.953125 -1.421875 24.3125 -1.421875 
Q 15.921875 -1.421875 10.953125 3.296875 
Q 6 8.015625 6 15.921875 
Q 6 25.140625 12.171875 29.828125 
Q 18.359375 34.515625 30.609375 34.515625 
L 43.21875 34.515625 
L 43.21875 35.40625 
Q 43.21875 41.609375 39.140625 45 
Q 35.0625 48.390625 27.6875 48.390625 
Q 23 48.390625 18.546875 47.265625 
Q 14.109375 46.140625 10.015625 43.890625 
L 10.015625 52.203125 
Q 14.9375 54.109375 19.578125 55.046875 
Q 24.21875 56 28.609375 56 
Q 40.484375 56 46.34375 49.84375 
Q 52.203125 43.703125 52.203125 31.203125 
" id="BitstreamVeraSans-Roman-61"/>
      <path d="M 9.078125 75.984375 
L 18.109375 75.984375 
L 18.109375 31.109375 
L 44.921875 54.6875 
L 56.390625 54.6875 
L 27.390625 29.109375 
L 57.625 0 
L 45.90625 0 
L 18.109375 26.703125 
L 18.109375 0 
L 9.078125 0 
z
" id="BitstreamVeraSans-Roman-6b"/>
      <path d="M 48.78125 52.59375 
L 48.78125 44.1875 
Q 44.96875 46.296875 41.140625 47.34375 
Q 37.3125 48.390625 33.40625 48.390625 
Q 24.65625 48.390625 19.8125 42.84375 
Q 14.984375 37.3125 14.984375 27.296875 
Q 14.984375 17.28125 19.8125 11.734375 
Q 24.65625 6.203125 33.40625 6.203125 
Q 37.3125 6.203125 41.140625 7.25 
Q 44.96875 8.296875 48.78125 10.40625 
L 48.78125 2.09375 
Q 45.015625 0.34375 40.984375 -0.53125 
Q 36.96875 -1.421875 32.421875 -1.421875 
Q 20.0625 -1.421875 12.78125 6.34375 
Q 5.515625 14.109375 5.515625 27.296875 
Q 5.515625 40.671875 12.859375 48.328125 
Q 20.21875 56 33.015625 56 
Q 37.15625 56 41.109375 55.140625 
Q 45.0625 54.296875 48.78125 52.59375 
" id="BitstreamVeraSans-Roman-63"/>
      <path d="M 25.390625 72.90625 
L 33.6875 72.90625 
L 8.296875 -9.28125 
L 0 -9.28125 
z
" id="BitstreamVeraSans-Roman-2f"/>
     </defs>
     <g transform="translate(41.420625 241.3209375)rotate(-90.0)scale(0.12 -0.12)">
      <use xlink:href="#BitstreamVeraSans-Roman-6b"/>
      <use x="57.91015625" xlink:href="#BitstreamVeraSans-Roman-63"/>
      <use x="112.890625" xlink:href="#BitstreamVeraSans-Roman-61"/>
      <use x="174.169921875" xlink:href="#BitstreamVeraSans-Roman-6c"/>
      <use x="201.953125" xlink:href="#BitstreamVeraSans-Roman-2f"/>
      <use x="235.64453125" xlink:href="#BitstreamVeraSans-Roman-6d"/>
      <use x="333.056640625" xlink:href="#BitstreamVeraSans-Roman-6f"/>
      <use x="394.23828125" xlink:href="#BitstreamVeraSans-Roman-6c"/>
     </g>
    </g>
   </g>
   <g id="text_22">
    <!-- O1-N1-C3-C2 -->
    <defs>
     <path d="M 4.890625 31.390625 
L 31.203125 31.390625 
L 31.203125 23.390625 
L 4.890625 23.390625 
z
" id="BitstreamVeraSans-Roman-2d"/>
     <path d="M 64.40625 67.28125 
L 64.40625 56.890625 
Q 59.421875 61.53125 53.78125 63.8125 
Q 48.140625 66.109375 41.796875 66.109375 
Q 29.296875 66.109375 22.65625 58.46875 
Q 16.015625 50.828125 16.015625 36.375 
Q 16.015625 21.96875 22.65625 14.328125 
Q 29.296875 6.6875 41.796875 6.6875 
Q 48.140625 6.6875 53.78125 8.984375 
Q 59.421875 11.28125 64.40625 15.921875 
L 64.40625 5.609375 
Q 59.234375 2.09375 53.4375 0.328125 
Q 47.65625 -1.421875 41.21875 -1.421875 
Q 24.65625 -1.421875 15.125 8.703125 
Q 5.609375 18.84375 5.609375 36.375 
Q 5.609375 53.953125 15.125 64.078125 
Q 24.65625 74.21875 41.21875 74.21875 
Q 47.75 74.21875 53.53125 72.484375 
Q 59.328125 70.75 64.40625 67.28125 
" id="BitstreamVeraSans-Roman-43"/>
     <path d="M 9.8125 72.90625 
L 23.09375 72.90625 
L 55.421875 11.921875 
L 55.421875 72.90625 
L 64.984375 72.90625 
L 64.984375 0 
L 51.703125 0 
L 19.390625 60.984375 
L 19.390625 0 
L 9.8125 0 
z
" id="BitstreamVeraSans-Roman-4e"/>
     <path d="M 39.40625 66.21875 
Q 28.65625 66.21875 22.328125 58.203125 
Q 16.015625 50.203125 16.015625 36.375 
Q 16.015625 22.609375 22.328125 14.59375 
Q 28.65625 6.59375 39.40625 6.59375 
Q 50.140625 6.59375 56.421875 14.59375 
Q 62.703125 22.609375 62.703125 36.375 
Q 62.703125 50.203125 56.421875 58.203125 
Q 50.140625 66.21875 39.40625 66.21875 
M 39.40625 74.21875 
Q 54.734375 74.21875 63.90625 63.9375 
Q 73.09375 53.65625 73.09375 36.375 
Q 73.09375 19.140625 63.90625 8.859375 
Q 54.734375 -1.421875 39.40625 -1.421875 
Q 24.03125 -1.421875 14.8125 8.828125 
Q 5.609375 19.09375 5.609375 36.375 
Q 5.609375 53.65625 14.8125 63.9375 
Q 24.03125 74.21875 39.40625 74.21875 
" id="BitstreamVeraSans-Roman-4f"/>
    </defs>
    <g transform="translate(247.973625 38.2)scale(0.144 -0.144)">
     <use xlink:href="#BitstreamVeraSans-Roman-4f"/>
     <use x="78.7109375" xlink:href="#BitstreamVeraSans-Roman-31"/>
     <use x="142.333984375" xlink:href="#BitstreamVeraSans-Roman-2d"/>
     <use x="178.41796875" xlink:href="#BitstreamVeraSans-Roman-4e"/>
     <use x="253.22265625" xlink:href="#BitstreamVeraSans-Roman-31"/>
     <use x="316.845703125" xlink:href="#BitstreamVeraSans-Roman-2d"/>
     <use x="352.9296875" xlink:href="#BitstreamVeraSans-Roman-43"/>
     <use x="422.75390625" xlink:href="#BitstreamVeraSans-Roman-33"/>
     <use x="486.376953125" xlink:href="#BitstreamVeraSans-Roman-2d"/>
     <use x="522.4609375" xlink:href="#BitstreamVeraSans-Roman-43"/>
     <use x="592.28515625" xlink:href="#BitstreamVeraSans-Roman-32"/>
    </g>
   </g>
   <g id="legend_1">
    <g id="patch_7">
     <path d="M 406.15625 108.3125 
L 514.4 108.3125 
L 514.4 47.2 
L 406.15625 47.2 
z
" style="fill:#ffffff;stroke:#000000;stroke-linejoin:miter;"/>
    </g>
    <g id="line2d_44">
     <path d="M 411.75625 53.67875 
L 422.95625 53.67875 
" style="fill:none;stroke:#ff0000;stroke-linecap:square;"/>
    </g>
    <g id="line2d_45">
     <g>
      <use style="fill:#ff0000;stroke:#000000;stroke-width:0.5;" x="411.75625" xlink:href="#m47642e603c" y="53.67875"/>
      <use style="fill:#ff0000;stroke:#000000;stroke-width:0.5;" x="422.95625" xlink:href="#m47642e603c" y="53.67875"/>
     </g>
    </g>
    <g id="text_23">
     <!-- QM -->
     <defs>
      <path d="M 9.8125 72.90625 
L 24.515625 72.90625 
L 43.109375 23.296875 
L 61.8125 72.90625 
L 76.515625 72.90625 
L 76.515625 0 
L 66.890625 0 
L 66.890625 64.015625 
L 48.09375 14.015625 
L 38.1875 14.015625 
L 19.390625 64.015625 
L 19.390625 0 
L 9.8125 0 
z
" id="BitstreamVeraSans-Roman-4d"/>
      <path d="M 39.40625 66.21875 
Q 28.65625 66.21875 22.328125 58.203125 
Q 16.015625 50.203125 16.015625 36.375 
Q 16.015625 22.609375 22.328125 14.59375 
Q 28.65625 6.59375 39.40625 6.59375 
Q 50.140625 6.59375 56.421875 14.59375 
Q 62.703125 22.609375 62.703125 36.375 
Q 62.703125 50.203125 56.421875 58.203125 
Q 50.140625 66.21875 39.40625 66.21875 
M 53.21875 1.3125 
L 66.21875 -12.890625 
L 54.296875 -12.890625 
L 43.5 -1.21875 
Q 41.890625 -1.3125 41.03125 -1.359375 
Q 40.1875 -1.421875 39.40625 -1.421875 
Q 24.03125 -1.421875 14.8125 8.859375 
Q 5.609375 19.140625 5.609375 36.375 
Q 5.609375 53.65625 14.8125 63.9375 
Q 24.03125 74.21875 39.40625 74.21875 
Q 54.734375 74.21875 63.90625 63.9375 
Q 73.09375 53.65625 73.09375 36.375 
Q 73.09375 23.6875 67.984375 14.640625 
Q 62.890625 5.609375 53.21875 1.3125 
" id="BitstreamVeraSans-Roman-51"/>
     </defs>
     <g transform="translate(431.75625 56.47875)scale(0.08 -0.08)">
      <use xlink:href="#BitstreamVeraSans-Roman-51"/>
      <use x="78.7109375" xlink:href="#BitstreamVeraSans-Roman-4d"/>
     </g>
    </g>
    <g id="line2d_46">
     <path d="M 411.75625 65.42125 
L 422.95625 65.42125 
" style="fill:none;stroke:#0000ff;stroke-linecap:square;"/>
    </g>
    <g id="line2d_47">
     <g>
      <use style="fill:#0000ff;stroke:#000000;stroke-width:0.5;" x="411.75625" xlink:href="#m7606a06caa" y="65.42125"/>
      <use style="fill:#0000ff;stroke:#000000;stroke-width:0.5;" x="422.95625" xlink:href="#m7606a06caa" y="65.42125"/>
     </g>
    </g>
    <g id="text_24">
     <!-- MM Original -->
     <defs>
      <path d="M 41.109375 46.296875 
Q 39.59375 47.171875 37.8125 47.578125 
Q 36.03125 48 33.890625 48 
Q 26.265625 48 22.1875 43.046875 
Q 18.109375 38.09375 18.109375 28.8125 
L 18.109375 0 
L 9.078125 0 
L 9.078125 54.6875 
L 18.109375 54.6875 
L 18.109375 46.1875 
Q 20.953125 51.171875 25.484375 53.578125 
Q 30.03125 56 36.53125 56 
Q 37.453125 56 38.578125 55.875 
Q 39.703125 55.765625 41.0625 55.515625 
z
" id="BitstreamVeraSans-Roman-72"/>
      <path d="M 54.890625 33.015625 
L 54.890625 0 
L 45.90625 0 
L 45.90625 32.71875 
Q 45.90625 40.484375 42.875 44.328125 
Q 39.84375 48.1875 33.796875 48.1875 
Q 26.515625 48.1875 22.3125 43.546875 
Q 18.109375 38.921875 18.109375 30.90625 
L 18.109375 0 
L 9.078125 0 
L 9.078125 54.6875 
L 18.109375 54.6875 
L 18.109375 46.1875 
Q 21.34375 51.125 25.703125 53.5625 
Q 30.078125 56 35.796875 56 
Q 45.21875 56 50.046875 50.171875 
Q 54.890625 44.34375 54.890625 33.015625 
" id="BitstreamVeraSans-Roman-6e"/>
      <path d="M 45.40625 27.984375 
Q 45.40625 37.75 41.375 43.109375 
Q 37.359375 48.484375 30.078125 48.484375 
Q 22.859375 48.484375 18.828125 43.109375 
Q 14.796875 37.75 14.796875 27.984375 
Q 14.796875 18.265625 18.828125 12.890625 
Q 22.859375 7.515625 30.078125 7.515625 
Q 37.359375 7.515625 41.375 12.890625 
Q 45.40625 18.265625 45.40625 27.984375 
M 54.390625 6.78125 
Q 54.390625 -7.171875 48.1875 -13.984375 
Q 42 -20.796875 29.203125 -20.796875 
Q 24.46875 -20.796875 20.265625 -20.09375 
Q 16.0625 -19.390625 12.109375 -17.921875 
L 12.109375 -9.1875 
Q 16.0625 -11.328125 19.921875 -12.34375 
Q 23.78125 -13.375 27.78125 -13.375 
Q 36.625 -13.375 41.015625 -8.765625 
Q 45.40625 -4.15625 45.40625 5.171875 
L 45.40625 9.625 
Q 42.625 4.78125 38.28125 2.390625 
Q 33.9375 0 27.875 0 
Q 17.828125 0 11.671875 7.65625 
Q 5.515625 15.328125 5.515625 27.984375 
Q 5.515625 40.671875 11.671875 48.328125 
Q 17.828125 56 27.875 56 
Q 33.9375 56 38.28125 53.609375 
Q 42.625 51.21875 45.40625 46.390625 
L 45.40625 54.6875 
L 54.390625 54.6875 
z
" id="BitstreamVeraSans-Roman-67"/>
      <path id="BitstreamVeraSans-Roman-20"/>
     </defs>
     <g transform="translate(431.75625 68.22125)scale(0.08 -0.08)">
      <use xlink:href="#BitstreamVeraSans-Roman-4d"/>
      <use x="86.279296875" xlink:href="#BitstreamVeraSans-Roman-4d"/>
      <use x="172.55859375" xlink:href="#BitstreamVeraSans-Roman-20"/>
      <use x="204.345703125" xlink:href="#BitstreamVeraSans-Roman-4f"/>
      <use x="283.056640625" xlink:href="#BitstreamVeraSans-Roman-72"/>
      <use x="324.169921875" xlink:href="#BitstreamVeraSans-Roman-69"/>
      <use x="351.953125" xlink:href="#BitstreamVeraSans-Roman-67"/>
      <use x="415.4296875" xlink:href="#BitstreamVeraSans-Roman-69"/>
      <use x="443.212890625" xlink:href="#BitstreamVeraSans-Roman-6e"/>
      <use x="506.591796875" xlink:href="#BitstreamVeraSans-Roman-61"/>
      <use x="567.87109375" xlink:href="#BitstreamVeraSans-Roman-6c"/>
     </g>
    </g>
    <g id="line2d_48">
     <path d="M 411.75625 77.16375 
L 422.95625 77.16375 
" style="fill:none;stroke:#000000;stroke-linecap:square;"/>
    </g>
    <g id="line2d_49">
     <g>
      <use style="stroke:#000000;stroke-width:0.5;" x="411.75625" xlink:href="#m2ac3c2a398" y="77.16375"/>
      <use style="stroke:#000000;stroke-width:0.5;" x="422.95625" xlink:href="#m2ac3c2a398" y="77.16375"/>
     </g>
    </g>
    <g id="text_25">
     <!-- MM With phi zeroed -->
     <defs>
      <path d="M 45.40625 46.390625 
L 45.40625 75.984375 
L 54.390625 75.984375 
L 54.390625 0 
L 45.40625 0 
L 45.40625 8.203125 
Q 42.578125 3.328125 38.25 0.953125 
Q 33.9375 -1.421875 27.875 -1.421875 
Q 17.96875 -1.421875 11.734375 6.484375 
Q 5.515625 14.40625 5.515625 27.296875 
Q 5.515625 40.1875 11.734375 48.09375 
Q 17.96875 56 27.875 56 
Q 33.9375 56 38.25 53.625 
Q 42.578125 51.265625 45.40625 46.390625 
M 14.796875 27.296875 
Q 14.796875 17.390625 18.875 11.75 
Q 22.953125 6.109375 30.078125 6.109375 
Q 37.203125 6.109375 41.296875 11.75 
Q 45.40625 17.390625 45.40625 27.296875 
Q 45.40625 37.203125 41.296875 42.84375 
Q 37.203125 48.484375 30.078125 48.484375 
Q 22.953125 48.484375 18.875 42.84375 
Q 14.796875 37.203125 14.796875 27.296875 
" id="BitstreamVeraSans-Roman-64"/>
      <path d="M 18.3125 70.21875 
L 18.3125 54.6875 
L 36.8125 54.6875 
L 36.8125 47.703125 
L 18.3125 47.703125 
L 18.3125 18.015625 
Q 18.3125 11.328125 20.140625 9.421875 
Q 21.96875 7.515625 27.59375 7.515625 
L 36.8125 7.515625 
L 36.8125 0 
L 27.59375 0 
Q 17.1875 0 13.234375 3.875 
Q 9.28125 7.765625 9.28125 18.015625 
L 9.28125 47.703125 
L 2.6875 47.703125 
L 2.6875 54.6875 
L 9.28125 54.6875 
L 9.28125 70.21875 
z
" id="BitstreamVeraSans-Roman-74"/>
      <path d="M 56.203125 29.59375 
L 56.203125 25.203125 
L 14.890625 25.203125 
Q 15.484375 15.921875 20.484375 11.0625 
Q 25.484375 6.203125 34.421875 6.203125 
Q 39.59375 6.203125 44.453125 7.46875 
Q 49.3125 8.734375 54.109375 11.28125 
L 54.109375 2.78125 
Q 49.265625 0.734375 44.1875 -0.34375 
Q 39.109375 -1.421875 33.890625 -1.421875 
Q 20.796875 -1.421875 13.15625 6.1875 
Q 5.515625 13.8125 5.515625 26.8125 
Q 5.515625 40.234375 12.765625 48.109375 
Q 20.015625 56 32.328125 56 
Q 43.359375 56 49.78125 48.890625 
Q 56.203125 41.796875 56.203125 29.59375 
M 47.21875 32.234375 
Q 47.125 39.59375 43.09375 43.984375 
Q 39.0625 48.390625 32.421875 48.390625 
Q 24.90625 48.390625 20.390625 44.140625 
Q 15.875 39.890625 15.1875 32.171875 
z
" id="BitstreamVeraSans-Roman-65"/>
      <path d="M 3.328125 72.90625 
L 13.28125 72.90625 
L 28.609375 11.28125 
L 43.890625 72.90625 
L 54.984375 72.90625 
L 70.3125 11.28125 
L 85.59375 72.90625 
L 95.609375 72.90625 
L 77.296875 0 
L 64.890625 0 
L 49.515625 63.28125 
L 33.984375 0 
L 21.578125 0 
z
" id="BitstreamVeraSans-Roman-57"/>
      <path d="M 18.109375 8.203125 
L 18.109375 -20.796875 
L 9.078125 -20.796875 
L 9.078125 54.6875 
L 18.109375 54.6875 
L 18.109375 46.390625 
Q 20.953125 51.265625 25.265625 53.625 
Q 29.59375 56 35.59375 56 
Q 45.5625 56 51.78125 48.09375 
Q 58.015625 40.1875 58.015625 27.296875 
Q 58.015625 14.40625 51.78125 6.484375 
Q 45.5625 -1.421875 35.59375 -1.421875 
Q 29.59375 -1.421875 25.265625 0.953125 
Q 20.953125 3.328125 18.109375 8.203125 
M 48.6875 27.296875 
Q 48.6875 37.203125 44.609375 42.84375 
Q 40.53125 48.484375 33.40625 48.484375 
Q 26.265625 48.484375 22.1875 42.84375 
Q 18.109375 37.203125 18.109375 27.296875 
Q 18.109375 17.390625 22.1875 11.75 
Q 26.265625 6.109375 33.40625 6.109375 
Q 40.53125 6.109375 44.609375 11.75 
Q 48.6875 17.390625 48.6875 27.296875 
" id="BitstreamVeraSans-Roman-70"/>
      <path d="M 5.515625 54.6875 
L 48.1875 54.6875 
L 48.1875 46.484375 
L 14.40625 7.171875 
L 48.1875 7.171875 
L 48.1875 0 
L 4.296875 0 
L 4.296875 8.203125 
L 38.09375 47.515625 
L 5.515625 47.515625 
z
" id="BitstreamVeraSans-Roman-7a"/>
     </defs>
     <g transform="translate(431.75625 79.96375)scale(0.08 -0.08)">
      <use xlink:href="#BitstreamVeraSans-Roman-4d"/>
      <use x="86.279296875" xlink:href="#BitstreamVeraSans-Roman-4d"/>
      <use x="172.55859375" xlink:href="#BitstreamVeraSans-Roman-20"/>
      <use x="204.345703125" xlink:href="#BitstreamVeraSans-Roman-57"/>
      <use x="303.19140625" xlink:href="#BitstreamVeraSans-Roman-69"/>
      <use x="330.974609375" xlink:href="#BitstreamVeraSans-Roman-74"/>
      <use x="370.18359375" xlink:href="#BitstreamVeraSans-Roman-68"/>
      <use x="433.5625" xlink:href="#BitstreamVeraSans-Roman-20"/>
      <use x="465.349609375" xlink:href="#BitstreamVeraSans-Roman-70"/>
      <use x="528.826171875" xlink:href="#BitstreamVeraSans-Roman-68"/>
      <use x="592.205078125" xlink:href="#BitstreamVeraSans-Roman-69"/>
      <use x="619.98828125" xlink:href="#BitstreamVeraSans-Roman-20"/>
      <use x="651.775390625" xlink:href="#BitstreamVeraSans-Roman-7a"/>
      <use x="704.265625" xlink:href="#BitstreamVeraSans-Roman-65"/>
      <use x="765.7890625" xlink:href="#BitstreamVeraSans-Roman-72"/>
      <use x="806.87109375" xlink:href="#BitstreamVeraSans-Roman-6f"/>
      <use x="868.052734375" xlink:href="#BitstreamVeraSans-Roman-65"/>
      <use x="929.576171875" xlink:href="#BitstreamVeraSans-Roman-64"/>
     </g>
    </g>
    <g id="line2d_50">
     <path d="M 411.75625 88.90625 
L 422.95625 88.90625 
" style="fill:none;stroke:#ff00ff;stroke-linecap:square;"/>
    </g>
    <g id="line2d_51">
     <g>
      <use style="fill:#ff00ff;stroke:#ff00ff;stroke-width:0.5;" x="411.75625" xlink:href="#mb9f6971573" y="88.90625"/>
      <use style="fill:#ff00ff;stroke:#ff00ff;stroke-width:0.5;" x="422.95625" xlink:href="#mb9f6971573" y="88.90625"/>
     </g>
    </g>
    <g id="text_26">
     <!-- QM-MM target -->
     <g transform="translate(431.75625 91.70625)scale(0.08 -0.08)">
      <use xlink:href="#BitstreamVeraSans-Roman-51"/>
      <use x="78.7109375" xlink:href="#BitstreamVeraSans-Roman-4d"/>
      <use x="164.990234375" xlink:href="#BitstreamVeraSans-Roman-2d"/>
      <use x="201.07421875" xlink:href="#BitstreamVeraSans-Roman-4d"/>
      <use x="287.353515625" xlink:href="#BitstreamVeraSans-Roman-4d"/>
      <use x="373.6328125" xlink:href="#BitstreamVeraSans-Roman-20"/>
      <use x="405.419921875" xlink:href="#BitstreamVeraSans-Roman-74"/>
      <use x="444.62890625" xlink:href="#BitstreamVeraSans-Roman-61"/>
      <use x="505.908203125" xlink:href="#BitstreamVeraSans-Roman-72"/>
      <use x="547.005859375" xlink:href="#BitstreamVeraSans-Roman-67"/>
      <use x="610.482421875" xlink:href="#BitstreamVeraSans-Roman-65"/>
      <use x="672.005859375" xlink:href="#BitstreamVeraSans-Roman-74"/>
     </g>
    </g>
    <g id="line2d_52">
     <path d="M 411.75625 100.64875 
L 422.95625 100.64875 
" style="fill:none;stroke:#008000;stroke-linecap:square;"/>
    </g>
    <g id="line2d_53">
     <g>
      <use style="fill:#008000;stroke:#000000;stroke-width:0.5;" x="411.75625" xlink:href="#m2fd0f1ddac" y="100.64875"/>
      <use style="fill:#008000;stroke:#000000;stroke-width:0.5;" x="422.95625" xlink:href="#m2fd0f1ddac" y="100.64875"/>
     </g>
    </g>
    <g id="text_27">
     <!-- MM Fitted -->
     <defs>
      <path d="M 9.8125 72.90625 
L 51.703125 72.90625 
L 51.703125 64.59375 
L 19.671875 64.59375 
L 19.671875 43.109375 
L 48.578125 43.109375 
L 48.578125 34.8125 
L 19.671875 34.8125 
L 19.671875 0 
L 9.8125 0 
z
" id="BitstreamVeraSans-Roman-46"/>
     </defs>
     <g transform="translate(431.75625 103.44875)scale(0.08 -0.08)">
      <use xlink:href="#BitstreamVeraSans-Roman-4d"/>
      <use x="86.279296875" xlink:href="#BitstreamVeraSans-Roman-4d"/>
      <use x="172.55859375" xlink:href="#BitstreamVeraSans-Roman-20"/>
      <use x="204.345703125" xlink:href="#BitstreamVeraSans-Roman-46"/>
      <use x="261.755859375" xlink:href="#BitstreamVeraSans-Roman-69"/>
      <use x="289.5390625" xlink:href="#BitstreamVeraSans-Roman-74"/>
      <use x="328.748046875" xlink:href="#BitstreamVeraSans-Roman-74"/>
      <use x="367.95703125" xlink:href="#BitstreamVeraSans-Roman-65"/>
      <use x="429.48046875" xlink:href="#BitstreamVeraSans-Roman-64"/>
     </g>
    </g>
   </g>
  </g>
 </g>
 <defs>
  <clipPath id="p3fe4ca5f6c">
   <rect height="345.6" width="446.4" x="72.0" y="43.2"/>
  </clipPath>
 </defs>
</svg>
