<?xml version="1.0" encoding="utf-8" standalone="no"?>
<!DOCTYPE svg PUBLIC "-//W3C//DTD SVG 1.1//EN"
  "http://www.w3.org/Graphics/SVG/1.1/DTD/svg11.dtd">
<!-- Created with matplotlib (http://matplotlib.org/) -->
<svg height="432pt" version="1.1" viewBox="0 0 576 432" width="576pt" xmlns="http://www.w3.org/2000/svg" xmlns:xlink="http://www.w3.org/1999/xlink">
 <defs>
  <style type="text/css">
*{stroke-linecap:butt;stroke-linejoin:round;stroke-miterlimit:100000;}
  </style>
 </defs>
 <g id="figure_1">
  <g id="patch_1">
   <path d="M 0 432 
L 576 432 
L 576 0 
L 0 0 
z
" style="fill:#ffffff;"/>
  </g>
  <g id="axes_1">
   <g id="patch_2">
    <path d="M 72 388.8 
L 518.4 388.8 
L 518.4 43.2 
L 72 43.2 
z
" style="fill:#ffffff;"/>
   </g>
   <g id="line2d_1">
    <path clip-path="url(#pfa108b26f7)" d="M 71.999019 387.180382 
L 84.400012 381.834395 
L 96.799993 341.438022 
L 109.200006 275.412561 
L 121.600006 198.075511 
L 133.999993 127.514771 
L 146.400012 84.539095 
L 158.799985 87.315945 
L 171.200012 138.113432 
L 183.600013 218.117917 
L 196.000026 300.211121 
L 208.400018 361.63194 
L 220.799994 388.8 
L 233.200017 377.941683 
L 245.599988 333.766618 
L 258.000005 267.023282 
L 270.400021 192.086364 
L 282.800002 125.382737 
L 295.20046 84.733233 
L 307.59998 86.066016 
L 320.000025 133.263681 
L 332.399993 211.132133 
L 344.799972 293.838386 
L 357.199985 357.77749 
L 369.599998 388.078605 
L 381.999995 379.823811 
L 394.399985 336.771 
L 406.799992 269.090079 
L 419.199991 191.707645 
L 431.59998 123.226904 
L 443.999999 83.579489 
L 456.399985 87.30635 
L 468.799996 134.551265 
L 481.200013 210.028118 
L 493.599987 290.782596 
L 505.999981 354.856877 
" style="fill:none;stroke:#ff0000;stroke-linecap:square;"/>
    <defs>
     <path d="M 0 3 
C 0.795609 3 1.55874 2.683901 2.12132 2.12132 
C 2.683901 1.55874 3 0.795609 3 0 
C 3 -0.795609 2.683901 -1.55874 2.12132 -2.12132 
C 1.55874 -2.683901 0.795609 -3 0 -3 
C -0.795609 -3 -1.55874 -2.683901 -2.12132 -2.12132 
C -2.683901 -1.55874 -3 -0.795609 -3 0 
C -3 0.795609 -2.683901 1.55874 -2.12132 2.12132 
C -1.55874 2.683901 -0.795609 3 0 3 
z
" id="mec08baebe6" style="stroke:#000000;stroke-width:0.5;"/>
    </defs>
    <g clip-path="url(#pfa108b26f7)">
     <use style="fill:#ff0000;stroke:#000000;stroke-width:0.5;" x="71.9990190928" xlink:href="#mec08baebe6" y="387.180381529"/>
     <use style="fill:#ff0000;stroke:#000000;stroke-width:0.5;" x="84.4000121673" xlink:href="#mec08baebe6" y="381.834395204"/>
     <use style="fill:#ff0000;stroke:#000000;stroke-width:0.5;" x="96.7999934445" xlink:href="#mec08baebe6" y="341.43802162"/>
     <use style="fill:#ff0000;stroke:#000000;stroke-width:0.5;" x="109.200005987" xlink:href="#mec08baebe6" y="275.412560982"/>
     <use style="fill:#ff0000;stroke:#000000;stroke-width:0.5;" x="121.600006204" xlink:href="#mec08baebe6" y="198.07551063"/>
     <use style="fill:#ff0000;stroke:#000000;stroke-width:0.5;" x="133.999992575" xlink:href="#mec08baebe6" y="127.514771265"/>
     <use style="fill:#ff0000;stroke:#000000;stroke-width:0.5;" x="146.400011953" xlink:href="#mec08baebe6" y="84.5390946977"/>
     <use style="fill:#ff0000;stroke:#000000;stroke-width:0.5;" x="158.799984563" xlink:href="#mec08baebe6" y="87.3159450285"/>
     <use style="fill:#ff0000;stroke:#000000;stroke-width:0.5;" x="171.200011832" xlink:href="#mec08baebe6" y="138.113431589"/>
     <use style="fill:#ff0000;stroke:#000000;stroke-width:0.5;" x="183.600013369" xlink:href="#mec08baebe6" y="218.117917297"/>
     <use style="fill:#ff0000;stroke:#000000;stroke-width:0.5;" x="196.00002584" xlink:href="#mec08baebe6" y="300.211120749"/>
     <use style="fill:#ff0000;stroke:#000000;stroke-width:0.5;" x="208.400018049" xlink:href="#mec08baebe6" y="361.631940242"/>
     <use style="fill:#ff0000;stroke:#000000;stroke-width:0.5;" x="220.799993694" xlink:href="#mec08baebe6" y="388.8"/>
     <use style="fill:#ff0000;stroke:#000000;stroke-width:0.5;" x="233.20001747" xlink:href="#mec08baebe6" y="377.941682922"/>
     <use style="fill:#ff0000;stroke:#000000;stroke-width:0.5;" x="245.599988486" xlink:href="#mec08baebe6" y="333.766617843"/>
     <use style="fill:#ff0000;stroke:#000000;stroke-width:0.5;" x="258.000004502" xlink:href="#mec08baebe6" y="267.023282374"/>
     <use style="fill:#ff0000;stroke:#000000;stroke-width:0.5;" x="270.400021421" xlink:href="#mec08baebe6" y="192.086364236"/>
     <use style="fill:#ff0000;stroke:#000000;stroke-width:0.5;" x="282.800002111" xlink:href="#mec08baebe6" y="125.382737001"/>
     <use style="fill:#ff0000;stroke:#000000;stroke-width:0.5;" x="295.200459505" xlink:href="#mec08baebe6" y="84.7332326353"/>
     <use style="fill:#ff0000;stroke:#000000;stroke-width:0.5;" x="307.599979757" xlink:href="#mec08baebe6" y="86.0660160072"/>
     <use style="fill:#ff0000;stroke:#000000;stroke-width:0.5;" x="320.00002456" xlink:href="#mec08baebe6" y="133.263680644"/>
     <use style="fill:#ff0000;stroke:#000000;stroke-width:0.5;" x="332.399992616" xlink:href="#mec08baebe6" y="211.132132669"/>
     <use style="fill:#ff0000;stroke:#000000;stroke-width:0.5;" x="344.79997159" xlink:href="#mec08baebe6" y="293.838385836"/>
     <use style="fill:#ff0000;stroke:#000000;stroke-width:0.5;" x="357.199985065" xlink:href="#mec08baebe6" y="357.77749034"/>
     <use style="fill:#ff0000;stroke:#000000;stroke-width:0.5;" x="369.599997667" xlink:href="#mec08baebe6" y="388.078604516"/>
     <use style="fill:#ff0000;stroke:#000000;stroke-width:0.5;" x="381.99999467" xlink:href="#mec08baebe6" y="379.823810524"/>
     <use style="fill:#ff0000;stroke:#000000;stroke-width:0.5;" x="394.399985487" xlink:href="#mec08baebe6" y="336.771000266"/>
     <use style="fill:#ff0000;stroke:#000000;stroke-width:0.5;" x="406.799992186" xlink:href="#mec08baebe6" y="269.090078652"/>
     <use style="fill:#ff0000;stroke:#000000;stroke-width:0.5;" x="419.199990616" xlink:href="#mec08baebe6" y="191.707644586"/>
     <use style="fill:#ff0000;stroke:#000000;stroke-width:0.5;" x="431.599979928" xlink:href="#mec08baebe6" y="123.226903526"/>
     <use style="fill:#ff0000;stroke:#000000;stroke-width:0.5;" x="443.999998876" xlink:href="#mec08baebe6" y="83.5794885993"/>
     <use style="fill:#ff0000;stroke:#000000;stroke-width:0.5;" x="456.39998481" xlink:href="#mec08baebe6" y="87.3063497387"/>
     <use style="fill:#ff0000;stroke:#000000;stroke-width:0.5;" x="468.799995855" xlink:href="#mec08baebe6" y="134.551264753"/>
     <use style="fill:#ff0000;stroke:#000000;stroke-width:0.5;" x="481.200012591" xlink:href="#mec08baebe6" y="210.028117888"/>
     <use style="fill:#ff0000;stroke:#000000;stroke-width:0.5;" x="493.599986698" xlink:href="#mec08baebe6" y="290.782596137"/>
     <use style="fill:#ff0000;stroke:#000000;stroke-width:0.5;" x="505.999980538" xlink:href="#mec08baebe6" y="354.856876892"/>
    </g>
   </g>
   <g id="line2d_2">
    <path clip-path="url(#pfa108b26f7)" d="M 71.999019 388.228618 
L 84.400012 375.035834 
L 96.799993 324.626624 
L 109.200006 246.523267 
L 121.600006 161.052121 
L 133.999993 88.972818 
L 146.400012 52.978045 
L 158.799985 68.925513 
L 171.200012 132.288344 
L 183.600013 221.160116 
L 196.000026 305.791848 
L 208.400018 365.896521 
L 220.799994 388.8 
L 233.200017 370.977925 
L 245.599988 316.689336 
L 258.000005 239.1203 
L 270.400021 155.572833 
L 282.800002 86.335118 
L 295.20046 52.164169 
L 307.59998 68.337516 
L 320.000025 130.438205 
L 332.399993 217.960095 
L 344.799972 302.9434 
L 357.199985 364.073471 
L 369.599998 388.753479 
L 381.999995 372.890913 
L 394.399985 320.921791 
L 406.799992 244.166724 
L 419.199991 160.211523 
L 431.59998 88.846207 
L 443.999999 53.623573 
L 456.399985 67.519823 
L 468.799996 126.005672 
L 481.200013 211.409333 
L 493.599987 297.093552 
L 505.999981 360.831498 
" style="fill:none;stroke:#0000ff;stroke-linecap:square;"/>
    <defs>
     <path d="M 0 3 
C 0.795609 3 1.55874 2.683901 2.12132 2.12132 
C 2.683901 1.55874 3 0.795609 3 0 
C 3 -0.795609 2.683901 -1.55874 2.12132 -2.12132 
C 1.55874 -2.683901 0.795609 -3 0 -3 
C -0.795609 -3 -1.55874 -2.683901 -2.12132 -2.12132 
C -2.683901 -1.55874 -3 -0.795609 -3 0 
C -3 0.795609 -2.683901 1.55874 -2.12132 2.12132 
C -1.55874 2.683901 -0.795609 3 0 3 
z
" id="m652cc5c2f7" style="stroke:#000000;stroke-width:0.5;"/>
    </defs>
    <g clip-path="url(#pfa108b26f7)">
     <use style="fill:#0000ff;stroke:#000000;stroke-width:0.5;" x="71.9990190928" xlink:href="#m652cc5c2f7" y="388.22861825"/>
     <use style="fill:#0000ff;stroke:#000000;stroke-width:0.5;" x="84.4000121673" xlink:href="#m652cc5c2f7" y="375.035833602"/>
     <use style="fill:#0000ff;stroke:#000000;stroke-width:0.5;" x="96.7999934445" xlink:href="#m652cc5c2f7" y="324.626624456"/>
     <use style="fill:#0000ff;stroke:#000000;stroke-width:0.5;" x="109.200005987" xlink:href="#m652cc5c2f7" y="246.52326702"/>
     <use style="fill:#0000ff;stroke:#000000;stroke-width:0.5;" x="121.600006204" xlink:href="#m652cc5c2f7" y="161.052120621"/>
     <use style="fill:#0000ff;stroke:#000000;stroke-width:0.5;" x="133.999992575" xlink:href="#m652cc5c2f7" y="88.9728181535"/>
     <use style="fill:#0000ff;stroke:#000000;stroke-width:0.5;" x="146.400011953" xlink:href="#m652cc5c2f7" y="52.978044958"/>
     <use style="fill:#0000ff;stroke:#000000;stroke-width:0.5;" x="158.799984563" xlink:href="#m652cc5c2f7" y="68.9255128585"/>
     <use style="fill:#0000ff;stroke:#000000;stroke-width:0.5;" x="171.200011832" xlink:href="#m652cc5c2f7" y="132.288343688"/>
     <use style="fill:#0000ff;stroke:#000000;stroke-width:0.5;" x="183.600013369" xlink:href="#m652cc5c2f7" y="221.160116238"/>
     <use style="fill:#0000ff;stroke:#000000;stroke-width:0.5;" x="196.00002584" xlink:href="#m652cc5c2f7" y="305.791848006"/>
     <use style="fill:#0000ff;stroke:#000000;stroke-width:0.5;" x="208.400018049" xlink:href="#m652cc5c2f7" y="365.896521262"/>
     <use style="fill:#0000ff;stroke:#000000;stroke-width:0.5;" x="220.799993694" xlink:href="#m652cc5c2f7" y="388.8"/>
     <use style="fill:#0000ff;stroke:#000000;stroke-width:0.5;" x="233.20001747" xlink:href="#m652cc5c2f7" y="370.97792472"/>
     <use style="fill:#0000ff;stroke:#000000;stroke-width:0.5;" x="245.599988486" xlink:href="#m652cc5c2f7" y="316.689335684"/>
     <use style="fill:#0000ff;stroke:#000000;stroke-width:0.5;" x="258.000004502" xlink:href="#m652cc5c2f7" y="239.12029964"/>
     <use style="fill:#0000ff;stroke:#000000;stroke-width:0.5;" x="270.400021421" xlink:href="#m652cc5c2f7" y="155.572833399"/>
     <use style="fill:#0000ff;stroke:#000000;stroke-width:0.5;" x="282.800002111" xlink:href="#m652cc5c2f7" y="86.3351179499"/>
     <use style="fill:#0000ff;stroke:#000000;stroke-width:0.5;" x="295.200459505" xlink:href="#m652cc5c2f7" y="52.1641693068"/>
     <use style="fill:#0000ff;stroke:#000000;stroke-width:0.5;" x="307.599979757" xlink:href="#m652cc5c2f7" y="68.3375161291"/>
     <use style="fill:#0000ff;stroke:#000000;stroke-width:0.5;" x="320.00002456" xlink:href="#m652cc5c2f7" y="130.438204851"/>
     <use style="fill:#0000ff;stroke:#000000;stroke-width:0.5;" x="332.399992616" xlink:href="#m652cc5c2f7" y="217.960094672"/>
     <use style="fill:#0000ff;stroke:#000000;stroke-width:0.5;" x="344.79997159" xlink:href="#m652cc5c2f7" y="302.9434004"/>
     <use style="fill:#0000ff;stroke:#000000;stroke-width:0.5;" x="357.199985065" xlink:href="#m652cc5c2f7" y="364.073470509"/>
     <use style="fill:#0000ff;stroke:#000000;stroke-width:0.5;" x="369.599997667" xlink:href="#m652cc5c2f7" y="388.753479123"/>
     <use style="fill:#0000ff;stroke:#000000;stroke-width:0.5;" x="381.99999467" xlink:href="#m652cc5c2f7" y="372.890912719"/>
     <use style="fill:#0000ff;stroke:#000000;stroke-width:0.5;" x="394.399985487" xlink:href="#m652cc5c2f7" y="320.921791231"/>
     <use style="fill:#0000ff;stroke:#000000;stroke-width:0.5;" x="406.799992186" xlink:href="#m652cc5c2f7" y="244.16672405"/>
     <use style="fill:#0000ff;stroke:#000000;stroke-width:0.5;" x="419.199990616" xlink:href="#m652cc5c2f7" y="160.211522643"/>
     <use style="fill:#0000ff;stroke:#000000;stroke-width:0.5;" x="431.599979928" xlink:href="#m652cc5c2f7" y="88.8462065719"/>
     <use style="fill:#0000ff;stroke:#000000;stroke-width:0.5;" x="443.999998876" xlink:href="#m652cc5c2f7" y="53.6235729166"/>
     <use style="fill:#0000ff;stroke:#000000;stroke-width:0.5;" x="456.39998481" xlink:href="#m652cc5c2f7" y="67.5198231577"/>
     <use style="fill:#0000ff;stroke:#000000;stroke-width:0.5;" x="468.799995855" xlink:href="#m652cc5c2f7" y="126.005671757"/>
     <use style="fill:#0000ff;stroke:#000000;stroke-width:0.5;" x="481.200012591" xlink:href="#m652cc5c2f7" y="211.409333229"/>
     <use style="fill:#0000ff;stroke:#000000;stroke-width:0.5;" x="493.599986698" xlink:href="#m652cc5c2f7" y="297.093551926"/>
     <use style="fill:#0000ff;stroke:#000000;stroke-width:0.5;" x="505.999980538" xlink:href="#m652cc5c2f7" y="360.831497701"/>
    </g>
   </g>
   <g id="line2d_3">
    <path clip-path="url(#pfa108b26f7)" d="M 71.999019 388.8 
L 84.400012 379.722869 
L 96.799993 360.144268 
L 109.200006 334.063613 
L 121.600006 313.352225 
L 133.999993 305.908793 
L 146.400012 314.37361 
L 158.799985 329.48173 
L 171.200012 342.677654 
L 183.600013 357.48872 
L 196.000026 373.462799 
L 208.400018 385.514651 
L 220.799994 388.123766 
L 233.200017 378.808883 
L 245.599988 358.665485 
L 258.000005 334.454569 
L 270.400021 314.179515 
L 282.800002 306.011168 
L 295.20046 313.421153 
L 307.59998 330.150736 
L 320.000025 345.724495 
L 332.399993 360.80273 
L 344.799972 375.642709 
L 357.199985 386.581242 
L 369.599998 388.591418 
L 381.999995 379.067401 
L 394.399985 360.006177 
L 406.799992 336.923276 
L 419.199991 318.499771 
L 431.59998 310.365576 
L 443.999999 316.210966 
L 456.399985 328.292273 
L 468.799996 341.096161 
L 481.200013 356.744638 
L 493.599987 373.342725 
L 505.999981 385.993329 
" style="fill:none;stroke:#000000;stroke-linecap:square;"/>
    <defs>
     <path d="M -3 3 
L 3 -3 
M -3 -3 
L 3 3 
" id="m21fe9451bd" style="stroke:#000000;stroke-width:0.5;"/>
    </defs>
    <g clip-path="url(#pfa108b26f7)">
     <use style="stroke:#000000;stroke-width:0.5;" x="71.9990190928" xlink:href="#m21fe9451bd" y="388.8"/>
     <use style="stroke:#000000;stroke-width:0.5;" x="84.4000121673" xlink:href="#m21fe9451bd" y="379.722868974"/>
     <use style="stroke:#000000;stroke-width:0.5;" x="96.7999934445" xlink:href="#m21fe9451bd" y="360.144267788"/>
     <use style="stroke:#000000;stroke-width:0.5;" x="109.200005987" xlink:href="#m21fe9451bd" y="334.063612543"/>
     <use style="stroke:#000000;stroke-width:0.5;" x="121.600006204" xlink:href="#m21fe9451bd" y="313.352225122"/>
     <use style="stroke:#000000;stroke-width:0.5;" x="133.999992575" xlink:href="#m21fe9451bd" y="305.908792854"/>
     <use style="stroke:#000000;stroke-width:0.5;" x="146.400011953" xlink:href="#m21fe9451bd" y="314.373609588"/>
     <use style="stroke:#000000;stroke-width:0.5;" x="158.799984563" xlink:href="#m21fe9451bd" y="329.481729584"/>
     <use style="stroke:#000000;stroke-width:0.5;" x="171.200011832" xlink:href="#m21fe9451bd" y="342.677653827"/>
     <use style="stroke:#000000;stroke-width:0.5;" x="183.600013369" xlink:href="#m21fe9451bd" y="357.488720382"/>
     <use style="stroke:#000000;stroke-width:0.5;" x="196.00002584" xlink:href="#m21fe9451bd" y="373.462799344"/>
     <use style="stroke:#000000;stroke-width:0.5;" x="208.400018049" xlink:href="#m21fe9451bd" y="385.514651153"/>
     <use style="stroke:#000000;stroke-width:0.5;" x="220.799993694" xlink:href="#m21fe9451bd" y="388.123766052"/>
     <use style="stroke:#000000;stroke-width:0.5;" x="233.20001747" xlink:href="#m21fe9451bd" y="378.808882769"/>
     <use style="stroke:#000000;stroke-width:0.5;" x="245.599988486" xlink:href="#m21fe9451bd" y="358.66548528"/>
     <use style="stroke:#000000;stroke-width:0.5;" x="258.000004502" xlink:href="#m21fe9451bd" y="334.454568534"/>
     <use style="stroke:#000000;stroke-width:0.5;" x="270.400021421" xlink:href="#m21fe9451bd" y="314.179514749"/>
     <use style="stroke:#000000;stroke-width:0.5;" x="282.800002111" xlink:href="#m21fe9451bd" y="306.011168021"/>
     <use style="stroke:#000000;stroke-width:0.5;" x="295.200459505" xlink:href="#m21fe9451bd" y="313.42115346"/>
     <use style="stroke:#000000;stroke-width:0.5;" x="307.599979757" xlink:href="#m21fe9451bd" y="330.150735662"/>
     <use style="stroke:#000000;stroke-width:0.5;" x="320.00002456" xlink:href="#m21fe9451bd" y="345.724495217"/>
     <use style="stroke:#000000;stroke-width:0.5;" x="332.399992616" xlink:href="#m21fe9451bd" y="360.802729896"/>
     <use style="stroke:#000000;stroke-width:0.5;" x="344.79997159" xlink:href="#m21fe9451bd" y="375.642708508"/>
     <use style="stroke:#000000;stroke-width:0.5;" x="357.199985065" xlink:href="#m21fe9451bd" y="386.581242212"/>
     <use style="stroke:#000000;stroke-width:0.5;" x="369.599997667" xlink:href="#m21fe9451bd" y="388.591418278"/>
     <use style="stroke:#000000;stroke-width:0.5;" x="381.99999467" xlink:href="#m21fe9451bd" y="379.067400561"/>
     <use style="stroke:#000000;stroke-width:0.5;" x="394.399985487" xlink:href="#m21fe9451bd" y="360.006177106"/>
     <use style="stroke:#000000;stroke-width:0.5;" x="406.799992186" xlink:href="#m21fe9451bd" y="336.923275728"/>
     <use style="stroke:#000000;stroke-width:0.5;" x="419.199990616" xlink:href="#m21fe9451bd" y="318.499771061"/>
     <use style="stroke:#000000;stroke-width:0.5;" x="431.599979928" xlink:href="#m21fe9451bd" y="310.365576482"/>
     <use style="stroke:#000000;stroke-width:0.5;" x="443.999998876" xlink:href="#m21fe9451bd" y="316.210966424"/>
     <use style="stroke:#000000;stroke-width:0.5;" x="456.39998481" xlink:href="#m21fe9451bd" y="328.292273293"/>
     <use style="stroke:#000000;stroke-width:0.5;" x="468.799995855" xlink:href="#m21fe9451bd" y="341.096160865"/>
     <use style="stroke:#000000;stroke-width:0.5;" x="481.200012591" xlink:href="#m21fe9451bd" y="356.74463755"/>
     <use style="stroke:#000000;stroke-width:0.5;" x="493.599986698" xlink:href="#m21fe9451bd" y="373.342725491"/>
     <use style="stroke:#000000;stroke-width:0.5;" x="505.999980538" xlink:href="#m21fe9451bd" y="385.99332867"/>
    </g>
   </g>
   <g id="line2d_4">
    <path clip-path="url(#pfa108b26f7)" d="M 71.999019 385.068855 
L 84.400012 388.8 
L 96.799993 367.982228 
L 109.200006 328.037422 
L 121.600006 271.411759 
L 133.999993 208.294452 
L 146.400012 156.853959 
L 158.799985 144.522689 
L 171.200012 182.124252 
L 183.600013 247.317671 
L 196.000026 313.436795 
L 208.400018 362.805763 
L 220.799994 387.364708 
L 233.200017 385.821274 
L 245.599988 361.789606 
L 258.000005 319.257188 
L 270.400021 264.595323 
L 282.800002 206.060043 
L 295.20046 158.000553 
L 307.59998 142.603754 
L 320.000025 174.227659 
L 332.399993 237.017877 
L 344.799972 304.884151 
L 357.199985 357.884722 
L 369.599998 386.17566 
L 381.999995 387.444884 
L 394.399985 363.453297 
L 406.799992 318.855277 
L 419.199991 259.896347 
L 431.59998 199.549801 
L 443.999999 154.056996 
L 456.399985 145.70255 
L 468.799996 180.143578 
L 481.200013 239.971954 
L 493.599987 304.128344 
L 505.999981 355.552022 
" style="fill:none;stroke:#ff00ff;stroke-linecap:square;"/>
    <defs>
     <path d="M -3 3 
L 3 -3 
M -3 -3 
L 3 3 
" id="m2f74fe2d0c" style="stroke:#ff00ff;stroke-width:0.5;"/>
    </defs>
    <g clip-path="url(#pfa108b26f7)">
     <use style="fill:#ff00ff;stroke:#ff00ff;stroke-width:0.5;" x="71.9990190928" xlink:href="#m2f74fe2d0c" y="385.0688553"/>
     <use style="fill:#ff00ff;stroke:#ff00ff;stroke-width:0.5;" x="84.4000121673" xlink:href="#m2f74fe2d0c" y="388.8"/>
     <use style="fill:#ff00ff;stroke:#ff00ff;stroke-width:0.5;" x="96.7999934445" xlink:href="#m2f74fe2d0c" y="367.982227603"/>
     <use style="fill:#ff00ff;stroke:#ff00ff;stroke-width:0.5;" x="109.200005987" xlink:href="#m2f74fe2d0c" y="328.037422209"/>
     <use style="fill:#ff00ff;stroke:#ff00ff;stroke-width:0.5;" x="121.600006204" xlink:href="#m2f74fe2d0c" y="271.411759279"/>
     <use style="fill:#ff00ff;stroke:#ff00ff;stroke-width:0.5;" x="133.999992575" xlink:href="#m2f74fe2d0c" y="208.294452182"/>
     <use style="fill:#ff00ff;stroke:#ff00ff;stroke-width:0.5;" x="146.400011953" xlink:href="#m2f74fe2d0c" y="156.85395888"/>
     <use style="fill:#ff00ff;stroke:#ff00ff;stroke-width:0.5;" x="158.799984563" xlink:href="#m2f74fe2d0c" y="144.522689215"/>
     <use style="fill:#ff00ff;stroke:#ff00ff;stroke-width:0.5;" x="171.200011832" xlink:href="#m2f74fe2d0c" y="182.124251533"/>
     <use style="fill:#ff00ff;stroke:#ff00ff;stroke-width:0.5;" x="183.600013369" xlink:href="#m2f74fe2d0c" y="247.317670686"/>
     <use style="fill:#ff00ff;stroke:#ff00ff;stroke-width:0.5;" x="196.00002584" xlink:href="#m2f74fe2d0c" y="313.436795175"/>
     <use style="fill:#ff00ff;stroke:#ff00ff;stroke-width:0.5;" x="208.400018049" xlink:href="#m2f74fe2d0c" y="362.805762859"/>
     <use style="fill:#ff00ff;stroke:#ff00ff;stroke-width:0.5;" x="220.799993694" xlink:href="#m2f74fe2d0c" y="387.364707718"/>
     <use style="fill:#ff00ff;stroke:#ff00ff;stroke-width:0.5;" x="233.20001747" xlink:href="#m2f74fe2d0c" y="385.821273924"/>
     <use style="fill:#ff00ff;stroke:#ff00ff;stroke-width:0.5;" x="245.599988486" xlink:href="#m2f74fe2d0c" y="361.789606333"/>
     <use style="fill:#ff00ff;stroke:#ff00ff;stroke-width:0.5;" x="258.000004502" xlink:href="#m2f74fe2d0c" y="319.257187611"/>
     <use style="fill:#ff00ff;stroke:#ff00ff;stroke-width:0.5;" x="270.400021421" xlink:href="#m2f74fe2d0c" y="264.595323257"/>
     <use style="fill:#ff00ff;stroke:#ff00ff;stroke-width:0.5;" x="282.800002111" xlink:href="#m2f74fe2d0c" y="206.06004275"/>
     <use style="fill:#ff00ff;stroke:#ff00ff;stroke-width:0.5;" x="295.200459505" xlink:href="#m2f74fe2d0c" y="158.000552946"/>
     <use style="fill:#ff00ff;stroke:#ff00ff;stroke-width:0.5;" x="307.599979757" xlink:href="#m2f74fe2d0c" y="142.603754116"/>
     <use style="fill:#ff00ff;stroke:#ff00ff;stroke-width:0.5;" x="320.00002456" xlink:href="#m2f74fe2d0c" y="174.227659197"/>
     <use style="fill:#ff00ff;stroke:#ff00ff;stroke-width:0.5;" x="332.399992616" xlink:href="#m2f74fe2d0c" y="237.017876543"/>
     <use style="fill:#ff00ff;stroke:#ff00ff;stroke-width:0.5;" x="344.79997159" xlink:href="#m2f74fe2d0c" y="304.884151099"/>
     <use style="fill:#ff00ff;stroke:#ff00ff;stroke-width:0.5;" x="357.199985065" xlink:href="#m2f74fe2d0c" y="357.884721899"/>
     <use style="fill:#ff00ff;stroke:#ff00ff;stroke-width:0.5;" x="369.599997667" xlink:href="#m2f74fe2d0c" y="386.175660009"/>
     <use style="fill:#ff00ff;stroke:#ff00ff;stroke-width:0.5;" x="381.99999467" xlink:href="#m2f74fe2d0c" y="387.444883733"/>
     <use style="fill:#ff00ff;stroke:#ff00ff;stroke-width:0.5;" x="394.399985487" xlink:href="#m2f74fe2d0c" y="363.453296931"/>
     <use style="fill:#ff00ff;stroke:#ff00ff;stroke-width:0.5;" x="406.799992186" xlink:href="#m2f74fe2d0c" y="318.855276695"/>
     <use style="fill:#ff00ff;stroke:#ff00ff;stroke-width:0.5;" x="419.199990616" xlink:href="#m2f74fe2d0c" y="259.896347295"/>
     <use style="fill:#ff00ff;stroke:#ff00ff;stroke-width:0.5;" x="431.599979928" xlink:href="#m2f74fe2d0c" y="199.549800815"/>
     <use style="fill:#ff00ff;stroke:#ff00ff;stroke-width:0.5;" x="443.999998876" xlink:href="#m2f74fe2d0c" y="154.056995946"/>
     <use style="fill:#ff00ff;stroke:#ff00ff;stroke-width:0.5;" x="456.39998481" xlink:href="#m2f74fe2d0c" y="145.702550216"/>
     <use style="fill:#ff00ff;stroke:#ff00ff;stroke-width:0.5;" x="468.799995855" xlink:href="#m2f74fe2d0c" y="180.143577659"/>
     <use style="fill:#ff00ff;stroke:#ff00ff;stroke-width:0.5;" x="481.200012591" xlink:href="#m2f74fe2d0c" y="239.971954108"/>
     <use style="fill:#ff00ff;stroke:#ff00ff;stroke-width:0.5;" x="493.599986698" xlink:href="#m2f74fe2d0c" y="304.128344416"/>
     <use style="fill:#ff00ff;stroke:#ff00ff;stroke-width:0.5;" x="505.999980538" xlink:href="#m2f74fe2d0c" y="355.552021992"/>
    </g>
   </g>
   <g id="line2d_5">
    <path clip-path="url(#pfa108b26f7)" d="M 71.999019 387.440601 
L 84.400012 375.664787 
L 96.799993 328.569792 
L 109.200006 256.196044 
L 121.600006 177.787074 
L 133.999993 110.913467 
L 146.400012 77.417176 
L 158.799985 93.362013 
L 171.200012 151.765934 
L 183.600013 233.38634 
L 196.000026 312.913832 
L 208.400018 369.20916 
L 220.799994 388.8 
L 233.200017 369.712062 
L 245.599988 318.159561 
L 258.000005 247.446384 
L 270.400021 172.919242 
L 282.800002 111.619501 
L 295.20046 79.373038 
L 307.59998 88.793442 
L 320.000025 143.576156 
L 332.399993 228.622348 
L 344.799972 311.222042 
L 357.199985 367.521862 
L 369.599998 388.520387 
L 381.999995 373.048245 
L 394.399985 324.098829 
L 406.799992 250.364962 
L 419.199991 169.001463 
L 431.59998 102.191694 
L 443.999999 74.992395 
L 456.399985 95.702711 
L 468.799996 152.623899 
L 481.200013 228.280305 
L 493.599987 303.304454 
L 505.999981 361.133252 
" style="fill:none;stroke:#008000;stroke-linecap:square;"/>
    <defs>
     <path d="M 0 3 
C 0.795609 3 1.55874 2.683901 2.12132 2.12132 
C 2.683901 1.55874 3 0.795609 3 0 
C 3 -0.795609 2.683901 -1.55874 2.12132 -2.12132 
C 1.55874 -2.683901 0.795609 -3 0 -3 
C -0.795609 -3 -1.55874 -2.683901 -2.12132 -2.12132 
C -2.683901 -1.55874 -3 -0.795609 -3 0 
C -3 0.795609 -2.683901 1.55874 -2.12132 2.12132 
C -1.55874 2.683901 -0.795609 3 0 3 
z
" id="m6e9f0df315" style="stroke:#000000;stroke-width:0.5;"/>
    </defs>
    <g clip-path="url(#pfa108b26f7)">
     <use style="fill:#008000;stroke:#000000;stroke-width:0.5;" x="71.9990190928" xlink:href="#m6e9f0df315" y="387.440600789"/>
     <use style="fill:#008000;stroke:#000000;stroke-width:0.5;" x="84.4000121673" xlink:href="#m6e9f0df315" y="375.664787111"/>
     <use style="fill:#008000;stroke:#000000;stroke-width:0.5;" x="96.7999934445" xlink:href="#m6e9f0df315" y="328.569792384"/>
     <use style="fill:#008000;stroke:#000000;stroke-width:0.5;" x="109.200005987" xlink:href="#m6e9f0df315" y="256.1960444"/>
     <use style="fill:#008000;stroke:#000000;stroke-width:0.5;" x="121.600006204" xlink:href="#m6e9f0df315" y="177.787074244"/>
     <use style="fill:#008000;stroke:#000000;stroke-width:0.5;" x="133.999992575" xlink:href="#m6e9f0df315" y="110.913467399"/>
     <use style="fill:#008000;stroke:#000000;stroke-width:0.5;" x="146.400011953" xlink:href="#m6e9f0df315" y="77.4171762369"/>
     <use style="fill:#008000;stroke:#000000;stroke-width:0.5;" x="158.799984563" xlink:href="#m6e9f0df315" y="93.3620128133"/>
     <use style="fill:#008000;stroke:#000000;stroke-width:0.5;" x="171.200011832" xlink:href="#m6e9f0df315" y="151.765933569"/>
     <use style="fill:#008000;stroke:#000000;stroke-width:0.5;" x="183.600013369" xlink:href="#m6e9f0df315" y="233.386340103"/>
     <use style="fill:#008000;stroke:#000000;stroke-width:0.5;" x="196.00002584" xlink:href="#m6e9f0df315" y="312.913831838"/>
     <use style="fill:#008000;stroke:#000000;stroke-width:0.5;" x="208.400018049" xlink:href="#m6e9f0df315" y="369.209160199"/>
     <use style="fill:#008000;stroke:#000000;stroke-width:0.5;" x="220.799993694" xlink:href="#m6e9f0df315" y="388.8"/>
     <use style="fill:#008000;stroke:#000000;stroke-width:0.5;" x="233.20001747" xlink:href="#m6e9f0df315" y="369.712061664"/>
     <use style="fill:#008000;stroke:#000000;stroke-width:0.5;" x="245.599988486" xlink:href="#m6e9f0df315" y="318.159560684"/>
     <use style="fill:#008000;stroke:#000000;stroke-width:0.5;" x="258.000004502" xlink:href="#m6e9f0df315" y="247.44638403"/>
     <use style="fill:#008000;stroke:#000000;stroke-width:0.5;" x="270.400021421" xlink:href="#m6e9f0df315" y="172.919242044"/>
     <use style="fill:#008000;stroke:#000000;stroke-width:0.5;" x="282.800002111" xlink:href="#m6e9f0df315" y="111.619501173"/>
     <use style="fill:#008000;stroke:#000000;stroke-width:0.5;" x="295.200459505" xlink:href="#m6e9f0df315" y="79.3730383651"/>
     <use style="fill:#008000;stroke:#000000;stroke-width:0.5;" x="307.599979757" xlink:href="#m6e9f0df315" y="88.7934421613"/>
     <use style="fill:#008000;stroke:#000000;stroke-width:0.5;" x="320.00002456" xlink:href="#m6e9f0df315" y="143.576155706"/>
     <use style="fill:#008000;stroke:#000000;stroke-width:0.5;" x="332.399992616" xlink:href="#m6e9f0df315" y="228.622347608"/>
     <use style="fill:#008000;stroke:#000000;stroke-width:0.5;" x="344.79997159" xlink:href="#m6e9f0df315" y="311.222042076"/>
     <use style="fill:#008000;stroke:#000000;stroke-width:0.5;" x="357.199985065" xlink:href="#m6e9f0df315" y="367.521861862"/>
     <use style="fill:#008000;stroke:#000000;stroke-width:0.5;" x="369.599997667" xlink:href="#m6e9f0df315" y="388.52038657"/>
     <use style="fill:#008000;stroke:#000000;stroke-width:0.5;" x="381.99999467" xlink:href="#m6e9f0df315" y="373.048244514"/>
     <use style="fill:#008000;stroke:#000000;stroke-width:0.5;" x="394.399985487" xlink:href="#m6e9f0df315" y="324.098828599"/>
     <use style="fill:#008000;stroke:#000000;stroke-width:0.5;" x="406.799992186" xlink:href="#m6e9f0df315" y="250.364961826"/>
     <use style="fill:#008000;stroke:#000000;stroke-width:0.5;" x="419.199990616" xlink:href="#m6e9f0df315" y="169.001462634"/>
     <use style="fill:#008000;stroke:#000000;stroke-width:0.5;" x="431.599979928" xlink:href="#m6e9f0df315" y="102.191694456"/>
     <use style="fill:#008000;stroke:#000000;stroke-width:0.5;" x="443.999998876" xlink:href="#m6e9f0df315" y="74.9923948046"/>
     <use style="fill:#008000;stroke:#000000;stroke-width:0.5;" x="456.39998481" xlink:href="#m6e9f0df315" y="95.7027114475"/>
     <use style="fill:#008000;stroke:#000000;stroke-width:0.5;" x="468.799995855" xlink:href="#m6e9f0df315" y="152.623898976"/>
     <use style="fill:#008000;stroke:#000000;stroke-width:0.5;" x="481.200012591" xlink:href="#m6e9f0df315" y="228.280305212"/>
     <use style="fill:#008000;stroke:#000000;stroke-width:0.5;" x="493.599986698" xlink:href="#m6e9f0df315" y="303.304454486"/>
     <use style="fill:#008000;stroke:#000000;stroke-width:0.5;" x="505.999980538" xlink:href="#m6e9f0df315" y="361.133251586"/>
    </g>
   </g>
   <g id="patch_3">
    <path d="M 72 388.8 
L 72 43.2 
" style="fill:none;stroke:#000000;stroke-linecap:square;stroke-linejoin:miter;"/>
   </g>
   <g id="patch_4">
    <path d="M 72 43.2 
L 518.4 43.2 
" style="fill:none;stroke:#000000;stroke-linecap:square;stroke-linejoin:miter;"/>
   </g>
   <g id="patch_5">
    <path d="M 518.4 388.8 
L 518.4 43.2 
" style="fill:none;stroke:#000000;stroke-linecap:square;stroke-linejoin:miter;"/>
   </g>
   <g id="patch_6">
    <path d="M 72 388.8 
L 518.4 388.8 
" style="fill:none;stroke:#000000;stroke-linecap:square;stroke-linejoin:miter;"/>
   </g>
   <g id="matplotlib.axis_1">
    <g id="xtick_1">
     <g id="line2d_6">
      <defs>
       <path d="M 0 0 
L 0 -4 
" id="m3d69c9809d" style="stroke:#000000;stroke-width:0.5;"/>
      </defs>
      <g>
       <use style="stroke:#000000;stroke-width:0.5;" x="72.0" xlink:href="#m3d69c9809d" y="388.8"/>
      </g>
     </g>
     <g id="line2d_7">
      <defs>
       <path d="M 0 0 
L 0 4 
" id="mc998530738" style="stroke:#000000;stroke-width:0.5;"/>
      </defs>
      <g>
       <use style="stroke:#000000;stroke-width:0.5;" x="72.0" xlink:href="#mc998530738" y="43.2"/>
      </g>
     </g>
     <g id="text_1">
      <!-- −180 -->
      <defs>
       <path d="M 10.59375 35.5 
L 73.1875 35.5 
L 73.1875 27.203125 
L 10.59375 27.203125 
z
" id="BitstreamVeraSans-Roman-2212"/>
       <path d="M 31.78125 34.625 
Q 24.75 34.625 20.71875 30.859375 
Q 16.703125 27.09375 16.703125 20.515625 
Q 16.703125 13.921875 20.71875 10.15625 
Q 24.75 6.390625 31.78125 6.390625 
Q 38.8125 6.390625 42.859375 10.171875 
Q 46.921875 13.96875 46.921875 20.515625 
Q 46.921875 27.09375 42.890625 30.859375 
Q 38.875 34.625 31.78125 34.625 
M 21.921875 38.8125 
Q 15.578125 40.375 12.03125 44.71875 
Q 8.5 49.078125 8.5 55.328125 
Q 8.5 64.0625 14.71875 69.140625 
Q 20.953125 74.21875 31.78125 74.21875 
Q 42.671875 74.21875 48.875 69.140625 
Q 55.078125 64.0625 55.078125 55.328125 
Q 55.078125 49.078125 51.53125 44.71875 
Q 48 40.375 41.703125 38.8125 
Q 48.828125 37.15625 52.796875 32.3125 
Q 56.78125 27.484375 56.78125 20.515625 
Q 56.78125 9.90625 50.3125 4.234375 
Q 43.84375 -1.421875 31.78125 -1.421875 
Q 19.734375 -1.421875 13.25 4.234375 
Q 6.78125 9.90625 6.78125 20.515625 
Q 6.78125 27.484375 10.78125 32.3125 
Q 14.796875 37.15625 21.921875 38.8125 
M 18.3125 54.390625 
Q 18.3125 48.734375 21.84375 45.5625 
Q 25.390625 42.390625 31.78125 42.390625 
Q 38.140625 42.390625 41.71875 45.5625 
Q 45.3125 48.734375 45.3125 54.390625 
Q 45.3125 60.0625 41.71875 63.234375 
Q 38.140625 66.40625 31.78125 66.40625 
Q 25.390625 66.40625 21.84375 63.234375 
Q 18.3125 60.0625 18.3125 54.390625 
" id="BitstreamVeraSans-Roman-38"/>
       <path d="M 12.40625 8.296875 
L 28.515625 8.296875 
L 28.515625 63.921875 
L 10.984375 60.40625 
L 10.984375 69.390625 
L 28.421875 72.90625 
L 38.28125 72.90625 
L 38.28125 8.296875 
L 54.390625 8.296875 
L 54.390625 0 
L 12.40625 0 
z
" id="BitstreamVeraSans-Roman-31"/>
       <path d="M 31.78125 66.40625 
Q 24.171875 66.40625 20.328125 58.90625 
Q 16.5 51.421875 16.5 36.375 
Q 16.5 21.390625 20.328125 13.890625 
Q 24.171875 6.390625 31.78125 6.390625 
Q 39.453125 6.390625 43.28125 13.890625 
Q 47.125 21.390625 47.125 36.375 
Q 47.125 51.421875 43.28125 58.90625 
Q 39.453125 66.40625 31.78125 66.40625 
M 31.78125 74.21875 
Q 44.046875 74.21875 50.515625 64.515625 
Q 56.984375 54.828125 56.984375 36.375 
Q 56.984375 17.96875 50.515625 8.265625 
Q 44.046875 -1.421875 31.78125 -1.421875 
Q 19.53125 -1.421875 13.0625 8.265625 
Q 6.59375 17.96875 6.59375 36.375 
Q 6.59375 54.828125 13.0625 64.515625 
Q 19.53125 74.21875 31.78125 74.21875 
" id="BitstreamVeraSans-Roman-30"/>
      </defs>
      <g transform="translate(55.5196875 401.918125)scale(0.12 -0.12)">
       <use xlink:href="#BitstreamVeraSans-Roman-2212"/>
       <use x="83.7890625" xlink:href="#BitstreamVeraSans-Roman-31"/>
       <use x="147.412109375" xlink:href="#BitstreamVeraSans-Roman-38"/>
       <use x="211.03515625" xlink:href="#BitstreamVeraSans-Roman-30"/>
      </g>
     </g>
    </g>
    <g id="xtick_2">
     <g id="line2d_8">
      <g>
       <use style="stroke:#000000;stroke-width:0.5;" x="127.8" xlink:href="#m3d69c9809d" y="388.8"/>
      </g>
     </g>
     <g id="line2d_9">
      <g>
       <use style="stroke:#000000;stroke-width:0.5;" x="127.8" xlink:href="#mc998530738" y="43.2"/>
      </g>
     </g>
     <g id="text_2">
      <!-- −135 -->
      <defs>
       <path d="M 40.578125 39.3125 
Q 47.65625 37.796875 51.625 33 
Q 55.609375 28.21875 55.609375 21.1875 
Q 55.609375 10.40625 48.1875 4.484375 
Q 40.765625 -1.421875 27.09375 -1.421875 
Q 22.515625 -1.421875 17.65625 -0.515625 
Q 12.796875 0.390625 7.625 2.203125 
L 7.625 11.71875 
Q 11.71875 9.328125 16.59375 8.109375 
Q 21.484375 6.890625 26.8125 6.890625 
Q 36.078125 6.890625 40.9375 10.546875 
Q 45.796875 14.203125 45.796875 21.1875 
Q 45.796875 27.640625 41.28125 31.265625 
Q 36.765625 34.90625 28.71875 34.90625 
L 20.21875 34.90625 
L 20.21875 43.015625 
L 29.109375 43.015625 
Q 36.375 43.015625 40.234375 45.921875 
Q 44.09375 48.828125 44.09375 54.296875 
Q 44.09375 59.90625 40.109375 62.90625 
Q 36.140625 65.921875 28.71875 65.921875 
Q 24.65625 65.921875 20.015625 65.03125 
Q 15.375 64.15625 9.8125 62.3125 
L 9.8125 71.09375 
Q 15.4375 72.65625 20.34375 73.4375 
Q 25.25 74.21875 29.59375 74.21875 
Q 40.828125 74.21875 47.359375 69.109375 
Q 53.90625 64.015625 53.90625 55.328125 
Q 53.90625 49.265625 50.4375 45.09375 
Q 46.96875 40.921875 40.578125 39.3125 
" id="BitstreamVeraSans-Roman-33"/>
       <path d="M 10.796875 72.90625 
L 49.515625 72.90625 
L 49.515625 64.59375 
L 19.828125 64.59375 
L 19.828125 46.734375 
Q 21.96875 47.46875 24.109375 47.828125 
Q 26.265625 48.1875 28.421875 48.1875 
Q 40.625 48.1875 47.75 41.5 
Q 54.890625 34.8125 54.890625 23.390625 
Q 54.890625 11.625 47.5625 5.09375 
Q 40.234375 -1.421875 26.90625 -1.421875 
Q 22.3125 -1.421875 17.546875 -0.640625 
Q 12.796875 0.140625 7.71875 1.703125 
L 7.71875 11.625 
Q 12.109375 9.234375 16.796875 8.0625 
Q 21.484375 6.890625 26.703125 6.890625 
Q 35.15625 6.890625 40.078125 11.328125 
Q 45.015625 15.765625 45.015625 23.390625 
Q 45.015625 31 40.078125 35.4375 
Q 35.15625 39.890625 26.703125 39.890625 
Q 22.75 39.890625 18.8125 39.015625 
Q 14.890625 38.140625 10.796875 36.28125 
z
" id="BitstreamVeraSans-Roman-35"/>
      </defs>
      <g transform="translate(111.3196875 401.918125)scale(0.12 -0.12)">
       <use xlink:href="#BitstreamVeraSans-Roman-2212"/>
       <use x="83.7890625" xlink:href="#BitstreamVeraSans-Roman-31"/>
       <use x="147.412109375" xlink:href="#BitstreamVeraSans-Roman-33"/>
       <use x="211.03515625" xlink:href="#BitstreamVeraSans-Roman-35"/>
      </g>
     </g>
    </g>
    <g id="xtick_3">
     <g id="line2d_10">
      <g>
       <use style="stroke:#000000;stroke-width:0.5;" x="183.6" xlink:href="#m3d69c9809d" y="388.8"/>
      </g>
     </g>
     <g id="line2d_11">
      <g>
       <use style="stroke:#000000;stroke-width:0.5;" x="183.6" xlink:href="#mc998530738" y="43.2"/>
      </g>
     </g>
     <g id="text_3">
      <!-- −90 -->
      <defs>
       <path d="M 10.984375 1.515625 
L 10.984375 10.5 
Q 14.703125 8.734375 18.5 7.8125 
Q 22.3125 6.890625 25.984375 6.890625 
Q 35.75 6.890625 40.890625 13.453125 
Q 46.046875 20.015625 46.78125 33.40625 
Q 43.953125 29.203125 39.59375 26.953125 
Q 35.25 24.703125 29.984375 24.703125 
Q 19.046875 24.703125 12.671875 31.3125 
Q 6.296875 37.9375 6.296875 49.421875 
Q 6.296875 60.640625 12.9375 67.421875 
Q 19.578125 74.21875 30.609375 74.21875 
Q 43.265625 74.21875 49.921875 64.515625 
Q 56.59375 54.828125 56.59375 36.375 
Q 56.59375 19.140625 48.40625 8.859375 
Q 40.234375 -1.421875 26.421875 -1.421875 
Q 22.703125 -1.421875 18.890625 -0.6875 
Q 15.09375 0.046875 10.984375 1.515625 
M 30.609375 32.421875 
Q 37.25 32.421875 41.125 36.953125 
Q 45.015625 41.5 45.015625 49.421875 
Q 45.015625 57.28125 41.125 61.84375 
Q 37.25 66.40625 30.609375 66.40625 
Q 23.96875 66.40625 20.09375 61.84375 
Q 16.21875 57.28125 16.21875 49.421875 
Q 16.21875 41.5 20.09375 36.953125 
Q 23.96875 32.421875 30.609375 32.421875 
" id="BitstreamVeraSans-Roman-39"/>
      </defs>
      <g transform="translate(170.9371875 401.918125)scale(0.12 -0.12)">
       <use xlink:href="#BitstreamVeraSans-Roman-2212"/>
       <use x="83.7890625" xlink:href="#BitstreamVeraSans-Roman-39"/>
       <use x="147.412109375" xlink:href="#BitstreamVeraSans-Roman-30"/>
      </g>
     </g>
    </g>
    <g id="xtick_4">
     <g id="line2d_12">
      <g>
       <use style="stroke:#000000;stroke-width:0.5;" x="239.4" xlink:href="#m3d69c9809d" y="388.8"/>
      </g>
     </g>
     <g id="line2d_13">
      <g>
       <use style="stroke:#000000;stroke-width:0.5;" x="239.4" xlink:href="#mc998530738" y="43.2"/>
      </g>
     </g>
     <g id="text_4">
      <!-- −45 -->
      <defs>
       <path d="M 37.796875 64.3125 
L 12.890625 25.390625 
L 37.796875 25.390625 
z
M 35.203125 72.90625 
L 47.609375 72.90625 
L 47.609375 25.390625 
L 58.015625 25.390625 
L 58.015625 17.1875 
L 47.609375 17.1875 
L 47.609375 0 
L 37.796875 0 
L 37.796875 17.1875 
L 4.890625 17.1875 
L 4.890625 26.703125 
z
" id="BitstreamVeraSans-Roman-34"/>
      </defs>
      <g transform="translate(226.7371875 401.918125)scale(0.12 -0.12)">
       <use xlink:href="#BitstreamVeraSans-Roman-2212"/>
       <use x="83.7890625" xlink:href="#BitstreamVeraSans-Roman-34"/>
       <use x="147.412109375" xlink:href="#BitstreamVeraSans-Roman-35"/>
      </g>
     </g>
    </g>
    <g id="xtick_5">
     <g id="line2d_14">
      <g>
       <use style="stroke:#000000;stroke-width:0.5;" x="295.2" xlink:href="#m3d69c9809d" y="388.8"/>
      </g>
     </g>
     <g id="line2d_15">
      <g>
       <use style="stroke:#000000;stroke-width:0.5;" x="295.2" xlink:href="#mc998530738" y="43.2"/>
      </g>
     </g>
     <g id="text_5">
      <!-- 0 -->
      <g transform="translate(291.3825 401.918125)scale(0.12 -0.12)">
       <use xlink:href="#BitstreamVeraSans-Roman-30"/>
      </g>
     </g>
    </g>
    <g id="xtick_6">
     <g id="line2d_16">
      <g>
       <use style="stroke:#000000;stroke-width:0.5;" x="351.0" xlink:href="#m3d69c9809d" y="388.8"/>
      </g>
     </g>
     <g id="line2d_17">
      <g>
       <use style="stroke:#000000;stroke-width:0.5;" x="351.0" xlink:href="#mc998530738" y="43.2"/>
      </g>
     </g>
     <g id="text_6">
      <!-- 45 -->
      <g transform="translate(343.365 401.918125)scale(0.12 -0.12)">
       <use xlink:href="#BitstreamVeraSans-Roman-34"/>
       <use x="63.623046875" xlink:href="#BitstreamVeraSans-Roman-35"/>
      </g>
     </g>
    </g>
    <g id="xtick_7">
     <g id="line2d_18">
      <g>
       <use style="stroke:#000000;stroke-width:0.5;" x="406.8" xlink:href="#m3d69c9809d" y="388.8"/>
      </g>
     </g>
     <g id="line2d_19">
      <g>
       <use style="stroke:#000000;stroke-width:0.5;" x="406.8" xlink:href="#mc998530738" y="43.2"/>
      </g>
     </g>
     <g id="text_7">
      <!-- 90 -->
      <g transform="translate(399.165 401.918125)scale(0.12 -0.12)">
       <use xlink:href="#BitstreamVeraSans-Roman-39"/>
       <use x="63.623046875" xlink:href="#BitstreamVeraSans-Roman-30"/>
      </g>
     </g>
    </g>
    <g id="xtick_8">
     <g id="line2d_20">
      <g>
       <use style="stroke:#000000;stroke-width:0.5;" x="462.6" xlink:href="#m3d69c9809d" y="388.8"/>
      </g>
     </g>
     <g id="line2d_21">
      <g>
       <use style="stroke:#000000;stroke-width:0.5;" x="462.6" xlink:href="#mc998530738" y="43.2"/>
      </g>
     </g>
     <g id="text_8">
      <!-- 135 -->
      <g transform="translate(451.1475 401.918125)scale(0.12 -0.12)">
       <use xlink:href="#BitstreamVeraSans-Roman-31"/>
       <use x="63.623046875" xlink:href="#BitstreamVeraSans-Roman-33"/>
       <use x="127.24609375" xlink:href="#BitstreamVeraSans-Roman-35"/>
      </g>
     </g>
    </g>
    <g id="xtick_9">
     <g id="line2d_22">
      <g>
       <use style="stroke:#000000;stroke-width:0.5;" x="518.4" xlink:href="#m3d69c9809d" y="388.8"/>
      </g>
     </g>
     <g id="line2d_23">
      <g>
       <use style="stroke:#000000;stroke-width:0.5;" x="518.4" xlink:href="#mc998530738" y="43.2"/>
      </g>
     </g>
     <g id="text_9">
      <!-- 180 -->
      <g transform="translate(506.9475 401.918125)scale(0.12 -0.12)">
       <use xlink:href="#BitstreamVeraSans-Roman-31"/>
       <use x="63.623046875" xlink:href="#BitstreamVeraSans-Roman-38"/>
       <use x="127.24609375" xlink:href="#BitstreamVeraSans-Roman-30"/>
      </g>
     </g>
    </g>
    <g id="text_10">
     <!-- Phi -->
     <defs>
      <path d="M 54.890625 33.015625 
L 54.890625 0 
L 45.90625 0 
L 45.90625 32.71875 
Q 45.90625 40.484375 42.875 44.328125 
Q 39.84375 48.1875 33.796875 48.1875 
Q 26.515625 48.1875 22.3125 43.546875 
Q 18.109375 38.921875 18.109375 30.90625 
L 18.109375 0 
L 9.078125 0 
L 9.078125 75.984375 
L 18.109375 75.984375 
L 18.109375 46.1875 
Q 21.34375 51.125 25.703125 53.5625 
Q 30.078125 56 35.796875 56 
Q 45.21875 56 50.046875 50.171875 
Q 54.890625 44.34375 54.890625 33.015625 
" id="BitstreamVeraSans-Roman-68"/>
      <path d="M 9.421875 54.6875 
L 18.40625 54.6875 
L 18.40625 0 
L 9.421875 0 
z
M 9.421875 75.984375 
L 18.40625 75.984375 
L 18.40625 64.59375 
L 9.421875 64.59375 
z
" id="BitstreamVeraSans-Roman-69"/>
      <path d="M 19.671875 64.796875 
L 19.671875 37.40625 
L 32.078125 37.40625 
Q 38.96875 37.40625 42.71875 40.96875 
Q 46.484375 44.53125 46.484375 51.125 
Q 46.484375 57.671875 42.71875 61.234375 
Q 38.96875 64.796875 32.078125 64.796875 
z
M 9.8125 72.90625 
L 32.078125 72.90625 
Q 44.34375 72.90625 50.609375 67.359375 
Q 56.890625 61.8125 56.890625 51.125 
Q 56.890625 40.328125 50.609375 34.8125 
Q 44.34375 29.296875 32.078125 29.296875 
L 19.671875 29.296875 
L 19.671875 0 
L 9.8125 0 
z
" id="BitstreamVeraSans-Roman-50"/>
     </defs>
     <g transform="translate(286.1128125 418.531875)scale(0.12 -0.12)">
      <use xlink:href="#BitstreamVeraSans-Roman-50"/>
      <use x="60.302734375" xlink:href="#BitstreamVeraSans-Roman-68"/>
      <use x="123.681640625" xlink:href="#BitstreamVeraSans-Roman-69"/>
     </g>
    </g>
   </g>
   <g id="matplotlib.axis_2">
    <g id="ytick_1">
     <g id="line2d_24">
      <defs>
       <path d="M 0 0 
L 4 0 
" id="m757c4da5b4" style="stroke:#000000;stroke-width:0.5;"/>
      </defs>
      <g>
       <use style="stroke:#000000;stroke-width:0.5;" x="72.0" xlink:href="#m757c4da5b4" y="388.8"/>
      </g>
     </g>
     <g id="line2d_25">
      <defs>
       <path d="M 0 0 
L -4 0 
" id="m0d0e85cead" style="stroke:#000000;stroke-width:0.5;"/>
      </defs>
      <g>
       <use style="stroke:#000000;stroke-width:0.5;" x="518.4" xlink:href="#m0d0e85cead" y="388.8"/>
      </g>
     </g>
     <g id="text_11">
      <!-- 0.0 -->
      <defs>
       <path d="M 10.6875 12.40625 
L 21 12.40625 
L 21 0 
L 10.6875 0 
z
" id="BitstreamVeraSans-Roman-2e"/>
      </defs>
      <g transform="translate(48.91625 392.11125)scale(0.12 -0.12)">
       <use xlink:href="#BitstreamVeraSans-Roman-30"/>
       <use x="63.623046875" xlink:href="#BitstreamVeraSans-Roman-2e"/>
       <use x="95.41015625" xlink:href="#BitstreamVeraSans-Roman-30"/>
      </g>
     </g>
    </g>
    <g id="ytick_2">
     <g id="line2d_26">
      <g>
       <use style="stroke:#000000;stroke-width:0.5;" x="72.0" xlink:href="#m757c4da5b4" y="350.4"/>
      </g>
     </g>
     <g id="line2d_27">
      <g>
       <use style="stroke:#000000;stroke-width:0.5;" x="518.4" xlink:href="#m0d0e85cead" y="350.4"/>
      </g>
     </g>
     <g id="text_12">
      <!-- 0.5 -->
      <g transform="translate(48.91625 353.71125)scale(0.12 -0.12)">
       <use xlink:href="#BitstreamVeraSans-Roman-30"/>
       <use x="63.623046875" xlink:href="#BitstreamVeraSans-Roman-2e"/>
       <use x="95.41015625" xlink:href="#BitstreamVeraSans-Roman-35"/>
      </g>
     </g>
    </g>
    <g id="ytick_3">
     <g id="line2d_28">
      <g>
       <use style="stroke:#000000;stroke-width:0.5;" x="72.0" xlink:href="#m757c4da5b4" y="312.0"/>
      </g>
     </g>
     <g id="line2d_29">
      <g>
       <use style="stroke:#000000;stroke-width:0.5;" x="518.4" xlink:href="#m0d0e85cead" y="312.0"/>
      </g>
     </g>
     <g id="text_13">
      <!-- 1.0 -->
      <g transform="translate(48.91625 315.31125)scale(0.12 -0.12)">
       <use xlink:href="#BitstreamVeraSans-Roman-31"/>
       <use x="63.623046875" xlink:href="#BitstreamVeraSans-Roman-2e"/>
       <use x="95.41015625" xlink:href="#BitstreamVeraSans-Roman-30"/>
      </g>
     </g>
    </g>
    <g id="ytick_4">
     <g id="line2d_30">
      <g>
       <use style="stroke:#000000;stroke-width:0.5;" x="72.0" xlink:href="#m757c4da5b4" y="273.6"/>
      </g>
     </g>
     <g id="line2d_31">
      <g>
       <use style="stroke:#000000;stroke-width:0.5;" x="518.4" xlink:href="#m0d0e85cead" y="273.6"/>
      </g>
     </g>
     <g id="text_14">
      <!-- 1.5 -->
      <g transform="translate(48.91625 276.91125)scale(0.12 -0.12)">
       <use xlink:href="#BitstreamVeraSans-Roman-31"/>
       <use x="63.623046875" xlink:href="#BitstreamVeraSans-Roman-2e"/>
       <use x="95.41015625" xlink:href="#BitstreamVeraSans-Roman-35"/>
      </g>
     </g>
    </g>
    <g id="ytick_5">
     <g id="line2d_32">
      <g>
       <use style="stroke:#000000;stroke-width:0.5;" x="72.0" xlink:href="#m757c4da5b4" y="235.2"/>
      </g>
     </g>
     <g id="line2d_33">
      <g>
       <use style="stroke:#000000;stroke-width:0.5;" x="518.4" xlink:href="#m0d0e85cead" y="235.2"/>
      </g>
     </g>
     <g id="text_15">
      <!-- 2.0 -->
      <defs>
       <path d="M 19.1875 8.296875 
L 53.609375 8.296875 
L 53.609375 0 
L 7.328125 0 
L 7.328125 8.296875 
Q 12.9375 14.109375 22.625 23.890625 
Q 32.328125 33.6875 34.8125 36.53125 
Q 39.546875 41.84375 41.421875 45.53125 
Q 43.3125 49.21875 43.3125 52.78125 
Q 43.3125 58.59375 39.234375 62.25 
Q 35.15625 65.921875 28.609375 65.921875 
Q 23.96875 65.921875 18.8125 64.3125 
Q 13.671875 62.703125 7.8125 59.421875 
L 7.8125 69.390625 
Q 13.765625 71.78125 18.9375 73 
Q 24.125 74.21875 28.421875 74.21875 
Q 39.75 74.21875 46.484375 68.546875 
Q 53.21875 62.890625 53.21875 53.421875 
Q 53.21875 48.921875 51.53125 44.890625 
Q 49.859375 40.875 45.40625 35.40625 
Q 44.1875 33.984375 37.640625 27.21875 
Q 31.109375 20.453125 19.1875 8.296875 
" id="BitstreamVeraSans-Roman-32"/>
      </defs>
      <g transform="translate(48.91625 238.51125)scale(0.12 -0.12)">
       <use xlink:href="#BitstreamVeraSans-Roman-32"/>
       <use x="63.623046875" xlink:href="#BitstreamVeraSans-Roman-2e"/>
       <use x="95.41015625" xlink:href="#BitstreamVeraSans-Roman-30"/>
      </g>
     </g>
    </g>
    <g id="ytick_6">
     <g id="line2d_34">
      <g>
       <use style="stroke:#000000;stroke-width:0.5;" x="72.0" xlink:href="#m757c4da5b4" y="196.8"/>
      </g>
     </g>
     <g id="line2d_35">
      <g>
       <use style="stroke:#000000;stroke-width:0.5;" x="518.4" xlink:href="#m0d0e85cead" y="196.8"/>
      </g>
     </g>
     <g id="text_16">
      <!-- 2.5 -->
      <g transform="translate(48.91625 200.11125)scale(0.12 -0.12)">
       <use xlink:href="#BitstreamVeraSans-Roman-32"/>
       <use x="63.623046875" xlink:href="#BitstreamVeraSans-Roman-2e"/>
       <use x="95.41015625" xlink:href="#BitstreamVeraSans-Roman-35"/>
      </g>
     </g>
    </g>
    <g id="ytick_7">
     <g id="line2d_36">
      <g>
       <use style="stroke:#000000;stroke-width:0.5;" x="72.0" xlink:href="#m757c4da5b4" y="158.4"/>
      </g>
     </g>
     <g id="line2d_37">
      <g>
       <use style="stroke:#000000;stroke-width:0.5;" x="518.4" xlink:href="#m0d0e85cead" y="158.4"/>
      </g>
     </g>
     <g id="text_17">
      <!-- 3.0 -->
      <g transform="translate(48.91625 161.71125)scale(0.12 -0.12)">
       <use xlink:href="#BitstreamVeraSans-Roman-33"/>
       <use x="63.623046875" xlink:href="#BitstreamVeraSans-Roman-2e"/>
       <use x="95.41015625" xlink:href="#BitstreamVeraSans-Roman-30"/>
      </g>
     </g>
    </g>
    <g id="ytick_8">
     <g id="line2d_38">
      <g>
       <use style="stroke:#000000;stroke-width:0.5;" x="72.0" xlink:href="#m757c4da5b4" y="120.0"/>
      </g>
     </g>
     <g id="line2d_39">
      <g>
       <use style="stroke:#000000;stroke-width:0.5;" x="518.4" xlink:href="#m0d0e85cead" y="120.0"/>
      </g>
     </g>
     <g id="text_18">
      <!-- 3.5 -->
      <g transform="translate(48.91625 123.31125)scale(0.12 -0.12)">
       <use xlink:href="#BitstreamVeraSans-Roman-33"/>
       <use x="63.623046875" xlink:href="#BitstreamVeraSans-Roman-2e"/>
       <use x="95.41015625" xlink:href="#BitstreamVeraSans-Roman-35"/>
      </g>
     </g>
    </g>
    <g id="ytick_9">
     <g id="line2d_40">
      <g>
       <use style="stroke:#000000;stroke-width:0.5;" x="72.0" xlink:href="#m757c4da5b4" y="81.6"/>
      </g>
     </g>
     <g id="line2d_41">
      <g>
       <use style="stroke:#000000;stroke-width:0.5;" x="518.4" xlink:href="#m0d0e85cead" y="81.6"/>
      </g>
     </g>
     <g id="text_19">
      <!-- 4.0 -->
      <g transform="translate(48.91625 84.91125)scale(0.12 -0.12)">
       <use xlink:href="#BitstreamVeraSans-Roman-34"/>
       <use x="63.623046875" xlink:href="#BitstreamVeraSans-Roman-2e"/>
       <use x="95.41015625" xlink:href="#BitstreamVeraSans-Roman-30"/>
      </g>
     </g>
    </g>
    <g id="ytick_10">
     <g id="line2d_42">
      <g>
       <use style="stroke:#000000;stroke-width:0.5;" x="72.0" xlink:href="#m757c4da5b4" y="43.2"/>
      </g>
     </g>
     <g id="line2d_43">
      <g>
       <use style="stroke:#000000;stroke-width:0.5;" x="518.4" xlink:href="#m0d0e85cead" y="43.2"/>
      </g>
     </g>
     <g id="text_20">
      <!-- 4.5 -->
      <g transform="translate(48.91625 46.51125)scale(0.12 -0.12)">
       <use xlink:href="#BitstreamVeraSans-Roman-34"/>
       <use x="63.623046875" xlink:href="#BitstreamVeraSans-Roman-2e"/>
       <use x="95.41015625" xlink:href="#BitstreamVeraSans-Roman-35"/>
      </g>
     </g>
    </g>
    <g id="text_21">
     <!-- kcal/mol -->
     <defs>
      <path d="M 48.78125 52.59375 
L 48.78125 44.1875 
Q 44.96875 46.296875 41.140625 47.34375 
Q 37.3125 48.390625 33.40625 48.390625 
Q 24.65625 48.390625 19.8125 42.84375 
Q 14.984375 37.3125 14.984375 27.296875 
Q 14.984375 17.28125 19.8125 11.734375 
Q 24.65625 6.203125 33.40625 6.203125 
Q 37.3125 6.203125 41.140625 7.25 
Q 44.96875 8.296875 48.78125 10.40625 
L 48.78125 2.09375 
Q 45.015625 0.34375 40.984375 -0.53125 
Q 36.96875 -1.421875 32.421875 -1.421875 
Q 20.0625 -1.421875 12.78125 6.34375 
Q 5.515625 14.109375 5.515625 27.296875 
Q 5.515625 40.671875 12.859375 48.328125 
Q 20.21875 56 33.015625 56 
Q 37.15625 56 41.109375 55.140625 
Q 45.0625 54.296875 48.78125 52.59375 
" id="BitstreamVeraSans-Roman-63"/>
      <path d="M 52 44.1875 
Q 55.375 50.25 60.0625 53.125 
Q 64.75 56 71.09375 56 
Q 79.640625 56 84.28125 50.015625 
Q 88.921875 44.046875 88.921875 33.015625 
L 88.921875 0 
L 79.890625 0 
L 79.890625 32.71875 
Q 79.890625 40.578125 77.09375 44.375 
Q 74.3125 48.1875 68.609375 48.1875 
Q 61.625 48.1875 57.5625 43.546875 
Q 53.515625 38.921875 53.515625 30.90625 
L 53.515625 0 
L 44.484375 0 
L 44.484375 32.71875 
Q 44.484375 40.625 41.703125 44.40625 
Q 38.921875 48.1875 33.109375 48.1875 
Q 26.21875 48.1875 22.15625 43.53125 
Q 18.109375 38.875 18.109375 30.90625 
L 18.109375 0 
L 9.078125 0 
L 9.078125 54.6875 
L 18.109375 54.6875 
L 18.109375 46.1875 
Q 21.1875 51.21875 25.484375 53.609375 
Q 29.78125 56 35.6875 56 
Q 41.65625 56 45.828125 52.96875 
Q 50 49.953125 52 44.1875 
" id="BitstreamVeraSans-Roman-6d"/>
      <path d="M 9.078125 75.984375 
L 18.109375 75.984375 
L 18.109375 31.109375 
L 44.921875 54.6875 
L 56.390625 54.6875 
L 27.390625 29.109375 
L 57.625 0 
L 45.90625 0 
L 18.109375 26.703125 
L 18.109375 0 
L 9.078125 0 
z
" id="BitstreamVeraSans-Roman-6b"/>
      <path d="M 25.390625 72.90625 
L 33.6875 72.90625 
L 8.296875 -9.28125 
L 0 -9.28125 
z
" id="BitstreamVeraSans-Roman-2f"/>
      <path d="M 30.609375 48.390625 
Q 23.390625 48.390625 19.1875 42.75 
Q 14.984375 37.109375 14.984375 27.296875 
Q 14.984375 17.484375 19.15625 11.84375 
Q 23.34375 6.203125 30.609375 6.203125 
Q 37.796875 6.203125 41.984375 11.859375 
Q 46.1875 17.53125 46.1875 27.296875 
Q 46.1875 37.015625 41.984375 42.703125 
Q 37.796875 48.390625 30.609375 48.390625 
M 30.609375 56 
Q 42.328125 56 49.015625 48.375 
Q 55.71875 40.765625 55.71875 27.296875 
Q 55.71875 13.875 49.015625 6.21875 
Q 42.328125 -1.421875 30.609375 -1.421875 
Q 18.84375 -1.421875 12.171875 6.21875 
Q 5.515625 13.875 5.515625 27.296875 
Q 5.515625 40.765625 12.171875 48.375 
Q 18.84375 56 30.609375 56 
" id="BitstreamVeraSans-Roman-6f"/>
      <path d="M 34.28125 27.484375 
Q 23.390625 27.484375 19.1875 25 
Q 14.984375 22.515625 14.984375 16.5 
Q 14.984375 11.71875 18.140625 8.90625 
Q 21.296875 6.109375 26.703125 6.109375 
Q 34.1875 6.109375 38.703125 11.40625 
Q 43.21875 16.703125 43.21875 25.484375 
L 43.21875 27.484375 
z
M 52.203125 31.203125 
L 52.203125 0 
L 43.21875 0 
L 43.21875 8.296875 
Q 40.140625 3.328125 35.546875 0.953125 
Q 30.953125 -1.421875 24.3125 -1.421875 
Q 15.921875 -1.421875 10.953125 3.296875 
Q 6 8.015625 6 15.921875 
Q 6 25.140625 12.171875 29.828125 
Q 18.359375 34.515625 30.609375 34.515625 
L 43.21875 34.515625 
L 43.21875 35.40625 
Q 43.21875 41.609375 39.140625 45 
Q 35.0625 48.390625 27.6875 48.390625 
Q 23 48.390625 18.546875 47.265625 
Q 14.109375 46.140625 10.015625 43.890625 
L 10.015625 52.203125 
Q 14.9375 54.109375 19.578125 55.046875 
Q 24.21875 56 28.609375 56 
Q 40.484375 56 46.34375 49.84375 
Q 52.203125 43.703125 52.203125 31.203125 
" id="BitstreamVeraSans-Roman-61"/>
      <path d="M 9.421875 75.984375 
L 18.40625 75.984375 
L 18.40625 0 
L 9.421875 0 
z
" id="BitstreamVeraSans-Roman-6c"/>
     </defs>
     <g transform="translate(41.420625 241.3209375)rotate(-90.0)scale(0.12 -0.12)">
      <use xlink:href="#BitstreamVeraSans-Roman-6b"/>
      <use x="57.91015625" xlink:href="#BitstreamVeraSans-Roman-63"/>
      <use x="112.890625" xlink:href="#BitstreamVeraSans-Roman-61"/>
      <use x="174.169921875" xlink:href="#BitstreamVeraSans-Roman-6c"/>
      <use x="201.953125" xlink:href="#BitstreamVeraSans-Roman-2f"/>
      <use x="235.64453125" xlink:href="#BitstreamVeraSans-Roman-6d"/>
      <use x="333.056640625" xlink:href="#BitstreamVeraSans-Roman-6f"/>
      <use x="394.23828125" xlink:href="#BitstreamVeraSans-Roman-6c"/>
     </g>
    </g>
   </g>
   <g id="text_22">
    <!-- C2-N1-C1-H2 -->
    <defs>
     <path d="M 9.8125 72.90625 
L 23.09375 72.90625 
L 55.421875 11.921875 
L 55.421875 72.90625 
L 64.984375 72.90625 
L 64.984375 0 
L 51.703125 0 
L 19.390625 60.984375 
L 19.390625 0 
L 9.8125 0 
z
" id="BitstreamVeraSans-Roman-4e"/>
     <path d="M 64.40625 67.28125 
L 64.40625 56.890625 
Q 59.421875 61.53125 53.78125 63.8125 
Q 48.140625 66.109375 41.796875 66.109375 
Q 29.296875 66.109375 22.65625 58.46875 
Q 16.015625 50.828125 16.015625 36.375 
Q 16.015625 21.96875 22.65625 14.328125 
Q 29.296875 6.6875 41.796875 6.6875 
Q 48.140625 6.6875 53.78125 8.984375 
Q 59.421875 11.28125 64.40625 15.921875 
L 64.40625 5.609375 
Q 59.234375 2.09375 53.4375 0.328125 
Q 47.65625 -1.421875 41.21875 -1.421875 
Q 24.65625 -1.421875 15.125 8.703125 
Q 5.609375 18.84375 5.609375 36.375 
Q 5.609375 53.953125 15.125 64.078125 
Q 24.65625 74.21875 41.21875 74.21875 
Q 47.75 74.21875 53.53125 72.484375 
Q 59.328125 70.75 64.40625 67.28125 
" id="BitstreamVeraSans-Roman-43"/>
     <path d="M 4.890625 31.390625 
L 31.203125 31.390625 
L 31.203125 23.390625 
L 4.890625 23.390625 
z
" id="BitstreamVeraSans-Roman-2d"/>
     <path d="M 9.8125 72.90625 
L 19.671875 72.90625 
L 19.671875 43.015625 
L 55.515625 43.015625 
L 55.515625 72.90625 
L 65.375 72.90625 
L 65.375 0 
L 55.515625 0 
L 55.515625 34.71875 
L 19.671875 34.71875 
L 19.671875 0 
L 9.8125 0 
z
" id="BitstreamVeraSans-Roman-48"/>
    </defs>
    <g transform="translate(248.22675 38.2)scale(0.144 -0.144)">
     <use xlink:href="#BitstreamVeraSans-Roman-43"/>
     <use x="69.82421875" xlink:href="#BitstreamVeraSans-Roman-32"/>
     <use x="133.447265625" xlink:href="#BitstreamVeraSans-Roman-2d"/>
     <use x="169.53125" xlink:href="#BitstreamVeraSans-Roman-4e"/>
     <use x="244.3359375" xlink:href="#BitstreamVeraSans-Roman-31"/>
     <use x="307.958984375" xlink:href="#BitstreamVeraSans-Roman-2d"/>
     <use x="344.04296875" xlink:href="#BitstreamVeraSans-Roman-43"/>
     <use x="413.8671875" xlink:href="#BitstreamVeraSans-Roman-31"/>
     <use x="477.490234375" xlink:href="#BitstreamVeraSans-Roman-2d"/>
     <use x="513.57421875" xlink:href="#BitstreamVeraSans-Roman-48"/>
     <use x="588.76953125" xlink:href="#BitstreamVeraSans-Roman-32"/>
    </g>
   </g>
   <g id="legend_1">
    <g id="patch_7">
     <path d="M 406.15625 108.3125 
L 514.4 108.3125 
L 514.4 47.2 
L 406.15625 47.2 
z
" style="fill:#ffffff;stroke:#000000;stroke-linejoin:miter;"/>
    </g>
    <g id="line2d_44">
     <path d="M 411.75625 53.67875 
L 422.95625 53.67875 
" style="fill:none;stroke:#ff0000;stroke-linecap:square;"/>
    </g>
    <g id="line2d_45">
     <g>
      <use style="fill:#ff0000;stroke:#000000;stroke-width:0.5;" x="411.75625" xlink:href="#mec08baebe6" y="53.67875"/>
      <use style="fill:#ff0000;stroke:#000000;stroke-width:0.5;" x="422.95625" xlink:href="#mec08baebe6" y="53.67875"/>
     </g>
    </g>
    <g id="text_23">
     <!-- QM -->
     <defs>
      <path d="M 9.8125 72.90625 
L 24.515625 72.90625 
L 43.109375 23.296875 
L 61.8125 72.90625 
L 76.515625 72.90625 
L 76.515625 0 
L 66.890625 0 
L 66.890625 64.015625 
L 48.09375 14.015625 
L 38.1875 14.015625 
L 19.390625 64.015625 
L 19.390625 0 
L 9.8125 0 
z
" id="BitstreamVeraSans-Roman-4d"/>
      <path d="M 39.40625 66.21875 
Q 28.65625 66.21875 22.328125 58.203125 
Q 16.015625 50.203125 16.015625 36.375 
Q 16.015625 22.609375 22.328125 14.59375 
Q 28.65625 6.59375 39.40625 6.59375 
Q 50.140625 6.59375 56.421875 14.59375 
Q 62.703125 22.609375 62.703125 36.375 
Q 62.703125 50.203125 56.421875 58.203125 
Q 50.140625 66.21875 39.40625 66.21875 
M 53.21875 1.3125 
L 66.21875 -12.890625 
L 54.296875 -12.890625 
L 43.5 -1.21875 
Q 41.890625 -1.3125 41.03125 -1.359375 
Q 40.1875 -1.421875 39.40625 -1.421875 
Q 24.03125 -1.421875 14.8125 8.859375 
Q 5.609375 19.140625 5.609375 36.375 
Q 5.609375 53.65625 14.8125 63.9375 
Q 24.03125 74.21875 39.40625 74.21875 
Q 54.734375 74.21875 63.90625 63.9375 
Q 73.09375 53.65625 73.09375 36.375 
Q 73.09375 23.6875 67.984375 14.640625 
Q 62.890625 5.609375 53.21875 1.3125 
" id="BitstreamVeraSans-Roman-51"/>
     </defs>
     <g transform="translate(431.75625 56.47875)scale(0.08 -0.08)">
      <use xlink:href="#BitstreamVeraSans-Roman-51"/>
      <use x="78.7109375" xlink:href="#BitstreamVeraSans-Roman-4d"/>
     </g>
    </g>
    <g id="line2d_46">
     <path d="M 411.75625 65.42125 
L 422.95625 65.42125 
" style="fill:none;stroke:#0000ff;stroke-linecap:square;"/>
    </g>
    <g id="line2d_47">
     <g>
      <use style="fill:#0000ff;stroke:#000000;stroke-width:0.5;" x="411.75625" xlink:href="#m652cc5c2f7" y="65.42125"/>
      <use style="fill:#0000ff;stroke:#000000;stroke-width:0.5;" x="422.95625" xlink:href="#m652cc5c2f7" y="65.42125"/>
     </g>
    </g>
    <g id="text_24">
     <!-- MM Original -->
     <defs>
      <path d="M 45.40625 27.984375 
Q 45.40625 37.75 41.375 43.109375 
Q 37.359375 48.484375 30.078125 48.484375 
Q 22.859375 48.484375 18.828125 43.109375 
Q 14.796875 37.75 14.796875 27.984375 
Q 14.796875 18.265625 18.828125 12.890625 
Q 22.859375 7.515625 30.078125 7.515625 
Q 37.359375 7.515625 41.375 12.890625 
Q 45.40625 18.265625 45.40625 27.984375 
M 54.390625 6.78125 
Q 54.390625 -7.171875 48.1875 -13.984375 
Q 42 -20.796875 29.203125 -20.796875 
Q 24.46875 -20.796875 20.265625 -20.09375 
Q 16.0625 -19.390625 12.109375 -17.921875 
L 12.109375 -9.1875 
Q 16.0625 -11.328125 19.921875 -12.34375 
Q 23.78125 -13.375 27.78125 -13.375 
Q 36.625 -13.375 41.015625 -8.765625 
Q 45.40625 -4.15625 45.40625 5.171875 
L 45.40625 9.625 
Q 42.625 4.78125 38.28125 2.390625 
Q 33.9375 0 27.875 0 
Q 17.828125 0 11.671875 7.65625 
Q 5.515625 15.328125 5.515625 27.984375 
Q 5.515625 40.671875 11.671875 48.328125 
Q 17.828125 56 27.875 56 
Q 33.9375 56 38.28125 53.609375 
Q 42.625 51.21875 45.40625 46.390625 
L 45.40625 54.6875 
L 54.390625 54.6875 
z
" id="BitstreamVeraSans-Roman-67"/>
      <path d="M 54.890625 33.015625 
L 54.890625 0 
L 45.90625 0 
L 45.90625 32.71875 
Q 45.90625 40.484375 42.875 44.328125 
Q 39.84375 48.1875 33.796875 48.1875 
Q 26.515625 48.1875 22.3125 43.546875 
Q 18.109375 38.921875 18.109375 30.90625 
L 18.109375 0 
L 9.078125 0 
L 9.078125 54.6875 
L 18.109375 54.6875 
L 18.109375 46.1875 
Q 21.34375 51.125 25.703125 53.5625 
Q 30.078125 56 35.796875 56 
Q 45.21875 56 50.046875 50.171875 
Q 54.890625 44.34375 54.890625 33.015625 
" id="BitstreamVeraSans-Roman-6e"/>
      <path id="BitstreamVeraSans-Roman-20"/>
      <path d="M 39.40625 66.21875 
Q 28.65625 66.21875 22.328125 58.203125 
Q 16.015625 50.203125 16.015625 36.375 
Q 16.015625 22.609375 22.328125 14.59375 
Q 28.65625 6.59375 39.40625 6.59375 
Q 50.140625 6.59375 56.421875 14.59375 
Q 62.703125 22.609375 62.703125 36.375 
Q 62.703125 50.203125 56.421875 58.203125 
Q 50.140625 66.21875 39.40625 66.21875 
M 39.40625 74.21875 
Q 54.734375 74.21875 63.90625 63.9375 
Q 73.09375 53.65625 73.09375 36.375 
Q 73.09375 19.140625 63.90625 8.859375 
Q 54.734375 -1.421875 39.40625 -1.421875 
Q 24.03125 -1.421875 14.8125 8.828125 
Q 5.609375 19.09375 5.609375 36.375 
Q 5.609375 53.65625 14.8125 63.9375 
Q 24.03125 74.21875 39.40625 74.21875 
" id="BitstreamVeraSans-Roman-4f"/>
      <path d="M 41.109375 46.296875 
Q 39.59375 47.171875 37.8125 47.578125 
Q 36.03125 48 33.890625 48 
Q 26.265625 48 22.1875 43.046875 
Q 18.109375 38.09375 18.109375 28.8125 
L 18.109375 0 
L 9.078125 0 
L 9.078125 54.6875 
L 18.109375 54.6875 
L 18.109375 46.1875 
Q 20.953125 51.171875 25.484375 53.578125 
Q 30.03125 56 36.53125 56 
Q 37.453125 56 38.578125 55.875 
Q 39.703125 55.765625 41.0625 55.515625 
z
" id="BitstreamVeraSans-Roman-72"/>
     </defs>
     <g transform="translate(431.75625 68.22125)scale(0.08 -0.08)">
      <use xlink:href="#BitstreamVeraSans-Roman-4d"/>
      <use x="86.279296875" xlink:href="#BitstreamVeraSans-Roman-4d"/>
      <use x="172.55859375" xlink:href="#BitstreamVeraSans-Roman-20"/>
      <use x="204.345703125" xlink:href="#BitstreamVeraSans-Roman-4f"/>
      <use x="283.056640625" xlink:href="#BitstreamVeraSans-Roman-72"/>
      <use x="324.169921875" xlink:href="#BitstreamVeraSans-Roman-69"/>
      <use x="351.953125" xlink:href="#BitstreamVeraSans-Roman-67"/>
      <use x="415.4296875" xlink:href="#BitstreamVeraSans-Roman-69"/>
      <use x="443.212890625" xlink:href="#BitstreamVeraSans-Roman-6e"/>
      <use x="506.591796875" xlink:href="#BitstreamVeraSans-Roman-61"/>
      <use x="567.87109375" xlink:href="#BitstreamVeraSans-Roman-6c"/>
     </g>
    </g>
    <g id="line2d_48">
     <path d="M 411.75625 77.16375 
L 422.95625 77.16375 
" style="fill:none;stroke:#000000;stroke-linecap:square;"/>
    </g>
    <g id="line2d_49">
     <g>
      <use style="stroke:#000000;stroke-width:0.5;" x="411.75625" xlink:href="#m21fe9451bd" y="77.16375"/>
      <use style="stroke:#000000;stroke-width:0.5;" x="422.95625" xlink:href="#m21fe9451bd" y="77.16375"/>
     </g>
    </g>
    <g id="text_25">
     <!-- MM With phi zeroed -->
     <defs>
      <path d="M 18.3125 70.21875 
L 18.3125 54.6875 
L 36.8125 54.6875 
L 36.8125 47.703125 
L 18.3125 47.703125 
L 18.3125 18.015625 
Q 18.3125 11.328125 20.140625 9.421875 
Q 21.96875 7.515625 27.59375 7.515625 
L 36.8125 7.515625 
L 36.8125 0 
L 27.59375 0 
Q 17.1875 0 13.234375 3.875 
Q 9.28125 7.765625 9.28125 18.015625 
L 9.28125 47.703125 
L 2.6875 47.703125 
L 2.6875 54.6875 
L 9.28125 54.6875 
L 9.28125 70.21875 
z
" id="BitstreamVeraSans-Roman-74"/>
      <path d="M 5.515625 54.6875 
L 48.1875 54.6875 
L 48.1875 46.484375 
L 14.40625 7.171875 
L 48.1875 7.171875 
L 48.1875 0 
L 4.296875 0 
L 4.296875 8.203125 
L 38.09375 47.515625 
L 5.515625 47.515625 
z
" id="BitstreamVeraSans-Roman-7a"/>
      <path d="M 56.203125 29.59375 
L 56.203125 25.203125 
L 14.890625 25.203125 
Q 15.484375 15.921875 20.484375 11.0625 
Q 25.484375 6.203125 34.421875 6.203125 
Q 39.59375 6.203125 44.453125 7.46875 
Q 49.3125 8.734375 54.109375 11.28125 
L 54.109375 2.78125 
Q 49.265625 0.734375 44.1875 -0.34375 
Q 39.109375 -1.421875 33.890625 -1.421875 
Q 20.796875 -1.421875 13.15625 6.1875 
Q 5.515625 13.8125 5.515625 26.8125 
Q 5.515625 40.234375 12.765625 48.109375 
Q 20.015625 56 32.328125 56 
Q 43.359375 56 49.78125 48.890625 
Q 56.203125 41.796875 56.203125 29.59375 
M 47.21875 32.234375 
Q 47.125 39.59375 43.09375 43.984375 
Q 39.0625 48.390625 32.421875 48.390625 
Q 24.90625 48.390625 20.390625 44.140625 
Q 15.875 39.890625 15.1875 32.171875 
z
" id="BitstreamVeraSans-Roman-65"/>
      <path d="M 18.109375 8.203125 
L 18.109375 -20.796875 
L 9.078125 -20.796875 
L 9.078125 54.6875 
L 18.109375 54.6875 
L 18.109375 46.390625 
Q 20.953125 51.265625 25.265625 53.625 
Q 29.59375 56 35.59375 56 
Q 45.5625 56 51.78125 48.09375 
Q 58.015625 40.1875 58.015625 27.296875 
Q 58.015625 14.40625 51.78125 6.484375 
Q 45.5625 -1.421875 35.59375 -1.421875 
Q 29.59375 -1.421875 25.265625 0.953125 
Q 20.953125 3.328125 18.109375 8.203125 
M 48.6875 27.296875 
Q 48.6875 37.203125 44.609375 42.84375 
Q 40.53125 48.484375 33.40625 48.484375 
Q 26.265625 48.484375 22.1875 42.84375 
Q 18.109375 37.203125 18.109375 27.296875 
Q 18.109375 17.390625 22.1875 11.75 
Q 26.265625 6.109375 33.40625 6.109375 
Q 40.53125 6.109375 44.609375 11.75 
Q 48.6875 17.390625 48.6875 27.296875 
" id="BitstreamVeraSans-Roman-70"/>
      <path d="M 45.40625 46.390625 
L 45.40625 75.984375 
L 54.390625 75.984375 
L 54.390625 0 
L 45.40625 0 
L 45.40625 8.203125 
Q 42.578125 3.328125 38.25 0.953125 
Q 33.9375 -1.421875 27.875 -1.421875 
Q 17.96875 -1.421875 11.734375 6.484375 
Q 5.515625 14.40625 5.515625 27.296875 
Q 5.515625 40.1875 11.734375 48.09375 
Q 17.96875 56 27.875 56 
Q 33.9375 56 38.25 53.625 
Q 42.578125 51.265625 45.40625 46.390625 
M 14.796875 27.296875 
Q 14.796875 17.390625 18.875 11.75 
Q 22.953125 6.109375 30.078125 6.109375 
Q 37.203125 6.109375 41.296875 11.75 
Q 45.40625 17.390625 45.40625 27.296875 
Q 45.40625 37.203125 41.296875 42.84375 
Q 37.203125 48.484375 30.078125 48.484375 
Q 22.953125 48.484375 18.875 42.84375 
Q 14.796875 37.203125 14.796875 27.296875 
" id="BitstreamVeraSans-Roman-64"/>
      <path d="M 3.328125 72.90625 
L 13.28125 72.90625 
L 28.609375 11.28125 
L 43.890625 72.90625 
L 54.984375 72.90625 
L 70.3125 11.28125 
L 85.59375 72.90625 
L 95.609375 72.90625 
L 77.296875 0 
L 64.890625 0 
L 49.515625 63.28125 
L 33.984375 0 
L 21.578125 0 
z
" id="BitstreamVeraSans-Roman-57"/>
     </defs>
     <g transform="translate(431.75625 79.96375)scale(0.08 -0.08)">
      <use xlink:href="#BitstreamVeraSans-Roman-4d"/>
      <use x="86.279296875" xlink:href="#BitstreamVeraSans-Roman-4d"/>
      <use x="172.55859375" xlink:href="#BitstreamVeraSans-Roman-20"/>
      <use x="204.345703125" xlink:href="#BitstreamVeraSans-Roman-57"/>
      <use x="303.19140625" xlink:href="#BitstreamVeraSans-Roman-69"/>
      <use x="330.974609375" xlink:href="#BitstreamVeraSans-Roman-74"/>
      <use x="370.18359375" xlink:href="#BitstreamVeraSans-Roman-68"/>
      <use x="433.5625" xlink:href="#BitstreamVeraSans-Roman-20"/>
      <use x="465.349609375" xlink:href="#BitstreamVeraSans-Roman-70"/>
      <use x="528.826171875" xlink:href="#BitstreamVeraSans-Roman-68"/>
      <use x="592.205078125" xlink:href="#BitstreamVeraSans-Roman-69"/>
      <use x="619.98828125" xlink:href="#BitstreamVeraSans-Roman-20"/>
      <use x="651.775390625" xlink:href="#BitstreamVeraSans-Roman-7a"/>
      <use x="704.265625" xlink:href="#BitstreamVeraSans-Roman-65"/>
      <use x="765.7890625" xlink:href="#BitstreamVeraSans-Roman-72"/>
      <use x="806.87109375" xlink:href="#BitstreamVeraSans-Roman-6f"/>
      <use x="868.052734375" xlink:href="#BitstreamVeraSans-Roman-65"/>
      <use x="929.576171875" xlink:href="#BitstreamVeraSans-Roman-64"/>
     </g>
    </g>
    <g id="line2d_50">
     <path d="M 411.75625 88.90625 
L 422.95625 88.90625 
" style="fill:none;stroke:#ff00ff;stroke-linecap:square;"/>
    </g>
    <g id="line2d_51">
     <g>
      <use style="fill:#ff00ff;stroke:#ff00ff;stroke-width:0.5;" x="411.75625" xlink:href="#m2f74fe2d0c" y="88.90625"/>
      <use style="fill:#ff00ff;stroke:#ff00ff;stroke-width:0.5;" x="422.95625" xlink:href="#m2f74fe2d0c" y="88.90625"/>
     </g>
    </g>
    <g id="text_26">
     <!-- QM-MM target -->
     <g transform="translate(431.75625 91.70625)scale(0.08 -0.08)">
      <use xlink:href="#BitstreamVeraSans-Roman-51"/>
      <use x="78.7109375" xlink:href="#BitstreamVeraSans-Roman-4d"/>
      <use x="164.990234375" xlink:href="#BitstreamVeraSans-Roman-2d"/>
      <use x="201.07421875" xlink:href="#BitstreamVeraSans-Roman-4d"/>
      <use x="287.353515625" xlink:href="#BitstreamVeraSans-Roman-4d"/>
      <use x="373.6328125" xlink:href="#BitstreamVeraSans-Roman-20"/>
      <use x="405.419921875" xlink:href="#BitstreamVeraSans-Roman-74"/>
      <use x="444.62890625" xlink:href="#BitstreamVeraSans-Roman-61"/>
      <use x="505.908203125" xlink:href="#BitstreamVeraSans-Roman-72"/>
      <use x="547.005859375" xlink:href="#BitstreamVeraSans-Roman-67"/>
      <use x="610.482421875" xlink:href="#BitstreamVeraSans-Roman-65"/>
      <use x="672.005859375" xlink:href="#BitstreamVeraSans-Roman-74"/>
     </g>
    </g>
    <g id="line2d_52">
     <path d="M 411.75625 100.64875 
L 422.95625 100.64875 
" style="fill:none;stroke:#008000;stroke-linecap:square;"/>
    </g>
    <g id="line2d_53">
     <g>
      <use style="fill:#008000;stroke:#000000;stroke-width:0.5;" x="411.75625" xlink:href="#m6e9f0df315" y="100.64875"/>
      <use style="fill:#008000;stroke:#000000;stroke-width:0.5;" x="422.95625" xlink:href="#m6e9f0df315" y="100.64875"/>
     </g>
    </g>
    <g id="text_27">
     <!-- MM Fitted -->
     <defs>
      <path d="M 9.8125 72.90625 
L 51.703125 72.90625 
L 51.703125 64.59375 
L 19.671875 64.59375 
L 19.671875 43.109375 
L 48.578125 43.109375 
L 48.578125 34.8125 
L 19.671875 34.8125 
L 19.671875 0 
L 9.8125 0 
z
" id="BitstreamVeraSans-Roman-46"/>
     </defs>
     <g transform="translate(431.75625 103.44875)scale(0.08 -0.08)">
      <use xlink:href="#BitstreamVeraSans-Roman-4d"/>
      <use x="86.279296875" xlink:href="#BitstreamVeraSans-Roman-4d"/>
      <use x="172.55859375" xlink:href="#BitstreamVeraSans-Roman-20"/>
      <use x="204.345703125" xlink:href="#BitstreamVeraSans-Roman-46"/>
      <use x="261.755859375" xlink:href="#BitstreamVeraSans-Roman-69"/>
      <use x="289.5390625" xlink:href="#BitstreamVeraSans-Roman-74"/>
      <use x="328.748046875" xlink:href="#BitstreamVeraSans-Roman-74"/>
      <use x="367.95703125" xlink:href="#BitstreamVeraSans-Roman-65"/>
      <use x="429.48046875" xlink:href="#BitstreamVeraSans-Roman-64"/>
     </g>
    </g>
   </g>
  </g>
 </g>
 <defs>
  <clipPath id="pfa108b26f7">
   <rect height="345.6" width="446.4" x="72.0" y="43.2"/>
  </clipPath>
 </defs>
</svg>
