<?xml version="1.0" encoding="utf-8" standalone="no"?>
<!DOCTYPE svg PUBLIC "-//W3C//DTD SVG 1.1//EN"
  "http://www.w3.org/Graphics/SVG/1.1/DTD/svg11.dtd">
<!-- Created with matplotlib (http://matplotlib.org/) -->
<svg height="432pt" version="1.1" viewBox="0 0 576 432" width="576pt" xmlns="http://www.w3.org/2000/svg" xmlns:xlink="http://www.w3.org/1999/xlink">
 <defs>
  <style type="text/css">
*{stroke-linecap:butt;stroke-linejoin:round;stroke-miterlimit:100000;}
  </style>
 </defs>
 <g id="figure_1">
  <g id="patch_1">
   <path d="M 0 432 
L 576 432 
L 576 0 
L 0 0 
z
" style="fill:#ffffff;"/>
  </g>
  <g id="axes_1">
   <g id="patch_2">
    <path d="M 72 388.8 
L 518.4 388.8 
L 518.4 43.2 
L 72 43.2 
z
" style="fill:#ffffff;"/>
   </g>
   <g id="line2d_1">
    <path clip-path="url(#pfdeba7d356)" d="M 71.999994 382.407051 
L 84.400035 349.406716 
L 96.80002 289.340183 
L 109.199988 213.039588 
L 121.600029 138.21143 
L 133.999999 86.394515 
L 146.40001 74.826495 
L 158.800019 107.502545 
L 171.200009 172.849405 
L 183.600011 250.451811 
L 196.000006 320.536938 
L 208.40002 369.143256 
L 220.799957 388.8 
L 233.199966 377.652804 
L 245.599982 338.890584 
L 257.999976 281.971675 
L 270.399954 223.062977 
L 282.799994 181.166428 
L 295.199304 169.666074 
L 307.599949 190.678889 
L 320.000005 235.815021 
L 332.399973 290.643713 
L 344.79998 339.88487 
L 357.199999 371.507847 
L 369.599974 378.784274 
L 382.00001 360.420529 
L 394.400001 320.366213 
L 406.800001 267.333759 
L 419.200004 214.575348 
L 431.600021 177.684905 
L 444.000047 169.678763 
L 456.400004 195.044303 
L 468.800047 246.176057 
L 481.20002 306.224304 
L 493.600039 356.742942 
L 506.000007 384.301254 
" style="fill:none;stroke:#ff0000;stroke-linecap:square;"/>
    <defs>
     <path d="M 0 3 
C 0.795609 3 1.55874 2.683901 2.12132 2.12132 
C 2.683901 1.55874 3 0.795609 3 0 
C 3 -0.795609 2.683901 -1.55874 2.12132 -2.12132 
C 1.55874 -2.683901 0.795609 -3 0 -3 
C -0.795609 -3 -1.55874 -2.683901 -2.12132 -2.12132 
C -2.683901 -1.55874 -3 -0.795609 -3 0 
C -3 0.795609 -2.683901 1.55874 -2.12132 2.12132 
C -1.55874 2.683901 -0.795609 3 0 3 
z
" id="m410f2833c3" style="stroke:#000000;stroke-width:0.5;"/>
    </defs>
    <g clip-path="url(#pfdeba7d356)">
     <use style="fill:#ff0000;stroke:#000000;stroke-width:0.5;" x="71.9999942838" xlink:href="#m410f2833c3" y="382.407051329"/>
     <use style="fill:#ff0000;stroke:#000000;stroke-width:0.5;" x="84.4000350103" xlink:href="#m410f2833c3" y="349.406715996"/>
     <use style="fill:#ff0000;stroke:#000000;stroke-width:0.5;" x="96.8000195532" xlink:href="#m410f2833c3" y="289.340183497"/>
     <use style="fill:#ff0000;stroke:#000000;stroke-width:0.5;" x="109.199987938" xlink:href="#m410f2833c3" y="213.039587745"/>
     <use style="fill:#ff0000;stroke:#000000;stroke-width:0.5;" x="121.600029034" xlink:href="#m410f2833c3" y="138.21143033"/>
     <use style="fill:#ff0000;stroke:#000000;stroke-width:0.5;" x="133.999999387" xlink:href="#m410f2833c3" y="86.3945152212"/>
     <use style="fill:#ff0000;stroke:#000000;stroke-width:0.5;" x="146.400009685" xlink:href="#m410f2833c3" y="74.8264949737"/>
     <use style="fill:#ff0000;stroke:#000000;stroke-width:0.5;" x="158.800019303" xlink:href="#m410f2833c3" y="107.502544623"/>
     <use style="fill:#ff0000;stroke:#000000;stroke-width:0.5;" x="171.200008612" xlink:href="#m410f2833c3" y="172.849405051"/>
     <use style="fill:#ff0000;stroke:#000000;stroke-width:0.5;" x="183.600010702" xlink:href="#m410f2833c3" y="250.451811009"/>
     <use style="fill:#ff0000;stroke:#000000;stroke-width:0.5;" x="196.000005943" xlink:href="#m410f2833c3" y="320.536938393"/>
     <use style="fill:#ff0000;stroke:#000000;stroke-width:0.5;" x="208.400020397" xlink:href="#m410f2833c3" y="369.143255818"/>
     <use style="fill:#ff0000;stroke:#000000;stroke-width:0.5;" x="220.79995684" xlink:href="#m410f2833c3" y="388.8"/>
     <use style="fill:#ff0000;stroke:#000000;stroke-width:0.5;" x="233.199966453" xlink:href="#m410f2833c3" y="377.652803508"/>
     <use style="fill:#ff0000;stroke:#000000;stroke-width:0.5;" x="245.599981705" xlink:href="#m410f2833c3" y="338.890584137"/>
     <use style="fill:#ff0000;stroke:#000000;stroke-width:0.5;" x="257.999975984" xlink:href="#m410f2833c3" y="281.971675494"/>
     <use style="fill:#ff0000;stroke:#000000;stroke-width:0.5;" x="270.399953727" xlink:href="#m410f2833c3" y="223.062976737"/>
     <use style="fill:#ff0000;stroke:#000000;stroke-width:0.5;" x="282.799993588" xlink:href="#m410f2833c3" y="181.166427818"/>
     <use style="fill:#ff0000;stroke:#000000;stroke-width:0.5;" x="295.199304291" xlink:href="#m410f2833c3" y="169.666073924"/>
     <use style="fill:#ff0000;stroke:#000000;stroke-width:0.5;" x="307.599948814" xlink:href="#m410f2833c3" y="190.67888916"/>
     <use style="fill:#ff0000;stroke:#000000;stroke-width:0.5;" x="320.000004586" xlink:href="#m410f2833c3" y="235.81502117"/>
     <use style="fill:#ff0000;stroke:#000000;stroke-width:0.5;" x="332.399973269" xlink:href="#m410f2833c3" y="290.643712759"/>
     <use style="fill:#ff0000;stroke:#000000;stroke-width:0.5;" x="344.799980131" xlink:href="#m410f2833c3" y="339.884870473"/>
     <use style="fill:#ff0000;stroke:#000000;stroke-width:0.5;" x="357.199998935" xlink:href="#m410f2833c3" y="371.507846625"/>
     <use style="fill:#ff0000;stroke:#000000;stroke-width:0.5;" x="369.599973633" xlink:href="#m410f2833c3" y="378.784273536"/>
     <use style="fill:#ff0000;stroke:#000000;stroke-width:0.5;" x="382.00001" xlink:href="#m410f2833c3" y="360.420528633"/>
     <use style="fill:#ff0000;stroke:#000000;stroke-width:0.5;" x="394.400001481" xlink:href="#m410f2833c3" y="320.366212617"/>
     <use style="fill:#ff0000;stroke:#000000;stroke-width:0.5;" x="406.800001437" xlink:href="#m410f2833c3" y="267.333759153"/>
     <use style="fill:#ff0000;stroke:#000000;stroke-width:0.5;" x="419.200003745" xlink:href="#m410f2833c3" y="214.57534763"/>
     <use style="fill:#ff0000;stroke:#000000;stroke-width:0.5;" x="431.600020805" xlink:href="#m410f2833c3" y="177.684904866"/>
     <use style="fill:#ff0000;stroke:#000000;stroke-width:0.5;" x="444.000047135" xlink:href="#m410f2833c3" y="169.678762843"/>
     <use style="fill:#ff0000;stroke:#000000;stroke-width:0.5;" x="456.400004076" xlink:href="#m410f2833c3" y="195.044303209"/>
     <use style="fill:#ff0000;stroke:#000000;stroke-width:0.5;" x="468.80004714" xlink:href="#m410f2833c3" y="246.176057027"/>
     <use style="fill:#ff0000;stroke:#000000;stroke-width:0.5;" x="481.200019912" xlink:href="#m410f2833c3" y="306.224303937"/>
     <use style="fill:#ff0000;stroke:#000000;stroke-width:0.5;" x="493.60003875" xlink:href="#m410f2833c3" y="356.742942262"/>
     <use style="fill:#ff0000;stroke:#000000;stroke-width:0.5;" x="506.000006754" xlink:href="#m410f2833c3" y="384.30125399"/>
    </g>
   </g>
   <g id="line2d_2">
    <path clip-path="url(#pfdeba7d356)" d="M 71.999994 355.677635 
L 84.400035 324.804602 
L 96.80002 275.293129 
L 109.199988 217.904917 
L 121.600029 165.125371 
L 133.999999 128.388326 
L 146.40001 120.544523 
L 158.800019 142.504942 
L 171.200009 186.132632 
L 183.600011 240.283778 
L 196.000006 292.772886 
L 208.40002 334.764658 
L 220.799957 358.468571 
L 233.199966 359.54952 
L 245.599982 338.323785 
L 257.999976 302.267948 
L 270.399954 262.710761 
L 282.799994 234.460353 
L 295.199304 224.399617 
L 307.599949 237.585942 
L 320.000005 270.286596 
L 332.399973 312.029229 
L 344.79998 351.542857 
L 357.199999 379.21 
L 369.599974 388.8 
L 382.00001 376.264102 
L 394.400001 348.229417 
L 406.800001 307.600561 
L 419.200004 265.850358 
L 431.600021 235.071574 
L 444.000047 225.182855 
L 456.400004 239.16803 
L 468.800047 272.354779 
L 481.20002 312.764985 
L 493.600039 346.967086 
L 506.000007 363.429413 
" style="fill:none;stroke:#0000ff;stroke-linecap:square;"/>
    <defs>
     <path d="M 0 3 
C 0.795609 3 1.55874 2.683901 2.12132 2.12132 
C 2.683901 1.55874 3 0.795609 3 0 
C 3 -0.795609 2.683901 -1.55874 2.12132 -2.12132 
C 1.55874 -2.683901 0.795609 -3 0 -3 
C -0.795609 -3 -1.55874 -2.683901 -2.12132 -2.12132 
C -2.683901 -1.55874 -3 -0.795609 -3 0 
C -3 0.795609 -2.683901 1.55874 -2.12132 2.12132 
C -1.55874 2.683901 -0.795609 3 0 3 
z
" id="m4e196ea2e1" style="stroke:#000000;stroke-width:0.5;"/>
    </defs>
    <g clip-path="url(#pfdeba7d356)">
     <use style="fill:#0000ff;stroke:#000000;stroke-width:0.5;" x="71.9999942838" xlink:href="#m4e196ea2e1" y="355.677634927"/>
     <use style="fill:#0000ff;stroke:#000000;stroke-width:0.5;" x="84.4000350103" xlink:href="#m4e196ea2e1" y="324.804602436"/>
     <use style="fill:#0000ff;stroke:#000000;stroke-width:0.5;" x="96.8000195532" xlink:href="#m4e196ea2e1" y="275.293129095"/>
     <use style="fill:#0000ff;stroke:#000000;stroke-width:0.5;" x="109.199987938" xlink:href="#m4e196ea2e1" y="217.904916504"/>
     <use style="fill:#0000ff;stroke:#000000;stroke-width:0.5;" x="121.600029034" xlink:href="#m4e196ea2e1" y="165.125370767"/>
     <use style="fill:#0000ff;stroke:#000000;stroke-width:0.5;" x="133.999999387" xlink:href="#m4e196ea2e1" y="128.388325738"/>
     <use style="fill:#0000ff;stroke:#000000;stroke-width:0.5;" x="146.400009685" xlink:href="#m4e196ea2e1" y="120.544523093"/>
     <use style="fill:#0000ff;stroke:#000000;stroke-width:0.5;" x="158.800019303" xlink:href="#m4e196ea2e1" y="142.504941645"/>
     <use style="fill:#0000ff;stroke:#000000;stroke-width:0.5;" x="171.200008612" xlink:href="#m4e196ea2e1" y="186.132632293"/>
     <use style="fill:#0000ff;stroke:#000000;stroke-width:0.5;" x="183.600010702" xlink:href="#m4e196ea2e1" y="240.283777623"/>
     <use style="fill:#0000ff;stroke:#000000;stroke-width:0.5;" x="196.000005943" xlink:href="#m4e196ea2e1" y="292.772885873"/>
     <use style="fill:#0000ff;stroke:#000000;stroke-width:0.5;" x="208.400020397" xlink:href="#m4e196ea2e1" y="334.764658499"/>
     <use style="fill:#0000ff;stroke:#000000;stroke-width:0.5;" x="220.79995684" xlink:href="#m4e196ea2e1" y="358.468570838"/>
     <use style="fill:#0000ff;stroke:#000000;stroke-width:0.5;" x="233.199966453" xlink:href="#m4e196ea2e1" y="359.549520314"/>
     <use style="fill:#0000ff;stroke:#000000;stroke-width:0.5;" x="245.599981705" xlink:href="#m4e196ea2e1" y="338.323784904"/>
     <use style="fill:#0000ff;stroke:#000000;stroke-width:0.5;" x="257.999975984" xlink:href="#m4e196ea2e1" y="302.267947595"/>
     <use style="fill:#0000ff;stroke:#000000;stroke-width:0.5;" x="270.399953727" xlink:href="#m4e196ea2e1" y="262.710761027"/>
     <use style="fill:#0000ff;stroke:#000000;stroke-width:0.5;" x="282.799993588" xlink:href="#m4e196ea2e1" y="234.460352655"/>
     <use style="fill:#0000ff;stroke:#000000;stroke-width:0.5;" x="295.199304291" xlink:href="#m4e196ea2e1" y="224.399617103"/>
     <use style="fill:#0000ff;stroke:#000000;stroke-width:0.5;" x="307.599948814" xlink:href="#m4e196ea2e1" y="237.585941985"/>
     <use style="fill:#0000ff;stroke:#000000;stroke-width:0.5;" x="320.000004586" xlink:href="#m4e196ea2e1" y="270.286596046"/>
     <use style="fill:#0000ff;stroke:#000000;stroke-width:0.5;" x="332.399973269" xlink:href="#m4e196ea2e1" y="312.029229272"/>
     <use style="fill:#0000ff;stroke:#000000;stroke-width:0.5;" x="344.799980131" xlink:href="#m4e196ea2e1" y="351.542857085"/>
     <use style="fill:#0000ff;stroke:#000000;stroke-width:0.5;" x="357.199998935" xlink:href="#m4e196ea2e1" y="379.210000132"/>
     <use style="fill:#0000ff;stroke:#000000;stroke-width:0.5;" x="369.599973633" xlink:href="#m4e196ea2e1" y="388.8"/>
     <use style="fill:#0000ff;stroke:#000000;stroke-width:0.5;" x="382.00001" xlink:href="#m4e196ea2e1" y="376.264101855"/>
     <use style="fill:#0000ff;stroke:#000000;stroke-width:0.5;" x="394.400001481" xlink:href="#m4e196ea2e1" y="348.22941683"/>
     <use style="fill:#0000ff;stroke:#000000;stroke-width:0.5;" x="406.800001437" xlink:href="#m4e196ea2e1" y="307.600560535"/>
     <use style="fill:#0000ff;stroke:#000000;stroke-width:0.5;" x="419.200003745" xlink:href="#m4e196ea2e1" y="265.850358313"/>
     <use style="fill:#0000ff;stroke:#000000;stroke-width:0.5;" x="431.600020805" xlink:href="#m4e196ea2e1" y="235.071573791"/>
     <use style="fill:#0000ff;stroke:#000000;stroke-width:0.5;" x="444.000047135" xlink:href="#m4e196ea2e1" y="225.182855287"/>
     <use style="fill:#0000ff;stroke:#000000;stroke-width:0.5;" x="456.400004076" xlink:href="#m4e196ea2e1" y="239.16802999"/>
     <use style="fill:#0000ff;stroke:#000000;stroke-width:0.5;" x="468.80004714" xlink:href="#m4e196ea2e1" y="272.354779175"/>
     <use style="fill:#0000ff;stroke:#000000;stroke-width:0.5;" x="481.200019912" xlink:href="#m4e196ea2e1" y="312.764984903"/>
     <use style="fill:#0000ff;stroke:#000000;stroke-width:0.5;" x="493.60003875" xlink:href="#m4e196ea2e1" y="346.967086399"/>
     <use style="fill:#0000ff;stroke:#000000;stroke-width:0.5;" x="506.000006754" xlink:href="#m4e196ea2e1" y="363.429413109"/>
    </g>
   </g>
   <g id="line2d_3">
    <path clip-path="url(#pfdeba7d356)" d="M 71.999994 325.130718 
L 84.400035 291.389443 
L 96.80002 239.382433 
L 109.199988 179.890821 
L 121.600029 125.410013 
L 133.999999 87.480898 
L 146.40001 79.103635 
L 158.800019 101.354376 
L 171.200009 146.142891 
L 183.600011 202.227835 
L 196.000006 257.273763 
L 208.40002 302.276119 
L 220.799957 329.307281 
L 233.199966 333.897095 
L 245.599982 316.210359 
L 257.999976 283.641448 
L 270.399954 247.49744 
L 282.799994 222.53348 
L 295.199304 215.671356 
L 307.599949 231.768804 
L 320.000005 266.913806 
L 332.399973 310.496603 
L 344.79998 351.209041 
L 357.199999 379.374958 
L 369.599974 388.8 
L 382.00001 375.587254 
L 394.400001 346.373414 
L 406.800001 304.265061 
L 419.200004 260.700278 
L 431.600021 227.714828 
L 444.000047 215.167885 
L 456.400004 226.070921 
L 468.800047 255.81785 
L 481.20002 292.594924 
L 493.600039 323.154424 
L 506.000007 336.125662 
" style="fill:none;stroke:#000000;stroke-linecap:square;"/>
    <defs>
     <path d="M -3 3 
L 3 -3 
M -3 -3 
L 3 3 
" id="m00db78fc55" style="stroke:#000000;stroke-width:0.5;"/>
    </defs>
    <g clip-path="url(#pfdeba7d356)">
     <use style="stroke:#000000;stroke-width:0.5;" x="71.9999942838" xlink:href="#m00db78fc55" y="325.130718277"/>
     <use style="stroke:#000000;stroke-width:0.5;" x="84.4000350103" xlink:href="#m00db78fc55" y="291.389442928"/>
     <use style="stroke:#000000;stroke-width:0.5;" x="96.8000195532" xlink:href="#m00db78fc55" y="239.382432515"/>
     <use style="stroke:#000000;stroke-width:0.5;" x="109.199987938" xlink:href="#m00db78fc55" y="179.890820648"/>
     <use style="stroke:#000000;stroke-width:0.5;" x="121.600029034" xlink:href="#m00db78fc55" y="125.410013078"/>
     <use style="stroke:#000000;stroke-width:0.5;" x="133.999999387" xlink:href="#m00db78fc55" y="87.4808977714"/>
     <use style="stroke:#000000;stroke-width:0.5;" x="146.400009685" xlink:href="#m00db78fc55" y="79.1036348377"/>
     <use style="stroke:#000000;stroke-width:0.5;" x="158.800019303" xlink:href="#m00db78fc55" y="101.354376079"/>
     <use style="stroke:#000000;stroke-width:0.5;" x="171.200008612" xlink:href="#m00db78fc55" y="146.142890971"/>
     <use style="stroke:#000000;stroke-width:0.5;" x="183.600010702" xlink:href="#m00db78fc55" y="202.227835274"/>
     <use style="stroke:#000000;stroke-width:0.5;" x="196.000005943" xlink:href="#m00db78fc55" y="257.273763253"/>
     <use style="stroke:#000000;stroke-width:0.5;" x="208.400020397" xlink:href="#m00db78fc55" y="302.276119369"/>
     <use style="stroke:#000000;stroke-width:0.5;" x="220.79995684" xlink:href="#m00db78fc55" y="329.307281056"/>
     <use style="stroke:#000000;stroke-width:0.5;" x="233.199966453" xlink:href="#m00db78fc55" y="333.897094539"/>
     <use style="stroke:#000000;stroke-width:0.5;" x="245.599981705" xlink:href="#m00db78fc55" y="316.210358946"/>
     <use style="stroke:#000000;stroke-width:0.5;" x="257.999975984" xlink:href="#m00db78fc55" y="283.641447601"/>
     <use style="stroke:#000000;stroke-width:0.5;" x="270.399953727" xlink:href="#m00db78fc55" y="247.497440264"/>
     <use style="stroke:#000000;stroke-width:0.5;" x="282.799993588" xlink:href="#m00db78fc55" y="222.533480477"/>
     <use style="stroke:#000000;stroke-width:0.5;" x="295.199304291" xlink:href="#m00db78fc55" y="215.671356358"/>
     <use style="stroke:#000000;stroke-width:0.5;" x="307.599948814" xlink:href="#m00db78fc55" y="231.768804155"/>
     <use style="stroke:#000000;stroke-width:0.5;" x="320.000004586" xlink:href="#m00db78fc55" y="266.913805752"/>
     <use style="stroke:#000000;stroke-width:0.5;" x="332.399973269" xlink:href="#m00db78fc55" y="310.49660341"/>
     <use style="stroke:#000000;stroke-width:0.5;" x="344.799980131" xlink:href="#m00db78fc55" y="351.209041464"/>
     <use style="stroke:#000000;stroke-width:0.5;" x="357.199998935" xlink:href="#m00db78fc55" y="379.374957843"/>
     <use style="stroke:#000000;stroke-width:0.5;" x="369.599973633" xlink:href="#m00db78fc55" y="388.8"/>
     <use style="stroke:#000000;stroke-width:0.5;" x="382.00001" xlink:href="#m00db78fc55" y="375.587254299"/>
     <use style="stroke:#000000;stroke-width:0.5;" x="394.400001481" xlink:href="#m00db78fc55" y="346.37341435"/>
     <use style="stroke:#000000;stroke-width:0.5;" x="406.800001437" xlink:href="#m00db78fc55" y="304.265060623"/>
     <use style="stroke:#000000;stroke-width:0.5;" x="419.200003745" xlink:href="#m00db78fc55" y="260.700278291"/>
     <use style="stroke:#000000;stroke-width:0.5;" x="431.600020805" xlink:href="#m00db78fc55" y="227.714828218"/>
     <use style="stroke:#000000;stroke-width:0.5;" x="444.000047135" xlink:href="#m00db78fc55" y="215.16788538"/>
     <use style="stroke:#000000;stroke-width:0.5;" x="456.400004076" xlink:href="#m00db78fc55" y="226.070920811"/>
     <use style="stroke:#000000;stroke-width:0.5;" x="468.80004714" xlink:href="#m00db78fc55" y="255.817850242"/>
     <use style="stroke:#000000;stroke-width:0.5;" x="481.200019912" xlink:href="#m00db78fc55" y="292.59492438"/>
     <use style="stroke:#000000;stroke-width:0.5;" x="493.60003875" xlink:href="#m00db78fc55" y="323.1544239"/>
     <use style="stroke:#000000;stroke-width:0.5;" x="506.000006754" xlink:href="#m00db78fc55" y="336.125662354"/>
    </g>
   </g>
   <g id="line2d_4">
    <path clip-path="url(#pfdeba7d356)" d="M 71.999994 379.209197 
L 84.400035 379.950137 
L 96.80002 371.890615 
L 109.199988 355.081631 
L 121.600029 334.734281 
L 133.999999 320.846481 
L 146.40001 317.655724 
L 158.800019 328.081032 
L 171.200009 348.639378 
L 183.600011 370.156839 
L 196.000006 385.196039 
L 208.40002 388.8 
L 220.799957 381.425582 
L 233.199966 365.688573 
L 245.599982 344.613089 
L 257.999976 320.263091 
L 270.399954 297.4984 
L 282.799994 280.565811 
L 295.199304 275.927581 
L 307.599949 280.842949 
L 320.000005 290.834079 
L 332.399973 302.079973 
L 344.79998 310.608693 
L 357.199999 314.065752 
L 369.599974 311.917137 
L 382.00001 306.766138 
L 394.400001 295.925662 
L 406.800001 285.001562 
L 419.200004 275.807933 
L 431.600021 271.90294 
L 444.000047 276.443741 
L 456.400004 290.906246 
L 468.800047 312.29107 
L 481.20002 335.562243 
L 493.600039 355.521382 
L 506.000007 370.108455 
" style="fill:none;stroke:#ff00ff;stroke-linecap:square;"/>
    <defs>
     <path d="M -3 3 
L 3 -3 
M -3 -3 
L 3 3 
" id="mbc85837c8f" style="stroke:#ff00ff;stroke-width:0.5;"/>
    </defs>
    <g clip-path="url(#pfdeba7d356)">
     <use style="fill:#ff00ff;stroke:#ff00ff;stroke-width:0.5;" x="71.9999942838" xlink:href="#mbc85837c8f" y="379.209196604"/>
     <use style="fill:#ff00ff;stroke:#ff00ff;stroke-width:0.5;" x="84.4000350103" xlink:href="#mbc85837c8f" y="379.95013662"/>
     <use style="fill:#ff00ff;stroke:#ff00ff;stroke-width:0.5;" x="96.8000195532" xlink:href="#mbc85837c8f" y="371.890614534"/>
     <use style="fill:#ff00ff;stroke:#ff00ff;stroke-width:0.5;" x="109.199987938" xlink:href="#mbc85837c8f" y="355.081630648"/>
     <use style="fill:#ff00ff;stroke:#ff00ff;stroke-width:0.5;" x="121.600029034" xlink:href="#mbc85837c8f" y="334.734280804"/>
     <use style="fill:#ff00ff;stroke:#ff00ff;stroke-width:0.5;" x="133.999999387" xlink:href="#mbc85837c8f" y="320.846481001"/>
     <use style="fill:#ff00ff;stroke:#ff00ff;stroke-width:0.5;" x="146.400009685" xlink:href="#mbc85837c8f" y="317.655723688"/>
     <use style="fill:#ff00ff;stroke:#ff00ff;stroke-width:0.5;" x="158.800019303" xlink:href="#mbc85837c8f" y="328.081032096"/>
     <use style="fill:#ff00ff;stroke:#ff00ff;stroke-width:0.5;" x="171.200008612" xlink:href="#mbc85837c8f" y="348.639377632"/>
     <use style="fill:#ff00ff;stroke:#ff00ff;stroke-width:0.5;" x="183.600010702" xlink:href="#mbc85837c8f" y="370.156839287"/>
     <use style="fill:#ff00ff;stroke:#ff00ff;stroke-width:0.5;" x="196.000005943" xlink:href="#mbc85837c8f" y="385.196038691"/>
     <use style="fill:#ff00ff;stroke:#ff00ff;stroke-width:0.5;" x="208.400020397" xlink:href="#mbc85837c8f" y="388.8"/>
     <use style="fill:#ff00ff;stroke:#ff00ff;stroke-width:0.5;" x="220.79995684" xlink:href="#mbc85837c8f" y="381.425582495"/>
     <use style="fill:#ff00ff;stroke:#ff00ff;stroke-width:0.5;" x="233.199966453" xlink:href="#mbc85837c8f" y="365.688572521"/>
     <use style="fill:#ff00ff;stroke:#ff00ff;stroke-width:0.5;" x="245.599981705" xlink:href="#mbc85837c8f" y="344.613088743"/>
     <use style="fill:#ff00ff;stroke:#ff00ff;stroke-width:0.5;" x="257.999975984" xlink:href="#mbc85837c8f" y="320.263091445"/>
     <use style="fill:#ff00ff;stroke:#ff00ff;stroke-width:0.5;" x="270.399953727" xlink:href="#mbc85837c8f" y="297.498400025"/>
     <use style="fill:#ff00ff;stroke:#ff00ff;stroke-width:0.5;" x="282.799993588" xlink:href="#mbc85837c8f" y="280.565810892"/>
     <use style="fill:#ff00ff;stroke:#ff00ff;stroke-width:0.5;" x="295.199304291" xlink:href="#mbc85837c8f" y="275.927581117"/>
     <use style="fill:#ff00ff;stroke:#ff00ff;stroke-width:0.5;" x="307.599948814" xlink:href="#mbc85837c8f" y="280.842948557"/>
     <use style="fill:#ff00ff;stroke:#ff00ff;stroke-width:0.5;" x="320.000004586" xlink:href="#mbc85837c8f" y="290.83407897"/>
     <use style="fill:#ff00ff;stroke:#ff00ff;stroke-width:0.5;" x="332.399973269" xlink:href="#mbc85837c8f" y="302.079972901"/>
     <use style="fill:#ff00ff;stroke:#ff00ff;stroke-width:0.5;" x="344.799980131" xlink:href="#mbc85837c8f" y="310.60869256"/>
     <use style="fill:#ff00ff;stroke:#ff00ff;stroke-width:0.5;" x="357.199998935" xlink:href="#mbc85837c8f" y="314.065752333"/>
     <use style="fill:#ff00ff;stroke:#ff00ff;stroke-width:0.5;" x="369.599973633" xlink:href="#mbc85837c8f" y="311.917137087"/>
     <use style="fill:#ff00ff;stroke:#ff00ff;stroke-width:0.5;" x="382.00001" xlink:href="#mbc85837c8f" y="306.766137886"/>
     <use style="fill:#ff00ff;stroke:#ff00ff;stroke-width:0.5;" x="394.400001481" xlink:href="#mbc85837c8f" y="295.925661818"/>
     <use style="fill:#ff00ff;stroke:#ff00ff;stroke-width:0.5;" x="406.800001437" xlink:href="#mbc85837c8f" y="285.001562082"/>
     <use style="fill:#ff00ff;stroke:#ff00ff;stroke-width:0.5;" x="419.200003745" xlink:href="#mbc85837c8f" y="275.807932891"/>
     <use style="fill:#ff00ff;stroke:#ff00ff;stroke-width:0.5;" x="431.600020805" xlink:href="#mbc85837c8f" y="271.9029402"/>
     <use style="fill:#ff00ff;stroke:#ff00ff;stroke-width:0.5;" x="444.000047135" xlink:href="#mbc85837c8f" y="276.443741015"/>
     <use style="fill:#ff00ff;stroke:#ff00ff;stroke-width:0.5;" x="456.400004076" xlink:href="#mbc85837c8f" y="290.906245949"/>
     <use style="fill:#ff00ff;stroke:#ff00ff;stroke-width:0.5;" x="468.80004714" xlink:href="#mbc85837c8f" y="312.291070336"/>
     <use style="fill:#ff00ff;stroke:#ff00ff;stroke-width:0.5;" x="481.200019912" xlink:href="#mbc85837c8f" y="335.562243109"/>
     <use style="fill:#ff00ff;stroke:#ff00ff;stroke-width:0.5;" x="493.60003875" xlink:href="#mbc85837c8f" y="355.521381914"/>
     <use style="fill:#ff00ff;stroke:#ff00ff;stroke-width:0.5;" x="506.000006754" xlink:href="#mbc85837c8f" y="370.108455187"/>
    </g>
   </g>
   <g id="line2d_5">
    <path clip-path="url(#pfdeba7d356)" d="M 71.999994 387.973521 
L 84.400035 355.01302 
L 96.80002 293.804269 
L 109.199988 216.702018 
L 121.600029 141.277879 
L 133.999999 87.542962 
L 146.40001 76.361353 
L 158.800019 110.136648 
L 171.200009 174.66504 
L 183.600011 250.390418 
L 196.000006 318.717785 
L 208.40002 367.543576 
L 220.799957 388.680861 
L 233.199966 379.342646 
L 245.599982 342.112836 
L 257.999976 286.98271 
L 270.399954 228.326697 
L 282.799994 185.669663 
L 295.199304 170.368422 
L 307.599949 188.347183 
L 320.000005 232.233872 
L 332.399973 286.542514 
L 344.79998 336.489916 
L 357.199999 370.647741 
L 369.599974 382.008181 
L 382.00001 365.895571 
L 394.400001 329.127942 
L 406.800001 276.033518 
L 419.200004 221.596225 
L 431.600021 182.396371 
L 444.000047 172.106477 
L 456.400004 195.032362 
L 468.800047 244.657932 
L 481.20002 304.981284 
L 493.600039 358.069863 
L 506.000007 388.8 
" style="fill:none;stroke:#008000;stroke-linecap:square;"/>
    <defs>
     <path d="M 0 3 
C 0.795609 3 1.55874 2.683901 2.12132 2.12132 
C 2.683901 1.55874 3 0.795609 3 0 
C 3 -0.795609 2.683901 -1.55874 2.12132 -2.12132 
C 1.55874 -2.683901 0.795609 -3 0 -3 
C -0.795609 -3 -1.55874 -2.683901 -2.12132 -2.12132 
C -2.683901 -1.55874 -3 -0.795609 -3 0 
C -3 0.795609 -2.683901 1.55874 -2.12132 2.12132 
C -1.55874 2.683901 -0.795609 3 0 3 
z
" id="mcf71390240" style="stroke:#000000;stroke-width:0.5;"/>
    </defs>
    <g clip-path="url(#pfdeba7d356)">
     <use style="fill:#008000;stroke:#000000;stroke-width:0.5;" x="71.9999942838" xlink:href="#mcf71390240" y="387.97352077"/>
     <use style="fill:#008000;stroke:#000000;stroke-width:0.5;" x="84.4000350103" xlink:href="#mcf71390240" y="355.013020461"/>
     <use style="fill:#008000;stroke:#000000;stroke-width:0.5;" x="96.8000195532" xlink:href="#mcf71390240" y="293.804269215"/>
     <use style="fill:#008000;stroke:#000000;stroke-width:0.5;" x="109.199987938" xlink:href="#mcf71390240" y="216.702018143"/>
     <use style="fill:#008000;stroke:#000000;stroke-width:0.5;" x="121.600029034" xlink:href="#mcf71390240" y="141.277878921"/>
     <use style="fill:#008000;stroke:#000000;stroke-width:0.5;" x="133.999999387" xlink:href="#mcf71390240" y="87.5429621191"/>
     <use style="fill:#008000;stroke:#000000;stroke-width:0.5;" x="146.400009685" xlink:href="#mcf71390240" y="76.3613525104"/>
     <use style="fill:#008000;stroke:#000000;stroke-width:0.5;" x="158.800019303" xlink:href="#mcf71390240" y="110.1366475"/>
     <use style="fill:#008000;stroke:#000000;stroke-width:0.5;" x="171.200008612" xlink:href="#mcf71390240" y="174.665039502"/>
     <use style="fill:#008000;stroke:#000000;stroke-width:0.5;" x="183.600010702" xlink:href="#mcf71390240" y="250.390417935"/>
     <use style="fill:#008000;stroke:#000000;stroke-width:0.5;" x="196.000005943" xlink:href="#mcf71390240" y="318.717784965"/>
     <use style="fill:#008000;stroke:#000000;stroke-width:0.5;" x="208.400020397" xlink:href="#mcf71390240" y="367.543575817"/>
     <use style="fill:#008000;stroke:#000000;stroke-width:0.5;" x="220.79995684" xlink:href="#mcf71390240" y="388.680861167"/>
     <use style="fill:#008000;stroke:#000000;stroke-width:0.5;" x="233.199966453" xlink:href="#mcf71390240" y="379.342645866"/>
     <use style="fill:#008000;stroke:#000000;stroke-width:0.5;" x="245.599981705" xlink:href="#mcf71390240" y="342.112836177"/>
     <use style="fill:#008000;stroke:#000000;stroke-width:0.5;" x="257.999975984" xlink:href="#mcf71390240" y="286.982710492"/>
     <use style="fill:#008000;stroke:#000000;stroke-width:0.5;" x="270.399953727" xlink:href="#mcf71390240" y="228.326696604"/>
     <use style="fill:#008000;stroke:#000000;stroke-width:0.5;" x="282.799993588" xlink:href="#mcf71390240" y="185.669663333"/>
     <use style="fill:#008000;stroke:#000000;stroke-width:0.5;" x="295.199304291" xlink:href="#mcf71390240" y="170.368422029"/>
     <use style="fill:#008000;stroke:#000000;stroke-width:0.5;" x="307.599948814" xlink:href="#mcf71390240" y="188.347183288"/>
     <use style="fill:#008000;stroke:#000000;stroke-width:0.5;" x="320.000004586" xlink:href="#mcf71390240" y="232.233872125"/>
     <use style="fill:#008000;stroke:#000000;stroke-width:0.5;" x="332.399973269" xlink:href="#mcf71390240" y="286.542514053"/>
     <use style="fill:#008000;stroke:#000000;stroke-width:0.5;" x="344.799980131" xlink:href="#mcf71390240" y="336.489916258"/>
     <use style="fill:#008000;stroke:#000000;stroke-width:0.5;" x="357.199998935" xlink:href="#mcf71390240" y="370.647741454"/>
     <use style="fill:#008000;stroke:#000000;stroke-width:0.5;" x="369.599973633" xlink:href="#mcf71390240" y="382.008180864"/>
     <use style="fill:#008000;stroke:#000000;stroke-width:0.5;" x="382.00001" xlink:href="#mcf71390240" y="365.895571394"/>
     <use style="fill:#008000;stroke:#000000;stroke-width:0.5;" x="394.400001481" xlink:href="#mcf71390240" y="329.127942148"/>
     <use style="fill:#008000;stroke:#000000;stroke-width:0.5;" x="406.800001437" xlink:href="#mcf71390240" y="276.033517707"/>
     <use style="fill:#008000;stroke:#000000;stroke-width:0.5;" x="419.200003745" xlink:href="#mcf71390240" y="221.596225223"/>
     <use style="fill:#008000;stroke:#000000;stroke-width:0.5;" x="431.600020805" xlink:href="#mcf71390240" y="182.396370624"/>
     <use style="fill:#008000;stroke:#000000;stroke-width:0.5;" x="444.000047135" xlink:href="#mcf71390240" y="172.106477409"/>
     <use style="fill:#008000;stroke:#000000;stroke-width:0.5;" x="456.400004076" xlink:href="#mcf71390240" y="195.032361843"/>
     <use style="fill:#008000;stroke:#000000;stroke-width:0.5;" x="468.80004714" xlink:href="#mcf71390240" y="244.65793244"/>
     <use style="fill:#008000;stroke:#000000;stroke-width:0.5;" x="481.200019912" xlink:href="#mcf71390240" y="304.981284291"/>
     <use style="fill:#008000;stroke:#000000;stroke-width:0.5;" x="493.60003875" xlink:href="#mcf71390240" y="358.069863111"/>
     <use style="fill:#008000;stroke:#000000;stroke-width:0.5;" x="506.000006754" xlink:href="#mcf71390240" y="388.8"/>
    </g>
   </g>
   <g id="patch_3">
    <path d="M 72 388.8 
L 518.4 388.8 
" style="fill:none;stroke:#000000;stroke-linecap:square;stroke-linejoin:miter;"/>
   </g>
   <g id="patch_4">
    <path d="M 72 388.8 
L 72 43.2 
" style="fill:none;stroke:#000000;stroke-linecap:square;stroke-linejoin:miter;"/>
   </g>
   <g id="patch_5">
    <path d="M 518.4 388.8 
L 518.4 43.2 
" style="fill:none;stroke:#000000;stroke-linecap:square;stroke-linejoin:miter;"/>
   </g>
   <g id="patch_6">
    <path d="M 72 43.2 
L 518.4 43.2 
" style="fill:none;stroke:#000000;stroke-linecap:square;stroke-linejoin:miter;"/>
   </g>
   <g id="matplotlib.axis_1">
    <g id="xtick_1">
     <g id="line2d_6">
      <defs>
       <path d="M 0 0 
L 0 -4 
" id="m823035fb74" style="stroke:#000000;stroke-width:0.5;"/>
      </defs>
      <g>
       <use style="stroke:#000000;stroke-width:0.5;" x="72.0" xlink:href="#m823035fb74" y="388.8"/>
      </g>
     </g>
     <g id="line2d_7">
      <defs>
       <path d="M 0 0 
L 0 4 
" id="mc9ab8b77c7" style="stroke:#000000;stroke-width:0.5;"/>
      </defs>
      <g>
       <use style="stroke:#000000;stroke-width:0.5;" x="72.0" xlink:href="#mc9ab8b77c7" y="43.2"/>
      </g>
     </g>
     <g id="text_1">
      <!-- −180 -->
      <defs>
       <path d="M 31.78125 66.40625 
Q 24.171875 66.40625 20.328125 58.90625 
Q 16.5 51.421875 16.5 36.375 
Q 16.5 21.390625 20.328125 13.890625 
Q 24.171875 6.390625 31.78125 6.390625 
Q 39.453125 6.390625 43.28125 13.890625 
Q 47.125 21.390625 47.125 36.375 
Q 47.125 51.421875 43.28125 58.90625 
Q 39.453125 66.40625 31.78125 66.40625 
M 31.78125 74.21875 
Q 44.046875 74.21875 50.515625 64.515625 
Q 56.984375 54.828125 56.984375 36.375 
Q 56.984375 17.96875 50.515625 8.265625 
Q 44.046875 -1.421875 31.78125 -1.421875 
Q 19.53125 -1.421875 13.0625 8.265625 
Q 6.59375 17.96875 6.59375 36.375 
Q 6.59375 54.828125 13.0625 64.515625 
Q 19.53125 74.21875 31.78125 74.21875 
" id="BitstreamVeraSans-Roman-30"/>
       <path d="M 10.59375 35.5 
L 73.1875 35.5 
L 73.1875 27.203125 
L 10.59375 27.203125 
z
" id="BitstreamVeraSans-Roman-2212"/>
       <path d="M 31.78125 34.625 
Q 24.75 34.625 20.71875 30.859375 
Q 16.703125 27.09375 16.703125 20.515625 
Q 16.703125 13.921875 20.71875 10.15625 
Q 24.75 6.390625 31.78125 6.390625 
Q 38.8125 6.390625 42.859375 10.171875 
Q 46.921875 13.96875 46.921875 20.515625 
Q 46.921875 27.09375 42.890625 30.859375 
Q 38.875 34.625 31.78125 34.625 
M 21.921875 38.8125 
Q 15.578125 40.375 12.03125 44.71875 
Q 8.5 49.078125 8.5 55.328125 
Q 8.5 64.0625 14.71875 69.140625 
Q 20.953125 74.21875 31.78125 74.21875 
Q 42.671875 74.21875 48.875 69.140625 
Q 55.078125 64.0625 55.078125 55.328125 
Q 55.078125 49.078125 51.53125 44.71875 
Q 48 40.375 41.703125 38.8125 
Q 48.828125 37.15625 52.796875 32.3125 
Q 56.78125 27.484375 56.78125 20.515625 
Q 56.78125 9.90625 50.3125 4.234375 
Q 43.84375 -1.421875 31.78125 -1.421875 
Q 19.734375 -1.421875 13.25 4.234375 
Q 6.78125 9.90625 6.78125 20.515625 
Q 6.78125 27.484375 10.78125 32.3125 
Q 14.796875 37.15625 21.921875 38.8125 
M 18.3125 54.390625 
Q 18.3125 48.734375 21.84375 45.5625 
Q 25.390625 42.390625 31.78125 42.390625 
Q 38.140625 42.390625 41.71875 45.5625 
Q 45.3125 48.734375 45.3125 54.390625 
Q 45.3125 60.0625 41.71875 63.234375 
Q 38.140625 66.40625 31.78125 66.40625 
Q 25.390625 66.40625 21.84375 63.234375 
Q 18.3125 60.0625 18.3125 54.390625 
" id="BitstreamVeraSans-Roman-38"/>
       <path d="M 12.40625 8.296875 
L 28.515625 8.296875 
L 28.515625 63.921875 
L 10.984375 60.40625 
L 10.984375 69.390625 
L 28.421875 72.90625 
L 38.28125 72.90625 
L 38.28125 8.296875 
L 54.390625 8.296875 
L 54.390625 0 
L 12.40625 0 
z
" id="BitstreamVeraSans-Roman-31"/>
      </defs>
      <g transform="translate(55.5196875 401.918125)scale(0.12 -0.12)">
       <use xlink:href="#BitstreamVeraSans-Roman-2212"/>
       <use x="83.7890625" xlink:href="#BitstreamVeraSans-Roman-31"/>
       <use x="147.412109375" xlink:href="#BitstreamVeraSans-Roman-38"/>
       <use x="211.03515625" xlink:href="#BitstreamVeraSans-Roman-30"/>
      </g>
     </g>
    </g>
    <g id="xtick_2">
     <g id="line2d_8">
      <g>
       <use style="stroke:#000000;stroke-width:0.5;" x="127.8" xlink:href="#m823035fb74" y="388.8"/>
      </g>
     </g>
     <g id="line2d_9">
      <g>
       <use style="stroke:#000000;stroke-width:0.5;" x="127.8" xlink:href="#mc9ab8b77c7" y="43.2"/>
      </g>
     </g>
     <g id="text_2">
      <!-- −135 -->
      <defs>
       <path d="M 10.796875 72.90625 
L 49.515625 72.90625 
L 49.515625 64.59375 
L 19.828125 64.59375 
L 19.828125 46.734375 
Q 21.96875 47.46875 24.109375 47.828125 
Q 26.265625 48.1875 28.421875 48.1875 
Q 40.625 48.1875 47.75 41.5 
Q 54.890625 34.8125 54.890625 23.390625 
Q 54.890625 11.625 47.5625 5.09375 
Q 40.234375 -1.421875 26.90625 -1.421875 
Q 22.3125 -1.421875 17.546875 -0.640625 
Q 12.796875 0.140625 7.71875 1.703125 
L 7.71875 11.625 
Q 12.109375 9.234375 16.796875 8.0625 
Q 21.484375 6.890625 26.703125 6.890625 
Q 35.15625 6.890625 40.078125 11.328125 
Q 45.015625 15.765625 45.015625 23.390625 
Q 45.015625 31 40.078125 35.4375 
Q 35.15625 39.890625 26.703125 39.890625 
Q 22.75 39.890625 18.8125 39.015625 
Q 14.890625 38.140625 10.796875 36.28125 
z
" id="BitstreamVeraSans-Roman-35"/>
       <path d="M 40.578125 39.3125 
Q 47.65625 37.796875 51.625 33 
Q 55.609375 28.21875 55.609375 21.1875 
Q 55.609375 10.40625 48.1875 4.484375 
Q 40.765625 -1.421875 27.09375 -1.421875 
Q 22.515625 -1.421875 17.65625 -0.515625 
Q 12.796875 0.390625 7.625 2.203125 
L 7.625 11.71875 
Q 11.71875 9.328125 16.59375 8.109375 
Q 21.484375 6.890625 26.8125 6.890625 
Q 36.078125 6.890625 40.9375 10.546875 
Q 45.796875 14.203125 45.796875 21.1875 
Q 45.796875 27.640625 41.28125 31.265625 
Q 36.765625 34.90625 28.71875 34.90625 
L 20.21875 34.90625 
L 20.21875 43.015625 
L 29.109375 43.015625 
Q 36.375 43.015625 40.234375 45.921875 
Q 44.09375 48.828125 44.09375 54.296875 
Q 44.09375 59.90625 40.109375 62.90625 
Q 36.140625 65.921875 28.71875 65.921875 
Q 24.65625 65.921875 20.015625 65.03125 
Q 15.375 64.15625 9.8125 62.3125 
L 9.8125 71.09375 
Q 15.4375 72.65625 20.34375 73.4375 
Q 25.25 74.21875 29.59375 74.21875 
Q 40.828125 74.21875 47.359375 69.109375 
Q 53.90625 64.015625 53.90625 55.328125 
Q 53.90625 49.265625 50.4375 45.09375 
Q 46.96875 40.921875 40.578125 39.3125 
" id="BitstreamVeraSans-Roman-33"/>
      </defs>
      <g transform="translate(111.3196875 401.918125)scale(0.12 -0.12)">
       <use xlink:href="#BitstreamVeraSans-Roman-2212"/>
       <use x="83.7890625" xlink:href="#BitstreamVeraSans-Roman-31"/>
       <use x="147.412109375" xlink:href="#BitstreamVeraSans-Roman-33"/>
       <use x="211.03515625" xlink:href="#BitstreamVeraSans-Roman-35"/>
      </g>
     </g>
    </g>
    <g id="xtick_3">
     <g id="line2d_10">
      <g>
       <use style="stroke:#000000;stroke-width:0.5;" x="183.6" xlink:href="#m823035fb74" y="388.8"/>
      </g>
     </g>
     <g id="line2d_11">
      <g>
       <use style="stroke:#000000;stroke-width:0.5;" x="183.6" xlink:href="#mc9ab8b77c7" y="43.2"/>
      </g>
     </g>
     <g id="text_3">
      <!-- −90 -->
      <defs>
       <path d="M 10.984375 1.515625 
L 10.984375 10.5 
Q 14.703125 8.734375 18.5 7.8125 
Q 22.3125 6.890625 25.984375 6.890625 
Q 35.75 6.890625 40.890625 13.453125 
Q 46.046875 20.015625 46.78125 33.40625 
Q 43.953125 29.203125 39.59375 26.953125 
Q 35.25 24.703125 29.984375 24.703125 
Q 19.046875 24.703125 12.671875 31.3125 
Q 6.296875 37.9375 6.296875 49.421875 
Q 6.296875 60.640625 12.9375 67.421875 
Q 19.578125 74.21875 30.609375 74.21875 
Q 43.265625 74.21875 49.921875 64.515625 
Q 56.59375 54.828125 56.59375 36.375 
Q 56.59375 19.140625 48.40625 8.859375 
Q 40.234375 -1.421875 26.421875 -1.421875 
Q 22.703125 -1.421875 18.890625 -0.6875 
Q 15.09375 0.046875 10.984375 1.515625 
M 30.609375 32.421875 
Q 37.25 32.421875 41.125 36.953125 
Q 45.015625 41.5 45.015625 49.421875 
Q 45.015625 57.28125 41.125 61.84375 
Q 37.25 66.40625 30.609375 66.40625 
Q 23.96875 66.40625 20.09375 61.84375 
Q 16.21875 57.28125 16.21875 49.421875 
Q 16.21875 41.5 20.09375 36.953125 
Q 23.96875 32.421875 30.609375 32.421875 
" id="BitstreamVeraSans-Roman-39"/>
      </defs>
      <g transform="translate(170.9371875 401.918125)scale(0.12 -0.12)">
       <use xlink:href="#BitstreamVeraSans-Roman-2212"/>
       <use x="83.7890625" xlink:href="#BitstreamVeraSans-Roman-39"/>
       <use x="147.412109375" xlink:href="#BitstreamVeraSans-Roman-30"/>
      </g>
     </g>
    </g>
    <g id="xtick_4">
     <g id="line2d_12">
      <g>
       <use style="stroke:#000000;stroke-width:0.5;" x="239.4" xlink:href="#m823035fb74" y="388.8"/>
      </g>
     </g>
     <g id="line2d_13">
      <g>
       <use style="stroke:#000000;stroke-width:0.5;" x="239.4" xlink:href="#mc9ab8b77c7" y="43.2"/>
      </g>
     </g>
     <g id="text_4">
      <!-- −45 -->
      <defs>
       <path d="M 37.796875 64.3125 
L 12.890625 25.390625 
L 37.796875 25.390625 
z
M 35.203125 72.90625 
L 47.609375 72.90625 
L 47.609375 25.390625 
L 58.015625 25.390625 
L 58.015625 17.1875 
L 47.609375 17.1875 
L 47.609375 0 
L 37.796875 0 
L 37.796875 17.1875 
L 4.890625 17.1875 
L 4.890625 26.703125 
z
" id="BitstreamVeraSans-Roman-34"/>
      </defs>
      <g transform="translate(226.7371875 401.918125)scale(0.12 -0.12)">
       <use xlink:href="#BitstreamVeraSans-Roman-2212"/>
       <use x="83.7890625" xlink:href="#BitstreamVeraSans-Roman-34"/>
       <use x="147.412109375" xlink:href="#BitstreamVeraSans-Roman-35"/>
      </g>
     </g>
    </g>
    <g id="xtick_5">
     <g id="line2d_14">
      <g>
       <use style="stroke:#000000;stroke-width:0.5;" x="295.2" xlink:href="#m823035fb74" y="388.8"/>
      </g>
     </g>
     <g id="line2d_15">
      <g>
       <use style="stroke:#000000;stroke-width:0.5;" x="295.2" xlink:href="#mc9ab8b77c7" y="43.2"/>
      </g>
     </g>
     <g id="text_5">
      <!-- 0 -->
      <g transform="translate(291.3825 401.918125)scale(0.12 -0.12)">
       <use xlink:href="#BitstreamVeraSans-Roman-30"/>
      </g>
     </g>
    </g>
    <g id="xtick_6">
     <g id="line2d_16">
      <g>
       <use style="stroke:#000000;stroke-width:0.5;" x="351.0" xlink:href="#m823035fb74" y="388.8"/>
      </g>
     </g>
     <g id="line2d_17">
      <g>
       <use style="stroke:#000000;stroke-width:0.5;" x="351.0" xlink:href="#mc9ab8b77c7" y="43.2"/>
      </g>
     </g>
     <g id="text_6">
      <!-- 45 -->
      <g transform="translate(343.365 401.918125)scale(0.12 -0.12)">
       <use xlink:href="#BitstreamVeraSans-Roman-34"/>
       <use x="63.623046875" xlink:href="#BitstreamVeraSans-Roman-35"/>
      </g>
     </g>
    </g>
    <g id="xtick_7">
     <g id="line2d_18">
      <g>
       <use style="stroke:#000000;stroke-width:0.5;" x="406.8" xlink:href="#m823035fb74" y="388.8"/>
      </g>
     </g>
     <g id="line2d_19">
      <g>
       <use style="stroke:#000000;stroke-width:0.5;" x="406.8" xlink:href="#mc9ab8b77c7" y="43.2"/>
      </g>
     </g>
     <g id="text_7">
      <!-- 90 -->
      <g transform="translate(399.165 401.918125)scale(0.12 -0.12)">
       <use xlink:href="#BitstreamVeraSans-Roman-39"/>
       <use x="63.623046875" xlink:href="#BitstreamVeraSans-Roman-30"/>
      </g>
     </g>
    </g>
    <g id="xtick_8">
     <g id="line2d_20">
      <g>
       <use style="stroke:#000000;stroke-width:0.5;" x="462.6" xlink:href="#m823035fb74" y="388.8"/>
      </g>
     </g>
     <g id="line2d_21">
      <g>
       <use style="stroke:#000000;stroke-width:0.5;" x="462.6" xlink:href="#mc9ab8b77c7" y="43.2"/>
      </g>
     </g>
     <g id="text_8">
      <!-- 135 -->
      <g transform="translate(451.1475 401.918125)scale(0.12 -0.12)">
       <use xlink:href="#BitstreamVeraSans-Roman-31"/>
       <use x="63.623046875" xlink:href="#BitstreamVeraSans-Roman-33"/>
       <use x="127.24609375" xlink:href="#BitstreamVeraSans-Roman-35"/>
      </g>
     </g>
    </g>
    <g id="xtick_9">
     <g id="line2d_22">
      <g>
       <use style="stroke:#000000;stroke-width:0.5;" x="518.4" xlink:href="#m823035fb74" y="388.8"/>
      </g>
     </g>
     <g id="line2d_23">
      <g>
       <use style="stroke:#000000;stroke-width:0.5;" x="518.4" xlink:href="#mc9ab8b77c7" y="43.2"/>
      </g>
     </g>
     <g id="text_9">
      <!-- 180 -->
      <g transform="translate(506.9475 401.918125)scale(0.12 -0.12)">
       <use xlink:href="#BitstreamVeraSans-Roman-31"/>
       <use x="63.623046875" xlink:href="#BitstreamVeraSans-Roman-38"/>
       <use x="127.24609375" xlink:href="#BitstreamVeraSans-Roman-30"/>
      </g>
     </g>
    </g>
    <g id="text_10">
     <!-- Phi -->
     <defs>
      <path d="M 54.890625 33.015625 
L 54.890625 0 
L 45.90625 0 
L 45.90625 32.71875 
Q 45.90625 40.484375 42.875 44.328125 
Q 39.84375 48.1875 33.796875 48.1875 
Q 26.515625 48.1875 22.3125 43.546875 
Q 18.109375 38.921875 18.109375 30.90625 
L 18.109375 0 
L 9.078125 0 
L 9.078125 75.984375 
L 18.109375 75.984375 
L 18.109375 46.1875 
Q 21.34375 51.125 25.703125 53.5625 
Q 30.078125 56 35.796875 56 
Q 45.21875 56 50.046875 50.171875 
Q 54.890625 44.34375 54.890625 33.015625 
" id="BitstreamVeraSans-Roman-68"/>
      <path d="M 19.671875 64.796875 
L 19.671875 37.40625 
L 32.078125 37.40625 
Q 38.96875 37.40625 42.71875 40.96875 
Q 46.484375 44.53125 46.484375 51.125 
Q 46.484375 57.671875 42.71875 61.234375 
Q 38.96875 64.796875 32.078125 64.796875 
z
M 9.8125 72.90625 
L 32.078125 72.90625 
Q 44.34375 72.90625 50.609375 67.359375 
Q 56.890625 61.8125 56.890625 51.125 
Q 56.890625 40.328125 50.609375 34.8125 
Q 44.34375 29.296875 32.078125 29.296875 
L 19.671875 29.296875 
L 19.671875 0 
L 9.8125 0 
z
" id="BitstreamVeraSans-Roman-50"/>
      <path d="M 9.421875 54.6875 
L 18.40625 54.6875 
L 18.40625 0 
L 9.421875 0 
z
M 9.421875 75.984375 
L 18.40625 75.984375 
L 18.40625 64.59375 
L 9.421875 64.59375 
z
" id="BitstreamVeraSans-Roman-69"/>
     </defs>
     <g transform="translate(286.1128125 418.531875)scale(0.12 -0.12)">
      <use xlink:href="#BitstreamVeraSans-Roman-50"/>
      <use x="60.302734375" xlink:href="#BitstreamVeraSans-Roman-68"/>
      <use x="123.681640625" xlink:href="#BitstreamVeraSans-Roman-69"/>
     </g>
    </g>
   </g>
   <g id="matplotlib.axis_2">
    <g id="ytick_1">
     <g id="line2d_24">
      <defs>
       <path d="M 0 0 
L 4 0 
" id="m09a5a40593" style="stroke:#000000;stroke-width:0.5;"/>
      </defs>
      <g>
       <use style="stroke:#000000;stroke-width:0.5;" x="72.0" xlink:href="#m09a5a40593" y="388.8"/>
      </g>
     </g>
     <g id="line2d_25">
      <defs>
       <path d="M 0 0 
L -4 0 
" id="mfeda5519a6" style="stroke:#000000;stroke-width:0.5;"/>
      </defs>
      <g>
       <use style="stroke:#000000;stroke-width:0.5;" x="518.4" xlink:href="#mfeda5519a6" y="388.8"/>
      </g>
     </g>
     <g id="text_11">
      <!-- 0 -->
      <g transform="translate(60.365 392.11125)scale(0.12 -0.12)">
       <use xlink:href="#BitstreamVeraSans-Roman-30"/>
      </g>
     </g>
    </g>
    <g id="ytick_2">
     <g id="line2d_26">
      <g>
       <use style="stroke:#000000;stroke-width:0.5;" x="72.0" xlink:href="#m09a5a40593" y="331.2"/>
      </g>
     </g>
     <g id="line2d_27">
      <g>
       <use style="stroke:#000000;stroke-width:0.5;" x="518.4" xlink:href="#mfeda5519a6" y="331.2"/>
      </g>
     </g>
     <g id="text_12">
      <!-- 1 -->
      <g transform="translate(60.365 334.51125)scale(0.12 -0.12)">
       <use xlink:href="#BitstreamVeraSans-Roman-31"/>
      </g>
     </g>
    </g>
    <g id="ytick_3">
     <g id="line2d_28">
      <g>
       <use style="stroke:#000000;stroke-width:0.5;" x="72.0" xlink:href="#m09a5a40593" y="273.6"/>
      </g>
     </g>
     <g id="line2d_29">
      <g>
       <use style="stroke:#000000;stroke-width:0.5;" x="518.4" xlink:href="#mfeda5519a6" y="273.6"/>
      </g>
     </g>
     <g id="text_13">
      <!-- 2 -->
      <defs>
       <path d="M 19.1875 8.296875 
L 53.609375 8.296875 
L 53.609375 0 
L 7.328125 0 
L 7.328125 8.296875 
Q 12.9375 14.109375 22.625 23.890625 
Q 32.328125 33.6875 34.8125 36.53125 
Q 39.546875 41.84375 41.421875 45.53125 
Q 43.3125 49.21875 43.3125 52.78125 
Q 43.3125 58.59375 39.234375 62.25 
Q 35.15625 65.921875 28.609375 65.921875 
Q 23.96875 65.921875 18.8125 64.3125 
Q 13.671875 62.703125 7.8125 59.421875 
L 7.8125 69.390625 
Q 13.765625 71.78125 18.9375 73 
Q 24.125 74.21875 28.421875 74.21875 
Q 39.75 74.21875 46.484375 68.546875 
Q 53.21875 62.890625 53.21875 53.421875 
Q 53.21875 48.921875 51.53125 44.890625 
Q 49.859375 40.875 45.40625 35.40625 
Q 44.1875 33.984375 37.640625 27.21875 
Q 31.109375 20.453125 19.1875 8.296875 
" id="BitstreamVeraSans-Roman-32"/>
      </defs>
      <g transform="translate(60.365 276.91125)scale(0.12 -0.12)">
       <use xlink:href="#BitstreamVeraSans-Roman-32"/>
      </g>
     </g>
    </g>
    <g id="ytick_4">
     <g id="line2d_30">
      <g>
       <use style="stroke:#000000;stroke-width:0.5;" x="72.0" xlink:href="#m09a5a40593" y="216.0"/>
      </g>
     </g>
     <g id="line2d_31">
      <g>
       <use style="stroke:#000000;stroke-width:0.5;" x="518.4" xlink:href="#mfeda5519a6" y="216.0"/>
      </g>
     </g>
     <g id="text_14">
      <!-- 3 -->
      <g transform="translate(60.365 219.31125)scale(0.12 -0.12)">
       <use xlink:href="#BitstreamVeraSans-Roman-33"/>
      </g>
     </g>
    </g>
    <g id="ytick_5">
     <g id="line2d_32">
      <g>
       <use style="stroke:#000000;stroke-width:0.5;" x="72.0" xlink:href="#m09a5a40593" y="158.4"/>
      </g>
     </g>
     <g id="line2d_33">
      <g>
       <use style="stroke:#000000;stroke-width:0.5;" x="518.4" xlink:href="#mfeda5519a6" y="158.4"/>
      </g>
     </g>
     <g id="text_15">
      <!-- 4 -->
      <g transform="translate(60.365 161.71125)scale(0.12 -0.12)">
       <use xlink:href="#BitstreamVeraSans-Roman-34"/>
      </g>
     </g>
    </g>
    <g id="ytick_6">
     <g id="line2d_34">
      <g>
       <use style="stroke:#000000;stroke-width:0.5;" x="72.0" xlink:href="#m09a5a40593" y="100.8"/>
      </g>
     </g>
     <g id="line2d_35">
      <g>
       <use style="stroke:#000000;stroke-width:0.5;" x="518.4" xlink:href="#mfeda5519a6" y="100.8"/>
      </g>
     </g>
     <g id="text_16">
      <!-- 5 -->
      <g transform="translate(60.365 104.11125)scale(0.12 -0.12)">
       <use xlink:href="#BitstreamVeraSans-Roman-35"/>
      </g>
     </g>
    </g>
    <g id="ytick_7">
     <g id="line2d_36">
      <g>
       <use style="stroke:#000000;stroke-width:0.5;" x="72.0" xlink:href="#m09a5a40593" y="43.2"/>
      </g>
     </g>
     <g id="line2d_37">
      <g>
       <use style="stroke:#000000;stroke-width:0.5;" x="518.4" xlink:href="#mfeda5519a6" y="43.2"/>
      </g>
     </g>
     <g id="text_17">
      <!-- 6 -->
      <defs>
       <path d="M 33.015625 40.375 
Q 26.375 40.375 22.484375 35.828125 
Q 18.609375 31.296875 18.609375 23.390625 
Q 18.609375 15.53125 22.484375 10.953125 
Q 26.375 6.390625 33.015625 6.390625 
Q 39.65625 6.390625 43.53125 10.953125 
Q 47.40625 15.53125 47.40625 23.390625 
Q 47.40625 31.296875 43.53125 35.828125 
Q 39.65625 40.375 33.015625 40.375 
M 52.59375 71.296875 
L 52.59375 62.3125 
Q 48.875 64.0625 45.09375 64.984375 
Q 41.3125 65.921875 37.59375 65.921875 
Q 27.828125 65.921875 22.671875 59.328125 
Q 17.53125 52.734375 16.796875 39.40625 
Q 19.671875 43.65625 24.015625 45.921875 
Q 28.375 48.1875 33.59375 48.1875 
Q 44.578125 48.1875 50.953125 41.515625 
Q 57.328125 34.859375 57.328125 23.390625 
Q 57.328125 12.15625 50.6875 5.359375 
Q 44.046875 -1.421875 33.015625 -1.421875 
Q 20.359375 -1.421875 13.671875 8.265625 
Q 6.984375 17.96875 6.984375 36.375 
Q 6.984375 53.65625 15.1875 63.9375 
Q 23.390625 74.21875 37.203125 74.21875 
Q 40.921875 74.21875 44.703125 73.484375 
Q 48.484375 72.75 52.59375 71.296875 
" id="BitstreamVeraSans-Roman-36"/>
      </defs>
      <g transform="translate(60.365 46.51125)scale(0.12 -0.12)">
       <use xlink:href="#BitstreamVeraSans-Roman-36"/>
      </g>
     </g>
    </g>
    <g id="text_18">
     <!-- kcal/mol -->
     <defs>
      <path d="M 9.421875 75.984375 
L 18.40625 75.984375 
L 18.40625 0 
L 9.421875 0 
z
" id="BitstreamVeraSans-Roman-6c"/>
      <path d="M 25.390625 72.90625 
L 33.6875 72.90625 
L 8.296875 -9.28125 
L 0 -9.28125 
z
" id="BitstreamVeraSans-Roman-2f"/>
      <path d="M 9.078125 75.984375 
L 18.109375 75.984375 
L 18.109375 31.109375 
L 44.921875 54.6875 
L 56.390625 54.6875 
L 27.390625 29.109375 
L 57.625 0 
L 45.90625 0 
L 18.109375 26.703125 
L 18.109375 0 
L 9.078125 0 
z
" id="BitstreamVeraSans-Roman-6b"/>
      <path d="M 34.28125 27.484375 
Q 23.390625 27.484375 19.1875 25 
Q 14.984375 22.515625 14.984375 16.5 
Q 14.984375 11.71875 18.140625 8.90625 
Q 21.296875 6.109375 26.703125 6.109375 
Q 34.1875 6.109375 38.703125 11.40625 
Q 43.21875 16.703125 43.21875 25.484375 
L 43.21875 27.484375 
z
M 52.203125 31.203125 
L 52.203125 0 
L 43.21875 0 
L 43.21875 8.296875 
Q 40.140625 3.328125 35.546875 0.953125 
Q 30.953125 -1.421875 24.3125 -1.421875 
Q 15.921875 -1.421875 10.953125 3.296875 
Q 6 8.015625 6 15.921875 
Q 6 25.140625 12.171875 29.828125 
Q 18.359375 34.515625 30.609375 34.515625 
L 43.21875 34.515625 
L 43.21875 35.40625 
Q 43.21875 41.609375 39.140625 45 
Q 35.0625 48.390625 27.6875 48.390625 
Q 23 48.390625 18.546875 47.265625 
Q 14.109375 46.140625 10.015625 43.890625 
L 10.015625 52.203125 
Q 14.9375 54.109375 19.578125 55.046875 
Q 24.21875 56 28.609375 56 
Q 40.484375 56 46.34375 49.84375 
Q 52.203125 43.703125 52.203125 31.203125 
" id="BitstreamVeraSans-Roman-61"/>
      <path d="M 48.78125 52.59375 
L 48.78125 44.1875 
Q 44.96875 46.296875 41.140625 47.34375 
Q 37.3125 48.390625 33.40625 48.390625 
Q 24.65625 48.390625 19.8125 42.84375 
Q 14.984375 37.3125 14.984375 27.296875 
Q 14.984375 17.28125 19.8125 11.734375 
Q 24.65625 6.203125 33.40625 6.203125 
Q 37.3125 6.203125 41.140625 7.25 
Q 44.96875 8.296875 48.78125 10.40625 
L 48.78125 2.09375 
Q 45.015625 0.34375 40.984375 -0.53125 
Q 36.96875 -1.421875 32.421875 -1.421875 
Q 20.0625 -1.421875 12.78125 6.34375 
Q 5.515625 14.109375 5.515625 27.296875 
Q 5.515625 40.671875 12.859375 48.328125 
Q 20.21875 56 33.015625 56 
Q 37.15625 56 41.109375 55.140625 
Q 45.0625 54.296875 48.78125 52.59375 
" id="BitstreamVeraSans-Roman-63"/>
      <path d="M 52 44.1875 
Q 55.375 50.25 60.0625 53.125 
Q 64.75 56 71.09375 56 
Q 79.640625 56 84.28125 50.015625 
Q 88.921875 44.046875 88.921875 33.015625 
L 88.921875 0 
L 79.890625 0 
L 79.890625 32.71875 
Q 79.890625 40.578125 77.09375 44.375 
Q 74.3125 48.1875 68.609375 48.1875 
Q 61.625 48.1875 57.5625 43.546875 
Q 53.515625 38.921875 53.515625 30.90625 
L 53.515625 0 
L 44.484375 0 
L 44.484375 32.71875 
Q 44.484375 40.625 41.703125 44.40625 
Q 38.921875 48.1875 33.109375 48.1875 
Q 26.21875 48.1875 22.15625 43.53125 
Q 18.109375 38.875 18.109375 30.90625 
L 18.109375 0 
L 9.078125 0 
L 9.078125 54.6875 
L 18.109375 54.6875 
L 18.109375 46.1875 
Q 21.1875 51.21875 25.484375 53.609375 
Q 29.78125 56 35.6875 56 
Q 41.65625 56 45.828125 52.96875 
Q 50 49.953125 52 44.1875 
" id="BitstreamVeraSans-Roman-6d"/>
      <path d="M 30.609375 48.390625 
Q 23.390625 48.390625 19.1875 42.75 
Q 14.984375 37.109375 14.984375 27.296875 
Q 14.984375 17.484375 19.15625 11.84375 
Q 23.34375 6.203125 30.609375 6.203125 
Q 37.796875 6.203125 41.984375 11.859375 
Q 46.1875 17.53125 46.1875 27.296875 
Q 46.1875 37.015625 41.984375 42.703125 
Q 37.796875 48.390625 30.609375 48.390625 
M 30.609375 56 
Q 42.328125 56 49.015625 48.375 
Q 55.71875 40.765625 55.71875 27.296875 
Q 55.71875 13.875 49.015625 6.21875 
Q 42.328125 -1.421875 30.609375 -1.421875 
Q 18.84375 -1.421875 12.171875 6.21875 
Q 5.515625 13.875 5.515625 27.296875 
Q 5.515625 40.765625 12.171875 48.375 
Q 18.84375 56 30.609375 56 
" id="BitstreamVeraSans-Roman-6f"/>
     </defs>
     <g transform="translate(52.869375 241.3209375)rotate(-90.0)scale(0.12 -0.12)">
      <use xlink:href="#BitstreamVeraSans-Roman-6b"/>
      <use x="57.91015625" xlink:href="#BitstreamVeraSans-Roman-63"/>
      <use x="112.890625" xlink:href="#BitstreamVeraSans-Roman-61"/>
      <use x="174.169921875" xlink:href="#BitstreamVeraSans-Roman-6c"/>
      <use x="201.953125" xlink:href="#BitstreamVeraSans-Roman-2f"/>
      <use x="235.64453125" xlink:href="#BitstreamVeraSans-Roman-6d"/>
      <use x="333.056640625" xlink:href="#BitstreamVeraSans-Roman-6f"/>
      <use x="394.23828125" xlink:href="#BitstreamVeraSans-Roman-6c"/>
     </g>
    </g>
   </g>
   <g id="text_19">
    <!-- O1-C1-C2-H4 -->
    <defs>
     <path d="M 4.890625 31.390625 
L 31.203125 31.390625 
L 31.203125 23.390625 
L 4.890625 23.390625 
z
" id="BitstreamVeraSans-Roman-2d"/>
     <path d="M 64.40625 67.28125 
L 64.40625 56.890625 
Q 59.421875 61.53125 53.78125 63.8125 
Q 48.140625 66.109375 41.796875 66.109375 
Q 29.296875 66.109375 22.65625 58.46875 
Q 16.015625 50.828125 16.015625 36.375 
Q 16.015625 21.96875 22.65625 14.328125 
Q 29.296875 6.6875 41.796875 6.6875 
Q 48.140625 6.6875 53.78125 8.984375 
Q 59.421875 11.28125 64.40625 15.921875 
L 64.40625 5.609375 
Q 59.234375 2.09375 53.4375 0.328125 
Q 47.65625 -1.421875 41.21875 -1.421875 
Q 24.65625 -1.421875 15.125 8.703125 
Q 5.609375 18.84375 5.609375 36.375 
Q 5.609375 53.953125 15.125 64.078125 
Q 24.65625 74.21875 41.21875 74.21875 
Q 47.75 74.21875 53.53125 72.484375 
Q 59.328125 70.75 64.40625 67.28125 
" id="BitstreamVeraSans-Roman-43"/>
     <path d="M 39.40625 66.21875 
Q 28.65625 66.21875 22.328125 58.203125 
Q 16.015625 50.203125 16.015625 36.375 
Q 16.015625 22.609375 22.328125 14.59375 
Q 28.65625 6.59375 39.40625 6.59375 
Q 50.140625 6.59375 56.421875 14.59375 
Q 62.703125 22.609375 62.703125 36.375 
Q 62.703125 50.203125 56.421875 58.203125 
Q 50.140625 66.21875 39.40625 66.21875 
M 39.40625 74.21875 
Q 54.734375 74.21875 63.90625 63.9375 
Q 73.09375 53.65625 73.09375 36.375 
Q 73.09375 19.140625 63.90625 8.859375 
Q 54.734375 -1.421875 39.40625 -1.421875 
Q 24.03125 -1.421875 14.8125 8.828125 
Q 5.609375 19.09375 5.609375 36.375 
Q 5.609375 53.65625 14.8125 63.9375 
Q 24.03125 74.21875 39.40625 74.21875 
" id="BitstreamVeraSans-Roman-4f"/>
     <path d="M 9.8125 72.90625 
L 19.671875 72.90625 
L 19.671875 43.015625 
L 55.515625 43.015625 
L 55.515625 72.90625 
L 65.375 72.90625 
L 65.375 0 
L 55.515625 0 
L 55.515625 34.71875 
L 19.671875 34.71875 
L 19.671875 0 
L 9.8125 0 
z
" id="BitstreamVeraSans-Roman-48"/>
    </defs>
    <g transform="translate(247.9455 38.2)scale(0.144 -0.144)">
     <use xlink:href="#BitstreamVeraSans-Roman-4f"/>
     <use x="78.7109375" xlink:href="#BitstreamVeraSans-Roman-31"/>
     <use x="142.333984375" xlink:href="#BitstreamVeraSans-Roman-2d"/>
     <use x="178.41796875" xlink:href="#BitstreamVeraSans-Roman-43"/>
     <use x="248.2421875" xlink:href="#BitstreamVeraSans-Roman-31"/>
     <use x="311.865234375" xlink:href="#BitstreamVeraSans-Roman-2d"/>
     <use x="347.94921875" xlink:href="#BitstreamVeraSans-Roman-43"/>
     <use x="417.7734375" xlink:href="#BitstreamVeraSans-Roman-32"/>
     <use x="481.396484375" xlink:href="#BitstreamVeraSans-Roman-2d"/>
     <use x="517.48046875" xlink:href="#BitstreamVeraSans-Roman-48"/>
     <use x="592.67578125" xlink:href="#BitstreamVeraSans-Roman-34"/>
    </g>
   </g>
   <g id="legend_1">
    <g id="patch_7">
     <path d="M 406.15625 108.3125 
L 514.4 108.3125 
L 514.4 47.2 
L 406.15625 47.2 
z
" style="fill:#ffffff;stroke:#000000;stroke-linejoin:miter;"/>
    </g>
    <g id="line2d_38">
     <path d="M 411.75625 53.67875 
L 422.95625 53.67875 
" style="fill:none;stroke:#ff0000;stroke-linecap:square;"/>
    </g>
    <g id="line2d_39">
     <g>
      <use style="fill:#ff0000;stroke:#000000;stroke-width:0.5;" x="411.75625" xlink:href="#m410f2833c3" y="53.67875"/>
      <use style="fill:#ff0000;stroke:#000000;stroke-width:0.5;" x="422.95625" xlink:href="#m410f2833c3" y="53.67875"/>
     </g>
    </g>
    <g id="text_20">
     <!-- QM -->
     <defs>
      <path d="M 39.40625 66.21875 
Q 28.65625 66.21875 22.328125 58.203125 
Q 16.015625 50.203125 16.015625 36.375 
Q 16.015625 22.609375 22.328125 14.59375 
Q 28.65625 6.59375 39.40625 6.59375 
Q 50.140625 6.59375 56.421875 14.59375 
Q 62.703125 22.609375 62.703125 36.375 
Q 62.703125 50.203125 56.421875 58.203125 
Q 50.140625 66.21875 39.40625 66.21875 
M 53.21875 1.3125 
L 66.21875 -12.890625 
L 54.296875 -12.890625 
L 43.5 -1.21875 
Q 41.890625 -1.3125 41.03125 -1.359375 
Q 40.1875 -1.421875 39.40625 -1.421875 
Q 24.03125 -1.421875 14.8125 8.859375 
Q 5.609375 19.140625 5.609375 36.375 
Q 5.609375 53.65625 14.8125 63.9375 
Q 24.03125 74.21875 39.40625 74.21875 
Q 54.734375 74.21875 63.90625 63.9375 
Q 73.09375 53.65625 73.09375 36.375 
Q 73.09375 23.6875 67.984375 14.640625 
Q 62.890625 5.609375 53.21875 1.3125 
" id="BitstreamVeraSans-Roman-51"/>
      <path d="M 9.8125 72.90625 
L 24.515625 72.90625 
L 43.109375 23.296875 
L 61.8125 72.90625 
L 76.515625 72.90625 
L 76.515625 0 
L 66.890625 0 
L 66.890625 64.015625 
L 48.09375 14.015625 
L 38.1875 14.015625 
L 19.390625 64.015625 
L 19.390625 0 
L 9.8125 0 
z
" id="BitstreamVeraSans-Roman-4d"/>
     </defs>
     <g transform="translate(431.75625 56.47875)scale(0.08 -0.08)">
      <use xlink:href="#BitstreamVeraSans-Roman-51"/>
      <use x="78.7109375" xlink:href="#BitstreamVeraSans-Roman-4d"/>
     </g>
    </g>
    <g id="line2d_40">
     <path d="M 411.75625 65.42125 
L 422.95625 65.42125 
" style="fill:none;stroke:#0000ff;stroke-linecap:square;"/>
    </g>
    <g id="line2d_41">
     <g>
      <use style="fill:#0000ff;stroke:#000000;stroke-width:0.5;" x="411.75625" xlink:href="#m4e196ea2e1" y="65.42125"/>
      <use style="fill:#0000ff;stroke:#000000;stroke-width:0.5;" x="422.95625" xlink:href="#m4e196ea2e1" y="65.42125"/>
     </g>
    </g>
    <g id="text_21">
     <!-- MM Original -->
     <defs>
      <path d="M 41.109375 46.296875 
Q 39.59375 47.171875 37.8125 47.578125 
Q 36.03125 48 33.890625 48 
Q 26.265625 48 22.1875 43.046875 
Q 18.109375 38.09375 18.109375 28.8125 
L 18.109375 0 
L 9.078125 0 
L 9.078125 54.6875 
L 18.109375 54.6875 
L 18.109375 46.1875 
Q 20.953125 51.171875 25.484375 53.578125 
Q 30.03125 56 36.53125 56 
Q 37.453125 56 38.578125 55.875 
Q 39.703125 55.765625 41.0625 55.515625 
z
" id="BitstreamVeraSans-Roman-72"/>
      <path id="BitstreamVeraSans-Roman-20"/>
      <path d="M 45.40625 27.984375 
Q 45.40625 37.75 41.375 43.109375 
Q 37.359375 48.484375 30.078125 48.484375 
Q 22.859375 48.484375 18.828125 43.109375 
Q 14.796875 37.75 14.796875 27.984375 
Q 14.796875 18.265625 18.828125 12.890625 
Q 22.859375 7.515625 30.078125 7.515625 
Q 37.359375 7.515625 41.375 12.890625 
Q 45.40625 18.265625 45.40625 27.984375 
M 54.390625 6.78125 
Q 54.390625 -7.171875 48.1875 -13.984375 
Q 42 -20.796875 29.203125 -20.796875 
Q 24.46875 -20.796875 20.265625 -20.09375 
Q 16.0625 -19.390625 12.109375 -17.921875 
L 12.109375 -9.1875 
Q 16.0625 -11.328125 19.921875 -12.34375 
Q 23.78125 -13.375 27.78125 -13.375 
Q 36.625 -13.375 41.015625 -8.765625 
Q 45.40625 -4.15625 45.40625 5.171875 
L 45.40625 9.625 
Q 42.625 4.78125 38.28125 2.390625 
Q 33.9375 0 27.875 0 
Q 17.828125 0 11.671875 7.65625 
Q 5.515625 15.328125 5.515625 27.984375 
Q 5.515625 40.671875 11.671875 48.328125 
Q 17.828125 56 27.875 56 
Q 33.9375 56 38.28125 53.609375 
Q 42.625 51.21875 45.40625 46.390625 
L 45.40625 54.6875 
L 54.390625 54.6875 
z
" id="BitstreamVeraSans-Roman-67"/>
      <path d="M 54.890625 33.015625 
L 54.890625 0 
L 45.90625 0 
L 45.90625 32.71875 
Q 45.90625 40.484375 42.875 44.328125 
Q 39.84375 48.1875 33.796875 48.1875 
Q 26.515625 48.1875 22.3125 43.546875 
Q 18.109375 38.921875 18.109375 30.90625 
L 18.109375 0 
L 9.078125 0 
L 9.078125 54.6875 
L 18.109375 54.6875 
L 18.109375 46.1875 
Q 21.34375 51.125 25.703125 53.5625 
Q 30.078125 56 35.796875 56 
Q 45.21875 56 50.046875 50.171875 
Q 54.890625 44.34375 54.890625 33.015625 
" id="BitstreamVeraSans-Roman-6e"/>
     </defs>
     <g transform="translate(431.75625 68.22125)scale(0.08 -0.08)">
      <use xlink:href="#BitstreamVeraSans-Roman-4d"/>
      <use x="86.279296875" xlink:href="#BitstreamVeraSans-Roman-4d"/>
      <use x="172.55859375" xlink:href="#BitstreamVeraSans-Roman-20"/>
      <use x="204.345703125" xlink:href="#BitstreamVeraSans-Roman-4f"/>
      <use x="283.056640625" xlink:href="#BitstreamVeraSans-Roman-72"/>
      <use x="324.169921875" xlink:href="#BitstreamVeraSans-Roman-69"/>
      <use x="351.953125" xlink:href="#BitstreamVeraSans-Roman-67"/>
      <use x="415.4296875" xlink:href="#BitstreamVeraSans-Roman-69"/>
      <use x="443.212890625" xlink:href="#BitstreamVeraSans-Roman-6e"/>
      <use x="506.591796875" xlink:href="#BitstreamVeraSans-Roman-61"/>
      <use x="567.87109375" xlink:href="#BitstreamVeraSans-Roman-6c"/>
     </g>
    </g>
    <g id="line2d_42">
     <path d="M 411.75625 77.16375 
L 422.95625 77.16375 
" style="fill:none;stroke:#000000;stroke-linecap:square;"/>
    </g>
    <g id="line2d_43">
     <g>
      <use style="stroke:#000000;stroke-width:0.5;" x="411.75625" xlink:href="#m00db78fc55" y="77.16375"/>
      <use style="stroke:#000000;stroke-width:0.5;" x="422.95625" xlink:href="#m00db78fc55" y="77.16375"/>
     </g>
    </g>
    <g id="text_22">
     <!-- MM With phi zeroed -->
     <defs>
      <path d="M 18.3125 70.21875 
L 18.3125 54.6875 
L 36.8125 54.6875 
L 36.8125 47.703125 
L 18.3125 47.703125 
L 18.3125 18.015625 
Q 18.3125 11.328125 20.140625 9.421875 
Q 21.96875 7.515625 27.59375 7.515625 
L 36.8125 7.515625 
L 36.8125 0 
L 27.59375 0 
Q 17.1875 0 13.234375 3.875 
Q 9.28125 7.765625 9.28125 18.015625 
L 9.28125 47.703125 
L 2.6875 47.703125 
L 2.6875 54.6875 
L 9.28125 54.6875 
L 9.28125 70.21875 
z
" id="BitstreamVeraSans-Roman-74"/>
      <path d="M 56.203125 29.59375 
L 56.203125 25.203125 
L 14.890625 25.203125 
Q 15.484375 15.921875 20.484375 11.0625 
Q 25.484375 6.203125 34.421875 6.203125 
Q 39.59375 6.203125 44.453125 7.46875 
Q 49.3125 8.734375 54.109375 11.28125 
L 54.109375 2.78125 
Q 49.265625 0.734375 44.1875 -0.34375 
Q 39.109375 -1.421875 33.890625 -1.421875 
Q 20.796875 -1.421875 13.15625 6.1875 
Q 5.515625 13.8125 5.515625 26.8125 
Q 5.515625 40.234375 12.765625 48.109375 
Q 20.015625 56 32.328125 56 
Q 43.359375 56 49.78125 48.890625 
Q 56.203125 41.796875 56.203125 29.59375 
M 47.21875 32.234375 
Q 47.125 39.59375 43.09375 43.984375 
Q 39.0625 48.390625 32.421875 48.390625 
Q 24.90625 48.390625 20.390625 44.140625 
Q 15.875 39.890625 15.1875 32.171875 
z
" id="BitstreamVeraSans-Roman-65"/>
      <path d="M 45.40625 46.390625 
L 45.40625 75.984375 
L 54.390625 75.984375 
L 54.390625 0 
L 45.40625 0 
L 45.40625 8.203125 
Q 42.578125 3.328125 38.25 0.953125 
Q 33.9375 -1.421875 27.875 -1.421875 
Q 17.96875 -1.421875 11.734375 6.484375 
Q 5.515625 14.40625 5.515625 27.296875 
Q 5.515625 40.1875 11.734375 48.09375 
Q 17.96875 56 27.875 56 
Q 33.9375 56 38.25 53.625 
Q 42.578125 51.265625 45.40625 46.390625 
M 14.796875 27.296875 
Q 14.796875 17.390625 18.875 11.75 
Q 22.953125 6.109375 30.078125 6.109375 
Q 37.203125 6.109375 41.296875 11.75 
Q 45.40625 17.390625 45.40625 27.296875 
Q 45.40625 37.203125 41.296875 42.84375 
Q 37.203125 48.484375 30.078125 48.484375 
Q 22.953125 48.484375 18.875 42.84375 
Q 14.796875 37.203125 14.796875 27.296875 
" id="BitstreamVeraSans-Roman-64"/>
      <path d="M 3.328125 72.90625 
L 13.28125 72.90625 
L 28.609375 11.28125 
L 43.890625 72.90625 
L 54.984375 72.90625 
L 70.3125 11.28125 
L 85.59375 72.90625 
L 95.609375 72.90625 
L 77.296875 0 
L 64.890625 0 
L 49.515625 63.28125 
L 33.984375 0 
L 21.578125 0 
z
" id="BitstreamVeraSans-Roman-57"/>
      <path d="M 18.109375 8.203125 
L 18.109375 -20.796875 
L 9.078125 -20.796875 
L 9.078125 54.6875 
L 18.109375 54.6875 
L 18.109375 46.390625 
Q 20.953125 51.265625 25.265625 53.625 
Q 29.59375 56 35.59375 56 
Q 45.5625 56 51.78125 48.09375 
Q 58.015625 40.1875 58.015625 27.296875 
Q 58.015625 14.40625 51.78125 6.484375 
Q 45.5625 -1.421875 35.59375 -1.421875 
Q 29.59375 -1.421875 25.265625 0.953125 
Q 20.953125 3.328125 18.109375 8.203125 
M 48.6875 27.296875 
Q 48.6875 37.203125 44.609375 42.84375 
Q 40.53125 48.484375 33.40625 48.484375 
Q 26.265625 48.484375 22.1875 42.84375 
Q 18.109375 37.203125 18.109375 27.296875 
Q 18.109375 17.390625 22.1875 11.75 
Q 26.265625 6.109375 33.40625 6.109375 
Q 40.53125 6.109375 44.609375 11.75 
Q 48.6875 17.390625 48.6875 27.296875 
" id="BitstreamVeraSans-Roman-70"/>
      <path d="M 5.515625 54.6875 
L 48.1875 54.6875 
L 48.1875 46.484375 
L 14.40625 7.171875 
L 48.1875 7.171875 
L 48.1875 0 
L 4.296875 0 
L 4.296875 8.203125 
L 38.09375 47.515625 
L 5.515625 47.515625 
z
" id="BitstreamVeraSans-Roman-7a"/>
     </defs>
     <g transform="translate(431.75625 79.96375)scale(0.08 -0.08)">
      <use xlink:href="#BitstreamVeraSans-Roman-4d"/>
      <use x="86.279296875" xlink:href="#BitstreamVeraSans-Roman-4d"/>
      <use x="172.55859375" xlink:href="#BitstreamVeraSans-Roman-20"/>
      <use x="204.345703125" xlink:href="#BitstreamVeraSans-Roman-57"/>
      <use x="303.19140625" xlink:href="#BitstreamVeraSans-Roman-69"/>
      <use x="330.974609375" xlink:href="#BitstreamVeraSans-Roman-74"/>
      <use x="370.18359375" xlink:href="#BitstreamVeraSans-Roman-68"/>
      <use x="433.5625" xlink:href="#BitstreamVeraSans-Roman-20"/>
      <use x="465.349609375" xlink:href="#BitstreamVeraSans-Roman-70"/>
      <use x="528.826171875" xlink:href="#BitstreamVeraSans-Roman-68"/>
      <use x="592.205078125" xlink:href="#BitstreamVeraSans-Roman-69"/>
      <use x="619.98828125" xlink:href="#BitstreamVeraSans-Roman-20"/>
      <use x="651.775390625" xlink:href="#BitstreamVeraSans-Roman-7a"/>
      <use x="704.265625" xlink:href="#BitstreamVeraSans-Roman-65"/>
      <use x="765.7890625" xlink:href="#BitstreamVeraSans-Roman-72"/>
      <use x="806.87109375" xlink:href="#BitstreamVeraSans-Roman-6f"/>
      <use x="868.052734375" xlink:href="#BitstreamVeraSans-Roman-65"/>
      <use x="929.576171875" xlink:href="#BitstreamVeraSans-Roman-64"/>
     </g>
    </g>
    <g id="line2d_44">
     <path d="M 411.75625 88.90625 
L 422.95625 88.90625 
" style="fill:none;stroke:#ff00ff;stroke-linecap:square;"/>
    </g>
    <g id="line2d_45">
     <g>
      <use style="fill:#ff00ff;stroke:#ff00ff;stroke-width:0.5;" x="411.75625" xlink:href="#mbc85837c8f" y="88.90625"/>
      <use style="fill:#ff00ff;stroke:#ff00ff;stroke-width:0.5;" x="422.95625" xlink:href="#mbc85837c8f" y="88.90625"/>
     </g>
    </g>
    <g id="text_23">
     <!-- QM-MM target -->
     <g transform="translate(431.75625 91.70625)scale(0.08 -0.08)">
      <use xlink:href="#BitstreamVeraSans-Roman-51"/>
      <use x="78.7109375" xlink:href="#BitstreamVeraSans-Roman-4d"/>
      <use x="164.990234375" xlink:href="#BitstreamVeraSans-Roman-2d"/>
      <use x="201.07421875" xlink:href="#BitstreamVeraSans-Roman-4d"/>
      <use x="287.353515625" xlink:href="#BitstreamVeraSans-Roman-4d"/>
      <use x="373.6328125" xlink:href="#BitstreamVeraSans-Roman-20"/>
      <use x="405.419921875" xlink:href="#BitstreamVeraSans-Roman-74"/>
      <use x="444.62890625" xlink:href="#BitstreamVeraSans-Roman-61"/>
      <use x="505.908203125" xlink:href="#BitstreamVeraSans-Roman-72"/>
      <use x="547.005859375" xlink:href="#BitstreamVeraSans-Roman-67"/>
      <use x="610.482421875" xlink:href="#BitstreamVeraSans-Roman-65"/>
      <use x="672.005859375" xlink:href="#BitstreamVeraSans-Roman-74"/>
     </g>
    </g>
    <g id="line2d_46">
     <path d="M 411.75625 100.64875 
L 422.95625 100.64875 
" style="fill:none;stroke:#008000;stroke-linecap:square;"/>
    </g>
    <g id="line2d_47">
     <g>
      <use style="fill:#008000;stroke:#000000;stroke-width:0.5;" x="411.75625" xlink:href="#mcf71390240" y="100.64875"/>
      <use style="fill:#008000;stroke:#000000;stroke-width:0.5;" x="422.95625" xlink:href="#mcf71390240" y="100.64875"/>
     </g>
    </g>
    <g id="text_24">
     <!-- MM Fitted -->
     <defs>
      <path d="M 9.8125 72.90625 
L 51.703125 72.90625 
L 51.703125 64.59375 
L 19.671875 64.59375 
L 19.671875 43.109375 
L 48.578125 43.109375 
L 48.578125 34.8125 
L 19.671875 34.8125 
L 19.671875 0 
L 9.8125 0 
z
" id="BitstreamVeraSans-Roman-46"/>
     </defs>
     <g transform="translate(431.75625 103.44875)scale(0.08 -0.08)">
      <use xlink:href="#BitstreamVeraSans-Roman-4d"/>
      <use x="86.279296875" xlink:href="#BitstreamVeraSans-Roman-4d"/>
      <use x="172.55859375" xlink:href="#BitstreamVeraSans-Roman-20"/>
      <use x="204.345703125" xlink:href="#BitstreamVeraSans-Roman-46"/>
      <use x="261.755859375" xlink:href="#BitstreamVeraSans-Roman-69"/>
      <use x="289.5390625" xlink:href="#BitstreamVeraSans-Roman-74"/>
      <use x="328.748046875" xlink:href="#BitstreamVeraSans-Roman-74"/>
      <use x="367.95703125" xlink:href="#BitstreamVeraSans-Roman-65"/>
      <use x="429.48046875" xlink:href="#BitstreamVeraSans-Roman-64"/>
     </g>
    </g>
   </g>
  </g>
 </g>
 <defs>
  <clipPath id="pfdeba7d356">
   <rect height="345.6" width="446.4" x="72.0" y="43.2"/>
  </clipPath>
 </defs>
</svg>
