<?xml version="1.0" encoding="utf-8" standalone="no"?>
<!DOCTYPE svg PUBLIC "-//W3C//DTD SVG 1.1//EN"
  "http://www.w3.org/Graphics/SVG/1.1/DTD/svg11.dtd">
<!-- Created with matplotlib (http://matplotlib.org/) -->
<svg height="432pt" version="1.1" viewBox="0 0 576 432" width="576pt" xmlns="http://www.w3.org/2000/svg" xmlns:xlink="http://www.w3.org/1999/xlink">
 <defs>
  <style type="text/css">
*{stroke-linecap:butt;stroke-linejoin:round;stroke-miterlimit:100000;}
  </style>
 </defs>
 <g id="figure_1">
  <g id="patch_1">
   <path d="M 0 432 
L 576 432 
L 576 0 
L 0 0 
z
" style="fill:#ffffff;"/>
  </g>
  <g id="axes_1">
   <g id="patch_2">
    <path d="M 72 388.8 
L 518.4 388.8 
L 518.4 43.2 
L 72 43.2 
z
" style="fill:#ffffff;"/>
   </g>
   <g id="line2d_1">
    <path clip-path="url(#pd7c79b7a94)" d="M 71.999968 266.158616 
L 84.399993 260.025333 
L 96.799982 231.58004 
L 109.199996 187.802767 
L 121.600013 139.76643 
L 134.000012 99.901603 
L 146.399997 78.787421 
L 158.800027 82.203436 
L 171.200017 109.318763 
L 183.600047 152.769742 
L 195.99998 200.806801 
L 208.400066 240.802569 
L 220.800022 262.920391 
L 233.200043 262.8495 
L 245.600049 242.968175 
L 258.00004 211.695321 
L 270.400014 181.163284 
L 282.800005 163.707518 
L 295.199989 168.091105 
L 307.599969 196.675705 
L 319.999988 244.517634 
L 332.399965 300.700977 
L 344.799997 351.407827 
L 357.199978 383.687208 
L 369.599964 388.8 
L 381.999987 364.347366 
L 394.399945 314.833269 
L 406.799934 250.63193 
L 419.199955 185.563707 
L 431.599961 133.509035 
L 443.999951 104.870384 
L 456.399974 103.943657 
L 468.799939 128.027688 
L 481.199935 168.425552 
L 493.599977 212.896492 
L 505.999964 248.79816 
" style="fill:none;stroke:#ff0000;stroke-linecap:square;"/>
    <defs>
     <path d="M 0 3 
C 0.795609 3 1.55874 2.683901 2.12132 2.12132 
C 2.683901 1.55874 3 0.795609 3 0 
C 3 -0.795609 2.683901 -1.55874 2.12132 -2.12132 
C 1.55874 -2.683901 0.795609 -3 0 -3 
C -0.795609 -3 -1.55874 -2.683901 -2.12132 -2.12132 
C -2.683901 -1.55874 -3 -0.795609 -3 0 
C -3 0.795609 -2.683901 1.55874 -2.12132 2.12132 
C -1.55874 2.683901 -0.795609 3 0 3 
z
" id="m18cf5c20d8" style="stroke:#000000;stroke-width:0.5;"/>
    </defs>
    <g clip-path="url(#pd7c79b7a94)">
     <use style="fill:#ff0000;stroke:#000000;stroke-width:0.5;" x="71.9999682176" xlink:href="#m18cf5c20d8" y="266.158616471"/>
     <use style="fill:#ff0000;stroke:#000000;stroke-width:0.5;" x="84.399992528" xlink:href="#m18cf5c20d8" y="260.025332772"/>
     <use style="fill:#ff0000;stroke:#000000;stroke-width:0.5;" x="96.7999821853" xlink:href="#m18cf5c20d8" y="231.580039784"/>
     <use style="fill:#ff0000;stroke:#000000;stroke-width:0.5;" x="109.199995891" xlink:href="#m18cf5c20d8" y="187.802766567"/>
     <use style="fill:#ff0000;stroke:#000000;stroke-width:0.5;" x="121.600013016" xlink:href="#m18cf5c20d8" y="139.766430154"/>
     <use style="fill:#ff0000;stroke:#000000;stroke-width:0.5;" x="134.000012446" xlink:href="#m18cf5c20d8" y="99.9016033558"/>
     <use style="fill:#ff0000;stroke:#000000;stroke-width:0.5;" x="146.399997178" xlink:href="#m18cf5c20d8" y="78.7874210662"/>
     <use style="fill:#ff0000;stroke:#000000;stroke-width:0.5;" x="158.800026679" xlink:href="#m18cf5c20d8" y="82.2034363185"/>
     <use style="fill:#ff0000;stroke:#000000;stroke-width:0.5;" x="171.200017403" xlink:href="#m18cf5c20d8" y="109.318763243"/>
     <use style="fill:#ff0000;stroke:#000000;stroke-width:0.5;" x="183.600047299" xlink:href="#m18cf5c20d8" y="152.769741518"/>
     <use style="fill:#ff0000;stroke:#000000;stroke-width:0.5;" x="195.999980402" xlink:href="#m18cf5c20d8" y="200.806801326"/>
     <use style="fill:#ff0000;stroke:#000000;stroke-width:0.5;" x="208.400065754" xlink:href="#m18cf5c20d8" y="240.802568734"/>
     <use style="fill:#ff0000;stroke:#000000;stroke-width:0.5;" x="220.800022284" xlink:href="#m18cf5c20d8" y="262.920390897"/>
     <use style="fill:#ff0000;stroke:#000000;stroke-width:0.5;" x="233.200043318" xlink:href="#m18cf5c20d8" y="262.849499517"/>
     <use style="fill:#ff0000;stroke:#000000;stroke-width:0.5;" x="245.60004885" xlink:href="#m18cf5c20d8" y="242.968175326"/>
     <use style="fill:#ff0000;stroke:#000000;stroke-width:0.5;" x="258.000039654" xlink:href="#m18cf5c20d8" y="211.695321377"/>
     <use style="fill:#ff0000;stroke:#000000;stroke-width:0.5;" x="270.40001422" xlink:href="#m18cf5c20d8" y="181.163284234"/>
     <use style="fill:#ff0000;stroke:#000000;stroke-width:0.5;" x="282.800004843" xlink:href="#m18cf5c20d8" y="163.707517677"/>
     <use style="fill:#ff0000;stroke:#000000;stroke-width:0.5;" x="295.199989481" xlink:href="#m18cf5c20d8" y="168.091104577"/>
     <use style="fill:#ff0000;stroke:#000000;stroke-width:0.5;" x="307.599968761" xlink:href="#m18cf5c20d8" y="196.675704771"/>
     <use style="fill:#ff0000;stroke:#000000;stroke-width:0.5;" x="319.999988329" xlink:href="#m18cf5c20d8" y="244.517634192"/>
     <use style="fill:#ff0000;stroke:#000000;stroke-width:0.5;" x="332.399964821" xlink:href="#m18cf5c20d8" y="300.700977431"/>
     <use style="fill:#ff0000;stroke:#000000;stroke-width:0.5;" x="344.799997019" xlink:href="#m18cf5c20d8" y="351.407826605"/>
     <use style="fill:#ff0000;stroke:#000000;stroke-width:0.5;" x="357.19997782" xlink:href="#m18cf5c20d8" y="383.687207789"/>
     <use style="fill:#ff0000;stroke:#000000;stroke-width:0.5;" x="369.599964313" xlink:href="#m18cf5c20d8" y="388.8"/>
     <use style="fill:#ff0000;stroke:#000000;stroke-width:0.5;" x="381.999986754" xlink:href="#m18cf5c20d8" y="364.347366212"/>
     <use style="fill:#ff0000;stroke:#000000;stroke-width:0.5;" x="394.399944717" xlink:href="#m18cf5c20d8" y="314.833269327"/>
     <use style="fill:#ff0000;stroke:#000000;stroke-width:0.5;" x="406.799933696" xlink:href="#m18cf5c20d8" y="250.631930275"/>
     <use style="fill:#ff0000;stroke:#000000;stroke-width:0.5;" x="419.199954857" xlink:href="#m18cf5c20d8" y="185.563706848"/>
     <use style="fill:#ff0000;stroke:#000000;stroke-width:0.5;" x="431.599960585" xlink:href="#m18cf5c20d8" y="133.509035136"/>
     <use style="fill:#ff0000;stroke:#000000;stroke-width:0.5;" x="443.999950578" xlink:href="#m18cf5c20d8" y="104.870384492"/>
     <use style="fill:#ff0000;stroke:#000000;stroke-width:0.5;" x="456.399973813" xlink:href="#m18cf5c20d8" y="103.943657216"/>
     <use style="fill:#ff0000;stroke:#000000;stroke-width:0.5;" x="468.799939377" xlink:href="#m18cf5c20d8" y="128.027688271"/>
     <use style="fill:#ff0000;stroke:#000000;stroke-width:0.5;" x="481.199935442" xlink:href="#m18cf5c20d8" y="168.425551677"/>
     <use style="fill:#ff0000;stroke:#000000;stroke-width:0.5;" x="493.59997706" xlink:href="#m18cf5c20d8" y="212.896492005"/>
     <use style="fill:#ff0000;stroke:#000000;stroke-width:0.5;" x="505.999963658" xlink:href="#m18cf5c20d8" y="248.798160149"/>
    </g>
   </g>
   <g id="line2d_2">
    <path clip-path="url(#pd7c79b7a94)" d="M 71.999968 372.694828 
L 84.399993 369.745483 
L 96.799982 359.446678 
L 109.199996 344.648995 
L 121.600013 329.467037 
L 134.000012 318.174021 
L 146.399997 314.06051 
L 158.800027 318.550546 
L 171.200017 330.827173 
L 183.600047 348.03935 
L 195.99998 366.044978 
L 208.400066 380.516155 
L 220.800022 388.073555 
L 233.200043 387.186739 
L 245.600049 378.562127 
L 258.00004 364.935486 
L 270.400014 350.318734 
L 282.800005 338.904111 
L 295.199989 333.92974 
L 307.599969 336.800307 
L 319.999988 346.711526 
L 332.399965 360.861834 
L 344.799997 375.213692 
L 357.199978 385.58879 
L 369.599964 388.8 
L 381.999987 383.529953 
L 394.399945 370.701069 
L 406.799934 353.245663 
L 419.199955 335.337183 
L 431.599961 321.290614 
L 443.999951 314.411423 
L 456.399974 316.141595 
L 468.799939 325.673844 
L 481.199935 340.173746 
L 493.599977 355.536748 
L 505.999964 367.478921 
" style="fill:none;stroke:#0000ff;stroke-linecap:square;"/>
    <defs>
     <path d="M 0 3 
C 0.795609 3 1.55874 2.683901 2.12132 2.12132 
C 2.683901 1.55874 3 0.795609 3 0 
C 3 -0.795609 2.683901 -1.55874 2.12132 -2.12132 
C 1.55874 -2.683901 0.795609 -3 0 -3 
C -0.795609 -3 -1.55874 -2.683901 -2.12132 -2.12132 
C -2.683901 -1.55874 -3 -0.795609 -3 0 
C -3 0.795609 -2.683901 1.55874 -2.12132 2.12132 
C -1.55874 2.683901 -0.795609 3 0 3 
z
" id="mfe2636d381" style="stroke:#000000;stroke-width:0.5;"/>
    </defs>
    <g clip-path="url(#pd7c79b7a94)">
     <use style="fill:#0000ff;stroke:#000000;stroke-width:0.5;" x="71.9999682176" xlink:href="#mfe2636d381" y="372.694827515"/>
     <use style="fill:#0000ff;stroke:#000000;stroke-width:0.5;" x="84.399992528" xlink:href="#mfe2636d381" y="369.745482517"/>
     <use style="fill:#0000ff;stroke:#000000;stroke-width:0.5;" x="96.7999821853" xlink:href="#mfe2636d381" y="359.446677664"/>
     <use style="fill:#0000ff;stroke:#000000;stroke-width:0.5;" x="109.199995891" xlink:href="#mfe2636d381" y="344.648995032"/>
     <use style="fill:#0000ff;stroke:#000000;stroke-width:0.5;" x="121.600013016" xlink:href="#mfe2636d381" y="329.467036718"/>
     <use style="fill:#0000ff;stroke:#000000;stroke-width:0.5;" x="134.000012446" xlink:href="#mfe2636d381" y="318.174020759"/>
     <use style="fill:#0000ff;stroke:#000000;stroke-width:0.5;" x="146.399997178" xlink:href="#mfe2636d381" y="314.060510167"/>
     <use style="fill:#0000ff;stroke:#000000;stroke-width:0.5;" x="158.800026679" xlink:href="#mfe2636d381" y="318.55054564"/>
     <use style="fill:#0000ff;stroke:#000000;stroke-width:0.5;" x="171.200017403" xlink:href="#mfe2636d381" y="330.827173221"/>
     <use style="fill:#0000ff;stroke:#000000;stroke-width:0.5;" x="183.600047299" xlink:href="#mfe2636d381" y="348.039350292"/>
     <use style="fill:#0000ff;stroke:#000000;stroke-width:0.5;" x="195.999980402" xlink:href="#mfe2636d381" y="366.04497828"/>
     <use style="fill:#0000ff;stroke:#000000;stroke-width:0.5;" x="208.400065754" xlink:href="#mfe2636d381" y="380.51615483"/>
     <use style="fill:#0000ff;stroke:#000000;stroke-width:0.5;" x="220.800022284" xlink:href="#mfe2636d381" y="388.073555074"/>
     <use style="fill:#0000ff;stroke:#000000;stroke-width:0.5;" x="233.200043318" xlink:href="#mfe2636d381" y="387.1867391"/>
     <use style="fill:#0000ff;stroke:#000000;stroke-width:0.5;" x="245.60004885" xlink:href="#mfe2636d381" y="378.562127278"/>
     <use style="fill:#0000ff;stroke:#000000;stroke-width:0.5;" x="258.000039654" xlink:href="#mfe2636d381" y="364.935485943"/>
     <use style="fill:#0000ff;stroke:#000000;stroke-width:0.5;" x="270.40001422" xlink:href="#mfe2636d381" y="350.318734045"/>
     <use style="fill:#0000ff;stroke:#000000;stroke-width:0.5;" x="282.800004843" xlink:href="#mfe2636d381" y="338.904110717"/>
     <use style="fill:#0000ff;stroke:#000000;stroke-width:0.5;" x="295.199989481" xlink:href="#mfe2636d381" y="333.929739688"/>
     <use style="fill:#0000ff;stroke:#000000;stroke-width:0.5;" x="307.599968761" xlink:href="#mfe2636d381" y="336.800307219"/>
     <use style="fill:#0000ff;stroke:#000000;stroke-width:0.5;" x="319.999988329" xlink:href="#mfe2636d381" y="346.711525998"/>
     <use style="fill:#0000ff;stroke:#000000;stroke-width:0.5;" x="332.399964821" xlink:href="#mfe2636d381" y="360.861834115"/>
     <use style="fill:#0000ff;stroke:#000000;stroke-width:0.5;" x="344.799997019" xlink:href="#mfe2636d381" y="375.213692063"/>
     <use style="fill:#0000ff;stroke:#000000;stroke-width:0.5;" x="357.19997782" xlink:href="#mfe2636d381" y="385.588790339"/>
     <use style="fill:#0000ff;stroke:#000000;stroke-width:0.5;" x="369.599964313" xlink:href="#mfe2636d381" y="388.8"/>
     <use style="fill:#0000ff;stroke:#000000;stroke-width:0.5;" x="381.999986754" xlink:href="#mfe2636d381" y="383.529952698"/>
     <use style="fill:#0000ff;stroke:#000000;stroke-width:0.5;" x="394.399944717" xlink:href="#mfe2636d381" y="370.701069426"/>
     <use style="fill:#0000ff;stroke:#000000;stroke-width:0.5;" x="406.799933696" xlink:href="#mfe2636d381" y="353.245663074"/>
     <use style="fill:#0000ff;stroke:#000000;stroke-width:0.5;" x="419.199954857" xlink:href="#mfe2636d381" y="335.337183472"/>
     <use style="fill:#0000ff;stroke:#000000;stroke-width:0.5;" x="431.599960585" xlink:href="#mfe2636d381" y="321.290613574"/>
     <use style="fill:#0000ff;stroke:#000000;stroke-width:0.5;" x="443.999950578" xlink:href="#mfe2636d381" y="314.411422788"/>
     <use style="fill:#0000ff;stroke:#000000;stroke-width:0.5;" x="456.399973813" xlink:href="#mfe2636d381" y="316.141595033"/>
     <use style="fill:#0000ff;stroke:#000000;stroke-width:0.5;" x="468.799939377" xlink:href="#mfe2636d381" y="325.673844372"/>
     <use style="fill:#0000ff;stroke:#000000;stroke-width:0.5;" x="481.199935442" xlink:href="#mfe2636d381" y="340.173745843"/>
     <use style="fill:#0000ff;stroke:#000000;stroke-width:0.5;" x="493.59997706" xlink:href="#mfe2636d381" y="355.536747603"/>
     <use style="fill:#0000ff;stroke:#000000;stroke-width:0.5;" x="505.999963658" xlink:href="#mfe2636d381" y="367.478921131"/>
    </g>
   </g>
   <g id="line2d_3">
    <path clip-path="url(#pd7c79b7a94)" d="M 71.999968 372.694828 
L 84.399993 370.231605 
L 96.799982 361.21163 
L 109.199996 348.142823 
L 121.600013 334.676536 
L 134.000012 324.626273 
L 146.399997 320.949604 
L 158.800027 324.953517 
L 171.200017 335.951317 
L 183.600047 351.434617 
L 195.99998 367.724578 
L 208.400066 380.952998 
L 220.800022 388.073555 
L 233.200043 387.67286 
L 245.600049 380.327079 
L 258.00004 368.429314 
L 270.400014 355.52823 
L 282.800005 345.356361 
L 295.199989 340.818833 
L 307.599969 343.203284 
L 319.999988 351.835673 
L 332.399965 364.257109 
L 344.799997 376.893293 
L 357.199978 386.025635 
L 369.599964 388.8 
L 381.999987 384.016073 
L 394.399945 372.466014 
L 406.799934 356.739485 
L 419.199955 340.546679 
L 431.599961 327.742864 
L 443.999951 321.300517 
L 456.399974 322.544568 
L 468.799939 330.797994 
L 481.199935 343.569019 
L 493.599977 357.216347 
L 505.999964 367.915764 
" style="fill:none;stroke:#000000;stroke-linecap:square;"/>
    <defs>
     <path d="M -3 3 
L 3 -3 
M -3 -3 
L 3 3 
" id="mf296442a45" style="stroke:#000000;stroke-width:0.5;"/>
    </defs>
    <g clip-path="url(#pd7c79b7a94)">
     <use style="stroke:#000000;stroke-width:0.5;" x="71.9999682176" xlink:href="#mf296442a45" y="372.69482752"/>
     <use style="stroke:#000000;stroke-width:0.5;" x="84.399992528" xlink:href="#mf296442a45" y="370.231604763"/>
     <use style="stroke:#000000;stroke-width:0.5;" x="96.7999821853" xlink:href="#mf296442a45" y="361.211630301"/>
     <use style="stroke:#000000;stroke-width:0.5;" x="109.199995891" xlink:href="#mf296442a45" y="348.14282303"/>
     <use style="stroke:#000000;stroke-width:0.5;" x="121.600013016" xlink:href="#mf296442a45" y="334.676535937"/>
     <use style="stroke:#000000;stroke-width:0.5;" x="134.000012446" xlink:href="#mf296442a45" y="324.626272656"/>
     <use style="stroke:#000000;stroke-width:0.5;" x="146.399997178" xlink:href="#mf296442a45" y="320.949604002"/>
     <use style="stroke:#000000;stroke-width:0.5;" x="158.800026679" xlink:href="#mf296442a45" y="324.953517322"/>
     <use style="stroke:#000000;stroke-width:0.5;" x="171.200017403" xlink:href="#mf296442a45" y="335.951316517"/>
     <use style="stroke:#000000;stroke-width:0.5;" x="183.600047299" xlink:href="#mf296442a45" y="351.434617019"/>
     <use style="stroke:#000000;stroke-width:0.5;" x="195.999980402" xlink:href="#mf296442a45" y="367.724577589"/>
     <use style="stroke:#000000;stroke-width:0.5;" x="208.400065754" xlink:href="#mf296442a45" y="380.95299772"/>
     <use style="stroke:#000000;stroke-width:0.5;" x="220.800022284" xlink:href="#mf296442a45" y="388.073555374"/>
     <use style="stroke:#000000;stroke-width:0.5;" x="233.200043318" xlink:href="#mf296442a45" y="387.672860175"/>
     <use style="stroke:#000000;stroke-width:0.5;" x="245.60004885" xlink:href="#mf296442a45" y="380.327078943"/>
     <use style="stroke:#000000;stroke-width:0.5;" x="258.000039654" xlink:href="#mf296442a45" y="368.429314138"/>
     <use style="stroke:#000000;stroke-width:0.5;" x="270.40001422" xlink:href="#mf296442a45" y="355.528230095"/>
     <use style="stroke:#000000;stroke-width:0.5;" x="282.800004843" xlink:href="#mf296442a45" y="345.356360926"/>
     <use style="stroke:#000000;stroke-width:0.5;" x="295.199989481" xlink:href="#mf296442a45" y="340.818833399"/>
     <use style="stroke:#000000;stroke-width:0.5;" x="307.599968761" xlink:href="#mf296442a45" y="343.203283635"/>
     <use style="stroke:#000000;stroke-width:0.5;" x="319.999988329" xlink:href="#mf296442a45" y="351.835673156"/>
     <use style="stroke:#000000;stroke-width:0.5;" x="332.399964821" xlink:href="#mf296442a45" y="364.257108994"/>
     <use style="stroke:#000000;stroke-width:0.5;" x="344.799997019" xlink:href="#mf296442a45" y="376.893292681"/>
     <use style="stroke:#000000;stroke-width:0.5;" x="357.19997782" xlink:href="#mf296442a45" y="386.025634783"/>
     <use style="stroke:#000000;stroke-width:0.5;" x="369.599964313" xlink:href="#mf296442a45" y="388.8"/>
     <use style="stroke:#000000;stroke-width:0.5;" x="381.999986754" xlink:href="#mf296442a45" y="384.016072633"/>
     <use style="stroke:#000000;stroke-width:0.5;" x="394.399944717" xlink:href="#mf296442a45" y="372.466013767"/>
     <use style="stroke:#000000;stroke-width:0.5;" x="406.799933696" xlink:href="#mf296442a45" y="356.73948524"/>
     <use style="stroke:#000000;stroke-width:0.5;" x="419.199954857" xlink:href="#mf296442a45" y="340.546678941"/>
     <use style="stroke:#000000;stroke-width:0.5;" x="431.599960585" xlink:href="#mf296442a45" y="327.742863619"/>
     <use style="stroke:#000000;stroke-width:0.5;" x="443.999950578" xlink:href="#mf296442a45" y="321.300516804"/>
     <use style="stroke:#000000;stroke-width:0.5;" x="456.399973813" xlink:href="#mf296442a45" y="322.544568367"/>
     <use style="stroke:#000000;stroke-width:0.5;" x="468.799939377" xlink:href="#mf296442a45" y="330.797993752"/>
     <use style="stroke:#000000;stroke-width:0.5;" x="481.199935442" xlink:href="#mf296442a45" y="343.569018709"/>
     <use style="stroke:#000000;stroke-width:0.5;" x="493.59997706" xlink:href="#mf296442a45" y="357.216347018"/>
     <use style="stroke:#000000;stroke-width:0.5;" x="505.999963658" xlink:href="#mf296442a45" y="367.915763774"/>
    </g>
   </g>
   <g id="line2d_4">
    <path clip-path="url(#pd7c79b7a94)" d="M 71.999968 282.263789 
L 84.399993 278.593728 
L 96.799982 259.168409 
L 109.199996 228.459944 
L 121.600013 193.889894 
L 134.000012 164.075331 
L 146.399997 146.637817 
L 158.800027 146.049919 
L 171.200017 162.167447 
L 183.600047 190.135124 
L 195.99998 221.882224 
L 208.400066 248.649571 
L 220.800022 263.646836 
L 233.200043 263.976639 
L 245.600049 251.441096 
L 258.00004 232.066007 
L 270.400014 214.435054 
L 282.800005 207.151157 
L 295.199989 216.072271 
L 307.599969 242.272421 
L 319.999988 281.481961 
L 332.399965 325.243868 
L 344.799997 363.314534 
L 357.199978 386.461573 
L 369.599964 388.8 
L 381.999987 369.131294 
L 394.399945 331.167256 
L 406.799934 282.692445 
L 419.199955 233.817028 
L 431.599961 194.566172 
L 443.999951 172.369868 
L 456.399974 170.199089 
L 468.799939 186.029695 
L 481.199935 213.656533 
L 493.599977 244.480145 
L 505.999964 269.682396 
" style="fill:none;stroke:#ff00ff;stroke-linecap:square;"/>
    <defs>
     <path d="M -3 3 
L 3 -3 
M -3 -3 
L 3 3 
" id="m0ceb511477" style="stroke:#ff00ff;stroke-width:0.5;"/>
    </defs>
    <g clip-path="url(#pd7c79b7a94)">
     <use style="fill:#ff00ff;stroke:#ff00ff;stroke-width:0.5;" x="71.9999682176" xlink:href="#m0ceb511477" y="282.263788951"/>
     <use style="fill:#ff00ff;stroke:#ff00ff;stroke-width:0.5;" x="84.399992528" xlink:href="#m0ceb511477" y="278.593728009"/>
     <use style="fill:#ff00ff;stroke:#ff00ff;stroke-width:0.5;" x="96.7999821853" xlink:href="#m0ceb511477" y="259.168409483"/>
     <use style="fill:#ff00ff;stroke:#ff00ff;stroke-width:0.5;" x="109.199995891" xlink:href="#m0ceb511477" y="228.459943538"/>
     <use style="fill:#ff00ff;stroke:#ff00ff;stroke-width:0.5;" x="121.600013016" xlink:href="#m0ceb511477" y="193.889894217"/>
     <use style="fill:#ff00ff;stroke:#ff00ff;stroke-width:0.5;" x="134.000012446" xlink:href="#m0ceb511477" y="164.0753307"/>
     <use style="fill:#ff00ff;stroke:#ff00ff;stroke-width:0.5;" x="146.399997178" xlink:href="#m0ceb511477" y="146.637817064"/>
     <use style="fill:#ff00ff;stroke:#ff00ff;stroke-width:0.5;" x="158.800026679" xlink:href="#m0ceb511477" y="146.049918996"/>
     <use style="fill:#ff00ff;stroke:#ff00ff;stroke-width:0.5;" x="171.200017403" xlink:href="#m0ceb511477" y="162.167446726"/>
     <use style="fill:#ff00ff;stroke:#ff00ff;stroke-width:0.5;" x="183.600047299" xlink:href="#m0ceb511477" y="190.135124499"/>
     <use style="fill:#ff00ff;stroke:#ff00ff;stroke-width:0.5;" x="195.999980402" xlink:href="#m0ceb511477" y="221.882223737"/>
     <use style="fill:#ff00ff;stroke:#ff00ff;stroke-width:0.5;" x="208.400065754" xlink:href="#m0ceb511477" y="248.649571014"/>
     <use style="fill:#ff00ff;stroke:#ff00ff;stroke-width:0.5;" x="220.800022284" xlink:href="#m0ceb511477" y="263.646835523"/>
     <use style="fill:#ff00ff;stroke:#ff00ff;stroke-width:0.5;" x="233.200043318" xlink:href="#m0ceb511477" y="263.976639342"/>
     <use style="fill:#ff00ff;stroke:#ff00ff;stroke-width:0.5;" x="245.60004885" xlink:href="#m0ceb511477" y="251.441096383"/>
     <use style="fill:#ff00ff;stroke:#ff00ff;stroke-width:0.5;" x="258.000039654" xlink:href="#m0ceb511477" y="232.066007239"/>
     <use style="fill:#ff00ff;stroke:#ff00ff;stroke-width:0.5;" x="270.40001422" xlink:href="#m0ceb511477" y="214.435054138"/>
     <use style="fill:#ff00ff;stroke:#ff00ff;stroke-width:0.5;" x="282.800004843" xlink:href="#m0ceb511477" y="207.151156751"/>
     <use style="fill:#ff00ff;stroke:#ff00ff;stroke-width:0.5;" x="295.199989481" xlink:href="#m0ceb511477" y="216.072271178"/>
     <use style="fill:#ff00ff;stroke:#ff00ff;stroke-width:0.5;" x="307.599968761" xlink:href="#m0ceb511477" y="242.272421135"/>
     <use style="fill:#ff00ff;stroke:#ff00ff;stroke-width:0.5;" x="319.999988329" xlink:href="#m0ceb511477" y="281.481961036"/>
     <use style="fill:#ff00ff;stroke:#ff00ff;stroke-width:0.5;" x="332.399964821" xlink:href="#m0ceb511477" y="325.243868437"/>
     <use style="fill:#ff00ff;stroke:#ff00ff;stroke-width:0.5;" x="344.799997019" xlink:href="#m0ceb511477" y="363.314533924"/>
     <use style="fill:#ff00ff;stroke:#ff00ff;stroke-width:0.5;" x="357.19997782" xlink:href="#m0ceb511477" y="386.461573006"/>
     <use style="fill:#ff00ff;stroke:#ff00ff;stroke-width:0.5;" x="369.599964313" xlink:href="#m0ceb511477" y="388.8"/>
     <use style="fill:#ff00ff;stroke:#ff00ff;stroke-width:0.5;" x="381.999986754" xlink:href="#m0ceb511477" y="369.131293579"/>
     <use style="fill:#ff00ff;stroke:#ff00ff;stroke-width:0.5;" x="394.399944717" xlink:href="#m0ceb511477" y="331.16725556"/>
     <use style="fill:#ff00ff;stroke:#ff00ff;stroke-width:0.5;" x="406.799933696" xlink:href="#m0ceb511477" y="282.692445035"/>
     <use style="fill:#ff00ff;stroke:#ff00ff;stroke-width:0.5;" x="419.199954857" xlink:href="#m0ceb511477" y="233.817027907"/>
     <use style="fill:#ff00ff;stroke:#ff00ff;stroke-width:0.5;" x="431.599960585" xlink:href="#m0ceb511477" y="194.566171517"/>
     <use style="fill:#ff00ff;stroke:#ff00ff;stroke-width:0.5;" x="443.999950578" xlink:href="#m0ceb511477" y="172.369867688"/>
     <use style="fill:#ff00ff;stroke:#ff00ff;stroke-width:0.5;" x="456.399973813" xlink:href="#m0ceb511477" y="170.199088849"/>
     <use style="fill:#ff00ff;stroke:#ff00ff;stroke-width:0.5;" x="468.799939377" xlink:href="#m0ceb511477" y="186.029694519"/>
     <use style="fill:#ff00ff;stroke:#ff00ff;stroke-width:0.5;" x="481.199935442" xlink:href="#m0ceb511477" y="213.656532968"/>
     <use style="fill:#ff00ff;stroke:#ff00ff;stroke-width:0.5;" x="493.59997706" xlink:href="#m0ceb511477" y="244.480144986"/>
     <use style="fill:#ff00ff;stroke:#ff00ff;stroke-width:0.5;" x="505.999963658" xlink:href="#m0ceb511477" y="269.682396375"/>
    </g>
   </g>
   <g id="line2d_5">
    <path clip-path="url(#pd7c79b7a94)" d="M 71.999968 328.742825 
L 84.399993 317.780321 
L 96.799982 286.245539 
L 109.199996 242.378701 
L 121.600013 197.97637 
L 134.000012 165.498043 
L 146.399997 154.765192 
L 158.800027 170.152343 
L 171.200017 209.207443 
L 183.600047 263.190038 
L 195.99998 319.400498 
L 208.400066 364.605222 
L 220.800022 388.52449 
L 233.200043 386.518738 
L 245.600049 360.795541 
L 258.00004 319.860742 
L 270.400014 276.266808 
L 282.800005 243.142599 
L 295.199989 230.423605 
L 307.599969 241.908894 
L 319.999988 274.131062 
L 332.399965 317.406442 
L 344.799997 358.713361 
L 357.199978 385.42878 
L 369.599964 388.8 
L 381.999987 366.262477 
L 394.399945 322.086175 
L 406.799934 266.266363 
L 419.199955 211.92711 
L 431.599961 171.851303 
L 443.999951 155.032633 
L 456.399974 164.29343 
L 468.799939 195.643273 
L 481.199935 239.571472 
L 493.599977 283.760003 
L 505.999964 316.327571 
" style="fill:none;stroke:#008000;stroke-linecap:square;"/>
    <defs>
     <path d="M 0 3 
C 0.795609 3 1.55874 2.683901 2.12132 2.12132 
C 2.683901 1.55874 3 0.795609 3 0 
C 3 -0.795609 2.683901 -1.55874 2.12132 -2.12132 
C 1.55874 -2.683901 0.795609 -3 0 -3 
C -0.795609 -3 -1.55874 -2.683901 -2.12132 -2.12132 
C -2.683901 -1.55874 -3 -0.795609 -3 0 
C -3 0.795609 -2.683901 1.55874 -2.12132 2.12132 
C -1.55874 2.683901 -0.795609 3 0 3 
z
" id="m2ff5bc484d" style="stroke:#000000;stroke-width:0.5;"/>
    </defs>
    <g clip-path="url(#pd7c79b7a94)">
     <use style="fill:#008000;stroke:#000000;stroke-width:0.5;" x="71.9999682176" xlink:href="#m2ff5bc484d" y="328.742825207"/>
     <use style="fill:#008000;stroke:#000000;stroke-width:0.5;" x="84.399992528" xlink:href="#m2ff5bc484d" y="317.78032095"/>
     <use style="fill:#008000;stroke:#000000;stroke-width:0.5;" x="96.7999821853" xlink:href="#m2ff5bc484d" y="286.245538875"/>
     <use style="fill:#008000;stroke:#000000;stroke-width:0.5;" x="109.199995891" xlink:href="#m2ff5bc484d" y="242.378701165"/>
     <use style="fill:#008000;stroke:#000000;stroke-width:0.5;" x="121.600013016" xlink:href="#m2ff5bc484d" y="197.976369854"/>
     <use style="fill:#008000;stroke:#000000;stroke-width:0.5;" x="134.000012446" xlink:href="#m2ff5bc484d" y="165.498043167"/>
     <use style="fill:#008000;stroke:#000000;stroke-width:0.5;" x="146.399997178" xlink:href="#m2ff5bc484d" y="154.76519214"/>
     <use style="fill:#008000;stroke:#000000;stroke-width:0.5;" x="158.800026679" xlink:href="#m2ff5bc484d" y="170.15234262"/>
     <use style="fill:#008000;stroke:#000000;stroke-width:0.5;" x="171.200017403" xlink:href="#m2ff5bc484d" y="209.207442822"/>
     <use style="fill:#008000;stroke:#000000;stroke-width:0.5;" x="183.600047299" xlink:href="#m2ff5bc484d" y="263.190037989"/>
     <use style="fill:#008000;stroke:#000000;stroke-width:0.5;" x="195.999980402" xlink:href="#m2ff5bc484d" y="319.400497743"/>
     <use style="fill:#008000;stroke:#000000;stroke-width:0.5;" x="208.400065754" xlink:href="#m2ff5bc484d" y="364.605222249"/>
     <use style="fill:#008000;stroke:#000000;stroke-width:0.5;" x="220.800022284" xlink:href="#m2ff5bc484d" y="388.524489751"/>
     <use style="fill:#008000;stroke:#000000;stroke-width:0.5;" x="233.200043318" xlink:href="#m2ff5bc484d" y="386.518738074"/>
     <use style="fill:#008000;stroke:#000000;stroke-width:0.5;" x="245.60004885" xlink:href="#m2ff5bc484d" y="360.795540898"/>
     <use style="fill:#008000;stroke:#000000;stroke-width:0.5;" x="258.000039654" xlink:href="#m2ff5bc484d" y="319.860741703"/>
     <use style="fill:#008000;stroke:#000000;stroke-width:0.5;" x="270.40001422" xlink:href="#m2ff5bc484d" y="276.266807531"/>
     <use style="fill:#008000;stroke:#000000;stroke-width:0.5;" x="282.800004843" xlink:href="#m2ff5bc484d" y="243.142599131"/>
     <use style="fill:#008000;stroke:#000000;stroke-width:0.5;" x="295.199989481" xlink:href="#m2ff5bc484d" y="230.423605282"/>
     <use style="fill:#008000;stroke:#000000;stroke-width:0.5;" x="307.599968761" xlink:href="#m2ff5bc484d" y="241.908893819"/>
     <use style="fill:#008000;stroke:#000000;stroke-width:0.5;" x="319.999988329" xlink:href="#m2ff5bc484d" y="274.131062235"/>
     <use style="fill:#008000;stroke:#000000;stroke-width:0.5;" x="332.399964821" xlink:href="#m2ff5bc484d" y="317.406442123"/>
     <use style="fill:#008000;stroke:#000000;stroke-width:0.5;" x="344.799997019" xlink:href="#m2ff5bc484d" y="358.713360552"/>
     <use style="fill:#008000;stroke:#000000;stroke-width:0.5;" x="357.19997782" xlink:href="#m2ff5bc484d" y="385.42877993"/>
     <use style="fill:#008000;stroke:#000000;stroke-width:0.5;" x="369.599964313" xlink:href="#m2ff5bc484d" y="388.8"/>
     <use style="fill:#008000;stroke:#000000;stroke-width:0.5;" x="381.999986754" xlink:href="#m2ff5bc484d" y="366.262476866"/>
     <use style="fill:#008000;stroke:#000000;stroke-width:0.5;" x="394.399944717" xlink:href="#m2ff5bc484d" y="322.086175245"/>
     <use style="fill:#008000;stroke:#000000;stroke-width:0.5;" x="406.799933696" xlink:href="#m2ff5bc484d" y="266.266362737"/>
     <use style="fill:#008000;stroke:#000000;stroke-width:0.5;" x="419.199954857" xlink:href="#m2ff5bc484d" y="211.927109643"/>
     <use style="fill:#008000;stroke:#000000;stroke-width:0.5;" x="431.599960585" xlink:href="#m2ff5bc484d" y="171.851302567"/>
     <use style="fill:#008000;stroke:#000000;stroke-width:0.5;" x="443.999950578" xlink:href="#m2ff5bc484d" y="155.032633149"/>
     <use style="fill:#008000;stroke:#000000;stroke-width:0.5;" x="456.399973813" xlink:href="#m2ff5bc484d" y="164.293430294"/>
     <use style="fill:#008000;stroke:#000000;stroke-width:0.5;" x="468.799939377" xlink:href="#m2ff5bc484d" y="195.643273372"/>
     <use style="fill:#008000;stroke:#000000;stroke-width:0.5;" x="481.199935442" xlink:href="#m2ff5bc484d" y="239.571472201"/>
     <use style="fill:#008000;stroke:#000000;stroke-width:0.5;" x="493.59997706" xlink:href="#m2ff5bc484d" y="283.760003316"/>
     <use style="fill:#008000;stroke:#000000;stroke-width:0.5;" x="505.999963658" xlink:href="#m2ff5bc484d" y="316.327570525"/>
    </g>
   </g>
   <g id="patch_3">
    <path d="M 72 388.8 
L 72 43.2 
" style="fill:none;stroke:#000000;stroke-linecap:square;stroke-linejoin:miter;"/>
   </g>
   <g id="patch_4">
    <path d="M 72 388.8 
L 518.4 388.8 
" style="fill:none;stroke:#000000;stroke-linecap:square;stroke-linejoin:miter;"/>
   </g>
   <g id="patch_5">
    <path d="M 72 43.2 
L 518.4 43.2 
" style="fill:none;stroke:#000000;stroke-linecap:square;stroke-linejoin:miter;"/>
   </g>
   <g id="patch_6">
    <path d="M 518.4 388.8 
L 518.4 43.2 
" style="fill:none;stroke:#000000;stroke-linecap:square;stroke-linejoin:miter;"/>
   </g>
   <g id="matplotlib.axis_1">
    <g id="xtick_1">
     <g id="line2d_6">
      <defs>
       <path d="M 0 0 
L 0 -4 
" id="m95848f6344" style="stroke:#000000;stroke-width:0.5;"/>
      </defs>
      <g>
       <use style="stroke:#000000;stroke-width:0.5;" x="72.0" xlink:href="#m95848f6344" y="388.8"/>
      </g>
     </g>
     <g id="line2d_7">
      <defs>
       <path d="M 0 0 
L 0 4 
" id="md3acb2a6bb" style="stroke:#000000;stroke-width:0.5;"/>
      </defs>
      <g>
       <use style="stroke:#000000;stroke-width:0.5;" x="72.0" xlink:href="#md3acb2a6bb" y="43.2"/>
      </g>
     </g>
     <g id="text_1">
      <!-- −180 -->
      <defs>
       <path d="M 31.78125 66.40625 
Q 24.171875 66.40625 20.328125 58.90625 
Q 16.5 51.421875 16.5 36.375 
Q 16.5 21.390625 20.328125 13.890625 
Q 24.171875 6.390625 31.78125 6.390625 
Q 39.453125 6.390625 43.28125 13.890625 
Q 47.125 21.390625 47.125 36.375 
Q 47.125 51.421875 43.28125 58.90625 
Q 39.453125 66.40625 31.78125 66.40625 
M 31.78125 74.21875 
Q 44.046875 74.21875 50.515625 64.515625 
Q 56.984375 54.828125 56.984375 36.375 
Q 56.984375 17.96875 50.515625 8.265625 
Q 44.046875 -1.421875 31.78125 -1.421875 
Q 19.53125 -1.421875 13.0625 8.265625 
Q 6.59375 17.96875 6.59375 36.375 
Q 6.59375 54.828125 13.0625 64.515625 
Q 19.53125 74.21875 31.78125 74.21875 
" id="BitstreamVeraSans-Roman-30"/>
       <path d="M 10.59375 35.5 
L 73.1875 35.5 
L 73.1875 27.203125 
L 10.59375 27.203125 
z
" id="BitstreamVeraSans-Roman-2212"/>
       <path d="M 12.40625 8.296875 
L 28.515625 8.296875 
L 28.515625 63.921875 
L 10.984375 60.40625 
L 10.984375 69.390625 
L 28.421875 72.90625 
L 38.28125 72.90625 
L 38.28125 8.296875 
L 54.390625 8.296875 
L 54.390625 0 
L 12.40625 0 
z
" id="BitstreamVeraSans-Roman-31"/>
       <path d="M 31.78125 34.625 
Q 24.75 34.625 20.71875 30.859375 
Q 16.703125 27.09375 16.703125 20.515625 
Q 16.703125 13.921875 20.71875 10.15625 
Q 24.75 6.390625 31.78125 6.390625 
Q 38.8125 6.390625 42.859375 10.171875 
Q 46.921875 13.96875 46.921875 20.515625 
Q 46.921875 27.09375 42.890625 30.859375 
Q 38.875 34.625 31.78125 34.625 
M 21.921875 38.8125 
Q 15.578125 40.375 12.03125 44.71875 
Q 8.5 49.078125 8.5 55.328125 
Q 8.5 64.0625 14.71875 69.140625 
Q 20.953125 74.21875 31.78125 74.21875 
Q 42.671875 74.21875 48.875 69.140625 
Q 55.078125 64.0625 55.078125 55.328125 
Q 55.078125 49.078125 51.53125 44.71875 
Q 48 40.375 41.703125 38.8125 
Q 48.828125 37.15625 52.796875 32.3125 
Q 56.78125 27.484375 56.78125 20.515625 
Q 56.78125 9.90625 50.3125 4.234375 
Q 43.84375 -1.421875 31.78125 -1.421875 
Q 19.734375 -1.421875 13.25 4.234375 
Q 6.78125 9.90625 6.78125 20.515625 
Q 6.78125 27.484375 10.78125 32.3125 
Q 14.796875 37.15625 21.921875 38.8125 
M 18.3125 54.390625 
Q 18.3125 48.734375 21.84375 45.5625 
Q 25.390625 42.390625 31.78125 42.390625 
Q 38.140625 42.390625 41.71875 45.5625 
Q 45.3125 48.734375 45.3125 54.390625 
Q 45.3125 60.0625 41.71875 63.234375 
Q 38.140625 66.40625 31.78125 66.40625 
Q 25.390625 66.40625 21.84375 63.234375 
Q 18.3125 60.0625 18.3125 54.390625 
" id="BitstreamVeraSans-Roman-38"/>
      </defs>
      <g transform="translate(55.5196875 401.918125)scale(0.12 -0.12)">
       <use xlink:href="#BitstreamVeraSans-Roman-2212"/>
       <use x="83.7890625" xlink:href="#BitstreamVeraSans-Roman-31"/>
       <use x="147.412109375" xlink:href="#BitstreamVeraSans-Roman-38"/>
       <use x="211.03515625" xlink:href="#BitstreamVeraSans-Roman-30"/>
      </g>
     </g>
    </g>
    <g id="xtick_2">
     <g id="line2d_8">
      <g>
       <use style="stroke:#000000;stroke-width:0.5;" x="127.8" xlink:href="#m95848f6344" y="388.8"/>
      </g>
     </g>
     <g id="line2d_9">
      <g>
       <use style="stroke:#000000;stroke-width:0.5;" x="127.8" xlink:href="#md3acb2a6bb" y="43.2"/>
      </g>
     </g>
     <g id="text_2">
      <!-- −135 -->
      <defs>
       <path d="M 10.796875 72.90625 
L 49.515625 72.90625 
L 49.515625 64.59375 
L 19.828125 64.59375 
L 19.828125 46.734375 
Q 21.96875 47.46875 24.109375 47.828125 
Q 26.265625 48.1875 28.421875 48.1875 
Q 40.625 48.1875 47.75 41.5 
Q 54.890625 34.8125 54.890625 23.390625 
Q 54.890625 11.625 47.5625 5.09375 
Q 40.234375 -1.421875 26.90625 -1.421875 
Q 22.3125 -1.421875 17.546875 -0.640625 
Q 12.796875 0.140625 7.71875 1.703125 
L 7.71875 11.625 
Q 12.109375 9.234375 16.796875 8.0625 
Q 21.484375 6.890625 26.703125 6.890625 
Q 35.15625 6.890625 40.078125 11.328125 
Q 45.015625 15.765625 45.015625 23.390625 
Q 45.015625 31 40.078125 35.4375 
Q 35.15625 39.890625 26.703125 39.890625 
Q 22.75 39.890625 18.8125 39.015625 
Q 14.890625 38.140625 10.796875 36.28125 
z
" id="BitstreamVeraSans-Roman-35"/>
       <path d="M 40.578125 39.3125 
Q 47.65625 37.796875 51.625 33 
Q 55.609375 28.21875 55.609375 21.1875 
Q 55.609375 10.40625 48.1875 4.484375 
Q 40.765625 -1.421875 27.09375 -1.421875 
Q 22.515625 -1.421875 17.65625 -0.515625 
Q 12.796875 0.390625 7.625 2.203125 
L 7.625 11.71875 
Q 11.71875 9.328125 16.59375 8.109375 
Q 21.484375 6.890625 26.8125 6.890625 
Q 36.078125 6.890625 40.9375 10.546875 
Q 45.796875 14.203125 45.796875 21.1875 
Q 45.796875 27.640625 41.28125 31.265625 
Q 36.765625 34.90625 28.71875 34.90625 
L 20.21875 34.90625 
L 20.21875 43.015625 
L 29.109375 43.015625 
Q 36.375 43.015625 40.234375 45.921875 
Q 44.09375 48.828125 44.09375 54.296875 
Q 44.09375 59.90625 40.109375 62.90625 
Q 36.140625 65.921875 28.71875 65.921875 
Q 24.65625 65.921875 20.015625 65.03125 
Q 15.375 64.15625 9.8125 62.3125 
L 9.8125 71.09375 
Q 15.4375 72.65625 20.34375 73.4375 
Q 25.25 74.21875 29.59375 74.21875 
Q 40.828125 74.21875 47.359375 69.109375 
Q 53.90625 64.015625 53.90625 55.328125 
Q 53.90625 49.265625 50.4375 45.09375 
Q 46.96875 40.921875 40.578125 39.3125 
" id="BitstreamVeraSans-Roman-33"/>
      </defs>
      <g transform="translate(111.3196875 401.918125)scale(0.12 -0.12)">
       <use xlink:href="#BitstreamVeraSans-Roman-2212"/>
       <use x="83.7890625" xlink:href="#BitstreamVeraSans-Roman-31"/>
       <use x="147.412109375" xlink:href="#BitstreamVeraSans-Roman-33"/>
       <use x="211.03515625" xlink:href="#BitstreamVeraSans-Roman-35"/>
      </g>
     </g>
    </g>
    <g id="xtick_3">
     <g id="line2d_10">
      <g>
       <use style="stroke:#000000;stroke-width:0.5;" x="183.6" xlink:href="#m95848f6344" y="388.8"/>
      </g>
     </g>
     <g id="line2d_11">
      <g>
       <use style="stroke:#000000;stroke-width:0.5;" x="183.6" xlink:href="#md3acb2a6bb" y="43.2"/>
      </g>
     </g>
     <g id="text_3">
      <!-- −90 -->
      <defs>
       <path d="M 10.984375 1.515625 
L 10.984375 10.5 
Q 14.703125 8.734375 18.5 7.8125 
Q 22.3125 6.890625 25.984375 6.890625 
Q 35.75 6.890625 40.890625 13.453125 
Q 46.046875 20.015625 46.78125 33.40625 
Q 43.953125 29.203125 39.59375 26.953125 
Q 35.25 24.703125 29.984375 24.703125 
Q 19.046875 24.703125 12.671875 31.3125 
Q 6.296875 37.9375 6.296875 49.421875 
Q 6.296875 60.640625 12.9375 67.421875 
Q 19.578125 74.21875 30.609375 74.21875 
Q 43.265625 74.21875 49.921875 64.515625 
Q 56.59375 54.828125 56.59375 36.375 
Q 56.59375 19.140625 48.40625 8.859375 
Q 40.234375 -1.421875 26.421875 -1.421875 
Q 22.703125 -1.421875 18.890625 -0.6875 
Q 15.09375 0.046875 10.984375 1.515625 
M 30.609375 32.421875 
Q 37.25 32.421875 41.125 36.953125 
Q 45.015625 41.5 45.015625 49.421875 
Q 45.015625 57.28125 41.125 61.84375 
Q 37.25 66.40625 30.609375 66.40625 
Q 23.96875 66.40625 20.09375 61.84375 
Q 16.21875 57.28125 16.21875 49.421875 
Q 16.21875 41.5 20.09375 36.953125 
Q 23.96875 32.421875 30.609375 32.421875 
" id="BitstreamVeraSans-Roman-39"/>
      </defs>
      <g transform="translate(170.9371875 401.918125)scale(0.12 -0.12)">
       <use xlink:href="#BitstreamVeraSans-Roman-2212"/>
       <use x="83.7890625" xlink:href="#BitstreamVeraSans-Roman-39"/>
       <use x="147.412109375" xlink:href="#BitstreamVeraSans-Roman-30"/>
      </g>
     </g>
    </g>
    <g id="xtick_4">
     <g id="line2d_12">
      <g>
       <use style="stroke:#000000;stroke-width:0.5;" x="239.4" xlink:href="#m95848f6344" y="388.8"/>
      </g>
     </g>
     <g id="line2d_13">
      <g>
       <use style="stroke:#000000;stroke-width:0.5;" x="239.4" xlink:href="#md3acb2a6bb" y="43.2"/>
      </g>
     </g>
     <g id="text_4">
      <!-- −45 -->
      <defs>
       <path d="M 37.796875 64.3125 
L 12.890625 25.390625 
L 37.796875 25.390625 
z
M 35.203125 72.90625 
L 47.609375 72.90625 
L 47.609375 25.390625 
L 58.015625 25.390625 
L 58.015625 17.1875 
L 47.609375 17.1875 
L 47.609375 0 
L 37.796875 0 
L 37.796875 17.1875 
L 4.890625 17.1875 
L 4.890625 26.703125 
z
" id="BitstreamVeraSans-Roman-34"/>
      </defs>
      <g transform="translate(226.7371875 401.918125)scale(0.12 -0.12)">
       <use xlink:href="#BitstreamVeraSans-Roman-2212"/>
       <use x="83.7890625" xlink:href="#BitstreamVeraSans-Roman-34"/>
       <use x="147.412109375" xlink:href="#BitstreamVeraSans-Roman-35"/>
      </g>
     </g>
    </g>
    <g id="xtick_5">
     <g id="line2d_14">
      <g>
       <use style="stroke:#000000;stroke-width:0.5;" x="295.2" xlink:href="#m95848f6344" y="388.8"/>
      </g>
     </g>
     <g id="line2d_15">
      <g>
       <use style="stroke:#000000;stroke-width:0.5;" x="295.2" xlink:href="#md3acb2a6bb" y="43.2"/>
      </g>
     </g>
     <g id="text_5">
      <!-- 0 -->
      <g transform="translate(291.3825 401.918125)scale(0.12 -0.12)">
       <use xlink:href="#BitstreamVeraSans-Roman-30"/>
      </g>
     </g>
    </g>
    <g id="xtick_6">
     <g id="line2d_16">
      <g>
       <use style="stroke:#000000;stroke-width:0.5;" x="351.0" xlink:href="#m95848f6344" y="388.8"/>
      </g>
     </g>
     <g id="line2d_17">
      <g>
       <use style="stroke:#000000;stroke-width:0.5;" x="351.0" xlink:href="#md3acb2a6bb" y="43.2"/>
      </g>
     </g>
     <g id="text_6">
      <!-- 45 -->
      <g transform="translate(343.365 401.918125)scale(0.12 -0.12)">
       <use xlink:href="#BitstreamVeraSans-Roman-34"/>
       <use x="63.623046875" xlink:href="#BitstreamVeraSans-Roman-35"/>
      </g>
     </g>
    </g>
    <g id="xtick_7">
     <g id="line2d_18">
      <g>
       <use style="stroke:#000000;stroke-width:0.5;" x="406.8" xlink:href="#m95848f6344" y="388.8"/>
      </g>
     </g>
     <g id="line2d_19">
      <g>
       <use style="stroke:#000000;stroke-width:0.5;" x="406.8" xlink:href="#md3acb2a6bb" y="43.2"/>
      </g>
     </g>
     <g id="text_7">
      <!-- 90 -->
      <g transform="translate(399.165 401.918125)scale(0.12 -0.12)">
       <use xlink:href="#BitstreamVeraSans-Roman-39"/>
       <use x="63.623046875" xlink:href="#BitstreamVeraSans-Roman-30"/>
      </g>
     </g>
    </g>
    <g id="xtick_8">
     <g id="line2d_20">
      <g>
       <use style="stroke:#000000;stroke-width:0.5;" x="462.6" xlink:href="#m95848f6344" y="388.8"/>
      </g>
     </g>
     <g id="line2d_21">
      <g>
       <use style="stroke:#000000;stroke-width:0.5;" x="462.6" xlink:href="#md3acb2a6bb" y="43.2"/>
      </g>
     </g>
     <g id="text_8">
      <!-- 135 -->
      <g transform="translate(451.1475 401.918125)scale(0.12 -0.12)">
       <use xlink:href="#BitstreamVeraSans-Roman-31"/>
       <use x="63.623046875" xlink:href="#BitstreamVeraSans-Roman-33"/>
       <use x="127.24609375" xlink:href="#BitstreamVeraSans-Roman-35"/>
      </g>
     </g>
    </g>
    <g id="xtick_9">
     <g id="line2d_22">
      <g>
       <use style="stroke:#000000;stroke-width:0.5;" x="518.4" xlink:href="#m95848f6344" y="388.8"/>
      </g>
     </g>
     <g id="line2d_23">
      <g>
       <use style="stroke:#000000;stroke-width:0.5;" x="518.4" xlink:href="#md3acb2a6bb" y="43.2"/>
      </g>
     </g>
     <g id="text_9">
      <!-- 180 -->
      <g transform="translate(506.9475 401.918125)scale(0.12 -0.12)">
       <use xlink:href="#BitstreamVeraSans-Roman-31"/>
       <use x="63.623046875" xlink:href="#BitstreamVeraSans-Roman-38"/>
       <use x="127.24609375" xlink:href="#BitstreamVeraSans-Roman-30"/>
      </g>
     </g>
    </g>
    <g id="text_10">
     <!-- Phi -->
     <defs>
      <path d="M 19.671875 64.796875 
L 19.671875 37.40625 
L 32.078125 37.40625 
Q 38.96875 37.40625 42.71875 40.96875 
Q 46.484375 44.53125 46.484375 51.125 
Q 46.484375 57.671875 42.71875 61.234375 
Q 38.96875 64.796875 32.078125 64.796875 
z
M 9.8125 72.90625 
L 32.078125 72.90625 
Q 44.34375 72.90625 50.609375 67.359375 
Q 56.890625 61.8125 56.890625 51.125 
Q 56.890625 40.328125 50.609375 34.8125 
Q 44.34375 29.296875 32.078125 29.296875 
L 19.671875 29.296875 
L 19.671875 0 
L 9.8125 0 
z
" id="BitstreamVeraSans-Roman-50"/>
      <path d="M 9.421875 54.6875 
L 18.40625 54.6875 
L 18.40625 0 
L 9.421875 0 
z
M 9.421875 75.984375 
L 18.40625 75.984375 
L 18.40625 64.59375 
L 9.421875 64.59375 
z
" id="BitstreamVeraSans-Roman-69"/>
      <path d="M 54.890625 33.015625 
L 54.890625 0 
L 45.90625 0 
L 45.90625 32.71875 
Q 45.90625 40.484375 42.875 44.328125 
Q 39.84375 48.1875 33.796875 48.1875 
Q 26.515625 48.1875 22.3125 43.546875 
Q 18.109375 38.921875 18.109375 30.90625 
L 18.109375 0 
L 9.078125 0 
L 9.078125 75.984375 
L 18.109375 75.984375 
L 18.109375 46.1875 
Q 21.34375 51.125 25.703125 53.5625 
Q 30.078125 56 35.796875 56 
Q 45.21875 56 50.046875 50.171875 
Q 54.890625 44.34375 54.890625 33.015625 
" id="BitstreamVeraSans-Roman-68"/>
     </defs>
     <g transform="translate(286.1128125 418.531875)scale(0.12 -0.12)">
      <use xlink:href="#BitstreamVeraSans-Roman-50"/>
      <use x="60.302734375" xlink:href="#BitstreamVeraSans-Roman-68"/>
      <use x="123.681640625" xlink:href="#BitstreamVeraSans-Roman-69"/>
     </g>
    </g>
   </g>
   <g id="matplotlib.axis_2">
    <g id="ytick_1">
     <g id="line2d_24">
      <defs>
       <path d="M 0 0 
L 4 0 
" id="m60edbbf9c6" style="stroke:#000000;stroke-width:0.5;"/>
      </defs>
      <g>
       <use style="stroke:#000000;stroke-width:0.5;" x="72.0" xlink:href="#m60edbbf9c6" y="388.8"/>
      </g>
     </g>
     <g id="line2d_25">
      <defs>
       <path d="M 0 0 
L -4 0 
" id="m7532c38610" style="stroke:#000000;stroke-width:0.5;"/>
      </defs>
      <g>
       <use style="stroke:#000000;stroke-width:0.5;" x="518.4" xlink:href="#m7532c38610" y="388.8"/>
      </g>
     </g>
     <g id="text_11">
      <!-- 0.0 -->
      <defs>
       <path d="M 10.6875 12.40625 
L 21 12.40625 
L 21 0 
L 10.6875 0 
z
" id="BitstreamVeraSans-Roman-2e"/>
      </defs>
      <g transform="translate(48.91625 392.11125)scale(0.12 -0.12)">
       <use xlink:href="#BitstreamVeraSans-Roman-30"/>
       <use x="63.623046875" xlink:href="#BitstreamVeraSans-Roman-2e"/>
       <use x="95.41015625" xlink:href="#BitstreamVeraSans-Roman-30"/>
      </g>
     </g>
    </g>
    <g id="ytick_2">
     <g id="line2d_26">
      <g>
       <use style="stroke:#000000;stroke-width:0.5;" x="72.0" xlink:href="#m60edbbf9c6" y="345.6"/>
      </g>
     </g>
     <g id="line2d_27">
      <g>
       <use style="stroke:#000000;stroke-width:0.5;" x="518.4" xlink:href="#m7532c38610" y="345.6"/>
      </g>
     </g>
     <g id="text_12">
      <!-- 0.5 -->
      <g transform="translate(48.91625 348.91125)scale(0.12 -0.12)">
       <use xlink:href="#BitstreamVeraSans-Roman-30"/>
       <use x="63.623046875" xlink:href="#BitstreamVeraSans-Roman-2e"/>
       <use x="95.41015625" xlink:href="#BitstreamVeraSans-Roman-35"/>
      </g>
     </g>
    </g>
    <g id="ytick_3">
     <g id="line2d_28">
      <g>
       <use style="stroke:#000000;stroke-width:0.5;" x="72.0" xlink:href="#m60edbbf9c6" y="302.4"/>
      </g>
     </g>
     <g id="line2d_29">
      <g>
       <use style="stroke:#000000;stroke-width:0.5;" x="518.4" xlink:href="#m7532c38610" y="302.4"/>
      </g>
     </g>
     <g id="text_13">
      <!-- 1.0 -->
      <g transform="translate(48.91625 305.71125)scale(0.12 -0.12)">
       <use xlink:href="#BitstreamVeraSans-Roman-31"/>
       <use x="63.623046875" xlink:href="#BitstreamVeraSans-Roman-2e"/>
       <use x="95.41015625" xlink:href="#BitstreamVeraSans-Roman-30"/>
      </g>
     </g>
    </g>
    <g id="ytick_4">
     <g id="line2d_30">
      <g>
       <use style="stroke:#000000;stroke-width:0.5;" x="72.0" xlink:href="#m60edbbf9c6" y="259.2"/>
      </g>
     </g>
     <g id="line2d_31">
      <g>
       <use style="stroke:#000000;stroke-width:0.5;" x="518.4" xlink:href="#m7532c38610" y="259.2"/>
      </g>
     </g>
     <g id="text_14">
      <!-- 1.5 -->
      <g transform="translate(48.91625 262.51125)scale(0.12 -0.12)">
       <use xlink:href="#BitstreamVeraSans-Roman-31"/>
       <use x="63.623046875" xlink:href="#BitstreamVeraSans-Roman-2e"/>
       <use x="95.41015625" xlink:href="#BitstreamVeraSans-Roman-35"/>
      </g>
     </g>
    </g>
    <g id="ytick_5">
     <g id="line2d_32">
      <g>
       <use style="stroke:#000000;stroke-width:0.5;" x="72.0" xlink:href="#m60edbbf9c6" y="216.0"/>
      </g>
     </g>
     <g id="line2d_33">
      <g>
       <use style="stroke:#000000;stroke-width:0.5;" x="518.4" xlink:href="#m7532c38610" y="216.0"/>
      </g>
     </g>
     <g id="text_15">
      <!-- 2.0 -->
      <defs>
       <path d="M 19.1875 8.296875 
L 53.609375 8.296875 
L 53.609375 0 
L 7.328125 0 
L 7.328125 8.296875 
Q 12.9375 14.109375 22.625 23.890625 
Q 32.328125 33.6875 34.8125 36.53125 
Q 39.546875 41.84375 41.421875 45.53125 
Q 43.3125 49.21875 43.3125 52.78125 
Q 43.3125 58.59375 39.234375 62.25 
Q 35.15625 65.921875 28.609375 65.921875 
Q 23.96875 65.921875 18.8125 64.3125 
Q 13.671875 62.703125 7.8125 59.421875 
L 7.8125 69.390625 
Q 13.765625 71.78125 18.9375 73 
Q 24.125 74.21875 28.421875 74.21875 
Q 39.75 74.21875 46.484375 68.546875 
Q 53.21875 62.890625 53.21875 53.421875 
Q 53.21875 48.921875 51.53125 44.890625 
Q 49.859375 40.875 45.40625 35.40625 
Q 44.1875 33.984375 37.640625 27.21875 
Q 31.109375 20.453125 19.1875 8.296875 
" id="BitstreamVeraSans-Roman-32"/>
      </defs>
      <g transform="translate(48.91625 219.31125)scale(0.12 -0.12)">
       <use xlink:href="#BitstreamVeraSans-Roman-32"/>
       <use x="63.623046875" xlink:href="#BitstreamVeraSans-Roman-2e"/>
       <use x="95.41015625" xlink:href="#BitstreamVeraSans-Roman-30"/>
      </g>
     </g>
    </g>
    <g id="ytick_6">
     <g id="line2d_34">
      <g>
       <use style="stroke:#000000;stroke-width:0.5;" x="72.0" xlink:href="#m60edbbf9c6" y="172.8"/>
      </g>
     </g>
     <g id="line2d_35">
      <g>
       <use style="stroke:#000000;stroke-width:0.5;" x="518.4" xlink:href="#m7532c38610" y="172.8"/>
      </g>
     </g>
     <g id="text_16">
      <!-- 2.5 -->
      <g transform="translate(48.91625 176.11125)scale(0.12 -0.12)">
       <use xlink:href="#BitstreamVeraSans-Roman-32"/>
       <use x="63.623046875" xlink:href="#BitstreamVeraSans-Roman-2e"/>
       <use x="95.41015625" xlink:href="#BitstreamVeraSans-Roman-35"/>
      </g>
     </g>
    </g>
    <g id="ytick_7">
     <g id="line2d_36">
      <g>
       <use style="stroke:#000000;stroke-width:0.5;" x="72.0" xlink:href="#m60edbbf9c6" y="129.6"/>
      </g>
     </g>
     <g id="line2d_37">
      <g>
       <use style="stroke:#000000;stroke-width:0.5;" x="518.4" xlink:href="#m7532c38610" y="129.6"/>
      </g>
     </g>
     <g id="text_17">
      <!-- 3.0 -->
      <g transform="translate(48.91625 132.91125)scale(0.12 -0.12)">
       <use xlink:href="#BitstreamVeraSans-Roman-33"/>
       <use x="63.623046875" xlink:href="#BitstreamVeraSans-Roman-2e"/>
       <use x="95.41015625" xlink:href="#BitstreamVeraSans-Roman-30"/>
      </g>
     </g>
    </g>
    <g id="ytick_8">
     <g id="line2d_38">
      <g>
       <use style="stroke:#000000;stroke-width:0.5;" x="72.0" xlink:href="#m60edbbf9c6" y="86.4"/>
      </g>
     </g>
     <g id="line2d_39">
      <g>
       <use style="stroke:#000000;stroke-width:0.5;" x="518.4" xlink:href="#m7532c38610" y="86.4"/>
      </g>
     </g>
     <g id="text_18">
      <!-- 3.5 -->
      <g transform="translate(48.91625 89.71125)scale(0.12 -0.12)">
       <use xlink:href="#BitstreamVeraSans-Roman-33"/>
       <use x="63.623046875" xlink:href="#BitstreamVeraSans-Roman-2e"/>
       <use x="95.41015625" xlink:href="#BitstreamVeraSans-Roman-35"/>
      </g>
     </g>
    </g>
    <g id="ytick_9">
     <g id="line2d_40">
      <g>
       <use style="stroke:#000000;stroke-width:0.5;" x="72.0" xlink:href="#m60edbbf9c6" y="43.2"/>
      </g>
     </g>
     <g id="line2d_41">
      <g>
       <use style="stroke:#000000;stroke-width:0.5;" x="518.4" xlink:href="#m7532c38610" y="43.2"/>
      </g>
     </g>
     <g id="text_19">
      <!-- 4.0 -->
      <g transform="translate(48.91625 46.51125)scale(0.12 -0.12)">
       <use xlink:href="#BitstreamVeraSans-Roman-34"/>
       <use x="63.623046875" xlink:href="#BitstreamVeraSans-Roman-2e"/>
       <use x="95.41015625" xlink:href="#BitstreamVeraSans-Roman-30"/>
      </g>
     </g>
    </g>
    <g id="text_20">
     <!-- kcal/mol -->
     <defs>
      <path d="M 48.78125 52.59375 
L 48.78125 44.1875 
Q 44.96875 46.296875 41.140625 47.34375 
Q 37.3125 48.390625 33.40625 48.390625 
Q 24.65625 48.390625 19.8125 42.84375 
Q 14.984375 37.3125 14.984375 27.296875 
Q 14.984375 17.28125 19.8125 11.734375 
Q 24.65625 6.203125 33.40625 6.203125 
Q 37.3125 6.203125 41.140625 7.25 
Q 44.96875 8.296875 48.78125 10.40625 
L 48.78125 2.09375 
Q 45.015625 0.34375 40.984375 -0.53125 
Q 36.96875 -1.421875 32.421875 -1.421875 
Q 20.0625 -1.421875 12.78125 6.34375 
Q 5.515625 14.109375 5.515625 27.296875 
Q 5.515625 40.671875 12.859375 48.328125 
Q 20.21875 56 33.015625 56 
Q 37.15625 56 41.109375 55.140625 
Q 45.0625 54.296875 48.78125 52.59375 
" id="BitstreamVeraSans-Roman-63"/>
      <path d="M 52 44.1875 
Q 55.375 50.25 60.0625 53.125 
Q 64.75 56 71.09375 56 
Q 79.640625 56 84.28125 50.015625 
Q 88.921875 44.046875 88.921875 33.015625 
L 88.921875 0 
L 79.890625 0 
L 79.890625 32.71875 
Q 79.890625 40.578125 77.09375 44.375 
Q 74.3125 48.1875 68.609375 48.1875 
Q 61.625 48.1875 57.5625 43.546875 
Q 53.515625 38.921875 53.515625 30.90625 
L 53.515625 0 
L 44.484375 0 
L 44.484375 32.71875 
Q 44.484375 40.625 41.703125 44.40625 
Q 38.921875 48.1875 33.109375 48.1875 
Q 26.21875 48.1875 22.15625 43.53125 
Q 18.109375 38.875 18.109375 30.90625 
L 18.109375 0 
L 9.078125 0 
L 9.078125 54.6875 
L 18.109375 54.6875 
L 18.109375 46.1875 
Q 21.1875 51.21875 25.484375 53.609375 
Q 29.78125 56 35.6875 56 
Q 41.65625 56 45.828125 52.96875 
Q 50 49.953125 52 44.1875 
" id="BitstreamVeraSans-Roman-6d"/>
      <path d="M 9.078125 75.984375 
L 18.109375 75.984375 
L 18.109375 31.109375 
L 44.921875 54.6875 
L 56.390625 54.6875 
L 27.390625 29.109375 
L 57.625 0 
L 45.90625 0 
L 18.109375 26.703125 
L 18.109375 0 
L 9.078125 0 
z
" id="BitstreamVeraSans-Roman-6b"/>
      <path d="M 30.609375 48.390625 
Q 23.390625 48.390625 19.1875 42.75 
Q 14.984375 37.109375 14.984375 27.296875 
Q 14.984375 17.484375 19.15625 11.84375 
Q 23.34375 6.203125 30.609375 6.203125 
Q 37.796875 6.203125 41.984375 11.859375 
Q 46.1875 17.53125 46.1875 27.296875 
Q 46.1875 37.015625 41.984375 42.703125 
Q 37.796875 48.390625 30.609375 48.390625 
M 30.609375 56 
Q 42.328125 56 49.015625 48.375 
Q 55.71875 40.765625 55.71875 27.296875 
Q 55.71875 13.875 49.015625 6.21875 
Q 42.328125 -1.421875 30.609375 -1.421875 
Q 18.84375 -1.421875 12.171875 6.21875 
Q 5.515625 13.875 5.515625 27.296875 
Q 5.515625 40.765625 12.171875 48.375 
Q 18.84375 56 30.609375 56 
" id="BitstreamVeraSans-Roman-6f"/>
      <path d="M 34.28125 27.484375 
Q 23.390625 27.484375 19.1875 25 
Q 14.984375 22.515625 14.984375 16.5 
Q 14.984375 11.71875 18.140625 8.90625 
Q 21.296875 6.109375 26.703125 6.109375 
Q 34.1875 6.109375 38.703125 11.40625 
Q 43.21875 16.703125 43.21875 25.484375 
L 43.21875 27.484375 
z
M 52.203125 31.203125 
L 52.203125 0 
L 43.21875 0 
L 43.21875 8.296875 
Q 40.140625 3.328125 35.546875 0.953125 
Q 30.953125 -1.421875 24.3125 -1.421875 
Q 15.921875 -1.421875 10.953125 3.296875 
Q 6 8.015625 6 15.921875 
Q 6 25.140625 12.171875 29.828125 
Q 18.359375 34.515625 30.609375 34.515625 
L 43.21875 34.515625 
L 43.21875 35.40625 
Q 43.21875 41.609375 39.140625 45 
Q 35.0625 48.390625 27.6875 48.390625 
Q 23 48.390625 18.546875 47.265625 
Q 14.109375 46.140625 10.015625 43.890625 
L 10.015625 52.203125 
Q 14.9375 54.109375 19.578125 55.046875 
Q 24.21875 56 28.609375 56 
Q 40.484375 56 46.34375 49.84375 
Q 52.203125 43.703125 52.203125 31.203125 
" id="BitstreamVeraSans-Roman-61"/>
      <path d="M 9.421875 75.984375 
L 18.40625 75.984375 
L 18.40625 0 
L 9.421875 0 
z
" id="BitstreamVeraSans-Roman-6c"/>
      <path d="M 25.390625 72.90625 
L 33.6875 72.90625 
L 8.296875 -9.28125 
L 0 -9.28125 
z
" id="BitstreamVeraSans-Roman-2f"/>
     </defs>
     <g transform="translate(41.420625 241.3209375)rotate(-90.0)scale(0.12 -0.12)">
      <use xlink:href="#BitstreamVeraSans-Roman-6b"/>
      <use x="57.91015625" xlink:href="#BitstreamVeraSans-Roman-63"/>
      <use x="112.890625" xlink:href="#BitstreamVeraSans-Roman-61"/>
      <use x="174.169921875" xlink:href="#BitstreamVeraSans-Roman-6c"/>
      <use x="201.953125" xlink:href="#BitstreamVeraSans-Roman-2f"/>
      <use x="235.64453125" xlink:href="#BitstreamVeraSans-Roman-6d"/>
      <use x="333.056640625" xlink:href="#BitstreamVeraSans-Roman-6f"/>
      <use x="394.23828125" xlink:href="#BitstreamVeraSans-Roman-6c"/>
     </g>
    </g>
   </g>
   <g id="text_21">
    <!-- H1-N1-C1-H3 -->
    <defs>
     <path d="M 4.890625 31.390625 
L 31.203125 31.390625 
L 31.203125 23.390625 
L 4.890625 23.390625 
z
" id="BitstreamVeraSans-Roman-2d"/>
     <path d="M 64.40625 67.28125 
L 64.40625 56.890625 
Q 59.421875 61.53125 53.78125 63.8125 
Q 48.140625 66.109375 41.796875 66.109375 
Q 29.296875 66.109375 22.65625 58.46875 
Q 16.015625 50.828125 16.015625 36.375 
Q 16.015625 21.96875 22.65625 14.328125 
Q 29.296875 6.6875 41.796875 6.6875 
Q 48.140625 6.6875 53.78125 8.984375 
Q 59.421875 11.28125 64.40625 15.921875 
L 64.40625 5.609375 
Q 59.234375 2.09375 53.4375 0.328125 
Q 47.65625 -1.421875 41.21875 -1.421875 
Q 24.65625 -1.421875 15.125 8.703125 
Q 5.609375 18.84375 5.609375 36.375 
Q 5.609375 53.953125 15.125 64.078125 
Q 24.65625 74.21875 41.21875 74.21875 
Q 47.75 74.21875 53.53125 72.484375 
Q 59.328125 70.75 64.40625 67.28125 
" id="BitstreamVeraSans-Roman-43"/>
     <path d="M 9.8125 72.90625 
L 19.671875 72.90625 
L 19.671875 43.015625 
L 55.515625 43.015625 
L 55.515625 72.90625 
L 65.375 72.90625 
L 65.375 0 
L 55.515625 0 
L 55.515625 34.71875 
L 19.671875 34.71875 
L 19.671875 0 
L 9.8125 0 
z
" id="BitstreamVeraSans-Roman-48"/>
     <path d="M 9.8125 72.90625 
L 23.09375 72.90625 
L 55.421875 11.921875 
L 55.421875 72.90625 
L 64.984375 72.90625 
L 64.984375 0 
L 51.703125 0 
L 19.390625 60.984375 
L 19.390625 0 
L 9.8125 0 
z
" id="BitstreamVeraSans-Roman-4e"/>
    </defs>
    <g transform="translate(247.83975 38.2)scale(0.144 -0.144)">
     <use xlink:href="#BitstreamVeraSans-Roman-48"/>
     <use x="75.1953125" xlink:href="#BitstreamVeraSans-Roman-31"/>
     <use x="138.818359375" xlink:href="#BitstreamVeraSans-Roman-2d"/>
     <use x="174.90234375" xlink:href="#BitstreamVeraSans-Roman-4e"/>
     <use x="249.70703125" xlink:href="#BitstreamVeraSans-Roman-31"/>
     <use x="313.330078125" xlink:href="#BitstreamVeraSans-Roman-2d"/>
     <use x="349.4140625" xlink:href="#BitstreamVeraSans-Roman-43"/>
     <use x="419.23828125" xlink:href="#BitstreamVeraSans-Roman-31"/>
     <use x="482.861328125" xlink:href="#BitstreamVeraSans-Roman-2d"/>
     <use x="518.9453125" xlink:href="#BitstreamVeraSans-Roman-48"/>
     <use x="594.140625" xlink:href="#BitstreamVeraSans-Roman-33"/>
    </g>
   </g>
   <g id="legend_1">
    <g id="patch_7">
     <path d="M 406.15625 108.3125 
L 514.4 108.3125 
L 514.4 47.2 
L 406.15625 47.2 
z
" style="fill:#ffffff;stroke:#000000;stroke-linejoin:miter;"/>
    </g>
    <g id="line2d_42">
     <path d="M 411.75625 53.67875 
L 422.95625 53.67875 
" style="fill:none;stroke:#ff0000;stroke-linecap:square;"/>
    </g>
    <g id="line2d_43">
     <g>
      <use style="fill:#ff0000;stroke:#000000;stroke-width:0.5;" x="411.75625" xlink:href="#m18cf5c20d8" y="53.67875"/>
      <use style="fill:#ff0000;stroke:#000000;stroke-width:0.5;" x="422.95625" xlink:href="#m18cf5c20d8" y="53.67875"/>
     </g>
    </g>
    <g id="text_22">
     <!-- QM -->
     <defs>
      <path d="M 9.8125 72.90625 
L 24.515625 72.90625 
L 43.109375 23.296875 
L 61.8125 72.90625 
L 76.515625 72.90625 
L 76.515625 0 
L 66.890625 0 
L 66.890625 64.015625 
L 48.09375 14.015625 
L 38.1875 14.015625 
L 19.390625 64.015625 
L 19.390625 0 
L 9.8125 0 
z
" id="BitstreamVeraSans-Roman-4d"/>
      <path d="M 39.40625 66.21875 
Q 28.65625 66.21875 22.328125 58.203125 
Q 16.015625 50.203125 16.015625 36.375 
Q 16.015625 22.609375 22.328125 14.59375 
Q 28.65625 6.59375 39.40625 6.59375 
Q 50.140625 6.59375 56.421875 14.59375 
Q 62.703125 22.609375 62.703125 36.375 
Q 62.703125 50.203125 56.421875 58.203125 
Q 50.140625 66.21875 39.40625 66.21875 
M 53.21875 1.3125 
L 66.21875 -12.890625 
L 54.296875 -12.890625 
L 43.5 -1.21875 
Q 41.890625 -1.3125 41.03125 -1.359375 
Q 40.1875 -1.421875 39.40625 -1.421875 
Q 24.03125 -1.421875 14.8125 8.859375 
Q 5.609375 19.140625 5.609375 36.375 
Q 5.609375 53.65625 14.8125 63.9375 
Q 24.03125 74.21875 39.40625 74.21875 
Q 54.734375 74.21875 63.90625 63.9375 
Q 73.09375 53.65625 73.09375 36.375 
Q 73.09375 23.6875 67.984375 14.640625 
Q 62.890625 5.609375 53.21875 1.3125 
" id="BitstreamVeraSans-Roman-51"/>
     </defs>
     <g transform="translate(431.75625 56.47875)scale(0.08 -0.08)">
      <use xlink:href="#BitstreamVeraSans-Roman-51"/>
      <use x="78.7109375" xlink:href="#BitstreamVeraSans-Roman-4d"/>
     </g>
    </g>
    <g id="line2d_44">
     <path d="M 411.75625 65.42125 
L 422.95625 65.42125 
" style="fill:none;stroke:#0000ff;stroke-linecap:square;"/>
    </g>
    <g id="line2d_45">
     <g>
      <use style="fill:#0000ff;stroke:#000000;stroke-width:0.5;" x="411.75625" xlink:href="#mfe2636d381" y="65.42125"/>
      <use style="fill:#0000ff;stroke:#000000;stroke-width:0.5;" x="422.95625" xlink:href="#mfe2636d381" y="65.42125"/>
     </g>
    </g>
    <g id="text_23">
     <!-- MM Original -->
     <defs>
      <path d="M 41.109375 46.296875 
Q 39.59375 47.171875 37.8125 47.578125 
Q 36.03125 48 33.890625 48 
Q 26.265625 48 22.1875 43.046875 
Q 18.109375 38.09375 18.109375 28.8125 
L 18.109375 0 
L 9.078125 0 
L 9.078125 54.6875 
L 18.109375 54.6875 
L 18.109375 46.1875 
Q 20.953125 51.171875 25.484375 53.578125 
Q 30.03125 56 36.53125 56 
Q 37.453125 56 38.578125 55.875 
Q 39.703125 55.765625 41.0625 55.515625 
z
" id="BitstreamVeraSans-Roman-72"/>
      <path id="BitstreamVeraSans-Roman-20"/>
      <path d="M 45.40625 27.984375 
Q 45.40625 37.75 41.375 43.109375 
Q 37.359375 48.484375 30.078125 48.484375 
Q 22.859375 48.484375 18.828125 43.109375 
Q 14.796875 37.75 14.796875 27.984375 
Q 14.796875 18.265625 18.828125 12.890625 
Q 22.859375 7.515625 30.078125 7.515625 
Q 37.359375 7.515625 41.375 12.890625 
Q 45.40625 18.265625 45.40625 27.984375 
M 54.390625 6.78125 
Q 54.390625 -7.171875 48.1875 -13.984375 
Q 42 -20.796875 29.203125 -20.796875 
Q 24.46875 -20.796875 20.265625 -20.09375 
Q 16.0625 -19.390625 12.109375 -17.921875 
L 12.109375 -9.1875 
Q 16.0625 -11.328125 19.921875 -12.34375 
Q 23.78125 -13.375 27.78125 -13.375 
Q 36.625 -13.375 41.015625 -8.765625 
Q 45.40625 -4.15625 45.40625 5.171875 
L 45.40625 9.625 
Q 42.625 4.78125 38.28125 2.390625 
Q 33.9375 0 27.875 0 
Q 17.828125 0 11.671875 7.65625 
Q 5.515625 15.328125 5.515625 27.984375 
Q 5.515625 40.671875 11.671875 48.328125 
Q 17.828125 56 27.875 56 
Q 33.9375 56 38.28125 53.609375 
Q 42.625 51.21875 45.40625 46.390625 
L 45.40625 54.6875 
L 54.390625 54.6875 
z
" id="BitstreamVeraSans-Roman-67"/>
      <path d="M 39.40625 66.21875 
Q 28.65625 66.21875 22.328125 58.203125 
Q 16.015625 50.203125 16.015625 36.375 
Q 16.015625 22.609375 22.328125 14.59375 
Q 28.65625 6.59375 39.40625 6.59375 
Q 50.140625 6.59375 56.421875 14.59375 
Q 62.703125 22.609375 62.703125 36.375 
Q 62.703125 50.203125 56.421875 58.203125 
Q 50.140625 66.21875 39.40625 66.21875 
M 39.40625 74.21875 
Q 54.734375 74.21875 63.90625 63.9375 
Q 73.09375 53.65625 73.09375 36.375 
Q 73.09375 19.140625 63.90625 8.859375 
Q 54.734375 -1.421875 39.40625 -1.421875 
Q 24.03125 -1.421875 14.8125 8.828125 
Q 5.609375 19.09375 5.609375 36.375 
Q 5.609375 53.65625 14.8125 63.9375 
Q 24.03125 74.21875 39.40625 74.21875 
" id="BitstreamVeraSans-Roman-4f"/>
      <path d="M 54.890625 33.015625 
L 54.890625 0 
L 45.90625 0 
L 45.90625 32.71875 
Q 45.90625 40.484375 42.875 44.328125 
Q 39.84375 48.1875 33.796875 48.1875 
Q 26.515625 48.1875 22.3125 43.546875 
Q 18.109375 38.921875 18.109375 30.90625 
L 18.109375 0 
L 9.078125 0 
L 9.078125 54.6875 
L 18.109375 54.6875 
L 18.109375 46.1875 
Q 21.34375 51.125 25.703125 53.5625 
Q 30.078125 56 35.796875 56 
Q 45.21875 56 50.046875 50.171875 
Q 54.890625 44.34375 54.890625 33.015625 
" id="BitstreamVeraSans-Roman-6e"/>
     </defs>
     <g transform="translate(431.75625 68.22125)scale(0.08 -0.08)">
      <use xlink:href="#BitstreamVeraSans-Roman-4d"/>
      <use x="86.279296875" xlink:href="#BitstreamVeraSans-Roman-4d"/>
      <use x="172.55859375" xlink:href="#BitstreamVeraSans-Roman-20"/>
      <use x="204.345703125" xlink:href="#BitstreamVeraSans-Roman-4f"/>
      <use x="283.056640625" xlink:href="#BitstreamVeraSans-Roman-72"/>
      <use x="324.169921875" xlink:href="#BitstreamVeraSans-Roman-69"/>
      <use x="351.953125" xlink:href="#BitstreamVeraSans-Roman-67"/>
      <use x="415.4296875" xlink:href="#BitstreamVeraSans-Roman-69"/>
      <use x="443.212890625" xlink:href="#BitstreamVeraSans-Roman-6e"/>
      <use x="506.591796875" xlink:href="#BitstreamVeraSans-Roman-61"/>
      <use x="567.87109375" xlink:href="#BitstreamVeraSans-Roman-6c"/>
     </g>
    </g>
    <g id="line2d_46">
     <path d="M 411.75625 77.16375 
L 422.95625 77.16375 
" style="fill:none;stroke:#000000;stroke-linecap:square;"/>
    </g>
    <g id="line2d_47">
     <g>
      <use style="stroke:#000000;stroke-width:0.5;" x="411.75625" xlink:href="#mf296442a45" y="77.16375"/>
      <use style="stroke:#000000;stroke-width:0.5;" x="422.95625" xlink:href="#mf296442a45" y="77.16375"/>
     </g>
    </g>
    <g id="text_24">
     <!-- MM With phi zeroed -->
     <defs>
      <path d="M 45.40625 46.390625 
L 45.40625 75.984375 
L 54.390625 75.984375 
L 54.390625 0 
L 45.40625 0 
L 45.40625 8.203125 
Q 42.578125 3.328125 38.25 0.953125 
Q 33.9375 -1.421875 27.875 -1.421875 
Q 17.96875 -1.421875 11.734375 6.484375 
Q 5.515625 14.40625 5.515625 27.296875 
Q 5.515625 40.1875 11.734375 48.09375 
Q 17.96875 56 27.875 56 
Q 33.9375 56 38.25 53.625 
Q 42.578125 51.265625 45.40625 46.390625 
M 14.796875 27.296875 
Q 14.796875 17.390625 18.875 11.75 
Q 22.953125 6.109375 30.078125 6.109375 
Q 37.203125 6.109375 41.296875 11.75 
Q 45.40625 17.390625 45.40625 27.296875 
Q 45.40625 37.203125 41.296875 42.84375 
Q 37.203125 48.484375 30.078125 48.484375 
Q 22.953125 48.484375 18.875 42.84375 
Q 14.796875 37.203125 14.796875 27.296875 
" id="BitstreamVeraSans-Roman-64"/>
      <path d="M 18.3125 70.21875 
L 18.3125 54.6875 
L 36.8125 54.6875 
L 36.8125 47.703125 
L 18.3125 47.703125 
L 18.3125 18.015625 
Q 18.3125 11.328125 20.140625 9.421875 
Q 21.96875 7.515625 27.59375 7.515625 
L 36.8125 7.515625 
L 36.8125 0 
L 27.59375 0 
Q 17.1875 0 13.234375 3.875 
Q 9.28125 7.765625 9.28125 18.015625 
L 9.28125 47.703125 
L 2.6875 47.703125 
L 2.6875 54.6875 
L 9.28125 54.6875 
L 9.28125 70.21875 
z
" id="BitstreamVeraSans-Roman-74"/>
      <path d="M 5.515625 54.6875 
L 48.1875 54.6875 
L 48.1875 46.484375 
L 14.40625 7.171875 
L 48.1875 7.171875 
L 48.1875 0 
L 4.296875 0 
L 4.296875 8.203125 
L 38.09375 47.515625 
L 5.515625 47.515625 
z
" id="BitstreamVeraSans-Roman-7a"/>
      <path d="M 56.203125 29.59375 
L 56.203125 25.203125 
L 14.890625 25.203125 
Q 15.484375 15.921875 20.484375 11.0625 
Q 25.484375 6.203125 34.421875 6.203125 
Q 39.59375 6.203125 44.453125 7.46875 
Q 49.3125 8.734375 54.109375 11.28125 
L 54.109375 2.78125 
Q 49.265625 0.734375 44.1875 -0.34375 
Q 39.109375 -1.421875 33.890625 -1.421875 
Q 20.796875 -1.421875 13.15625 6.1875 
Q 5.515625 13.8125 5.515625 26.8125 
Q 5.515625 40.234375 12.765625 48.109375 
Q 20.015625 56 32.328125 56 
Q 43.359375 56 49.78125 48.890625 
Q 56.203125 41.796875 56.203125 29.59375 
M 47.21875 32.234375 
Q 47.125 39.59375 43.09375 43.984375 
Q 39.0625 48.390625 32.421875 48.390625 
Q 24.90625 48.390625 20.390625 44.140625 
Q 15.875 39.890625 15.1875 32.171875 
z
" id="BitstreamVeraSans-Roman-65"/>
      <path d="M 18.109375 8.203125 
L 18.109375 -20.796875 
L 9.078125 -20.796875 
L 9.078125 54.6875 
L 18.109375 54.6875 
L 18.109375 46.390625 
Q 20.953125 51.265625 25.265625 53.625 
Q 29.59375 56 35.59375 56 
Q 45.5625 56 51.78125 48.09375 
Q 58.015625 40.1875 58.015625 27.296875 
Q 58.015625 14.40625 51.78125 6.484375 
Q 45.5625 -1.421875 35.59375 -1.421875 
Q 29.59375 -1.421875 25.265625 0.953125 
Q 20.953125 3.328125 18.109375 8.203125 
M 48.6875 27.296875 
Q 48.6875 37.203125 44.609375 42.84375 
Q 40.53125 48.484375 33.40625 48.484375 
Q 26.265625 48.484375 22.1875 42.84375 
Q 18.109375 37.203125 18.109375 27.296875 
Q 18.109375 17.390625 22.1875 11.75 
Q 26.265625 6.109375 33.40625 6.109375 
Q 40.53125 6.109375 44.609375 11.75 
Q 48.6875 17.390625 48.6875 27.296875 
" id="BitstreamVeraSans-Roman-70"/>
      <path d="M 3.328125 72.90625 
L 13.28125 72.90625 
L 28.609375 11.28125 
L 43.890625 72.90625 
L 54.984375 72.90625 
L 70.3125 11.28125 
L 85.59375 72.90625 
L 95.609375 72.90625 
L 77.296875 0 
L 64.890625 0 
L 49.515625 63.28125 
L 33.984375 0 
L 21.578125 0 
z
" id="BitstreamVeraSans-Roman-57"/>
     </defs>
     <g transform="translate(431.75625 79.96375)scale(0.08 -0.08)">
      <use xlink:href="#BitstreamVeraSans-Roman-4d"/>
      <use x="86.279296875" xlink:href="#BitstreamVeraSans-Roman-4d"/>
      <use x="172.55859375" xlink:href="#BitstreamVeraSans-Roman-20"/>
      <use x="204.345703125" xlink:href="#BitstreamVeraSans-Roman-57"/>
      <use x="303.19140625" xlink:href="#BitstreamVeraSans-Roman-69"/>
      <use x="330.974609375" xlink:href="#BitstreamVeraSans-Roman-74"/>
      <use x="370.18359375" xlink:href="#BitstreamVeraSans-Roman-68"/>
      <use x="433.5625" xlink:href="#BitstreamVeraSans-Roman-20"/>
      <use x="465.349609375" xlink:href="#BitstreamVeraSans-Roman-70"/>
      <use x="528.826171875" xlink:href="#BitstreamVeraSans-Roman-68"/>
      <use x="592.205078125" xlink:href="#BitstreamVeraSans-Roman-69"/>
      <use x="619.98828125" xlink:href="#BitstreamVeraSans-Roman-20"/>
      <use x="651.775390625" xlink:href="#BitstreamVeraSans-Roman-7a"/>
      <use x="704.265625" xlink:href="#BitstreamVeraSans-Roman-65"/>
      <use x="765.7890625" xlink:href="#BitstreamVeraSans-Roman-72"/>
      <use x="806.87109375" xlink:href="#BitstreamVeraSans-Roman-6f"/>
      <use x="868.052734375" xlink:href="#BitstreamVeraSans-Roman-65"/>
      <use x="929.576171875" xlink:href="#BitstreamVeraSans-Roman-64"/>
     </g>
    </g>
    <g id="line2d_48">
     <path d="M 411.75625 88.90625 
L 422.95625 88.90625 
" style="fill:none;stroke:#ff00ff;stroke-linecap:square;"/>
    </g>
    <g id="line2d_49">
     <g>
      <use style="fill:#ff00ff;stroke:#ff00ff;stroke-width:0.5;" x="411.75625" xlink:href="#m0ceb511477" y="88.90625"/>
      <use style="fill:#ff00ff;stroke:#ff00ff;stroke-width:0.5;" x="422.95625" xlink:href="#m0ceb511477" y="88.90625"/>
     </g>
    </g>
    <g id="text_25">
     <!-- QM-MM target -->
     <g transform="translate(431.75625 91.70625)scale(0.08 -0.08)">
      <use xlink:href="#BitstreamVeraSans-Roman-51"/>
      <use x="78.7109375" xlink:href="#BitstreamVeraSans-Roman-4d"/>
      <use x="164.990234375" xlink:href="#BitstreamVeraSans-Roman-2d"/>
      <use x="201.07421875" xlink:href="#BitstreamVeraSans-Roman-4d"/>
      <use x="287.353515625" xlink:href="#BitstreamVeraSans-Roman-4d"/>
      <use x="373.6328125" xlink:href="#BitstreamVeraSans-Roman-20"/>
      <use x="405.419921875" xlink:href="#BitstreamVeraSans-Roman-74"/>
      <use x="444.62890625" xlink:href="#BitstreamVeraSans-Roman-61"/>
      <use x="505.908203125" xlink:href="#BitstreamVeraSans-Roman-72"/>
      <use x="547.005859375" xlink:href="#BitstreamVeraSans-Roman-67"/>
      <use x="610.482421875" xlink:href="#BitstreamVeraSans-Roman-65"/>
      <use x="672.005859375" xlink:href="#BitstreamVeraSans-Roman-74"/>
     </g>
    </g>
    <g id="line2d_50">
     <path d="M 411.75625 100.64875 
L 422.95625 100.64875 
" style="fill:none;stroke:#008000;stroke-linecap:square;"/>
    </g>
    <g id="line2d_51">
     <g>
      <use style="fill:#008000;stroke:#000000;stroke-width:0.5;" x="411.75625" xlink:href="#m2ff5bc484d" y="100.64875"/>
      <use style="fill:#008000;stroke:#000000;stroke-width:0.5;" x="422.95625" xlink:href="#m2ff5bc484d" y="100.64875"/>
     </g>
    </g>
    <g id="text_26">
     <!-- MM Fitted -->
     <defs>
      <path d="M 9.8125 72.90625 
L 51.703125 72.90625 
L 51.703125 64.59375 
L 19.671875 64.59375 
L 19.671875 43.109375 
L 48.578125 43.109375 
L 48.578125 34.8125 
L 19.671875 34.8125 
L 19.671875 0 
L 9.8125 0 
z
" id="BitstreamVeraSans-Roman-46"/>
     </defs>
     <g transform="translate(431.75625 103.44875)scale(0.08 -0.08)">
      <use xlink:href="#BitstreamVeraSans-Roman-4d"/>
      <use x="86.279296875" xlink:href="#BitstreamVeraSans-Roman-4d"/>
      <use x="172.55859375" xlink:href="#BitstreamVeraSans-Roman-20"/>
      <use x="204.345703125" xlink:href="#BitstreamVeraSans-Roman-46"/>
      <use x="261.755859375" xlink:href="#BitstreamVeraSans-Roman-69"/>
      <use x="289.5390625" xlink:href="#BitstreamVeraSans-Roman-74"/>
      <use x="328.748046875" xlink:href="#BitstreamVeraSans-Roman-74"/>
      <use x="367.95703125" xlink:href="#BitstreamVeraSans-Roman-65"/>
      <use x="429.48046875" xlink:href="#BitstreamVeraSans-Roman-64"/>
     </g>
    </g>
   </g>
  </g>
 </g>
 <defs>
  <clipPath id="pd7c79b7a94">
   <rect height="345.6" width="446.4" x="72.0" y="43.2"/>
  </clipPath>
 </defs>
</svg>
