<?xml version="1.0" encoding="utf-8" standalone="no"?>
<!DOCTYPE svg PUBLIC "-//W3C//DTD SVG 1.1//EN"
  "http://www.w3.org/Graphics/SVG/1.1/DTD/svg11.dtd">
<!-- Created with matplotlib (http://matplotlib.org/) -->
<svg height="432pt" version="1.1" viewBox="0 0 576 432" width="576pt" xmlns="http://www.w3.org/2000/svg" xmlns:xlink="http://www.w3.org/1999/xlink">
 <defs>
  <style type="text/css">
*{stroke-linecap:butt;stroke-linejoin:round;stroke-miterlimit:100000;}
  </style>
 </defs>
 <g id="figure_1">
  <g id="patch_1">
   <path d="M 0 432 
L 576 432 
L 576 0 
L 0 0 
z
" style="fill:#ffffff;"/>
  </g>
  <g id="axes_1">
   <g id="patch_2">
    <path d="M 72 388.8 
L 518.4 388.8 
L 518.4 43.2 
L 72 43.2 
z
" style="fill:#ffffff;"/>
   </g>
   <g id="line2d_1">
    <path clip-path="url(#p3af86918a5)" d="M 72.000011 370.379668 
L 84.400008 371.808295 
L 96.800015 366.651294 
L 109.20002 357.463082 
L 121.600052 348.090967 
L 134.000007 342.129202 
L 146.4 341.795302 
L 158.800026 347.463262 
L 171.200001 357.752142 
L 183.599973 370.005013 
L 195.999978 381.017065 
L 208.399997 387.88669 
L 220.79999 388.8 
L 233.200008 383.522467 
L 245.599985 373.461983 
L 257.99996 361.286347 
L 270.39996 350.195963 
L 282.799957 343.064782 
L 295.199955 341.663793 
L 307.599937 346.094552 
L 319.99995 354.554128 
L 332.399963 363.605162 
L 344.799964 369.126706 
L 357.199971 367.940098 
L 369.599975 359.402935 
L 382.00001 345.309838 
L 394.39999 327.50417 
L 406.79999 306.327384 
L 419.199974 283.538503 
L 431.600039 266.367065 
L 444.000043 264.336581 
L 456.39998 279.609806 
L 468.800054 304.223005 
L 481.200034 328.467951 
L 493.600036 347.918612 
L 506.00002 362.062938 
" style="fill:none;stroke:#ff0000;stroke-linecap:square;"/>
    <defs>
     <path d="M 0 3 
C 0.795609 3 1.55874 2.683901 2.12132 2.12132 
C 2.683901 1.55874 3 0.795609 3 0 
C 3 -0.795609 2.683901 -1.55874 2.12132 -2.12132 
C 1.55874 -2.683901 0.795609 -3 0 -3 
C -0.795609 -3 -1.55874 -2.683901 -2.12132 -2.12132 
C -2.683901 -1.55874 -3 -0.795609 -3 0 
C -3 0.795609 -2.683901 1.55874 -2.12132 2.12132 
C -1.55874 2.683901 -0.795609 3 0 3 
z
" id="m4b0d7463fa" style="stroke:#000000;stroke-width:0.5;"/>
    </defs>
    <g clip-path="url(#p3af86918a5)">
     <use style="fill:#ff0000;stroke:#000000;stroke-width:0.5;" x="72.0000110766" xlink:href="#m4b0d7463fa" y="370.379668269"/>
     <use style="fill:#ff0000;stroke:#000000;stroke-width:0.5;" x="84.4000079981" xlink:href="#m4b0d7463fa" y="371.808294842"/>
     <use style="fill:#ff0000;stroke:#000000;stroke-width:0.5;" x="96.8000145771" xlink:href="#m4b0d7463fa" y="366.651293974"/>
     <use style="fill:#ff0000;stroke:#000000;stroke-width:0.5;" x="109.200020184" xlink:href="#m4b0d7463fa" y="357.463081713"/>
     <use style="fill:#ff0000;stroke:#000000;stroke-width:0.5;" x="121.600051748" xlink:href="#m4b0d7463fa" y="348.090967484"/>
     <use style="fill:#ff0000;stroke:#000000;stroke-width:0.5;" x="134.000006733" xlink:href="#m4b0d7463fa" y="342.129201711"/>
     <use style="fill:#ff0000;stroke:#000000;stroke-width:0.5;" x="146.399999681" xlink:href="#m4b0d7463fa" y="341.795301967"/>
     <use style="fill:#ff0000;stroke:#000000;stroke-width:0.5;" x="158.800025619" xlink:href="#m4b0d7463fa" y="347.46326165"/>
     <use style="fill:#ff0000;stroke:#000000;stroke-width:0.5;" x="171.20000146" xlink:href="#m4b0d7463fa" y="357.752141778"/>
     <use style="fill:#ff0000;stroke:#000000;stroke-width:0.5;" x="183.59997325" xlink:href="#m4b0d7463fa" y="370.005012973"/>
     <use style="fill:#ff0000;stroke:#000000;stroke-width:0.5;" x="195.999977672" xlink:href="#m4b0d7463fa" y="381.017064697"/>
     <use style="fill:#ff0000;stroke:#000000;stroke-width:0.5;" x="208.399997114" xlink:href="#m4b0d7463fa" y="387.886689767"/>
     <use style="fill:#ff0000;stroke:#000000;stroke-width:0.5;" x="220.799990332" xlink:href="#m4b0d7463fa" y="388.8"/>
     <use style="fill:#ff0000;stroke:#000000;stroke-width:0.5;" x="233.200007779" xlink:href="#m4b0d7463fa" y="383.522467032"/>
     <use style="fill:#ff0000;stroke:#000000;stroke-width:0.5;" x="245.599985107" xlink:href="#m4b0d7463fa" y="373.461983121"/>
     <use style="fill:#ff0000;stroke:#000000;stroke-width:0.5;" x="257.999960101" xlink:href="#m4b0d7463fa" y="361.286346773"/>
     <use style="fill:#ff0000;stroke:#000000;stroke-width:0.5;" x="270.399959862" xlink:href="#m4b0d7463fa" y="350.195963361"/>
     <use style="fill:#ff0000;stroke:#000000;stroke-width:0.5;" x="282.799957371" xlink:href="#m4b0d7463fa" y="343.064781554"/>
     <use style="fill:#ff0000;stroke:#000000;stroke-width:0.5;" x="295.199954524" xlink:href="#m4b0d7463fa" y="341.663792818"/>
     <use style="fill:#ff0000;stroke:#000000;stroke-width:0.5;" x="307.599936714" xlink:href="#m4b0d7463fa" y="346.094552337"/>
     <use style="fill:#ff0000;stroke:#000000;stroke-width:0.5;" x="319.999949551" xlink:href="#m4b0d7463fa" y="354.554127875"/>
     <use style="fill:#ff0000;stroke:#000000;stroke-width:0.5;" x="332.399963392" xlink:href="#m4b0d7463fa" y="363.605162478"/>
     <use style="fill:#ff0000;stroke:#000000;stroke-width:0.5;" x="344.799963856" xlink:href="#m4b0d7463fa" y="369.126705742"/>
     <use style="fill:#ff0000;stroke:#000000;stroke-width:0.5;" x="357.199971284" xlink:href="#m4b0d7463fa" y="367.940097993"/>
     <use style="fill:#ff0000;stroke:#000000;stroke-width:0.5;" x="369.599975057" xlink:href="#m4b0d7463fa" y="359.402935425"/>
     <use style="fill:#ff0000;stroke:#000000;stroke-width:0.5;" x="382.000009526" xlink:href="#m4b0d7463fa" y="345.309837589"/>
     <use style="fill:#ff0000;stroke:#000000;stroke-width:0.5;" x="394.39999029" xlink:href="#m4b0d7463fa" y="327.50417049"/>
     <use style="fill:#ff0000;stroke:#000000;stroke-width:0.5;" x="406.799990223" xlink:href="#m4b0d7463fa" y="306.327383991"/>
     <use style="fill:#ff0000;stroke:#000000;stroke-width:0.5;" x="419.199973527" xlink:href="#m4b0d7463fa" y="283.53850293"/>
     <use style="fill:#ff0000;stroke:#000000;stroke-width:0.5;" x="431.600038844" xlink:href="#m4b0d7463fa" y="266.367064967"/>
     <use style="fill:#ff0000;stroke:#000000;stroke-width:0.5;" x="444.00004272" xlink:href="#m4b0d7463fa" y="264.336580645"/>
     <use style="fill:#ff0000;stroke:#000000;stroke-width:0.5;" x="456.399979699" xlink:href="#m4b0d7463fa" y="279.609805649"/>
     <use style="fill:#ff0000;stroke:#000000;stroke-width:0.5;" x="468.800053759" xlink:href="#m4b0d7463fa" y="304.223004625"/>
     <use style="fill:#ff0000;stroke:#000000;stroke-width:0.5;" x="481.200033865" xlink:href="#m4b0d7463fa" y="328.467951493"/>
     <use style="fill:#ff0000;stroke:#000000;stroke-width:0.5;" x="493.600036498" xlink:href="#m4b0d7463fa" y="347.918611538"/>
     <use style="fill:#ff0000;stroke:#000000;stroke-width:0.5;" x="506.00002025" xlink:href="#m4b0d7463fa" y="362.062938429"/>
    </g>
   </g>
   <g id="line2d_2">
    <path clip-path="url(#p3af86918a5)" d="M 72.000011 336.225644 
L 84.400008 356.229487 
L 96.800015 362.342517 
L 109.20002 360.681619 
L 121.600052 356.10276 
L 134.000007 351.784572 
L 146.4 349.982944 
L 158.800026 352.33406 
L 171.200001 359.371263 
L 183.599973 369.825151 
L 195.999978 380.60011 
L 208.399997 387.864216 
L 220.79999 388.8 
L 233.200008 383.01391 
L 245.599985 372.752037 
L 257.99996 361.784202 
L 270.39996 353.616433 
L 282.799957 350.088539 
L 295.199955 351.07584 
L 307.599937 355.107319 
L 319.99995 360.038962 
L 332.399963 363.002447 
L 344.799964 359.607939 
L 357.199971 343.686354 
L 369.599975 310.205579 
L 382.00001 261.065251 
L 394.39999 206.316609 
L 406.79999 159.13667 
L 419.199974 128.598873 
L 431.600039 114.062031 
L 444.000043 111.337787 
L 456.39998 120.567189 
L 468.800054 146.160195 
L 481.200034 190.629941 
L 493.600036 246.206313 
L 506.00002 298.477006 
" style="fill:none;stroke:#0000ff;stroke-linecap:square;"/>
    <defs>
     <path d="M 0 3 
C 0.795609 3 1.55874 2.683901 2.12132 2.12132 
C 2.683901 1.55874 3 0.795609 3 0 
C 3 -0.795609 2.683901 -1.55874 2.12132 -2.12132 
C 1.55874 -2.683901 0.795609 -3 0 -3 
C -0.795609 -3 -1.55874 -2.683901 -2.12132 -2.12132 
C -2.683901 -1.55874 -3 -0.795609 -3 0 
C -3 0.795609 -2.683901 1.55874 -2.12132 2.12132 
C -1.55874 2.683901 -0.795609 3 0 3 
z
" id="m8e47d4d5ff" style="stroke:#000000;stroke-width:0.5;"/>
    </defs>
    <g clip-path="url(#p3af86918a5)">
     <use style="fill:#0000ff;stroke:#000000;stroke-width:0.5;" x="72.0000110766" xlink:href="#m8e47d4d5ff" y="336.225643847"/>
     <use style="fill:#0000ff;stroke:#000000;stroke-width:0.5;" x="84.4000079981" xlink:href="#m8e47d4d5ff" y="356.229486938"/>
     <use style="fill:#0000ff;stroke:#000000;stroke-width:0.5;" x="96.8000145771" xlink:href="#m8e47d4d5ff" y="362.342517334"/>
     <use style="fill:#0000ff;stroke:#000000;stroke-width:0.5;" x="109.200020184" xlink:href="#m8e47d4d5ff" y="360.681619043"/>
     <use style="fill:#0000ff;stroke:#000000;stroke-width:0.5;" x="121.600051748" xlink:href="#m8e47d4d5ff" y="356.102760493"/>
     <use style="fill:#0000ff;stroke:#000000;stroke-width:0.5;" x="134.000006733" xlink:href="#m8e47d4d5ff" y="351.78457236"/>
     <use style="fill:#0000ff;stroke:#000000;stroke-width:0.5;" x="146.399999681" xlink:href="#m8e47d4d5ff" y="349.98294435"/>
     <use style="fill:#0000ff;stroke:#000000;stroke-width:0.5;" x="158.800025619" xlink:href="#m8e47d4d5ff" y="352.334060406"/>
     <use style="fill:#0000ff;stroke:#000000;stroke-width:0.5;" x="171.20000146" xlink:href="#m8e47d4d5ff" y="359.371262685"/>
     <use style="fill:#0000ff;stroke:#000000;stroke-width:0.5;" x="183.59997325" xlink:href="#m8e47d4d5ff" y="369.825151238"/>
     <use style="fill:#0000ff;stroke:#000000;stroke-width:0.5;" x="195.999977672" xlink:href="#m8e47d4d5ff" y="380.600109689"/>
     <use style="fill:#0000ff;stroke:#000000;stroke-width:0.5;" x="208.399997114" xlink:href="#m8e47d4d5ff" y="387.864216197"/>
     <use style="fill:#0000ff;stroke:#000000;stroke-width:0.5;" x="220.799990332" xlink:href="#m8e47d4d5ff" y="388.8"/>
     <use style="fill:#0000ff;stroke:#000000;stroke-width:0.5;" x="233.200007779" xlink:href="#m8e47d4d5ff" y="383.013909942"/>
     <use style="fill:#0000ff;stroke:#000000;stroke-width:0.5;" x="245.599985107" xlink:href="#m8e47d4d5ff" y="372.752037125"/>
     <use style="fill:#0000ff;stroke:#000000;stroke-width:0.5;" x="257.999960101" xlink:href="#m8e47d4d5ff" y="361.78420245"/>
     <use style="fill:#0000ff;stroke:#000000;stroke-width:0.5;" x="270.399959862" xlink:href="#m8e47d4d5ff" y="353.616433048"/>
     <use style="fill:#0000ff;stroke:#000000;stroke-width:0.5;" x="282.799957371" xlink:href="#m8e47d4d5ff" y="350.088539254"/>
     <use style="fill:#0000ff;stroke:#000000;stroke-width:0.5;" x="295.199954524" xlink:href="#m8e47d4d5ff" y="351.075839971"/>
     <use style="fill:#0000ff;stroke:#000000;stroke-width:0.5;" x="307.599936714" xlink:href="#m8e47d4d5ff" y="355.107319237"/>
     <use style="fill:#0000ff;stroke:#000000;stroke-width:0.5;" x="319.999949551" xlink:href="#m8e47d4d5ff" y="360.038961729"/>
     <use style="fill:#0000ff;stroke:#000000;stroke-width:0.5;" x="332.399963392" xlink:href="#m8e47d4d5ff" y="363.002446778"/>
     <use style="fill:#0000ff;stroke:#000000;stroke-width:0.5;" x="344.799963856" xlink:href="#m8e47d4d5ff" y="359.607939285"/>
     <use style="fill:#0000ff;stroke:#000000;stroke-width:0.5;" x="357.199971284" xlink:href="#m8e47d4d5ff" y="343.686353973"/>
     <use style="fill:#0000ff;stroke:#000000;stroke-width:0.5;" x="369.599975057" xlink:href="#m8e47d4d5ff" y="310.205578571"/>
     <use style="fill:#0000ff;stroke:#000000;stroke-width:0.5;" x="382.000009526" xlink:href="#m8e47d4d5ff" y="261.065250671"/>
     <use style="fill:#0000ff;stroke:#000000;stroke-width:0.5;" x="394.39999029" xlink:href="#m8e47d4d5ff" y="206.316609497"/>
     <use style="fill:#0000ff;stroke:#000000;stroke-width:0.5;" x="406.799990223" xlink:href="#m8e47d4d5ff" y="159.136669823"/>
     <use style="fill:#0000ff;stroke:#000000;stroke-width:0.5;" x="419.199973527" xlink:href="#m8e47d4d5ff" y="128.598872977"/>
     <use style="fill:#0000ff;stroke:#000000;stroke-width:0.5;" x="431.600038844" xlink:href="#m8e47d4d5ff" y="114.062031292"/>
     <use style="fill:#0000ff;stroke:#000000;stroke-width:0.5;" x="444.00004272" xlink:href="#m8e47d4d5ff" y="111.337786654"/>
     <use style="fill:#0000ff;stroke:#000000;stroke-width:0.5;" x="456.399979699" xlink:href="#m8e47d4d5ff" y="120.567189026"/>
     <use style="fill:#0000ff;stroke:#000000;stroke-width:0.5;" x="468.800053759" xlink:href="#m8e47d4d5ff" y="146.160195093"/>
     <use style="fill:#0000ff;stroke:#000000;stroke-width:0.5;" x="481.200033865" xlink:href="#m8e47d4d5ff" y="190.629940776"/>
     <use style="fill:#0000ff;stroke:#000000;stroke-width:0.5;" x="493.600036498" xlink:href="#m8e47d4d5ff" y="246.206313118"/>
     <use style="fill:#0000ff;stroke:#000000;stroke-width:0.5;" x="506.00002025" xlink:href="#m8e47d4d5ff" y="298.477006301"/>
    </g>
   </g>
   <g id="line2d_3">
    <path clip-path="url(#p3af86918a5)" d="M 72.000011 336.225642 
L 84.400008 358.963708 
L 96.800015 370.248687 
L 109.20002 374.81164 
L 121.600052 375.84087 
L 134.000007 375.012309 
L 146.4 373.646819 
L 158.800026 373.263714 
L 171.200001 375.128978 
L 183.599973 379.359015 
L 195.999978 384.525882 
L 208.399997 388.300357 
L 220.79999 388.8 
L 233.200008 385.748135 
L 245.599985 380.658201 
L 257.99996 375.914216 
L 270.39996 373.354534 
L 282.799957 373.316272 
L 295.199955 374.739716 
L 307.599937 376.036985 
L 319.99995 375.796688 
L 332.399963 372.536324 
L 344.799964 363.533723 
L 357.199971 344.1225 
L 369.599975 310.205578 
L 382.00001 263.799472 
L 394.39999 214.22277 
L 406.79999 173.266672 
L 419.199974 148.336964 
L 431.600039 137.28977 
L 444.000043 135.001666 
L 456.39998 141.496851 
L 468.800054 161.917899 
L 481.200034 200.163799 
L 493.600036 250.132094 
L 506.00002 298.913147 
" style="fill:none;stroke:#000000;stroke-linecap:square;"/>
    <defs>
     <path d="M -3 3 
L 3 -3 
M -3 -3 
L 3 3 
" id="m2d58b768c6" style="stroke:#000000;stroke-width:0.5;"/>
    </defs>
    <g clip-path="url(#p3af86918a5)">
     <use style="stroke:#000000;stroke-width:0.5;" x="72.0000110766" xlink:href="#m2d58b768c6" y="336.225641853"/>
     <use style="stroke:#000000;stroke-width:0.5;" x="84.4000079981" xlink:href="#m2d58b768c6" y="358.963708082"/>
     <use style="stroke:#000000;stroke-width:0.5;" x="96.8000145771" xlink:href="#m2d58b768c6" y="370.248686731"/>
     <use style="stroke:#000000;stroke-width:0.5;" x="109.200020184" xlink:href="#m2d58b768c6" y="374.811640234"/>
     <use style="stroke:#000000;stroke-width:0.5;" x="121.600051748" xlink:href="#m2d58b768c6" y="375.8408705"/>
     <use style="stroke:#000000;stroke-width:0.5;" x="134.000006733" xlink:href="#m2d58b768c6" y="375.012309132"/>
     <use style="stroke:#000000;stroke-width:0.5;" x="146.399999681" xlink:href="#m2d58b768c6" y="373.646819122"/>
     <use style="stroke:#000000;stroke-width:0.5;" x="158.800025619" xlink:href="#m2d58b768c6" y="373.263714455"/>
     <use style="stroke:#000000;stroke-width:0.5;" x="171.20000146" xlink:href="#m2d58b768c6" y="375.128978028"/>
     <use style="stroke:#000000;stroke-width:0.5;" x="183.59997325" xlink:href="#m2d58b768c6" y="379.359015071"/>
     <use style="stroke:#000000;stroke-width:0.5;" x="195.999977672" xlink:href="#m2d58b768c6" y="384.525881642"/>
     <use style="stroke:#000000;stroke-width:0.5;" x="208.399997114" xlink:href="#m2d58b768c6" y="388.300357044"/>
     <use style="stroke:#000000;stroke-width:0.5;" x="220.799990332" xlink:href="#m2d58b768c6" y="388.8"/>
     <use style="stroke:#000000;stroke-width:0.5;" x="233.200007779" xlink:href="#m2d58b768c6" y="385.748134503"/>
     <use style="stroke:#000000;stroke-width:0.5;" x="245.599985107" xlink:href="#m2d58b768c6" y="380.658201261"/>
     <use style="stroke:#000000;stroke-width:0.5;" x="257.999960101" xlink:href="#m2d58b768c6" y="375.914216438"/>
     <use style="stroke:#000000;stroke-width:0.5;" x="270.399959862" xlink:href="#m2d58b768c6" y="373.354533668"/>
     <use style="stroke:#000000;stroke-width:0.5;" x="282.799957371" xlink:href="#m2d58b768c6" y="373.316272005"/>
     <use style="stroke:#000000;stroke-width:0.5;" x="295.199954524" xlink:href="#m2d58b768c6" y="374.739715747"/>
     <use style="stroke:#000000;stroke-width:0.5;" x="307.599936714" xlink:href="#m2d58b768c6" y="376.036984764"/>
     <use style="stroke:#000000;stroke-width:0.5;" x="319.999949551" xlink:href="#m2d58b768c6" y="375.796688349"/>
     <use style="stroke:#000000;stroke-width:0.5;" x="332.399963392" xlink:href="#m2d58b768c6" y="372.536323944"/>
     <use style="stroke:#000000;stroke-width:0.5;" x="344.799963856" xlink:href="#m2d58b768c6" y="363.533723161"/>
     <use style="stroke:#000000;stroke-width:0.5;" x="357.199971284" xlink:href="#m2d58b768c6" y="344.122499875"/>
     <use style="stroke:#000000;stroke-width:0.5;" x="369.599975057" xlink:href="#m2d58b768c6" y="310.205578205"/>
     <use style="stroke:#000000;stroke-width:0.5;" x="382.000009526" xlink:href="#m2d58b768c6" y="263.799471997"/>
     <use style="stroke:#000000;stroke-width:0.5;" x="394.39999029" xlink:href="#m2d58b768c6" y="214.222770472"/>
     <use style="stroke:#000000;stroke-width:0.5;" x="406.799990223" xlink:href="#m2d58b768c6" y="173.266672069"/>
     <use style="stroke:#000000;stroke-width:0.5;" x="419.199973527" xlink:href="#m2d58b768c6" y="148.336963935"/>
     <use style="stroke:#000000;stroke-width:0.5;" x="431.600038844" xlink:href="#m2d58b768c6" y="137.289769631"/>
     <use style="stroke:#000000;stroke-width:0.5;" x="444.00004272" xlink:href="#m2d58b768c6" y="135.001665703"/>
     <use style="stroke:#000000;stroke-width:0.5;" x="456.399979699" xlink:href="#m2d58b768c6" y="141.496851196"/>
     <use style="stroke:#000000;stroke-width:0.5;" x="468.800053759" xlink:href="#m2d58b768c6" y="161.917899013"/>
     <use style="stroke:#000000;stroke-width:0.5;" x="481.200033865" xlink:href="#m2d58b768c6" y="200.163798871"/>
     <use style="stroke:#000000;stroke-width:0.5;" x="493.600036498" xlink:href="#m2d58b768c6" y="250.132093711"/>
     <use style="stroke:#000000;stroke-width:0.5;" x="506.00002025" xlink:href="#m2d58b768c6" y="298.913147276"/>
    </g>
   </g>
   <g id="line2d_4">
    <path clip-path="url(#p3af86918a5)" d="M 72.000011 280.648921 
L 84.400008 259.339481 
L 96.800015 242.897502 
L 109.20002 229.146336 
L 121.600052 218.744991 
L 134.000007 213.611787 
L 146.4 214.643377 
L 158.800026 220.694442 
L 171.200001 229.118058 
L 183.599973 237.140892 
L 195.999978 242.986077 
L 208.399997 246.081227 
L 220.79999 246.494894 
L 233.200008 244.269227 
L 245.599985 239.298676 
L 257.99996 231.867025 
L 270.39996 223.336324 
L 282.799957 216.243404 
L 295.199955 213.418971 
L 307.599937 216.552462 
L 319.99995 225.252334 
L 332.399963 237.563733 
L 344.799964 252.087877 
L 357.199971 270.312493 
L 369.599975 295.692252 
L 382.00001 328.00526 
L 394.39999 359.776294 
L 406.79999 379.555606 
L 419.199974 381.696433 
L 431.600039 375.57219 
L 444.000043 375.829809 
L 456.39998 384.607849 
L 468.800054 388.8 
L 481.200034 374.799047 
L 493.600036 344.281412 
L 506.00002 309.644686 
" style="fill:none;stroke:#ff00ff;stroke-linecap:square;"/>
    <defs>
     <path d="M -3 3 
L 3 -3 
M -3 -3 
L 3 3 
" id="m2c081412ac" style="stroke:#ff00ff;stroke-width:0.5;"/>
    </defs>
    <g clip-path="url(#p3af86918a5)">
     <use style="fill:#ff00ff;stroke:#ff00ff;stroke-width:0.5;" x="72.0000110766" xlink:href="#m2c081412ac" y="280.648920803"/>
     <use style="fill:#ff00ff;stroke:#ff00ff;stroke-width:0.5;" x="84.4000079981" xlink:href="#m2c081412ac" y="259.339481148"/>
     <use style="fill:#ff00ff;stroke:#ff00ff;stroke-width:0.5;" x="96.8000145771" xlink:href="#m2c081412ac" y="242.89750163"/>
     <use style="fill:#ff00ff;stroke:#ff00ff;stroke-width:0.5;" x="109.200020184" xlink:href="#m2c081412ac" y="229.146335867"/>
     <use style="fill:#ff00ff;stroke:#ff00ff;stroke-width:0.5;" x="121.600051748" xlink:href="#m2c081412ac" y="218.744991372"/>
     <use style="fill:#ff00ff;stroke:#ff00ff;stroke-width:0.5;" x="134.000006733" xlink:href="#m2c081412ac" y="213.611786967"/>
     <use style="fill:#ff00ff;stroke:#ff00ff;stroke-width:0.5;" x="146.399999681" xlink:href="#m2c081412ac" y="214.643377233"/>
     <use style="fill:#ff00ff;stroke:#ff00ff;stroke-width:0.5;" x="158.800025619" xlink:href="#m2c081412ac" y="220.694441582"/>
     <use style="fill:#ff00ff;stroke:#ff00ff;stroke-width:0.5;" x="171.20000146" xlink:href="#m2c081412ac" y="229.118058137"/>
     <use style="fill:#ff00ff;stroke:#ff00ff;stroke-width:0.5;" x="183.59997325" xlink:href="#m2c081412ac" y="237.140892289"/>
     <use style="fill:#ff00ff;stroke:#ff00ff;stroke-width:0.5;" x="195.999977672" xlink:href="#m2c081412ac" y="242.986077442"/>
     <use style="fill:#ff00ff;stroke:#ff00ff;stroke-width:0.5;" x="208.399997114" xlink:href="#m2c081412ac" y="246.081227111"/>
     <use style="fill:#ff00ff;stroke:#ff00ff;stroke-width:0.5;" x="220.799990332" xlink:href="#m2c081412ac" y="246.494894388"/>
     <use style="fill:#ff00ff;stroke:#ff00ff;stroke-width:0.5;" x="233.200007779" xlink:href="#m2c081412ac" y="244.269226916"/>
     <use style="fill:#ff00ff;stroke:#ff00ff;stroke-width:0.5;" x="245.599985107" xlink:href="#m2c081412ac" y="239.298676248"/>
     <use style="fill:#ff00ff;stroke:#ff00ff;stroke-width:0.5;" x="257.999960101" xlink:href="#m2c081412ac" y="231.867024722"/>
     <use style="fill:#ff00ff;stroke:#ff00ff;stroke-width:0.5;" x="270.399959862" xlink:href="#m2c081412ac" y="223.336324081"/>
     <use style="fill:#ff00ff;stroke:#ff00ff;stroke-width:0.5;" x="282.799957371" xlink:href="#m2c081412ac" y="216.243403937"/>
     <use style="fill:#ff00ff;stroke:#ff00ff;stroke-width:0.5;" x="295.199954524" xlink:href="#m2c081412ac" y="213.418971458"/>
     <use style="fill:#ff00ff;stroke:#ff00ff;stroke-width:0.5;" x="307.599936714" xlink:href="#m2c081412ac" y="216.552461961"/>
     <use style="fill:#ff00ff;stroke:#ff00ff;stroke-width:0.5;" x="319.999949551" xlink:href="#m2c081412ac" y="225.252333914"/>
     <use style="fill:#ff00ff;stroke:#ff00ff;stroke-width:0.5;" x="332.399963392" xlink:href="#m2c081412ac" y="237.563732922"/>
     <use style="fill:#ff00ff;stroke:#ff00ff;stroke-width:0.5;" x="344.799963856" xlink:href="#m2c081412ac" y="252.087876969"/>
     <use style="fill:#ff00ff;stroke:#ff00ff;stroke-width:0.5;" x="357.199971284" xlink:href="#m2c081412ac" y="270.312492506"/>
     <use style="fill:#ff00ff;stroke:#ff00ff;stroke-width:0.5;" x="369.599975057" xlink:href="#m2c081412ac" y="295.692251608"/>
     <use style="fill:#ff00ff;stroke:#ff00ff;stroke-width:0.5;" x="382.000009526" xlink:href="#m2c081412ac" y="328.00525998"/>
     <use style="fill:#ff00ff;stroke:#ff00ff;stroke-width:0.5;" x="394.39999029" xlink:href="#m2c081412ac" y="359.776294405"/>
     <use style="fill:#ff00ff;stroke:#ff00ff;stroke-width:0.5;" x="406.799990223" xlink:href="#m2c081412ac" y="379.555606309"/>
     <use style="fill:#ff00ff;stroke:#ff00ff;stroke-width:0.5;" x="419.199973527" xlink:href="#m2c081412ac" y="381.696433382"/>
     <use style="fill:#ff00ff;stroke:#ff00ff;stroke-width:0.5;" x="431.600038844" xlink:href="#m2c081412ac" y="375.572189724"/>
     <use style="fill:#ff00ff;stroke:#ff00ff;stroke-width:0.5;" x="444.00004272" xlink:href="#m2c081412ac" y="375.82980933"/>
     <use style="fill:#ff00ff;stroke:#ff00ff;stroke-width:0.5;" x="456.399979699" xlink:href="#m2c081412ac" y="384.607848841"/>
     <use style="fill:#ff00ff;stroke:#ff00ff;stroke-width:0.5;" x="468.800053759" xlink:href="#m2c081412ac" y="388.8"/>
     <use style="fill:#ff00ff;stroke:#ff00ff;stroke-width:0.5;" x="481.200033865" xlink:href="#m2c081412ac" y="374.799047009"/>
     <use style="fill:#ff00ff;stroke:#ff00ff;stroke-width:0.5;" x="493.600036498" xlink:href="#m2c081412ac" y="344.281412214"/>
     <use style="fill:#ff00ff;stroke:#ff00ff;stroke-width:0.5;" x="506.00002025" xlink:href="#m2c081412ac" y="309.644685541"/>
    </g>
   </g>
   <g id="line2d_5">
    <path clip-path="url(#p3af86918a5)" d="M 72.000011 369.211083 
L 84.400008 369.380017 
L 96.800015 366.484436 
L 109.20002 360.534011 
L 121.600052 351.830111 
L 134.000007 343.830639 
L 146.4 341.711848 
L 158.800026 348.089706 
L 171.200001 360.626924 
L 183.599973 373.92062 
L 195.999978 383.55045 
L 208.399997 388.280423 
L 220.79999 388.8 
L 233.200008 385.257719 
L 245.599985 376.882648 
L 257.99996 364.190326 
L 270.39996 350.882081 
L 282.799957 342.524178 
L 295.199955 342.599695 
L 307.599937 349.6963 
L 319.99995 358.849077 
L 332.399963 365.799041 
L 344.799964 369.509729 
L 357.199971 370.094229 
L 369.599975 365.701678 
L 382.00001 353.643139 
L 394.39999 333.278963 
L 406.79999 308.260276 
L 419.199974 285.951179 
L 431.600039 271.823026 
L 444.000043 268.912857 
L 456.39998 278.444453 
L 468.800054 298.697596 
L 481.200034 324.95301 
L 493.600036 348.721451 
L 506.00002 363.478846 
" style="fill:none;stroke:#008000;stroke-linecap:square;"/>
    <defs>
     <path d="M 0 3 
C 0.795609 3 1.55874 2.683901 2.12132 2.12132 
C 2.683901 1.55874 3 0.795609 3 0 
C 3 -0.795609 2.683901 -1.55874 2.12132 -2.12132 
C 1.55874 -2.683901 0.795609 -3 0 -3 
C -0.795609 -3 -1.55874 -2.683901 -2.12132 -2.12132 
C -2.683901 -1.55874 -3 -0.795609 -3 0 
C -3 0.795609 -2.683901 1.55874 -2.12132 2.12132 
C -1.55874 2.683901 -0.795609 3 0 3 
z
" id="mea2fbee222" style="stroke:#000000;stroke-width:0.5;"/>
    </defs>
    <g clip-path="url(#p3af86918a5)">
     <use style="fill:#008000;stroke:#000000;stroke-width:0.5;" x="72.0000110766" xlink:href="#mea2fbee222" y="369.211083347"/>
     <use style="fill:#008000;stroke:#000000;stroke-width:0.5;" x="84.4000079981" xlink:href="#mea2fbee222" y="369.380017068"/>
     <use style="fill:#008000;stroke:#000000;stroke-width:0.5;" x="96.8000145771" xlink:href="#mea2fbee222" y="366.484435935"/>
     <use style="fill:#008000;stroke:#000000;stroke-width:0.5;" x="109.200020184" xlink:href="#mea2fbee222" y="360.534010912"/>
     <use style="fill:#008000;stroke:#000000;stroke-width:0.5;" x="121.600051748" xlink:href="#mea2fbee222" y="351.830110928"/>
     <use style="fill:#008000;stroke:#000000;stroke-width:0.5;" x="134.000006733" xlink:href="#mea2fbee222" y="343.830639252"/>
     <use style="fill:#008000;stroke:#000000;stroke-width:0.5;" x="146.399999681" xlink:href="#mea2fbee222" y="341.711847828"/>
     <use style="fill:#008000;stroke:#000000;stroke-width:0.5;" x="158.800025619" xlink:href="#mea2fbee222" y="348.089705522"/>
     <use style="fill:#008000;stroke:#000000;stroke-width:0.5;" x="171.20000146" xlink:href="#mea2fbee222" y="360.626924055"/>
     <use style="fill:#008000;stroke:#000000;stroke-width:0.5;" x="183.59997325" xlink:href="#mea2fbee222" y="373.920620382"/>
     <use style="fill:#008000;stroke:#000000;stroke-width:0.5;" x="195.999977672" xlink:href="#mea2fbee222" y="383.550450102"/>
     <use style="fill:#008000;stroke:#000000;stroke-width:0.5;" x="208.399997114" xlink:href="#mea2fbee222" y="388.280423158"/>
     <use style="fill:#008000;stroke:#000000;stroke-width:0.5;" x="220.799990332" xlink:href="#mea2fbee222" y="388.8"/>
     <use style="fill:#008000;stroke:#000000;stroke-width:0.5;" x="233.200007779" xlink:href="#mea2fbee222" y="385.257719241"/>
     <use style="fill:#008000;stroke:#000000;stroke-width:0.5;" x="245.599985107" xlink:href="#mea2fbee222" y="376.882647735"/>
     <use style="fill:#008000;stroke:#000000;stroke-width:0.5;" x="257.999960101" xlink:href="#mea2fbee222" y="364.190325521"/>
     <use style="fill:#008000;stroke:#000000;stroke-width:0.5;" x="270.399959862" xlink:href="#mea2fbee222" y="350.882080639"/>
     <use style="fill:#008000;stroke:#000000;stroke-width:0.5;" x="282.799957371" xlink:href="#mea2fbee222" y="342.524178033"/>
     <use style="fill:#008000;stroke:#000000;stroke-width:0.5;" x="295.199954524" xlink:href="#mea2fbee222" y="342.599695268"/>
     <use style="fill:#008000;stroke:#000000;stroke-width:0.5;" x="307.599936714" xlink:href="#mea2fbee222" y="349.696300128"/>
     <use style="fill:#008000;stroke:#000000;stroke-width:0.5;" x="319.999949551" xlink:href="#mea2fbee222" y="358.849077096"/>
     <use style="fill:#008000;stroke:#000000;stroke-width:0.5;" x="332.399963392" xlink:href="#mea2fbee222" y="365.799040956"/>
     <use style="fill:#008000;stroke:#000000;stroke-width:0.5;" x="344.799963856" xlink:href="#mea2fbee222" y="369.509729053"/>
     <use style="fill:#008000;stroke:#000000;stroke-width:0.5;" x="357.199971284" xlink:href="#mea2fbee222" y="370.094228881"/>
     <use style="fill:#008000;stroke:#000000;stroke-width:0.5;" x="369.599975057" xlink:href="#mea2fbee222" y="365.701678409"/>
     <use style="fill:#008000;stroke:#000000;stroke-width:0.5;" x="382.000009526" xlink:href="#mea2fbee222" y="353.643139476"/>
     <use style="fill:#008000;stroke:#000000;stroke-width:0.5;" x="394.39999029" xlink:href="#mea2fbee222" y="333.278962549"/>
     <use style="fill:#008000;stroke:#000000;stroke-width:0.5;" x="406.799990223" xlink:href="#mea2fbee222" y="308.260276423"/>
     <use style="fill:#008000;stroke:#000000;stroke-width:0.5;" x="419.199973527" xlink:href="#mea2fbee222" y="285.951179056"/>
     <use style="fill:#008000;stroke:#000000;stroke-width:0.5;" x="431.600038844" xlink:href="#mea2fbee222" y="271.823025691"/>
     <use style="fill:#008000;stroke:#000000;stroke-width:0.5;" x="444.00004272" xlink:href="#mea2fbee222" y="268.91285679"/>
     <use style="fill:#008000;stroke:#000000;stroke-width:0.5;" x="456.399979699" xlink:href="#mea2fbee222" y="278.444453192"/>
     <use style="fill:#008000;stroke:#000000;stroke-width:0.5;" x="468.800053759" xlink:href="#mea2fbee222" y="298.697596117"/>
     <use style="fill:#008000;stroke:#000000;stroke-width:0.5;" x="481.200033865" xlink:href="#mea2fbee222" y="324.953010041"/>
     <use style="fill:#008000;stroke:#000000;stroke-width:0.5;" x="493.600036498" xlink:href="#mea2fbee222" y="348.721451092"/>
     <use style="fill:#008000;stroke:#000000;stroke-width:0.5;" x="506.00002025" xlink:href="#mea2fbee222" y="363.478846206"/>
    </g>
   </g>
   <g id="patch_3">
    <path d="M 72 388.8 
L 72 43.2 
" style="fill:none;stroke:#000000;stroke-linecap:square;stroke-linejoin:miter;"/>
   </g>
   <g id="patch_4">
    <path d="M 72 388.8 
L 518.4 388.8 
" style="fill:none;stroke:#000000;stroke-linecap:square;stroke-linejoin:miter;"/>
   </g>
   <g id="patch_5">
    <path d="M 72 43.2 
L 518.4 43.2 
" style="fill:none;stroke:#000000;stroke-linecap:square;stroke-linejoin:miter;"/>
   </g>
   <g id="patch_6">
    <path d="M 518.4 388.8 
L 518.4 43.2 
" style="fill:none;stroke:#000000;stroke-linecap:square;stroke-linejoin:miter;"/>
   </g>
   <g id="matplotlib.axis_1">
    <g id="xtick_1">
     <g id="line2d_6">
      <defs>
       <path d="M 0 0 
L 0 -4 
" id="m8e151bc16b" style="stroke:#000000;stroke-width:0.5;"/>
      </defs>
      <g>
       <use style="stroke:#000000;stroke-width:0.5;" x="72.0" xlink:href="#m8e151bc16b" y="388.8"/>
      </g>
     </g>
     <g id="line2d_7">
      <defs>
       <path d="M 0 0 
L 0 4 
" id="m1b6efa5457" style="stroke:#000000;stroke-width:0.5;"/>
      </defs>
      <g>
       <use style="stroke:#000000;stroke-width:0.5;" x="72.0" xlink:href="#m1b6efa5457" y="43.2"/>
      </g>
     </g>
     <g id="text_1">
      <!-- −180 -->
      <defs>
       <path d="M 31.78125 66.40625 
Q 24.171875 66.40625 20.328125 58.90625 
Q 16.5 51.421875 16.5 36.375 
Q 16.5 21.390625 20.328125 13.890625 
Q 24.171875 6.390625 31.78125 6.390625 
Q 39.453125 6.390625 43.28125 13.890625 
Q 47.125 21.390625 47.125 36.375 
Q 47.125 51.421875 43.28125 58.90625 
Q 39.453125 66.40625 31.78125 66.40625 
M 31.78125 74.21875 
Q 44.046875 74.21875 50.515625 64.515625 
Q 56.984375 54.828125 56.984375 36.375 
Q 56.984375 17.96875 50.515625 8.265625 
Q 44.046875 -1.421875 31.78125 -1.421875 
Q 19.53125 -1.421875 13.0625 8.265625 
Q 6.59375 17.96875 6.59375 36.375 
Q 6.59375 54.828125 13.0625 64.515625 
Q 19.53125 74.21875 31.78125 74.21875 
" id="BitstreamVeraSans-Roman-30"/>
       <path d="M 10.59375 35.5 
L 73.1875 35.5 
L 73.1875 27.203125 
L 10.59375 27.203125 
z
" id="BitstreamVeraSans-Roman-2212"/>
       <path d="M 12.40625 8.296875 
L 28.515625 8.296875 
L 28.515625 63.921875 
L 10.984375 60.40625 
L 10.984375 69.390625 
L 28.421875 72.90625 
L 38.28125 72.90625 
L 38.28125 8.296875 
L 54.390625 8.296875 
L 54.390625 0 
L 12.40625 0 
z
" id="BitstreamVeraSans-Roman-31"/>
       <path d="M 31.78125 34.625 
Q 24.75 34.625 20.71875 30.859375 
Q 16.703125 27.09375 16.703125 20.515625 
Q 16.703125 13.921875 20.71875 10.15625 
Q 24.75 6.390625 31.78125 6.390625 
Q 38.8125 6.390625 42.859375 10.171875 
Q 46.921875 13.96875 46.921875 20.515625 
Q 46.921875 27.09375 42.890625 30.859375 
Q 38.875 34.625 31.78125 34.625 
M 21.921875 38.8125 
Q 15.578125 40.375 12.03125 44.71875 
Q 8.5 49.078125 8.5 55.328125 
Q 8.5 64.0625 14.71875 69.140625 
Q 20.953125 74.21875 31.78125 74.21875 
Q 42.671875 74.21875 48.875 69.140625 
Q 55.078125 64.0625 55.078125 55.328125 
Q 55.078125 49.078125 51.53125 44.71875 
Q 48 40.375 41.703125 38.8125 
Q 48.828125 37.15625 52.796875 32.3125 
Q 56.78125 27.484375 56.78125 20.515625 
Q 56.78125 9.90625 50.3125 4.234375 
Q 43.84375 -1.421875 31.78125 -1.421875 
Q 19.734375 -1.421875 13.25 4.234375 
Q 6.78125 9.90625 6.78125 20.515625 
Q 6.78125 27.484375 10.78125 32.3125 
Q 14.796875 37.15625 21.921875 38.8125 
M 18.3125 54.390625 
Q 18.3125 48.734375 21.84375 45.5625 
Q 25.390625 42.390625 31.78125 42.390625 
Q 38.140625 42.390625 41.71875 45.5625 
Q 45.3125 48.734375 45.3125 54.390625 
Q 45.3125 60.0625 41.71875 63.234375 
Q 38.140625 66.40625 31.78125 66.40625 
Q 25.390625 66.40625 21.84375 63.234375 
Q 18.3125 60.0625 18.3125 54.390625 
" id="BitstreamVeraSans-Roman-38"/>
      </defs>
      <g transform="translate(55.5196875 401.918125)scale(0.12 -0.12)">
       <use xlink:href="#BitstreamVeraSans-Roman-2212"/>
       <use x="83.7890625" xlink:href="#BitstreamVeraSans-Roman-31"/>
       <use x="147.412109375" xlink:href="#BitstreamVeraSans-Roman-38"/>
       <use x="211.03515625" xlink:href="#BitstreamVeraSans-Roman-30"/>
      </g>
     </g>
    </g>
    <g id="xtick_2">
     <g id="line2d_8">
      <g>
       <use style="stroke:#000000;stroke-width:0.5;" x="127.8" xlink:href="#m8e151bc16b" y="388.8"/>
      </g>
     </g>
     <g id="line2d_9">
      <g>
       <use style="stroke:#000000;stroke-width:0.5;" x="127.8" xlink:href="#m1b6efa5457" y="43.2"/>
      </g>
     </g>
     <g id="text_2">
      <!-- −135 -->
      <defs>
       <path d="M 10.796875 72.90625 
L 49.515625 72.90625 
L 49.515625 64.59375 
L 19.828125 64.59375 
L 19.828125 46.734375 
Q 21.96875 47.46875 24.109375 47.828125 
Q 26.265625 48.1875 28.421875 48.1875 
Q 40.625 48.1875 47.75 41.5 
Q 54.890625 34.8125 54.890625 23.390625 
Q 54.890625 11.625 47.5625 5.09375 
Q 40.234375 -1.421875 26.90625 -1.421875 
Q 22.3125 -1.421875 17.546875 -0.640625 
Q 12.796875 0.140625 7.71875 1.703125 
L 7.71875 11.625 
Q 12.109375 9.234375 16.796875 8.0625 
Q 21.484375 6.890625 26.703125 6.890625 
Q 35.15625 6.890625 40.078125 11.328125 
Q 45.015625 15.765625 45.015625 23.390625 
Q 45.015625 31 40.078125 35.4375 
Q 35.15625 39.890625 26.703125 39.890625 
Q 22.75 39.890625 18.8125 39.015625 
Q 14.890625 38.140625 10.796875 36.28125 
z
" id="BitstreamVeraSans-Roman-35"/>
       <path d="M 40.578125 39.3125 
Q 47.65625 37.796875 51.625 33 
Q 55.609375 28.21875 55.609375 21.1875 
Q 55.609375 10.40625 48.1875 4.484375 
Q 40.765625 -1.421875 27.09375 -1.421875 
Q 22.515625 -1.421875 17.65625 -0.515625 
Q 12.796875 0.390625 7.625 2.203125 
L 7.625 11.71875 
Q 11.71875 9.328125 16.59375 8.109375 
Q 21.484375 6.890625 26.8125 6.890625 
Q 36.078125 6.890625 40.9375 10.546875 
Q 45.796875 14.203125 45.796875 21.1875 
Q 45.796875 27.640625 41.28125 31.265625 
Q 36.765625 34.90625 28.71875 34.90625 
L 20.21875 34.90625 
L 20.21875 43.015625 
L 29.109375 43.015625 
Q 36.375 43.015625 40.234375 45.921875 
Q 44.09375 48.828125 44.09375 54.296875 
Q 44.09375 59.90625 40.109375 62.90625 
Q 36.140625 65.921875 28.71875 65.921875 
Q 24.65625 65.921875 20.015625 65.03125 
Q 15.375 64.15625 9.8125 62.3125 
L 9.8125 71.09375 
Q 15.4375 72.65625 20.34375 73.4375 
Q 25.25 74.21875 29.59375 74.21875 
Q 40.828125 74.21875 47.359375 69.109375 
Q 53.90625 64.015625 53.90625 55.328125 
Q 53.90625 49.265625 50.4375 45.09375 
Q 46.96875 40.921875 40.578125 39.3125 
" id="BitstreamVeraSans-Roman-33"/>
      </defs>
      <g transform="translate(111.3196875 401.918125)scale(0.12 -0.12)">
       <use xlink:href="#BitstreamVeraSans-Roman-2212"/>
       <use x="83.7890625" xlink:href="#BitstreamVeraSans-Roman-31"/>
       <use x="147.412109375" xlink:href="#BitstreamVeraSans-Roman-33"/>
       <use x="211.03515625" xlink:href="#BitstreamVeraSans-Roman-35"/>
      </g>
     </g>
    </g>
    <g id="xtick_3">
     <g id="line2d_10">
      <g>
       <use style="stroke:#000000;stroke-width:0.5;" x="183.6" xlink:href="#m8e151bc16b" y="388.8"/>
      </g>
     </g>
     <g id="line2d_11">
      <g>
       <use style="stroke:#000000;stroke-width:0.5;" x="183.6" xlink:href="#m1b6efa5457" y="43.2"/>
      </g>
     </g>
     <g id="text_3">
      <!-- −90 -->
      <defs>
       <path d="M 10.984375 1.515625 
L 10.984375 10.5 
Q 14.703125 8.734375 18.5 7.8125 
Q 22.3125 6.890625 25.984375 6.890625 
Q 35.75 6.890625 40.890625 13.453125 
Q 46.046875 20.015625 46.78125 33.40625 
Q 43.953125 29.203125 39.59375 26.953125 
Q 35.25 24.703125 29.984375 24.703125 
Q 19.046875 24.703125 12.671875 31.3125 
Q 6.296875 37.9375 6.296875 49.421875 
Q 6.296875 60.640625 12.9375 67.421875 
Q 19.578125 74.21875 30.609375 74.21875 
Q 43.265625 74.21875 49.921875 64.515625 
Q 56.59375 54.828125 56.59375 36.375 
Q 56.59375 19.140625 48.40625 8.859375 
Q 40.234375 -1.421875 26.421875 -1.421875 
Q 22.703125 -1.421875 18.890625 -0.6875 
Q 15.09375 0.046875 10.984375 1.515625 
M 30.609375 32.421875 
Q 37.25 32.421875 41.125 36.953125 
Q 45.015625 41.5 45.015625 49.421875 
Q 45.015625 57.28125 41.125 61.84375 
Q 37.25 66.40625 30.609375 66.40625 
Q 23.96875 66.40625 20.09375 61.84375 
Q 16.21875 57.28125 16.21875 49.421875 
Q 16.21875 41.5 20.09375 36.953125 
Q 23.96875 32.421875 30.609375 32.421875 
" id="BitstreamVeraSans-Roman-39"/>
      </defs>
      <g transform="translate(170.9371875 401.918125)scale(0.12 -0.12)">
       <use xlink:href="#BitstreamVeraSans-Roman-2212"/>
       <use x="83.7890625" xlink:href="#BitstreamVeraSans-Roman-39"/>
       <use x="147.412109375" xlink:href="#BitstreamVeraSans-Roman-30"/>
      </g>
     </g>
    </g>
    <g id="xtick_4">
     <g id="line2d_12">
      <g>
       <use style="stroke:#000000;stroke-width:0.5;" x="239.4" xlink:href="#m8e151bc16b" y="388.8"/>
      </g>
     </g>
     <g id="line2d_13">
      <g>
       <use style="stroke:#000000;stroke-width:0.5;" x="239.4" xlink:href="#m1b6efa5457" y="43.2"/>
      </g>
     </g>
     <g id="text_4">
      <!-- −45 -->
      <defs>
       <path d="M 37.796875 64.3125 
L 12.890625 25.390625 
L 37.796875 25.390625 
z
M 35.203125 72.90625 
L 47.609375 72.90625 
L 47.609375 25.390625 
L 58.015625 25.390625 
L 58.015625 17.1875 
L 47.609375 17.1875 
L 47.609375 0 
L 37.796875 0 
L 37.796875 17.1875 
L 4.890625 17.1875 
L 4.890625 26.703125 
z
" id="BitstreamVeraSans-Roman-34"/>
      </defs>
      <g transform="translate(226.7371875 401.918125)scale(0.12 -0.12)">
       <use xlink:href="#BitstreamVeraSans-Roman-2212"/>
       <use x="83.7890625" xlink:href="#BitstreamVeraSans-Roman-34"/>
       <use x="147.412109375" xlink:href="#BitstreamVeraSans-Roman-35"/>
      </g>
     </g>
    </g>
    <g id="xtick_5">
     <g id="line2d_14">
      <g>
       <use style="stroke:#000000;stroke-width:0.5;" x="295.2" xlink:href="#m8e151bc16b" y="388.8"/>
      </g>
     </g>
     <g id="line2d_15">
      <g>
       <use style="stroke:#000000;stroke-width:0.5;" x="295.2" xlink:href="#m1b6efa5457" y="43.2"/>
      </g>
     </g>
     <g id="text_5">
      <!-- 0 -->
      <g transform="translate(291.3825 401.918125)scale(0.12 -0.12)">
       <use xlink:href="#BitstreamVeraSans-Roman-30"/>
      </g>
     </g>
    </g>
    <g id="xtick_6">
     <g id="line2d_16">
      <g>
       <use style="stroke:#000000;stroke-width:0.5;" x="351.0" xlink:href="#m8e151bc16b" y="388.8"/>
      </g>
     </g>
     <g id="line2d_17">
      <g>
       <use style="stroke:#000000;stroke-width:0.5;" x="351.0" xlink:href="#m1b6efa5457" y="43.2"/>
      </g>
     </g>
     <g id="text_6">
      <!-- 45 -->
      <g transform="translate(343.365 401.918125)scale(0.12 -0.12)">
       <use xlink:href="#BitstreamVeraSans-Roman-34"/>
       <use x="63.623046875" xlink:href="#BitstreamVeraSans-Roman-35"/>
      </g>
     </g>
    </g>
    <g id="xtick_7">
     <g id="line2d_18">
      <g>
       <use style="stroke:#000000;stroke-width:0.5;" x="406.8" xlink:href="#m8e151bc16b" y="388.8"/>
      </g>
     </g>
     <g id="line2d_19">
      <g>
       <use style="stroke:#000000;stroke-width:0.5;" x="406.8" xlink:href="#m1b6efa5457" y="43.2"/>
      </g>
     </g>
     <g id="text_7">
      <!-- 90 -->
      <g transform="translate(399.165 401.918125)scale(0.12 -0.12)">
       <use xlink:href="#BitstreamVeraSans-Roman-39"/>
       <use x="63.623046875" xlink:href="#BitstreamVeraSans-Roman-30"/>
      </g>
     </g>
    </g>
    <g id="xtick_8">
     <g id="line2d_20">
      <g>
       <use style="stroke:#000000;stroke-width:0.5;" x="462.6" xlink:href="#m8e151bc16b" y="388.8"/>
      </g>
     </g>
     <g id="line2d_21">
      <g>
       <use style="stroke:#000000;stroke-width:0.5;" x="462.6" xlink:href="#m1b6efa5457" y="43.2"/>
      </g>
     </g>
     <g id="text_8">
      <!-- 135 -->
      <g transform="translate(451.1475 401.918125)scale(0.12 -0.12)">
       <use xlink:href="#BitstreamVeraSans-Roman-31"/>
       <use x="63.623046875" xlink:href="#BitstreamVeraSans-Roman-33"/>
       <use x="127.24609375" xlink:href="#BitstreamVeraSans-Roman-35"/>
      </g>
     </g>
    </g>
    <g id="xtick_9">
     <g id="line2d_22">
      <g>
       <use style="stroke:#000000;stroke-width:0.5;" x="518.4" xlink:href="#m8e151bc16b" y="388.8"/>
      </g>
     </g>
     <g id="line2d_23">
      <g>
       <use style="stroke:#000000;stroke-width:0.5;" x="518.4" xlink:href="#m1b6efa5457" y="43.2"/>
      </g>
     </g>
     <g id="text_9">
      <!-- 180 -->
      <g transform="translate(506.9475 401.918125)scale(0.12 -0.12)">
       <use xlink:href="#BitstreamVeraSans-Roman-31"/>
       <use x="63.623046875" xlink:href="#BitstreamVeraSans-Roman-38"/>
       <use x="127.24609375" xlink:href="#BitstreamVeraSans-Roman-30"/>
      </g>
     </g>
    </g>
    <g id="text_10">
     <!-- Phi -->
     <defs>
      <path d="M 19.671875 64.796875 
L 19.671875 37.40625 
L 32.078125 37.40625 
Q 38.96875 37.40625 42.71875 40.96875 
Q 46.484375 44.53125 46.484375 51.125 
Q 46.484375 57.671875 42.71875 61.234375 
Q 38.96875 64.796875 32.078125 64.796875 
z
M 9.8125 72.90625 
L 32.078125 72.90625 
Q 44.34375 72.90625 50.609375 67.359375 
Q 56.890625 61.8125 56.890625 51.125 
Q 56.890625 40.328125 50.609375 34.8125 
Q 44.34375 29.296875 32.078125 29.296875 
L 19.671875 29.296875 
L 19.671875 0 
L 9.8125 0 
z
" id="BitstreamVeraSans-Roman-50"/>
      <path d="M 9.421875 54.6875 
L 18.40625 54.6875 
L 18.40625 0 
L 9.421875 0 
z
M 9.421875 75.984375 
L 18.40625 75.984375 
L 18.40625 64.59375 
L 9.421875 64.59375 
z
" id="BitstreamVeraSans-Roman-69"/>
      <path d="M 54.890625 33.015625 
L 54.890625 0 
L 45.90625 0 
L 45.90625 32.71875 
Q 45.90625 40.484375 42.875 44.328125 
Q 39.84375 48.1875 33.796875 48.1875 
Q 26.515625 48.1875 22.3125 43.546875 
Q 18.109375 38.921875 18.109375 30.90625 
L 18.109375 0 
L 9.078125 0 
L 9.078125 75.984375 
L 18.109375 75.984375 
L 18.109375 46.1875 
Q 21.34375 51.125 25.703125 53.5625 
Q 30.078125 56 35.796875 56 
Q 45.21875 56 50.046875 50.171875 
Q 54.890625 44.34375 54.890625 33.015625 
" id="BitstreamVeraSans-Roman-68"/>
     </defs>
     <g transform="translate(286.1128125 418.531875)scale(0.12 -0.12)">
      <use xlink:href="#BitstreamVeraSans-Roman-50"/>
      <use x="60.302734375" xlink:href="#BitstreamVeraSans-Roman-68"/>
      <use x="123.681640625" xlink:href="#BitstreamVeraSans-Roman-69"/>
     </g>
    </g>
   </g>
   <g id="matplotlib.axis_2">
    <g id="ytick_1">
     <g id="line2d_24">
      <defs>
       <path d="M 0 0 
L 4 0 
" id="m659711eb40" style="stroke:#000000;stroke-width:0.5;"/>
      </defs>
      <g>
       <use style="stroke:#000000;stroke-width:0.5;" x="72.0" xlink:href="#m659711eb40" y="388.8"/>
      </g>
     </g>
     <g id="line2d_25">
      <defs>
       <path d="M 0 0 
L -4 0 
" id="mfa2aaf6ae0" style="stroke:#000000;stroke-width:0.5;"/>
      </defs>
      <g>
       <use style="stroke:#000000;stroke-width:0.5;" x="518.4" xlink:href="#mfa2aaf6ae0" y="388.8"/>
      </g>
     </g>
     <g id="text_11">
      <!-- 0 -->
      <g transform="translate(60.365 392.11125)scale(0.12 -0.12)">
       <use xlink:href="#BitstreamVeraSans-Roman-30"/>
      </g>
     </g>
    </g>
    <g id="ytick_2">
     <g id="line2d_26">
      <g>
       <use style="stroke:#000000;stroke-width:0.5;" x="72.0" xlink:href="#m659711eb40" y="319.68"/>
      </g>
     </g>
     <g id="line2d_27">
      <g>
       <use style="stroke:#000000;stroke-width:0.5;" x="518.4" xlink:href="#mfa2aaf6ae0" y="319.68"/>
      </g>
     </g>
     <g id="text_12">
      <!-- 5 -->
      <g transform="translate(60.365 322.99125)scale(0.12 -0.12)">
       <use xlink:href="#BitstreamVeraSans-Roman-35"/>
      </g>
     </g>
    </g>
    <g id="ytick_3">
     <g id="line2d_28">
      <g>
       <use style="stroke:#000000;stroke-width:0.5;" x="72.0" xlink:href="#m659711eb40" y="250.56"/>
      </g>
     </g>
     <g id="line2d_29">
      <g>
       <use style="stroke:#000000;stroke-width:0.5;" x="518.4" xlink:href="#mfa2aaf6ae0" y="250.56"/>
      </g>
     </g>
     <g id="text_13">
      <!-- 10 -->
      <g transform="translate(52.73 253.87125)scale(0.12 -0.12)">
       <use xlink:href="#BitstreamVeraSans-Roman-31"/>
       <use x="63.623046875" xlink:href="#BitstreamVeraSans-Roman-30"/>
      </g>
     </g>
    </g>
    <g id="ytick_4">
     <g id="line2d_30">
      <g>
       <use style="stroke:#000000;stroke-width:0.5;" x="72.0" xlink:href="#m659711eb40" y="181.44"/>
      </g>
     </g>
     <g id="line2d_31">
      <g>
       <use style="stroke:#000000;stroke-width:0.5;" x="518.4" xlink:href="#mfa2aaf6ae0" y="181.44"/>
      </g>
     </g>
     <g id="text_14">
      <!-- 15 -->
      <g transform="translate(52.73 184.75125)scale(0.12 -0.12)">
       <use xlink:href="#BitstreamVeraSans-Roman-31"/>
       <use x="63.623046875" xlink:href="#BitstreamVeraSans-Roman-35"/>
      </g>
     </g>
    </g>
    <g id="ytick_5">
     <g id="line2d_32">
      <g>
       <use style="stroke:#000000;stroke-width:0.5;" x="72.0" xlink:href="#m659711eb40" y="112.32"/>
      </g>
     </g>
     <g id="line2d_33">
      <g>
       <use style="stroke:#000000;stroke-width:0.5;" x="518.4" xlink:href="#mfa2aaf6ae0" y="112.32"/>
      </g>
     </g>
     <g id="text_15">
      <!-- 20 -->
      <defs>
       <path d="M 19.1875 8.296875 
L 53.609375 8.296875 
L 53.609375 0 
L 7.328125 0 
L 7.328125 8.296875 
Q 12.9375 14.109375 22.625 23.890625 
Q 32.328125 33.6875 34.8125 36.53125 
Q 39.546875 41.84375 41.421875 45.53125 
Q 43.3125 49.21875 43.3125 52.78125 
Q 43.3125 58.59375 39.234375 62.25 
Q 35.15625 65.921875 28.609375 65.921875 
Q 23.96875 65.921875 18.8125 64.3125 
Q 13.671875 62.703125 7.8125 59.421875 
L 7.8125 69.390625 
Q 13.765625 71.78125 18.9375 73 
Q 24.125 74.21875 28.421875 74.21875 
Q 39.75 74.21875 46.484375 68.546875 
Q 53.21875 62.890625 53.21875 53.421875 
Q 53.21875 48.921875 51.53125 44.890625 
Q 49.859375 40.875 45.40625 35.40625 
Q 44.1875 33.984375 37.640625 27.21875 
Q 31.109375 20.453125 19.1875 8.296875 
" id="BitstreamVeraSans-Roman-32"/>
      </defs>
      <g transform="translate(52.73 115.63125)scale(0.12 -0.12)">
       <use xlink:href="#BitstreamVeraSans-Roman-32"/>
       <use x="63.623046875" xlink:href="#BitstreamVeraSans-Roman-30"/>
      </g>
     </g>
    </g>
    <g id="ytick_6">
     <g id="line2d_34">
      <g>
       <use style="stroke:#000000;stroke-width:0.5;" x="72.0" xlink:href="#m659711eb40" y="43.2"/>
      </g>
     </g>
     <g id="line2d_35">
      <g>
       <use style="stroke:#000000;stroke-width:0.5;" x="518.4" xlink:href="#mfa2aaf6ae0" y="43.2"/>
      </g>
     </g>
     <g id="text_16">
      <!-- 25 -->
      <g transform="translate(52.73 46.51125)scale(0.12 -0.12)">
       <use xlink:href="#BitstreamVeraSans-Roman-32"/>
       <use x="63.623046875" xlink:href="#BitstreamVeraSans-Roman-35"/>
      </g>
     </g>
    </g>
    <g id="text_17">
     <!-- kcal/mol -->
     <defs>
      <path d="M 48.78125 52.59375 
L 48.78125 44.1875 
Q 44.96875 46.296875 41.140625 47.34375 
Q 37.3125 48.390625 33.40625 48.390625 
Q 24.65625 48.390625 19.8125 42.84375 
Q 14.984375 37.3125 14.984375 27.296875 
Q 14.984375 17.28125 19.8125 11.734375 
Q 24.65625 6.203125 33.40625 6.203125 
Q 37.3125 6.203125 41.140625 7.25 
Q 44.96875 8.296875 48.78125 10.40625 
L 48.78125 2.09375 
Q 45.015625 0.34375 40.984375 -0.53125 
Q 36.96875 -1.421875 32.421875 -1.421875 
Q 20.0625 -1.421875 12.78125 6.34375 
Q 5.515625 14.109375 5.515625 27.296875 
Q 5.515625 40.671875 12.859375 48.328125 
Q 20.21875 56 33.015625 56 
Q 37.15625 56 41.109375 55.140625 
Q 45.0625 54.296875 48.78125 52.59375 
" id="BitstreamVeraSans-Roman-63"/>
      <path d="M 52 44.1875 
Q 55.375 50.25 60.0625 53.125 
Q 64.75 56 71.09375 56 
Q 79.640625 56 84.28125 50.015625 
Q 88.921875 44.046875 88.921875 33.015625 
L 88.921875 0 
L 79.890625 0 
L 79.890625 32.71875 
Q 79.890625 40.578125 77.09375 44.375 
Q 74.3125 48.1875 68.609375 48.1875 
Q 61.625 48.1875 57.5625 43.546875 
Q 53.515625 38.921875 53.515625 30.90625 
L 53.515625 0 
L 44.484375 0 
L 44.484375 32.71875 
Q 44.484375 40.625 41.703125 44.40625 
Q 38.921875 48.1875 33.109375 48.1875 
Q 26.21875 48.1875 22.15625 43.53125 
Q 18.109375 38.875 18.109375 30.90625 
L 18.109375 0 
L 9.078125 0 
L 9.078125 54.6875 
L 18.109375 54.6875 
L 18.109375 46.1875 
Q 21.1875 51.21875 25.484375 53.609375 
Q 29.78125 56 35.6875 56 
Q 41.65625 56 45.828125 52.96875 
Q 50 49.953125 52 44.1875 
" id="BitstreamVeraSans-Roman-6d"/>
      <path d="M 9.078125 75.984375 
L 18.109375 75.984375 
L 18.109375 31.109375 
L 44.921875 54.6875 
L 56.390625 54.6875 
L 27.390625 29.109375 
L 57.625 0 
L 45.90625 0 
L 18.109375 26.703125 
L 18.109375 0 
L 9.078125 0 
z
" id="BitstreamVeraSans-Roman-6b"/>
      <path d="M 30.609375 48.390625 
Q 23.390625 48.390625 19.1875 42.75 
Q 14.984375 37.109375 14.984375 27.296875 
Q 14.984375 17.484375 19.15625 11.84375 
Q 23.34375 6.203125 30.609375 6.203125 
Q 37.796875 6.203125 41.984375 11.859375 
Q 46.1875 17.53125 46.1875 27.296875 
Q 46.1875 37.015625 41.984375 42.703125 
Q 37.796875 48.390625 30.609375 48.390625 
M 30.609375 56 
Q 42.328125 56 49.015625 48.375 
Q 55.71875 40.765625 55.71875 27.296875 
Q 55.71875 13.875 49.015625 6.21875 
Q 42.328125 -1.421875 30.609375 -1.421875 
Q 18.84375 -1.421875 12.171875 6.21875 
Q 5.515625 13.875 5.515625 27.296875 
Q 5.515625 40.765625 12.171875 48.375 
Q 18.84375 56 30.609375 56 
" id="BitstreamVeraSans-Roman-6f"/>
      <path d="M 34.28125 27.484375 
Q 23.390625 27.484375 19.1875 25 
Q 14.984375 22.515625 14.984375 16.5 
Q 14.984375 11.71875 18.140625 8.90625 
Q 21.296875 6.109375 26.703125 6.109375 
Q 34.1875 6.109375 38.703125 11.40625 
Q 43.21875 16.703125 43.21875 25.484375 
L 43.21875 27.484375 
z
M 52.203125 31.203125 
L 52.203125 0 
L 43.21875 0 
L 43.21875 8.296875 
Q 40.140625 3.328125 35.546875 0.953125 
Q 30.953125 -1.421875 24.3125 -1.421875 
Q 15.921875 -1.421875 10.953125 3.296875 
Q 6 8.015625 6 15.921875 
Q 6 25.140625 12.171875 29.828125 
Q 18.359375 34.515625 30.609375 34.515625 
L 43.21875 34.515625 
L 43.21875 35.40625 
Q 43.21875 41.609375 39.140625 45 
Q 35.0625 48.390625 27.6875 48.390625 
Q 23 48.390625 18.546875 47.265625 
Q 14.109375 46.140625 10.015625 43.890625 
L 10.015625 52.203125 
Q 14.9375 54.109375 19.578125 55.046875 
Q 24.21875 56 28.609375 56 
Q 40.484375 56 46.34375 49.84375 
Q 52.203125 43.703125 52.203125 31.203125 
" id="BitstreamVeraSans-Roman-61"/>
      <path d="M 9.421875 75.984375 
L 18.40625 75.984375 
L 18.40625 0 
L 9.421875 0 
z
" id="BitstreamVeraSans-Roman-6c"/>
      <path d="M 25.390625 72.90625 
L 33.6875 72.90625 
L 8.296875 -9.28125 
L 0 -9.28125 
z
" id="BitstreamVeraSans-Roman-2f"/>
     </defs>
     <g transform="translate(45.234375 241.3209375)rotate(-90.0)scale(0.12 -0.12)">
      <use xlink:href="#BitstreamVeraSans-Roman-6b"/>
      <use x="57.91015625" xlink:href="#BitstreamVeraSans-Roman-63"/>
      <use x="112.890625" xlink:href="#BitstreamVeraSans-Roman-61"/>
      <use x="174.169921875" xlink:href="#BitstreamVeraSans-Roman-6c"/>
      <use x="201.953125" xlink:href="#BitstreamVeraSans-Roman-2f"/>
      <use x="235.64453125" xlink:href="#BitstreamVeraSans-Roman-6d"/>
      <use x="333.056640625" xlink:href="#BitstreamVeraSans-Roman-6f"/>
      <use x="394.23828125" xlink:href="#BitstreamVeraSans-Roman-6c"/>
     </g>
    </g>
   </g>
   <g id="text_18">
    <!-- H7-C3-C2-H5 -->
    <defs>
     <path d="M 8.203125 72.90625 
L 55.078125 72.90625 
L 55.078125 68.703125 
L 28.609375 0 
L 18.3125 0 
L 43.21875 64.59375 
L 8.203125 64.59375 
z
" id="BitstreamVeraSans-Roman-37"/>
     <path d="M 4.890625 31.390625 
L 31.203125 31.390625 
L 31.203125 23.390625 
L 4.890625 23.390625 
z
" id="BitstreamVeraSans-Roman-2d"/>
     <path d="M 64.40625 67.28125 
L 64.40625 56.890625 
Q 59.421875 61.53125 53.78125 63.8125 
Q 48.140625 66.109375 41.796875 66.109375 
Q 29.296875 66.109375 22.65625 58.46875 
Q 16.015625 50.828125 16.015625 36.375 
Q 16.015625 21.96875 22.65625 14.328125 
Q 29.296875 6.6875 41.796875 6.6875 
Q 48.140625 6.6875 53.78125 8.984375 
Q 59.421875 11.28125 64.40625 15.921875 
L 64.40625 5.609375 
Q 59.234375 2.09375 53.4375 0.328125 
Q 47.65625 -1.421875 41.21875 -1.421875 
Q 24.65625 -1.421875 15.125 8.703125 
Q 5.609375 18.84375 5.609375 36.375 
Q 5.609375 53.953125 15.125 64.078125 
Q 24.65625 74.21875 41.21875 74.21875 
Q 47.75 74.21875 53.53125 72.484375 
Q 59.328125 70.75 64.40625 67.28125 
" id="BitstreamVeraSans-Roman-43"/>
     <path d="M 9.8125 72.90625 
L 19.671875 72.90625 
L 19.671875 43.015625 
L 55.515625 43.015625 
L 55.515625 72.90625 
L 65.375 72.90625 
L 65.375 0 
L 55.515625 0 
L 55.515625 34.71875 
L 19.671875 34.71875 
L 19.671875 0 
L 9.8125 0 
z
" id="BitstreamVeraSans-Roman-48"/>
    </defs>
    <g transform="translate(248.198625 38.2)scale(0.144 -0.144)">
     <use xlink:href="#BitstreamVeraSans-Roman-48"/>
     <use x="75.1953125" xlink:href="#BitstreamVeraSans-Roman-37"/>
     <use x="138.818359375" xlink:href="#BitstreamVeraSans-Roman-2d"/>
     <use x="174.90234375" xlink:href="#BitstreamVeraSans-Roman-43"/>
     <use x="244.7265625" xlink:href="#BitstreamVeraSans-Roman-33"/>
     <use x="308.349609375" xlink:href="#BitstreamVeraSans-Roman-2d"/>
     <use x="344.43359375" xlink:href="#BitstreamVeraSans-Roman-43"/>
     <use x="414.2578125" xlink:href="#BitstreamVeraSans-Roman-32"/>
     <use x="477.880859375" xlink:href="#BitstreamVeraSans-Roman-2d"/>
     <use x="513.96484375" xlink:href="#BitstreamVeraSans-Roman-48"/>
     <use x="589.16015625" xlink:href="#BitstreamVeraSans-Roman-35"/>
    </g>
   </g>
   <g id="legend_1">
    <g id="patch_7">
     <path d="M 406.15625 108.3125 
L 514.4 108.3125 
L 514.4 47.2 
L 406.15625 47.2 
z
" style="fill:#ffffff;stroke:#000000;stroke-linejoin:miter;"/>
    </g>
    <g id="line2d_36">
     <path d="M 411.75625 53.67875 
L 422.95625 53.67875 
" style="fill:none;stroke:#ff0000;stroke-linecap:square;"/>
    </g>
    <g id="line2d_37">
     <g>
      <use style="fill:#ff0000;stroke:#000000;stroke-width:0.5;" x="411.75625" xlink:href="#m4b0d7463fa" y="53.67875"/>
      <use style="fill:#ff0000;stroke:#000000;stroke-width:0.5;" x="422.95625" xlink:href="#m4b0d7463fa" y="53.67875"/>
     </g>
    </g>
    <g id="text_19">
     <!-- QM -->
     <defs>
      <path d="M 9.8125 72.90625 
L 24.515625 72.90625 
L 43.109375 23.296875 
L 61.8125 72.90625 
L 76.515625 72.90625 
L 76.515625 0 
L 66.890625 0 
L 66.890625 64.015625 
L 48.09375 14.015625 
L 38.1875 14.015625 
L 19.390625 64.015625 
L 19.390625 0 
L 9.8125 0 
z
" id="BitstreamVeraSans-Roman-4d"/>
      <path d="M 39.40625 66.21875 
Q 28.65625 66.21875 22.328125 58.203125 
Q 16.015625 50.203125 16.015625 36.375 
Q 16.015625 22.609375 22.328125 14.59375 
Q 28.65625 6.59375 39.40625 6.59375 
Q 50.140625 6.59375 56.421875 14.59375 
Q 62.703125 22.609375 62.703125 36.375 
Q 62.703125 50.203125 56.421875 58.203125 
Q 50.140625 66.21875 39.40625 66.21875 
M 53.21875 1.3125 
L 66.21875 -12.890625 
L 54.296875 -12.890625 
L 43.5 -1.21875 
Q 41.890625 -1.3125 41.03125 -1.359375 
Q 40.1875 -1.421875 39.40625 -1.421875 
Q 24.03125 -1.421875 14.8125 8.859375 
Q 5.609375 19.140625 5.609375 36.375 
Q 5.609375 53.65625 14.8125 63.9375 
Q 24.03125 74.21875 39.40625 74.21875 
Q 54.734375 74.21875 63.90625 63.9375 
Q 73.09375 53.65625 73.09375 36.375 
Q 73.09375 23.6875 67.984375 14.640625 
Q 62.890625 5.609375 53.21875 1.3125 
" id="BitstreamVeraSans-Roman-51"/>
     </defs>
     <g transform="translate(431.75625 56.47875)scale(0.08 -0.08)">
      <use xlink:href="#BitstreamVeraSans-Roman-51"/>
      <use x="78.7109375" xlink:href="#BitstreamVeraSans-Roman-4d"/>
     </g>
    </g>
    <g id="line2d_38">
     <path d="M 411.75625 65.42125 
L 422.95625 65.42125 
" style="fill:none;stroke:#0000ff;stroke-linecap:square;"/>
    </g>
    <g id="line2d_39">
     <g>
      <use style="fill:#0000ff;stroke:#000000;stroke-width:0.5;" x="411.75625" xlink:href="#m8e47d4d5ff" y="65.42125"/>
      <use style="fill:#0000ff;stroke:#000000;stroke-width:0.5;" x="422.95625" xlink:href="#m8e47d4d5ff" y="65.42125"/>
     </g>
    </g>
    <g id="text_20">
     <!-- MM Original -->
     <defs>
      <path d="M 41.109375 46.296875 
Q 39.59375 47.171875 37.8125 47.578125 
Q 36.03125 48 33.890625 48 
Q 26.265625 48 22.1875 43.046875 
Q 18.109375 38.09375 18.109375 28.8125 
L 18.109375 0 
L 9.078125 0 
L 9.078125 54.6875 
L 18.109375 54.6875 
L 18.109375 46.1875 
Q 20.953125 51.171875 25.484375 53.578125 
Q 30.03125 56 36.53125 56 
Q 37.453125 56 38.578125 55.875 
Q 39.703125 55.765625 41.0625 55.515625 
z
" id="BitstreamVeraSans-Roman-72"/>
      <path id="BitstreamVeraSans-Roman-20"/>
      <path d="M 45.40625 27.984375 
Q 45.40625 37.75 41.375 43.109375 
Q 37.359375 48.484375 30.078125 48.484375 
Q 22.859375 48.484375 18.828125 43.109375 
Q 14.796875 37.75 14.796875 27.984375 
Q 14.796875 18.265625 18.828125 12.890625 
Q 22.859375 7.515625 30.078125 7.515625 
Q 37.359375 7.515625 41.375 12.890625 
Q 45.40625 18.265625 45.40625 27.984375 
M 54.390625 6.78125 
Q 54.390625 -7.171875 48.1875 -13.984375 
Q 42 -20.796875 29.203125 -20.796875 
Q 24.46875 -20.796875 20.265625 -20.09375 
Q 16.0625 -19.390625 12.109375 -17.921875 
L 12.109375 -9.1875 
Q 16.0625 -11.328125 19.921875 -12.34375 
Q 23.78125 -13.375 27.78125 -13.375 
Q 36.625 -13.375 41.015625 -8.765625 
Q 45.40625 -4.15625 45.40625 5.171875 
L 45.40625 9.625 
Q 42.625 4.78125 38.28125 2.390625 
Q 33.9375 0 27.875 0 
Q 17.828125 0 11.671875 7.65625 
Q 5.515625 15.328125 5.515625 27.984375 
Q 5.515625 40.671875 11.671875 48.328125 
Q 17.828125 56 27.875 56 
Q 33.9375 56 38.28125 53.609375 
Q 42.625 51.21875 45.40625 46.390625 
L 45.40625 54.6875 
L 54.390625 54.6875 
z
" id="BitstreamVeraSans-Roman-67"/>
      <path d="M 39.40625 66.21875 
Q 28.65625 66.21875 22.328125 58.203125 
Q 16.015625 50.203125 16.015625 36.375 
Q 16.015625 22.609375 22.328125 14.59375 
Q 28.65625 6.59375 39.40625 6.59375 
Q 50.140625 6.59375 56.421875 14.59375 
Q 62.703125 22.609375 62.703125 36.375 
Q 62.703125 50.203125 56.421875 58.203125 
Q 50.140625 66.21875 39.40625 66.21875 
M 39.40625 74.21875 
Q 54.734375 74.21875 63.90625 63.9375 
Q 73.09375 53.65625 73.09375 36.375 
Q 73.09375 19.140625 63.90625 8.859375 
Q 54.734375 -1.421875 39.40625 -1.421875 
Q 24.03125 -1.421875 14.8125 8.828125 
Q 5.609375 19.09375 5.609375 36.375 
Q 5.609375 53.65625 14.8125 63.9375 
Q 24.03125 74.21875 39.40625 74.21875 
" id="BitstreamVeraSans-Roman-4f"/>
      <path d="M 54.890625 33.015625 
L 54.890625 0 
L 45.90625 0 
L 45.90625 32.71875 
Q 45.90625 40.484375 42.875 44.328125 
Q 39.84375 48.1875 33.796875 48.1875 
Q 26.515625 48.1875 22.3125 43.546875 
Q 18.109375 38.921875 18.109375 30.90625 
L 18.109375 0 
L 9.078125 0 
L 9.078125 54.6875 
L 18.109375 54.6875 
L 18.109375 46.1875 
Q 21.34375 51.125 25.703125 53.5625 
Q 30.078125 56 35.796875 56 
Q 45.21875 56 50.046875 50.171875 
Q 54.890625 44.34375 54.890625 33.015625 
" id="BitstreamVeraSans-Roman-6e"/>
     </defs>
     <g transform="translate(431.75625 68.22125)scale(0.08 -0.08)">
      <use xlink:href="#BitstreamVeraSans-Roman-4d"/>
      <use x="86.279296875" xlink:href="#BitstreamVeraSans-Roman-4d"/>
      <use x="172.55859375" xlink:href="#BitstreamVeraSans-Roman-20"/>
      <use x="204.345703125" xlink:href="#BitstreamVeraSans-Roman-4f"/>
      <use x="283.056640625" xlink:href="#BitstreamVeraSans-Roman-72"/>
      <use x="324.169921875" xlink:href="#BitstreamVeraSans-Roman-69"/>
      <use x="351.953125" xlink:href="#BitstreamVeraSans-Roman-67"/>
      <use x="415.4296875" xlink:href="#BitstreamVeraSans-Roman-69"/>
      <use x="443.212890625" xlink:href="#BitstreamVeraSans-Roman-6e"/>
      <use x="506.591796875" xlink:href="#BitstreamVeraSans-Roman-61"/>
      <use x="567.87109375" xlink:href="#BitstreamVeraSans-Roman-6c"/>
     </g>
    </g>
    <g id="line2d_40">
     <path d="M 411.75625 77.16375 
L 422.95625 77.16375 
" style="fill:none;stroke:#000000;stroke-linecap:square;"/>
    </g>
    <g id="line2d_41">
     <g>
      <use style="stroke:#000000;stroke-width:0.5;" x="411.75625" xlink:href="#m2d58b768c6" y="77.16375"/>
      <use style="stroke:#000000;stroke-width:0.5;" x="422.95625" xlink:href="#m2d58b768c6" y="77.16375"/>
     </g>
    </g>
    <g id="text_21">
     <!-- MM With phi zeroed -->
     <defs>
      <path d="M 45.40625 46.390625 
L 45.40625 75.984375 
L 54.390625 75.984375 
L 54.390625 0 
L 45.40625 0 
L 45.40625 8.203125 
Q 42.578125 3.328125 38.25 0.953125 
Q 33.9375 -1.421875 27.875 -1.421875 
Q 17.96875 -1.421875 11.734375 6.484375 
Q 5.515625 14.40625 5.515625 27.296875 
Q 5.515625 40.1875 11.734375 48.09375 
Q 17.96875 56 27.875 56 
Q 33.9375 56 38.25 53.625 
Q 42.578125 51.265625 45.40625 46.390625 
M 14.796875 27.296875 
Q 14.796875 17.390625 18.875 11.75 
Q 22.953125 6.109375 30.078125 6.109375 
Q 37.203125 6.109375 41.296875 11.75 
Q 45.40625 17.390625 45.40625 27.296875 
Q 45.40625 37.203125 41.296875 42.84375 
Q 37.203125 48.484375 30.078125 48.484375 
Q 22.953125 48.484375 18.875 42.84375 
Q 14.796875 37.203125 14.796875 27.296875 
" id="BitstreamVeraSans-Roman-64"/>
      <path d="M 18.3125 70.21875 
L 18.3125 54.6875 
L 36.8125 54.6875 
L 36.8125 47.703125 
L 18.3125 47.703125 
L 18.3125 18.015625 
Q 18.3125 11.328125 20.140625 9.421875 
Q 21.96875 7.515625 27.59375 7.515625 
L 36.8125 7.515625 
L 36.8125 0 
L 27.59375 0 
Q 17.1875 0 13.234375 3.875 
Q 9.28125 7.765625 9.28125 18.015625 
L 9.28125 47.703125 
L 2.6875 47.703125 
L 2.6875 54.6875 
L 9.28125 54.6875 
L 9.28125 70.21875 
z
" id="BitstreamVeraSans-Roman-74"/>
      <path d="M 5.515625 54.6875 
L 48.1875 54.6875 
L 48.1875 46.484375 
L 14.40625 7.171875 
L 48.1875 7.171875 
L 48.1875 0 
L 4.296875 0 
L 4.296875 8.203125 
L 38.09375 47.515625 
L 5.515625 47.515625 
z
" id="BitstreamVeraSans-Roman-7a"/>
      <path d="M 56.203125 29.59375 
L 56.203125 25.203125 
L 14.890625 25.203125 
Q 15.484375 15.921875 20.484375 11.0625 
Q 25.484375 6.203125 34.421875 6.203125 
Q 39.59375 6.203125 44.453125 7.46875 
Q 49.3125 8.734375 54.109375 11.28125 
L 54.109375 2.78125 
Q 49.265625 0.734375 44.1875 -0.34375 
Q 39.109375 -1.421875 33.890625 -1.421875 
Q 20.796875 -1.421875 13.15625 6.1875 
Q 5.515625 13.8125 5.515625 26.8125 
Q 5.515625 40.234375 12.765625 48.109375 
Q 20.015625 56 32.328125 56 
Q 43.359375 56 49.78125 48.890625 
Q 56.203125 41.796875 56.203125 29.59375 
M 47.21875 32.234375 
Q 47.125 39.59375 43.09375 43.984375 
Q 39.0625 48.390625 32.421875 48.390625 
Q 24.90625 48.390625 20.390625 44.140625 
Q 15.875 39.890625 15.1875 32.171875 
z
" id="BitstreamVeraSans-Roman-65"/>
      <path d="M 18.109375 8.203125 
L 18.109375 -20.796875 
L 9.078125 -20.796875 
L 9.078125 54.6875 
L 18.109375 54.6875 
L 18.109375 46.390625 
Q 20.953125 51.265625 25.265625 53.625 
Q 29.59375 56 35.59375 56 
Q 45.5625 56 51.78125 48.09375 
Q 58.015625 40.1875 58.015625 27.296875 
Q 58.015625 14.40625 51.78125 6.484375 
Q 45.5625 -1.421875 35.59375 -1.421875 
Q 29.59375 -1.421875 25.265625 0.953125 
Q 20.953125 3.328125 18.109375 8.203125 
M 48.6875 27.296875 
Q 48.6875 37.203125 44.609375 42.84375 
Q 40.53125 48.484375 33.40625 48.484375 
Q 26.265625 48.484375 22.1875 42.84375 
Q 18.109375 37.203125 18.109375 27.296875 
Q 18.109375 17.390625 22.1875 11.75 
Q 26.265625 6.109375 33.40625 6.109375 
Q 40.53125 6.109375 44.609375 11.75 
Q 48.6875 17.390625 48.6875 27.296875 
" id="BitstreamVeraSans-Roman-70"/>
      <path d="M 3.328125 72.90625 
L 13.28125 72.90625 
L 28.609375 11.28125 
L 43.890625 72.90625 
L 54.984375 72.90625 
L 70.3125 11.28125 
L 85.59375 72.90625 
L 95.609375 72.90625 
L 77.296875 0 
L 64.890625 0 
L 49.515625 63.28125 
L 33.984375 0 
L 21.578125 0 
z
" id="BitstreamVeraSans-Roman-57"/>
     </defs>
     <g transform="translate(431.75625 79.96375)scale(0.08 -0.08)">
      <use xlink:href="#BitstreamVeraSans-Roman-4d"/>
      <use x="86.279296875" xlink:href="#BitstreamVeraSans-Roman-4d"/>
      <use x="172.55859375" xlink:href="#BitstreamVeraSans-Roman-20"/>
      <use x="204.345703125" xlink:href="#BitstreamVeraSans-Roman-57"/>
      <use x="303.19140625" xlink:href="#BitstreamVeraSans-Roman-69"/>
      <use x="330.974609375" xlink:href="#BitstreamVeraSans-Roman-74"/>
      <use x="370.18359375" xlink:href="#BitstreamVeraSans-Roman-68"/>
      <use x="433.5625" xlink:href="#BitstreamVeraSans-Roman-20"/>
      <use x="465.349609375" xlink:href="#BitstreamVeraSans-Roman-70"/>
      <use x="528.826171875" xlink:href="#BitstreamVeraSans-Roman-68"/>
      <use x="592.205078125" xlink:href="#BitstreamVeraSans-Roman-69"/>
      <use x="619.98828125" xlink:href="#BitstreamVeraSans-Roman-20"/>
      <use x="651.775390625" xlink:href="#BitstreamVeraSans-Roman-7a"/>
      <use x="704.265625" xlink:href="#BitstreamVeraSans-Roman-65"/>
      <use x="765.7890625" xlink:href="#BitstreamVeraSans-Roman-72"/>
      <use x="806.87109375" xlink:href="#BitstreamVeraSans-Roman-6f"/>
      <use x="868.052734375" xlink:href="#BitstreamVeraSans-Roman-65"/>
      <use x="929.576171875" xlink:href="#BitstreamVeraSans-Roman-64"/>
     </g>
    </g>
    <g id="line2d_42">
     <path d="M 411.75625 88.90625 
L 422.95625 88.90625 
" style="fill:none;stroke:#ff00ff;stroke-linecap:square;"/>
    </g>
    <g id="line2d_43">
     <g>
      <use style="fill:#ff00ff;stroke:#ff00ff;stroke-width:0.5;" x="411.75625" xlink:href="#m2c081412ac" y="88.90625"/>
      <use style="fill:#ff00ff;stroke:#ff00ff;stroke-width:0.5;" x="422.95625" xlink:href="#m2c081412ac" y="88.90625"/>
     </g>
    </g>
    <g id="text_22">
     <!-- QM-MM target -->
     <g transform="translate(431.75625 91.70625)scale(0.08 -0.08)">
      <use xlink:href="#BitstreamVeraSans-Roman-51"/>
      <use x="78.7109375" xlink:href="#BitstreamVeraSans-Roman-4d"/>
      <use x="164.990234375" xlink:href="#BitstreamVeraSans-Roman-2d"/>
      <use x="201.07421875" xlink:href="#BitstreamVeraSans-Roman-4d"/>
      <use x="287.353515625" xlink:href="#BitstreamVeraSans-Roman-4d"/>
      <use x="373.6328125" xlink:href="#BitstreamVeraSans-Roman-20"/>
      <use x="405.419921875" xlink:href="#BitstreamVeraSans-Roman-74"/>
      <use x="444.62890625" xlink:href="#BitstreamVeraSans-Roman-61"/>
      <use x="505.908203125" xlink:href="#BitstreamVeraSans-Roman-72"/>
      <use x="547.005859375" xlink:href="#BitstreamVeraSans-Roman-67"/>
      <use x="610.482421875" xlink:href="#BitstreamVeraSans-Roman-65"/>
      <use x="672.005859375" xlink:href="#BitstreamVeraSans-Roman-74"/>
     </g>
    </g>
    <g id="line2d_44">
     <path d="M 411.75625 100.64875 
L 422.95625 100.64875 
" style="fill:none;stroke:#008000;stroke-linecap:square;"/>
    </g>
    <g id="line2d_45">
     <g>
      <use style="fill:#008000;stroke:#000000;stroke-width:0.5;" x="411.75625" xlink:href="#mea2fbee222" y="100.64875"/>
      <use style="fill:#008000;stroke:#000000;stroke-width:0.5;" x="422.95625" xlink:href="#mea2fbee222" y="100.64875"/>
     </g>
    </g>
    <g id="text_23">
     <!-- MM Fitted -->
     <defs>
      <path d="M 9.8125 72.90625 
L 51.703125 72.90625 
L 51.703125 64.59375 
L 19.671875 64.59375 
L 19.671875 43.109375 
L 48.578125 43.109375 
L 48.578125 34.8125 
L 19.671875 34.8125 
L 19.671875 0 
L 9.8125 0 
z
" id="BitstreamVeraSans-Roman-46"/>
     </defs>
     <g transform="translate(431.75625 103.44875)scale(0.08 -0.08)">
      <use xlink:href="#BitstreamVeraSans-Roman-4d"/>
      <use x="86.279296875" xlink:href="#BitstreamVeraSans-Roman-4d"/>
      <use x="172.55859375" xlink:href="#BitstreamVeraSans-Roman-20"/>
      <use x="204.345703125" xlink:href="#BitstreamVeraSans-Roman-46"/>
      <use x="261.755859375" xlink:href="#BitstreamVeraSans-Roman-69"/>
      <use x="289.5390625" xlink:href="#BitstreamVeraSans-Roman-74"/>
      <use x="328.748046875" xlink:href="#BitstreamVeraSans-Roman-74"/>
      <use x="367.95703125" xlink:href="#BitstreamVeraSans-Roman-65"/>
      <use x="429.48046875" xlink:href="#BitstreamVeraSans-Roman-64"/>
     </g>
    </g>
   </g>
  </g>
 </g>
 <defs>
  <clipPath id="p3af86918a5">
   <rect height="345.6" width="446.4" x="72.0" y="43.2"/>
  </clipPath>
 </defs>
</svg>
