<?xml version="1.0" encoding="utf-8" standalone="no"?>
<!DOCTYPE svg PUBLIC "-//W3C//DTD SVG 1.1//EN"
  "http://www.w3.org/Graphics/SVG/1.1/DTD/svg11.dtd">
<!-- Created with matplotlib (http://matplotlib.org/) -->
<svg height="432pt" version="1.1" viewBox="0 0 576 432" width="576pt" xmlns="http://www.w3.org/2000/svg" xmlns:xlink="http://www.w3.org/1999/xlink">
 <defs>
  <style type="text/css">
*{stroke-linecap:butt;stroke-linejoin:round;stroke-miterlimit:100000;}
  </style>
 </defs>
 <g id="figure_1">
  <g id="patch_1">
   <path d="M 0 432 
L 576 432 
L 576 0 
L 0 0 
z
" style="fill:#ffffff;"/>
  </g>
  <g id="axes_1">
   <g id="patch_2">
    <path d="M 72 388.8 
L 518.4 388.8 
L 518.4 43.2 
L 72 43.2 
z
" style="fill:#ffffff;"/>
   </g>
   <g id="line2d_1">
    <path clip-path="url(#pa7af218c4e)" d="M 72.000681 325.7018 
L 84.399994 329.980161 
L 96.799971 321.278882 
L 109.200009 301.754975 
L 121.599993 274.045421 
L 134.000011 248.320849 
L 146.399987 237.085701 
L 158.799958 246.816377 
L 171.20001 275.253585 
L 183.599973 313.335403 
L 195.999976 350.326658 
L 208.399946 377.289016 
L 220.800001 388.8 
L 233.199966 382.492845 
L 245.599958 359.330456 
L 257.999992 323.713749 
L 270.400018 284.196341 
L 282.800031 251.837393 
L 295.200425 236.767072 
L 307.60001 243.211079 
L 320.000009 266.30926 
L 332.399991 294.768499 
L 344.800027 318.684494 
L 357.199989 333.965664 
L 369.600002 336.401241 
L 382.000002 319.396324 
L 394.400015 280.21389 
L 406.800047 223.043976 
L 419.200028 158.811653 
L 431.60001 103.87409 
L 444.00004 77.237697 
L 456.40001 90.859899 
L 468.799994 137.467632 
L 481.200007 199.221601 
L 493.600025 258.553898 
L 506.00003 302.581912 
" style="fill:none;stroke:#ff0000;stroke-linecap:square;"/>
    <defs>
     <path d="M 0 3 
C 0.795609 3 1.55874 2.683901 2.12132 2.12132 
C 2.683901 1.55874 3 0.795609 3 0 
C 3 -0.795609 2.683901 -1.55874 2.12132 -2.12132 
C 1.55874 -2.683901 0.795609 -3 0 -3 
C -0.795609 -3 -1.55874 -2.683901 -2.12132 -2.12132 
C -2.683901 -1.55874 -3 -0.795609 -3 0 
C -3 0.795609 -2.683901 1.55874 -2.12132 2.12132 
C -1.55874 2.683901 -0.795609 3 0 3 
z
" id="m83416ba17f" style="stroke:#000000;stroke-width:0.5;"/>
    </defs>
    <g clip-path="url(#pa7af218c4e)">
     <use style="fill:#ff0000;stroke:#000000;stroke-width:0.5;" x="72.0006810434" xlink:href="#m83416ba17f" y="325.701799943"/>
     <use style="fill:#ff0000;stroke:#000000;stroke-width:0.5;" x="84.3999940471" xlink:href="#m83416ba17f" y="329.980160992"/>
     <use style="fill:#ff0000;stroke:#000000;stroke-width:0.5;" x="96.7999707093" xlink:href="#m83416ba17f" y="321.278882324"/>
     <use style="fill:#ff0000;stroke:#000000;stroke-width:0.5;" x="109.200008866" xlink:href="#m83416ba17f" y="301.754974766"/>
     <use style="fill:#ff0000;stroke:#000000;stroke-width:0.5;" x="121.599992582" xlink:href="#m83416ba17f" y="274.045420529"/>
     <use style="fill:#ff0000;stroke:#000000;stroke-width:0.5;" x="134.000011398" xlink:href="#m83416ba17f" y="248.320848727"/>
     <use style="fill:#ff0000;stroke:#000000;stroke-width:0.5;" x="146.399986565" xlink:href="#m83416ba17f" y="237.085701256"/>
     <use style="fill:#ff0000;stroke:#000000;stroke-width:0.5;" x="158.79995802" xlink:href="#m83416ba17f" y="246.816376804"/>
     <use style="fill:#ff0000;stroke:#000000;stroke-width:0.5;" x="171.200009638" xlink:href="#m83416ba17f" y="275.25358522"/>
     <use style="fill:#ff0000;stroke:#000000;stroke-width:0.5;" x="183.599973487" xlink:href="#m83416ba17f" y="313.335402819"/>
     <use style="fill:#ff0000;stroke:#000000;stroke-width:0.5;" x="195.99997639" xlink:href="#m83416ba17f" y="350.326658385"/>
     <use style="fill:#ff0000;stroke:#000000;stroke-width:0.5;" x="208.399945916" xlink:href="#m83416ba17f" y="377.289015765"/>
     <use style="fill:#ff0000;stroke:#000000;stroke-width:0.5;" x="220.800001327" xlink:href="#m83416ba17f" y="388.8"/>
     <use style="fill:#ff0000;stroke:#000000;stroke-width:0.5;" x="233.199965728" xlink:href="#m83416ba17f" y="382.492845339"/>
     <use style="fill:#ff0000;stroke:#000000;stroke-width:0.5;" x="245.599957622" xlink:href="#m83416ba17f" y="359.330455555"/>
     <use style="fill:#ff0000;stroke:#000000;stroke-width:0.5;" x="257.999992166" xlink:href="#m83416ba17f" y="323.71374941"/>
     <use style="fill:#ff0000;stroke:#000000;stroke-width:0.5;" x="270.400018365" xlink:href="#m83416ba17f" y="284.196341053"/>
     <use style="fill:#ff0000;stroke:#000000;stroke-width:0.5;" x="282.800030882" xlink:href="#m83416ba17f" y="251.837392658"/>
     <use style="fill:#ff0000;stroke:#000000;stroke-width:0.5;" x="295.20042486" xlink:href="#m83416ba17f" y="236.767071547"/>
     <use style="fill:#ff0000;stroke:#000000;stroke-width:0.5;" x="307.600009752" xlink:href="#m83416ba17f" y="243.211078728"/>
     <use style="fill:#ff0000;stroke:#000000;stroke-width:0.5;" x="320.000009408" xlink:href="#m83416ba17f" y="266.309260439"/>
     <use style="fill:#ff0000;stroke:#000000;stroke-width:0.5;" x="332.399991478" xlink:href="#m83416ba17f" y="294.768498538"/>
     <use style="fill:#ff0000;stroke:#000000;stroke-width:0.5;" x="344.800026909" xlink:href="#m83416ba17f" y="318.684493777"/>
     <use style="fill:#ff0000;stroke:#000000;stroke-width:0.5;" x="357.19998919" xlink:href="#m83416ba17f" y="333.965663785"/>
     <use style="fill:#ff0000;stroke:#000000;stroke-width:0.5;" x="369.600002125" xlink:href="#m83416ba17f" y="336.401241039"/>
     <use style="fill:#ff0000;stroke:#000000;stroke-width:0.5;" x="382.00000177" xlink:href="#m83416ba17f" y="319.396323756"/>
     <use style="fill:#ff0000;stroke:#000000;stroke-width:0.5;" x="394.400014958" xlink:href="#m83416ba17f" y="280.213890241"/>
     <use style="fill:#ff0000;stroke:#000000;stroke-width:0.5;" x="406.800046823" xlink:href="#m83416ba17f" y="223.043976116"/>
     <use style="fill:#ff0000;stroke:#000000;stroke-width:0.5;" x="419.200027993" xlink:href="#m83416ba17f" y="158.811652702"/>
     <use style="fill:#ff0000;stroke:#000000;stroke-width:0.5;" x="431.600009878" xlink:href="#m83416ba17f" y="103.874090474"/>
     <use style="fill:#ff0000;stroke:#000000;stroke-width:0.5;" x="444.000039884" xlink:href="#m83416ba17f" y="77.2376968216"/>
     <use style="fill:#ff0000;stroke:#000000;stroke-width:0.5;" x="456.400010236" xlink:href="#m83416ba17f" y="90.8598988256"/>
     <use style="fill:#ff0000;stroke:#000000;stroke-width:0.5;" x="468.79999366" xlink:href="#m83416ba17f" y="137.467631602"/>
     <use style="fill:#ff0000;stroke:#000000;stroke-width:0.5;" x="481.200006779" xlink:href="#m83416ba17f" y="199.221601253"/>
     <use style="fill:#ff0000;stroke:#000000;stroke-width:0.5;" x="493.600025491" xlink:href="#m83416ba17f" y="258.553897658"/>
     <use style="fill:#ff0000;stroke:#000000;stroke-width:0.5;" x="506.000030302" xlink:href="#m83416ba17f" y="302.581912193"/>
    </g>
   </g>
   <g id="line2d_2">
    <path clip-path="url(#pa7af218c4e)" d="M 72.000681 364.006619 
L 84.399994 367.505457 
L 96.799971 344.766796 
L 109.200009 300.87375 
L 121.599993 252.344924 
L 134.000011 214.13473 
L 146.399987 195.424871 
L 158.799958 203.505432 
L 171.20001 237.196059 
L 183.599973 286.13024 
L 195.999976 336.056211 
L 208.399946 373.312076 
L 220.800001 388.8 
L 233.199966 377.024473 
L 245.599958 342.811028 
L 257.999992 294.915568 
L 270.400018 246.300407 
L 282.800031 209.578942 
L 295.200425 196.187179 
L 307.60001 210.13556 
L 320.000009 246.672245 
L 332.399991 295.451734 
L 344.800027 340.884705 
L 357.199989 366.829741 
L 369.600002 369.60297 
L 382.000002 351.804717 
L 394.400015 315.219983 
L 406.800047 260.95449 
L 419.200028 196.313508 
L 431.60001 135.568118 
L 444.00004 103.762061 
L 456.40001 114.676395 
L 468.799994 164.517138 
L 481.200007 230.038001 
L 493.600025 291.253074 
L 506.00003 337.783036 
" style="fill:none;stroke:#0000ff;stroke-linecap:square;"/>
    <defs>
     <path d="M 0 3 
C 0.795609 3 1.55874 2.683901 2.12132 2.12132 
C 2.683901 1.55874 3 0.795609 3 0 
C 3 -0.795609 2.683901 -1.55874 2.12132 -2.12132 
C 1.55874 -2.683901 0.795609 -3 0 -3 
C -0.795609 -3 -1.55874 -2.683901 -2.12132 -2.12132 
C -2.683901 -1.55874 -3 -0.795609 -3 0 
C -3 0.795609 -2.683901 1.55874 -2.12132 2.12132 
C -1.55874 2.683901 -0.795609 3 0 3 
z
" id="ma7991282a4" style="stroke:#000000;stroke-width:0.5;"/>
    </defs>
    <g clip-path="url(#pa7af218c4e)">
     <use style="fill:#0000ff;stroke:#000000;stroke-width:0.5;" x="72.0006810434" xlink:href="#ma7991282a4" y="364.006618926"/>
     <use style="fill:#0000ff;stroke:#000000;stroke-width:0.5;" x="84.3999940471" xlink:href="#ma7991282a4" y="367.505456904"/>
     <use style="fill:#0000ff;stroke:#000000;stroke-width:0.5;" x="96.7999707093" xlink:href="#ma7991282a4" y="344.766795948"/>
     <use style="fill:#0000ff;stroke:#000000;stroke-width:0.5;" x="109.200008866" xlink:href="#ma7991282a4" y="300.873750043"/>
     <use style="fill:#0000ff;stroke:#000000;stroke-width:0.5;" x="121.599992582" xlink:href="#ma7991282a4" y="252.344924467"/>
     <use style="fill:#0000ff;stroke:#000000;stroke-width:0.5;" x="134.000011398" xlink:href="#ma7991282a4" y="214.134730202"/>
     <use style="fill:#0000ff;stroke:#000000;stroke-width:0.5;" x="146.399986565" xlink:href="#ma7991282a4" y="195.424871004"/>
     <use style="fill:#0000ff;stroke:#000000;stroke-width:0.5;" x="158.79995802" xlink:href="#ma7991282a4" y="203.505431694"/>
     <use style="fill:#0000ff;stroke:#000000;stroke-width:0.5;" x="171.200009638" xlink:href="#ma7991282a4" y="237.196058703"/>
     <use style="fill:#0000ff;stroke:#000000;stroke-width:0.5;" x="183.599973487" xlink:href="#ma7991282a4" y="286.130239528"/>
     <use style="fill:#0000ff;stroke:#000000;stroke-width:0.5;" x="195.99997639" xlink:href="#ma7991282a4" y="336.056210725"/>
     <use style="fill:#0000ff;stroke:#000000;stroke-width:0.5;" x="208.399945916" xlink:href="#ma7991282a4" y="373.312075629"/>
     <use style="fill:#0000ff;stroke:#000000;stroke-width:0.5;" x="220.800001327" xlink:href="#ma7991282a4" y="388.8"/>
     <use style="fill:#0000ff;stroke:#000000;stroke-width:0.5;" x="233.199965728" xlink:href="#ma7991282a4" y="377.024472989"/>
     <use style="fill:#0000ff;stroke:#000000;stroke-width:0.5;" x="245.599957622" xlink:href="#ma7991282a4" y="342.811028157"/>
     <use style="fill:#0000ff;stroke:#000000;stroke-width:0.5;" x="257.999992166" xlink:href="#ma7991282a4" y="294.915568072"/>
     <use style="fill:#0000ff;stroke:#000000;stroke-width:0.5;" x="270.400018365" xlink:href="#ma7991282a4" y="246.30040655"/>
     <use style="fill:#0000ff;stroke:#000000;stroke-width:0.5;" x="282.800030882" xlink:href="#ma7991282a4" y="209.578942166"/>
     <use style="fill:#0000ff;stroke:#000000;stroke-width:0.5;" x="295.20042486" xlink:href="#ma7991282a4" y="196.187178566"/>
     <use style="fill:#0000ff;stroke:#000000;stroke-width:0.5;" x="307.600009752" xlink:href="#ma7991282a4" y="210.135560357"/>
     <use style="fill:#0000ff;stroke:#000000;stroke-width:0.5;" x="320.000009408" xlink:href="#ma7991282a4" y="246.672245301"/>
     <use style="fill:#0000ff;stroke:#000000;stroke-width:0.5;" x="332.399991478" xlink:href="#ma7991282a4" y="295.451734439"/>
     <use style="fill:#0000ff;stroke:#000000;stroke-width:0.5;" x="344.800026909" xlink:href="#ma7991282a4" y="340.884704687"/>
     <use style="fill:#0000ff;stroke:#000000;stroke-width:0.5;" x="357.19998919" xlink:href="#ma7991282a4" y="366.829741267"/>
     <use style="fill:#0000ff;stroke:#000000;stroke-width:0.5;" x="369.600002125" xlink:href="#ma7991282a4" y="369.60297007"/>
     <use style="fill:#0000ff;stroke:#000000;stroke-width:0.5;" x="382.00000177" xlink:href="#ma7991282a4" y="351.804716823"/>
     <use style="fill:#0000ff;stroke:#000000;stroke-width:0.5;" x="394.400014958" xlink:href="#ma7991282a4" y="315.21998348"/>
     <use style="fill:#0000ff;stroke:#000000;stroke-width:0.5;" x="406.800046823" xlink:href="#ma7991282a4" y="260.954490247"/>
     <use style="fill:#0000ff;stroke:#000000;stroke-width:0.5;" x="419.200027993" xlink:href="#ma7991282a4" y="196.313507827"/>
     <use style="fill:#0000ff;stroke:#000000;stroke-width:0.5;" x="431.600009878" xlink:href="#ma7991282a4" y="135.568118113"/>
     <use style="fill:#0000ff;stroke:#000000;stroke-width:0.5;" x="444.000039884" xlink:href="#ma7991282a4" y="103.762060585"/>
     <use style="fill:#0000ff;stroke:#000000;stroke-width:0.5;" x="456.400010236" xlink:href="#ma7991282a4" y="114.676395441"/>
     <use style="fill:#0000ff;stroke:#000000;stroke-width:0.5;" x="468.79999366" xlink:href="#ma7991282a4" y="164.517137791"/>
     <use style="fill:#0000ff;stroke:#000000;stroke-width:0.5;" x="481.200006779" xlink:href="#ma7991282a4" y="230.038000788"/>
     <use style="fill:#0000ff;stroke:#000000;stroke-width:0.5;" x="493.600025491" xlink:href="#ma7991282a4" y="291.253074105"/>
     <use style="fill:#0000ff;stroke:#000000;stroke-width:0.5;" x="506.000030302" xlink:href="#ma7991282a4" y="337.783035958"/>
    </g>
   </g>
   <g id="line2d_3">
    <path clip-path="url(#pa7af218c4e)" d="M 72.000681 364.039458 
L 84.399994 369.30145 
L 96.799971 352.906204 
L 109.200009 318.299558 
L 121.599993 279.575204 
L 134.000011 249.122711 
L 146.399987 233.786294 
L 158.799958 239.722174 
L 171.20001 266.439725 
L 183.599973 305.758132 
L 195.999976 346.128291 
L 208.399946 376.308681 
L 220.800001 388.8 
L 233.199966 378.867458 
L 245.599958 350.831859 
L 257.999992 312.074652 
L 270.400018 273.306835 
L 282.800031 244.458124 
L 295.200425 234.53801 
L 307.60001 246.372 
L 320.000009 276.003054 
L 332.399991 315.34145 
L 344.800027 351.328496 
L 357.199989 370.081976 
L 369.600002 369.68021 
L 382.000002 353.436676 
L 394.400015 322.683909 
L 406.800047 277.185893 
L 419.200028 222.260371 
L 431.60001 169.688788 
L 444.00004 141.950411 
L 456.40001 151.148146 
L 468.799994 194.08796 
L 481.200007 249.928222 
L 493.600025 301.519698 
L 506.00003 340.896358 
" style="fill:none;stroke:#000000;stroke-linecap:square;"/>
    <defs>
     <path d="M -3 3 
L 3 -3 
M -3 -3 
L 3 3 
" id="m5391f34dc6" style="stroke:#000000;stroke-width:0.5;"/>
    </defs>
    <g clip-path="url(#pa7af218c4e)">
     <use style="stroke:#000000;stroke-width:0.5;" x="72.0006810434" xlink:href="#m5391f34dc6" y="364.039457615"/>
     <use style="stroke:#000000;stroke-width:0.5;" x="84.3999940471" xlink:href="#m5391f34dc6" y="369.301449681"/>
     <use style="stroke:#000000;stroke-width:0.5;" x="96.7999707093" xlink:href="#m5391f34dc6" y="352.90620446"/>
     <use style="stroke:#000000;stroke-width:0.5;" x="109.200008866" xlink:href="#m5391f34dc6" y="318.299558194"/>
     <use style="stroke:#000000;stroke-width:0.5;" x="121.599992582" xlink:href="#m5391f34dc6" y="279.575203854"/>
     <use style="stroke:#000000;stroke-width:0.5;" x="134.000011398" xlink:href="#m5391f34dc6" y="249.122711138"/>
     <use style="stroke:#000000;stroke-width:0.5;" x="146.399986565" xlink:href="#m5391f34dc6" y="233.786294117"/>
     <use style="stroke:#000000;stroke-width:0.5;" x="158.79995802" xlink:href="#m5391f34dc6" y="239.722174312"/>
     <use style="stroke:#000000;stroke-width:0.5;" x="171.200009638" xlink:href="#m5391f34dc6" y="266.439724908"/>
     <use style="stroke:#000000;stroke-width:0.5;" x="183.599973487" xlink:href="#m5391f34dc6" y="305.758131963"/>
     <use style="stroke:#000000;stroke-width:0.5;" x="195.99997639" xlink:href="#m5391f34dc6" y="346.128291212"/>
     <use style="stroke:#000000;stroke-width:0.5;" x="208.399945916" xlink:href="#m5391f34dc6" y="376.308680669"/>
     <use style="stroke:#000000;stroke-width:0.5;" x="220.800001327" xlink:href="#m5391f34dc6" y="388.8"/>
     <use style="stroke:#000000;stroke-width:0.5;" x="233.199965728" xlink:href="#m5391f34dc6" y="378.867458029"/>
     <use style="stroke:#000000;stroke-width:0.5;" x="245.599957622" xlink:href="#m5391f34dc6" y="350.831858899"/>
     <use style="stroke:#000000;stroke-width:0.5;" x="257.999992166" xlink:href="#m5391f34dc6" y="312.074652217"/>
     <use style="stroke:#000000;stroke-width:0.5;" x="270.400018365" xlink:href="#m5391f34dc6" y="273.306834909"/>
     <use style="stroke:#000000;stroke-width:0.5;" x="282.800030882" xlink:href="#m5391f34dc6" y="244.458124469"/>
     <use style="stroke:#000000;stroke-width:0.5;" x="295.20042486" xlink:href="#m5391f34dc6" y="234.538009964"/>
     <use style="stroke:#000000;stroke-width:0.5;" x="307.600009752" xlink:href="#m5391f34dc6" y="246.371999574"/>
     <use style="stroke:#000000;stroke-width:0.5;" x="320.000009408" xlink:href="#m5391f34dc6" y="276.003054049"/>
     <use style="stroke:#000000;stroke-width:0.5;" x="332.399991478" xlink:href="#m5391f34dc6" y="315.341449501"/>
     <use style="stroke:#000000;stroke-width:0.5;" x="344.800026909" xlink:href="#m5391f34dc6" y="351.32849617"/>
     <use style="stroke:#000000;stroke-width:0.5;" x="357.19998919" xlink:href="#m5391f34dc6" y="370.081976292"/>
     <use style="stroke:#000000;stroke-width:0.5;" x="369.600002125" xlink:href="#m5391f34dc6" y="369.680209631"/>
     <use style="stroke:#000000;stroke-width:0.5;" x="382.00000177" xlink:href="#m5391f34dc6" y="353.436676375"/>
     <use style="stroke:#000000;stroke-width:0.5;" x="394.400014958" xlink:href="#m5391f34dc6" y="322.683908813"/>
     <use style="stroke:#000000;stroke-width:0.5;" x="406.800046823" xlink:href="#m5391f34dc6" y="277.185892579"/>
     <use style="stroke:#000000;stroke-width:0.5;" x="419.200027993" xlink:href="#m5391f34dc6" y="222.260371488"/>
     <use style="stroke:#000000;stroke-width:0.5;" x="431.600009878" xlink:href="#m5391f34dc6" y="169.688788051"/>
     <use style="stroke:#000000;stroke-width:0.5;" x="444.000039884" xlink:href="#m5391f34dc6" y="141.950410502"/>
     <use style="stroke:#000000;stroke-width:0.5;" x="456.400010236" xlink:href="#m5391f34dc6" y="151.148146269"/>
     <use style="stroke:#000000;stroke-width:0.5;" x="468.79999366" xlink:href="#m5391f34dc6" y="194.087960158"/>
     <use style="stroke:#000000;stroke-width:0.5;" x="481.200006779" xlink:href="#m5391f34dc6" y="249.92822178"/>
     <use style="stroke:#000000;stroke-width:0.5;" x="493.600025491" xlink:href="#m5391f34dc6" y="301.519698041"/>
     <use style="stroke:#000000;stroke-width:0.5;" x="506.000030302" xlink:href="#m5391f34dc6" y="340.896358195"/>
    </g>
   </g>
   <g id="line2d_4">
    <path clip-path="url(#pa7af218c4e)" d="M 72.000681 338.823245 
L 84.399994 337.839614 
L 96.799971 345.533581 
L 109.200009 360.616319 
L 121.599993 371.631119 
L 134.000011 376.35904 
L 146.399987 380.46031 
L 158.799958 384.255105 
L 171.20001 385.974763 
L 183.599973 384.738174 
L 195.999976 381.35927 
L 208.399946 378.141238 
L 220.800001 377.160903 
L 233.199966 380.78629 
L 245.599958 385.659499 
L 257.999992 388.8 
L 270.400018 388.050409 
L 282.800031 384.540171 
L 295.200425 379.389964 
L 307.60001 373.999982 
L 320.000009 367.467109 
L 332.399991 356.587952 
L 344.800027 344.5169 
L 357.199989 341.04459 
L 369.600002 343.881934 
L 382.000002 343.12055 
L 394.400015 334.690884 
L 406.800047 323.018986 
L 419.200028 313.712184 
L 431.60001 311.346205 
L 444.00004 312.448189 
L 456.40001 316.872655 
L 468.799994 320.540574 
L 481.200007 326.454282 
L 493.600025 334.195102 
L 506.00003 338.846457 
" style="fill:none;stroke:#ff00ff;stroke-linecap:square;"/>
    <defs>
     <path d="M -3 3 
L 3 -3 
M -3 -3 
L 3 3 
" id="mc284fbd5f0" style="stroke:#ff00ff;stroke-width:0.5;"/>
    </defs>
    <g clip-path="url(#pa7af218c4e)">
     <use style="fill:#ff00ff;stroke:#ff00ff;stroke-width:0.5;" x="72.0006810434" xlink:href="#mc284fbd5f0" y="338.823245134"/>
     <use style="fill:#ff00ff;stroke:#ff00ff;stroke-width:0.5;" x="84.3999940471" xlink:href="#mc284fbd5f0" y="337.839614118"/>
     <use style="fill:#ff00ff;stroke:#ff00ff;stroke-width:0.5;" x="96.7999707093" xlink:href="#mc284fbd5f0" y="345.533580671"/>
     <use style="fill:#ff00ff;stroke:#ff00ff;stroke-width:0.5;" x="109.200008866" xlink:href="#mc284fbd5f0" y="360.616319379"/>
     <use style="fill:#ff00ff;stroke:#ff00ff;stroke-width:0.5;" x="121.599992582" xlink:href="#mc284fbd5f0" y="371.631119482"/>
     <use style="fill:#ff00ff;stroke:#ff00ff;stroke-width:0.5;" x="134.000011398" xlink:href="#mc284fbd5f0" y="376.359040395"/>
     <use style="fill:#ff00ff;stroke:#ff00ff;stroke-width:0.5;" x="146.399986565" xlink:href="#mc284fbd5f0" y="380.460309946"/>
     <use style="fill:#ff00ff;stroke:#ff00ff;stroke-width:0.5;" x="158.79995802" xlink:href="#mc284fbd5f0" y="384.255105298"/>
     <use style="fill:#ff00ff;stroke:#ff00ff;stroke-width:0.5;" x="171.200009638" xlink:href="#mc284fbd5f0" y="385.974763118"/>
     <use style="fill:#ff00ff;stroke:#ff00ff;stroke-width:0.5;" x="183.599973487" xlink:href="#mc284fbd5f0" y="384.738173662"/>
     <use style="fill:#ff00ff;stroke:#ff00ff;stroke-width:0.5;" x="195.99997639" xlink:href="#mc284fbd5f0" y="381.35926998"/>
     <use style="fill:#ff00ff;stroke:#ff00ff;stroke-width:0.5;" x="208.399945916" xlink:href="#mc284fbd5f0" y="378.141237902"/>
     <use style="fill:#ff00ff;stroke:#ff00ff;stroke-width:0.5;" x="220.800001327" xlink:href="#mc284fbd5f0" y="377.160902806"/>
     <use style="fill:#ff00ff;stroke:#ff00ff;stroke-width:0.5;" x="233.199965728" xlink:href="#mc284fbd5f0" y="380.786290117"/>
     <use style="fill:#ff00ff;stroke:#ff00ff;stroke-width:0.5;" x="245.599957622" xlink:href="#mc284fbd5f0" y="385.659499462"/>
     <use style="fill:#ff00ff;stroke:#ff00ff;stroke-width:0.5;" x="257.999992166" xlink:href="#mc284fbd5f0" y="388.8"/>
     <use style="fill:#ff00ff;stroke:#ff00ff;stroke-width:0.5;" x="270.400018365" xlink:href="#mc284fbd5f0" y="388.05040895"/>
     <use style="fill:#ff00ff;stroke:#ff00ff;stroke-width:0.5;" x="282.800030882" xlink:href="#mc284fbd5f0" y="384.540170995"/>
     <use style="fill:#ff00ff;stroke:#ff00ff;stroke-width:0.5;" x="295.20042486" xlink:href="#mc284fbd5f0" y="379.389964389"/>
     <use style="fill:#ff00ff;stroke:#ff00ff;stroke-width:0.5;" x="307.600009752" xlink:href="#mc284fbd5f0" y="373.99998196"/>
     <use style="fill:#ff00ff;stroke:#ff00ff;stroke-width:0.5;" x="320.000009408" xlink:href="#mc284fbd5f0" y="367.467109196"/>
     <use style="fill:#ff00ff;stroke:#ff00ff;stroke-width:0.5;" x="332.399991478" xlink:href="#mc284fbd5f0" y="356.587951844"/>
     <use style="fill:#ff00ff;stroke:#ff00ff;stroke-width:0.5;" x="344.800026909" xlink:href="#mc284fbd5f0" y="344.516900414"/>
     <use style="fill:#ff00ff;stroke:#ff00ff;stroke-width:0.5;" x="357.19998919" xlink:href="#mc284fbd5f0" y="341.044590299"/>
     <use style="fill:#ff00ff;stroke:#ff00ff;stroke-width:0.5;" x="369.600002125" xlink:href="#mc284fbd5f0" y="343.881934214"/>
     <use style="fill:#ff00ff;stroke:#ff00ff;stroke-width:0.5;" x="382.00000177" xlink:href="#mc284fbd5f0" y="343.120550187"/>
     <use style="fill:#ff00ff;stroke:#ff00ff;stroke-width:0.5;" x="394.400014958" xlink:href="#mc284fbd5f0" y="334.690884234"/>
     <use style="fill:#ff00ff;stroke:#ff00ff;stroke-width:0.5;" x="406.800046823" xlink:href="#mc284fbd5f0" y="323.018986343"/>
     <use style="fill:#ff00ff;stroke:#ff00ff;stroke-width:0.5;" x="419.200027993" xlink:href="#mc284fbd5f0" y="313.71218402"/>
     <use style="fill:#ff00ff;stroke:#ff00ff;stroke-width:0.5;" x="431.600009878" xlink:href="#mc284fbd5f0" y="311.346205229"/>
     <use style="fill:#ff00ff;stroke:#ff00ff;stroke-width:0.5;" x="444.000039884" xlink:href="#mc284fbd5f0" y="312.448189126"/>
     <use style="fill:#ff00ff;stroke:#ff00ff;stroke-width:0.5;" x="456.400010236" xlink:href="#mc284fbd5f0" y="316.872655363"/>
     <use style="fill:#ff00ff;stroke:#ff00ff;stroke-width:0.5;" x="468.79999366" xlink:href="#mc284fbd5f0" y="320.54057425"/>
     <use style="fill:#ff00ff;stroke:#ff00ff;stroke-width:0.5;" x="481.200006779" xlink:href="#mc284fbd5f0" y="326.45428228"/>
     <use style="fill:#ff00ff;stroke:#ff00ff;stroke-width:0.5;" x="493.600025491" xlink:href="#mc284fbd5f0" y="334.195102423"/>
     <use style="fill:#ff00ff;stroke:#ff00ff;stroke-width:0.5;" x="506.000030302" xlink:href="#mc284fbd5f0" y="338.846456804"/>
    </g>
   </g>
   <g id="line2d_5">
    <path clip-path="url(#pa7af218c4e)" d="M 72.000681 323.58683 
L 84.399994 332.010676 
L 96.799971 320.914178 
L 109.200009 294.027035 
L 121.599993 264.601387 
L 134.000011 243.522422 
L 146.399987 235.462421 
L 158.799958 245.087936 
L 171.20001 272.218668 
L 183.599973 310.148749 
L 195.999976 348.583067 
L 208.399946 377.09046 
L 220.800001 388.8 
L 233.199966 379.723355 
L 245.599958 354.185611 
L 257.999992 318.393743 
L 270.400018 281.290891 
L 282.800031 251.409781 
L 295.200425 237.495442 
L 307.60001 242.872903 
L 320.000009 264.11564 
L 332.399991 294.159001 
L 344.800027 321.690665 
L 357.199989 334.259476 
L 369.600002 330.050129 
L 382.000002 311.036631 
L 394.400015 276.63177 
L 406.800047 225.426159 
L 419.200028 163.17599 
L 431.60001 103.758855 
L 444.00004 72.697338 
L 456.40001 84.184101 
L 468.799994 133.811015 
L 481.200007 197.34094 
L 493.600025 254.893903 
L 506.00003 297.923408 
" style="fill:none;stroke:#008000;stroke-linecap:square;"/>
    <defs>
     <path d="M 0 3 
C 0.795609 3 1.55874 2.683901 2.12132 2.12132 
C 2.683901 1.55874 3 0.795609 3 0 
C 3 -0.795609 2.683901 -1.55874 2.12132 -2.12132 
C 1.55874 -2.683901 0.795609 -3 0 -3 
C -0.795609 -3 -1.55874 -2.683901 -2.12132 -2.12132 
C -2.683901 -1.55874 -3 -0.795609 -3 0 
C -3 0.795609 -2.683901 1.55874 -2.12132 2.12132 
C -1.55874 2.683901 -0.795609 3 0 3 
z
" id="m3a03a010c3" style="stroke:#000000;stroke-width:0.5;"/>
    </defs>
    <g clip-path="url(#pa7af218c4e)">
     <use style="fill:#008000;stroke:#000000;stroke-width:0.5;" x="72.0006810434" xlink:href="#m3a03a010c3" y="323.586829684"/>
     <use style="fill:#008000;stroke:#000000;stroke-width:0.5;" x="84.3999940471" xlink:href="#m3a03a010c3" y="332.010675644"/>
     <use style="fill:#008000;stroke:#000000;stroke-width:0.5;" x="96.7999707093" xlink:href="#m3a03a010c3" y="320.91417839"/>
     <use style="fill:#008000;stroke:#000000;stroke-width:0.5;" x="109.200008866" xlink:href="#m3a03a010c3" y="294.027035474"/>
     <use style="fill:#008000;stroke:#000000;stroke-width:0.5;" x="121.599992582" xlink:href="#m3a03a010c3" y="264.601387181"/>
     <use style="fill:#008000;stroke:#000000;stroke-width:0.5;" x="134.000011398" xlink:href="#m3a03a010c3" y="243.522422391"/>
     <use style="fill:#008000;stroke:#000000;stroke-width:0.5;" x="146.399986565" xlink:href="#m3a03a010c3" y="235.46242121"/>
     <use style="fill:#008000;stroke:#000000;stroke-width:0.5;" x="158.79995802" xlink:href="#m3a03a010c3" y="245.087936055"/>
     <use style="fill:#008000;stroke:#000000;stroke-width:0.5;" x="171.200009638" xlink:href="#m3a03a010c3" y="272.21866832"/>
     <use style="fill:#008000;stroke:#000000;stroke-width:0.5;" x="183.599973487" xlink:href="#m3a03a010c3" y="310.148748516"/>
     <use style="fill:#008000;stroke:#000000;stroke-width:0.5;" x="195.99997639" xlink:href="#m3a03a010c3" y="348.583067055"/>
     <use style="fill:#008000;stroke:#000000;stroke-width:0.5;" x="208.399945916" xlink:href="#m3a03a010c3" y="377.090460051"/>
     <use style="fill:#008000;stroke:#000000;stroke-width:0.5;" x="220.800001327" xlink:href="#m3a03a010c3" y="388.8"/>
     <use style="fill:#008000;stroke:#000000;stroke-width:0.5;" x="233.199965728" xlink:href="#m3a03a010c3" y="379.723354893"/>
     <use style="fill:#008000;stroke:#000000;stroke-width:0.5;" x="245.599957622" xlink:href="#m3a03a010c3" y="354.185611096"/>
     <use style="fill:#008000;stroke:#000000;stroke-width:0.5;" x="257.999992166" xlink:href="#m3a03a010c3" y="318.39374275"/>
     <use style="fill:#008000;stroke:#000000;stroke-width:0.5;" x="270.400018365" xlink:href="#m3a03a010c3" y="281.290890866"/>
     <use style="fill:#008000;stroke:#000000;stroke-width:0.5;" x="282.800030882" xlink:href="#m3a03a010c3" y="251.409781196"/>
     <use style="fill:#008000;stroke:#000000;stroke-width:0.5;" x="295.20042486" xlink:href="#m3a03a010c3" y="237.495441967"/>
     <use style="fill:#008000;stroke:#000000;stroke-width:0.5;" x="307.600009752" xlink:href="#m3a03a010c3" y="242.872903251"/>
     <use style="fill:#008000;stroke:#000000;stroke-width:0.5;" x="320.000009408" xlink:href="#m3a03a010c3" y="264.115640101"/>
     <use style="fill:#008000;stroke:#000000;stroke-width:0.5;" x="332.399991478" xlink:href="#m3a03a010c3" y="294.159001146"/>
     <use style="fill:#008000;stroke:#000000;stroke-width:0.5;" x="344.800026909" xlink:href="#m3a03a010c3" y="321.690665132"/>
     <use style="fill:#008000;stroke:#000000;stroke-width:0.5;" x="357.19998919" xlink:href="#m3a03a010c3" y="334.259476246"/>
     <use style="fill:#008000;stroke:#000000;stroke-width:0.5;" x="369.600002125" xlink:href="#m3a03a010c3" y="330.050128826"/>
     <use style="fill:#008000;stroke:#000000;stroke-width:0.5;" x="382.00000177" xlink:href="#m3a03a010c3" y="311.036630716"/>
     <use style="fill:#008000;stroke:#000000;stroke-width:0.5;" x="394.400014958" xlink:href="#m3a03a010c3" y="276.631769959"/>
     <use style="fill:#008000;stroke:#000000;stroke-width:0.5;" x="406.800046823" xlink:href="#m3a03a010c3" y="225.426159154"/>
     <use style="fill:#008000;stroke:#000000;stroke-width:0.5;" x="419.200027993" xlink:href="#m3a03a010c3" y="163.175989968"/>
     <use style="fill:#008000;stroke:#000000;stroke-width:0.5;" x="431.600009878" xlink:href="#m3a03a010c3" y="103.758854773"/>
     <use style="fill:#008000;stroke:#000000;stroke-width:0.5;" x="444.000039884" xlink:href="#m3a03a010c3" y="72.6973377022"/>
     <use style="fill:#008000;stroke:#000000;stroke-width:0.5;" x="456.400010236" xlink:href="#m3a03a010c3" y="84.1841007332"/>
     <use style="fill:#008000;stroke:#000000;stroke-width:0.5;" x="468.79999366" xlink:href="#m3a03a010c3" y="133.811014829"/>
     <use style="fill:#008000;stroke:#000000;stroke-width:0.5;" x="481.200006779" xlink:href="#m3a03a010c3" y="197.340939675"/>
     <use style="fill:#008000;stroke:#000000;stroke-width:0.5;" x="493.600025491" xlink:href="#m3a03a010c3" y="254.893903147"/>
     <use style="fill:#008000;stroke:#000000;stroke-width:0.5;" x="506.000030302" xlink:href="#m3a03a010c3" y="297.923407839"/>
    </g>
   </g>
   <g id="patch_3">
    <path d="M 72 388.8 
L 518.4 388.8 
" style="fill:none;stroke:#000000;stroke-linecap:square;stroke-linejoin:miter;"/>
   </g>
   <g id="patch_4">
    <path d="M 72 388.8 
L 72 43.2 
" style="fill:none;stroke:#000000;stroke-linecap:square;stroke-linejoin:miter;"/>
   </g>
   <g id="patch_5">
    <path d="M 518.4 388.8 
L 518.4 43.2 
" style="fill:none;stroke:#000000;stroke-linecap:square;stroke-linejoin:miter;"/>
   </g>
   <g id="patch_6">
    <path d="M 72 43.2 
L 518.4 43.2 
" style="fill:none;stroke:#000000;stroke-linecap:square;stroke-linejoin:miter;"/>
   </g>
   <g id="matplotlib.axis_1">
    <g id="xtick_1">
     <g id="line2d_6">
      <defs>
       <path d="M 0 0 
L 0 -4 
" id="m71f5ece001" style="stroke:#000000;stroke-width:0.5;"/>
      </defs>
      <g>
       <use style="stroke:#000000;stroke-width:0.5;" x="72.0" xlink:href="#m71f5ece001" y="388.8"/>
      </g>
     </g>
     <g id="line2d_7">
      <defs>
       <path d="M 0 0 
L 0 4 
" id="m8a8c50e816" style="stroke:#000000;stroke-width:0.5;"/>
      </defs>
      <g>
       <use style="stroke:#000000;stroke-width:0.5;" x="72.0" xlink:href="#m8a8c50e816" y="43.2"/>
      </g>
     </g>
     <g id="text_1">
      <!-- −180 -->
      <defs>
       <path d="M 31.78125 66.40625 
Q 24.171875 66.40625 20.328125 58.90625 
Q 16.5 51.421875 16.5 36.375 
Q 16.5 21.390625 20.328125 13.890625 
Q 24.171875 6.390625 31.78125 6.390625 
Q 39.453125 6.390625 43.28125 13.890625 
Q 47.125 21.390625 47.125 36.375 
Q 47.125 51.421875 43.28125 58.90625 
Q 39.453125 66.40625 31.78125 66.40625 
M 31.78125 74.21875 
Q 44.046875 74.21875 50.515625 64.515625 
Q 56.984375 54.828125 56.984375 36.375 
Q 56.984375 17.96875 50.515625 8.265625 
Q 44.046875 -1.421875 31.78125 -1.421875 
Q 19.53125 -1.421875 13.0625 8.265625 
Q 6.59375 17.96875 6.59375 36.375 
Q 6.59375 54.828125 13.0625 64.515625 
Q 19.53125 74.21875 31.78125 74.21875 
" id="BitstreamVeraSans-Roman-30"/>
       <path d="M 31.78125 34.625 
Q 24.75 34.625 20.71875 30.859375 
Q 16.703125 27.09375 16.703125 20.515625 
Q 16.703125 13.921875 20.71875 10.15625 
Q 24.75 6.390625 31.78125 6.390625 
Q 38.8125 6.390625 42.859375 10.171875 
Q 46.921875 13.96875 46.921875 20.515625 
Q 46.921875 27.09375 42.890625 30.859375 
Q 38.875 34.625 31.78125 34.625 
M 21.921875 38.8125 
Q 15.578125 40.375 12.03125 44.71875 
Q 8.5 49.078125 8.5 55.328125 
Q 8.5 64.0625 14.71875 69.140625 
Q 20.953125 74.21875 31.78125 74.21875 
Q 42.671875 74.21875 48.875 69.140625 
Q 55.078125 64.0625 55.078125 55.328125 
Q 55.078125 49.078125 51.53125 44.71875 
Q 48 40.375 41.703125 38.8125 
Q 48.828125 37.15625 52.796875 32.3125 
Q 56.78125 27.484375 56.78125 20.515625 
Q 56.78125 9.90625 50.3125 4.234375 
Q 43.84375 -1.421875 31.78125 -1.421875 
Q 19.734375 -1.421875 13.25 4.234375 
Q 6.78125 9.90625 6.78125 20.515625 
Q 6.78125 27.484375 10.78125 32.3125 
Q 14.796875 37.15625 21.921875 38.8125 
M 18.3125 54.390625 
Q 18.3125 48.734375 21.84375 45.5625 
Q 25.390625 42.390625 31.78125 42.390625 
Q 38.140625 42.390625 41.71875 45.5625 
Q 45.3125 48.734375 45.3125 54.390625 
Q 45.3125 60.0625 41.71875 63.234375 
Q 38.140625 66.40625 31.78125 66.40625 
Q 25.390625 66.40625 21.84375 63.234375 
Q 18.3125 60.0625 18.3125 54.390625 
" id="BitstreamVeraSans-Roman-38"/>
       <path d="M 10.59375 35.5 
L 73.1875 35.5 
L 73.1875 27.203125 
L 10.59375 27.203125 
z
" id="BitstreamVeraSans-Roman-2212"/>
       <path d="M 12.40625 8.296875 
L 28.515625 8.296875 
L 28.515625 63.921875 
L 10.984375 60.40625 
L 10.984375 69.390625 
L 28.421875 72.90625 
L 38.28125 72.90625 
L 38.28125 8.296875 
L 54.390625 8.296875 
L 54.390625 0 
L 12.40625 0 
z
" id="BitstreamVeraSans-Roman-31"/>
      </defs>
      <g transform="translate(55.5196875 401.918125)scale(0.12 -0.12)">
       <use xlink:href="#BitstreamVeraSans-Roman-2212"/>
       <use x="83.7890625" xlink:href="#BitstreamVeraSans-Roman-31"/>
       <use x="147.412109375" xlink:href="#BitstreamVeraSans-Roman-38"/>
       <use x="211.03515625" xlink:href="#BitstreamVeraSans-Roman-30"/>
      </g>
     </g>
    </g>
    <g id="xtick_2">
     <g id="line2d_8">
      <g>
       <use style="stroke:#000000;stroke-width:0.5;" x="127.8" xlink:href="#m71f5ece001" y="388.8"/>
      </g>
     </g>
     <g id="line2d_9">
      <g>
       <use style="stroke:#000000;stroke-width:0.5;" x="127.8" xlink:href="#m8a8c50e816" y="43.2"/>
      </g>
     </g>
     <g id="text_2">
      <!-- −135 -->
      <defs>
       <path d="M 40.578125 39.3125 
Q 47.65625 37.796875 51.625 33 
Q 55.609375 28.21875 55.609375 21.1875 
Q 55.609375 10.40625 48.1875 4.484375 
Q 40.765625 -1.421875 27.09375 -1.421875 
Q 22.515625 -1.421875 17.65625 -0.515625 
Q 12.796875 0.390625 7.625 2.203125 
L 7.625 11.71875 
Q 11.71875 9.328125 16.59375 8.109375 
Q 21.484375 6.890625 26.8125 6.890625 
Q 36.078125 6.890625 40.9375 10.546875 
Q 45.796875 14.203125 45.796875 21.1875 
Q 45.796875 27.640625 41.28125 31.265625 
Q 36.765625 34.90625 28.71875 34.90625 
L 20.21875 34.90625 
L 20.21875 43.015625 
L 29.109375 43.015625 
Q 36.375 43.015625 40.234375 45.921875 
Q 44.09375 48.828125 44.09375 54.296875 
Q 44.09375 59.90625 40.109375 62.90625 
Q 36.140625 65.921875 28.71875 65.921875 
Q 24.65625 65.921875 20.015625 65.03125 
Q 15.375 64.15625 9.8125 62.3125 
L 9.8125 71.09375 
Q 15.4375 72.65625 20.34375 73.4375 
Q 25.25 74.21875 29.59375 74.21875 
Q 40.828125 74.21875 47.359375 69.109375 
Q 53.90625 64.015625 53.90625 55.328125 
Q 53.90625 49.265625 50.4375 45.09375 
Q 46.96875 40.921875 40.578125 39.3125 
" id="BitstreamVeraSans-Roman-33"/>
       <path d="M 10.796875 72.90625 
L 49.515625 72.90625 
L 49.515625 64.59375 
L 19.828125 64.59375 
L 19.828125 46.734375 
Q 21.96875 47.46875 24.109375 47.828125 
Q 26.265625 48.1875 28.421875 48.1875 
Q 40.625 48.1875 47.75 41.5 
Q 54.890625 34.8125 54.890625 23.390625 
Q 54.890625 11.625 47.5625 5.09375 
Q 40.234375 -1.421875 26.90625 -1.421875 
Q 22.3125 -1.421875 17.546875 -0.640625 
Q 12.796875 0.140625 7.71875 1.703125 
L 7.71875 11.625 
Q 12.109375 9.234375 16.796875 8.0625 
Q 21.484375 6.890625 26.703125 6.890625 
Q 35.15625 6.890625 40.078125 11.328125 
Q 45.015625 15.765625 45.015625 23.390625 
Q 45.015625 31 40.078125 35.4375 
Q 35.15625 39.890625 26.703125 39.890625 
Q 22.75 39.890625 18.8125 39.015625 
Q 14.890625 38.140625 10.796875 36.28125 
z
" id="BitstreamVeraSans-Roman-35"/>
      </defs>
      <g transform="translate(111.3196875 401.918125)scale(0.12 -0.12)">
       <use xlink:href="#BitstreamVeraSans-Roman-2212"/>
       <use x="83.7890625" xlink:href="#BitstreamVeraSans-Roman-31"/>
       <use x="147.412109375" xlink:href="#BitstreamVeraSans-Roman-33"/>
       <use x="211.03515625" xlink:href="#BitstreamVeraSans-Roman-35"/>
      </g>
     </g>
    </g>
    <g id="xtick_3">
     <g id="line2d_10">
      <g>
       <use style="stroke:#000000;stroke-width:0.5;" x="183.6" xlink:href="#m71f5ece001" y="388.8"/>
      </g>
     </g>
     <g id="line2d_11">
      <g>
       <use style="stroke:#000000;stroke-width:0.5;" x="183.6" xlink:href="#m8a8c50e816" y="43.2"/>
      </g>
     </g>
     <g id="text_3">
      <!-- −90 -->
      <defs>
       <path d="M 10.984375 1.515625 
L 10.984375 10.5 
Q 14.703125 8.734375 18.5 7.8125 
Q 22.3125 6.890625 25.984375 6.890625 
Q 35.75 6.890625 40.890625 13.453125 
Q 46.046875 20.015625 46.78125 33.40625 
Q 43.953125 29.203125 39.59375 26.953125 
Q 35.25 24.703125 29.984375 24.703125 
Q 19.046875 24.703125 12.671875 31.3125 
Q 6.296875 37.9375 6.296875 49.421875 
Q 6.296875 60.640625 12.9375 67.421875 
Q 19.578125 74.21875 30.609375 74.21875 
Q 43.265625 74.21875 49.921875 64.515625 
Q 56.59375 54.828125 56.59375 36.375 
Q 56.59375 19.140625 48.40625 8.859375 
Q 40.234375 -1.421875 26.421875 -1.421875 
Q 22.703125 -1.421875 18.890625 -0.6875 
Q 15.09375 0.046875 10.984375 1.515625 
M 30.609375 32.421875 
Q 37.25 32.421875 41.125 36.953125 
Q 45.015625 41.5 45.015625 49.421875 
Q 45.015625 57.28125 41.125 61.84375 
Q 37.25 66.40625 30.609375 66.40625 
Q 23.96875 66.40625 20.09375 61.84375 
Q 16.21875 57.28125 16.21875 49.421875 
Q 16.21875 41.5 20.09375 36.953125 
Q 23.96875 32.421875 30.609375 32.421875 
" id="BitstreamVeraSans-Roman-39"/>
      </defs>
      <g transform="translate(170.9371875 401.918125)scale(0.12 -0.12)">
       <use xlink:href="#BitstreamVeraSans-Roman-2212"/>
       <use x="83.7890625" xlink:href="#BitstreamVeraSans-Roman-39"/>
       <use x="147.412109375" xlink:href="#BitstreamVeraSans-Roman-30"/>
      </g>
     </g>
    </g>
    <g id="xtick_4">
     <g id="line2d_12">
      <g>
       <use style="stroke:#000000;stroke-width:0.5;" x="239.4" xlink:href="#m71f5ece001" y="388.8"/>
      </g>
     </g>
     <g id="line2d_13">
      <g>
       <use style="stroke:#000000;stroke-width:0.5;" x="239.4" xlink:href="#m8a8c50e816" y="43.2"/>
      </g>
     </g>
     <g id="text_4">
      <!-- −45 -->
      <defs>
       <path d="M 37.796875 64.3125 
L 12.890625 25.390625 
L 37.796875 25.390625 
z
M 35.203125 72.90625 
L 47.609375 72.90625 
L 47.609375 25.390625 
L 58.015625 25.390625 
L 58.015625 17.1875 
L 47.609375 17.1875 
L 47.609375 0 
L 37.796875 0 
L 37.796875 17.1875 
L 4.890625 17.1875 
L 4.890625 26.703125 
z
" id="BitstreamVeraSans-Roman-34"/>
      </defs>
      <g transform="translate(226.7371875 401.918125)scale(0.12 -0.12)">
       <use xlink:href="#BitstreamVeraSans-Roman-2212"/>
       <use x="83.7890625" xlink:href="#BitstreamVeraSans-Roman-34"/>
       <use x="147.412109375" xlink:href="#BitstreamVeraSans-Roman-35"/>
      </g>
     </g>
    </g>
    <g id="xtick_5">
     <g id="line2d_14">
      <g>
       <use style="stroke:#000000;stroke-width:0.5;" x="295.2" xlink:href="#m71f5ece001" y="388.8"/>
      </g>
     </g>
     <g id="line2d_15">
      <g>
       <use style="stroke:#000000;stroke-width:0.5;" x="295.2" xlink:href="#m8a8c50e816" y="43.2"/>
      </g>
     </g>
     <g id="text_5">
      <!-- 0 -->
      <g transform="translate(291.3825 401.918125)scale(0.12 -0.12)">
       <use xlink:href="#BitstreamVeraSans-Roman-30"/>
      </g>
     </g>
    </g>
    <g id="xtick_6">
     <g id="line2d_16">
      <g>
       <use style="stroke:#000000;stroke-width:0.5;" x="351.0" xlink:href="#m71f5ece001" y="388.8"/>
      </g>
     </g>
     <g id="line2d_17">
      <g>
       <use style="stroke:#000000;stroke-width:0.5;" x="351.0" xlink:href="#m8a8c50e816" y="43.2"/>
      </g>
     </g>
     <g id="text_6">
      <!-- 45 -->
      <g transform="translate(343.365 401.918125)scale(0.12 -0.12)">
       <use xlink:href="#BitstreamVeraSans-Roman-34"/>
       <use x="63.623046875" xlink:href="#BitstreamVeraSans-Roman-35"/>
      </g>
     </g>
    </g>
    <g id="xtick_7">
     <g id="line2d_18">
      <g>
       <use style="stroke:#000000;stroke-width:0.5;" x="406.8" xlink:href="#m71f5ece001" y="388.8"/>
      </g>
     </g>
     <g id="line2d_19">
      <g>
       <use style="stroke:#000000;stroke-width:0.5;" x="406.8" xlink:href="#m8a8c50e816" y="43.2"/>
      </g>
     </g>
     <g id="text_7">
      <!-- 90 -->
      <g transform="translate(399.165 401.918125)scale(0.12 -0.12)">
       <use xlink:href="#BitstreamVeraSans-Roman-39"/>
       <use x="63.623046875" xlink:href="#BitstreamVeraSans-Roman-30"/>
      </g>
     </g>
    </g>
    <g id="xtick_8">
     <g id="line2d_20">
      <g>
       <use style="stroke:#000000;stroke-width:0.5;" x="462.6" xlink:href="#m71f5ece001" y="388.8"/>
      </g>
     </g>
     <g id="line2d_21">
      <g>
       <use style="stroke:#000000;stroke-width:0.5;" x="462.6" xlink:href="#m8a8c50e816" y="43.2"/>
      </g>
     </g>
     <g id="text_8">
      <!-- 135 -->
      <g transform="translate(451.1475 401.918125)scale(0.12 -0.12)">
       <use xlink:href="#BitstreamVeraSans-Roman-31"/>
       <use x="63.623046875" xlink:href="#BitstreamVeraSans-Roman-33"/>
       <use x="127.24609375" xlink:href="#BitstreamVeraSans-Roman-35"/>
      </g>
     </g>
    </g>
    <g id="xtick_9">
     <g id="line2d_22">
      <g>
       <use style="stroke:#000000;stroke-width:0.5;" x="518.4" xlink:href="#m71f5ece001" y="388.8"/>
      </g>
     </g>
     <g id="line2d_23">
      <g>
       <use style="stroke:#000000;stroke-width:0.5;" x="518.4" xlink:href="#m8a8c50e816" y="43.2"/>
      </g>
     </g>
     <g id="text_9">
      <!-- 180 -->
      <g transform="translate(506.9475 401.918125)scale(0.12 -0.12)">
       <use xlink:href="#BitstreamVeraSans-Roman-31"/>
       <use x="63.623046875" xlink:href="#BitstreamVeraSans-Roman-38"/>
       <use x="127.24609375" xlink:href="#BitstreamVeraSans-Roman-30"/>
      </g>
     </g>
    </g>
    <g id="text_10">
     <!-- Phi -->
     <defs>
      <path d="M 19.671875 64.796875 
L 19.671875 37.40625 
L 32.078125 37.40625 
Q 38.96875 37.40625 42.71875 40.96875 
Q 46.484375 44.53125 46.484375 51.125 
Q 46.484375 57.671875 42.71875 61.234375 
Q 38.96875 64.796875 32.078125 64.796875 
z
M 9.8125 72.90625 
L 32.078125 72.90625 
Q 44.34375 72.90625 50.609375 67.359375 
Q 56.890625 61.8125 56.890625 51.125 
Q 56.890625 40.328125 50.609375 34.8125 
Q 44.34375 29.296875 32.078125 29.296875 
L 19.671875 29.296875 
L 19.671875 0 
L 9.8125 0 
z
" id="BitstreamVeraSans-Roman-50"/>
      <path d="M 54.890625 33.015625 
L 54.890625 0 
L 45.90625 0 
L 45.90625 32.71875 
Q 45.90625 40.484375 42.875 44.328125 
Q 39.84375 48.1875 33.796875 48.1875 
Q 26.515625 48.1875 22.3125 43.546875 
Q 18.109375 38.921875 18.109375 30.90625 
L 18.109375 0 
L 9.078125 0 
L 9.078125 75.984375 
L 18.109375 75.984375 
L 18.109375 46.1875 
Q 21.34375 51.125 25.703125 53.5625 
Q 30.078125 56 35.796875 56 
Q 45.21875 56 50.046875 50.171875 
Q 54.890625 44.34375 54.890625 33.015625 
" id="BitstreamVeraSans-Roman-68"/>
      <path d="M 9.421875 54.6875 
L 18.40625 54.6875 
L 18.40625 0 
L 9.421875 0 
z
M 9.421875 75.984375 
L 18.40625 75.984375 
L 18.40625 64.59375 
L 9.421875 64.59375 
z
" id="BitstreamVeraSans-Roman-69"/>
     </defs>
     <g transform="translate(286.1128125 418.531875)scale(0.12 -0.12)">
      <use xlink:href="#BitstreamVeraSans-Roman-50"/>
      <use x="60.302734375" xlink:href="#BitstreamVeraSans-Roman-68"/>
      <use x="123.681640625" xlink:href="#BitstreamVeraSans-Roman-69"/>
     </g>
    </g>
   </g>
   <g id="matplotlib.axis_2">
    <g id="ytick_1">
     <g id="line2d_24">
      <defs>
       <path d="M 0 0 
L 4 0 
" id="m9ef91d4aec" style="stroke:#000000;stroke-width:0.5;"/>
      </defs>
      <g>
       <use style="stroke:#000000;stroke-width:0.5;" x="72.0" xlink:href="#m9ef91d4aec" y="388.8"/>
      </g>
     </g>
     <g id="line2d_25">
      <defs>
       <path d="M 0 0 
L -4 0 
" id="mf88a61a87d" style="stroke:#000000;stroke-width:0.5;"/>
      </defs>
      <g>
       <use style="stroke:#000000;stroke-width:0.5;" x="518.4" xlink:href="#mf88a61a87d" y="388.8"/>
      </g>
     </g>
     <g id="text_11">
      <!-- 0 -->
      <g transform="translate(60.365 392.11125)scale(0.12 -0.12)">
       <use xlink:href="#BitstreamVeraSans-Roman-30"/>
      </g>
     </g>
    </g>
    <g id="ytick_2">
     <g id="line2d_26">
      <g>
       <use style="stroke:#000000;stroke-width:0.5;" x="72.0" xlink:href="#m9ef91d4aec" y="339.428571429"/>
      </g>
     </g>
     <g id="line2d_27">
      <g>
       <use style="stroke:#000000;stroke-width:0.5;" x="518.4" xlink:href="#mf88a61a87d" y="339.428571429"/>
      </g>
     </g>
     <g id="text_12">
      <!-- 1 -->
      <g transform="translate(60.365 342.739821429)scale(0.12 -0.12)">
       <use xlink:href="#BitstreamVeraSans-Roman-31"/>
      </g>
     </g>
    </g>
    <g id="ytick_3">
     <g id="line2d_28">
      <g>
       <use style="stroke:#000000;stroke-width:0.5;" x="72.0" xlink:href="#m9ef91d4aec" y="290.057142857"/>
      </g>
     </g>
     <g id="line2d_29">
      <g>
       <use style="stroke:#000000;stroke-width:0.5;" x="518.4" xlink:href="#mf88a61a87d" y="290.057142857"/>
      </g>
     </g>
     <g id="text_13">
      <!-- 2 -->
      <defs>
       <path d="M 19.1875 8.296875 
L 53.609375 8.296875 
L 53.609375 0 
L 7.328125 0 
L 7.328125 8.296875 
Q 12.9375 14.109375 22.625 23.890625 
Q 32.328125 33.6875 34.8125 36.53125 
Q 39.546875 41.84375 41.421875 45.53125 
Q 43.3125 49.21875 43.3125 52.78125 
Q 43.3125 58.59375 39.234375 62.25 
Q 35.15625 65.921875 28.609375 65.921875 
Q 23.96875 65.921875 18.8125 64.3125 
Q 13.671875 62.703125 7.8125 59.421875 
L 7.8125 69.390625 
Q 13.765625 71.78125 18.9375 73 
Q 24.125 74.21875 28.421875 74.21875 
Q 39.75 74.21875 46.484375 68.546875 
Q 53.21875 62.890625 53.21875 53.421875 
Q 53.21875 48.921875 51.53125 44.890625 
Q 49.859375 40.875 45.40625 35.40625 
Q 44.1875 33.984375 37.640625 27.21875 
Q 31.109375 20.453125 19.1875 8.296875 
" id="BitstreamVeraSans-Roman-32"/>
      </defs>
      <g transform="translate(60.365 293.368392857)scale(0.12 -0.12)">
       <use xlink:href="#BitstreamVeraSans-Roman-32"/>
      </g>
     </g>
    </g>
    <g id="ytick_4">
     <g id="line2d_30">
      <g>
       <use style="stroke:#000000;stroke-width:0.5;" x="72.0" xlink:href="#m9ef91d4aec" y="240.685714286"/>
      </g>
     </g>
     <g id="line2d_31">
      <g>
       <use style="stroke:#000000;stroke-width:0.5;" x="518.4" xlink:href="#mf88a61a87d" y="240.685714286"/>
      </g>
     </g>
     <g id="text_14">
      <!-- 3 -->
      <g transform="translate(60.365 243.996964286)scale(0.12 -0.12)">
       <use xlink:href="#BitstreamVeraSans-Roman-33"/>
      </g>
     </g>
    </g>
    <g id="ytick_5">
     <g id="line2d_32">
      <g>
       <use style="stroke:#000000;stroke-width:0.5;" x="72.0" xlink:href="#m9ef91d4aec" y="191.314285714"/>
      </g>
     </g>
     <g id="line2d_33">
      <g>
       <use style="stroke:#000000;stroke-width:0.5;" x="518.4" xlink:href="#mf88a61a87d" y="191.314285714"/>
      </g>
     </g>
     <g id="text_15">
      <!-- 4 -->
      <g transform="translate(60.365 194.625535714)scale(0.12 -0.12)">
       <use xlink:href="#BitstreamVeraSans-Roman-34"/>
      </g>
     </g>
    </g>
    <g id="ytick_6">
     <g id="line2d_34">
      <g>
       <use style="stroke:#000000;stroke-width:0.5;" x="72.0" xlink:href="#m9ef91d4aec" y="141.942857143"/>
      </g>
     </g>
     <g id="line2d_35">
      <g>
       <use style="stroke:#000000;stroke-width:0.5;" x="518.4" xlink:href="#mf88a61a87d" y="141.942857143"/>
      </g>
     </g>
     <g id="text_16">
      <!-- 5 -->
      <g transform="translate(60.365 145.254107143)scale(0.12 -0.12)">
       <use xlink:href="#BitstreamVeraSans-Roman-35"/>
      </g>
     </g>
    </g>
    <g id="ytick_7">
     <g id="line2d_36">
      <g>
       <use style="stroke:#000000;stroke-width:0.5;" x="72.0" xlink:href="#m9ef91d4aec" y="92.5714285714"/>
      </g>
     </g>
     <g id="line2d_37">
      <g>
       <use style="stroke:#000000;stroke-width:0.5;" x="518.4" xlink:href="#mf88a61a87d" y="92.5714285714"/>
      </g>
     </g>
     <g id="text_17">
      <!-- 6 -->
      <defs>
       <path d="M 33.015625 40.375 
Q 26.375 40.375 22.484375 35.828125 
Q 18.609375 31.296875 18.609375 23.390625 
Q 18.609375 15.53125 22.484375 10.953125 
Q 26.375 6.390625 33.015625 6.390625 
Q 39.65625 6.390625 43.53125 10.953125 
Q 47.40625 15.53125 47.40625 23.390625 
Q 47.40625 31.296875 43.53125 35.828125 
Q 39.65625 40.375 33.015625 40.375 
M 52.59375 71.296875 
L 52.59375 62.3125 
Q 48.875 64.0625 45.09375 64.984375 
Q 41.3125 65.921875 37.59375 65.921875 
Q 27.828125 65.921875 22.671875 59.328125 
Q 17.53125 52.734375 16.796875 39.40625 
Q 19.671875 43.65625 24.015625 45.921875 
Q 28.375 48.1875 33.59375 48.1875 
Q 44.578125 48.1875 50.953125 41.515625 
Q 57.328125 34.859375 57.328125 23.390625 
Q 57.328125 12.15625 50.6875 5.359375 
Q 44.046875 -1.421875 33.015625 -1.421875 
Q 20.359375 -1.421875 13.671875 8.265625 
Q 6.984375 17.96875 6.984375 36.375 
Q 6.984375 53.65625 15.1875 63.9375 
Q 23.390625 74.21875 37.203125 74.21875 
Q 40.921875 74.21875 44.703125 73.484375 
Q 48.484375 72.75 52.59375 71.296875 
" id="BitstreamVeraSans-Roman-36"/>
      </defs>
      <g transform="translate(60.365 95.8826785714)scale(0.12 -0.12)">
       <use xlink:href="#BitstreamVeraSans-Roman-36"/>
      </g>
     </g>
    </g>
    <g id="ytick_8">
     <g id="line2d_38">
      <g>
       <use style="stroke:#000000;stroke-width:0.5;" x="72.0" xlink:href="#m9ef91d4aec" y="43.2"/>
      </g>
     </g>
     <g id="line2d_39">
      <g>
       <use style="stroke:#000000;stroke-width:0.5;" x="518.4" xlink:href="#mf88a61a87d" y="43.2"/>
      </g>
     </g>
     <g id="text_18">
      <!-- 7 -->
      <defs>
       <path d="M 8.203125 72.90625 
L 55.078125 72.90625 
L 55.078125 68.703125 
L 28.609375 0 
L 18.3125 0 
L 43.21875 64.59375 
L 8.203125 64.59375 
z
" id="BitstreamVeraSans-Roman-37"/>
      </defs>
      <g transform="translate(60.365 46.51125)scale(0.12 -0.12)">
       <use xlink:href="#BitstreamVeraSans-Roman-37"/>
      </g>
     </g>
    </g>
    <g id="text_19">
     <!-- kcal/mol -->
     <defs>
      <path d="M 48.78125 52.59375 
L 48.78125 44.1875 
Q 44.96875 46.296875 41.140625 47.34375 
Q 37.3125 48.390625 33.40625 48.390625 
Q 24.65625 48.390625 19.8125 42.84375 
Q 14.984375 37.3125 14.984375 27.296875 
Q 14.984375 17.28125 19.8125 11.734375 
Q 24.65625 6.203125 33.40625 6.203125 
Q 37.3125 6.203125 41.140625 7.25 
Q 44.96875 8.296875 48.78125 10.40625 
L 48.78125 2.09375 
Q 45.015625 0.34375 40.984375 -0.53125 
Q 36.96875 -1.421875 32.421875 -1.421875 
Q 20.0625 -1.421875 12.78125 6.34375 
Q 5.515625 14.109375 5.515625 27.296875 
Q 5.515625 40.671875 12.859375 48.328125 
Q 20.21875 56 33.015625 56 
Q 37.15625 56 41.109375 55.140625 
Q 45.0625 54.296875 48.78125 52.59375 
" id="BitstreamVeraSans-Roman-63"/>
      <path d="M 9.078125 75.984375 
L 18.109375 75.984375 
L 18.109375 31.109375 
L 44.921875 54.6875 
L 56.390625 54.6875 
L 27.390625 29.109375 
L 57.625 0 
L 45.90625 0 
L 18.109375 26.703125 
L 18.109375 0 
L 9.078125 0 
z
" id="BitstreamVeraSans-Roman-6b"/>
      <path d="M 34.28125 27.484375 
Q 23.390625 27.484375 19.1875 25 
Q 14.984375 22.515625 14.984375 16.5 
Q 14.984375 11.71875 18.140625 8.90625 
Q 21.296875 6.109375 26.703125 6.109375 
Q 34.1875 6.109375 38.703125 11.40625 
Q 43.21875 16.703125 43.21875 25.484375 
L 43.21875 27.484375 
z
M 52.203125 31.203125 
L 52.203125 0 
L 43.21875 0 
L 43.21875 8.296875 
Q 40.140625 3.328125 35.546875 0.953125 
Q 30.953125 -1.421875 24.3125 -1.421875 
Q 15.921875 -1.421875 10.953125 3.296875 
Q 6 8.015625 6 15.921875 
Q 6 25.140625 12.171875 29.828125 
Q 18.359375 34.515625 30.609375 34.515625 
L 43.21875 34.515625 
L 43.21875 35.40625 
Q 43.21875 41.609375 39.140625 45 
Q 35.0625 48.390625 27.6875 48.390625 
Q 23 48.390625 18.546875 47.265625 
Q 14.109375 46.140625 10.015625 43.890625 
L 10.015625 52.203125 
Q 14.9375 54.109375 19.578125 55.046875 
Q 24.21875 56 28.609375 56 
Q 40.484375 56 46.34375 49.84375 
Q 52.203125 43.703125 52.203125 31.203125 
" id="BitstreamVeraSans-Roman-61"/>
      <path d="M 52 44.1875 
Q 55.375 50.25 60.0625 53.125 
Q 64.75 56 71.09375 56 
Q 79.640625 56 84.28125 50.015625 
Q 88.921875 44.046875 88.921875 33.015625 
L 88.921875 0 
L 79.890625 0 
L 79.890625 32.71875 
Q 79.890625 40.578125 77.09375 44.375 
Q 74.3125 48.1875 68.609375 48.1875 
Q 61.625 48.1875 57.5625 43.546875 
Q 53.515625 38.921875 53.515625 30.90625 
L 53.515625 0 
L 44.484375 0 
L 44.484375 32.71875 
Q 44.484375 40.625 41.703125 44.40625 
Q 38.921875 48.1875 33.109375 48.1875 
Q 26.21875 48.1875 22.15625 43.53125 
Q 18.109375 38.875 18.109375 30.90625 
L 18.109375 0 
L 9.078125 0 
L 9.078125 54.6875 
L 18.109375 54.6875 
L 18.109375 46.1875 
Q 21.1875 51.21875 25.484375 53.609375 
Q 29.78125 56 35.6875 56 
Q 41.65625 56 45.828125 52.96875 
Q 50 49.953125 52 44.1875 
" id="BitstreamVeraSans-Roman-6d"/>
      <path d="M 9.421875 75.984375 
L 18.40625 75.984375 
L 18.40625 0 
L 9.421875 0 
z
" id="BitstreamVeraSans-Roman-6c"/>
      <path d="M 25.390625 72.90625 
L 33.6875 72.90625 
L 8.296875 -9.28125 
L 0 -9.28125 
z
" id="BitstreamVeraSans-Roman-2f"/>
      <path d="M 30.609375 48.390625 
Q 23.390625 48.390625 19.1875 42.75 
Q 14.984375 37.109375 14.984375 27.296875 
Q 14.984375 17.484375 19.15625 11.84375 
Q 23.34375 6.203125 30.609375 6.203125 
Q 37.796875 6.203125 41.984375 11.859375 
Q 46.1875 17.53125 46.1875 27.296875 
Q 46.1875 37.015625 41.984375 42.703125 
Q 37.796875 48.390625 30.609375 48.390625 
M 30.609375 56 
Q 42.328125 56 49.015625 48.375 
Q 55.71875 40.765625 55.71875 27.296875 
Q 55.71875 13.875 49.015625 6.21875 
Q 42.328125 -1.421875 30.609375 -1.421875 
Q 18.84375 -1.421875 12.171875 6.21875 
Q 5.515625 13.875 5.515625 27.296875 
Q 5.515625 40.765625 12.171875 48.375 
Q 18.84375 56 30.609375 56 
" id="BitstreamVeraSans-Roman-6f"/>
     </defs>
     <g transform="translate(52.869375 241.3209375)rotate(-90.0)scale(0.12 -0.12)">
      <use xlink:href="#BitstreamVeraSans-Roman-6b"/>
      <use x="57.91015625" xlink:href="#BitstreamVeraSans-Roman-63"/>
      <use x="112.890625" xlink:href="#BitstreamVeraSans-Roman-61"/>
      <use x="174.169921875" xlink:href="#BitstreamVeraSans-Roman-6c"/>
      <use x="201.953125" xlink:href="#BitstreamVeraSans-Roman-2f"/>
      <use x="235.64453125" xlink:href="#BitstreamVeraSans-Roman-6d"/>
      <use x="333.056640625" xlink:href="#BitstreamVeraSans-Roman-6f"/>
      <use x="394.23828125" xlink:href="#BitstreamVeraSans-Roman-6c"/>
     </g>
    </g>
   </g>
   <g id="text_20">
    <!-- H4-C2-C3-C4 -->
    <defs>
     <path d="M 4.890625 31.390625 
L 31.203125 31.390625 
L 31.203125 23.390625 
L 4.890625 23.390625 
z
" id="BitstreamVeraSans-Roman-2d"/>
     <path d="M 9.8125 72.90625 
L 19.671875 72.90625 
L 19.671875 43.015625 
L 55.515625 43.015625 
L 55.515625 72.90625 
L 65.375 72.90625 
L 65.375 0 
L 55.515625 0 
L 55.515625 34.71875 
L 19.671875 34.71875 
L 19.671875 0 
L 9.8125 0 
z
" id="BitstreamVeraSans-Roman-48"/>
     <path d="M 64.40625 67.28125 
L 64.40625 56.890625 
Q 59.421875 61.53125 53.78125 63.8125 
Q 48.140625 66.109375 41.796875 66.109375 
Q 29.296875 66.109375 22.65625 58.46875 
Q 16.015625 50.828125 16.015625 36.375 
Q 16.015625 21.96875 22.65625 14.328125 
Q 29.296875 6.6875 41.796875 6.6875 
Q 48.140625 6.6875 53.78125 8.984375 
Q 59.421875 11.28125 64.40625 15.921875 
L 64.40625 5.609375 
Q 59.234375 2.09375 53.4375 0.328125 
Q 47.65625 -1.421875 41.21875 -1.421875 
Q 24.65625 -1.421875 15.125 8.703125 
Q 5.609375 18.84375 5.609375 36.375 
Q 5.609375 53.953125 15.125 64.078125 
Q 24.65625 74.21875 41.21875 74.21875 
Q 47.75 74.21875 53.53125 72.484375 
Q 59.328125 70.75 64.40625 67.28125 
" id="BitstreamVeraSans-Roman-43"/>
    </defs>
    <g transform="translate(248.585625 38.2)scale(0.144 -0.144)">
     <use xlink:href="#BitstreamVeraSans-Roman-48"/>
     <use x="75.1953125" xlink:href="#BitstreamVeraSans-Roman-34"/>
     <use x="138.818359375" xlink:href="#BitstreamVeraSans-Roman-2d"/>
     <use x="174.90234375" xlink:href="#BitstreamVeraSans-Roman-43"/>
     <use x="244.7265625" xlink:href="#BitstreamVeraSans-Roman-32"/>
     <use x="308.349609375" xlink:href="#BitstreamVeraSans-Roman-2d"/>
     <use x="344.43359375" xlink:href="#BitstreamVeraSans-Roman-43"/>
     <use x="414.2578125" xlink:href="#BitstreamVeraSans-Roman-33"/>
     <use x="477.880859375" xlink:href="#BitstreamVeraSans-Roman-2d"/>
     <use x="513.96484375" xlink:href="#BitstreamVeraSans-Roman-43"/>
     <use x="583.7890625" xlink:href="#BitstreamVeraSans-Roman-34"/>
    </g>
   </g>
   <g id="legend_1">
    <g id="patch_7">
     <path d="M 406.15625 108.3125 
L 514.4 108.3125 
L 514.4 47.2 
L 406.15625 47.2 
z
" style="fill:#ffffff;stroke:#000000;stroke-linejoin:miter;"/>
    </g>
    <g id="line2d_40">
     <path d="M 411.75625 53.67875 
L 422.95625 53.67875 
" style="fill:none;stroke:#ff0000;stroke-linecap:square;"/>
    </g>
    <g id="line2d_41">
     <g>
      <use style="fill:#ff0000;stroke:#000000;stroke-width:0.5;" x="411.75625" xlink:href="#m83416ba17f" y="53.67875"/>
      <use style="fill:#ff0000;stroke:#000000;stroke-width:0.5;" x="422.95625" xlink:href="#m83416ba17f" y="53.67875"/>
     </g>
    </g>
    <g id="text_21">
     <!-- QM -->
     <defs>
      <path d="M 9.8125 72.90625 
L 24.515625 72.90625 
L 43.109375 23.296875 
L 61.8125 72.90625 
L 76.515625 72.90625 
L 76.515625 0 
L 66.890625 0 
L 66.890625 64.015625 
L 48.09375 14.015625 
L 38.1875 14.015625 
L 19.390625 64.015625 
L 19.390625 0 
L 9.8125 0 
z
" id="BitstreamVeraSans-Roman-4d"/>
      <path d="M 39.40625 66.21875 
Q 28.65625 66.21875 22.328125 58.203125 
Q 16.015625 50.203125 16.015625 36.375 
Q 16.015625 22.609375 22.328125 14.59375 
Q 28.65625 6.59375 39.40625 6.59375 
Q 50.140625 6.59375 56.421875 14.59375 
Q 62.703125 22.609375 62.703125 36.375 
Q 62.703125 50.203125 56.421875 58.203125 
Q 50.140625 66.21875 39.40625 66.21875 
M 53.21875 1.3125 
L 66.21875 -12.890625 
L 54.296875 -12.890625 
L 43.5 -1.21875 
Q 41.890625 -1.3125 41.03125 -1.359375 
Q 40.1875 -1.421875 39.40625 -1.421875 
Q 24.03125 -1.421875 14.8125 8.859375 
Q 5.609375 19.140625 5.609375 36.375 
Q 5.609375 53.65625 14.8125 63.9375 
Q 24.03125 74.21875 39.40625 74.21875 
Q 54.734375 74.21875 63.90625 63.9375 
Q 73.09375 53.65625 73.09375 36.375 
Q 73.09375 23.6875 67.984375 14.640625 
Q 62.890625 5.609375 53.21875 1.3125 
" id="BitstreamVeraSans-Roman-51"/>
     </defs>
     <g transform="translate(431.75625 56.47875)scale(0.08 -0.08)">
      <use xlink:href="#BitstreamVeraSans-Roman-51"/>
      <use x="78.7109375" xlink:href="#BitstreamVeraSans-Roman-4d"/>
     </g>
    </g>
    <g id="line2d_42">
     <path d="M 411.75625 65.42125 
L 422.95625 65.42125 
" style="fill:none;stroke:#0000ff;stroke-linecap:square;"/>
    </g>
    <g id="line2d_43">
     <g>
      <use style="fill:#0000ff;stroke:#000000;stroke-width:0.5;" x="411.75625" xlink:href="#ma7991282a4" y="65.42125"/>
      <use style="fill:#0000ff;stroke:#000000;stroke-width:0.5;" x="422.95625" xlink:href="#ma7991282a4" y="65.42125"/>
     </g>
    </g>
    <g id="text_22">
     <!-- MM Original -->
     <defs>
      <path d="M 39.40625 66.21875 
Q 28.65625 66.21875 22.328125 58.203125 
Q 16.015625 50.203125 16.015625 36.375 
Q 16.015625 22.609375 22.328125 14.59375 
Q 28.65625 6.59375 39.40625 6.59375 
Q 50.140625 6.59375 56.421875 14.59375 
Q 62.703125 22.609375 62.703125 36.375 
Q 62.703125 50.203125 56.421875 58.203125 
Q 50.140625 66.21875 39.40625 66.21875 
M 39.40625 74.21875 
Q 54.734375 74.21875 63.90625 63.9375 
Q 73.09375 53.65625 73.09375 36.375 
Q 73.09375 19.140625 63.90625 8.859375 
Q 54.734375 -1.421875 39.40625 -1.421875 
Q 24.03125 -1.421875 14.8125 8.828125 
Q 5.609375 19.09375 5.609375 36.375 
Q 5.609375 53.65625 14.8125 63.9375 
Q 24.03125 74.21875 39.40625 74.21875 
" id="BitstreamVeraSans-Roman-4f"/>
      <path d="M 45.40625 27.984375 
Q 45.40625 37.75 41.375 43.109375 
Q 37.359375 48.484375 30.078125 48.484375 
Q 22.859375 48.484375 18.828125 43.109375 
Q 14.796875 37.75 14.796875 27.984375 
Q 14.796875 18.265625 18.828125 12.890625 
Q 22.859375 7.515625 30.078125 7.515625 
Q 37.359375 7.515625 41.375 12.890625 
Q 45.40625 18.265625 45.40625 27.984375 
M 54.390625 6.78125 
Q 54.390625 -7.171875 48.1875 -13.984375 
Q 42 -20.796875 29.203125 -20.796875 
Q 24.46875 -20.796875 20.265625 -20.09375 
Q 16.0625 -19.390625 12.109375 -17.921875 
L 12.109375 -9.1875 
Q 16.0625 -11.328125 19.921875 -12.34375 
Q 23.78125 -13.375 27.78125 -13.375 
Q 36.625 -13.375 41.015625 -8.765625 
Q 45.40625 -4.15625 45.40625 5.171875 
L 45.40625 9.625 
Q 42.625 4.78125 38.28125 2.390625 
Q 33.9375 0 27.875 0 
Q 17.828125 0 11.671875 7.65625 
Q 5.515625 15.328125 5.515625 27.984375 
Q 5.515625 40.671875 11.671875 48.328125 
Q 17.828125 56 27.875 56 
Q 33.9375 56 38.28125 53.609375 
Q 42.625 51.21875 45.40625 46.390625 
L 45.40625 54.6875 
L 54.390625 54.6875 
z
" id="BitstreamVeraSans-Roman-67"/>
      <path d="M 41.109375 46.296875 
Q 39.59375 47.171875 37.8125 47.578125 
Q 36.03125 48 33.890625 48 
Q 26.265625 48 22.1875 43.046875 
Q 18.109375 38.09375 18.109375 28.8125 
L 18.109375 0 
L 9.078125 0 
L 9.078125 54.6875 
L 18.109375 54.6875 
L 18.109375 46.1875 
Q 20.953125 51.171875 25.484375 53.578125 
Q 30.03125 56 36.53125 56 
Q 37.453125 56 38.578125 55.875 
Q 39.703125 55.765625 41.0625 55.515625 
z
" id="BitstreamVeraSans-Roman-72"/>
      <path d="M 54.890625 33.015625 
L 54.890625 0 
L 45.90625 0 
L 45.90625 32.71875 
Q 45.90625 40.484375 42.875 44.328125 
Q 39.84375 48.1875 33.796875 48.1875 
Q 26.515625 48.1875 22.3125 43.546875 
Q 18.109375 38.921875 18.109375 30.90625 
L 18.109375 0 
L 9.078125 0 
L 9.078125 54.6875 
L 18.109375 54.6875 
L 18.109375 46.1875 
Q 21.34375 51.125 25.703125 53.5625 
Q 30.078125 56 35.796875 56 
Q 45.21875 56 50.046875 50.171875 
Q 54.890625 44.34375 54.890625 33.015625 
" id="BitstreamVeraSans-Roman-6e"/>
      <path id="BitstreamVeraSans-Roman-20"/>
     </defs>
     <g transform="translate(431.75625 68.22125)scale(0.08 -0.08)">
      <use xlink:href="#BitstreamVeraSans-Roman-4d"/>
      <use x="86.279296875" xlink:href="#BitstreamVeraSans-Roman-4d"/>
      <use x="172.55859375" xlink:href="#BitstreamVeraSans-Roman-20"/>
      <use x="204.345703125" xlink:href="#BitstreamVeraSans-Roman-4f"/>
      <use x="283.056640625" xlink:href="#BitstreamVeraSans-Roman-72"/>
      <use x="324.169921875" xlink:href="#BitstreamVeraSans-Roman-69"/>
      <use x="351.953125" xlink:href="#BitstreamVeraSans-Roman-67"/>
      <use x="415.4296875" xlink:href="#BitstreamVeraSans-Roman-69"/>
      <use x="443.212890625" xlink:href="#BitstreamVeraSans-Roman-6e"/>
      <use x="506.591796875" xlink:href="#BitstreamVeraSans-Roman-61"/>
      <use x="567.87109375" xlink:href="#BitstreamVeraSans-Roman-6c"/>
     </g>
    </g>
    <g id="line2d_44">
     <path d="M 411.75625 77.16375 
L 422.95625 77.16375 
" style="fill:none;stroke:#000000;stroke-linecap:square;"/>
    </g>
    <g id="line2d_45">
     <g>
      <use style="stroke:#000000;stroke-width:0.5;" x="411.75625" xlink:href="#m5391f34dc6" y="77.16375"/>
      <use style="stroke:#000000;stroke-width:0.5;" x="422.95625" xlink:href="#m5391f34dc6" y="77.16375"/>
     </g>
    </g>
    <g id="text_23">
     <!-- MM With phi zeroed -->
     <defs>
      <path d="M 45.40625 46.390625 
L 45.40625 75.984375 
L 54.390625 75.984375 
L 54.390625 0 
L 45.40625 0 
L 45.40625 8.203125 
Q 42.578125 3.328125 38.25 0.953125 
Q 33.9375 -1.421875 27.875 -1.421875 
Q 17.96875 -1.421875 11.734375 6.484375 
Q 5.515625 14.40625 5.515625 27.296875 
Q 5.515625 40.1875 11.734375 48.09375 
Q 17.96875 56 27.875 56 
Q 33.9375 56 38.25 53.625 
Q 42.578125 51.265625 45.40625 46.390625 
M 14.796875 27.296875 
Q 14.796875 17.390625 18.875 11.75 
Q 22.953125 6.109375 30.078125 6.109375 
Q 37.203125 6.109375 41.296875 11.75 
Q 45.40625 17.390625 45.40625 27.296875 
Q 45.40625 37.203125 41.296875 42.84375 
Q 37.203125 48.484375 30.078125 48.484375 
Q 22.953125 48.484375 18.875 42.84375 
Q 14.796875 37.203125 14.796875 27.296875 
" id="BitstreamVeraSans-Roman-64"/>
      <path d="M 56.203125 29.59375 
L 56.203125 25.203125 
L 14.890625 25.203125 
Q 15.484375 15.921875 20.484375 11.0625 
Q 25.484375 6.203125 34.421875 6.203125 
Q 39.59375 6.203125 44.453125 7.46875 
Q 49.3125 8.734375 54.109375 11.28125 
L 54.109375 2.78125 
Q 49.265625 0.734375 44.1875 -0.34375 
Q 39.109375 -1.421875 33.890625 -1.421875 
Q 20.796875 -1.421875 13.15625 6.1875 
Q 5.515625 13.8125 5.515625 26.8125 
Q 5.515625 40.234375 12.765625 48.109375 
Q 20.015625 56 32.328125 56 
Q 43.359375 56 49.78125 48.890625 
Q 56.203125 41.796875 56.203125 29.59375 
M 47.21875 32.234375 
Q 47.125 39.59375 43.09375 43.984375 
Q 39.0625 48.390625 32.421875 48.390625 
Q 24.90625 48.390625 20.390625 44.140625 
Q 15.875 39.890625 15.1875 32.171875 
z
" id="BitstreamVeraSans-Roman-65"/>
      <path d="M 18.3125 70.21875 
L 18.3125 54.6875 
L 36.8125 54.6875 
L 36.8125 47.703125 
L 18.3125 47.703125 
L 18.3125 18.015625 
Q 18.3125 11.328125 20.140625 9.421875 
Q 21.96875 7.515625 27.59375 7.515625 
L 36.8125 7.515625 
L 36.8125 0 
L 27.59375 0 
Q 17.1875 0 13.234375 3.875 
Q 9.28125 7.765625 9.28125 18.015625 
L 9.28125 47.703125 
L 2.6875 47.703125 
L 2.6875 54.6875 
L 9.28125 54.6875 
L 9.28125 70.21875 
z
" id="BitstreamVeraSans-Roman-74"/>
      <path d="M 18.109375 8.203125 
L 18.109375 -20.796875 
L 9.078125 -20.796875 
L 9.078125 54.6875 
L 18.109375 54.6875 
L 18.109375 46.390625 
Q 20.953125 51.265625 25.265625 53.625 
Q 29.59375 56 35.59375 56 
Q 45.5625 56 51.78125 48.09375 
Q 58.015625 40.1875 58.015625 27.296875 
Q 58.015625 14.40625 51.78125 6.484375 
Q 45.5625 -1.421875 35.59375 -1.421875 
Q 29.59375 -1.421875 25.265625 0.953125 
Q 20.953125 3.328125 18.109375 8.203125 
M 48.6875 27.296875 
Q 48.6875 37.203125 44.609375 42.84375 
Q 40.53125 48.484375 33.40625 48.484375 
Q 26.265625 48.484375 22.1875 42.84375 
Q 18.109375 37.203125 18.109375 27.296875 
Q 18.109375 17.390625 22.1875 11.75 
Q 26.265625 6.109375 33.40625 6.109375 
Q 40.53125 6.109375 44.609375 11.75 
Q 48.6875 17.390625 48.6875 27.296875 
" id="BitstreamVeraSans-Roman-70"/>
      <path d="M 3.328125 72.90625 
L 13.28125 72.90625 
L 28.609375 11.28125 
L 43.890625 72.90625 
L 54.984375 72.90625 
L 70.3125 11.28125 
L 85.59375 72.90625 
L 95.609375 72.90625 
L 77.296875 0 
L 64.890625 0 
L 49.515625 63.28125 
L 33.984375 0 
L 21.578125 0 
z
" id="BitstreamVeraSans-Roman-57"/>
      <path d="M 5.515625 54.6875 
L 48.1875 54.6875 
L 48.1875 46.484375 
L 14.40625 7.171875 
L 48.1875 7.171875 
L 48.1875 0 
L 4.296875 0 
L 4.296875 8.203125 
L 38.09375 47.515625 
L 5.515625 47.515625 
z
" id="BitstreamVeraSans-Roman-7a"/>
     </defs>
     <g transform="translate(431.75625 79.96375)scale(0.08 -0.08)">
      <use xlink:href="#BitstreamVeraSans-Roman-4d"/>
      <use x="86.279296875" xlink:href="#BitstreamVeraSans-Roman-4d"/>
      <use x="172.55859375" xlink:href="#BitstreamVeraSans-Roman-20"/>
      <use x="204.345703125" xlink:href="#BitstreamVeraSans-Roman-57"/>
      <use x="303.19140625" xlink:href="#BitstreamVeraSans-Roman-69"/>
      <use x="330.974609375" xlink:href="#BitstreamVeraSans-Roman-74"/>
      <use x="370.18359375" xlink:href="#BitstreamVeraSans-Roman-68"/>
      <use x="433.5625" xlink:href="#BitstreamVeraSans-Roman-20"/>
      <use x="465.349609375" xlink:href="#BitstreamVeraSans-Roman-70"/>
      <use x="528.826171875" xlink:href="#BitstreamVeraSans-Roman-68"/>
      <use x="592.205078125" xlink:href="#BitstreamVeraSans-Roman-69"/>
      <use x="619.98828125" xlink:href="#BitstreamVeraSans-Roman-20"/>
      <use x="651.775390625" xlink:href="#BitstreamVeraSans-Roman-7a"/>
      <use x="704.265625" xlink:href="#BitstreamVeraSans-Roman-65"/>
      <use x="765.7890625" xlink:href="#BitstreamVeraSans-Roman-72"/>
      <use x="806.87109375" xlink:href="#BitstreamVeraSans-Roman-6f"/>
      <use x="868.052734375" xlink:href="#BitstreamVeraSans-Roman-65"/>
      <use x="929.576171875" xlink:href="#BitstreamVeraSans-Roman-64"/>
     </g>
    </g>
    <g id="line2d_46">
     <path d="M 411.75625 88.90625 
L 422.95625 88.90625 
" style="fill:none;stroke:#ff00ff;stroke-linecap:square;"/>
    </g>
    <g id="line2d_47">
     <g>
      <use style="fill:#ff00ff;stroke:#ff00ff;stroke-width:0.5;" x="411.75625" xlink:href="#mc284fbd5f0" y="88.90625"/>
      <use style="fill:#ff00ff;stroke:#ff00ff;stroke-width:0.5;" x="422.95625" xlink:href="#mc284fbd5f0" y="88.90625"/>
     </g>
    </g>
    <g id="text_24">
     <!-- QM-MM target -->
     <g transform="translate(431.75625 91.70625)scale(0.08 -0.08)">
      <use xlink:href="#BitstreamVeraSans-Roman-51"/>
      <use x="78.7109375" xlink:href="#BitstreamVeraSans-Roman-4d"/>
      <use x="164.990234375" xlink:href="#BitstreamVeraSans-Roman-2d"/>
      <use x="201.07421875" xlink:href="#BitstreamVeraSans-Roman-4d"/>
      <use x="287.353515625" xlink:href="#BitstreamVeraSans-Roman-4d"/>
      <use x="373.6328125" xlink:href="#BitstreamVeraSans-Roman-20"/>
      <use x="405.419921875" xlink:href="#BitstreamVeraSans-Roman-74"/>
      <use x="444.62890625" xlink:href="#BitstreamVeraSans-Roman-61"/>
      <use x="505.908203125" xlink:href="#BitstreamVeraSans-Roman-72"/>
      <use x="547.005859375" xlink:href="#BitstreamVeraSans-Roman-67"/>
      <use x="610.482421875" xlink:href="#BitstreamVeraSans-Roman-65"/>
      <use x="672.005859375" xlink:href="#BitstreamVeraSans-Roman-74"/>
     </g>
    </g>
    <g id="line2d_48">
     <path d="M 411.75625 100.64875 
L 422.95625 100.64875 
" style="fill:none;stroke:#008000;stroke-linecap:square;"/>
    </g>
    <g id="line2d_49">
     <g>
      <use style="fill:#008000;stroke:#000000;stroke-width:0.5;" x="411.75625" xlink:href="#m3a03a010c3" y="100.64875"/>
      <use style="fill:#008000;stroke:#000000;stroke-width:0.5;" x="422.95625" xlink:href="#m3a03a010c3" y="100.64875"/>
     </g>
    </g>
    <g id="text_25">
     <!-- MM Fitted -->
     <defs>
      <path d="M 9.8125 72.90625 
L 51.703125 72.90625 
L 51.703125 64.59375 
L 19.671875 64.59375 
L 19.671875 43.109375 
L 48.578125 43.109375 
L 48.578125 34.8125 
L 19.671875 34.8125 
L 19.671875 0 
L 9.8125 0 
z
" id="BitstreamVeraSans-Roman-46"/>
     </defs>
     <g transform="translate(431.75625 103.44875)scale(0.08 -0.08)">
      <use xlink:href="#BitstreamVeraSans-Roman-4d"/>
      <use x="86.279296875" xlink:href="#BitstreamVeraSans-Roman-4d"/>
      <use x="172.55859375" xlink:href="#BitstreamVeraSans-Roman-20"/>
      <use x="204.345703125" xlink:href="#BitstreamVeraSans-Roman-46"/>
      <use x="261.755859375" xlink:href="#BitstreamVeraSans-Roman-69"/>
      <use x="289.5390625" xlink:href="#BitstreamVeraSans-Roman-74"/>
      <use x="328.748046875" xlink:href="#BitstreamVeraSans-Roman-74"/>
      <use x="367.95703125" xlink:href="#BitstreamVeraSans-Roman-65"/>
      <use x="429.48046875" xlink:href="#BitstreamVeraSans-Roman-64"/>
     </g>
    </g>
   </g>
  </g>
 </g>
 <defs>
  <clipPath id="pa7af218c4e">
   <rect height="345.6" width="446.4" x="72.0" y="43.2"/>
  </clipPath>
 </defs>
</svg>
