<?xml version="1.0" encoding="utf-8" standalone="no"?>
<!DOCTYPE svg PUBLIC "-//W3C//DTD SVG 1.1//EN"
  "http://www.w3.org/Graphics/SVG/1.1/DTD/svg11.dtd">
<!-- Created with matplotlib (http://matplotlib.org/) -->
<svg height="432pt" version="1.1" viewBox="0 0 576 432" width="576pt" xmlns="http://www.w3.org/2000/svg" xmlns:xlink="http://www.w3.org/1999/xlink">
 <defs>
  <style type="text/css">
*{stroke-linecap:butt;stroke-linejoin:round;stroke-miterlimit:100000;}
  </style>
 </defs>
 <g id="figure_1">
  <g id="patch_1">
   <path d="M 0 432 
L 576 432 
L 576 0 
L 0 0 
z
" style="fill:#ffffff;"/>
  </g>
  <g id="axes_1">
   <g id="patch_2">
    <path d="M 72 388.8 
L 518.4 388.8 
L 518.4 43.2 
L 72 43.2 
z
" style="fill:#ffffff;"/>
   </g>
   <g id="line2d_1">
    <path clip-path="url(#pb054fee4ec)" d="M 72.000059 388.772657 
L 84.400049 380.346097 
L 96.800014 356.093661 
L 109.199989 319.954063 
L 121.600026 277.475767 
L 134.000027 236.032468 
L 146.400009 198.469179 
L 158.800016 169.37053 
L 171.200004 149.681715 
L 183.600008 144.172962 
L 195.999998 151.374222 
L 208.399973 170.733426 
L 220.799991 200.667462 
L 233.199959 238.31969 
L 245.600013 279.553911 
L 257.999998 319.91271 
L 270.399963 358.03957 
L 282.799955 380.605984 
L 295.200683 388.8 
L 307.599954 380.464738 
L 319.999989 358.296851 
L 332.399971 320.169045 
L 344.799993 282.862858 
L 357.199988 239.098678 
L 369.599985 201.280042 
L 382.00003 171.090347 
L 394.400026 151.404182 
L 406.800002 143.808954 
L 419.200032 148.93153 
L 431.600013 166.548011 
L 444.000034 195.467182 
L 456.400015 233.313028 
L 468.800037 276.236976 
L 481.200027 318.922067 
L 493.599996 355.373651 
L 506.000053 379.973393 
" style="fill:none;stroke:#ff0000;stroke-linecap:square;"/>
    <defs>
     <path d="M 0 3 
C 0.795609 3 1.55874 2.683901 2.12132 2.12132 
C 2.683901 1.55874 3 0.795609 3 0 
C 3 -0.795609 2.683901 -1.55874 2.12132 -2.12132 
C 1.55874 -2.683901 0.795609 -3 0 -3 
C -0.795609 -3 -1.55874 -2.683901 -2.12132 -2.12132 
C -2.683901 -1.55874 -3 -0.795609 -3 0 
C -3 0.795609 -2.683901 1.55874 -2.12132 2.12132 
C -1.55874 2.683901 -0.795609 3 0 3 
z
" id="m0675b9dec7" style="stroke:#000000;stroke-width:0.5;"/>
    </defs>
    <g clip-path="url(#pb054fee4ec)">
     <use style="fill:#ff0000;stroke:#000000;stroke-width:0.5;" x="72.0000589144" xlink:href="#m0675b9dec7" y="388.77265731"/>
     <use style="fill:#ff0000;stroke:#000000;stroke-width:0.5;" x="84.4000487579" xlink:href="#m0675b9dec7" y="380.346096946"/>
     <use style="fill:#ff0000;stroke:#000000;stroke-width:0.5;" x="96.8000140799" xlink:href="#m0675b9dec7" y="356.093661212"/>
     <use style="fill:#ff0000;stroke:#000000;stroke-width:0.5;" x="109.199989482" xlink:href="#m0675b9dec7" y="319.954062732"/>
     <use style="fill:#ff0000;stroke:#000000;stroke-width:0.5;" x="121.600025764" xlink:href="#m0675b9dec7" y="277.47576742"/>
     <use style="fill:#ff0000;stroke:#000000;stroke-width:0.5;" x="134.000027463" xlink:href="#m0675b9dec7" y="236.032467789"/>
     <use style="fill:#ff0000;stroke:#000000;stroke-width:0.5;" x="146.400009009" xlink:href="#m0675b9dec7" y="198.469178977"/>
     <use style="fill:#ff0000;stroke:#000000;stroke-width:0.5;" x="158.800015903" xlink:href="#m0675b9dec7" y="169.370530166"/>
     <use style="fill:#ff0000;stroke:#000000;stroke-width:0.5;" x="171.20000447" xlink:href="#m0675b9dec7" y="149.681714512"/>
     <use style="fill:#ff0000;stroke:#000000;stroke-width:0.5;" x="183.600007884" xlink:href="#m0675b9dec7" y="144.172962029"/>
     <use style="fill:#ff0000;stroke:#000000;stroke-width:0.5;" x="195.999998264" xlink:href="#m0675b9dec7" y="151.374222146"/>
     <use style="fill:#ff0000;stroke:#000000;stroke-width:0.5;" x="208.399973372" xlink:href="#m0675b9dec7" y="170.733426392"/>
     <use style="fill:#ff0000;stroke:#000000;stroke-width:0.5;" x="220.799991" xlink:href="#m0675b9dec7" y="200.667462218"/>
     <use style="fill:#ff0000;stroke:#000000;stroke-width:0.5;" x="233.199958731" xlink:href="#m0675b9dec7" y="238.319690157"/>
     <use style="fill:#ff0000;stroke:#000000;stroke-width:0.5;" x="245.600012702" xlink:href="#m0675b9dec7" y="279.55391129"/>
     <use style="fill:#ff0000;stroke:#000000;stroke-width:0.5;" x="257.999997688" xlink:href="#m0675b9dec7" y="319.912709798"/>
     <use style="fill:#ff0000;stroke:#000000;stroke-width:0.5;" x="270.399962618" xlink:href="#m0675b9dec7" y="358.039570336"/>
     <use style="fill:#ff0000;stroke:#000000;stroke-width:0.5;" x="282.799954992" xlink:href="#m0675b9dec7" y="380.605984454"/>
     <use style="fill:#ff0000;stroke:#000000;stroke-width:0.5;" x="295.200682704" xlink:href="#m0675b9dec7" y="388.8"/>
     <use style="fill:#ff0000;stroke:#000000;stroke-width:0.5;" x="307.599954151" xlink:href="#m0675b9dec7" y="380.464738054"/>
     <use style="fill:#ff0000;stroke:#000000;stroke-width:0.5;" x="319.999988563" xlink:href="#m0675b9dec7" y="358.296850735"/>
     <use style="fill:#ff0000;stroke:#000000;stroke-width:0.5;" x="332.399971172" xlink:href="#m0675b9dec7" y="320.169045379"/>
     <use style="fill:#ff0000;stroke:#000000;stroke-width:0.5;" x="344.799992975" xlink:href="#m0675b9dec7" y="282.862858307"/>
     <use style="fill:#ff0000;stroke:#000000;stroke-width:0.5;" x="357.199988237" xlink:href="#m0675b9dec7" y="239.09867795"/>
     <use style="fill:#ff0000;stroke:#000000;stroke-width:0.5;" x="369.599984805" xlink:href="#m0675b9dec7" y="201.28004239"/>
     <use style="fill:#ff0000;stroke:#000000;stroke-width:0.5;" x="382.000029578" xlink:href="#m0675b9dec7" y="171.09034744"/>
     <use style="fill:#ff0000;stroke:#000000;stroke-width:0.5;" x="394.400025714" xlink:href="#m0675b9dec7" y="151.404182211"/>
     <use style="fill:#ff0000;stroke:#000000;stroke-width:0.5;" x="406.800001841" xlink:href="#m0675b9dec7" y="143.808954055"/>
     <use style="fill:#ff0000;stroke:#000000;stroke-width:0.5;" x="419.2000325" xlink:href="#m0675b9dec7" y="148.931530032"/>
     <use style="fill:#ff0000;stroke:#000000;stroke-width:0.5;" x="431.600012635" xlink:href="#m0675b9dec7" y="166.548011162"/>
     <use style="fill:#ff0000;stroke:#000000;stroke-width:0.5;" x="444.000034098" xlink:href="#m0675b9dec7" y="195.467181541"/>
     <use style="fill:#ff0000;stroke:#000000;stroke-width:0.5;" x="456.400015168" xlink:href="#m0675b9dec7" y="233.313028035"/>
     <use style="fill:#ff0000;stroke:#000000;stroke-width:0.5;" x="468.800037426" xlink:href="#m0675b9dec7" y="276.236976043"/>
     <use style="fill:#ff0000;stroke:#000000;stroke-width:0.5;" x="481.20002706" xlink:href="#m0675b9dec7" y="318.922067442"/>
     <use style="fill:#ff0000;stroke:#000000;stroke-width:0.5;" x="493.599995747" xlink:href="#m0675b9dec7" y="355.373651244"/>
     <use style="fill:#ff0000;stroke:#000000;stroke-width:0.5;" x="506.000053354" xlink:href="#m0675b9dec7" y="379.973393413"/>
    </g>
   </g>
   <g id="line2d_2">
    <path clip-path="url(#pb054fee4ec)" d="M 72.000059 388.8 
L 84.400049 380.341311 
L 96.800014 357.420793 
L 109.199989 320.601115 
L 121.600026 272.826792 
L 134.000027 220.662474 
L 146.400009 166.555251 
L 158.800016 118.312523 
L 171.200004 80.662889 
L 183.600008 61.174219 
L 195.999998 59.274021 
L 208.399973 73.988473 
L 220.799991 102.075171 
L 233.199959 138.471167 
L 245.600013 177.291876 
L 257.999998 212.487939 
L 270.399963 237.014452 
L 282.799955 255.92476 
L 295.200683 261.48476 
L 307.599954 256.991046 
L 319.999989 237.986153 
L 332.399971 211.961046 
L 344.799993 175.997591 
L 357.199988 137.599603 
L 369.599985 101.170525 
L 382.00003 73.08502 
L 394.400026 58.432862 
L 406.800002 60.588723 
L 419.200032 80.382116 
L 431.600013 116.093501 
L 444.000034 164.02151 
L 456.400015 218.755047 
L 468.800037 272.969019 
L 481.200027 321.454651 
L 493.599996 357.9372 
L 506.000053 380.716423 
" style="fill:none;stroke:#0000ff;stroke-linecap:square;"/>
    <defs>
     <path d="M 0 3 
C 0.795609 3 1.55874 2.683901 2.12132 2.12132 
C 2.683901 1.55874 3 0.795609 3 0 
C 3 -0.795609 2.683901 -1.55874 2.12132 -2.12132 
C 1.55874 -2.683901 0.795609 -3 0 -3 
C -0.795609 -3 -1.55874 -2.683901 -2.12132 -2.12132 
C -2.683901 -1.55874 -3 -0.795609 -3 0 
C -3 0.795609 -2.683901 1.55874 -2.12132 2.12132 
C -1.55874 2.683901 -0.795609 3 0 3 
z
" id="mc87085f937" style="stroke:#000000;stroke-width:0.5;"/>
    </defs>
    <g clip-path="url(#pb054fee4ec)">
     <use style="fill:#0000ff;stroke:#000000;stroke-width:0.5;" x="72.0000589144" xlink:href="#mc87085f937" y="388.8"/>
     <use style="fill:#0000ff;stroke:#000000;stroke-width:0.5;" x="84.4000487579" xlink:href="#mc87085f937" y="380.341311053"/>
     <use style="fill:#0000ff;stroke:#000000;stroke-width:0.5;" x="96.8000140799" xlink:href="#mc87085f937" y="357.420792914"/>
     <use style="fill:#0000ff;stroke:#000000;stroke-width:0.5;" x="109.199989482" xlink:href="#mc87085f937" y="320.601115338"/>
     <use style="fill:#0000ff;stroke:#000000;stroke-width:0.5;" x="121.600025764" xlink:href="#mc87085f937" y="272.82679227"/>
     <use style="fill:#0000ff;stroke:#000000;stroke-width:0.5;" x="134.000027463" xlink:href="#mc87085f937" y="220.66247385"/>
     <use style="fill:#0000ff;stroke:#000000;stroke-width:0.5;" x="146.400009009" xlink:href="#mc87085f937" y="166.555251388"/>
     <use style="fill:#0000ff;stroke:#000000;stroke-width:0.5;" x="158.800015903" xlink:href="#mc87085f937" y="118.312523413"/>
     <use style="fill:#0000ff;stroke:#000000;stroke-width:0.5;" x="171.20000447" xlink:href="#mc87085f937" y="80.6628890047"/>
     <use style="fill:#0000ff;stroke:#000000;stroke-width:0.5;" x="183.600007884" xlink:href="#mc87085f937" y="61.1742187858"/>
     <use style="fill:#0000ff;stroke:#000000;stroke-width:0.5;" x="195.999998264" xlink:href="#mc87085f937" y="59.274021317"/>
     <use style="fill:#0000ff;stroke:#000000;stroke-width:0.5;" x="208.399973372" xlink:href="#mc87085f937" y="73.9884725597"/>
     <use style="fill:#0000ff;stroke:#000000;stroke-width:0.5;" x="220.799991" xlink:href="#mc87085f937" y="102.075171484"/>
     <use style="fill:#0000ff;stroke:#000000;stroke-width:0.5;" x="233.199958731" xlink:href="#mc87085f937" y="138.47116675"/>
     <use style="fill:#0000ff;stroke:#000000;stroke-width:0.5;" x="245.600012702" xlink:href="#mc87085f937" y="177.291876162"/>
     <use style="fill:#0000ff;stroke:#000000;stroke-width:0.5;" x="257.999997688" xlink:href="#mc87085f937" y="212.487939273"/>
     <use style="fill:#0000ff;stroke:#000000;stroke-width:0.5;" x="270.399962618" xlink:href="#mc87085f937" y="237.014452191"/>
     <use style="fill:#0000ff;stroke:#000000;stroke-width:0.5;" x="282.799954992" xlink:href="#mc87085f937" y="255.924759802"/>
     <use style="fill:#0000ff;stroke:#000000;stroke-width:0.5;" x="295.200682704" xlink:href="#mc87085f937" y="261.48476012"/>
     <use style="fill:#0000ff;stroke:#000000;stroke-width:0.5;" x="307.599954151" xlink:href="#mc87085f937" y="256.991046377"/>
     <use style="fill:#0000ff;stroke:#000000;stroke-width:0.5;" x="319.999988563" xlink:href="#mc87085f937" y="237.986153335"/>
     <use style="fill:#0000ff;stroke:#000000;stroke-width:0.5;" x="332.399971172" xlink:href="#mc87085f937" y="211.961045624"/>
     <use style="fill:#0000ff;stroke:#000000;stroke-width:0.5;" x="344.799992975" xlink:href="#mc87085f937" y="175.997590806"/>
     <use style="fill:#0000ff;stroke:#000000;stroke-width:0.5;" x="357.199988237" xlink:href="#mc87085f937" y="137.599602653"/>
     <use style="fill:#0000ff;stroke:#000000;stroke-width:0.5;" x="369.599984805" xlink:href="#mc87085f937" y="101.17052512"/>
     <use style="fill:#0000ff;stroke:#000000;stroke-width:0.5;" x="382.000029578" xlink:href="#mc87085f937" y="73.0850200009"/>
     <use style="fill:#0000ff;stroke:#000000;stroke-width:0.5;" x="394.400025714" xlink:href="#mc87085f937" y="58.4328618271"/>
     <use style="fill:#0000ff;stroke:#000000;stroke-width:0.5;" x="406.800001841" xlink:href="#mc87085f937" y="60.5887233368"/>
     <use style="fill:#0000ff;stroke:#000000;stroke-width:0.5;" x="419.2000325" xlink:href="#mc87085f937" y="80.3821163667"/>
     <use style="fill:#0000ff;stroke:#000000;stroke-width:0.5;" x="431.600012635" xlink:href="#mc87085f937" y="116.093500883"/>
     <use style="fill:#0000ff;stroke:#000000;stroke-width:0.5;" x="444.000034098" xlink:href="#mc87085f937" y="164.021510132"/>
     <use style="fill:#0000ff;stroke:#000000;stroke-width:0.5;" x="456.400015168" xlink:href="#mc87085f937" y="218.755046767"/>
     <use style="fill:#0000ff;stroke:#000000;stroke-width:0.5;" x="468.800037426" xlink:href="#mc87085f937" y="272.969018961"/>
     <use style="fill:#0000ff;stroke:#000000;stroke-width:0.5;" x="481.20002706" xlink:href="#mc87085f937" y="321.454651139"/>
     <use style="fill:#0000ff;stroke:#000000;stroke-width:0.5;" x="493.599995747" xlink:href="#mc87085f937" y="357.937200177"/>
     <use style="fill:#0000ff;stroke:#000000;stroke-width:0.5;" x="506.000053354" xlink:href="#mc87085f937" y="380.716422621"/>
    </g>
   </g>
   <g id="line2d_3">
    <path clip-path="url(#pb054fee4ec)" d="M 72.000059 388.8 
L 84.400049 385.499803 
L 96.800014 377.432437 
L 109.199989 363.369093 
L 121.600026 343.509683 
L 134.000027 321.051709 
L 146.400009 294.85927 
L 158.800016 269.372926 
L 171.200004 246.576441 
L 183.600008 232.246219 
L 195.999998 225.187571 
L 208.399973 225.048891 
L 220.799991 230.37919 
L 233.199959 238.860435 
L 245.600013 247.974676 
L 257.999998 255.255944 
L 270.399963 257.026133 
L 282.799955 261.083249 
L 295.200683 261.48476 
L 307.599954 262.149461 
L 319.999989 257.997758 
L 332.399971 254.728986 
L 344.799993 246.680404 
L 357.199988 237.988745 
L 369.599985 229.474493 
L 382.00003 224.145443 
L 394.400026 224.346431 
L 406.800002 231.660723 
L 419.200032 246.295638 
L 431.600013 267.153859 
L 444.000034 292.325439 
L 456.400015 319.144181 
L 468.800037 343.65176 
L 481.200027 364.222595 
L 493.599996 377.948829 
L 506.000053 385.874831 
" style="fill:none;stroke:#000000;stroke-linecap:square;"/>
    <defs>
     <path d="M -3 3 
L 3 -3 
M -3 -3 
L 3 3 
" id="mf8e9960e23" style="stroke:#000000;stroke-width:0.5;"/>
    </defs>
    <g clip-path="url(#pb054fee4ec)">
     <use style="stroke:#000000;stroke-width:0.5;" x="72.0000589144" xlink:href="#mf8e9960e23" y="388.8"/>
     <use style="stroke:#000000;stroke-width:0.5;" x="84.4000487579" xlink:href="#mf8e9960e23" y="385.499803196"/>
     <use style="stroke:#000000;stroke-width:0.5;" x="96.8000140799" xlink:href="#mf8e9960e23" y="377.432437219"/>
     <use style="stroke:#000000;stroke-width:0.5;" x="109.199989482" xlink:href="#mf8e9960e23" y="363.369093405"/>
     <use style="stroke:#000000;stroke-width:0.5;" x="121.600025764" xlink:href="#mf8e9960e23" y="343.509682839"/>
     <use style="stroke:#000000;stroke-width:0.5;" x="134.000027463" xlink:href="#mf8e9960e23" y="321.051709499"/>
     <use style="stroke:#000000;stroke-width:0.5;" x="146.400009009" xlink:href="#mf8e9960e23" y="294.859270173"/>
     <use style="stroke:#000000;stroke-width:0.5;" x="158.800015903" xlink:href="#mf8e9960e23" y="269.372925513"/>
     <use style="stroke:#000000;stroke-width:0.5;" x="171.20000447" xlink:href="#mf8e9960e23" y="246.576440697"/>
     <use style="stroke:#000000;stroke-width:0.5;" x="183.600007884" xlink:href="#mf8e9960e23" y="232.246218786"/>
     <use style="stroke:#000000;stroke-width:0.5;" x="195.999998264" xlink:href="#mf8e9960e23" y="225.187570758"/>
     <use style="stroke:#000000;stroke-width:0.5;" x="208.399973372" xlink:href="#mf8e9960e23" y="225.04889126"/>
     <use style="stroke:#000000;stroke-width:0.5;" x="220.799991" xlink:href="#mf8e9960e23" y="230.379190251"/>
     <use style="stroke:#000000;stroke-width:0.5;" x="233.199958731" xlink:href="#mf8e9960e23" y="238.860435137"/>
     <use style="stroke:#000000;stroke-width:0.5;" x="245.600012702" xlink:href="#mf8e9960e23" y="247.974675516"/>
     <use style="stroke:#000000;stroke-width:0.5;" x="257.999997688" xlink:href="#mf8e9960e23" y="255.255944094"/>
     <use style="stroke:#000000;stroke-width:0.5;" x="270.399962618" xlink:href="#mf8e9960e23" y="257.026132563"/>
     <use style="stroke:#000000;stroke-width:0.5;" x="282.799954992" xlink:href="#mf8e9960e23" y="261.083248856"/>
     <use style="stroke:#000000;stroke-width:0.5;" x="295.200682704" xlink:href="#mf8e9960e23" y="261.484760135"/>
     <use style="stroke:#000000;stroke-width:0.5;" x="307.599954151" xlink:href="#mf8e9960e23" y="262.149460606"/>
     <use style="stroke:#000000;stroke-width:0.5;" x="319.999988563" xlink:href="#mf8e9960e23" y="257.997758147"/>
     <use style="stroke:#000000;stroke-width:0.5;" x="332.399971172" xlink:href="#mf8e9960e23" y="254.728985508"/>
     <use style="stroke:#000000;stroke-width:0.5;" x="344.799992975" xlink:href="#mf8e9960e23" y="246.680403623"/>
     <use style="stroke:#000000;stroke-width:0.5;" x="357.199988237" xlink:href="#mf8e9960e23" y="237.988745283"/>
     <use style="stroke:#000000;stroke-width:0.5;" x="369.599984805" xlink:href="#mf8e9960e23" y="229.474493433"/>
     <use style="stroke:#000000;stroke-width:0.5;" x="382.000029578" xlink:href="#mf8e9960e23" y="224.145443266"/>
     <use style="stroke:#000000;stroke-width:0.5;" x="394.400025714" xlink:href="#mf8e9960e23" y="224.346431015"/>
     <use style="stroke:#000000;stroke-width:0.5;" x="406.800001841" xlink:href="#mf8e9960e23" y="231.660723337"/>
     <use style="stroke:#000000;stroke-width:0.5;" x="419.2000325" xlink:href="#mf8e9960e23" y="246.295637613"/>
     <use style="stroke:#000000;stroke-width:0.5;" x="431.600012635" xlink:href="#mf8e9960e23" y="267.153858814"/>
     <use style="stroke:#000000;stroke-width:0.5;" x="444.000034098" xlink:href="#mf8e9960e23" y="292.325439028"/>
     <use style="stroke:#000000;stroke-width:0.5;" x="456.400015168" xlink:href="#mf8e9960e23" y="319.144181324"/>
     <use style="stroke:#000000;stroke-width:0.5;" x="468.800037426" xlink:href="#mf8e9960e23" y="343.651759689"/>
     <use style="stroke:#000000;stroke-width:0.5;" x="481.20002706" xlink:href="#mf8e9960e23" y="364.222594711"/>
     <use style="stroke:#000000;stroke-width:0.5;" x="493.599995747" xlink:href="#mf8e9960e23" y="377.948829273"/>
     <use style="stroke:#000000;stroke-width:0.5;" x="506.000053354" xlink:href="#mf8e9960e23" y="385.87483067"/>
    </g>
   </g>
   <g id="line2d_4">
    <path clip-path="url(#pb054fee4ec)" d="M 72.000059 261.457417 
L 84.400049 256.331054 
L 96.800014 240.145984 
L 109.199989 218.069729 
L 121.600026 195.450845 
L 134.000027 176.465518 
L 146.400009 165.094669 
L 158.800016 161.482365 
L 171.200004 164.590034 
L 183.600008 173.411503 
L 195.999998 187.671412 
L 208.399973 207.169295 
L 220.799991 231.773032 
L 233.199959 260.944015 
L 245.600013 293.063996 
L 257.999998 326.141526 
L 270.399963 362.498198 
L 282.799955 381.007496 
L 295.200683 388.8 
L 307.599954 379.800038 
L 319.999989 361.783853 
L 332.399971 326.92482 
L 344.799993 297.667215 
L 357.199988 262.594693 
L 369.599985 233.290309 
L 382.00003 208.429664 
L 394.400026 188.542511 
L 406.800002 173.632991 
L 419.200032 164.120653 
L 431.600013 160.878912 
L 444.000034 164.626503 
L 456.400015 175.653607 
L 468.800037 194.069976 
L 481.200027 216.184233 
L 493.599996 238.909582 
L 506.000053 255.583323 
" style="fill:none;stroke:#ff00ff;stroke-linecap:square;"/>
    <defs>
     <path d="M -3 3 
L 3 -3 
M -3 -3 
L 3 3 
" id="me3d8541783" style="stroke:#ff00ff;stroke-width:0.5;"/>
    </defs>
    <g clip-path="url(#pb054fee4ec)">
     <use style="fill:#ff00ff;stroke:#ff00ff;stroke-width:0.5;" x="72.0000589144" xlink:href="#me3d8541783" y="261.457417445"/>
     <use style="fill:#ff00ff;stroke:#ff00ff;stroke-width:0.5;" x="84.4000487579" xlink:href="#me3d8541783" y="256.331053886"/>
     <use style="fill:#ff00ff;stroke:#ff00ff;stroke-width:0.5;" x="96.8000140799" xlink:href="#me3d8541783" y="240.145984128"/>
     <use style="fill:#ff00ff;stroke:#ff00ff;stroke-width:0.5;" x="109.199989482" xlink:href="#me3d8541783" y="218.069729462"/>
     <use style="fill:#ff00ff;stroke:#ff00ff;stroke-width:0.5;" x="121.600025764" xlink:href="#me3d8541783" y="195.450844716"/>
     <use style="fill:#ff00ff;stroke:#ff00ff;stroke-width:0.5;" x="134.000027463" xlink:href="#me3d8541783" y="176.465518425"/>
     <use style="fill:#ff00ff;stroke:#ff00ff;stroke-width:0.5;" x="146.400009009" xlink:href="#me3d8541783" y="165.094668939"/>
     <use style="fill:#ff00ff;stroke:#ff00ff;stroke-width:0.5;" x="158.800015903" xlink:href="#me3d8541783" y="161.482364789"/>
     <use style="fill:#ff00ff;stroke:#ff00ff;stroke-width:0.5;" x="171.20000447" xlink:href="#me3d8541783" y="164.59003395"/>
     <use style="fill:#ff00ff;stroke:#ff00ff;stroke-width:0.5;" x="183.600007884" xlink:href="#me3d8541783" y="173.411503378"/>
     <use style="fill:#ff00ff;stroke:#ff00ff;stroke-width:0.5;" x="195.999998264" xlink:href="#me3d8541783" y="187.671411524"/>
     <use style="fill:#ff00ff;stroke:#ff00ff;stroke-width:0.5;" x="208.399973372" xlink:href="#me3d8541783" y="207.169295268"/>
     <use style="fill:#ff00ff;stroke:#ff00ff;stroke-width:0.5;" x="220.799991" xlink:href="#me3d8541783" y="231.773032102"/>
     <use style="fill:#ff00ff;stroke:#ff00ff;stroke-width:0.5;" x="233.199958731" xlink:href="#me3d8541783" y="260.944015156"/>
     <use style="fill:#ff00ff;stroke:#ff00ff;stroke-width:0.5;" x="245.600012702" xlink:href="#me3d8541783" y="293.06399591"/>
     <use style="fill:#ff00ff;stroke:#ff00ff;stroke-width:0.5;" x="257.999997688" xlink:href="#me3d8541783" y="326.141525839"/>
     <use style="fill:#ff00ff;stroke:#ff00ff;stroke-width:0.5;" x="270.399962618" xlink:href="#me3d8541783" y="362.498197909"/>
     <use style="fill:#ff00ff;stroke:#ff00ff;stroke-width:0.5;" x="282.799954992" xlink:href="#me3d8541783" y="381.007495734"/>
     <use style="fill:#ff00ff;stroke:#ff00ff;stroke-width:0.5;" x="295.200682704" xlink:href="#me3d8541783" y="388.8"/>
     <use style="fill:#ff00ff;stroke:#ff00ff;stroke-width:0.5;" x="307.599954151" xlink:href="#me3d8541783" y="379.800037583"/>
     <use style="fill:#ff00ff;stroke:#ff00ff;stroke-width:0.5;" x="319.999988563" xlink:href="#me3d8541783" y="361.783852724"/>
     <use style="fill:#ff00ff;stroke:#ff00ff;stroke-width:0.5;" x="332.399971172" xlink:href="#me3d8541783" y="326.924820007"/>
     <use style="fill:#ff00ff;stroke:#ff00ff;stroke-width:0.5;" x="344.799992975" xlink:href="#me3d8541783" y="297.667214819"/>
     <use style="fill:#ff00ff;stroke:#ff00ff;stroke-width:0.5;" x="357.199988237" xlink:href="#me3d8541783" y="262.594692803"/>
     <use style="fill:#ff00ff;stroke:#ff00ff;stroke-width:0.5;" x="369.599984805" xlink:href="#me3d8541783" y="233.290309091"/>
     <use style="fill:#ff00ff;stroke:#ff00ff;stroke-width:0.5;" x="382.000029578" xlink:href="#me3d8541783" y="208.429664309"/>
     <use style="fill:#ff00ff;stroke:#ff00ff;stroke-width:0.5;" x="394.400025714" xlink:href="#me3d8541783" y="188.542511331"/>
     <use style="fill:#ff00ff;stroke:#ff00ff;stroke-width:0.5;" x="406.800001841" xlink:href="#me3d8541783" y="173.632990854"/>
     <use style="fill:#ff00ff;stroke:#ff00ff;stroke-width:0.5;" x="419.2000325" xlink:href="#me3d8541783" y="164.120652554"/>
     <use style="fill:#ff00ff;stroke:#ff00ff;stroke-width:0.5;" x="431.600012635" xlink:href="#me3d8541783" y="160.878912483"/>
     <use style="fill:#ff00ff;stroke:#ff00ff;stroke-width:0.5;" x="444.000034098" xlink:href="#me3d8541783" y="164.626502648"/>
     <use style="fill:#ff00ff;stroke:#ff00ff;stroke-width:0.5;" x="456.400015168" xlink:href="#me3d8541783" y="175.653606847"/>
     <use style="fill:#ff00ff;stroke:#ff00ff;stroke-width:0.5;" x="468.800037426" xlink:href="#me3d8541783" y="194.069976489"/>
     <use style="fill:#ff00ff;stroke:#ff00ff;stroke-width:0.5;" x="481.20002706" xlink:href="#me3d8541783" y="216.184232866"/>
     <use style="fill:#ff00ff;stroke:#ff00ff;stroke-width:0.5;" x="493.599995747" xlink:href="#me3d8541783" y="238.909582107"/>
     <use style="fill:#ff00ff;stroke:#ff00ff;stroke-width:0.5;" x="506.000053354" xlink:href="#me3d8541783" y="255.583322878"/>
    </g>
   </g>
   <g id="line2d_5">
    <path clip-path="url(#pb054fee4ec)" d="M 72.000059 388.8 
L 84.400049 379.425305 
L 96.800014 354.917317 
L 109.199989 318.618187 
L 121.600026 276.227406 
L 134.000027 235.491191 
L 146.400009 197.866818 
L 158.800016 168.4996 
L 171.200004 148.891085 
L 183.600008 143.911453 
L 195.999998 151.562014 
L 208.399973 171.055901 
L 220.799991 200.872082 
L 233.199959 238.59197 
L 245.600013 280.754031 
L 257.999998 322.231511 
L 270.399963 354.733079 
L 282.799955 380.427581 
L 295.200683 388.657013 
L 307.599954 381.493905 
L 319.999989 355.704811 
L 332.399971 321.704637 
L 344.799993 279.459744 
L 357.199988 237.720415 
L 369.599985 199.967438 
L 382.00003 170.152448 
L 394.400026 150.720841 
L 406.800002 143.325948 
L 419.200032 148.610263 
L 431.600013 166.280534 
L 444.000034 195.333013 
L 456.400015 233.583714 
L 468.800037 276.36959 
L 481.200027 319.47172 
L 493.599996 355.433725 
L 506.000053 379.80043 
" style="fill:none;stroke:#008000;stroke-linecap:square;"/>
    <defs>
     <path d="M 0 3 
C 0.795609 3 1.55874 2.683901 2.12132 2.12132 
C 2.683901 1.55874 3 0.795609 3 0 
C 3 -0.795609 2.683901 -1.55874 2.12132 -2.12132 
C 1.55874 -2.683901 0.795609 -3 0 -3 
C -0.795609 -3 -1.55874 -2.683901 -2.12132 -2.12132 
C -2.683901 -1.55874 -3 -0.795609 -3 0 
C -3 0.795609 -2.683901 1.55874 -2.12132 2.12132 
C -1.55874 2.683901 -0.795609 3 0 3 
z
" id="m291c9e4365" style="stroke:#000000;stroke-width:0.5;"/>
    </defs>
    <g clip-path="url(#pb054fee4ec)">
     <use style="fill:#008000;stroke:#000000;stroke-width:0.5;" x="72.0000589144" xlink:href="#m291c9e4365" y="388.8"/>
     <use style="fill:#008000;stroke:#000000;stroke-width:0.5;" x="84.4000487579" xlink:href="#m291c9e4365" y="379.425305136"/>
     <use style="fill:#008000;stroke:#000000;stroke-width:0.5;" x="96.8000140799" xlink:href="#m291c9e4365" y="354.917316654"/>
     <use style="fill:#008000;stroke:#000000;stroke-width:0.5;" x="109.199989482" xlink:href="#m291c9e4365" y="318.618187219"/>
     <use style="fill:#008000;stroke:#000000;stroke-width:0.5;" x="121.600025764" xlink:href="#m291c9e4365" y="276.227406253"/>
     <use style="fill:#008000;stroke:#000000;stroke-width:0.5;" x="134.000027463" xlink:href="#m291c9e4365" y="235.491190689"/>
     <use style="fill:#008000;stroke:#000000;stroke-width:0.5;" x="146.400009009" xlink:href="#m291c9e4365" y="197.866817529"/>
     <use style="fill:#008000;stroke:#000000;stroke-width:0.5;" x="158.800015903" xlink:href="#m291c9e4365" y="168.499600222"/>
     <use style="fill:#008000;stroke:#000000;stroke-width:0.5;" x="171.20000447" xlink:href="#m291c9e4365" y="148.891084943"/>
     <use style="fill:#008000;stroke:#000000;stroke-width:0.5;" x="183.600007884" xlink:href="#m291c9e4365" y="143.911453196"/>
     <use style="fill:#008000;stroke:#000000;stroke-width:0.5;" x="195.999998264" xlink:href="#m291c9e4365" y="151.562014396"/>
     <use style="fill:#008000;stroke:#000000;stroke-width:0.5;" x="208.399973372" xlink:href="#m291c9e4365" y="171.055900862"/>
     <use style="fill:#008000;stroke:#000000;stroke-width:0.5;" x="220.799991" xlink:href="#m291c9e4365" y="200.8720818"/>
     <use style="fill:#008000;stroke:#000000;stroke-width:0.5;" x="233.199958731" xlink:href="#m291c9e4365" y="238.591970245"/>
     <use style="fill:#008000;stroke:#000000;stroke-width:0.5;" x="245.600012702" xlink:href="#m291c9e4365" y="280.75403126"/>
     <use style="fill:#008000;stroke:#000000;stroke-width:0.5;" x="257.999997688" xlink:href="#m291c9e4365" y="322.231511288"/>
     <use style="fill:#008000;stroke:#000000;stroke-width:0.5;" x="270.399962618" xlink:href="#m291c9e4365" y="354.73307908"/>
     <use style="fill:#008000;stroke:#000000;stroke-width:0.5;" x="282.799954992" xlink:href="#m291c9e4365" y="380.427580992"/>
     <use style="fill:#008000;stroke:#000000;stroke-width:0.5;" x="295.200682704" xlink:href="#m291c9e4365" y="388.657012732"/>
     <use style="fill:#008000;stroke:#000000;stroke-width:0.5;" x="307.599954151" xlink:href="#m291c9e4365" y="381.49390509"/>
     <use style="fill:#008000;stroke:#000000;stroke-width:0.5;" x="319.999988563" xlink:href="#m291c9e4365" y="355.704811436"/>
     <use style="fill:#008000;stroke:#000000;stroke-width:0.5;" x="332.399971172" xlink:href="#m291c9e4365" y="321.704636504"/>
     <use style="fill:#008000;stroke:#000000;stroke-width:0.5;" x="344.799992975" xlink:href="#m291c9e4365" y="279.459743692"/>
     <use style="fill:#008000;stroke:#000000;stroke-width:0.5;" x="357.199988237" xlink:href="#m291c9e4365" y="237.720414768"/>
     <use style="fill:#008000;stroke:#000000;stroke-width:0.5;" x="369.599984805" xlink:href="#m291c9e4365" y="199.967437503"/>
     <use style="fill:#008000;stroke:#000000;stroke-width:0.5;" x="382.000029578" xlink:href="#m291c9e4365" y="170.152447623"/>
     <use style="fill:#008000;stroke:#000000;stroke-width:0.5;" x="394.400025714" xlink:href="#m291c9e4365" y="150.720841378"/>
     <use style="fill:#008000;stroke:#000000;stroke-width:0.5;" x="406.800001841" xlink:href="#m291c9e4365" y="143.325948227"/>
     <use style="fill:#008000;stroke:#000000;stroke-width:0.5;" x="419.2000325" xlink:href="#m291c9e4365" y="148.610262704"/>
     <use style="fill:#008000;stroke:#000000;stroke-width:0.5;" x="431.600012635" xlink:href="#m291c9e4365" y="166.280534003"/>
     <use style="fill:#008000;stroke:#000000;stroke-width:0.5;" x="444.000034098" xlink:href="#m291c9e4365" y="195.333012968"/>
     <use style="fill:#008000;stroke:#000000;stroke-width:0.5;" x="456.400015168" xlink:href="#m291c9e4365" y="233.583714471"/>
     <use style="fill:#008000;stroke:#000000;stroke-width:0.5;" x="468.800037426" xlink:href="#m291c9e4365" y="276.369590189"/>
     <use style="fill:#008000;stroke:#000000;stroke-width:0.5;" x="481.20002706" xlink:href="#m291c9e4365" y="319.471719573"/>
     <use style="fill:#008000;stroke:#000000;stroke-width:0.5;" x="493.599995747" xlink:href="#m291c9e4365" y="355.433724754"/>
     <use style="fill:#008000;stroke:#000000;stroke-width:0.5;" x="506.000053354" xlink:href="#m291c9e4365" y="379.800430091"/>
    </g>
   </g>
   <g id="patch_3">
    <path d="M 72 388.8 
L 518.4 388.8 
" style="fill:none;stroke:#000000;stroke-linecap:square;stroke-linejoin:miter;"/>
   </g>
   <g id="patch_4">
    <path d="M 72 388.8 
L 72 43.2 
" style="fill:none;stroke:#000000;stroke-linecap:square;stroke-linejoin:miter;"/>
   </g>
   <g id="patch_5">
    <path d="M 518.4 388.8 
L 518.4 43.2 
" style="fill:none;stroke:#000000;stroke-linecap:square;stroke-linejoin:miter;"/>
   </g>
   <g id="patch_6">
    <path d="M 72 43.2 
L 518.4 43.2 
" style="fill:none;stroke:#000000;stroke-linecap:square;stroke-linejoin:miter;"/>
   </g>
   <g id="matplotlib.axis_1">
    <g id="xtick_1">
     <g id="line2d_6">
      <defs>
       <path d="M 0 0 
L 0 -4 
" id="mf4f0005aab" style="stroke:#000000;stroke-width:0.5;"/>
      </defs>
      <g>
       <use style="stroke:#000000;stroke-width:0.5;" x="72.0" xlink:href="#mf4f0005aab" y="388.8"/>
      </g>
     </g>
     <g id="line2d_7">
      <defs>
       <path d="M 0 0 
L 0 4 
" id="mc8ac9902e5" style="stroke:#000000;stroke-width:0.5;"/>
      </defs>
      <g>
       <use style="stroke:#000000;stroke-width:0.5;" x="72.0" xlink:href="#mc8ac9902e5" y="43.2"/>
      </g>
     </g>
     <g id="text_1">
      <!-- −180 -->
      <defs>
       <path d="M 31.78125 66.40625 
Q 24.171875 66.40625 20.328125 58.90625 
Q 16.5 51.421875 16.5 36.375 
Q 16.5 21.390625 20.328125 13.890625 
Q 24.171875 6.390625 31.78125 6.390625 
Q 39.453125 6.390625 43.28125 13.890625 
Q 47.125 21.390625 47.125 36.375 
Q 47.125 51.421875 43.28125 58.90625 
Q 39.453125 66.40625 31.78125 66.40625 
M 31.78125 74.21875 
Q 44.046875 74.21875 50.515625 64.515625 
Q 56.984375 54.828125 56.984375 36.375 
Q 56.984375 17.96875 50.515625 8.265625 
Q 44.046875 -1.421875 31.78125 -1.421875 
Q 19.53125 -1.421875 13.0625 8.265625 
Q 6.59375 17.96875 6.59375 36.375 
Q 6.59375 54.828125 13.0625 64.515625 
Q 19.53125 74.21875 31.78125 74.21875 
" id="BitstreamVeraSans-Roman-30"/>
       <path d="M 10.59375 35.5 
L 73.1875 35.5 
L 73.1875 27.203125 
L 10.59375 27.203125 
z
" id="BitstreamVeraSans-Roman-2212"/>
       <path d="M 31.78125 34.625 
Q 24.75 34.625 20.71875 30.859375 
Q 16.703125 27.09375 16.703125 20.515625 
Q 16.703125 13.921875 20.71875 10.15625 
Q 24.75 6.390625 31.78125 6.390625 
Q 38.8125 6.390625 42.859375 10.171875 
Q 46.921875 13.96875 46.921875 20.515625 
Q 46.921875 27.09375 42.890625 30.859375 
Q 38.875 34.625 31.78125 34.625 
M 21.921875 38.8125 
Q 15.578125 40.375 12.03125 44.71875 
Q 8.5 49.078125 8.5 55.328125 
Q 8.5 64.0625 14.71875 69.140625 
Q 20.953125 74.21875 31.78125 74.21875 
Q 42.671875 74.21875 48.875 69.140625 
Q 55.078125 64.0625 55.078125 55.328125 
Q 55.078125 49.078125 51.53125 44.71875 
Q 48 40.375 41.703125 38.8125 
Q 48.828125 37.15625 52.796875 32.3125 
Q 56.78125 27.484375 56.78125 20.515625 
Q 56.78125 9.90625 50.3125 4.234375 
Q 43.84375 -1.421875 31.78125 -1.421875 
Q 19.734375 -1.421875 13.25 4.234375 
Q 6.78125 9.90625 6.78125 20.515625 
Q 6.78125 27.484375 10.78125 32.3125 
Q 14.796875 37.15625 21.921875 38.8125 
M 18.3125 54.390625 
Q 18.3125 48.734375 21.84375 45.5625 
Q 25.390625 42.390625 31.78125 42.390625 
Q 38.140625 42.390625 41.71875 45.5625 
Q 45.3125 48.734375 45.3125 54.390625 
Q 45.3125 60.0625 41.71875 63.234375 
Q 38.140625 66.40625 31.78125 66.40625 
Q 25.390625 66.40625 21.84375 63.234375 
Q 18.3125 60.0625 18.3125 54.390625 
" id="BitstreamVeraSans-Roman-38"/>
       <path d="M 12.40625 8.296875 
L 28.515625 8.296875 
L 28.515625 63.921875 
L 10.984375 60.40625 
L 10.984375 69.390625 
L 28.421875 72.90625 
L 38.28125 72.90625 
L 38.28125 8.296875 
L 54.390625 8.296875 
L 54.390625 0 
L 12.40625 0 
z
" id="BitstreamVeraSans-Roman-31"/>
      </defs>
      <g transform="translate(55.5196875 401.918125)scale(0.12 -0.12)">
       <use xlink:href="#BitstreamVeraSans-Roman-2212"/>
       <use x="83.7890625" xlink:href="#BitstreamVeraSans-Roman-31"/>
       <use x="147.412109375" xlink:href="#BitstreamVeraSans-Roman-38"/>
       <use x="211.03515625" xlink:href="#BitstreamVeraSans-Roman-30"/>
      </g>
     </g>
    </g>
    <g id="xtick_2">
     <g id="line2d_8">
      <g>
       <use style="stroke:#000000;stroke-width:0.5;" x="127.8" xlink:href="#mf4f0005aab" y="388.8"/>
      </g>
     </g>
     <g id="line2d_9">
      <g>
       <use style="stroke:#000000;stroke-width:0.5;" x="127.8" xlink:href="#mc8ac9902e5" y="43.2"/>
      </g>
     </g>
     <g id="text_2">
      <!-- −135 -->
      <defs>
       <path d="M 10.796875 72.90625 
L 49.515625 72.90625 
L 49.515625 64.59375 
L 19.828125 64.59375 
L 19.828125 46.734375 
Q 21.96875 47.46875 24.109375 47.828125 
Q 26.265625 48.1875 28.421875 48.1875 
Q 40.625 48.1875 47.75 41.5 
Q 54.890625 34.8125 54.890625 23.390625 
Q 54.890625 11.625 47.5625 5.09375 
Q 40.234375 -1.421875 26.90625 -1.421875 
Q 22.3125 -1.421875 17.546875 -0.640625 
Q 12.796875 0.140625 7.71875 1.703125 
L 7.71875 11.625 
Q 12.109375 9.234375 16.796875 8.0625 
Q 21.484375 6.890625 26.703125 6.890625 
Q 35.15625 6.890625 40.078125 11.328125 
Q 45.015625 15.765625 45.015625 23.390625 
Q 45.015625 31 40.078125 35.4375 
Q 35.15625 39.890625 26.703125 39.890625 
Q 22.75 39.890625 18.8125 39.015625 
Q 14.890625 38.140625 10.796875 36.28125 
z
" id="BitstreamVeraSans-Roman-35"/>
       <path d="M 40.578125 39.3125 
Q 47.65625 37.796875 51.625 33 
Q 55.609375 28.21875 55.609375 21.1875 
Q 55.609375 10.40625 48.1875 4.484375 
Q 40.765625 -1.421875 27.09375 -1.421875 
Q 22.515625 -1.421875 17.65625 -0.515625 
Q 12.796875 0.390625 7.625 2.203125 
L 7.625 11.71875 
Q 11.71875 9.328125 16.59375 8.109375 
Q 21.484375 6.890625 26.8125 6.890625 
Q 36.078125 6.890625 40.9375 10.546875 
Q 45.796875 14.203125 45.796875 21.1875 
Q 45.796875 27.640625 41.28125 31.265625 
Q 36.765625 34.90625 28.71875 34.90625 
L 20.21875 34.90625 
L 20.21875 43.015625 
L 29.109375 43.015625 
Q 36.375 43.015625 40.234375 45.921875 
Q 44.09375 48.828125 44.09375 54.296875 
Q 44.09375 59.90625 40.109375 62.90625 
Q 36.140625 65.921875 28.71875 65.921875 
Q 24.65625 65.921875 20.015625 65.03125 
Q 15.375 64.15625 9.8125 62.3125 
L 9.8125 71.09375 
Q 15.4375 72.65625 20.34375 73.4375 
Q 25.25 74.21875 29.59375 74.21875 
Q 40.828125 74.21875 47.359375 69.109375 
Q 53.90625 64.015625 53.90625 55.328125 
Q 53.90625 49.265625 50.4375 45.09375 
Q 46.96875 40.921875 40.578125 39.3125 
" id="BitstreamVeraSans-Roman-33"/>
      </defs>
      <g transform="translate(111.3196875 401.918125)scale(0.12 -0.12)">
       <use xlink:href="#BitstreamVeraSans-Roman-2212"/>
       <use x="83.7890625" xlink:href="#BitstreamVeraSans-Roman-31"/>
       <use x="147.412109375" xlink:href="#BitstreamVeraSans-Roman-33"/>
       <use x="211.03515625" xlink:href="#BitstreamVeraSans-Roman-35"/>
      </g>
     </g>
    </g>
    <g id="xtick_3">
     <g id="line2d_10">
      <g>
       <use style="stroke:#000000;stroke-width:0.5;" x="183.6" xlink:href="#mf4f0005aab" y="388.8"/>
      </g>
     </g>
     <g id="line2d_11">
      <g>
       <use style="stroke:#000000;stroke-width:0.5;" x="183.6" xlink:href="#mc8ac9902e5" y="43.2"/>
      </g>
     </g>
     <g id="text_3">
      <!-- −90 -->
      <defs>
       <path d="M 10.984375 1.515625 
L 10.984375 10.5 
Q 14.703125 8.734375 18.5 7.8125 
Q 22.3125 6.890625 25.984375 6.890625 
Q 35.75 6.890625 40.890625 13.453125 
Q 46.046875 20.015625 46.78125 33.40625 
Q 43.953125 29.203125 39.59375 26.953125 
Q 35.25 24.703125 29.984375 24.703125 
Q 19.046875 24.703125 12.671875 31.3125 
Q 6.296875 37.9375 6.296875 49.421875 
Q 6.296875 60.640625 12.9375 67.421875 
Q 19.578125 74.21875 30.609375 74.21875 
Q 43.265625 74.21875 49.921875 64.515625 
Q 56.59375 54.828125 56.59375 36.375 
Q 56.59375 19.140625 48.40625 8.859375 
Q 40.234375 -1.421875 26.421875 -1.421875 
Q 22.703125 -1.421875 18.890625 -0.6875 
Q 15.09375 0.046875 10.984375 1.515625 
M 30.609375 32.421875 
Q 37.25 32.421875 41.125 36.953125 
Q 45.015625 41.5 45.015625 49.421875 
Q 45.015625 57.28125 41.125 61.84375 
Q 37.25 66.40625 30.609375 66.40625 
Q 23.96875 66.40625 20.09375 61.84375 
Q 16.21875 57.28125 16.21875 49.421875 
Q 16.21875 41.5 20.09375 36.953125 
Q 23.96875 32.421875 30.609375 32.421875 
" id="BitstreamVeraSans-Roman-39"/>
      </defs>
      <g transform="translate(170.9371875 401.918125)scale(0.12 -0.12)">
       <use xlink:href="#BitstreamVeraSans-Roman-2212"/>
       <use x="83.7890625" xlink:href="#BitstreamVeraSans-Roman-39"/>
       <use x="147.412109375" xlink:href="#BitstreamVeraSans-Roman-30"/>
      </g>
     </g>
    </g>
    <g id="xtick_4">
     <g id="line2d_12">
      <g>
       <use style="stroke:#000000;stroke-width:0.5;" x="239.4" xlink:href="#mf4f0005aab" y="388.8"/>
      </g>
     </g>
     <g id="line2d_13">
      <g>
       <use style="stroke:#000000;stroke-width:0.5;" x="239.4" xlink:href="#mc8ac9902e5" y="43.2"/>
      </g>
     </g>
     <g id="text_4">
      <!-- −45 -->
      <defs>
       <path d="M 37.796875 64.3125 
L 12.890625 25.390625 
L 37.796875 25.390625 
z
M 35.203125 72.90625 
L 47.609375 72.90625 
L 47.609375 25.390625 
L 58.015625 25.390625 
L 58.015625 17.1875 
L 47.609375 17.1875 
L 47.609375 0 
L 37.796875 0 
L 37.796875 17.1875 
L 4.890625 17.1875 
L 4.890625 26.703125 
z
" id="BitstreamVeraSans-Roman-34"/>
      </defs>
      <g transform="translate(226.7371875 401.918125)scale(0.12 -0.12)">
       <use xlink:href="#BitstreamVeraSans-Roman-2212"/>
       <use x="83.7890625" xlink:href="#BitstreamVeraSans-Roman-34"/>
       <use x="147.412109375" xlink:href="#BitstreamVeraSans-Roman-35"/>
      </g>
     </g>
    </g>
    <g id="xtick_5">
     <g id="line2d_14">
      <g>
       <use style="stroke:#000000;stroke-width:0.5;" x="295.2" xlink:href="#mf4f0005aab" y="388.8"/>
      </g>
     </g>
     <g id="line2d_15">
      <g>
       <use style="stroke:#000000;stroke-width:0.5;" x="295.2" xlink:href="#mc8ac9902e5" y="43.2"/>
      </g>
     </g>
     <g id="text_5">
      <!-- 0 -->
      <g transform="translate(291.3825 401.918125)scale(0.12 -0.12)">
       <use xlink:href="#BitstreamVeraSans-Roman-30"/>
      </g>
     </g>
    </g>
    <g id="xtick_6">
     <g id="line2d_16">
      <g>
       <use style="stroke:#000000;stroke-width:0.5;" x="351.0" xlink:href="#mf4f0005aab" y="388.8"/>
      </g>
     </g>
     <g id="line2d_17">
      <g>
       <use style="stroke:#000000;stroke-width:0.5;" x="351.0" xlink:href="#mc8ac9902e5" y="43.2"/>
      </g>
     </g>
     <g id="text_6">
      <!-- 45 -->
      <g transform="translate(343.365 401.918125)scale(0.12 -0.12)">
       <use xlink:href="#BitstreamVeraSans-Roman-34"/>
       <use x="63.623046875" xlink:href="#BitstreamVeraSans-Roman-35"/>
      </g>
     </g>
    </g>
    <g id="xtick_7">
     <g id="line2d_18">
      <g>
       <use style="stroke:#000000;stroke-width:0.5;" x="406.8" xlink:href="#mf4f0005aab" y="388.8"/>
      </g>
     </g>
     <g id="line2d_19">
      <g>
       <use style="stroke:#000000;stroke-width:0.5;" x="406.8" xlink:href="#mc8ac9902e5" y="43.2"/>
      </g>
     </g>
     <g id="text_7">
      <!-- 90 -->
      <g transform="translate(399.165 401.918125)scale(0.12 -0.12)">
       <use xlink:href="#BitstreamVeraSans-Roman-39"/>
       <use x="63.623046875" xlink:href="#BitstreamVeraSans-Roman-30"/>
      </g>
     </g>
    </g>
    <g id="xtick_8">
     <g id="line2d_20">
      <g>
       <use style="stroke:#000000;stroke-width:0.5;" x="462.6" xlink:href="#mf4f0005aab" y="388.8"/>
      </g>
     </g>
     <g id="line2d_21">
      <g>
       <use style="stroke:#000000;stroke-width:0.5;" x="462.6" xlink:href="#mc8ac9902e5" y="43.2"/>
      </g>
     </g>
     <g id="text_8">
      <!-- 135 -->
      <g transform="translate(451.1475 401.918125)scale(0.12 -0.12)">
       <use xlink:href="#BitstreamVeraSans-Roman-31"/>
       <use x="63.623046875" xlink:href="#BitstreamVeraSans-Roman-33"/>
       <use x="127.24609375" xlink:href="#BitstreamVeraSans-Roman-35"/>
      </g>
     </g>
    </g>
    <g id="xtick_9">
     <g id="line2d_22">
      <g>
       <use style="stroke:#000000;stroke-width:0.5;" x="518.4" xlink:href="#mf4f0005aab" y="388.8"/>
      </g>
     </g>
     <g id="line2d_23">
      <g>
       <use style="stroke:#000000;stroke-width:0.5;" x="518.4" xlink:href="#mc8ac9902e5" y="43.2"/>
      </g>
     </g>
     <g id="text_9">
      <!-- 180 -->
      <g transform="translate(506.9475 401.918125)scale(0.12 -0.12)">
       <use xlink:href="#BitstreamVeraSans-Roman-31"/>
       <use x="63.623046875" xlink:href="#BitstreamVeraSans-Roman-38"/>
       <use x="127.24609375" xlink:href="#BitstreamVeraSans-Roman-30"/>
      </g>
     </g>
    </g>
    <g id="text_10">
     <!-- Phi -->
     <defs>
      <path d="M 19.671875 64.796875 
L 19.671875 37.40625 
L 32.078125 37.40625 
Q 38.96875 37.40625 42.71875 40.96875 
Q 46.484375 44.53125 46.484375 51.125 
Q 46.484375 57.671875 42.71875 61.234375 
Q 38.96875 64.796875 32.078125 64.796875 
z
M 9.8125 72.90625 
L 32.078125 72.90625 
Q 44.34375 72.90625 50.609375 67.359375 
Q 56.890625 61.8125 56.890625 51.125 
Q 56.890625 40.328125 50.609375 34.8125 
Q 44.34375 29.296875 32.078125 29.296875 
L 19.671875 29.296875 
L 19.671875 0 
L 9.8125 0 
z
" id="BitstreamVeraSans-Roman-50"/>
      <path d="M 54.890625 33.015625 
L 54.890625 0 
L 45.90625 0 
L 45.90625 32.71875 
Q 45.90625 40.484375 42.875 44.328125 
Q 39.84375 48.1875 33.796875 48.1875 
Q 26.515625 48.1875 22.3125 43.546875 
Q 18.109375 38.921875 18.109375 30.90625 
L 18.109375 0 
L 9.078125 0 
L 9.078125 75.984375 
L 18.109375 75.984375 
L 18.109375 46.1875 
Q 21.34375 51.125 25.703125 53.5625 
Q 30.078125 56 35.796875 56 
Q 45.21875 56 50.046875 50.171875 
Q 54.890625 44.34375 54.890625 33.015625 
" id="BitstreamVeraSans-Roman-68"/>
      <path d="M 9.421875 54.6875 
L 18.40625 54.6875 
L 18.40625 0 
L 9.421875 0 
z
M 9.421875 75.984375 
L 18.40625 75.984375 
L 18.40625 64.59375 
L 9.421875 64.59375 
z
" id="BitstreamVeraSans-Roman-69"/>
     </defs>
     <g transform="translate(286.1128125 418.531875)scale(0.12 -0.12)">
      <use xlink:href="#BitstreamVeraSans-Roman-50"/>
      <use x="60.302734375" xlink:href="#BitstreamVeraSans-Roman-68"/>
      <use x="123.681640625" xlink:href="#BitstreamVeraSans-Roman-69"/>
     </g>
    </g>
   </g>
   <g id="matplotlib.axis_2">
    <g id="ytick_1">
     <g id="line2d_24">
      <defs>
       <path d="M 0 0 
L 4 0 
" id="m908552e75a" style="stroke:#000000;stroke-width:0.5;"/>
      </defs>
      <g>
       <use style="stroke:#000000;stroke-width:0.5;" x="72.0" xlink:href="#m908552e75a" y="388.8"/>
      </g>
     </g>
     <g id="line2d_25">
      <defs>
       <path d="M 0 0 
L -4 0 
" id="m03e9cd635d" style="stroke:#000000;stroke-width:0.5;"/>
      </defs>
      <g>
       <use style="stroke:#000000;stroke-width:0.5;" x="518.4" xlink:href="#m03e9cd635d" y="388.8"/>
      </g>
     </g>
     <g id="text_11">
      <!-- 0.0 -->
      <defs>
       <path d="M 10.6875 12.40625 
L 21 12.40625 
L 21 0 
L 10.6875 0 
z
" id="BitstreamVeraSans-Roman-2e"/>
      </defs>
      <g transform="translate(48.91625 392.11125)scale(0.12 -0.12)">
       <use xlink:href="#BitstreamVeraSans-Roman-30"/>
       <use x="63.623046875" xlink:href="#BitstreamVeraSans-Roman-2e"/>
       <use x="95.41015625" xlink:href="#BitstreamVeraSans-Roman-30"/>
      </g>
     </g>
    </g>
    <g id="ytick_2">
     <g id="line2d_26">
      <g>
       <use style="stroke:#000000;stroke-width:0.5;" x="72.0" xlink:href="#m908552e75a" y="345.6"/>
      </g>
     </g>
     <g id="line2d_27">
      <g>
       <use style="stroke:#000000;stroke-width:0.5;" x="518.4" xlink:href="#m03e9cd635d" y="345.6"/>
      </g>
     </g>
     <g id="text_12">
      <!-- 0.5 -->
      <g transform="translate(48.91625 348.91125)scale(0.12 -0.12)">
       <use xlink:href="#BitstreamVeraSans-Roman-30"/>
       <use x="63.623046875" xlink:href="#BitstreamVeraSans-Roman-2e"/>
       <use x="95.41015625" xlink:href="#BitstreamVeraSans-Roman-35"/>
      </g>
     </g>
    </g>
    <g id="ytick_3">
     <g id="line2d_28">
      <g>
       <use style="stroke:#000000;stroke-width:0.5;" x="72.0" xlink:href="#m908552e75a" y="302.4"/>
      </g>
     </g>
     <g id="line2d_29">
      <g>
       <use style="stroke:#000000;stroke-width:0.5;" x="518.4" xlink:href="#m03e9cd635d" y="302.4"/>
      </g>
     </g>
     <g id="text_13">
      <!-- 1.0 -->
      <g transform="translate(48.91625 305.71125)scale(0.12 -0.12)">
       <use xlink:href="#BitstreamVeraSans-Roman-31"/>
       <use x="63.623046875" xlink:href="#BitstreamVeraSans-Roman-2e"/>
       <use x="95.41015625" xlink:href="#BitstreamVeraSans-Roman-30"/>
      </g>
     </g>
    </g>
    <g id="ytick_4">
     <g id="line2d_30">
      <g>
       <use style="stroke:#000000;stroke-width:0.5;" x="72.0" xlink:href="#m908552e75a" y="259.2"/>
      </g>
     </g>
     <g id="line2d_31">
      <g>
       <use style="stroke:#000000;stroke-width:0.5;" x="518.4" xlink:href="#m03e9cd635d" y="259.2"/>
      </g>
     </g>
     <g id="text_14">
      <!-- 1.5 -->
      <g transform="translate(48.91625 262.51125)scale(0.12 -0.12)">
       <use xlink:href="#BitstreamVeraSans-Roman-31"/>
       <use x="63.623046875" xlink:href="#BitstreamVeraSans-Roman-2e"/>
       <use x="95.41015625" xlink:href="#BitstreamVeraSans-Roman-35"/>
      </g>
     </g>
    </g>
    <g id="ytick_5">
     <g id="line2d_32">
      <g>
       <use style="stroke:#000000;stroke-width:0.5;" x="72.0" xlink:href="#m908552e75a" y="216.0"/>
      </g>
     </g>
     <g id="line2d_33">
      <g>
       <use style="stroke:#000000;stroke-width:0.5;" x="518.4" xlink:href="#m03e9cd635d" y="216.0"/>
      </g>
     </g>
     <g id="text_15">
      <!-- 2.0 -->
      <defs>
       <path d="M 19.1875 8.296875 
L 53.609375 8.296875 
L 53.609375 0 
L 7.328125 0 
L 7.328125 8.296875 
Q 12.9375 14.109375 22.625 23.890625 
Q 32.328125 33.6875 34.8125 36.53125 
Q 39.546875 41.84375 41.421875 45.53125 
Q 43.3125 49.21875 43.3125 52.78125 
Q 43.3125 58.59375 39.234375 62.25 
Q 35.15625 65.921875 28.609375 65.921875 
Q 23.96875 65.921875 18.8125 64.3125 
Q 13.671875 62.703125 7.8125 59.421875 
L 7.8125 69.390625 
Q 13.765625 71.78125 18.9375 73 
Q 24.125 74.21875 28.421875 74.21875 
Q 39.75 74.21875 46.484375 68.546875 
Q 53.21875 62.890625 53.21875 53.421875 
Q 53.21875 48.921875 51.53125 44.890625 
Q 49.859375 40.875 45.40625 35.40625 
Q 44.1875 33.984375 37.640625 27.21875 
Q 31.109375 20.453125 19.1875 8.296875 
" id="BitstreamVeraSans-Roman-32"/>
      </defs>
      <g transform="translate(48.91625 219.31125)scale(0.12 -0.12)">
       <use xlink:href="#BitstreamVeraSans-Roman-32"/>
       <use x="63.623046875" xlink:href="#BitstreamVeraSans-Roman-2e"/>
       <use x="95.41015625" xlink:href="#BitstreamVeraSans-Roman-30"/>
      </g>
     </g>
    </g>
    <g id="ytick_6">
     <g id="line2d_34">
      <g>
       <use style="stroke:#000000;stroke-width:0.5;" x="72.0" xlink:href="#m908552e75a" y="172.8"/>
      </g>
     </g>
     <g id="line2d_35">
      <g>
       <use style="stroke:#000000;stroke-width:0.5;" x="518.4" xlink:href="#m03e9cd635d" y="172.8"/>
      </g>
     </g>
     <g id="text_16">
      <!-- 2.5 -->
      <g transform="translate(48.91625 176.11125)scale(0.12 -0.12)">
       <use xlink:href="#BitstreamVeraSans-Roman-32"/>
       <use x="63.623046875" xlink:href="#BitstreamVeraSans-Roman-2e"/>
       <use x="95.41015625" xlink:href="#BitstreamVeraSans-Roman-35"/>
      </g>
     </g>
    </g>
    <g id="ytick_7">
     <g id="line2d_36">
      <g>
       <use style="stroke:#000000;stroke-width:0.5;" x="72.0" xlink:href="#m908552e75a" y="129.6"/>
      </g>
     </g>
     <g id="line2d_37">
      <g>
       <use style="stroke:#000000;stroke-width:0.5;" x="518.4" xlink:href="#m03e9cd635d" y="129.6"/>
      </g>
     </g>
     <g id="text_17">
      <!-- 3.0 -->
      <g transform="translate(48.91625 132.91125)scale(0.12 -0.12)">
       <use xlink:href="#BitstreamVeraSans-Roman-33"/>
       <use x="63.623046875" xlink:href="#BitstreamVeraSans-Roman-2e"/>
       <use x="95.41015625" xlink:href="#BitstreamVeraSans-Roman-30"/>
      </g>
     </g>
    </g>
    <g id="ytick_8">
     <g id="line2d_38">
      <g>
       <use style="stroke:#000000;stroke-width:0.5;" x="72.0" xlink:href="#m908552e75a" y="86.4"/>
      </g>
     </g>
     <g id="line2d_39">
      <g>
       <use style="stroke:#000000;stroke-width:0.5;" x="518.4" xlink:href="#m03e9cd635d" y="86.4"/>
      </g>
     </g>
     <g id="text_18">
      <!-- 3.5 -->
      <g transform="translate(48.91625 89.71125)scale(0.12 -0.12)">
       <use xlink:href="#BitstreamVeraSans-Roman-33"/>
       <use x="63.623046875" xlink:href="#BitstreamVeraSans-Roman-2e"/>
       <use x="95.41015625" xlink:href="#BitstreamVeraSans-Roman-35"/>
      </g>
     </g>
    </g>
    <g id="ytick_9">
     <g id="line2d_40">
      <g>
       <use style="stroke:#000000;stroke-width:0.5;" x="72.0" xlink:href="#m908552e75a" y="43.2"/>
      </g>
     </g>
     <g id="line2d_41">
      <g>
       <use style="stroke:#000000;stroke-width:0.5;" x="518.4" xlink:href="#m03e9cd635d" y="43.2"/>
      </g>
     </g>
     <g id="text_19">
      <!-- 4.0 -->
      <g transform="translate(48.91625 46.51125)scale(0.12 -0.12)">
       <use xlink:href="#BitstreamVeraSans-Roman-34"/>
       <use x="63.623046875" xlink:href="#BitstreamVeraSans-Roman-2e"/>
       <use x="95.41015625" xlink:href="#BitstreamVeraSans-Roman-30"/>
      </g>
     </g>
    </g>
    <g id="text_20">
     <!-- kcal/mol -->
     <defs>
      <path d="M 9.078125 75.984375 
L 18.109375 75.984375 
L 18.109375 31.109375 
L 44.921875 54.6875 
L 56.390625 54.6875 
L 27.390625 29.109375 
L 57.625 0 
L 45.90625 0 
L 18.109375 26.703125 
L 18.109375 0 
L 9.078125 0 
z
" id="BitstreamVeraSans-Roman-6b"/>
      <path d="M 48.78125 52.59375 
L 48.78125 44.1875 
Q 44.96875 46.296875 41.140625 47.34375 
Q 37.3125 48.390625 33.40625 48.390625 
Q 24.65625 48.390625 19.8125 42.84375 
Q 14.984375 37.3125 14.984375 27.296875 
Q 14.984375 17.28125 19.8125 11.734375 
Q 24.65625 6.203125 33.40625 6.203125 
Q 37.3125 6.203125 41.140625 7.25 
Q 44.96875 8.296875 48.78125 10.40625 
L 48.78125 2.09375 
Q 45.015625 0.34375 40.984375 -0.53125 
Q 36.96875 -1.421875 32.421875 -1.421875 
Q 20.0625 -1.421875 12.78125 6.34375 
Q 5.515625 14.109375 5.515625 27.296875 
Q 5.515625 40.671875 12.859375 48.328125 
Q 20.21875 56 33.015625 56 
Q 37.15625 56 41.109375 55.140625 
Q 45.0625 54.296875 48.78125 52.59375 
" id="BitstreamVeraSans-Roman-63"/>
      <path d="M 9.421875 75.984375 
L 18.40625 75.984375 
L 18.40625 0 
L 9.421875 0 
z
" id="BitstreamVeraSans-Roman-6c"/>
      <path d="M 25.390625 72.90625 
L 33.6875 72.90625 
L 8.296875 -9.28125 
L 0 -9.28125 
z
" id="BitstreamVeraSans-Roman-2f"/>
      <path d="M 30.609375 48.390625 
Q 23.390625 48.390625 19.1875 42.75 
Q 14.984375 37.109375 14.984375 27.296875 
Q 14.984375 17.484375 19.15625 11.84375 
Q 23.34375 6.203125 30.609375 6.203125 
Q 37.796875 6.203125 41.984375 11.859375 
Q 46.1875 17.53125 46.1875 27.296875 
Q 46.1875 37.015625 41.984375 42.703125 
Q 37.796875 48.390625 30.609375 48.390625 
M 30.609375 56 
Q 42.328125 56 49.015625 48.375 
Q 55.71875 40.765625 55.71875 27.296875 
Q 55.71875 13.875 49.015625 6.21875 
Q 42.328125 -1.421875 30.609375 -1.421875 
Q 18.84375 -1.421875 12.171875 6.21875 
Q 5.515625 13.875 5.515625 27.296875 
Q 5.515625 40.765625 12.171875 48.375 
Q 18.84375 56 30.609375 56 
" id="BitstreamVeraSans-Roman-6f"/>
      <path d="M 52 44.1875 
Q 55.375 50.25 60.0625 53.125 
Q 64.75 56 71.09375 56 
Q 79.640625 56 84.28125 50.015625 
Q 88.921875 44.046875 88.921875 33.015625 
L 88.921875 0 
L 79.890625 0 
L 79.890625 32.71875 
Q 79.890625 40.578125 77.09375 44.375 
Q 74.3125 48.1875 68.609375 48.1875 
Q 61.625 48.1875 57.5625 43.546875 
Q 53.515625 38.921875 53.515625 30.90625 
L 53.515625 0 
L 44.484375 0 
L 44.484375 32.71875 
Q 44.484375 40.625 41.703125 44.40625 
Q 38.921875 48.1875 33.109375 48.1875 
Q 26.21875 48.1875 22.15625 43.53125 
Q 18.109375 38.875 18.109375 30.90625 
L 18.109375 0 
L 9.078125 0 
L 9.078125 54.6875 
L 18.109375 54.6875 
L 18.109375 46.1875 
Q 21.1875 51.21875 25.484375 53.609375 
Q 29.78125 56 35.6875 56 
Q 41.65625 56 45.828125 52.96875 
Q 50 49.953125 52 44.1875 
" id="BitstreamVeraSans-Roman-6d"/>
      <path d="M 34.28125 27.484375 
Q 23.390625 27.484375 19.1875 25 
Q 14.984375 22.515625 14.984375 16.5 
Q 14.984375 11.71875 18.140625 8.90625 
Q 21.296875 6.109375 26.703125 6.109375 
Q 34.1875 6.109375 38.703125 11.40625 
Q 43.21875 16.703125 43.21875 25.484375 
L 43.21875 27.484375 
z
M 52.203125 31.203125 
L 52.203125 0 
L 43.21875 0 
L 43.21875 8.296875 
Q 40.140625 3.328125 35.546875 0.953125 
Q 30.953125 -1.421875 24.3125 -1.421875 
Q 15.921875 -1.421875 10.953125 3.296875 
Q 6 8.015625 6 15.921875 
Q 6 25.140625 12.171875 29.828125 
Q 18.359375 34.515625 30.609375 34.515625 
L 43.21875 34.515625 
L 43.21875 35.40625 
Q 43.21875 41.609375 39.140625 45 
Q 35.0625 48.390625 27.6875 48.390625 
Q 23 48.390625 18.546875 47.265625 
Q 14.109375 46.140625 10.015625 43.890625 
L 10.015625 52.203125 
Q 14.9375 54.109375 19.578125 55.046875 
Q 24.21875 56 28.609375 56 
Q 40.484375 56 46.34375 49.84375 
Q 52.203125 43.703125 52.203125 31.203125 
" id="BitstreamVeraSans-Roman-61"/>
     </defs>
     <g transform="translate(41.420625 241.3209375)rotate(-90.0)scale(0.12 -0.12)">
      <use xlink:href="#BitstreamVeraSans-Roman-6b"/>
      <use x="57.91015625" xlink:href="#BitstreamVeraSans-Roman-63"/>
      <use x="112.890625" xlink:href="#BitstreamVeraSans-Roman-61"/>
      <use x="174.169921875" xlink:href="#BitstreamVeraSans-Roman-6c"/>
      <use x="201.953125" xlink:href="#BitstreamVeraSans-Roman-2f"/>
      <use x="235.64453125" xlink:href="#BitstreamVeraSans-Roman-6d"/>
      <use x="333.056640625" xlink:href="#BitstreamVeraSans-Roman-6f"/>
      <use x="394.23828125" xlink:href="#BitstreamVeraSans-Roman-6c"/>
     </g>
    </g>
   </g>
   <g id="text_21">
    <!-- C3-C1-O1-H1 -->
    <defs>
     <path d="M 39.40625 66.21875 
Q 28.65625 66.21875 22.328125 58.203125 
Q 16.015625 50.203125 16.015625 36.375 
Q 16.015625 22.609375 22.328125 14.59375 
Q 28.65625 6.59375 39.40625 6.59375 
Q 50.140625 6.59375 56.421875 14.59375 
Q 62.703125 22.609375 62.703125 36.375 
Q 62.703125 50.203125 56.421875 58.203125 
Q 50.140625 66.21875 39.40625 66.21875 
M 39.40625 74.21875 
Q 54.734375 74.21875 63.90625 63.9375 
Q 73.09375 53.65625 73.09375 36.375 
Q 73.09375 19.140625 63.90625 8.859375 
Q 54.734375 -1.421875 39.40625 -1.421875 
Q 24.03125 -1.421875 14.8125 8.828125 
Q 5.609375 19.09375 5.609375 36.375 
Q 5.609375 53.65625 14.8125 63.9375 
Q 24.03125 74.21875 39.40625 74.21875 
" id="BitstreamVeraSans-Roman-4f"/>
     <path d="M 64.40625 67.28125 
L 64.40625 56.890625 
Q 59.421875 61.53125 53.78125 63.8125 
Q 48.140625 66.109375 41.796875 66.109375 
Q 29.296875 66.109375 22.65625 58.46875 
Q 16.015625 50.828125 16.015625 36.375 
Q 16.015625 21.96875 22.65625 14.328125 
Q 29.296875 6.6875 41.796875 6.6875 
Q 48.140625 6.6875 53.78125 8.984375 
Q 59.421875 11.28125 64.40625 15.921875 
L 64.40625 5.609375 
Q 59.234375 2.09375 53.4375 0.328125 
Q 47.65625 -1.421875 41.21875 -1.421875 
Q 24.65625 -1.421875 15.125 8.703125 
Q 5.609375 18.84375 5.609375 36.375 
Q 5.609375 53.953125 15.125 64.078125 
Q 24.65625 74.21875 41.21875 74.21875 
Q 47.75 74.21875 53.53125 72.484375 
Q 59.328125 70.75 64.40625 67.28125 
" id="BitstreamVeraSans-Roman-43"/>
     <path d="M 9.8125 72.90625 
L 19.671875 72.90625 
L 19.671875 43.015625 
L 55.515625 43.015625 
L 55.515625 72.90625 
L 65.375 72.90625 
L 65.375 0 
L 55.515625 0 
L 55.515625 34.71875 
L 19.671875 34.71875 
L 19.671875 0 
L 9.8125 0 
z
" id="BitstreamVeraSans-Roman-48"/>
     <path d="M 4.890625 31.390625 
L 31.203125 31.390625 
L 31.203125 23.390625 
L 4.890625 23.390625 
z
" id="BitstreamVeraSans-Roman-2d"/>
    </defs>
    <g transform="translate(247.94325 38.2)scale(0.144 -0.144)">
     <use xlink:href="#BitstreamVeraSans-Roman-43"/>
     <use x="69.82421875" xlink:href="#BitstreamVeraSans-Roman-33"/>
     <use x="133.447265625" xlink:href="#BitstreamVeraSans-Roman-2d"/>
     <use x="169.53125" xlink:href="#BitstreamVeraSans-Roman-43"/>
     <use x="239.35546875" xlink:href="#BitstreamVeraSans-Roman-31"/>
     <use x="302.978515625" xlink:href="#BitstreamVeraSans-Roman-2d"/>
     <use x="339.09375" xlink:href="#BitstreamVeraSans-Roman-4f"/>
     <use x="417.8046875" xlink:href="#BitstreamVeraSans-Roman-31"/>
     <use x="481.427734375" xlink:href="#BitstreamVeraSans-Roman-2d"/>
     <use x="517.51171875" xlink:href="#BitstreamVeraSans-Roman-48"/>
     <use x="592.70703125" xlink:href="#BitstreamVeraSans-Roman-31"/>
    </g>
   </g>
   <g id="legend_1">
    <g id="patch_7">
     <path d="M 406.15625 108.3125 
L 514.4 108.3125 
L 514.4 47.2 
L 406.15625 47.2 
z
" style="fill:#ffffff;stroke:#000000;stroke-linejoin:miter;"/>
    </g>
    <g id="line2d_42">
     <path d="M 411.75625 53.67875 
L 422.95625 53.67875 
" style="fill:none;stroke:#ff0000;stroke-linecap:square;"/>
    </g>
    <g id="line2d_43">
     <g>
      <use style="fill:#ff0000;stroke:#000000;stroke-width:0.5;" x="411.75625" xlink:href="#m0675b9dec7" y="53.67875"/>
      <use style="fill:#ff0000;stroke:#000000;stroke-width:0.5;" x="422.95625" xlink:href="#m0675b9dec7" y="53.67875"/>
     </g>
    </g>
    <g id="text_22">
     <!-- QM -->
     <defs>
      <path d="M 39.40625 66.21875 
Q 28.65625 66.21875 22.328125 58.203125 
Q 16.015625 50.203125 16.015625 36.375 
Q 16.015625 22.609375 22.328125 14.59375 
Q 28.65625 6.59375 39.40625 6.59375 
Q 50.140625 6.59375 56.421875 14.59375 
Q 62.703125 22.609375 62.703125 36.375 
Q 62.703125 50.203125 56.421875 58.203125 
Q 50.140625 66.21875 39.40625 66.21875 
M 53.21875 1.3125 
L 66.21875 -12.890625 
L 54.296875 -12.890625 
L 43.5 -1.21875 
Q 41.890625 -1.3125 41.03125 -1.359375 
Q 40.1875 -1.421875 39.40625 -1.421875 
Q 24.03125 -1.421875 14.8125 8.859375 
Q 5.609375 19.140625 5.609375 36.375 
Q 5.609375 53.65625 14.8125 63.9375 
Q 24.03125 74.21875 39.40625 74.21875 
Q 54.734375 74.21875 63.90625 63.9375 
Q 73.09375 53.65625 73.09375 36.375 
Q 73.09375 23.6875 67.984375 14.640625 
Q 62.890625 5.609375 53.21875 1.3125 
" id="BitstreamVeraSans-Roman-51"/>
      <path d="M 9.8125 72.90625 
L 24.515625 72.90625 
L 43.109375 23.296875 
L 61.8125 72.90625 
L 76.515625 72.90625 
L 76.515625 0 
L 66.890625 0 
L 66.890625 64.015625 
L 48.09375 14.015625 
L 38.1875 14.015625 
L 19.390625 64.015625 
L 19.390625 0 
L 9.8125 0 
z
" id="BitstreamVeraSans-Roman-4d"/>
     </defs>
     <g transform="translate(431.75625 56.47875)scale(0.08 -0.08)">
      <use xlink:href="#BitstreamVeraSans-Roman-51"/>
      <use x="78.7109375" xlink:href="#BitstreamVeraSans-Roman-4d"/>
     </g>
    </g>
    <g id="line2d_44">
     <path d="M 411.75625 65.42125 
L 422.95625 65.42125 
" style="fill:none;stroke:#0000ff;stroke-linecap:square;"/>
    </g>
    <g id="line2d_45">
     <g>
      <use style="fill:#0000ff;stroke:#000000;stroke-width:0.5;" x="411.75625" xlink:href="#mc87085f937" y="65.42125"/>
      <use style="fill:#0000ff;stroke:#000000;stroke-width:0.5;" x="422.95625" xlink:href="#mc87085f937" y="65.42125"/>
     </g>
    </g>
    <g id="text_23">
     <!-- MM Original -->
     <defs>
      <path d="M 45.40625 27.984375 
Q 45.40625 37.75 41.375 43.109375 
Q 37.359375 48.484375 30.078125 48.484375 
Q 22.859375 48.484375 18.828125 43.109375 
Q 14.796875 37.75 14.796875 27.984375 
Q 14.796875 18.265625 18.828125 12.890625 
Q 22.859375 7.515625 30.078125 7.515625 
Q 37.359375 7.515625 41.375 12.890625 
Q 45.40625 18.265625 45.40625 27.984375 
M 54.390625 6.78125 
Q 54.390625 -7.171875 48.1875 -13.984375 
Q 42 -20.796875 29.203125 -20.796875 
Q 24.46875 -20.796875 20.265625 -20.09375 
Q 16.0625 -19.390625 12.109375 -17.921875 
L 12.109375 -9.1875 
Q 16.0625 -11.328125 19.921875 -12.34375 
Q 23.78125 -13.375 27.78125 -13.375 
Q 36.625 -13.375 41.015625 -8.765625 
Q 45.40625 -4.15625 45.40625 5.171875 
L 45.40625 9.625 
Q 42.625 4.78125 38.28125 2.390625 
Q 33.9375 0 27.875 0 
Q 17.828125 0 11.671875 7.65625 
Q 5.515625 15.328125 5.515625 27.984375 
Q 5.515625 40.671875 11.671875 48.328125 
Q 17.828125 56 27.875 56 
Q 33.9375 56 38.28125 53.609375 
Q 42.625 51.21875 45.40625 46.390625 
L 45.40625 54.6875 
L 54.390625 54.6875 
z
" id="BitstreamVeraSans-Roman-67"/>
      <path id="BitstreamVeraSans-Roman-20"/>
      <path d="M 54.890625 33.015625 
L 54.890625 0 
L 45.90625 0 
L 45.90625 32.71875 
Q 45.90625 40.484375 42.875 44.328125 
Q 39.84375 48.1875 33.796875 48.1875 
Q 26.515625 48.1875 22.3125 43.546875 
Q 18.109375 38.921875 18.109375 30.90625 
L 18.109375 0 
L 9.078125 0 
L 9.078125 54.6875 
L 18.109375 54.6875 
L 18.109375 46.1875 
Q 21.34375 51.125 25.703125 53.5625 
Q 30.078125 56 35.796875 56 
Q 45.21875 56 50.046875 50.171875 
Q 54.890625 44.34375 54.890625 33.015625 
" id="BitstreamVeraSans-Roman-6e"/>
      <path d="M 41.109375 46.296875 
Q 39.59375 47.171875 37.8125 47.578125 
Q 36.03125 48 33.890625 48 
Q 26.265625 48 22.1875 43.046875 
Q 18.109375 38.09375 18.109375 28.8125 
L 18.109375 0 
L 9.078125 0 
L 9.078125 54.6875 
L 18.109375 54.6875 
L 18.109375 46.1875 
Q 20.953125 51.171875 25.484375 53.578125 
Q 30.03125 56 36.53125 56 
Q 37.453125 56 38.578125 55.875 
Q 39.703125 55.765625 41.0625 55.515625 
z
" id="BitstreamVeraSans-Roman-72"/>
     </defs>
     <g transform="translate(431.75625 68.22125)scale(0.08 -0.08)">
      <use xlink:href="#BitstreamVeraSans-Roman-4d"/>
      <use x="86.279296875" xlink:href="#BitstreamVeraSans-Roman-4d"/>
      <use x="172.55859375" xlink:href="#BitstreamVeraSans-Roman-20"/>
      <use x="204.345703125" xlink:href="#BitstreamVeraSans-Roman-4f"/>
      <use x="283.056640625" xlink:href="#BitstreamVeraSans-Roman-72"/>
      <use x="324.169921875" xlink:href="#BitstreamVeraSans-Roman-69"/>
      <use x="351.953125" xlink:href="#BitstreamVeraSans-Roman-67"/>
      <use x="415.4296875" xlink:href="#BitstreamVeraSans-Roman-69"/>
      <use x="443.212890625" xlink:href="#BitstreamVeraSans-Roman-6e"/>
      <use x="506.591796875" xlink:href="#BitstreamVeraSans-Roman-61"/>
      <use x="567.87109375" xlink:href="#BitstreamVeraSans-Roman-6c"/>
     </g>
    </g>
    <g id="line2d_46">
     <path d="M 411.75625 77.16375 
L 422.95625 77.16375 
" style="fill:none;stroke:#000000;stroke-linecap:square;"/>
    </g>
    <g id="line2d_47">
     <g>
      <use style="stroke:#000000;stroke-width:0.5;" x="411.75625" xlink:href="#mf8e9960e23" y="77.16375"/>
      <use style="stroke:#000000;stroke-width:0.5;" x="422.95625" xlink:href="#mf8e9960e23" y="77.16375"/>
     </g>
    </g>
    <g id="text_24">
     <!-- MM With phi zeroed -->
     <defs>
      <path d="M 18.3125 70.21875 
L 18.3125 54.6875 
L 36.8125 54.6875 
L 36.8125 47.703125 
L 18.3125 47.703125 
L 18.3125 18.015625 
Q 18.3125 11.328125 20.140625 9.421875 
Q 21.96875 7.515625 27.59375 7.515625 
L 36.8125 7.515625 
L 36.8125 0 
L 27.59375 0 
Q 17.1875 0 13.234375 3.875 
Q 9.28125 7.765625 9.28125 18.015625 
L 9.28125 47.703125 
L 2.6875 47.703125 
L 2.6875 54.6875 
L 9.28125 54.6875 
L 9.28125 70.21875 
z
" id="BitstreamVeraSans-Roman-74"/>
      <path d="M 45.40625 46.390625 
L 45.40625 75.984375 
L 54.390625 75.984375 
L 54.390625 0 
L 45.40625 0 
L 45.40625 8.203125 
Q 42.578125 3.328125 38.25 0.953125 
Q 33.9375 -1.421875 27.875 -1.421875 
Q 17.96875 -1.421875 11.734375 6.484375 
Q 5.515625 14.40625 5.515625 27.296875 
Q 5.515625 40.1875 11.734375 48.09375 
Q 17.96875 56 27.875 56 
Q 33.9375 56 38.25 53.625 
Q 42.578125 51.265625 45.40625 46.390625 
M 14.796875 27.296875 
Q 14.796875 17.390625 18.875 11.75 
Q 22.953125 6.109375 30.078125 6.109375 
Q 37.203125 6.109375 41.296875 11.75 
Q 45.40625 17.390625 45.40625 27.296875 
Q 45.40625 37.203125 41.296875 42.84375 
Q 37.203125 48.484375 30.078125 48.484375 
Q 22.953125 48.484375 18.875 42.84375 
Q 14.796875 37.203125 14.796875 27.296875 
" id="BitstreamVeraSans-Roman-64"/>
      <path d="M 56.203125 29.59375 
L 56.203125 25.203125 
L 14.890625 25.203125 
Q 15.484375 15.921875 20.484375 11.0625 
Q 25.484375 6.203125 34.421875 6.203125 
Q 39.59375 6.203125 44.453125 7.46875 
Q 49.3125 8.734375 54.109375 11.28125 
L 54.109375 2.78125 
Q 49.265625 0.734375 44.1875 -0.34375 
Q 39.109375 -1.421875 33.890625 -1.421875 
Q 20.796875 -1.421875 13.15625 6.1875 
Q 5.515625 13.8125 5.515625 26.8125 
Q 5.515625 40.234375 12.765625 48.109375 
Q 20.015625 56 32.328125 56 
Q 43.359375 56 49.78125 48.890625 
Q 56.203125 41.796875 56.203125 29.59375 
M 47.21875 32.234375 
Q 47.125 39.59375 43.09375 43.984375 
Q 39.0625 48.390625 32.421875 48.390625 
Q 24.90625 48.390625 20.390625 44.140625 
Q 15.875 39.890625 15.1875 32.171875 
z
" id="BitstreamVeraSans-Roman-65"/>
      <path d="M 3.328125 72.90625 
L 13.28125 72.90625 
L 28.609375 11.28125 
L 43.890625 72.90625 
L 54.984375 72.90625 
L 70.3125 11.28125 
L 85.59375 72.90625 
L 95.609375 72.90625 
L 77.296875 0 
L 64.890625 0 
L 49.515625 63.28125 
L 33.984375 0 
L 21.578125 0 
z
" id="BitstreamVeraSans-Roman-57"/>
      <path d="M 5.515625 54.6875 
L 48.1875 54.6875 
L 48.1875 46.484375 
L 14.40625 7.171875 
L 48.1875 7.171875 
L 48.1875 0 
L 4.296875 0 
L 4.296875 8.203125 
L 38.09375 47.515625 
L 5.515625 47.515625 
z
" id="BitstreamVeraSans-Roman-7a"/>
      <path d="M 18.109375 8.203125 
L 18.109375 -20.796875 
L 9.078125 -20.796875 
L 9.078125 54.6875 
L 18.109375 54.6875 
L 18.109375 46.390625 
Q 20.953125 51.265625 25.265625 53.625 
Q 29.59375 56 35.59375 56 
Q 45.5625 56 51.78125 48.09375 
Q 58.015625 40.1875 58.015625 27.296875 
Q 58.015625 14.40625 51.78125 6.484375 
Q 45.5625 -1.421875 35.59375 -1.421875 
Q 29.59375 -1.421875 25.265625 0.953125 
Q 20.953125 3.328125 18.109375 8.203125 
M 48.6875 27.296875 
Q 48.6875 37.203125 44.609375 42.84375 
Q 40.53125 48.484375 33.40625 48.484375 
Q 26.265625 48.484375 22.1875 42.84375 
Q 18.109375 37.203125 18.109375 27.296875 
Q 18.109375 17.390625 22.1875 11.75 
Q 26.265625 6.109375 33.40625 6.109375 
Q 40.53125 6.109375 44.609375 11.75 
Q 48.6875 17.390625 48.6875 27.296875 
" id="BitstreamVeraSans-Roman-70"/>
     </defs>
     <g transform="translate(431.75625 79.96375)scale(0.08 -0.08)">
      <use xlink:href="#BitstreamVeraSans-Roman-4d"/>
      <use x="86.279296875" xlink:href="#BitstreamVeraSans-Roman-4d"/>
      <use x="172.55859375" xlink:href="#BitstreamVeraSans-Roman-20"/>
      <use x="204.345703125" xlink:href="#BitstreamVeraSans-Roman-57"/>
      <use x="303.19140625" xlink:href="#BitstreamVeraSans-Roman-69"/>
      <use x="330.974609375" xlink:href="#BitstreamVeraSans-Roman-74"/>
      <use x="370.18359375" xlink:href="#BitstreamVeraSans-Roman-68"/>
      <use x="433.5625" xlink:href="#BitstreamVeraSans-Roman-20"/>
      <use x="465.349609375" xlink:href="#BitstreamVeraSans-Roman-70"/>
      <use x="528.826171875" xlink:href="#BitstreamVeraSans-Roman-68"/>
      <use x="592.205078125" xlink:href="#BitstreamVeraSans-Roman-69"/>
      <use x="619.98828125" xlink:href="#BitstreamVeraSans-Roman-20"/>
      <use x="651.775390625" xlink:href="#BitstreamVeraSans-Roman-7a"/>
      <use x="704.265625" xlink:href="#BitstreamVeraSans-Roman-65"/>
      <use x="765.7890625" xlink:href="#BitstreamVeraSans-Roman-72"/>
      <use x="806.87109375" xlink:href="#BitstreamVeraSans-Roman-6f"/>
      <use x="868.052734375" xlink:href="#BitstreamVeraSans-Roman-65"/>
      <use x="929.576171875" xlink:href="#BitstreamVeraSans-Roman-64"/>
     </g>
    </g>
    <g id="line2d_48">
     <path d="M 411.75625 88.90625 
L 422.95625 88.90625 
" style="fill:none;stroke:#ff00ff;stroke-linecap:square;"/>
    </g>
    <g id="line2d_49">
     <g>
      <use style="fill:#ff00ff;stroke:#ff00ff;stroke-width:0.5;" x="411.75625" xlink:href="#me3d8541783" y="88.90625"/>
      <use style="fill:#ff00ff;stroke:#ff00ff;stroke-width:0.5;" x="422.95625" xlink:href="#me3d8541783" y="88.90625"/>
     </g>
    </g>
    <g id="text_25">
     <!-- QM-MM target -->
     <g transform="translate(431.75625 91.70625)scale(0.08 -0.08)">
      <use xlink:href="#BitstreamVeraSans-Roman-51"/>
      <use x="78.7109375" xlink:href="#BitstreamVeraSans-Roman-4d"/>
      <use x="164.990234375" xlink:href="#BitstreamVeraSans-Roman-2d"/>
      <use x="201.07421875" xlink:href="#BitstreamVeraSans-Roman-4d"/>
      <use x="287.353515625" xlink:href="#BitstreamVeraSans-Roman-4d"/>
      <use x="373.6328125" xlink:href="#BitstreamVeraSans-Roman-20"/>
      <use x="405.419921875" xlink:href="#BitstreamVeraSans-Roman-74"/>
      <use x="444.62890625" xlink:href="#BitstreamVeraSans-Roman-61"/>
      <use x="505.908203125" xlink:href="#BitstreamVeraSans-Roman-72"/>
      <use x="547.005859375" xlink:href="#BitstreamVeraSans-Roman-67"/>
      <use x="610.482421875" xlink:href="#BitstreamVeraSans-Roman-65"/>
      <use x="672.005859375" xlink:href="#BitstreamVeraSans-Roman-74"/>
     </g>
    </g>
    <g id="line2d_50">
     <path d="M 411.75625 100.64875 
L 422.95625 100.64875 
" style="fill:none;stroke:#008000;stroke-linecap:square;"/>
    </g>
    <g id="line2d_51">
     <g>
      <use style="fill:#008000;stroke:#000000;stroke-width:0.5;" x="411.75625" xlink:href="#m291c9e4365" y="100.64875"/>
      <use style="fill:#008000;stroke:#000000;stroke-width:0.5;" x="422.95625" xlink:href="#m291c9e4365" y="100.64875"/>
     </g>
    </g>
    <g id="text_26">
     <!-- MM Fitted -->
     <defs>
      <path d="M 9.8125 72.90625 
L 51.703125 72.90625 
L 51.703125 64.59375 
L 19.671875 64.59375 
L 19.671875 43.109375 
L 48.578125 43.109375 
L 48.578125 34.8125 
L 19.671875 34.8125 
L 19.671875 0 
L 9.8125 0 
z
" id="BitstreamVeraSans-Roman-46"/>
     </defs>
     <g transform="translate(431.75625 103.44875)scale(0.08 -0.08)">
      <use xlink:href="#BitstreamVeraSans-Roman-4d"/>
      <use x="86.279296875" xlink:href="#BitstreamVeraSans-Roman-4d"/>
      <use x="172.55859375" xlink:href="#BitstreamVeraSans-Roman-20"/>
      <use x="204.345703125" xlink:href="#BitstreamVeraSans-Roman-46"/>
      <use x="261.755859375" xlink:href="#BitstreamVeraSans-Roman-69"/>
      <use x="289.5390625" xlink:href="#BitstreamVeraSans-Roman-74"/>
      <use x="328.748046875" xlink:href="#BitstreamVeraSans-Roman-74"/>
      <use x="367.95703125" xlink:href="#BitstreamVeraSans-Roman-65"/>
      <use x="429.48046875" xlink:href="#BitstreamVeraSans-Roman-64"/>
     </g>
    </g>
   </g>
  </g>
 </g>
 <defs>
  <clipPath id="pb054fee4ec">
   <rect height="345.6" width="446.4" x="72.0" y="43.2"/>
  </clipPath>
 </defs>
</svg>
