<?xml version="1.0" encoding="utf-8" standalone="no"?>
<!DOCTYPE svg PUBLIC "-//W3C//DTD SVG 1.1//EN"
  "http://www.w3.org/Graphics/SVG/1.1/DTD/svg11.dtd">
<!-- Created with matplotlib (http://matplotlib.org/) -->
<svg height="432pt" version="1.1" viewBox="0 0 576 432" width="576pt" xmlns="http://www.w3.org/2000/svg" xmlns:xlink="http://www.w3.org/1999/xlink">
 <defs>
  <style type="text/css">
*{stroke-linecap:butt;stroke-linejoin:round;stroke-miterlimit:100000;}
  </style>
 </defs>
 <g id="figure_1">
  <g id="patch_1">
   <path d="M 0 432 
L 576 432 
L 576 0 
L 0 0 
z
" style="fill:#ffffff;"/>
  </g>
  <g id="axes_1">
   <g id="patch_2">
    <path d="M 72 388.8 
L 518.4 388.8 
L 518.4 43.2 
L 72 43.2 
z
" style="fill:#ffffff;"/>
   </g>
   <g id="line2d_1">
    <path clip-path="url(#pd407bd31ce)" d="M 72.000911 388.8 
L 84.399952 378.82679 
L 96.79995 350.434486 
L 109.199971 309.162531 
L 121.59995 264.77888 
L 133.99996 230.112407 
L 146.400005 216.695043 
L 158.800028 228.389627 
L 171.199986 258.32628 
L 183.600006 293.239372 
L 196.000026 321.920528 
L 208.400016 338.5808 
L 220.800036 338.953598 
L 233.20001 319.104657 
L 245.600013 278.068235 
L 258.000054 220.45305 
L 270.400008 156.74265 
L 282.800008 103.032504 
L 295.199099 81.522821 
L 307.600005 104.350717 
L 320.00004 158.112328 
L 332.400051 221.584131 
L 344.800006 278.565619 
L 357.200013 318.82762 
L 369.600042 337.766651 
L 382.000017 336.630122 
L 394.399988 319.632329 
L 406.800034 290.925241 
L 419.199993 256.365516 
L 431.600025 227.106852 
L 443.999972 216.186151 
L 456.4 230.274551 
L 468.799994 265.138664 
L 481.199958 309.332018 
L 493.599972 350.358429 
L 505.999965 378.710633 
" style="fill:none;stroke:#ff0000;stroke-linecap:square;"/>
    <defs>
     <path d="M 0 3 
C 0.795609 3 1.55874 2.683901 2.12132 2.12132 
C 2.683901 1.55874 3 0.795609 3 0 
C 3 -0.795609 2.683901 -1.55874 2.12132 -2.12132 
C 1.55874 -2.683901 0.795609 -3 0 -3 
C -0.795609 -3 -1.55874 -2.683901 -2.12132 -2.12132 
C -2.683901 -1.55874 -3 -0.795609 -3 0 
C -3 0.795609 -2.683901 1.55874 -2.12132 2.12132 
C -1.55874 2.683901 -0.795609 3 0 3 
z
" id="m2823dc95d9" style="stroke:#000000;stroke-width:0.5;"/>
    </defs>
    <g clip-path="url(#pd407bd31ce)">
     <use style="fill:#ff0000;stroke:#000000;stroke-width:0.5;" x="72.0009113029" xlink:href="#m2823dc95d9" y="388.8"/>
     <use style="fill:#ff0000;stroke:#000000;stroke-width:0.5;" x="84.399951929" xlink:href="#m2823dc95d9" y="378.826789702"/>
     <use style="fill:#ff0000;stroke:#000000;stroke-width:0.5;" x="96.7999498753" xlink:href="#m2823dc95d9" y="350.434486406"/>
     <use style="fill:#ff0000;stroke:#000000;stroke-width:0.5;" x="109.199971304" xlink:href="#m2823dc95d9" y="309.162530557"/>
     <use style="fill:#ff0000;stroke:#000000;stroke-width:0.5;" x="121.599950401" xlink:href="#m2823dc95d9" y="264.778879732"/>
     <use style="fill:#ff0000;stroke:#000000;stroke-width:0.5;" x="133.999960394" xlink:href="#m2823dc95d9" y="230.112407081"/>
     <use style="fill:#ff0000;stroke:#000000;stroke-width:0.5;" x="146.400005201" xlink:href="#m2823dc95d9" y="216.695043096"/>
     <use style="fill:#ff0000;stroke:#000000;stroke-width:0.5;" x="158.800027781" xlink:href="#m2823dc95d9" y="228.389626698"/>
     <use style="fill:#ff0000;stroke:#000000;stroke-width:0.5;" x="171.199985718" xlink:href="#m2823dc95d9" y="258.326279533"/>
     <use style="fill:#ff0000;stroke:#000000;stroke-width:0.5;" x="183.600005757" xlink:href="#m2823dc95d9" y="293.239371977"/>
     <use style="fill:#ff0000;stroke:#000000;stroke-width:0.5;" x="196.000025508" xlink:href="#m2823dc95d9" y="321.92052771"/>
     <use style="fill:#ff0000;stroke:#000000;stroke-width:0.5;" x="208.400015597" xlink:href="#m2823dc95d9" y="338.580799706"/>
     <use style="fill:#ff0000;stroke:#000000;stroke-width:0.5;" x="220.800036179" xlink:href="#m2823dc95d9" y="338.953598267"/>
     <use style="fill:#ff0000;stroke:#000000;stroke-width:0.5;" x="233.200010098" xlink:href="#m2823dc95d9" y="319.104657009"/>
     <use style="fill:#ff0000;stroke:#000000;stroke-width:0.5;" x="245.600013352" xlink:href="#m2823dc95d9" y="278.068234609"/>
     <use style="fill:#ff0000;stroke:#000000;stroke-width:0.5;" x="258.000053614" xlink:href="#m2823dc95d9" y="220.45304982"/>
     <use style="fill:#ff0000;stroke:#000000;stroke-width:0.5;" x="270.400008276" xlink:href="#m2823dc95d9" y="156.742649972"/>
     <use style="fill:#ff0000;stroke:#000000;stroke-width:0.5;" x="282.800008189" xlink:href="#m2823dc95d9" y="103.032503728"/>
     <use style="fill:#ff0000;stroke:#000000;stroke-width:0.5;" x="295.199098848" xlink:href="#m2823dc95d9" y="81.522820511"/>
     <use style="fill:#ff0000;stroke:#000000;stroke-width:0.5;" x="307.600004753" xlink:href="#m2823dc95d9" y="104.350717347"/>
     <use style="fill:#ff0000;stroke:#000000;stroke-width:0.5;" x="320.000039803" xlink:href="#m2823dc95d9" y="158.112327764"/>
     <use style="fill:#ff0000;stroke:#000000;stroke-width:0.5;" x="332.400051327" xlink:href="#m2823dc95d9" y="221.584130832"/>
     <use style="fill:#ff0000;stroke:#000000;stroke-width:0.5;" x="344.800005745" xlink:href="#m2823dc95d9" y="278.565618772"/>
     <use style="fill:#ff0000;stroke:#000000;stroke-width:0.5;" x="357.200013196" xlink:href="#m2823dc95d9" y="318.827620149"/>
     <use style="fill:#ff0000;stroke:#000000;stroke-width:0.5;" x="369.600042464" xlink:href="#m2823dc95d9" y="337.766651473"/>
     <use style="fill:#ff0000;stroke:#000000;stroke-width:0.5;" x="382.000017462" xlink:href="#m2823dc95d9" y="336.630122205"/>
     <use style="fill:#ff0000;stroke:#000000;stroke-width:0.5;" x="394.399988074" xlink:href="#m2823dc95d9" y="319.63232877"/>
     <use style="fill:#ff0000;stroke:#000000;stroke-width:0.5;" x="406.800033842" xlink:href="#m2823dc95d9" y="290.925240863"/>
     <use style="fill:#ff0000;stroke:#000000;stroke-width:0.5;" x="419.199992666" xlink:href="#m2823dc95d9" y="256.36551609"/>
     <use style="fill:#ff0000;stroke:#000000;stroke-width:0.5;" x="431.600025341" xlink:href="#m2823dc95d9" y="227.106851652"/>
     <use style="fill:#ff0000;stroke:#000000;stroke-width:0.5;" x="443.999972096" xlink:href="#m2823dc95d9" y="216.18615084"/>
     <use style="fill:#ff0000;stroke:#000000;stroke-width:0.5;" x="456.400000312" xlink:href="#m2823dc95d9" y="230.274551161"/>
     <use style="fill:#ff0000;stroke:#000000;stroke-width:0.5;" x="468.799994103" xlink:href="#m2823dc95d9" y="265.138664172"/>
     <use style="fill:#ff0000;stroke:#000000;stroke-width:0.5;" x="481.199958102" xlink:href="#m2823dc95d9" y="309.332017948"/>
     <use style="fill:#ff0000;stroke:#000000;stroke-width:0.5;" x="493.599972135" xlink:href="#m2823dc95d9" y="350.358429442"/>
     <use style="fill:#ff0000;stroke:#000000;stroke-width:0.5;" x="505.999965118" xlink:href="#m2823dc95d9" y="378.710633129"/>
    </g>
   </g>
   <g id="line2d_2">
    <path clip-path="url(#pd407bd31ce)" d="M 72.000911 388.8 
L 84.399952 378.658999 
L 96.79995 349.422166 
L 109.199971 306.825473 
L 121.59995 259.744814 
L 133.99996 221.232363 
L 146.400005 204.597283 
L 158.800028 216.62189 
L 171.199986 251.381526 
L 183.600006 293.158133 
L 196.000026 328.019682 
L 208.400016 347.800082 
L 220.800036 349.971152 
L 233.20001 333.937176 
L 245.600013 299.947044 
L 258.000054 251.879484 
L 270.400008 198.255222 
L 282.800008 153.143038 
L 295.199099 133.243147 
L 307.600005 150.784115 
L 320.00004 195.663749 
L 332.400051 249.236916 
L 344.800006 297.87428 
L 357.200013 332.646342 
L 369.600042 349.682362 
L 382.000017 347.920686 
L 394.399988 328.365025 
L 406.800034 293.856263 
L 419.199993 252.071623 
L 431.600025 217.248875 
L 443.999972 204.264194 
L 456.4 220.046961 
L 468.799994 257.965386 
L 481.199958 304.741271 
L 493.599972 347.966906 
L 505.999965 377.886305 
" style="fill:none;stroke:#0000ff;stroke-linecap:square;"/>
    <defs>
     <path d="M 0 3 
C 0.795609 3 1.55874 2.683901 2.12132 2.12132 
C 2.683901 1.55874 3 0.795609 3 0 
C 3 -0.795609 2.683901 -1.55874 2.12132 -2.12132 
C 1.55874 -2.683901 0.795609 -3 0 -3 
C -0.795609 -3 -1.55874 -2.683901 -2.12132 -2.12132 
C -2.683901 -1.55874 -3 -0.795609 -3 0 
C -3 0.795609 -2.683901 1.55874 -2.12132 2.12132 
C -1.55874 2.683901 -0.795609 3 0 3 
z
" id="m416c2c60e4" style="stroke:#000000;stroke-width:0.5;"/>
    </defs>
    <g clip-path="url(#pd407bd31ce)">
     <use style="fill:#0000ff;stroke:#000000;stroke-width:0.5;" x="72.0009113029" xlink:href="#m416c2c60e4" y="388.8"/>
     <use style="fill:#0000ff;stroke:#000000;stroke-width:0.5;" x="84.399951929" xlink:href="#m416c2c60e4" y="378.658998896"/>
     <use style="fill:#0000ff;stroke:#000000;stroke-width:0.5;" x="96.7999498753" xlink:href="#m416c2c60e4" y="349.422166155"/>
     <use style="fill:#0000ff;stroke:#000000;stroke-width:0.5;" x="109.199971304" xlink:href="#m416c2c60e4" y="306.825472641"/>
     <use style="fill:#0000ff;stroke:#000000;stroke-width:0.5;" x="121.599950401" xlink:href="#m416c2c60e4" y="259.744813898"/>
     <use style="fill:#0000ff;stroke:#000000;stroke-width:0.5;" x="133.999960394" xlink:href="#m416c2c60e4" y="221.2323632"/>
     <use style="fill:#0000ff;stroke:#000000;stroke-width:0.5;" x="146.400005201" xlink:href="#m416c2c60e4" y="204.59728254"/>
     <use style="fill:#0000ff;stroke:#000000;stroke-width:0.5;" x="158.800027781" xlink:href="#m416c2c60e4" y="216.621889945"/>
     <use style="fill:#0000ff;stroke:#000000;stroke-width:0.5;" x="171.199985718" xlink:href="#m416c2c60e4" y="251.381525792"/>
     <use style="fill:#0000ff;stroke:#000000;stroke-width:0.5;" x="183.600005757" xlink:href="#m416c2c60e4" y="293.158133333"/>
     <use style="fill:#0000ff;stroke:#000000;stroke-width:0.5;" x="196.000025508" xlink:href="#m416c2c60e4" y="328.019682208"/>
     <use style="fill:#0000ff;stroke:#000000;stroke-width:0.5;" x="208.400015597" xlink:href="#m416c2c60e4" y="347.800082011"/>
     <use style="fill:#0000ff;stroke:#000000;stroke-width:0.5;" x="220.800036179" xlink:href="#m416c2c60e4" y="349.971151984"/>
     <use style="fill:#0000ff;stroke:#000000;stroke-width:0.5;" x="233.200010098" xlink:href="#m416c2c60e4" y="333.937175534"/>
     <use style="fill:#0000ff;stroke:#000000;stroke-width:0.5;" x="245.600013352" xlink:href="#m416c2c60e4" y="299.947044068"/>
     <use style="fill:#0000ff;stroke:#000000;stroke-width:0.5;" x="258.000053614" xlink:href="#m416c2c60e4" y="251.879483959"/>
     <use style="fill:#0000ff;stroke:#000000;stroke-width:0.5;" x="270.400008276" xlink:href="#m416c2c60e4" y="198.255222215"/>
     <use style="fill:#0000ff;stroke:#000000;stroke-width:0.5;" x="282.800008189" xlink:href="#m416c2c60e4" y="153.14303793"/>
     <use style="fill:#0000ff;stroke:#000000;stroke-width:0.5;" x="295.199098848" xlink:href="#m416c2c60e4" y="133.243147393"/>
     <use style="fill:#0000ff;stroke:#000000;stroke-width:0.5;" x="307.600004753" xlink:href="#m416c2c60e4" y="150.784115134"/>
     <use style="fill:#0000ff;stroke:#000000;stroke-width:0.5;" x="320.000039803" xlink:href="#m416c2c60e4" y="195.663748567"/>
     <use style="fill:#0000ff;stroke:#000000;stroke-width:0.5;" x="332.400051327" xlink:href="#m416c2c60e4" y="249.236916069"/>
     <use style="fill:#0000ff;stroke:#000000;stroke-width:0.5;" x="344.800005745" xlink:href="#m416c2c60e4" y="297.87427984"/>
     <use style="fill:#0000ff;stroke:#000000;stroke-width:0.5;" x="357.200013196" xlink:href="#m416c2c60e4" y="332.646342139"/>
     <use style="fill:#0000ff;stroke:#000000;stroke-width:0.5;" x="369.600042464" xlink:href="#m416c2c60e4" y="349.682361665"/>
     <use style="fill:#0000ff;stroke:#000000;stroke-width:0.5;" x="382.000017462" xlink:href="#m416c2c60e4" y="347.92068551"/>
     <use style="fill:#0000ff;stroke:#000000;stroke-width:0.5;" x="394.399988074" xlink:href="#m416c2c60e4" y="328.365025497"/>
     <use style="fill:#0000ff;stroke:#000000;stroke-width:0.5;" x="406.800033842" xlink:href="#m416c2c60e4" y="293.856262988"/>
     <use style="fill:#0000ff;stroke:#000000;stroke-width:0.5;" x="419.199992666" xlink:href="#m416c2c60e4" y="252.071622918"/>
     <use style="fill:#0000ff;stroke:#000000;stroke-width:0.5;" x="431.600025341" xlink:href="#m416c2c60e4" y="217.248875379"/>
     <use style="fill:#0000ff;stroke:#000000;stroke-width:0.5;" x="443.999972096" xlink:href="#m416c2c60e4" y="204.264193539"/>
     <use style="fill:#0000ff;stroke:#000000;stroke-width:0.5;" x="456.400000312" xlink:href="#m416c2c60e4" y="220.046961367"/>
     <use style="fill:#0000ff;stroke:#000000;stroke-width:0.5;" x="468.799994103" xlink:href="#m416c2c60e4" y="257.96538634"/>
     <use style="fill:#0000ff;stroke:#000000;stroke-width:0.5;" x="481.199958102" xlink:href="#m416c2c60e4" y="304.74127074"/>
     <use style="fill:#0000ff;stroke:#000000;stroke-width:0.5;" x="493.599972135" xlink:href="#m416c2c60e4" y="347.966905973"/>
     <use style="fill:#0000ff;stroke:#000000;stroke-width:0.5;" x="505.999965118" xlink:href="#m416c2c60e4" y="377.886305403"/>
    </g>
   </g>
   <g id="line2d_3">
    <path clip-path="url(#pd407bd31ce)" d="M 72.000911 388.8 
L 84.399952 382.043189 
L 96.79995 362.345579 
L 109.199971 333.622029 
L 121.59995 301.6508 
L 133.99996 275.200754 
L 146.400005 263.192831 
L 158.800028 270.500607 
L 171.199986 293.363494 
L 183.600006 320.361056 
L 196.000026 341.365761 
L 208.400016 351.437347 
L 220.800036 350.081654 
L 233.20001 337.275686 
L 245.600013 312.520254 
L 258.000054 277.854596 
L 270.400008 239.077099 
L 282.800008 206.38402 
L 295.199099 191.553949 
L 307.600005 203.838684 
L 320.00004 236.21057 
L 332.400051 274.84477 
L 344.800006 310.174627 
L 357.200013 335.831223 
L 369.600042 349.797276 
L 382.000017 351.723889 
L 394.399988 342.051688 
L 406.800034 321.451989 
L 419.199993 294.479442 
L 431.600025 271.386421 
L 443.999972 262.853639 
L 456.4 273.810226 
L 468.799994 299.621562 
L 481.199958 331.36112 
L 493.599972 360.827748 
L 505.999965 381.265198 
" style="fill:none;stroke:#000000;stroke-linecap:square;"/>
    <defs>
     <path d="M -3 3 
L 3 -3 
M -3 -3 
L 3 3 
" id="m4ad95aca17" style="stroke:#000000;stroke-width:0.5;"/>
    </defs>
    <g clip-path="url(#pd407bd31ce)">
     <use style="stroke:#000000;stroke-width:0.5;" x="72.0009113029" xlink:href="#m4ad95aca17" y="388.8"/>
     <use style="stroke:#000000;stroke-width:0.5;" x="84.399951929" xlink:href="#m4ad95aca17" y="382.043188604"/>
     <use style="stroke:#000000;stroke-width:0.5;" x="96.7999498753" xlink:href="#m4ad95aca17" y="362.345578612"/>
     <use style="stroke:#000000;stroke-width:0.5;" x="109.199971304" xlink:href="#m4ad95aca17" y="333.622029223"/>
     <use style="stroke:#000000;stroke-width:0.5;" x="121.599950401" xlink:href="#m4ad95aca17" y="301.650799589"/>
     <use style="stroke:#000000;stroke-width:0.5;" x="133.999960394" xlink:href="#m4ad95aca17" y="275.200754054"/>
     <use style="stroke:#000000;stroke-width:0.5;" x="146.400005201" xlink:href="#m4ad95aca17" y="263.19283129"/>
     <use style="stroke:#000000;stroke-width:0.5;" x="158.800027781" xlink:href="#m4ad95aca17" y="270.500607117"/>
     <use style="stroke:#000000;stroke-width:0.5;" x="171.199985718" xlink:href="#m4ad95aca17" y="293.363494164"/>
     <use style="stroke:#000000;stroke-width:0.5;" x="183.600005757" xlink:href="#m4ad95aca17" y="320.36105622"/>
     <use style="stroke:#000000;stroke-width:0.5;" x="196.000025508" xlink:href="#m4ad95aca17" y="341.365760994"/>
     <use style="stroke:#000000;stroke-width:0.5;" x="208.400015597" xlink:href="#m4ad95aca17" y="351.437346601"/>
     <use style="stroke:#000000;stroke-width:0.5;" x="220.800036179" xlink:href="#m4ad95aca17" y="350.081654005"/>
     <use style="stroke:#000000;stroke-width:0.5;" x="233.200010098" xlink:href="#m4ad95aca17" y="337.275685963"/>
     <use style="stroke:#000000;stroke-width:0.5;" x="245.600013352" xlink:href="#m4ad95aca17" y="312.520254311"/>
     <use style="stroke:#000000;stroke-width:0.5;" x="258.000053614" xlink:href="#m4ad95aca17" y="277.854595714"/>
     <use style="stroke:#000000;stroke-width:0.5;" x="270.400008276" xlink:href="#m4ad95aca17" y="239.077098867"/>
     <use style="stroke:#000000;stroke-width:0.5;" x="282.800008189" xlink:href="#m4ad95aca17" y="206.384020038"/>
     <use style="stroke:#000000;stroke-width:0.5;" x="295.199098848" xlink:href="#m4ad95aca17" y="191.553948794"/>
     <use style="stroke:#000000;stroke-width:0.5;" x="307.600004753" xlink:href="#m4ad95aca17" y="203.838683766"/>
     <use style="stroke:#000000;stroke-width:0.5;" x="320.000039803" xlink:href="#m4ad95aca17" y="236.210569786"/>
     <use style="stroke:#000000;stroke-width:0.5;" x="332.400051327" xlink:href="#m4ad95aca17" y="274.844769539"/>
     <use style="stroke:#000000;stroke-width:0.5;" x="344.800005745" xlink:href="#m4ad95aca17" y="310.174626925"/>
     <use style="stroke:#000000;stroke-width:0.5;" x="357.200013196" xlink:href="#m4ad95aca17" y="335.831223199"/>
     <use style="stroke:#000000;stroke-width:0.5;" x="369.600042464" xlink:href="#m4ad95aca17" y="349.79727593"/>
     <use style="stroke:#000000;stroke-width:0.5;" x="382.000017462" xlink:href="#m4ad95aca17" y="351.72388853"/>
     <use style="stroke:#000000;stroke-width:0.5;" x="394.399988074" xlink:href="#m4ad95aca17" y="342.051688375"/>
     <use style="stroke:#000000;stroke-width:0.5;" x="406.800033842" xlink:href="#m4ad95aca17" y="321.451989458"/>
     <use style="stroke:#000000;stroke-width:0.5;" x="419.199992666" xlink:href="#m4ad95aca17" y="294.479442336"/>
     <use style="stroke:#000000;stroke-width:0.5;" x="431.600025341" xlink:href="#m4ad95aca17" y="271.386420597"/>
     <use style="stroke:#000000;stroke-width:0.5;" x="443.999972096" xlink:href="#m4ad95aca17" y="262.853639101"/>
     <use style="stroke:#000000;stroke-width:0.5;" x="456.400000312" xlink:href="#m4ad95aca17" y="273.810225653"/>
     <use style="stroke:#000000;stroke-width:0.5;" x="468.799994103" xlink:href="#m4ad95aca17" y="299.621561627"/>
     <use style="stroke:#000000;stroke-width:0.5;" x="481.199958102" xlink:href="#m4ad95aca17" y="331.361119788"/>
     <use style="stroke:#000000;stroke-width:0.5;" x="493.599972135" xlink:href="#m4ad95aca17" y="360.827748151"/>
     <use style="stroke:#000000;stroke-width:0.5;" x="505.999965118" xlink:href="#m4ad95aca17" y="381.265198215"/>
    </g>
   </g>
   <g id="line2d_4">
    <path clip-path="url(#pd407bd31ce)" d="M 72.000911 388.8 
L 84.399952 385.583601 
L 96.79995 376.888908 
L 109.199971 364.340501 
L 121.59995 351.92808 
L 133.99996 343.711653 
L 146.400005 342.302212 
L 158.800028 346.68902 
L 171.199986 353.762785 
L 183.600006 361.678316 
L 196.000026 369.354767 
L 208.400016 375.943453 
L 220.800036 377.671944 
L 233.20001 370.628971 
L 245.600013 354.34798 
L 258.000054 331.398454 
L 270.400008 306.465551 
L 282.800008 285.448484 
L 295.199099 278.768872 
L 307.600005 289.312034 
L 320.00004 310.701758 
L 332.400051 335.539361 
L 344.800006 357.190992 
L 357.200013 371.796397 
L 369.600042 376.769376 
L 382.000017 373.706234 
L 394.399988 366.38064 
L 406.800034 358.273251 
L 419.199993 350.686074 
L 431.600025 344.520431 
L 443.999972 342.132512 
L 456.4 345.264326 
L 468.799994 354.317103 
L 481.199958 366.770898 
L 493.599972 378.330681 
L 505.999965 386.245435 
" style="fill:none;stroke:#ff00ff;stroke-linecap:square;"/>
    <defs>
     <path d="M -3 3 
L 3 -3 
M -3 -3 
L 3 3 
" id="m283204a295" style="stroke:#ff00ff;stroke-width:0.5;"/>
    </defs>
    <g clip-path="url(#pd407bd31ce)">
     <use style="fill:#ff00ff;stroke:#ff00ff;stroke-width:0.5;" x="72.0009113029" xlink:href="#m283204a295" y="388.8"/>
     <use style="fill:#ff00ff;stroke:#ff00ff;stroke-width:0.5;" x="84.399951929" xlink:href="#m283204a295" y="385.583601098"/>
     <use style="fill:#ff00ff;stroke:#ff00ff;stroke-width:0.5;" x="96.7999498753" xlink:href="#m283204a295" y="376.888907795"/>
     <use style="fill:#ff00ff;stroke:#ff00ff;stroke-width:0.5;" x="109.199971304" xlink:href="#m283204a295" y="364.340501334"/>
     <use style="fill:#ff00ff;stroke:#ff00ff;stroke-width:0.5;" x="121.599950401" xlink:href="#m283204a295" y="351.928080143"/>
     <use style="fill:#ff00ff;stroke:#ff00ff;stroke-width:0.5;" x="133.999960394" xlink:href="#m283204a295" y="343.711653028"/>
     <use style="fill:#ff00ff;stroke:#ff00ff;stroke-width:0.5;" x="146.400005201" xlink:href="#m283204a295" y="342.302211807"/>
     <use style="fill:#ff00ff;stroke:#ff00ff;stroke-width:0.5;" x="158.800027781" xlink:href="#m283204a295" y="346.689019582"/>
     <use style="fill:#ff00ff;stroke:#ff00ff;stroke-width:0.5;" x="171.199985718" xlink:href="#m283204a295" y="353.762785369"/>
     <use style="fill:#ff00ff;stroke:#ff00ff;stroke-width:0.5;" x="183.600005757" xlink:href="#m283204a295" y="361.678315757"/>
     <use style="fill:#ff00ff;stroke:#ff00ff;stroke-width:0.5;" x="196.000025508" xlink:href="#m283204a295" y="369.354766716"/>
     <use style="fill:#ff00ff;stroke:#ff00ff;stroke-width:0.5;" x="208.400015597" xlink:href="#m283204a295" y="375.943453104"/>
     <use style="fill:#ff00ff;stroke:#ff00ff;stroke-width:0.5;" x="220.800036179" xlink:href="#m283204a295" y="377.671944262"/>
     <use style="fill:#ff00ff;stroke:#ff00ff;stroke-width:0.5;" x="233.200010098" xlink:href="#m283204a295" y="370.628971046"/>
     <use style="fill:#ff00ff;stroke:#ff00ff;stroke-width:0.5;" x="245.600013352" xlink:href="#m283204a295" y="354.347980298"/>
     <use style="fill:#ff00ff;stroke:#ff00ff;stroke-width:0.5;" x="258.000053614" xlink:href="#m283204a295" y="331.398454105"/>
     <use style="fill:#ff00ff;stroke:#ff00ff;stroke-width:0.5;" x="270.400008276" xlink:href="#m283204a295" y="306.465551105"/>
     <use style="fill:#ff00ff;stroke:#ff00ff;stroke-width:0.5;" x="282.800008189" xlink:href="#m283204a295" y="285.44848369"/>
     <use style="fill:#ff00ff;stroke:#ff00ff;stroke-width:0.5;" x="295.199098848" xlink:href="#m283204a295" y="278.768871717"/>
     <use style="fill:#ff00ff;stroke:#ff00ff;stroke-width:0.5;" x="307.600004753" xlink:href="#m283204a295" y="289.31203358"/>
     <use style="fill:#ff00ff;stroke:#ff00ff;stroke-width:0.5;" x="320.000039803" xlink:href="#m283204a295" y="310.701757978"/>
     <use style="fill:#ff00ff;stroke:#ff00ff;stroke-width:0.5;" x="332.400051327" xlink:href="#m283204a295" y="335.539361293"/>
     <use style="fill:#ff00ff;stroke:#ff00ff;stroke-width:0.5;" x="344.800005745" xlink:href="#m283204a295" y="357.190991847"/>
     <use style="fill:#ff00ff;stroke:#ff00ff;stroke-width:0.5;" x="357.200013196" xlink:href="#m283204a295" y="371.79639695"/>
     <use style="fill:#ff00ff;stroke:#ff00ff;stroke-width:0.5;" x="369.600042464" xlink:href="#m283204a295" y="376.769375543"/>
     <use style="fill:#ff00ff;stroke:#ff00ff;stroke-width:0.5;" x="382.000017462" xlink:href="#m283204a295" y="373.706233676"/>
     <use style="fill:#ff00ff;stroke:#ff00ff;stroke-width:0.5;" x="394.399988074" xlink:href="#m283204a295" y="366.380640395"/>
     <use style="fill:#ff00ff;stroke:#ff00ff;stroke-width:0.5;" x="406.800033842" xlink:href="#m283204a295" y="358.273251405"/>
     <use style="fill:#ff00ff;stroke:#ff00ff;stroke-width:0.5;" x="419.199992666" xlink:href="#m283204a295" y="350.686073754"/>
     <use style="fill:#ff00ff;stroke:#ff00ff;stroke-width:0.5;" x="431.600025341" xlink:href="#m283204a295" y="344.520431055"/>
     <use style="fill:#ff00ff;stroke:#ff00ff;stroke-width:0.5;" x="443.999972096" xlink:href="#m283204a295" y="342.132511739"/>
     <use style="fill:#ff00ff;stroke:#ff00ff;stroke-width:0.5;" x="456.400000312" xlink:href="#m283204a295" y="345.264325508"/>
     <use style="fill:#ff00ff;stroke:#ff00ff;stroke-width:0.5;" x="468.799994103" xlink:href="#m283204a295" y="354.317102545"/>
     <use style="fill:#ff00ff;stroke:#ff00ff;stroke-width:0.5;" x="481.199958102" xlink:href="#m283204a295" y="366.77089816"/>
     <use style="fill:#ff00ff;stroke:#ff00ff;stroke-width:0.5;" x="493.599972135" xlink:href="#m283204a295" y="378.330681291"/>
     <use style="fill:#ff00ff;stroke:#ff00ff;stroke-width:0.5;" x="505.999965118" xlink:href="#m283204a295" y="386.245434913"/>
    </g>
   </g>
   <g id="line2d_5">
    <path clip-path="url(#pd407bd31ce)" d="M 72.000911 388.8 
L 84.399952 378.661196 
L 96.79995 349.871886 
L 109.199971 308.990891 
L 121.59995 265.172695 
L 133.99996 230.603456 
L 146.400005 216.186933 
L 158.800028 226.321256 
L 171.199986 255.586183 
L 183.600006 290.903846 
L 196.000026 320.547717 
L 208.400016 337.185066 
L 220.800036 337.272168 
L 233.20001 318.226039 
L 245.600013 278.603602 
L 258.000054 221.985445 
L 270.400008 158.231751 
L 282.800008 103.993441 
L 295.199099 80.093799 
L 307.600005 101.811127 
L 320.00004 155.836268 
L 332.400051 219.540187 
L 344.800006 276.662161 
L 357.200013 317.026889 
L 369.600042 337.039779 
L 382.000017 337.355122 
L 394.399988 320.980186 
L 406.800034 291.751329 
L 419.199993 256.466935 
L 431.600025 227.048815 
L 443.999972 215.832388 
L 456.4 229.37012 
L 468.799994 263.419629 
L 481.199958 306.95459 
L 493.599972 348.438557 
L 505.999965 377.894881 
" style="fill:none;stroke:#008000;stroke-linecap:square;"/>
    <defs>
     <path d="M 0 3 
C 0.795609 3 1.55874 2.683901 2.12132 2.12132 
C 2.683901 1.55874 3 0.795609 3 0 
C 3 -0.795609 2.683901 -1.55874 2.12132 -2.12132 
C 1.55874 -2.683901 0.795609 -3 0 -3 
C -0.795609 -3 -1.55874 -2.683901 -2.12132 -2.12132 
C -2.683901 -1.55874 -3 -0.795609 -3 0 
C -3 0.795609 -2.683901 1.55874 -2.12132 2.12132 
C -1.55874 2.683901 -0.795609 3 0 3 
z
" id="m21b9786004" style="stroke:#000000;stroke-width:0.5;"/>
    </defs>
    <g clip-path="url(#pd407bd31ce)">
     <use style="fill:#008000;stroke:#000000;stroke-width:0.5;" x="72.0009113029" xlink:href="#m21b9786004" y="388.8"/>
     <use style="fill:#008000;stroke:#000000;stroke-width:0.5;" x="84.399951929" xlink:href="#m21b9786004" y="378.661195658"/>
     <use style="fill:#008000;stroke:#000000;stroke-width:0.5;" x="96.7999498753" xlink:href="#m21b9786004" y="349.871886256"/>
     <use style="fill:#008000;stroke:#000000;stroke-width:0.5;" x="109.199971304" xlink:href="#m21b9786004" y="308.990891439"/>
     <use style="fill:#008000;stroke:#000000;stroke-width:0.5;" x="121.599950401" xlink:href="#m21b9786004" y="265.172694955"/>
     <use style="fill:#008000;stroke:#000000;stroke-width:0.5;" x="133.999960394" xlink:href="#m21b9786004" y="230.603455679"/>
     <use style="fill:#008000;stroke:#000000;stroke-width:0.5;" x="146.400005201" xlink:href="#m21b9786004" y="216.186932691"/>
     <use style="fill:#008000;stroke:#000000;stroke-width:0.5;" x="158.800027781" xlink:href="#m21b9786004" y="226.32125607"/>
     <use style="fill:#008000;stroke:#000000;stroke-width:0.5;" x="171.199985718" xlink:href="#m21b9786004" y="255.58618309"/>
     <use style="fill:#008000;stroke:#000000;stroke-width:0.5;" x="183.600005757" xlink:href="#m21b9786004" y="290.903846357"/>
     <use style="fill:#008000;stroke:#000000;stroke-width:0.5;" x="196.000025508" xlink:href="#m21b9786004" y="320.547717356"/>
     <use style="fill:#008000;stroke:#000000;stroke-width:0.5;" x="208.400015597" xlink:href="#m21b9786004" y="337.185066148"/>
     <use style="fill:#008000;stroke:#000000;stroke-width:0.5;" x="220.800036179" xlink:href="#m21b9786004" y="337.272168398"/>
     <use style="fill:#008000;stroke:#000000;stroke-width:0.5;" x="233.200010098" xlink:href="#m21b9786004" y="318.226038884"/>
     <use style="fill:#008000;stroke:#000000;stroke-width:0.5;" x="245.600013352" xlink:href="#m21b9786004" y="278.603601889"/>
     <use style="fill:#008000;stroke:#000000;stroke-width:0.5;" x="258.000053614" xlink:href="#m21b9786004" y="221.985444789"/>
     <use style="fill:#008000;stroke:#000000;stroke-width:0.5;" x="270.400008276" xlink:href="#m21b9786004" y="158.231750803"/>
     <use style="fill:#008000;stroke:#000000;stroke-width:0.5;" x="282.800008189" xlink:href="#m21b9786004" y="103.993440807"/>
     <use style="fill:#008000;stroke:#000000;stroke-width:0.5;" x="295.199098848" xlink:href="#m21b9786004" y="80.0937991799"/>
     <use style="fill:#008000;stroke:#000000;stroke-width:0.5;" x="307.600004753" xlink:href="#m21b9786004" y="101.811127196"/>
     <use style="fill:#008000;stroke:#000000;stroke-width:0.5;" x="320.000039803" xlink:href="#m21b9786004" y="155.836268133"/>
     <use style="fill:#008000;stroke:#000000;stroke-width:0.5;" x="332.400051327" xlink:href="#m21b9786004" y="219.540186779"/>
     <use style="fill:#008000;stroke:#000000;stroke-width:0.5;" x="344.800005745" xlink:href="#m21b9786004" y="276.662161217"/>
     <use style="fill:#008000;stroke:#000000;stroke-width:0.5;" x="357.200013196" xlink:href="#m21b9786004" y="317.0268889"/>
     <use style="fill:#008000;stroke:#000000;stroke-width:0.5;" x="369.600042464" xlink:href="#m21b9786004" y="337.039778597"/>
     <use style="fill:#008000;stroke:#000000;stroke-width:0.5;" x="382.000017462" xlink:href="#m21b9786004" y="337.355122056"/>
     <use style="fill:#008000;stroke:#000000;stroke-width:0.5;" x="394.399988074" xlink:href="#m21b9786004" y="320.980185523"/>
     <use style="fill:#008000;stroke:#000000;stroke-width:0.5;" x="406.800033842" xlink:href="#m21b9786004" y="291.751328512"/>
     <use style="fill:#008000;stroke:#000000;stroke-width:0.5;" x="419.199992666" xlink:href="#m21b9786004" y="256.466934916"/>
     <use style="fill:#008000;stroke:#000000;stroke-width:0.5;" x="431.600025341" xlink:href="#m21b9786004" y="227.048814753"/>
     <use style="fill:#008000;stroke:#000000;stroke-width:0.5;" x="443.999972096" xlink:href="#m21b9786004" y="215.832387547"/>
     <use style="fill:#008000;stroke:#000000;stroke-width:0.5;" x="456.400000312" xlink:href="#m21b9786004" y="229.370120345"/>
     <use style="fill:#008000;stroke:#000000;stroke-width:0.5;" x="468.799994103" xlink:href="#m21b9786004" y="263.419628588"/>
     <use style="fill:#008000;stroke:#000000;stroke-width:0.5;" x="481.199958102" xlink:href="#m21b9786004" y="306.954590281"/>
     <use style="fill:#008000;stroke:#000000;stroke-width:0.5;" x="493.599972135" xlink:href="#m21b9786004" y="348.43855683"/>
     <use style="fill:#008000;stroke:#000000;stroke-width:0.5;" x="505.999965118" xlink:href="#m21b9786004" y="377.89488097"/>
    </g>
   </g>
   <g id="patch_3">
    <path d="M 72 388.8 
L 518.4 388.8 
" style="fill:none;stroke:#000000;stroke-linecap:square;stroke-linejoin:miter;"/>
   </g>
   <g id="patch_4">
    <path d="M 72 43.2 
L 518.4 43.2 
" style="fill:none;stroke:#000000;stroke-linecap:square;stroke-linejoin:miter;"/>
   </g>
   <g id="patch_5">
    <path d="M 518.4 388.8 
L 518.4 43.2 
" style="fill:none;stroke:#000000;stroke-linecap:square;stroke-linejoin:miter;"/>
   </g>
   <g id="patch_6">
    <path d="M 72 388.8 
L 72 43.2 
" style="fill:none;stroke:#000000;stroke-linecap:square;stroke-linejoin:miter;"/>
   </g>
   <g id="matplotlib.axis_1">
    <g id="xtick_1">
     <g id="line2d_6">
      <defs>
       <path d="M 0 0 
L 0 -4 
" id="mfdb7a80197" style="stroke:#000000;stroke-width:0.5;"/>
      </defs>
      <g>
       <use style="stroke:#000000;stroke-width:0.5;" x="72.0" xlink:href="#mfdb7a80197" y="388.8"/>
      </g>
     </g>
     <g id="line2d_7">
      <defs>
       <path d="M 0 0 
L 0 4 
" id="m058568e2a2" style="stroke:#000000;stroke-width:0.5;"/>
      </defs>
      <g>
       <use style="stroke:#000000;stroke-width:0.5;" x="72.0" xlink:href="#m058568e2a2" y="43.2"/>
      </g>
     </g>
     <g id="text_1">
      <!-- −180 -->
      <defs>
       <path d="M 31.78125 66.40625 
Q 24.171875 66.40625 20.328125 58.90625 
Q 16.5 51.421875 16.5 36.375 
Q 16.5 21.390625 20.328125 13.890625 
Q 24.171875 6.390625 31.78125 6.390625 
Q 39.453125 6.390625 43.28125 13.890625 
Q 47.125 21.390625 47.125 36.375 
Q 47.125 51.421875 43.28125 58.90625 
Q 39.453125 66.40625 31.78125 66.40625 
M 31.78125 74.21875 
Q 44.046875 74.21875 50.515625 64.515625 
Q 56.984375 54.828125 56.984375 36.375 
Q 56.984375 17.96875 50.515625 8.265625 
Q 44.046875 -1.421875 31.78125 -1.421875 
Q 19.53125 -1.421875 13.0625 8.265625 
Q 6.59375 17.96875 6.59375 36.375 
Q 6.59375 54.828125 13.0625 64.515625 
Q 19.53125 74.21875 31.78125 74.21875 
" id="BitstreamVeraSans-Roman-30"/>
       <path d="M 12.40625 8.296875 
L 28.515625 8.296875 
L 28.515625 63.921875 
L 10.984375 60.40625 
L 10.984375 69.390625 
L 28.421875 72.90625 
L 38.28125 72.90625 
L 38.28125 8.296875 
L 54.390625 8.296875 
L 54.390625 0 
L 12.40625 0 
z
" id="BitstreamVeraSans-Roman-31"/>
       <path d="M 10.59375 35.5 
L 73.1875 35.5 
L 73.1875 27.203125 
L 10.59375 27.203125 
z
" id="BitstreamVeraSans-Roman-2212"/>
       <path d="M 31.78125 34.625 
Q 24.75 34.625 20.71875 30.859375 
Q 16.703125 27.09375 16.703125 20.515625 
Q 16.703125 13.921875 20.71875 10.15625 
Q 24.75 6.390625 31.78125 6.390625 
Q 38.8125 6.390625 42.859375 10.171875 
Q 46.921875 13.96875 46.921875 20.515625 
Q 46.921875 27.09375 42.890625 30.859375 
Q 38.875 34.625 31.78125 34.625 
M 21.921875 38.8125 
Q 15.578125 40.375 12.03125 44.71875 
Q 8.5 49.078125 8.5 55.328125 
Q 8.5 64.0625 14.71875 69.140625 
Q 20.953125 74.21875 31.78125 74.21875 
Q 42.671875 74.21875 48.875 69.140625 
Q 55.078125 64.0625 55.078125 55.328125 
Q 55.078125 49.078125 51.53125 44.71875 
Q 48 40.375 41.703125 38.8125 
Q 48.828125 37.15625 52.796875 32.3125 
Q 56.78125 27.484375 56.78125 20.515625 
Q 56.78125 9.90625 50.3125 4.234375 
Q 43.84375 -1.421875 31.78125 -1.421875 
Q 19.734375 -1.421875 13.25 4.234375 
Q 6.78125 9.90625 6.78125 20.515625 
Q 6.78125 27.484375 10.78125 32.3125 
Q 14.796875 37.15625 21.921875 38.8125 
M 18.3125 54.390625 
Q 18.3125 48.734375 21.84375 45.5625 
Q 25.390625 42.390625 31.78125 42.390625 
Q 38.140625 42.390625 41.71875 45.5625 
Q 45.3125 48.734375 45.3125 54.390625 
Q 45.3125 60.0625 41.71875 63.234375 
Q 38.140625 66.40625 31.78125 66.40625 
Q 25.390625 66.40625 21.84375 63.234375 
Q 18.3125 60.0625 18.3125 54.390625 
" id="BitstreamVeraSans-Roman-38"/>
      </defs>
      <g transform="translate(55.5196875 401.918125)scale(0.12 -0.12)">
       <use xlink:href="#BitstreamVeraSans-Roman-2212"/>
       <use x="83.7890625" xlink:href="#BitstreamVeraSans-Roman-31"/>
       <use x="147.412109375" xlink:href="#BitstreamVeraSans-Roman-38"/>
       <use x="211.03515625" xlink:href="#BitstreamVeraSans-Roman-30"/>
      </g>
     </g>
    </g>
    <g id="xtick_2">
     <g id="line2d_8">
      <g>
       <use style="stroke:#000000;stroke-width:0.5;" x="127.8" xlink:href="#mfdb7a80197" y="388.8"/>
      </g>
     </g>
     <g id="line2d_9">
      <g>
       <use style="stroke:#000000;stroke-width:0.5;" x="127.8" xlink:href="#m058568e2a2" y="43.2"/>
      </g>
     </g>
     <g id="text_2">
      <!-- −135 -->
      <defs>
       <path d="M 40.578125 39.3125 
Q 47.65625 37.796875 51.625 33 
Q 55.609375 28.21875 55.609375 21.1875 
Q 55.609375 10.40625 48.1875 4.484375 
Q 40.765625 -1.421875 27.09375 -1.421875 
Q 22.515625 -1.421875 17.65625 -0.515625 
Q 12.796875 0.390625 7.625 2.203125 
L 7.625 11.71875 
Q 11.71875 9.328125 16.59375 8.109375 
Q 21.484375 6.890625 26.8125 6.890625 
Q 36.078125 6.890625 40.9375 10.546875 
Q 45.796875 14.203125 45.796875 21.1875 
Q 45.796875 27.640625 41.28125 31.265625 
Q 36.765625 34.90625 28.71875 34.90625 
L 20.21875 34.90625 
L 20.21875 43.015625 
L 29.109375 43.015625 
Q 36.375 43.015625 40.234375 45.921875 
Q 44.09375 48.828125 44.09375 54.296875 
Q 44.09375 59.90625 40.109375 62.90625 
Q 36.140625 65.921875 28.71875 65.921875 
Q 24.65625 65.921875 20.015625 65.03125 
Q 15.375 64.15625 9.8125 62.3125 
L 9.8125 71.09375 
Q 15.4375 72.65625 20.34375 73.4375 
Q 25.25 74.21875 29.59375 74.21875 
Q 40.828125 74.21875 47.359375 69.109375 
Q 53.90625 64.015625 53.90625 55.328125 
Q 53.90625 49.265625 50.4375 45.09375 
Q 46.96875 40.921875 40.578125 39.3125 
" id="BitstreamVeraSans-Roman-33"/>
       <path d="M 10.796875 72.90625 
L 49.515625 72.90625 
L 49.515625 64.59375 
L 19.828125 64.59375 
L 19.828125 46.734375 
Q 21.96875 47.46875 24.109375 47.828125 
Q 26.265625 48.1875 28.421875 48.1875 
Q 40.625 48.1875 47.75 41.5 
Q 54.890625 34.8125 54.890625 23.390625 
Q 54.890625 11.625 47.5625 5.09375 
Q 40.234375 -1.421875 26.90625 -1.421875 
Q 22.3125 -1.421875 17.546875 -0.640625 
Q 12.796875 0.140625 7.71875 1.703125 
L 7.71875 11.625 
Q 12.109375 9.234375 16.796875 8.0625 
Q 21.484375 6.890625 26.703125 6.890625 
Q 35.15625 6.890625 40.078125 11.328125 
Q 45.015625 15.765625 45.015625 23.390625 
Q 45.015625 31 40.078125 35.4375 
Q 35.15625 39.890625 26.703125 39.890625 
Q 22.75 39.890625 18.8125 39.015625 
Q 14.890625 38.140625 10.796875 36.28125 
z
" id="BitstreamVeraSans-Roman-35"/>
      </defs>
      <g transform="translate(111.3196875 401.918125)scale(0.12 -0.12)">
       <use xlink:href="#BitstreamVeraSans-Roman-2212"/>
       <use x="83.7890625" xlink:href="#BitstreamVeraSans-Roman-31"/>
       <use x="147.412109375" xlink:href="#BitstreamVeraSans-Roman-33"/>
       <use x="211.03515625" xlink:href="#BitstreamVeraSans-Roman-35"/>
      </g>
     </g>
    </g>
    <g id="xtick_3">
     <g id="line2d_10">
      <g>
       <use style="stroke:#000000;stroke-width:0.5;" x="183.6" xlink:href="#mfdb7a80197" y="388.8"/>
      </g>
     </g>
     <g id="line2d_11">
      <g>
       <use style="stroke:#000000;stroke-width:0.5;" x="183.6" xlink:href="#m058568e2a2" y="43.2"/>
      </g>
     </g>
     <g id="text_3">
      <!-- −90 -->
      <defs>
       <path d="M 10.984375 1.515625 
L 10.984375 10.5 
Q 14.703125 8.734375 18.5 7.8125 
Q 22.3125 6.890625 25.984375 6.890625 
Q 35.75 6.890625 40.890625 13.453125 
Q 46.046875 20.015625 46.78125 33.40625 
Q 43.953125 29.203125 39.59375 26.953125 
Q 35.25 24.703125 29.984375 24.703125 
Q 19.046875 24.703125 12.671875 31.3125 
Q 6.296875 37.9375 6.296875 49.421875 
Q 6.296875 60.640625 12.9375 67.421875 
Q 19.578125 74.21875 30.609375 74.21875 
Q 43.265625 74.21875 49.921875 64.515625 
Q 56.59375 54.828125 56.59375 36.375 
Q 56.59375 19.140625 48.40625 8.859375 
Q 40.234375 -1.421875 26.421875 -1.421875 
Q 22.703125 -1.421875 18.890625 -0.6875 
Q 15.09375 0.046875 10.984375 1.515625 
M 30.609375 32.421875 
Q 37.25 32.421875 41.125 36.953125 
Q 45.015625 41.5 45.015625 49.421875 
Q 45.015625 57.28125 41.125 61.84375 
Q 37.25 66.40625 30.609375 66.40625 
Q 23.96875 66.40625 20.09375 61.84375 
Q 16.21875 57.28125 16.21875 49.421875 
Q 16.21875 41.5 20.09375 36.953125 
Q 23.96875 32.421875 30.609375 32.421875 
" id="BitstreamVeraSans-Roman-39"/>
      </defs>
      <g transform="translate(170.9371875 401.918125)scale(0.12 -0.12)">
       <use xlink:href="#BitstreamVeraSans-Roman-2212"/>
       <use x="83.7890625" xlink:href="#BitstreamVeraSans-Roman-39"/>
       <use x="147.412109375" xlink:href="#BitstreamVeraSans-Roman-30"/>
      </g>
     </g>
    </g>
    <g id="xtick_4">
     <g id="line2d_12">
      <g>
       <use style="stroke:#000000;stroke-width:0.5;" x="239.4" xlink:href="#mfdb7a80197" y="388.8"/>
      </g>
     </g>
     <g id="line2d_13">
      <g>
       <use style="stroke:#000000;stroke-width:0.5;" x="239.4" xlink:href="#m058568e2a2" y="43.2"/>
      </g>
     </g>
     <g id="text_4">
      <!-- −45 -->
      <defs>
       <path d="M 37.796875 64.3125 
L 12.890625 25.390625 
L 37.796875 25.390625 
z
M 35.203125 72.90625 
L 47.609375 72.90625 
L 47.609375 25.390625 
L 58.015625 25.390625 
L 58.015625 17.1875 
L 47.609375 17.1875 
L 47.609375 0 
L 37.796875 0 
L 37.796875 17.1875 
L 4.890625 17.1875 
L 4.890625 26.703125 
z
" id="BitstreamVeraSans-Roman-34"/>
      </defs>
      <g transform="translate(226.7371875 401.918125)scale(0.12 -0.12)">
       <use xlink:href="#BitstreamVeraSans-Roman-2212"/>
       <use x="83.7890625" xlink:href="#BitstreamVeraSans-Roman-34"/>
       <use x="147.412109375" xlink:href="#BitstreamVeraSans-Roman-35"/>
      </g>
     </g>
    </g>
    <g id="xtick_5">
     <g id="line2d_14">
      <g>
       <use style="stroke:#000000;stroke-width:0.5;" x="295.2" xlink:href="#mfdb7a80197" y="388.8"/>
      </g>
     </g>
     <g id="line2d_15">
      <g>
       <use style="stroke:#000000;stroke-width:0.5;" x="295.2" xlink:href="#m058568e2a2" y="43.2"/>
      </g>
     </g>
     <g id="text_5">
      <!-- 0 -->
      <g transform="translate(291.3825 401.918125)scale(0.12 -0.12)">
       <use xlink:href="#BitstreamVeraSans-Roman-30"/>
      </g>
     </g>
    </g>
    <g id="xtick_6">
     <g id="line2d_16">
      <g>
       <use style="stroke:#000000;stroke-width:0.5;" x="351.0" xlink:href="#mfdb7a80197" y="388.8"/>
      </g>
     </g>
     <g id="line2d_17">
      <g>
       <use style="stroke:#000000;stroke-width:0.5;" x="351.0" xlink:href="#m058568e2a2" y="43.2"/>
      </g>
     </g>
     <g id="text_6">
      <!-- 45 -->
      <g transform="translate(343.365 401.918125)scale(0.12 -0.12)">
       <use xlink:href="#BitstreamVeraSans-Roman-34"/>
       <use x="63.623046875" xlink:href="#BitstreamVeraSans-Roman-35"/>
      </g>
     </g>
    </g>
    <g id="xtick_7">
     <g id="line2d_18">
      <g>
       <use style="stroke:#000000;stroke-width:0.5;" x="406.8" xlink:href="#mfdb7a80197" y="388.8"/>
      </g>
     </g>
     <g id="line2d_19">
      <g>
       <use style="stroke:#000000;stroke-width:0.5;" x="406.8" xlink:href="#m058568e2a2" y="43.2"/>
      </g>
     </g>
     <g id="text_7">
      <!-- 90 -->
      <g transform="translate(399.165 401.918125)scale(0.12 -0.12)">
       <use xlink:href="#BitstreamVeraSans-Roman-39"/>
       <use x="63.623046875" xlink:href="#BitstreamVeraSans-Roman-30"/>
      </g>
     </g>
    </g>
    <g id="xtick_8">
     <g id="line2d_20">
      <g>
       <use style="stroke:#000000;stroke-width:0.5;" x="462.6" xlink:href="#mfdb7a80197" y="388.8"/>
      </g>
     </g>
     <g id="line2d_21">
      <g>
       <use style="stroke:#000000;stroke-width:0.5;" x="462.6" xlink:href="#m058568e2a2" y="43.2"/>
      </g>
     </g>
     <g id="text_8">
      <!-- 135 -->
      <g transform="translate(451.1475 401.918125)scale(0.12 -0.12)">
       <use xlink:href="#BitstreamVeraSans-Roman-31"/>
       <use x="63.623046875" xlink:href="#BitstreamVeraSans-Roman-33"/>
       <use x="127.24609375" xlink:href="#BitstreamVeraSans-Roman-35"/>
      </g>
     </g>
    </g>
    <g id="xtick_9">
     <g id="line2d_22">
      <g>
       <use style="stroke:#000000;stroke-width:0.5;" x="518.4" xlink:href="#mfdb7a80197" y="388.8"/>
      </g>
     </g>
     <g id="line2d_23">
      <g>
       <use style="stroke:#000000;stroke-width:0.5;" x="518.4" xlink:href="#m058568e2a2" y="43.2"/>
      </g>
     </g>
     <g id="text_9">
      <!-- 180 -->
      <g transform="translate(506.9475 401.918125)scale(0.12 -0.12)">
       <use xlink:href="#BitstreamVeraSans-Roman-31"/>
       <use x="63.623046875" xlink:href="#BitstreamVeraSans-Roman-38"/>
       <use x="127.24609375" xlink:href="#BitstreamVeraSans-Roman-30"/>
      </g>
     </g>
    </g>
    <g id="text_10">
     <!-- Phi -->
     <defs>
      <path d="M 19.671875 64.796875 
L 19.671875 37.40625 
L 32.078125 37.40625 
Q 38.96875 37.40625 42.71875 40.96875 
Q 46.484375 44.53125 46.484375 51.125 
Q 46.484375 57.671875 42.71875 61.234375 
Q 38.96875 64.796875 32.078125 64.796875 
z
M 9.8125 72.90625 
L 32.078125 72.90625 
Q 44.34375 72.90625 50.609375 67.359375 
Q 56.890625 61.8125 56.890625 51.125 
Q 56.890625 40.328125 50.609375 34.8125 
Q 44.34375 29.296875 32.078125 29.296875 
L 19.671875 29.296875 
L 19.671875 0 
L 9.8125 0 
z
" id="BitstreamVeraSans-Roman-50"/>
      <path d="M 54.890625 33.015625 
L 54.890625 0 
L 45.90625 0 
L 45.90625 32.71875 
Q 45.90625 40.484375 42.875 44.328125 
Q 39.84375 48.1875 33.796875 48.1875 
Q 26.515625 48.1875 22.3125 43.546875 
Q 18.109375 38.921875 18.109375 30.90625 
L 18.109375 0 
L 9.078125 0 
L 9.078125 75.984375 
L 18.109375 75.984375 
L 18.109375 46.1875 
Q 21.34375 51.125 25.703125 53.5625 
Q 30.078125 56 35.796875 56 
Q 45.21875 56 50.046875 50.171875 
Q 54.890625 44.34375 54.890625 33.015625 
" id="BitstreamVeraSans-Roman-68"/>
      <path d="M 9.421875 54.6875 
L 18.40625 54.6875 
L 18.40625 0 
L 9.421875 0 
z
M 9.421875 75.984375 
L 18.40625 75.984375 
L 18.40625 64.59375 
L 9.421875 64.59375 
z
" id="BitstreamVeraSans-Roman-69"/>
     </defs>
     <g transform="translate(286.1128125 418.531875)scale(0.12 -0.12)">
      <use xlink:href="#BitstreamVeraSans-Roman-50"/>
      <use x="60.302734375" xlink:href="#BitstreamVeraSans-Roman-68"/>
      <use x="123.681640625" xlink:href="#BitstreamVeraSans-Roman-69"/>
     </g>
    </g>
   </g>
   <g id="matplotlib.axis_2">
    <g id="ytick_1">
     <g id="line2d_24">
      <defs>
       <path d="M 0 0 
L 4 0 
" id="mdd1f51d106" style="stroke:#000000;stroke-width:0.5;"/>
      </defs>
      <g>
       <use style="stroke:#000000;stroke-width:0.5;" x="72.0" xlink:href="#mdd1f51d106" y="388.8"/>
      </g>
     </g>
     <g id="line2d_25">
      <defs>
       <path d="M 0 0 
L -4 0 
" id="m87a5c913e2" style="stroke:#000000;stroke-width:0.5;"/>
      </defs>
      <g>
       <use style="stroke:#000000;stroke-width:0.5;" x="518.4" xlink:href="#m87a5c913e2" y="388.8"/>
      </g>
     </g>
     <g id="text_11">
      <!-- 0 -->
      <g transform="translate(60.365 392.11125)scale(0.12 -0.12)">
       <use xlink:href="#BitstreamVeraSans-Roman-30"/>
      </g>
     </g>
    </g>
    <g id="ytick_2">
     <g id="line2d_26">
      <g>
       <use style="stroke:#000000;stroke-width:0.5;" x="72.0" xlink:href="#mdd1f51d106" y="339.428571429"/>
      </g>
     </g>
     <g id="line2d_27">
      <g>
       <use style="stroke:#000000;stroke-width:0.5;" x="518.4" xlink:href="#m87a5c913e2" y="339.428571429"/>
      </g>
     </g>
     <g id="text_12">
      <!-- 1 -->
      <g transform="translate(60.365 342.739821429)scale(0.12 -0.12)">
       <use xlink:href="#BitstreamVeraSans-Roman-31"/>
      </g>
     </g>
    </g>
    <g id="ytick_3">
     <g id="line2d_28">
      <g>
       <use style="stroke:#000000;stroke-width:0.5;" x="72.0" xlink:href="#mdd1f51d106" y="290.057142857"/>
      </g>
     </g>
     <g id="line2d_29">
      <g>
       <use style="stroke:#000000;stroke-width:0.5;" x="518.4" xlink:href="#m87a5c913e2" y="290.057142857"/>
      </g>
     </g>
     <g id="text_13">
      <!-- 2 -->
      <defs>
       <path d="M 19.1875 8.296875 
L 53.609375 8.296875 
L 53.609375 0 
L 7.328125 0 
L 7.328125 8.296875 
Q 12.9375 14.109375 22.625 23.890625 
Q 32.328125 33.6875 34.8125 36.53125 
Q 39.546875 41.84375 41.421875 45.53125 
Q 43.3125 49.21875 43.3125 52.78125 
Q 43.3125 58.59375 39.234375 62.25 
Q 35.15625 65.921875 28.609375 65.921875 
Q 23.96875 65.921875 18.8125 64.3125 
Q 13.671875 62.703125 7.8125 59.421875 
L 7.8125 69.390625 
Q 13.765625 71.78125 18.9375 73 
Q 24.125 74.21875 28.421875 74.21875 
Q 39.75 74.21875 46.484375 68.546875 
Q 53.21875 62.890625 53.21875 53.421875 
Q 53.21875 48.921875 51.53125 44.890625 
Q 49.859375 40.875 45.40625 35.40625 
Q 44.1875 33.984375 37.640625 27.21875 
Q 31.109375 20.453125 19.1875 8.296875 
" id="BitstreamVeraSans-Roman-32"/>
      </defs>
      <g transform="translate(60.365 293.368392857)scale(0.12 -0.12)">
       <use xlink:href="#BitstreamVeraSans-Roman-32"/>
      </g>
     </g>
    </g>
    <g id="ytick_4">
     <g id="line2d_30">
      <g>
       <use style="stroke:#000000;stroke-width:0.5;" x="72.0" xlink:href="#mdd1f51d106" y="240.685714286"/>
      </g>
     </g>
     <g id="line2d_31">
      <g>
       <use style="stroke:#000000;stroke-width:0.5;" x="518.4" xlink:href="#m87a5c913e2" y="240.685714286"/>
      </g>
     </g>
     <g id="text_14">
      <!-- 3 -->
      <g transform="translate(60.365 243.996964286)scale(0.12 -0.12)">
       <use xlink:href="#BitstreamVeraSans-Roman-33"/>
      </g>
     </g>
    </g>
    <g id="ytick_5">
     <g id="line2d_32">
      <g>
       <use style="stroke:#000000;stroke-width:0.5;" x="72.0" xlink:href="#mdd1f51d106" y="191.314285714"/>
      </g>
     </g>
     <g id="line2d_33">
      <g>
       <use style="stroke:#000000;stroke-width:0.5;" x="518.4" xlink:href="#m87a5c913e2" y="191.314285714"/>
      </g>
     </g>
     <g id="text_15">
      <!-- 4 -->
      <g transform="translate(60.365 194.625535714)scale(0.12 -0.12)">
       <use xlink:href="#BitstreamVeraSans-Roman-34"/>
      </g>
     </g>
    </g>
    <g id="ytick_6">
     <g id="line2d_34">
      <g>
       <use style="stroke:#000000;stroke-width:0.5;" x="72.0" xlink:href="#mdd1f51d106" y="141.942857143"/>
      </g>
     </g>
     <g id="line2d_35">
      <g>
       <use style="stroke:#000000;stroke-width:0.5;" x="518.4" xlink:href="#m87a5c913e2" y="141.942857143"/>
      </g>
     </g>
     <g id="text_16">
      <!-- 5 -->
      <g transform="translate(60.365 145.254107143)scale(0.12 -0.12)">
       <use xlink:href="#BitstreamVeraSans-Roman-35"/>
      </g>
     </g>
    </g>
    <g id="ytick_7">
     <g id="line2d_36">
      <g>
       <use style="stroke:#000000;stroke-width:0.5;" x="72.0" xlink:href="#mdd1f51d106" y="92.5714285714"/>
      </g>
     </g>
     <g id="line2d_37">
      <g>
       <use style="stroke:#000000;stroke-width:0.5;" x="518.4" xlink:href="#m87a5c913e2" y="92.5714285714"/>
      </g>
     </g>
     <g id="text_17">
      <!-- 6 -->
      <defs>
       <path d="M 33.015625 40.375 
Q 26.375 40.375 22.484375 35.828125 
Q 18.609375 31.296875 18.609375 23.390625 
Q 18.609375 15.53125 22.484375 10.953125 
Q 26.375 6.390625 33.015625 6.390625 
Q 39.65625 6.390625 43.53125 10.953125 
Q 47.40625 15.53125 47.40625 23.390625 
Q 47.40625 31.296875 43.53125 35.828125 
Q 39.65625 40.375 33.015625 40.375 
M 52.59375 71.296875 
L 52.59375 62.3125 
Q 48.875 64.0625 45.09375 64.984375 
Q 41.3125 65.921875 37.59375 65.921875 
Q 27.828125 65.921875 22.671875 59.328125 
Q 17.53125 52.734375 16.796875 39.40625 
Q 19.671875 43.65625 24.015625 45.921875 
Q 28.375 48.1875 33.59375 48.1875 
Q 44.578125 48.1875 50.953125 41.515625 
Q 57.328125 34.859375 57.328125 23.390625 
Q 57.328125 12.15625 50.6875 5.359375 
Q 44.046875 -1.421875 33.015625 -1.421875 
Q 20.359375 -1.421875 13.671875 8.265625 
Q 6.984375 17.96875 6.984375 36.375 
Q 6.984375 53.65625 15.1875 63.9375 
Q 23.390625 74.21875 37.203125 74.21875 
Q 40.921875 74.21875 44.703125 73.484375 
Q 48.484375 72.75 52.59375 71.296875 
" id="BitstreamVeraSans-Roman-36"/>
      </defs>
      <g transform="translate(60.365 95.8826785714)scale(0.12 -0.12)">
       <use xlink:href="#BitstreamVeraSans-Roman-36"/>
      </g>
     </g>
    </g>
    <g id="ytick_8">
     <g id="line2d_38">
      <g>
       <use style="stroke:#000000;stroke-width:0.5;" x="72.0" xlink:href="#mdd1f51d106" y="43.2"/>
      </g>
     </g>
     <g id="line2d_39">
      <g>
       <use style="stroke:#000000;stroke-width:0.5;" x="518.4" xlink:href="#m87a5c913e2" y="43.2"/>
      </g>
     </g>
     <g id="text_18">
      <!-- 7 -->
      <defs>
       <path d="M 8.203125 72.90625 
L 55.078125 72.90625 
L 55.078125 68.703125 
L 28.609375 0 
L 18.3125 0 
L 43.21875 64.59375 
L 8.203125 64.59375 
z
" id="BitstreamVeraSans-Roman-37"/>
      </defs>
      <g transform="translate(60.365 46.51125)scale(0.12 -0.12)">
       <use xlink:href="#BitstreamVeraSans-Roman-37"/>
      </g>
     </g>
    </g>
    <g id="text_19">
     <!-- kcal/mol -->
     <defs>
      <path d="M 34.28125 27.484375 
Q 23.390625 27.484375 19.1875 25 
Q 14.984375 22.515625 14.984375 16.5 
Q 14.984375 11.71875 18.140625 8.90625 
Q 21.296875 6.109375 26.703125 6.109375 
Q 34.1875 6.109375 38.703125 11.40625 
Q 43.21875 16.703125 43.21875 25.484375 
L 43.21875 27.484375 
z
M 52.203125 31.203125 
L 52.203125 0 
L 43.21875 0 
L 43.21875 8.296875 
Q 40.140625 3.328125 35.546875 0.953125 
Q 30.953125 -1.421875 24.3125 -1.421875 
Q 15.921875 -1.421875 10.953125 3.296875 
Q 6 8.015625 6 15.921875 
Q 6 25.140625 12.171875 29.828125 
Q 18.359375 34.515625 30.609375 34.515625 
L 43.21875 34.515625 
L 43.21875 35.40625 
Q 43.21875 41.609375 39.140625 45 
Q 35.0625 48.390625 27.6875 48.390625 
Q 23 48.390625 18.546875 47.265625 
Q 14.109375 46.140625 10.015625 43.890625 
L 10.015625 52.203125 
Q 14.9375 54.109375 19.578125 55.046875 
Q 24.21875 56 28.609375 56 
Q 40.484375 56 46.34375 49.84375 
Q 52.203125 43.703125 52.203125 31.203125 
" id="BitstreamVeraSans-Roman-61"/>
      <path d="M 9.078125 75.984375 
L 18.109375 75.984375 
L 18.109375 31.109375 
L 44.921875 54.6875 
L 56.390625 54.6875 
L 27.390625 29.109375 
L 57.625 0 
L 45.90625 0 
L 18.109375 26.703125 
L 18.109375 0 
L 9.078125 0 
z
" id="BitstreamVeraSans-Roman-6b"/>
      <path d="M 48.78125 52.59375 
L 48.78125 44.1875 
Q 44.96875 46.296875 41.140625 47.34375 
Q 37.3125 48.390625 33.40625 48.390625 
Q 24.65625 48.390625 19.8125 42.84375 
Q 14.984375 37.3125 14.984375 27.296875 
Q 14.984375 17.28125 19.8125 11.734375 
Q 24.65625 6.203125 33.40625 6.203125 
Q 37.3125 6.203125 41.140625 7.25 
Q 44.96875 8.296875 48.78125 10.40625 
L 48.78125 2.09375 
Q 45.015625 0.34375 40.984375 -0.53125 
Q 36.96875 -1.421875 32.421875 -1.421875 
Q 20.0625 -1.421875 12.78125 6.34375 
Q 5.515625 14.109375 5.515625 27.296875 
Q 5.515625 40.671875 12.859375 48.328125 
Q 20.21875 56 33.015625 56 
Q 37.15625 56 41.109375 55.140625 
Q 45.0625 54.296875 48.78125 52.59375 
" id="BitstreamVeraSans-Roman-63"/>
      <path d="M 25.390625 72.90625 
L 33.6875 72.90625 
L 8.296875 -9.28125 
L 0 -9.28125 
z
" id="BitstreamVeraSans-Roman-2f"/>
      <path d="M 52 44.1875 
Q 55.375 50.25 60.0625 53.125 
Q 64.75 56 71.09375 56 
Q 79.640625 56 84.28125 50.015625 
Q 88.921875 44.046875 88.921875 33.015625 
L 88.921875 0 
L 79.890625 0 
L 79.890625 32.71875 
Q 79.890625 40.578125 77.09375 44.375 
Q 74.3125 48.1875 68.609375 48.1875 
Q 61.625 48.1875 57.5625 43.546875 
Q 53.515625 38.921875 53.515625 30.90625 
L 53.515625 0 
L 44.484375 0 
L 44.484375 32.71875 
Q 44.484375 40.625 41.703125 44.40625 
Q 38.921875 48.1875 33.109375 48.1875 
Q 26.21875 48.1875 22.15625 43.53125 
Q 18.109375 38.875 18.109375 30.90625 
L 18.109375 0 
L 9.078125 0 
L 9.078125 54.6875 
L 18.109375 54.6875 
L 18.109375 46.1875 
Q 21.1875 51.21875 25.484375 53.609375 
Q 29.78125 56 35.6875 56 
Q 41.65625 56 45.828125 52.96875 
Q 50 49.953125 52 44.1875 
" id="BitstreamVeraSans-Roman-6d"/>
      <path d="M 9.421875 75.984375 
L 18.40625 75.984375 
L 18.40625 0 
L 9.421875 0 
z
" id="BitstreamVeraSans-Roman-6c"/>
      <path d="M 30.609375 48.390625 
Q 23.390625 48.390625 19.1875 42.75 
Q 14.984375 37.109375 14.984375 27.296875 
Q 14.984375 17.484375 19.15625 11.84375 
Q 23.34375 6.203125 30.609375 6.203125 
Q 37.796875 6.203125 41.984375 11.859375 
Q 46.1875 17.53125 46.1875 27.296875 
Q 46.1875 37.015625 41.984375 42.703125 
Q 37.796875 48.390625 30.609375 48.390625 
M 30.609375 56 
Q 42.328125 56 49.015625 48.375 
Q 55.71875 40.765625 55.71875 27.296875 
Q 55.71875 13.875 49.015625 6.21875 
Q 42.328125 -1.421875 30.609375 -1.421875 
Q 18.84375 -1.421875 12.171875 6.21875 
Q 5.515625 13.875 5.515625 27.296875 
Q 5.515625 40.765625 12.171875 48.375 
Q 18.84375 56 30.609375 56 
" id="BitstreamVeraSans-Roman-6f"/>
     </defs>
     <g transform="translate(52.869375 241.3209375)rotate(-90.0)scale(0.12 -0.12)">
      <use xlink:href="#BitstreamVeraSans-Roman-6b"/>
      <use x="57.91015625" xlink:href="#BitstreamVeraSans-Roman-63"/>
      <use x="112.890625" xlink:href="#BitstreamVeraSans-Roman-61"/>
      <use x="174.169921875" xlink:href="#BitstreamVeraSans-Roman-6c"/>
      <use x="201.953125" xlink:href="#BitstreamVeraSans-Roman-2f"/>
      <use x="235.64453125" xlink:href="#BitstreamVeraSans-Roman-6d"/>
      <use x="333.056640625" xlink:href="#BitstreamVeraSans-Roman-6f"/>
      <use x="394.23828125" xlink:href="#BitstreamVeraSans-Roman-6c"/>
     </g>
    </g>
   </g>
   <g id="text_20">
    <!-- H5-C5-C6-H7 -->
    <defs>
     <path d="M 9.8125 72.90625 
L 19.671875 72.90625 
L 19.671875 43.015625 
L 55.515625 43.015625 
L 55.515625 72.90625 
L 65.375 72.90625 
L 65.375 0 
L 55.515625 0 
L 55.515625 34.71875 
L 19.671875 34.71875 
L 19.671875 0 
L 9.8125 0 
z
" id="BitstreamVeraSans-Roman-48"/>
     <path d="M 4.890625 31.390625 
L 31.203125 31.390625 
L 31.203125 23.390625 
L 4.890625 23.390625 
z
" id="BitstreamVeraSans-Roman-2d"/>
     <path d="M 64.40625 67.28125 
L 64.40625 56.890625 
Q 59.421875 61.53125 53.78125 63.8125 
Q 48.140625 66.109375 41.796875 66.109375 
Q 29.296875 66.109375 22.65625 58.46875 
Q 16.015625 50.828125 16.015625 36.375 
Q 16.015625 21.96875 22.65625 14.328125 
Q 29.296875 6.6875 41.796875 6.6875 
Q 48.140625 6.6875 53.78125 8.984375 
Q 59.421875 11.28125 64.40625 15.921875 
L 64.40625 5.609375 
Q 59.234375 2.09375 53.4375 0.328125 
Q 47.65625 -1.421875 41.21875 -1.421875 
Q 24.65625 -1.421875 15.125 8.703125 
Q 5.609375 18.84375 5.609375 36.375 
Q 5.609375 53.953125 15.125 64.078125 
Q 24.65625 74.21875 41.21875 74.21875 
Q 47.75 74.21875 53.53125 72.484375 
Q 59.328125 70.75 64.40625 67.28125 
" id="BitstreamVeraSans-Roman-43"/>
    </defs>
    <g transform="translate(248.198625 38.2)scale(0.144 -0.144)">
     <use xlink:href="#BitstreamVeraSans-Roman-48"/>
     <use x="75.1953125" xlink:href="#BitstreamVeraSans-Roman-35"/>
     <use x="138.818359375" xlink:href="#BitstreamVeraSans-Roman-2d"/>
     <use x="174.90234375" xlink:href="#BitstreamVeraSans-Roman-43"/>
     <use x="244.7265625" xlink:href="#BitstreamVeraSans-Roman-35"/>
     <use x="308.349609375" xlink:href="#BitstreamVeraSans-Roman-2d"/>
     <use x="344.43359375" xlink:href="#BitstreamVeraSans-Roman-43"/>
     <use x="414.2578125" xlink:href="#BitstreamVeraSans-Roman-36"/>
     <use x="477.880859375" xlink:href="#BitstreamVeraSans-Roman-2d"/>
     <use x="513.96484375" xlink:href="#BitstreamVeraSans-Roman-48"/>
     <use x="589.16015625" xlink:href="#BitstreamVeraSans-Roman-37"/>
    </g>
   </g>
   <g id="legend_1">
    <g id="patch_7">
     <path d="M 406.15625 108.3125 
L 514.4 108.3125 
L 514.4 47.2 
L 406.15625 47.2 
z
" style="fill:#ffffff;stroke:#000000;stroke-linejoin:miter;"/>
    </g>
    <g id="line2d_40">
     <path d="M 411.75625 53.67875 
L 422.95625 53.67875 
" style="fill:none;stroke:#ff0000;stroke-linecap:square;"/>
    </g>
    <g id="line2d_41">
     <g>
      <use style="fill:#ff0000;stroke:#000000;stroke-width:0.5;" x="411.75625" xlink:href="#m2823dc95d9" y="53.67875"/>
      <use style="fill:#ff0000;stroke:#000000;stroke-width:0.5;" x="422.95625" xlink:href="#m2823dc95d9" y="53.67875"/>
     </g>
    </g>
    <g id="text_21">
     <!-- QM -->
     <defs>
      <path d="M 9.8125 72.90625 
L 24.515625 72.90625 
L 43.109375 23.296875 
L 61.8125 72.90625 
L 76.515625 72.90625 
L 76.515625 0 
L 66.890625 0 
L 66.890625 64.015625 
L 48.09375 14.015625 
L 38.1875 14.015625 
L 19.390625 64.015625 
L 19.390625 0 
L 9.8125 0 
z
" id="BitstreamVeraSans-Roman-4d"/>
      <path d="M 39.40625 66.21875 
Q 28.65625 66.21875 22.328125 58.203125 
Q 16.015625 50.203125 16.015625 36.375 
Q 16.015625 22.609375 22.328125 14.59375 
Q 28.65625 6.59375 39.40625 6.59375 
Q 50.140625 6.59375 56.421875 14.59375 
Q 62.703125 22.609375 62.703125 36.375 
Q 62.703125 50.203125 56.421875 58.203125 
Q 50.140625 66.21875 39.40625 66.21875 
M 53.21875 1.3125 
L 66.21875 -12.890625 
L 54.296875 -12.890625 
L 43.5 -1.21875 
Q 41.890625 -1.3125 41.03125 -1.359375 
Q 40.1875 -1.421875 39.40625 -1.421875 
Q 24.03125 -1.421875 14.8125 8.859375 
Q 5.609375 19.140625 5.609375 36.375 
Q 5.609375 53.65625 14.8125 63.9375 
Q 24.03125 74.21875 39.40625 74.21875 
Q 54.734375 74.21875 63.90625 63.9375 
Q 73.09375 53.65625 73.09375 36.375 
Q 73.09375 23.6875 67.984375 14.640625 
Q 62.890625 5.609375 53.21875 1.3125 
" id="BitstreamVeraSans-Roman-51"/>
     </defs>
     <g transform="translate(431.75625 56.47875)scale(0.08 -0.08)">
      <use xlink:href="#BitstreamVeraSans-Roman-51"/>
      <use x="78.7109375" xlink:href="#BitstreamVeraSans-Roman-4d"/>
     </g>
    </g>
    <g id="line2d_42">
     <path d="M 411.75625 65.42125 
L 422.95625 65.42125 
" style="fill:none;stroke:#0000ff;stroke-linecap:square;"/>
    </g>
    <g id="line2d_43">
     <g>
      <use style="fill:#0000ff;stroke:#000000;stroke-width:0.5;" x="411.75625" xlink:href="#m416c2c60e4" y="65.42125"/>
      <use style="fill:#0000ff;stroke:#000000;stroke-width:0.5;" x="422.95625" xlink:href="#m416c2c60e4" y="65.42125"/>
     </g>
    </g>
    <g id="text_22">
     <!-- MM Original -->
     <defs>
      <path d="M 54.890625 33.015625 
L 54.890625 0 
L 45.90625 0 
L 45.90625 32.71875 
Q 45.90625 40.484375 42.875 44.328125 
Q 39.84375 48.1875 33.796875 48.1875 
Q 26.515625 48.1875 22.3125 43.546875 
Q 18.109375 38.921875 18.109375 30.90625 
L 18.109375 0 
L 9.078125 0 
L 9.078125 54.6875 
L 18.109375 54.6875 
L 18.109375 46.1875 
Q 21.34375 51.125 25.703125 53.5625 
Q 30.078125 56 35.796875 56 
Q 45.21875 56 50.046875 50.171875 
Q 54.890625 44.34375 54.890625 33.015625 
" id="BitstreamVeraSans-Roman-6e"/>
      <path d="M 41.109375 46.296875 
Q 39.59375 47.171875 37.8125 47.578125 
Q 36.03125 48 33.890625 48 
Q 26.265625 48 22.1875 43.046875 
Q 18.109375 38.09375 18.109375 28.8125 
L 18.109375 0 
L 9.078125 0 
L 9.078125 54.6875 
L 18.109375 54.6875 
L 18.109375 46.1875 
Q 20.953125 51.171875 25.484375 53.578125 
Q 30.03125 56 36.53125 56 
Q 37.453125 56 38.578125 55.875 
Q 39.703125 55.765625 41.0625 55.515625 
z
" id="BitstreamVeraSans-Roman-72"/>
      <path d="M 39.40625 66.21875 
Q 28.65625 66.21875 22.328125 58.203125 
Q 16.015625 50.203125 16.015625 36.375 
Q 16.015625 22.609375 22.328125 14.59375 
Q 28.65625 6.59375 39.40625 6.59375 
Q 50.140625 6.59375 56.421875 14.59375 
Q 62.703125 22.609375 62.703125 36.375 
Q 62.703125 50.203125 56.421875 58.203125 
Q 50.140625 66.21875 39.40625 66.21875 
M 39.40625 74.21875 
Q 54.734375 74.21875 63.90625 63.9375 
Q 73.09375 53.65625 73.09375 36.375 
Q 73.09375 19.140625 63.90625 8.859375 
Q 54.734375 -1.421875 39.40625 -1.421875 
Q 24.03125 -1.421875 14.8125 8.828125 
Q 5.609375 19.09375 5.609375 36.375 
Q 5.609375 53.65625 14.8125 63.9375 
Q 24.03125 74.21875 39.40625 74.21875 
" id="BitstreamVeraSans-Roman-4f"/>
      <path d="M 45.40625 27.984375 
Q 45.40625 37.75 41.375 43.109375 
Q 37.359375 48.484375 30.078125 48.484375 
Q 22.859375 48.484375 18.828125 43.109375 
Q 14.796875 37.75 14.796875 27.984375 
Q 14.796875 18.265625 18.828125 12.890625 
Q 22.859375 7.515625 30.078125 7.515625 
Q 37.359375 7.515625 41.375 12.890625 
Q 45.40625 18.265625 45.40625 27.984375 
M 54.390625 6.78125 
Q 54.390625 -7.171875 48.1875 -13.984375 
Q 42 -20.796875 29.203125 -20.796875 
Q 24.46875 -20.796875 20.265625 -20.09375 
Q 16.0625 -19.390625 12.109375 -17.921875 
L 12.109375 -9.1875 
Q 16.0625 -11.328125 19.921875 -12.34375 
Q 23.78125 -13.375 27.78125 -13.375 
Q 36.625 -13.375 41.015625 -8.765625 
Q 45.40625 -4.15625 45.40625 5.171875 
L 45.40625 9.625 
Q 42.625 4.78125 38.28125 2.390625 
Q 33.9375 0 27.875 0 
Q 17.828125 0 11.671875 7.65625 
Q 5.515625 15.328125 5.515625 27.984375 
Q 5.515625 40.671875 11.671875 48.328125 
Q 17.828125 56 27.875 56 
Q 33.9375 56 38.28125 53.609375 
Q 42.625 51.21875 45.40625 46.390625 
L 45.40625 54.6875 
L 54.390625 54.6875 
z
" id="BitstreamVeraSans-Roman-67"/>
      <path id="BitstreamVeraSans-Roman-20"/>
     </defs>
     <g transform="translate(431.75625 68.22125)scale(0.08 -0.08)">
      <use xlink:href="#BitstreamVeraSans-Roman-4d"/>
      <use x="86.279296875" xlink:href="#BitstreamVeraSans-Roman-4d"/>
      <use x="172.55859375" xlink:href="#BitstreamVeraSans-Roman-20"/>
      <use x="204.345703125" xlink:href="#BitstreamVeraSans-Roman-4f"/>
      <use x="283.056640625" xlink:href="#BitstreamVeraSans-Roman-72"/>
      <use x="324.169921875" xlink:href="#BitstreamVeraSans-Roman-69"/>
      <use x="351.953125" xlink:href="#BitstreamVeraSans-Roman-67"/>
      <use x="415.4296875" xlink:href="#BitstreamVeraSans-Roman-69"/>
      <use x="443.212890625" xlink:href="#BitstreamVeraSans-Roman-6e"/>
      <use x="506.591796875" xlink:href="#BitstreamVeraSans-Roman-61"/>
      <use x="567.87109375" xlink:href="#BitstreamVeraSans-Roman-6c"/>
     </g>
    </g>
    <g id="line2d_44">
     <path d="M 411.75625 77.16375 
L 422.95625 77.16375 
" style="fill:none;stroke:#000000;stroke-linecap:square;"/>
    </g>
    <g id="line2d_45">
     <g>
      <use style="stroke:#000000;stroke-width:0.5;" x="411.75625" xlink:href="#m4ad95aca17" y="77.16375"/>
      <use style="stroke:#000000;stroke-width:0.5;" x="422.95625" xlink:href="#m4ad95aca17" y="77.16375"/>
     </g>
    </g>
    <g id="text_23">
     <!-- MM With phi zeroed -->
     <defs>
      <path d="M 45.40625 46.390625 
L 45.40625 75.984375 
L 54.390625 75.984375 
L 54.390625 0 
L 45.40625 0 
L 45.40625 8.203125 
Q 42.578125 3.328125 38.25 0.953125 
Q 33.9375 -1.421875 27.875 -1.421875 
Q 17.96875 -1.421875 11.734375 6.484375 
Q 5.515625 14.40625 5.515625 27.296875 
Q 5.515625 40.1875 11.734375 48.09375 
Q 17.96875 56 27.875 56 
Q 33.9375 56 38.25 53.625 
Q 42.578125 51.265625 45.40625 46.390625 
M 14.796875 27.296875 
Q 14.796875 17.390625 18.875 11.75 
Q 22.953125 6.109375 30.078125 6.109375 
Q 37.203125 6.109375 41.296875 11.75 
Q 45.40625 17.390625 45.40625 27.296875 
Q 45.40625 37.203125 41.296875 42.84375 
Q 37.203125 48.484375 30.078125 48.484375 
Q 22.953125 48.484375 18.875 42.84375 
Q 14.796875 37.203125 14.796875 27.296875 
" id="BitstreamVeraSans-Roman-64"/>
      <path d="M 18.3125 70.21875 
L 18.3125 54.6875 
L 36.8125 54.6875 
L 36.8125 47.703125 
L 18.3125 47.703125 
L 18.3125 18.015625 
Q 18.3125 11.328125 20.140625 9.421875 
Q 21.96875 7.515625 27.59375 7.515625 
L 36.8125 7.515625 
L 36.8125 0 
L 27.59375 0 
Q 17.1875 0 13.234375 3.875 
Q 9.28125 7.765625 9.28125 18.015625 
L 9.28125 47.703125 
L 2.6875 47.703125 
L 2.6875 54.6875 
L 9.28125 54.6875 
L 9.28125 70.21875 
z
" id="BitstreamVeraSans-Roman-74"/>
      <path d="M 5.515625 54.6875 
L 48.1875 54.6875 
L 48.1875 46.484375 
L 14.40625 7.171875 
L 48.1875 7.171875 
L 48.1875 0 
L 4.296875 0 
L 4.296875 8.203125 
L 38.09375 47.515625 
L 5.515625 47.515625 
z
" id="BitstreamVeraSans-Roman-7a"/>
      <path d="M 18.109375 8.203125 
L 18.109375 -20.796875 
L 9.078125 -20.796875 
L 9.078125 54.6875 
L 18.109375 54.6875 
L 18.109375 46.390625 
Q 20.953125 51.265625 25.265625 53.625 
Q 29.59375 56 35.59375 56 
Q 45.5625 56 51.78125 48.09375 
Q 58.015625 40.1875 58.015625 27.296875 
Q 58.015625 14.40625 51.78125 6.484375 
Q 45.5625 -1.421875 35.59375 -1.421875 
Q 29.59375 -1.421875 25.265625 0.953125 
Q 20.953125 3.328125 18.109375 8.203125 
M 48.6875 27.296875 
Q 48.6875 37.203125 44.609375 42.84375 
Q 40.53125 48.484375 33.40625 48.484375 
Q 26.265625 48.484375 22.1875 42.84375 
Q 18.109375 37.203125 18.109375 27.296875 
Q 18.109375 17.390625 22.1875 11.75 
Q 26.265625 6.109375 33.40625 6.109375 
Q 40.53125 6.109375 44.609375 11.75 
Q 48.6875 17.390625 48.6875 27.296875 
" id="BitstreamVeraSans-Roman-70"/>
      <path d="M 3.328125 72.90625 
L 13.28125 72.90625 
L 28.609375 11.28125 
L 43.890625 72.90625 
L 54.984375 72.90625 
L 70.3125 11.28125 
L 85.59375 72.90625 
L 95.609375 72.90625 
L 77.296875 0 
L 64.890625 0 
L 49.515625 63.28125 
L 33.984375 0 
L 21.578125 0 
z
" id="BitstreamVeraSans-Roman-57"/>
      <path d="M 56.203125 29.59375 
L 56.203125 25.203125 
L 14.890625 25.203125 
Q 15.484375 15.921875 20.484375 11.0625 
Q 25.484375 6.203125 34.421875 6.203125 
Q 39.59375 6.203125 44.453125 7.46875 
Q 49.3125 8.734375 54.109375 11.28125 
L 54.109375 2.78125 
Q 49.265625 0.734375 44.1875 -0.34375 
Q 39.109375 -1.421875 33.890625 -1.421875 
Q 20.796875 -1.421875 13.15625 6.1875 
Q 5.515625 13.8125 5.515625 26.8125 
Q 5.515625 40.234375 12.765625 48.109375 
Q 20.015625 56 32.328125 56 
Q 43.359375 56 49.78125 48.890625 
Q 56.203125 41.796875 56.203125 29.59375 
M 47.21875 32.234375 
Q 47.125 39.59375 43.09375 43.984375 
Q 39.0625 48.390625 32.421875 48.390625 
Q 24.90625 48.390625 20.390625 44.140625 
Q 15.875 39.890625 15.1875 32.171875 
z
" id="BitstreamVeraSans-Roman-65"/>
     </defs>
     <g transform="translate(431.75625 79.96375)scale(0.08 -0.08)">
      <use xlink:href="#BitstreamVeraSans-Roman-4d"/>
      <use x="86.279296875" xlink:href="#BitstreamVeraSans-Roman-4d"/>
      <use x="172.55859375" xlink:href="#BitstreamVeraSans-Roman-20"/>
      <use x="204.345703125" xlink:href="#BitstreamVeraSans-Roman-57"/>
      <use x="303.19140625" xlink:href="#BitstreamVeraSans-Roman-69"/>
      <use x="330.974609375" xlink:href="#BitstreamVeraSans-Roman-74"/>
      <use x="370.18359375" xlink:href="#BitstreamVeraSans-Roman-68"/>
      <use x="433.5625" xlink:href="#BitstreamVeraSans-Roman-20"/>
      <use x="465.349609375" xlink:href="#BitstreamVeraSans-Roman-70"/>
      <use x="528.826171875" xlink:href="#BitstreamVeraSans-Roman-68"/>
      <use x="592.205078125" xlink:href="#BitstreamVeraSans-Roman-69"/>
      <use x="619.98828125" xlink:href="#BitstreamVeraSans-Roman-20"/>
      <use x="651.775390625" xlink:href="#BitstreamVeraSans-Roman-7a"/>
      <use x="704.265625" xlink:href="#BitstreamVeraSans-Roman-65"/>
      <use x="765.7890625" xlink:href="#BitstreamVeraSans-Roman-72"/>
      <use x="806.87109375" xlink:href="#BitstreamVeraSans-Roman-6f"/>
      <use x="868.052734375" xlink:href="#BitstreamVeraSans-Roman-65"/>
      <use x="929.576171875" xlink:href="#BitstreamVeraSans-Roman-64"/>
     </g>
    </g>
    <g id="line2d_46">
     <path d="M 411.75625 88.90625 
L 422.95625 88.90625 
" style="fill:none;stroke:#ff00ff;stroke-linecap:square;"/>
    </g>
    <g id="line2d_47">
     <g>
      <use style="fill:#ff00ff;stroke:#ff00ff;stroke-width:0.5;" x="411.75625" xlink:href="#m283204a295" y="88.90625"/>
      <use style="fill:#ff00ff;stroke:#ff00ff;stroke-width:0.5;" x="422.95625" xlink:href="#m283204a295" y="88.90625"/>
     </g>
    </g>
    <g id="text_24">
     <!-- QM-MM target -->
     <g transform="translate(431.75625 91.70625)scale(0.08 -0.08)">
      <use xlink:href="#BitstreamVeraSans-Roman-51"/>
      <use x="78.7109375" xlink:href="#BitstreamVeraSans-Roman-4d"/>
      <use x="164.990234375" xlink:href="#BitstreamVeraSans-Roman-2d"/>
      <use x="201.07421875" xlink:href="#BitstreamVeraSans-Roman-4d"/>
      <use x="287.353515625" xlink:href="#BitstreamVeraSans-Roman-4d"/>
      <use x="373.6328125" xlink:href="#BitstreamVeraSans-Roman-20"/>
      <use x="405.419921875" xlink:href="#BitstreamVeraSans-Roman-74"/>
      <use x="444.62890625" xlink:href="#BitstreamVeraSans-Roman-61"/>
      <use x="505.908203125" xlink:href="#BitstreamVeraSans-Roman-72"/>
      <use x="547.005859375" xlink:href="#BitstreamVeraSans-Roman-67"/>
      <use x="610.482421875" xlink:href="#BitstreamVeraSans-Roman-65"/>
      <use x="672.005859375" xlink:href="#BitstreamVeraSans-Roman-74"/>
     </g>
    </g>
    <g id="line2d_48">
     <path d="M 411.75625 100.64875 
L 422.95625 100.64875 
" style="fill:none;stroke:#008000;stroke-linecap:square;"/>
    </g>
    <g id="line2d_49">
     <g>
      <use style="fill:#008000;stroke:#000000;stroke-width:0.5;" x="411.75625" xlink:href="#m21b9786004" y="100.64875"/>
      <use style="fill:#008000;stroke:#000000;stroke-width:0.5;" x="422.95625" xlink:href="#m21b9786004" y="100.64875"/>
     </g>
    </g>
    <g id="text_25">
     <!-- MM Fitted -->
     <defs>
      <path d="M 9.8125 72.90625 
L 51.703125 72.90625 
L 51.703125 64.59375 
L 19.671875 64.59375 
L 19.671875 43.109375 
L 48.578125 43.109375 
L 48.578125 34.8125 
L 19.671875 34.8125 
L 19.671875 0 
L 9.8125 0 
z
" id="BitstreamVeraSans-Roman-46"/>
     </defs>
     <g transform="translate(431.75625 103.44875)scale(0.08 -0.08)">
      <use xlink:href="#BitstreamVeraSans-Roman-4d"/>
      <use x="86.279296875" xlink:href="#BitstreamVeraSans-Roman-4d"/>
      <use x="172.55859375" xlink:href="#BitstreamVeraSans-Roman-20"/>
      <use x="204.345703125" xlink:href="#BitstreamVeraSans-Roman-46"/>
      <use x="261.755859375" xlink:href="#BitstreamVeraSans-Roman-69"/>
      <use x="289.5390625" xlink:href="#BitstreamVeraSans-Roman-74"/>
      <use x="328.748046875" xlink:href="#BitstreamVeraSans-Roman-74"/>
      <use x="367.95703125" xlink:href="#BitstreamVeraSans-Roman-65"/>
      <use x="429.48046875" xlink:href="#BitstreamVeraSans-Roman-64"/>
     </g>
    </g>
   </g>
  </g>
 </g>
 <defs>
  <clipPath id="pd407bd31ce">
   <rect height="345.6" width="446.4" x="72.0" y="43.2"/>
  </clipPath>
 </defs>
</svg>
