<?xml version="1.0" encoding="utf-8" standalone="no"?>
<!DOCTYPE svg PUBLIC "-//W3C//DTD SVG 1.1//EN"
  "http://www.w3.org/Graphics/SVG/1.1/DTD/svg11.dtd">
<!-- Created with matplotlib (http://matplotlib.org/) -->
<svg height="432pt" version="1.1" viewBox="0 0 576 432" width="576pt" xmlns="http://www.w3.org/2000/svg" xmlns:xlink="http://www.w3.org/1999/xlink">
 <defs>
  <style type="text/css">
*{stroke-linecap:butt;stroke-linejoin:round;stroke-miterlimit:100000;}
  </style>
 </defs>
 <g id="figure_1">
  <g id="patch_1">
   <path d="M 0 432 
L 576 432 
L 576 0 
L 0 0 
z
" style="fill:#ffffff;"/>
  </g>
  <g id="axes_1">
   <g id="patch_2">
    <path d="M 72 388.8 
L 518.4 388.8 
L 518.4 43.2 
L 72 43.2 
z
" style="fill:#ffffff;"/>
   </g>
   <g id="line2d_1">
    <path clip-path="url(#pf0ab054f0d)" d="M 71.999181 336.318052 
L 84.399977 315.424404 
L 96.799988 272.848274 
L 109.199988 213.491844 
L 121.599968 148.95796 
L 133.999968 95.809435 
L 146.399968 81.224184 
L 158.799962 108.632125 
L 171.199985 157.09999 
L 183.599967 210.976088 
L 196.000008 257.11978 
L 208.399995 287.082896 
L 220.799976 296.693571 
L 233.199977 290.95427 
L 245.600004 289.131998 
L 257.999984 288.718122 
L 270.400007 276.644808 
L 282.800021 259.18417 
L 295.200235 249.829232 
L 307.599993 258.843951 
L 320.000004 285.583464 
L 332.400011 321.410099 
L 344.800021 355.720371 
L 357.200036 379.872284 
L 369.600005 388.8 
L 382.000012 380.940024 
L 394.400013 357.875164 
L 406.80004 324.385522 
L 419.200031 288.332338 
L 431.600015 259.486406 
L 444.000034 246.728089 
L 456.400027 253.82424 
L 468.800012 276.721214 
L 481.199987 304.77426 
L 493.600004 327.00333 
L 505.999977 338.268144 
" style="fill:none;stroke:#ff0000;stroke-linecap:square;"/>
    <defs>
     <path d="M 0 3 
C 0.795609 3 1.55874 2.683901 2.12132 2.12132 
C 2.683901 1.55874 3 0.795609 3 0 
C 3 -0.795609 2.683901 -1.55874 2.12132 -2.12132 
C 1.55874 -2.683901 0.795609 -3 0 -3 
C -0.795609 -3 -1.55874 -2.683901 -2.12132 -2.12132 
C -2.683901 -1.55874 -3 -0.795609 -3 0 
C -3 0.795609 -2.683901 1.55874 -2.12132 2.12132 
C -1.55874 2.683901 -0.795609 3 0 3 
z
" id="mc39bd2ebc5" style="stroke:#000000;stroke-width:0.5;"/>
    </defs>
    <g clip-path="url(#pf0ab054f0d)">
     <use style="fill:#ff0000;stroke:#000000;stroke-width:0.5;" x="71.9991806016" xlink:href="#mc39bd2ebc5" y="336.318052403"/>
     <use style="fill:#ff0000;stroke:#000000;stroke-width:0.5;" x="84.3999770916" xlink:href="#mc39bd2ebc5" y="315.424404444"/>
     <use style="fill:#ff0000;stroke:#000000;stroke-width:0.5;" x="96.7999878136" xlink:href="#mc39bd2ebc5" y="272.84827407"/>
     <use style="fill:#ff0000;stroke:#000000;stroke-width:0.5;" x="109.199988341" xlink:href="#mc39bd2ebc5" y="213.491844392"/>
     <use style="fill:#ff0000;stroke:#000000;stroke-width:0.5;" x="121.599967625" xlink:href="#mc39bd2ebc5" y="148.957960236"/>
     <use style="fill:#ff0000;stroke:#000000;stroke-width:0.5;" x="133.999967718" xlink:href="#mc39bd2ebc5" y="95.8094353337"/>
     <use style="fill:#ff0000;stroke:#000000;stroke-width:0.5;" x="146.399968257" xlink:href="#mc39bd2ebc5" y="81.2241838021"/>
     <use style="fill:#ff0000;stroke:#000000;stroke-width:0.5;" x="158.799961589" xlink:href="#mc39bd2ebc5" y="108.632124717"/>
     <use style="fill:#ff0000;stroke:#000000;stroke-width:0.5;" x="171.199985181" xlink:href="#mc39bd2ebc5" y="157.099989693"/>
     <use style="fill:#ff0000;stroke:#000000;stroke-width:0.5;" x="183.599967187" xlink:href="#mc39bd2ebc5" y="210.97608799"/>
     <use style="fill:#ff0000;stroke:#000000;stroke-width:0.5;" x="196.000007826" xlink:href="#mc39bd2ebc5" y="257.119780307"/>
     <use style="fill:#ff0000;stroke:#000000;stroke-width:0.5;" x="208.399994564" xlink:href="#mc39bd2ebc5" y="287.082895783"/>
     <use style="fill:#ff0000;stroke:#000000;stroke-width:0.5;" x="220.79997566" xlink:href="#mc39bd2ebc5" y="296.693570941"/>
     <use style="fill:#ff0000;stroke:#000000;stroke-width:0.5;" x="233.199977177" xlink:href="#mc39bd2ebc5" y="290.954270338"/>
     <use style="fill:#ff0000;stroke:#000000;stroke-width:0.5;" x="245.600004095" xlink:href="#mc39bd2ebc5" y="289.13199821"/>
     <use style="fill:#ff0000;stroke:#000000;stroke-width:0.5;" x="257.999984282" xlink:href="#mc39bd2ebc5" y="288.718121722"/>
     <use style="fill:#ff0000;stroke:#000000;stroke-width:0.5;" x="270.400006553" xlink:href="#mc39bd2ebc5" y="276.6448082"/>
     <use style="fill:#ff0000;stroke:#000000;stroke-width:0.5;" x="282.800020825" xlink:href="#mc39bd2ebc5" y="259.18416983"/>
     <use style="fill:#ff0000;stroke:#000000;stroke-width:0.5;" x="295.200234763" xlink:href="#mc39bd2ebc5" y="249.82923235"/>
     <use style="fill:#ff0000;stroke:#000000;stroke-width:0.5;" x="307.599993059" xlink:href="#mc39bd2ebc5" y="258.843951074"/>
     <use style="fill:#ff0000;stroke:#000000;stroke-width:0.5;" x="320.000004175" xlink:href="#mc39bd2ebc5" y="285.583463841"/>
     <use style="fill:#ff0000;stroke:#000000;stroke-width:0.5;" x="332.400011105" xlink:href="#mc39bd2ebc5" y="321.410098799"/>
     <use style="fill:#ff0000;stroke:#000000;stroke-width:0.5;" x="344.800021434" xlink:href="#mc39bd2ebc5" y="355.720371363"/>
     <use style="fill:#ff0000;stroke:#000000;stroke-width:0.5;" x="357.200035553" xlink:href="#mc39bd2ebc5" y="379.872283825"/>
     <use style="fill:#ff0000;stroke:#000000;stroke-width:0.5;" x="369.600005404" xlink:href="#mc39bd2ebc5" y="388.8"/>
     <use style="fill:#ff0000;stroke:#000000;stroke-width:0.5;" x="382.000011951" xlink:href="#mc39bd2ebc5" y="380.940023609"/>
     <use style="fill:#ff0000;stroke:#000000;stroke-width:0.5;" x="394.400012518" xlink:href="#mc39bd2ebc5" y="357.875164426"/>
     <use style="fill:#ff0000;stroke:#000000;stroke-width:0.5;" x="406.800040271" xlink:href="#mc39bd2ebc5" y="324.385521762"/>
     <use style="fill:#ff0000;stroke:#000000;stroke-width:0.5;" x="419.200031102" xlink:href="#mc39bd2ebc5" y="288.332337724"/>
     <use style="fill:#ff0000;stroke:#000000;stroke-width:0.5;" x="431.600014709" xlink:href="#mc39bd2ebc5" y="259.486405852"/>
     <use style="fill:#ff0000;stroke:#000000;stroke-width:0.5;" x="444.000034492" xlink:href="#mc39bd2ebc5" y="246.728088596"/>
     <use style="fill:#ff0000;stroke:#000000;stroke-width:0.5;" x="456.400027429" xlink:href="#mc39bd2ebc5" y="253.824240269"/>
     <use style="fill:#ff0000;stroke:#000000;stroke-width:0.5;" x="468.800011659" xlink:href="#mc39bd2ebc5" y="276.721214009"/>
     <use style="fill:#ff0000;stroke:#000000;stroke-width:0.5;" x="481.199987009" xlink:href="#mc39bd2ebc5" y="304.774260138"/>
     <use style="fill:#ff0000;stroke:#000000;stroke-width:0.5;" x="493.60000436" xlink:href="#mc39bd2ebc5" y="327.003329536"/>
     <use style="fill:#ff0000;stroke:#000000;stroke-width:0.5;" x="505.99997714" xlink:href="#mc39bd2ebc5" y="338.268143995"/>
    </g>
   </g>
   <g id="line2d_2">
    <path clip-path="url(#pf0ab054f0d)" d="M 71.999181 379.23816 
L 84.399977 360.003028 
L 96.799988 321.829292 
L 109.199988 265.268032 
L 121.599968 200.270895 
L 133.999968 151.870285 
L 146.399968 143.190395 
L 158.799962 169.006448 
L 171.199985 218.68612 
L 183.599967 269.151415 
L 196.000008 308.709226 
L 208.399995 329.112684 
L 220.799976 337.36151 
L 233.199977 341.34368 
L 245.600004 336.379031 
L 257.999984 306.681949 
L 270.400007 274.285437 
L 282.800021 245.452589 
L 295.200235 231.847439 
L 307.599993 240.265099 
L 320.000004 269.45781 
L 332.400011 310.453249 
L 344.800021 350.318108 
L 357.200036 379.574344 
L 369.600005 388.8 
L 382.000012 376.918503 
L 394.400013 346.128611 
L 406.80004 304.953279 
L 419.200031 264.325154 
L 431.600015 235.039156 
L 444.000034 225.916074 
L 456.400027 239.947269 
L 468.800012 273.077575 
L 481.199987 315.913204 
L 493.600004 355.21784 
L 505.999977 378.630549 
" style="fill:none;stroke:#0000ff;stroke-linecap:square;"/>
    <defs>
     <path d="M 0 3 
C 0.795609 3 1.55874 2.683901 2.12132 2.12132 
C 2.683901 1.55874 3 0.795609 3 0 
C 3 -0.795609 2.683901 -1.55874 2.12132 -2.12132 
C 1.55874 -2.683901 0.795609 -3 0 -3 
C -0.795609 -3 -1.55874 -2.683901 -2.12132 -2.12132 
C -2.683901 -1.55874 -3 -0.795609 -3 0 
C -3 0.795609 -2.683901 1.55874 -2.12132 2.12132 
C -1.55874 2.683901 -0.795609 3 0 3 
z
" id="m898de9b890" style="stroke:#000000;stroke-width:0.5;"/>
    </defs>
    <g clip-path="url(#pf0ab054f0d)">
     <use style="fill:#0000ff;stroke:#000000;stroke-width:0.5;" x="71.9991806016" xlink:href="#m898de9b890" y="379.2381595"/>
     <use style="fill:#0000ff;stroke:#000000;stroke-width:0.5;" x="84.3999770916" xlink:href="#m898de9b890" y="360.003028001"/>
     <use style="fill:#0000ff;stroke:#000000;stroke-width:0.5;" x="96.7999878136" xlink:href="#m898de9b890" y="321.829291677"/>
     <use style="fill:#0000ff;stroke:#000000;stroke-width:0.5;" x="109.199988341" xlink:href="#m898de9b890" y="265.268031581"/>
     <use style="fill:#0000ff;stroke:#000000;stroke-width:0.5;" x="121.599967625" xlink:href="#m898de9b890" y="200.270894963"/>
     <use style="fill:#0000ff;stroke:#000000;stroke-width:0.5;" x="133.999967718" xlink:href="#m898de9b890" y="151.870285329"/>
     <use style="fill:#0000ff;stroke:#000000;stroke-width:0.5;" x="146.399968257" xlink:href="#m898de9b890" y="143.190395235"/>
     <use style="fill:#0000ff;stroke:#000000;stroke-width:0.5;" x="158.799961589" xlink:href="#m898de9b890" y="169.006447729"/>
     <use style="fill:#0000ff;stroke:#000000;stroke-width:0.5;" x="171.199985181" xlink:href="#m898de9b890" y="218.686119783"/>
     <use style="fill:#0000ff;stroke:#000000;stroke-width:0.5;" x="183.599967187" xlink:href="#m898de9b890" y="269.151414585"/>
     <use style="fill:#0000ff;stroke:#000000;stroke-width:0.5;" x="196.000007826" xlink:href="#m898de9b890" y="308.709226356"/>
     <use style="fill:#0000ff;stroke:#000000;stroke-width:0.5;" x="208.399994564" xlink:href="#m898de9b890" y="329.112683744"/>
     <use style="fill:#0000ff;stroke:#000000;stroke-width:0.5;" x="220.79997566" xlink:href="#m898de9b890" y="337.361509875"/>
     <use style="fill:#0000ff;stroke:#000000;stroke-width:0.5;" x="233.199977177" xlink:href="#m898de9b890" y="341.343679715"/>
     <use style="fill:#0000ff;stroke:#000000;stroke-width:0.5;" x="245.600004095" xlink:href="#m898de9b890" y="336.379031108"/>
     <use style="fill:#0000ff;stroke:#000000;stroke-width:0.5;" x="257.999984282" xlink:href="#m898de9b890" y="306.681948911"/>
     <use style="fill:#0000ff;stroke:#000000;stroke-width:0.5;" x="270.400006553" xlink:href="#m898de9b890" y="274.285436862"/>
     <use style="fill:#0000ff;stroke:#000000;stroke-width:0.5;" x="282.800020825" xlink:href="#m898de9b890" y="245.452589018"/>
     <use style="fill:#0000ff;stroke:#000000;stroke-width:0.5;" x="295.200234763" xlink:href="#m898de9b890" y="231.847439123"/>
     <use style="fill:#0000ff;stroke:#000000;stroke-width:0.5;" x="307.599993059" xlink:href="#m898de9b890" y="240.265098996"/>
     <use style="fill:#0000ff;stroke:#000000;stroke-width:0.5;" x="320.000004175" xlink:href="#m898de9b890" y="269.457810075"/>
     <use style="fill:#0000ff;stroke:#000000;stroke-width:0.5;" x="332.400011105" xlink:href="#m898de9b890" y="310.453249274"/>
     <use style="fill:#0000ff;stroke:#000000;stroke-width:0.5;" x="344.800021434" xlink:href="#m898de9b890" y="350.318108427"/>
     <use style="fill:#0000ff;stroke:#000000;stroke-width:0.5;" x="357.200035553" xlink:href="#m898de9b890" y="379.574343768"/>
     <use style="fill:#0000ff;stroke:#000000;stroke-width:0.5;" x="369.600005404" xlink:href="#m898de9b890" y="388.8"/>
     <use style="fill:#0000ff;stroke:#000000;stroke-width:0.5;" x="382.000011951" xlink:href="#m898de9b890" y="376.918502866"/>
     <use style="fill:#0000ff;stroke:#000000;stroke-width:0.5;" x="394.400012518" xlink:href="#m898de9b890" y="346.12861053"/>
     <use style="fill:#0000ff;stroke:#000000;stroke-width:0.5;" x="406.800040271" xlink:href="#m898de9b890" y="304.953279221"/>
     <use style="fill:#0000ff;stroke:#000000;stroke-width:0.5;" x="419.200031102" xlink:href="#m898de9b890" y="264.325153579"/>
     <use style="fill:#0000ff;stroke:#000000;stroke-width:0.5;" x="431.600014709" xlink:href="#m898de9b890" y="235.039156055"/>
     <use style="fill:#0000ff;stroke:#000000;stroke-width:0.5;" x="444.000034492" xlink:href="#m898de9b890" y="225.916074317"/>
     <use style="fill:#0000ff;stroke:#000000;stroke-width:0.5;" x="456.400027429" xlink:href="#m898de9b890" y="239.947268988"/>
     <use style="fill:#0000ff;stroke:#000000;stroke-width:0.5;" x="468.800011659" xlink:href="#m898de9b890" y="273.077575211"/>
     <use style="fill:#0000ff;stroke:#000000;stroke-width:0.5;" x="481.199987009" xlink:href="#m898de9b890" y="315.913204078"/>
     <use style="fill:#0000ff;stroke:#000000;stroke-width:0.5;" x="493.60000436" xlink:href="#m898de9b890" y="355.217839789"/>
     <use style="fill:#0000ff;stroke:#000000;stroke-width:0.5;" x="505.99997714" xlink:href="#m898de9b890" y="378.630549113"/>
    </g>
   </g>
   <g id="line2d_3">
    <path clip-path="url(#pf0ab054f0d)" d="M 71.999181 379.261552 
L 84.399977 362.787846 
L 96.799988 330.870582 
L 109.199988 282.677306 
L 121.599968 226.133788 
L 133.999968 183.790874 
L 146.399968 176.452397 
L 158.799962 198.500057 
L 171.199985 240.967345 
L 183.599967 282.973299 
L 196.000008 314.955796 
L 208.399995 330.408428 
L 220.799976 337.45602 
L 233.199977 344.456952 
L 245.600004 346.269525 
L 257.999984 324.755955 
L 270.400007 300.278099 
L 282.800021 277.214072 
L 295.200235 265.339736 
L 307.599993 270.598286 
L 320.000004 292.758568 
L 332.400011 325.109328 
L 344.800021 357.052231 
L 357.200036 381.028755 
L 369.600005 388.8 
L 382.000012 379.622613 
L 394.400013 355.087841 
L 406.80004 322.278352 
L 419.200031 290.010042 
L 431.600015 266.757042 
L 444.000034 259.414811 
L 456.400027 270.341993 
L 468.800012 296.541652 
L 481.199987 330.757078 
L 493.600004 362.056074 
L 505.999977 380.075203 
" style="fill:none;stroke:#000000;stroke-linecap:square;"/>
    <defs>
     <path d="M -3 3 
L 3 -3 
M -3 -3 
L 3 3 
" id="m0af97fce5e" style="stroke:#000000;stroke-width:0.5;"/>
    </defs>
    <g clip-path="url(#pf0ab054f0d)">
     <use style="stroke:#000000;stroke-width:0.5;" x="71.9991806016" xlink:href="#m0af97fce5e" y="379.261551831"/>
     <use style="stroke:#000000;stroke-width:0.5;" x="84.3999770916" xlink:href="#m0af97fce5e" y="362.787846193"/>
     <use style="stroke:#000000;stroke-width:0.5;" x="96.7999878136" xlink:href="#m0af97fce5e" y="330.870581794"/>
     <use style="stroke:#000000;stroke-width:0.5;" x="109.199988341" xlink:href="#m0af97fce5e" y="282.677306172"/>
     <use style="stroke:#000000;stroke-width:0.5;" x="121.599967625" xlink:href="#m0af97fce5e" y="226.133787693"/>
     <use style="stroke:#000000;stroke-width:0.5;" x="133.999967718" xlink:href="#m0af97fce5e" y="183.790873558"/>
     <use style="stroke:#000000;stroke-width:0.5;" x="146.399968257" xlink:href="#m0af97fce5e" y="176.452396589"/>
     <use style="stroke:#000000;stroke-width:0.5;" x="158.799961589" xlink:href="#m0af97fce5e" y="198.500057275"/>
     <use style="stroke:#000000;stroke-width:0.5;" x="171.199985181" xlink:href="#m0af97fce5e" y="240.967344973"/>
     <use style="stroke:#000000;stroke-width:0.5;" x="183.599967187" xlink:href="#m0af97fce5e" y="282.973299142"/>
     <use style="stroke:#000000;stroke-width:0.5;" x="196.000007826" xlink:href="#m0af97fce5e" y="314.955796195"/>
     <use style="stroke:#000000;stroke-width:0.5;" x="208.399994564" xlink:href="#m0af97fce5e" y="330.408427875"/>
     <use style="stroke:#000000;stroke-width:0.5;" x="220.79997566" xlink:href="#m0af97fce5e" y="337.456019993"/>
     <use style="stroke:#000000;stroke-width:0.5;" x="233.199977177" xlink:href="#m0af97fce5e" y="344.456951724"/>
     <use style="stroke:#000000;stroke-width:0.5;" x="245.600004095" xlink:href="#m0af97fce5e" y="346.269524605"/>
     <use style="stroke:#000000;stroke-width:0.5;" x="257.999984282" xlink:href="#m0af97fce5e" y="324.755954816"/>
     <use style="stroke:#000000;stroke-width:0.5;" x="270.400006553" xlink:href="#m0af97fce5e" y="300.278099359"/>
     <use style="stroke:#000000;stroke-width:0.5;" x="282.800020825" xlink:href="#m0af97fce5e" y="277.214072295"/>
     <use style="stroke:#000000;stroke-width:0.5;" x="295.200234763" xlink:href="#m0af97fce5e" y="265.339736213"/>
     <use style="stroke:#000000;stroke-width:0.5;" x="307.599993059" xlink:href="#m0af97fce5e" y="270.598286021"/>
     <use style="stroke:#000000;stroke-width:0.5;" x="320.000004175" xlink:href="#m0af97fce5e" y="292.758568115"/>
     <use style="stroke:#000000;stroke-width:0.5;" x="332.400011105" xlink:href="#m0af97fce5e" y="325.109328139"/>
     <use style="stroke:#000000;stroke-width:0.5;" x="344.800021434" xlink:href="#m0af97fce5e" y="357.052231175"/>
     <use style="stroke:#000000;stroke-width:0.5;" x="357.200035553" xlink:href="#m0af97fce5e" y="381.028755011"/>
     <use style="stroke:#000000;stroke-width:0.5;" x="369.600005404" xlink:href="#m0af97fce5e" y="388.8"/>
     <use style="stroke:#000000;stroke-width:0.5;" x="382.000011951" xlink:href="#m0af97fce5e" y="379.622612812"/>
     <use style="stroke:#000000;stroke-width:0.5;" x="394.400012518" xlink:href="#m0af97fce5e" y="355.087841105"/>
     <use style="stroke:#000000;stroke-width:0.5;" x="406.800040271" xlink:href="#m0af97fce5e" y="322.27835248"/>
     <use style="stroke:#000000;stroke-width:0.5;" x="419.200031102" xlink:href="#m0af97fce5e" y="290.010042294"/>
     <use style="stroke:#000000;stroke-width:0.5;" x="431.600014709" xlink:href="#m0af97fce5e" y="266.757042286"/>
     <use style="stroke:#000000;stroke-width:0.5;" x="444.000034492" xlink:href="#m0af97fce5e" y="259.414810561"/>
     <use style="stroke:#000000;stroke-width:0.5;" x="456.400027429" xlink:href="#m0af97fce5e" y="270.341992809"/>
     <use style="stroke:#000000;stroke-width:0.5;" x="468.800011659" xlink:href="#m0af97fce5e" y="296.541651665"/>
     <use style="stroke:#000000;stroke-width:0.5;" x="481.199987009" xlink:href="#m0af97fce5e" y="330.757078239"/>
     <use style="stroke:#000000;stroke-width:0.5;" x="493.60000436" xlink:href="#m0af97fce5e" y="362.056073885"/>
     <use style="stroke:#000000;stroke-width:0.5;" x="505.99997714" xlink:href="#m0af97fce5e" y="380.075202647"/>
    </g>
   </g>
   <g id="line2d_4">
    <path clip-path="url(#pf0ab054f0d)" d="M 71.999181 343.069177 
L 84.399977 338.649235 
L 96.799988 327.990369 
L 109.199988 316.827215 
L 121.599968 308.836849 
L 133.999968 298.031238 
L 146.399968 290.784464 
L 158.799962 296.144744 
L 171.199985 302.145321 
L 183.599967 314.015466 
L 196.000008 328.176661 
L 208.399995 342.687145 
L 220.799976 345.250228 
L 233.199977 332.509995 
L 245.600004 328.87515 
L 257.999984 349.974844 
L 270.400007 362.379386 
L 282.800021 367.982774 
L 295.200235 370.502173 
L 307.599993 374.258342 
L 320.000004 378.837572 
L 332.400011 382.313447 
L 344.800021 384.680817 
L 357.200036 384.856205 
L 369.600005 386.012677 
L 382.000012 387.330087 
L 394.400013 388.8 
L 406.80004 388.119846 
L 419.200031 384.334972 
L 431.600015 378.74204 
L 444.000034 373.325955 
L 456.400027 369.494924 
L 468.800012 366.192239 
L 481.199987 360.029859 
L 493.600004 350.959932 
L 505.999977 344.205618 
" style="fill:none;stroke:#ff00ff;stroke-linecap:square;"/>
    <defs>
     <path d="M -3 3 
L 3 -3 
M -3 -3 
L 3 3 
" id="m99bba21c5f" style="stroke:#ff00ff;stroke-width:0.5;"/>
    </defs>
    <g clip-path="url(#pf0ab054f0d)">
     <use style="fill:#ff00ff;stroke:#ff00ff;stroke-width:0.5;" x="71.9991806016" xlink:href="#m99bba21c5f" y="343.069177251"/>
     <use style="fill:#ff00ff;stroke:#ff00ff;stroke-width:0.5;" x="84.3999770916" xlink:href="#m99bba21c5f" y="338.64923493"/>
     <use style="fill:#ff00ff;stroke:#ff00ff;stroke-width:0.5;" x="96.7999878136" xlink:href="#m99bba21c5f" y="327.990368955"/>
     <use style="fill:#ff00ff;stroke:#ff00ff;stroke-width:0.5;" x="109.199988341" xlink:href="#m99bba21c5f" y="316.827214899"/>
     <use style="fill:#ff00ff;stroke:#ff00ff;stroke-width:0.5;" x="121.599967625" xlink:href="#m99bba21c5f" y="308.836849221"/>
     <use style="fill:#ff00ff;stroke:#ff00ff;stroke-width:0.5;" x="133.999967718" xlink:href="#m99bba21c5f" y="298.031238454"/>
     <use style="fill:#ff00ff;stroke:#ff00ff;stroke-width:0.5;" x="146.399968257" xlink:href="#m99bba21c5f" y="290.784463891"/>
     <use style="fill:#ff00ff;stroke:#ff00ff;stroke-width:0.5;" x="158.799961589" xlink:href="#m99bba21c5f" y="296.14474412"/>
     <use style="fill:#ff00ff;stroke:#ff00ff;stroke-width:0.5;" x="171.199985181" xlink:href="#m99bba21c5f" y="302.145321398"/>
     <use style="fill:#ff00ff;stroke:#ff00ff;stroke-width:0.5;" x="183.599967187" xlink:href="#m99bba21c5f" y="314.015465526"/>
     <use style="fill:#ff00ff;stroke:#ff00ff;stroke-width:0.5;" x="196.000007826" xlink:href="#m99bba21c5f" y="328.176660791"/>
     <use style="fill:#ff00ff;stroke:#ff00ff;stroke-width:0.5;" x="208.399994564" xlink:href="#m99bba21c5f" y="342.687144586"/>
     <use style="fill:#ff00ff;stroke:#ff00ff;stroke-width:0.5;" x="220.79997566" xlink:href="#m99bba21c5f" y="345.250227627"/>
     <use style="fill:#ff00ff;stroke:#ff00ff;stroke-width:0.5;" x="233.199977177" xlink:href="#m99bba21c5f" y="332.509995292"/>
     <use style="fill:#ff00ff;stroke:#ff00ff;stroke-width:0.5;" x="245.600004095" xlink:href="#m99bba21c5f" y="328.875150283"/>
     <use style="fill:#ff00ff;stroke:#ff00ff;stroke-width:0.5;" x="257.999984282" xlink:href="#m99bba21c5f" y="349.974843584"/>
     <use style="fill:#ff00ff;stroke:#ff00ff;stroke-width:0.5;" x="270.400006553" xlink:href="#m99bba21c5f" y="362.379385519"/>
     <use style="fill:#ff00ff;stroke:#ff00ff;stroke-width:0.5;" x="282.800020825" xlink:href="#m99bba21c5f" y="367.982774214"/>
     <use style="fill:#ff00ff;stroke:#ff00ff;stroke-width:0.5;" x="295.200234763" xlink:href="#m99bba21c5f" y="370.502172815"/>
     <use style="fill:#ff00ff;stroke:#ff00ff;stroke-width:0.5;" x="307.599993059" xlink:href="#m99bba21c5f" y="374.258341731"/>
     <use style="fill:#ff00ff;stroke:#ff00ff;stroke-width:0.5;" x="320.000004175" xlink:href="#m99bba21c5f" y="378.837572405"/>
     <use style="fill:#ff00ff;stroke:#ff00ff;stroke-width:0.5;" x="332.400011105" xlink:href="#m99bba21c5f" y="382.313447339"/>
     <use style="fill:#ff00ff;stroke:#ff00ff;stroke-width:0.5;" x="344.800021434" xlink:href="#m99bba21c5f" y="384.680816866"/>
     <use style="fill:#ff00ff;stroke:#ff00ff;stroke-width:0.5;" x="357.200035553" xlink:href="#m99bba21c5f" y="384.856205492"/>
     <use style="fill:#ff00ff;stroke:#ff00ff;stroke-width:0.5;" x="369.600005404" xlink:href="#m99bba21c5f" y="386.012676678"/>
     <use style="fill:#ff00ff;stroke:#ff00ff;stroke-width:0.5;" x="382.000011951" xlink:href="#m99bba21c5f" y="387.330087475"/>
     <use style="fill:#ff00ff;stroke:#ff00ff;stroke-width:0.5;" x="394.400012518" xlink:href="#m99bba21c5f" y="388.8"/>
     <use style="fill:#ff00ff;stroke:#ff00ff;stroke-width:0.5;" x="406.800040271" xlink:href="#m99bba21c5f" y="388.11984596"/>
     <use style="fill:#ff00ff;stroke:#ff00ff;stroke-width:0.5;" x="419.200031102" xlink:href="#m99bba21c5f" y="384.334972108"/>
     <use style="fill:#ff00ff;stroke:#ff00ff;stroke-width:0.5;" x="431.600014709" xlink:href="#m99bba21c5f" y="378.742040244"/>
     <use style="fill:#ff00ff;stroke:#ff00ff;stroke-width:0.5;" x="444.000034492" xlink:href="#m99bba21c5f" y="373.325954714"/>
     <use style="fill:#ff00ff;stroke:#ff00ff;stroke-width:0.5;" x="456.400027429" xlink:href="#m99bba21c5f" y="369.494924138"/>
     <use style="fill:#ff00ff;stroke:#ff00ff;stroke-width:0.5;" x="468.800011659" xlink:href="#m99bba21c5f" y="366.192239022"/>
     <use style="fill:#ff00ff;stroke:#ff00ff;stroke-width:0.5;" x="481.199987009" xlink:href="#m99bba21c5f" y="360.029858577"/>
     <use style="fill:#ff00ff;stroke:#ff00ff;stroke-width:0.5;" x="493.60000436" xlink:href="#m99bba21c5f" y="350.959932329"/>
     <use style="fill:#ff00ff;stroke:#ff00ff;stroke-width:0.5;" x="505.99997714" xlink:href="#m99bba21c5f" y="344.205618027"/>
    </g>
   </g>
   <g id="line2d_5">
    <path clip-path="url(#pf0ab054f0d)" d="M 71.999181 331.457194 
L 84.399977 310.612501 
L 96.799988 271.072716 
L 109.199988 211.898864 
L 121.599968 142.922212 
L 133.999968 90.744775 
L 146.399968 80.477593 
L 158.799962 107.715901 
L 171.199985 160.513996 
L 183.599967 214.553626 
L 196.000008 257.130093 
L 208.399995 279.777013 
L 220.799976 290.66468 
L 233.199977 300.093438 
L 245.600004 305.40767 
L 257.999984 290.028366 
L 270.400007 273.629258 
L 282.800021 258.438147 
L 295.200235 252.785491 
L 307.599993 262.623755 
L 320.000004 287.970159 
L 332.400011 322.305743 
L 344.800021 355.69084 
L 357.200036 380.778611 
L 369.600005 388.8 
L 382.000012 378.307134 
L 394.400013 351.097648 
L 406.80004 315.543413 
L 419.200031 281.477892 
L 431.600015 256.612732 
L 444.000034 245.368455 
L 456.400027 248.9006 
L 468.800012 266.19882 
L 481.199987 292.937875 
L 493.600004 319.454684 
L 505.999977 334.760268 
" style="fill:none;stroke:#008000;stroke-linecap:square;"/>
    <defs>
     <path d="M 0 3 
C 0.795609 3 1.55874 2.683901 2.12132 2.12132 
C 2.683901 1.55874 3 0.795609 3 0 
C 3 -0.795609 2.683901 -1.55874 2.12132 -2.12132 
C 1.55874 -2.683901 0.795609 -3 0 -3 
C -0.795609 -3 -1.55874 -2.683901 -2.12132 -2.12132 
C -2.683901 -1.55874 -3 -0.795609 -3 0 
C -3 0.795609 -2.683901 1.55874 -2.12132 2.12132 
C -1.55874 2.683901 -0.795609 3 0 3 
z
" id="m784bce97eb" style="stroke:#000000;stroke-width:0.5;"/>
    </defs>
    <g clip-path="url(#pf0ab054f0d)">
     <use style="fill:#008000;stroke:#000000;stroke-width:0.5;" x="71.9991806016" xlink:href="#m784bce97eb" y="331.457193874"/>
     <use style="fill:#008000;stroke:#000000;stroke-width:0.5;" x="84.3999770916" xlink:href="#m784bce97eb" y="310.612500834"/>
     <use style="fill:#008000;stroke:#000000;stroke-width:0.5;" x="96.7999878136" xlink:href="#m784bce97eb" y="271.07271555"/>
     <use style="fill:#008000;stroke:#000000;stroke-width:0.5;" x="109.199988341" xlink:href="#m784bce97eb" y="211.898864359"/>
     <use style="fill:#008000;stroke:#000000;stroke-width:0.5;" x="121.599967625" xlink:href="#m784bce97eb" y="142.92221246"/>
     <use style="fill:#008000;stroke:#000000;stroke-width:0.5;" x="133.999967718" xlink:href="#m784bce97eb" y="90.7447754425"/>
     <use style="fill:#008000;stroke:#000000;stroke-width:0.5;" x="146.399968257" xlink:href="#m784bce97eb" y="80.4775926818"/>
     <use style="fill:#008000;stroke:#000000;stroke-width:0.5;" x="158.799961589" xlink:href="#m784bce97eb" y="107.715900877"/>
     <use style="fill:#008000;stroke:#000000;stroke-width:0.5;" x="171.199985181" xlink:href="#m784bce97eb" y="160.513996367"/>
     <use style="fill:#008000;stroke:#000000;stroke-width:0.5;" x="183.599967187" xlink:href="#m784bce97eb" y="214.553626089"/>
     <use style="fill:#008000;stroke:#000000;stroke-width:0.5;" x="196.000007826" xlink:href="#m784bce97eb" y="257.130092588"/>
     <use style="fill:#008000;stroke:#000000;stroke-width:0.5;" x="208.399994564" xlink:href="#m784bce97eb" y="279.777012733"/>
     <use style="fill:#008000;stroke:#000000;stroke-width:0.5;" x="220.79997566" xlink:href="#m784bce97eb" y="290.664679797"/>
     <use style="fill:#008000;stroke:#000000;stroke-width:0.5;" x="233.199977177" xlink:href="#m784bce97eb" y="300.093437539"/>
     <use style="fill:#008000;stroke:#000000;stroke-width:0.5;" x="245.600004095" xlink:href="#m784bce97eb" y="305.407669654"/>
     <use style="fill:#008000;stroke:#000000;stroke-width:0.5;" x="257.999984282" xlink:href="#m784bce97eb" y="290.0283663"/>
     <use style="fill:#008000;stroke:#000000;stroke-width:0.5;" x="270.400006553" xlink:href="#m784bce97eb" y="273.629258172"/>
     <use style="fill:#008000;stroke:#000000;stroke-width:0.5;" x="282.800020825" xlink:href="#m784bce97eb" y="258.438146669"/>
     <use style="fill:#008000;stroke:#000000;stroke-width:0.5;" x="295.200234763" xlink:href="#m784bce97eb" y="252.785490792"/>
     <use style="fill:#008000;stroke:#000000;stroke-width:0.5;" x="307.599993059" xlink:href="#m784bce97eb" y="262.623755164"/>
     <use style="fill:#008000;stroke:#000000;stroke-width:0.5;" x="320.000004175" xlink:href="#m784bce97eb" y="287.970158704"/>
     <use style="fill:#008000;stroke:#000000;stroke-width:0.5;" x="332.400011105" xlink:href="#m784bce97eb" y="322.305742535"/>
     <use style="fill:#008000;stroke:#000000;stroke-width:0.5;" x="344.800021434" xlink:href="#m784bce97eb" y="355.690840121"/>
     <use style="fill:#008000;stroke:#000000;stroke-width:0.5;" x="357.200035553" xlink:href="#m784bce97eb" y="380.778610959"/>
     <use style="fill:#008000;stroke:#000000;stroke-width:0.5;" x="369.600005404" xlink:href="#m784bce97eb" y="388.8"/>
     <use style="fill:#008000;stroke:#000000;stroke-width:0.5;" x="382.000011951" xlink:href="#m784bce97eb" y="378.30713447"/>
     <use style="fill:#008000;stroke:#000000;stroke-width:0.5;" x="394.400012518" xlink:href="#m784bce97eb" y="351.097647917"/>
     <use style="fill:#008000;stroke:#000000;stroke-width:0.5;" x="406.800040271" xlink:href="#m784bce97eb" y="315.543412813"/>
     <use style="fill:#008000;stroke:#000000;stroke-width:0.5;" x="419.200031102" xlink:href="#m784bce97eb" y="281.477891628"/>
     <use style="fill:#008000;stroke:#000000;stroke-width:0.5;" x="431.600014709" xlink:href="#m784bce97eb" y="256.612732101"/>
     <use style="fill:#008000;stroke:#000000;stroke-width:0.5;" x="444.000034492" xlink:href="#m784bce97eb" y="245.368455321"/>
     <use style="fill:#008000;stroke:#000000;stroke-width:0.5;" x="456.400027429" xlink:href="#m784bce97eb" y="248.900600459"/>
     <use style="fill:#008000;stroke:#000000;stroke-width:0.5;" x="468.800011659" xlink:href="#m784bce97eb" y="266.198820259"/>
     <use style="fill:#008000;stroke:#000000;stroke-width:0.5;" x="481.199987009" xlink:href="#m784bce97eb" y="292.937874799"/>
     <use style="fill:#008000;stroke:#000000;stroke-width:0.5;" x="493.60000436" xlink:href="#m784bce97eb" y="319.454684403"/>
     <use style="fill:#008000;stroke:#000000;stroke-width:0.5;" x="505.99997714" xlink:href="#m784bce97eb" y="334.76026771"/>
    </g>
   </g>
   <g id="patch_3">
    <path d="M 72 388.8 
L 72 43.2 
" style="fill:none;stroke:#000000;stroke-linecap:square;stroke-linejoin:miter;"/>
   </g>
   <g id="patch_4">
    <path d="M 72 388.8 
L 518.4 388.8 
" style="fill:none;stroke:#000000;stroke-linecap:square;stroke-linejoin:miter;"/>
   </g>
   <g id="patch_5">
    <path d="M 518.4 388.8 
L 518.4 43.2 
" style="fill:none;stroke:#000000;stroke-linecap:square;stroke-linejoin:miter;"/>
   </g>
   <g id="patch_6">
    <path d="M 72 43.2 
L 518.4 43.2 
" style="fill:none;stroke:#000000;stroke-linecap:square;stroke-linejoin:miter;"/>
   </g>
   <g id="matplotlib.axis_1">
    <g id="xtick_1">
     <g id="line2d_6">
      <defs>
       <path d="M 0 0 
L 0 -4 
" id="m4d3e700a3c" style="stroke:#000000;stroke-width:0.5;"/>
      </defs>
      <g>
       <use style="stroke:#000000;stroke-width:0.5;" x="72.0" xlink:href="#m4d3e700a3c" y="388.8"/>
      </g>
     </g>
     <g id="line2d_7">
      <defs>
       <path d="M 0 0 
L 0 4 
" id="mc2c9607dbe" style="stroke:#000000;stroke-width:0.5;"/>
      </defs>
      <g>
       <use style="stroke:#000000;stroke-width:0.5;" x="72.0" xlink:href="#mc2c9607dbe" y="43.2"/>
      </g>
     </g>
     <g id="text_1">
      <!-- −180 -->
      <defs>
       <path d="M 31.78125 66.40625 
Q 24.171875 66.40625 20.328125 58.90625 
Q 16.5 51.421875 16.5 36.375 
Q 16.5 21.390625 20.328125 13.890625 
Q 24.171875 6.390625 31.78125 6.390625 
Q 39.453125 6.390625 43.28125 13.890625 
Q 47.125 21.390625 47.125 36.375 
Q 47.125 51.421875 43.28125 58.90625 
Q 39.453125 66.40625 31.78125 66.40625 
M 31.78125 74.21875 
Q 44.046875 74.21875 50.515625 64.515625 
Q 56.984375 54.828125 56.984375 36.375 
Q 56.984375 17.96875 50.515625 8.265625 
Q 44.046875 -1.421875 31.78125 -1.421875 
Q 19.53125 -1.421875 13.0625 8.265625 
Q 6.59375 17.96875 6.59375 36.375 
Q 6.59375 54.828125 13.0625 64.515625 
Q 19.53125 74.21875 31.78125 74.21875 
" id="BitstreamVeraSans-Roman-30"/>
       <path d="M 31.78125 34.625 
Q 24.75 34.625 20.71875 30.859375 
Q 16.703125 27.09375 16.703125 20.515625 
Q 16.703125 13.921875 20.71875 10.15625 
Q 24.75 6.390625 31.78125 6.390625 
Q 38.8125 6.390625 42.859375 10.171875 
Q 46.921875 13.96875 46.921875 20.515625 
Q 46.921875 27.09375 42.890625 30.859375 
Q 38.875 34.625 31.78125 34.625 
M 21.921875 38.8125 
Q 15.578125 40.375 12.03125 44.71875 
Q 8.5 49.078125 8.5 55.328125 
Q 8.5 64.0625 14.71875 69.140625 
Q 20.953125 74.21875 31.78125 74.21875 
Q 42.671875 74.21875 48.875 69.140625 
Q 55.078125 64.0625 55.078125 55.328125 
Q 55.078125 49.078125 51.53125 44.71875 
Q 48 40.375 41.703125 38.8125 
Q 48.828125 37.15625 52.796875 32.3125 
Q 56.78125 27.484375 56.78125 20.515625 
Q 56.78125 9.90625 50.3125 4.234375 
Q 43.84375 -1.421875 31.78125 -1.421875 
Q 19.734375 -1.421875 13.25 4.234375 
Q 6.78125 9.90625 6.78125 20.515625 
Q 6.78125 27.484375 10.78125 32.3125 
Q 14.796875 37.15625 21.921875 38.8125 
M 18.3125 54.390625 
Q 18.3125 48.734375 21.84375 45.5625 
Q 25.390625 42.390625 31.78125 42.390625 
Q 38.140625 42.390625 41.71875 45.5625 
Q 45.3125 48.734375 45.3125 54.390625 
Q 45.3125 60.0625 41.71875 63.234375 
Q 38.140625 66.40625 31.78125 66.40625 
Q 25.390625 66.40625 21.84375 63.234375 
Q 18.3125 60.0625 18.3125 54.390625 
" id="BitstreamVeraSans-Roman-38"/>
       <path d="M 10.59375 35.5 
L 73.1875 35.5 
L 73.1875 27.203125 
L 10.59375 27.203125 
z
" id="BitstreamVeraSans-Roman-2212"/>
       <path d="M 12.40625 8.296875 
L 28.515625 8.296875 
L 28.515625 63.921875 
L 10.984375 60.40625 
L 10.984375 69.390625 
L 28.421875 72.90625 
L 38.28125 72.90625 
L 38.28125 8.296875 
L 54.390625 8.296875 
L 54.390625 0 
L 12.40625 0 
z
" id="BitstreamVeraSans-Roman-31"/>
      </defs>
      <g transform="translate(55.5196875 401.918125)scale(0.12 -0.12)">
       <use xlink:href="#BitstreamVeraSans-Roman-2212"/>
       <use x="83.7890625" xlink:href="#BitstreamVeraSans-Roman-31"/>
       <use x="147.412109375" xlink:href="#BitstreamVeraSans-Roman-38"/>
       <use x="211.03515625" xlink:href="#BitstreamVeraSans-Roman-30"/>
      </g>
     </g>
    </g>
    <g id="xtick_2">
     <g id="line2d_8">
      <g>
       <use style="stroke:#000000;stroke-width:0.5;" x="127.8" xlink:href="#m4d3e700a3c" y="388.8"/>
      </g>
     </g>
     <g id="line2d_9">
      <g>
       <use style="stroke:#000000;stroke-width:0.5;" x="127.8" xlink:href="#mc2c9607dbe" y="43.2"/>
      </g>
     </g>
     <g id="text_2">
      <!-- −135 -->
      <defs>
       <path d="M 10.796875 72.90625 
L 49.515625 72.90625 
L 49.515625 64.59375 
L 19.828125 64.59375 
L 19.828125 46.734375 
Q 21.96875 47.46875 24.109375 47.828125 
Q 26.265625 48.1875 28.421875 48.1875 
Q 40.625 48.1875 47.75 41.5 
Q 54.890625 34.8125 54.890625 23.390625 
Q 54.890625 11.625 47.5625 5.09375 
Q 40.234375 -1.421875 26.90625 -1.421875 
Q 22.3125 -1.421875 17.546875 -0.640625 
Q 12.796875 0.140625 7.71875 1.703125 
L 7.71875 11.625 
Q 12.109375 9.234375 16.796875 8.0625 
Q 21.484375 6.890625 26.703125 6.890625 
Q 35.15625 6.890625 40.078125 11.328125 
Q 45.015625 15.765625 45.015625 23.390625 
Q 45.015625 31 40.078125 35.4375 
Q 35.15625 39.890625 26.703125 39.890625 
Q 22.75 39.890625 18.8125 39.015625 
Q 14.890625 38.140625 10.796875 36.28125 
z
" id="BitstreamVeraSans-Roman-35"/>
       <path d="M 40.578125 39.3125 
Q 47.65625 37.796875 51.625 33 
Q 55.609375 28.21875 55.609375 21.1875 
Q 55.609375 10.40625 48.1875 4.484375 
Q 40.765625 -1.421875 27.09375 -1.421875 
Q 22.515625 -1.421875 17.65625 -0.515625 
Q 12.796875 0.390625 7.625 2.203125 
L 7.625 11.71875 
Q 11.71875 9.328125 16.59375 8.109375 
Q 21.484375 6.890625 26.8125 6.890625 
Q 36.078125 6.890625 40.9375 10.546875 
Q 45.796875 14.203125 45.796875 21.1875 
Q 45.796875 27.640625 41.28125 31.265625 
Q 36.765625 34.90625 28.71875 34.90625 
L 20.21875 34.90625 
L 20.21875 43.015625 
L 29.109375 43.015625 
Q 36.375 43.015625 40.234375 45.921875 
Q 44.09375 48.828125 44.09375 54.296875 
Q 44.09375 59.90625 40.109375 62.90625 
Q 36.140625 65.921875 28.71875 65.921875 
Q 24.65625 65.921875 20.015625 65.03125 
Q 15.375 64.15625 9.8125 62.3125 
L 9.8125 71.09375 
Q 15.4375 72.65625 20.34375 73.4375 
Q 25.25 74.21875 29.59375 74.21875 
Q 40.828125 74.21875 47.359375 69.109375 
Q 53.90625 64.015625 53.90625 55.328125 
Q 53.90625 49.265625 50.4375 45.09375 
Q 46.96875 40.921875 40.578125 39.3125 
" id="BitstreamVeraSans-Roman-33"/>
      </defs>
      <g transform="translate(111.3196875 401.918125)scale(0.12 -0.12)">
       <use xlink:href="#BitstreamVeraSans-Roman-2212"/>
       <use x="83.7890625" xlink:href="#BitstreamVeraSans-Roman-31"/>
       <use x="147.412109375" xlink:href="#BitstreamVeraSans-Roman-33"/>
       <use x="211.03515625" xlink:href="#BitstreamVeraSans-Roman-35"/>
      </g>
     </g>
    </g>
    <g id="xtick_3">
     <g id="line2d_10">
      <g>
       <use style="stroke:#000000;stroke-width:0.5;" x="183.6" xlink:href="#m4d3e700a3c" y="388.8"/>
      </g>
     </g>
     <g id="line2d_11">
      <g>
       <use style="stroke:#000000;stroke-width:0.5;" x="183.6" xlink:href="#mc2c9607dbe" y="43.2"/>
      </g>
     </g>
     <g id="text_3">
      <!-- −90 -->
      <defs>
       <path d="M 10.984375 1.515625 
L 10.984375 10.5 
Q 14.703125 8.734375 18.5 7.8125 
Q 22.3125 6.890625 25.984375 6.890625 
Q 35.75 6.890625 40.890625 13.453125 
Q 46.046875 20.015625 46.78125 33.40625 
Q 43.953125 29.203125 39.59375 26.953125 
Q 35.25 24.703125 29.984375 24.703125 
Q 19.046875 24.703125 12.671875 31.3125 
Q 6.296875 37.9375 6.296875 49.421875 
Q 6.296875 60.640625 12.9375 67.421875 
Q 19.578125 74.21875 30.609375 74.21875 
Q 43.265625 74.21875 49.921875 64.515625 
Q 56.59375 54.828125 56.59375 36.375 
Q 56.59375 19.140625 48.40625 8.859375 
Q 40.234375 -1.421875 26.421875 -1.421875 
Q 22.703125 -1.421875 18.890625 -0.6875 
Q 15.09375 0.046875 10.984375 1.515625 
M 30.609375 32.421875 
Q 37.25 32.421875 41.125 36.953125 
Q 45.015625 41.5 45.015625 49.421875 
Q 45.015625 57.28125 41.125 61.84375 
Q 37.25 66.40625 30.609375 66.40625 
Q 23.96875 66.40625 20.09375 61.84375 
Q 16.21875 57.28125 16.21875 49.421875 
Q 16.21875 41.5 20.09375 36.953125 
Q 23.96875 32.421875 30.609375 32.421875 
" id="BitstreamVeraSans-Roman-39"/>
      </defs>
      <g transform="translate(170.9371875 401.918125)scale(0.12 -0.12)">
       <use xlink:href="#BitstreamVeraSans-Roman-2212"/>
       <use x="83.7890625" xlink:href="#BitstreamVeraSans-Roman-39"/>
       <use x="147.412109375" xlink:href="#BitstreamVeraSans-Roman-30"/>
      </g>
     </g>
    </g>
    <g id="xtick_4">
     <g id="line2d_12">
      <g>
       <use style="stroke:#000000;stroke-width:0.5;" x="239.4" xlink:href="#m4d3e700a3c" y="388.8"/>
      </g>
     </g>
     <g id="line2d_13">
      <g>
       <use style="stroke:#000000;stroke-width:0.5;" x="239.4" xlink:href="#mc2c9607dbe" y="43.2"/>
      </g>
     </g>
     <g id="text_4">
      <!-- −45 -->
      <defs>
       <path d="M 37.796875 64.3125 
L 12.890625 25.390625 
L 37.796875 25.390625 
z
M 35.203125 72.90625 
L 47.609375 72.90625 
L 47.609375 25.390625 
L 58.015625 25.390625 
L 58.015625 17.1875 
L 47.609375 17.1875 
L 47.609375 0 
L 37.796875 0 
L 37.796875 17.1875 
L 4.890625 17.1875 
L 4.890625 26.703125 
z
" id="BitstreamVeraSans-Roman-34"/>
      </defs>
      <g transform="translate(226.7371875 401.918125)scale(0.12 -0.12)">
       <use xlink:href="#BitstreamVeraSans-Roman-2212"/>
       <use x="83.7890625" xlink:href="#BitstreamVeraSans-Roman-34"/>
       <use x="147.412109375" xlink:href="#BitstreamVeraSans-Roman-35"/>
      </g>
     </g>
    </g>
    <g id="xtick_5">
     <g id="line2d_14">
      <g>
       <use style="stroke:#000000;stroke-width:0.5;" x="295.2" xlink:href="#m4d3e700a3c" y="388.8"/>
      </g>
     </g>
     <g id="line2d_15">
      <g>
       <use style="stroke:#000000;stroke-width:0.5;" x="295.2" xlink:href="#mc2c9607dbe" y="43.2"/>
      </g>
     </g>
     <g id="text_5">
      <!-- 0 -->
      <g transform="translate(291.3825 401.918125)scale(0.12 -0.12)">
       <use xlink:href="#BitstreamVeraSans-Roman-30"/>
      </g>
     </g>
    </g>
    <g id="xtick_6">
     <g id="line2d_16">
      <g>
       <use style="stroke:#000000;stroke-width:0.5;" x="351.0" xlink:href="#m4d3e700a3c" y="388.8"/>
      </g>
     </g>
     <g id="line2d_17">
      <g>
       <use style="stroke:#000000;stroke-width:0.5;" x="351.0" xlink:href="#mc2c9607dbe" y="43.2"/>
      </g>
     </g>
     <g id="text_6">
      <!-- 45 -->
      <g transform="translate(343.365 401.918125)scale(0.12 -0.12)">
       <use xlink:href="#BitstreamVeraSans-Roman-34"/>
       <use x="63.623046875" xlink:href="#BitstreamVeraSans-Roman-35"/>
      </g>
     </g>
    </g>
    <g id="xtick_7">
     <g id="line2d_18">
      <g>
       <use style="stroke:#000000;stroke-width:0.5;" x="406.8" xlink:href="#m4d3e700a3c" y="388.8"/>
      </g>
     </g>
     <g id="line2d_19">
      <g>
       <use style="stroke:#000000;stroke-width:0.5;" x="406.8" xlink:href="#mc2c9607dbe" y="43.2"/>
      </g>
     </g>
     <g id="text_7">
      <!-- 90 -->
      <g transform="translate(399.165 401.918125)scale(0.12 -0.12)">
       <use xlink:href="#BitstreamVeraSans-Roman-39"/>
       <use x="63.623046875" xlink:href="#BitstreamVeraSans-Roman-30"/>
      </g>
     </g>
    </g>
    <g id="xtick_8">
     <g id="line2d_20">
      <g>
       <use style="stroke:#000000;stroke-width:0.5;" x="462.6" xlink:href="#m4d3e700a3c" y="388.8"/>
      </g>
     </g>
     <g id="line2d_21">
      <g>
       <use style="stroke:#000000;stroke-width:0.5;" x="462.6" xlink:href="#mc2c9607dbe" y="43.2"/>
      </g>
     </g>
     <g id="text_8">
      <!-- 135 -->
      <g transform="translate(451.1475 401.918125)scale(0.12 -0.12)">
       <use xlink:href="#BitstreamVeraSans-Roman-31"/>
       <use x="63.623046875" xlink:href="#BitstreamVeraSans-Roman-33"/>
       <use x="127.24609375" xlink:href="#BitstreamVeraSans-Roman-35"/>
      </g>
     </g>
    </g>
    <g id="xtick_9">
     <g id="line2d_22">
      <g>
       <use style="stroke:#000000;stroke-width:0.5;" x="518.4" xlink:href="#m4d3e700a3c" y="388.8"/>
      </g>
     </g>
     <g id="line2d_23">
      <g>
       <use style="stroke:#000000;stroke-width:0.5;" x="518.4" xlink:href="#mc2c9607dbe" y="43.2"/>
      </g>
     </g>
     <g id="text_9">
      <!-- 180 -->
      <g transform="translate(506.9475 401.918125)scale(0.12 -0.12)">
       <use xlink:href="#BitstreamVeraSans-Roman-31"/>
       <use x="63.623046875" xlink:href="#BitstreamVeraSans-Roman-38"/>
       <use x="127.24609375" xlink:href="#BitstreamVeraSans-Roman-30"/>
      </g>
     </g>
    </g>
    <g id="text_10">
     <!-- Phi -->
     <defs>
      <path d="M 9.421875 54.6875 
L 18.40625 54.6875 
L 18.40625 0 
L 9.421875 0 
z
M 9.421875 75.984375 
L 18.40625 75.984375 
L 18.40625 64.59375 
L 9.421875 64.59375 
z
" id="BitstreamVeraSans-Roman-69"/>
      <path d="M 54.890625 33.015625 
L 54.890625 0 
L 45.90625 0 
L 45.90625 32.71875 
Q 45.90625 40.484375 42.875 44.328125 
Q 39.84375 48.1875 33.796875 48.1875 
Q 26.515625 48.1875 22.3125 43.546875 
Q 18.109375 38.921875 18.109375 30.90625 
L 18.109375 0 
L 9.078125 0 
L 9.078125 75.984375 
L 18.109375 75.984375 
L 18.109375 46.1875 
Q 21.34375 51.125 25.703125 53.5625 
Q 30.078125 56 35.796875 56 
Q 45.21875 56 50.046875 50.171875 
Q 54.890625 44.34375 54.890625 33.015625 
" id="BitstreamVeraSans-Roman-68"/>
      <path d="M 19.671875 64.796875 
L 19.671875 37.40625 
L 32.078125 37.40625 
Q 38.96875 37.40625 42.71875 40.96875 
Q 46.484375 44.53125 46.484375 51.125 
Q 46.484375 57.671875 42.71875 61.234375 
Q 38.96875 64.796875 32.078125 64.796875 
z
M 9.8125 72.90625 
L 32.078125 72.90625 
Q 44.34375 72.90625 50.609375 67.359375 
Q 56.890625 61.8125 56.890625 51.125 
Q 56.890625 40.328125 50.609375 34.8125 
Q 44.34375 29.296875 32.078125 29.296875 
L 19.671875 29.296875 
L 19.671875 0 
L 9.8125 0 
z
" id="BitstreamVeraSans-Roman-50"/>
     </defs>
     <g transform="translate(286.1128125 418.531875)scale(0.12 -0.12)">
      <use xlink:href="#BitstreamVeraSans-Roman-50"/>
      <use x="60.302734375" xlink:href="#BitstreamVeraSans-Roman-68"/>
      <use x="123.681640625" xlink:href="#BitstreamVeraSans-Roman-69"/>
     </g>
    </g>
   </g>
   <g id="matplotlib.axis_2">
    <g id="ytick_1">
     <g id="line2d_24">
      <defs>
       <path d="M 0 0 
L 4 0 
" id="m1fb0372754" style="stroke:#000000;stroke-width:0.5;"/>
      </defs>
      <g>
       <use style="stroke:#000000;stroke-width:0.5;" x="72.0" xlink:href="#m1fb0372754" y="388.8"/>
      </g>
     </g>
     <g id="line2d_25">
      <defs>
       <path d="M 0 0 
L -4 0 
" id="me60dc258f3" style="stroke:#000000;stroke-width:0.5;"/>
      </defs>
      <g>
       <use style="stroke:#000000;stroke-width:0.5;" x="518.4" xlink:href="#me60dc258f3" y="388.8"/>
      </g>
     </g>
     <g id="text_11">
      <!-- 0 -->
      <g transform="translate(60.365 392.11125)scale(0.12 -0.12)">
       <use xlink:href="#BitstreamVeraSans-Roman-30"/>
      </g>
     </g>
    </g>
    <g id="ytick_2">
     <g id="line2d_26">
      <g>
       <use style="stroke:#000000;stroke-width:0.5;" x="72.0" xlink:href="#m1fb0372754" y="345.6"/>
      </g>
     </g>
     <g id="line2d_27">
      <g>
       <use style="stroke:#000000;stroke-width:0.5;" x="518.4" xlink:href="#me60dc258f3" y="345.6"/>
      </g>
     </g>
     <g id="text_12">
      <!-- 1 -->
      <g transform="translate(60.365 348.91125)scale(0.12 -0.12)">
       <use xlink:href="#BitstreamVeraSans-Roman-31"/>
      </g>
     </g>
    </g>
    <g id="ytick_3">
     <g id="line2d_28">
      <g>
       <use style="stroke:#000000;stroke-width:0.5;" x="72.0" xlink:href="#m1fb0372754" y="302.4"/>
      </g>
     </g>
     <g id="line2d_29">
      <g>
       <use style="stroke:#000000;stroke-width:0.5;" x="518.4" xlink:href="#me60dc258f3" y="302.4"/>
      </g>
     </g>
     <g id="text_13">
      <!-- 2 -->
      <defs>
       <path d="M 19.1875 8.296875 
L 53.609375 8.296875 
L 53.609375 0 
L 7.328125 0 
L 7.328125 8.296875 
Q 12.9375 14.109375 22.625 23.890625 
Q 32.328125 33.6875 34.8125 36.53125 
Q 39.546875 41.84375 41.421875 45.53125 
Q 43.3125 49.21875 43.3125 52.78125 
Q 43.3125 58.59375 39.234375 62.25 
Q 35.15625 65.921875 28.609375 65.921875 
Q 23.96875 65.921875 18.8125 64.3125 
Q 13.671875 62.703125 7.8125 59.421875 
L 7.8125 69.390625 
Q 13.765625 71.78125 18.9375 73 
Q 24.125 74.21875 28.421875 74.21875 
Q 39.75 74.21875 46.484375 68.546875 
Q 53.21875 62.890625 53.21875 53.421875 
Q 53.21875 48.921875 51.53125 44.890625 
Q 49.859375 40.875 45.40625 35.40625 
Q 44.1875 33.984375 37.640625 27.21875 
Q 31.109375 20.453125 19.1875 8.296875 
" id="BitstreamVeraSans-Roman-32"/>
      </defs>
      <g transform="translate(60.365 305.71125)scale(0.12 -0.12)">
       <use xlink:href="#BitstreamVeraSans-Roman-32"/>
      </g>
     </g>
    </g>
    <g id="ytick_4">
     <g id="line2d_30">
      <g>
       <use style="stroke:#000000;stroke-width:0.5;" x="72.0" xlink:href="#m1fb0372754" y="259.2"/>
      </g>
     </g>
     <g id="line2d_31">
      <g>
       <use style="stroke:#000000;stroke-width:0.5;" x="518.4" xlink:href="#me60dc258f3" y="259.2"/>
      </g>
     </g>
     <g id="text_14">
      <!-- 3 -->
      <g transform="translate(60.365 262.51125)scale(0.12 -0.12)">
       <use xlink:href="#BitstreamVeraSans-Roman-33"/>
      </g>
     </g>
    </g>
    <g id="ytick_5">
     <g id="line2d_32">
      <g>
       <use style="stroke:#000000;stroke-width:0.5;" x="72.0" xlink:href="#m1fb0372754" y="216.0"/>
      </g>
     </g>
     <g id="line2d_33">
      <g>
       <use style="stroke:#000000;stroke-width:0.5;" x="518.4" xlink:href="#me60dc258f3" y="216.0"/>
      </g>
     </g>
     <g id="text_15">
      <!-- 4 -->
      <g transform="translate(60.365 219.31125)scale(0.12 -0.12)">
       <use xlink:href="#BitstreamVeraSans-Roman-34"/>
      </g>
     </g>
    </g>
    <g id="ytick_6">
     <g id="line2d_34">
      <g>
       <use style="stroke:#000000;stroke-width:0.5;" x="72.0" xlink:href="#m1fb0372754" y="172.8"/>
      </g>
     </g>
     <g id="line2d_35">
      <g>
       <use style="stroke:#000000;stroke-width:0.5;" x="518.4" xlink:href="#me60dc258f3" y="172.8"/>
      </g>
     </g>
     <g id="text_16">
      <!-- 5 -->
      <g transform="translate(60.365 176.11125)scale(0.12 -0.12)">
       <use xlink:href="#BitstreamVeraSans-Roman-35"/>
      </g>
     </g>
    </g>
    <g id="ytick_7">
     <g id="line2d_36">
      <g>
       <use style="stroke:#000000;stroke-width:0.5;" x="72.0" xlink:href="#m1fb0372754" y="129.6"/>
      </g>
     </g>
     <g id="line2d_37">
      <g>
       <use style="stroke:#000000;stroke-width:0.5;" x="518.4" xlink:href="#me60dc258f3" y="129.6"/>
      </g>
     </g>
     <g id="text_17">
      <!-- 6 -->
      <defs>
       <path d="M 33.015625 40.375 
Q 26.375 40.375 22.484375 35.828125 
Q 18.609375 31.296875 18.609375 23.390625 
Q 18.609375 15.53125 22.484375 10.953125 
Q 26.375 6.390625 33.015625 6.390625 
Q 39.65625 6.390625 43.53125 10.953125 
Q 47.40625 15.53125 47.40625 23.390625 
Q 47.40625 31.296875 43.53125 35.828125 
Q 39.65625 40.375 33.015625 40.375 
M 52.59375 71.296875 
L 52.59375 62.3125 
Q 48.875 64.0625 45.09375 64.984375 
Q 41.3125 65.921875 37.59375 65.921875 
Q 27.828125 65.921875 22.671875 59.328125 
Q 17.53125 52.734375 16.796875 39.40625 
Q 19.671875 43.65625 24.015625 45.921875 
Q 28.375 48.1875 33.59375 48.1875 
Q 44.578125 48.1875 50.953125 41.515625 
Q 57.328125 34.859375 57.328125 23.390625 
Q 57.328125 12.15625 50.6875 5.359375 
Q 44.046875 -1.421875 33.015625 -1.421875 
Q 20.359375 -1.421875 13.671875 8.265625 
Q 6.984375 17.96875 6.984375 36.375 
Q 6.984375 53.65625 15.1875 63.9375 
Q 23.390625 74.21875 37.203125 74.21875 
Q 40.921875 74.21875 44.703125 73.484375 
Q 48.484375 72.75 52.59375 71.296875 
" id="BitstreamVeraSans-Roman-36"/>
      </defs>
      <g transform="translate(60.365 132.91125)scale(0.12 -0.12)">
       <use xlink:href="#BitstreamVeraSans-Roman-36"/>
      </g>
     </g>
    </g>
    <g id="ytick_8">
     <g id="line2d_38">
      <g>
       <use style="stroke:#000000;stroke-width:0.5;" x="72.0" xlink:href="#m1fb0372754" y="86.4"/>
      </g>
     </g>
     <g id="line2d_39">
      <g>
       <use style="stroke:#000000;stroke-width:0.5;" x="518.4" xlink:href="#me60dc258f3" y="86.4"/>
      </g>
     </g>
     <g id="text_18">
      <!-- 7 -->
      <defs>
       <path d="M 8.203125 72.90625 
L 55.078125 72.90625 
L 55.078125 68.703125 
L 28.609375 0 
L 18.3125 0 
L 43.21875 64.59375 
L 8.203125 64.59375 
z
" id="BitstreamVeraSans-Roman-37"/>
      </defs>
      <g transform="translate(60.365 89.71125)scale(0.12 -0.12)">
       <use xlink:href="#BitstreamVeraSans-Roman-37"/>
      </g>
     </g>
    </g>
    <g id="ytick_9">
     <g id="line2d_40">
      <g>
       <use style="stroke:#000000;stroke-width:0.5;" x="72.0" xlink:href="#m1fb0372754" y="43.2"/>
      </g>
     </g>
     <g id="line2d_41">
      <g>
       <use style="stroke:#000000;stroke-width:0.5;" x="518.4" xlink:href="#me60dc258f3" y="43.2"/>
      </g>
     </g>
     <g id="text_19">
      <!-- 8 -->
      <g transform="translate(60.365 46.51125)scale(0.12 -0.12)">
       <use xlink:href="#BitstreamVeraSans-Roman-38"/>
      </g>
     </g>
    </g>
    <g id="text_20">
     <!-- kcal/mol -->
     <defs>
      <path d="M 9.421875 75.984375 
L 18.40625 75.984375 
L 18.40625 0 
L 9.421875 0 
z
" id="BitstreamVeraSans-Roman-6c"/>
      <path d="M 9.078125 75.984375 
L 18.109375 75.984375 
L 18.109375 31.109375 
L 44.921875 54.6875 
L 56.390625 54.6875 
L 27.390625 29.109375 
L 57.625 0 
L 45.90625 0 
L 18.109375 26.703125 
L 18.109375 0 
L 9.078125 0 
z
" id="BitstreamVeraSans-Roman-6b"/>
      <path d="M 34.28125 27.484375 
Q 23.390625 27.484375 19.1875 25 
Q 14.984375 22.515625 14.984375 16.5 
Q 14.984375 11.71875 18.140625 8.90625 
Q 21.296875 6.109375 26.703125 6.109375 
Q 34.1875 6.109375 38.703125 11.40625 
Q 43.21875 16.703125 43.21875 25.484375 
L 43.21875 27.484375 
z
M 52.203125 31.203125 
L 52.203125 0 
L 43.21875 0 
L 43.21875 8.296875 
Q 40.140625 3.328125 35.546875 0.953125 
Q 30.953125 -1.421875 24.3125 -1.421875 
Q 15.921875 -1.421875 10.953125 3.296875 
Q 6 8.015625 6 15.921875 
Q 6 25.140625 12.171875 29.828125 
Q 18.359375 34.515625 30.609375 34.515625 
L 43.21875 34.515625 
L 43.21875 35.40625 
Q 43.21875 41.609375 39.140625 45 
Q 35.0625 48.390625 27.6875 48.390625 
Q 23 48.390625 18.546875 47.265625 
Q 14.109375 46.140625 10.015625 43.890625 
L 10.015625 52.203125 
Q 14.9375 54.109375 19.578125 55.046875 
Q 24.21875 56 28.609375 56 
Q 40.484375 56 46.34375 49.84375 
Q 52.203125 43.703125 52.203125 31.203125 
" id="BitstreamVeraSans-Roman-61"/>
      <path d="M 48.78125 52.59375 
L 48.78125 44.1875 
Q 44.96875 46.296875 41.140625 47.34375 
Q 37.3125 48.390625 33.40625 48.390625 
Q 24.65625 48.390625 19.8125 42.84375 
Q 14.984375 37.3125 14.984375 27.296875 
Q 14.984375 17.28125 19.8125 11.734375 
Q 24.65625 6.203125 33.40625 6.203125 
Q 37.3125 6.203125 41.140625 7.25 
Q 44.96875 8.296875 48.78125 10.40625 
L 48.78125 2.09375 
Q 45.015625 0.34375 40.984375 -0.53125 
Q 36.96875 -1.421875 32.421875 -1.421875 
Q 20.0625 -1.421875 12.78125 6.34375 
Q 5.515625 14.109375 5.515625 27.296875 
Q 5.515625 40.671875 12.859375 48.328125 
Q 20.21875 56 33.015625 56 
Q 37.15625 56 41.109375 55.140625 
Q 45.0625 54.296875 48.78125 52.59375 
" id="BitstreamVeraSans-Roman-63"/>
      <path d="M 30.609375 48.390625 
Q 23.390625 48.390625 19.1875 42.75 
Q 14.984375 37.109375 14.984375 27.296875 
Q 14.984375 17.484375 19.15625 11.84375 
Q 23.34375 6.203125 30.609375 6.203125 
Q 37.796875 6.203125 41.984375 11.859375 
Q 46.1875 17.53125 46.1875 27.296875 
Q 46.1875 37.015625 41.984375 42.703125 
Q 37.796875 48.390625 30.609375 48.390625 
M 30.609375 56 
Q 42.328125 56 49.015625 48.375 
Q 55.71875 40.765625 55.71875 27.296875 
Q 55.71875 13.875 49.015625 6.21875 
Q 42.328125 -1.421875 30.609375 -1.421875 
Q 18.84375 -1.421875 12.171875 6.21875 
Q 5.515625 13.875 5.515625 27.296875 
Q 5.515625 40.765625 12.171875 48.375 
Q 18.84375 56 30.609375 56 
" id="BitstreamVeraSans-Roman-6f"/>
      <path d="M 25.390625 72.90625 
L 33.6875 72.90625 
L 8.296875 -9.28125 
L 0 -9.28125 
z
" id="BitstreamVeraSans-Roman-2f"/>
      <path d="M 52 44.1875 
Q 55.375 50.25 60.0625 53.125 
Q 64.75 56 71.09375 56 
Q 79.640625 56 84.28125 50.015625 
Q 88.921875 44.046875 88.921875 33.015625 
L 88.921875 0 
L 79.890625 0 
L 79.890625 32.71875 
Q 79.890625 40.578125 77.09375 44.375 
Q 74.3125 48.1875 68.609375 48.1875 
Q 61.625 48.1875 57.5625 43.546875 
Q 53.515625 38.921875 53.515625 30.90625 
L 53.515625 0 
L 44.484375 0 
L 44.484375 32.71875 
Q 44.484375 40.625 41.703125 44.40625 
Q 38.921875 48.1875 33.109375 48.1875 
Q 26.21875 48.1875 22.15625 43.53125 
Q 18.109375 38.875 18.109375 30.90625 
L 18.109375 0 
L 9.078125 0 
L 9.078125 54.6875 
L 18.109375 54.6875 
L 18.109375 46.1875 
Q 21.1875 51.21875 25.484375 53.609375 
Q 29.78125 56 35.6875 56 
Q 41.65625 56 45.828125 52.96875 
Q 50 49.953125 52 44.1875 
" id="BitstreamVeraSans-Roman-6d"/>
     </defs>
     <g transform="translate(52.869375 241.3209375)rotate(-90.0)scale(0.12 -0.12)">
      <use xlink:href="#BitstreamVeraSans-Roman-6b"/>
      <use x="57.91015625" xlink:href="#BitstreamVeraSans-Roman-63"/>
      <use x="112.890625" xlink:href="#BitstreamVeraSans-Roman-61"/>
      <use x="174.169921875" xlink:href="#BitstreamVeraSans-Roman-6c"/>
      <use x="201.953125" xlink:href="#BitstreamVeraSans-Roman-2f"/>
      <use x="235.64453125" xlink:href="#BitstreamVeraSans-Roman-6d"/>
      <use x="333.056640625" xlink:href="#BitstreamVeraSans-Roman-6f"/>
      <use x="394.23828125" xlink:href="#BitstreamVeraSans-Roman-6c"/>
     </g>
    </g>
   </g>
   <g id="text_21">
    <!-- C4-C3-C2-H4 -->
    <defs>
     <path d="M 9.8125 72.90625 
L 19.671875 72.90625 
L 19.671875 43.015625 
L 55.515625 43.015625 
L 55.515625 72.90625 
L 65.375 72.90625 
L 65.375 0 
L 55.515625 0 
L 55.515625 34.71875 
L 19.671875 34.71875 
L 19.671875 0 
L 9.8125 0 
z
" id="BitstreamVeraSans-Roman-48"/>
     <path d="M 4.890625 31.390625 
L 31.203125 31.390625 
L 31.203125 23.390625 
L 4.890625 23.390625 
z
" id="BitstreamVeraSans-Roman-2d"/>
     <path d="M 64.40625 67.28125 
L 64.40625 56.890625 
Q 59.421875 61.53125 53.78125 63.8125 
Q 48.140625 66.109375 41.796875 66.109375 
Q 29.296875 66.109375 22.65625 58.46875 
Q 16.015625 50.828125 16.015625 36.375 
Q 16.015625 21.96875 22.65625 14.328125 
Q 29.296875 6.6875 41.796875 6.6875 
Q 48.140625 6.6875 53.78125 8.984375 
Q 59.421875 11.28125 64.40625 15.921875 
L 64.40625 5.609375 
Q 59.234375 2.09375 53.4375 0.328125 
Q 47.65625 -1.421875 41.21875 -1.421875 
Q 24.65625 -1.421875 15.125 8.703125 
Q 5.609375 18.84375 5.609375 36.375 
Q 5.609375 53.953125 15.125 64.078125 
Q 24.65625 74.21875 41.21875 74.21875 
Q 47.75 74.21875 53.53125 72.484375 
Q 59.328125 70.75 64.40625 67.28125 
" id="BitstreamVeraSans-Roman-43"/>
    </defs>
    <g transform="translate(248.585625 38.2)scale(0.144 -0.144)">
     <use xlink:href="#BitstreamVeraSans-Roman-43"/>
     <use x="69.82421875" xlink:href="#BitstreamVeraSans-Roman-34"/>
     <use x="133.447265625" xlink:href="#BitstreamVeraSans-Roman-2d"/>
     <use x="169.53125" xlink:href="#BitstreamVeraSans-Roman-43"/>
     <use x="239.35546875" xlink:href="#BitstreamVeraSans-Roman-33"/>
     <use x="302.978515625" xlink:href="#BitstreamVeraSans-Roman-2d"/>
     <use x="339.0625" xlink:href="#BitstreamVeraSans-Roman-43"/>
     <use x="408.88671875" xlink:href="#BitstreamVeraSans-Roman-32"/>
     <use x="472.509765625" xlink:href="#BitstreamVeraSans-Roman-2d"/>
     <use x="508.59375" xlink:href="#BitstreamVeraSans-Roman-48"/>
     <use x="583.7890625" xlink:href="#BitstreamVeraSans-Roman-34"/>
    </g>
   </g>
   <g id="legend_1">
    <g id="patch_7">
     <path d="M 406.15625 108.3125 
L 514.4 108.3125 
L 514.4 47.2 
L 406.15625 47.2 
z
" style="fill:#ffffff;stroke:#000000;stroke-linejoin:miter;"/>
    </g>
    <g id="line2d_42">
     <path d="M 411.75625 53.67875 
L 422.95625 53.67875 
" style="fill:none;stroke:#ff0000;stroke-linecap:square;"/>
    </g>
    <g id="line2d_43">
     <g>
      <use style="fill:#ff0000;stroke:#000000;stroke-width:0.5;" x="411.75625" xlink:href="#mc39bd2ebc5" y="53.67875"/>
      <use style="fill:#ff0000;stroke:#000000;stroke-width:0.5;" x="422.95625" xlink:href="#mc39bd2ebc5" y="53.67875"/>
     </g>
    </g>
    <g id="text_22">
     <!-- QM -->
     <defs>
      <path d="M 9.8125 72.90625 
L 24.515625 72.90625 
L 43.109375 23.296875 
L 61.8125 72.90625 
L 76.515625 72.90625 
L 76.515625 0 
L 66.890625 0 
L 66.890625 64.015625 
L 48.09375 14.015625 
L 38.1875 14.015625 
L 19.390625 64.015625 
L 19.390625 0 
L 9.8125 0 
z
" id="BitstreamVeraSans-Roman-4d"/>
      <path d="M 39.40625 66.21875 
Q 28.65625 66.21875 22.328125 58.203125 
Q 16.015625 50.203125 16.015625 36.375 
Q 16.015625 22.609375 22.328125 14.59375 
Q 28.65625 6.59375 39.40625 6.59375 
Q 50.140625 6.59375 56.421875 14.59375 
Q 62.703125 22.609375 62.703125 36.375 
Q 62.703125 50.203125 56.421875 58.203125 
Q 50.140625 66.21875 39.40625 66.21875 
M 53.21875 1.3125 
L 66.21875 -12.890625 
L 54.296875 -12.890625 
L 43.5 -1.21875 
Q 41.890625 -1.3125 41.03125 -1.359375 
Q 40.1875 -1.421875 39.40625 -1.421875 
Q 24.03125 -1.421875 14.8125 8.859375 
Q 5.609375 19.140625 5.609375 36.375 
Q 5.609375 53.65625 14.8125 63.9375 
Q 24.03125 74.21875 39.40625 74.21875 
Q 54.734375 74.21875 63.90625 63.9375 
Q 73.09375 53.65625 73.09375 36.375 
Q 73.09375 23.6875 67.984375 14.640625 
Q 62.890625 5.609375 53.21875 1.3125 
" id="BitstreamVeraSans-Roman-51"/>
     </defs>
     <g transform="translate(431.75625 56.47875)scale(0.08 -0.08)">
      <use xlink:href="#BitstreamVeraSans-Roman-51"/>
      <use x="78.7109375" xlink:href="#BitstreamVeraSans-Roman-4d"/>
     </g>
    </g>
    <g id="line2d_44">
     <path d="M 411.75625 65.42125 
L 422.95625 65.42125 
" style="fill:none;stroke:#0000ff;stroke-linecap:square;"/>
    </g>
    <g id="line2d_45">
     <g>
      <use style="fill:#0000ff;stroke:#000000;stroke-width:0.5;" x="411.75625" xlink:href="#m898de9b890" y="65.42125"/>
      <use style="fill:#0000ff;stroke:#000000;stroke-width:0.5;" x="422.95625" xlink:href="#m898de9b890" y="65.42125"/>
     </g>
    </g>
    <g id="text_23">
     <!-- MM Original -->
     <defs>
      <path id="BitstreamVeraSans-Roman-20"/>
      <path d="M 41.109375 46.296875 
Q 39.59375 47.171875 37.8125 47.578125 
Q 36.03125 48 33.890625 48 
Q 26.265625 48 22.1875 43.046875 
Q 18.109375 38.09375 18.109375 28.8125 
L 18.109375 0 
L 9.078125 0 
L 9.078125 54.6875 
L 18.109375 54.6875 
L 18.109375 46.1875 
Q 20.953125 51.171875 25.484375 53.578125 
Q 30.03125 56 36.53125 56 
Q 37.453125 56 38.578125 55.875 
Q 39.703125 55.765625 41.0625 55.515625 
z
" id="BitstreamVeraSans-Roman-72"/>
      <path d="M 39.40625 66.21875 
Q 28.65625 66.21875 22.328125 58.203125 
Q 16.015625 50.203125 16.015625 36.375 
Q 16.015625 22.609375 22.328125 14.59375 
Q 28.65625 6.59375 39.40625 6.59375 
Q 50.140625 6.59375 56.421875 14.59375 
Q 62.703125 22.609375 62.703125 36.375 
Q 62.703125 50.203125 56.421875 58.203125 
Q 50.140625 66.21875 39.40625 66.21875 
M 39.40625 74.21875 
Q 54.734375 74.21875 63.90625 63.9375 
Q 73.09375 53.65625 73.09375 36.375 
Q 73.09375 19.140625 63.90625 8.859375 
Q 54.734375 -1.421875 39.40625 -1.421875 
Q 24.03125 -1.421875 14.8125 8.828125 
Q 5.609375 19.09375 5.609375 36.375 
Q 5.609375 53.65625 14.8125 63.9375 
Q 24.03125 74.21875 39.40625 74.21875 
" id="BitstreamVeraSans-Roman-4f"/>
      <path d="M 54.890625 33.015625 
L 54.890625 0 
L 45.90625 0 
L 45.90625 32.71875 
Q 45.90625 40.484375 42.875 44.328125 
Q 39.84375 48.1875 33.796875 48.1875 
Q 26.515625 48.1875 22.3125 43.546875 
Q 18.109375 38.921875 18.109375 30.90625 
L 18.109375 0 
L 9.078125 0 
L 9.078125 54.6875 
L 18.109375 54.6875 
L 18.109375 46.1875 
Q 21.34375 51.125 25.703125 53.5625 
Q 30.078125 56 35.796875 56 
Q 45.21875 56 50.046875 50.171875 
Q 54.890625 44.34375 54.890625 33.015625 
" id="BitstreamVeraSans-Roman-6e"/>
      <path d="M 45.40625 27.984375 
Q 45.40625 37.75 41.375 43.109375 
Q 37.359375 48.484375 30.078125 48.484375 
Q 22.859375 48.484375 18.828125 43.109375 
Q 14.796875 37.75 14.796875 27.984375 
Q 14.796875 18.265625 18.828125 12.890625 
Q 22.859375 7.515625 30.078125 7.515625 
Q 37.359375 7.515625 41.375 12.890625 
Q 45.40625 18.265625 45.40625 27.984375 
M 54.390625 6.78125 
Q 54.390625 -7.171875 48.1875 -13.984375 
Q 42 -20.796875 29.203125 -20.796875 
Q 24.46875 -20.796875 20.265625 -20.09375 
Q 16.0625 -19.390625 12.109375 -17.921875 
L 12.109375 -9.1875 
Q 16.0625 -11.328125 19.921875 -12.34375 
Q 23.78125 -13.375 27.78125 -13.375 
Q 36.625 -13.375 41.015625 -8.765625 
Q 45.40625 -4.15625 45.40625 5.171875 
L 45.40625 9.625 
Q 42.625 4.78125 38.28125 2.390625 
Q 33.9375 0 27.875 0 
Q 17.828125 0 11.671875 7.65625 
Q 5.515625 15.328125 5.515625 27.984375 
Q 5.515625 40.671875 11.671875 48.328125 
Q 17.828125 56 27.875 56 
Q 33.9375 56 38.28125 53.609375 
Q 42.625 51.21875 45.40625 46.390625 
L 45.40625 54.6875 
L 54.390625 54.6875 
z
" id="BitstreamVeraSans-Roman-67"/>
     </defs>
     <g transform="translate(431.75625 68.22125)scale(0.08 -0.08)">
      <use xlink:href="#BitstreamVeraSans-Roman-4d"/>
      <use x="86.279296875" xlink:href="#BitstreamVeraSans-Roman-4d"/>
      <use x="172.55859375" xlink:href="#BitstreamVeraSans-Roman-20"/>
      <use x="204.345703125" xlink:href="#BitstreamVeraSans-Roman-4f"/>
      <use x="283.056640625" xlink:href="#BitstreamVeraSans-Roman-72"/>
      <use x="324.169921875" xlink:href="#BitstreamVeraSans-Roman-69"/>
      <use x="351.953125" xlink:href="#BitstreamVeraSans-Roman-67"/>
      <use x="415.4296875" xlink:href="#BitstreamVeraSans-Roman-69"/>
      <use x="443.212890625" xlink:href="#BitstreamVeraSans-Roman-6e"/>
      <use x="506.591796875" xlink:href="#BitstreamVeraSans-Roman-61"/>
      <use x="567.87109375" xlink:href="#BitstreamVeraSans-Roman-6c"/>
     </g>
    </g>
    <g id="line2d_46">
     <path d="M 411.75625 77.16375 
L 422.95625 77.16375 
" style="fill:none;stroke:#000000;stroke-linecap:square;"/>
    </g>
    <g id="line2d_47">
     <g>
      <use style="stroke:#000000;stroke-width:0.5;" x="411.75625" xlink:href="#m0af97fce5e" y="77.16375"/>
      <use style="stroke:#000000;stroke-width:0.5;" x="422.95625" xlink:href="#m0af97fce5e" y="77.16375"/>
     </g>
    </g>
    <g id="text_24">
     <!-- MM With phi zeroed -->
     <defs>
      <path d="M 18.109375 8.203125 
L 18.109375 -20.796875 
L 9.078125 -20.796875 
L 9.078125 54.6875 
L 18.109375 54.6875 
L 18.109375 46.390625 
Q 20.953125 51.265625 25.265625 53.625 
Q 29.59375 56 35.59375 56 
Q 45.5625 56 51.78125 48.09375 
Q 58.015625 40.1875 58.015625 27.296875 
Q 58.015625 14.40625 51.78125 6.484375 
Q 45.5625 -1.421875 35.59375 -1.421875 
Q 29.59375 -1.421875 25.265625 0.953125 
Q 20.953125 3.328125 18.109375 8.203125 
M 48.6875 27.296875 
Q 48.6875 37.203125 44.609375 42.84375 
Q 40.53125 48.484375 33.40625 48.484375 
Q 26.265625 48.484375 22.1875 42.84375 
Q 18.109375 37.203125 18.109375 27.296875 
Q 18.109375 17.390625 22.1875 11.75 
Q 26.265625 6.109375 33.40625 6.109375 
Q 40.53125 6.109375 44.609375 11.75 
Q 48.6875 17.390625 48.6875 27.296875 
" id="BitstreamVeraSans-Roman-70"/>
      <path d="M 18.3125 70.21875 
L 18.3125 54.6875 
L 36.8125 54.6875 
L 36.8125 47.703125 
L 18.3125 47.703125 
L 18.3125 18.015625 
Q 18.3125 11.328125 20.140625 9.421875 
Q 21.96875 7.515625 27.59375 7.515625 
L 36.8125 7.515625 
L 36.8125 0 
L 27.59375 0 
Q 17.1875 0 13.234375 3.875 
Q 9.28125 7.765625 9.28125 18.015625 
L 9.28125 47.703125 
L 2.6875 47.703125 
L 2.6875 54.6875 
L 9.28125 54.6875 
L 9.28125 70.21875 
z
" id="BitstreamVeraSans-Roman-74"/>
      <path d="M 56.203125 29.59375 
L 56.203125 25.203125 
L 14.890625 25.203125 
Q 15.484375 15.921875 20.484375 11.0625 
Q 25.484375 6.203125 34.421875 6.203125 
Q 39.59375 6.203125 44.453125 7.46875 
Q 49.3125 8.734375 54.109375 11.28125 
L 54.109375 2.78125 
Q 49.265625 0.734375 44.1875 -0.34375 
Q 39.109375 -1.421875 33.890625 -1.421875 
Q 20.796875 -1.421875 13.15625 6.1875 
Q 5.515625 13.8125 5.515625 26.8125 
Q 5.515625 40.234375 12.765625 48.109375 
Q 20.015625 56 32.328125 56 
Q 43.359375 56 49.78125 48.890625 
Q 56.203125 41.796875 56.203125 29.59375 
M 47.21875 32.234375 
Q 47.125 39.59375 43.09375 43.984375 
Q 39.0625 48.390625 32.421875 48.390625 
Q 24.90625 48.390625 20.390625 44.140625 
Q 15.875 39.890625 15.1875 32.171875 
z
" id="BitstreamVeraSans-Roman-65"/>
      <path d="M 45.40625 46.390625 
L 45.40625 75.984375 
L 54.390625 75.984375 
L 54.390625 0 
L 45.40625 0 
L 45.40625 8.203125 
Q 42.578125 3.328125 38.25 0.953125 
Q 33.9375 -1.421875 27.875 -1.421875 
Q 17.96875 -1.421875 11.734375 6.484375 
Q 5.515625 14.40625 5.515625 27.296875 
Q 5.515625 40.1875 11.734375 48.09375 
Q 17.96875 56 27.875 56 
Q 33.9375 56 38.25 53.625 
Q 42.578125 51.265625 45.40625 46.390625 
M 14.796875 27.296875 
Q 14.796875 17.390625 18.875 11.75 
Q 22.953125 6.109375 30.078125 6.109375 
Q 37.203125 6.109375 41.296875 11.75 
Q 45.40625 17.390625 45.40625 27.296875 
Q 45.40625 37.203125 41.296875 42.84375 
Q 37.203125 48.484375 30.078125 48.484375 
Q 22.953125 48.484375 18.875 42.84375 
Q 14.796875 37.203125 14.796875 27.296875 
" id="BitstreamVeraSans-Roman-64"/>
      <path d="M 5.515625 54.6875 
L 48.1875 54.6875 
L 48.1875 46.484375 
L 14.40625 7.171875 
L 48.1875 7.171875 
L 48.1875 0 
L 4.296875 0 
L 4.296875 8.203125 
L 38.09375 47.515625 
L 5.515625 47.515625 
z
" id="BitstreamVeraSans-Roman-7a"/>
      <path d="M 3.328125 72.90625 
L 13.28125 72.90625 
L 28.609375 11.28125 
L 43.890625 72.90625 
L 54.984375 72.90625 
L 70.3125 11.28125 
L 85.59375 72.90625 
L 95.609375 72.90625 
L 77.296875 0 
L 64.890625 0 
L 49.515625 63.28125 
L 33.984375 0 
L 21.578125 0 
z
" id="BitstreamVeraSans-Roman-57"/>
     </defs>
     <g transform="translate(431.75625 79.96375)scale(0.08 -0.08)">
      <use xlink:href="#BitstreamVeraSans-Roman-4d"/>
      <use x="86.279296875" xlink:href="#BitstreamVeraSans-Roman-4d"/>
      <use x="172.55859375" xlink:href="#BitstreamVeraSans-Roman-20"/>
      <use x="204.345703125" xlink:href="#BitstreamVeraSans-Roman-57"/>
      <use x="303.19140625" xlink:href="#BitstreamVeraSans-Roman-69"/>
      <use x="330.974609375" xlink:href="#BitstreamVeraSans-Roman-74"/>
      <use x="370.18359375" xlink:href="#BitstreamVeraSans-Roman-68"/>
      <use x="433.5625" xlink:href="#BitstreamVeraSans-Roman-20"/>
      <use x="465.349609375" xlink:href="#BitstreamVeraSans-Roman-70"/>
      <use x="528.826171875" xlink:href="#BitstreamVeraSans-Roman-68"/>
      <use x="592.205078125" xlink:href="#BitstreamVeraSans-Roman-69"/>
      <use x="619.98828125" xlink:href="#BitstreamVeraSans-Roman-20"/>
      <use x="651.775390625" xlink:href="#BitstreamVeraSans-Roman-7a"/>
      <use x="704.265625" xlink:href="#BitstreamVeraSans-Roman-65"/>
      <use x="765.7890625" xlink:href="#BitstreamVeraSans-Roman-72"/>
      <use x="806.87109375" xlink:href="#BitstreamVeraSans-Roman-6f"/>
      <use x="868.052734375" xlink:href="#BitstreamVeraSans-Roman-65"/>
      <use x="929.576171875" xlink:href="#BitstreamVeraSans-Roman-64"/>
     </g>
    </g>
    <g id="line2d_48">
     <path d="M 411.75625 88.90625 
L 422.95625 88.90625 
" style="fill:none;stroke:#ff00ff;stroke-linecap:square;"/>
    </g>
    <g id="line2d_49">
     <g>
      <use style="fill:#ff00ff;stroke:#ff00ff;stroke-width:0.5;" x="411.75625" xlink:href="#m99bba21c5f" y="88.90625"/>
      <use style="fill:#ff00ff;stroke:#ff00ff;stroke-width:0.5;" x="422.95625" xlink:href="#m99bba21c5f" y="88.90625"/>
     </g>
    </g>
    <g id="text_25">
     <!-- QM-MM target -->
     <g transform="translate(431.75625 91.70625)scale(0.08 -0.08)">
      <use xlink:href="#BitstreamVeraSans-Roman-51"/>
      <use x="78.7109375" xlink:href="#BitstreamVeraSans-Roman-4d"/>
      <use x="164.990234375" xlink:href="#BitstreamVeraSans-Roman-2d"/>
      <use x="201.07421875" xlink:href="#BitstreamVeraSans-Roman-4d"/>
      <use x="287.353515625" xlink:href="#BitstreamVeraSans-Roman-4d"/>
      <use x="373.6328125" xlink:href="#BitstreamVeraSans-Roman-20"/>
      <use x="405.419921875" xlink:href="#BitstreamVeraSans-Roman-74"/>
      <use x="444.62890625" xlink:href="#BitstreamVeraSans-Roman-61"/>
      <use x="505.908203125" xlink:href="#BitstreamVeraSans-Roman-72"/>
      <use x="547.005859375" xlink:href="#BitstreamVeraSans-Roman-67"/>
      <use x="610.482421875" xlink:href="#BitstreamVeraSans-Roman-65"/>
      <use x="672.005859375" xlink:href="#BitstreamVeraSans-Roman-74"/>
     </g>
    </g>
    <g id="line2d_50">
     <path d="M 411.75625 100.64875 
L 422.95625 100.64875 
" style="fill:none;stroke:#008000;stroke-linecap:square;"/>
    </g>
    <g id="line2d_51">
     <g>
      <use style="fill:#008000;stroke:#000000;stroke-width:0.5;" x="411.75625" xlink:href="#m784bce97eb" y="100.64875"/>
      <use style="fill:#008000;stroke:#000000;stroke-width:0.5;" x="422.95625" xlink:href="#m784bce97eb" y="100.64875"/>
     </g>
    </g>
    <g id="text_26">
     <!-- MM Fitted -->
     <defs>
      <path d="M 9.8125 72.90625 
L 51.703125 72.90625 
L 51.703125 64.59375 
L 19.671875 64.59375 
L 19.671875 43.109375 
L 48.578125 43.109375 
L 48.578125 34.8125 
L 19.671875 34.8125 
L 19.671875 0 
L 9.8125 0 
z
" id="BitstreamVeraSans-Roman-46"/>
     </defs>
     <g transform="translate(431.75625 103.44875)scale(0.08 -0.08)">
      <use xlink:href="#BitstreamVeraSans-Roman-4d"/>
      <use x="86.279296875" xlink:href="#BitstreamVeraSans-Roman-4d"/>
      <use x="172.55859375" xlink:href="#BitstreamVeraSans-Roman-20"/>
      <use x="204.345703125" xlink:href="#BitstreamVeraSans-Roman-46"/>
      <use x="261.755859375" xlink:href="#BitstreamVeraSans-Roman-69"/>
      <use x="289.5390625" xlink:href="#BitstreamVeraSans-Roman-74"/>
      <use x="328.748046875" xlink:href="#BitstreamVeraSans-Roman-74"/>
      <use x="367.95703125" xlink:href="#BitstreamVeraSans-Roman-65"/>
      <use x="429.48046875" xlink:href="#BitstreamVeraSans-Roman-64"/>
     </g>
    </g>
   </g>
  </g>
 </g>
 <defs>
  <clipPath id="pf0ab054f0d">
   <rect height="345.6" width="446.4" x="72.0" y="43.2"/>
  </clipPath>
 </defs>
</svg>
