<?xml version="1.0" encoding="utf-8" standalone="no"?>
<!DOCTYPE svg PUBLIC "-//W3C//DTD SVG 1.1//EN"
  "http://www.w3.org/Graphics/SVG/1.1/DTD/svg11.dtd">
<!-- Created with matplotlib (http://matplotlib.org/) -->
<svg height="432pt" version="1.1" viewBox="0 0 576 432" width="576pt" xmlns="http://www.w3.org/2000/svg" xmlns:xlink="http://www.w3.org/1999/xlink">
 <defs>
  <style type="text/css">
*{stroke-linecap:butt;stroke-linejoin:round;stroke-miterlimit:100000;}
  </style>
 </defs>
 <g id="figure_1">
  <g id="patch_1">
   <path d="M 0 432 
L 576 432 
L 576 0 
L 0 0 
z
" style="fill:#ffffff;"/>
  </g>
  <g id="axes_1">
   <g id="patch_2">
    <path d="M 72 388.8 
L 518.4 388.8 
L 518.4 43.2 
L 72 43.2 
z
" style="fill:#ffffff;"/>
   </g>
   <g id="line2d_1">
    <path clip-path="url(#p811b2c8199)" d="M 71.999956 388.8 
L 84.399953 371.699709 
L 96.799961 322.114303 
L 109.199996 250.180892 
L 121.600009 172.894441 
L 134.000008 109.803623 
L 146.4 77.684847 
L 158.79996 85.424119 
L 171.200008 130.85451 
L 183.599983 201.57156 
L 196.000023 279.106363 
L 208.400003 344.274737 
L 220.8 382.271319 
L 233.200017 386.253477 
L 245.600044 358.534014 
L 257.99999 309.490812 
L 270.400055 254.539878 
L 282.799981 209.746181 
L 295.20002 187.350322 
L 307.600046 192.700897 
L 320.000032 223.409468 
L 332.400029 270.583845 
L 344.800039 321.432922 
L 357.200035 362.563581 
L 369.599976 383.305661 
L 381.999981 378.324373 
L 394.400024 348.89831 
L 406.800015 302.615922 
L 419.200028 251.541125 
L 431.600003 209.244138 
L 443.999996 187.403084 
L 456.400006 192.696244 
L 468.799949 224.627077 
L 481.199978 275.007521 
L 493.599977 329.680409 
L 505.999953 372.267907 
" style="fill:none;stroke:#ff0000;stroke-linecap:square;"/>
    <defs>
     <path d="M 0 3 
C 0.795609 3 1.55874 2.683901 2.12132 2.12132 
C 2.683901 1.55874 3 0.795609 3 0 
C 3 -0.795609 2.683901 -1.55874 2.12132 -2.12132 
C 1.55874 -2.683901 0.795609 -3 0 -3 
C -0.795609 -3 -1.55874 -2.683901 -2.12132 -2.12132 
C -2.683901 -1.55874 -3 -0.795609 -3 0 
C -3 0.795609 -2.683901 1.55874 -2.12132 2.12132 
C -1.55874 2.683901 -0.795609 3 0 3 
z
" id="m5bf0dc4140" style="stroke:#000000;stroke-width:0.5;"/>
    </defs>
    <g clip-path="url(#p811b2c8199)">
     <use style="fill:#ff0000;stroke:#000000;stroke-width:0.5;" x="71.9999564067" xlink:href="#m5bf0dc4140" y="388.8"/>
     <use style="fill:#ff0000;stroke:#000000;stroke-width:0.5;" x="84.39995308" xlink:href="#m5bf0dc4140" y="371.699708866"/>
     <use style="fill:#ff0000;stroke:#000000;stroke-width:0.5;" x="96.7999614807" xlink:href="#m5bf0dc4140" y="322.114303285"/>
     <use style="fill:#ff0000;stroke:#000000;stroke-width:0.5;" x="109.199996342" xlink:href="#m5bf0dc4140" y="250.180892134"/>
     <use style="fill:#ff0000;stroke:#000000;stroke-width:0.5;" x="121.60000892" xlink:href="#m5bf0dc4140" y="172.894441187"/>
     <use style="fill:#ff0000;stroke:#000000;stroke-width:0.5;" x="134.000007656" xlink:href="#m5bf0dc4140" y="109.803623022"/>
     <use style="fill:#ff0000;stroke:#000000;stroke-width:0.5;" x="146.400000358" xlink:href="#m5bf0dc4140" y="77.6848471795"/>
     <use style="fill:#ff0000;stroke:#000000;stroke-width:0.5;" x="158.799960481" xlink:href="#m5bf0dc4140" y="85.4241185041"/>
     <use style="fill:#ff0000;stroke:#000000;stroke-width:0.5;" x="171.200007757" xlink:href="#m5bf0dc4140" y="130.854509762"/>
     <use style="fill:#ff0000;stroke:#000000;stroke-width:0.5;" x="183.599983118" xlink:href="#m5bf0dc4140" y="201.571559818"/>
     <use style="fill:#ff0000;stroke:#000000;stroke-width:0.5;" x="196.000022586" xlink:href="#m5bf0dc4140" y="279.106363113"/>
     <use style="fill:#ff0000;stroke:#000000;stroke-width:0.5;" x="208.400002638" xlink:href="#m5bf0dc4140" y="344.274736572"/>
     <use style="fill:#ff0000;stroke:#000000;stroke-width:0.5;" x="220.800000437" xlink:href="#m5bf0dc4140" y="382.271318706"/>
     <use style="fill:#ff0000;stroke:#000000;stroke-width:0.5;" x="233.200016739" xlink:href="#m5bf0dc4140" y="386.25347735"/>
     <use style="fill:#ff0000;stroke:#000000;stroke-width:0.5;" x="245.600043509" xlink:href="#m5bf0dc4140" y="358.534013796"/>
     <use style="fill:#ff0000;stroke:#000000;stroke-width:0.5;" x="257.999989992" xlink:href="#m5bf0dc4140" y="309.490811786"/>
     <use style="fill:#ff0000;stroke:#000000;stroke-width:0.5;" x="270.40005531" xlink:href="#m5bf0dc4140" y="254.539878385"/>
     <use style="fill:#ff0000;stroke:#000000;stroke-width:0.5;" x="282.799980904" xlink:href="#m5bf0dc4140" y="209.746180659"/>
     <use style="fill:#ff0000;stroke:#000000;stroke-width:0.5;" x="295.20002043" xlink:href="#m5bf0dc4140" y="187.350321817"/>
     <use style="fill:#ff0000;stroke:#000000;stroke-width:0.5;" x="307.600046245" xlink:href="#m5bf0dc4140" y="192.70089666"/>
     <use style="fill:#ff0000;stroke:#000000;stroke-width:0.5;" x="320.000032388" xlink:href="#m5bf0dc4140" y="223.409468349"/>
     <use style="fill:#ff0000;stroke:#000000;stroke-width:0.5;" x="332.400028919" xlink:href="#m5bf0dc4140" y="270.583845126"/>
     <use style="fill:#ff0000;stroke:#000000;stroke-width:0.5;" x="344.800038942" xlink:href="#m5bf0dc4140" y="321.432922402"/>
     <use style="fill:#ff0000;stroke:#000000;stroke-width:0.5;" x="357.200035342" xlink:href="#m5bf0dc4140" y="362.563581186"/>
     <use style="fill:#ff0000;stroke:#000000;stroke-width:0.5;" x="369.599975542" xlink:href="#m5bf0dc4140" y="383.305661337"/>
     <use style="fill:#ff0000;stroke:#000000;stroke-width:0.5;" x="381.999981067" xlink:href="#m5bf0dc4140" y="378.324373079"/>
     <use style="fill:#ff0000;stroke:#000000;stroke-width:0.5;" x="394.400023796" xlink:href="#m5bf0dc4140" y="348.898310282"/>
     <use style="fill:#ff0000;stroke:#000000;stroke-width:0.5;" x="406.800014536" xlink:href="#m5bf0dc4140" y="302.615922171"/>
     <use style="fill:#ff0000;stroke:#000000;stroke-width:0.5;" x="419.200028221" xlink:href="#m5bf0dc4140" y="251.541124778"/>
     <use style="fill:#ff0000;stroke:#000000;stroke-width:0.5;" x="431.600002733" xlink:href="#m5bf0dc4140" y="209.244137893"/>
     <use style="fill:#ff0000;stroke:#000000;stroke-width:0.5;" x="443.999995634" xlink:href="#m5bf0dc4140" y="187.403084052"/>
     <use style="fill:#ff0000;stroke:#000000;stroke-width:0.5;" x="456.400005912" xlink:href="#m5bf0dc4140" y="192.696243948"/>
     <use style="fill:#ff0000;stroke:#000000;stroke-width:0.5;" x="468.799949442" xlink:href="#m5bf0dc4140" y="224.627076707"/>
     <use style="fill:#ff0000;stroke:#000000;stroke-width:0.5;" x="481.19997766" xlink:href="#m5bf0dc4140" y="275.00752128"/>
     <use style="fill:#ff0000;stroke:#000000;stroke-width:0.5;" x="493.599977345" xlink:href="#m5bf0dc4140" y="329.680408898"/>
     <use style="fill:#ff0000;stroke:#000000;stroke-width:0.5;" x="505.999953313" xlink:href="#m5bf0dc4140" y="372.267906888"/>
    </g>
   </g>
   <g id="line2d_2">
    <path clip-path="url(#p811b2c8199)" d="M 71.999956 384.395858 
L 84.399953 346.318591 
L 96.799961 275.0084 
L 109.199996 190.653909 
L 121.600009 121.334295 
L 134.000008 82.996984 
L 146.4 70.317967 
L 158.79996 72.755518 
L 171.200008 93.451452 
L 183.599983 143.914692 
L 196.000023 222.018415 
L 208.400003 304.815736 
L 220.8 365.139099 
L 233.200017 388.8 
L 245.600044 377.093789 
L 257.99999 340.857618 
L 270.400055 294.507375 
L 282.799981 252.011156 
L 295.20002 224.119429 
L 307.600046 216.559873 
L 320.000032 229.290417 
L 332.400029 256.896422 
L 344.800039 290.124731 
L 357.200035 318.459242 
L 369.599976 333.111407 
L 381.999981 329.576244 
L 394.400024 308.939623 
L 406.800015 277.562442 
L 419.200028 245.233854 
L 431.600003 222.33692 
L 443.999996 216.9232 
L 456.400006 232.494529 
L 468.799949 266.890681 
L 481.199978 312.332524 
L 493.599977 356.591978 
L 505.999953 385.151286 
" style="fill:none;stroke:#0000ff;stroke-linecap:square;"/>
    <defs>
     <path d="M 0 3 
C 0.795609 3 1.55874 2.683901 2.12132 2.12132 
C 2.683901 1.55874 3 0.795609 3 0 
C 3 -0.795609 2.683901 -1.55874 2.12132 -2.12132 
C 1.55874 -2.683901 0.795609 -3 0 -3 
C -0.795609 -3 -1.55874 -2.683901 -2.12132 -2.12132 
C -2.683901 -1.55874 -3 -0.795609 -3 0 
C -3 0.795609 -2.683901 1.55874 -2.12132 2.12132 
C -1.55874 2.683901 -0.795609 3 0 3 
z
" id="m669bedcf25" style="stroke:#000000;stroke-width:0.5;"/>
    </defs>
    <g clip-path="url(#p811b2c8199)">
     <use style="fill:#0000ff;stroke:#000000;stroke-width:0.5;" x="71.9999564067" xlink:href="#m669bedcf25" y="384.39585808"/>
     <use style="fill:#0000ff;stroke:#000000;stroke-width:0.5;" x="84.39995308" xlink:href="#m669bedcf25" y="346.318590633"/>
     <use style="fill:#0000ff;stroke:#000000;stroke-width:0.5;" x="96.7999614807" xlink:href="#m669bedcf25" y="275.008400446"/>
     <use style="fill:#0000ff;stroke:#000000;stroke-width:0.5;" x="109.199996342" xlink:href="#m669bedcf25" y="190.653908641"/>
     <use style="fill:#0000ff;stroke:#000000;stroke-width:0.5;" x="121.60000892" xlink:href="#m669bedcf25" y="121.33429529"/>
     <use style="fill:#0000ff;stroke:#000000;stroke-width:0.5;" x="134.000007656" xlink:href="#m669bedcf25" y="82.9969842938"/>
     <use style="fill:#0000ff;stroke:#000000;stroke-width:0.5;" x="146.400000358" xlink:href="#m669bedcf25" y="70.3179665427"/>
     <use style="fill:#0000ff;stroke:#000000;stroke-width:0.5;" x="158.799960481" xlink:href="#m669bedcf25" y="72.7555178823"/>
     <use style="fill:#0000ff;stroke:#000000;stroke-width:0.5;" x="171.200007757" xlink:href="#m669bedcf25" y="93.4514516259"/>
     <use style="fill:#0000ff;stroke:#000000;stroke-width:0.5;" x="183.599983118" xlink:href="#m669bedcf25" y="143.914692118"/>
     <use style="fill:#0000ff;stroke:#000000;stroke-width:0.5;" x="196.000022586" xlink:href="#m669bedcf25" y="222.018415272"/>
     <use style="fill:#0000ff;stroke:#000000;stroke-width:0.5;" x="208.400002638" xlink:href="#m669bedcf25" y="304.815735563"/>
     <use style="fill:#0000ff;stroke:#000000;stroke-width:0.5;" x="220.800000437" xlink:href="#m669bedcf25" y="365.139098696"/>
     <use style="fill:#0000ff;stroke:#000000;stroke-width:0.5;" x="233.200016739" xlink:href="#m669bedcf25" y="388.8"/>
     <use style="fill:#0000ff;stroke:#000000;stroke-width:0.5;" x="245.600043509" xlink:href="#m669bedcf25" y="377.093789482"/>
     <use style="fill:#0000ff;stroke:#000000;stroke-width:0.5;" x="257.999989992" xlink:href="#m669bedcf25" y="340.857618296"/>
     <use style="fill:#0000ff;stroke:#000000;stroke-width:0.5;" x="270.40005531" xlink:href="#m669bedcf25" y="294.507375229"/>
     <use style="fill:#0000ff;stroke:#000000;stroke-width:0.5;" x="282.799980904" xlink:href="#m669bedcf25" y="252.011156102"/>
     <use style="fill:#0000ff;stroke:#000000;stroke-width:0.5;" x="295.20002043" xlink:href="#m669bedcf25" y="224.119429199"/>
     <use style="fill:#0000ff;stroke:#000000;stroke-width:0.5;" x="307.600046245" xlink:href="#m669bedcf25" y="216.559872912"/>
     <use style="fill:#0000ff;stroke:#000000;stroke-width:0.5;" x="320.000032388" xlink:href="#m669bedcf25" y="229.290416679"/>
     <use style="fill:#0000ff;stroke:#000000;stroke-width:0.5;" x="332.400028919" xlink:href="#m669bedcf25" y="256.896422181"/>
     <use style="fill:#0000ff;stroke:#000000;stroke-width:0.5;" x="344.800038942" xlink:href="#m669bedcf25" y="290.124731089"/>
     <use style="fill:#0000ff;stroke:#000000;stroke-width:0.5;" x="357.200035342" xlink:href="#m669bedcf25" y="318.459242278"/>
     <use style="fill:#0000ff;stroke:#000000;stroke-width:0.5;" x="369.599975542" xlink:href="#m669bedcf25" y="333.111406714"/>
     <use style="fill:#0000ff;stroke:#000000;stroke-width:0.5;" x="381.999981067" xlink:href="#m669bedcf25" y="329.576243875"/>
     <use style="fill:#0000ff;stroke:#000000;stroke-width:0.5;" x="394.400023796" xlink:href="#m669bedcf25" y="308.939622691"/>
     <use style="fill:#0000ff;stroke:#000000;stroke-width:0.5;" x="406.800014536" xlink:href="#m669bedcf25" y="277.562442302"/>
     <use style="fill:#0000ff;stroke:#000000;stroke-width:0.5;" x="419.200028221" xlink:href="#m669bedcf25" y="245.233854096"/>
     <use style="fill:#0000ff;stroke:#000000;stroke-width:0.5;" x="431.600002733" xlink:href="#m669bedcf25" y="222.336920317"/>
     <use style="fill:#0000ff;stroke:#000000;stroke-width:0.5;" x="443.999995634" xlink:href="#m669bedcf25" y="216.923200203"/>
     <use style="fill:#0000ff;stroke:#000000;stroke-width:0.5;" x="456.400005912" xlink:href="#m669bedcf25" y="232.494529305"/>
     <use style="fill:#0000ff;stroke:#000000;stroke-width:0.5;" x="468.799949442" xlink:href="#m669bedcf25" y="266.890680741"/>
     <use style="fill:#0000ff;stroke:#000000;stroke-width:0.5;" x="481.19997766" xlink:href="#m669bedcf25" y="312.332524084"/>
     <use style="fill:#0000ff;stroke:#000000;stroke-width:0.5;" x="493.599977345" xlink:href="#m669bedcf25" y="356.591978493"/>
     <use style="fill:#0000ff;stroke:#000000;stroke-width:0.5;" x="505.999953313" xlink:href="#m669bedcf25" y="385.151286308"/>
    </g>
   </g>
   <g id="line2d_3">
    <path clip-path="url(#p811b2c8199)" d="M 71.999956 378.852731 
L 84.399953 342.983076 
L 96.799961 284.688406 
L 109.199996 220.669938 
L 121.600009 173.557656 
L 134.000008 153.348666 
L 146.4 149.861475 
L 158.79996 150.091404 
L 171.200008 157.771754 
L 183.599983 187.899049 
L 196.000023 243.795392 
L 208.400003 308.464427 
L 220.8 359.595971 
L 233.200017 385.464509 
L 245.600044 386.773868 
L 257.99999 370.873618 
L 270.400055 346.730808 
L 282.799981 322.362845 
L 295.20002 303.662941 
L 307.600046 293.895734 
L 320.000032 293.610751 
L 332.400029 300.88077 
L 344.800039 311.90176 
L 357.200035 322.107931 
L 369.599976 327.568294 
L 381.999981 326.240732 
L 394.400024 318.619682 
L 406.800015 307.57845 
L 419.200028 297.457218 
L 431.600003 292.688615 
L 443.999996 296.466699 
L 456.400006 309.830417 
L 468.799949 331.211049 
L 481.199978 356.316942 
L 493.599977 378.369009 
L 505.999953 388.8 
" style="fill:none;stroke:#000000;stroke-linecap:square;"/>
    <defs>
     <path d="M -3 3 
L 3 -3 
M -3 -3 
L 3 3 
" id="m383e0150d4" style="stroke:#000000;stroke-width:0.5;"/>
    </defs>
    <g clip-path="url(#p811b2c8199)">
     <use style="stroke:#000000;stroke-width:0.5;" x="71.9999564067" xlink:href="#m383e0150d4" y="378.852730964"/>
     <use style="stroke:#000000;stroke-width:0.5;" x="84.39995308" xlink:href="#m383e0150d4" y="342.983076104"/>
     <use style="stroke:#000000;stroke-width:0.5;" x="96.7999614807" xlink:href="#m383e0150d4" y="284.688406372"/>
     <use style="stroke:#000000;stroke-width:0.5;" x="109.199996342" xlink:href="#m383e0150d4" y="220.669938185"/>
     <use style="stroke:#000000;stroke-width:0.5;" x="121.60000892" xlink:href="#m383e0150d4" y="173.55765561"/>
     <use style="stroke:#000000;stroke-width:0.5;" x="134.000007656" xlink:href="#m383e0150d4" y="153.348665768"/>
     <use style="stroke:#000000;stroke-width:0.5;" x="146.400000358" xlink:href="#m383e0150d4" y="149.861475327"/>
     <use style="stroke:#000000;stroke-width:0.5;" x="158.799960481" xlink:href="#m383e0150d4" y="150.09140379"/>
     <use style="stroke:#000000;stroke-width:0.5;" x="171.200007757" xlink:href="#m383e0150d4" y="157.771753556"/>
     <use style="stroke:#000000;stroke-width:0.5;" x="183.599983118" xlink:href="#m383e0150d4" y="187.899049348"/>
     <use style="stroke:#000000;stroke-width:0.5;" x="196.000022586" xlink:href="#m383e0150d4" y="243.795392302"/>
     <use style="stroke:#000000;stroke-width:0.5;" x="208.400002638" xlink:href="#m383e0150d4" y="308.464426891"/>
     <use style="stroke:#000000;stroke-width:0.5;" x="220.800000437" xlink:href="#m383e0150d4" y="359.595970902"/>
     <use style="stroke:#000000;stroke-width:0.5;" x="233.200016739" xlink:href="#m383e0150d4" y="385.464509305"/>
     <use style="stroke:#000000;stroke-width:0.5;" x="245.600043509" xlink:href="#m383e0150d4" y="386.773867737"/>
     <use style="stroke:#000000;stroke-width:0.5;" x="257.999989992" xlink:href="#m383e0150d4" y="370.87361815"/>
     <use style="stroke:#000000;stroke-width:0.5;" x="270.40005531" xlink:href="#m383e0150d4" y="346.730807506"/>
     <use style="stroke:#000000;stroke-width:0.5;" x="282.799980904" xlink:href="#m383e0150d4" y="322.362845365"/>
     <use style="stroke:#000000;stroke-width:0.5;" x="295.20002043" xlink:href="#m383e0150d4" y="303.662940964"/>
     <use style="stroke:#000000;stroke-width:0.5;" x="307.600046245" xlink:href="#m383e0150d4" y="293.895733572"/>
     <use style="stroke:#000000;stroke-width:0.5;" x="320.000032388" xlink:href="#m383e0150d4" y="293.610750927"/>
     <use style="stroke:#000000;stroke-width:0.5;" x="332.400028919" xlink:href="#m383e0150d4" y="300.880769562"/>
     <use style="stroke:#000000;stroke-width:0.5;" x="344.800038942" xlink:href="#m383e0150d4" y="311.901760059"/>
     <use style="stroke:#000000;stroke-width:0.5;" x="357.200035342" xlink:href="#m383e0150d4" y="322.107931119"/>
     <use style="stroke:#000000;stroke-width:0.5;" x="369.599975542" xlink:href="#m383e0150d4" y="327.568293786"/>
     <use style="stroke:#000000;stroke-width:0.5;" x="381.999981067" xlink:href="#m383e0150d4" y="326.240731823"/>
     <use style="stroke:#000000;stroke-width:0.5;" x="394.400023796" xlink:href="#m383e0150d4" y="318.619682486"/>
     <use style="stroke:#000000;stroke-width:0.5;" x="406.800014536" xlink:href="#m383e0150d4" y="307.578449596"/>
     <use style="stroke:#000000;stroke-width:0.5;" x="419.200028221" xlink:href="#m383e0150d4" y="297.457217761"/>
     <use style="stroke:#000000;stroke-width:0.5;" x="431.600002733" xlink:href="#m383e0150d4" y="292.688614836"/>
     <use style="stroke:#000000;stroke-width:0.5;" x="443.999995634" xlink:href="#m383e0150d4" y="296.46669923"/>
     <use style="stroke:#000000;stroke-width:0.5;" x="456.400005912" xlink:href="#m383e0150d4" y="309.830416853"/>
     <use style="stroke:#000000;stroke-width:0.5;" x="468.799949442" xlink:href="#m383e0150d4" y="331.211049145"/>
     <use style="stroke:#000000;stroke-width:0.5;" x="481.19997766" xlink:href="#m383e0150d4" y="356.316942322"/>
     <use style="stroke:#000000;stroke-width:0.5;" x="493.599977345" xlink:href="#m383e0150d4" y="378.3690092"/>
     <use style="stroke:#000000;stroke-width:0.5;" x="505.999953313" xlink:href="#m383e0150d4" y="388.8"/>
    </g>
   </g>
   <g id="line2d_4">
    <path clip-path="url(#p811b2c8199)" d="M 71.999956 343.009901 
L 84.399953 361.779265 
L 96.799961 370.488529 
L 109.199996 362.573586 
L 121.600009 332.399418 
L 134.000008 289.51759 
L 146.4 260.886004 
L 158.79996 268.395347 
L 171.200008 306.145389 
L 183.599983 346.735143 
L 196.000023 368.373603 
L 208.400003 368.872942 
L 220.8 355.73798 
L 233.200017 333.8516 
L 245.600044 304.822779 
L 257.99999 271.679826 
L 270.400055 240.871703 
L 282.799981 220.445968 
L 295.20002 216.750013 
L 307.600046 231.867796 
L 320.000032 262.86135 
L 332.400029 302.765708 
L 344.800039 342.593795 
L 357.200035 373.518283 
L 369.599976 388.8 
L 381.999981 385.146274 
L 394.400024 363.34126 
L 406.800015 328.100105 
L 419.200028 287.146539 
L 431.600003 249.618156 
L 443.999996 223.999017 
L 456.400006 215.92846 
L 468.799949 226.47866 
L 481.199978 251.753211 
L 493.599977 284.374032 
L 505.999953 316.530539 
" style="fill:none;stroke:#ff00ff;stroke-linecap:square;"/>
    <defs>
     <path d="M -3 3 
L 3 -3 
M -3 -3 
L 3 3 
" id="m9e0859a1fe" style="stroke:#ff00ff;stroke-width:0.5;"/>
    </defs>
    <g clip-path="url(#p811b2c8199)">
     <use style="fill:#ff00ff;stroke:#ff00ff;stroke-width:0.5;" x="71.9999564067" xlink:href="#m9e0859a1fe" y="343.009901485"/>
     <use style="fill:#ff00ff;stroke:#ff00ff;stroke-width:0.5;" x="84.39995308" xlink:href="#m9e0859a1fe" y="361.779265211"/>
     <use style="fill:#ff00ff;stroke:#ff00ff;stroke-width:0.5;" x="96.7999614807" xlink:href="#m9e0859a1fe" y="370.488529362"/>
     <use style="fill:#ff00ff;stroke:#ff00ff;stroke-width:0.5;" x="109.199996342" xlink:href="#m9e0859a1fe" y="362.573586397"/>
     <use style="fill:#ff00ff;stroke:#ff00ff;stroke-width:0.5;" x="121.60000892" xlink:href="#m9e0859a1fe" y="332.399418025"/>
     <use style="fill:#ff00ff;stroke:#ff00ff;stroke-width:0.5;" x="134.000007656" xlink:href="#m9e0859a1fe" y="289.517589703"/>
     <use style="fill:#ff00ff;stroke:#ff00ff;stroke-width:0.5;" x="146.400000358" xlink:href="#m9e0859a1fe" y="260.886004301"/>
     <use style="fill:#ff00ff;stroke:#ff00ff;stroke-width:0.5;" x="158.799960481" xlink:href="#m9e0859a1fe" y="268.395347162"/>
     <use style="fill:#ff00ff;stroke:#ff00ff;stroke-width:0.5;" x="171.200007757" xlink:href="#m9e0859a1fe" y="306.145388654"/>
     <use style="fill:#ff00ff;stroke:#ff00ff;stroke-width:0.5;" x="183.599983118" xlink:href="#m9e0859a1fe" y="346.735142919"/>
     <use style="fill:#ff00ff;stroke:#ff00ff;stroke-width:0.5;" x="196.000022586" xlink:href="#m9e0859a1fe" y="368.37360326"/>
     <use style="fill:#ff00ff;stroke:#ff00ff;stroke-width:0.5;" x="208.400002638" xlink:href="#m9e0859a1fe" y="368.87294213"/>
     <use style="fill:#ff00ff;stroke:#ff00ff;stroke-width:0.5;" x="220.800000437" xlink:href="#m9e0859a1fe" y="355.737980253"/>
     <use style="fill:#ff00ff;stroke:#ff00ff;stroke-width:0.5;" x="233.200016739" xlink:href="#m9e0859a1fe" y="333.851600494"/>
     <use style="fill:#ff00ff;stroke:#ff00ff;stroke-width:0.5;" x="245.600043509" xlink:href="#m9e0859a1fe" y="304.822778509"/>
     <use style="fill:#ff00ff;stroke:#ff00ff;stroke-width:0.5;" x="257.999989992" xlink:href="#m9e0859a1fe" y="271.679826085"/>
     <use style="fill:#ff00ff;stroke:#ff00ff;stroke-width:0.5;" x="270.40005531" xlink:href="#m9e0859a1fe" y="240.871703328"/>
     <use style="fill:#ff00ff;stroke:#ff00ff;stroke-width:0.5;" x="282.799980904" xlink:href="#m9e0859a1fe" y="220.445967743"/>
     <use style="fill:#ff00ff;stroke:#ff00ff;stroke-width:0.5;" x="295.20002043" xlink:href="#m9e0859a1fe" y="216.750013301"/>
     <use style="fill:#ff00ff;stroke:#ff00ff;stroke-width:0.5;" x="307.600046245" xlink:href="#m9e0859a1fe" y="231.867795538"/>
     <use style="fill:#ff00ff;stroke:#ff00ff;stroke-width:0.5;" x="320.000032388" xlink:href="#m9e0859a1fe" y="262.861349871"/>
     <use style="fill:#ff00ff;stroke:#ff00ff;stroke-width:0.5;" x="332.400028919" xlink:href="#m9e0859a1fe" y="302.765708013"/>
     <use style="fill:#ff00ff;stroke:#ff00ff;stroke-width:0.5;" x="344.800038942" xlink:href="#m9e0859a1fe" y="342.593794791"/>
     <use style="fill:#ff00ff;stroke:#ff00ff;stroke-width:0.5;" x="357.200035342" xlink:href="#m9e0859a1fe" y="373.518282516"/>
     <use style="fill:#ff00ff;stroke:#ff00ff;stroke-width:0.5;" x="369.599975542" xlink:href="#m9e0859a1fe" y="388.8"/>
     <use style="fill:#ff00ff;stroke:#ff00ff;stroke-width:0.5;" x="381.999981067" xlink:href="#m9e0859a1fe" y="385.146273705"/>
     <use style="fill:#ff00ff;stroke:#ff00ff;stroke-width:0.5;" x="394.400023796" xlink:href="#m9e0859a1fe" y="363.341260244"/>
     <use style="fill:#ff00ff;stroke:#ff00ff;stroke-width:0.5;" x="406.800014536" xlink:href="#m9e0859a1fe" y="328.100105024"/>
     <use style="fill:#ff00ff;stroke:#ff00ff;stroke-width:0.5;" x="419.200028221" xlink:href="#m9e0859a1fe" y="287.146539466"/>
     <use style="fill:#ff00ff;stroke:#ff00ff;stroke-width:0.5;" x="431.600002733" xlink:href="#m9e0859a1fe" y="249.618155505"/>
     <use style="fill:#ff00ff;stroke:#ff00ff;stroke-width:0.5;" x="443.999995634" xlink:href="#m9e0859a1fe" y="223.999017271"/>
     <use style="fill:#ff00ff;stroke:#ff00ff;stroke-width:0.5;" x="456.400005912" xlink:href="#m9e0859a1fe" y="215.928459544"/>
     <use style="fill:#ff00ff;stroke:#ff00ff;stroke-width:0.5;" x="468.799949442" xlink:href="#m9e0859a1fe" y="226.478660011"/>
     <use style="fill:#ff00ff;stroke:#ff00ff;stroke-width:0.5;" x="481.19997766" xlink:href="#m9e0859a1fe" y="251.753211407"/>
     <use style="fill:#ff00ff;stroke:#ff00ff;stroke-width:0.5;" x="493.599977345" xlink:href="#m9e0859a1fe" y="284.374032147"/>
     <use style="fill:#ff00ff;stroke:#ff00ff;stroke-width:0.5;" x="505.999953313" xlink:href="#m9e0859a1fe" y="316.530539337"/>
    </g>
   </g>
   <g id="line2d_5">
    <path clip-path="url(#p811b2c8199)" d="M 71.999956 388.8 
L 84.399953 376.43822 
L 96.799961 326.982371 
L 109.199996 249.524082 
L 121.600009 168.957091 
L 134.000008 110.273488 
L 146.4 83.851487 
L 158.79996 89.791765 
L 171.200008 128.519252 
L 183.599983 197.602583 
L 196.000023 280.505258 
L 208.400003 349.757878 
L 220.8 385.332419 
L 233.200017 384.684119 
L 245.600044 356.304107 
L 257.99999 310.694207 
L 270.400055 258.549269 
L 282.799981 212.741622 
L 295.20002 187.173425 
L 307.600046 191.111016 
L 320.000032 223.649994 
L 332.400029 273.520888 
L 344.800039 324.71313 
L 357.200035 363.532995 
L 369.599976 382.12897 
L 381.999981 377.729945 
L 394.400024 350.92697 
L 406.800015 306.167722 
L 419.200028 253.615461 
L 431.600003 208.517522 
L 443.999996 185.969215 
L 456.400006 193.724195 
L 468.799949 228.448755 
L 481.199978 278.321989 
L 493.599977 329.358316 
L 505.999953 369.653044 
" style="fill:none;stroke:#008000;stroke-linecap:square;"/>
    <defs>
     <path d="M 0 3 
C 0.795609 3 1.55874 2.683901 2.12132 2.12132 
C 2.683901 1.55874 3 0.795609 3 0 
C 3 -0.795609 2.683901 -1.55874 2.12132 -2.12132 
C 1.55874 -2.683901 0.795609 -3 0 -3 
C -0.795609 -3 -1.55874 -2.683901 -2.12132 -2.12132 
C -2.683901 -1.55874 -3 -0.795609 -3 0 
C -3 0.795609 -2.683901 1.55874 -2.12132 2.12132 
C -1.55874 2.683901 -0.795609 3 0 3 
z
" id="m7ea55121b3" style="stroke:#000000;stroke-width:0.5;"/>
    </defs>
    <g clip-path="url(#p811b2c8199)">
     <use style="fill:#008000;stroke:#000000;stroke-width:0.5;" x="71.9999564067" xlink:href="#m7ea55121b3" y="388.8"/>
     <use style="fill:#008000;stroke:#000000;stroke-width:0.5;" x="84.39995308" xlink:href="#m7ea55121b3" y="376.438219517"/>
     <use style="fill:#008000;stroke:#000000;stroke-width:0.5;" x="96.7999614807" xlink:href="#m7ea55121b3" y="326.982371134"/>
     <use style="fill:#008000;stroke:#000000;stroke-width:0.5;" x="109.199996342" xlink:href="#m7ea55121b3" y="249.524081564"/>
     <use style="fill:#008000;stroke:#000000;stroke-width:0.5;" x="121.60000892" xlink:href="#m7ea55121b3" y="168.957091099"/>
     <use style="fill:#008000;stroke:#000000;stroke-width:0.5;" x="134.000007656" xlink:href="#m7ea55121b3" y="110.273488207"/>
     <use style="fill:#008000;stroke:#000000;stroke-width:0.5;" x="146.400000358" xlink:href="#m7ea55121b3" y="83.8514872274"/>
     <use style="fill:#008000;stroke:#000000;stroke-width:0.5;" x="158.799960481" xlink:href="#m7ea55121b3" y="89.7917645445"/>
     <use style="fill:#008000;stroke:#000000;stroke-width:0.5;" x="171.200007757" xlink:href="#m7ea55121b3" y="128.519251778"/>
     <use style="fill:#008000;stroke:#000000;stroke-width:0.5;" x="183.599983118" xlink:href="#m7ea55121b3" y="197.602582963"/>
     <use style="fill:#008000;stroke:#000000;stroke-width:0.5;" x="196.000022586" xlink:href="#m7ea55121b3" y="280.505257748"/>
     <use style="fill:#008000;stroke:#000000;stroke-width:0.5;" x="208.400002638" xlink:href="#m7ea55121b3" y="349.757877611"/>
     <use style="fill:#008000;stroke:#000000;stroke-width:0.5;" x="220.800000437" xlink:href="#m7ea55121b3" y="385.332419086"/>
     <use style="fill:#008000;stroke:#000000;stroke-width:0.5;" x="233.200016739" xlink:href="#m7ea55121b3" y="384.684119398"/>
     <use style="fill:#008000;stroke:#000000;stroke-width:0.5;" x="245.600043509" xlink:href="#m7ea55121b3" y="356.304107454"/>
     <use style="fill:#008000;stroke:#000000;stroke-width:0.5;" x="257.999989992" xlink:href="#m7ea55121b3" y="310.694206849"/>
     <use style="fill:#008000;stroke:#000000;stroke-width:0.5;" x="270.40005531" xlink:href="#m7ea55121b3" y="258.549268874"/>
     <use style="fill:#008000;stroke:#000000;stroke-width:0.5;" x="282.799980904" xlink:href="#m7ea55121b3" y="212.741621776"/>
     <use style="fill:#008000;stroke:#000000;stroke-width:0.5;" x="295.20002043" xlink:href="#m7ea55121b3" y="187.173424612"/>
     <use style="fill:#008000;stroke:#000000;stroke-width:0.5;" x="307.600046245" xlink:href="#m7ea55121b3" y="191.111015652"/>
     <use style="fill:#008000;stroke:#000000;stroke-width:0.5;" x="320.000032388" xlink:href="#m7ea55121b3" y="223.649994412"/>
     <use style="fill:#008000;stroke:#000000;stroke-width:0.5;" x="332.400028919" xlink:href="#m7ea55121b3" y="273.52088842"/>
     <use style="fill:#008000;stroke:#000000;stroke-width:0.5;" x="344.800038942" xlink:href="#m7ea55121b3" y="324.71313001"/>
     <use style="fill:#008000;stroke:#000000;stroke-width:0.5;" x="357.200035342" xlink:href="#m7ea55121b3" y="363.532994504"/>
     <use style="fill:#008000;stroke:#000000;stroke-width:0.5;" x="369.599975542" xlink:href="#m7ea55121b3" y="382.128969585"/>
     <use style="fill:#008000;stroke:#000000;stroke-width:0.5;" x="381.999981067" xlink:href="#m7ea55121b3" y="377.729944939"/>
     <use style="fill:#008000;stroke:#000000;stroke-width:0.5;" x="394.400023796" xlink:href="#m7ea55121b3" y="350.926970003"/>
     <use style="fill:#008000;stroke:#000000;stroke-width:0.5;" x="406.800014536" xlink:href="#m7ea55121b3" y="306.167721827"/>
     <use style="fill:#008000;stroke:#000000;stroke-width:0.5;" x="419.200028221" xlink:href="#m7ea55121b3" y="253.615460807"/>
     <use style="fill:#008000;stroke:#000000;stroke-width:0.5;" x="431.600002733" xlink:href="#m7ea55121b3" y="208.517522239"/>
     <use style="fill:#008000;stroke:#000000;stroke-width:0.5;" x="443.999995634" xlink:href="#m7ea55121b3" y="185.969214853"/>
     <use style="fill:#008000;stroke:#000000;stroke-width:0.5;" x="456.400005912" xlink:href="#m7ea55121b3" y="193.724194871"/>
     <use style="fill:#008000;stroke:#000000;stroke-width:0.5;" x="468.799949442" xlink:href="#m7ea55121b3" y="228.448754984"/>
     <use style="fill:#008000;stroke:#000000;stroke-width:0.5;" x="481.19997766" xlink:href="#m7ea55121b3" y="278.321989302"/>
     <use style="fill:#008000;stroke:#000000;stroke-width:0.5;" x="493.599977345" xlink:href="#m7ea55121b3" y="329.358315967"/>
     <use style="fill:#008000;stroke:#000000;stroke-width:0.5;" x="505.999953313" xlink:href="#m7ea55121b3" y="369.653044398"/>
    </g>
   </g>
   <g id="patch_3">
    <path d="M 72 388.8 
L 518.4 388.8 
" style="fill:none;stroke:#000000;stroke-linecap:square;stroke-linejoin:miter;"/>
   </g>
   <g id="patch_4">
    <path d="M 72 388.8 
L 72 43.2 
" style="fill:none;stroke:#000000;stroke-linecap:square;stroke-linejoin:miter;"/>
   </g>
   <g id="patch_5">
    <path d="M 72 43.2 
L 518.4 43.2 
" style="fill:none;stroke:#000000;stroke-linecap:square;stroke-linejoin:miter;"/>
   </g>
   <g id="patch_6">
    <path d="M 518.4 388.8 
L 518.4 43.2 
" style="fill:none;stroke:#000000;stroke-linecap:square;stroke-linejoin:miter;"/>
   </g>
   <g id="matplotlib.axis_1">
    <g id="xtick_1">
     <g id="line2d_6">
      <defs>
       <path d="M 0 0 
L 0 -4 
" id="m668a0e9abd" style="stroke:#000000;stroke-width:0.5;"/>
      </defs>
      <g>
       <use style="stroke:#000000;stroke-width:0.5;" x="72.0" xlink:href="#m668a0e9abd" y="388.8"/>
      </g>
     </g>
     <g id="line2d_7">
      <defs>
       <path d="M 0 0 
L 0 4 
" id="m67ed963f64" style="stroke:#000000;stroke-width:0.5;"/>
      </defs>
      <g>
       <use style="stroke:#000000;stroke-width:0.5;" x="72.0" xlink:href="#m67ed963f64" y="43.2"/>
      </g>
     </g>
     <g id="text_1">
      <!-- −180 -->
      <defs>
       <path d="M 31.78125 34.625 
Q 24.75 34.625 20.71875 30.859375 
Q 16.703125 27.09375 16.703125 20.515625 
Q 16.703125 13.921875 20.71875 10.15625 
Q 24.75 6.390625 31.78125 6.390625 
Q 38.8125 6.390625 42.859375 10.171875 
Q 46.921875 13.96875 46.921875 20.515625 
Q 46.921875 27.09375 42.890625 30.859375 
Q 38.875 34.625 31.78125 34.625 
M 21.921875 38.8125 
Q 15.578125 40.375 12.03125 44.71875 
Q 8.5 49.078125 8.5 55.328125 
Q 8.5 64.0625 14.71875 69.140625 
Q 20.953125 74.21875 31.78125 74.21875 
Q 42.671875 74.21875 48.875 69.140625 
Q 55.078125 64.0625 55.078125 55.328125 
Q 55.078125 49.078125 51.53125 44.71875 
Q 48 40.375 41.703125 38.8125 
Q 48.828125 37.15625 52.796875 32.3125 
Q 56.78125 27.484375 56.78125 20.515625 
Q 56.78125 9.90625 50.3125 4.234375 
Q 43.84375 -1.421875 31.78125 -1.421875 
Q 19.734375 -1.421875 13.25 4.234375 
Q 6.78125 9.90625 6.78125 20.515625 
Q 6.78125 27.484375 10.78125 32.3125 
Q 14.796875 37.15625 21.921875 38.8125 
M 18.3125 54.390625 
Q 18.3125 48.734375 21.84375 45.5625 
Q 25.390625 42.390625 31.78125 42.390625 
Q 38.140625 42.390625 41.71875 45.5625 
Q 45.3125 48.734375 45.3125 54.390625 
Q 45.3125 60.0625 41.71875 63.234375 
Q 38.140625 66.40625 31.78125 66.40625 
Q 25.390625 66.40625 21.84375 63.234375 
Q 18.3125 60.0625 18.3125 54.390625 
" id="BitstreamVeraSans-Roman-38"/>
       <path d="M 31.78125 66.40625 
Q 24.171875 66.40625 20.328125 58.90625 
Q 16.5 51.421875 16.5 36.375 
Q 16.5 21.390625 20.328125 13.890625 
Q 24.171875 6.390625 31.78125 6.390625 
Q 39.453125 6.390625 43.28125 13.890625 
Q 47.125 21.390625 47.125 36.375 
Q 47.125 51.421875 43.28125 58.90625 
Q 39.453125 66.40625 31.78125 66.40625 
M 31.78125 74.21875 
Q 44.046875 74.21875 50.515625 64.515625 
Q 56.984375 54.828125 56.984375 36.375 
Q 56.984375 17.96875 50.515625 8.265625 
Q 44.046875 -1.421875 31.78125 -1.421875 
Q 19.53125 -1.421875 13.0625 8.265625 
Q 6.59375 17.96875 6.59375 36.375 
Q 6.59375 54.828125 13.0625 64.515625 
Q 19.53125 74.21875 31.78125 74.21875 
" id="BitstreamVeraSans-Roman-30"/>
       <path d="M 12.40625 8.296875 
L 28.515625 8.296875 
L 28.515625 63.921875 
L 10.984375 60.40625 
L 10.984375 69.390625 
L 28.421875 72.90625 
L 38.28125 72.90625 
L 38.28125 8.296875 
L 54.390625 8.296875 
L 54.390625 0 
L 12.40625 0 
z
" id="BitstreamVeraSans-Roman-31"/>
       <path d="M 10.59375 35.5 
L 73.1875 35.5 
L 73.1875 27.203125 
L 10.59375 27.203125 
z
" id="BitstreamVeraSans-Roman-2212"/>
      </defs>
      <g transform="translate(55.5196875 401.918125)scale(0.12 -0.12)">
       <use xlink:href="#BitstreamVeraSans-Roman-2212"/>
       <use x="83.7890625" xlink:href="#BitstreamVeraSans-Roman-31"/>
       <use x="147.412109375" xlink:href="#BitstreamVeraSans-Roman-38"/>
       <use x="211.03515625" xlink:href="#BitstreamVeraSans-Roman-30"/>
      </g>
     </g>
    </g>
    <g id="xtick_2">
     <g id="line2d_8">
      <g>
       <use style="stroke:#000000;stroke-width:0.5;" x="127.8" xlink:href="#m668a0e9abd" y="388.8"/>
      </g>
     </g>
     <g id="line2d_9">
      <g>
       <use style="stroke:#000000;stroke-width:0.5;" x="127.8" xlink:href="#m67ed963f64" y="43.2"/>
      </g>
     </g>
     <g id="text_2">
      <!-- −135 -->
      <defs>
       <path d="M 10.796875 72.90625 
L 49.515625 72.90625 
L 49.515625 64.59375 
L 19.828125 64.59375 
L 19.828125 46.734375 
Q 21.96875 47.46875 24.109375 47.828125 
Q 26.265625 48.1875 28.421875 48.1875 
Q 40.625 48.1875 47.75 41.5 
Q 54.890625 34.8125 54.890625 23.390625 
Q 54.890625 11.625 47.5625 5.09375 
Q 40.234375 -1.421875 26.90625 -1.421875 
Q 22.3125 -1.421875 17.546875 -0.640625 
Q 12.796875 0.140625 7.71875 1.703125 
L 7.71875 11.625 
Q 12.109375 9.234375 16.796875 8.0625 
Q 21.484375 6.890625 26.703125 6.890625 
Q 35.15625 6.890625 40.078125 11.328125 
Q 45.015625 15.765625 45.015625 23.390625 
Q 45.015625 31 40.078125 35.4375 
Q 35.15625 39.890625 26.703125 39.890625 
Q 22.75 39.890625 18.8125 39.015625 
Q 14.890625 38.140625 10.796875 36.28125 
z
" id="BitstreamVeraSans-Roman-35"/>
       <path d="M 40.578125 39.3125 
Q 47.65625 37.796875 51.625 33 
Q 55.609375 28.21875 55.609375 21.1875 
Q 55.609375 10.40625 48.1875 4.484375 
Q 40.765625 -1.421875 27.09375 -1.421875 
Q 22.515625 -1.421875 17.65625 -0.515625 
Q 12.796875 0.390625 7.625 2.203125 
L 7.625 11.71875 
Q 11.71875 9.328125 16.59375 8.109375 
Q 21.484375 6.890625 26.8125 6.890625 
Q 36.078125 6.890625 40.9375 10.546875 
Q 45.796875 14.203125 45.796875 21.1875 
Q 45.796875 27.640625 41.28125 31.265625 
Q 36.765625 34.90625 28.71875 34.90625 
L 20.21875 34.90625 
L 20.21875 43.015625 
L 29.109375 43.015625 
Q 36.375 43.015625 40.234375 45.921875 
Q 44.09375 48.828125 44.09375 54.296875 
Q 44.09375 59.90625 40.109375 62.90625 
Q 36.140625 65.921875 28.71875 65.921875 
Q 24.65625 65.921875 20.015625 65.03125 
Q 15.375 64.15625 9.8125 62.3125 
L 9.8125 71.09375 
Q 15.4375 72.65625 20.34375 73.4375 
Q 25.25 74.21875 29.59375 74.21875 
Q 40.828125 74.21875 47.359375 69.109375 
Q 53.90625 64.015625 53.90625 55.328125 
Q 53.90625 49.265625 50.4375 45.09375 
Q 46.96875 40.921875 40.578125 39.3125 
" id="BitstreamVeraSans-Roman-33"/>
      </defs>
      <g transform="translate(111.3196875 401.918125)scale(0.12 -0.12)">
       <use xlink:href="#BitstreamVeraSans-Roman-2212"/>
       <use x="83.7890625" xlink:href="#BitstreamVeraSans-Roman-31"/>
       <use x="147.412109375" xlink:href="#BitstreamVeraSans-Roman-33"/>
       <use x="211.03515625" xlink:href="#BitstreamVeraSans-Roman-35"/>
      </g>
     </g>
    </g>
    <g id="xtick_3">
     <g id="line2d_10">
      <g>
       <use style="stroke:#000000;stroke-width:0.5;" x="183.6" xlink:href="#m668a0e9abd" y="388.8"/>
      </g>
     </g>
     <g id="line2d_11">
      <g>
       <use style="stroke:#000000;stroke-width:0.5;" x="183.6" xlink:href="#m67ed963f64" y="43.2"/>
      </g>
     </g>
     <g id="text_3">
      <!-- −90 -->
      <defs>
       <path d="M 10.984375 1.515625 
L 10.984375 10.5 
Q 14.703125 8.734375 18.5 7.8125 
Q 22.3125 6.890625 25.984375 6.890625 
Q 35.75 6.890625 40.890625 13.453125 
Q 46.046875 20.015625 46.78125 33.40625 
Q 43.953125 29.203125 39.59375 26.953125 
Q 35.25 24.703125 29.984375 24.703125 
Q 19.046875 24.703125 12.671875 31.3125 
Q 6.296875 37.9375 6.296875 49.421875 
Q 6.296875 60.640625 12.9375 67.421875 
Q 19.578125 74.21875 30.609375 74.21875 
Q 43.265625 74.21875 49.921875 64.515625 
Q 56.59375 54.828125 56.59375 36.375 
Q 56.59375 19.140625 48.40625 8.859375 
Q 40.234375 -1.421875 26.421875 -1.421875 
Q 22.703125 -1.421875 18.890625 -0.6875 
Q 15.09375 0.046875 10.984375 1.515625 
M 30.609375 32.421875 
Q 37.25 32.421875 41.125 36.953125 
Q 45.015625 41.5 45.015625 49.421875 
Q 45.015625 57.28125 41.125 61.84375 
Q 37.25 66.40625 30.609375 66.40625 
Q 23.96875 66.40625 20.09375 61.84375 
Q 16.21875 57.28125 16.21875 49.421875 
Q 16.21875 41.5 20.09375 36.953125 
Q 23.96875 32.421875 30.609375 32.421875 
" id="BitstreamVeraSans-Roman-39"/>
      </defs>
      <g transform="translate(170.9371875 401.918125)scale(0.12 -0.12)">
       <use xlink:href="#BitstreamVeraSans-Roman-2212"/>
       <use x="83.7890625" xlink:href="#BitstreamVeraSans-Roman-39"/>
       <use x="147.412109375" xlink:href="#BitstreamVeraSans-Roman-30"/>
      </g>
     </g>
    </g>
    <g id="xtick_4">
     <g id="line2d_12">
      <g>
       <use style="stroke:#000000;stroke-width:0.5;" x="239.4" xlink:href="#m668a0e9abd" y="388.8"/>
      </g>
     </g>
     <g id="line2d_13">
      <g>
       <use style="stroke:#000000;stroke-width:0.5;" x="239.4" xlink:href="#m67ed963f64" y="43.2"/>
      </g>
     </g>
     <g id="text_4">
      <!-- −45 -->
      <defs>
       <path d="M 37.796875 64.3125 
L 12.890625 25.390625 
L 37.796875 25.390625 
z
M 35.203125 72.90625 
L 47.609375 72.90625 
L 47.609375 25.390625 
L 58.015625 25.390625 
L 58.015625 17.1875 
L 47.609375 17.1875 
L 47.609375 0 
L 37.796875 0 
L 37.796875 17.1875 
L 4.890625 17.1875 
L 4.890625 26.703125 
z
" id="BitstreamVeraSans-Roman-34"/>
      </defs>
      <g transform="translate(226.7371875 401.918125)scale(0.12 -0.12)">
       <use xlink:href="#BitstreamVeraSans-Roman-2212"/>
       <use x="83.7890625" xlink:href="#BitstreamVeraSans-Roman-34"/>
       <use x="147.412109375" xlink:href="#BitstreamVeraSans-Roman-35"/>
      </g>
     </g>
    </g>
    <g id="xtick_5">
     <g id="line2d_14">
      <g>
       <use style="stroke:#000000;stroke-width:0.5;" x="295.2" xlink:href="#m668a0e9abd" y="388.8"/>
      </g>
     </g>
     <g id="line2d_15">
      <g>
       <use style="stroke:#000000;stroke-width:0.5;" x="295.2" xlink:href="#m67ed963f64" y="43.2"/>
      </g>
     </g>
     <g id="text_5">
      <!-- 0 -->
      <g transform="translate(291.3825 401.918125)scale(0.12 -0.12)">
       <use xlink:href="#BitstreamVeraSans-Roman-30"/>
      </g>
     </g>
    </g>
    <g id="xtick_6">
     <g id="line2d_16">
      <g>
       <use style="stroke:#000000;stroke-width:0.5;" x="351.0" xlink:href="#m668a0e9abd" y="388.8"/>
      </g>
     </g>
     <g id="line2d_17">
      <g>
       <use style="stroke:#000000;stroke-width:0.5;" x="351.0" xlink:href="#m67ed963f64" y="43.2"/>
      </g>
     </g>
     <g id="text_6">
      <!-- 45 -->
      <g transform="translate(343.365 401.918125)scale(0.12 -0.12)">
       <use xlink:href="#BitstreamVeraSans-Roman-34"/>
       <use x="63.623046875" xlink:href="#BitstreamVeraSans-Roman-35"/>
      </g>
     </g>
    </g>
    <g id="xtick_7">
     <g id="line2d_18">
      <g>
       <use style="stroke:#000000;stroke-width:0.5;" x="406.8" xlink:href="#m668a0e9abd" y="388.8"/>
      </g>
     </g>
     <g id="line2d_19">
      <g>
       <use style="stroke:#000000;stroke-width:0.5;" x="406.8" xlink:href="#m67ed963f64" y="43.2"/>
      </g>
     </g>
     <g id="text_7">
      <!-- 90 -->
      <g transform="translate(399.165 401.918125)scale(0.12 -0.12)">
       <use xlink:href="#BitstreamVeraSans-Roman-39"/>
       <use x="63.623046875" xlink:href="#BitstreamVeraSans-Roman-30"/>
      </g>
     </g>
    </g>
    <g id="xtick_8">
     <g id="line2d_20">
      <g>
       <use style="stroke:#000000;stroke-width:0.5;" x="462.6" xlink:href="#m668a0e9abd" y="388.8"/>
      </g>
     </g>
     <g id="line2d_21">
      <g>
       <use style="stroke:#000000;stroke-width:0.5;" x="462.6" xlink:href="#m67ed963f64" y="43.2"/>
      </g>
     </g>
     <g id="text_8">
      <!-- 135 -->
      <g transform="translate(451.1475 401.918125)scale(0.12 -0.12)">
       <use xlink:href="#BitstreamVeraSans-Roman-31"/>
       <use x="63.623046875" xlink:href="#BitstreamVeraSans-Roman-33"/>
       <use x="127.24609375" xlink:href="#BitstreamVeraSans-Roman-35"/>
      </g>
     </g>
    </g>
    <g id="xtick_9">
     <g id="line2d_22">
      <g>
       <use style="stroke:#000000;stroke-width:0.5;" x="518.4" xlink:href="#m668a0e9abd" y="388.8"/>
      </g>
     </g>
     <g id="line2d_23">
      <g>
       <use style="stroke:#000000;stroke-width:0.5;" x="518.4" xlink:href="#m67ed963f64" y="43.2"/>
      </g>
     </g>
     <g id="text_9">
      <!-- 180 -->
      <g transform="translate(506.9475 401.918125)scale(0.12 -0.12)">
       <use xlink:href="#BitstreamVeraSans-Roman-31"/>
       <use x="63.623046875" xlink:href="#BitstreamVeraSans-Roman-38"/>
       <use x="127.24609375" xlink:href="#BitstreamVeraSans-Roman-30"/>
      </g>
     </g>
    </g>
    <g id="text_10">
     <!-- Phi -->
     <defs>
      <path d="M 19.671875 64.796875 
L 19.671875 37.40625 
L 32.078125 37.40625 
Q 38.96875 37.40625 42.71875 40.96875 
Q 46.484375 44.53125 46.484375 51.125 
Q 46.484375 57.671875 42.71875 61.234375 
Q 38.96875 64.796875 32.078125 64.796875 
z
M 9.8125 72.90625 
L 32.078125 72.90625 
Q 44.34375 72.90625 50.609375 67.359375 
Q 56.890625 61.8125 56.890625 51.125 
Q 56.890625 40.328125 50.609375 34.8125 
Q 44.34375 29.296875 32.078125 29.296875 
L 19.671875 29.296875 
L 19.671875 0 
L 9.8125 0 
z
" id="BitstreamVeraSans-Roman-50"/>
      <path d="M 9.421875 54.6875 
L 18.40625 54.6875 
L 18.40625 0 
L 9.421875 0 
z
M 9.421875 75.984375 
L 18.40625 75.984375 
L 18.40625 64.59375 
L 9.421875 64.59375 
z
" id="BitstreamVeraSans-Roman-69"/>
      <path d="M 54.890625 33.015625 
L 54.890625 0 
L 45.90625 0 
L 45.90625 32.71875 
Q 45.90625 40.484375 42.875 44.328125 
Q 39.84375 48.1875 33.796875 48.1875 
Q 26.515625 48.1875 22.3125 43.546875 
Q 18.109375 38.921875 18.109375 30.90625 
L 18.109375 0 
L 9.078125 0 
L 9.078125 75.984375 
L 18.109375 75.984375 
L 18.109375 46.1875 
Q 21.34375 51.125 25.703125 53.5625 
Q 30.078125 56 35.796875 56 
Q 45.21875 56 50.046875 50.171875 
Q 54.890625 44.34375 54.890625 33.015625 
" id="BitstreamVeraSans-Roman-68"/>
     </defs>
     <g transform="translate(286.1128125 418.531875)scale(0.12 -0.12)">
      <use xlink:href="#BitstreamVeraSans-Roman-50"/>
      <use x="60.302734375" xlink:href="#BitstreamVeraSans-Roman-68"/>
      <use x="123.681640625" xlink:href="#BitstreamVeraSans-Roman-69"/>
     </g>
    </g>
   </g>
   <g id="matplotlib.axis_2">
    <g id="ytick_1">
     <g id="line2d_24">
      <defs>
       <path d="M 0 0 
L 4 0 
" id="mcbfa85496f" style="stroke:#000000;stroke-width:0.5;"/>
      </defs>
      <g>
       <use style="stroke:#000000;stroke-width:0.5;" x="72.0" xlink:href="#mcbfa85496f" y="388.8"/>
      </g>
     </g>
     <g id="line2d_25">
      <defs>
       <path d="M 0 0 
L -4 0 
" id="m0d7a3fe465" style="stroke:#000000;stroke-width:0.5;"/>
      </defs>
      <g>
       <use style="stroke:#000000;stroke-width:0.5;" x="518.4" xlink:href="#m0d7a3fe465" y="388.8"/>
      </g>
     </g>
     <g id="text_11">
      <!-- 0 -->
      <g transform="translate(60.365 392.11125)scale(0.12 -0.12)">
       <use xlink:href="#BitstreamVeraSans-Roman-30"/>
      </g>
     </g>
    </g>
    <g id="ytick_2">
     <g id="line2d_26">
      <g>
       <use style="stroke:#000000;stroke-width:0.5;" x="72.0" xlink:href="#mcbfa85496f" y="339.428571429"/>
      </g>
     </g>
     <g id="line2d_27">
      <g>
       <use style="stroke:#000000;stroke-width:0.5;" x="518.4" xlink:href="#m0d7a3fe465" y="339.428571429"/>
      </g>
     </g>
     <g id="text_12">
      <!-- 1 -->
      <g transform="translate(60.365 342.739821429)scale(0.12 -0.12)">
       <use xlink:href="#BitstreamVeraSans-Roman-31"/>
      </g>
     </g>
    </g>
    <g id="ytick_3">
     <g id="line2d_28">
      <g>
       <use style="stroke:#000000;stroke-width:0.5;" x="72.0" xlink:href="#mcbfa85496f" y="290.057142857"/>
      </g>
     </g>
     <g id="line2d_29">
      <g>
       <use style="stroke:#000000;stroke-width:0.5;" x="518.4" xlink:href="#m0d7a3fe465" y="290.057142857"/>
      </g>
     </g>
     <g id="text_13">
      <!-- 2 -->
      <defs>
       <path d="M 19.1875 8.296875 
L 53.609375 8.296875 
L 53.609375 0 
L 7.328125 0 
L 7.328125 8.296875 
Q 12.9375 14.109375 22.625 23.890625 
Q 32.328125 33.6875 34.8125 36.53125 
Q 39.546875 41.84375 41.421875 45.53125 
Q 43.3125 49.21875 43.3125 52.78125 
Q 43.3125 58.59375 39.234375 62.25 
Q 35.15625 65.921875 28.609375 65.921875 
Q 23.96875 65.921875 18.8125 64.3125 
Q 13.671875 62.703125 7.8125 59.421875 
L 7.8125 69.390625 
Q 13.765625 71.78125 18.9375 73 
Q 24.125 74.21875 28.421875 74.21875 
Q 39.75 74.21875 46.484375 68.546875 
Q 53.21875 62.890625 53.21875 53.421875 
Q 53.21875 48.921875 51.53125 44.890625 
Q 49.859375 40.875 45.40625 35.40625 
Q 44.1875 33.984375 37.640625 27.21875 
Q 31.109375 20.453125 19.1875 8.296875 
" id="BitstreamVeraSans-Roman-32"/>
      </defs>
      <g transform="translate(60.365 293.368392857)scale(0.12 -0.12)">
       <use xlink:href="#BitstreamVeraSans-Roman-32"/>
      </g>
     </g>
    </g>
    <g id="ytick_4">
     <g id="line2d_30">
      <g>
       <use style="stroke:#000000;stroke-width:0.5;" x="72.0" xlink:href="#mcbfa85496f" y="240.685714286"/>
      </g>
     </g>
     <g id="line2d_31">
      <g>
       <use style="stroke:#000000;stroke-width:0.5;" x="518.4" xlink:href="#m0d7a3fe465" y="240.685714286"/>
      </g>
     </g>
     <g id="text_14">
      <!-- 3 -->
      <g transform="translate(60.365 243.996964286)scale(0.12 -0.12)">
       <use xlink:href="#BitstreamVeraSans-Roman-33"/>
      </g>
     </g>
    </g>
    <g id="ytick_5">
     <g id="line2d_32">
      <g>
       <use style="stroke:#000000;stroke-width:0.5;" x="72.0" xlink:href="#mcbfa85496f" y="191.314285714"/>
      </g>
     </g>
     <g id="line2d_33">
      <g>
       <use style="stroke:#000000;stroke-width:0.5;" x="518.4" xlink:href="#m0d7a3fe465" y="191.314285714"/>
      </g>
     </g>
     <g id="text_15">
      <!-- 4 -->
      <g transform="translate(60.365 194.625535714)scale(0.12 -0.12)">
       <use xlink:href="#BitstreamVeraSans-Roman-34"/>
      </g>
     </g>
    </g>
    <g id="ytick_6">
     <g id="line2d_34">
      <g>
       <use style="stroke:#000000;stroke-width:0.5;" x="72.0" xlink:href="#mcbfa85496f" y="141.942857143"/>
      </g>
     </g>
     <g id="line2d_35">
      <g>
       <use style="stroke:#000000;stroke-width:0.5;" x="518.4" xlink:href="#m0d7a3fe465" y="141.942857143"/>
      </g>
     </g>
     <g id="text_16">
      <!-- 5 -->
      <g transform="translate(60.365 145.254107143)scale(0.12 -0.12)">
       <use xlink:href="#BitstreamVeraSans-Roman-35"/>
      </g>
     </g>
    </g>
    <g id="ytick_7">
     <g id="line2d_36">
      <g>
       <use style="stroke:#000000;stroke-width:0.5;" x="72.0" xlink:href="#mcbfa85496f" y="92.5714285714"/>
      </g>
     </g>
     <g id="line2d_37">
      <g>
       <use style="stroke:#000000;stroke-width:0.5;" x="518.4" xlink:href="#m0d7a3fe465" y="92.5714285714"/>
      </g>
     </g>
     <g id="text_17">
      <!-- 6 -->
      <defs>
       <path d="M 33.015625 40.375 
Q 26.375 40.375 22.484375 35.828125 
Q 18.609375 31.296875 18.609375 23.390625 
Q 18.609375 15.53125 22.484375 10.953125 
Q 26.375 6.390625 33.015625 6.390625 
Q 39.65625 6.390625 43.53125 10.953125 
Q 47.40625 15.53125 47.40625 23.390625 
Q 47.40625 31.296875 43.53125 35.828125 
Q 39.65625 40.375 33.015625 40.375 
M 52.59375 71.296875 
L 52.59375 62.3125 
Q 48.875 64.0625 45.09375 64.984375 
Q 41.3125 65.921875 37.59375 65.921875 
Q 27.828125 65.921875 22.671875 59.328125 
Q 17.53125 52.734375 16.796875 39.40625 
Q 19.671875 43.65625 24.015625 45.921875 
Q 28.375 48.1875 33.59375 48.1875 
Q 44.578125 48.1875 50.953125 41.515625 
Q 57.328125 34.859375 57.328125 23.390625 
Q 57.328125 12.15625 50.6875 5.359375 
Q 44.046875 -1.421875 33.015625 -1.421875 
Q 20.359375 -1.421875 13.671875 8.265625 
Q 6.984375 17.96875 6.984375 36.375 
Q 6.984375 53.65625 15.1875 63.9375 
Q 23.390625 74.21875 37.203125 74.21875 
Q 40.921875 74.21875 44.703125 73.484375 
Q 48.484375 72.75 52.59375 71.296875 
" id="BitstreamVeraSans-Roman-36"/>
      </defs>
      <g transform="translate(60.365 95.8826785714)scale(0.12 -0.12)">
       <use xlink:href="#BitstreamVeraSans-Roman-36"/>
      </g>
     </g>
    </g>
    <g id="ytick_8">
     <g id="line2d_38">
      <g>
       <use style="stroke:#000000;stroke-width:0.5;" x="72.0" xlink:href="#mcbfa85496f" y="43.2"/>
      </g>
     </g>
     <g id="line2d_39">
      <g>
       <use style="stroke:#000000;stroke-width:0.5;" x="518.4" xlink:href="#m0d7a3fe465" y="43.2"/>
      </g>
     </g>
     <g id="text_18">
      <!-- 7 -->
      <defs>
       <path d="M 8.203125 72.90625 
L 55.078125 72.90625 
L 55.078125 68.703125 
L 28.609375 0 
L 18.3125 0 
L 43.21875 64.59375 
L 8.203125 64.59375 
z
" id="BitstreamVeraSans-Roman-37"/>
      </defs>
      <g transform="translate(60.365 46.51125)scale(0.12 -0.12)">
       <use xlink:href="#BitstreamVeraSans-Roman-37"/>
      </g>
     </g>
    </g>
    <g id="text_19">
     <!-- kcal/mol -->
     <defs>
      <path d="M 34.28125 27.484375 
Q 23.390625 27.484375 19.1875 25 
Q 14.984375 22.515625 14.984375 16.5 
Q 14.984375 11.71875 18.140625 8.90625 
Q 21.296875 6.109375 26.703125 6.109375 
Q 34.1875 6.109375 38.703125 11.40625 
Q 43.21875 16.703125 43.21875 25.484375 
L 43.21875 27.484375 
z
M 52.203125 31.203125 
L 52.203125 0 
L 43.21875 0 
L 43.21875 8.296875 
Q 40.140625 3.328125 35.546875 0.953125 
Q 30.953125 -1.421875 24.3125 -1.421875 
Q 15.921875 -1.421875 10.953125 3.296875 
Q 6 8.015625 6 15.921875 
Q 6 25.140625 12.171875 29.828125 
Q 18.359375 34.515625 30.609375 34.515625 
L 43.21875 34.515625 
L 43.21875 35.40625 
Q 43.21875 41.609375 39.140625 45 
Q 35.0625 48.390625 27.6875 48.390625 
Q 23 48.390625 18.546875 47.265625 
Q 14.109375 46.140625 10.015625 43.890625 
L 10.015625 52.203125 
Q 14.9375 54.109375 19.578125 55.046875 
Q 24.21875 56 28.609375 56 
Q 40.484375 56 46.34375 49.84375 
Q 52.203125 43.703125 52.203125 31.203125 
" id="BitstreamVeraSans-Roman-61"/>
      <path d="M 48.78125 52.59375 
L 48.78125 44.1875 
Q 44.96875 46.296875 41.140625 47.34375 
Q 37.3125 48.390625 33.40625 48.390625 
Q 24.65625 48.390625 19.8125 42.84375 
Q 14.984375 37.3125 14.984375 27.296875 
Q 14.984375 17.28125 19.8125 11.734375 
Q 24.65625 6.203125 33.40625 6.203125 
Q 37.3125 6.203125 41.140625 7.25 
Q 44.96875 8.296875 48.78125 10.40625 
L 48.78125 2.09375 
Q 45.015625 0.34375 40.984375 -0.53125 
Q 36.96875 -1.421875 32.421875 -1.421875 
Q 20.0625 -1.421875 12.78125 6.34375 
Q 5.515625 14.109375 5.515625 27.296875 
Q 5.515625 40.671875 12.859375 48.328125 
Q 20.21875 56 33.015625 56 
Q 37.15625 56 41.109375 55.140625 
Q 45.0625 54.296875 48.78125 52.59375 
" id="BitstreamVeraSans-Roman-63"/>
      <path d="M 9.078125 75.984375 
L 18.109375 75.984375 
L 18.109375 31.109375 
L 44.921875 54.6875 
L 56.390625 54.6875 
L 27.390625 29.109375 
L 57.625 0 
L 45.90625 0 
L 18.109375 26.703125 
L 18.109375 0 
L 9.078125 0 
z
" id="BitstreamVeraSans-Roman-6b"/>
      <path d="M 30.609375 48.390625 
Q 23.390625 48.390625 19.1875 42.75 
Q 14.984375 37.109375 14.984375 27.296875 
Q 14.984375 17.484375 19.15625 11.84375 
Q 23.34375 6.203125 30.609375 6.203125 
Q 37.796875 6.203125 41.984375 11.859375 
Q 46.1875 17.53125 46.1875 27.296875 
Q 46.1875 37.015625 41.984375 42.703125 
Q 37.796875 48.390625 30.609375 48.390625 
M 30.609375 56 
Q 42.328125 56 49.015625 48.375 
Q 55.71875 40.765625 55.71875 27.296875 
Q 55.71875 13.875 49.015625 6.21875 
Q 42.328125 -1.421875 30.609375 -1.421875 
Q 18.84375 -1.421875 12.171875 6.21875 
Q 5.515625 13.875 5.515625 27.296875 
Q 5.515625 40.765625 12.171875 48.375 
Q 18.84375 56 30.609375 56 
" id="BitstreamVeraSans-Roman-6f"/>
      <path d="M 52 44.1875 
Q 55.375 50.25 60.0625 53.125 
Q 64.75 56 71.09375 56 
Q 79.640625 56 84.28125 50.015625 
Q 88.921875 44.046875 88.921875 33.015625 
L 88.921875 0 
L 79.890625 0 
L 79.890625 32.71875 
Q 79.890625 40.578125 77.09375 44.375 
Q 74.3125 48.1875 68.609375 48.1875 
Q 61.625 48.1875 57.5625 43.546875 
Q 53.515625 38.921875 53.515625 30.90625 
L 53.515625 0 
L 44.484375 0 
L 44.484375 32.71875 
Q 44.484375 40.625 41.703125 44.40625 
Q 38.921875 48.1875 33.109375 48.1875 
Q 26.21875 48.1875 22.15625 43.53125 
Q 18.109375 38.875 18.109375 30.90625 
L 18.109375 0 
L 9.078125 0 
L 9.078125 54.6875 
L 18.109375 54.6875 
L 18.109375 46.1875 
Q 21.1875 51.21875 25.484375 53.609375 
Q 29.78125 56 35.6875 56 
Q 41.65625 56 45.828125 52.96875 
Q 50 49.953125 52 44.1875 
" id="BitstreamVeraSans-Roman-6d"/>
      <path d="M 9.421875 75.984375 
L 18.40625 75.984375 
L 18.40625 0 
L 9.421875 0 
z
" id="BitstreamVeraSans-Roman-6c"/>
      <path d="M 25.390625 72.90625 
L 33.6875 72.90625 
L 8.296875 -9.28125 
L 0 -9.28125 
z
" id="BitstreamVeraSans-Roman-2f"/>
     </defs>
     <g transform="translate(52.869375 241.3209375)rotate(-90.0)scale(0.12 -0.12)">
      <use xlink:href="#BitstreamVeraSans-Roman-6b"/>
      <use x="57.91015625" xlink:href="#BitstreamVeraSans-Roman-63"/>
      <use x="112.890625" xlink:href="#BitstreamVeraSans-Roman-61"/>
      <use x="174.169921875" xlink:href="#BitstreamVeraSans-Roman-6c"/>
      <use x="201.953125" xlink:href="#BitstreamVeraSans-Roman-2f"/>
      <use x="235.64453125" xlink:href="#BitstreamVeraSans-Roman-6d"/>
      <use x="333.056640625" xlink:href="#BitstreamVeraSans-Roman-6f"/>
      <use x="394.23828125" xlink:href="#BitstreamVeraSans-Roman-6c"/>
     </g>
    </g>
   </g>
   <g id="text_20">
    <!-- H6-C3-C2-H4 -->
    <defs>
     <path d="M 9.8125 72.90625 
L 19.671875 72.90625 
L 19.671875 43.015625 
L 55.515625 43.015625 
L 55.515625 72.90625 
L 65.375 72.90625 
L 65.375 0 
L 55.515625 0 
L 55.515625 34.71875 
L 19.671875 34.71875 
L 19.671875 0 
L 9.8125 0 
z
" id="BitstreamVeraSans-Roman-48"/>
     <path d="M 64.40625 67.28125 
L 64.40625 56.890625 
Q 59.421875 61.53125 53.78125 63.8125 
Q 48.140625 66.109375 41.796875 66.109375 
Q 29.296875 66.109375 22.65625 58.46875 
Q 16.015625 50.828125 16.015625 36.375 
Q 16.015625 21.96875 22.65625 14.328125 
Q 29.296875 6.6875 41.796875 6.6875 
Q 48.140625 6.6875 53.78125 8.984375 
Q 59.421875 11.28125 64.40625 15.921875 
L 64.40625 5.609375 
Q 59.234375 2.09375 53.4375 0.328125 
Q 47.65625 -1.421875 41.21875 -1.421875 
Q 24.65625 -1.421875 15.125 8.703125 
Q 5.609375 18.84375 5.609375 36.375 
Q 5.609375 53.953125 15.125 64.078125 
Q 24.65625 74.21875 41.21875 74.21875 
Q 47.75 74.21875 53.53125 72.484375 
Q 59.328125 70.75 64.40625 67.28125 
" id="BitstreamVeraSans-Roman-43"/>
     <path d="M 4.890625 31.390625 
L 31.203125 31.390625 
L 31.203125 23.390625 
L 4.890625 23.390625 
z
" id="BitstreamVeraSans-Roman-2d"/>
    </defs>
    <g transform="translate(248.198625 38.2)scale(0.144 -0.144)">
     <use xlink:href="#BitstreamVeraSans-Roman-48"/>
     <use x="75.1953125" xlink:href="#BitstreamVeraSans-Roman-36"/>
     <use x="138.818359375" xlink:href="#BitstreamVeraSans-Roman-2d"/>
     <use x="174.90234375" xlink:href="#BitstreamVeraSans-Roman-43"/>
     <use x="244.7265625" xlink:href="#BitstreamVeraSans-Roman-33"/>
     <use x="308.349609375" xlink:href="#BitstreamVeraSans-Roman-2d"/>
     <use x="344.43359375" xlink:href="#BitstreamVeraSans-Roman-43"/>
     <use x="414.2578125" xlink:href="#BitstreamVeraSans-Roman-32"/>
     <use x="477.880859375" xlink:href="#BitstreamVeraSans-Roman-2d"/>
     <use x="513.96484375" xlink:href="#BitstreamVeraSans-Roman-48"/>
     <use x="589.16015625" xlink:href="#BitstreamVeraSans-Roman-34"/>
    </g>
   </g>
   <g id="legend_1">
    <g id="patch_7">
     <path d="M 406.15625 108.3125 
L 514.4 108.3125 
L 514.4 47.2 
L 406.15625 47.2 
z
" style="fill:#ffffff;stroke:#000000;stroke-linejoin:miter;"/>
    </g>
    <g id="line2d_40">
     <path d="M 411.75625 53.67875 
L 422.95625 53.67875 
" style="fill:none;stroke:#ff0000;stroke-linecap:square;"/>
    </g>
    <g id="line2d_41">
     <g>
      <use style="fill:#ff0000;stroke:#000000;stroke-width:0.5;" x="411.75625" xlink:href="#m5bf0dc4140" y="53.67875"/>
      <use style="fill:#ff0000;stroke:#000000;stroke-width:0.5;" x="422.95625" xlink:href="#m5bf0dc4140" y="53.67875"/>
     </g>
    </g>
    <g id="text_21">
     <!-- QM -->
     <defs>
      <path d="M 39.40625 66.21875 
Q 28.65625 66.21875 22.328125 58.203125 
Q 16.015625 50.203125 16.015625 36.375 
Q 16.015625 22.609375 22.328125 14.59375 
Q 28.65625 6.59375 39.40625 6.59375 
Q 50.140625 6.59375 56.421875 14.59375 
Q 62.703125 22.609375 62.703125 36.375 
Q 62.703125 50.203125 56.421875 58.203125 
Q 50.140625 66.21875 39.40625 66.21875 
M 53.21875 1.3125 
L 66.21875 -12.890625 
L 54.296875 -12.890625 
L 43.5 -1.21875 
Q 41.890625 -1.3125 41.03125 -1.359375 
Q 40.1875 -1.421875 39.40625 -1.421875 
Q 24.03125 -1.421875 14.8125 8.859375 
Q 5.609375 19.140625 5.609375 36.375 
Q 5.609375 53.65625 14.8125 63.9375 
Q 24.03125 74.21875 39.40625 74.21875 
Q 54.734375 74.21875 63.90625 63.9375 
Q 73.09375 53.65625 73.09375 36.375 
Q 73.09375 23.6875 67.984375 14.640625 
Q 62.890625 5.609375 53.21875 1.3125 
" id="BitstreamVeraSans-Roman-51"/>
      <path d="M 9.8125 72.90625 
L 24.515625 72.90625 
L 43.109375 23.296875 
L 61.8125 72.90625 
L 76.515625 72.90625 
L 76.515625 0 
L 66.890625 0 
L 66.890625 64.015625 
L 48.09375 14.015625 
L 38.1875 14.015625 
L 19.390625 64.015625 
L 19.390625 0 
L 9.8125 0 
z
" id="BitstreamVeraSans-Roman-4d"/>
     </defs>
     <g transform="translate(431.75625 56.47875)scale(0.08 -0.08)">
      <use xlink:href="#BitstreamVeraSans-Roman-51"/>
      <use x="78.7109375" xlink:href="#BitstreamVeraSans-Roman-4d"/>
     </g>
    </g>
    <g id="line2d_42">
     <path d="M 411.75625 65.42125 
L 422.95625 65.42125 
" style="fill:none;stroke:#0000ff;stroke-linecap:square;"/>
    </g>
    <g id="line2d_43">
     <g>
      <use style="fill:#0000ff;stroke:#000000;stroke-width:0.5;" x="411.75625" xlink:href="#m669bedcf25" y="65.42125"/>
      <use style="fill:#0000ff;stroke:#000000;stroke-width:0.5;" x="422.95625" xlink:href="#m669bedcf25" y="65.42125"/>
     </g>
    </g>
    <g id="text_22">
     <!-- MM Original -->
     <defs>
      <path d="M 45.40625 27.984375 
Q 45.40625 37.75 41.375 43.109375 
Q 37.359375 48.484375 30.078125 48.484375 
Q 22.859375 48.484375 18.828125 43.109375 
Q 14.796875 37.75 14.796875 27.984375 
Q 14.796875 18.265625 18.828125 12.890625 
Q 22.859375 7.515625 30.078125 7.515625 
Q 37.359375 7.515625 41.375 12.890625 
Q 45.40625 18.265625 45.40625 27.984375 
M 54.390625 6.78125 
Q 54.390625 -7.171875 48.1875 -13.984375 
Q 42 -20.796875 29.203125 -20.796875 
Q 24.46875 -20.796875 20.265625 -20.09375 
Q 16.0625 -19.390625 12.109375 -17.921875 
L 12.109375 -9.1875 
Q 16.0625 -11.328125 19.921875 -12.34375 
Q 23.78125 -13.375 27.78125 -13.375 
Q 36.625 -13.375 41.015625 -8.765625 
Q 45.40625 -4.15625 45.40625 5.171875 
L 45.40625 9.625 
Q 42.625 4.78125 38.28125 2.390625 
Q 33.9375 0 27.875 0 
Q 17.828125 0 11.671875 7.65625 
Q 5.515625 15.328125 5.515625 27.984375 
Q 5.515625 40.671875 11.671875 48.328125 
Q 17.828125 56 27.875 56 
Q 33.9375 56 38.28125 53.609375 
Q 42.625 51.21875 45.40625 46.390625 
L 45.40625 54.6875 
L 54.390625 54.6875 
z
" id="BitstreamVeraSans-Roman-67"/>
      <path d="M 54.890625 33.015625 
L 54.890625 0 
L 45.90625 0 
L 45.90625 32.71875 
Q 45.90625 40.484375 42.875 44.328125 
Q 39.84375 48.1875 33.796875 48.1875 
Q 26.515625 48.1875 22.3125 43.546875 
Q 18.109375 38.921875 18.109375 30.90625 
L 18.109375 0 
L 9.078125 0 
L 9.078125 54.6875 
L 18.109375 54.6875 
L 18.109375 46.1875 
Q 21.34375 51.125 25.703125 53.5625 
Q 30.078125 56 35.796875 56 
Q 45.21875 56 50.046875 50.171875 
Q 54.890625 44.34375 54.890625 33.015625 
" id="BitstreamVeraSans-Roman-6e"/>
      <path d="M 39.40625 66.21875 
Q 28.65625 66.21875 22.328125 58.203125 
Q 16.015625 50.203125 16.015625 36.375 
Q 16.015625 22.609375 22.328125 14.59375 
Q 28.65625 6.59375 39.40625 6.59375 
Q 50.140625 6.59375 56.421875 14.59375 
Q 62.703125 22.609375 62.703125 36.375 
Q 62.703125 50.203125 56.421875 58.203125 
Q 50.140625 66.21875 39.40625 66.21875 
M 39.40625 74.21875 
Q 54.734375 74.21875 63.90625 63.9375 
Q 73.09375 53.65625 73.09375 36.375 
Q 73.09375 19.140625 63.90625 8.859375 
Q 54.734375 -1.421875 39.40625 -1.421875 
Q 24.03125 -1.421875 14.8125 8.828125 
Q 5.609375 19.09375 5.609375 36.375 
Q 5.609375 53.65625 14.8125 63.9375 
Q 24.03125 74.21875 39.40625 74.21875 
" id="BitstreamVeraSans-Roman-4f"/>
      <path id="BitstreamVeraSans-Roman-20"/>
      <path d="M 41.109375 46.296875 
Q 39.59375 47.171875 37.8125 47.578125 
Q 36.03125 48 33.890625 48 
Q 26.265625 48 22.1875 43.046875 
Q 18.109375 38.09375 18.109375 28.8125 
L 18.109375 0 
L 9.078125 0 
L 9.078125 54.6875 
L 18.109375 54.6875 
L 18.109375 46.1875 
Q 20.953125 51.171875 25.484375 53.578125 
Q 30.03125 56 36.53125 56 
Q 37.453125 56 38.578125 55.875 
Q 39.703125 55.765625 41.0625 55.515625 
z
" id="BitstreamVeraSans-Roman-72"/>
     </defs>
     <g transform="translate(431.75625 68.22125)scale(0.08 -0.08)">
      <use xlink:href="#BitstreamVeraSans-Roman-4d"/>
      <use x="86.279296875" xlink:href="#BitstreamVeraSans-Roman-4d"/>
      <use x="172.55859375" xlink:href="#BitstreamVeraSans-Roman-20"/>
      <use x="204.345703125" xlink:href="#BitstreamVeraSans-Roman-4f"/>
      <use x="283.056640625" xlink:href="#BitstreamVeraSans-Roman-72"/>
      <use x="324.169921875" xlink:href="#BitstreamVeraSans-Roman-69"/>
      <use x="351.953125" xlink:href="#BitstreamVeraSans-Roman-67"/>
      <use x="415.4296875" xlink:href="#BitstreamVeraSans-Roman-69"/>
      <use x="443.212890625" xlink:href="#BitstreamVeraSans-Roman-6e"/>
      <use x="506.591796875" xlink:href="#BitstreamVeraSans-Roman-61"/>
      <use x="567.87109375" xlink:href="#BitstreamVeraSans-Roman-6c"/>
     </g>
    </g>
    <g id="line2d_44">
     <path d="M 411.75625 77.16375 
L 422.95625 77.16375 
" style="fill:none;stroke:#000000;stroke-linecap:square;"/>
    </g>
    <g id="line2d_45">
     <g>
      <use style="stroke:#000000;stroke-width:0.5;" x="411.75625" xlink:href="#m383e0150d4" y="77.16375"/>
      <use style="stroke:#000000;stroke-width:0.5;" x="422.95625" xlink:href="#m383e0150d4" y="77.16375"/>
     </g>
    </g>
    <g id="text_23">
     <!-- MM With phi zeroed -->
     <defs>
      <path d="M 18.109375 8.203125 
L 18.109375 -20.796875 
L 9.078125 -20.796875 
L 9.078125 54.6875 
L 18.109375 54.6875 
L 18.109375 46.390625 
Q 20.953125 51.265625 25.265625 53.625 
Q 29.59375 56 35.59375 56 
Q 45.5625 56 51.78125 48.09375 
Q 58.015625 40.1875 58.015625 27.296875 
Q 58.015625 14.40625 51.78125 6.484375 
Q 45.5625 -1.421875 35.59375 -1.421875 
Q 29.59375 -1.421875 25.265625 0.953125 
Q 20.953125 3.328125 18.109375 8.203125 
M 48.6875 27.296875 
Q 48.6875 37.203125 44.609375 42.84375 
Q 40.53125 48.484375 33.40625 48.484375 
Q 26.265625 48.484375 22.1875 42.84375 
Q 18.109375 37.203125 18.109375 27.296875 
Q 18.109375 17.390625 22.1875 11.75 
Q 26.265625 6.109375 33.40625 6.109375 
Q 40.53125 6.109375 44.609375 11.75 
Q 48.6875 17.390625 48.6875 27.296875 
" id="BitstreamVeraSans-Roman-70"/>
      <path d="M 5.515625 54.6875 
L 48.1875 54.6875 
L 48.1875 46.484375 
L 14.40625 7.171875 
L 48.1875 7.171875 
L 48.1875 0 
L 4.296875 0 
L 4.296875 8.203125 
L 38.09375 47.515625 
L 5.515625 47.515625 
z
" id="BitstreamVeraSans-Roman-7a"/>
      <path d="M 45.40625 46.390625 
L 45.40625 75.984375 
L 54.390625 75.984375 
L 54.390625 0 
L 45.40625 0 
L 45.40625 8.203125 
Q 42.578125 3.328125 38.25 0.953125 
Q 33.9375 -1.421875 27.875 -1.421875 
Q 17.96875 -1.421875 11.734375 6.484375 
Q 5.515625 14.40625 5.515625 27.296875 
Q 5.515625 40.1875 11.734375 48.09375 
Q 17.96875 56 27.875 56 
Q 33.9375 56 38.25 53.625 
Q 42.578125 51.265625 45.40625 46.390625 
M 14.796875 27.296875 
Q 14.796875 17.390625 18.875 11.75 
Q 22.953125 6.109375 30.078125 6.109375 
Q 37.203125 6.109375 41.296875 11.75 
Q 45.40625 17.390625 45.40625 27.296875 
Q 45.40625 37.203125 41.296875 42.84375 
Q 37.203125 48.484375 30.078125 48.484375 
Q 22.953125 48.484375 18.875 42.84375 
Q 14.796875 37.203125 14.796875 27.296875 
" id="BitstreamVeraSans-Roman-64"/>
      <path d="M 56.203125 29.59375 
L 56.203125 25.203125 
L 14.890625 25.203125 
Q 15.484375 15.921875 20.484375 11.0625 
Q 25.484375 6.203125 34.421875 6.203125 
Q 39.59375 6.203125 44.453125 7.46875 
Q 49.3125 8.734375 54.109375 11.28125 
L 54.109375 2.78125 
Q 49.265625 0.734375 44.1875 -0.34375 
Q 39.109375 -1.421875 33.890625 -1.421875 
Q 20.796875 -1.421875 13.15625 6.1875 
Q 5.515625 13.8125 5.515625 26.8125 
Q 5.515625 40.234375 12.765625 48.109375 
Q 20.015625 56 32.328125 56 
Q 43.359375 56 49.78125 48.890625 
Q 56.203125 41.796875 56.203125 29.59375 
M 47.21875 32.234375 
Q 47.125 39.59375 43.09375 43.984375 
Q 39.0625 48.390625 32.421875 48.390625 
Q 24.90625 48.390625 20.390625 44.140625 
Q 15.875 39.890625 15.1875 32.171875 
z
" id="BitstreamVeraSans-Roman-65"/>
      <path d="M 3.328125 72.90625 
L 13.28125 72.90625 
L 28.609375 11.28125 
L 43.890625 72.90625 
L 54.984375 72.90625 
L 70.3125 11.28125 
L 85.59375 72.90625 
L 95.609375 72.90625 
L 77.296875 0 
L 64.890625 0 
L 49.515625 63.28125 
L 33.984375 0 
L 21.578125 0 
z
" id="BitstreamVeraSans-Roman-57"/>
      <path d="M 18.3125 70.21875 
L 18.3125 54.6875 
L 36.8125 54.6875 
L 36.8125 47.703125 
L 18.3125 47.703125 
L 18.3125 18.015625 
Q 18.3125 11.328125 20.140625 9.421875 
Q 21.96875 7.515625 27.59375 7.515625 
L 36.8125 7.515625 
L 36.8125 0 
L 27.59375 0 
Q 17.1875 0 13.234375 3.875 
Q 9.28125 7.765625 9.28125 18.015625 
L 9.28125 47.703125 
L 2.6875 47.703125 
L 2.6875 54.6875 
L 9.28125 54.6875 
L 9.28125 70.21875 
z
" id="BitstreamVeraSans-Roman-74"/>
     </defs>
     <g transform="translate(431.75625 79.96375)scale(0.08 -0.08)">
      <use xlink:href="#BitstreamVeraSans-Roman-4d"/>
      <use x="86.279296875" xlink:href="#BitstreamVeraSans-Roman-4d"/>
      <use x="172.55859375" xlink:href="#BitstreamVeraSans-Roman-20"/>
      <use x="204.345703125" xlink:href="#BitstreamVeraSans-Roman-57"/>
      <use x="303.19140625" xlink:href="#BitstreamVeraSans-Roman-69"/>
      <use x="330.974609375" xlink:href="#BitstreamVeraSans-Roman-74"/>
      <use x="370.18359375" xlink:href="#BitstreamVeraSans-Roman-68"/>
      <use x="433.5625" xlink:href="#BitstreamVeraSans-Roman-20"/>
      <use x="465.349609375" xlink:href="#BitstreamVeraSans-Roman-70"/>
      <use x="528.826171875" xlink:href="#BitstreamVeraSans-Roman-68"/>
      <use x="592.205078125" xlink:href="#BitstreamVeraSans-Roman-69"/>
      <use x="619.98828125" xlink:href="#BitstreamVeraSans-Roman-20"/>
      <use x="651.775390625" xlink:href="#BitstreamVeraSans-Roman-7a"/>
      <use x="704.265625" xlink:href="#BitstreamVeraSans-Roman-65"/>
      <use x="765.7890625" xlink:href="#BitstreamVeraSans-Roman-72"/>
      <use x="806.87109375" xlink:href="#BitstreamVeraSans-Roman-6f"/>
      <use x="868.052734375" xlink:href="#BitstreamVeraSans-Roman-65"/>
      <use x="929.576171875" xlink:href="#BitstreamVeraSans-Roman-64"/>
     </g>
    </g>
    <g id="line2d_46">
     <path d="M 411.75625 88.90625 
L 422.95625 88.90625 
" style="fill:none;stroke:#ff00ff;stroke-linecap:square;"/>
    </g>
    <g id="line2d_47">
     <g>
      <use style="fill:#ff00ff;stroke:#ff00ff;stroke-width:0.5;" x="411.75625" xlink:href="#m9e0859a1fe" y="88.90625"/>
      <use style="fill:#ff00ff;stroke:#ff00ff;stroke-width:0.5;" x="422.95625" xlink:href="#m9e0859a1fe" y="88.90625"/>
     </g>
    </g>
    <g id="text_24">
     <!-- QM-MM target -->
     <g transform="translate(431.75625 91.70625)scale(0.08 -0.08)">
      <use xlink:href="#BitstreamVeraSans-Roman-51"/>
      <use x="78.7109375" xlink:href="#BitstreamVeraSans-Roman-4d"/>
      <use x="164.990234375" xlink:href="#BitstreamVeraSans-Roman-2d"/>
      <use x="201.07421875" xlink:href="#BitstreamVeraSans-Roman-4d"/>
      <use x="287.353515625" xlink:href="#BitstreamVeraSans-Roman-4d"/>
      <use x="373.6328125" xlink:href="#BitstreamVeraSans-Roman-20"/>
      <use x="405.419921875" xlink:href="#BitstreamVeraSans-Roman-74"/>
      <use x="444.62890625" xlink:href="#BitstreamVeraSans-Roman-61"/>
      <use x="505.908203125" xlink:href="#BitstreamVeraSans-Roman-72"/>
      <use x="547.005859375" xlink:href="#BitstreamVeraSans-Roman-67"/>
      <use x="610.482421875" xlink:href="#BitstreamVeraSans-Roman-65"/>
      <use x="672.005859375" xlink:href="#BitstreamVeraSans-Roman-74"/>
     </g>
    </g>
    <g id="line2d_48">
     <path d="M 411.75625 100.64875 
L 422.95625 100.64875 
" style="fill:none;stroke:#008000;stroke-linecap:square;"/>
    </g>
    <g id="line2d_49">
     <g>
      <use style="fill:#008000;stroke:#000000;stroke-width:0.5;" x="411.75625" xlink:href="#m7ea55121b3" y="100.64875"/>
      <use style="fill:#008000;stroke:#000000;stroke-width:0.5;" x="422.95625" xlink:href="#m7ea55121b3" y="100.64875"/>
     </g>
    </g>
    <g id="text_25">
     <!-- MM Fitted -->
     <defs>
      <path d="M 9.8125 72.90625 
L 51.703125 72.90625 
L 51.703125 64.59375 
L 19.671875 64.59375 
L 19.671875 43.109375 
L 48.578125 43.109375 
L 48.578125 34.8125 
L 19.671875 34.8125 
L 19.671875 0 
L 9.8125 0 
z
" id="BitstreamVeraSans-Roman-46"/>
     </defs>
     <g transform="translate(431.75625 103.44875)scale(0.08 -0.08)">
      <use xlink:href="#BitstreamVeraSans-Roman-4d"/>
      <use x="86.279296875" xlink:href="#BitstreamVeraSans-Roman-4d"/>
      <use x="172.55859375" xlink:href="#BitstreamVeraSans-Roman-20"/>
      <use x="204.345703125" xlink:href="#BitstreamVeraSans-Roman-46"/>
      <use x="261.755859375" xlink:href="#BitstreamVeraSans-Roman-69"/>
      <use x="289.5390625" xlink:href="#BitstreamVeraSans-Roman-74"/>
      <use x="328.748046875" xlink:href="#BitstreamVeraSans-Roman-74"/>
      <use x="367.95703125" xlink:href="#BitstreamVeraSans-Roman-65"/>
      <use x="429.48046875" xlink:href="#BitstreamVeraSans-Roman-64"/>
     </g>
    </g>
   </g>
  </g>
 </g>
 <defs>
  <clipPath id="p811b2c8199">
   <rect height="345.6" width="446.4" x="72.0" y="43.2"/>
  </clipPath>
 </defs>
</svg>
