<?xml version="1.0" encoding="utf-8" standalone="no"?>
<!DOCTYPE svg PUBLIC "-//W3C//DTD SVG 1.1//EN"
  "http://www.w3.org/Graphics/SVG/1.1/DTD/svg11.dtd">
<!-- Created with matplotlib (http://matplotlib.org/) -->
<svg height="432pt" version="1.1" viewBox="0 0 576 432" width="576pt" xmlns="http://www.w3.org/2000/svg" xmlns:xlink="http://www.w3.org/1999/xlink">
 <defs>
  <style type="text/css">
*{stroke-linecap:butt;stroke-linejoin:round;stroke-miterlimit:100000;}
  </style>
 </defs>
 <g id="figure_1">
  <g id="patch_1">
   <path d="M 0 432 
L 576 432 
L 576 0 
L 0 0 
z
" style="fill:#ffffff;"/>
  </g>
  <g id="axes_1">
   <g id="patch_2">
    <path d="M 72 388.8 
L 518.4 388.8 
L 518.4 43.2 
L 72 43.2 
z
" style="fill:#ffffff;"/>
   </g>
   <g id="line2d_1">
    <path clip-path="url(#pd7ce3e34ea)" d="M 71.999234 324.079148 
L 84.400029 326.495981 
L 96.800012 333.24437 
L 109.200016 343.701083 
L 121.600005 357.020512 
L 134.00004 370.779921 
L 146.400018 381.655617 
L 158.800012 387.3044 
L 171.200027 388.746564 
L 183.600005 388.628837 
L 196.000022 388.796842 
L 208.400037 387.702323 
L 220.79999 381.650173 
L 233.200044 369.495347 
L 245.599977 354.595843 
L 257.999984 341.407659 
L 270.399997 331.88577 
L 282.799966 326.084053 
L 295.199071 324.073958 
L 307.599944 326.050366 
L 319.999997 331.870634 
L 332.400001 341.416417 
L 344.800013 354.600732 
L 357.199948 369.469169 
L 369.599954 381.64273 
L 381.999995 387.684894 
L 394.399958 388.795993 
L 406.799949 388.630261 
L 419.199985 388.8 
L 431.600003 387.391722 
L 443.999979 381.653847 
L 456.400021 370.840584 
L 468.799999 357.03126 
L 481.200034 343.691016 
L 493.599994 333.111895 
L 506.000031 326.499823 
" style="fill:none;stroke:#ff0000;stroke-linecap:square;"/>
    <defs>
     <path d="M 0 3 
C 0.795609 3 1.55874 2.683901 2.12132 2.12132 
C 2.683901 1.55874 3 0.795609 3 0 
C 3 -0.795609 2.683901 -1.55874 2.12132 -2.12132 
C 1.55874 -2.683901 0.795609 -3 0 -3 
C -0.795609 -3 -1.55874 -2.683901 -2.12132 -2.12132 
C -2.683901 -1.55874 -3 -0.795609 -3 0 
C -3 0.795609 -2.683901 1.55874 -2.12132 2.12132 
C -1.55874 2.683901 -0.795609 3 0 3 
z
" id="m9c41eb557e" style="stroke:#000000;stroke-width:0.5;"/>
    </defs>
    <g clip-path="url(#pd7ce3e34ea)">
     <use style="fill:#ff0000;stroke:#000000;stroke-width:0.5;" x="71.9992340464" xlink:href="#m9c41eb557e" y="324.079147816"/>
     <use style="fill:#ff0000;stroke:#000000;stroke-width:0.5;" x="84.4000288623" xlink:href="#m9c41eb557e" y="326.495980733"/>
     <use style="fill:#ff0000;stroke:#000000;stroke-width:0.5;" x="96.800012231" xlink:href="#m9c41eb557e" y="333.244369854"/>
     <use style="fill:#ff0000;stroke:#000000;stroke-width:0.5;" x="109.200016137" xlink:href="#m9c41eb557e" y="343.701083183"/>
     <use style="fill:#ff0000;stroke:#000000;stroke-width:0.5;" x="121.600005292" xlink:href="#m9c41eb557e" y="357.020511787"/>
     <use style="fill:#ff0000;stroke:#000000;stroke-width:0.5;" x="134.000040298" xlink:href="#m9c41eb557e" y="370.779921153"/>
     <use style="fill:#ff0000;stroke:#000000;stroke-width:0.5;" x="146.400017947" xlink:href="#m9c41eb557e" y="381.655616548"/>
     <use style="fill:#ff0000;stroke:#000000;stroke-width:0.5;" x="158.800012287" xlink:href="#m9c41eb557e" y="387.304400297"/>
     <use style="fill:#ff0000;stroke:#000000;stroke-width:0.5;" x="171.200026541" xlink:href="#m9c41eb557e" y="388.746564457"/>
     <use style="fill:#ff0000;stroke:#000000;stroke-width:0.5;" x="183.600005181" xlink:href="#m9c41eb557e" y="388.628837495"/>
     <use style="fill:#ff0000;stroke:#000000;stroke-width:0.5;" x="196.000022045" xlink:href="#m9c41eb557e" y="388.796842177"/>
     <use style="fill:#ff0000;stroke:#000000;stroke-width:0.5;" x="208.40003679" xlink:href="#m9c41eb557e" y="387.702322937"/>
     <use style="fill:#ff0000;stroke:#000000;stroke-width:0.5;" x="220.799989778" xlink:href="#m9c41eb557e" y="381.650173286"/>
     <use style="fill:#ff0000;stroke:#000000;stroke-width:0.5;" x="233.200044176" xlink:href="#m9c41eb557e" y="369.495347392"/>
     <use style="fill:#ff0000;stroke:#000000;stroke-width:0.5;" x="245.599976727" xlink:href="#m9c41eb557e" y="354.59584324"/>
     <use style="fill:#ff0000;stroke:#000000;stroke-width:0.5;" x="257.999984336" xlink:href="#m9c41eb557e" y="341.407658683"/>
     <use style="fill:#ff0000;stroke:#000000;stroke-width:0.5;" x="270.399997456" xlink:href="#m9c41eb557e" y="331.885769745"/>
     <use style="fill:#ff0000;stroke:#000000;stroke-width:0.5;" x="282.799966452" xlink:href="#m9c41eb557e" y="326.084052712"/>
     <use style="fill:#ff0000;stroke:#000000;stroke-width:0.5;" x="295.199070534" xlink:href="#m9c41eb557e" y="324.073957615"/>
     <use style="fill:#ff0000;stroke:#000000;stroke-width:0.5;" x="307.599944269" xlink:href="#m9c41eb557e" y="326.050365629"/>
     <use style="fill:#ff0000;stroke:#000000;stroke-width:0.5;" x="319.999997381" xlink:href="#m9c41eb557e" y="331.870634427"/>
     <use style="fill:#ff0000;stroke:#000000;stroke-width:0.5;" x="332.400000812" xlink:href="#m9c41eb557e" y="341.416416642"/>
     <use style="fill:#ff0000;stroke:#000000;stroke-width:0.5;" x="344.800012638" xlink:href="#m9c41eb557e" y="354.600731918"/>
     <use style="fill:#ff0000;stroke:#000000;stroke-width:0.5;" x="357.199948342" xlink:href="#m9c41eb557e" y="369.469168561"/>
     <use style="fill:#ff0000;stroke:#000000;stroke-width:0.5;" x="369.599953536" xlink:href="#m9c41eb557e" y="381.642730015"/>
     <use style="fill:#ff0000;stroke:#000000;stroke-width:0.5;" x="381.999995128" xlink:href="#m9c41eb557e" y="387.684894185"/>
     <use style="fill:#ff0000;stroke:#000000;stroke-width:0.5;" x="394.399957912" xlink:href="#m9c41eb557e" y="388.795993036"/>
     <use style="fill:#ff0000;stroke:#000000;stroke-width:0.5;" x="406.799948888" xlink:href="#m9c41eb557e" y="388.6302611"/>
     <use style="fill:#ff0000;stroke:#000000;stroke-width:0.5;" x="419.199984818" xlink:href="#m9c41eb557e" y="388.8"/>
     <use style="fill:#ff0000;stroke:#000000;stroke-width:0.5;" x="431.600003252" xlink:href="#m9c41eb557e" y="387.39172172"/>
     <use style="fill:#ff0000;stroke:#000000;stroke-width:0.5;" x="443.999979012" xlink:href="#m9c41eb557e" y="381.653847185"/>
     <use style="fill:#ff0000;stroke:#000000;stroke-width:0.5;" x="456.400020933" xlink:href="#m9c41eb557e" y="370.840583915"/>
     <use style="fill:#ff0000;stroke:#000000;stroke-width:0.5;" x="468.799998738" xlink:href="#m9c41eb557e" y="357.03126017"/>
     <use style="fill:#ff0000;stroke:#000000;stroke-width:0.5;" x="481.200034053" xlink:href="#m9c41eb557e" y="343.691015721"/>
     <use style="fill:#ff0000;stroke:#000000;stroke-width:0.5;" x="493.59999443" xlink:href="#m9c41eb557e" y="333.111895336"/>
     <use style="fill:#ff0000;stroke:#000000;stroke-width:0.5;" x="506.000031493" xlink:href="#m9c41eb557e" y="326.499823476"/>
    </g>
   </g>
   <g id="line2d_2">
    <path clip-path="url(#pd7ce3e34ea)" d="M 71.999234 75.355551 
L 84.400029 86.499798 
L 96.800012 117.989996 
L 109.200016 160.384913 
L 121.600005 205.313238 
L 134.00004 255.827906 
L 146.400018 301.05125 
L 158.800012 342.351258 
L 171.200027 374.912787 
L 183.600005 388.8 
L 196.000022 379.541539 
L 208.400037 347.94157 
L 220.79999 300.055898 
L 233.200044 246.503936 
L 245.599977 194.312922 
L 257.999984 148.110996 
L 270.399997 109.302941 
L 282.799966 83.526333 
L 295.199071 73.744985 
L 307.599944 84.389854 
L 319.999997 109.99777 
L 332.400001 149.788713 
L 344.800013 194.422692 
L 357.199948 246.8132 
L 369.599954 300.039245 
L 381.999995 347.267871 
L 394.399958 379.141894 
L 406.799949 388.741078 
L 419.199985 375.080354 
L 431.600003 343.519772 
L 443.999979 300.911568 
L 456.400021 254.39866 
L 468.799999 206.641776 
L 481.200034 160.718439 
L 493.599994 119.232942 
L 506.000031 86.156119 
" style="fill:none;stroke:#0000ff;stroke-linecap:square;"/>
    <defs>
     <path d="M 0 3 
C 0.795609 3 1.55874 2.683901 2.12132 2.12132 
C 2.683901 1.55874 3 0.795609 3 0 
C 3 -0.795609 2.683901 -1.55874 2.12132 -2.12132 
C 1.55874 -2.683901 0.795609 -3 0 -3 
C -0.795609 -3 -1.55874 -2.683901 -2.12132 -2.12132 
C -2.683901 -1.55874 -3 -0.795609 -3 0 
C -3 0.795609 -2.683901 1.55874 -2.12132 2.12132 
C -1.55874 2.683901 -0.795609 3 0 3 
z
" id="m14fb60daaf" style="stroke:#000000;stroke-width:0.5;"/>
    </defs>
    <g clip-path="url(#pd7ce3e34ea)">
     <use style="fill:#0000ff;stroke:#000000;stroke-width:0.5;" x="71.9992340464" xlink:href="#m14fb60daaf" y="75.3555514739"/>
     <use style="fill:#0000ff;stroke:#000000;stroke-width:0.5;" x="84.4000288623" xlink:href="#m14fb60daaf" y="86.4997984945"/>
     <use style="fill:#0000ff;stroke:#000000;stroke-width:0.5;" x="96.800012231" xlink:href="#m14fb60daaf" y="117.989996154"/>
     <use style="fill:#0000ff;stroke:#000000;stroke-width:0.5;" x="109.200016137" xlink:href="#m14fb60daaf" y="160.384912782"/>
     <use style="fill:#0000ff;stroke:#000000;stroke-width:0.5;" x="121.600005292" xlink:href="#m14fb60daaf" y="205.313238282"/>
     <use style="fill:#0000ff;stroke:#000000;stroke-width:0.5;" x="134.000040298" xlink:href="#m14fb60daaf" y="255.827905766"/>
     <use style="fill:#0000ff;stroke:#000000;stroke-width:0.5;" x="146.400017947" xlink:href="#m14fb60daaf" y="301.05124962"/>
     <use style="fill:#0000ff;stroke:#000000;stroke-width:0.5;" x="158.800012287" xlink:href="#m14fb60daaf" y="342.351257982"/>
     <use style="fill:#0000ff;stroke:#000000;stroke-width:0.5;" x="171.200026541" xlink:href="#m14fb60daaf" y="374.91278749"/>
     <use style="fill:#0000ff;stroke:#000000;stroke-width:0.5;" x="183.600005181" xlink:href="#m14fb60daaf" y="388.8"/>
     <use style="fill:#0000ff;stroke:#000000;stroke-width:0.5;" x="196.000022045" xlink:href="#m14fb60daaf" y="379.54153948"/>
     <use style="fill:#0000ff;stroke:#000000;stroke-width:0.5;" x="208.40003679" xlink:href="#m14fb60daaf" y="347.941570075"/>
     <use style="fill:#0000ff;stroke:#000000;stroke-width:0.5;" x="220.799989778" xlink:href="#m14fb60daaf" y="300.055897593"/>
     <use style="fill:#0000ff;stroke:#000000;stroke-width:0.5;" x="233.200044176" xlink:href="#m14fb60daaf" y="246.503936421"/>
     <use style="fill:#0000ff;stroke:#000000;stroke-width:0.5;" x="245.599976727" xlink:href="#m14fb60daaf" y="194.31292225"/>
     <use style="fill:#0000ff;stroke:#000000;stroke-width:0.5;" x="257.999984336" xlink:href="#m14fb60daaf" y="148.110996373"/>
     <use style="fill:#0000ff;stroke:#000000;stroke-width:0.5;" x="270.399997456" xlink:href="#m14fb60daaf" y="109.302940698"/>
     <use style="fill:#0000ff;stroke:#000000;stroke-width:0.5;" x="282.799966452" xlink:href="#m14fb60daaf" y="83.5263330885"/>
     <use style="fill:#0000ff;stroke:#000000;stroke-width:0.5;" x="295.199070534" xlink:href="#m14fb60daaf" y="73.7449848177"/>
     <use style="fill:#0000ff;stroke:#000000;stroke-width:0.5;" x="307.599944269" xlink:href="#m14fb60daaf" y="84.3898542478"/>
     <use style="fill:#0000ff;stroke:#000000;stroke-width:0.5;" x="319.999997381" xlink:href="#m14fb60daaf" y="109.99776959"/>
     <use style="fill:#0000ff;stroke:#000000;stroke-width:0.5;" x="332.400000812" xlink:href="#m14fb60daaf" y="149.788712704"/>
     <use style="fill:#0000ff;stroke:#000000;stroke-width:0.5;" x="344.800012638" xlink:href="#m14fb60daaf" y="194.422692402"/>
     <use style="fill:#0000ff;stroke:#000000;stroke-width:0.5;" x="357.199948342" xlink:href="#m14fb60daaf" y="246.813200129"/>
     <use style="fill:#0000ff;stroke:#000000;stroke-width:0.5;" x="369.599953536" xlink:href="#m14fb60daaf" y="300.039244945"/>
     <use style="fill:#0000ff;stroke:#000000;stroke-width:0.5;" x="381.999995128" xlink:href="#m14fb60daaf" y="347.267871082"/>
     <use style="fill:#0000ff;stroke:#000000;stroke-width:0.5;" x="394.399957912" xlink:href="#m14fb60daaf" y="379.141893808"/>
     <use style="fill:#0000ff;stroke:#000000;stroke-width:0.5;" x="406.799948888" xlink:href="#m14fb60daaf" y="388.741078072"/>
     <use style="fill:#0000ff;stroke:#000000;stroke-width:0.5;" x="419.199984818" xlink:href="#m14fb60daaf" y="375.080354448"/>
     <use style="fill:#0000ff;stroke:#000000;stroke-width:0.5;" x="431.600003252" xlink:href="#m14fb60daaf" y="343.51977237"/>
     <use style="fill:#0000ff;stroke:#000000;stroke-width:0.5;" x="443.999979012" xlink:href="#m14fb60daaf" y="300.911568318"/>
     <use style="fill:#0000ff;stroke:#000000;stroke-width:0.5;" x="456.400020933" xlink:href="#m14fb60daaf" y="254.398660241"/>
     <use style="fill:#0000ff;stroke:#000000;stroke-width:0.5;" x="468.799998738" xlink:href="#m14fb60daaf" y="206.64177612"/>
     <use style="fill:#0000ff;stroke:#000000;stroke-width:0.5;" x="481.200034053" xlink:href="#m14fb60daaf" y="160.718438517"/>
     <use style="fill:#0000ff;stroke:#000000;stroke-width:0.5;" x="493.59999443" xlink:href="#m14fb60daaf" y="119.232942161"/>
     <use style="fill:#0000ff;stroke:#000000;stroke-width:0.5;" x="506.000031493" xlink:href="#m14fb60daaf" y="86.1561188101"/>
    </g>
   </g>
   <g id="line2d_3">
    <path clip-path="url(#pd7ce3e34ea)" d="M 71.999234 324.757497 
L 84.400029 326.112351 
L 96.800012 332.380499 
L 109.200016 343.532357 
L 121.600005 355.310372 
L 134.00004 371.920192 
L 146.400018 381.458603 
L 158.800012 386.147976 
L 171.200027 388.177917 
L 183.600005 388.346593 
L 196.000022 388.8 
L 208.400037 387.837711 
L 220.79999 381.169533 
L 233.200044 369.015374 
L 245.599977 353.842863 
L 257.999984 341.018591 
L 270.399997 330.616842 
L 282.799966 325.409444 
L 295.199071 323.147179 
L 307.599944 326.262337 
L 319.999997 331.415685 
L 332.400001 342.385259 
L 344.800013 354.218808 
L 357.199948 369.382178 
L 369.599954 381.162184 
L 381.999995 387.298547 
L 394.399958 388.465914 
L 406.799949 388.320237 
L 419.199985 388.471166 
L 431.600003 387.295559 
L 443.999979 381.31485 
L 456.400021 370.393076 
L 468.799999 356.587372 
L 481.200034 343.648017 
L 493.599994 333.795752 
L 506.000031 325.734219 
" style="fill:none;stroke:#008000;stroke-linecap:square;"/>
    <defs>
     <path d="M 0 3 
C 0.795609 3 1.55874 2.683901 2.12132 2.12132 
C 2.683901 1.55874 3 0.795609 3 0 
C 3 -0.795609 2.683901 -1.55874 2.12132 -2.12132 
C 1.55874 -2.683901 0.795609 -3 0 -3 
C -0.795609 -3 -1.55874 -2.683901 -2.12132 -2.12132 
C -2.683901 -1.55874 -3 -0.795609 -3 0 
C -3 0.795609 -2.683901 1.55874 -2.12132 2.12132 
C -1.55874 2.683901 -0.795609 3 0 3 
z
" id="m0f2c680bf2" style="stroke:#000000;stroke-width:0.5;"/>
    </defs>
    <g clip-path="url(#pd7ce3e34ea)">
     <use style="fill:#008000;stroke:#000000;stroke-width:0.5;" x="71.9992340464" xlink:href="#m0f2c680bf2" y="324.757496851"/>
     <use style="fill:#008000;stroke:#000000;stroke-width:0.5;" x="84.4000288623" xlink:href="#m0f2c680bf2" y="326.112351363"/>
     <use style="fill:#008000;stroke:#000000;stroke-width:0.5;" x="96.800012231" xlink:href="#m0f2c680bf2" y="332.380499371"/>
     <use style="fill:#008000;stroke:#000000;stroke-width:0.5;" x="109.200016137" xlink:href="#m0f2c680bf2" y="343.532357007"/>
     <use style="fill:#008000;stroke:#000000;stroke-width:0.5;" x="121.600005292" xlink:href="#m0f2c680bf2" y="355.310371754"/>
     <use style="fill:#008000;stroke:#000000;stroke-width:0.5;" x="134.000040298" xlink:href="#m0f2c680bf2" y="371.920192479"/>
     <use style="fill:#008000;stroke:#000000;stroke-width:0.5;" x="146.400017947" xlink:href="#m0f2c680bf2" y="381.458602624"/>
     <use style="fill:#008000;stroke:#000000;stroke-width:0.5;" x="158.800012287" xlink:href="#m0f2c680bf2" y="386.147975694"/>
     <use style="fill:#008000;stroke:#000000;stroke-width:0.5;" x="171.200026541" xlink:href="#m0f2c680bf2" y="388.17791742"/>
     <use style="fill:#008000;stroke:#000000;stroke-width:0.5;" x="183.600005181" xlink:href="#m0f2c680bf2" y="388.34659259"/>
     <use style="fill:#008000;stroke:#000000;stroke-width:0.5;" x="196.000022045" xlink:href="#m0f2c680bf2" y="388.8"/>
     <use style="fill:#008000;stroke:#000000;stroke-width:0.5;" x="208.40003679" xlink:href="#m0f2c680bf2" y="387.837710566"/>
     <use style="fill:#008000;stroke:#000000;stroke-width:0.5;" x="220.799989778" xlink:href="#m0f2c680bf2" y="381.16953304"/>
     <use style="fill:#008000;stroke:#000000;stroke-width:0.5;" x="233.200044176" xlink:href="#m0f2c680bf2" y="369.015373541"/>
     <use style="fill:#008000;stroke:#000000;stroke-width:0.5;" x="245.599976727" xlink:href="#m0f2c680bf2" y="353.84286311"/>
     <use style="fill:#008000;stroke:#000000;stroke-width:0.5;" x="257.999984336" xlink:href="#m0f2c680bf2" y="341.018590836"/>
     <use style="fill:#008000;stroke:#000000;stroke-width:0.5;" x="270.399997456" xlink:href="#m0f2c680bf2" y="330.616842164"/>
     <use style="fill:#008000;stroke:#000000;stroke-width:0.5;" x="282.799966452" xlink:href="#m0f2c680bf2" y="325.409443725"/>
     <use style="fill:#008000;stroke:#000000;stroke-width:0.5;" x="295.199070534" xlink:href="#m0f2c680bf2" y="323.147179067"/>
     <use style="fill:#008000;stroke:#000000;stroke-width:0.5;" x="307.599944269" xlink:href="#m0f2c680bf2" y="326.262336826"/>
     <use style="fill:#008000;stroke:#000000;stroke-width:0.5;" x="319.999997381" xlink:href="#m0f2c680bf2" y="331.415684552"/>
     <use style="fill:#008000;stroke:#000000;stroke-width:0.5;" x="332.400000812" xlink:href="#m0f2c680bf2" y="342.385258931"/>
     <use style="fill:#008000;stroke:#000000;stroke-width:0.5;" x="344.800012638" xlink:href="#m0f2c680bf2" y="354.218808035"/>
     <use style="fill:#008000;stroke:#000000;stroke-width:0.5;" x="357.199948342" xlink:href="#m0f2c680bf2" y="369.382177756"/>
     <use style="fill:#008000;stroke:#000000;stroke-width:0.5;" x="369.599953536" xlink:href="#m0f2c680bf2" y="381.162183517"/>
     <use style="fill:#008000;stroke:#000000;stroke-width:0.5;" x="381.999995128" xlink:href="#m0f2c680bf2" y="387.298547118"/>
     <use style="fill:#008000;stroke:#000000;stroke-width:0.5;" x="394.399957912" xlink:href="#m0f2c680bf2" y="388.465913684"/>
     <use style="fill:#008000;stroke:#000000;stroke-width:0.5;" x="406.799948888" xlink:href="#m0f2c680bf2" y="388.32023736"/>
     <use style="fill:#008000;stroke:#000000;stroke-width:0.5;" x="419.199984818" xlink:href="#m0f2c680bf2" y="388.471166295"/>
     <use style="fill:#008000;stroke:#000000;stroke-width:0.5;" x="431.600003252" xlink:href="#m0f2c680bf2" y="387.29555913"/>
     <use style="fill:#008000;stroke:#000000;stroke-width:0.5;" x="443.999979012" xlink:href="#m0f2c680bf2" y="381.314850297"/>
     <use style="fill:#008000;stroke:#000000;stroke-width:0.5;" x="456.400020933" xlink:href="#m0f2c680bf2" y="370.393075671"/>
     <use style="fill:#008000;stroke:#000000;stroke-width:0.5;" x="468.799998738" xlink:href="#m0f2c680bf2" y="356.587372281"/>
     <use style="fill:#008000;stroke:#000000;stroke-width:0.5;" x="481.200034053" xlink:href="#m0f2c680bf2" y="343.648017482"/>
     <use style="fill:#008000;stroke:#000000;stroke-width:0.5;" x="493.59999443" xlink:href="#m0f2c680bf2" y="333.79575171"/>
     <use style="fill:#008000;stroke:#000000;stroke-width:0.5;" x="506.000031493" xlink:href="#m0f2c680bf2" y="325.73421881"/>
    </g>
   </g>
   <g id="patch_3">
    <path d="M 72 43.2 
L 518.4 43.2 
" style="fill:none;stroke:#000000;stroke-linecap:square;stroke-linejoin:miter;"/>
   </g>
   <g id="patch_4">
    <path d="M 518.4 388.8 
L 518.4 43.2 
" style="fill:none;stroke:#000000;stroke-linecap:square;stroke-linejoin:miter;"/>
   </g>
   <g id="patch_5">
    <path d="M 72 388.8 
L 518.4 388.8 
" style="fill:none;stroke:#000000;stroke-linecap:square;stroke-linejoin:miter;"/>
   </g>
   <g id="patch_6">
    <path d="M 72 388.8 
L 72 43.2 
" style="fill:none;stroke:#000000;stroke-linecap:square;stroke-linejoin:miter;"/>
   </g>
   <g id="matplotlib.axis_1">
    <g id="xtick_1">
     <g id="line2d_4">
      <defs>
       <path d="M 0 0 
L 0 -4 
" id="m632f82d52b" style="stroke:#000000;stroke-width:0.5;"/>
      </defs>
      <g>
       <use style="stroke:#000000;stroke-width:0.5;" x="72.0" xlink:href="#m632f82d52b" y="388.8"/>
      </g>
     </g>
     <g id="line2d_5">
      <defs>
       <path d="M 0 0 
L 0 4 
" id="m5c0fca5604" style="stroke:#000000;stroke-width:0.5;"/>
      </defs>
      <g>
       <use style="stroke:#000000;stroke-width:0.5;" x="72.0" xlink:href="#m5c0fca5604" y="43.2"/>
      </g>
     </g>
     <g id="text_1">
      <!-- −180 -->
      <defs>
       <path d="M 31.78125 34.625 
Q 24.75 34.625 20.71875 30.859375 
Q 16.703125 27.09375 16.703125 20.515625 
Q 16.703125 13.921875 20.71875 10.15625 
Q 24.75 6.390625 31.78125 6.390625 
Q 38.8125 6.390625 42.859375 10.171875 
Q 46.921875 13.96875 46.921875 20.515625 
Q 46.921875 27.09375 42.890625 30.859375 
Q 38.875 34.625 31.78125 34.625 
M 21.921875 38.8125 
Q 15.578125 40.375 12.03125 44.71875 
Q 8.5 49.078125 8.5 55.328125 
Q 8.5 64.0625 14.71875 69.140625 
Q 20.953125 74.21875 31.78125 74.21875 
Q 42.671875 74.21875 48.875 69.140625 
Q 55.078125 64.0625 55.078125 55.328125 
Q 55.078125 49.078125 51.53125 44.71875 
Q 48 40.375 41.703125 38.8125 
Q 48.828125 37.15625 52.796875 32.3125 
Q 56.78125 27.484375 56.78125 20.515625 
Q 56.78125 9.90625 50.3125 4.234375 
Q 43.84375 -1.421875 31.78125 -1.421875 
Q 19.734375 -1.421875 13.25 4.234375 
Q 6.78125 9.90625 6.78125 20.515625 
Q 6.78125 27.484375 10.78125 32.3125 
Q 14.796875 37.15625 21.921875 38.8125 
M 18.3125 54.390625 
Q 18.3125 48.734375 21.84375 45.5625 
Q 25.390625 42.390625 31.78125 42.390625 
Q 38.140625 42.390625 41.71875 45.5625 
Q 45.3125 48.734375 45.3125 54.390625 
Q 45.3125 60.0625 41.71875 63.234375 
Q 38.140625 66.40625 31.78125 66.40625 
Q 25.390625 66.40625 21.84375 63.234375 
Q 18.3125 60.0625 18.3125 54.390625 
" id="BitstreamVeraSans-Roman-38"/>
       <path d="M 31.78125 66.40625 
Q 24.171875 66.40625 20.328125 58.90625 
Q 16.5 51.421875 16.5 36.375 
Q 16.5 21.390625 20.328125 13.890625 
Q 24.171875 6.390625 31.78125 6.390625 
Q 39.453125 6.390625 43.28125 13.890625 
Q 47.125 21.390625 47.125 36.375 
Q 47.125 51.421875 43.28125 58.90625 
Q 39.453125 66.40625 31.78125 66.40625 
M 31.78125 74.21875 
Q 44.046875 74.21875 50.515625 64.515625 
Q 56.984375 54.828125 56.984375 36.375 
Q 56.984375 17.96875 50.515625 8.265625 
Q 44.046875 -1.421875 31.78125 -1.421875 
Q 19.53125 -1.421875 13.0625 8.265625 
Q 6.59375 17.96875 6.59375 36.375 
Q 6.59375 54.828125 13.0625 64.515625 
Q 19.53125 74.21875 31.78125 74.21875 
" id="BitstreamVeraSans-Roman-30"/>
       <path d="M 10.59375 35.5 
L 73.1875 35.5 
L 73.1875 27.203125 
L 10.59375 27.203125 
z
" id="BitstreamVeraSans-Roman-2212"/>
       <path d="M 12.40625 8.296875 
L 28.515625 8.296875 
L 28.515625 63.921875 
L 10.984375 60.40625 
L 10.984375 69.390625 
L 28.421875 72.90625 
L 38.28125 72.90625 
L 38.28125 8.296875 
L 54.390625 8.296875 
L 54.390625 0 
L 12.40625 0 
z
" id="BitstreamVeraSans-Roman-31"/>
      </defs>
      <g transform="translate(55.5196875 401.918125)scale(0.12 -0.12)">
       <use xlink:href="#BitstreamVeraSans-Roman-2212"/>
       <use x="83.7890625" xlink:href="#BitstreamVeraSans-Roman-31"/>
       <use x="147.412109375" xlink:href="#BitstreamVeraSans-Roman-38"/>
       <use x="211.03515625" xlink:href="#BitstreamVeraSans-Roman-30"/>
      </g>
     </g>
    </g>
    <g id="xtick_2">
     <g id="line2d_6">
      <g>
       <use style="stroke:#000000;stroke-width:0.5;" x="127.8" xlink:href="#m632f82d52b" y="388.8"/>
      </g>
     </g>
     <g id="line2d_7">
      <g>
       <use style="stroke:#000000;stroke-width:0.5;" x="127.8" xlink:href="#m5c0fca5604" y="43.2"/>
      </g>
     </g>
     <g id="text_2">
      <!-- −135 -->
      <defs>
       <path d="M 10.796875 72.90625 
L 49.515625 72.90625 
L 49.515625 64.59375 
L 19.828125 64.59375 
L 19.828125 46.734375 
Q 21.96875 47.46875 24.109375 47.828125 
Q 26.265625 48.1875 28.421875 48.1875 
Q 40.625 48.1875 47.75 41.5 
Q 54.890625 34.8125 54.890625 23.390625 
Q 54.890625 11.625 47.5625 5.09375 
Q 40.234375 -1.421875 26.90625 -1.421875 
Q 22.3125 -1.421875 17.546875 -0.640625 
Q 12.796875 0.140625 7.71875 1.703125 
L 7.71875 11.625 
Q 12.109375 9.234375 16.796875 8.0625 
Q 21.484375 6.890625 26.703125 6.890625 
Q 35.15625 6.890625 40.078125 11.328125 
Q 45.015625 15.765625 45.015625 23.390625 
Q 45.015625 31 40.078125 35.4375 
Q 35.15625 39.890625 26.703125 39.890625 
Q 22.75 39.890625 18.8125 39.015625 
Q 14.890625 38.140625 10.796875 36.28125 
z
" id="BitstreamVeraSans-Roman-35"/>
       <path d="M 40.578125 39.3125 
Q 47.65625 37.796875 51.625 33 
Q 55.609375 28.21875 55.609375 21.1875 
Q 55.609375 10.40625 48.1875 4.484375 
Q 40.765625 -1.421875 27.09375 -1.421875 
Q 22.515625 -1.421875 17.65625 -0.515625 
Q 12.796875 0.390625 7.625 2.203125 
L 7.625 11.71875 
Q 11.71875 9.328125 16.59375 8.109375 
Q 21.484375 6.890625 26.8125 6.890625 
Q 36.078125 6.890625 40.9375 10.546875 
Q 45.796875 14.203125 45.796875 21.1875 
Q 45.796875 27.640625 41.28125 31.265625 
Q 36.765625 34.90625 28.71875 34.90625 
L 20.21875 34.90625 
L 20.21875 43.015625 
L 29.109375 43.015625 
Q 36.375 43.015625 40.234375 45.921875 
Q 44.09375 48.828125 44.09375 54.296875 
Q 44.09375 59.90625 40.109375 62.90625 
Q 36.140625 65.921875 28.71875 65.921875 
Q 24.65625 65.921875 20.015625 65.03125 
Q 15.375 64.15625 9.8125 62.3125 
L 9.8125 71.09375 
Q 15.4375 72.65625 20.34375 73.4375 
Q 25.25 74.21875 29.59375 74.21875 
Q 40.828125 74.21875 47.359375 69.109375 
Q 53.90625 64.015625 53.90625 55.328125 
Q 53.90625 49.265625 50.4375 45.09375 
Q 46.96875 40.921875 40.578125 39.3125 
" id="BitstreamVeraSans-Roman-33"/>
      </defs>
      <g transform="translate(111.3196875 401.918125)scale(0.12 -0.12)">
       <use xlink:href="#BitstreamVeraSans-Roman-2212"/>
       <use x="83.7890625" xlink:href="#BitstreamVeraSans-Roman-31"/>
       <use x="147.412109375" xlink:href="#BitstreamVeraSans-Roman-33"/>
       <use x="211.03515625" xlink:href="#BitstreamVeraSans-Roman-35"/>
      </g>
     </g>
    </g>
    <g id="xtick_3">
     <g id="line2d_8">
      <g>
       <use style="stroke:#000000;stroke-width:0.5;" x="183.6" xlink:href="#m632f82d52b" y="388.8"/>
      </g>
     </g>
     <g id="line2d_9">
      <g>
       <use style="stroke:#000000;stroke-width:0.5;" x="183.6" xlink:href="#m5c0fca5604" y="43.2"/>
      </g>
     </g>
     <g id="text_3">
      <!-- −90 -->
      <defs>
       <path d="M 10.984375 1.515625 
L 10.984375 10.5 
Q 14.703125 8.734375 18.5 7.8125 
Q 22.3125 6.890625 25.984375 6.890625 
Q 35.75 6.890625 40.890625 13.453125 
Q 46.046875 20.015625 46.78125 33.40625 
Q 43.953125 29.203125 39.59375 26.953125 
Q 35.25 24.703125 29.984375 24.703125 
Q 19.046875 24.703125 12.671875 31.3125 
Q 6.296875 37.9375 6.296875 49.421875 
Q 6.296875 60.640625 12.9375 67.421875 
Q 19.578125 74.21875 30.609375 74.21875 
Q 43.265625 74.21875 49.921875 64.515625 
Q 56.59375 54.828125 56.59375 36.375 
Q 56.59375 19.140625 48.40625 8.859375 
Q 40.234375 -1.421875 26.421875 -1.421875 
Q 22.703125 -1.421875 18.890625 -0.6875 
Q 15.09375 0.046875 10.984375 1.515625 
M 30.609375 32.421875 
Q 37.25 32.421875 41.125 36.953125 
Q 45.015625 41.5 45.015625 49.421875 
Q 45.015625 57.28125 41.125 61.84375 
Q 37.25 66.40625 30.609375 66.40625 
Q 23.96875 66.40625 20.09375 61.84375 
Q 16.21875 57.28125 16.21875 49.421875 
Q 16.21875 41.5 20.09375 36.953125 
Q 23.96875 32.421875 30.609375 32.421875 
" id="BitstreamVeraSans-Roman-39"/>
      </defs>
      <g transform="translate(170.9371875 401.918125)scale(0.12 -0.12)">
       <use xlink:href="#BitstreamVeraSans-Roman-2212"/>
       <use x="83.7890625" xlink:href="#BitstreamVeraSans-Roman-39"/>
       <use x="147.412109375" xlink:href="#BitstreamVeraSans-Roman-30"/>
      </g>
     </g>
    </g>
    <g id="xtick_4">
     <g id="line2d_10">
      <g>
       <use style="stroke:#000000;stroke-width:0.5;" x="239.4" xlink:href="#m632f82d52b" y="388.8"/>
      </g>
     </g>
     <g id="line2d_11">
      <g>
       <use style="stroke:#000000;stroke-width:0.5;" x="239.4" xlink:href="#m5c0fca5604" y="43.2"/>
      </g>
     </g>
     <g id="text_4">
      <!-- −45 -->
      <defs>
       <path d="M 37.796875 64.3125 
L 12.890625 25.390625 
L 37.796875 25.390625 
z
M 35.203125 72.90625 
L 47.609375 72.90625 
L 47.609375 25.390625 
L 58.015625 25.390625 
L 58.015625 17.1875 
L 47.609375 17.1875 
L 47.609375 0 
L 37.796875 0 
L 37.796875 17.1875 
L 4.890625 17.1875 
L 4.890625 26.703125 
z
" id="BitstreamVeraSans-Roman-34"/>
      </defs>
      <g transform="translate(226.7371875 401.918125)scale(0.12 -0.12)">
       <use xlink:href="#BitstreamVeraSans-Roman-2212"/>
       <use x="83.7890625" xlink:href="#BitstreamVeraSans-Roman-34"/>
       <use x="147.412109375" xlink:href="#BitstreamVeraSans-Roman-35"/>
      </g>
     </g>
    </g>
    <g id="xtick_5">
     <g id="line2d_12">
      <g>
       <use style="stroke:#000000;stroke-width:0.5;" x="295.2" xlink:href="#m632f82d52b" y="388.8"/>
      </g>
     </g>
     <g id="line2d_13">
      <g>
       <use style="stroke:#000000;stroke-width:0.5;" x="295.2" xlink:href="#m5c0fca5604" y="43.2"/>
      </g>
     </g>
     <g id="text_5">
      <!-- 0 -->
      <g transform="translate(291.3825 401.918125)scale(0.12 -0.12)">
       <use xlink:href="#BitstreamVeraSans-Roman-30"/>
      </g>
     </g>
    </g>
    <g id="xtick_6">
     <g id="line2d_14">
      <g>
       <use style="stroke:#000000;stroke-width:0.5;" x="351.0" xlink:href="#m632f82d52b" y="388.8"/>
      </g>
     </g>
     <g id="line2d_15">
      <g>
       <use style="stroke:#000000;stroke-width:0.5;" x="351.0" xlink:href="#m5c0fca5604" y="43.2"/>
      </g>
     </g>
     <g id="text_6">
      <!-- 45 -->
      <g transform="translate(343.365 401.918125)scale(0.12 -0.12)">
       <use xlink:href="#BitstreamVeraSans-Roman-34"/>
       <use x="63.623046875" xlink:href="#BitstreamVeraSans-Roman-35"/>
      </g>
     </g>
    </g>
    <g id="xtick_7">
     <g id="line2d_16">
      <g>
       <use style="stroke:#000000;stroke-width:0.5;" x="406.8" xlink:href="#m632f82d52b" y="388.8"/>
      </g>
     </g>
     <g id="line2d_17">
      <g>
       <use style="stroke:#000000;stroke-width:0.5;" x="406.8" xlink:href="#m5c0fca5604" y="43.2"/>
      </g>
     </g>
     <g id="text_7">
      <!-- 90 -->
      <g transform="translate(399.165 401.918125)scale(0.12 -0.12)">
       <use xlink:href="#BitstreamVeraSans-Roman-39"/>
       <use x="63.623046875" xlink:href="#BitstreamVeraSans-Roman-30"/>
      </g>
     </g>
    </g>
    <g id="xtick_8">
     <g id="line2d_18">
      <g>
       <use style="stroke:#000000;stroke-width:0.5;" x="462.6" xlink:href="#m632f82d52b" y="388.8"/>
      </g>
     </g>
     <g id="line2d_19">
      <g>
       <use style="stroke:#000000;stroke-width:0.5;" x="462.6" xlink:href="#m5c0fca5604" y="43.2"/>
      </g>
     </g>
     <g id="text_8">
      <!-- 135 -->
      <g transform="translate(451.1475 401.918125)scale(0.12 -0.12)">
       <use xlink:href="#BitstreamVeraSans-Roman-31"/>
       <use x="63.623046875" xlink:href="#BitstreamVeraSans-Roman-33"/>
       <use x="127.24609375" xlink:href="#BitstreamVeraSans-Roman-35"/>
      </g>
     </g>
    </g>
    <g id="xtick_9">
     <g id="line2d_20">
      <g>
       <use style="stroke:#000000;stroke-width:0.5;" x="518.4" xlink:href="#m632f82d52b" y="388.8"/>
      </g>
     </g>
     <g id="line2d_21">
      <g>
       <use style="stroke:#000000;stroke-width:0.5;" x="518.4" xlink:href="#m5c0fca5604" y="43.2"/>
      </g>
     </g>
     <g id="text_9">
      <!-- 180 -->
      <g transform="translate(506.9475 401.918125)scale(0.12 -0.12)">
       <use xlink:href="#BitstreamVeraSans-Roman-31"/>
       <use x="63.623046875" xlink:href="#BitstreamVeraSans-Roman-38"/>
       <use x="127.24609375" xlink:href="#BitstreamVeraSans-Roman-30"/>
      </g>
     </g>
    </g>
    <g id="text_10">
     <!-- Phi -->
     <defs>
      <path d="M 19.671875 64.796875 
L 19.671875 37.40625 
L 32.078125 37.40625 
Q 38.96875 37.40625 42.71875 40.96875 
Q 46.484375 44.53125 46.484375 51.125 
Q 46.484375 57.671875 42.71875 61.234375 
Q 38.96875 64.796875 32.078125 64.796875 
z
M 9.8125 72.90625 
L 32.078125 72.90625 
Q 44.34375 72.90625 50.609375 67.359375 
Q 56.890625 61.8125 56.890625 51.125 
Q 56.890625 40.328125 50.609375 34.8125 
Q 44.34375 29.296875 32.078125 29.296875 
L 19.671875 29.296875 
L 19.671875 0 
L 9.8125 0 
z
" id="BitstreamVeraSans-Roman-50"/>
      <path d="M 54.890625 33.015625 
L 54.890625 0 
L 45.90625 0 
L 45.90625 32.71875 
Q 45.90625 40.484375 42.875 44.328125 
Q 39.84375 48.1875 33.796875 48.1875 
Q 26.515625 48.1875 22.3125 43.546875 
Q 18.109375 38.921875 18.109375 30.90625 
L 18.109375 0 
L 9.078125 0 
L 9.078125 75.984375 
L 18.109375 75.984375 
L 18.109375 46.1875 
Q 21.34375 51.125 25.703125 53.5625 
Q 30.078125 56 35.796875 56 
Q 45.21875 56 50.046875 50.171875 
Q 54.890625 44.34375 54.890625 33.015625 
" id="BitstreamVeraSans-Roman-68"/>
      <path d="M 9.421875 54.6875 
L 18.40625 54.6875 
L 18.40625 0 
L 9.421875 0 
z
M 9.421875 75.984375 
L 18.40625 75.984375 
L 18.40625 64.59375 
L 9.421875 64.59375 
z
" id="BitstreamVeraSans-Roman-69"/>
     </defs>
     <g transform="translate(286.1128125 418.531875)scale(0.12 -0.12)">
      <use xlink:href="#BitstreamVeraSans-Roman-50"/>
      <use x="60.302734375" xlink:href="#BitstreamVeraSans-Roman-68"/>
      <use x="123.681640625" xlink:href="#BitstreamVeraSans-Roman-69"/>
     </g>
    </g>
   </g>
   <g id="matplotlib.axis_2">
    <g id="ytick_1">
     <g id="line2d_22">
      <defs>
       <path d="M 0 0 
L 4 0 
" id="mc6214b7b64" style="stroke:#000000;stroke-width:0.5;"/>
      </defs>
      <g>
       <use style="stroke:#000000;stroke-width:0.5;" x="72.0" xlink:href="#mc6214b7b64" y="388.8"/>
      </g>
     </g>
     <g id="line2d_23">
      <defs>
       <path d="M 0 0 
L -4 0 
" id="m136414e9ce" style="stroke:#000000;stroke-width:0.5;"/>
      </defs>
      <g>
       <use style="stroke:#000000;stroke-width:0.5;" x="518.4" xlink:href="#m136414e9ce" y="388.8"/>
      </g>
     </g>
     <g id="text_11">
      <!-- 0.0 -->
      <defs>
       <path d="M 10.6875 12.40625 
L 21 12.40625 
L 21 0 
L 10.6875 0 
z
" id="BitstreamVeraSans-Roman-2e"/>
      </defs>
      <g transform="translate(48.91625 392.11125)scale(0.12 -0.12)">
       <use xlink:href="#BitstreamVeraSans-Roman-30"/>
       <use x="63.623046875" xlink:href="#BitstreamVeraSans-Roman-2e"/>
       <use x="95.41015625" xlink:href="#BitstreamVeraSans-Roman-30"/>
      </g>
     </g>
    </g>
    <g id="ytick_2">
     <g id="line2d_24">
      <g>
       <use style="stroke:#000000;stroke-width:0.5;" x="72.0" xlink:href="#mc6214b7b64" y="302.4"/>
      </g>
     </g>
     <g id="line2d_25">
      <g>
       <use style="stroke:#000000;stroke-width:0.5;" x="518.4" xlink:href="#m136414e9ce" y="302.4"/>
      </g>
     </g>
     <g id="text_12">
      <!-- 0.5 -->
      <g transform="translate(48.91625 305.71125)scale(0.12 -0.12)">
       <use xlink:href="#BitstreamVeraSans-Roman-30"/>
       <use x="63.623046875" xlink:href="#BitstreamVeraSans-Roman-2e"/>
       <use x="95.41015625" xlink:href="#BitstreamVeraSans-Roman-35"/>
      </g>
     </g>
    </g>
    <g id="ytick_3">
     <g id="line2d_26">
      <g>
       <use style="stroke:#000000;stroke-width:0.5;" x="72.0" xlink:href="#mc6214b7b64" y="216.0"/>
      </g>
     </g>
     <g id="line2d_27">
      <g>
       <use style="stroke:#000000;stroke-width:0.5;" x="518.4" xlink:href="#m136414e9ce" y="216.0"/>
      </g>
     </g>
     <g id="text_13">
      <!-- 1.0 -->
      <g transform="translate(48.91625 219.31125)scale(0.12 -0.12)">
       <use xlink:href="#BitstreamVeraSans-Roman-31"/>
       <use x="63.623046875" xlink:href="#BitstreamVeraSans-Roman-2e"/>
       <use x="95.41015625" xlink:href="#BitstreamVeraSans-Roman-30"/>
      </g>
     </g>
    </g>
    <g id="ytick_4">
     <g id="line2d_28">
      <g>
       <use style="stroke:#000000;stroke-width:0.5;" x="72.0" xlink:href="#mc6214b7b64" y="129.6"/>
      </g>
     </g>
     <g id="line2d_29">
      <g>
       <use style="stroke:#000000;stroke-width:0.5;" x="518.4" xlink:href="#m136414e9ce" y="129.6"/>
      </g>
     </g>
     <g id="text_14">
      <!-- 1.5 -->
      <g transform="translate(48.91625 132.91125)scale(0.12 -0.12)">
       <use xlink:href="#BitstreamVeraSans-Roman-31"/>
       <use x="63.623046875" xlink:href="#BitstreamVeraSans-Roman-2e"/>
       <use x="95.41015625" xlink:href="#BitstreamVeraSans-Roman-35"/>
      </g>
     </g>
    </g>
    <g id="ytick_5">
     <g id="line2d_30">
      <g>
       <use style="stroke:#000000;stroke-width:0.5;" x="72.0" xlink:href="#mc6214b7b64" y="43.2"/>
      </g>
     </g>
     <g id="line2d_31">
      <g>
       <use style="stroke:#000000;stroke-width:0.5;" x="518.4" xlink:href="#m136414e9ce" y="43.2"/>
      </g>
     </g>
     <g id="text_15">
      <!-- 2.0 -->
      <defs>
       <path d="M 19.1875 8.296875 
L 53.609375 8.296875 
L 53.609375 0 
L 7.328125 0 
L 7.328125 8.296875 
Q 12.9375 14.109375 22.625 23.890625 
Q 32.328125 33.6875 34.8125 36.53125 
Q 39.546875 41.84375 41.421875 45.53125 
Q 43.3125 49.21875 43.3125 52.78125 
Q 43.3125 58.59375 39.234375 62.25 
Q 35.15625 65.921875 28.609375 65.921875 
Q 23.96875 65.921875 18.8125 64.3125 
Q 13.671875 62.703125 7.8125 59.421875 
L 7.8125 69.390625 
Q 13.765625 71.78125 18.9375 73 
Q 24.125 74.21875 28.421875 74.21875 
Q 39.75 74.21875 46.484375 68.546875 
Q 53.21875 62.890625 53.21875 53.421875 
Q 53.21875 48.921875 51.53125 44.890625 
Q 49.859375 40.875 45.40625 35.40625 
Q 44.1875 33.984375 37.640625 27.21875 
Q 31.109375 20.453125 19.1875 8.296875 
" id="BitstreamVeraSans-Roman-32"/>
      </defs>
      <g transform="translate(48.91625 46.51125)scale(0.12 -0.12)">
       <use xlink:href="#BitstreamVeraSans-Roman-32"/>
       <use x="63.623046875" xlink:href="#BitstreamVeraSans-Roman-2e"/>
       <use x="95.41015625" xlink:href="#BitstreamVeraSans-Roman-30"/>
      </g>
     </g>
    </g>
    <g id="text_16">
     <!-- kcal/mol -->
     <defs>
      <path d="M 52 44.1875 
Q 55.375 50.25 60.0625 53.125 
Q 64.75 56 71.09375 56 
Q 79.640625 56 84.28125 50.015625 
Q 88.921875 44.046875 88.921875 33.015625 
L 88.921875 0 
L 79.890625 0 
L 79.890625 32.71875 
Q 79.890625 40.578125 77.09375 44.375 
Q 74.3125 48.1875 68.609375 48.1875 
Q 61.625 48.1875 57.5625 43.546875 
Q 53.515625 38.921875 53.515625 30.90625 
L 53.515625 0 
L 44.484375 0 
L 44.484375 32.71875 
Q 44.484375 40.625 41.703125 44.40625 
Q 38.921875 48.1875 33.109375 48.1875 
Q 26.21875 48.1875 22.15625 43.53125 
Q 18.109375 38.875 18.109375 30.90625 
L 18.109375 0 
L 9.078125 0 
L 9.078125 54.6875 
L 18.109375 54.6875 
L 18.109375 46.1875 
Q 21.1875 51.21875 25.484375 53.609375 
Q 29.78125 56 35.6875 56 
Q 41.65625 56 45.828125 52.96875 
Q 50 49.953125 52 44.1875 
" id="BitstreamVeraSans-Roman-6d"/>
      <path d="M 30.609375 48.390625 
Q 23.390625 48.390625 19.1875 42.75 
Q 14.984375 37.109375 14.984375 27.296875 
Q 14.984375 17.484375 19.15625 11.84375 
Q 23.34375 6.203125 30.609375 6.203125 
Q 37.796875 6.203125 41.984375 11.859375 
Q 46.1875 17.53125 46.1875 27.296875 
Q 46.1875 37.015625 41.984375 42.703125 
Q 37.796875 48.390625 30.609375 48.390625 
M 30.609375 56 
Q 42.328125 56 49.015625 48.375 
Q 55.71875 40.765625 55.71875 27.296875 
Q 55.71875 13.875 49.015625 6.21875 
Q 42.328125 -1.421875 30.609375 -1.421875 
Q 18.84375 -1.421875 12.171875 6.21875 
Q 5.515625 13.875 5.515625 27.296875 
Q 5.515625 40.765625 12.171875 48.375 
Q 18.84375 56 30.609375 56 
" id="BitstreamVeraSans-Roman-6f"/>
      <path d="M 34.28125 27.484375 
Q 23.390625 27.484375 19.1875 25 
Q 14.984375 22.515625 14.984375 16.5 
Q 14.984375 11.71875 18.140625 8.90625 
Q 21.296875 6.109375 26.703125 6.109375 
Q 34.1875 6.109375 38.703125 11.40625 
Q 43.21875 16.703125 43.21875 25.484375 
L 43.21875 27.484375 
z
M 52.203125 31.203125 
L 52.203125 0 
L 43.21875 0 
L 43.21875 8.296875 
Q 40.140625 3.328125 35.546875 0.953125 
Q 30.953125 -1.421875 24.3125 -1.421875 
Q 15.921875 -1.421875 10.953125 3.296875 
Q 6 8.015625 6 15.921875 
Q 6 25.140625 12.171875 29.828125 
Q 18.359375 34.515625 30.609375 34.515625 
L 43.21875 34.515625 
L 43.21875 35.40625 
Q 43.21875 41.609375 39.140625 45 
Q 35.0625 48.390625 27.6875 48.390625 
Q 23 48.390625 18.546875 47.265625 
Q 14.109375 46.140625 10.015625 43.890625 
L 10.015625 52.203125 
Q 14.9375 54.109375 19.578125 55.046875 
Q 24.21875 56 28.609375 56 
Q 40.484375 56 46.34375 49.84375 
Q 52.203125 43.703125 52.203125 31.203125 
" id="BitstreamVeraSans-Roman-61"/>
      <path d="M 48.78125 52.59375 
L 48.78125 44.1875 
Q 44.96875 46.296875 41.140625 47.34375 
Q 37.3125 48.390625 33.40625 48.390625 
Q 24.65625 48.390625 19.8125 42.84375 
Q 14.984375 37.3125 14.984375 27.296875 
Q 14.984375 17.28125 19.8125 11.734375 
Q 24.65625 6.203125 33.40625 6.203125 
Q 37.3125 6.203125 41.140625 7.25 
Q 44.96875 8.296875 48.78125 10.40625 
L 48.78125 2.09375 
Q 45.015625 0.34375 40.984375 -0.53125 
Q 36.96875 -1.421875 32.421875 -1.421875 
Q 20.0625 -1.421875 12.78125 6.34375 
Q 5.515625 14.109375 5.515625 27.296875 
Q 5.515625 40.671875 12.859375 48.328125 
Q 20.21875 56 33.015625 56 
Q 37.15625 56 41.109375 55.140625 
Q 45.0625 54.296875 48.78125 52.59375 
" id="BitstreamVeraSans-Roman-63"/>
      <path d="M 9.078125 75.984375 
L 18.109375 75.984375 
L 18.109375 31.109375 
L 44.921875 54.6875 
L 56.390625 54.6875 
L 27.390625 29.109375 
L 57.625 0 
L 45.90625 0 
L 18.109375 26.703125 
L 18.109375 0 
L 9.078125 0 
z
" id="BitstreamVeraSans-Roman-6b"/>
      <path d="M 25.390625 72.90625 
L 33.6875 72.90625 
L 8.296875 -9.28125 
L 0 -9.28125 
z
" id="BitstreamVeraSans-Roman-2f"/>
      <path d="M 9.421875 75.984375 
L 18.40625 75.984375 
L 18.40625 0 
L 9.421875 0 
z
" id="BitstreamVeraSans-Roman-6c"/>
     </defs>
     <g transform="translate(41.420625 241.3209375)rotate(-90.0)scale(0.12 -0.12)">
      <use xlink:href="#BitstreamVeraSans-Roman-6b"/>
      <use x="57.91015625" xlink:href="#BitstreamVeraSans-Roman-63"/>
      <use x="112.890625" xlink:href="#BitstreamVeraSans-Roman-61"/>
      <use x="174.169921875" xlink:href="#BitstreamVeraSans-Roman-6c"/>
      <use x="201.953125" xlink:href="#BitstreamVeraSans-Roman-2f"/>
      <use x="235.64453125" xlink:href="#BitstreamVeraSans-Roman-6d"/>
      <use x="333.056640625" xlink:href="#BitstreamVeraSans-Roman-6f"/>
      <use x="394.23828125" xlink:href="#BitstreamVeraSans-Roman-6c"/>
     </g>
    </g>
   </g>
   <g id="text_17">
    <!-- O1-N1-C3-C2 -->
    <defs>
     <path d="M 4.890625 31.390625 
L 31.203125 31.390625 
L 31.203125 23.390625 
L 4.890625 23.390625 
z
" id="BitstreamVeraSans-Roman-2d"/>
     <path d="M 9.8125 72.90625 
L 23.09375 72.90625 
L 55.421875 11.921875 
L 55.421875 72.90625 
L 64.984375 72.90625 
L 64.984375 0 
L 51.703125 0 
L 19.390625 60.984375 
L 19.390625 0 
L 9.8125 0 
z
" id="BitstreamVeraSans-Roman-4e"/>
     <path d="M 39.40625 66.21875 
Q 28.65625 66.21875 22.328125 58.203125 
Q 16.015625 50.203125 16.015625 36.375 
Q 16.015625 22.609375 22.328125 14.59375 
Q 28.65625 6.59375 39.40625 6.59375 
Q 50.140625 6.59375 56.421875 14.59375 
Q 62.703125 22.609375 62.703125 36.375 
Q 62.703125 50.203125 56.421875 58.203125 
Q 50.140625 66.21875 39.40625 66.21875 
M 39.40625 74.21875 
Q 54.734375 74.21875 63.90625 63.9375 
Q 73.09375 53.65625 73.09375 36.375 
Q 73.09375 19.140625 63.90625 8.859375 
Q 54.734375 -1.421875 39.40625 -1.421875 
Q 24.03125 -1.421875 14.8125 8.828125 
Q 5.609375 19.09375 5.609375 36.375 
Q 5.609375 53.65625 14.8125 63.9375 
Q 24.03125 74.21875 39.40625 74.21875 
" id="BitstreamVeraSans-Roman-4f"/>
     <path d="M 64.40625 67.28125 
L 64.40625 56.890625 
Q 59.421875 61.53125 53.78125 63.8125 
Q 48.140625 66.109375 41.796875 66.109375 
Q 29.296875 66.109375 22.65625 58.46875 
Q 16.015625 50.828125 16.015625 36.375 
Q 16.015625 21.96875 22.65625 14.328125 
Q 29.296875 6.6875 41.796875 6.6875 
Q 48.140625 6.6875 53.78125 8.984375 
Q 59.421875 11.28125 64.40625 15.921875 
L 64.40625 5.609375 
Q 59.234375 2.09375 53.4375 0.328125 
Q 47.65625 -1.421875 41.21875 -1.421875 
Q 24.65625 -1.421875 15.125 8.703125 
Q 5.609375 18.84375 5.609375 36.375 
Q 5.609375 53.953125 15.125 64.078125 
Q 24.65625 74.21875 41.21875 74.21875 
Q 47.75 74.21875 53.53125 72.484375 
Q 59.328125 70.75 64.40625 67.28125 
" id="BitstreamVeraSans-Roman-43"/>
    </defs>
    <g transform="translate(247.973625 38.2)scale(0.144 -0.144)">
     <use xlink:href="#BitstreamVeraSans-Roman-4f"/>
     <use x="78.7109375" xlink:href="#BitstreamVeraSans-Roman-31"/>
     <use x="142.333984375" xlink:href="#BitstreamVeraSans-Roman-2d"/>
     <use x="178.41796875" xlink:href="#BitstreamVeraSans-Roman-4e"/>
     <use x="253.22265625" xlink:href="#BitstreamVeraSans-Roman-31"/>
     <use x="316.845703125" xlink:href="#BitstreamVeraSans-Roman-2d"/>
     <use x="352.9296875" xlink:href="#BitstreamVeraSans-Roman-43"/>
     <use x="422.75390625" xlink:href="#BitstreamVeraSans-Roman-33"/>
     <use x="486.376953125" xlink:href="#BitstreamVeraSans-Roman-2d"/>
     <use x="522.4609375" xlink:href="#BitstreamVeraSans-Roman-43"/>
     <use x="592.28515625" xlink:href="#BitstreamVeraSans-Roman-32"/>
    </g>
   </g>
   <g id="legend_1">
    <g id="patch_7">
     <path d="M 437.9475 84.8275 
L 514.4 84.8275 
L 514.4 47.2 
L 437.9475 47.2 
z
" style="fill:#ffffff;stroke:#000000;stroke-linejoin:miter;"/>
    </g>
    <g id="line2d_32">
     <path d="M 443.5475 53.67875 
L 454.7475 53.67875 
" style="fill:none;stroke:#ff0000;stroke-linecap:square;"/>
    </g>
    <g id="line2d_33">
     <g>
      <use style="fill:#ff0000;stroke:#000000;stroke-width:0.5;" x="443.5475" xlink:href="#m9c41eb557e" y="53.67875"/>
      <use style="fill:#ff0000;stroke:#000000;stroke-width:0.5;" x="454.7475" xlink:href="#m9c41eb557e" y="53.67875"/>
     </g>
    </g>
    <g id="text_18">
     <!-- QM -->
     <defs>
      <path d="M 39.40625 66.21875 
Q 28.65625 66.21875 22.328125 58.203125 
Q 16.015625 50.203125 16.015625 36.375 
Q 16.015625 22.609375 22.328125 14.59375 
Q 28.65625 6.59375 39.40625 6.59375 
Q 50.140625 6.59375 56.421875 14.59375 
Q 62.703125 22.609375 62.703125 36.375 
Q 62.703125 50.203125 56.421875 58.203125 
Q 50.140625 66.21875 39.40625 66.21875 
M 53.21875 1.3125 
L 66.21875 -12.890625 
L 54.296875 -12.890625 
L 43.5 -1.21875 
Q 41.890625 -1.3125 41.03125 -1.359375 
Q 40.1875 -1.421875 39.40625 -1.421875 
Q 24.03125 -1.421875 14.8125 8.859375 
Q 5.609375 19.140625 5.609375 36.375 
Q 5.609375 53.65625 14.8125 63.9375 
Q 24.03125 74.21875 39.40625 74.21875 
Q 54.734375 74.21875 63.90625 63.9375 
Q 73.09375 53.65625 73.09375 36.375 
Q 73.09375 23.6875 67.984375 14.640625 
Q 62.890625 5.609375 53.21875 1.3125 
" id="BitstreamVeraSans-Roman-51"/>
      <path d="M 9.8125 72.90625 
L 24.515625 72.90625 
L 43.109375 23.296875 
L 61.8125 72.90625 
L 76.515625 72.90625 
L 76.515625 0 
L 66.890625 0 
L 66.890625 64.015625 
L 48.09375 14.015625 
L 38.1875 14.015625 
L 19.390625 64.015625 
L 19.390625 0 
L 9.8125 0 
z
" id="BitstreamVeraSans-Roman-4d"/>
     </defs>
     <g transform="translate(463.5475 56.47875)scale(0.08 -0.08)">
      <use xlink:href="#BitstreamVeraSans-Roman-51"/>
      <use x="78.7109375" xlink:href="#BitstreamVeraSans-Roman-4d"/>
     </g>
    </g>
    <g id="line2d_34">
     <path d="M 443.5475 65.42125 
L 454.7475 65.42125 
" style="fill:none;stroke:#0000ff;stroke-linecap:square;"/>
    </g>
    <g id="line2d_35">
     <g>
      <use style="fill:#0000ff;stroke:#000000;stroke-width:0.5;" x="443.5475" xlink:href="#m14fb60daaf" y="65.42125"/>
      <use style="fill:#0000ff;stroke:#000000;stroke-width:0.5;" x="454.7475" xlink:href="#m14fb60daaf" y="65.42125"/>
     </g>
    </g>
    <g id="text_19">
     <!-- MM Original -->
     <defs>
      <path id="BitstreamVeraSans-Roman-20"/>
      <path d="M 54.890625 33.015625 
L 54.890625 0 
L 45.90625 0 
L 45.90625 32.71875 
Q 45.90625 40.484375 42.875 44.328125 
Q 39.84375 48.1875 33.796875 48.1875 
Q 26.515625 48.1875 22.3125 43.546875 
Q 18.109375 38.921875 18.109375 30.90625 
L 18.109375 0 
L 9.078125 0 
L 9.078125 54.6875 
L 18.109375 54.6875 
L 18.109375 46.1875 
Q 21.34375 51.125 25.703125 53.5625 
Q 30.078125 56 35.796875 56 
Q 45.21875 56 50.046875 50.171875 
Q 54.890625 44.34375 54.890625 33.015625 
" id="BitstreamVeraSans-Roman-6e"/>
      <path d="M 45.40625 27.984375 
Q 45.40625 37.75 41.375 43.109375 
Q 37.359375 48.484375 30.078125 48.484375 
Q 22.859375 48.484375 18.828125 43.109375 
Q 14.796875 37.75 14.796875 27.984375 
Q 14.796875 18.265625 18.828125 12.890625 
Q 22.859375 7.515625 30.078125 7.515625 
Q 37.359375 7.515625 41.375 12.890625 
Q 45.40625 18.265625 45.40625 27.984375 
M 54.390625 6.78125 
Q 54.390625 -7.171875 48.1875 -13.984375 
Q 42 -20.796875 29.203125 -20.796875 
Q 24.46875 -20.796875 20.265625 -20.09375 
Q 16.0625 -19.390625 12.109375 -17.921875 
L 12.109375 -9.1875 
Q 16.0625 -11.328125 19.921875 -12.34375 
Q 23.78125 -13.375 27.78125 -13.375 
Q 36.625 -13.375 41.015625 -8.765625 
Q 45.40625 -4.15625 45.40625 5.171875 
L 45.40625 9.625 
Q 42.625 4.78125 38.28125 2.390625 
Q 33.9375 0 27.875 0 
Q 17.828125 0 11.671875 7.65625 
Q 5.515625 15.328125 5.515625 27.984375 
Q 5.515625 40.671875 11.671875 48.328125 
Q 17.828125 56 27.875 56 
Q 33.9375 56 38.28125 53.609375 
Q 42.625 51.21875 45.40625 46.390625 
L 45.40625 54.6875 
L 54.390625 54.6875 
z
" id="BitstreamVeraSans-Roman-67"/>
      <path d="M 41.109375 46.296875 
Q 39.59375 47.171875 37.8125 47.578125 
Q 36.03125 48 33.890625 48 
Q 26.265625 48 22.1875 43.046875 
Q 18.109375 38.09375 18.109375 28.8125 
L 18.109375 0 
L 9.078125 0 
L 9.078125 54.6875 
L 18.109375 54.6875 
L 18.109375 46.1875 
Q 20.953125 51.171875 25.484375 53.578125 
Q 30.03125 56 36.53125 56 
Q 37.453125 56 38.578125 55.875 
Q 39.703125 55.765625 41.0625 55.515625 
z
" id="BitstreamVeraSans-Roman-72"/>
     </defs>
     <g transform="translate(463.5475 68.22125)scale(0.08 -0.08)">
      <use xlink:href="#BitstreamVeraSans-Roman-4d"/>
      <use x="86.279296875" xlink:href="#BitstreamVeraSans-Roman-4d"/>
      <use x="172.55859375" xlink:href="#BitstreamVeraSans-Roman-20"/>
      <use x="204.345703125" xlink:href="#BitstreamVeraSans-Roman-4f"/>
      <use x="283.056640625" xlink:href="#BitstreamVeraSans-Roman-72"/>
      <use x="324.169921875" xlink:href="#BitstreamVeraSans-Roman-69"/>
      <use x="351.953125" xlink:href="#BitstreamVeraSans-Roman-67"/>
      <use x="415.4296875" xlink:href="#BitstreamVeraSans-Roman-69"/>
      <use x="443.212890625" xlink:href="#BitstreamVeraSans-Roman-6e"/>
      <use x="506.591796875" xlink:href="#BitstreamVeraSans-Roman-61"/>
      <use x="567.87109375" xlink:href="#BitstreamVeraSans-Roman-6c"/>
     </g>
    </g>
    <g id="line2d_36">
     <path d="M 443.5475 77.16375 
L 454.7475 77.16375 
" style="fill:none;stroke:#008000;stroke-linecap:square;"/>
    </g>
    <g id="line2d_37">
     <g>
      <use style="fill:#008000;stroke:#000000;stroke-width:0.5;" x="443.5475" xlink:href="#m0f2c680bf2" y="77.16375"/>
      <use style="fill:#008000;stroke:#000000;stroke-width:0.5;" x="454.7475" xlink:href="#m0f2c680bf2" y="77.16375"/>
     </g>
    </g>
    <g id="text_20">
     <!-- MM Fitted -->
     <defs>
      <path d="M 56.203125 29.59375 
L 56.203125 25.203125 
L 14.890625 25.203125 
Q 15.484375 15.921875 20.484375 11.0625 
Q 25.484375 6.203125 34.421875 6.203125 
Q 39.59375 6.203125 44.453125 7.46875 
Q 49.3125 8.734375 54.109375 11.28125 
L 54.109375 2.78125 
Q 49.265625 0.734375 44.1875 -0.34375 
Q 39.109375 -1.421875 33.890625 -1.421875 
Q 20.796875 -1.421875 13.15625 6.1875 
Q 5.515625 13.8125 5.515625 26.8125 
Q 5.515625 40.234375 12.765625 48.109375 
Q 20.015625 56 32.328125 56 
Q 43.359375 56 49.78125 48.890625 
Q 56.203125 41.796875 56.203125 29.59375 
M 47.21875 32.234375 
Q 47.125 39.59375 43.09375 43.984375 
Q 39.0625 48.390625 32.421875 48.390625 
Q 24.90625 48.390625 20.390625 44.140625 
Q 15.875 39.890625 15.1875 32.171875 
z
" id="BitstreamVeraSans-Roman-65"/>
      <path d="M 45.40625 46.390625 
L 45.40625 75.984375 
L 54.390625 75.984375 
L 54.390625 0 
L 45.40625 0 
L 45.40625 8.203125 
Q 42.578125 3.328125 38.25 0.953125 
Q 33.9375 -1.421875 27.875 -1.421875 
Q 17.96875 -1.421875 11.734375 6.484375 
Q 5.515625 14.40625 5.515625 27.296875 
Q 5.515625 40.1875 11.734375 48.09375 
Q 17.96875 56 27.875 56 
Q 33.9375 56 38.25 53.625 
Q 42.578125 51.265625 45.40625 46.390625 
M 14.796875 27.296875 
Q 14.796875 17.390625 18.875 11.75 
Q 22.953125 6.109375 30.078125 6.109375 
Q 37.203125 6.109375 41.296875 11.75 
Q 45.40625 17.390625 45.40625 27.296875 
Q 45.40625 37.203125 41.296875 42.84375 
Q 37.203125 48.484375 30.078125 48.484375 
Q 22.953125 48.484375 18.875 42.84375 
Q 14.796875 37.203125 14.796875 27.296875 
" id="BitstreamVeraSans-Roman-64"/>
      <path d="M 18.3125 70.21875 
L 18.3125 54.6875 
L 36.8125 54.6875 
L 36.8125 47.703125 
L 18.3125 47.703125 
L 18.3125 18.015625 
Q 18.3125 11.328125 20.140625 9.421875 
Q 21.96875 7.515625 27.59375 7.515625 
L 36.8125 7.515625 
L 36.8125 0 
L 27.59375 0 
Q 17.1875 0 13.234375 3.875 
Q 9.28125 7.765625 9.28125 18.015625 
L 9.28125 47.703125 
L 2.6875 47.703125 
L 2.6875 54.6875 
L 9.28125 54.6875 
L 9.28125 70.21875 
z
" id="BitstreamVeraSans-Roman-74"/>
      <path d="M 9.8125 72.90625 
L 51.703125 72.90625 
L 51.703125 64.59375 
L 19.671875 64.59375 
L 19.671875 43.109375 
L 48.578125 43.109375 
L 48.578125 34.8125 
L 19.671875 34.8125 
L 19.671875 0 
L 9.8125 0 
z
" id="BitstreamVeraSans-Roman-46"/>
     </defs>
     <g transform="translate(463.5475 79.96375)scale(0.08 -0.08)">
      <use xlink:href="#BitstreamVeraSans-Roman-4d"/>
      <use x="86.279296875" xlink:href="#BitstreamVeraSans-Roman-4d"/>
      <use x="172.55859375" xlink:href="#BitstreamVeraSans-Roman-20"/>
      <use x="204.345703125" xlink:href="#BitstreamVeraSans-Roman-46"/>
      <use x="261.755859375" xlink:href="#BitstreamVeraSans-Roman-69"/>
      <use x="289.5390625" xlink:href="#BitstreamVeraSans-Roman-74"/>
      <use x="328.748046875" xlink:href="#BitstreamVeraSans-Roman-74"/>
      <use x="367.95703125" xlink:href="#BitstreamVeraSans-Roman-65"/>
      <use x="429.48046875" xlink:href="#BitstreamVeraSans-Roman-64"/>
     </g>
    </g>
   </g>
  </g>
 </g>
 <defs>
  <clipPath id="pd7ce3e34ea">
   <rect height="345.6" width="446.4" x="72.0" y="43.2"/>
  </clipPath>
 </defs>
</svg>
