<?xml version="1.0" encoding="utf-8" standalone="no"?>
<!DOCTYPE svg PUBLIC "-//W3C//DTD SVG 1.1//EN"
  "http://www.w3.org/Graphics/SVG/1.1/DTD/svg11.dtd">
<!-- Created with matplotlib (http://matplotlib.org/) -->
<svg height="432pt" version="1.1" viewBox="0 0 576 432" width="576pt" xmlns="http://www.w3.org/2000/svg" xmlns:xlink="http://www.w3.org/1999/xlink">
 <defs>
  <style type="text/css">
*{stroke-linecap:butt;stroke-linejoin:round;stroke-miterlimit:100000;}
  </style>
 </defs>
 <g id="figure_1">
  <g id="patch_1">
   <path d="M 0 432 
L 576 432 
L 576 0 
L 0 0 
z
" style="fill:#ffffff;"/>
  </g>
  <g id="axes_1">
   <g id="patch_2">
    <path d="M 72 388.8 
L 518.4 388.8 
L 518.4 43.2 
L 72 43.2 
z
" style="fill:#ffffff;"/>
   </g>
   <g id="line2d_1">
    <path clip-path="url(#pb910494bda)" d="M 71.999159 360.925878 
L 84.399997 388.557188 
L 96.799975 384.473018 
L 109.199998 373.378379 
L 121.59998 359.715999 
L 133.999979 327.714115 
L 146.39994 323.726835 
L 158.799961 326.826229 
L 171.199984 354.708123 
L 196.000008 384.583931 
L 208.400018 383.065172 
L 220.800011 360.950571 
L 233.200024 388.335467 
L 245.600006 382.815297 
L 257.999994 372.179757 
L 270.40005 358.766199 
L 282.800002 327.274688 
L 295.199994 323.734069 
L 307.600028 327.034853 
L 320.000046 358.63133 
L 344.80003 383.877224 
L 357.200011 387.130272 
L 369.600066 360.890843 
L 382.000039 388.8 
L 406.800032 348.831783 
L 419.199996 358.191076 
L 431.600002 326.922942 
L 443.999982 323.744668 
L 456.399984 327.418914 
L 481.19999 371.646757 
L 493.599985 385.139203 
L 505.999972 388.661588 
" style="fill:none;stroke:#ff0000;stroke-linecap:square;"/>
    <defs>
     <path d="M 0 3 
C 0.795609 3 1.55874 2.683901 2.12132 2.12132 
C 2.683901 1.55874 3 0.795609 3 0 
C 3 -0.795609 2.683901 -1.55874 2.12132 -2.12132 
C 1.55874 -2.683901 0.795609 -3 0 -3 
C -0.795609 -3 -1.55874 -2.683901 -2.12132 -2.12132 
C -2.683901 -1.55874 -3 -0.795609 -3 0 
C -3 0.795609 -2.683901 1.55874 -2.12132 2.12132 
C -1.55874 2.683901 -0.795609 3 0 3 
z
" id="m58196e894f" style="stroke:#000000;stroke-width:0.5;"/>
    </defs>
    <g clip-path="url(#pb910494bda)">
     <use style="fill:#ff0000;stroke:#000000;stroke-width:0.5;" x="71.9991589024" xlink:href="#m58196e894f" y="360.925877704"/>
     <use style="fill:#ff0000;stroke:#000000;stroke-width:0.5;" x="84.3999968542" xlink:href="#m58196e894f" y="388.557187765"/>
     <use style="fill:#ff0000;stroke:#000000;stroke-width:0.5;" x="96.7999753133" xlink:href="#m58196e894f" y="384.473018348"/>
     <use style="fill:#ff0000;stroke:#000000;stroke-width:0.5;" x="109.199998212" xlink:href="#m58196e894f" y="373.378378784"/>
     <use style="fill:#ff0000;stroke:#000000;stroke-width:0.5;" x="121.599979643" xlink:href="#m58196e894f" y="359.715999494"/>
     <use style="fill:#ff0000;stroke:#000000;stroke-width:0.5;" x="133.999978739" xlink:href="#m58196e894f" y="327.714115087"/>
     <use style="fill:#ff0000;stroke:#000000;stroke-width:0.5;" x="146.399939871" xlink:href="#m58196e894f" y="323.726835367"/>
     <use style="fill:#ff0000;stroke:#000000;stroke-width:0.5;" x="158.79996137" xlink:href="#m58196e894f" y="326.82622855"/>
     <use style="fill:#ff0000;stroke:#000000;stroke-width:0.5;" x="171.199984354" xlink:href="#m58196e894f" y="354.708122772"/>
     <use style="fill:#ff0000;stroke:#000000;stroke-width:0.5;" x="196.000007776" xlink:href="#m58196e894f" y="384.583931497"/>
     <use style="fill:#ff0000;stroke:#000000;stroke-width:0.5;" x="208.400018426" xlink:href="#m58196e894f" y="383.065171772"/>
     <use style="fill:#ff0000;stroke:#000000;stroke-width:0.5;" x="220.800010649" xlink:href="#m58196e894f" y="360.950570632"/>
     <use style="fill:#ff0000;stroke:#000000;stroke-width:0.5;" x="233.200023982" xlink:href="#m58196e894f" y="388.335466544"/>
     <use style="fill:#ff0000;stroke:#000000;stroke-width:0.5;" x="245.600005613" xlink:href="#m58196e894f" y="382.815297272"/>
     <use style="fill:#ff0000;stroke:#000000;stroke-width:0.5;" x="257.999994467" xlink:href="#m58196e894f" y="372.17975747"/>
     <use style="fill:#ff0000;stroke:#000000;stroke-width:0.5;" x="270.400049795" xlink:href="#m58196e894f" y="358.76619878"/>
     <use style="fill:#ff0000;stroke:#000000;stroke-width:0.5;" x="282.800001626" xlink:href="#m58196e894f" y="327.274688105"/>
     <use style="fill:#ff0000;stroke:#000000;stroke-width:0.5;" x="295.199994297" xlink:href="#m58196e894f" y="323.734068765"/>
     <use style="fill:#ff0000;stroke:#000000;stroke-width:0.5;" x="307.600027744" xlink:href="#m58196e894f" y="327.034853365"/>
     <use style="fill:#ff0000;stroke:#000000;stroke-width:0.5;" x="320.000046388" xlink:href="#m58196e894f" y="358.6313297"/>
     <use style="fill:#ff0000;stroke:#000000;stroke-width:0.5;" x="344.800030136" xlink:href="#m58196e894f" y="383.877224289"/>
     <use style="fill:#ff0000;stroke:#000000;stroke-width:0.5;" x="357.200011178" xlink:href="#m58196e894f" y="387.130272099"/>
     <use style="fill:#ff0000;stroke:#000000;stroke-width:0.5;" x="369.600065966" xlink:href="#m58196e894f" y="360.890843084"/>
     <use style="fill:#ff0000;stroke:#000000;stroke-width:0.5;" x="382.000039089" xlink:href="#m58196e894f" y="388.8"/>
     <use style="fill:#ff0000;stroke:#000000;stroke-width:0.5;" x="406.800031562" xlink:href="#m58196e894f" y="348.831783158"/>
     <use style="fill:#ff0000;stroke:#000000;stroke-width:0.5;" x="419.199996158" xlink:href="#m58196e894f" y="358.19107591"/>
     <use style="fill:#ff0000;stroke:#000000;stroke-width:0.5;" x="431.600001684" xlink:href="#m58196e894f" y="326.922941807"/>
     <use style="fill:#ff0000;stroke:#000000;stroke-width:0.5;" x="443.999981552" xlink:href="#m58196e894f" y="323.744667866"/>
     <use style="fill:#ff0000;stroke:#000000;stroke-width:0.5;" x="456.399983936" xlink:href="#m58196e894f" y="327.418914398"/>
     <use style="fill:#ff0000;stroke:#000000;stroke-width:0.5;" x="481.199990195" xlink:href="#m58196e894f" y="371.646757083"/>
     <use style="fill:#ff0000;stroke:#000000;stroke-width:0.5;" x="493.599984584" xlink:href="#m58196e894f" y="385.139202742"/>
     <use style="fill:#ff0000;stroke:#000000;stroke-width:0.5;" x="505.999971849" xlink:href="#m58196e894f" y="388.661588183"/>
    </g>
   </g>
   <g id="line2d_2">
    <path clip-path="url(#pb910494bda)" d="M 71.999159 388.298502 
L 84.399997 138.237459 
L 96.799975 126.802004 
L 109.199998 72.883371 
L 121.59998 46.611825 
L 133.999979 242.62168 
L 146.39994 242.870435 
L 158.799961 244.47087 
L 171.199984 136.790449 
L 196.000008 96.294762 
L 208.400018 190.733822 
L 220.800011 388.8 
L 233.200024 144.831614 
L 245.600006 141.694036 
L 257.999994 81.334216 
L 270.40005 47.504223 
L 282.800002 242.571566 
L 295.199994 243.398812 
L 307.600028 244.199623 
L 320.000046 59.454258 
L 344.80003 121.103394 
L 357.200011 169.749532 
L 369.600066 388.000065 
L 382.000039 129.111097 
L 406.800032 283.806134 
L 419.199996 71.987546 
L 431.600002 244.847216 
L 443.999982 242.44617 
L 456.399984 244.792281 
L 481.19999 127.457789 
L 493.599985 95.603029 
L 505.999972 134.934789 
" style="fill:none;stroke:#0000ff;stroke-linecap:square;"/>
    <defs>
     <path d="M 0 3 
C 0.795609 3 1.55874 2.683901 2.12132 2.12132 
C 2.683901 1.55874 3 0.795609 3 0 
C 3 -0.795609 2.683901 -1.55874 2.12132 -2.12132 
C 1.55874 -2.683901 0.795609 -3 0 -3 
C -0.795609 -3 -1.55874 -2.683901 -2.12132 -2.12132 
C -2.683901 -1.55874 -3 -0.795609 -3 0 
C -3 0.795609 -2.683901 1.55874 -2.12132 2.12132 
C -1.55874 2.683901 -0.795609 3 0 3 
z
" id="m0510f4906a" style="stroke:#000000;stroke-width:0.5;"/>
    </defs>
    <g clip-path="url(#pb910494bda)">
     <use style="fill:#0000ff;stroke:#000000;stroke-width:0.5;" x="71.9991589024" xlink:href="#m0510f4906a" y="388.29850195"/>
     <use style="fill:#0000ff;stroke:#000000;stroke-width:0.5;" x="84.3999968542" xlink:href="#m0510f4906a" y="138.237458578"/>
     <use style="fill:#0000ff;stroke:#000000;stroke-width:0.5;" x="96.7999753133" xlink:href="#m0510f4906a" y="126.802003597"/>
     <use style="fill:#0000ff;stroke:#000000;stroke-width:0.5;" x="109.199998212" xlink:href="#m0510f4906a" y="72.8833712208"/>
     <use style="fill:#0000ff;stroke:#000000;stroke-width:0.5;" x="121.599979643" xlink:href="#m0510f4906a" y="46.6118253292"/>
     <use style="fill:#0000ff;stroke:#000000;stroke-width:0.5;" x="133.999978739" xlink:href="#m0510f4906a" y="242.621679667"/>
     <use style="fill:#0000ff;stroke:#000000;stroke-width:0.5;" x="146.399939871" xlink:href="#m0510f4906a" y="242.870435453"/>
     <use style="fill:#0000ff;stroke:#000000;stroke-width:0.5;" x="158.79996137" xlink:href="#m0510f4906a" y="244.470869505"/>
     <use style="fill:#0000ff;stroke:#000000;stroke-width:0.5;" x="171.199984354" xlink:href="#m0510f4906a" y="136.790449475"/>
     <use style="fill:#0000ff;stroke:#000000;stroke-width:0.5;" x="196.000007776" xlink:href="#m0510f4906a" y="96.2947617274"/>
     <use style="fill:#0000ff;stroke:#000000;stroke-width:0.5;" x="208.400018426" xlink:href="#m0510f4906a" y="190.733821602"/>
     <use style="fill:#0000ff;stroke:#000000;stroke-width:0.5;" x="220.800010649" xlink:href="#m0510f4906a" y="388.8"/>
     <use style="fill:#0000ff;stroke:#000000;stroke-width:0.5;" x="233.200023982" xlink:href="#m0510f4906a" y="144.831613901"/>
     <use style="fill:#0000ff;stroke:#000000;stroke-width:0.5;" x="245.600005613" xlink:href="#m0510f4906a" y="141.694036489"/>
     <use style="fill:#0000ff;stroke:#000000;stroke-width:0.5;" x="257.999994467" xlink:href="#m0510f4906a" y="81.3342158648"/>
     <use style="fill:#0000ff;stroke:#000000;stroke-width:0.5;" x="270.400049795" xlink:href="#m0510f4906a" y="47.5042232416"/>
     <use style="fill:#0000ff;stroke:#000000;stroke-width:0.5;" x="282.800001626" xlink:href="#m0510f4906a" y="242.571566352"/>
     <use style="fill:#0000ff;stroke:#000000;stroke-width:0.5;" x="295.199994297" xlink:href="#m0510f4906a" y="243.398811532"/>
     <use style="fill:#0000ff;stroke:#000000;stroke-width:0.5;" x="307.600027744" xlink:href="#m0510f4906a" y="244.199623139"/>
     <use style="fill:#0000ff;stroke:#000000;stroke-width:0.5;" x="320.000046388" xlink:href="#m0510f4906a" y="59.4542584959"/>
     <use style="fill:#0000ff;stroke:#000000;stroke-width:0.5;" x="344.800030136" xlink:href="#m0510f4906a" y="121.103393915"/>
     <use style="fill:#0000ff;stroke:#000000;stroke-width:0.5;" x="357.200011178" xlink:href="#m0510f4906a" y="169.74953168"/>
     <use style="fill:#0000ff;stroke:#000000;stroke-width:0.5;" x="369.600065966" xlink:href="#m0510f4906a" y="388.000064952"/>
     <use style="fill:#0000ff;stroke:#000000;stroke-width:0.5;" x="382.000039089" xlink:href="#m0510f4906a" y="129.111097143"/>
     <use style="fill:#0000ff;stroke:#000000;stroke-width:0.5;" x="406.800031562" xlink:href="#m0510f4906a" y="283.806133563"/>
     <use style="fill:#0000ff;stroke:#000000;stroke-width:0.5;" x="419.199996158" xlink:href="#m0510f4906a" y="71.9875457534"/>
     <use style="fill:#0000ff;stroke:#000000;stroke-width:0.5;" x="431.600001684" xlink:href="#m0510f4906a" y="244.847216051"/>
     <use style="fill:#0000ff;stroke:#000000;stroke-width:0.5;" x="443.999981552" xlink:href="#m0510f4906a" y="242.446169686"/>
     <use style="fill:#0000ff;stroke:#000000;stroke-width:0.5;" x="456.399983936" xlink:href="#m0510f4906a" y="244.792281371"/>
     <use style="fill:#0000ff;stroke:#000000;stroke-width:0.5;" x="481.199990195" xlink:href="#m0510f4906a" y="127.457788877"/>
     <use style="fill:#0000ff;stroke:#000000;stroke-width:0.5;" x="493.599984584" xlink:href="#m0510f4906a" y="95.6030292951"/>
     <use style="fill:#0000ff;stroke:#000000;stroke-width:0.5;" x="505.999971849" xlink:href="#m0510f4906a" y="134.934789084"/>
    </g>
   </g>
   <g id="line2d_3">
    <path clip-path="url(#pb910494bda)" d="M 71.999159 388.370008 
L 84.399997 137.293948 
L 96.799975 125.937471 
L 109.199998 71.958434 
L 121.59998 45.60318 
L 133.999979 242.298292 
L 146.39994 242.672945 
L 158.799961 244.207063 
L 171.199984 136.196672 
L 196.000008 95.397192 
L 208.400018 189.922394 
L 220.800011 388.8 
L 233.200024 143.922396 
L 245.600006 140.86738 
L 257.999994 80.405416 
L 270.40005 46.476407 
L 282.800002 242.263406 
L 295.199994 243.149456 
L 307.600028 243.891282 
L 320.000046 58.48465 
L 344.80003 120.203348 
L 357.200011 168.930352 
L 369.600066 388.052605 
L 382.000039 128.130441 
L 406.800032 283.775901 
L 419.199996 71.163392 
L 431.600002 244.577365 
L 443.999982 242.12386 
L 456.399984 244.477361 
L 481.19999 126.690352 
L 493.599985 94.651129 
L 505.999972 133.988354 
" style="fill:none;stroke:#000000;stroke-linecap:square;"/>
    <defs>
     <path d="M -3 3 
L 3 -3 
M -3 -3 
L 3 3 
" id="mbe32f88b69" style="stroke:#000000;stroke-width:0.5;"/>
    </defs>
    <g clip-path="url(#pb910494bda)">
     <use style="stroke:#000000;stroke-width:0.5;" x="71.9991589024" xlink:href="#mbe32f88b69" y="388.370007757"/>
     <use style="stroke:#000000;stroke-width:0.5;" x="84.3999968542" xlink:href="#mbe32f88b69" y="137.293947588"/>
     <use style="stroke:#000000;stroke-width:0.5;" x="96.7999753133" xlink:href="#mbe32f88b69" y="125.937471174"/>
     <use style="stroke:#000000;stroke-width:0.5;" x="109.199998212" xlink:href="#mbe32f88b69" y="71.9584339163"/>
     <use style="stroke:#000000;stroke-width:0.5;" x="121.599979643" xlink:href="#mbe32f88b69" y="45.6031802674"/>
     <use style="stroke:#000000;stroke-width:0.5;" x="133.999978739" xlink:href="#mbe32f88b69" y="242.298292175"/>
     <use style="stroke:#000000;stroke-width:0.5;" x="146.399939871" xlink:href="#mbe32f88b69" y="242.672944981"/>
     <use style="stroke:#000000;stroke-width:0.5;" x="158.79996137" xlink:href="#mbe32f88b69" y="244.207062912"/>
     <use style="stroke:#000000;stroke-width:0.5;" x="171.199984354" xlink:href="#mbe32f88b69" y="136.196671785"/>
     <use style="stroke:#000000;stroke-width:0.5;" x="196.000007776" xlink:href="#mbe32f88b69" y="95.3971915384"/>
     <use style="stroke:#000000;stroke-width:0.5;" x="208.400018426" xlink:href="#mbe32f88b69" y="189.922394072"/>
     <use style="stroke:#000000;stroke-width:0.5;" x="220.800010649" xlink:href="#mbe32f88b69" y="388.8"/>
     <use style="stroke:#000000;stroke-width:0.5;" x="233.200023982" xlink:href="#mbe32f88b69" y="143.922396261"/>
     <use style="stroke:#000000;stroke-width:0.5;" x="245.600005613" xlink:href="#mbe32f88b69" y="140.867379989"/>
     <use style="stroke:#000000;stroke-width:0.5;" x="257.999994467" xlink:href="#mbe32f88b69" y="80.4054158902"/>
     <use style="stroke:#000000;stroke-width:0.5;" x="270.400049795" xlink:href="#mbe32f88b69" y="46.4764074437"/>
     <use style="stroke:#000000;stroke-width:0.5;" x="282.800001626" xlink:href="#mbe32f88b69" y="242.263406431"/>
     <use style="stroke:#000000;stroke-width:0.5;" x="295.199994297" xlink:href="#mbe32f88b69" y="243.149455747"/>
     <use style="stroke:#000000;stroke-width:0.5;" x="307.600027744" xlink:href="#mbe32f88b69" y="243.891281976"/>
     <use style="stroke:#000000;stroke-width:0.5;" x="320.000046388" xlink:href="#mbe32f88b69" y="58.4846498781"/>
     <use style="stroke:#000000;stroke-width:0.5;" x="344.800030136" xlink:href="#mbe32f88b69" y="120.203347679"/>
     <use style="stroke:#000000;stroke-width:0.5;" x="357.200011178" xlink:href="#mbe32f88b69" y="168.930351895"/>
     <use style="stroke:#000000;stroke-width:0.5;" x="369.600065966" xlink:href="#mbe32f88b69" y="388.052605413"/>
     <use style="stroke:#000000;stroke-width:0.5;" x="382.000039089" xlink:href="#mbe32f88b69" y="128.130441274"/>
     <use style="stroke:#000000;stroke-width:0.5;" x="406.800031562" xlink:href="#mbe32f88b69" y="283.775901204"/>
     <use style="stroke:#000000;stroke-width:0.5;" x="419.199996158" xlink:href="#mbe32f88b69" y="71.163392133"/>
     <use style="stroke:#000000;stroke-width:0.5;" x="431.600001684" xlink:href="#mbe32f88b69" y="244.577364642"/>
     <use style="stroke:#000000;stroke-width:0.5;" x="443.999981552" xlink:href="#mbe32f88b69" y="242.123860195"/>
     <use style="stroke:#000000;stroke-width:0.5;" x="456.399983936" xlink:href="#mbe32f88b69" y="244.477360754"/>
     <use style="stroke:#000000;stroke-width:0.5;" x="481.199990195" xlink:href="#mbe32f88b69" y="126.690352052"/>
     <use style="stroke:#000000;stroke-width:0.5;" x="493.599984584" xlink:href="#mbe32f88b69" y="94.6511293115"/>
     <use style="stroke:#000000;stroke-width:0.5;" x="505.999971849" xlink:href="#mbe32f88b69" y="133.98835375"/>
    </g>
   </g>
   <g id="line2d_4">
    <path clip-path="url(#pb910494bda)" d="M 71.999159 47.243051 
L 84.399997 325.950421 
L 96.799975 333.222728 
L 109.199998 376.107126 
L 121.59998 388.8 
L 133.999979 160.103004 
L 146.39994 155.741071 
L 158.799961 157.306346 
L 171.199984 293.198632 
L 196.000008 363.873921 
L 208.400018 267.829958 
L 220.800011 46.837751 
L 233.200024 319.100251 
L 245.600006 316.635098 
L 257.999994 366.461522 
L 270.40005 386.976972 
L 282.800002 159.698462 
L 295.199994 155.271794 
L 307.600028 157.830752 
L 320.000046 374.833861 
L 344.80003 338.361057 
L 357.200011 292.887101 
L 369.600066 47.525418 
L 382.000039 335.356739 
L 406.800032 139.743063 
L 419.199996 361.714865 
L 431.600002 157.032758 
L 443.999982 156.307988 
L 456.399984 157.628734 
L 481.19999 319.643586 
L 493.599985 365.175254 
L 505.999972 329.360415 
" style="fill:none;stroke:#ff00ff;stroke-linecap:square;"/>
    <defs>
     <path d="M -3 3 
L 3 -3 
M -3 -3 
L 3 3 
" id="mf5cad281c1" style="stroke:#ff00ff;stroke-width:0.5;"/>
    </defs>
    <g clip-path="url(#pb910494bda)">
     <use style="fill:#ff00ff;stroke:#ff00ff;stroke-width:0.5;" x="71.9991589024" xlink:href="#mf5cad281c1" y="47.2430507215"/>
     <use style="fill:#ff00ff;stroke:#ff00ff;stroke-width:0.5;" x="84.3999968542" xlink:href="#mf5cad281c1" y="325.950420951"/>
     <use style="fill:#ff00ff;stroke:#ff00ff;stroke-width:0.5;" x="96.7999753133" xlink:href="#mf5cad281c1" y="333.222727949"/>
     <use style="fill:#ff00ff;stroke:#ff00ff;stroke-width:0.5;" x="109.199998212" xlink:href="#mf5cad281c1" y="376.107125642"/>
     <use style="fill:#ff00ff;stroke:#ff00ff;stroke-width:0.5;" x="121.599979643" xlink:href="#mf5cad281c1" y="388.8"/>
     <use style="fill:#ff00ff;stroke:#ff00ff;stroke-width:0.5;" x="133.999978739" xlink:href="#mf5cad281c1" y="160.103003686"/>
     <use style="fill:#ff00ff;stroke:#ff00ff;stroke-width:0.5;" x="146.399939871" xlink:href="#mf5cad281c1" y="155.74107116"/>
     <use style="fill:#ff00ff;stroke:#ff00ff;stroke-width:0.5;" x="158.79996137" xlink:href="#mf5cad281c1" y="157.306346411"/>
     <use style="fill:#ff00ff;stroke:#ff00ff;stroke-width:0.5;" x="171.199984354" xlink:href="#mf5cad281c1" y="293.198631761"/>
     <use style="fill:#ff00ff;stroke:#ff00ff;stroke-width:0.5;" x="196.000007776" xlink:href="#mf5cad281c1" y="363.873920732"/>
     <use style="fill:#ff00ff;stroke:#ff00ff;stroke-width:0.5;" x="208.400018426" xlink:href="#mf5cad281c1" y="267.829958474"/>
     <use style="fill:#ff00ff;stroke:#ff00ff;stroke-width:0.5;" x="220.800010649" xlink:href="#mf5cad281c1" y="46.8377514058"/>
     <use style="fill:#ff00ff;stroke:#ff00ff;stroke-width:0.5;" x="233.200023982" xlink:href="#mf5cad281c1" y="319.100251057"/>
     <use style="fill:#ff00ff;stroke:#ff00ff;stroke-width:0.5;" x="245.600005613" xlink:href="#mf5cad281c1" y="316.635098057"/>
     <use style="fill:#ff00ff;stroke:#ff00ff;stroke-width:0.5;" x="257.999994467" xlink:href="#mf5cad281c1" y="366.461522353"/>
     <use style="fill:#ff00ff;stroke:#ff00ff;stroke-width:0.5;" x="270.400049795" xlink:href="#mf5cad281c1" y="386.97697211"/>
     <use style="fill:#ff00ff;stroke:#ff00ff;stroke-width:0.5;" x="282.800001626" xlink:href="#mf5cad281c1" y="159.698462448"/>
     <use style="fill:#ff00ff;stroke:#ff00ff;stroke-width:0.5;" x="295.199994297" xlink:href="#mf5cad281c1" y="155.271793791"/>
     <use style="fill:#ff00ff;stroke:#ff00ff;stroke-width:0.5;" x="307.600027744" xlink:href="#mf5cad281c1" y="157.830752164"/>
     <use style="fill:#ff00ff;stroke:#ff00ff;stroke-width:0.5;" x="320.000046388" xlink:href="#mf5cad281c1" y="374.833860595"/>
     <use style="fill:#ff00ff;stroke:#ff00ff;stroke-width:0.5;" x="344.800030136" xlink:href="#mf5cad281c1" y="338.361057384"/>
     <use style="fill:#ff00ff;stroke:#ff00ff;stroke-width:0.5;" x="357.200011178" xlink:href="#mf5cad281c1" y="292.887100977"/>
     <use style="fill:#ff00ff;stroke:#ff00ff;stroke-width:0.5;" x="369.600065966" xlink:href="#mf5cad281c1" y="47.5254184451"/>
     <use style="fill:#ff00ff;stroke:#ff00ff;stroke-width:0.5;" x="382.000039089" xlink:href="#mf5cad281c1" y="335.3567395"/>
     <use style="fill:#ff00ff;stroke:#ff00ff;stroke-width:0.5;" x="406.800031562" xlink:href="#mf5cad281c1" y="139.743062728"/>
     <use style="fill:#ff00ff;stroke:#ff00ff;stroke-width:0.5;" x="419.199996158" xlink:href="#mf5cad281c1" y="361.714864551"/>
     <use style="fill:#ff00ff;stroke:#ff00ff;stroke-width:0.5;" x="431.600001684" xlink:href="#mf5cad281c1" y="157.032757938"/>
     <use style="fill:#ff00ff;stroke:#ff00ff;stroke-width:0.5;" x="443.999981552" xlink:href="#mf5cad281c1" y="156.307988445"/>
     <use style="fill:#ff00ff;stroke:#ff00ff;stroke-width:0.5;" x="456.399983936" xlink:href="#mf5cad281c1" y="157.628734418"/>
     <use style="fill:#ff00ff;stroke:#ff00ff;stroke-width:0.5;" x="481.199990195" xlink:href="#mf5cad281c1" y="319.643585805"/>
     <use style="fill:#ff00ff;stroke:#ff00ff;stroke-width:0.5;" x="493.599984584" xlink:href="#mf5cad281c1" y="365.175254204"/>
     <use style="fill:#ff00ff;stroke:#ff00ff;stroke-width:0.5;" x="505.999971849" xlink:href="#mf5cad281c1" y="329.360415207"/>
    </g>
   </g>
   <g id="line2d_5">
    <path clip-path="url(#pb910494bda)" d="M 71.999159 317.573419 
L 84.399997 213.130048 
L 96.799975 356.69673 
L 109.199998 276.012412 
L 121.59998 137.432925 
L 133.999979 232.030224 
L 146.39994 241.232114 
L 158.799961 272.464819 
L 171.199984 213.09904 
L 196.000008 268.043721 
L 208.400018 310.345343 
L 220.800011 315.791987 
L 233.200024 243.978773 
L 245.600006 354.049421 
L 257.999994 302.005433 
L 270.40005 207.004894 
L 282.800002 276.760971 
L 295.199994 235.287294 
L 307.600028 279.837357 
L 320.000046 219.490489 
L 344.80003 329.390822 
L 357.200011 270.863645 
L 369.600066 314.92543 
L 382.000039 216.375909 
L 406.800032 388.8 
L 419.199996 157.575121 
L 431.600002 272.621221 
L 443.999982 232.008179 
L 456.399984 238.202878 
L 481.19999 332.932228 
L 493.599985 318.507533 
L 505.999972 208.293976 
" style="fill:none;stroke:#008000;stroke-linecap:square;"/>
    <defs>
     <path d="M 0 3 
C 0.795609 3 1.55874 2.683901 2.12132 2.12132 
C 2.683901 1.55874 3 0.795609 3 0 
C 3 -0.795609 2.683901 -1.55874 2.12132 -2.12132 
C 1.55874 -2.683901 0.795609 -3 0 -3 
C -0.795609 -3 -1.55874 -2.683901 -2.12132 -2.12132 
C -2.683901 -1.55874 -3 -0.795609 -3 0 
C -3 0.795609 -2.683901 1.55874 -2.12132 2.12132 
C -1.55874 2.683901 -0.795609 3 0 3 
z
" id="m1fb9bc9e98" style="stroke:#000000;stroke-width:0.5;"/>
    </defs>
    <g clip-path="url(#pb910494bda)">
     <use style="fill:#008000;stroke:#000000;stroke-width:0.5;" x="71.9991589024" xlink:href="#m1fb9bc9e98" y="317.573418504"/>
     <use style="fill:#008000;stroke:#000000;stroke-width:0.5;" x="84.3999968542" xlink:href="#m1fb9bc9e98" y="213.130048273"/>
     <use style="fill:#008000;stroke:#000000;stroke-width:0.5;" x="96.7999753133" xlink:href="#m1fb9bc9e98" y="356.696730471"/>
     <use style="fill:#008000;stroke:#000000;stroke-width:0.5;" x="109.199998212" xlink:href="#m1fb9bc9e98" y="276.012412467"/>
     <use style="fill:#008000;stroke:#000000;stroke-width:0.5;" x="121.599979643" xlink:href="#m1fb9bc9e98" y="137.432924772"/>
     <use style="fill:#008000;stroke:#000000;stroke-width:0.5;" x="133.999978739" xlink:href="#m1fb9bc9e98" y="232.030223934"/>
     <use style="fill:#008000;stroke:#000000;stroke-width:0.5;" x="146.399939871" xlink:href="#m1fb9bc9e98" y="241.232114195"/>
     <use style="fill:#008000;stroke:#000000;stroke-width:0.5;" x="158.79996137" xlink:href="#m1fb9bc9e98" y="272.464819009"/>
     <use style="fill:#008000;stroke:#000000;stroke-width:0.5;" x="171.199984354" xlink:href="#m1fb9bc9e98" y="213.09904034"/>
     <use style="fill:#008000;stroke:#000000;stroke-width:0.5;" x="196.000007776" xlink:href="#m1fb9bc9e98" y="268.043720678"/>
     <use style="fill:#008000;stroke:#000000;stroke-width:0.5;" x="208.400018426" xlink:href="#m1fb9bc9e98" y="310.345343149"/>
     <use style="fill:#008000;stroke:#000000;stroke-width:0.5;" x="220.800010649" xlink:href="#m1fb9bc9e98" y="315.791987459"/>
     <use style="fill:#008000;stroke:#000000;stroke-width:0.5;" x="233.200023982" xlink:href="#m1fb9bc9e98" y="243.978772863"/>
     <use style="fill:#008000;stroke:#000000;stroke-width:0.5;" x="245.600005613" xlink:href="#m1fb9bc9e98" y="354.049421347"/>
     <use style="fill:#008000;stroke:#000000;stroke-width:0.5;" x="257.999994467" xlink:href="#m1fb9bc9e98" y="302.005433263"/>
     <use style="fill:#008000;stroke:#000000;stroke-width:0.5;" x="270.400049795" xlink:href="#m1fb9bc9e98" y="207.004893649"/>
     <use style="fill:#008000;stroke:#000000;stroke-width:0.5;" x="282.800001626" xlink:href="#m1fb9bc9e98" y="276.760971105"/>
     <use style="fill:#008000;stroke:#000000;stroke-width:0.5;" x="295.199994297" xlink:href="#m1fb9bc9e98" y="235.287294466"/>
     <use style="fill:#008000;stroke:#000000;stroke-width:0.5;" x="307.600027744" xlink:href="#m1fb9bc9e98" y="279.837356822"/>
     <use style="fill:#008000;stroke:#000000;stroke-width:0.5;" x="320.000046388" xlink:href="#m1fb9bc9e98" y="219.490488839"/>
     <use style="fill:#008000;stroke:#000000;stroke-width:0.5;" x="344.800030136" xlink:href="#m1fb9bc9e98" y="329.390822469"/>
     <use style="fill:#008000;stroke:#000000;stroke-width:0.5;" x="357.200011178" xlink:href="#m1fb9bc9e98" y="270.863644728"/>
     <use style="fill:#008000;stroke:#000000;stroke-width:0.5;" x="369.600065966" xlink:href="#m1fb9bc9e98" y="314.925429587"/>
     <use style="fill:#008000;stroke:#000000;stroke-width:0.5;" x="382.000039089" xlink:href="#m1fb9bc9e98" y="216.375908609"/>
     <use style="fill:#008000;stroke:#000000;stroke-width:0.5;" x="406.800031562" xlink:href="#m1fb9bc9e98" y="388.8"/>
     <use style="fill:#008000;stroke:#000000;stroke-width:0.5;" x="419.199996158" xlink:href="#m1fb9bc9e98" y="157.575120847"/>
     <use style="fill:#008000;stroke:#000000;stroke-width:0.5;" x="431.600001684" xlink:href="#m1fb9bc9e98" y="272.621221263"/>
     <use style="fill:#008000;stroke:#000000;stroke-width:0.5;" x="443.999981552" xlink:href="#m1fb9bc9e98" y="232.008179386"/>
     <use style="fill:#008000;stroke:#000000;stroke-width:0.5;" x="456.399983936" xlink:href="#m1fb9bc9e98" y="238.202878118"/>
     <use style="fill:#008000;stroke:#000000;stroke-width:0.5;" x="481.199990195" xlink:href="#m1fb9bc9e98" y="332.932227741"/>
     <use style="fill:#008000;stroke:#000000;stroke-width:0.5;" x="493.599984584" xlink:href="#m1fb9bc9e98" y="318.507533047"/>
     <use style="fill:#008000;stroke:#000000;stroke-width:0.5;" x="505.999971849" xlink:href="#m1fb9bc9e98" y="208.2939763"/>
    </g>
   </g>
   <g id="patch_3">
    <path d="M 518.4 388.8 
L 518.4 43.2 
" style="fill:none;stroke:#000000;stroke-linecap:square;stroke-linejoin:miter;"/>
   </g>
   <g id="patch_4">
    <path d="M 72 388.8 
L 72 43.2 
" style="fill:none;stroke:#000000;stroke-linecap:square;stroke-linejoin:miter;"/>
   </g>
   <g id="patch_5">
    <path d="M 72 388.8 
L 518.4 388.8 
" style="fill:none;stroke:#000000;stroke-linecap:square;stroke-linejoin:miter;"/>
   </g>
   <g id="patch_6">
    <path d="M 72 43.2 
L 518.4 43.2 
" style="fill:none;stroke:#000000;stroke-linecap:square;stroke-linejoin:miter;"/>
   </g>
   <g id="matplotlib.axis_1">
    <g id="xtick_1">
     <g id="line2d_6">
      <defs>
       <path d="M 0 0 
L 0 -4 
" id="meaf14269bb" style="stroke:#000000;stroke-width:0.5;"/>
      </defs>
      <g>
       <use style="stroke:#000000;stroke-width:0.5;" x="72.0" xlink:href="#meaf14269bb" y="388.8"/>
      </g>
     </g>
     <g id="line2d_7">
      <defs>
       <path d="M 0 0 
L 0 4 
" id="mef83985167" style="stroke:#000000;stroke-width:0.5;"/>
      </defs>
      <g>
       <use style="stroke:#000000;stroke-width:0.5;" x="72.0" xlink:href="#mef83985167" y="43.2"/>
      </g>
     </g>
     <g id="text_1">
      <!-- −180 -->
      <defs>
       <path d="M 31.78125 34.625 
Q 24.75 34.625 20.71875 30.859375 
Q 16.703125 27.09375 16.703125 20.515625 
Q 16.703125 13.921875 20.71875 10.15625 
Q 24.75 6.390625 31.78125 6.390625 
Q 38.8125 6.390625 42.859375 10.171875 
Q 46.921875 13.96875 46.921875 20.515625 
Q 46.921875 27.09375 42.890625 30.859375 
Q 38.875 34.625 31.78125 34.625 
M 21.921875 38.8125 
Q 15.578125 40.375 12.03125 44.71875 
Q 8.5 49.078125 8.5 55.328125 
Q 8.5 64.0625 14.71875 69.140625 
Q 20.953125 74.21875 31.78125 74.21875 
Q 42.671875 74.21875 48.875 69.140625 
Q 55.078125 64.0625 55.078125 55.328125 
Q 55.078125 49.078125 51.53125 44.71875 
Q 48 40.375 41.703125 38.8125 
Q 48.828125 37.15625 52.796875 32.3125 
Q 56.78125 27.484375 56.78125 20.515625 
Q 56.78125 9.90625 50.3125 4.234375 
Q 43.84375 -1.421875 31.78125 -1.421875 
Q 19.734375 -1.421875 13.25 4.234375 
Q 6.78125 9.90625 6.78125 20.515625 
Q 6.78125 27.484375 10.78125 32.3125 
Q 14.796875 37.15625 21.921875 38.8125 
M 18.3125 54.390625 
Q 18.3125 48.734375 21.84375 45.5625 
Q 25.390625 42.390625 31.78125 42.390625 
Q 38.140625 42.390625 41.71875 45.5625 
Q 45.3125 48.734375 45.3125 54.390625 
Q 45.3125 60.0625 41.71875 63.234375 
Q 38.140625 66.40625 31.78125 66.40625 
Q 25.390625 66.40625 21.84375 63.234375 
Q 18.3125 60.0625 18.3125 54.390625 
" id="BitstreamVeraSans-Roman-38"/>
       <path d="M 12.40625 8.296875 
L 28.515625 8.296875 
L 28.515625 63.921875 
L 10.984375 60.40625 
L 10.984375 69.390625 
L 28.421875 72.90625 
L 38.28125 72.90625 
L 38.28125 8.296875 
L 54.390625 8.296875 
L 54.390625 0 
L 12.40625 0 
z
" id="BitstreamVeraSans-Roman-31"/>
       <path d="M 10.59375 35.5 
L 73.1875 35.5 
L 73.1875 27.203125 
L 10.59375 27.203125 
z
" id="BitstreamVeraSans-Roman-2212"/>
       <path d="M 31.78125 66.40625 
Q 24.171875 66.40625 20.328125 58.90625 
Q 16.5 51.421875 16.5 36.375 
Q 16.5 21.390625 20.328125 13.890625 
Q 24.171875 6.390625 31.78125 6.390625 
Q 39.453125 6.390625 43.28125 13.890625 
Q 47.125 21.390625 47.125 36.375 
Q 47.125 51.421875 43.28125 58.90625 
Q 39.453125 66.40625 31.78125 66.40625 
M 31.78125 74.21875 
Q 44.046875 74.21875 50.515625 64.515625 
Q 56.984375 54.828125 56.984375 36.375 
Q 56.984375 17.96875 50.515625 8.265625 
Q 44.046875 -1.421875 31.78125 -1.421875 
Q 19.53125 -1.421875 13.0625 8.265625 
Q 6.59375 17.96875 6.59375 36.375 
Q 6.59375 54.828125 13.0625 64.515625 
Q 19.53125 74.21875 31.78125 74.21875 
" id="BitstreamVeraSans-Roman-30"/>
      </defs>
      <g transform="translate(55.5196875 401.918125)scale(0.12 -0.12)">
       <use xlink:href="#BitstreamVeraSans-Roman-2212"/>
       <use x="83.7890625" xlink:href="#BitstreamVeraSans-Roman-31"/>
       <use x="147.412109375" xlink:href="#BitstreamVeraSans-Roman-38"/>
       <use x="211.03515625" xlink:href="#BitstreamVeraSans-Roman-30"/>
      </g>
     </g>
    </g>
    <g id="xtick_2">
     <g id="line2d_8">
      <g>
       <use style="stroke:#000000;stroke-width:0.5;" x="127.8" xlink:href="#meaf14269bb" y="388.8"/>
      </g>
     </g>
     <g id="line2d_9">
      <g>
       <use style="stroke:#000000;stroke-width:0.5;" x="127.8" xlink:href="#mef83985167" y="43.2"/>
      </g>
     </g>
     <g id="text_2">
      <!-- −135 -->
      <defs>
       <path d="M 40.578125 39.3125 
Q 47.65625 37.796875 51.625 33 
Q 55.609375 28.21875 55.609375 21.1875 
Q 55.609375 10.40625 48.1875 4.484375 
Q 40.765625 -1.421875 27.09375 -1.421875 
Q 22.515625 -1.421875 17.65625 -0.515625 
Q 12.796875 0.390625 7.625 2.203125 
L 7.625 11.71875 
Q 11.71875 9.328125 16.59375 8.109375 
Q 21.484375 6.890625 26.8125 6.890625 
Q 36.078125 6.890625 40.9375 10.546875 
Q 45.796875 14.203125 45.796875 21.1875 
Q 45.796875 27.640625 41.28125 31.265625 
Q 36.765625 34.90625 28.71875 34.90625 
L 20.21875 34.90625 
L 20.21875 43.015625 
L 29.109375 43.015625 
Q 36.375 43.015625 40.234375 45.921875 
Q 44.09375 48.828125 44.09375 54.296875 
Q 44.09375 59.90625 40.109375 62.90625 
Q 36.140625 65.921875 28.71875 65.921875 
Q 24.65625 65.921875 20.015625 65.03125 
Q 15.375 64.15625 9.8125 62.3125 
L 9.8125 71.09375 
Q 15.4375 72.65625 20.34375 73.4375 
Q 25.25 74.21875 29.59375 74.21875 
Q 40.828125 74.21875 47.359375 69.109375 
Q 53.90625 64.015625 53.90625 55.328125 
Q 53.90625 49.265625 50.4375 45.09375 
Q 46.96875 40.921875 40.578125 39.3125 
" id="BitstreamVeraSans-Roman-33"/>
       <path d="M 10.796875 72.90625 
L 49.515625 72.90625 
L 49.515625 64.59375 
L 19.828125 64.59375 
L 19.828125 46.734375 
Q 21.96875 47.46875 24.109375 47.828125 
Q 26.265625 48.1875 28.421875 48.1875 
Q 40.625 48.1875 47.75 41.5 
Q 54.890625 34.8125 54.890625 23.390625 
Q 54.890625 11.625 47.5625 5.09375 
Q 40.234375 -1.421875 26.90625 -1.421875 
Q 22.3125 -1.421875 17.546875 -0.640625 
Q 12.796875 0.140625 7.71875 1.703125 
L 7.71875 11.625 
Q 12.109375 9.234375 16.796875 8.0625 
Q 21.484375 6.890625 26.703125 6.890625 
Q 35.15625 6.890625 40.078125 11.328125 
Q 45.015625 15.765625 45.015625 23.390625 
Q 45.015625 31 40.078125 35.4375 
Q 35.15625 39.890625 26.703125 39.890625 
Q 22.75 39.890625 18.8125 39.015625 
Q 14.890625 38.140625 10.796875 36.28125 
z
" id="BitstreamVeraSans-Roman-35"/>
      </defs>
      <g transform="translate(111.3196875 401.918125)scale(0.12 -0.12)">
       <use xlink:href="#BitstreamVeraSans-Roman-2212"/>
       <use x="83.7890625" xlink:href="#BitstreamVeraSans-Roman-31"/>
       <use x="147.412109375" xlink:href="#BitstreamVeraSans-Roman-33"/>
       <use x="211.03515625" xlink:href="#BitstreamVeraSans-Roman-35"/>
      </g>
     </g>
    </g>
    <g id="xtick_3">
     <g id="line2d_10">
      <g>
       <use style="stroke:#000000;stroke-width:0.5;" x="183.6" xlink:href="#meaf14269bb" y="388.8"/>
      </g>
     </g>
     <g id="line2d_11">
      <g>
       <use style="stroke:#000000;stroke-width:0.5;" x="183.6" xlink:href="#mef83985167" y="43.2"/>
      </g>
     </g>
     <g id="text_3">
      <!-- −90 -->
      <defs>
       <path d="M 10.984375 1.515625 
L 10.984375 10.5 
Q 14.703125 8.734375 18.5 7.8125 
Q 22.3125 6.890625 25.984375 6.890625 
Q 35.75 6.890625 40.890625 13.453125 
Q 46.046875 20.015625 46.78125 33.40625 
Q 43.953125 29.203125 39.59375 26.953125 
Q 35.25 24.703125 29.984375 24.703125 
Q 19.046875 24.703125 12.671875 31.3125 
Q 6.296875 37.9375 6.296875 49.421875 
Q 6.296875 60.640625 12.9375 67.421875 
Q 19.578125 74.21875 30.609375 74.21875 
Q 43.265625 74.21875 49.921875 64.515625 
Q 56.59375 54.828125 56.59375 36.375 
Q 56.59375 19.140625 48.40625 8.859375 
Q 40.234375 -1.421875 26.421875 -1.421875 
Q 22.703125 -1.421875 18.890625 -0.6875 
Q 15.09375 0.046875 10.984375 1.515625 
M 30.609375 32.421875 
Q 37.25 32.421875 41.125 36.953125 
Q 45.015625 41.5 45.015625 49.421875 
Q 45.015625 57.28125 41.125 61.84375 
Q 37.25 66.40625 30.609375 66.40625 
Q 23.96875 66.40625 20.09375 61.84375 
Q 16.21875 57.28125 16.21875 49.421875 
Q 16.21875 41.5 20.09375 36.953125 
Q 23.96875 32.421875 30.609375 32.421875 
" id="BitstreamVeraSans-Roman-39"/>
      </defs>
      <g transform="translate(170.9371875 401.918125)scale(0.12 -0.12)">
       <use xlink:href="#BitstreamVeraSans-Roman-2212"/>
       <use x="83.7890625" xlink:href="#BitstreamVeraSans-Roman-39"/>
       <use x="147.412109375" xlink:href="#BitstreamVeraSans-Roman-30"/>
      </g>
     </g>
    </g>
    <g id="xtick_4">
     <g id="line2d_12">
      <g>
       <use style="stroke:#000000;stroke-width:0.5;" x="239.4" xlink:href="#meaf14269bb" y="388.8"/>
      </g>
     </g>
     <g id="line2d_13">
      <g>
       <use style="stroke:#000000;stroke-width:0.5;" x="239.4" xlink:href="#mef83985167" y="43.2"/>
      </g>
     </g>
     <g id="text_4">
      <!-- −45 -->
      <defs>
       <path d="M 37.796875 64.3125 
L 12.890625 25.390625 
L 37.796875 25.390625 
z
M 35.203125 72.90625 
L 47.609375 72.90625 
L 47.609375 25.390625 
L 58.015625 25.390625 
L 58.015625 17.1875 
L 47.609375 17.1875 
L 47.609375 0 
L 37.796875 0 
L 37.796875 17.1875 
L 4.890625 17.1875 
L 4.890625 26.703125 
z
" id="BitstreamVeraSans-Roman-34"/>
      </defs>
      <g transform="translate(226.7371875 401.918125)scale(0.12 -0.12)">
       <use xlink:href="#BitstreamVeraSans-Roman-2212"/>
       <use x="83.7890625" xlink:href="#BitstreamVeraSans-Roman-34"/>
       <use x="147.412109375" xlink:href="#BitstreamVeraSans-Roman-35"/>
      </g>
     </g>
    </g>
    <g id="xtick_5">
     <g id="line2d_14">
      <g>
       <use style="stroke:#000000;stroke-width:0.5;" x="295.2" xlink:href="#meaf14269bb" y="388.8"/>
      </g>
     </g>
     <g id="line2d_15">
      <g>
       <use style="stroke:#000000;stroke-width:0.5;" x="295.2" xlink:href="#mef83985167" y="43.2"/>
      </g>
     </g>
     <g id="text_5">
      <!-- 0 -->
      <g transform="translate(291.3825 401.918125)scale(0.12 -0.12)">
       <use xlink:href="#BitstreamVeraSans-Roman-30"/>
      </g>
     </g>
    </g>
    <g id="xtick_6">
     <g id="line2d_16">
      <g>
       <use style="stroke:#000000;stroke-width:0.5;" x="351.0" xlink:href="#meaf14269bb" y="388.8"/>
      </g>
     </g>
     <g id="line2d_17">
      <g>
       <use style="stroke:#000000;stroke-width:0.5;" x="351.0" xlink:href="#mef83985167" y="43.2"/>
      </g>
     </g>
     <g id="text_6">
      <!-- 45 -->
      <g transform="translate(343.365 401.918125)scale(0.12 -0.12)">
       <use xlink:href="#BitstreamVeraSans-Roman-34"/>
       <use x="63.623046875" xlink:href="#BitstreamVeraSans-Roman-35"/>
      </g>
     </g>
    </g>
    <g id="xtick_7">
     <g id="line2d_18">
      <g>
       <use style="stroke:#000000;stroke-width:0.5;" x="406.8" xlink:href="#meaf14269bb" y="388.8"/>
      </g>
     </g>
     <g id="line2d_19">
      <g>
       <use style="stroke:#000000;stroke-width:0.5;" x="406.8" xlink:href="#mef83985167" y="43.2"/>
      </g>
     </g>
     <g id="text_7">
      <!-- 90 -->
      <g transform="translate(399.165 401.918125)scale(0.12 -0.12)">
       <use xlink:href="#BitstreamVeraSans-Roman-39"/>
       <use x="63.623046875" xlink:href="#BitstreamVeraSans-Roman-30"/>
      </g>
     </g>
    </g>
    <g id="xtick_8">
     <g id="line2d_20">
      <g>
       <use style="stroke:#000000;stroke-width:0.5;" x="462.6" xlink:href="#meaf14269bb" y="388.8"/>
      </g>
     </g>
     <g id="line2d_21">
      <g>
       <use style="stroke:#000000;stroke-width:0.5;" x="462.6" xlink:href="#mef83985167" y="43.2"/>
      </g>
     </g>
     <g id="text_8">
      <!-- 135 -->
      <g transform="translate(451.1475 401.918125)scale(0.12 -0.12)">
       <use xlink:href="#BitstreamVeraSans-Roman-31"/>
       <use x="63.623046875" xlink:href="#BitstreamVeraSans-Roman-33"/>
       <use x="127.24609375" xlink:href="#BitstreamVeraSans-Roman-35"/>
      </g>
     </g>
    </g>
    <g id="xtick_9">
     <g id="line2d_22">
      <g>
       <use style="stroke:#000000;stroke-width:0.5;" x="518.4" xlink:href="#meaf14269bb" y="388.8"/>
      </g>
     </g>
     <g id="line2d_23">
      <g>
       <use style="stroke:#000000;stroke-width:0.5;" x="518.4" xlink:href="#mef83985167" y="43.2"/>
      </g>
     </g>
     <g id="text_9">
      <!-- 180 -->
      <g transform="translate(506.9475 401.918125)scale(0.12 -0.12)">
       <use xlink:href="#BitstreamVeraSans-Roman-31"/>
       <use x="63.623046875" xlink:href="#BitstreamVeraSans-Roman-38"/>
       <use x="127.24609375" xlink:href="#BitstreamVeraSans-Roman-30"/>
      </g>
     </g>
    </g>
    <g id="text_10">
     <!-- Phi -->
     <defs>
      <path d="M 9.421875 54.6875 
L 18.40625 54.6875 
L 18.40625 0 
L 9.421875 0 
z
M 9.421875 75.984375 
L 18.40625 75.984375 
L 18.40625 64.59375 
L 9.421875 64.59375 
z
" id="BitstreamVeraSans-Roman-69"/>
      <path d="M 54.890625 33.015625 
L 54.890625 0 
L 45.90625 0 
L 45.90625 32.71875 
Q 45.90625 40.484375 42.875 44.328125 
Q 39.84375 48.1875 33.796875 48.1875 
Q 26.515625 48.1875 22.3125 43.546875 
Q 18.109375 38.921875 18.109375 30.90625 
L 18.109375 0 
L 9.078125 0 
L 9.078125 75.984375 
L 18.109375 75.984375 
L 18.109375 46.1875 
Q 21.34375 51.125 25.703125 53.5625 
Q 30.078125 56 35.796875 56 
Q 45.21875 56 50.046875 50.171875 
Q 54.890625 44.34375 54.890625 33.015625 
" id="BitstreamVeraSans-Roman-68"/>
      <path d="M 19.671875 64.796875 
L 19.671875 37.40625 
L 32.078125 37.40625 
Q 38.96875 37.40625 42.71875 40.96875 
Q 46.484375 44.53125 46.484375 51.125 
Q 46.484375 57.671875 42.71875 61.234375 
Q 38.96875 64.796875 32.078125 64.796875 
z
M 9.8125 72.90625 
L 32.078125 72.90625 
Q 44.34375 72.90625 50.609375 67.359375 
Q 56.890625 61.8125 56.890625 51.125 
Q 56.890625 40.328125 50.609375 34.8125 
Q 44.34375 29.296875 32.078125 29.296875 
L 19.671875 29.296875 
L 19.671875 0 
L 9.8125 0 
z
" id="BitstreamVeraSans-Roman-50"/>
     </defs>
     <g transform="translate(286.1128125 418.531875)scale(0.12 -0.12)">
      <use xlink:href="#BitstreamVeraSans-Roman-50"/>
      <use x="60.302734375" xlink:href="#BitstreamVeraSans-Roman-68"/>
      <use x="123.681640625" xlink:href="#BitstreamVeraSans-Roman-69"/>
     </g>
    </g>
   </g>
   <g id="matplotlib.axis_2">
    <g id="ytick_1">
     <g id="line2d_24">
      <defs>
       <path d="M 0 0 
L 4 0 
" id="m7c928547d4" style="stroke:#000000;stroke-width:0.5;"/>
      </defs>
      <g>
       <use style="stroke:#000000;stroke-width:0.5;" x="72.0" xlink:href="#m7c928547d4" y="388.8"/>
      </g>
     </g>
     <g id="line2d_25">
      <defs>
       <path d="M 0 0 
L -4 0 
" id="m16e4d2df56" style="stroke:#000000;stroke-width:0.5;"/>
      </defs>
      <g>
       <use style="stroke:#000000;stroke-width:0.5;" x="518.4" xlink:href="#m16e4d2df56" y="388.8"/>
      </g>
     </g>
     <g id="text_11">
      <!-- 0.0 -->
      <defs>
       <path d="M 10.6875 12.40625 
L 21 12.40625 
L 21 0 
L 10.6875 0 
z
" id="BitstreamVeraSans-Roman-2e"/>
      </defs>
      <g transform="translate(48.91625 392.11125)scale(0.12 -0.12)">
       <use xlink:href="#BitstreamVeraSans-Roman-30"/>
       <use x="63.623046875" xlink:href="#BitstreamVeraSans-Roman-2e"/>
       <use x="95.41015625" xlink:href="#BitstreamVeraSans-Roman-30"/>
      </g>
     </g>
    </g>
    <g id="ytick_2">
     <g id="line2d_26">
      <g>
       <use style="stroke:#000000;stroke-width:0.5;" x="72.0" xlink:href="#m7c928547d4" y="331.2"/>
      </g>
     </g>
     <g id="line2d_27">
      <g>
       <use style="stroke:#000000;stroke-width:0.5;" x="518.4" xlink:href="#m16e4d2df56" y="331.2"/>
      </g>
     </g>
     <g id="text_12">
      <!-- 0.2 -->
      <defs>
       <path d="M 19.1875 8.296875 
L 53.609375 8.296875 
L 53.609375 0 
L 7.328125 0 
L 7.328125 8.296875 
Q 12.9375 14.109375 22.625 23.890625 
Q 32.328125 33.6875 34.8125 36.53125 
Q 39.546875 41.84375 41.421875 45.53125 
Q 43.3125 49.21875 43.3125 52.78125 
Q 43.3125 58.59375 39.234375 62.25 
Q 35.15625 65.921875 28.609375 65.921875 
Q 23.96875 65.921875 18.8125 64.3125 
Q 13.671875 62.703125 7.8125 59.421875 
L 7.8125 69.390625 
Q 13.765625 71.78125 18.9375 73 
Q 24.125 74.21875 28.421875 74.21875 
Q 39.75 74.21875 46.484375 68.546875 
Q 53.21875 62.890625 53.21875 53.421875 
Q 53.21875 48.921875 51.53125 44.890625 
Q 49.859375 40.875 45.40625 35.40625 
Q 44.1875 33.984375 37.640625 27.21875 
Q 31.109375 20.453125 19.1875 8.296875 
" id="BitstreamVeraSans-Roman-32"/>
      </defs>
      <g transform="translate(48.91625 334.51125)scale(0.12 -0.12)">
       <use xlink:href="#BitstreamVeraSans-Roman-30"/>
       <use x="63.623046875" xlink:href="#BitstreamVeraSans-Roman-2e"/>
       <use x="95.41015625" xlink:href="#BitstreamVeraSans-Roman-32"/>
      </g>
     </g>
    </g>
    <g id="ytick_3">
     <g id="line2d_28">
      <g>
       <use style="stroke:#000000;stroke-width:0.5;" x="72.0" xlink:href="#m7c928547d4" y="273.6"/>
      </g>
     </g>
     <g id="line2d_29">
      <g>
       <use style="stroke:#000000;stroke-width:0.5;" x="518.4" xlink:href="#m16e4d2df56" y="273.6"/>
      </g>
     </g>
     <g id="text_13">
      <!-- 0.4 -->
      <g transform="translate(48.91625 276.91125)scale(0.12 -0.12)">
       <use xlink:href="#BitstreamVeraSans-Roman-30"/>
       <use x="63.623046875" xlink:href="#BitstreamVeraSans-Roman-2e"/>
       <use x="95.41015625" xlink:href="#BitstreamVeraSans-Roman-34"/>
      </g>
     </g>
    </g>
    <g id="ytick_4">
     <g id="line2d_30">
      <g>
       <use style="stroke:#000000;stroke-width:0.5;" x="72.0" xlink:href="#m7c928547d4" y="216.0"/>
      </g>
     </g>
     <g id="line2d_31">
      <g>
       <use style="stroke:#000000;stroke-width:0.5;" x="518.4" xlink:href="#m16e4d2df56" y="216.0"/>
      </g>
     </g>
     <g id="text_14">
      <!-- 0.6 -->
      <defs>
       <path d="M 33.015625 40.375 
Q 26.375 40.375 22.484375 35.828125 
Q 18.609375 31.296875 18.609375 23.390625 
Q 18.609375 15.53125 22.484375 10.953125 
Q 26.375 6.390625 33.015625 6.390625 
Q 39.65625 6.390625 43.53125 10.953125 
Q 47.40625 15.53125 47.40625 23.390625 
Q 47.40625 31.296875 43.53125 35.828125 
Q 39.65625 40.375 33.015625 40.375 
M 52.59375 71.296875 
L 52.59375 62.3125 
Q 48.875 64.0625 45.09375 64.984375 
Q 41.3125 65.921875 37.59375 65.921875 
Q 27.828125 65.921875 22.671875 59.328125 
Q 17.53125 52.734375 16.796875 39.40625 
Q 19.671875 43.65625 24.015625 45.921875 
Q 28.375 48.1875 33.59375 48.1875 
Q 44.578125 48.1875 50.953125 41.515625 
Q 57.328125 34.859375 57.328125 23.390625 
Q 57.328125 12.15625 50.6875 5.359375 
Q 44.046875 -1.421875 33.015625 -1.421875 
Q 20.359375 -1.421875 13.671875 8.265625 
Q 6.984375 17.96875 6.984375 36.375 
Q 6.984375 53.65625 15.1875 63.9375 
Q 23.390625 74.21875 37.203125 74.21875 
Q 40.921875 74.21875 44.703125 73.484375 
Q 48.484375 72.75 52.59375 71.296875 
" id="BitstreamVeraSans-Roman-36"/>
      </defs>
      <g transform="translate(48.91625 219.31125)scale(0.12 -0.12)">
       <use xlink:href="#BitstreamVeraSans-Roman-30"/>
       <use x="63.623046875" xlink:href="#BitstreamVeraSans-Roman-2e"/>
       <use x="95.41015625" xlink:href="#BitstreamVeraSans-Roman-36"/>
      </g>
     </g>
    </g>
    <g id="ytick_5">
     <g id="line2d_32">
      <g>
       <use style="stroke:#000000;stroke-width:0.5;" x="72.0" xlink:href="#m7c928547d4" y="158.4"/>
      </g>
     </g>
     <g id="line2d_33">
      <g>
       <use style="stroke:#000000;stroke-width:0.5;" x="518.4" xlink:href="#m16e4d2df56" y="158.4"/>
      </g>
     </g>
     <g id="text_15">
      <!-- 0.8 -->
      <g transform="translate(48.91625 161.71125)scale(0.12 -0.12)">
       <use xlink:href="#BitstreamVeraSans-Roman-30"/>
       <use x="63.623046875" xlink:href="#BitstreamVeraSans-Roman-2e"/>
       <use x="95.41015625" xlink:href="#BitstreamVeraSans-Roman-38"/>
      </g>
     </g>
    </g>
    <g id="ytick_6">
     <g id="line2d_34">
      <g>
       <use style="stroke:#000000;stroke-width:0.5;" x="72.0" xlink:href="#m7c928547d4" y="100.8"/>
      </g>
     </g>
     <g id="line2d_35">
      <g>
       <use style="stroke:#000000;stroke-width:0.5;" x="518.4" xlink:href="#m16e4d2df56" y="100.8"/>
      </g>
     </g>
     <g id="text_16">
      <!-- 1.0 -->
      <g transform="translate(48.91625 104.11125)scale(0.12 -0.12)">
       <use xlink:href="#BitstreamVeraSans-Roman-31"/>
       <use x="63.623046875" xlink:href="#BitstreamVeraSans-Roman-2e"/>
       <use x="95.41015625" xlink:href="#BitstreamVeraSans-Roman-30"/>
      </g>
     </g>
    </g>
    <g id="ytick_7">
     <g id="line2d_36">
      <g>
       <use style="stroke:#000000;stroke-width:0.5;" x="72.0" xlink:href="#m7c928547d4" y="43.2"/>
      </g>
     </g>
     <g id="line2d_37">
      <g>
       <use style="stroke:#000000;stroke-width:0.5;" x="518.4" xlink:href="#m16e4d2df56" y="43.2"/>
      </g>
     </g>
     <g id="text_17">
      <!-- 1.2 -->
      <g transform="translate(48.91625 46.51125)scale(0.12 -0.12)">
       <use xlink:href="#BitstreamVeraSans-Roman-31"/>
       <use x="63.623046875" xlink:href="#BitstreamVeraSans-Roman-2e"/>
       <use x="95.41015625" xlink:href="#BitstreamVeraSans-Roman-32"/>
      </g>
     </g>
    </g>
    <g id="text_18">
     <!-- kcal/mol -->
     <defs>
      <path d="M 30.609375 48.390625 
Q 23.390625 48.390625 19.1875 42.75 
Q 14.984375 37.109375 14.984375 27.296875 
Q 14.984375 17.484375 19.15625 11.84375 
Q 23.34375 6.203125 30.609375 6.203125 
Q 37.796875 6.203125 41.984375 11.859375 
Q 46.1875 17.53125 46.1875 27.296875 
Q 46.1875 37.015625 41.984375 42.703125 
Q 37.796875 48.390625 30.609375 48.390625 
M 30.609375 56 
Q 42.328125 56 49.015625 48.375 
Q 55.71875 40.765625 55.71875 27.296875 
Q 55.71875 13.875 49.015625 6.21875 
Q 42.328125 -1.421875 30.609375 -1.421875 
Q 18.84375 -1.421875 12.171875 6.21875 
Q 5.515625 13.875 5.515625 27.296875 
Q 5.515625 40.765625 12.171875 48.375 
Q 18.84375 56 30.609375 56 
" id="BitstreamVeraSans-Roman-6f"/>
      <path d="M 9.078125 75.984375 
L 18.109375 75.984375 
L 18.109375 31.109375 
L 44.921875 54.6875 
L 56.390625 54.6875 
L 27.390625 29.109375 
L 57.625 0 
L 45.90625 0 
L 18.109375 26.703125 
L 18.109375 0 
L 9.078125 0 
z
" id="BitstreamVeraSans-Roman-6b"/>
      <path d="M 25.390625 72.90625 
L 33.6875 72.90625 
L 8.296875 -9.28125 
L 0 -9.28125 
z
" id="BitstreamVeraSans-Roman-2f"/>
      <path d="M 48.78125 52.59375 
L 48.78125 44.1875 
Q 44.96875 46.296875 41.140625 47.34375 
Q 37.3125 48.390625 33.40625 48.390625 
Q 24.65625 48.390625 19.8125 42.84375 
Q 14.984375 37.3125 14.984375 27.296875 
Q 14.984375 17.28125 19.8125 11.734375 
Q 24.65625 6.203125 33.40625 6.203125 
Q 37.3125 6.203125 41.140625 7.25 
Q 44.96875 8.296875 48.78125 10.40625 
L 48.78125 2.09375 
Q 45.015625 0.34375 40.984375 -0.53125 
Q 36.96875 -1.421875 32.421875 -1.421875 
Q 20.0625 -1.421875 12.78125 6.34375 
Q 5.515625 14.109375 5.515625 27.296875 
Q 5.515625 40.671875 12.859375 48.328125 
Q 20.21875 56 33.015625 56 
Q 37.15625 56 41.109375 55.140625 
Q 45.0625 54.296875 48.78125 52.59375 
" id="BitstreamVeraSans-Roman-63"/>
      <path d="M 9.421875 75.984375 
L 18.40625 75.984375 
L 18.40625 0 
L 9.421875 0 
z
" id="BitstreamVeraSans-Roman-6c"/>
      <path d="M 52 44.1875 
Q 55.375 50.25 60.0625 53.125 
Q 64.75 56 71.09375 56 
Q 79.640625 56 84.28125 50.015625 
Q 88.921875 44.046875 88.921875 33.015625 
L 88.921875 0 
L 79.890625 0 
L 79.890625 32.71875 
Q 79.890625 40.578125 77.09375 44.375 
Q 74.3125 48.1875 68.609375 48.1875 
Q 61.625 48.1875 57.5625 43.546875 
Q 53.515625 38.921875 53.515625 30.90625 
L 53.515625 0 
L 44.484375 0 
L 44.484375 32.71875 
Q 44.484375 40.625 41.703125 44.40625 
Q 38.921875 48.1875 33.109375 48.1875 
Q 26.21875 48.1875 22.15625 43.53125 
Q 18.109375 38.875 18.109375 30.90625 
L 18.109375 0 
L 9.078125 0 
L 9.078125 54.6875 
L 18.109375 54.6875 
L 18.109375 46.1875 
Q 21.1875 51.21875 25.484375 53.609375 
Q 29.78125 56 35.6875 56 
Q 41.65625 56 45.828125 52.96875 
Q 50 49.953125 52 44.1875 
" id="BitstreamVeraSans-Roman-6d"/>
      <path d="M 34.28125 27.484375 
Q 23.390625 27.484375 19.1875 25 
Q 14.984375 22.515625 14.984375 16.5 
Q 14.984375 11.71875 18.140625 8.90625 
Q 21.296875 6.109375 26.703125 6.109375 
Q 34.1875 6.109375 38.703125 11.40625 
Q 43.21875 16.703125 43.21875 25.484375 
L 43.21875 27.484375 
z
M 52.203125 31.203125 
L 52.203125 0 
L 43.21875 0 
L 43.21875 8.296875 
Q 40.140625 3.328125 35.546875 0.953125 
Q 30.953125 -1.421875 24.3125 -1.421875 
Q 15.921875 -1.421875 10.953125 3.296875 
Q 6 8.015625 6 15.921875 
Q 6 25.140625 12.171875 29.828125 
Q 18.359375 34.515625 30.609375 34.515625 
L 43.21875 34.515625 
L 43.21875 35.40625 
Q 43.21875 41.609375 39.140625 45 
Q 35.0625 48.390625 27.6875 48.390625 
Q 23 48.390625 18.546875 47.265625 
Q 14.109375 46.140625 10.015625 43.890625 
L 10.015625 52.203125 
Q 14.9375 54.109375 19.578125 55.046875 
Q 24.21875 56 28.609375 56 
Q 40.484375 56 46.34375 49.84375 
Q 52.203125 43.703125 52.203125 31.203125 
" id="BitstreamVeraSans-Roman-61"/>
     </defs>
     <g transform="translate(41.420625 241.3209375)rotate(-90.0)scale(0.12 -0.12)">
      <use xlink:href="#BitstreamVeraSans-Roman-6b"/>
      <use x="57.91015625" xlink:href="#BitstreamVeraSans-Roman-63"/>
      <use x="112.890625" xlink:href="#BitstreamVeraSans-Roman-61"/>
      <use x="174.169921875" xlink:href="#BitstreamVeraSans-Roman-6c"/>
      <use x="201.953125" xlink:href="#BitstreamVeraSans-Roman-2f"/>
      <use x="235.64453125" xlink:href="#BitstreamVeraSans-Roman-6d"/>
      <use x="333.056640625" xlink:href="#BitstreamVeraSans-Roman-6f"/>
      <use x="394.23828125" xlink:href="#BitstreamVeraSans-Roman-6c"/>
     </g>
    </g>
   </g>
   <g id="text_19">
    <!-- C2-N1-C1-H2 -->
    <defs>
     <path d="M 9.8125 72.90625 
L 23.09375 72.90625 
L 55.421875 11.921875 
L 55.421875 72.90625 
L 64.984375 72.90625 
L 64.984375 0 
L 51.703125 0 
L 19.390625 60.984375 
L 19.390625 0 
L 9.8125 0 
z
" id="BitstreamVeraSans-Roman-4e"/>
     <path d="M 64.40625 67.28125 
L 64.40625 56.890625 
Q 59.421875 61.53125 53.78125 63.8125 
Q 48.140625 66.109375 41.796875 66.109375 
Q 29.296875 66.109375 22.65625 58.46875 
Q 16.015625 50.828125 16.015625 36.375 
Q 16.015625 21.96875 22.65625 14.328125 
Q 29.296875 6.6875 41.796875 6.6875 
Q 48.140625 6.6875 53.78125 8.984375 
Q 59.421875 11.28125 64.40625 15.921875 
L 64.40625 5.609375 
Q 59.234375 2.09375 53.4375 0.328125 
Q 47.65625 -1.421875 41.21875 -1.421875 
Q 24.65625 -1.421875 15.125 8.703125 
Q 5.609375 18.84375 5.609375 36.375 
Q 5.609375 53.953125 15.125 64.078125 
Q 24.65625 74.21875 41.21875 74.21875 
Q 47.75 74.21875 53.53125 72.484375 
Q 59.328125 70.75 64.40625 67.28125 
" id="BitstreamVeraSans-Roman-43"/>
     <path d="M 9.8125 72.90625 
L 19.671875 72.90625 
L 19.671875 43.015625 
L 55.515625 43.015625 
L 55.515625 72.90625 
L 65.375 72.90625 
L 65.375 0 
L 55.515625 0 
L 55.515625 34.71875 
L 19.671875 34.71875 
L 19.671875 0 
L 9.8125 0 
z
" id="BitstreamVeraSans-Roman-48"/>
     <path d="M 4.890625 31.390625 
L 31.203125 31.390625 
L 31.203125 23.390625 
L 4.890625 23.390625 
z
" id="BitstreamVeraSans-Roman-2d"/>
    </defs>
    <g transform="translate(248.22675 38.2)scale(0.144 -0.144)">
     <use xlink:href="#BitstreamVeraSans-Roman-43"/>
     <use x="69.82421875" xlink:href="#BitstreamVeraSans-Roman-32"/>
     <use x="133.447265625" xlink:href="#BitstreamVeraSans-Roman-2d"/>
     <use x="169.53125" xlink:href="#BitstreamVeraSans-Roman-4e"/>
     <use x="244.3359375" xlink:href="#BitstreamVeraSans-Roman-31"/>
     <use x="307.958984375" xlink:href="#BitstreamVeraSans-Roman-2d"/>
     <use x="344.04296875" xlink:href="#BitstreamVeraSans-Roman-43"/>
     <use x="413.8671875" xlink:href="#BitstreamVeraSans-Roman-31"/>
     <use x="477.490234375" xlink:href="#BitstreamVeraSans-Roman-2d"/>
     <use x="513.57421875" xlink:href="#BitstreamVeraSans-Roman-48"/>
     <use x="588.76953125" xlink:href="#BitstreamVeraSans-Roman-32"/>
    </g>
   </g>
   <g id="legend_1">
    <g id="patch_7">
     <path d="M 406.15625 108.3125 
L 514.4 108.3125 
L 514.4 47.2 
L 406.15625 47.2 
z
" style="fill:#ffffff;stroke:#000000;stroke-linejoin:miter;"/>
    </g>
    <g id="line2d_38">
     <path d="M 411.75625 53.67875 
L 422.95625 53.67875 
" style="fill:none;stroke:#ff0000;stroke-linecap:square;"/>
    </g>
    <g id="line2d_39">
     <g>
      <use style="fill:#ff0000;stroke:#000000;stroke-width:0.5;" x="411.75625" xlink:href="#m58196e894f" y="53.67875"/>
      <use style="fill:#ff0000;stroke:#000000;stroke-width:0.5;" x="422.95625" xlink:href="#m58196e894f" y="53.67875"/>
     </g>
    </g>
    <g id="text_20">
     <!-- QM -->
     <defs>
      <path d="M 9.8125 72.90625 
L 24.515625 72.90625 
L 43.109375 23.296875 
L 61.8125 72.90625 
L 76.515625 72.90625 
L 76.515625 0 
L 66.890625 0 
L 66.890625 64.015625 
L 48.09375 14.015625 
L 38.1875 14.015625 
L 19.390625 64.015625 
L 19.390625 0 
L 9.8125 0 
z
" id="BitstreamVeraSans-Roman-4d"/>
      <path d="M 39.40625 66.21875 
Q 28.65625 66.21875 22.328125 58.203125 
Q 16.015625 50.203125 16.015625 36.375 
Q 16.015625 22.609375 22.328125 14.59375 
Q 28.65625 6.59375 39.40625 6.59375 
Q 50.140625 6.59375 56.421875 14.59375 
Q 62.703125 22.609375 62.703125 36.375 
Q 62.703125 50.203125 56.421875 58.203125 
Q 50.140625 66.21875 39.40625 66.21875 
M 53.21875 1.3125 
L 66.21875 -12.890625 
L 54.296875 -12.890625 
L 43.5 -1.21875 
Q 41.890625 -1.3125 41.03125 -1.359375 
Q 40.1875 -1.421875 39.40625 -1.421875 
Q 24.03125 -1.421875 14.8125 8.859375 
Q 5.609375 19.140625 5.609375 36.375 
Q 5.609375 53.65625 14.8125 63.9375 
Q 24.03125 74.21875 39.40625 74.21875 
Q 54.734375 74.21875 63.90625 63.9375 
Q 73.09375 53.65625 73.09375 36.375 
Q 73.09375 23.6875 67.984375 14.640625 
Q 62.890625 5.609375 53.21875 1.3125 
" id="BitstreamVeraSans-Roman-51"/>
     </defs>
     <g transform="translate(431.75625 56.47875)scale(0.08 -0.08)">
      <use xlink:href="#BitstreamVeraSans-Roman-51"/>
      <use x="78.7109375" xlink:href="#BitstreamVeraSans-Roman-4d"/>
     </g>
    </g>
    <g id="line2d_40">
     <path d="M 411.75625 65.42125 
L 422.95625 65.42125 
" style="fill:none;stroke:#0000ff;stroke-linecap:square;"/>
    </g>
    <g id="line2d_41">
     <g>
      <use style="fill:#0000ff;stroke:#000000;stroke-width:0.5;" x="411.75625" xlink:href="#m0510f4906a" y="65.42125"/>
      <use style="fill:#0000ff;stroke:#000000;stroke-width:0.5;" x="422.95625" xlink:href="#m0510f4906a" y="65.42125"/>
     </g>
    </g>
    <g id="text_21">
     <!-- MM Original -->
     <defs>
      <path d="M 41.109375 46.296875 
Q 39.59375 47.171875 37.8125 47.578125 
Q 36.03125 48 33.890625 48 
Q 26.265625 48 22.1875 43.046875 
Q 18.109375 38.09375 18.109375 28.8125 
L 18.109375 0 
L 9.078125 0 
L 9.078125 54.6875 
L 18.109375 54.6875 
L 18.109375 46.1875 
Q 20.953125 51.171875 25.484375 53.578125 
Q 30.03125 56 36.53125 56 
Q 37.453125 56 38.578125 55.875 
Q 39.703125 55.765625 41.0625 55.515625 
z
" id="BitstreamVeraSans-Roman-72"/>
      <path d="M 54.890625 33.015625 
L 54.890625 0 
L 45.90625 0 
L 45.90625 32.71875 
Q 45.90625 40.484375 42.875 44.328125 
Q 39.84375 48.1875 33.796875 48.1875 
Q 26.515625 48.1875 22.3125 43.546875 
Q 18.109375 38.921875 18.109375 30.90625 
L 18.109375 0 
L 9.078125 0 
L 9.078125 54.6875 
L 18.109375 54.6875 
L 18.109375 46.1875 
Q 21.34375 51.125 25.703125 53.5625 
Q 30.078125 56 35.796875 56 
Q 45.21875 56 50.046875 50.171875 
Q 54.890625 44.34375 54.890625 33.015625 
" id="BitstreamVeraSans-Roman-6e"/>
      <path d="M 45.40625 27.984375 
Q 45.40625 37.75 41.375 43.109375 
Q 37.359375 48.484375 30.078125 48.484375 
Q 22.859375 48.484375 18.828125 43.109375 
Q 14.796875 37.75 14.796875 27.984375 
Q 14.796875 18.265625 18.828125 12.890625 
Q 22.859375 7.515625 30.078125 7.515625 
Q 37.359375 7.515625 41.375 12.890625 
Q 45.40625 18.265625 45.40625 27.984375 
M 54.390625 6.78125 
Q 54.390625 -7.171875 48.1875 -13.984375 
Q 42 -20.796875 29.203125 -20.796875 
Q 24.46875 -20.796875 20.265625 -20.09375 
Q 16.0625 -19.390625 12.109375 -17.921875 
L 12.109375 -9.1875 
Q 16.0625 -11.328125 19.921875 -12.34375 
Q 23.78125 -13.375 27.78125 -13.375 
Q 36.625 -13.375 41.015625 -8.765625 
Q 45.40625 -4.15625 45.40625 5.171875 
L 45.40625 9.625 
Q 42.625 4.78125 38.28125 2.390625 
Q 33.9375 0 27.875 0 
Q 17.828125 0 11.671875 7.65625 
Q 5.515625 15.328125 5.515625 27.984375 
Q 5.515625 40.671875 11.671875 48.328125 
Q 17.828125 56 27.875 56 
Q 33.9375 56 38.28125 53.609375 
Q 42.625 51.21875 45.40625 46.390625 
L 45.40625 54.6875 
L 54.390625 54.6875 
z
" id="BitstreamVeraSans-Roman-67"/>
      <path id="BitstreamVeraSans-Roman-20"/>
      <path d="M 39.40625 66.21875 
Q 28.65625 66.21875 22.328125 58.203125 
Q 16.015625 50.203125 16.015625 36.375 
Q 16.015625 22.609375 22.328125 14.59375 
Q 28.65625 6.59375 39.40625 6.59375 
Q 50.140625 6.59375 56.421875 14.59375 
Q 62.703125 22.609375 62.703125 36.375 
Q 62.703125 50.203125 56.421875 58.203125 
Q 50.140625 66.21875 39.40625 66.21875 
M 39.40625 74.21875 
Q 54.734375 74.21875 63.90625 63.9375 
Q 73.09375 53.65625 73.09375 36.375 
Q 73.09375 19.140625 63.90625 8.859375 
Q 54.734375 -1.421875 39.40625 -1.421875 
Q 24.03125 -1.421875 14.8125 8.828125 
Q 5.609375 19.09375 5.609375 36.375 
Q 5.609375 53.65625 14.8125 63.9375 
Q 24.03125 74.21875 39.40625 74.21875 
" id="BitstreamVeraSans-Roman-4f"/>
     </defs>
     <g transform="translate(431.75625 68.22125)scale(0.08 -0.08)">
      <use xlink:href="#BitstreamVeraSans-Roman-4d"/>
      <use x="86.279296875" xlink:href="#BitstreamVeraSans-Roman-4d"/>
      <use x="172.55859375" xlink:href="#BitstreamVeraSans-Roman-20"/>
      <use x="204.345703125" xlink:href="#BitstreamVeraSans-Roman-4f"/>
      <use x="283.056640625" xlink:href="#BitstreamVeraSans-Roman-72"/>
      <use x="324.169921875" xlink:href="#BitstreamVeraSans-Roman-69"/>
      <use x="351.953125" xlink:href="#BitstreamVeraSans-Roman-67"/>
      <use x="415.4296875" xlink:href="#BitstreamVeraSans-Roman-69"/>
      <use x="443.212890625" xlink:href="#BitstreamVeraSans-Roman-6e"/>
      <use x="506.591796875" xlink:href="#BitstreamVeraSans-Roman-61"/>
      <use x="567.87109375" xlink:href="#BitstreamVeraSans-Roman-6c"/>
     </g>
    </g>
    <g id="line2d_42">
     <path d="M 411.75625 77.16375 
L 422.95625 77.16375 
" style="fill:none;stroke:#000000;stroke-linecap:square;"/>
    </g>
    <g id="line2d_43">
     <g>
      <use style="stroke:#000000;stroke-width:0.5;" x="411.75625" xlink:href="#mbe32f88b69" y="77.16375"/>
      <use style="stroke:#000000;stroke-width:0.5;" x="422.95625" xlink:href="#mbe32f88b69" y="77.16375"/>
     </g>
    </g>
    <g id="text_22">
     <!-- MM With phi zeroed -->
     <defs>
      <path d="M 18.109375 8.203125 
L 18.109375 -20.796875 
L 9.078125 -20.796875 
L 9.078125 54.6875 
L 18.109375 54.6875 
L 18.109375 46.390625 
Q 20.953125 51.265625 25.265625 53.625 
Q 29.59375 56 35.59375 56 
Q 45.5625 56 51.78125 48.09375 
Q 58.015625 40.1875 58.015625 27.296875 
Q 58.015625 14.40625 51.78125 6.484375 
Q 45.5625 -1.421875 35.59375 -1.421875 
Q 29.59375 -1.421875 25.265625 0.953125 
Q 20.953125 3.328125 18.109375 8.203125 
M 48.6875 27.296875 
Q 48.6875 37.203125 44.609375 42.84375 
Q 40.53125 48.484375 33.40625 48.484375 
Q 26.265625 48.484375 22.1875 42.84375 
Q 18.109375 37.203125 18.109375 27.296875 
Q 18.109375 17.390625 22.1875 11.75 
Q 26.265625 6.109375 33.40625 6.109375 
Q 40.53125 6.109375 44.609375 11.75 
Q 48.6875 17.390625 48.6875 27.296875 
" id="BitstreamVeraSans-Roman-70"/>
      <path d="M 45.40625 46.390625 
L 45.40625 75.984375 
L 54.390625 75.984375 
L 54.390625 0 
L 45.40625 0 
L 45.40625 8.203125 
Q 42.578125 3.328125 38.25 0.953125 
Q 33.9375 -1.421875 27.875 -1.421875 
Q 17.96875 -1.421875 11.734375 6.484375 
Q 5.515625 14.40625 5.515625 27.296875 
Q 5.515625 40.1875 11.734375 48.09375 
Q 17.96875 56 27.875 56 
Q 33.9375 56 38.25 53.625 
Q 42.578125 51.265625 45.40625 46.390625 
M 14.796875 27.296875 
Q 14.796875 17.390625 18.875 11.75 
Q 22.953125 6.109375 30.078125 6.109375 
Q 37.203125 6.109375 41.296875 11.75 
Q 45.40625 17.390625 45.40625 27.296875 
Q 45.40625 37.203125 41.296875 42.84375 
Q 37.203125 48.484375 30.078125 48.484375 
Q 22.953125 48.484375 18.875 42.84375 
Q 14.796875 37.203125 14.796875 27.296875 
" id="BitstreamVeraSans-Roman-64"/>
      <path d="M 56.203125 29.59375 
L 56.203125 25.203125 
L 14.890625 25.203125 
Q 15.484375 15.921875 20.484375 11.0625 
Q 25.484375 6.203125 34.421875 6.203125 
Q 39.59375 6.203125 44.453125 7.46875 
Q 49.3125 8.734375 54.109375 11.28125 
L 54.109375 2.78125 
Q 49.265625 0.734375 44.1875 -0.34375 
Q 39.109375 -1.421875 33.890625 -1.421875 
Q 20.796875 -1.421875 13.15625 6.1875 
Q 5.515625 13.8125 5.515625 26.8125 
Q 5.515625 40.234375 12.765625 48.109375 
Q 20.015625 56 32.328125 56 
Q 43.359375 56 49.78125 48.890625 
Q 56.203125 41.796875 56.203125 29.59375 
M 47.21875 32.234375 
Q 47.125 39.59375 43.09375 43.984375 
Q 39.0625 48.390625 32.421875 48.390625 
Q 24.90625 48.390625 20.390625 44.140625 
Q 15.875 39.890625 15.1875 32.171875 
z
" id="BitstreamVeraSans-Roman-65"/>
      <path d="M 18.3125 70.21875 
L 18.3125 54.6875 
L 36.8125 54.6875 
L 36.8125 47.703125 
L 18.3125 47.703125 
L 18.3125 18.015625 
Q 18.3125 11.328125 20.140625 9.421875 
Q 21.96875 7.515625 27.59375 7.515625 
L 36.8125 7.515625 
L 36.8125 0 
L 27.59375 0 
Q 17.1875 0 13.234375 3.875 
Q 9.28125 7.765625 9.28125 18.015625 
L 9.28125 47.703125 
L 2.6875 47.703125 
L 2.6875 54.6875 
L 9.28125 54.6875 
L 9.28125 70.21875 
z
" id="BitstreamVeraSans-Roman-74"/>
      <path d="M 5.515625 54.6875 
L 48.1875 54.6875 
L 48.1875 46.484375 
L 14.40625 7.171875 
L 48.1875 7.171875 
L 48.1875 0 
L 4.296875 0 
L 4.296875 8.203125 
L 38.09375 47.515625 
L 5.515625 47.515625 
z
" id="BitstreamVeraSans-Roman-7a"/>
      <path d="M 3.328125 72.90625 
L 13.28125 72.90625 
L 28.609375 11.28125 
L 43.890625 72.90625 
L 54.984375 72.90625 
L 70.3125 11.28125 
L 85.59375 72.90625 
L 95.609375 72.90625 
L 77.296875 0 
L 64.890625 0 
L 49.515625 63.28125 
L 33.984375 0 
L 21.578125 0 
z
" id="BitstreamVeraSans-Roman-57"/>
     </defs>
     <g transform="translate(431.75625 79.96375)scale(0.08 -0.08)">
      <use xlink:href="#BitstreamVeraSans-Roman-4d"/>
      <use x="86.279296875" xlink:href="#BitstreamVeraSans-Roman-4d"/>
      <use x="172.55859375" xlink:href="#BitstreamVeraSans-Roman-20"/>
      <use x="204.345703125" xlink:href="#BitstreamVeraSans-Roman-57"/>
      <use x="303.19140625" xlink:href="#BitstreamVeraSans-Roman-69"/>
      <use x="330.974609375" xlink:href="#BitstreamVeraSans-Roman-74"/>
      <use x="370.18359375" xlink:href="#BitstreamVeraSans-Roman-68"/>
      <use x="433.5625" xlink:href="#BitstreamVeraSans-Roman-20"/>
      <use x="465.349609375" xlink:href="#BitstreamVeraSans-Roman-70"/>
      <use x="528.826171875" xlink:href="#BitstreamVeraSans-Roman-68"/>
      <use x="592.205078125" xlink:href="#BitstreamVeraSans-Roman-69"/>
      <use x="619.98828125" xlink:href="#BitstreamVeraSans-Roman-20"/>
      <use x="651.775390625" xlink:href="#BitstreamVeraSans-Roman-7a"/>
      <use x="704.265625" xlink:href="#BitstreamVeraSans-Roman-65"/>
      <use x="765.7890625" xlink:href="#BitstreamVeraSans-Roman-72"/>
      <use x="806.87109375" xlink:href="#BitstreamVeraSans-Roman-6f"/>
      <use x="868.052734375" xlink:href="#BitstreamVeraSans-Roman-65"/>
      <use x="929.576171875" xlink:href="#BitstreamVeraSans-Roman-64"/>
     </g>
    </g>
    <g id="line2d_44">
     <path d="M 411.75625 88.90625 
L 422.95625 88.90625 
" style="fill:none;stroke:#ff00ff;stroke-linecap:square;"/>
    </g>
    <g id="line2d_45">
     <g>
      <use style="fill:#ff00ff;stroke:#ff00ff;stroke-width:0.5;" x="411.75625" xlink:href="#mf5cad281c1" y="88.90625"/>
      <use style="fill:#ff00ff;stroke:#ff00ff;stroke-width:0.5;" x="422.95625" xlink:href="#mf5cad281c1" y="88.90625"/>
     </g>
    </g>
    <g id="text_23">
     <!-- QM-MM target -->
     <g transform="translate(431.75625 91.70625)scale(0.08 -0.08)">
      <use xlink:href="#BitstreamVeraSans-Roman-51"/>
      <use x="78.7109375" xlink:href="#BitstreamVeraSans-Roman-4d"/>
      <use x="164.990234375" xlink:href="#BitstreamVeraSans-Roman-2d"/>
      <use x="201.07421875" xlink:href="#BitstreamVeraSans-Roman-4d"/>
      <use x="287.353515625" xlink:href="#BitstreamVeraSans-Roman-4d"/>
      <use x="373.6328125" xlink:href="#BitstreamVeraSans-Roman-20"/>
      <use x="405.419921875" xlink:href="#BitstreamVeraSans-Roman-74"/>
      <use x="444.62890625" xlink:href="#BitstreamVeraSans-Roman-61"/>
      <use x="505.908203125" xlink:href="#BitstreamVeraSans-Roman-72"/>
      <use x="547.005859375" xlink:href="#BitstreamVeraSans-Roman-67"/>
      <use x="610.482421875" xlink:href="#BitstreamVeraSans-Roman-65"/>
      <use x="672.005859375" xlink:href="#BitstreamVeraSans-Roman-74"/>
     </g>
    </g>
    <g id="line2d_46">
     <path d="M 411.75625 100.64875 
L 422.95625 100.64875 
" style="fill:none;stroke:#008000;stroke-linecap:square;"/>
    </g>
    <g id="line2d_47">
     <g>
      <use style="fill:#008000;stroke:#000000;stroke-width:0.5;" x="411.75625" xlink:href="#m1fb9bc9e98" y="100.64875"/>
      <use style="fill:#008000;stroke:#000000;stroke-width:0.5;" x="422.95625" xlink:href="#m1fb9bc9e98" y="100.64875"/>
     </g>
    </g>
    <g id="text_24">
     <!-- MM Fitted -->
     <defs>
      <path d="M 9.8125 72.90625 
L 51.703125 72.90625 
L 51.703125 64.59375 
L 19.671875 64.59375 
L 19.671875 43.109375 
L 48.578125 43.109375 
L 48.578125 34.8125 
L 19.671875 34.8125 
L 19.671875 0 
L 9.8125 0 
z
" id="BitstreamVeraSans-Roman-46"/>
     </defs>
     <g transform="translate(431.75625 103.44875)scale(0.08 -0.08)">
      <use xlink:href="#BitstreamVeraSans-Roman-4d"/>
      <use x="86.279296875" xlink:href="#BitstreamVeraSans-Roman-4d"/>
      <use x="172.55859375" xlink:href="#BitstreamVeraSans-Roman-20"/>
      <use x="204.345703125" xlink:href="#BitstreamVeraSans-Roman-46"/>
      <use x="261.755859375" xlink:href="#BitstreamVeraSans-Roman-69"/>
      <use x="289.5390625" xlink:href="#BitstreamVeraSans-Roman-74"/>
      <use x="328.748046875" xlink:href="#BitstreamVeraSans-Roman-74"/>
      <use x="367.95703125" xlink:href="#BitstreamVeraSans-Roman-65"/>
      <use x="429.48046875" xlink:href="#BitstreamVeraSans-Roman-64"/>
     </g>
    </g>
   </g>
  </g>
 </g>
 <defs>
  <clipPath id="pb910494bda">
   <rect height="345.6" width="446.4" x="72.0" y="43.2"/>
  </clipPath>
 </defs>
</svg>
