<?xml version="1.0" encoding="utf-8" standalone="no"?>
<!DOCTYPE svg PUBLIC "-//W3C//DTD SVG 1.1//EN"
  "http://www.w3.org/Graphics/SVG/1.1/DTD/svg11.dtd">
<!-- Created with matplotlib (http://matplotlib.org/) -->
<svg height="432pt" version="1.1" viewBox="0 0 576 432" width="576pt" xmlns="http://www.w3.org/2000/svg" xmlns:xlink="http://www.w3.org/1999/xlink">
 <defs>
  <style type="text/css">
*{stroke-linecap:butt;stroke-linejoin:round;stroke-miterlimit:100000;}
  </style>
 </defs>
 <g id="figure_1">
  <g id="patch_1">
   <path d="M 0 432 
L 576 432 
L 576 0 
L 0 0 
z
" style="fill:#ffffff;"/>
  </g>
  <g id="axes_1">
   <g id="patch_2">
    <path d="M 72 388.8 
L 518.4 388.8 
L 518.4 43.2 
L 72 43.2 
z
" style="fill:#ffffff;"/>
   </g>
   <g id="line2d_1">
    <path clip-path="url(#p188c626f89)" d="M 71.999169 161.312546 
L 84.399993 198.579135 
L 96.799958 253.164302 
L 109.19998 310.690837 
L 121.599988 357.759099 
L 133.999961 385.249374 
L 146.400014 388.8 
L 158.800016 368.378062 
L 171.199997 328.04223 
L 183.599964 275.822415 
L 196.000014 222.502221 
L 208.400028 179.205241 
L 220.800018 154.448527 
L 233.199984 151.835809 
L 245.59999 168.754515 
L 258.000033 197.101424 
L 270.400008 226.682896 
L 282.800025 249.080901 
L 295.200459 259.430181 
L 307.600013 256.463353 
L 320.000039 242.15977 
L 332.399994 221.459703 
L 344.799988 201.167939 
L 357.200027 187.830253 
L 369.600001 185.568332 
L 382.000013 194.781273 
L 394.399966 212.306207 
L 406.800035 232.63922 
L 419.19998 249.810223 
L 431.599992 259.104578 
L 443.99998 257.694812 
L 456.400014 244.776793 
L 468.800022 221.482816 
L 481.199991 191.850104 
L 493.59996 164.114876 
L 505.999952 150.378456 
" style="fill:none;stroke:#ff0000;stroke-linecap:square;"/>
    <defs>
     <path d="M 0 3 
C 0.795609 3 1.55874 2.683901 2.12132 2.12132 
C 2.683901 1.55874 3 0.795609 3 0 
C 3 -0.795609 2.683901 -1.55874 2.12132 -2.12132 
C 1.55874 -2.683901 0.795609 -3 0 -3 
C -0.795609 -3 -1.55874 -2.683901 -2.12132 -2.12132 
C -2.683901 -1.55874 -3 -0.795609 -3 0 
C -3 0.795609 -2.683901 1.55874 -2.12132 2.12132 
C -1.55874 2.683901 -0.795609 3 0 3 
z
" id="medf8e681e1" style="stroke:#000000;stroke-width:0.5;"/>
    </defs>
    <g clip-path="url(#p188c626f89)">
     <use style="fill:#ff0000;stroke:#000000;stroke-width:0.5;" x="71.9991686214" xlink:href="#medf8e681e1" y="161.31254563"/>
     <use style="fill:#ff0000;stroke:#000000;stroke-width:0.5;" x="84.3999931593" xlink:href="#medf8e681e1" y="198.579134822"/>
     <use style="fill:#ff0000;stroke:#000000;stroke-width:0.5;" x="96.7999579512" xlink:href="#medf8e681e1" y="253.164301507"/>
     <use style="fill:#ff0000;stroke:#000000;stroke-width:0.5;" x="109.199979945" xlink:href="#medf8e681e1" y="310.690837289"/>
     <use style="fill:#ff0000;stroke:#000000;stroke-width:0.5;" x="121.599987667" xlink:href="#medf8e681e1" y="357.759099367"/>
     <use style="fill:#ff0000;stroke:#000000;stroke-width:0.5;" x="133.999961266" xlink:href="#medf8e681e1" y="385.249374251"/>
     <use style="fill:#ff0000;stroke:#000000;stroke-width:0.5;" x="146.400013864" xlink:href="#medf8e681e1" y="388.8"/>
     <use style="fill:#ff0000;stroke:#000000;stroke-width:0.5;" x="158.800015665" xlink:href="#medf8e681e1" y="368.378061541"/>
     <use style="fill:#ff0000;stroke:#000000;stroke-width:0.5;" x="171.199997015" xlink:href="#medf8e681e1" y="328.042229676"/>
     <use style="fill:#ff0000;stroke:#000000;stroke-width:0.5;" x="183.599964355" xlink:href="#medf8e681e1" y="275.822414622"/>
     <use style="fill:#ff0000;stroke:#000000;stroke-width:0.5;" x="196.000013513" xlink:href="#medf8e681e1" y="222.502221166"/>
     <use style="fill:#ff0000;stroke:#000000;stroke-width:0.5;" x="208.400028047" xlink:href="#medf8e681e1" y="179.205240749"/>
     <use style="fill:#ff0000;stroke:#000000;stroke-width:0.5;" x="220.800018374" xlink:href="#medf8e681e1" y="154.448527136"/>
     <use style="fill:#ff0000;stroke:#000000;stroke-width:0.5;" x="233.199984156" xlink:href="#medf8e681e1" y="151.835808603"/>
     <use style="fill:#ff0000;stroke:#000000;stroke-width:0.5;" x="245.599989916" xlink:href="#medf8e681e1" y="168.754515325"/>
     <use style="fill:#ff0000;stroke:#000000;stroke-width:0.5;" x="258.000032533" xlink:href="#medf8e681e1" y="197.101423634"/>
     <use style="fill:#ff0000;stroke:#000000;stroke-width:0.5;" x="270.400008485" xlink:href="#medf8e681e1" y="226.682896474"/>
     <use style="fill:#ff0000;stroke:#000000;stroke-width:0.5;" x="282.800025352" xlink:href="#medf8e681e1" y="249.080901442"/>
     <use style="fill:#ff0000;stroke:#000000;stroke-width:0.5;" x="295.200458852" xlink:href="#medf8e681e1" y="259.430181114"/>
     <use style="fill:#ff0000;stroke:#000000;stroke-width:0.5;" x="307.60001276" xlink:href="#medf8e681e1" y="256.463353471"/>
     <use style="fill:#ff0000;stroke:#000000;stroke-width:0.5;" x="320.00003916" xlink:href="#medf8e681e1" y="242.159770331"/>
     <use style="fill:#ff0000;stroke:#000000;stroke-width:0.5;" x="332.399993752" xlink:href="#medf8e681e1" y="221.459702617"/>
     <use style="fill:#ff0000;stroke:#000000;stroke-width:0.5;" x="344.799987908" xlink:href="#medf8e681e1" y="201.167939417"/>
     <use style="fill:#ff0000;stroke:#000000;stroke-width:0.5;" x="357.200027125" xlink:href="#medf8e681e1" y="187.83025302"/>
     <use style="fill:#ff0000;stroke:#000000;stroke-width:0.5;" x="369.600000827" xlink:href="#medf8e681e1" y="185.568332298"/>
     <use style="fill:#ff0000;stroke:#000000;stroke-width:0.5;" x="382.000013185" xlink:href="#medf8e681e1" y="194.781273274"/>
     <use style="fill:#ff0000;stroke:#000000;stroke-width:0.5;" x="394.399966096" xlink:href="#medf8e681e1" y="212.306207477"/>
     <use style="fill:#ff0000;stroke:#000000;stroke-width:0.5;" x="406.800034822" xlink:href="#medf8e681e1" y="232.639220116"/>
     <use style="fill:#ff0000;stroke:#000000;stroke-width:0.5;" x="419.199980049" xlink:href="#medf8e681e1" y="249.810223351"/>
     <use style="fill:#ff0000;stroke:#000000;stroke-width:0.5;" x="431.599991688" xlink:href="#medf8e681e1" y="259.104577836"/>
     <use style="fill:#ff0000;stroke:#000000;stroke-width:0.5;" x="443.999980226" xlink:href="#medf8e681e1" y="257.694811903"/>
     <use style="fill:#ff0000;stroke:#000000;stroke-width:0.5;" x="456.400013636" xlink:href="#medf8e681e1" y="244.776792927"/>
     <use style="fill:#ff0000;stroke:#000000;stroke-width:0.5;" x="468.8000224" xlink:href="#medf8e681e1" y="221.482816142"/>
     <use style="fill:#ff0000;stroke:#000000;stroke-width:0.5;" x="481.199991467" xlink:href="#medf8e681e1" y="191.850104168"/>
     <use style="fill:#ff0000;stroke:#000000;stroke-width:0.5;" x="493.599959814" xlink:href="#medf8e681e1" y="164.114876073"/>
     <use style="fill:#ff0000;stroke:#000000;stroke-width:0.5;" x="505.999952258" xlink:href="#medf8e681e1" y="150.378456426"/>
    </g>
   </g>
   <g id="line2d_2">
    <path clip-path="url(#p188c626f89)" d="M 71.999169 370.932118 
L 84.399993 362.782892 
L 96.799958 360.111002 
L 109.19998 365.049823 
L 121.599988 374.512554 
L 133.999961 384.046527 
L 146.400014 388.8 
L 158.800016 387.932697 
L 171.199997 382.814919 
L 183.599964 376.210546 
L 196.000014 372.084595 
L 208.400028 371.57766 
L 220.800018 374.469844 
L 233.199984 377.471406 
L 245.59999 376.942483 
L 258.000033 370.754476 
L 270.400008 358.869211 
L 282.800025 341.547984 
L 295.200459 318.966782 
L 307.600013 292.18902 
L 320.000039 264.100774 
L 332.399994 237.427725 
L 344.799988 215.779012 
L 357.200027 201.595703 
L 369.600001 197.132724 
L 382.000013 204.123042 
L 394.399966 220.438042 
L 406.800035 244.57214 
L 419.19998 273.180421 
L 431.599992 301.988795 
L 443.99998 327.093743 
L 456.400014 346.347471 
L 468.800022 360.011683 
L 481.199991 369.635649 
L 493.59996 375.914674 
L 505.999952 376.937996 
" style="fill:none;stroke:#0000ff;stroke-linecap:square;"/>
    <defs>
     <path d="M 0 3 
C 0.795609 3 1.55874 2.683901 2.12132 2.12132 
C 2.683901 1.55874 3 0.795609 3 0 
C 3 -0.795609 2.683901 -1.55874 2.12132 -2.12132 
C 1.55874 -2.683901 0.795609 -3 0 -3 
C -0.795609 -3 -1.55874 -2.683901 -2.12132 -2.12132 
C -2.683901 -1.55874 -3 -0.795609 -3 0 
C -3 0.795609 -2.683901 1.55874 -2.12132 2.12132 
C -1.55874 2.683901 -0.795609 3 0 3 
z
" id="mcb61751312" style="stroke:#000000;stroke-width:0.5;"/>
    </defs>
    <g clip-path="url(#p188c626f89)">
     <use style="fill:#0000ff;stroke:#000000;stroke-width:0.5;" x="71.9991686214" xlink:href="#mcb61751312" y="370.932117538"/>
     <use style="fill:#0000ff;stroke:#000000;stroke-width:0.5;" x="84.3999931593" xlink:href="#mcb61751312" y="362.782892227"/>
     <use style="fill:#0000ff;stroke:#000000;stroke-width:0.5;" x="96.7999579512" xlink:href="#mcb61751312" y="360.111002031"/>
     <use style="fill:#0000ff;stroke:#000000;stroke-width:0.5;" x="109.199979945" xlink:href="#mcb61751312" y="365.049823331"/>
     <use style="fill:#0000ff;stroke:#000000;stroke-width:0.5;" x="121.599987667" xlink:href="#mcb61751312" y="374.512553572"/>
     <use style="fill:#0000ff;stroke:#000000;stroke-width:0.5;" x="133.999961266" xlink:href="#mcb61751312" y="384.046526688"/>
     <use style="fill:#0000ff;stroke:#000000;stroke-width:0.5;" x="146.400013864" xlink:href="#mcb61751312" y="388.8"/>
     <use style="fill:#0000ff;stroke:#000000;stroke-width:0.5;" x="158.800015665" xlink:href="#mcb61751312" y="387.932696719"/>
     <use style="fill:#0000ff;stroke:#000000;stroke-width:0.5;" x="171.199997015" xlink:href="#mcb61751312" y="382.814919463"/>
     <use style="fill:#0000ff;stroke:#000000;stroke-width:0.5;" x="183.599964355" xlink:href="#mcb61751312" y="376.21054577"/>
     <use style="fill:#0000ff;stroke:#000000;stroke-width:0.5;" x="196.000013513" xlink:href="#mcb61751312" y="372.084595085"/>
     <use style="fill:#0000ff;stroke:#000000;stroke-width:0.5;" x="208.400028047" xlink:href="#mcb61751312" y="371.577660229"/>
     <use style="fill:#0000ff;stroke:#000000;stroke-width:0.5;" x="220.800018374" xlink:href="#mcb61751312" y="374.46984439"/>
     <use style="fill:#0000ff;stroke:#000000;stroke-width:0.5;" x="233.199984156" xlink:href="#mcb61751312" y="377.471406365"/>
     <use style="fill:#0000ff;stroke:#000000;stroke-width:0.5;" x="245.599989916" xlink:href="#mcb61751312" y="376.942482714"/>
     <use style="fill:#0000ff;stroke:#000000;stroke-width:0.5;" x="258.000032533" xlink:href="#mcb61751312" y="370.754475853"/>
     <use style="fill:#0000ff;stroke:#000000;stroke-width:0.5;" x="270.400008485" xlink:href="#mcb61751312" y="358.869211059"/>
     <use style="fill:#0000ff;stroke:#000000;stroke-width:0.5;" x="282.800025352" xlink:href="#mcb61751312" y="341.547983595"/>
     <use style="fill:#0000ff;stroke:#000000;stroke-width:0.5;" x="295.200458852" xlink:href="#mcb61751312" y="318.966782415"/>
     <use style="fill:#0000ff;stroke:#000000;stroke-width:0.5;" x="307.60001276" xlink:href="#mcb61751312" y="292.189020125"/>
     <use style="fill:#0000ff;stroke:#000000;stroke-width:0.5;" x="320.00003916" xlink:href="#mcb61751312" y="264.100773749"/>
     <use style="fill:#0000ff;stroke:#000000;stroke-width:0.5;" x="332.399993752" xlink:href="#mcb61751312" y="237.42772533"/>
     <use style="fill:#0000ff;stroke:#000000;stroke-width:0.5;" x="344.799987908" xlink:href="#mcb61751312" y="215.779011811"/>
     <use style="fill:#0000ff;stroke:#000000;stroke-width:0.5;" x="357.200027125" xlink:href="#mcb61751312" y="201.595702526"/>
     <use style="fill:#0000ff;stroke:#000000;stroke-width:0.5;" x="369.600000827" xlink:href="#mcb61751312" y="197.132723517"/>
     <use style="fill:#0000ff;stroke:#000000;stroke-width:0.5;" x="382.000013185" xlink:href="#mcb61751312" y="204.123042408"/>
     <use style="fill:#0000ff;stroke:#000000;stroke-width:0.5;" x="394.399966096" xlink:href="#mcb61751312" y="220.438042058"/>
     <use style="fill:#0000ff;stroke:#000000;stroke-width:0.5;" x="406.800034822" xlink:href="#mcb61751312" y="244.572140298"/>
     <use style="fill:#0000ff;stroke:#000000;stroke-width:0.5;" x="419.199980049" xlink:href="#mcb61751312" y="273.180420828"/>
     <use style="fill:#0000ff;stroke:#000000;stroke-width:0.5;" x="431.599991688" xlink:href="#mcb61751312" y="301.988795026"/>
     <use style="fill:#0000ff;stroke:#000000;stroke-width:0.5;" x="443.999980226" xlink:href="#mcb61751312" y="327.093742565"/>
     <use style="fill:#0000ff;stroke:#000000;stroke-width:0.5;" x="456.400013636" xlink:href="#mcb61751312" y="346.347471467"/>
     <use style="fill:#0000ff;stroke:#000000;stroke-width:0.5;" x="468.8000224" xlink:href="#mcb61751312" y="360.011682523"/>
     <use style="fill:#0000ff;stroke:#000000;stroke-width:0.5;" x="481.199991467" xlink:href="#mcb61751312" y="369.635649304"/>
     <use style="fill:#0000ff;stroke:#000000;stroke-width:0.5;" x="493.599959814" xlink:href="#mcb61751312" y="375.914673697"/>
     <use style="fill:#0000ff;stroke:#000000;stroke-width:0.5;" x="505.999952258" xlink:href="#mcb61751312" y="376.937996203"/>
    </g>
   </g>
   <g id="line2d_3">
    <path clip-path="url(#p188c626f89)" d="M 71.999169 354.19146 
L 84.399993 326.105235 
L 96.799958 301.89868 
L 109.19998 287.018055 
L 121.599988 281.31887 
L 133.999961 282.441432 
L 146.400014 286.541909 
L 158.800016 292.703433 
L 171.199997 301.03356 
L 183.599964 312.142059 
L 196.000014 327.369721 
L 208.400028 345.35522 
L 220.800018 364.021797 
L 233.199984 379.246004 
L 245.59999 387.737105 
L 258.000033 388.8 
L 270.400008 384.527358 
L 282.800025 377.348899 
L 295.200459 368.813703 
L 307.600013 359.989423 
L 320.000039 352.171915 
L 332.399994 345.380177 
L 344.799988 339.98986 
L 357.200027 335.713794 
L 369.600001 333.082237 
L 382.000013 333.688747 
L 394.399966 336.765398 
L 406.800035 343.188856 
L 419.19998 352.404966 
L 431.599992 362.704747 
L 443.99998 372.0402 
L 456.400014 379.105227 
L 468.800022 383.871374 
L 481.199991 386.485646 
L 493.59996 385.314373 
L 505.999952 375.755044 
" style="fill:none;stroke:#000000;stroke-linecap:square;"/>
    <defs>
     <path d="M -3 3 
L 3 -3 
M -3 -3 
L 3 3 
" id="m86d23175fc" style="stroke:#000000;stroke-width:0.5;"/>
    </defs>
    <g clip-path="url(#p188c626f89)">
     <use style="stroke:#000000;stroke-width:0.5;" x="71.9991686214" xlink:href="#m86d23175fc" y="354.191460411"/>
     <use style="stroke:#000000;stroke-width:0.5;" x="84.3999931593" xlink:href="#m86d23175fc" y="326.105234959"/>
     <use style="stroke:#000000;stroke-width:0.5;" x="96.7999579512" xlink:href="#m86d23175fc" y="301.898679766"/>
     <use style="stroke:#000000;stroke-width:0.5;" x="109.199979945" xlink:href="#m86d23175fc" y="287.018054588"/>
     <use style="stroke:#000000;stroke-width:0.5;" x="121.599987667" xlink:href="#m86d23175fc" y="281.318870173"/>
     <use style="stroke:#000000;stroke-width:0.5;" x="133.999961266" xlink:href="#m86d23175fc" y="282.441431997"/>
     <use style="stroke:#000000;stroke-width:0.5;" x="146.400013864" xlink:href="#m86d23175fc" y="286.541908822"/>
     <use style="stroke:#000000;stroke-width:0.5;" x="158.800015665" xlink:href="#m86d23175fc" y="292.703433066"/>
     <use style="stroke:#000000;stroke-width:0.5;" x="171.199997015" xlink:href="#m86d23175fc" y="301.033560478"/>
     <use style="stroke:#000000;stroke-width:0.5;" x="183.599964355" xlink:href="#m86d23175fc" y="312.142059309"/>
     <use style="stroke:#000000;stroke-width:0.5;" x="196.000013513" xlink:href="#m86d23175fc" y="327.369721157"/>
     <use style="stroke:#000000;stroke-width:0.5;" x="208.400028047" xlink:href="#m86d23175fc" y="345.355219744"/>
     <use style="stroke:#000000;stroke-width:0.5;" x="220.800018374" xlink:href="#m86d23175fc" y="364.021797304"/>
     <use style="stroke:#000000;stroke-width:0.5;" x="233.199984156" xlink:href="#m86d23175fc" y="379.246003949"/>
     <use style="stroke:#000000;stroke-width:0.5;" x="245.599989916" xlink:href="#m86d23175fc" y="387.737104647"/>
     <use style="stroke:#000000;stroke-width:0.5;" x="258.000032533" xlink:href="#m86d23175fc" y="388.8"/>
     <use style="stroke:#000000;stroke-width:0.5;" x="270.400008485" xlink:href="#m86d23175fc" y="384.527357635"/>
     <use style="stroke:#000000;stroke-width:0.5;" x="282.800025352" xlink:href="#m86d23175fc" y="377.348898803"/>
     <use style="stroke:#000000;stroke-width:0.5;" x="295.200458852" xlink:href="#m86d23175fc" y="368.813702898"/>
     <use style="stroke:#000000;stroke-width:0.5;" x="307.60001276" xlink:href="#m86d23175fc" y="359.989422968"/>
     <use style="stroke:#000000;stroke-width:0.5;" x="320.00003916" xlink:href="#m86d23175fc" y="352.171914719"/>
     <use style="stroke:#000000;stroke-width:0.5;" x="332.399993752" xlink:href="#m86d23175fc" y="345.38017737"/>
     <use style="stroke:#000000;stroke-width:0.5;" x="344.799987908" xlink:href="#m86d23175fc" y="339.989859995"/>
     <use style="stroke:#000000;stroke-width:0.5;" x="357.200027125" xlink:href="#m86d23175fc" y="335.713794313"/>
     <use style="stroke:#000000;stroke-width:0.5;" x="369.600000827" xlink:href="#m86d23175fc" y="333.082236946"/>
     <use style="stroke:#000000;stroke-width:0.5;" x="382.000013185" xlink:href="#m86d23175fc" y="333.688746816"/>
     <use style="stroke:#000000;stroke-width:0.5;" x="394.399966096" xlink:href="#m86d23175fc" y="336.765397717"/>
     <use style="stroke:#000000;stroke-width:0.5;" x="406.800034822" xlink:href="#m86d23175fc" y="343.18885625"/>
     <use style="stroke:#000000;stroke-width:0.5;" x="419.199980049" xlink:href="#m86d23175fc" y="352.404965621"/>
     <use style="stroke:#000000;stroke-width:0.5;" x="431.599991688" xlink:href="#m86d23175fc" y="362.704746546"/>
     <use style="stroke:#000000;stroke-width:0.5;" x="443.999980226" xlink:href="#m86d23175fc" y="372.040200416"/>
     <use style="stroke:#000000;stroke-width:0.5;" x="456.400013636" xlink:href="#m86d23175fc" y="379.105226952"/>
     <use style="stroke:#000000;stroke-width:0.5;" x="468.8000224" xlink:href="#m86d23175fc" y="383.871373508"/>
     <use style="stroke:#000000;stroke-width:0.5;" x="481.199991467" xlink:href="#m86d23175fc" y="386.485646254"/>
     <use style="stroke:#000000;stroke-width:0.5;" x="493.599959814" xlink:href="#m86d23175fc" y="385.314373319"/>
     <use style="stroke:#000000;stroke-width:0.5;" x="505.999952258" xlink:href="#m86d23175fc" y="375.755043985"/>
    </g>
   </g>
   <g id="line2d_4">
    <path clip-path="url(#p188c626f89)" d="M 71.999169 93.113143 
L 84.399993 158.465958 
L 96.799958 237.257679 
L 109.19998 309.66484 
L 121.599988 362.432287 
L 133.999961 388.8 
L 146.400014 388.250149 
L 158.800016 361.666686 
L 171.199997 313.000727 
L 183.599964 249.672413 
L 196.000014 181.124558 
L 208.400028 119.842079 
L 220.800018 76.418788 
L 233.199984 58.581862 
L 245.59999 67.009468 
L 258.000033 94.293481 
L 270.400008 128.147597 
L 282.800025 157.72406 
L 295.200459 176.608536 
L 307.600013 182.465988 
L 320.000039 175.979913 
L 332.399994 162.071583 
L 344.799988 147.170137 
L 357.200027 138.108516 
L 369.600001 138.478153 
L 382.000013 147.084584 
L 394.399966 161.532868 
L 406.800035 175.442422 
L 419.19998 183.397315 
L 431.599992 182.391889 
L 443.99998 171.646669 
L 456.400014 151.663624 
L 468.800022 123.6035 
L 481.199991 91.356516 
L 493.59996 64.792561 
L 505.999952 60.61547 
" style="fill:none;stroke:#ff00ff;stroke-linecap:square;"/>
    <defs>
     <path d="M -3 3 
L 3 -3 
M -3 -3 
L 3 3 
" id="m9391478f3a" style="stroke:#ff00ff;stroke-width:0.5;"/>
    </defs>
    <g clip-path="url(#p188c626f89)">
     <use style="fill:#ff00ff;stroke:#ff00ff;stroke-width:0.5;" x="71.9991686214" xlink:href="#m9391478f3a" y="93.1131429649"/>
     <use style="fill:#ff00ff;stroke:#ff00ff;stroke-width:0.5;" x="84.3999931593" xlink:href="#m9391478f3a" y="158.465957609"/>
     <use style="fill:#ff00ff;stroke:#ff00ff;stroke-width:0.5;" x="96.7999579512" xlink:href="#m9391478f3a" y="237.257679487"/>
     <use style="fill:#ff00ff;stroke:#ff00ff;stroke-width:0.5;" x="109.199979945" xlink:href="#m9391478f3a" y="309.664840447"/>
     <use style="fill:#ff00ff;stroke:#ff00ff;stroke-width:0.5;" x="121.599987667" xlink:href="#m9391478f3a" y="362.432286941"/>
     <use style="fill:#ff00ff;stroke:#ff00ff;stroke-width:0.5;" x="133.999961266" xlink:href="#m9391478f3a" y="388.8"/>
     <use style="fill:#ff00ff;stroke:#ff00ff;stroke-width:0.5;" x="146.400013864" xlink:href="#m9391478f3a" y="388.250148924"/>
     <use style="fill:#ff00ff;stroke:#ff00ff;stroke-width:0.5;" x="158.800015665" xlink:href="#m9391478f3a" y="361.666686221"/>
     <use style="fill:#ff00ff;stroke:#ff00ff;stroke-width:0.5;" x="171.199997015" xlink:href="#m9391478f3a" y="313.000726944"/>
     <use style="fill:#ff00ff;stroke:#ff00ff;stroke-width:0.5;" x="183.599964355" xlink:href="#m9391478f3a" y="249.672413059"/>
     <use style="fill:#ff00ff;stroke:#ff00ff;stroke-width:0.5;" x="196.000013513" xlink:href="#m9391478f3a" y="181.124557755"/>
     <use style="fill:#ff00ff;stroke:#ff00ff;stroke-width:0.5;" x="208.400028047" xlink:href="#m9391478f3a" y="119.842078751"/>
     <use style="fill:#ff00ff;stroke:#ff00ff;stroke-width:0.5;" x="220.800018374" xlink:href="#m9391478f3a" y="76.4187875785"/>
     <use style="fill:#ff00ff;stroke:#ff00ff;stroke-width:0.5;" x="233.199984156" xlink:href="#m9391478f3a" y="58.5818623998"/>
     <use style="fill:#ff00ff;stroke:#ff00ff;stroke-width:0.5;" x="245.599989916" xlink:href="#m9391478f3a" y="67.0094684241"/>
     <use style="fill:#ff00ff;stroke:#ff00ff;stroke-width:0.5;" x="258.000032533" xlink:href="#m9391478f3a" y="94.2934813806"/>
     <use style="fill:#ff00ff;stroke:#ff00ff;stroke-width:0.5;" x="270.400008485" xlink:href="#m9391478f3a" y="128.147596586"/>
     <use style="fill:#ff00ff;stroke:#ff00ff;stroke-width:0.5;" x="282.800025352" xlink:href="#m9391478f3a" y="157.724060384"/>
     <use style="fill:#ff00ff;stroke:#ff00ff;stroke-width:0.5;" x="295.200458852" xlink:href="#m9391478f3a" y="176.608535963"/>
     <use style="fill:#ff00ff;stroke:#ff00ff;stroke-width:0.5;" x="307.60001276" xlink:href="#m9391478f3a" y="182.465988249"/>
     <use style="fill:#ff00ff;stroke:#ff00ff;stroke-width:0.5;" x="320.00003916" xlink:href="#m9391478f3a" y="175.979913358"/>
     <use style="fill:#ff00ff;stroke:#ff00ff;stroke-width:0.5;" x="332.399993752" xlink:href="#m9391478f3a" y="162.071582993"/>
     <use style="fill:#ff00ff;stroke:#ff00ff;stroke-width:0.5;" x="344.799987908" xlink:href="#m9391478f3a" y="147.170137168"/>
     <use style="fill:#ff00ff;stroke:#ff00ff;stroke-width:0.5;" x="357.200027125" xlink:href="#m9391478f3a" y="138.108516453"/>
     <use style="fill:#ff00ff;stroke:#ff00ff;stroke-width:0.5;" x="369.600000827" xlink:href="#m9391478f3a" y="138.478153098"/>
     <use style="fill:#ff00ff;stroke:#ff00ff;stroke-width:0.5;" x="382.000013185" xlink:href="#m9391478f3a" y="147.084584204"/>
     <use style="fill:#ff00ff;stroke:#ff00ff;stroke-width:0.5;" x="394.399966096" xlink:href="#m9391478f3a" y="161.532867507"/>
     <use style="fill:#ff00ff;stroke:#ff00ff;stroke-width:0.5;" x="406.800034822" xlink:href="#m9391478f3a" y="175.442421613"/>
     <use style="fill:#ff00ff;stroke:#ff00ff;stroke-width:0.5;" x="419.199980049" xlink:href="#m9391478f3a" y="183.397315476"/>
     <use style="fill:#ff00ff;stroke:#ff00ff;stroke-width:0.5;" x="431.599991688" xlink:href="#m9391478f3a" y="182.391889036"/>
     <use style="fill:#ff00ff;stroke:#ff00ff;stroke-width:0.5;" x="443.999980226" xlink:href="#m9391478f3a" y="171.646669233"/>
     <use style="fill:#ff00ff;stroke:#ff00ff;stroke-width:0.5;" x="456.400013636" xlink:href="#m9391478f3a" y="151.663623722"/>
     <use style="fill:#ff00ff;stroke:#ff00ff;stroke-width:0.5;" x="468.8000224" xlink:href="#m9391478f3a" y="123.603500381"/>
     <use style="fill:#ff00ff;stroke:#ff00ff;stroke-width:0.5;" x="481.199991467" xlink:href="#m9391478f3a" y="91.3565156598"/>
     <use style="fill:#ff00ff;stroke:#ff00ff;stroke-width:0.5;" x="493.599959814" xlink:href="#m9391478f3a" y="64.7925605002"/>
     <use style="fill:#ff00ff;stroke:#ff00ff;stroke-width:0.5;" x="505.999952258" xlink:href="#m9391478f3a" y="60.6154701873"/>
    </g>
   </g>
   <g id="line2d_5">
    <path clip-path="url(#p188c626f89)" d="M 71.999169 159.112521 
L 84.399993 191.65476 
L 96.799958 241.563156 
L 109.19998 297.814413 
L 121.599988 347.309924 
L 133.999961 379.961435 
L 146.400014 388.8 
L 158.800016 373.024601 
L 171.199997 335.363394 
L 183.599964 282.604065 
L 196.000014 226.522296 
L 208.400028 179.52892 
L 220.800018 152.86709 
L 233.199984 150.550226 
L 245.59999 168.690824 
L 258.000033 197.622975 
L 270.400008 226.688572 
L 282.800025 247.706261 
L 295.200459 256.938613 
L 307.600013 254.599994 
L 320.000039 242.889451 
L 332.399994 224.015103 
L 344.799988 203.121502 
L 357.200027 186.685602 
L 369.600001 181.239522 
L 382.000013 189.643761 
L 394.399966 207.020927 
L 406.800035 227.70672 
L 419.19998 245.653151 
L 431.599992 256.142713 
L 443.99998 255.737575 
L 456.400014 242.433652 
L 468.800022 217.248387 
L 481.199991 186.103413 
L 493.59996 159.636655 
L 505.999952 148.682685 
" style="fill:none;stroke:#008000;stroke-linecap:square;"/>
    <defs>
     <path d="M 0 3 
C 0.795609 3 1.55874 2.683901 2.12132 2.12132 
C 2.683901 1.55874 3 0.795609 3 0 
C 3 -0.795609 2.683901 -1.55874 2.12132 -2.12132 
C 1.55874 -2.683901 0.795609 -3 0 -3 
C -0.795609 -3 -1.55874 -2.683901 -2.12132 -2.12132 
C -2.683901 -1.55874 -3 -0.795609 -3 0 
C -3 0.795609 -2.683901 1.55874 -2.12132 2.12132 
C -1.55874 2.683901 -0.795609 3 0 3 
z
" id="m1af62071b3" style="stroke:#000000;stroke-width:0.5;"/>
    </defs>
    <g clip-path="url(#p188c626f89)">
     <use style="fill:#008000;stroke:#000000;stroke-width:0.5;" x="71.9991686214" xlink:href="#m1af62071b3" y="159.112521168"/>
     <use style="fill:#008000;stroke:#000000;stroke-width:0.5;" x="84.3999931593" xlink:href="#m1af62071b3" y="191.654759749"/>
     <use style="fill:#008000;stroke:#000000;stroke-width:0.5;" x="96.7999579512" xlink:href="#m1af62071b3" y="241.563155799"/>
     <use style="fill:#008000;stroke:#000000;stroke-width:0.5;" x="109.199979945" xlink:href="#m1af62071b3" y="297.814413351"/>
     <use style="fill:#008000;stroke:#000000;stroke-width:0.5;" x="121.599987667" xlink:href="#m1af62071b3" y="347.309923973"/>
     <use style="fill:#008000;stroke:#000000;stroke-width:0.5;" x="133.999961266" xlink:href="#m1af62071b3" y="379.961434943"/>
     <use style="fill:#008000;stroke:#000000;stroke-width:0.5;" x="146.400013864" xlink:href="#m1af62071b3" y="388.8"/>
     <use style="fill:#008000;stroke:#000000;stroke-width:0.5;" x="158.800015665" xlink:href="#m1af62071b3" y="373.02460055"/>
     <use style="fill:#008000;stroke:#000000;stroke-width:0.5;" x="171.199997015" xlink:href="#m1af62071b3" y="335.36339375"/>
     <use style="fill:#008000;stroke:#000000;stroke-width:0.5;" x="183.599964355" xlink:href="#m1af62071b3" y="282.604065413"/>
     <use style="fill:#008000;stroke:#000000;stroke-width:0.5;" x="196.000013513" xlink:href="#m1af62071b3" y="226.522295815"/>
     <use style="fill:#008000;stroke:#000000;stroke-width:0.5;" x="208.400028047" xlink:href="#m1af62071b3" y="179.52892008"/>
     <use style="fill:#008000;stroke:#000000;stroke-width:0.5;" x="220.800018374" xlink:href="#m1af62071b3" y="152.867089541"/>
     <use style="fill:#008000;stroke:#000000;stroke-width:0.5;" x="233.199984156" xlink:href="#m1af62071b3" y="150.550225503"/>
     <use style="fill:#008000;stroke:#000000;stroke-width:0.5;" x="245.599989916" xlink:href="#m1af62071b3" y="168.690824387"/>
     <use style="fill:#008000;stroke:#000000;stroke-width:0.5;" x="258.000032533" xlink:href="#m1af62071b3" y="197.622974752"/>
     <use style="fill:#008000;stroke:#000000;stroke-width:0.5;" x="270.400008485" xlink:href="#m1af62071b3" y="226.688572341"/>
     <use style="fill:#008000;stroke:#000000;stroke-width:0.5;" x="282.800025352" xlink:href="#m1af62071b3" y="247.706261245"/>
     <use style="fill:#008000;stroke:#000000;stroke-width:0.5;" x="295.200458852" xlink:href="#m1af62071b3" y="256.938612617"/>
     <use style="fill:#008000;stroke:#000000;stroke-width:0.5;" x="307.60001276" xlink:href="#m1af62071b3" y="254.599994488"/>
     <use style="fill:#008000;stroke:#000000;stroke-width:0.5;" x="320.00003916" xlink:href="#m1af62071b3" y="242.889451497"/>
     <use style="fill:#008000;stroke:#000000;stroke-width:0.5;" x="332.399993752" xlink:href="#m1af62071b3" y="224.015102692"/>
     <use style="fill:#008000;stroke:#000000;stroke-width:0.5;" x="344.799987908" xlink:href="#m1af62071b3" y="203.121501588"/>
     <use style="fill:#008000;stroke:#000000;stroke-width:0.5;" x="357.200027125" xlink:href="#m1af62071b3" y="186.685601826"/>
     <use style="fill:#008000;stroke:#000000;stroke-width:0.5;" x="369.600000827" xlink:href="#m1af62071b3" y="181.239522498"/>
     <use style="fill:#008000;stroke:#000000;stroke-width:0.5;" x="382.000013185" xlink:href="#m1af62071b3" y="189.643760732"/>
     <use style="fill:#008000;stroke:#000000;stroke-width:0.5;" x="394.399966096" xlink:href="#m1af62071b3" y="207.020926895"/>
     <use style="fill:#008000;stroke:#000000;stroke-width:0.5;" x="406.800034822" xlink:href="#m1af62071b3" y="227.706720446"/>
     <use style="fill:#008000;stroke:#000000;stroke-width:0.5;" x="419.199980049" xlink:href="#m1af62071b3" y="245.653151122"/>
     <use style="fill:#008000;stroke:#000000;stroke-width:0.5;" x="431.599991688" xlink:href="#m1af62071b3" y="256.142713282"/>
     <use style="fill:#008000;stroke:#000000;stroke-width:0.5;" x="443.999980226" xlink:href="#m1af62071b3" y="255.737575401"/>
     <use style="fill:#008000;stroke:#000000;stroke-width:0.5;" x="456.400013636" xlink:href="#m1af62071b3" y="242.433651556"/>
     <use style="fill:#008000;stroke:#000000;stroke-width:0.5;" x="468.8000224" xlink:href="#m1af62071b3" y="217.248387057"/>
     <use style="fill:#008000;stroke:#000000;stroke-width:0.5;" x="481.199991467" xlink:href="#m1af62071b3" y="186.103412753"/>
     <use style="fill:#008000;stroke:#000000;stroke-width:0.5;" x="493.599959814" xlink:href="#m1af62071b3" y="159.636654506"/>
     <use style="fill:#008000;stroke:#000000;stroke-width:0.5;" x="505.999952258" xlink:href="#m1af62071b3" y="148.682685046"/>
    </g>
   </g>
   <g id="patch_3">
    <path d="M 518.4 388.8 
L 518.4 43.2 
" style="fill:none;stroke:#000000;stroke-linecap:square;stroke-linejoin:miter;"/>
   </g>
   <g id="patch_4">
    <path d="M 72 43.2 
L 518.4 43.2 
" style="fill:none;stroke:#000000;stroke-linecap:square;stroke-linejoin:miter;"/>
   </g>
   <g id="patch_5">
    <path d="M 72 388.8 
L 72 43.2 
" style="fill:none;stroke:#000000;stroke-linecap:square;stroke-linejoin:miter;"/>
   </g>
   <g id="patch_6">
    <path d="M 72 388.8 
L 518.4 388.8 
" style="fill:none;stroke:#000000;stroke-linecap:square;stroke-linejoin:miter;"/>
   </g>
   <g id="matplotlib.axis_1">
    <g id="xtick_1">
     <g id="line2d_6">
      <defs>
       <path d="M 0 0 
L 0 -4 
" id="mc77305ec56" style="stroke:#000000;stroke-width:0.5;"/>
      </defs>
      <g>
       <use style="stroke:#000000;stroke-width:0.5;" x="72.0" xlink:href="#mc77305ec56" y="388.8"/>
      </g>
     </g>
     <g id="line2d_7">
      <defs>
       <path d="M 0 0 
L 0 4 
" id="ma9fcf452e3" style="stroke:#000000;stroke-width:0.5;"/>
      </defs>
      <g>
       <use style="stroke:#000000;stroke-width:0.5;" x="72.0" xlink:href="#ma9fcf452e3" y="43.2"/>
      </g>
     </g>
     <g id="text_1">
      <!-- −180 -->
      <defs>
       <path d="M 31.78125 66.40625 
Q 24.171875 66.40625 20.328125 58.90625 
Q 16.5 51.421875 16.5 36.375 
Q 16.5 21.390625 20.328125 13.890625 
Q 24.171875 6.390625 31.78125 6.390625 
Q 39.453125 6.390625 43.28125 13.890625 
Q 47.125 21.390625 47.125 36.375 
Q 47.125 51.421875 43.28125 58.90625 
Q 39.453125 66.40625 31.78125 66.40625 
M 31.78125 74.21875 
Q 44.046875 74.21875 50.515625 64.515625 
Q 56.984375 54.828125 56.984375 36.375 
Q 56.984375 17.96875 50.515625 8.265625 
Q 44.046875 -1.421875 31.78125 -1.421875 
Q 19.53125 -1.421875 13.0625 8.265625 
Q 6.59375 17.96875 6.59375 36.375 
Q 6.59375 54.828125 13.0625 64.515625 
Q 19.53125 74.21875 31.78125 74.21875 
" id="BitstreamVeraSans-Roman-30"/>
       <path d="M 31.78125 34.625 
Q 24.75 34.625 20.71875 30.859375 
Q 16.703125 27.09375 16.703125 20.515625 
Q 16.703125 13.921875 20.71875 10.15625 
Q 24.75 6.390625 31.78125 6.390625 
Q 38.8125 6.390625 42.859375 10.171875 
Q 46.921875 13.96875 46.921875 20.515625 
Q 46.921875 27.09375 42.890625 30.859375 
Q 38.875 34.625 31.78125 34.625 
M 21.921875 38.8125 
Q 15.578125 40.375 12.03125 44.71875 
Q 8.5 49.078125 8.5 55.328125 
Q 8.5 64.0625 14.71875 69.140625 
Q 20.953125 74.21875 31.78125 74.21875 
Q 42.671875 74.21875 48.875 69.140625 
Q 55.078125 64.0625 55.078125 55.328125 
Q 55.078125 49.078125 51.53125 44.71875 
Q 48 40.375 41.703125 38.8125 
Q 48.828125 37.15625 52.796875 32.3125 
Q 56.78125 27.484375 56.78125 20.515625 
Q 56.78125 9.90625 50.3125 4.234375 
Q 43.84375 -1.421875 31.78125 -1.421875 
Q 19.734375 -1.421875 13.25 4.234375 
Q 6.78125 9.90625 6.78125 20.515625 
Q 6.78125 27.484375 10.78125 32.3125 
Q 14.796875 37.15625 21.921875 38.8125 
M 18.3125 54.390625 
Q 18.3125 48.734375 21.84375 45.5625 
Q 25.390625 42.390625 31.78125 42.390625 
Q 38.140625 42.390625 41.71875 45.5625 
Q 45.3125 48.734375 45.3125 54.390625 
Q 45.3125 60.0625 41.71875 63.234375 
Q 38.140625 66.40625 31.78125 66.40625 
Q 25.390625 66.40625 21.84375 63.234375 
Q 18.3125 60.0625 18.3125 54.390625 
" id="BitstreamVeraSans-Roman-38"/>
       <path d="M 12.40625 8.296875 
L 28.515625 8.296875 
L 28.515625 63.921875 
L 10.984375 60.40625 
L 10.984375 69.390625 
L 28.421875 72.90625 
L 38.28125 72.90625 
L 38.28125 8.296875 
L 54.390625 8.296875 
L 54.390625 0 
L 12.40625 0 
z
" id="BitstreamVeraSans-Roman-31"/>
       <path d="M 10.59375 35.5 
L 73.1875 35.5 
L 73.1875 27.203125 
L 10.59375 27.203125 
z
" id="BitstreamVeraSans-Roman-2212"/>
      </defs>
      <g transform="translate(55.5196875 401.918125)scale(0.12 -0.12)">
       <use xlink:href="#BitstreamVeraSans-Roman-2212"/>
       <use x="83.7890625" xlink:href="#BitstreamVeraSans-Roman-31"/>
       <use x="147.412109375" xlink:href="#BitstreamVeraSans-Roman-38"/>
       <use x="211.03515625" xlink:href="#BitstreamVeraSans-Roman-30"/>
      </g>
     </g>
    </g>
    <g id="xtick_2">
     <g id="line2d_8">
      <g>
       <use style="stroke:#000000;stroke-width:0.5;" x="127.8" xlink:href="#mc77305ec56" y="388.8"/>
      </g>
     </g>
     <g id="line2d_9">
      <g>
       <use style="stroke:#000000;stroke-width:0.5;" x="127.8" xlink:href="#ma9fcf452e3" y="43.2"/>
      </g>
     </g>
     <g id="text_2">
      <!-- −135 -->
      <defs>
       <path d="M 10.796875 72.90625 
L 49.515625 72.90625 
L 49.515625 64.59375 
L 19.828125 64.59375 
L 19.828125 46.734375 
Q 21.96875 47.46875 24.109375 47.828125 
Q 26.265625 48.1875 28.421875 48.1875 
Q 40.625 48.1875 47.75 41.5 
Q 54.890625 34.8125 54.890625 23.390625 
Q 54.890625 11.625 47.5625 5.09375 
Q 40.234375 -1.421875 26.90625 -1.421875 
Q 22.3125 -1.421875 17.546875 -0.640625 
Q 12.796875 0.140625 7.71875 1.703125 
L 7.71875 11.625 
Q 12.109375 9.234375 16.796875 8.0625 
Q 21.484375 6.890625 26.703125 6.890625 
Q 35.15625 6.890625 40.078125 11.328125 
Q 45.015625 15.765625 45.015625 23.390625 
Q 45.015625 31 40.078125 35.4375 
Q 35.15625 39.890625 26.703125 39.890625 
Q 22.75 39.890625 18.8125 39.015625 
Q 14.890625 38.140625 10.796875 36.28125 
z
" id="BitstreamVeraSans-Roman-35"/>
       <path d="M 40.578125 39.3125 
Q 47.65625 37.796875 51.625 33 
Q 55.609375 28.21875 55.609375 21.1875 
Q 55.609375 10.40625 48.1875 4.484375 
Q 40.765625 -1.421875 27.09375 -1.421875 
Q 22.515625 -1.421875 17.65625 -0.515625 
Q 12.796875 0.390625 7.625 2.203125 
L 7.625 11.71875 
Q 11.71875 9.328125 16.59375 8.109375 
Q 21.484375 6.890625 26.8125 6.890625 
Q 36.078125 6.890625 40.9375 10.546875 
Q 45.796875 14.203125 45.796875 21.1875 
Q 45.796875 27.640625 41.28125 31.265625 
Q 36.765625 34.90625 28.71875 34.90625 
L 20.21875 34.90625 
L 20.21875 43.015625 
L 29.109375 43.015625 
Q 36.375 43.015625 40.234375 45.921875 
Q 44.09375 48.828125 44.09375 54.296875 
Q 44.09375 59.90625 40.109375 62.90625 
Q 36.140625 65.921875 28.71875 65.921875 
Q 24.65625 65.921875 20.015625 65.03125 
Q 15.375 64.15625 9.8125 62.3125 
L 9.8125 71.09375 
Q 15.4375 72.65625 20.34375 73.4375 
Q 25.25 74.21875 29.59375 74.21875 
Q 40.828125 74.21875 47.359375 69.109375 
Q 53.90625 64.015625 53.90625 55.328125 
Q 53.90625 49.265625 50.4375 45.09375 
Q 46.96875 40.921875 40.578125 39.3125 
" id="BitstreamVeraSans-Roman-33"/>
      </defs>
      <g transform="translate(111.3196875 401.918125)scale(0.12 -0.12)">
       <use xlink:href="#BitstreamVeraSans-Roman-2212"/>
       <use x="83.7890625" xlink:href="#BitstreamVeraSans-Roman-31"/>
       <use x="147.412109375" xlink:href="#BitstreamVeraSans-Roman-33"/>
       <use x="211.03515625" xlink:href="#BitstreamVeraSans-Roman-35"/>
      </g>
     </g>
    </g>
    <g id="xtick_3">
     <g id="line2d_10">
      <g>
       <use style="stroke:#000000;stroke-width:0.5;" x="183.6" xlink:href="#mc77305ec56" y="388.8"/>
      </g>
     </g>
     <g id="line2d_11">
      <g>
       <use style="stroke:#000000;stroke-width:0.5;" x="183.6" xlink:href="#ma9fcf452e3" y="43.2"/>
      </g>
     </g>
     <g id="text_3">
      <!-- −90 -->
      <defs>
       <path d="M 10.984375 1.515625 
L 10.984375 10.5 
Q 14.703125 8.734375 18.5 7.8125 
Q 22.3125 6.890625 25.984375 6.890625 
Q 35.75 6.890625 40.890625 13.453125 
Q 46.046875 20.015625 46.78125 33.40625 
Q 43.953125 29.203125 39.59375 26.953125 
Q 35.25 24.703125 29.984375 24.703125 
Q 19.046875 24.703125 12.671875 31.3125 
Q 6.296875 37.9375 6.296875 49.421875 
Q 6.296875 60.640625 12.9375 67.421875 
Q 19.578125 74.21875 30.609375 74.21875 
Q 43.265625 74.21875 49.921875 64.515625 
Q 56.59375 54.828125 56.59375 36.375 
Q 56.59375 19.140625 48.40625 8.859375 
Q 40.234375 -1.421875 26.421875 -1.421875 
Q 22.703125 -1.421875 18.890625 -0.6875 
Q 15.09375 0.046875 10.984375 1.515625 
M 30.609375 32.421875 
Q 37.25 32.421875 41.125 36.953125 
Q 45.015625 41.5 45.015625 49.421875 
Q 45.015625 57.28125 41.125 61.84375 
Q 37.25 66.40625 30.609375 66.40625 
Q 23.96875 66.40625 20.09375 61.84375 
Q 16.21875 57.28125 16.21875 49.421875 
Q 16.21875 41.5 20.09375 36.953125 
Q 23.96875 32.421875 30.609375 32.421875 
" id="BitstreamVeraSans-Roman-39"/>
      </defs>
      <g transform="translate(170.9371875 401.918125)scale(0.12 -0.12)">
       <use xlink:href="#BitstreamVeraSans-Roman-2212"/>
       <use x="83.7890625" xlink:href="#BitstreamVeraSans-Roman-39"/>
       <use x="147.412109375" xlink:href="#BitstreamVeraSans-Roman-30"/>
      </g>
     </g>
    </g>
    <g id="xtick_4">
     <g id="line2d_12">
      <g>
       <use style="stroke:#000000;stroke-width:0.5;" x="239.4" xlink:href="#mc77305ec56" y="388.8"/>
      </g>
     </g>
     <g id="line2d_13">
      <g>
       <use style="stroke:#000000;stroke-width:0.5;" x="239.4" xlink:href="#ma9fcf452e3" y="43.2"/>
      </g>
     </g>
     <g id="text_4">
      <!-- −45 -->
      <defs>
       <path d="M 37.796875 64.3125 
L 12.890625 25.390625 
L 37.796875 25.390625 
z
M 35.203125 72.90625 
L 47.609375 72.90625 
L 47.609375 25.390625 
L 58.015625 25.390625 
L 58.015625 17.1875 
L 47.609375 17.1875 
L 47.609375 0 
L 37.796875 0 
L 37.796875 17.1875 
L 4.890625 17.1875 
L 4.890625 26.703125 
z
" id="BitstreamVeraSans-Roman-34"/>
      </defs>
      <g transform="translate(226.7371875 401.918125)scale(0.12 -0.12)">
       <use xlink:href="#BitstreamVeraSans-Roman-2212"/>
       <use x="83.7890625" xlink:href="#BitstreamVeraSans-Roman-34"/>
       <use x="147.412109375" xlink:href="#BitstreamVeraSans-Roman-35"/>
      </g>
     </g>
    </g>
    <g id="xtick_5">
     <g id="line2d_14">
      <g>
       <use style="stroke:#000000;stroke-width:0.5;" x="295.2" xlink:href="#mc77305ec56" y="388.8"/>
      </g>
     </g>
     <g id="line2d_15">
      <g>
       <use style="stroke:#000000;stroke-width:0.5;" x="295.2" xlink:href="#ma9fcf452e3" y="43.2"/>
      </g>
     </g>
     <g id="text_5">
      <!-- 0 -->
      <g transform="translate(291.3825 401.918125)scale(0.12 -0.12)">
       <use xlink:href="#BitstreamVeraSans-Roman-30"/>
      </g>
     </g>
    </g>
    <g id="xtick_6">
     <g id="line2d_16">
      <g>
       <use style="stroke:#000000;stroke-width:0.5;" x="351.0" xlink:href="#mc77305ec56" y="388.8"/>
      </g>
     </g>
     <g id="line2d_17">
      <g>
       <use style="stroke:#000000;stroke-width:0.5;" x="351.0" xlink:href="#ma9fcf452e3" y="43.2"/>
      </g>
     </g>
     <g id="text_6">
      <!-- 45 -->
      <g transform="translate(343.365 401.918125)scale(0.12 -0.12)">
       <use xlink:href="#BitstreamVeraSans-Roman-34"/>
       <use x="63.623046875" xlink:href="#BitstreamVeraSans-Roman-35"/>
      </g>
     </g>
    </g>
    <g id="xtick_7">
     <g id="line2d_18">
      <g>
       <use style="stroke:#000000;stroke-width:0.5;" x="406.8" xlink:href="#mc77305ec56" y="388.8"/>
      </g>
     </g>
     <g id="line2d_19">
      <g>
       <use style="stroke:#000000;stroke-width:0.5;" x="406.8" xlink:href="#ma9fcf452e3" y="43.2"/>
      </g>
     </g>
     <g id="text_7">
      <!-- 90 -->
      <g transform="translate(399.165 401.918125)scale(0.12 -0.12)">
       <use xlink:href="#BitstreamVeraSans-Roman-39"/>
       <use x="63.623046875" xlink:href="#BitstreamVeraSans-Roman-30"/>
      </g>
     </g>
    </g>
    <g id="xtick_8">
     <g id="line2d_20">
      <g>
       <use style="stroke:#000000;stroke-width:0.5;" x="462.6" xlink:href="#mc77305ec56" y="388.8"/>
      </g>
     </g>
     <g id="line2d_21">
      <g>
       <use style="stroke:#000000;stroke-width:0.5;" x="462.6" xlink:href="#ma9fcf452e3" y="43.2"/>
      </g>
     </g>
     <g id="text_8">
      <!-- 135 -->
      <g transform="translate(451.1475 401.918125)scale(0.12 -0.12)">
       <use xlink:href="#BitstreamVeraSans-Roman-31"/>
       <use x="63.623046875" xlink:href="#BitstreamVeraSans-Roman-33"/>
       <use x="127.24609375" xlink:href="#BitstreamVeraSans-Roman-35"/>
      </g>
     </g>
    </g>
    <g id="xtick_9">
     <g id="line2d_22">
      <g>
       <use style="stroke:#000000;stroke-width:0.5;" x="518.4" xlink:href="#mc77305ec56" y="388.8"/>
      </g>
     </g>
     <g id="line2d_23">
      <g>
       <use style="stroke:#000000;stroke-width:0.5;" x="518.4" xlink:href="#ma9fcf452e3" y="43.2"/>
      </g>
     </g>
     <g id="text_9">
      <!-- 180 -->
      <g transform="translate(506.9475 401.918125)scale(0.12 -0.12)">
       <use xlink:href="#BitstreamVeraSans-Roman-31"/>
       <use x="63.623046875" xlink:href="#BitstreamVeraSans-Roman-38"/>
       <use x="127.24609375" xlink:href="#BitstreamVeraSans-Roman-30"/>
      </g>
     </g>
    </g>
    <g id="text_10">
     <!-- Phi -->
     <defs>
      <path d="M 19.671875 64.796875 
L 19.671875 37.40625 
L 32.078125 37.40625 
Q 38.96875 37.40625 42.71875 40.96875 
Q 46.484375 44.53125 46.484375 51.125 
Q 46.484375 57.671875 42.71875 61.234375 
Q 38.96875 64.796875 32.078125 64.796875 
z
M 9.8125 72.90625 
L 32.078125 72.90625 
Q 44.34375 72.90625 50.609375 67.359375 
Q 56.890625 61.8125 56.890625 51.125 
Q 56.890625 40.328125 50.609375 34.8125 
Q 44.34375 29.296875 32.078125 29.296875 
L 19.671875 29.296875 
L 19.671875 0 
L 9.8125 0 
z
" id="BitstreamVeraSans-Roman-50"/>
      <path d="M 54.890625 33.015625 
L 54.890625 0 
L 45.90625 0 
L 45.90625 32.71875 
Q 45.90625 40.484375 42.875 44.328125 
Q 39.84375 48.1875 33.796875 48.1875 
Q 26.515625 48.1875 22.3125 43.546875 
Q 18.109375 38.921875 18.109375 30.90625 
L 18.109375 0 
L 9.078125 0 
L 9.078125 75.984375 
L 18.109375 75.984375 
L 18.109375 46.1875 
Q 21.34375 51.125 25.703125 53.5625 
Q 30.078125 56 35.796875 56 
Q 45.21875 56 50.046875 50.171875 
Q 54.890625 44.34375 54.890625 33.015625 
" id="BitstreamVeraSans-Roman-68"/>
      <path d="M 9.421875 54.6875 
L 18.40625 54.6875 
L 18.40625 0 
L 9.421875 0 
z
M 9.421875 75.984375 
L 18.40625 75.984375 
L 18.40625 64.59375 
L 9.421875 64.59375 
z
" id="BitstreamVeraSans-Roman-69"/>
     </defs>
     <g transform="translate(286.1128125 418.531875)scale(0.12 -0.12)">
      <use xlink:href="#BitstreamVeraSans-Roman-50"/>
      <use x="60.302734375" xlink:href="#BitstreamVeraSans-Roman-68"/>
      <use x="123.681640625" xlink:href="#BitstreamVeraSans-Roman-69"/>
     </g>
    </g>
   </g>
   <g id="matplotlib.axis_2">
    <g id="ytick_1">
     <g id="line2d_24">
      <defs>
       <path d="M 0 0 
L 4 0 
" id="m17c9144d69" style="stroke:#000000;stroke-width:0.5;"/>
      </defs>
      <g>
       <use style="stroke:#000000;stroke-width:0.5;" x="72.0" xlink:href="#m17c9144d69" y="388.8"/>
      </g>
     </g>
     <g id="line2d_25">
      <defs>
       <path d="M 0 0 
L -4 0 
" id="m6757a31c2c" style="stroke:#000000;stroke-width:0.5;"/>
      </defs>
      <g>
       <use style="stroke:#000000;stroke-width:0.5;" x="518.4" xlink:href="#m6757a31c2c" y="388.8"/>
      </g>
     </g>
     <g id="text_11">
      <!-- 0.0 -->
      <defs>
       <path d="M 10.6875 12.40625 
L 21 12.40625 
L 21 0 
L 10.6875 0 
z
" id="BitstreamVeraSans-Roman-2e"/>
      </defs>
      <g transform="translate(48.91625 392.11125)scale(0.12 -0.12)">
       <use xlink:href="#BitstreamVeraSans-Roman-30"/>
       <use x="63.623046875" xlink:href="#BitstreamVeraSans-Roman-2e"/>
       <use x="95.41015625" xlink:href="#BitstreamVeraSans-Roman-30"/>
      </g>
     </g>
    </g>
    <g id="ytick_2">
     <g id="line2d_26">
      <g>
       <use style="stroke:#000000;stroke-width:0.5;" x="72.0" xlink:href="#m17c9144d69" y="331.2"/>
      </g>
     </g>
     <g id="line2d_27">
      <g>
       <use style="stroke:#000000;stroke-width:0.5;" x="518.4" xlink:href="#m6757a31c2c" y="331.2"/>
      </g>
     </g>
     <g id="text_12">
      <!-- 0.5 -->
      <g transform="translate(48.91625 334.51125)scale(0.12 -0.12)">
       <use xlink:href="#BitstreamVeraSans-Roman-30"/>
       <use x="63.623046875" xlink:href="#BitstreamVeraSans-Roman-2e"/>
       <use x="95.41015625" xlink:href="#BitstreamVeraSans-Roman-35"/>
      </g>
     </g>
    </g>
    <g id="ytick_3">
     <g id="line2d_28">
      <g>
       <use style="stroke:#000000;stroke-width:0.5;" x="72.0" xlink:href="#m17c9144d69" y="273.6"/>
      </g>
     </g>
     <g id="line2d_29">
      <g>
       <use style="stroke:#000000;stroke-width:0.5;" x="518.4" xlink:href="#m6757a31c2c" y="273.6"/>
      </g>
     </g>
     <g id="text_13">
      <!-- 1.0 -->
      <g transform="translate(48.91625 276.91125)scale(0.12 -0.12)">
       <use xlink:href="#BitstreamVeraSans-Roman-31"/>
       <use x="63.623046875" xlink:href="#BitstreamVeraSans-Roman-2e"/>
       <use x="95.41015625" xlink:href="#BitstreamVeraSans-Roman-30"/>
      </g>
     </g>
    </g>
    <g id="ytick_4">
     <g id="line2d_30">
      <g>
       <use style="stroke:#000000;stroke-width:0.5;" x="72.0" xlink:href="#m17c9144d69" y="216.0"/>
      </g>
     </g>
     <g id="line2d_31">
      <g>
       <use style="stroke:#000000;stroke-width:0.5;" x="518.4" xlink:href="#m6757a31c2c" y="216.0"/>
      </g>
     </g>
     <g id="text_14">
      <!-- 1.5 -->
      <g transform="translate(48.91625 219.31125)scale(0.12 -0.12)">
       <use xlink:href="#BitstreamVeraSans-Roman-31"/>
       <use x="63.623046875" xlink:href="#BitstreamVeraSans-Roman-2e"/>
       <use x="95.41015625" xlink:href="#BitstreamVeraSans-Roman-35"/>
      </g>
     </g>
    </g>
    <g id="ytick_5">
     <g id="line2d_32">
      <g>
       <use style="stroke:#000000;stroke-width:0.5;" x="72.0" xlink:href="#m17c9144d69" y="158.4"/>
      </g>
     </g>
     <g id="line2d_33">
      <g>
       <use style="stroke:#000000;stroke-width:0.5;" x="518.4" xlink:href="#m6757a31c2c" y="158.4"/>
      </g>
     </g>
     <g id="text_15">
      <!-- 2.0 -->
      <defs>
       <path d="M 19.1875 8.296875 
L 53.609375 8.296875 
L 53.609375 0 
L 7.328125 0 
L 7.328125 8.296875 
Q 12.9375 14.109375 22.625 23.890625 
Q 32.328125 33.6875 34.8125 36.53125 
Q 39.546875 41.84375 41.421875 45.53125 
Q 43.3125 49.21875 43.3125 52.78125 
Q 43.3125 58.59375 39.234375 62.25 
Q 35.15625 65.921875 28.609375 65.921875 
Q 23.96875 65.921875 18.8125 64.3125 
Q 13.671875 62.703125 7.8125 59.421875 
L 7.8125 69.390625 
Q 13.765625 71.78125 18.9375 73 
Q 24.125 74.21875 28.421875 74.21875 
Q 39.75 74.21875 46.484375 68.546875 
Q 53.21875 62.890625 53.21875 53.421875 
Q 53.21875 48.921875 51.53125 44.890625 
Q 49.859375 40.875 45.40625 35.40625 
Q 44.1875 33.984375 37.640625 27.21875 
Q 31.109375 20.453125 19.1875 8.296875 
" id="BitstreamVeraSans-Roman-32"/>
      </defs>
      <g transform="translate(48.91625 161.71125)scale(0.12 -0.12)">
       <use xlink:href="#BitstreamVeraSans-Roman-32"/>
       <use x="63.623046875" xlink:href="#BitstreamVeraSans-Roman-2e"/>
       <use x="95.41015625" xlink:href="#BitstreamVeraSans-Roman-30"/>
      </g>
     </g>
    </g>
    <g id="ytick_6">
     <g id="line2d_34">
      <g>
       <use style="stroke:#000000;stroke-width:0.5;" x="72.0" xlink:href="#m17c9144d69" y="100.8"/>
      </g>
     </g>
     <g id="line2d_35">
      <g>
       <use style="stroke:#000000;stroke-width:0.5;" x="518.4" xlink:href="#m6757a31c2c" y="100.8"/>
      </g>
     </g>
     <g id="text_16">
      <!-- 2.5 -->
      <g transform="translate(48.91625 104.11125)scale(0.12 -0.12)">
       <use xlink:href="#BitstreamVeraSans-Roman-32"/>
       <use x="63.623046875" xlink:href="#BitstreamVeraSans-Roman-2e"/>
       <use x="95.41015625" xlink:href="#BitstreamVeraSans-Roman-35"/>
      </g>
     </g>
    </g>
    <g id="ytick_7">
     <g id="line2d_36">
      <g>
       <use style="stroke:#000000;stroke-width:0.5;" x="72.0" xlink:href="#m17c9144d69" y="43.2"/>
      </g>
     </g>
     <g id="line2d_37">
      <g>
       <use style="stroke:#000000;stroke-width:0.5;" x="518.4" xlink:href="#m6757a31c2c" y="43.2"/>
      </g>
     </g>
     <g id="text_17">
      <!-- 3.0 -->
      <g transform="translate(48.91625 46.51125)scale(0.12 -0.12)">
       <use xlink:href="#BitstreamVeraSans-Roman-33"/>
       <use x="63.623046875" xlink:href="#BitstreamVeraSans-Roman-2e"/>
       <use x="95.41015625" xlink:href="#BitstreamVeraSans-Roman-30"/>
      </g>
     </g>
    </g>
    <g id="text_18">
     <!-- kcal/mol -->
     <defs>
      <path d="M 25.390625 72.90625 
L 33.6875 72.90625 
L 8.296875 -9.28125 
L 0 -9.28125 
z
" id="BitstreamVeraSans-Roman-2f"/>
      <path d="M 34.28125 27.484375 
Q 23.390625 27.484375 19.1875 25 
Q 14.984375 22.515625 14.984375 16.5 
Q 14.984375 11.71875 18.140625 8.90625 
Q 21.296875 6.109375 26.703125 6.109375 
Q 34.1875 6.109375 38.703125 11.40625 
Q 43.21875 16.703125 43.21875 25.484375 
L 43.21875 27.484375 
z
M 52.203125 31.203125 
L 52.203125 0 
L 43.21875 0 
L 43.21875 8.296875 
Q 40.140625 3.328125 35.546875 0.953125 
Q 30.953125 -1.421875 24.3125 -1.421875 
Q 15.921875 -1.421875 10.953125 3.296875 
Q 6 8.015625 6 15.921875 
Q 6 25.140625 12.171875 29.828125 
Q 18.359375 34.515625 30.609375 34.515625 
L 43.21875 34.515625 
L 43.21875 35.40625 
Q 43.21875 41.609375 39.140625 45 
Q 35.0625 48.390625 27.6875 48.390625 
Q 23 48.390625 18.546875 47.265625 
Q 14.109375 46.140625 10.015625 43.890625 
L 10.015625 52.203125 
Q 14.9375 54.109375 19.578125 55.046875 
Q 24.21875 56 28.609375 56 
Q 40.484375 56 46.34375 49.84375 
Q 52.203125 43.703125 52.203125 31.203125 
" id="BitstreamVeraSans-Roman-61"/>
      <path d="M 9.421875 75.984375 
L 18.40625 75.984375 
L 18.40625 0 
L 9.421875 0 
z
" id="BitstreamVeraSans-Roman-6c"/>
      <path d="M 30.609375 48.390625 
Q 23.390625 48.390625 19.1875 42.75 
Q 14.984375 37.109375 14.984375 27.296875 
Q 14.984375 17.484375 19.15625 11.84375 
Q 23.34375 6.203125 30.609375 6.203125 
Q 37.796875 6.203125 41.984375 11.859375 
Q 46.1875 17.53125 46.1875 27.296875 
Q 46.1875 37.015625 41.984375 42.703125 
Q 37.796875 48.390625 30.609375 48.390625 
M 30.609375 56 
Q 42.328125 56 49.015625 48.375 
Q 55.71875 40.765625 55.71875 27.296875 
Q 55.71875 13.875 49.015625 6.21875 
Q 42.328125 -1.421875 30.609375 -1.421875 
Q 18.84375 -1.421875 12.171875 6.21875 
Q 5.515625 13.875 5.515625 27.296875 
Q 5.515625 40.765625 12.171875 48.375 
Q 18.84375 56 30.609375 56 
" id="BitstreamVeraSans-Roman-6f"/>
      <path d="M 48.78125 52.59375 
L 48.78125 44.1875 
Q 44.96875 46.296875 41.140625 47.34375 
Q 37.3125 48.390625 33.40625 48.390625 
Q 24.65625 48.390625 19.8125 42.84375 
Q 14.984375 37.3125 14.984375 27.296875 
Q 14.984375 17.28125 19.8125 11.734375 
Q 24.65625 6.203125 33.40625 6.203125 
Q 37.3125 6.203125 41.140625 7.25 
Q 44.96875 8.296875 48.78125 10.40625 
L 48.78125 2.09375 
Q 45.015625 0.34375 40.984375 -0.53125 
Q 36.96875 -1.421875 32.421875 -1.421875 
Q 20.0625 -1.421875 12.78125 6.34375 
Q 5.515625 14.109375 5.515625 27.296875 
Q 5.515625 40.671875 12.859375 48.328125 
Q 20.21875 56 33.015625 56 
Q 37.15625 56 41.109375 55.140625 
Q 45.0625 54.296875 48.78125 52.59375 
" id="BitstreamVeraSans-Roman-63"/>
      <path d="M 9.078125 75.984375 
L 18.109375 75.984375 
L 18.109375 31.109375 
L 44.921875 54.6875 
L 56.390625 54.6875 
L 27.390625 29.109375 
L 57.625 0 
L 45.90625 0 
L 18.109375 26.703125 
L 18.109375 0 
L 9.078125 0 
z
" id="BitstreamVeraSans-Roman-6b"/>
      <path d="M 52 44.1875 
Q 55.375 50.25 60.0625 53.125 
Q 64.75 56 71.09375 56 
Q 79.640625 56 84.28125 50.015625 
Q 88.921875 44.046875 88.921875 33.015625 
L 88.921875 0 
L 79.890625 0 
L 79.890625 32.71875 
Q 79.890625 40.578125 77.09375 44.375 
Q 74.3125 48.1875 68.609375 48.1875 
Q 61.625 48.1875 57.5625 43.546875 
Q 53.515625 38.921875 53.515625 30.90625 
L 53.515625 0 
L 44.484375 0 
L 44.484375 32.71875 
Q 44.484375 40.625 41.703125 44.40625 
Q 38.921875 48.1875 33.109375 48.1875 
Q 26.21875 48.1875 22.15625 43.53125 
Q 18.109375 38.875 18.109375 30.90625 
L 18.109375 0 
L 9.078125 0 
L 9.078125 54.6875 
L 18.109375 54.6875 
L 18.109375 46.1875 
Q 21.1875 51.21875 25.484375 53.609375 
Q 29.78125 56 35.6875 56 
Q 41.65625 56 45.828125 52.96875 
Q 50 49.953125 52 44.1875 
" id="BitstreamVeraSans-Roman-6d"/>
     </defs>
     <g transform="translate(41.420625 241.3209375)rotate(-90.0)scale(0.12 -0.12)">
      <use xlink:href="#BitstreamVeraSans-Roman-6b"/>
      <use x="57.91015625" xlink:href="#BitstreamVeraSans-Roman-63"/>
      <use x="112.890625" xlink:href="#BitstreamVeraSans-Roman-61"/>
      <use x="174.169921875" xlink:href="#BitstreamVeraSans-Roman-6c"/>
      <use x="201.953125" xlink:href="#BitstreamVeraSans-Roman-2f"/>
      <use x="235.64453125" xlink:href="#BitstreamVeraSans-Roman-6d"/>
      <use x="333.056640625" xlink:href="#BitstreamVeraSans-Roman-6f"/>
      <use x="394.23828125" xlink:href="#BitstreamVeraSans-Roman-6c"/>
     </g>
    </g>
   </g>
   <g id="text_19">
    <!-- O1-C1-C2-H2 -->
    <defs>
     <path d="M 64.40625 67.28125 
L 64.40625 56.890625 
Q 59.421875 61.53125 53.78125 63.8125 
Q 48.140625 66.109375 41.796875 66.109375 
Q 29.296875 66.109375 22.65625 58.46875 
Q 16.015625 50.828125 16.015625 36.375 
Q 16.015625 21.96875 22.65625 14.328125 
Q 29.296875 6.6875 41.796875 6.6875 
Q 48.140625 6.6875 53.78125 8.984375 
Q 59.421875 11.28125 64.40625 15.921875 
L 64.40625 5.609375 
Q 59.234375 2.09375 53.4375 0.328125 
Q 47.65625 -1.421875 41.21875 -1.421875 
Q 24.65625 -1.421875 15.125 8.703125 
Q 5.609375 18.84375 5.609375 36.375 
Q 5.609375 53.953125 15.125 64.078125 
Q 24.65625 74.21875 41.21875 74.21875 
Q 47.75 74.21875 53.53125 72.484375 
Q 59.328125 70.75 64.40625 67.28125 
" id="BitstreamVeraSans-Roman-43"/>
     <path d="M 4.890625 31.390625 
L 31.203125 31.390625 
L 31.203125 23.390625 
L 4.890625 23.390625 
z
" id="BitstreamVeraSans-Roman-2d"/>
     <path d="M 9.8125 72.90625 
L 19.671875 72.90625 
L 19.671875 43.015625 
L 55.515625 43.015625 
L 55.515625 72.90625 
L 65.375 72.90625 
L 65.375 0 
L 55.515625 0 
L 55.515625 34.71875 
L 19.671875 34.71875 
L 19.671875 0 
L 9.8125 0 
z
" id="BitstreamVeraSans-Roman-48"/>
     <path d="M 39.40625 66.21875 
Q 28.65625 66.21875 22.328125 58.203125 
Q 16.015625 50.203125 16.015625 36.375 
Q 16.015625 22.609375 22.328125 14.59375 
Q 28.65625 6.59375 39.40625 6.59375 
Q 50.140625 6.59375 56.421875 14.59375 
Q 62.703125 22.609375 62.703125 36.375 
Q 62.703125 50.203125 56.421875 58.203125 
Q 50.140625 66.21875 39.40625 66.21875 
M 39.40625 74.21875 
Q 54.734375 74.21875 63.90625 63.9375 
Q 73.09375 53.65625 73.09375 36.375 
Q 73.09375 19.140625 63.90625 8.859375 
Q 54.734375 -1.421875 39.40625 -1.421875 
Q 24.03125 -1.421875 14.8125 8.828125 
Q 5.609375 19.09375 5.609375 36.375 
Q 5.609375 53.65625 14.8125 63.9375 
Q 24.03125 74.21875 39.40625 74.21875 
" id="BitstreamVeraSans-Roman-4f"/>
    </defs>
    <g transform="translate(247.9455 38.2)scale(0.144 -0.144)">
     <use xlink:href="#BitstreamVeraSans-Roman-4f"/>
     <use x="78.7109375" xlink:href="#BitstreamVeraSans-Roman-31"/>
     <use x="142.333984375" xlink:href="#BitstreamVeraSans-Roman-2d"/>
     <use x="178.41796875" xlink:href="#BitstreamVeraSans-Roman-43"/>
     <use x="248.2421875" xlink:href="#BitstreamVeraSans-Roman-31"/>
     <use x="311.865234375" xlink:href="#BitstreamVeraSans-Roman-2d"/>
     <use x="347.94921875" xlink:href="#BitstreamVeraSans-Roman-43"/>
     <use x="417.7734375" xlink:href="#BitstreamVeraSans-Roman-32"/>
     <use x="481.396484375" xlink:href="#BitstreamVeraSans-Roman-2d"/>
     <use x="517.48046875" xlink:href="#BitstreamVeraSans-Roman-48"/>
     <use x="592.67578125" xlink:href="#BitstreamVeraSans-Roman-32"/>
    </g>
   </g>
   <g id="legend_1">
    <g id="patch_7">
     <path d="M 406.15625 108.3125 
L 514.4 108.3125 
L 514.4 47.2 
L 406.15625 47.2 
z
" style="fill:#ffffff;stroke:#000000;stroke-linejoin:miter;"/>
    </g>
    <g id="line2d_38">
     <path d="M 411.75625 53.67875 
L 422.95625 53.67875 
" style="fill:none;stroke:#ff0000;stroke-linecap:square;"/>
    </g>
    <g id="line2d_39">
     <g>
      <use style="fill:#ff0000;stroke:#000000;stroke-width:0.5;" x="411.75625" xlink:href="#medf8e681e1" y="53.67875"/>
      <use style="fill:#ff0000;stroke:#000000;stroke-width:0.5;" x="422.95625" xlink:href="#medf8e681e1" y="53.67875"/>
     </g>
    </g>
    <g id="text_20">
     <!-- QM -->
     <defs>
      <path d="M 39.40625 66.21875 
Q 28.65625 66.21875 22.328125 58.203125 
Q 16.015625 50.203125 16.015625 36.375 
Q 16.015625 22.609375 22.328125 14.59375 
Q 28.65625 6.59375 39.40625 6.59375 
Q 50.140625 6.59375 56.421875 14.59375 
Q 62.703125 22.609375 62.703125 36.375 
Q 62.703125 50.203125 56.421875 58.203125 
Q 50.140625 66.21875 39.40625 66.21875 
M 53.21875 1.3125 
L 66.21875 -12.890625 
L 54.296875 -12.890625 
L 43.5 -1.21875 
Q 41.890625 -1.3125 41.03125 -1.359375 
Q 40.1875 -1.421875 39.40625 -1.421875 
Q 24.03125 -1.421875 14.8125 8.859375 
Q 5.609375 19.140625 5.609375 36.375 
Q 5.609375 53.65625 14.8125 63.9375 
Q 24.03125 74.21875 39.40625 74.21875 
Q 54.734375 74.21875 63.90625 63.9375 
Q 73.09375 53.65625 73.09375 36.375 
Q 73.09375 23.6875 67.984375 14.640625 
Q 62.890625 5.609375 53.21875 1.3125 
" id="BitstreamVeraSans-Roman-51"/>
      <path d="M 9.8125 72.90625 
L 24.515625 72.90625 
L 43.109375 23.296875 
L 61.8125 72.90625 
L 76.515625 72.90625 
L 76.515625 0 
L 66.890625 0 
L 66.890625 64.015625 
L 48.09375 14.015625 
L 38.1875 14.015625 
L 19.390625 64.015625 
L 19.390625 0 
L 9.8125 0 
z
" id="BitstreamVeraSans-Roman-4d"/>
     </defs>
     <g transform="translate(431.75625 56.47875)scale(0.08 -0.08)">
      <use xlink:href="#BitstreamVeraSans-Roman-51"/>
      <use x="78.7109375" xlink:href="#BitstreamVeraSans-Roman-4d"/>
     </g>
    </g>
    <g id="line2d_40">
     <path d="M 411.75625 65.42125 
L 422.95625 65.42125 
" style="fill:none;stroke:#0000ff;stroke-linecap:square;"/>
    </g>
    <g id="line2d_41">
     <g>
      <use style="fill:#0000ff;stroke:#000000;stroke-width:0.5;" x="411.75625" xlink:href="#mcb61751312" y="65.42125"/>
      <use style="fill:#0000ff;stroke:#000000;stroke-width:0.5;" x="422.95625" xlink:href="#mcb61751312" y="65.42125"/>
     </g>
    </g>
    <g id="text_21">
     <!-- MM Original -->
     <defs>
      <path d="M 45.40625 27.984375 
Q 45.40625 37.75 41.375 43.109375 
Q 37.359375 48.484375 30.078125 48.484375 
Q 22.859375 48.484375 18.828125 43.109375 
Q 14.796875 37.75 14.796875 27.984375 
Q 14.796875 18.265625 18.828125 12.890625 
Q 22.859375 7.515625 30.078125 7.515625 
Q 37.359375 7.515625 41.375 12.890625 
Q 45.40625 18.265625 45.40625 27.984375 
M 54.390625 6.78125 
Q 54.390625 -7.171875 48.1875 -13.984375 
Q 42 -20.796875 29.203125 -20.796875 
Q 24.46875 -20.796875 20.265625 -20.09375 
Q 16.0625 -19.390625 12.109375 -17.921875 
L 12.109375 -9.1875 
Q 16.0625 -11.328125 19.921875 -12.34375 
Q 23.78125 -13.375 27.78125 -13.375 
Q 36.625 -13.375 41.015625 -8.765625 
Q 45.40625 -4.15625 45.40625 5.171875 
L 45.40625 9.625 
Q 42.625 4.78125 38.28125 2.390625 
Q 33.9375 0 27.875 0 
Q 17.828125 0 11.671875 7.65625 
Q 5.515625 15.328125 5.515625 27.984375 
Q 5.515625 40.671875 11.671875 48.328125 
Q 17.828125 56 27.875 56 
Q 33.9375 56 38.28125 53.609375 
Q 42.625 51.21875 45.40625 46.390625 
L 45.40625 54.6875 
L 54.390625 54.6875 
z
" id="BitstreamVeraSans-Roman-67"/>
      <path d="M 54.890625 33.015625 
L 54.890625 0 
L 45.90625 0 
L 45.90625 32.71875 
Q 45.90625 40.484375 42.875 44.328125 
Q 39.84375 48.1875 33.796875 48.1875 
Q 26.515625 48.1875 22.3125 43.546875 
Q 18.109375 38.921875 18.109375 30.90625 
L 18.109375 0 
L 9.078125 0 
L 9.078125 54.6875 
L 18.109375 54.6875 
L 18.109375 46.1875 
Q 21.34375 51.125 25.703125 53.5625 
Q 30.078125 56 35.796875 56 
Q 45.21875 56 50.046875 50.171875 
Q 54.890625 44.34375 54.890625 33.015625 
" id="BitstreamVeraSans-Roman-6e"/>
      <path d="M 41.109375 46.296875 
Q 39.59375 47.171875 37.8125 47.578125 
Q 36.03125 48 33.890625 48 
Q 26.265625 48 22.1875 43.046875 
Q 18.109375 38.09375 18.109375 28.8125 
L 18.109375 0 
L 9.078125 0 
L 9.078125 54.6875 
L 18.109375 54.6875 
L 18.109375 46.1875 
Q 20.953125 51.171875 25.484375 53.578125 
Q 30.03125 56 36.53125 56 
Q 37.453125 56 38.578125 55.875 
Q 39.703125 55.765625 41.0625 55.515625 
z
" id="BitstreamVeraSans-Roman-72"/>
      <path id="BitstreamVeraSans-Roman-20"/>
     </defs>
     <g transform="translate(431.75625 68.22125)scale(0.08 -0.08)">
      <use xlink:href="#BitstreamVeraSans-Roman-4d"/>
      <use x="86.279296875" xlink:href="#BitstreamVeraSans-Roman-4d"/>
      <use x="172.55859375" xlink:href="#BitstreamVeraSans-Roman-20"/>
      <use x="204.345703125" xlink:href="#BitstreamVeraSans-Roman-4f"/>
      <use x="283.056640625" xlink:href="#BitstreamVeraSans-Roman-72"/>
      <use x="324.169921875" xlink:href="#BitstreamVeraSans-Roman-69"/>
      <use x="351.953125" xlink:href="#BitstreamVeraSans-Roman-67"/>
      <use x="415.4296875" xlink:href="#BitstreamVeraSans-Roman-69"/>
      <use x="443.212890625" xlink:href="#BitstreamVeraSans-Roman-6e"/>
      <use x="506.591796875" xlink:href="#BitstreamVeraSans-Roman-61"/>
      <use x="567.87109375" xlink:href="#BitstreamVeraSans-Roman-6c"/>
     </g>
    </g>
    <g id="line2d_42">
     <path d="M 411.75625 77.16375 
L 422.95625 77.16375 
" style="fill:none;stroke:#000000;stroke-linecap:square;"/>
    </g>
    <g id="line2d_43">
     <g>
      <use style="stroke:#000000;stroke-width:0.5;" x="411.75625" xlink:href="#m86d23175fc" y="77.16375"/>
      <use style="stroke:#000000;stroke-width:0.5;" x="422.95625" xlink:href="#m86d23175fc" y="77.16375"/>
     </g>
    </g>
    <g id="text_22">
     <!-- MM With phi zeroed -->
     <defs>
      <path d="M 18.3125 70.21875 
L 18.3125 54.6875 
L 36.8125 54.6875 
L 36.8125 47.703125 
L 18.3125 47.703125 
L 18.3125 18.015625 
Q 18.3125 11.328125 20.140625 9.421875 
Q 21.96875 7.515625 27.59375 7.515625 
L 36.8125 7.515625 
L 36.8125 0 
L 27.59375 0 
Q 17.1875 0 13.234375 3.875 
Q 9.28125 7.765625 9.28125 18.015625 
L 9.28125 47.703125 
L 2.6875 47.703125 
L 2.6875 54.6875 
L 9.28125 54.6875 
L 9.28125 70.21875 
z
" id="BitstreamVeraSans-Roman-74"/>
      <path d="M 18.109375 8.203125 
L 18.109375 -20.796875 
L 9.078125 -20.796875 
L 9.078125 54.6875 
L 18.109375 54.6875 
L 18.109375 46.390625 
Q 20.953125 51.265625 25.265625 53.625 
Q 29.59375 56 35.59375 56 
Q 45.5625 56 51.78125 48.09375 
Q 58.015625 40.1875 58.015625 27.296875 
Q 58.015625 14.40625 51.78125 6.484375 
Q 45.5625 -1.421875 35.59375 -1.421875 
Q 29.59375 -1.421875 25.265625 0.953125 
Q 20.953125 3.328125 18.109375 8.203125 
M 48.6875 27.296875 
Q 48.6875 37.203125 44.609375 42.84375 
Q 40.53125 48.484375 33.40625 48.484375 
Q 26.265625 48.484375 22.1875 42.84375 
Q 18.109375 37.203125 18.109375 27.296875 
Q 18.109375 17.390625 22.1875 11.75 
Q 26.265625 6.109375 33.40625 6.109375 
Q 40.53125 6.109375 44.609375 11.75 
Q 48.6875 17.390625 48.6875 27.296875 
" id="BitstreamVeraSans-Roman-70"/>
      <path d="M 5.515625 54.6875 
L 48.1875 54.6875 
L 48.1875 46.484375 
L 14.40625 7.171875 
L 48.1875 7.171875 
L 48.1875 0 
L 4.296875 0 
L 4.296875 8.203125 
L 38.09375 47.515625 
L 5.515625 47.515625 
z
" id="BitstreamVeraSans-Roman-7a"/>
      <path d="M 45.40625 46.390625 
L 45.40625 75.984375 
L 54.390625 75.984375 
L 54.390625 0 
L 45.40625 0 
L 45.40625 8.203125 
Q 42.578125 3.328125 38.25 0.953125 
Q 33.9375 -1.421875 27.875 -1.421875 
Q 17.96875 -1.421875 11.734375 6.484375 
Q 5.515625 14.40625 5.515625 27.296875 
Q 5.515625 40.1875 11.734375 48.09375 
Q 17.96875 56 27.875 56 
Q 33.9375 56 38.25 53.625 
Q 42.578125 51.265625 45.40625 46.390625 
M 14.796875 27.296875 
Q 14.796875 17.390625 18.875 11.75 
Q 22.953125 6.109375 30.078125 6.109375 
Q 37.203125 6.109375 41.296875 11.75 
Q 45.40625 17.390625 45.40625 27.296875 
Q 45.40625 37.203125 41.296875 42.84375 
Q 37.203125 48.484375 30.078125 48.484375 
Q 22.953125 48.484375 18.875 42.84375 
Q 14.796875 37.203125 14.796875 27.296875 
" id="BitstreamVeraSans-Roman-64"/>
      <path d="M 56.203125 29.59375 
L 56.203125 25.203125 
L 14.890625 25.203125 
Q 15.484375 15.921875 20.484375 11.0625 
Q 25.484375 6.203125 34.421875 6.203125 
Q 39.59375 6.203125 44.453125 7.46875 
Q 49.3125 8.734375 54.109375 11.28125 
L 54.109375 2.78125 
Q 49.265625 0.734375 44.1875 -0.34375 
Q 39.109375 -1.421875 33.890625 -1.421875 
Q 20.796875 -1.421875 13.15625 6.1875 
Q 5.515625 13.8125 5.515625 26.8125 
Q 5.515625 40.234375 12.765625 48.109375 
Q 20.015625 56 32.328125 56 
Q 43.359375 56 49.78125 48.890625 
Q 56.203125 41.796875 56.203125 29.59375 
M 47.21875 32.234375 
Q 47.125 39.59375 43.09375 43.984375 
Q 39.0625 48.390625 32.421875 48.390625 
Q 24.90625 48.390625 20.390625 44.140625 
Q 15.875 39.890625 15.1875 32.171875 
z
" id="BitstreamVeraSans-Roman-65"/>
      <path d="M 3.328125 72.90625 
L 13.28125 72.90625 
L 28.609375 11.28125 
L 43.890625 72.90625 
L 54.984375 72.90625 
L 70.3125 11.28125 
L 85.59375 72.90625 
L 95.609375 72.90625 
L 77.296875 0 
L 64.890625 0 
L 49.515625 63.28125 
L 33.984375 0 
L 21.578125 0 
z
" id="BitstreamVeraSans-Roman-57"/>
     </defs>
     <g transform="translate(431.75625 79.96375)scale(0.08 -0.08)">
      <use xlink:href="#BitstreamVeraSans-Roman-4d"/>
      <use x="86.279296875" xlink:href="#BitstreamVeraSans-Roman-4d"/>
      <use x="172.55859375" xlink:href="#BitstreamVeraSans-Roman-20"/>
      <use x="204.345703125" xlink:href="#BitstreamVeraSans-Roman-57"/>
      <use x="303.19140625" xlink:href="#BitstreamVeraSans-Roman-69"/>
      <use x="330.974609375" xlink:href="#BitstreamVeraSans-Roman-74"/>
      <use x="370.18359375" xlink:href="#BitstreamVeraSans-Roman-68"/>
      <use x="433.5625" xlink:href="#BitstreamVeraSans-Roman-20"/>
      <use x="465.349609375" xlink:href="#BitstreamVeraSans-Roman-70"/>
      <use x="528.826171875" xlink:href="#BitstreamVeraSans-Roman-68"/>
      <use x="592.205078125" xlink:href="#BitstreamVeraSans-Roman-69"/>
      <use x="619.98828125" xlink:href="#BitstreamVeraSans-Roman-20"/>
      <use x="651.775390625" xlink:href="#BitstreamVeraSans-Roman-7a"/>
      <use x="704.265625" xlink:href="#BitstreamVeraSans-Roman-65"/>
      <use x="765.7890625" xlink:href="#BitstreamVeraSans-Roman-72"/>
      <use x="806.87109375" xlink:href="#BitstreamVeraSans-Roman-6f"/>
      <use x="868.052734375" xlink:href="#BitstreamVeraSans-Roman-65"/>
      <use x="929.576171875" xlink:href="#BitstreamVeraSans-Roman-64"/>
     </g>
    </g>
    <g id="line2d_44">
     <path d="M 411.75625 88.90625 
L 422.95625 88.90625 
" style="fill:none;stroke:#ff00ff;stroke-linecap:square;"/>
    </g>
    <g id="line2d_45">
     <g>
      <use style="fill:#ff00ff;stroke:#ff00ff;stroke-width:0.5;" x="411.75625" xlink:href="#m9391478f3a" y="88.90625"/>
      <use style="fill:#ff00ff;stroke:#ff00ff;stroke-width:0.5;" x="422.95625" xlink:href="#m9391478f3a" y="88.90625"/>
     </g>
    </g>
    <g id="text_23">
     <!-- QM-MM target -->
     <g transform="translate(431.75625 91.70625)scale(0.08 -0.08)">
      <use xlink:href="#BitstreamVeraSans-Roman-51"/>
      <use x="78.7109375" xlink:href="#BitstreamVeraSans-Roman-4d"/>
      <use x="164.990234375" xlink:href="#BitstreamVeraSans-Roman-2d"/>
      <use x="201.07421875" xlink:href="#BitstreamVeraSans-Roman-4d"/>
      <use x="287.353515625" xlink:href="#BitstreamVeraSans-Roman-4d"/>
      <use x="373.6328125" xlink:href="#BitstreamVeraSans-Roman-20"/>
      <use x="405.419921875" xlink:href="#BitstreamVeraSans-Roman-74"/>
      <use x="444.62890625" xlink:href="#BitstreamVeraSans-Roman-61"/>
      <use x="505.908203125" xlink:href="#BitstreamVeraSans-Roman-72"/>
      <use x="547.005859375" xlink:href="#BitstreamVeraSans-Roman-67"/>
      <use x="610.482421875" xlink:href="#BitstreamVeraSans-Roman-65"/>
      <use x="672.005859375" xlink:href="#BitstreamVeraSans-Roman-74"/>
     </g>
    </g>
    <g id="line2d_46">
     <path d="M 411.75625 100.64875 
L 422.95625 100.64875 
" style="fill:none;stroke:#008000;stroke-linecap:square;"/>
    </g>
    <g id="line2d_47">
     <g>
      <use style="fill:#008000;stroke:#000000;stroke-width:0.5;" x="411.75625" xlink:href="#m1af62071b3" y="100.64875"/>
      <use style="fill:#008000;stroke:#000000;stroke-width:0.5;" x="422.95625" xlink:href="#m1af62071b3" y="100.64875"/>
     </g>
    </g>
    <g id="text_24">
     <!-- MM Fitted -->
     <defs>
      <path d="M 9.8125 72.90625 
L 51.703125 72.90625 
L 51.703125 64.59375 
L 19.671875 64.59375 
L 19.671875 43.109375 
L 48.578125 43.109375 
L 48.578125 34.8125 
L 19.671875 34.8125 
L 19.671875 0 
L 9.8125 0 
z
" id="BitstreamVeraSans-Roman-46"/>
     </defs>
     <g transform="translate(431.75625 103.44875)scale(0.08 -0.08)">
      <use xlink:href="#BitstreamVeraSans-Roman-4d"/>
      <use x="86.279296875" xlink:href="#BitstreamVeraSans-Roman-4d"/>
      <use x="172.55859375" xlink:href="#BitstreamVeraSans-Roman-20"/>
      <use x="204.345703125" xlink:href="#BitstreamVeraSans-Roman-46"/>
      <use x="261.755859375" xlink:href="#BitstreamVeraSans-Roman-69"/>
      <use x="289.5390625" xlink:href="#BitstreamVeraSans-Roman-74"/>
      <use x="328.748046875" xlink:href="#BitstreamVeraSans-Roman-74"/>
      <use x="367.95703125" xlink:href="#BitstreamVeraSans-Roman-65"/>
      <use x="429.48046875" xlink:href="#BitstreamVeraSans-Roman-64"/>
     </g>
    </g>
   </g>
  </g>
 </g>
 <defs>
  <clipPath id="p188c626f89">
   <rect height="345.6" width="446.4" x="72.0" y="43.2"/>
  </clipPath>
 </defs>
</svg>
