<?xml version="1.0" encoding="utf-8" standalone="no"?>
<!DOCTYPE svg PUBLIC "-//W3C//DTD SVG 1.1//EN"
  "http://www.w3.org/Graphics/SVG/1.1/DTD/svg11.dtd">
<!-- Created with matplotlib (http://matplotlib.org/) -->
<svg height="432pt" version="1.1" viewBox="0 0 576 432" width="576pt" xmlns="http://www.w3.org/2000/svg" xmlns:xlink="http://www.w3.org/1999/xlink">
 <defs>
  <style type="text/css">
*{stroke-linecap:butt;stroke-linejoin:round;stroke-miterlimit:100000;}
  </style>
 </defs>
 <g id="figure_1">
  <g id="patch_1">
   <path d="M 0 432 
L 576 432 
L 576 0 
L 0 0 
z
" style="fill:#ffffff;"/>
  </g>
  <g id="axes_1">
   <g id="patch_2">
    <path d="M 72 388.8 
L 518.4 388.8 
L 518.4 43.2 
L 72 43.2 
z
" style="fill:#ffffff;"/>
   </g>
   <g id="line2d_1">
    <path clip-path="url(#p86952f6821)" d="M 72.000819 378.152972 
L 84.399959 358.037554 
L 96.800002 312.029236 
L 109.199956 244.612632 
L 121.600004 166.296864 
L 133.999937 95.008657 
L 146.399983 53.640338 
L 158.799985 60.805152 
L 171.200014 114.410299 
L 183.599987 191.73486 
L 196.000034 267.872262 
L 208.399972 325.191933 
L 220.79997 354.326239 
L 233.200016 353.486575 
L 245.600019 327.214036 
L 258.000027 284.31855 
L 270.399975 234.392479 
L 282.800007 190.843286 
L 295.200805 169.319928 
L 307.600011 179.67734 
L 320.000012 219.272741 
L 332.400005 274.657548 
L 344.800007 329.501373 
L 357.200052 370.286925 
L 369.600051 388.8 
L 382.000011 381.74972 
L 394.400003 350.641968 
L 406.800022 302.039497 
L 419.200018 246.741228 
L 431.600039 200.838458 
L 444.00002 180.768844 
L 456.399996 195.302417 
L 468.799999 239.079687 
L 481.200007 294.046384 
L 493.600009 342.218127 
L 505.999989 372.021073 
" style="fill:none;stroke:#ff0000;stroke-linecap:square;"/>
    <defs>
     <path d="M 0 3 
C 0.795609 3 1.55874 2.683901 2.12132 2.12132 
C 2.683901 1.55874 3 0.795609 3 0 
C 3 -0.795609 2.683901 -1.55874 2.12132 -2.12132 
C 1.55874 -2.683901 0.795609 -3 0 -3 
C -0.795609 -3 -1.55874 -2.683901 -2.12132 -2.12132 
C -2.683901 -1.55874 -3 -0.795609 -3 0 
C -3 0.795609 -2.683901 1.55874 -2.12132 2.12132 
C -1.55874 2.683901 -0.795609 3 0 3 
z
" id="m71522c551f" style="stroke:#000000;stroke-width:0.5;"/>
    </defs>
    <g clip-path="url(#p86952f6821)">
     <use style="fill:#ff0000;stroke:#000000;stroke-width:0.5;" x="72.0008187735" xlink:href="#m71522c551f" y="378.152971813"/>
     <use style="fill:#ff0000;stroke:#000000;stroke-width:0.5;" x="84.3999594475" xlink:href="#m71522c551f" y="358.037553632"/>
     <use style="fill:#ff0000;stroke:#000000;stroke-width:0.5;" x="96.8000018752" xlink:href="#m71522c551f" y="312.029236173"/>
     <use style="fill:#ff0000;stroke:#000000;stroke-width:0.5;" x="109.199956262" xlink:href="#m71522c551f" y="244.61263217"/>
     <use style="fill:#ff0000;stroke:#000000;stroke-width:0.5;" x="121.600004071" xlink:href="#m71522c551f" y="166.296864352"/>
     <use style="fill:#ff0000;stroke:#000000;stroke-width:0.5;" x="133.999937343" xlink:href="#m71522c551f" y="95.0086570412"/>
     <use style="fill:#ff0000;stroke:#000000;stroke-width:0.5;" x="146.399983339" xlink:href="#m71522c551f" y="53.6403382111"/>
     <use style="fill:#ff0000;stroke:#000000;stroke-width:0.5;" x="158.799985022" xlink:href="#m71522c551f" y="60.8051520964"/>
     <use style="fill:#ff0000;stroke:#000000;stroke-width:0.5;" x="171.200013899" xlink:href="#m71522c551f" y="114.410299345"/>
     <use style="fill:#ff0000;stroke:#000000;stroke-width:0.5;" x="183.599986708" xlink:href="#m71522c551f" y="191.734860107"/>
     <use style="fill:#ff0000;stroke:#000000;stroke-width:0.5;" x="196.000034016" xlink:href="#m71522c551f" y="267.872261933"/>
     <use style="fill:#ff0000;stroke:#000000;stroke-width:0.5;" x="208.399972053" xlink:href="#m71522c551f" y="325.191933104"/>
     <use style="fill:#ff0000;stroke:#000000;stroke-width:0.5;" x="220.79996979" xlink:href="#m71522c551f" y="354.326238922"/>
     <use style="fill:#ff0000;stroke:#000000;stroke-width:0.5;" x="233.20001563" xlink:href="#m71522c551f" y="353.486574837"/>
     <use style="fill:#ff0000;stroke:#000000;stroke-width:0.5;" x="245.600019484" xlink:href="#m71522c551f" y="327.214035688"/>
     <use style="fill:#ff0000;stroke:#000000;stroke-width:0.5;" x="258.000027342" xlink:href="#m71522c551f" y="284.31854963"/>
     <use style="fill:#ff0000;stroke:#000000;stroke-width:0.5;" x="270.399975181" xlink:href="#m71522c551f" y="234.392478977"/>
     <use style="fill:#ff0000;stroke:#000000;stroke-width:0.5;" x="282.800006878" xlink:href="#m71522c551f" y="190.84328646"/>
     <use style="fill:#ff0000;stroke:#000000;stroke-width:0.5;" x="295.200804631" xlink:href="#m71522c551f" y="169.319927647"/>
     <use style="fill:#ff0000;stroke:#000000;stroke-width:0.5;" x="307.600010914" xlink:href="#m71522c551f" y="179.6773397"/>
     <use style="fill:#ff0000;stroke:#000000;stroke-width:0.5;" x="320.000011821" xlink:href="#m71522c551f" y="219.272740526"/>
     <use style="fill:#ff0000;stroke:#000000;stroke-width:0.5;" x="332.400004554" xlink:href="#m71522c551f" y="274.65754824"/>
     <use style="fill:#ff0000;stroke:#000000;stroke-width:0.5;" x="344.800007341" xlink:href="#m71522c551f" y="329.501372804"/>
     <use style="fill:#ff0000;stroke:#000000;stroke-width:0.5;" x="357.200052378" xlink:href="#m71522c551f" y="370.286924594"/>
     <use style="fill:#ff0000;stroke:#000000;stroke-width:0.5;" x="369.6000514" xlink:href="#m71522c551f" y="388.8"/>
     <use style="fill:#ff0000;stroke:#000000;stroke-width:0.5;" x="382.000010583" xlink:href="#m71522c551f" y="381.749720421"/>
     <use style="fill:#ff0000;stroke:#000000;stroke-width:0.5;" x="394.400003491" xlink:href="#m71522c551f" y="350.641968196"/>
     <use style="fill:#ff0000;stroke:#000000;stroke-width:0.5;" x="406.800021642" xlink:href="#m71522c551f" y="302.039497111"/>
     <use style="fill:#ff0000;stroke:#000000;stroke-width:0.5;" x="419.200018252" xlink:href="#m71522c551f" y="246.741227545"/>
     <use style="fill:#ff0000;stroke:#000000;stroke-width:0.5;" x="431.600039133" xlink:href="#m71522c551f" y="200.838457812"/>
     <use style="fill:#ff0000;stroke:#000000;stroke-width:0.5;" x="444.000019858" xlink:href="#m71522c551f" y="180.768844301"/>
     <use style="fill:#ff0000;stroke:#000000;stroke-width:0.5;" x="456.399995538" xlink:href="#m71522c551f" y="195.302417133"/>
     <use style="fill:#ff0000;stroke:#000000;stroke-width:0.5;" x="468.799999125" xlink:href="#m71522c551f" y="239.079686571"/>
     <use style="fill:#ff0000;stroke:#000000;stroke-width:0.5;" x="481.200007339" xlink:href="#m71522c551f" y="294.046383504"/>
     <use style="fill:#ff0000;stroke:#000000;stroke-width:0.5;" x="493.600008855" xlink:href="#m71522c551f" y="342.218126995"/>
     <use style="fill:#ff0000;stroke:#000000;stroke-width:0.5;" x="505.999989379" xlink:href="#m71522c551f" y="372.021073446"/>
    </g>
   </g>
   <g id="line2d_2">
    <path clip-path="url(#p86952f6821)" d="M 72.000819 336.908147 
L 84.399959 315.965223 
L 96.800002 272.479311 
L 109.199956 213.276661 
L 121.600004 148.381127 
L 133.999937 90.033415 
L 146.399983 56.070907 
L 158.799985 62.708413 
L 171.200014 109.287753 
L 183.599987 178.471061 
L 196.000034 248.644485 
L 208.399972 305.061052 
L 220.79997 339.897587 
L 233.200016 351.224008 
L 245.600019 340.332604 
L 258.000027 307.495859 
L 270.399975 260.753601 
L 282.800007 216.922183 
L 295.200805 193.922657 
L 307.600011 202.206816 
L 320.000012 238.278815 
L 332.400005 288.469616 
L 344.800007 337.233439 
L 357.200052 373.204942 
L 369.600051 388.8 
L 382.000011 380.742529 
L 394.400003 349.895849 
L 406.800022 304.326854 
L 419.200018 252.539789 
L 431.600039 208.311446 
L 444.00002 185.071821 
L 456.399996 190.961407 
L 468.799999 222.893714 
L 481.200007 266.641332 
L 493.600009 307.541186 
L 505.999989 332.994557 
" style="fill:none;stroke:#0000ff;stroke-linecap:square;"/>
    <defs>
     <path d="M 0 3 
C 0.795609 3 1.55874 2.683901 2.12132 2.12132 
C 2.683901 1.55874 3 0.795609 3 0 
C 3 -0.795609 2.683901 -1.55874 2.12132 -2.12132 
C 1.55874 -2.683901 0.795609 -3 0 -3 
C -0.795609 -3 -1.55874 -2.683901 -2.12132 -2.12132 
C -2.683901 -1.55874 -3 -0.795609 -3 0 
C -3 0.795609 -2.683901 1.55874 -2.12132 2.12132 
C -1.55874 2.683901 -0.795609 3 0 3 
z
" id="ma39184f986" style="stroke:#000000;stroke-width:0.5;"/>
    </defs>
    <g clip-path="url(#p86952f6821)">
     <use style="fill:#0000ff;stroke:#000000;stroke-width:0.5;" x="72.0008187735" xlink:href="#ma39184f986" y="336.908146865"/>
     <use style="fill:#0000ff;stroke:#000000;stroke-width:0.5;" x="84.3999594475" xlink:href="#ma39184f986" y="315.965222645"/>
     <use style="fill:#0000ff;stroke:#000000;stroke-width:0.5;" x="96.8000018752" xlink:href="#ma39184f986" y="272.479310685"/>
     <use style="fill:#0000ff;stroke:#000000;stroke-width:0.5;" x="109.199956262" xlink:href="#ma39184f986" y="213.276661435"/>
     <use style="fill:#0000ff;stroke:#000000;stroke-width:0.5;" x="121.600004071" xlink:href="#ma39184f986" y="148.381127071"/>
     <use style="fill:#0000ff;stroke:#000000;stroke-width:0.5;" x="133.999937343" xlink:href="#ma39184f986" y="90.0334153601"/>
     <use style="fill:#0000ff;stroke:#000000;stroke-width:0.5;" x="146.399983339" xlink:href="#ma39184f986" y="56.0709066097"/>
     <use style="fill:#0000ff;stroke:#000000;stroke-width:0.5;" x="158.799985022" xlink:href="#ma39184f986" y="62.7084125766"/>
     <use style="fill:#0000ff;stroke:#000000;stroke-width:0.5;" x="171.200013899" xlink:href="#ma39184f986" y="109.287752943"/>
     <use style="fill:#0000ff;stroke:#000000;stroke-width:0.5;" x="183.599986708" xlink:href="#ma39184f986" y="178.471060881"/>
     <use style="fill:#0000ff;stroke:#000000;stroke-width:0.5;" x="196.000034016" xlink:href="#ma39184f986" y="248.644485357"/>
     <use style="fill:#0000ff;stroke:#000000;stroke-width:0.5;" x="208.399972053" xlink:href="#ma39184f986" y="305.061051706"/>
     <use style="fill:#0000ff;stroke:#000000;stroke-width:0.5;" x="220.79996979" xlink:href="#ma39184f986" y="339.897586839"/>
     <use style="fill:#0000ff;stroke:#000000;stroke-width:0.5;" x="233.20001563" xlink:href="#ma39184f986" y="351.224007718"/>
     <use style="fill:#0000ff;stroke:#000000;stroke-width:0.5;" x="245.600019484" xlink:href="#ma39184f986" y="340.332603812"/>
     <use style="fill:#0000ff;stroke:#000000;stroke-width:0.5;" x="258.000027342" xlink:href="#ma39184f986" y="307.495859473"/>
     <use style="fill:#0000ff;stroke:#000000;stroke-width:0.5;" x="270.399975181" xlink:href="#ma39184f986" y="260.753600864"/>
     <use style="fill:#0000ff;stroke:#000000;stroke-width:0.5;" x="282.800006878" xlink:href="#ma39184f986" y="216.922183001"/>
     <use style="fill:#0000ff;stroke:#000000;stroke-width:0.5;" x="295.200804631" xlink:href="#ma39184f986" y="193.922657035"/>
     <use style="fill:#0000ff;stroke:#000000;stroke-width:0.5;" x="307.600010914" xlink:href="#ma39184f986" y="202.20681597"/>
     <use style="fill:#0000ff;stroke:#000000;stroke-width:0.5;" x="320.000011821" xlink:href="#ma39184f986" y="238.27881503"/>
     <use style="fill:#0000ff;stroke:#000000;stroke-width:0.5;" x="332.400004554" xlink:href="#ma39184f986" y="288.469616159"/>
     <use style="fill:#0000ff;stroke:#000000;stroke-width:0.5;" x="344.800007341" xlink:href="#ma39184f986" y="337.233438732"/>
     <use style="fill:#0000ff;stroke:#000000;stroke-width:0.5;" x="357.200052378" xlink:href="#ma39184f986" y="373.204942273"/>
     <use style="fill:#0000ff;stroke:#000000;stroke-width:0.5;" x="369.6000514" xlink:href="#ma39184f986" y="388.8"/>
     <use style="fill:#0000ff;stroke:#000000;stroke-width:0.5;" x="382.000010583" xlink:href="#ma39184f986" y="380.742528738"/>
     <use style="fill:#0000ff;stroke:#000000;stroke-width:0.5;" x="394.400003491" xlink:href="#ma39184f986" y="349.895849137"/>
     <use style="fill:#0000ff;stroke:#000000;stroke-width:0.5;" x="406.800021642" xlink:href="#ma39184f986" y="304.326853778"/>
     <use style="fill:#0000ff;stroke:#000000;stroke-width:0.5;" x="419.200018252" xlink:href="#ma39184f986" y="252.539789193"/>
     <use style="fill:#0000ff;stroke:#000000;stroke-width:0.5;" x="431.600039133" xlink:href="#ma39184f986" y="208.311446337"/>
     <use style="fill:#0000ff;stroke:#000000;stroke-width:0.5;" x="444.000019858" xlink:href="#ma39184f986" y="185.071820855"/>
     <use style="fill:#0000ff;stroke:#000000;stroke-width:0.5;" x="456.399995538" xlink:href="#ma39184f986" y="190.96140652"/>
     <use style="fill:#0000ff;stroke:#000000;stroke-width:0.5;" x="468.799999125" xlink:href="#ma39184f986" y="222.893714287"/>
     <use style="fill:#0000ff;stroke:#000000;stroke-width:0.5;" x="481.200007339" xlink:href="#ma39184f986" y="266.641331951"/>
     <use style="fill:#0000ff;stroke:#000000;stroke-width:0.5;" x="493.600008855" xlink:href="#ma39184f986" y="307.541185944"/>
     <use style="fill:#0000ff;stroke:#000000;stroke-width:0.5;" x="505.999989379" xlink:href="#ma39184f986" y="332.994557047"/>
    </g>
   </g>
   <g id="line2d_3">
    <path clip-path="url(#p86952f6821)" d="M 72.000819 337.38145 
L 84.399959 316.542715 
L 96.800002 280.742727 
L 109.199956 235.332902 
L 121.600004 187.966575 
L 133.999937 146.884858 
L 146.399983 124.389079 
L 158.799985 131.12345 
L 171.200014 165.987934 
L 183.599987 217.168999 
L 196.000034 269.31323 
L 208.399972 311.944247 
L 220.79997 339.78149 
L 233.200016 352.057179 
L 245.600019 350.008645 
L 258.000027 332.349766 
L 270.399975 303.640501 
L 282.800007 276.328554 
L 295.200805 263.118228 
L 307.600011 270.369708 
L 320.000012 294.908733 
L 332.400005 327.660444 
L 344.800007 358.531847 
L 357.200052 380.462366 
L 369.600051 388.8 
L 382.000011 381.56567 
L 394.400003 359.436555 
L 406.800022 329.064241 
L 419.200018 295.647254 
L 431.600039 268.304799 
L 444.00002 254.631089 
L 456.399996 258.746729 
L 468.799999 278.637108 
L 481.200007 305.260695 
L 493.600009 328.991194 
L 505.999989 340.890039 
" style="fill:none;stroke:#000000;stroke-linecap:square;"/>
    <defs>
     <path d="M -3 3 
L 3 -3 
M -3 -3 
L 3 3 
" id="m51f324b57d" style="stroke:#000000;stroke-width:0.5;"/>
    </defs>
    <g clip-path="url(#p86952f6821)">
     <use style="stroke:#000000;stroke-width:0.5;" x="72.0008187735" xlink:href="#m51f324b57d" y="337.381449652"/>
     <use style="stroke:#000000;stroke-width:0.5;" x="84.3999594475" xlink:href="#m51f324b57d" y="316.542715485"/>
     <use style="stroke:#000000;stroke-width:0.5;" x="96.8000018752" xlink:href="#m51f324b57d" y="280.742727175"/>
     <use style="stroke:#000000;stroke-width:0.5;" x="109.199956262" xlink:href="#m51f324b57d" y="235.332901792"/>
     <use style="stroke:#000000;stroke-width:0.5;" x="121.600004071" xlink:href="#m51f324b57d" y="187.966574893"/>
     <use style="stroke:#000000;stroke-width:0.5;" x="133.999937343" xlink:href="#m51f324b57d" y="146.884858065"/>
     <use style="stroke:#000000;stroke-width:0.5;" x="146.399983339" xlink:href="#m51f324b57d" y="124.389079485"/>
     <use style="stroke:#000000;stroke-width:0.5;" x="158.799985022" xlink:href="#m51f324b57d" y="131.123449722"/>
     <use style="stroke:#000000;stroke-width:0.5;" x="171.200013899" xlink:href="#m51f324b57d" y="165.987934421"/>
     <use style="stroke:#000000;stroke-width:0.5;" x="183.599986708" xlink:href="#m51f324b57d" y="217.168999364"/>
     <use style="stroke:#000000;stroke-width:0.5;" x="196.000034016" xlink:href="#m51f324b57d" y="269.313229977"/>
     <use style="stroke:#000000;stroke-width:0.5;" x="208.399972053" xlink:href="#m51f324b57d" y="311.944246582"/>
     <use style="stroke:#000000;stroke-width:0.5;" x="220.79996979" xlink:href="#m51f324b57d" y="339.781489983"/>
     <use style="stroke:#000000;stroke-width:0.5;" x="233.20001563" xlink:href="#m51f324b57d" y="352.057178721"/>
     <use style="stroke:#000000;stroke-width:0.5;" x="245.600019484" xlink:href="#m51f324b57d" y="350.008644935"/>
     <use style="stroke:#000000;stroke-width:0.5;" x="258.000027342" xlink:href="#m51f324b57d" y="332.349766164"/>
     <use style="stroke:#000000;stroke-width:0.5;" x="270.399975181" xlink:href="#m51f324b57d" y="303.64050091"/>
     <use style="stroke:#000000;stroke-width:0.5;" x="282.800006878" xlink:href="#m51f324b57d" y="276.328554159"/>
     <use style="stroke:#000000;stroke-width:0.5;" x="295.200804631" xlink:href="#m51f324b57d" y="263.118227841"/>
     <use style="stroke:#000000;stroke-width:0.5;" x="307.600010914" xlink:href="#m51f324b57d" y="270.369707665"/>
     <use style="stroke:#000000;stroke-width:0.5;" x="320.000011821" xlink:href="#m51f324b57d" y="294.908732571"/>
     <use style="stroke:#000000;stroke-width:0.5;" x="332.400004554" xlink:href="#m51f324b57d" y="327.660444068"/>
     <use style="stroke:#000000;stroke-width:0.5;" x="344.800007341" xlink:href="#m51f324b57d" y="358.531847239"/>
     <use style="stroke:#000000;stroke-width:0.5;" x="357.200052378" xlink:href="#m51f324b57d" y="380.462366322"/>
     <use style="stroke:#000000;stroke-width:0.5;" x="369.6000514" xlink:href="#m51f324b57d" y="388.8"/>
     <use style="stroke:#000000;stroke-width:0.5;" x="382.000010583" xlink:href="#m51f324b57d" y="381.565669869"/>
     <use style="stroke:#000000;stroke-width:0.5;" x="394.400003491" xlink:href="#m51f324b57d" y="359.436555077"/>
     <use style="stroke:#000000;stroke-width:0.5;" x="406.800021642" xlink:href="#m51f324b57d" y="329.064240777"/>
     <use style="stroke:#000000;stroke-width:0.5;" x="419.200018252" xlink:href="#m51f324b57d" y="295.647253906"/>
     <use style="stroke:#000000;stroke-width:0.5;" x="431.600039133" xlink:href="#m51f324b57d" y="268.304799106"/>
     <use style="stroke:#000000;stroke-width:0.5;" x="444.000019858" xlink:href="#m51f324b57d" y="254.631088808"/>
     <use style="stroke:#000000;stroke-width:0.5;" x="456.399995538" xlink:href="#m51f324b57d" y="258.746728687"/>
     <use style="stroke:#000000;stroke-width:0.5;" x="468.799999125" xlink:href="#m51f324b57d" y="278.637107749"/>
     <use style="stroke:#000000;stroke-width:0.5;" x="481.200007339" xlink:href="#m51f324b57d" y="305.260694928"/>
     <use style="stroke:#000000;stroke-width:0.5;" x="493.600008855" xlink:href="#m51f324b57d" y="328.991194156"/>
     <use style="stroke:#000000;stroke-width:0.5;" x="505.999989379" xlink:href="#m51f324b57d" y="340.890038731"/>
    </g>
   </g>
   <g id="line2d_4">
    <path clip-path="url(#p86952f6821)" d="M 72.000819 388.076684 
L 84.399959 388.8 
L 96.800002 378.591671 
L 109.199956 356.584892 
L 121.600004 325.635451 
L 133.999937 295.428961 
L 146.399983 276.556421 
L 158.799985 276.986864 
L 171.200014 295.727527 
L 183.599987 321.871023 
L 196.000034 345.864194 
L 208.399972 360.552848 
L 220.79997 361.849911 
L 233.200016 348.734558 
L 245.600019 324.510553 
L 258.000027 299.273945 
L 270.399975 278.05714 
L 282.800007 261.819894 
L 295.200805 253.506862 
L 307.600011 256.612794 
L 320.000012 271.66917 
L 332.400005 294.302266 
L 344.800007 318.274687 
L 357.200052 337.12972 
L 369.600051 347.305162 
L 382.000011 347.489212 
L 394.400003 338.510575 
L 406.800022 320.280418 
L 419.200018 298.399135 
L 431.600039 279.838821 
L 444.00002 273.442917 
L 456.399996 283.86085 
L 468.799999 307.747741 
L 481.200007 336.09085 
L 493.600009 360.532095 
L 505.999989 378.436197 
" style="fill:none;stroke:#ff00ff;stroke-linecap:square;"/>
    <defs>
     <path d="M -3 3 
L 3 -3 
M -3 -3 
L 3 3 
" id="m103b54f09d" style="stroke:#ff00ff;stroke-width:0.5;"/>
    </defs>
    <g clip-path="url(#p86952f6821)">
     <use style="fill:#ff00ff;stroke:#ff00ff;stroke-width:0.5;" x="72.0008187735" xlink:href="#m103b54f09d" y="388.076684014"/>
     <use style="fill:#ff00ff;stroke:#ff00ff;stroke-width:0.5;" x="84.3999594475" xlink:href="#m103b54f09d" y="388.8"/>
     <use style="fill:#ff00ff;stroke:#ff00ff;stroke-width:0.5;" x="96.8000018752" xlink:href="#m103b54f09d" y="378.591670851"/>
     <use style="fill:#ff00ff;stroke:#ff00ff;stroke-width:0.5;" x="109.199956262" xlink:href="#m103b54f09d" y="356.584892231"/>
     <use style="fill:#ff00ff;stroke:#ff00ff;stroke-width:0.5;" x="121.600004071" xlink:href="#m103b54f09d" y="325.635451312"/>
     <use style="fill:#ff00ff;stroke:#ff00ff;stroke-width:0.5;" x="133.999937343" xlink:href="#m103b54f09d" y="295.42896083"/>
     <use style="fill:#ff00ff;stroke:#ff00ff;stroke-width:0.5;" x="146.399983339" xlink:href="#m103b54f09d" y="276.556420579"/>
     <use style="fill:#ff00ff;stroke:#ff00ff;stroke-width:0.5;" x="158.799985022" xlink:href="#m103b54f09d" y="276.986864227"/>
     <use style="fill:#ff00ff;stroke:#ff00ff;stroke-width:0.5;" x="171.200013899" xlink:href="#m103b54f09d" y="295.727526777"/>
     <use style="fill:#ff00ff;stroke:#ff00ff;stroke-width:0.5;" x="183.599986708" xlink:href="#m103b54f09d" y="321.871022596"/>
     <use style="fill:#ff00ff;stroke:#ff00ff;stroke-width:0.5;" x="196.000034016" xlink:href="#m103b54f09d" y="345.864193809"/>
     <use style="fill:#ff00ff;stroke:#ff00ff;stroke-width:0.5;" x="208.399972053" xlink:href="#m103b54f09d" y="360.552848375"/>
     <use style="fill:#ff00ff;stroke:#ff00ff;stroke-width:0.5;" x="220.79996979" xlink:href="#m103b54f09d" y="361.849910792"/>
     <use style="fill:#ff00ff;stroke:#ff00ff;stroke-width:0.5;" x="233.20001563" xlink:href="#m103b54f09d" y="348.734557969"/>
     <use style="fill:#ff00ff;stroke:#ff00ff;stroke-width:0.5;" x="245.600019484" xlink:href="#m103b54f09d" y="324.510552607"/>
     <use style="fill:#ff00ff;stroke:#ff00ff;stroke-width:0.5;" x="258.000027342" xlink:href="#m103b54f09d" y="299.273945319"/>
     <use style="fill:#ff00ff;stroke:#ff00ff;stroke-width:0.5;" x="270.399975181" xlink:href="#m103b54f09d" y="278.057139919"/>
     <use style="fill:#ff00ff;stroke:#ff00ff;stroke-width:0.5;" x="282.800006878" xlink:href="#m103b54f09d" y="261.819894154"/>
     <use style="fill:#ff00ff;stroke:#ff00ff;stroke-width:0.5;" x="295.200804631" xlink:href="#m103b54f09d" y="253.506861659"/>
     <use style="fill:#ff00ff;stroke:#ff00ff;stroke-width:0.5;" x="307.600010914" xlink:href="#m103b54f09d" y="256.612793888"/>
     <use style="fill:#ff00ff;stroke:#ff00ff;stroke-width:0.5;" x="320.000011821" xlink:href="#m103b54f09d" y="271.669169809"/>
     <use style="fill:#ff00ff;stroke:#ff00ff;stroke-width:0.5;" x="332.400004554" xlink:href="#m103b54f09d" y="294.302266025"/>
     <use style="fill:#ff00ff;stroke:#ff00ff;stroke-width:0.5;" x="344.800007341" xlink:href="#m103b54f09d" y="318.274687418"/>
     <use style="fill:#ff00ff;stroke:#ff00ff;stroke-width:0.5;" x="357.200052378" xlink:href="#m103b54f09d" y="337.129720125"/>
     <use style="fill:#ff00ff;stroke:#ff00ff;stroke-width:0.5;" x="369.6000514" xlink:href="#m103b54f09d" y="347.305161853"/>
     <use style="fill:#ff00ff;stroke:#ff00ff;stroke-width:0.5;" x="382.000010583" xlink:href="#m103b54f09d" y="347.489212405"/>
     <use style="fill:#ff00ff;stroke:#ff00ff;stroke-width:0.5;" x="394.400003491" xlink:href="#m103b54f09d" y="338.510574972"/>
     <use style="fill:#ff00ff;stroke:#ff00ff;stroke-width:0.5;" x="406.800021642" xlink:href="#m103b54f09d" y="320.280418187"/>
     <use style="fill:#ff00ff;stroke:#ff00ff;stroke-width:0.5;" x="419.200018252" xlink:href="#m103b54f09d" y="298.399135492"/>
     <use style="fill:#ff00ff;stroke:#ff00ff;stroke-width:0.5;" x="431.600039133" xlink:href="#m103b54f09d" y="279.838820559"/>
     <use style="fill:#ff00ff;stroke:#ff00ff;stroke-width:0.5;" x="444.000019858" xlink:href="#m103b54f09d" y="273.442917346"/>
     <use style="fill:#ff00ff;stroke:#ff00ff;stroke-width:0.5;" x="456.399995538" xlink:href="#m103b54f09d" y="283.860850299"/>
     <use style="fill:#ff00ff;stroke:#ff00ff;stroke-width:0.5;" x="468.799999125" xlink:href="#m103b54f09d" y="307.747740675"/>
     <use style="fill:#ff00ff;stroke:#ff00ff;stroke-width:0.5;" x="481.200007339" xlink:href="#m103b54f09d" y="336.090850429"/>
     <use style="fill:#ff00ff;stroke:#ff00ff;stroke-width:0.5;" x="493.600008855" xlink:href="#m103b54f09d" y="360.532094692"/>
     <use style="fill:#ff00ff;stroke:#ff00ff;stroke-width:0.5;" x="505.999989379" xlink:href="#m103b54f09d" y="378.436196568"/>
    </g>
   </g>
   <g id="line2d_5">
    <path clip-path="url(#p86952f6821)" d="M 72.000819 361.818087 
L 84.399959 346.975392 
L 96.800002 304.851656 
L 109.199956 241.130512 
L 121.600004 166.352726 
L 133.999937 95.665179 
L 146.399983 52.059758 
L 158.799985 57.753005 
L 171.200014 113.694736 
L 183.599987 196.218106 
L 196.000034 276.270538 
L 208.399972 336.447977 
L 220.79997 369.66563 
L 233.200016 375.375582 
L 245.600019 356.186541 
L 258.000027 314.104257 
L 270.399975 259.274522 
L 282.800007 210.000793 
L 295.200805 184.24864 
L 307.600011 191.032846 
L 320.000012 226.855888 
L 332.400005 279.475412 
L 344.800007 332.562596 
L 357.200052 372.11895 
L 369.600051 388.8 
L 382.000011 379.700294 
L 394.400003 346.895718 
L 406.800022 299.283642 
L 419.200018 245.046497 
L 431.600039 198.14239 
L 444.00002 174.228977 
L 456.399996 183.466604 
L 468.799999 220.760266 
L 481.200007 269.610029 
L 493.600009 316.445632 
L 505.999989 349.633024 
" style="fill:none;stroke:#008000;stroke-linecap:square;"/>
    <defs>
     <path d="M 0 3 
C 0.795609 3 1.55874 2.683901 2.12132 2.12132 
C 2.683901 1.55874 3 0.795609 3 0 
C 3 -0.795609 2.683901 -1.55874 2.12132 -2.12132 
C 1.55874 -2.683901 0.795609 -3 0 -3 
C -0.795609 -3 -1.55874 -2.683901 -2.12132 -2.12132 
C -2.683901 -1.55874 -3 -0.795609 -3 0 
C -3 0.795609 -2.683901 1.55874 -2.12132 2.12132 
C -1.55874 2.683901 -0.795609 3 0 3 
z
" id="m170933061b" style="stroke:#000000;stroke-width:0.5;"/>
    </defs>
    <g clip-path="url(#p86952f6821)">
     <use style="fill:#008000;stroke:#000000;stroke-width:0.5;" x="72.0008187735" xlink:href="#m170933061b" y="361.818087104"/>
     <use style="fill:#008000;stroke:#000000;stroke-width:0.5;" x="84.3999594475" xlink:href="#m170933061b" y="346.975391607"/>
     <use style="fill:#008000;stroke:#000000;stroke-width:0.5;" x="96.8000018752" xlink:href="#m170933061b" y="304.851655925"/>
     <use style="fill:#008000;stroke:#000000;stroke-width:0.5;" x="109.199956262" xlink:href="#m170933061b" y="241.130511691"/>
     <use style="fill:#008000;stroke:#000000;stroke-width:0.5;" x="121.600004071" xlink:href="#m170933061b" y="166.352726117"/>
     <use style="fill:#008000;stroke:#000000;stroke-width:0.5;" x="133.999937343" xlink:href="#m170933061b" y="95.665179277"/>
     <use style="fill:#008000;stroke:#000000;stroke-width:0.5;" x="146.399983339" xlink:href="#m170933061b" y="52.0597584143"/>
     <use style="fill:#008000;stroke:#000000;stroke-width:0.5;" x="158.799985022" xlink:href="#m170933061b" y="57.7530054305"/>
     <use style="fill:#008000;stroke:#000000;stroke-width:0.5;" x="171.200013899" xlink:href="#m170933061b" y="113.694735603"/>
     <use style="fill:#008000;stroke:#000000;stroke-width:0.5;" x="183.599986708" xlink:href="#m170933061b" y="196.218105656"/>
     <use style="fill:#008000;stroke:#000000;stroke-width:0.5;" x="196.000034016" xlink:href="#m170933061b" y="276.270538249"/>
     <use style="fill:#008000;stroke:#000000;stroke-width:0.5;" x="208.399972053" xlink:href="#m170933061b" y="336.447976944"/>
     <use style="fill:#008000;stroke:#000000;stroke-width:0.5;" x="220.79996979" xlink:href="#m170933061b" y="369.665630418"/>
     <use style="fill:#008000;stroke:#000000;stroke-width:0.5;" x="233.20001563" xlink:href="#m170933061b" y="375.375581979"/>
     <use style="fill:#008000;stroke:#000000;stroke-width:0.5;" x="245.600019484" xlink:href="#m170933061b" y="356.186540508"/>
     <use style="fill:#008000;stroke:#000000;stroke-width:0.5;" x="258.000027342" xlink:href="#m170933061b" y="314.104256754"/>
     <use style="fill:#008000;stroke:#000000;stroke-width:0.5;" x="270.399975181" xlink:href="#m170933061b" y="259.27452197"/>
     <use style="fill:#008000;stroke:#000000;stroke-width:0.5;" x="282.800006878" xlink:href="#m170933061b" y="210.000793177"/>
     <use style="fill:#008000;stroke:#000000;stroke-width:0.5;" x="295.200804631" xlink:href="#m170933061b" y="184.248639901"/>
     <use style="fill:#008000;stroke:#000000;stroke-width:0.5;" x="307.600010914" xlink:href="#m170933061b" y="191.032846285"/>
     <use style="fill:#008000;stroke:#000000;stroke-width:0.5;" x="320.000011821" xlink:href="#m170933061b" y="226.85588821"/>
     <use style="fill:#008000;stroke:#000000;stroke-width:0.5;" x="332.400004554" xlink:href="#m170933061b" y="279.475411716"/>
     <use style="fill:#008000;stroke:#000000;stroke-width:0.5;" x="344.800007341" xlink:href="#m170933061b" y="332.562595629"/>
     <use style="fill:#008000;stroke:#000000;stroke-width:0.5;" x="357.200052378" xlink:href="#m170933061b" y="372.118949703"/>
     <use style="fill:#008000;stroke:#000000;stroke-width:0.5;" x="369.6000514" xlink:href="#m170933061b" y="388.8"/>
     <use style="fill:#008000;stroke:#000000;stroke-width:0.5;" x="382.000010583" xlink:href="#m170933061b" y="379.700294304"/>
     <use style="fill:#008000;stroke:#000000;stroke-width:0.5;" x="394.400003491" xlink:href="#m170933061b" y="346.89571844"/>
     <use style="fill:#008000;stroke:#000000;stroke-width:0.5;" x="406.800021642" xlink:href="#m170933061b" y="299.28364202"/>
     <use style="fill:#008000;stroke:#000000;stroke-width:0.5;" x="419.200018252" xlink:href="#m170933061b" y="245.046496569"/>
     <use style="fill:#008000;stroke:#000000;stroke-width:0.5;" x="431.600039133" xlink:href="#m170933061b" y="198.142390114"/>
     <use style="fill:#008000;stroke:#000000;stroke-width:0.5;" x="444.000019858" xlink:href="#m170933061b" y="174.228976553"/>
     <use style="fill:#008000;stroke:#000000;stroke-width:0.5;" x="456.399995538" xlink:href="#m170933061b" y="183.466603689"/>
     <use style="fill:#008000;stroke:#000000;stroke-width:0.5;" x="468.799999125" xlink:href="#m170933061b" y="220.760265516"/>
     <use style="fill:#008000;stroke:#000000;stroke-width:0.5;" x="481.200007339" xlink:href="#m170933061b" y="269.610029401"/>
     <use style="fill:#008000;stroke:#000000;stroke-width:0.5;" x="493.600008855" xlink:href="#m170933061b" y="316.445632158"/>
     <use style="fill:#008000;stroke:#000000;stroke-width:0.5;" x="505.999989379" xlink:href="#m170933061b" y="349.63302401"/>
    </g>
   </g>
   <g id="patch_3">
    <path d="M 518.4 388.8 
L 518.4 43.2 
" style="fill:none;stroke:#000000;stroke-linecap:square;stroke-linejoin:miter;"/>
   </g>
   <g id="patch_4">
    <path d="M 72 388.8 
L 72 43.2 
" style="fill:none;stroke:#000000;stroke-linecap:square;stroke-linejoin:miter;"/>
   </g>
   <g id="patch_5">
    <path d="M 72 388.8 
L 518.4 388.8 
" style="fill:none;stroke:#000000;stroke-linecap:square;stroke-linejoin:miter;"/>
   </g>
   <g id="patch_6">
    <path d="M 72 43.2 
L 518.4 43.2 
" style="fill:none;stroke:#000000;stroke-linecap:square;stroke-linejoin:miter;"/>
   </g>
   <g id="matplotlib.axis_1">
    <g id="xtick_1">
     <g id="line2d_6">
      <defs>
       <path d="M 0 0 
L 0 -4 
" id="ma396463a63" style="stroke:#000000;stroke-width:0.5;"/>
      </defs>
      <g>
       <use style="stroke:#000000;stroke-width:0.5;" x="72.0" xlink:href="#ma396463a63" y="388.8"/>
      </g>
     </g>
     <g id="line2d_7">
      <defs>
       <path d="M 0 0 
L 0 4 
" id="m882b42aa7f" style="stroke:#000000;stroke-width:0.5;"/>
      </defs>
      <g>
       <use style="stroke:#000000;stroke-width:0.5;" x="72.0" xlink:href="#m882b42aa7f" y="43.2"/>
      </g>
     </g>
     <g id="text_1">
      <!-- −180 -->
      <defs>
       <path d="M 12.40625 8.296875 
L 28.515625 8.296875 
L 28.515625 63.921875 
L 10.984375 60.40625 
L 10.984375 69.390625 
L 28.421875 72.90625 
L 38.28125 72.90625 
L 38.28125 8.296875 
L 54.390625 8.296875 
L 54.390625 0 
L 12.40625 0 
z
" id="BitstreamVeraSans-Roman-31"/>
       <path d="M 31.78125 66.40625 
Q 24.171875 66.40625 20.328125 58.90625 
Q 16.5 51.421875 16.5 36.375 
Q 16.5 21.390625 20.328125 13.890625 
Q 24.171875 6.390625 31.78125 6.390625 
Q 39.453125 6.390625 43.28125 13.890625 
Q 47.125 21.390625 47.125 36.375 
Q 47.125 51.421875 43.28125 58.90625 
Q 39.453125 66.40625 31.78125 66.40625 
M 31.78125 74.21875 
Q 44.046875 74.21875 50.515625 64.515625 
Q 56.984375 54.828125 56.984375 36.375 
Q 56.984375 17.96875 50.515625 8.265625 
Q 44.046875 -1.421875 31.78125 -1.421875 
Q 19.53125 -1.421875 13.0625 8.265625 
Q 6.59375 17.96875 6.59375 36.375 
Q 6.59375 54.828125 13.0625 64.515625 
Q 19.53125 74.21875 31.78125 74.21875 
" id="BitstreamVeraSans-Roman-30"/>
       <path d="M 31.78125 34.625 
Q 24.75 34.625 20.71875 30.859375 
Q 16.703125 27.09375 16.703125 20.515625 
Q 16.703125 13.921875 20.71875 10.15625 
Q 24.75 6.390625 31.78125 6.390625 
Q 38.8125 6.390625 42.859375 10.171875 
Q 46.921875 13.96875 46.921875 20.515625 
Q 46.921875 27.09375 42.890625 30.859375 
Q 38.875 34.625 31.78125 34.625 
M 21.921875 38.8125 
Q 15.578125 40.375 12.03125 44.71875 
Q 8.5 49.078125 8.5 55.328125 
Q 8.5 64.0625 14.71875 69.140625 
Q 20.953125 74.21875 31.78125 74.21875 
Q 42.671875 74.21875 48.875 69.140625 
Q 55.078125 64.0625 55.078125 55.328125 
Q 55.078125 49.078125 51.53125 44.71875 
Q 48 40.375 41.703125 38.8125 
Q 48.828125 37.15625 52.796875 32.3125 
Q 56.78125 27.484375 56.78125 20.515625 
Q 56.78125 9.90625 50.3125 4.234375 
Q 43.84375 -1.421875 31.78125 -1.421875 
Q 19.734375 -1.421875 13.25 4.234375 
Q 6.78125 9.90625 6.78125 20.515625 
Q 6.78125 27.484375 10.78125 32.3125 
Q 14.796875 37.15625 21.921875 38.8125 
M 18.3125 54.390625 
Q 18.3125 48.734375 21.84375 45.5625 
Q 25.390625 42.390625 31.78125 42.390625 
Q 38.140625 42.390625 41.71875 45.5625 
Q 45.3125 48.734375 45.3125 54.390625 
Q 45.3125 60.0625 41.71875 63.234375 
Q 38.140625 66.40625 31.78125 66.40625 
Q 25.390625 66.40625 21.84375 63.234375 
Q 18.3125 60.0625 18.3125 54.390625 
" id="BitstreamVeraSans-Roman-38"/>
       <path d="M 10.59375 35.5 
L 73.1875 35.5 
L 73.1875 27.203125 
L 10.59375 27.203125 
z
" id="BitstreamVeraSans-Roman-2212"/>
      </defs>
      <g transform="translate(55.5196875 401.918125)scale(0.12 -0.12)">
       <use xlink:href="#BitstreamVeraSans-Roman-2212"/>
       <use x="83.7890625" xlink:href="#BitstreamVeraSans-Roman-31"/>
       <use x="147.412109375" xlink:href="#BitstreamVeraSans-Roman-38"/>
       <use x="211.03515625" xlink:href="#BitstreamVeraSans-Roman-30"/>
      </g>
     </g>
    </g>
    <g id="xtick_2">
     <g id="line2d_8">
      <g>
       <use style="stroke:#000000;stroke-width:0.5;" x="127.8" xlink:href="#ma396463a63" y="388.8"/>
      </g>
     </g>
     <g id="line2d_9">
      <g>
       <use style="stroke:#000000;stroke-width:0.5;" x="127.8" xlink:href="#m882b42aa7f" y="43.2"/>
      </g>
     </g>
     <g id="text_2">
      <!-- −135 -->
      <defs>
       <path d="M 40.578125 39.3125 
Q 47.65625 37.796875 51.625 33 
Q 55.609375 28.21875 55.609375 21.1875 
Q 55.609375 10.40625 48.1875 4.484375 
Q 40.765625 -1.421875 27.09375 -1.421875 
Q 22.515625 -1.421875 17.65625 -0.515625 
Q 12.796875 0.390625 7.625 2.203125 
L 7.625 11.71875 
Q 11.71875 9.328125 16.59375 8.109375 
Q 21.484375 6.890625 26.8125 6.890625 
Q 36.078125 6.890625 40.9375 10.546875 
Q 45.796875 14.203125 45.796875 21.1875 
Q 45.796875 27.640625 41.28125 31.265625 
Q 36.765625 34.90625 28.71875 34.90625 
L 20.21875 34.90625 
L 20.21875 43.015625 
L 29.109375 43.015625 
Q 36.375 43.015625 40.234375 45.921875 
Q 44.09375 48.828125 44.09375 54.296875 
Q 44.09375 59.90625 40.109375 62.90625 
Q 36.140625 65.921875 28.71875 65.921875 
Q 24.65625 65.921875 20.015625 65.03125 
Q 15.375 64.15625 9.8125 62.3125 
L 9.8125 71.09375 
Q 15.4375 72.65625 20.34375 73.4375 
Q 25.25 74.21875 29.59375 74.21875 
Q 40.828125 74.21875 47.359375 69.109375 
Q 53.90625 64.015625 53.90625 55.328125 
Q 53.90625 49.265625 50.4375 45.09375 
Q 46.96875 40.921875 40.578125 39.3125 
" id="BitstreamVeraSans-Roman-33"/>
       <path d="M 10.796875 72.90625 
L 49.515625 72.90625 
L 49.515625 64.59375 
L 19.828125 64.59375 
L 19.828125 46.734375 
Q 21.96875 47.46875 24.109375 47.828125 
Q 26.265625 48.1875 28.421875 48.1875 
Q 40.625 48.1875 47.75 41.5 
Q 54.890625 34.8125 54.890625 23.390625 
Q 54.890625 11.625 47.5625 5.09375 
Q 40.234375 -1.421875 26.90625 -1.421875 
Q 22.3125 -1.421875 17.546875 -0.640625 
Q 12.796875 0.140625 7.71875 1.703125 
L 7.71875 11.625 
Q 12.109375 9.234375 16.796875 8.0625 
Q 21.484375 6.890625 26.703125 6.890625 
Q 35.15625 6.890625 40.078125 11.328125 
Q 45.015625 15.765625 45.015625 23.390625 
Q 45.015625 31 40.078125 35.4375 
Q 35.15625 39.890625 26.703125 39.890625 
Q 22.75 39.890625 18.8125 39.015625 
Q 14.890625 38.140625 10.796875 36.28125 
z
" id="BitstreamVeraSans-Roman-35"/>
      </defs>
      <g transform="translate(111.3196875 401.918125)scale(0.12 -0.12)">
       <use xlink:href="#BitstreamVeraSans-Roman-2212"/>
       <use x="83.7890625" xlink:href="#BitstreamVeraSans-Roman-31"/>
       <use x="147.412109375" xlink:href="#BitstreamVeraSans-Roman-33"/>
       <use x="211.03515625" xlink:href="#BitstreamVeraSans-Roman-35"/>
      </g>
     </g>
    </g>
    <g id="xtick_3">
     <g id="line2d_10">
      <g>
       <use style="stroke:#000000;stroke-width:0.5;" x="183.6" xlink:href="#ma396463a63" y="388.8"/>
      </g>
     </g>
     <g id="line2d_11">
      <g>
       <use style="stroke:#000000;stroke-width:0.5;" x="183.6" xlink:href="#m882b42aa7f" y="43.2"/>
      </g>
     </g>
     <g id="text_3">
      <!-- −90 -->
      <defs>
       <path d="M 10.984375 1.515625 
L 10.984375 10.5 
Q 14.703125 8.734375 18.5 7.8125 
Q 22.3125 6.890625 25.984375 6.890625 
Q 35.75 6.890625 40.890625 13.453125 
Q 46.046875 20.015625 46.78125 33.40625 
Q 43.953125 29.203125 39.59375 26.953125 
Q 35.25 24.703125 29.984375 24.703125 
Q 19.046875 24.703125 12.671875 31.3125 
Q 6.296875 37.9375 6.296875 49.421875 
Q 6.296875 60.640625 12.9375 67.421875 
Q 19.578125 74.21875 30.609375 74.21875 
Q 43.265625 74.21875 49.921875 64.515625 
Q 56.59375 54.828125 56.59375 36.375 
Q 56.59375 19.140625 48.40625 8.859375 
Q 40.234375 -1.421875 26.421875 -1.421875 
Q 22.703125 -1.421875 18.890625 -0.6875 
Q 15.09375 0.046875 10.984375 1.515625 
M 30.609375 32.421875 
Q 37.25 32.421875 41.125 36.953125 
Q 45.015625 41.5 45.015625 49.421875 
Q 45.015625 57.28125 41.125 61.84375 
Q 37.25 66.40625 30.609375 66.40625 
Q 23.96875 66.40625 20.09375 61.84375 
Q 16.21875 57.28125 16.21875 49.421875 
Q 16.21875 41.5 20.09375 36.953125 
Q 23.96875 32.421875 30.609375 32.421875 
" id="BitstreamVeraSans-Roman-39"/>
      </defs>
      <g transform="translate(170.9371875 401.918125)scale(0.12 -0.12)">
       <use xlink:href="#BitstreamVeraSans-Roman-2212"/>
       <use x="83.7890625" xlink:href="#BitstreamVeraSans-Roman-39"/>
       <use x="147.412109375" xlink:href="#BitstreamVeraSans-Roman-30"/>
      </g>
     </g>
    </g>
    <g id="xtick_4">
     <g id="line2d_12">
      <g>
       <use style="stroke:#000000;stroke-width:0.5;" x="239.4" xlink:href="#ma396463a63" y="388.8"/>
      </g>
     </g>
     <g id="line2d_13">
      <g>
       <use style="stroke:#000000;stroke-width:0.5;" x="239.4" xlink:href="#m882b42aa7f" y="43.2"/>
      </g>
     </g>
     <g id="text_4">
      <!-- −45 -->
      <defs>
       <path d="M 37.796875 64.3125 
L 12.890625 25.390625 
L 37.796875 25.390625 
z
M 35.203125 72.90625 
L 47.609375 72.90625 
L 47.609375 25.390625 
L 58.015625 25.390625 
L 58.015625 17.1875 
L 47.609375 17.1875 
L 47.609375 0 
L 37.796875 0 
L 37.796875 17.1875 
L 4.890625 17.1875 
L 4.890625 26.703125 
z
" id="BitstreamVeraSans-Roman-34"/>
      </defs>
      <g transform="translate(226.7371875 401.918125)scale(0.12 -0.12)">
       <use xlink:href="#BitstreamVeraSans-Roman-2212"/>
       <use x="83.7890625" xlink:href="#BitstreamVeraSans-Roman-34"/>
       <use x="147.412109375" xlink:href="#BitstreamVeraSans-Roman-35"/>
      </g>
     </g>
    </g>
    <g id="xtick_5">
     <g id="line2d_14">
      <g>
       <use style="stroke:#000000;stroke-width:0.5;" x="295.2" xlink:href="#ma396463a63" y="388.8"/>
      </g>
     </g>
     <g id="line2d_15">
      <g>
       <use style="stroke:#000000;stroke-width:0.5;" x="295.2" xlink:href="#m882b42aa7f" y="43.2"/>
      </g>
     </g>
     <g id="text_5">
      <!-- 0 -->
      <g transform="translate(291.3825 401.918125)scale(0.12 -0.12)">
       <use xlink:href="#BitstreamVeraSans-Roman-30"/>
      </g>
     </g>
    </g>
    <g id="xtick_6">
     <g id="line2d_16">
      <g>
       <use style="stroke:#000000;stroke-width:0.5;" x="351.0" xlink:href="#ma396463a63" y="388.8"/>
      </g>
     </g>
     <g id="line2d_17">
      <g>
       <use style="stroke:#000000;stroke-width:0.5;" x="351.0" xlink:href="#m882b42aa7f" y="43.2"/>
      </g>
     </g>
     <g id="text_6">
      <!-- 45 -->
      <g transform="translate(343.365 401.918125)scale(0.12 -0.12)">
       <use xlink:href="#BitstreamVeraSans-Roman-34"/>
       <use x="63.623046875" xlink:href="#BitstreamVeraSans-Roman-35"/>
      </g>
     </g>
    </g>
    <g id="xtick_7">
     <g id="line2d_18">
      <g>
       <use style="stroke:#000000;stroke-width:0.5;" x="406.8" xlink:href="#ma396463a63" y="388.8"/>
      </g>
     </g>
     <g id="line2d_19">
      <g>
       <use style="stroke:#000000;stroke-width:0.5;" x="406.8" xlink:href="#m882b42aa7f" y="43.2"/>
      </g>
     </g>
     <g id="text_7">
      <!-- 90 -->
      <g transform="translate(399.165 401.918125)scale(0.12 -0.12)">
       <use xlink:href="#BitstreamVeraSans-Roman-39"/>
       <use x="63.623046875" xlink:href="#BitstreamVeraSans-Roman-30"/>
      </g>
     </g>
    </g>
    <g id="xtick_8">
     <g id="line2d_20">
      <g>
       <use style="stroke:#000000;stroke-width:0.5;" x="462.6" xlink:href="#ma396463a63" y="388.8"/>
      </g>
     </g>
     <g id="line2d_21">
      <g>
       <use style="stroke:#000000;stroke-width:0.5;" x="462.6" xlink:href="#m882b42aa7f" y="43.2"/>
      </g>
     </g>
     <g id="text_8">
      <!-- 135 -->
      <g transform="translate(451.1475 401.918125)scale(0.12 -0.12)">
       <use xlink:href="#BitstreamVeraSans-Roman-31"/>
       <use x="63.623046875" xlink:href="#BitstreamVeraSans-Roman-33"/>
       <use x="127.24609375" xlink:href="#BitstreamVeraSans-Roman-35"/>
      </g>
     </g>
    </g>
    <g id="xtick_9">
     <g id="line2d_22">
      <g>
       <use style="stroke:#000000;stroke-width:0.5;" x="518.4" xlink:href="#ma396463a63" y="388.8"/>
      </g>
     </g>
     <g id="line2d_23">
      <g>
       <use style="stroke:#000000;stroke-width:0.5;" x="518.4" xlink:href="#m882b42aa7f" y="43.2"/>
      </g>
     </g>
     <g id="text_9">
      <!-- 180 -->
      <g transform="translate(506.9475 401.918125)scale(0.12 -0.12)">
       <use xlink:href="#BitstreamVeraSans-Roman-31"/>
       <use x="63.623046875" xlink:href="#BitstreamVeraSans-Roman-38"/>
       <use x="127.24609375" xlink:href="#BitstreamVeraSans-Roman-30"/>
      </g>
     </g>
    </g>
    <g id="text_10">
     <!-- Phi -->
     <defs>
      <path d="M 9.421875 54.6875 
L 18.40625 54.6875 
L 18.40625 0 
L 9.421875 0 
z
M 9.421875 75.984375 
L 18.40625 75.984375 
L 18.40625 64.59375 
L 9.421875 64.59375 
z
" id="BitstreamVeraSans-Roman-69"/>
      <path d="M 54.890625 33.015625 
L 54.890625 0 
L 45.90625 0 
L 45.90625 32.71875 
Q 45.90625 40.484375 42.875 44.328125 
Q 39.84375 48.1875 33.796875 48.1875 
Q 26.515625 48.1875 22.3125 43.546875 
Q 18.109375 38.921875 18.109375 30.90625 
L 18.109375 0 
L 9.078125 0 
L 9.078125 75.984375 
L 18.109375 75.984375 
L 18.109375 46.1875 
Q 21.34375 51.125 25.703125 53.5625 
Q 30.078125 56 35.796875 56 
Q 45.21875 56 50.046875 50.171875 
Q 54.890625 44.34375 54.890625 33.015625 
" id="BitstreamVeraSans-Roman-68"/>
      <path d="M 19.671875 64.796875 
L 19.671875 37.40625 
L 32.078125 37.40625 
Q 38.96875 37.40625 42.71875 40.96875 
Q 46.484375 44.53125 46.484375 51.125 
Q 46.484375 57.671875 42.71875 61.234375 
Q 38.96875 64.796875 32.078125 64.796875 
z
M 9.8125 72.90625 
L 32.078125 72.90625 
Q 44.34375 72.90625 50.609375 67.359375 
Q 56.890625 61.8125 56.890625 51.125 
Q 56.890625 40.328125 50.609375 34.8125 
Q 44.34375 29.296875 32.078125 29.296875 
L 19.671875 29.296875 
L 19.671875 0 
L 9.8125 0 
z
" id="BitstreamVeraSans-Roman-50"/>
     </defs>
     <g transform="translate(286.1128125 418.531875)scale(0.12 -0.12)">
      <use xlink:href="#BitstreamVeraSans-Roman-50"/>
      <use x="60.302734375" xlink:href="#BitstreamVeraSans-Roman-68"/>
      <use x="123.681640625" xlink:href="#BitstreamVeraSans-Roman-69"/>
     </g>
    </g>
   </g>
   <g id="matplotlib.axis_2">
    <g id="ytick_1">
     <g id="line2d_24">
      <defs>
       <path d="M 0 0 
L 4 0 
" id="mb23dc26c63" style="stroke:#000000;stroke-width:0.5;"/>
      </defs>
      <g>
       <use style="stroke:#000000;stroke-width:0.5;" x="72.0" xlink:href="#mb23dc26c63" y="388.8"/>
      </g>
     </g>
     <g id="line2d_25">
      <defs>
       <path d="M 0 0 
L -4 0 
" id="ma6c8a83ebb" style="stroke:#000000;stroke-width:0.5;"/>
      </defs>
      <g>
       <use style="stroke:#000000;stroke-width:0.5;" x="518.4" xlink:href="#ma6c8a83ebb" y="388.8"/>
      </g>
     </g>
     <g id="text_11">
      <!-- 0 -->
      <g transform="translate(60.365 392.11125)scale(0.12 -0.12)">
       <use xlink:href="#BitstreamVeraSans-Roman-30"/>
      </g>
     </g>
    </g>
    <g id="ytick_2">
     <g id="line2d_26">
      <g>
       <use style="stroke:#000000;stroke-width:0.5;" x="72.0" xlink:href="#mb23dc26c63" y="331.2"/>
      </g>
     </g>
     <g id="line2d_27">
      <g>
       <use style="stroke:#000000;stroke-width:0.5;" x="518.4" xlink:href="#ma6c8a83ebb" y="331.2"/>
      </g>
     </g>
     <g id="text_12">
      <!-- 1 -->
      <g transform="translate(60.365 334.51125)scale(0.12 -0.12)">
       <use xlink:href="#BitstreamVeraSans-Roman-31"/>
      </g>
     </g>
    </g>
    <g id="ytick_3">
     <g id="line2d_28">
      <g>
       <use style="stroke:#000000;stroke-width:0.5;" x="72.0" xlink:href="#mb23dc26c63" y="273.6"/>
      </g>
     </g>
     <g id="line2d_29">
      <g>
       <use style="stroke:#000000;stroke-width:0.5;" x="518.4" xlink:href="#ma6c8a83ebb" y="273.6"/>
      </g>
     </g>
     <g id="text_13">
      <!-- 2 -->
      <defs>
       <path d="M 19.1875 8.296875 
L 53.609375 8.296875 
L 53.609375 0 
L 7.328125 0 
L 7.328125 8.296875 
Q 12.9375 14.109375 22.625 23.890625 
Q 32.328125 33.6875 34.8125 36.53125 
Q 39.546875 41.84375 41.421875 45.53125 
Q 43.3125 49.21875 43.3125 52.78125 
Q 43.3125 58.59375 39.234375 62.25 
Q 35.15625 65.921875 28.609375 65.921875 
Q 23.96875 65.921875 18.8125 64.3125 
Q 13.671875 62.703125 7.8125 59.421875 
L 7.8125 69.390625 
Q 13.765625 71.78125 18.9375 73 
Q 24.125 74.21875 28.421875 74.21875 
Q 39.75 74.21875 46.484375 68.546875 
Q 53.21875 62.890625 53.21875 53.421875 
Q 53.21875 48.921875 51.53125 44.890625 
Q 49.859375 40.875 45.40625 35.40625 
Q 44.1875 33.984375 37.640625 27.21875 
Q 31.109375 20.453125 19.1875 8.296875 
" id="BitstreamVeraSans-Roman-32"/>
      </defs>
      <g transform="translate(60.365 276.91125)scale(0.12 -0.12)">
       <use xlink:href="#BitstreamVeraSans-Roman-32"/>
      </g>
     </g>
    </g>
    <g id="ytick_4">
     <g id="line2d_30">
      <g>
       <use style="stroke:#000000;stroke-width:0.5;" x="72.0" xlink:href="#mb23dc26c63" y="216.0"/>
      </g>
     </g>
     <g id="line2d_31">
      <g>
       <use style="stroke:#000000;stroke-width:0.5;" x="518.4" xlink:href="#ma6c8a83ebb" y="216.0"/>
      </g>
     </g>
     <g id="text_14">
      <!-- 3 -->
      <g transform="translate(60.365 219.31125)scale(0.12 -0.12)">
       <use xlink:href="#BitstreamVeraSans-Roman-33"/>
      </g>
     </g>
    </g>
    <g id="ytick_5">
     <g id="line2d_32">
      <g>
       <use style="stroke:#000000;stroke-width:0.5;" x="72.0" xlink:href="#mb23dc26c63" y="158.4"/>
      </g>
     </g>
     <g id="line2d_33">
      <g>
       <use style="stroke:#000000;stroke-width:0.5;" x="518.4" xlink:href="#ma6c8a83ebb" y="158.4"/>
      </g>
     </g>
     <g id="text_15">
      <!-- 4 -->
      <g transform="translate(60.365 161.71125)scale(0.12 -0.12)">
       <use xlink:href="#BitstreamVeraSans-Roman-34"/>
      </g>
     </g>
    </g>
    <g id="ytick_6">
     <g id="line2d_34">
      <g>
       <use style="stroke:#000000;stroke-width:0.5;" x="72.0" xlink:href="#mb23dc26c63" y="100.8"/>
      </g>
     </g>
     <g id="line2d_35">
      <g>
       <use style="stroke:#000000;stroke-width:0.5;" x="518.4" xlink:href="#ma6c8a83ebb" y="100.8"/>
      </g>
     </g>
     <g id="text_16">
      <!-- 5 -->
      <g transform="translate(60.365 104.11125)scale(0.12 -0.12)">
       <use xlink:href="#BitstreamVeraSans-Roman-35"/>
      </g>
     </g>
    </g>
    <g id="ytick_7">
     <g id="line2d_36">
      <g>
       <use style="stroke:#000000;stroke-width:0.5;" x="72.0" xlink:href="#mb23dc26c63" y="43.2"/>
      </g>
     </g>
     <g id="line2d_37">
      <g>
       <use style="stroke:#000000;stroke-width:0.5;" x="518.4" xlink:href="#ma6c8a83ebb" y="43.2"/>
      </g>
     </g>
     <g id="text_17">
      <!-- 6 -->
      <defs>
       <path d="M 33.015625 40.375 
Q 26.375 40.375 22.484375 35.828125 
Q 18.609375 31.296875 18.609375 23.390625 
Q 18.609375 15.53125 22.484375 10.953125 
Q 26.375 6.390625 33.015625 6.390625 
Q 39.65625 6.390625 43.53125 10.953125 
Q 47.40625 15.53125 47.40625 23.390625 
Q 47.40625 31.296875 43.53125 35.828125 
Q 39.65625 40.375 33.015625 40.375 
M 52.59375 71.296875 
L 52.59375 62.3125 
Q 48.875 64.0625 45.09375 64.984375 
Q 41.3125 65.921875 37.59375 65.921875 
Q 27.828125 65.921875 22.671875 59.328125 
Q 17.53125 52.734375 16.796875 39.40625 
Q 19.671875 43.65625 24.015625 45.921875 
Q 28.375 48.1875 33.59375 48.1875 
Q 44.578125 48.1875 50.953125 41.515625 
Q 57.328125 34.859375 57.328125 23.390625 
Q 57.328125 12.15625 50.6875 5.359375 
Q 44.046875 -1.421875 33.015625 -1.421875 
Q 20.359375 -1.421875 13.671875 8.265625 
Q 6.984375 17.96875 6.984375 36.375 
Q 6.984375 53.65625 15.1875 63.9375 
Q 23.390625 74.21875 37.203125 74.21875 
Q 40.921875 74.21875 44.703125 73.484375 
Q 48.484375 72.75 52.59375 71.296875 
" id="BitstreamVeraSans-Roman-36"/>
      </defs>
      <g transform="translate(60.365 46.51125)scale(0.12 -0.12)">
       <use xlink:href="#BitstreamVeraSans-Roman-36"/>
      </g>
     </g>
    </g>
    <g id="text_18">
     <!-- kcal/mol -->
     <defs>
      <path d="M 48.78125 52.59375 
L 48.78125 44.1875 
Q 44.96875 46.296875 41.140625 47.34375 
Q 37.3125 48.390625 33.40625 48.390625 
Q 24.65625 48.390625 19.8125 42.84375 
Q 14.984375 37.3125 14.984375 27.296875 
Q 14.984375 17.28125 19.8125 11.734375 
Q 24.65625 6.203125 33.40625 6.203125 
Q 37.3125 6.203125 41.140625 7.25 
Q 44.96875 8.296875 48.78125 10.40625 
L 48.78125 2.09375 
Q 45.015625 0.34375 40.984375 -0.53125 
Q 36.96875 -1.421875 32.421875 -1.421875 
Q 20.0625 -1.421875 12.78125 6.34375 
Q 5.515625 14.109375 5.515625 27.296875 
Q 5.515625 40.671875 12.859375 48.328125 
Q 20.21875 56 33.015625 56 
Q 37.15625 56 41.109375 55.140625 
Q 45.0625 54.296875 48.78125 52.59375 
" id="BitstreamVeraSans-Roman-63"/>
      <path d="M 9.078125 75.984375 
L 18.109375 75.984375 
L 18.109375 31.109375 
L 44.921875 54.6875 
L 56.390625 54.6875 
L 27.390625 29.109375 
L 57.625 0 
L 45.90625 0 
L 18.109375 26.703125 
L 18.109375 0 
L 9.078125 0 
z
" id="BitstreamVeraSans-Roman-6b"/>
      <path d="M 34.28125 27.484375 
Q 23.390625 27.484375 19.1875 25 
Q 14.984375 22.515625 14.984375 16.5 
Q 14.984375 11.71875 18.140625 8.90625 
Q 21.296875 6.109375 26.703125 6.109375 
Q 34.1875 6.109375 38.703125 11.40625 
Q 43.21875 16.703125 43.21875 25.484375 
L 43.21875 27.484375 
z
M 52.203125 31.203125 
L 52.203125 0 
L 43.21875 0 
L 43.21875 8.296875 
Q 40.140625 3.328125 35.546875 0.953125 
Q 30.953125 -1.421875 24.3125 -1.421875 
Q 15.921875 -1.421875 10.953125 3.296875 
Q 6 8.015625 6 15.921875 
Q 6 25.140625 12.171875 29.828125 
Q 18.359375 34.515625 30.609375 34.515625 
L 43.21875 34.515625 
L 43.21875 35.40625 
Q 43.21875 41.609375 39.140625 45 
Q 35.0625 48.390625 27.6875 48.390625 
Q 23 48.390625 18.546875 47.265625 
Q 14.109375 46.140625 10.015625 43.890625 
L 10.015625 52.203125 
Q 14.9375 54.109375 19.578125 55.046875 
Q 24.21875 56 28.609375 56 
Q 40.484375 56 46.34375 49.84375 
Q 52.203125 43.703125 52.203125 31.203125 
" id="BitstreamVeraSans-Roman-61"/>
      <path d="M 52 44.1875 
Q 55.375 50.25 60.0625 53.125 
Q 64.75 56 71.09375 56 
Q 79.640625 56 84.28125 50.015625 
Q 88.921875 44.046875 88.921875 33.015625 
L 88.921875 0 
L 79.890625 0 
L 79.890625 32.71875 
Q 79.890625 40.578125 77.09375 44.375 
Q 74.3125 48.1875 68.609375 48.1875 
Q 61.625 48.1875 57.5625 43.546875 
Q 53.515625 38.921875 53.515625 30.90625 
L 53.515625 0 
L 44.484375 0 
L 44.484375 32.71875 
Q 44.484375 40.625 41.703125 44.40625 
Q 38.921875 48.1875 33.109375 48.1875 
Q 26.21875 48.1875 22.15625 43.53125 
Q 18.109375 38.875 18.109375 30.90625 
L 18.109375 0 
L 9.078125 0 
L 9.078125 54.6875 
L 18.109375 54.6875 
L 18.109375 46.1875 
Q 21.1875 51.21875 25.484375 53.609375 
Q 29.78125 56 35.6875 56 
Q 41.65625 56 45.828125 52.96875 
Q 50 49.953125 52 44.1875 
" id="BitstreamVeraSans-Roman-6d"/>
      <path d="M 9.421875 75.984375 
L 18.40625 75.984375 
L 18.40625 0 
L 9.421875 0 
z
" id="BitstreamVeraSans-Roman-6c"/>
      <path d="M 25.390625 72.90625 
L 33.6875 72.90625 
L 8.296875 -9.28125 
L 0 -9.28125 
z
" id="BitstreamVeraSans-Roman-2f"/>
      <path d="M 30.609375 48.390625 
Q 23.390625 48.390625 19.1875 42.75 
Q 14.984375 37.109375 14.984375 27.296875 
Q 14.984375 17.484375 19.15625 11.84375 
Q 23.34375 6.203125 30.609375 6.203125 
Q 37.796875 6.203125 41.984375 11.859375 
Q 46.1875 17.53125 46.1875 27.296875 
Q 46.1875 37.015625 41.984375 42.703125 
Q 37.796875 48.390625 30.609375 48.390625 
M 30.609375 56 
Q 42.328125 56 49.015625 48.375 
Q 55.71875 40.765625 55.71875 27.296875 
Q 55.71875 13.875 49.015625 6.21875 
Q 42.328125 -1.421875 30.609375 -1.421875 
Q 18.84375 -1.421875 12.171875 6.21875 
Q 5.515625 13.875 5.515625 27.296875 
Q 5.515625 40.765625 12.171875 48.375 
Q 18.84375 56 30.609375 56 
" id="BitstreamVeraSans-Roman-6f"/>
     </defs>
     <g transform="translate(52.869375 241.3209375)rotate(-90.0)scale(0.12 -0.12)">
      <use xlink:href="#BitstreamVeraSans-Roman-6b"/>
      <use x="57.91015625" xlink:href="#BitstreamVeraSans-Roman-63"/>
      <use x="112.890625" xlink:href="#BitstreamVeraSans-Roman-61"/>
      <use x="174.169921875" xlink:href="#BitstreamVeraSans-Roman-6c"/>
      <use x="201.953125" xlink:href="#BitstreamVeraSans-Roman-2f"/>
      <use x="235.64453125" xlink:href="#BitstreamVeraSans-Roman-6d"/>
      <use x="333.056640625" xlink:href="#BitstreamVeraSans-Roman-6f"/>
      <use x="394.23828125" xlink:href="#BitstreamVeraSans-Roman-6c"/>
     </g>
    </g>
   </g>
   <g id="text_19">
    <!-- H3-C1-C2-H5 -->
    <defs>
     <path d="M 64.40625 67.28125 
L 64.40625 56.890625 
Q 59.421875 61.53125 53.78125 63.8125 
Q 48.140625 66.109375 41.796875 66.109375 
Q 29.296875 66.109375 22.65625 58.46875 
Q 16.015625 50.828125 16.015625 36.375 
Q 16.015625 21.96875 22.65625 14.328125 
Q 29.296875 6.6875 41.796875 6.6875 
Q 48.140625 6.6875 53.78125 8.984375 
Q 59.421875 11.28125 64.40625 15.921875 
L 64.40625 5.609375 
Q 59.234375 2.09375 53.4375 0.328125 
Q 47.65625 -1.421875 41.21875 -1.421875 
Q 24.65625 -1.421875 15.125 8.703125 
Q 5.609375 18.84375 5.609375 36.375 
Q 5.609375 53.953125 15.125 64.078125 
Q 24.65625 74.21875 41.21875 74.21875 
Q 47.75 74.21875 53.53125 72.484375 
Q 59.328125 70.75 64.40625 67.28125 
" id="BitstreamVeraSans-Roman-43"/>
     <path d="M 9.8125 72.90625 
L 19.671875 72.90625 
L 19.671875 43.015625 
L 55.515625 43.015625 
L 55.515625 72.90625 
L 65.375 72.90625 
L 65.375 0 
L 55.515625 0 
L 55.515625 34.71875 
L 19.671875 34.71875 
L 19.671875 0 
L 9.8125 0 
z
" id="BitstreamVeraSans-Roman-48"/>
     <path d="M 4.890625 31.390625 
L 31.203125 31.390625 
L 31.203125 23.390625 
L 4.890625 23.390625 
z
" id="BitstreamVeraSans-Roman-2d"/>
    </defs>
    <g transform="translate(248.198625 38.2)scale(0.144 -0.144)">
     <use xlink:href="#BitstreamVeraSans-Roman-48"/>
     <use x="75.1953125" xlink:href="#BitstreamVeraSans-Roman-33"/>
     <use x="138.818359375" xlink:href="#BitstreamVeraSans-Roman-2d"/>
     <use x="174.90234375" xlink:href="#BitstreamVeraSans-Roman-43"/>
     <use x="244.7265625" xlink:href="#BitstreamVeraSans-Roman-31"/>
     <use x="308.349609375" xlink:href="#BitstreamVeraSans-Roman-2d"/>
     <use x="344.43359375" xlink:href="#BitstreamVeraSans-Roman-43"/>
     <use x="414.2578125" xlink:href="#BitstreamVeraSans-Roman-32"/>
     <use x="477.880859375" xlink:href="#BitstreamVeraSans-Roman-2d"/>
     <use x="513.96484375" xlink:href="#BitstreamVeraSans-Roman-48"/>
     <use x="589.16015625" xlink:href="#BitstreamVeraSans-Roman-35"/>
    </g>
   </g>
   <g id="legend_1">
    <g id="patch_7">
     <path d="M 406.15625 108.3125 
L 514.4 108.3125 
L 514.4 47.2 
L 406.15625 47.2 
z
" style="fill:#ffffff;stroke:#000000;stroke-linejoin:miter;"/>
    </g>
    <g id="line2d_38">
     <path d="M 411.75625 53.67875 
L 422.95625 53.67875 
" style="fill:none;stroke:#ff0000;stroke-linecap:square;"/>
    </g>
    <g id="line2d_39">
     <g>
      <use style="fill:#ff0000;stroke:#000000;stroke-width:0.5;" x="411.75625" xlink:href="#m71522c551f" y="53.67875"/>
      <use style="fill:#ff0000;stroke:#000000;stroke-width:0.5;" x="422.95625" xlink:href="#m71522c551f" y="53.67875"/>
     </g>
    </g>
    <g id="text_20">
     <!-- QM -->
     <defs>
      <path d="M 9.8125 72.90625 
L 24.515625 72.90625 
L 43.109375 23.296875 
L 61.8125 72.90625 
L 76.515625 72.90625 
L 76.515625 0 
L 66.890625 0 
L 66.890625 64.015625 
L 48.09375 14.015625 
L 38.1875 14.015625 
L 19.390625 64.015625 
L 19.390625 0 
L 9.8125 0 
z
" id="BitstreamVeraSans-Roman-4d"/>
      <path d="M 39.40625 66.21875 
Q 28.65625 66.21875 22.328125 58.203125 
Q 16.015625 50.203125 16.015625 36.375 
Q 16.015625 22.609375 22.328125 14.59375 
Q 28.65625 6.59375 39.40625 6.59375 
Q 50.140625 6.59375 56.421875 14.59375 
Q 62.703125 22.609375 62.703125 36.375 
Q 62.703125 50.203125 56.421875 58.203125 
Q 50.140625 66.21875 39.40625 66.21875 
M 53.21875 1.3125 
L 66.21875 -12.890625 
L 54.296875 -12.890625 
L 43.5 -1.21875 
Q 41.890625 -1.3125 41.03125 -1.359375 
Q 40.1875 -1.421875 39.40625 -1.421875 
Q 24.03125 -1.421875 14.8125 8.859375 
Q 5.609375 19.140625 5.609375 36.375 
Q 5.609375 53.65625 14.8125 63.9375 
Q 24.03125 74.21875 39.40625 74.21875 
Q 54.734375 74.21875 63.90625 63.9375 
Q 73.09375 53.65625 73.09375 36.375 
Q 73.09375 23.6875 67.984375 14.640625 
Q 62.890625 5.609375 53.21875 1.3125 
" id="BitstreamVeraSans-Roman-51"/>
     </defs>
     <g transform="translate(431.75625 56.47875)scale(0.08 -0.08)">
      <use xlink:href="#BitstreamVeraSans-Roman-51"/>
      <use x="78.7109375" xlink:href="#BitstreamVeraSans-Roman-4d"/>
     </g>
    </g>
    <g id="line2d_40">
     <path d="M 411.75625 65.42125 
L 422.95625 65.42125 
" style="fill:none;stroke:#0000ff;stroke-linecap:square;"/>
    </g>
    <g id="line2d_41">
     <g>
      <use style="fill:#0000ff;stroke:#000000;stroke-width:0.5;" x="411.75625" xlink:href="#ma39184f986" y="65.42125"/>
      <use style="fill:#0000ff;stroke:#000000;stroke-width:0.5;" x="422.95625" xlink:href="#ma39184f986" y="65.42125"/>
     </g>
    </g>
    <g id="text_21">
     <!-- MM Original -->
     <defs>
      <path d="M 39.40625 66.21875 
Q 28.65625 66.21875 22.328125 58.203125 
Q 16.015625 50.203125 16.015625 36.375 
Q 16.015625 22.609375 22.328125 14.59375 
Q 28.65625 6.59375 39.40625 6.59375 
Q 50.140625 6.59375 56.421875 14.59375 
Q 62.703125 22.609375 62.703125 36.375 
Q 62.703125 50.203125 56.421875 58.203125 
Q 50.140625 66.21875 39.40625 66.21875 
M 39.40625 74.21875 
Q 54.734375 74.21875 63.90625 63.9375 
Q 73.09375 53.65625 73.09375 36.375 
Q 73.09375 19.140625 63.90625 8.859375 
Q 54.734375 -1.421875 39.40625 -1.421875 
Q 24.03125 -1.421875 14.8125 8.828125 
Q 5.609375 19.09375 5.609375 36.375 
Q 5.609375 53.65625 14.8125 63.9375 
Q 24.03125 74.21875 39.40625 74.21875 
" id="BitstreamVeraSans-Roman-4f"/>
      <path d="M 41.109375 46.296875 
Q 39.59375 47.171875 37.8125 47.578125 
Q 36.03125 48 33.890625 48 
Q 26.265625 48 22.1875 43.046875 
Q 18.109375 38.09375 18.109375 28.8125 
L 18.109375 0 
L 9.078125 0 
L 9.078125 54.6875 
L 18.109375 54.6875 
L 18.109375 46.1875 
Q 20.953125 51.171875 25.484375 53.578125 
Q 30.03125 56 36.53125 56 
Q 37.453125 56 38.578125 55.875 
Q 39.703125 55.765625 41.0625 55.515625 
z
" id="BitstreamVeraSans-Roman-72"/>
      <path d="M 54.890625 33.015625 
L 54.890625 0 
L 45.90625 0 
L 45.90625 32.71875 
Q 45.90625 40.484375 42.875 44.328125 
Q 39.84375 48.1875 33.796875 48.1875 
Q 26.515625 48.1875 22.3125 43.546875 
Q 18.109375 38.921875 18.109375 30.90625 
L 18.109375 0 
L 9.078125 0 
L 9.078125 54.6875 
L 18.109375 54.6875 
L 18.109375 46.1875 
Q 21.34375 51.125 25.703125 53.5625 
Q 30.078125 56 35.796875 56 
Q 45.21875 56 50.046875 50.171875 
Q 54.890625 44.34375 54.890625 33.015625 
" id="BitstreamVeraSans-Roman-6e"/>
      <path id="BitstreamVeraSans-Roman-20"/>
      <path d="M 45.40625 27.984375 
Q 45.40625 37.75 41.375 43.109375 
Q 37.359375 48.484375 30.078125 48.484375 
Q 22.859375 48.484375 18.828125 43.109375 
Q 14.796875 37.75 14.796875 27.984375 
Q 14.796875 18.265625 18.828125 12.890625 
Q 22.859375 7.515625 30.078125 7.515625 
Q 37.359375 7.515625 41.375 12.890625 
Q 45.40625 18.265625 45.40625 27.984375 
M 54.390625 6.78125 
Q 54.390625 -7.171875 48.1875 -13.984375 
Q 42 -20.796875 29.203125 -20.796875 
Q 24.46875 -20.796875 20.265625 -20.09375 
Q 16.0625 -19.390625 12.109375 -17.921875 
L 12.109375 -9.1875 
Q 16.0625 -11.328125 19.921875 -12.34375 
Q 23.78125 -13.375 27.78125 -13.375 
Q 36.625 -13.375 41.015625 -8.765625 
Q 45.40625 -4.15625 45.40625 5.171875 
L 45.40625 9.625 
Q 42.625 4.78125 38.28125 2.390625 
Q 33.9375 0 27.875 0 
Q 17.828125 0 11.671875 7.65625 
Q 5.515625 15.328125 5.515625 27.984375 
Q 5.515625 40.671875 11.671875 48.328125 
Q 17.828125 56 27.875 56 
Q 33.9375 56 38.28125 53.609375 
Q 42.625 51.21875 45.40625 46.390625 
L 45.40625 54.6875 
L 54.390625 54.6875 
z
" id="BitstreamVeraSans-Roman-67"/>
     </defs>
     <g transform="translate(431.75625 68.22125)scale(0.08 -0.08)">
      <use xlink:href="#BitstreamVeraSans-Roman-4d"/>
      <use x="86.279296875" xlink:href="#BitstreamVeraSans-Roman-4d"/>
      <use x="172.55859375" xlink:href="#BitstreamVeraSans-Roman-20"/>
      <use x="204.345703125" xlink:href="#BitstreamVeraSans-Roman-4f"/>
      <use x="283.056640625" xlink:href="#BitstreamVeraSans-Roman-72"/>
      <use x="324.169921875" xlink:href="#BitstreamVeraSans-Roman-69"/>
      <use x="351.953125" xlink:href="#BitstreamVeraSans-Roman-67"/>
      <use x="415.4296875" xlink:href="#BitstreamVeraSans-Roman-69"/>
      <use x="443.212890625" xlink:href="#BitstreamVeraSans-Roman-6e"/>
      <use x="506.591796875" xlink:href="#BitstreamVeraSans-Roman-61"/>
      <use x="567.87109375" xlink:href="#BitstreamVeraSans-Roman-6c"/>
     </g>
    </g>
    <g id="line2d_42">
     <path d="M 411.75625 77.16375 
L 422.95625 77.16375 
" style="fill:none;stroke:#000000;stroke-linecap:square;"/>
    </g>
    <g id="line2d_43">
     <g>
      <use style="stroke:#000000;stroke-width:0.5;" x="411.75625" xlink:href="#m51f324b57d" y="77.16375"/>
      <use style="stroke:#000000;stroke-width:0.5;" x="422.95625" xlink:href="#m51f324b57d" y="77.16375"/>
     </g>
    </g>
    <g id="text_22">
     <!-- MM With phi zeroed -->
     <defs>
      <path d="M 45.40625 46.390625 
L 45.40625 75.984375 
L 54.390625 75.984375 
L 54.390625 0 
L 45.40625 0 
L 45.40625 8.203125 
Q 42.578125 3.328125 38.25 0.953125 
Q 33.9375 -1.421875 27.875 -1.421875 
Q 17.96875 -1.421875 11.734375 6.484375 
Q 5.515625 14.40625 5.515625 27.296875 
Q 5.515625 40.1875 11.734375 48.09375 
Q 17.96875 56 27.875 56 
Q 33.9375 56 38.25 53.625 
Q 42.578125 51.265625 45.40625 46.390625 
M 14.796875 27.296875 
Q 14.796875 17.390625 18.875 11.75 
Q 22.953125 6.109375 30.078125 6.109375 
Q 37.203125 6.109375 41.296875 11.75 
Q 45.40625 17.390625 45.40625 27.296875 
Q 45.40625 37.203125 41.296875 42.84375 
Q 37.203125 48.484375 30.078125 48.484375 
Q 22.953125 48.484375 18.875 42.84375 
Q 14.796875 37.203125 14.796875 27.296875 
" id="BitstreamVeraSans-Roman-64"/>
      <path d="M 56.203125 29.59375 
L 56.203125 25.203125 
L 14.890625 25.203125 
Q 15.484375 15.921875 20.484375 11.0625 
Q 25.484375 6.203125 34.421875 6.203125 
Q 39.59375 6.203125 44.453125 7.46875 
Q 49.3125 8.734375 54.109375 11.28125 
L 54.109375 2.78125 
Q 49.265625 0.734375 44.1875 -0.34375 
Q 39.109375 -1.421875 33.890625 -1.421875 
Q 20.796875 -1.421875 13.15625 6.1875 
Q 5.515625 13.8125 5.515625 26.8125 
Q 5.515625 40.234375 12.765625 48.109375 
Q 20.015625 56 32.328125 56 
Q 43.359375 56 49.78125 48.890625 
Q 56.203125 41.796875 56.203125 29.59375 
M 47.21875 32.234375 
Q 47.125 39.59375 43.09375 43.984375 
Q 39.0625 48.390625 32.421875 48.390625 
Q 24.90625 48.390625 20.390625 44.140625 
Q 15.875 39.890625 15.1875 32.171875 
z
" id="BitstreamVeraSans-Roman-65"/>
      <path d="M 3.328125 72.90625 
L 13.28125 72.90625 
L 28.609375 11.28125 
L 43.890625 72.90625 
L 54.984375 72.90625 
L 70.3125 11.28125 
L 85.59375 72.90625 
L 95.609375 72.90625 
L 77.296875 0 
L 64.890625 0 
L 49.515625 63.28125 
L 33.984375 0 
L 21.578125 0 
z
" id="BitstreamVeraSans-Roman-57"/>
      <path d="M 18.3125 70.21875 
L 18.3125 54.6875 
L 36.8125 54.6875 
L 36.8125 47.703125 
L 18.3125 47.703125 
L 18.3125 18.015625 
Q 18.3125 11.328125 20.140625 9.421875 
Q 21.96875 7.515625 27.59375 7.515625 
L 36.8125 7.515625 
L 36.8125 0 
L 27.59375 0 
Q 17.1875 0 13.234375 3.875 
Q 9.28125 7.765625 9.28125 18.015625 
L 9.28125 47.703125 
L 2.6875 47.703125 
L 2.6875 54.6875 
L 9.28125 54.6875 
L 9.28125 70.21875 
z
" id="BitstreamVeraSans-Roman-74"/>
      <path d="M 5.515625 54.6875 
L 48.1875 54.6875 
L 48.1875 46.484375 
L 14.40625 7.171875 
L 48.1875 7.171875 
L 48.1875 0 
L 4.296875 0 
L 4.296875 8.203125 
L 38.09375 47.515625 
L 5.515625 47.515625 
z
" id="BitstreamVeraSans-Roman-7a"/>
      <path d="M 18.109375 8.203125 
L 18.109375 -20.796875 
L 9.078125 -20.796875 
L 9.078125 54.6875 
L 18.109375 54.6875 
L 18.109375 46.390625 
Q 20.953125 51.265625 25.265625 53.625 
Q 29.59375 56 35.59375 56 
Q 45.5625 56 51.78125 48.09375 
Q 58.015625 40.1875 58.015625 27.296875 
Q 58.015625 14.40625 51.78125 6.484375 
Q 45.5625 -1.421875 35.59375 -1.421875 
Q 29.59375 -1.421875 25.265625 0.953125 
Q 20.953125 3.328125 18.109375 8.203125 
M 48.6875 27.296875 
Q 48.6875 37.203125 44.609375 42.84375 
Q 40.53125 48.484375 33.40625 48.484375 
Q 26.265625 48.484375 22.1875 42.84375 
Q 18.109375 37.203125 18.109375 27.296875 
Q 18.109375 17.390625 22.1875 11.75 
Q 26.265625 6.109375 33.40625 6.109375 
Q 40.53125 6.109375 44.609375 11.75 
Q 48.6875 17.390625 48.6875 27.296875 
" id="BitstreamVeraSans-Roman-70"/>
     </defs>
     <g transform="translate(431.75625 79.96375)scale(0.08 -0.08)">
      <use xlink:href="#BitstreamVeraSans-Roman-4d"/>
      <use x="86.279296875" xlink:href="#BitstreamVeraSans-Roman-4d"/>
      <use x="172.55859375" xlink:href="#BitstreamVeraSans-Roman-20"/>
      <use x="204.345703125" xlink:href="#BitstreamVeraSans-Roman-57"/>
      <use x="303.19140625" xlink:href="#BitstreamVeraSans-Roman-69"/>
      <use x="330.974609375" xlink:href="#BitstreamVeraSans-Roman-74"/>
      <use x="370.18359375" xlink:href="#BitstreamVeraSans-Roman-68"/>
      <use x="433.5625" xlink:href="#BitstreamVeraSans-Roman-20"/>
      <use x="465.349609375" xlink:href="#BitstreamVeraSans-Roman-70"/>
      <use x="528.826171875" xlink:href="#BitstreamVeraSans-Roman-68"/>
      <use x="592.205078125" xlink:href="#BitstreamVeraSans-Roman-69"/>
      <use x="619.98828125" xlink:href="#BitstreamVeraSans-Roman-20"/>
      <use x="651.775390625" xlink:href="#BitstreamVeraSans-Roman-7a"/>
      <use x="704.265625" xlink:href="#BitstreamVeraSans-Roman-65"/>
      <use x="765.7890625" xlink:href="#BitstreamVeraSans-Roman-72"/>
      <use x="806.87109375" xlink:href="#BitstreamVeraSans-Roman-6f"/>
      <use x="868.052734375" xlink:href="#BitstreamVeraSans-Roman-65"/>
      <use x="929.576171875" xlink:href="#BitstreamVeraSans-Roman-64"/>
     </g>
    </g>
    <g id="line2d_44">
     <path d="M 411.75625 88.90625 
L 422.95625 88.90625 
" style="fill:none;stroke:#ff00ff;stroke-linecap:square;"/>
    </g>
    <g id="line2d_45">
     <g>
      <use style="fill:#ff00ff;stroke:#ff00ff;stroke-width:0.5;" x="411.75625" xlink:href="#m103b54f09d" y="88.90625"/>
      <use style="fill:#ff00ff;stroke:#ff00ff;stroke-width:0.5;" x="422.95625" xlink:href="#m103b54f09d" y="88.90625"/>
     </g>
    </g>
    <g id="text_23">
     <!-- QM-MM target -->
     <g transform="translate(431.75625 91.70625)scale(0.08 -0.08)">
      <use xlink:href="#BitstreamVeraSans-Roman-51"/>
      <use x="78.7109375" xlink:href="#BitstreamVeraSans-Roman-4d"/>
      <use x="164.990234375" xlink:href="#BitstreamVeraSans-Roman-2d"/>
      <use x="201.07421875" xlink:href="#BitstreamVeraSans-Roman-4d"/>
      <use x="287.353515625" xlink:href="#BitstreamVeraSans-Roman-4d"/>
      <use x="373.6328125" xlink:href="#BitstreamVeraSans-Roman-20"/>
      <use x="405.419921875" xlink:href="#BitstreamVeraSans-Roman-74"/>
      <use x="444.62890625" xlink:href="#BitstreamVeraSans-Roman-61"/>
      <use x="505.908203125" xlink:href="#BitstreamVeraSans-Roman-72"/>
      <use x="547.005859375" xlink:href="#BitstreamVeraSans-Roman-67"/>
      <use x="610.482421875" xlink:href="#BitstreamVeraSans-Roman-65"/>
      <use x="672.005859375" xlink:href="#BitstreamVeraSans-Roman-74"/>
     </g>
    </g>
    <g id="line2d_46">
     <path d="M 411.75625 100.64875 
L 422.95625 100.64875 
" style="fill:none;stroke:#008000;stroke-linecap:square;"/>
    </g>
    <g id="line2d_47">
     <g>
      <use style="fill:#008000;stroke:#000000;stroke-width:0.5;" x="411.75625" xlink:href="#m170933061b" y="100.64875"/>
      <use style="fill:#008000;stroke:#000000;stroke-width:0.5;" x="422.95625" xlink:href="#m170933061b" y="100.64875"/>
     </g>
    </g>
    <g id="text_24">
     <!-- MM Fitted -->
     <defs>
      <path d="M 9.8125 72.90625 
L 51.703125 72.90625 
L 51.703125 64.59375 
L 19.671875 64.59375 
L 19.671875 43.109375 
L 48.578125 43.109375 
L 48.578125 34.8125 
L 19.671875 34.8125 
L 19.671875 0 
L 9.8125 0 
z
" id="BitstreamVeraSans-Roman-46"/>
     </defs>
     <g transform="translate(431.75625 103.44875)scale(0.08 -0.08)">
      <use xlink:href="#BitstreamVeraSans-Roman-4d"/>
      <use x="86.279296875" xlink:href="#BitstreamVeraSans-Roman-4d"/>
      <use x="172.55859375" xlink:href="#BitstreamVeraSans-Roman-20"/>
      <use x="204.345703125" xlink:href="#BitstreamVeraSans-Roman-46"/>
      <use x="261.755859375" xlink:href="#BitstreamVeraSans-Roman-69"/>
      <use x="289.5390625" xlink:href="#BitstreamVeraSans-Roman-74"/>
      <use x="328.748046875" xlink:href="#BitstreamVeraSans-Roman-74"/>
      <use x="367.95703125" xlink:href="#BitstreamVeraSans-Roman-65"/>
      <use x="429.48046875" xlink:href="#BitstreamVeraSans-Roman-64"/>
     </g>
    </g>
   </g>
  </g>
 </g>
 <defs>
  <clipPath id="p86952f6821">
   <rect height="345.6" width="446.4" x="72.0" y="43.2"/>
  </clipPath>
 </defs>
</svg>
