<?xml version="1.0" encoding="utf-8" standalone="no"?>
<!DOCTYPE svg PUBLIC "-//W3C//DTD SVG 1.1//EN"
  "http://www.w3.org/Graphics/SVG/1.1/DTD/svg11.dtd">
<!-- Created with matplotlib (http://matplotlib.org/) -->
<svg height="432pt" version="1.1" viewBox="0 0 576 432" width="576pt" xmlns="http://www.w3.org/2000/svg" xmlns:xlink="http://www.w3.org/1999/xlink">
 <defs>
  <style type="text/css">
*{stroke-linecap:butt;stroke-linejoin:round;stroke-miterlimit:100000;}
  </style>
 </defs>
 <g id="figure_1">
  <g id="patch_1">
   <path d="M 0 432 
L 576 432 
L 576 0 
L 0 0 
z
" style="fill:#ffffff;"/>
  </g>
  <g id="axes_1">
   <g id="patch_2">
    <path d="M 72 388.8 
L 518.4 388.8 
L 518.4 43.2 
L 72 43.2 
z
" style="fill:#ffffff;"/>
   </g>
   <g id="line2d_1">
    <path clip-path="url(#p6769452a43)" d="M 71.999985 217.687539 
L 84.400027 212.889516 
L 96.799991 199.040234 
L 109.200025 177.748105 
L 121.599973 151.598847 
L 133.999962 123.964056 
L 146.399979 98.705001 
L 158.799986 79.7871 
L 171.199969 70.804547 
L 183.600013 74.444848 
L 195.999962 91.998946 
L 208.399946 123.030315 
L 220.79994 165.280029 
L 233.200005 214.848184 
L 245.59996 266.627794 
L 258.000005 314.935034 
L 270.399948 354.234342 
L 282.799988 379.886391 
L 295.199959 388.8 
L 307.599998 379.889521 
L 319.999979 354.240308 
L 332.400022 314.942672 
L 344.800014 266.63643 
L 357.200018 214.85593 
L 369.599999 165.286067 
L 382.000013 123.033181 
L 394.400002 91.99825 
L 406.799998 74.440802 
L 419.200005 70.798309 
L 431.599992 79.780677 
L 444.000036 98.700434 
L 456.400011 123.963066 
L 468.800006 151.601559 
L 481.200048 177.753586 
L 493.600006 199.045855 
L 506.000021 212.89312 
" style="fill:none;stroke:#ff0000;stroke-linecap:square;"/>
    <defs>
     <path d="M 0 3 
C 0.795609 3 1.55874 2.683901 2.12132 2.12132 
C 2.683901 1.55874 3 0.795609 3 0 
C 3 -0.795609 2.683901 -1.55874 2.12132 -2.12132 
C 1.55874 -2.683901 0.795609 -3 0 -3 
C -0.795609 -3 -1.55874 -2.683901 -2.12132 -2.12132 
C -2.683901 -1.55874 -3 -0.795609 -3 0 
C -3 0.795609 -2.683901 1.55874 -2.12132 2.12132 
C -1.55874 2.683901 -0.795609 3 0 3 
z
" id="m061e627b05" style="stroke:#000000;stroke-width:0.5;"/>
    </defs>
    <g clip-path="url(#p6769452a43)">
     <use style="fill:#ff0000;stroke:#000000;stroke-width:0.5;" x="71.9999853335" xlink:href="#m061e627b05" y="217.687538727"/>
     <use style="fill:#ff0000;stroke:#000000;stroke-width:0.5;" x="84.4000271017" xlink:href="#m061e627b05" y="212.88951593"/>
     <use style="fill:#ff0000;stroke:#000000;stroke-width:0.5;" x="96.799990528" xlink:href="#m061e627b05" y="199.040234353"/>
     <use style="fill:#ff0000;stroke:#000000;stroke-width:0.5;" x="109.200024565" xlink:href="#m061e627b05" y="177.748105092"/>
     <use style="fill:#ff0000;stroke:#000000;stroke-width:0.5;" x="121.599972552" xlink:href="#m061e627b05" y="151.598847021"/>
     <use style="fill:#ff0000;stroke:#000000;stroke-width:0.5;" x="133.999962043" xlink:href="#m061e627b05" y="123.964055798"/>
     <use style="fill:#ff0000;stroke:#000000;stroke-width:0.5;" x="146.399978584" xlink:href="#m061e627b05" y="98.7050006529"/>
     <use style="fill:#ff0000;stroke:#000000;stroke-width:0.5;" x="158.799985719" xlink:href="#m061e627b05" y="79.7870999158"/>
     <use style="fill:#ff0000;stroke:#000000;stroke-width:0.5;" x="171.199968549" xlink:href="#m061e627b05" y="70.804547188"/>
     <use style="fill:#ff0000;stroke:#000000;stroke-width:0.5;" x="183.600012984" xlink:href="#m061e627b05" y="74.4448476387"/>
     <use style="fill:#ff0000;stroke:#000000;stroke-width:0.5;" x="195.999961592" xlink:href="#m061e627b05" y="91.9989463284"/>
     <use style="fill:#ff0000;stroke:#000000;stroke-width:0.5;" x="208.399946181" xlink:href="#m061e627b05" y="123.0303145"/>
     <use style="fill:#ff0000;stroke:#000000;stroke-width:0.5;" x="220.799939608" xlink:href="#m061e627b05" y="165.280028603"/>
     <use style="fill:#ff0000;stroke:#000000;stroke-width:0.5;" x="233.200005413" xlink:href="#m061e627b05" y="214.84818363"/>
     <use style="fill:#ff0000;stroke:#000000;stroke-width:0.5;" x="245.599960059" xlink:href="#m061e627b05" y="266.627793746"/>
     <use style="fill:#ff0000;stroke:#000000;stroke-width:0.5;" x="258.000005279" xlink:href="#m061e627b05" y="314.935034232"/>
     <use style="fill:#ff0000;stroke:#000000;stroke-width:0.5;" x="270.399948287" xlink:href="#m061e627b05" y="354.234342166"/>
     <use style="fill:#ff0000;stroke:#000000;stroke-width:0.5;" x="282.799987839" xlink:href="#m061e627b05" y="379.886391342"/>
     <use style="fill:#ff0000;stroke:#000000;stroke-width:0.5;" x="295.199958593" xlink:href="#m061e627b05" y="388.8"/>
     <use style="fill:#ff0000;stroke:#000000;stroke-width:0.5;" x="307.599998169" xlink:href="#m061e627b05" y="379.889521434"/>
     <use style="fill:#ff0000;stroke:#000000;stroke-width:0.5;" x="319.999978787" xlink:href="#m061e627b05" y="354.240307925"/>
     <use style="fill:#ff0000;stroke:#000000;stroke-width:0.5;" x="332.400022358" xlink:href="#m061e627b05" y="314.942672169"/>
     <use style="fill:#ff0000;stroke:#000000;stroke-width:0.5;" x="344.800013777" xlink:href="#m061e627b05" y="266.636429515"/>
     <use style="fill:#ff0000;stroke:#000000;stroke-width:0.5;" x="357.200018399" xlink:href="#m061e627b05" y="214.855929623"/>
     <use style="fill:#ff0000;stroke:#000000;stroke-width:0.5;" x="369.59999911" xlink:href="#m061e627b05" y="165.286066668"/>
     <use style="fill:#ff0000;stroke:#000000;stroke-width:0.5;" x="382.000013353" xlink:href="#m061e627b05" y="123.033180568"/>
     <use style="fill:#ff0000;stroke:#000000;stroke-width:0.5;" x="394.400002451" xlink:href="#m061e627b05" y="91.9982496772"/>
     <use style="fill:#ff0000;stroke:#000000;stroke-width:0.5;" x="406.799998033" xlink:href="#m061e627b05" y="74.4408018437"/>
     <use style="fill:#ff0000;stroke:#000000;stroke-width:0.5;" x="419.200004781" xlink:href="#m061e627b05" y="70.7983085821"/>
     <use style="fill:#ff0000;stroke:#000000;stroke-width:0.5;" x="431.599992106" xlink:href="#m061e627b05" y="79.7806768334"/>
     <use style="fill:#ff0000;stroke:#000000;stroke-width:0.5;" x="444.000036133" xlink:href="#m061e627b05" y="98.7004336169"/>
     <use style="fill:#ff0000;stroke:#000000;stroke-width:0.5;" x="456.40001115" xlink:href="#m061e627b05" y="123.963065661"/>
     <use style="fill:#ff0000;stroke:#000000;stroke-width:0.5;" x="468.800005701" xlink:href="#m061e627b05" y="151.6015586"/>
     <use style="fill:#ff0000;stroke:#000000;stroke-width:0.5;" x="481.200048007" xlink:href="#m061e627b05" y="177.753586349"/>
     <use style="fill:#ff0000;stroke:#000000;stroke-width:0.5;" x="493.600006263" xlink:href="#m061e627b05" y="199.045855184"/>
     <use style="fill:#ff0000;stroke:#000000;stroke-width:0.5;" x="506.000020969" xlink:href="#m061e627b05" y="212.893119857"/>
    </g>
   </g>
   <g id="line2d_2">
    <path clip-path="url(#p6769452a43)" d="M 71.999985 364.739036 
L 84.400027 359.678018 
L 96.799991 345.128108 
L 109.200025 322.900836 
L 121.599973 295.755749 
L 133.999962 267.064019 
L 146.399979 240.402109 
L 158.799986 219.127811 
L 171.199969 205.976314 
L 183.600013 202.723815 
L 195.999962 209.963842 
L 208.399946 227.023689 
L 220.79994 252.035821 
L 233.200005 282.154962 
L 245.59996 313.89708 
L 258.000005 343.557791 
L 270.399948 367.655911 
L 282.799988 383.353894 
L 295.199959 388.8 
L 307.599998 383.35125 
L 319.999979 367.650711 
L 332.400022 343.550923 
L 344.800014 313.889126 
L 357.200018 282.146484 
L 369.599999 252.027983 
L 382.000013 227.017559 
L 394.400002 209.959662 
L 406.799998 202.72223 
L 419.200005 205.977167 
L 431.599992 219.131143 
L 444.000036 240.407443 
L 456.400011 267.070432 
L 468.800006 295.762657 
L 481.200048 322.907157 
L 493.600006 345.133279 
L 506.000021 359.68052 
" style="fill:none;stroke:#0000ff;stroke-linecap:square;"/>
    <defs>
     <path d="M 0 3 
C 0.795609 3 1.55874 2.683901 2.12132 2.12132 
C 2.683901 1.55874 3 0.795609 3 0 
C 3 -0.795609 2.683901 -1.55874 2.12132 -2.12132 
C 1.55874 -2.683901 0.795609 -3 0 -3 
C -0.795609 -3 -1.55874 -2.683901 -2.12132 -2.12132 
C -2.683901 -1.55874 -3 -0.795609 -3 0 
C -3 0.795609 -2.683901 1.55874 -2.12132 2.12132 
C -1.55874 2.683901 -0.795609 3 0 3 
z
" id="m32c271ec07" style="stroke:#000000;stroke-width:0.5;"/>
    </defs>
    <g clip-path="url(#p6769452a43)">
     <use style="fill:#0000ff;stroke:#000000;stroke-width:0.5;" x="71.9999853335" xlink:href="#m32c271ec07" y="364.739036303"/>
     <use style="fill:#0000ff;stroke:#000000;stroke-width:0.5;" x="84.4000271017" xlink:href="#m32c271ec07" y="359.678018255"/>
     <use style="fill:#0000ff;stroke:#000000;stroke-width:0.5;" x="96.799990528" xlink:href="#m32c271ec07" y="345.128107961"/>
     <use style="fill:#0000ff;stroke:#000000;stroke-width:0.5;" x="109.200024565" xlink:href="#m32c271ec07" y="322.900836226"/>
     <use style="fill:#0000ff;stroke:#000000;stroke-width:0.5;" x="121.599972552" xlink:href="#m32c271ec07" y="295.755748577"/>
     <use style="fill:#0000ff;stroke:#000000;stroke-width:0.5;" x="133.999962043" xlink:href="#m32c271ec07" y="267.064018568"/>
     <use style="fill:#0000ff;stroke:#000000;stroke-width:0.5;" x="146.399978584" xlink:href="#m32c271ec07" y="240.402109124"/>
     <use style="fill:#0000ff;stroke:#000000;stroke-width:0.5;" x="158.799985719" xlink:href="#m32c271ec07" y="219.12781148"/>
     <use style="fill:#0000ff;stroke:#000000;stroke-width:0.5;" x="171.199968549" xlink:href="#m32c271ec07" y="205.976313876"/>
     <use style="fill:#0000ff;stroke:#000000;stroke-width:0.5;" x="183.600012984" xlink:href="#m32c271ec07" y="202.723815137"/>
     <use style="fill:#0000ff;stroke:#000000;stroke-width:0.5;" x="195.999961592" xlink:href="#m32c271ec07" y="209.963842429"/>
     <use style="fill:#0000ff;stroke:#000000;stroke-width:0.5;" x="208.399946181" xlink:href="#m32c271ec07" y="227.023688595"/>
     <use style="fill:#0000ff;stroke:#000000;stroke-width:0.5;" x="220.799939608" xlink:href="#m32c271ec07" y="252.035821175"/>
     <use style="fill:#0000ff;stroke:#000000;stroke-width:0.5;" x="233.200005413" xlink:href="#m32c271ec07" y="282.154962147"/>
     <use style="fill:#0000ff;stroke:#000000;stroke-width:0.5;" x="245.599960059" xlink:href="#m32c271ec07" y="313.897079596"/>
     <use style="fill:#0000ff;stroke:#000000;stroke-width:0.5;" x="258.000005279" xlink:href="#m32c271ec07" y="343.557790649"/>
     <use style="fill:#0000ff;stroke:#000000;stroke-width:0.5;" x="270.399948287" xlink:href="#m32c271ec07" y="367.655910745"/>
     <use style="fill:#0000ff;stroke:#000000;stroke-width:0.5;" x="282.799987839" xlink:href="#m32c271ec07" y="383.353893548"/>
     <use style="fill:#0000ff;stroke:#000000;stroke-width:0.5;" x="295.199958593" xlink:href="#m32c271ec07" y="388.8"/>
     <use style="fill:#0000ff;stroke:#000000;stroke-width:0.5;" x="307.599998169" xlink:href="#m32c271ec07" y="383.35124983"/>
     <use style="fill:#0000ff;stroke:#000000;stroke-width:0.5;" x="319.999978787" xlink:href="#m32c271ec07" y="367.650710941"/>
     <use style="fill:#0000ff;stroke:#000000;stroke-width:0.5;" x="332.400022358" xlink:href="#m32c271ec07" y="343.550922612"/>
     <use style="fill:#0000ff;stroke:#000000;stroke-width:0.5;" x="344.800013777" xlink:href="#m32c271ec07" y="313.88912647"/>
     <use style="fill:#0000ff;stroke:#000000;stroke-width:0.5;" x="357.200018399" xlink:href="#m32c271ec07" y="282.146484308"/>
     <use style="fill:#0000ff;stroke:#000000;stroke-width:0.5;" x="369.59999911" xlink:href="#m32c271ec07" y="252.027982658"/>
     <use style="fill:#0000ff;stroke:#000000;stroke-width:0.5;" x="382.000013353" xlink:href="#m32c271ec07" y="227.017558885"/>
     <use style="fill:#0000ff;stroke:#000000;stroke-width:0.5;" x="394.400002451" xlink:href="#m32c271ec07" y="209.959661506"/>
     <use style="fill:#0000ff;stroke:#000000;stroke-width:0.5;" x="406.799998033" xlink:href="#m32c271ec07" y="202.722230162"/>
     <use style="fill:#0000ff;stroke:#000000;stroke-width:0.5;" x="419.200004781" xlink:href="#m32c271ec07" y="205.977167014"/>
     <use style="fill:#0000ff;stroke:#000000;stroke-width:0.5;" x="431.599992106" xlink:href="#m32c271ec07" y="219.131143253"/>
     <use style="fill:#0000ff;stroke:#000000;stroke-width:0.5;" x="444.000036133" xlink:href="#m32c271ec07" y="240.407443489"/>
     <use style="fill:#0000ff;stroke:#000000;stroke-width:0.5;" x="456.40001115" xlink:href="#m32c271ec07" y="267.070431582"/>
     <use style="fill:#0000ff;stroke:#000000;stroke-width:0.5;" x="468.800005701" xlink:href="#m32c271ec07" y="295.762657006"/>
     <use style="fill:#0000ff;stroke:#000000;stroke-width:0.5;" x="481.200048007" xlink:href="#m32c271ec07" y="322.907156838"/>
     <use style="fill:#0000ff;stroke:#000000;stroke-width:0.5;" x="493.600006263" xlink:href="#m32c271ec07" y="345.133278759"/>
     <use style="fill:#0000ff;stroke:#000000;stroke-width:0.5;" x="506.000020969" xlink:href="#m32c271ec07" y="359.680520321"/>
    </g>
   </g>
   <g id="line2d_3">
    <path clip-path="url(#p6769452a43)" d="M 71.999985 364.739036 
L 84.400027 362.348441 
L 96.799991 355.487652 
L 109.200025 345.040863 
L 121.599973 332.346574 
L 133.999962 319.033113 
L 146.399979 306.822086 
L 158.799986 297.328248 
L 171.199969 291.86589 
L 183.600013 291.283815 
L 195.999962 295.853448 
L 208.399946 305.22418 
L 220.79994 318.455886 
L 233.200005 334.124097 
L 245.59996 350.487987 
L 258.000005 365.697785 
L 270.399948 378.015504 
L 282.799988 386.024309 
L 295.199959 388.8 
L 307.599998 386.02166 
L 319.999979 378.010246 
L 332.400022 365.690947 
L 344.800014 350.480002 
L 357.200018 334.115648 
L 369.599999 318.447982 
L 382.000013 305.218018 
L 394.400002 295.849252 
L 406.799998 291.28223 
L 419.200005 291.866754 
L 431.599992 297.331598 
L 444.000036 306.827404 
L 456.400011 319.039559 
L 468.800006 332.353509 
L 481.200048 345.047105 
L 493.600006 355.492826 
L 506.000021 362.350922 
" style="fill:none;stroke:#000000;stroke-linecap:square;"/>
    <defs>
     <path d="M -3 3 
L 3 -3 
M -3 -3 
L 3 3 
" id="m59e03eed5a" style="stroke:#000000;stroke-width:0.5;"/>
    </defs>
    <g clip-path="url(#p6769452a43)">
     <use style="stroke:#000000;stroke-width:0.5;" x="71.9999853335" xlink:href="#m59e03eed5a" y="364.739036303"/>
     <use style="stroke:#000000;stroke-width:0.5;" x="84.4000271017" xlink:href="#m59e03eed5a" y="362.34844056"/>
     <use style="stroke:#000000;stroke-width:0.5;" x="96.799990528" xlink:href="#m59e03eed5a" y="355.487652431"/>
     <use style="stroke:#000000;stroke-width:0.5;" x="109.200024565" xlink:href="#m59e03eed5a" y="345.040862744"/>
     <use style="stroke:#000000;stroke-width:0.5;" x="121.599972552" xlink:href="#m59e03eed5a" y="332.346573576"/>
     <use style="stroke:#000000;stroke-width:0.5;" x="133.999962043" xlink:href="#m59e03eed5a" y="319.03311328"/>
     <use style="stroke:#000000;stroke-width:0.5;" x="146.399978584" xlink:href="#m59e03eed5a" y="306.822086005"/>
     <use style="stroke:#000000;stroke-width:0.5;" x="158.799985719" xlink:href="#m59e03eed5a" y="297.328247978"/>
     <use style="stroke:#000000;stroke-width:0.5;" x="171.199968549" xlink:href="#m59e03eed5a" y="291.865889716"/>
     <use style="stroke:#000000;stroke-width:0.5;" x="183.600012984" xlink:href="#m59e03eed5a" y="291.283815137"/>
     <use style="stroke:#000000;stroke-width:0.5;" x="195.999961592" xlink:href="#m59e03eed5a" y="295.853448051"/>
     <use style="stroke:#000000;stroke-width:0.5;" x="208.399946181" xlink:href="#m59e03eed5a" y="305.224179658"/>
     <use style="stroke:#000000;stroke-width:0.5;" x="220.799939608" xlink:href="#m59e03eed5a" y="318.455886369"/>
     <use style="stroke:#000000;stroke-width:0.5;" x="233.200005413" xlink:href="#m59e03eed5a" y="334.124096809"/>
     <use style="stroke:#000000;stroke-width:0.5;" x="245.599960059" xlink:href="#m59e03eed5a" y="350.487987319"/>
     <use style="stroke:#000000;stroke-width:0.5;" x="258.000005279" xlink:href="#m59e03eed5a" y="365.697784949"/>
     <use style="stroke:#000000;stroke-width:0.5;" x="270.399948287" xlink:href="#m59e03eed5a" y="378.015504238"/>
     <use style="stroke:#000000;stroke-width:0.5;" x="282.799987839" xlink:href="#m59e03eed5a" y="386.024309484"/>
     <use style="stroke:#000000;stroke-width:0.5;" x="295.199958593" xlink:href="#m59e03eed5a" y="388.8"/>
     <use style="stroke:#000000;stroke-width:0.5;" x="307.599998169" xlink:href="#m59e03eed5a" y="386.021659801"/>
     <use style="stroke:#000000;stroke-width:0.5;" x="319.999978787" xlink:href="#m59e03eed5a" y="378.010246003"/>
     <use style="stroke:#000000;stroke-width:0.5;" x="332.400022358" xlink:href="#m59e03eed5a" y="365.690946747"/>
     <use style="stroke:#000000;stroke-width:0.5;" x="344.800013777" xlink:href="#m59e03eed5a" y="350.480002074"/>
     <use style="stroke:#000000;stroke-width:0.5;" x="357.200018399" xlink:href="#m59e03eed5a" y="334.1156482"/>
     <use style="stroke:#000000;stroke-width:0.5;" x="369.59999911" xlink:href="#m59e03eed5a" y="318.447981697"/>
     <use style="stroke:#000000;stroke-width:0.5;" x="382.000013353" xlink:href="#m59e03eed5a" y="305.218017524"/>
     <use style="stroke:#000000;stroke-width:0.5;" x="394.400002451" xlink:href="#m59e03eed5a" y="295.849251799"/>
     <use style="stroke:#000000;stroke-width:0.5;" x="406.799998033" xlink:href="#m59e03eed5a" y="291.282230162"/>
     <use style="stroke:#000000;stroke-width:0.5;" x="419.200004781" xlink:href="#m59e03eed5a" y="291.866754224"/>
     <use style="stroke:#000000;stroke-width:0.5;" x="431.599992106" xlink:href="#m59e03eed5a" y="297.331597519"/>
     <use style="stroke:#000000;stroke-width:0.5;" x="444.000036133" xlink:href="#m59e03eed5a" y="306.827404484"/>
     <use style="stroke:#000000;stroke-width:0.5;" x="456.40001115" xlink:href="#m59e03eed5a" y="319.039559201"/>
     <use style="stroke:#000000;stroke-width:0.5;" x="468.800005701" xlink:href="#m59e03eed5a" y="332.3535087"/>
     <use style="stroke:#000000;stroke-width:0.5;" x="481.200048007" xlink:href="#m59e03eed5a" y="345.047105015"/>
     <use style="stroke:#000000;stroke-width:0.5;" x="493.600006263" xlink:href="#m59e03eed5a" y="355.4928258"/>
     <use style="stroke:#000000;stroke-width:0.5;" x="506.000020969" xlink:href="#m59e03eed5a" y="362.350922133"/>
    </g>
   </g>
   <g id="line2d_4">
    <path clip-path="url(#p6769452a43)" d="M 71.999985 241.748502 
L 84.400027 239.341075 
L 96.799991 232.352582 
L 109.200025 221.507242 
L 121.599973 208.052273 
L 133.999962 193.730943 
L 146.399979 180.682915 
L 158.799986 171.258852 
L 171.199969 167.738657 
L 183.600013 171.961033 
L 195.999962 184.945498 
L 208.399946 206.606135 
L 220.79994 235.624142 
L 233.200005 269.524087 
L 245.59996 304.939806 
L 258.000005 338.037249 
L 270.399948 365.018838 
L 282.799988 382.662082 
L 295.199959 388.8 
L 307.599998 382.667862 
L 319.999979 365.030062 
L 332.400022 338.051725 
L 344.800014 304.956427 
L 357.200018 269.540281 
L 369.599999 235.638085 
L 382.000013 206.615163 
L 394.400002 184.948998 
L 406.799998 171.958572 
L 419.200005 167.731554 
L 431.599992 171.249079 
L 444.000036 180.673029 
L 456.400011 193.723506 
L 468.800006 208.04805 
L 481.200048 221.506481 
L 493.600006 232.353029 
L 506.000021 239.342198 
" style="fill:none;stroke:#ff00ff;stroke-linecap:square;"/>
    <defs>
     <path d="M -3 3 
L 3 -3 
M -3 -3 
L 3 3 
" id="m1c60cdcf15" style="stroke:#ff00ff;stroke-width:0.5;"/>
    </defs>
    <g clip-path="url(#p6769452a43)">
     <use style="fill:#ff00ff;stroke:#ff00ff;stroke-width:0.5;" x="71.9999853335" xlink:href="#m1c60cdcf15" y="241.748502424"/>
     <use style="fill:#ff00ff;stroke:#ff00ff;stroke-width:0.5;" x="84.4000271017" xlink:href="#m1c60cdcf15" y="239.34107537"/>
     <use style="fill:#ff00ff;stroke:#ff00ff;stroke-width:0.5;" x="96.799990528" xlink:href="#m1c60cdcf15" y="232.352581922"/>
     <use style="fill:#ff00ff;stroke:#ff00ff;stroke-width:0.5;" x="109.200024565" xlink:href="#m1c60cdcf15" y="221.507242348"/>
     <use style="fill:#ff00ff;stroke:#ff00ff;stroke-width:0.5;" x="121.599972552" xlink:href="#m1c60cdcf15" y="208.052273444"/>
     <use style="fill:#ff00ff;stroke:#ff00ff;stroke-width:0.5;" x="133.999962043" xlink:href="#m1c60cdcf15" y="193.730942518"/>
     <use style="fill:#ff00ff;stroke:#ff00ff;stroke-width:0.5;" x="146.399978584" xlink:href="#m1c60cdcf15" y="180.682914648"/>
     <use style="fill:#ff00ff;stroke:#ff00ff;stroke-width:0.5;" x="158.799985719" xlink:href="#m1c60cdcf15" y="171.258851937"/>
     <use style="fill:#ff00ff;stroke:#ff00ff;stroke-width:0.5;" x="171.199968549" xlink:href="#m1c60cdcf15" y="167.738657472"/>
     <use style="fill:#ff00ff;stroke:#ff00ff;stroke-width:0.5;" x="183.600012984" xlink:href="#m1c60cdcf15" y="171.961032501"/>
     <use style="fill:#ff00ff;stroke:#ff00ff;stroke-width:0.5;" x="195.999961592" xlink:href="#m1c60cdcf15" y="184.945498277"/>
     <use style="fill:#ff00ff;stroke:#ff00ff;stroke-width:0.5;" x="208.399946181" xlink:href="#m1c60cdcf15" y="206.606134842"/>
     <use style="fill:#ff00ff;stroke:#ff00ff;stroke-width:0.5;" x="220.799939608" xlink:href="#m1c60cdcf15" y="235.624142234"/>
     <use style="fill:#ff00ff;stroke:#ff00ff;stroke-width:0.5;" x="233.200005413" xlink:href="#m1c60cdcf15" y="269.524086821"/>
     <use style="fill:#ff00ff;stroke:#ff00ff;stroke-width:0.5;" x="245.599960059" xlink:href="#m1c60cdcf15" y="304.939806427"/>
     <use style="fill:#ff00ff;stroke:#ff00ff;stroke-width:0.5;" x="258.000005279" xlink:href="#m1c60cdcf15" y="338.037249282"/>
     <use style="fill:#ff00ff;stroke:#ff00ff;stroke-width:0.5;" x="270.399948287" xlink:href="#m1c60cdcf15" y="365.018837929"/>
     <use style="fill:#ff00ff;stroke:#ff00ff;stroke-width:0.5;" x="282.799987839" xlink:href="#m1c60cdcf15" y="382.662081858"/>
     <use style="fill:#ff00ff;stroke:#ff00ff;stroke-width:0.5;" x="295.199958593" xlink:href="#m1c60cdcf15" y="388.8"/>
     <use style="fill:#ff00ff;stroke:#ff00ff;stroke-width:0.5;" x="307.599998169" xlink:href="#m1c60cdcf15" y="382.667861633"/>
     <use style="fill:#ff00ff;stroke:#ff00ff;stroke-width:0.5;" x="319.999978787" xlink:href="#m1c60cdcf15" y="365.030061922"/>
     <use style="fill:#ff00ff;stroke:#ff00ff;stroke-width:0.5;" x="332.400022358" xlink:href="#m1c60cdcf15" y="338.051725422"/>
     <use style="fill:#ff00ff;stroke:#ff00ff;stroke-width:0.5;" x="344.800013777" xlink:href="#m1c60cdcf15" y="304.95642744"/>
     <use style="fill:#ff00ff;stroke:#ff00ff;stroke-width:0.5;" x="357.200018399" xlink:href="#m1c60cdcf15" y="269.540281423"/>
     <use style="fill:#ff00ff;stroke:#ff00ff;stroke-width:0.5;" x="369.59999911" xlink:href="#m1c60cdcf15" y="235.638084971"/>
     <use style="fill:#ff00ff;stroke:#ff00ff;stroke-width:0.5;" x="382.000013353" xlink:href="#m1c60cdcf15" y="206.615163044"/>
     <use style="fill:#ff00ff;stroke:#ff00ff;stroke-width:0.5;" x="394.400002451" xlink:href="#m1c60cdcf15" y="184.948997878"/>
     <use style="fill:#ff00ff;stroke:#ff00ff;stroke-width:0.5;" x="406.799998033" xlink:href="#m1c60cdcf15" y="171.958571681"/>
     <use style="fill:#ff00ff;stroke:#ff00ff;stroke-width:0.5;" x="419.200004781" xlink:href="#m1c60cdcf15" y="167.731554358"/>
     <use style="fill:#ff00ff;stroke:#ff00ff;stroke-width:0.5;" x="431.599992106" xlink:href="#m1c60cdcf15" y="171.249079314"/>
     <use style="fill:#ff00ff;stroke:#ff00ff;stroke-width:0.5;" x="444.000036133" xlink:href="#m1c60cdcf15" y="180.673029133"/>
     <use style="fill:#ff00ff;stroke:#ff00ff;stroke-width:0.5;" x="456.40001115" xlink:href="#m1c60cdcf15" y="193.72350646"/>
     <use style="fill:#ff00ff;stroke:#ff00ff;stroke-width:0.5;" x="468.800005701" xlink:href="#m1c60cdcf15" y="208.0480499"/>
     <use style="fill:#ff00ff;stroke:#ff00ff;stroke-width:0.5;" x="481.200048007" xlink:href="#m1c60cdcf15" y="221.506481334"/>
     <use style="fill:#ff00ff;stroke:#ff00ff;stroke-width:0.5;" x="493.600006263" xlink:href="#m1c60cdcf15" y="232.353029385"/>
     <use style="fill:#ff00ff;stroke:#ff00ff;stroke-width:0.5;" x="506.000020969" xlink:href="#m1c60cdcf15" y="239.342197724"/>
    </g>
   </g>
   <g id="line2d_5">
    <path clip-path="url(#p6769452a43)" d="M 71.999985 217.700034 
L 84.400027 212.895901 
L 96.799991 199.037855 
L 109.200025 177.747161 
L 121.599973 151.604539 
L 133.999962 123.970086 
L 146.399979 98.704395 
L 158.799986 79.7823 
L 171.199969 70.802198 
L 183.600013 74.448852 
L 195.999962 92.008574 
L 208.399946 123.040993 
L 220.79994 165.288863 
L 233.200005 214.85661 
L 245.59996 266.639799 
L 258.000005 314.94998 
L 270.399948 354.247125 
L 282.799988 379.892078 
L 295.199959 388.8 
L 307.599998 379.889442 
L 319.999979 354.242 
L 332.400022 314.943073 
L 344.800014 266.631887 
L 357.200018 214.848094 
L 369.599999 165.281116 
L 382.000013 123.034914 
L 394.400002 92.004429 
L 406.799998 74.447259 
L 419.200005 70.803063 
L 431.599992 79.785637 
L 444.000036 98.709728 
L 456.400011 123.976501 
L 468.800006 151.61145 
L 481.200048 177.753476 
L 493.600006 199.043026 
L 506.000021 212.898402 
" style="fill:none;stroke:#008000;stroke-linecap:square;"/>
    <defs>
     <path d="M 0 3 
C 0.795609 3 1.55874 2.683901 2.12132 2.12132 
C 2.683901 1.55874 3 0.795609 3 0 
C 3 -0.795609 2.683901 -1.55874 2.12132 -2.12132 
C 1.55874 -2.683901 0.795609 -3 0 -3 
C -0.795609 -3 -1.55874 -2.683901 -2.12132 -2.12132 
C -2.683901 -1.55874 -3 -0.795609 -3 0 
C -3 0.795609 -2.683901 1.55874 -2.12132 2.12132 
C -1.55874 2.683901 -0.795609 3 0 3 
z
" id="m44c7df2bae" style="stroke:#000000;stroke-width:0.5;"/>
    </defs>
    <g clip-path="url(#p6769452a43)">
     <use style="fill:#008000;stroke:#000000;stroke-width:0.5;" x="71.9999853335" xlink:href="#m44c7df2bae" y="217.70003403"/>
     <use style="fill:#008000;stroke:#000000;stroke-width:0.5;" x="84.4000271017" xlink:href="#m44c7df2bae" y="212.895901374"/>
     <use style="fill:#008000;stroke:#000000;stroke-width:0.5;" x="96.799990528" xlink:href="#m44c7df2bae" y="199.037855135"/>
     <use style="fill:#008000;stroke:#000000;stroke-width:0.5;" x="109.200024565" xlink:href="#m44c7df2bae" y="177.747160993"/>
     <use style="fill:#008000;stroke:#000000;stroke-width:0.5;" x="121.599972552" xlink:href="#m44c7df2bae" y="151.604539308"/>
     <use style="fill:#008000;stroke:#000000;stroke-width:0.5;" x="133.999962043" xlink:href="#m44c7df2bae" y="123.97008562"/>
     <use style="fill:#008000;stroke:#000000;stroke-width:0.5;" x="146.399978584" xlink:href="#m44c7df2bae" y="98.7043954858"/>
     <use style="fill:#008000;stroke:#000000;stroke-width:0.5;" x="158.799985719" xlink:href="#m44c7df2bae" y="79.7822997142"/>
     <use style="fill:#008000;stroke:#000000;stroke-width:0.5;" x="171.199968549" xlink:href="#m44c7df2bae" y="70.8021982259"/>
     <use style="fill:#008000;stroke:#000000;stroke-width:0.5;" x="183.600012984" xlink:href="#m44c7df2bae" y="74.448851778"/>
     <use style="fill:#008000;stroke:#000000;stroke-width:0.5;" x="195.999961592" xlink:href="#m44c7df2bae" y="92.00857425"/>
     <use style="fill:#008000;stroke:#000000;stroke-width:0.5;" x="208.399946181" xlink:href="#m44c7df2bae" y="123.040992759"/>
     <use style="fill:#008000;stroke:#000000;stroke-width:0.5;" x="220.799939608" xlink:href="#m44c7df2bae" y="165.288862905"/>
     <use style="fill:#008000;stroke:#000000;stroke-width:0.5;" x="233.200005413" xlink:href="#m44c7df2bae" y="214.856610014"/>
     <use style="fill:#008000;stroke:#000000;stroke-width:0.5;" x="245.599960059" xlink:href="#m44c7df2bae" y="266.63979905"/>
     <use style="fill:#008000;stroke:#000000;stroke-width:0.5;" x="258.000005279" xlink:href="#m44c7df2bae" y="314.94997981"/>
     <use style="fill:#008000;stroke:#000000;stroke-width:0.5;" x="270.399948287" xlink:href="#m44c7df2bae" y="354.247124745"/>
     <use style="fill:#008000;stroke:#000000;stroke-width:0.5;" x="282.799987839" xlink:href="#m44c7df2bae" y="379.892077675"/>
     <use style="fill:#008000;stroke:#000000;stroke-width:0.5;" x="295.199958593" xlink:href="#m44c7df2bae" y="388.8"/>
     <use style="fill:#008000;stroke:#000000;stroke-width:0.5;" x="307.599998169" xlink:href="#m44c7df2bae" y="379.889441685"/>
     <use style="fill:#008000;stroke:#000000;stroke-width:0.5;" x="319.999978787" xlink:href="#m44c7df2bae" y="354.242000427"/>
     <use style="fill:#008000;stroke:#000000;stroke-width:0.5;" x="332.400022358" xlink:href="#m44c7df2bae" y="314.943073311"/>
     <use style="fill:#008000;stroke:#000000;stroke-width:0.5;" x="344.800013777" xlink:href="#m44c7df2bae" y="266.631887477"/>
     <use style="fill:#008000;stroke:#000000;stroke-width:0.5;" x="357.200018399" xlink:href="#m44c7df2bae" y="214.848093665"/>
     <use style="fill:#008000;stroke:#000000;stroke-width:0.5;" x="369.59999911" xlink:href="#m44c7df2bae" y="165.281116163"/>
     <use style="fill:#008000;stroke:#000000;stroke-width:0.5;" x="382.000013353" xlink:href="#m44c7df2bae" y="123.034914366"/>
     <use style="fill:#008000;stroke:#000000;stroke-width:0.5;" x="394.400002451" xlink:href="#m44c7df2bae" y="92.004428576"/>
     <use style="fill:#008000;stroke:#000000;stroke-width:0.5;" x="406.799998033" xlink:href="#m44c7df2bae" y="74.4472592285"/>
     <use style="fill:#008000;stroke:#000000;stroke-width:0.5;" x="419.200004781" xlink:href="#m44c7df2bae" y="70.8030629627"/>
     <use style="fill:#008000;stroke:#000000;stroke-width:0.5;" x="431.599992106" xlink:href="#m44c7df2bae" y="79.7856370417"/>
     <use style="fill:#008000;stroke:#000000;stroke-width:0.5;" x="444.000036133" xlink:href="#m44c7df2bae" y="98.7097277794"/>
     <use style="fill:#008000;stroke:#000000;stroke-width:0.5;" x="456.40001115" xlink:href="#m44c7df2bae" y="123.976501122"/>
     <use style="fill:#008000;stroke:#000000;stroke-width:0.5;" x="468.800005701" xlink:href="#m44c7df2bae" y="151.611449509"/>
     <use style="fill:#008000;stroke:#000000;stroke-width:0.5;" x="481.200048007" xlink:href="#m44c7df2bae" y="177.753475808"/>
     <use style="fill:#008000;stroke:#000000;stroke-width:0.5;" x="493.600006263" xlink:href="#m44c7df2bae" y="199.043026153"/>
     <use style="fill:#008000;stroke:#000000;stroke-width:0.5;" x="506.000020969" xlink:href="#m44c7df2bae" y="212.898401503"/>
    </g>
   </g>
   <g id="patch_3">
    <path d="M 518.4 388.8 
L 518.4 43.2 
" style="fill:none;stroke:#000000;stroke-linecap:square;stroke-linejoin:miter;"/>
   </g>
   <g id="patch_4">
    <path d="M 72 43.2 
L 518.4 43.2 
" style="fill:none;stroke:#000000;stroke-linecap:square;stroke-linejoin:miter;"/>
   </g>
   <g id="patch_5">
    <path d="M 72 388.8 
L 72 43.2 
" style="fill:none;stroke:#000000;stroke-linecap:square;stroke-linejoin:miter;"/>
   </g>
   <g id="patch_6">
    <path d="M 72 388.8 
L 518.4 388.8 
" style="fill:none;stroke:#000000;stroke-linecap:square;stroke-linejoin:miter;"/>
   </g>
   <g id="matplotlib.axis_1">
    <g id="xtick_1">
     <g id="line2d_6">
      <defs>
       <path d="M 0 0 
L 0 -4 
" id="m7d8fadc1d7" style="stroke:#000000;stroke-width:0.5;"/>
      </defs>
      <g>
       <use style="stroke:#000000;stroke-width:0.5;" x="72.0" xlink:href="#m7d8fadc1d7" y="388.8"/>
      </g>
     </g>
     <g id="line2d_7">
      <defs>
       <path d="M 0 0 
L 0 4 
" id="mb1af7c0cd9" style="stroke:#000000;stroke-width:0.5;"/>
      </defs>
      <g>
       <use style="stroke:#000000;stroke-width:0.5;" x="72.0" xlink:href="#mb1af7c0cd9" y="43.2"/>
      </g>
     </g>
     <g id="text_1">
      <!-- −180 -->
      <defs>
       <path d="M 31.78125 66.40625 
Q 24.171875 66.40625 20.328125 58.90625 
Q 16.5 51.421875 16.5 36.375 
Q 16.5 21.390625 20.328125 13.890625 
Q 24.171875 6.390625 31.78125 6.390625 
Q 39.453125 6.390625 43.28125 13.890625 
Q 47.125 21.390625 47.125 36.375 
Q 47.125 51.421875 43.28125 58.90625 
Q 39.453125 66.40625 31.78125 66.40625 
M 31.78125 74.21875 
Q 44.046875 74.21875 50.515625 64.515625 
Q 56.984375 54.828125 56.984375 36.375 
Q 56.984375 17.96875 50.515625 8.265625 
Q 44.046875 -1.421875 31.78125 -1.421875 
Q 19.53125 -1.421875 13.0625 8.265625 
Q 6.59375 17.96875 6.59375 36.375 
Q 6.59375 54.828125 13.0625 64.515625 
Q 19.53125 74.21875 31.78125 74.21875 
" id="BitstreamVeraSans-Roman-30"/>
       <path d="M 31.78125 34.625 
Q 24.75 34.625 20.71875 30.859375 
Q 16.703125 27.09375 16.703125 20.515625 
Q 16.703125 13.921875 20.71875 10.15625 
Q 24.75 6.390625 31.78125 6.390625 
Q 38.8125 6.390625 42.859375 10.171875 
Q 46.921875 13.96875 46.921875 20.515625 
Q 46.921875 27.09375 42.890625 30.859375 
Q 38.875 34.625 31.78125 34.625 
M 21.921875 38.8125 
Q 15.578125 40.375 12.03125 44.71875 
Q 8.5 49.078125 8.5 55.328125 
Q 8.5 64.0625 14.71875 69.140625 
Q 20.953125 74.21875 31.78125 74.21875 
Q 42.671875 74.21875 48.875 69.140625 
Q 55.078125 64.0625 55.078125 55.328125 
Q 55.078125 49.078125 51.53125 44.71875 
Q 48 40.375 41.703125 38.8125 
Q 48.828125 37.15625 52.796875 32.3125 
Q 56.78125 27.484375 56.78125 20.515625 
Q 56.78125 9.90625 50.3125 4.234375 
Q 43.84375 -1.421875 31.78125 -1.421875 
Q 19.734375 -1.421875 13.25 4.234375 
Q 6.78125 9.90625 6.78125 20.515625 
Q 6.78125 27.484375 10.78125 32.3125 
Q 14.796875 37.15625 21.921875 38.8125 
M 18.3125 54.390625 
Q 18.3125 48.734375 21.84375 45.5625 
Q 25.390625 42.390625 31.78125 42.390625 
Q 38.140625 42.390625 41.71875 45.5625 
Q 45.3125 48.734375 45.3125 54.390625 
Q 45.3125 60.0625 41.71875 63.234375 
Q 38.140625 66.40625 31.78125 66.40625 
Q 25.390625 66.40625 21.84375 63.234375 
Q 18.3125 60.0625 18.3125 54.390625 
" id="BitstreamVeraSans-Roman-38"/>
       <path d="M 10.59375 35.5 
L 73.1875 35.5 
L 73.1875 27.203125 
L 10.59375 27.203125 
z
" id="BitstreamVeraSans-Roman-2212"/>
       <path d="M 12.40625 8.296875 
L 28.515625 8.296875 
L 28.515625 63.921875 
L 10.984375 60.40625 
L 10.984375 69.390625 
L 28.421875 72.90625 
L 38.28125 72.90625 
L 38.28125 8.296875 
L 54.390625 8.296875 
L 54.390625 0 
L 12.40625 0 
z
" id="BitstreamVeraSans-Roman-31"/>
      </defs>
      <g transform="translate(55.5196875 401.918125)scale(0.12 -0.12)">
       <use xlink:href="#BitstreamVeraSans-Roman-2212"/>
       <use x="83.7890625" xlink:href="#BitstreamVeraSans-Roman-31"/>
       <use x="147.412109375" xlink:href="#BitstreamVeraSans-Roman-38"/>
       <use x="211.03515625" xlink:href="#BitstreamVeraSans-Roman-30"/>
      </g>
     </g>
    </g>
    <g id="xtick_2">
     <g id="line2d_8">
      <g>
       <use style="stroke:#000000;stroke-width:0.5;" x="127.8" xlink:href="#m7d8fadc1d7" y="388.8"/>
      </g>
     </g>
     <g id="line2d_9">
      <g>
       <use style="stroke:#000000;stroke-width:0.5;" x="127.8" xlink:href="#mb1af7c0cd9" y="43.2"/>
      </g>
     </g>
     <g id="text_2">
      <!-- −135 -->
      <defs>
       <path d="M 10.796875 72.90625 
L 49.515625 72.90625 
L 49.515625 64.59375 
L 19.828125 64.59375 
L 19.828125 46.734375 
Q 21.96875 47.46875 24.109375 47.828125 
Q 26.265625 48.1875 28.421875 48.1875 
Q 40.625 48.1875 47.75 41.5 
Q 54.890625 34.8125 54.890625 23.390625 
Q 54.890625 11.625 47.5625 5.09375 
Q 40.234375 -1.421875 26.90625 -1.421875 
Q 22.3125 -1.421875 17.546875 -0.640625 
Q 12.796875 0.140625 7.71875 1.703125 
L 7.71875 11.625 
Q 12.109375 9.234375 16.796875 8.0625 
Q 21.484375 6.890625 26.703125 6.890625 
Q 35.15625 6.890625 40.078125 11.328125 
Q 45.015625 15.765625 45.015625 23.390625 
Q 45.015625 31 40.078125 35.4375 
Q 35.15625 39.890625 26.703125 39.890625 
Q 22.75 39.890625 18.8125 39.015625 
Q 14.890625 38.140625 10.796875 36.28125 
z
" id="BitstreamVeraSans-Roman-35"/>
       <path d="M 40.578125 39.3125 
Q 47.65625 37.796875 51.625 33 
Q 55.609375 28.21875 55.609375 21.1875 
Q 55.609375 10.40625 48.1875 4.484375 
Q 40.765625 -1.421875 27.09375 -1.421875 
Q 22.515625 -1.421875 17.65625 -0.515625 
Q 12.796875 0.390625 7.625 2.203125 
L 7.625 11.71875 
Q 11.71875 9.328125 16.59375 8.109375 
Q 21.484375 6.890625 26.8125 6.890625 
Q 36.078125 6.890625 40.9375 10.546875 
Q 45.796875 14.203125 45.796875 21.1875 
Q 45.796875 27.640625 41.28125 31.265625 
Q 36.765625 34.90625 28.71875 34.90625 
L 20.21875 34.90625 
L 20.21875 43.015625 
L 29.109375 43.015625 
Q 36.375 43.015625 40.234375 45.921875 
Q 44.09375 48.828125 44.09375 54.296875 
Q 44.09375 59.90625 40.109375 62.90625 
Q 36.140625 65.921875 28.71875 65.921875 
Q 24.65625 65.921875 20.015625 65.03125 
Q 15.375 64.15625 9.8125 62.3125 
L 9.8125 71.09375 
Q 15.4375 72.65625 20.34375 73.4375 
Q 25.25 74.21875 29.59375 74.21875 
Q 40.828125 74.21875 47.359375 69.109375 
Q 53.90625 64.015625 53.90625 55.328125 
Q 53.90625 49.265625 50.4375 45.09375 
Q 46.96875 40.921875 40.578125 39.3125 
" id="BitstreamVeraSans-Roman-33"/>
      </defs>
      <g transform="translate(111.3196875 401.918125)scale(0.12 -0.12)">
       <use xlink:href="#BitstreamVeraSans-Roman-2212"/>
       <use x="83.7890625" xlink:href="#BitstreamVeraSans-Roman-31"/>
       <use x="147.412109375" xlink:href="#BitstreamVeraSans-Roman-33"/>
       <use x="211.03515625" xlink:href="#BitstreamVeraSans-Roman-35"/>
      </g>
     </g>
    </g>
    <g id="xtick_3">
     <g id="line2d_10">
      <g>
       <use style="stroke:#000000;stroke-width:0.5;" x="183.6" xlink:href="#m7d8fadc1d7" y="388.8"/>
      </g>
     </g>
     <g id="line2d_11">
      <g>
       <use style="stroke:#000000;stroke-width:0.5;" x="183.6" xlink:href="#mb1af7c0cd9" y="43.2"/>
      </g>
     </g>
     <g id="text_3">
      <!-- −90 -->
      <defs>
       <path d="M 10.984375 1.515625 
L 10.984375 10.5 
Q 14.703125 8.734375 18.5 7.8125 
Q 22.3125 6.890625 25.984375 6.890625 
Q 35.75 6.890625 40.890625 13.453125 
Q 46.046875 20.015625 46.78125 33.40625 
Q 43.953125 29.203125 39.59375 26.953125 
Q 35.25 24.703125 29.984375 24.703125 
Q 19.046875 24.703125 12.671875 31.3125 
Q 6.296875 37.9375 6.296875 49.421875 
Q 6.296875 60.640625 12.9375 67.421875 
Q 19.578125 74.21875 30.609375 74.21875 
Q 43.265625 74.21875 49.921875 64.515625 
Q 56.59375 54.828125 56.59375 36.375 
Q 56.59375 19.140625 48.40625 8.859375 
Q 40.234375 -1.421875 26.421875 -1.421875 
Q 22.703125 -1.421875 18.890625 -0.6875 
Q 15.09375 0.046875 10.984375 1.515625 
M 30.609375 32.421875 
Q 37.25 32.421875 41.125 36.953125 
Q 45.015625 41.5 45.015625 49.421875 
Q 45.015625 57.28125 41.125 61.84375 
Q 37.25 66.40625 30.609375 66.40625 
Q 23.96875 66.40625 20.09375 61.84375 
Q 16.21875 57.28125 16.21875 49.421875 
Q 16.21875 41.5 20.09375 36.953125 
Q 23.96875 32.421875 30.609375 32.421875 
" id="BitstreamVeraSans-Roman-39"/>
      </defs>
      <g transform="translate(170.9371875 401.918125)scale(0.12 -0.12)">
       <use xlink:href="#BitstreamVeraSans-Roman-2212"/>
       <use x="83.7890625" xlink:href="#BitstreamVeraSans-Roman-39"/>
       <use x="147.412109375" xlink:href="#BitstreamVeraSans-Roman-30"/>
      </g>
     </g>
    </g>
    <g id="xtick_4">
     <g id="line2d_12">
      <g>
       <use style="stroke:#000000;stroke-width:0.5;" x="239.4" xlink:href="#m7d8fadc1d7" y="388.8"/>
      </g>
     </g>
     <g id="line2d_13">
      <g>
       <use style="stroke:#000000;stroke-width:0.5;" x="239.4" xlink:href="#mb1af7c0cd9" y="43.2"/>
      </g>
     </g>
     <g id="text_4">
      <!-- −45 -->
      <defs>
       <path d="M 37.796875 64.3125 
L 12.890625 25.390625 
L 37.796875 25.390625 
z
M 35.203125 72.90625 
L 47.609375 72.90625 
L 47.609375 25.390625 
L 58.015625 25.390625 
L 58.015625 17.1875 
L 47.609375 17.1875 
L 47.609375 0 
L 37.796875 0 
L 37.796875 17.1875 
L 4.890625 17.1875 
L 4.890625 26.703125 
z
" id="BitstreamVeraSans-Roman-34"/>
      </defs>
      <g transform="translate(226.7371875 401.918125)scale(0.12 -0.12)">
       <use xlink:href="#BitstreamVeraSans-Roman-2212"/>
       <use x="83.7890625" xlink:href="#BitstreamVeraSans-Roman-34"/>
       <use x="147.412109375" xlink:href="#BitstreamVeraSans-Roman-35"/>
      </g>
     </g>
    </g>
    <g id="xtick_5">
     <g id="line2d_14">
      <g>
       <use style="stroke:#000000;stroke-width:0.5;" x="295.2" xlink:href="#m7d8fadc1d7" y="388.8"/>
      </g>
     </g>
     <g id="line2d_15">
      <g>
       <use style="stroke:#000000;stroke-width:0.5;" x="295.2" xlink:href="#mb1af7c0cd9" y="43.2"/>
      </g>
     </g>
     <g id="text_5">
      <!-- 0 -->
      <g transform="translate(291.3825 401.918125)scale(0.12 -0.12)">
       <use xlink:href="#BitstreamVeraSans-Roman-30"/>
      </g>
     </g>
    </g>
    <g id="xtick_6">
     <g id="line2d_16">
      <g>
       <use style="stroke:#000000;stroke-width:0.5;" x="351.0" xlink:href="#m7d8fadc1d7" y="388.8"/>
      </g>
     </g>
     <g id="line2d_17">
      <g>
       <use style="stroke:#000000;stroke-width:0.5;" x="351.0" xlink:href="#mb1af7c0cd9" y="43.2"/>
      </g>
     </g>
     <g id="text_6">
      <!-- 45 -->
      <g transform="translate(343.365 401.918125)scale(0.12 -0.12)">
       <use xlink:href="#BitstreamVeraSans-Roman-34"/>
       <use x="63.623046875" xlink:href="#BitstreamVeraSans-Roman-35"/>
      </g>
     </g>
    </g>
    <g id="xtick_7">
     <g id="line2d_18">
      <g>
       <use style="stroke:#000000;stroke-width:0.5;" x="406.8" xlink:href="#m7d8fadc1d7" y="388.8"/>
      </g>
     </g>
     <g id="line2d_19">
      <g>
       <use style="stroke:#000000;stroke-width:0.5;" x="406.8" xlink:href="#mb1af7c0cd9" y="43.2"/>
      </g>
     </g>
     <g id="text_7">
      <!-- 90 -->
      <g transform="translate(399.165 401.918125)scale(0.12 -0.12)">
       <use xlink:href="#BitstreamVeraSans-Roman-39"/>
       <use x="63.623046875" xlink:href="#BitstreamVeraSans-Roman-30"/>
      </g>
     </g>
    </g>
    <g id="xtick_8">
     <g id="line2d_20">
      <g>
       <use style="stroke:#000000;stroke-width:0.5;" x="462.6" xlink:href="#m7d8fadc1d7" y="388.8"/>
      </g>
     </g>
     <g id="line2d_21">
      <g>
       <use style="stroke:#000000;stroke-width:0.5;" x="462.6" xlink:href="#mb1af7c0cd9" y="43.2"/>
      </g>
     </g>
     <g id="text_8">
      <!-- 135 -->
      <g transform="translate(451.1475 401.918125)scale(0.12 -0.12)">
       <use xlink:href="#BitstreamVeraSans-Roman-31"/>
       <use x="63.623046875" xlink:href="#BitstreamVeraSans-Roman-33"/>
       <use x="127.24609375" xlink:href="#BitstreamVeraSans-Roman-35"/>
      </g>
     </g>
    </g>
    <g id="xtick_9">
     <g id="line2d_22">
      <g>
       <use style="stroke:#000000;stroke-width:0.5;" x="518.4" xlink:href="#m7d8fadc1d7" y="388.8"/>
      </g>
     </g>
     <g id="line2d_23">
      <g>
       <use style="stroke:#000000;stroke-width:0.5;" x="518.4" xlink:href="#mb1af7c0cd9" y="43.2"/>
      </g>
     </g>
     <g id="text_9">
      <!-- 180 -->
      <g transform="translate(506.9475 401.918125)scale(0.12 -0.12)">
       <use xlink:href="#BitstreamVeraSans-Roman-31"/>
       <use x="63.623046875" xlink:href="#BitstreamVeraSans-Roman-38"/>
       <use x="127.24609375" xlink:href="#BitstreamVeraSans-Roman-30"/>
      </g>
     </g>
    </g>
    <g id="text_10">
     <!-- Phi -->
     <defs>
      <path d="M 9.421875 54.6875 
L 18.40625 54.6875 
L 18.40625 0 
L 9.421875 0 
z
M 9.421875 75.984375 
L 18.40625 75.984375 
L 18.40625 64.59375 
L 9.421875 64.59375 
z
" id="BitstreamVeraSans-Roman-69"/>
      <path d="M 54.890625 33.015625 
L 54.890625 0 
L 45.90625 0 
L 45.90625 32.71875 
Q 45.90625 40.484375 42.875 44.328125 
Q 39.84375 48.1875 33.796875 48.1875 
Q 26.515625 48.1875 22.3125 43.546875 
Q 18.109375 38.921875 18.109375 30.90625 
L 18.109375 0 
L 9.078125 0 
L 9.078125 75.984375 
L 18.109375 75.984375 
L 18.109375 46.1875 
Q 21.34375 51.125 25.703125 53.5625 
Q 30.078125 56 35.796875 56 
Q 45.21875 56 50.046875 50.171875 
Q 54.890625 44.34375 54.890625 33.015625 
" id="BitstreamVeraSans-Roman-68"/>
      <path d="M 19.671875 64.796875 
L 19.671875 37.40625 
L 32.078125 37.40625 
Q 38.96875 37.40625 42.71875 40.96875 
Q 46.484375 44.53125 46.484375 51.125 
Q 46.484375 57.671875 42.71875 61.234375 
Q 38.96875 64.796875 32.078125 64.796875 
z
M 9.8125 72.90625 
L 32.078125 72.90625 
Q 44.34375 72.90625 50.609375 67.359375 
Q 56.890625 61.8125 56.890625 51.125 
Q 56.890625 40.328125 50.609375 34.8125 
Q 44.34375 29.296875 32.078125 29.296875 
L 19.671875 29.296875 
L 19.671875 0 
L 9.8125 0 
z
" id="BitstreamVeraSans-Roman-50"/>
     </defs>
     <g transform="translate(286.1128125 418.531875)scale(0.12 -0.12)">
      <use xlink:href="#BitstreamVeraSans-Roman-50"/>
      <use x="60.302734375" xlink:href="#BitstreamVeraSans-Roman-68"/>
      <use x="123.681640625" xlink:href="#BitstreamVeraSans-Roman-69"/>
     </g>
    </g>
   </g>
   <g id="matplotlib.axis_2">
    <g id="ytick_1">
     <g id="line2d_24">
      <defs>
       <path d="M 0 0 
L 4 0 
" id="mf0385f24ec" style="stroke:#000000;stroke-width:0.5;"/>
      </defs>
      <g>
       <use style="stroke:#000000;stroke-width:0.5;" x="72.0" xlink:href="#mf0385f24ec" y="388.8"/>
      </g>
     </g>
     <g id="line2d_25">
      <defs>
       <path d="M 0 0 
L -4 0 
" id="mc3757f701e" style="stroke:#000000;stroke-width:0.5;"/>
      </defs>
      <g>
       <use style="stroke:#000000;stroke-width:0.5;" x="518.4" xlink:href="#mc3757f701e" y="388.8"/>
      </g>
     </g>
     <g id="text_11">
      <!-- 0 -->
      <g transform="translate(60.365 392.11125)scale(0.12 -0.12)">
       <use xlink:href="#BitstreamVeraSans-Roman-30"/>
      </g>
     </g>
    </g>
    <g id="ytick_2">
     <g id="line2d_26">
      <g>
       <use style="stroke:#000000;stroke-width:0.5;" x="72.0" xlink:href="#mf0385f24ec" y="345.6"/>
      </g>
     </g>
     <g id="line2d_27">
      <g>
       <use style="stroke:#000000;stroke-width:0.5;" x="518.4" xlink:href="#mc3757f701e" y="345.6"/>
      </g>
     </g>
     <g id="text_12">
      <!-- 2 -->
      <defs>
       <path d="M 19.1875 8.296875 
L 53.609375 8.296875 
L 53.609375 0 
L 7.328125 0 
L 7.328125 8.296875 
Q 12.9375 14.109375 22.625 23.890625 
Q 32.328125 33.6875 34.8125 36.53125 
Q 39.546875 41.84375 41.421875 45.53125 
Q 43.3125 49.21875 43.3125 52.78125 
Q 43.3125 58.59375 39.234375 62.25 
Q 35.15625 65.921875 28.609375 65.921875 
Q 23.96875 65.921875 18.8125 64.3125 
Q 13.671875 62.703125 7.8125 59.421875 
L 7.8125 69.390625 
Q 13.765625 71.78125 18.9375 73 
Q 24.125 74.21875 28.421875 74.21875 
Q 39.75 74.21875 46.484375 68.546875 
Q 53.21875 62.890625 53.21875 53.421875 
Q 53.21875 48.921875 51.53125 44.890625 
Q 49.859375 40.875 45.40625 35.40625 
Q 44.1875 33.984375 37.640625 27.21875 
Q 31.109375 20.453125 19.1875 8.296875 
" id="BitstreamVeraSans-Roman-32"/>
      </defs>
      <g transform="translate(60.365 348.91125)scale(0.12 -0.12)">
       <use xlink:href="#BitstreamVeraSans-Roman-32"/>
      </g>
     </g>
    </g>
    <g id="ytick_3">
     <g id="line2d_28">
      <g>
       <use style="stroke:#000000;stroke-width:0.5;" x="72.0" xlink:href="#mf0385f24ec" y="302.4"/>
      </g>
     </g>
     <g id="line2d_29">
      <g>
       <use style="stroke:#000000;stroke-width:0.5;" x="518.4" xlink:href="#mc3757f701e" y="302.4"/>
      </g>
     </g>
     <g id="text_13">
      <!-- 4 -->
      <g transform="translate(60.365 305.71125)scale(0.12 -0.12)">
       <use xlink:href="#BitstreamVeraSans-Roman-34"/>
      </g>
     </g>
    </g>
    <g id="ytick_4">
     <g id="line2d_30">
      <g>
       <use style="stroke:#000000;stroke-width:0.5;" x="72.0" xlink:href="#mf0385f24ec" y="259.2"/>
      </g>
     </g>
     <g id="line2d_31">
      <g>
       <use style="stroke:#000000;stroke-width:0.5;" x="518.4" xlink:href="#mc3757f701e" y="259.2"/>
      </g>
     </g>
     <g id="text_14">
      <!-- 6 -->
      <defs>
       <path d="M 33.015625 40.375 
Q 26.375 40.375 22.484375 35.828125 
Q 18.609375 31.296875 18.609375 23.390625 
Q 18.609375 15.53125 22.484375 10.953125 
Q 26.375 6.390625 33.015625 6.390625 
Q 39.65625 6.390625 43.53125 10.953125 
Q 47.40625 15.53125 47.40625 23.390625 
Q 47.40625 31.296875 43.53125 35.828125 
Q 39.65625 40.375 33.015625 40.375 
M 52.59375 71.296875 
L 52.59375 62.3125 
Q 48.875 64.0625 45.09375 64.984375 
Q 41.3125 65.921875 37.59375 65.921875 
Q 27.828125 65.921875 22.671875 59.328125 
Q 17.53125 52.734375 16.796875 39.40625 
Q 19.671875 43.65625 24.015625 45.921875 
Q 28.375 48.1875 33.59375 48.1875 
Q 44.578125 48.1875 50.953125 41.515625 
Q 57.328125 34.859375 57.328125 23.390625 
Q 57.328125 12.15625 50.6875 5.359375 
Q 44.046875 -1.421875 33.015625 -1.421875 
Q 20.359375 -1.421875 13.671875 8.265625 
Q 6.984375 17.96875 6.984375 36.375 
Q 6.984375 53.65625 15.1875 63.9375 
Q 23.390625 74.21875 37.203125 74.21875 
Q 40.921875 74.21875 44.703125 73.484375 
Q 48.484375 72.75 52.59375 71.296875 
" id="BitstreamVeraSans-Roman-36"/>
      </defs>
      <g transform="translate(60.365 262.51125)scale(0.12 -0.12)">
       <use xlink:href="#BitstreamVeraSans-Roman-36"/>
      </g>
     </g>
    </g>
    <g id="ytick_5">
     <g id="line2d_32">
      <g>
       <use style="stroke:#000000;stroke-width:0.5;" x="72.0" xlink:href="#mf0385f24ec" y="216.0"/>
      </g>
     </g>
     <g id="line2d_33">
      <g>
       <use style="stroke:#000000;stroke-width:0.5;" x="518.4" xlink:href="#mc3757f701e" y="216.0"/>
      </g>
     </g>
     <g id="text_15">
      <!-- 8 -->
      <g transform="translate(60.365 219.31125)scale(0.12 -0.12)">
       <use xlink:href="#BitstreamVeraSans-Roman-38"/>
      </g>
     </g>
    </g>
    <g id="ytick_6">
     <g id="line2d_34">
      <g>
       <use style="stroke:#000000;stroke-width:0.5;" x="72.0" xlink:href="#mf0385f24ec" y="172.8"/>
      </g>
     </g>
     <g id="line2d_35">
      <g>
       <use style="stroke:#000000;stroke-width:0.5;" x="518.4" xlink:href="#mc3757f701e" y="172.8"/>
      </g>
     </g>
     <g id="text_16">
      <!-- 10 -->
      <g transform="translate(52.73 176.11125)scale(0.12 -0.12)">
       <use xlink:href="#BitstreamVeraSans-Roman-31"/>
       <use x="63.623046875" xlink:href="#BitstreamVeraSans-Roman-30"/>
      </g>
     </g>
    </g>
    <g id="ytick_7">
     <g id="line2d_36">
      <g>
       <use style="stroke:#000000;stroke-width:0.5;" x="72.0" xlink:href="#mf0385f24ec" y="129.6"/>
      </g>
     </g>
     <g id="line2d_37">
      <g>
       <use style="stroke:#000000;stroke-width:0.5;" x="518.4" xlink:href="#mc3757f701e" y="129.6"/>
      </g>
     </g>
     <g id="text_17">
      <!-- 12 -->
      <g transform="translate(52.73 132.91125)scale(0.12 -0.12)">
       <use xlink:href="#BitstreamVeraSans-Roman-31"/>
       <use x="63.623046875" xlink:href="#BitstreamVeraSans-Roman-32"/>
      </g>
     </g>
    </g>
    <g id="ytick_8">
     <g id="line2d_38">
      <g>
       <use style="stroke:#000000;stroke-width:0.5;" x="72.0" xlink:href="#mf0385f24ec" y="86.4"/>
      </g>
     </g>
     <g id="line2d_39">
      <g>
       <use style="stroke:#000000;stroke-width:0.5;" x="518.4" xlink:href="#mc3757f701e" y="86.4"/>
      </g>
     </g>
     <g id="text_18">
      <!-- 14 -->
      <g transform="translate(52.73 89.71125)scale(0.12 -0.12)">
       <use xlink:href="#BitstreamVeraSans-Roman-31"/>
       <use x="63.623046875" xlink:href="#BitstreamVeraSans-Roman-34"/>
      </g>
     </g>
    </g>
    <g id="ytick_9">
     <g id="line2d_40">
      <g>
       <use style="stroke:#000000;stroke-width:0.5;" x="72.0" xlink:href="#mf0385f24ec" y="43.2"/>
      </g>
     </g>
     <g id="line2d_41">
      <g>
       <use style="stroke:#000000;stroke-width:0.5;" x="518.4" xlink:href="#mc3757f701e" y="43.2"/>
      </g>
     </g>
     <g id="text_19">
      <!-- 16 -->
      <g transform="translate(52.73 46.51125)scale(0.12 -0.12)">
       <use xlink:href="#BitstreamVeraSans-Roman-31"/>
       <use x="63.623046875" xlink:href="#BitstreamVeraSans-Roman-36"/>
      </g>
     </g>
    </g>
    <g id="text_20">
     <!-- kcal/mol -->
     <defs>
      <path d="M 34.28125 27.484375 
Q 23.390625 27.484375 19.1875 25 
Q 14.984375 22.515625 14.984375 16.5 
Q 14.984375 11.71875 18.140625 8.90625 
Q 21.296875 6.109375 26.703125 6.109375 
Q 34.1875 6.109375 38.703125 11.40625 
Q 43.21875 16.703125 43.21875 25.484375 
L 43.21875 27.484375 
z
M 52.203125 31.203125 
L 52.203125 0 
L 43.21875 0 
L 43.21875 8.296875 
Q 40.140625 3.328125 35.546875 0.953125 
Q 30.953125 -1.421875 24.3125 -1.421875 
Q 15.921875 -1.421875 10.953125 3.296875 
Q 6 8.015625 6 15.921875 
Q 6 25.140625 12.171875 29.828125 
Q 18.359375 34.515625 30.609375 34.515625 
L 43.21875 34.515625 
L 43.21875 35.40625 
Q 43.21875 41.609375 39.140625 45 
Q 35.0625 48.390625 27.6875 48.390625 
Q 23 48.390625 18.546875 47.265625 
Q 14.109375 46.140625 10.015625 43.890625 
L 10.015625 52.203125 
Q 14.9375 54.109375 19.578125 55.046875 
Q 24.21875 56 28.609375 56 
Q 40.484375 56 46.34375 49.84375 
Q 52.203125 43.703125 52.203125 31.203125 
" id="BitstreamVeraSans-Roman-61"/>
      <path d="M 9.078125 75.984375 
L 18.109375 75.984375 
L 18.109375 31.109375 
L 44.921875 54.6875 
L 56.390625 54.6875 
L 27.390625 29.109375 
L 57.625 0 
L 45.90625 0 
L 18.109375 26.703125 
L 18.109375 0 
L 9.078125 0 
z
" id="BitstreamVeraSans-Roman-6b"/>
      <path d="M 30.609375 48.390625 
Q 23.390625 48.390625 19.1875 42.75 
Q 14.984375 37.109375 14.984375 27.296875 
Q 14.984375 17.484375 19.15625 11.84375 
Q 23.34375 6.203125 30.609375 6.203125 
Q 37.796875 6.203125 41.984375 11.859375 
Q 46.1875 17.53125 46.1875 27.296875 
Q 46.1875 37.015625 41.984375 42.703125 
Q 37.796875 48.390625 30.609375 48.390625 
M 30.609375 56 
Q 42.328125 56 49.015625 48.375 
Q 55.71875 40.765625 55.71875 27.296875 
Q 55.71875 13.875 49.015625 6.21875 
Q 42.328125 -1.421875 30.609375 -1.421875 
Q 18.84375 -1.421875 12.171875 6.21875 
Q 5.515625 13.875 5.515625 27.296875 
Q 5.515625 40.765625 12.171875 48.375 
Q 18.84375 56 30.609375 56 
" id="BitstreamVeraSans-Roman-6f"/>
      <path d="M 25.390625 72.90625 
L 33.6875 72.90625 
L 8.296875 -9.28125 
L 0 -9.28125 
z
" id="BitstreamVeraSans-Roman-2f"/>
      <path d="M 48.78125 52.59375 
L 48.78125 44.1875 
Q 44.96875 46.296875 41.140625 47.34375 
Q 37.3125 48.390625 33.40625 48.390625 
Q 24.65625 48.390625 19.8125 42.84375 
Q 14.984375 37.3125 14.984375 27.296875 
Q 14.984375 17.28125 19.8125 11.734375 
Q 24.65625 6.203125 33.40625 6.203125 
Q 37.3125 6.203125 41.140625 7.25 
Q 44.96875 8.296875 48.78125 10.40625 
L 48.78125 2.09375 
Q 45.015625 0.34375 40.984375 -0.53125 
Q 36.96875 -1.421875 32.421875 -1.421875 
Q 20.0625 -1.421875 12.78125 6.34375 
Q 5.515625 14.109375 5.515625 27.296875 
Q 5.515625 40.671875 12.859375 48.328125 
Q 20.21875 56 33.015625 56 
Q 37.15625 56 41.109375 55.140625 
Q 45.0625 54.296875 48.78125 52.59375 
" id="BitstreamVeraSans-Roman-63"/>
      <path d="M 52 44.1875 
Q 55.375 50.25 60.0625 53.125 
Q 64.75 56 71.09375 56 
Q 79.640625 56 84.28125 50.015625 
Q 88.921875 44.046875 88.921875 33.015625 
L 88.921875 0 
L 79.890625 0 
L 79.890625 32.71875 
Q 79.890625 40.578125 77.09375 44.375 
Q 74.3125 48.1875 68.609375 48.1875 
Q 61.625 48.1875 57.5625 43.546875 
Q 53.515625 38.921875 53.515625 30.90625 
L 53.515625 0 
L 44.484375 0 
L 44.484375 32.71875 
Q 44.484375 40.625 41.703125 44.40625 
Q 38.921875 48.1875 33.109375 48.1875 
Q 26.21875 48.1875 22.15625 43.53125 
Q 18.109375 38.875 18.109375 30.90625 
L 18.109375 0 
L 9.078125 0 
L 9.078125 54.6875 
L 18.109375 54.6875 
L 18.109375 46.1875 
Q 21.1875 51.21875 25.484375 53.609375 
Q 29.78125 56 35.6875 56 
Q 41.65625 56 45.828125 52.96875 
Q 50 49.953125 52 44.1875 
" id="BitstreamVeraSans-Roman-6d"/>
      <path d="M 9.421875 75.984375 
L 18.40625 75.984375 
L 18.40625 0 
L 9.421875 0 
z
" id="BitstreamVeraSans-Roman-6c"/>
     </defs>
     <g transform="translate(45.234375 241.3209375)rotate(-90.0)scale(0.12 -0.12)">
      <use xlink:href="#BitstreamVeraSans-Roman-6b"/>
      <use x="57.91015625" xlink:href="#BitstreamVeraSans-Roman-63"/>
      <use x="112.890625" xlink:href="#BitstreamVeraSans-Roman-61"/>
      <use x="174.169921875" xlink:href="#BitstreamVeraSans-Roman-6c"/>
      <use x="201.953125" xlink:href="#BitstreamVeraSans-Roman-2f"/>
      <use x="235.64453125" xlink:href="#BitstreamVeraSans-Roman-6d"/>
      <use x="333.056640625" xlink:href="#BitstreamVeraSans-Roman-6f"/>
      <use x="394.23828125" xlink:href="#BitstreamVeraSans-Roman-6c"/>
     </g>
    </g>
   </g>
   <g id="text_21">
    <!-- H1-O1-C1-O2 -->
    <defs>
     <path d="M 39.40625 66.21875 
Q 28.65625 66.21875 22.328125 58.203125 
Q 16.015625 50.203125 16.015625 36.375 
Q 16.015625 22.609375 22.328125 14.59375 
Q 28.65625 6.59375 39.40625 6.59375 
Q 50.140625 6.59375 56.421875 14.59375 
Q 62.703125 22.609375 62.703125 36.375 
Q 62.703125 50.203125 56.421875 58.203125 
Q 50.140625 66.21875 39.40625 66.21875 
M 39.40625 74.21875 
Q 54.734375 74.21875 63.90625 63.9375 
Q 73.09375 53.65625 73.09375 36.375 
Q 73.09375 19.140625 63.90625 8.859375 
Q 54.734375 -1.421875 39.40625 -1.421875 
Q 24.03125 -1.421875 14.8125 8.828125 
Q 5.609375 19.09375 5.609375 36.375 
Q 5.609375 53.65625 14.8125 63.9375 
Q 24.03125 74.21875 39.40625 74.21875 
" id="BitstreamVeraSans-Roman-4f"/>
     <path d="M 64.40625 67.28125 
L 64.40625 56.890625 
Q 59.421875 61.53125 53.78125 63.8125 
Q 48.140625 66.109375 41.796875 66.109375 
Q 29.296875 66.109375 22.65625 58.46875 
Q 16.015625 50.828125 16.015625 36.375 
Q 16.015625 21.96875 22.65625 14.328125 
Q 29.296875 6.6875 41.796875 6.6875 
Q 48.140625 6.6875 53.78125 8.984375 
Q 59.421875 11.28125 64.40625 15.921875 
L 64.40625 5.609375 
Q 59.234375 2.09375 53.4375 0.328125 
Q 47.65625 -1.421875 41.21875 -1.421875 
Q 24.65625 -1.421875 15.125 8.703125 
Q 5.609375 18.84375 5.609375 36.375 
Q 5.609375 53.953125 15.125 64.078125 
Q 24.65625 74.21875 41.21875 74.21875 
Q 47.75 74.21875 53.53125 72.484375 
Q 59.328125 70.75 64.40625 67.28125 
" id="BitstreamVeraSans-Roman-43"/>
     <path d="M 9.8125 72.90625 
L 19.671875 72.90625 
L 19.671875 43.015625 
L 55.515625 43.015625 
L 55.515625 72.90625 
L 65.375 72.90625 
L 65.375 0 
L 55.515625 0 
L 55.515625 34.71875 
L 19.671875 34.71875 
L 19.671875 0 
L 9.8125 0 
z
" id="BitstreamVeraSans-Roman-48"/>
     <path d="M 4.890625 31.390625 
L 31.203125 31.390625 
L 31.203125 23.390625 
L 4.890625 23.390625 
z
" id="BitstreamVeraSans-Roman-2d"/>
    </defs>
    <g transform="translate(247.300875 38.2)scale(0.144 -0.144)">
     <use xlink:href="#BitstreamVeraSans-Roman-48"/>
     <use x="75.1953125" xlink:href="#BitstreamVeraSans-Roman-31"/>
     <use x="138.818359375" xlink:href="#BitstreamVeraSans-Roman-2d"/>
     <use x="174.93359375" xlink:href="#BitstreamVeraSans-Roman-4f"/>
     <use x="253.64453125" xlink:href="#BitstreamVeraSans-Roman-31"/>
     <use x="317.267578125" xlink:href="#BitstreamVeraSans-Roman-2d"/>
     <use x="353.3515625" xlink:href="#BitstreamVeraSans-Roman-43"/>
     <use x="423.17578125" xlink:href="#BitstreamVeraSans-Roman-31"/>
     <use x="486.798828125" xlink:href="#BitstreamVeraSans-Roman-2d"/>
     <use x="522.9140625" xlink:href="#BitstreamVeraSans-Roman-4f"/>
     <use x="601.625" xlink:href="#BitstreamVeraSans-Roman-32"/>
    </g>
   </g>
   <g id="legend_1">
    <g id="patch_7">
     <path d="M 406.15625 108.3125 
L 514.4 108.3125 
L 514.4 47.2 
L 406.15625 47.2 
z
" style="fill:#ffffff;stroke:#000000;stroke-linejoin:miter;"/>
    </g>
    <g id="line2d_42">
     <path d="M 411.75625 53.67875 
L 422.95625 53.67875 
" style="fill:none;stroke:#ff0000;stroke-linecap:square;"/>
    </g>
    <g id="line2d_43">
     <g>
      <use style="fill:#ff0000;stroke:#000000;stroke-width:0.5;" x="411.75625" xlink:href="#m061e627b05" y="53.67875"/>
      <use style="fill:#ff0000;stroke:#000000;stroke-width:0.5;" x="422.95625" xlink:href="#m061e627b05" y="53.67875"/>
     </g>
    </g>
    <g id="text_22">
     <!-- QM -->
     <defs>
      <path d="M 39.40625 66.21875 
Q 28.65625 66.21875 22.328125 58.203125 
Q 16.015625 50.203125 16.015625 36.375 
Q 16.015625 22.609375 22.328125 14.59375 
Q 28.65625 6.59375 39.40625 6.59375 
Q 50.140625 6.59375 56.421875 14.59375 
Q 62.703125 22.609375 62.703125 36.375 
Q 62.703125 50.203125 56.421875 58.203125 
Q 50.140625 66.21875 39.40625 66.21875 
M 53.21875 1.3125 
L 66.21875 -12.890625 
L 54.296875 -12.890625 
L 43.5 -1.21875 
Q 41.890625 -1.3125 41.03125 -1.359375 
Q 40.1875 -1.421875 39.40625 -1.421875 
Q 24.03125 -1.421875 14.8125 8.859375 
Q 5.609375 19.140625 5.609375 36.375 
Q 5.609375 53.65625 14.8125 63.9375 
Q 24.03125 74.21875 39.40625 74.21875 
Q 54.734375 74.21875 63.90625 63.9375 
Q 73.09375 53.65625 73.09375 36.375 
Q 73.09375 23.6875 67.984375 14.640625 
Q 62.890625 5.609375 53.21875 1.3125 
" id="BitstreamVeraSans-Roman-51"/>
      <path d="M 9.8125 72.90625 
L 24.515625 72.90625 
L 43.109375 23.296875 
L 61.8125 72.90625 
L 76.515625 72.90625 
L 76.515625 0 
L 66.890625 0 
L 66.890625 64.015625 
L 48.09375 14.015625 
L 38.1875 14.015625 
L 19.390625 64.015625 
L 19.390625 0 
L 9.8125 0 
z
" id="BitstreamVeraSans-Roman-4d"/>
     </defs>
     <g transform="translate(431.75625 56.47875)scale(0.08 -0.08)">
      <use xlink:href="#BitstreamVeraSans-Roman-51"/>
      <use x="78.7109375" xlink:href="#BitstreamVeraSans-Roman-4d"/>
     </g>
    </g>
    <g id="line2d_44">
     <path d="M 411.75625 65.42125 
L 422.95625 65.42125 
" style="fill:none;stroke:#0000ff;stroke-linecap:square;"/>
    </g>
    <g id="line2d_45">
     <g>
      <use style="fill:#0000ff;stroke:#000000;stroke-width:0.5;" x="411.75625" xlink:href="#m32c271ec07" y="65.42125"/>
      <use style="fill:#0000ff;stroke:#000000;stroke-width:0.5;" x="422.95625" xlink:href="#m32c271ec07" y="65.42125"/>
     </g>
    </g>
    <g id="text_23">
     <!-- MM Original -->
     <defs>
      <path d="M 54.890625 33.015625 
L 54.890625 0 
L 45.90625 0 
L 45.90625 32.71875 
Q 45.90625 40.484375 42.875 44.328125 
Q 39.84375 48.1875 33.796875 48.1875 
Q 26.515625 48.1875 22.3125 43.546875 
Q 18.109375 38.921875 18.109375 30.90625 
L 18.109375 0 
L 9.078125 0 
L 9.078125 54.6875 
L 18.109375 54.6875 
L 18.109375 46.1875 
Q 21.34375 51.125 25.703125 53.5625 
Q 30.078125 56 35.796875 56 
Q 45.21875 56 50.046875 50.171875 
Q 54.890625 44.34375 54.890625 33.015625 
" id="BitstreamVeraSans-Roman-6e"/>
      <path id="BitstreamVeraSans-Roman-20"/>
      <path d="M 45.40625 27.984375 
Q 45.40625 37.75 41.375 43.109375 
Q 37.359375 48.484375 30.078125 48.484375 
Q 22.859375 48.484375 18.828125 43.109375 
Q 14.796875 37.75 14.796875 27.984375 
Q 14.796875 18.265625 18.828125 12.890625 
Q 22.859375 7.515625 30.078125 7.515625 
Q 37.359375 7.515625 41.375 12.890625 
Q 45.40625 18.265625 45.40625 27.984375 
M 54.390625 6.78125 
Q 54.390625 -7.171875 48.1875 -13.984375 
Q 42 -20.796875 29.203125 -20.796875 
Q 24.46875 -20.796875 20.265625 -20.09375 
Q 16.0625 -19.390625 12.109375 -17.921875 
L 12.109375 -9.1875 
Q 16.0625 -11.328125 19.921875 -12.34375 
Q 23.78125 -13.375 27.78125 -13.375 
Q 36.625 -13.375 41.015625 -8.765625 
Q 45.40625 -4.15625 45.40625 5.171875 
L 45.40625 9.625 
Q 42.625 4.78125 38.28125 2.390625 
Q 33.9375 0 27.875 0 
Q 17.828125 0 11.671875 7.65625 
Q 5.515625 15.328125 5.515625 27.984375 
Q 5.515625 40.671875 11.671875 48.328125 
Q 17.828125 56 27.875 56 
Q 33.9375 56 38.28125 53.609375 
Q 42.625 51.21875 45.40625 46.390625 
L 45.40625 54.6875 
L 54.390625 54.6875 
z
" id="BitstreamVeraSans-Roman-67"/>
      <path d="M 41.109375 46.296875 
Q 39.59375 47.171875 37.8125 47.578125 
Q 36.03125 48 33.890625 48 
Q 26.265625 48 22.1875 43.046875 
Q 18.109375 38.09375 18.109375 28.8125 
L 18.109375 0 
L 9.078125 0 
L 9.078125 54.6875 
L 18.109375 54.6875 
L 18.109375 46.1875 
Q 20.953125 51.171875 25.484375 53.578125 
Q 30.03125 56 36.53125 56 
Q 37.453125 56 38.578125 55.875 
Q 39.703125 55.765625 41.0625 55.515625 
z
" id="BitstreamVeraSans-Roman-72"/>
     </defs>
     <g transform="translate(431.75625 68.22125)scale(0.08 -0.08)">
      <use xlink:href="#BitstreamVeraSans-Roman-4d"/>
      <use x="86.279296875" xlink:href="#BitstreamVeraSans-Roman-4d"/>
      <use x="172.55859375" xlink:href="#BitstreamVeraSans-Roman-20"/>
      <use x="204.345703125" xlink:href="#BitstreamVeraSans-Roman-4f"/>
      <use x="283.056640625" xlink:href="#BitstreamVeraSans-Roman-72"/>
      <use x="324.169921875" xlink:href="#BitstreamVeraSans-Roman-69"/>
      <use x="351.953125" xlink:href="#BitstreamVeraSans-Roman-67"/>
      <use x="415.4296875" xlink:href="#BitstreamVeraSans-Roman-69"/>
      <use x="443.212890625" xlink:href="#BitstreamVeraSans-Roman-6e"/>
      <use x="506.591796875" xlink:href="#BitstreamVeraSans-Roman-61"/>
      <use x="567.87109375" xlink:href="#BitstreamVeraSans-Roman-6c"/>
     </g>
    </g>
    <g id="line2d_46">
     <path d="M 411.75625 77.16375 
L 422.95625 77.16375 
" style="fill:none;stroke:#000000;stroke-linecap:square;"/>
    </g>
    <g id="line2d_47">
     <g>
      <use style="stroke:#000000;stroke-width:0.5;" x="411.75625" xlink:href="#m59e03eed5a" y="77.16375"/>
      <use style="stroke:#000000;stroke-width:0.5;" x="422.95625" xlink:href="#m59e03eed5a" y="77.16375"/>
     </g>
    </g>
    <g id="text_24">
     <!-- MM With phi zeroed -->
     <defs>
      <path d="M 45.40625 46.390625 
L 45.40625 75.984375 
L 54.390625 75.984375 
L 54.390625 0 
L 45.40625 0 
L 45.40625 8.203125 
Q 42.578125 3.328125 38.25 0.953125 
Q 33.9375 -1.421875 27.875 -1.421875 
Q 17.96875 -1.421875 11.734375 6.484375 
Q 5.515625 14.40625 5.515625 27.296875 
Q 5.515625 40.1875 11.734375 48.09375 
Q 17.96875 56 27.875 56 
Q 33.9375 56 38.25 53.625 
Q 42.578125 51.265625 45.40625 46.390625 
M 14.796875 27.296875 
Q 14.796875 17.390625 18.875 11.75 
Q 22.953125 6.109375 30.078125 6.109375 
Q 37.203125 6.109375 41.296875 11.75 
Q 45.40625 17.390625 45.40625 27.296875 
Q 45.40625 37.203125 41.296875 42.84375 
Q 37.203125 48.484375 30.078125 48.484375 
Q 22.953125 48.484375 18.875 42.84375 
Q 14.796875 37.203125 14.796875 27.296875 
" id="BitstreamVeraSans-Roman-64"/>
      <path d="M 18.3125 70.21875 
L 18.3125 54.6875 
L 36.8125 54.6875 
L 36.8125 47.703125 
L 18.3125 47.703125 
L 18.3125 18.015625 
Q 18.3125 11.328125 20.140625 9.421875 
Q 21.96875 7.515625 27.59375 7.515625 
L 36.8125 7.515625 
L 36.8125 0 
L 27.59375 0 
Q 17.1875 0 13.234375 3.875 
Q 9.28125 7.765625 9.28125 18.015625 
L 9.28125 47.703125 
L 2.6875 47.703125 
L 2.6875 54.6875 
L 9.28125 54.6875 
L 9.28125 70.21875 
z
" id="BitstreamVeraSans-Roman-74"/>
      <path d="M 5.515625 54.6875 
L 48.1875 54.6875 
L 48.1875 46.484375 
L 14.40625 7.171875 
L 48.1875 7.171875 
L 48.1875 0 
L 4.296875 0 
L 4.296875 8.203125 
L 38.09375 47.515625 
L 5.515625 47.515625 
z
" id="BitstreamVeraSans-Roman-7a"/>
      <path d="M 3.328125 72.90625 
L 13.28125 72.90625 
L 28.609375 11.28125 
L 43.890625 72.90625 
L 54.984375 72.90625 
L 70.3125 11.28125 
L 85.59375 72.90625 
L 95.609375 72.90625 
L 77.296875 0 
L 64.890625 0 
L 49.515625 63.28125 
L 33.984375 0 
L 21.578125 0 
z
" id="BitstreamVeraSans-Roman-57"/>
      <path d="M 56.203125 29.59375 
L 56.203125 25.203125 
L 14.890625 25.203125 
Q 15.484375 15.921875 20.484375 11.0625 
Q 25.484375 6.203125 34.421875 6.203125 
Q 39.59375 6.203125 44.453125 7.46875 
Q 49.3125 8.734375 54.109375 11.28125 
L 54.109375 2.78125 
Q 49.265625 0.734375 44.1875 -0.34375 
Q 39.109375 -1.421875 33.890625 -1.421875 
Q 20.796875 -1.421875 13.15625 6.1875 
Q 5.515625 13.8125 5.515625 26.8125 
Q 5.515625 40.234375 12.765625 48.109375 
Q 20.015625 56 32.328125 56 
Q 43.359375 56 49.78125 48.890625 
Q 56.203125 41.796875 56.203125 29.59375 
M 47.21875 32.234375 
Q 47.125 39.59375 43.09375 43.984375 
Q 39.0625 48.390625 32.421875 48.390625 
Q 24.90625 48.390625 20.390625 44.140625 
Q 15.875 39.890625 15.1875 32.171875 
z
" id="BitstreamVeraSans-Roman-65"/>
      <path d="M 18.109375 8.203125 
L 18.109375 -20.796875 
L 9.078125 -20.796875 
L 9.078125 54.6875 
L 18.109375 54.6875 
L 18.109375 46.390625 
Q 20.953125 51.265625 25.265625 53.625 
Q 29.59375 56 35.59375 56 
Q 45.5625 56 51.78125 48.09375 
Q 58.015625 40.1875 58.015625 27.296875 
Q 58.015625 14.40625 51.78125 6.484375 
Q 45.5625 -1.421875 35.59375 -1.421875 
Q 29.59375 -1.421875 25.265625 0.953125 
Q 20.953125 3.328125 18.109375 8.203125 
M 48.6875 27.296875 
Q 48.6875 37.203125 44.609375 42.84375 
Q 40.53125 48.484375 33.40625 48.484375 
Q 26.265625 48.484375 22.1875 42.84375 
Q 18.109375 37.203125 18.109375 27.296875 
Q 18.109375 17.390625 22.1875 11.75 
Q 26.265625 6.109375 33.40625 6.109375 
Q 40.53125 6.109375 44.609375 11.75 
Q 48.6875 17.390625 48.6875 27.296875 
" id="BitstreamVeraSans-Roman-70"/>
     </defs>
     <g transform="translate(431.75625 79.96375)scale(0.08 -0.08)">
      <use xlink:href="#BitstreamVeraSans-Roman-4d"/>
      <use x="86.279296875" xlink:href="#BitstreamVeraSans-Roman-4d"/>
      <use x="172.55859375" xlink:href="#BitstreamVeraSans-Roman-20"/>
      <use x="204.345703125" xlink:href="#BitstreamVeraSans-Roman-57"/>
      <use x="303.19140625" xlink:href="#BitstreamVeraSans-Roman-69"/>
      <use x="330.974609375" xlink:href="#BitstreamVeraSans-Roman-74"/>
      <use x="370.18359375" xlink:href="#BitstreamVeraSans-Roman-68"/>
      <use x="433.5625" xlink:href="#BitstreamVeraSans-Roman-20"/>
      <use x="465.349609375" xlink:href="#BitstreamVeraSans-Roman-70"/>
      <use x="528.826171875" xlink:href="#BitstreamVeraSans-Roman-68"/>
      <use x="592.205078125" xlink:href="#BitstreamVeraSans-Roman-69"/>
      <use x="619.98828125" xlink:href="#BitstreamVeraSans-Roman-20"/>
      <use x="651.775390625" xlink:href="#BitstreamVeraSans-Roman-7a"/>
      <use x="704.265625" xlink:href="#BitstreamVeraSans-Roman-65"/>
      <use x="765.7890625" xlink:href="#BitstreamVeraSans-Roman-72"/>
      <use x="806.87109375" xlink:href="#BitstreamVeraSans-Roman-6f"/>
      <use x="868.052734375" xlink:href="#BitstreamVeraSans-Roman-65"/>
      <use x="929.576171875" xlink:href="#BitstreamVeraSans-Roman-64"/>
     </g>
    </g>
    <g id="line2d_48">
     <path d="M 411.75625 88.90625 
L 422.95625 88.90625 
" style="fill:none;stroke:#ff00ff;stroke-linecap:square;"/>
    </g>
    <g id="line2d_49">
     <g>
      <use style="fill:#ff00ff;stroke:#ff00ff;stroke-width:0.5;" x="411.75625" xlink:href="#m1c60cdcf15" y="88.90625"/>
      <use style="fill:#ff00ff;stroke:#ff00ff;stroke-width:0.5;" x="422.95625" xlink:href="#m1c60cdcf15" y="88.90625"/>
     </g>
    </g>
    <g id="text_25">
     <!-- QM-MM target -->
     <g transform="translate(431.75625 91.70625)scale(0.08 -0.08)">
      <use xlink:href="#BitstreamVeraSans-Roman-51"/>
      <use x="78.7109375" xlink:href="#BitstreamVeraSans-Roman-4d"/>
      <use x="164.990234375" xlink:href="#BitstreamVeraSans-Roman-2d"/>
      <use x="201.07421875" xlink:href="#BitstreamVeraSans-Roman-4d"/>
      <use x="287.353515625" xlink:href="#BitstreamVeraSans-Roman-4d"/>
      <use x="373.6328125" xlink:href="#BitstreamVeraSans-Roman-20"/>
      <use x="405.419921875" xlink:href="#BitstreamVeraSans-Roman-74"/>
      <use x="444.62890625" xlink:href="#BitstreamVeraSans-Roman-61"/>
      <use x="505.908203125" xlink:href="#BitstreamVeraSans-Roman-72"/>
      <use x="547.005859375" xlink:href="#BitstreamVeraSans-Roman-67"/>
      <use x="610.482421875" xlink:href="#BitstreamVeraSans-Roman-65"/>
      <use x="672.005859375" xlink:href="#BitstreamVeraSans-Roman-74"/>
     </g>
    </g>
    <g id="line2d_50">
     <path d="M 411.75625 100.64875 
L 422.95625 100.64875 
" style="fill:none;stroke:#008000;stroke-linecap:square;"/>
    </g>
    <g id="line2d_51">
     <g>
      <use style="fill:#008000;stroke:#000000;stroke-width:0.5;" x="411.75625" xlink:href="#m44c7df2bae" y="100.64875"/>
      <use style="fill:#008000;stroke:#000000;stroke-width:0.5;" x="422.95625" xlink:href="#m44c7df2bae" y="100.64875"/>
     </g>
    </g>
    <g id="text_26">
     <!-- MM Fitted -->
     <defs>
      <path d="M 9.8125 72.90625 
L 51.703125 72.90625 
L 51.703125 64.59375 
L 19.671875 64.59375 
L 19.671875 43.109375 
L 48.578125 43.109375 
L 48.578125 34.8125 
L 19.671875 34.8125 
L 19.671875 0 
L 9.8125 0 
z
" id="BitstreamVeraSans-Roman-46"/>
     </defs>
     <g transform="translate(431.75625 103.44875)scale(0.08 -0.08)">
      <use xlink:href="#BitstreamVeraSans-Roman-4d"/>
      <use x="86.279296875" xlink:href="#BitstreamVeraSans-Roman-4d"/>
      <use x="172.55859375" xlink:href="#BitstreamVeraSans-Roman-20"/>
      <use x="204.345703125" xlink:href="#BitstreamVeraSans-Roman-46"/>
      <use x="261.755859375" xlink:href="#BitstreamVeraSans-Roman-69"/>
      <use x="289.5390625" xlink:href="#BitstreamVeraSans-Roman-74"/>
      <use x="328.748046875" xlink:href="#BitstreamVeraSans-Roman-74"/>
      <use x="367.95703125" xlink:href="#BitstreamVeraSans-Roman-65"/>
      <use x="429.48046875" xlink:href="#BitstreamVeraSans-Roman-64"/>
     </g>
    </g>
   </g>
  </g>
 </g>
 <defs>
  <clipPath id="p6769452a43">
   <rect height="345.6" width="446.4" x="72.0" y="43.2"/>
  </clipPath>
 </defs>
</svg>
