<?xml version="1.0" encoding="utf-8" standalone="no"?>
<!DOCTYPE svg PUBLIC "-//W3C//DTD SVG 1.1//EN"
  "http://www.w3.org/Graphics/SVG/1.1/DTD/svg11.dtd">
<!-- Created with matplotlib (http://matplotlib.org/) -->
<svg height="432pt" version="1.1" viewBox="0 0 576 432" width="576pt" xmlns="http://www.w3.org/2000/svg" xmlns:xlink="http://www.w3.org/1999/xlink">
 <defs>
  <style type="text/css">
*{stroke-linecap:butt;stroke-linejoin:round;stroke-miterlimit:100000;}
  </style>
 </defs>
 <g id="figure_1">
  <g id="patch_1">
   <path d="M 0 432 
L 576 432 
L 576 0 
L 0 0 
z
" style="fill:#ffffff;"/>
  </g>
  <g id="axes_1">
   <g id="patch_2">
    <path d="M 72 388.8 
L 518.4 388.8 
L 518.4 43.2 
L 72 43.2 
z
" style="fill:#ffffff;"/>
   </g>
   <g id="line2d_1">
    <path clip-path="url(#pde18fad488)" d="M 71.999299 153.863178 
L 84.400015 151.167315 
L 96.799986 142.63295 
L 109.200004 128.387931 
L 121.6 109.754447 
L 133.999993 89.307791 
L 146.399999 71.131386 
L 158.800032 61.386788 
L 171.199982 64.526898 
L 183.600002 77.283739 
L 196.000041 98.757511 
L 208.399994 130.001162 
L 220.800049 170.580064 
L 233.199999 217.670501 
L 245.60001 267.434335 
L 258.000006 315.237643 
L 270.400007 354.527384 
L 282.800014 380.017209 
L 295.200039 388.8 
L 307.600001 380.009347 
L 320.000039 354.529128 
L 332.400023 315.220606 
L 344.800041 267.47156 
L 357.19997 217.67426 
L 369.600023 170.581948 
L 381.999969 130.014582 
L 394.40003 98.759317 
L 406.799941 77.288145 
L 419.19997 64.531136 
L 431.59997 61.389009 
L 444.000002 71.131271 
L 456.399994 89.306722 
L 468.79998 109.751593 
L 481.200015 128.388301 
L 493.600018 142.632904 
L 505.999946 151.167368 
" style="fill:none;stroke:#ff0000;stroke-linecap:square;"/>
    <defs>
     <path d="M 0 3 
C 0.795609 3 1.55874 2.683901 2.12132 2.12132 
C 2.683901 1.55874 3 0.795609 3 0 
C 3 -0.795609 2.683901 -1.55874 2.12132 -2.12132 
C 1.55874 -2.683901 0.795609 -3 0 -3 
C -0.795609 -3 -1.55874 -2.683901 -2.12132 -2.12132 
C -2.683901 -1.55874 -3 -0.795609 -3 0 
C -3 0.795609 -2.683901 1.55874 -2.12132 2.12132 
C -1.55874 2.683901 -0.795609 3 0 3 
z
" id="m4648f5c801" style="stroke:#000000;stroke-width:0.5;"/>
    </defs>
    <g clip-path="url(#pde18fad488)">
     <use style="fill:#ff0000;stroke:#000000;stroke-width:0.5;" x="71.9992990882" xlink:href="#m4648f5c801" y="153.863177529"/>
     <use style="fill:#ff0000;stroke:#000000;stroke-width:0.5;" x="84.4000151761" xlink:href="#m4648f5c801" y="151.16731536"/>
     <use style="fill:#ff0000;stroke:#000000;stroke-width:0.5;" x="96.7999862653" xlink:href="#m4648f5c801" y="142.632949969"/>
     <use style="fill:#ff0000;stroke:#000000;stroke-width:0.5;" x="109.200003864" xlink:href="#m4648f5c801" y="128.387931055"/>
     <use style="fill:#ff0000;stroke:#000000;stroke-width:0.5;" x="121.59999964" xlink:href="#m4648f5c801" y="109.754447404"/>
     <use style="fill:#ff0000;stroke:#000000;stroke-width:0.5;" x="133.999992608" xlink:href="#m4648f5c801" y="89.3077908557"/>
     <use style="fill:#ff0000;stroke:#000000;stroke-width:0.5;" x="146.399998652" xlink:href="#m4648f5c801" y="71.1313860106"/>
     <use style="fill:#ff0000;stroke:#000000;stroke-width:0.5;" x="158.800031698" xlink:href="#m4648f5c801" y="61.3867878362"/>
     <use style="fill:#ff0000;stroke:#000000;stroke-width:0.5;" x="171.199981556" xlink:href="#m4648f5c801" y="64.5268979997"/>
     <use style="fill:#ff0000;stroke:#000000;stroke-width:0.5;" x="183.600002294" xlink:href="#m4648f5c801" y="77.2837387299"/>
     <use style="fill:#ff0000;stroke:#000000;stroke-width:0.5;" x="196.000041007" xlink:href="#m4648f5c801" y="98.7575113885"/>
     <use style="fill:#ff0000;stroke:#000000;stroke-width:0.5;" x="208.399994404" xlink:href="#m4648f5c801" y="130.001162377"/>
     <use style="fill:#ff0000;stroke:#000000;stroke-width:0.5;" x="220.800048882" xlink:href="#m4648f5c801" y="170.580064414"/>
     <use style="fill:#ff0000;stroke:#000000;stroke-width:0.5;" x="233.199998679" xlink:href="#m4648f5c801" y="217.670501458"/>
     <use style="fill:#ff0000;stroke:#000000;stroke-width:0.5;" x="245.600009811" xlink:href="#m4648f5c801" y="267.43433541"/>
     <use style="fill:#ff0000;stroke:#000000;stroke-width:0.5;" x="258.000005941" xlink:href="#m4648f5c801" y="315.237643196"/>
     <use style="fill:#ff0000;stroke:#000000;stroke-width:0.5;" x="270.400007369" xlink:href="#m4648f5c801" y="354.527383659"/>
     <use style="fill:#ff0000;stroke:#000000;stroke-width:0.5;" x="282.800014085" xlink:href="#m4648f5c801" y="380.017209432"/>
     <use style="fill:#ff0000;stroke:#000000;stroke-width:0.5;" x="295.2000392" xlink:href="#m4648f5c801" y="388.8"/>
     <use style="fill:#ff0000;stroke:#000000;stroke-width:0.5;" x="307.600001122" xlink:href="#m4648f5c801" y="380.009346679"/>
     <use style="fill:#ff0000;stroke:#000000;stroke-width:0.5;" x="320.000039079" xlink:href="#m4648f5c801" y="354.529128322"/>
     <use style="fill:#ff0000;stroke:#000000;stroke-width:0.5;" x="332.400023333" xlink:href="#m4648f5c801" y="315.220606249"/>
     <use style="fill:#ff0000;stroke:#000000;stroke-width:0.5;" x="344.800040864" xlink:href="#m4648f5c801" y="267.471560221"/>
     <use style="fill:#ff0000;stroke:#000000;stroke-width:0.5;" x="357.199970241" xlink:href="#m4648f5c801" y="217.674260336"/>
     <use style="fill:#ff0000;stroke:#000000;stroke-width:0.5;" x="369.600023313" xlink:href="#m4648f5c801" y="170.581948254"/>
     <use style="fill:#ff0000;stroke:#000000;stroke-width:0.5;" x="381.999969256" xlink:href="#m4648f5c801" y="130.014582368"/>
     <use style="fill:#ff0000;stroke:#000000;stroke-width:0.5;" x="394.400029646" xlink:href="#m4648f5c801" y="98.7593174022"/>
     <use style="fill:#ff0000;stroke:#000000;stroke-width:0.5;" x="406.799940725" xlink:href="#m4648f5c801" y="77.2881449041"/>
     <use style="fill:#ff0000;stroke:#000000;stroke-width:0.5;" x="419.199970298" xlink:href="#m4648f5c801" y="64.5311361395"/>
     <use style="fill:#ff0000;stroke:#000000;stroke-width:0.5;" x="431.599969829" xlink:href="#m4648f5c801" y="61.3890087965"/>
     <use style="fill:#ff0000;stroke:#000000;stroke-width:0.5;" x="444.000002252" xlink:href="#m4648f5c801" y="71.1312705752"/>
     <use style="fill:#ff0000;stroke:#000000;stroke-width:0.5;" x="456.399993554" xlink:href="#m4648f5c801" y="89.3067224619"/>
     <use style="fill:#ff0000;stroke:#000000;stroke-width:0.5;" x="468.799980489" xlink:href="#m4648f5c801" y="109.751592517"/>
     <use style="fill:#ff0000;stroke:#000000;stroke-width:0.5;" x="481.200015013" xlink:href="#m4648f5c801" y="128.388301496"/>
     <use style="fill:#ff0000;stroke:#000000;stroke-width:0.5;" x="493.600018223" xlink:href="#m4648f5c801" y="142.632904222"/>
     <use style="fill:#ff0000;stroke:#000000;stroke-width:0.5;" x="505.999946248" xlink:href="#m4648f5c801" y="151.167367763"/>
    </g>
   </g>
   <g id="line2d_2">
    <path clip-path="url(#pde18fad488)" d="M 71.999299 181.901501 
L 84.400015 177.500031 
L 96.799986 165.069096 
L 109.200004 146.573018 
L 121.6 123.882357 
L 133.999993 99.997064 
L 146.399999 77.792624 
L 158.800032 61.634375 
L 171.199982 60.834882 
L 183.600002 74.887782 
L 196.000041 102.380955 
L 208.399994 142.057679 
L 220.800049 190.942218 
L 233.199999 243.38469 
L 245.60001 292.963194 
L 258.000006 332.147005 
L 270.400007 362.025945 
L 282.800014 381.999795 
L 295.200039 388.8 
L 307.600001 382.10884 
L 320.000039 362.685579 
L 332.400023 332.700967 
L 344.800041 292.5433 
L 357.19997 243.39566 
L 369.600023 190.939458 
L 381.999969 142.169072 
L 394.40003 102.38761 
L 406.799941 74.967268 
L 419.19997 60.95937 
L 431.59997 61.632765 
L 444.000002 77.814906 
L 456.399994 99.89573 
L 468.79998 123.763243 
L 481.200015 146.584632 
L 493.600018 165.077394 
L 505.999946 177.497627 
" style="fill:none;stroke:#0000ff;stroke-linecap:square;"/>
    <defs>
     <path d="M 0 3 
C 0.795609 3 1.55874 2.683901 2.12132 2.12132 
C 2.683901 1.55874 3 0.795609 3 0 
C 3 -0.795609 2.683901 -1.55874 2.12132 -2.12132 
C 1.55874 -2.683901 0.795609 -3 0 -3 
C -0.795609 -3 -1.55874 -2.683901 -2.12132 -2.12132 
C -2.683901 -1.55874 -3 -0.795609 -3 0 
C -3 0.795609 -2.683901 1.55874 -2.12132 2.12132 
C -1.55874 2.683901 -0.795609 3 0 3 
z
" id="mf216d1b24f" style="stroke:#000000;stroke-width:0.5;"/>
    </defs>
    <g clip-path="url(#pde18fad488)">
     <use style="fill:#0000ff;stroke:#000000;stroke-width:0.5;" x="71.9992990882" xlink:href="#mf216d1b24f" y="181.901501057"/>
     <use style="fill:#0000ff;stroke:#000000;stroke-width:0.5;" x="84.4000151761" xlink:href="#mf216d1b24f" y="177.50003076"/>
     <use style="fill:#0000ff;stroke:#000000;stroke-width:0.5;" x="96.7999862653" xlink:href="#mf216d1b24f" y="165.069095678"/>
     <use style="fill:#0000ff;stroke:#000000;stroke-width:0.5;" x="109.200003864" xlink:href="#mf216d1b24f" y="146.573017867"/>
     <use style="fill:#0000ff;stroke:#000000;stroke-width:0.5;" x="121.59999964" xlink:href="#mf216d1b24f" y="123.882356906"/>
     <use style="fill:#0000ff;stroke:#000000;stroke-width:0.5;" x="133.999992608" xlink:href="#mf216d1b24f" y="99.9970644494"/>
     <use style="fill:#0000ff;stroke:#000000;stroke-width:0.5;" x="146.399998652" xlink:href="#mf216d1b24f" y="77.7926241693"/>
     <use style="fill:#0000ff;stroke:#000000;stroke-width:0.5;" x="158.800031698" xlink:href="#mf216d1b24f" y="61.6343749937"/>
     <use style="fill:#0000ff;stroke:#000000;stroke-width:0.5;" x="171.199981556" xlink:href="#mf216d1b24f" y="60.8348823107"/>
     <use style="fill:#0000ff;stroke:#000000;stroke-width:0.5;" x="183.600002294" xlink:href="#mf216d1b24f" y="74.8877818914"/>
     <use style="fill:#0000ff;stroke:#000000;stroke-width:0.5;" x="196.000041007" xlink:href="#mf216d1b24f" y="102.380955232"/>
     <use style="fill:#0000ff;stroke:#000000;stroke-width:0.5;" x="208.399994404" xlink:href="#mf216d1b24f" y="142.057679285"/>
     <use style="fill:#0000ff;stroke:#000000;stroke-width:0.5;" x="220.800048882" xlink:href="#mf216d1b24f" y="190.942218221"/>
     <use style="fill:#0000ff;stroke:#000000;stroke-width:0.5;" x="233.199998679" xlink:href="#mf216d1b24f" y="243.384689999"/>
     <use style="fill:#0000ff;stroke:#000000;stroke-width:0.5;" x="245.600009811" xlink:href="#mf216d1b24f" y="292.963194347"/>
     <use style="fill:#0000ff;stroke:#000000;stroke-width:0.5;" x="258.000005941" xlink:href="#mf216d1b24f" y="332.147004666"/>
     <use style="fill:#0000ff;stroke:#000000;stroke-width:0.5;" x="270.400007369" xlink:href="#mf216d1b24f" y="362.025944845"/>
     <use style="fill:#0000ff;stroke:#000000;stroke-width:0.5;" x="282.800014085" xlink:href="#mf216d1b24f" y="381.999795493"/>
     <use style="fill:#0000ff;stroke:#000000;stroke-width:0.5;" x="295.2000392" xlink:href="#mf216d1b24f" y="388.8"/>
     <use style="fill:#0000ff;stroke:#000000;stroke-width:0.5;" x="307.600001122" xlink:href="#mf216d1b24f" y="382.108840056"/>
     <use style="fill:#0000ff;stroke:#000000;stroke-width:0.5;" x="320.000039079" xlink:href="#mf216d1b24f" y="362.685578764"/>
     <use style="fill:#0000ff;stroke:#000000;stroke-width:0.5;" x="332.400023333" xlink:href="#mf216d1b24f" y="332.700966614"/>
     <use style="fill:#0000ff;stroke:#000000;stroke-width:0.5;" x="344.800040864" xlink:href="#mf216d1b24f" y="292.54329964"/>
     <use style="fill:#0000ff;stroke:#000000;stroke-width:0.5;" x="357.199970241" xlink:href="#mf216d1b24f" y="243.395659964"/>
     <use style="fill:#0000ff;stroke:#000000;stroke-width:0.5;" x="369.600023313" xlink:href="#mf216d1b24f" y="190.939457797"/>
     <use style="fill:#0000ff;stroke:#000000;stroke-width:0.5;" x="381.999969256" xlink:href="#mf216d1b24f" y="142.169071598"/>
     <use style="fill:#0000ff;stroke:#000000;stroke-width:0.5;" x="394.400029646" xlink:href="#mf216d1b24f" y="102.38760971"/>
     <use style="fill:#0000ff;stroke:#000000;stroke-width:0.5;" x="406.799940725" xlink:href="#mf216d1b24f" y="74.9672684628"/>
     <use style="fill:#0000ff;stroke:#000000;stroke-width:0.5;" x="419.199970298" xlink:href="#mf216d1b24f" y="60.9593701894"/>
     <use style="fill:#0000ff;stroke:#000000;stroke-width:0.5;" x="431.599969829" xlink:href="#mf216d1b24f" y="61.6327649833"/>
     <use style="fill:#0000ff;stroke:#000000;stroke-width:0.5;" x="444.000002252" xlink:href="#mf216d1b24f" y="77.8149058629"/>
     <use style="fill:#0000ff;stroke:#000000;stroke-width:0.5;" x="456.399993554" xlink:href="#mf216d1b24f" y="99.8957295663"/>
     <use style="fill:#0000ff;stroke:#000000;stroke-width:0.5;" x="468.799980489" xlink:href="#mf216d1b24f" y="123.763242804"/>
     <use style="fill:#0000ff;stroke:#000000;stroke-width:0.5;" x="481.200015013" xlink:href="#mf216d1b24f" y="146.584631819"/>
     <use style="fill:#0000ff;stroke:#000000;stroke-width:0.5;" x="493.600018223" xlink:href="#mf216d1b24f" y="165.077393775"/>
     <use style="fill:#0000ff;stroke:#000000;stroke-width:0.5;" x="505.999946248" xlink:href="#mf216d1b24f" y="177.497627217"/>
    </g>
   </g>
   <g id="line2d_3">
    <path clip-path="url(#pde18fad488)" d="M 71.999299 259.400884 
L 84.400015 258.450727 
L 96.799986 255.900216 
L 109.200004 252.369964 
L 121.6 247.666531 
L 133.999993 242.272087 
L 146.399999 236.414481 
L 158.800032 231.992741 
L 171.199982 236.294241 
L 183.600002 247.64323 
L 196.000041 264.398719 
L 208.399994 285.984121 
L 220.800049 311.023071 
L 233.199999 336.119517 
L 245.60001 357.620715 
L 258.000006 370.969951 
L 270.400007 380.088059 
L 282.800014 386.64557 
L 295.200039 388.8 
L 307.600001 386.751487 
L 320.000039 380.761418 
L 332.400023 371.531739 
L 344.800041 357.191851 
L 357.19997 336.130294 
L 369.600023 311.020514 
L 381.999969 286.106958 
L 394.40003 264.405782 
L 406.799941 247.722733 
L 419.19997 236.421033 
L 431.59997 231.991176 
L 444.000002 236.436673 
L 456.399994 242.170198 
L 468.79998 247.54594 
L 481.200015 252.381752 
L 493.600018 255.90858 
L 505.999946 258.448332 
" style="fill:none;stroke:#000000;stroke-linecap:square;"/>
    <defs>
     <path d="M -3 3 
L 3 -3 
M -3 -3 
L 3 3 
" id="m384534406c" style="stroke:#000000;stroke-width:0.5;"/>
    </defs>
    <g clip-path="url(#pde18fad488)">
     <use style="stroke:#000000;stroke-width:0.5;" x="71.9992990882" xlink:href="#m384534406c" y="259.400884191"/>
     <use style="stroke:#000000;stroke-width:0.5;" x="84.4000151761" xlink:href="#m384534406c" y="258.450727081"/>
     <use style="stroke:#000000;stroke-width:0.5;" x="96.7999862653" xlink:href="#m384534406c" y="255.900215629"/>
     <use style="stroke:#000000;stroke-width:0.5;" x="109.200003864" xlink:href="#m384534406c" y="252.369963725"/>
     <use style="stroke:#000000;stroke-width:0.5;" x="121.59999964" xlink:href="#m384534406c" y="247.666531108"/>
     <use style="stroke:#000000;stroke-width:0.5;" x="133.999992608" xlink:href="#m384534406c" y="242.272087116"/>
     <use style="stroke:#000000;stroke-width:0.5;" x="146.399998652" xlink:href="#m384534406c" y="236.414481397"/>
     <use style="stroke:#000000;stroke-width:0.5;" x="158.800031698" xlink:href="#m384534406c" y="231.99274085"/>
     <use style="stroke:#000000;stroke-width:0.5;" x="171.199981556" xlink:href="#m384534406c" y="236.294240612"/>
     <use style="stroke:#000000;stroke-width:0.5;" x="183.600002294" xlink:href="#m384534406c" y="247.643229662"/>
     <use style="stroke:#000000;stroke-width:0.5;" x="196.000041007" xlink:href="#m384534406c" y="264.398718731"/>
     <use style="stroke:#000000;stroke-width:0.5;" x="208.399994404" xlink:href="#m384534406c" y="285.984121013"/>
     <use style="stroke:#000000;stroke-width:0.5;" x="220.800048882" xlink:href="#m384534406c" y="311.0230711"/>
     <use style="stroke:#000000;stroke-width:0.5;" x="233.199998679" xlink:href="#m384534406c" y="336.119516703"/>
     <use style="stroke:#000000;stroke-width:0.5;" x="245.600009811" xlink:href="#m384534406c" y="357.620714867"/>
     <use style="stroke:#000000;stroke-width:0.5;" x="258.000005941" xlink:href="#m384534406c" y="370.969951469"/>
     <use style="stroke:#000000;stroke-width:0.5;" x="270.400007369" xlink:href="#m384534406c" y="380.08805909"/>
     <use style="stroke:#000000;stroke-width:0.5;" x="282.800014085" xlink:href="#m384534406c" y="386.645570177"/>
     <use style="stroke:#000000;stroke-width:0.5;" x="295.2000392" xlink:href="#m384534406c" y="388.8"/>
     <use style="stroke:#000000;stroke-width:0.5;" x="307.600001122" xlink:href="#m384534406c" y="386.751486568"/>
     <use style="stroke:#000000;stroke-width:0.5;" x="320.000039079" xlink:href="#m384534406c" y="380.761417517"/>
     <use style="stroke:#000000;stroke-width:0.5;" x="332.400023333" xlink:href="#m384534406c" y="371.531739239"/>
     <use style="stroke:#000000;stroke-width:0.5;" x="344.800040864" xlink:href="#m384534406c" y="357.191851234"/>
     <use style="stroke:#000000;stroke-width:0.5;" x="357.199970241" xlink:href="#m384534406c" y="336.130293646"/>
     <use style="stroke:#000000;stroke-width:0.5;" x="369.600023313" xlink:href="#m384534406c" y="311.020514139"/>
     <use style="stroke:#000000;stroke-width:0.5;" x="381.999969256" xlink:href="#m384534406c" y="286.106958093"/>
     <use style="stroke:#000000;stroke-width:0.5;" x="394.400029646" xlink:href="#m384534406c" y="264.405782425"/>
     <use style="stroke:#000000;stroke-width:0.5;" x="406.799940725" xlink:href="#m384534406c" y="247.722733261"/>
     <use style="stroke:#000000;stroke-width:0.5;" x="419.199970298" xlink:href="#m384534406c" y="236.421033217"/>
     <use style="stroke:#000000;stroke-width:0.5;" x="431.599969829" xlink:href="#m384534406c" y="231.991175936"/>
     <use style="stroke:#000000;stroke-width:0.5;" x="444.000002252" xlink:href="#m384534406c" y="236.436672722"/>
     <use style="stroke:#000000;stroke-width:0.5;" x="456.399993554" xlink:href="#m384534406c" y="242.1701978"/>
     <use style="stroke:#000000;stroke-width:0.5;" x="468.799980489" xlink:href="#m384534406c" y="247.545939524"/>
     <use style="stroke:#000000;stroke-width:0.5;" x="481.200015013" xlink:href="#m384534406c" y="252.381752499"/>
     <use style="stroke:#000000;stroke-width:0.5;" x="493.600018223" xlink:href="#m384534406c" y="255.90857999"/>
     <use style="stroke:#000000;stroke-width:0.5;" x="505.999946248" xlink:href="#m384534406c" y="258.448332161"/>
    </g>
   </g>
   <g id="line2d_4">
    <path clip-path="url(#pde18fad488)" d="M 71.999299 283.262293 
L 84.400015 281.516588 
L 96.799986 275.532734 
L 109.200004 264.817967 
L 121.6 250.887916 
L 133.999993 235.835704 
L 146.399999 223.516905 
L 158.800032 218.194047 
L 171.199982 217.032657 
L 183.600002 218.440509 
L 196.000041 223.158793 
L 208.399994 232.817041 
L 220.800049 248.356993 
L 233.199999 270.350985 
L 245.60001 298.613621 
L 258.000006 333.067692 
L 270.400007 363.239325 
L 282.800014 382.171639 
L 295.200039 388.8 
L 307.600001 382.05786 
L 320.000039 362.567711 
L 332.400023 332.488867 
L 344.800041 299.079709 
L 357.19997 270.343967 
L 369.600023 248.361434 
L 381.999969 232.707624 
L 394.40003 223.153535 
L 406.799941 218.365412 
L 419.19997 216.910103 
L 431.59997 218.197833 
L 444.000002 223.494598 
L 456.399994 235.936525 
L 468.79998 251.005653 
L 481.200015 264.806549 
L 493.600018 275.524324 
L 505.999946 281.519036 
" style="fill:none;stroke:#ff00ff;stroke-linecap:square;"/>
    <defs>
     <path d="M -3 3 
L 3 -3 
M -3 -3 
L 3 3 
" id="m3f14037abe" style="stroke:#ff00ff;stroke-width:0.5;"/>
    </defs>
    <g clip-path="url(#pde18fad488)">
     <use style="fill:#ff00ff;stroke:#ff00ff;stroke-width:0.5;" x="71.9992990882" xlink:href="#m3f14037abe" y="283.262293338"/>
     <use style="fill:#ff00ff;stroke:#ff00ff;stroke-width:0.5;" x="84.4000151761" xlink:href="#m3f14037abe" y="281.516588279"/>
     <use style="fill:#ff00ff;stroke:#ff00ff;stroke-width:0.5;" x="96.7999862653" xlink:href="#m3f14037abe" y="275.53273434"/>
     <use style="fill:#ff00ff;stroke:#ff00ff;stroke-width:0.5;" x="109.200003864" xlink:href="#m3f14037abe" y="264.81796733"/>
     <use style="fill:#ff00ff;stroke:#ff00ff;stroke-width:0.5;" x="121.59999964" xlink:href="#m3f14037abe" y="250.887916296"/>
     <use style="fill:#ff00ff;stroke:#ff00ff;stroke-width:0.5;" x="133.999992608" xlink:href="#m3f14037abe" y="235.835703739"/>
     <use style="fill:#ff00ff;stroke:#ff00ff;stroke-width:0.5;" x="146.399998652" xlink:href="#m3f14037abe" y="223.516904613"/>
     <use style="fill:#ff00ff;stroke:#ff00ff;stroke-width:0.5;" x="158.800031698" xlink:href="#m3f14037abe" y="218.194046986"/>
     <use style="fill:#ff00ff;stroke:#ff00ff;stroke-width:0.5;" x="171.199981556" xlink:href="#m3f14037abe" y="217.032657388"/>
     <use style="fill:#ff00ff;stroke:#ff00ff;stroke-width:0.5;" x="183.600002294" xlink:href="#m3f14037abe" y="218.440509068"/>
     <use style="fill:#ff00ff;stroke:#ff00ff;stroke-width:0.5;" x="196.000041007" xlink:href="#m3f14037abe" y="223.158792657"/>
     <use style="fill:#ff00ff;stroke:#ff00ff;stroke-width:0.5;" x="208.399994404" xlink:href="#m3f14037abe" y="232.817041364"/>
     <use style="fill:#ff00ff;stroke:#ff00ff;stroke-width:0.5;" x="220.800048882" xlink:href="#m3f14037abe" y="248.356993314"/>
     <use style="fill:#ff00ff;stroke:#ff00ff;stroke-width:0.5;" x="233.199998679" xlink:href="#m3f14037abe" y="270.350984755"/>
     <use style="fill:#ff00ff;stroke:#ff00ff;stroke-width:0.5;" x="245.600009811" xlink:href="#m3f14037abe" y="298.613620543"/>
     <use style="fill:#ff00ff;stroke:#ff00ff;stroke-width:0.5;" x="258.000005941" xlink:href="#m3f14037abe" y="333.067691727"/>
     <use style="fill:#ff00ff;stroke:#ff00ff;stroke-width:0.5;" x="270.400007369" xlink:href="#m3f14037abe" y="363.239324569"/>
     <use style="fill:#ff00ff;stroke:#ff00ff;stroke-width:0.5;" x="282.800014085" xlink:href="#m3f14037abe" y="382.171639255"/>
     <use style="fill:#ff00ff;stroke:#ff00ff;stroke-width:0.5;" x="295.2000392" xlink:href="#m3f14037abe" y="388.8"/>
     <use style="fill:#ff00ff;stroke:#ff00ff;stroke-width:0.5;" x="307.600001122" xlink:href="#m3f14037abe" y="382.057860111"/>
     <use style="fill:#ff00ff;stroke:#ff00ff;stroke-width:0.5;" x="320.000039079" xlink:href="#m3f14037abe" y="362.567710805"/>
     <use style="fill:#ff00ff;stroke:#ff00ff;stroke-width:0.5;" x="332.400023333" xlink:href="#m3f14037abe" y="332.48886701"/>
     <use style="fill:#ff00ff;stroke:#ff00ff;stroke-width:0.5;" x="344.800040864" xlink:href="#m3f14037abe" y="299.079708987"/>
     <use style="fill:#ff00ff;stroke:#ff00ff;stroke-width:0.5;" x="357.199970241" xlink:href="#m3f14037abe" y="270.34396669"/>
     <use style="fill:#ff00ff;stroke:#ff00ff;stroke-width:0.5;" x="369.600023313" xlink:href="#m3f14037abe" y="248.361434115"/>
     <use style="fill:#ff00ff;stroke:#ff00ff;stroke-width:0.5;" x="381.999969256" xlink:href="#m3f14037abe" y="232.707624276"/>
     <use style="fill:#ff00ff;stroke:#ff00ff;stroke-width:0.5;" x="394.400029646" xlink:href="#m3f14037abe" y="223.153534978"/>
     <use style="fill:#ff00ff;stroke:#ff00ff;stroke-width:0.5;" x="406.799940725" xlink:href="#m3f14037abe" y="218.365411643"/>
     <use style="fill:#ff00ff;stroke:#ff00ff;stroke-width:0.5;" x="419.199970298" xlink:href="#m3f14037abe" y="216.910102923"/>
     <use style="fill:#ff00ff;stroke:#ff00ff;stroke-width:0.5;" x="431.599969829" xlink:href="#m3f14037abe" y="218.197832861"/>
     <use style="fill:#ff00ff;stroke:#ff00ff;stroke-width:0.5;" x="444.000002252" xlink:href="#m3f14037abe" y="223.494597853"/>
     <use style="fill:#ff00ff;stroke:#ff00ff;stroke-width:0.5;" x="456.399993554" xlink:href="#m3f14037abe" y="235.936524662"/>
     <use style="fill:#ff00ff;stroke:#ff00ff;stroke-width:0.5;" x="468.799980489" xlink:href="#m3f14037abe" y="251.005652993"/>
     <use style="fill:#ff00ff;stroke:#ff00ff;stroke-width:0.5;" x="481.200015013" xlink:href="#m3f14037abe" y="264.806548997"/>
     <use style="fill:#ff00ff;stroke:#ff00ff;stroke-width:0.5;" x="493.600018223" xlink:href="#m3f14037abe" y="275.524324232"/>
     <use style="fill:#ff00ff;stroke:#ff00ff;stroke-width:0.5;" x="505.999946248" xlink:href="#m3f14037abe" y="281.519035602"/>
    </g>
   </g>
   <g id="line2d_5">
    <path clip-path="url(#pde18fad488)" d="M 71.999299 153.298174 
L 84.400015 150.435553 
L 96.799986 141.793031 
L 109.200004 127.642988 
L 121.6 108.822565 
L 133.999993 88.701896 
L 146.399999 71.080948 
L 158.800032 60.144333 
L 171.199982 63.133547 
L 183.600002 76.851294 
L 196.000041 98.690389 
L 208.399994 129.060164 
L 220.800049 169.000688 
L 233.199999 216.872414 
L 245.60001 268.089687 
L 258.000006 313.989377 
L 270.400007 352.486412 
L 282.800014 379.389636 
L 295.200039 388.8 
L 307.600001 379.495535 
L 320.000039 353.159674 
L 332.400023 314.551089 
L 344.800041 267.660692 
L 357.19997 216.883258 
L 369.600023 168.998022 
L 381.999969 129.183035 
L 394.40003 98.697415 
L 406.799941 76.930815 
L 419.19997 63.260342 
L 431.59997 60.142768 
L 444.000002 71.10314 
L 456.399994 88.599991 
L 468.79998 108.70195 
L 481.200015 127.654796 
L 493.600018 141.801399 
L 505.999946 150.433146 
" style="fill:none;stroke:#008000;stroke-linecap:square;"/>
    <defs>
     <path d="M 0 3 
C 0.795609 3 1.55874 2.683901 2.12132 2.12132 
C 2.683901 1.55874 3 0.795609 3 0 
C 3 -0.795609 2.683901 -1.55874 2.12132 -2.12132 
C 1.55874 -2.683901 0.795609 -3 0 -3 
C -0.795609 -3 -1.55874 -2.683901 -2.12132 -2.12132 
C -2.683901 -1.55874 -3 -0.795609 -3 0 
C -3 0.795609 -2.683901 1.55874 -2.12132 2.12132 
C -1.55874 2.683901 -0.795609 3 0 3 
z
" id="mfde699f199" style="stroke:#000000;stroke-width:0.5;"/>
    </defs>
    <g clip-path="url(#pde18fad488)">
     <use style="fill:#008000;stroke:#000000;stroke-width:0.5;" x="71.9992990882" xlink:href="#mfde699f199" y="153.298173963"/>
     <use style="fill:#008000;stroke:#000000;stroke-width:0.5;" x="84.4000151761" xlink:href="#mfde699f199" y="150.435553396"/>
     <use style="fill:#008000;stroke:#000000;stroke-width:0.5;" x="96.7999862653" xlink:href="#mfde699f199" y="141.793031379"/>
     <use style="fill:#008000;stroke:#000000;stroke-width:0.5;" x="109.200003864" xlink:href="#mfde699f199" y="127.64298828"/>
     <use style="fill:#008000;stroke:#000000;stroke-width:0.5;" x="121.59999964" xlink:href="#mfde699f199" y="108.822565231"/>
     <use style="fill:#008000;stroke:#000000;stroke-width:0.5;" x="133.999992608" xlink:href="#mfde699f199" y="88.7018955749"/>
     <use style="fill:#008000;stroke:#000000;stroke-width:0.5;" x="146.399998652" xlink:href="#mfde699f199" y="71.0809476543"/>
     <use style="fill:#008000;stroke:#000000;stroke-width:0.5;" x="158.800031698" xlink:href="#mfde699f199" y="60.1443325477"/>
     <use style="fill:#008000;stroke:#000000;stroke-width:0.5;" x="171.199981556" xlink:href="#mfde699f199" y="63.1335466764"/>
     <use style="fill:#008000;stroke:#000000;stroke-width:0.5;" x="183.600002294" xlink:href="#mfde699f199" y="76.8512943689"/>
     <use style="fill:#008000;stroke:#000000;stroke-width:0.5;" x="196.000041007" xlink:href="#mfde699f199" y="98.6903886933"/>
     <use style="fill:#008000;stroke:#000000;stroke-width:0.5;" x="208.399994404" xlink:href="#mfde699f199" y="129.060164309"/>
     <use style="fill:#008000;stroke:#000000;stroke-width:0.5;" x="220.800048882" xlink:href="#mfde699f199" y="169.000687698"/>
     <use style="fill:#008000;stroke:#000000;stroke-width:0.5;" x="233.199998679" xlink:href="#mfde699f199" y="216.872413755"/>
     <use style="fill:#008000;stroke:#000000;stroke-width:0.5;" x="245.600009811" xlink:href="#mfde699f199" y="268.089686876"/>
     <use style="fill:#008000;stroke:#000000;stroke-width:0.5;" x="258.000005941" xlink:href="#mfde699f199" y="313.989376713"/>
     <use style="fill:#008000;stroke:#000000;stroke-width:0.5;" x="270.400007369" xlink:href="#mfde699f199" y="352.486412263"/>
     <use style="fill:#008000;stroke:#000000;stroke-width:0.5;" x="282.800014085" xlink:href="#mfde699f199" y="379.38963612"/>
     <use style="fill:#008000;stroke:#000000;stroke-width:0.5;" x="295.2000392" xlink:href="#mfde699f199" y="388.8"/>
     <use style="fill:#008000;stroke:#000000;stroke-width:0.5;" x="307.600001122" xlink:href="#mfde699f199" y="379.495535009"/>
     <use style="fill:#008000;stroke:#000000;stroke-width:0.5;" x="320.000039079" xlink:href="#mfde699f199" y="353.159674308"/>
     <use style="fill:#008000;stroke:#000000;stroke-width:0.5;" x="332.400023333" xlink:href="#mfde699f199" y="314.551088886"/>
     <use style="fill:#008000;stroke:#000000;stroke-width:0.5;" x="344.800040864" xlink:href="#mfde699f199" y="267.660692302"/>
     <use style="fill:#008000;stroke:#000000;stroke-width:0.5;" x="357.199970241" xlink:href="#mfde699f199" y="216.883257576"/>
     <use style="fill:#008000;stroke:#000000;stroke-width:0.5;" x="369.600023313" xlink:href="#mfde699f199" y="168.998021741"/>
     <use style="fill:#008000;stroke:#000000;stroke-width:0.5;" x="381.999969256" xlink:href="#mfde699f199" y="129.183034836"/>
     <use style="fill:#008000;stroke:#000000;stroke-width:0.5;" x="394.400029646" xlink:href="#mfde699f199" y="98.6974147921"/>
     <use style="fill:#008000;stroke:#000000;stroke-width:0.5;" x="406.799940725" xlink:href="#mfde699f199" y="76.9308151689"/>
     <use style="fill:#008000;stroke:#000000;stroke-width:0.5;" x="419.199970298" xlink:href="#mfde699f199" y="63.2603424126"/>
     <use style="fill:#008000;stroke:#000000;stroke-width:0.5;" x="431.599969829" xlink:href="#mfde699f199" y="60.1427680918"/>
     <use style="fill:#008000;stroke:#000000;stroke-width:0.5;" x="444.000002252" xlink:href="#mfde699f199" y="71.1031396587"/>
     <use style="fill:#008000;stroke:#000000;stroke-width:0.5;" x="456.399993554" xlink:href="#mfde699f199" y="88.599990864"/>
     <use style="fill:#008000;stroke:#000000;stroke-width:0.5;" x="468.799980489" xlink:href="#mfde699f199" y="108.701949572"/>
     <use style="fill:#008000;stroke:#000000;stroke-width:0.5;" x="481.200015013" xlink:href="#mfde699f199" y="127.6547964"/>
     <use style="fill:#008000;stroke:#000000;stroke-width:0.5;" x="493.600018223" xlink:href="#mfde699f199" y="141.80139877"/>
     <use style="fill:#008000;stroke:#000000;stroke-width:0.5;" x="505.999946248" xlink:href="#mfde699f199" y="150.433146348"/>
    </g>
   </g>
   <g id="patch_3">
    <path d="M 518.4 388.8 
L 518.4 43.2 
" style="fill:none;stroke:#000000;stroke-linecap:square;stroke-linejoin:miter;"/>
   </g>
   <g id="patch_4">
    <path d="M 72 388.8 
L 518.4 388.8 
" style="fill:none;stroke:#000000;stroke-linecap:square;stroke-linejoin:miter;"/>
   </g>
   <g id="patch_5">
    <path d="M 72 43.2 
L 518.4 43.2 
" style="fill:none;stroke:#000000;stroke-linecap:square;stroke-linejoin:miter;"/>
   </g>
   <g id="patch_6">
    <path d="M 72 388.8 
L 72 43.2 
" style="fill:none;stroke:#000000;stroke-linecap:square;stroke-linejoin:miter;"/>
   </g>
   <g id="matplotlib.axis_1">
    <g id="xtick_1">
     <g id="line2d_6">
      <defs>
       <path d="M 0 0 
L 0 -4 
" id="mbac7152d01" style="stroke:#000000;stroke-width:0.5;"/>
      </defs>
      <g>
       <use style="stroke:#000000;stroke-width:0.5;" x="72.0" xlink:href="#mbac7152d01" y="388.8"/>
      </g>
     </g>
     <g id="line2d_7">
      <defs>
       <path d="M 0 0 
L 0 4 
" id="ma2717a9693" style="stroke:#000000;stroke-width:0.5;"/>
      </defs>
      <g>
       <use style="stroke:#000000;stroke-width:0.5;" x="72.0" xlink:href="#ma2717a9693" y="43.2"/>
      </g>
     </g>
     <g id="text_1">
      <!-- −180 -->
      <defs>
       <path d="M 31.78125 34.625 
Q 24.75 34.625 20.71875 30.859375 
Q 16.703125 27.09375 16.703125 20.515625 
Q 16.703125 13.921875 20.71875 10.15625 
Q 24.75 6.390625 31.78125 6.390625 
Q 38.8125 6.390625 42.859375 10.171875 
Q 46.921875 13.96875 46.921875 20.515625 
Q 46.921875 27.09375 42.890625 30.859375 
Q 38.875 34.625 31.78125 34.625 
M 21.921875 38.8125 
Q 15.578125 40.375 12.03125 44.71875 
Q 8.5 49.078125 8.5 55.328125 
Q 8.5 64.0625 14.71875 69.140625 
Q 20.953125 74.21875 31.78125 74.21875 
Q 42.671875 74.21875 48.875 69.140625 
Q 55.078125 64.0625 55.078125 55.328125 
Q 55.078125 49.078125 51.53125 44.71875 
Q 48 40.375 41.703125 38.8125 
Q 48.828125 37.15625 52.796875 32.3125 
Q 56.78125 27.484375 56.78125 20.515625 
Q 56.78125 9.90625 50.3125 4.234375 
Q 43.84375 -1.421875 31.78125 -1.421875 
Q 19.734375 -1.421875 13.25 4.234375 
Q 6.78125 9.90625 6.78125 20.515625 
Q 6.78125 27.484375 10.78125 32.3125 
Q 14.796875 37.15625 21.921875 38.8125 
M 18.3125 54.390625 
Q 18.3125 48.734375 21.84375 45.5625 
Q 25.390625 42.390625 31.78125 42.390625 
Q 38.140625 42.390625 41.71875 45.5625 
Q 45.3125 48.734375 45.3125 54.390625 
Q 45.3125 60.0625 41.71875 63.234375 
Q 38.140625 66.40625 31.78125 66.40625 
Q 25.390625 66.40625 21.84375 63.234375 
Q 18.3125 60.0625 18.3125 54.390625 
" id="BitstreamVeraSans-Roman-38"/>
       <path d="M 31.78125 66.40625 
Q 24.171875 66.40625 20.328125 58.90625 
Q 16.5 51.421875 16.5 36.375 
Q 16.5 21.390625 20.328125 13.890625 
Q 24.171875 6.390625 31.78125 6.390625 
Q 39.453125 6.390625 43.28125 13.890625 
Q 47.125 21.390625 47.125 36.375 
Q 47.125 51.421875 43.28125 58.90625 
Q 39.453125 66.40625 31.78125 66.40625 
M 31.78125 74.21875 
Q 44.046875 74.21875 50.515625 64.515625 
Q 56.984375 54.828125 56.984375 36.375 
Q 56.984375 17.96875 50.515625 8.265625 
Q 44.046875 -1.421875 31.78125 -1.421875 
Q 19.53125 -1.421875 13.0625 8.265625 
Q 6.59375 17.96875 6.59375 36.375 
Q 6.59375 54.828125 13.0625 64.515625 
Q 19.53125 74.21875 31.78125 74.21875 
" id="BitstreamVeraSans-Roman-30"/>
       <path d="M 12.40625 8.296875 
L 28.515625 8.296875 
L 28.515625 63.921875 
L 10.984375 60.40625 
L 10.984375 69.390625 
L 28.421875 72.90625 
L 38.28125 72.90625 
L 38.28125 8.296875 
L 54.390625 8.296875 
L 54.390625 0 
L 12.40625 0 
z
" id="BitstreamVeraSans-Roman-31"/>
       <path d="M 10.59375 35.5 
L 73.1875 35.5 
L 73.1875 27.203125 
L 10.59375 27.203125 
z
" id="BitstreamVeraSans-Roman-2212"/>
      </defs>
      <g transform="translate(55.5196875 401.918125)scale(0.12 -0.12)">
       <use xlink:href="#BitstreamVeraSans-Roman-2212"/>
       <use x="83.7890625" xlink:href="#BitstreamVeraSans-Roman-31"/>
       <use x="147.412109375" xlink:href="#BitstreamVeraSans-Roman-38"/>
       <use x="211.03515625" xlink:href="#BitstreamVeraSans-Roman-30"/>
      </g>
     </g>
    </g>
    <g id="xtick_2">
     <g id="line2d_8">
      <g>
       <use style="stroke:#000000;stroke-width:0.5;" x="127.8" xlink:href="#mbac7152d01" y="388.8"/>
      </g>
     </g>
     <g id="line2d_9">
      <g>
       <use style="stroke:#000000;stroke-width:0.5;" x="127.8" xlink:href="#ma2717a9693" y="43.2"/>
      </g>
     </g>
     <g id="text_2">
      <!-- −135 -->
      <defs>
       <path d="M 10.796875 72.90625 
L 49.515625 72.90625 
L 49.515625 64.59375 
L 19.828125 64.59375 
L 19.828125 46.734375 
Q 21.96875 47.46875 24.109375 47.828125 
Q 26.265625 48.1875 28.421875 48.1875 
Q 40.625 48.1875 47.75 41.5 
Q 54.890625 34.8125 54.890625 23.390625 
Q 54.890625 11.625 47.5625 5.09375 
Q 40.234375 -1.421875 26.90625 -1.421875 
Q 22.3125 -1.421875 17.546875 -0.640625 
Q 12.796875 0.140625 7.71875 1.703125 
L 7.71875 11.625 
Q 12.109375 9.234375 16.796875 8.0625 
Q 21.484375 6.890625 26.703125 6.890625 
Q 35.15625 6.890625 40.078125 11.328125 
Q 45.015625 15.765625 45.015625 23.390625 
Q 45.015625 31 40.078125 35.4375 
Q 35.15625 39.890625 26.703125 39.890625 
Q 22.75 39.890625 18.8125 39.015625 
Q 14.890625 38.140625 10.796875 36.28125 
z
" id="BitstreamVeraSans-Roman-35"/>
       <path d="M 40.578125 39.3125 
Q 47.65625 37.796875 51.625 33 
Q 55.609375 28.21875 55.609375 21.1875 
Q 55.609375 10.40625 48.1875 4.484375 
Q 40.765625 -1.421875 27.09375 -1.421875 
Q 22.515625 -1.421875 17.65625 -0.515625 
Q 12.796875 0.390625 7.625 2.203125 
L 7.625 11.71875 
Q 11.71875 9.328125 16.59375 8.109375 
Q 21.484375 6.890625 26.8125 6.890625 
Q 36.078125 6.890625 40.9375 10.546875 
Q 45.796875 14.203125 45.796875 21.1875 
Q 45.796875 27.640625 41.28125 31.265625 
Q 36.765625 34.90625 28.71875 34.90625 
L 20.21875 34.90625 
L 20.21875 43.015625 
L 29.109375 43.015625 
Q 36.375 43.015625 40.234375 45.921875 
Q 44.09375 48.828125 44.09375 54.296875 
Q 44.09375 59.90625 40.109375 62.90625 
Q 36.140625 65.921875 28.71875 65.921875 
Q 24.65625 65.921875 20.015625 65.03125 
Q 15.375 64.15625 9.8125 62.3125 
L 9.8125 71.09375 
Q 15.4375 72.65625 20.34375 73.4375 
Q 25.25 74.21875 29.59375 74.21875 
Q 40.828125 74.21875 47.359375 69.109375 
Q 53.90625 64.015625 53.90625 55.328125 
Q 53.90625 49.265625 50.4375 45.09375 
Q 46.96875 40.921875 40.578125 39.3125 
" id="BitstreamVeraSans-Roman-33"/>
      </defs>
      <g transform="translate(111.3196875 401.918125)scale(0.12 -0.12)">
       <use xlink:href="#BitstreamVeraSans-Roman-2212"/>
       <use x="83.7890625" xlink:href="#BitstreamVeraSans-Roman-31"/>
       <use x="147.412109375" xlink:href="#BitstreamVeraSans-Roman-33"/>
       <use x="211.03515625" xlink:href="#BitstreamVeraSans-Roman-35"/>
      </g>
     </g>
    </g>
    <g id="xtick_3">
     <g id="line2d_10">
      <g>
       <use style="stroke:#000000;stroke-width:0.5;" x="183.6" xlink:href="#mbac7152d01" y="388.8"/>
      </g>
     </g>
     <g id="line2d_11">
      <g>
       <use style="stroke:#000000;stroke-width:0.5;" x="183.6" xlink:href="#ma2717a9693" y="43.2"/>
      </g>
     </g>
     <g id="text_3">
      <!-- −90 -->
      <defs>
       <path d="M 10.984375 1.515625 
L 10.984375 10.5 
Q 14.703125 8.734375 18.5 7.8125 
Q 22.3125 6.890625 25.984375 6.890625 
Q 35.75 6.890625 40.890625 13.453125 
Q 46.046875 20.015625 46.78125 33.40625 
Q 43.953125 29.203125 39.59375 26.953125 
Q 35.25 24.703125 29.984375 24.703125 
Q 19.046875 24.703125 12.671875 31.3125 
Q 6.296875 37.9375 6.296875 49.421875 
Q 6.296875 60.640625 12.9375 67.421875 
Q 19.578125 74.21875 30.609375 74.21875 
Q 43.265625 74.21875 49.921875 64.515625 
Q 56.59375 54.828125 56.59375 36.375 
Q 56.59375 19.140625 48.40625 8.859375 
Q 40.234375 -1.421875 26.421875 -1.421875 
Q 22.703125 -1.421875 18.890625 -0.6875 
Q 15.09375 0.046875 10.984375 1.515625 
M 30.609375 32.421875 
Q 37.25 32.421875 41.125 36.953125 
Q 45.015625 41.5 45.015625 49.421875 
Q 45.015625 57.28125 41.125 61.84375 
Q 37.25 66.40625 30.609375 66.40625 
Q 23.96875 66.40625 20.09375 61.84375 
Q 16.21875 57.28125 16.21875 49.421875 
Q 16.21875 41.5 20.09375 36.953125 
Q 23.96875 32.421875 30.609375 32.421875 
" id="BitstreamVeraSans-Roman-39"/>
      </defs>
      <g transform="translate(170.9371875 401.918125)scale(0.12 -0.12)">
       <use xlink:href="#BitstreamVeraSans-Roman-2212"/>
       <use x="83.7890625" xlink:href="#BitstreamVeraSans-Roman-39"/>
       <use x="147.412109375" xlink:href="#BitstreamVeraSans-Roman-30"/>
      </g>
     </g>
    </g>
    <g id="xtick_4">
     <g id="line2d_12">
      <g>
       <use style="stroke:#000000;stroke-width:0.5;" x="239.4" xlink:href="#mbac7152d01" y="388.8"/>
      </g>
     </g>
     <g id="line2d_13">
      <g>
       <use style="stroke:#000000;stroke-width:0.5;" x="239.4" xlink:href="#ma2717a9693" y="43.2"/>
      </g>
     </g>
     <g id="text_4">
      <!-- −45 -->
      <defs>
       <path d="M 37.796875 64.3125 
L 12.890625 25.390625 
L 37.796875 25.390625 
z
M 35.203125 72.90625 
L 47.609375 72.90625 
L 47.609375 25.390625 
L 58.015625 25.390625 
L 58.015625 17.1875 
L 47.609375 17.1875 
L 47.609375 0 
L 37.796875 0 
L 37.796875 17.1875 
L 4.890625 17.1875 
L 4.890625 26.703125 
z
" id="BitstreamVeraSans-Roman-34"/>
      </defs>
      <g transform="translate(226.7371875 401.918125)scale(0.12 -0.12)">
       <use xlink:href="#BitstreamVeraSans-Roman-2212"/>
       <use x="83.7890625" xlink:href="#BitstreamVeraSans-Roman-34"/>
       <use x="147.412109375" xlink:href="#BitstreamVeraSans-Roman-35"/>
      </g>
     </g>
    </g>
    <g id="xtick_5">
     <g id="line2d_14">
      <g>
       <use style="stroke:#000000;stroke-width:0.5;" x="295.2" xlink:href="#mbac7152d01" y="388.8"/>
      </g>
     </g>
     <g id="line2d_15">
      <g>
       <use style="stroke:#000000;stroke-width:0.5;" x="295.2" xlink:href="#ma2717a9693" y="43.2"/>
      </g>
     </g>
     <g id="text_5">
      <!-- 0 -->
      <g transform="translate(291.3825 401.918125)scale(0.12 -0.12)">
       <use xlink:href="#BitstreamVeraSans-Roman-30"/>
      </g>
     </g>
    </g>
    <g id="xtick_6">
     <g id="line2d_16">
      <g>
       <use style="stroke:#000000;stroke-width:0.5;" x="351.0" xlink:href="#mbac7152d01" y="388.8"/>
      </g>
     </g>
     <g id="line2d_17">
      <g>
       <use style="stroke:#000000;stroke-width:0.5;" x="351.0" xlink:href="#ma2717a9693" y="43.2"/>
      </g>
     </g>
     <g id="text_6">
      <!-- 45 -->
      <g transform="translate(343.365 401.918125)scale(0.12 -0.12)">
       <use xlink:href="#BitstreamVeraSans-Roman-34"/>
       <use x="63.623046875" xlink:href="#BitstreamVeraSans-Roman-35"/>
      </g>
     </g>
    </g>
    <g id="xtick_7">
     <g id="line2d_18">
      <g>
       <use style="stroke:#000000;stroke-width:0.5;" x="406.8" xlink:href="#mbac7152d01" y="388.8"/>
      </g>
     </g>
     <g id="line2d_19">
      <g>
       <use style="stroke:#000000;stroke-width:0.5;" x="406.8" xlink:href="#ma2717a9693" y="43.2"/>
      </g>
     </g>
     <g id="text_7">
      <!-- 90 -->
      <g transform="translate(399.165 401.918125)scale(0.12 -0.12)">
       <use xlink:href="#BitstreamVeraSans-Roman-39"/>
       <use x="63.623046875" xlink:href="#BitstreamVeraSans-Roman-30"/>
      </g>
     </g>
    </g>
    <g id="xtick_8">
     <g id="line2d_20">
      <g>
       <use style="stroke:#000000;stroke-width:0.5;" x="462.6" xlink:href="#mbac7152d01" y="388.8"/>
      </g>
     </g>
     <g id="line2d_21">
      <g>
       <use style="stroke:#000000;stroke-width:0.5;" x="462.6" xlink:href="#ma2717a9693" y="43.2"/>
      </g>
     </g>
     <g id="text_8">
      <!-- 135 -->
      <g transform="translate(451.1475 401.918125)scale(0.12 -0.12)">
       <use xlink:href="#BitstreamVeraSans-Roman-31"/>
       <use x="63.623046875" xlink:href="#BitstreamVeraSans-Roman-33"/>
       <use x="127.24609375" xlink:href="#BitstreamVeraSans-Roman-35"/>
      </g>
     </g>
    </g>
    <g id="xtick_9">
     <g id="line2d_22">
      <g>
       <use style="stroke:#000000;stroke-width:0.5;" x="518.4" xlink:href="#mbac7152d01" y="388.8"/>
      </g>
     </g>
     <g id="line2d_23">
      <g>
       <use style="stroke:#000000;stroke-width:0.5;" x="518.4" xlink:href="#ma2717a9693" y="43.2"/>
      </g>
     </g>
     <g id="text_9">
      <!-- 180 -->
      <g transform="translate(506.9475 401.918125)scale(0.12 -0.12)">
       <use xlink:href="#BitstreamVeraSans-Roman-31"/>
       <use x="63.623046875" xlink:href="#BitstreamVeraSans-Roman-38"/>
       <use x="127.24609375" xlink:href="#BitstreamVeraSans-Roman-30"/>
      </g>
     </g>
    </g>
    <g id="text_10">
     <!-- Phi -->
     <defs>
      <path d="M 19.671875 64.796875 
L 19.671875 37.40625 
L 32.078125 37.40625 
Q 38.96875 37.40625 42.71875 40.96875 
Q 46.484375 44.53125 46.484375 51.125 
Q 46.484375 57.671875 42.71875 61.234375 
Q 38.96875 64.796875 32.078125 64.796875 
z
M 9.8125 72.90625 
L 32.078125 72.90625 
Q 44.34375 72.90625 50.609375 67.359375 
Q 56.890625 61.8125 56.890625 51.125 
Q 56.890625 40.328125 50.609375 34.8125 
Q 44.34375 29.296875 32.078125 29.296875 
L 19.671875 29.296875 
L 19.671875 0 
L 9.8125 0 
z
" id="BitstreamVeraSans-Roman-50"/>
      <path d="M 54.890625 33.015625 
L 54.890625 0 
L 45.90625 0 
L 45.90625 32.71875 
Q 45.90625 40.484375 42.875 44.328125 
Q 39.84375 48.1875 33.796875 48.1875 
Q 26.515625 48.1875 22.3125 43.546875 
Q 18.109375 38.921875 18.109375 30.90625 
L 18.109375 0 
L 9.078125 0 
L 9.078125 75.984375 
L 18.109375 75.984375 
L 18.109375 46.1875 
Q 21.34375 51.125 25.703125 53.5625 
Q 30.078125 56 35.796875 56 
Q 45.21875 56 50.046875 50.171875 
Q 54.890625 44.34375 54.890625 33.015625 
" id="BitstreamVeraSans-Roman-68"/>
      <path d="M 9.421875 54.6875 
L 18.40625 54.6875 
L 18.40625 0 
L 9.421875 0 
z
M 9.421875 75.984375 
L 18.40625 75.984375 
L 18.40625 64.59375 
L 9.421875 64.59375 
z
" id="BitstreamVeraSans-Roman-69"/>
     </defs>
     <g transform="translate(286.1128125 418.531875)scale(0.12 -0.12)">
      <use xlink:href="#BitstreamVeraSans-Roman-50"/>
      <use x="60.302734375" xlink:href="#BitstreamVeraSans-Roman-68"/>
      <use x="123.681640625" xlink:href="#BitstreamVeraSans-Roman-69"/>
     </g>
    </g>
   </g>
   <g id="matplotlib.axis_2">
    <g id="ytick_1">
     <g id="line2d_24">
      <defs>
       <path d="M 0 0 
L 4 0 
" id="ma00198a8aa" style="stroke:#000000;stroke-width:0.5;"/>
      </defs>
      <g>
       <use style="stroke:#000000;stroke-width:0.5;" x="72.0" xlink:href="#ma00198a8aa" y="388.8"/>
      </g>
     </g>
     <g id="line2d_25">
      <defs>
       <path d="M 0 0 
L -4 0 
" id="m27e0d19c20" style="stroke:#000000;stroke-width:0.5;"/>
      </defs>
      <g>
       <use style="stroke:#000000;stroke-width:0.5;" x="518.4" xlink:href="#m27e0d19c20" y="388.8"/>
      </g>
     </g>
     <g id="text_11">
      <!-- 0 -->
      <g transform="translate(60.365 392.11125)scale(0.12 -0.12)">
       <use xlink:href="#BitstreamVeraSans-Roman-30"/>
      </g>
     </g>
    </g>
    <g id="ytick_2">
     <g id="line2d_26">
      <g>
       <use style="stroke:#000000;stroke-width:0.5;" x="72.0" xlink:href="#ma00198a8aa" y="339.428571429"/>
      </g>
     </g>
     <g id="line2d_27">
      <g>
       <use style="stroke:#000000;stroke-width:0.5;" x="518.4" xlink:href="#m27e0d19c20" y="339.428571429"/>
      </g>
     </g>
     <g id="text_12">
      <!-- 2 -->
      <defs>
       <path d="M 19.1875 8.296875 
L 53.609375 8.296875 
L 53.609375 0 
L 7.328125 0 
L 7.328125 8.296875 
Q 12.9375 14.109375 22.625 23.890625 
Q 32.328125 33.6875 34.8125 36.53125 
Q 39.546875 41.84375 41.421875 45.53125 
Q 43.3125 49.21875 43.3125 52.78125 
Q 43.3125 58.59375 39.234375 62.25 
Q 35.15625 65.921875 28.609375 65.921875 
Q 23.96875 65.921875 18.8125 64.3125 
Q 13.671875 62.703125 7.8125 59.421875 
L 7.8125 69.390625 
Q 13.765625 71.78125 18.9375 73 
Q 24.125 74.21875 28.421875 74.21875 
Q 39.75 74.21875 46.484375 68.546875 
Q 53.21875 62.890625 53.21875 53.421875 
Q 53.21875 48.921875 51.53125 44.890625 
Q 49.859375 40.875 45.40625 35.40625 
Q 44.1875 33.984375 37.640625 27.21875 
Q 31.109375 20.453125 19.1875 8.296875 
" id="BitstreamVeraSans-Roman-32"/>
      </defs>
      <g transform="translate(60.365 342.739821429)scale(0.12 -0.12)">
       <use xlink:href="#BitstreamVeraSans-Roman-32"/>
      </g>
     </g>
    </g>
    <g id="ytick_3">
     <g id="line2d_28">
      <g>
       <use style="stroke:#000000;stroke-width:0.5;" x="72.0" xlink:href="#ma00198a8aa" y="290.057142857"/>
      </g>
     </g>
     <g id="line2d_29">
      <g>
       <use style="stroke:#000000;stroke-width:0.5;" x="518.4" xlink:href="#m27e0d19c20" y="290.057142857"/>
      </g>
     </g>
     <g id="text_13">
      <!-- 4 -->
      <g transform="translate(60.365 293.368392857)scale(0.12 -0.12)">
       <use xlink:href="#BitstreamVeraSans-Roman-34"/>
      </g>
     </g>
    </g>
    <g id="ytick_4">
     <g id="line2d_30">
      <g>
       <use style="stroke:#000000;stroke-width:0.5;" x="72.0" xlink:href="#ma00198a8aa" y="240.685714286"/>
      </g>
     </g>
     <g id="line2d_31">
      <g>
       <use style="stroke:#000000;stroke-width:0.5;" x="518.4" xlink:href="#m27e0d19c20" y="240.685714286"/>
      </g>
     </g>
     <g id="text_14">
      <!-- 6 -->
      <defs>
       <path d="M 33.015625 40.375 
Q 26.375 40.375 22.484375 35.828125 
Q 18.609375 31.296875 18.609375 23.390625 
Q 18.609375 15.53125 22.484375 10.953125 
Q 26.375 6.390625 33.015625 6.390625 
Q 39.65625 6.390625 43.53125 10.953125 
Q 47.40625 15.53125 47.40625 23.390625 
Q 47.40625 31.296875 43.53125 35.828125 
Q 39.65625 40.375 33.015625 40.375 
M 52.59375 71.296875 
L 52.59375 62.3125 
Q 48.875 64.0625 45.09375 64.984375 
Q 41.3125 65.921875 37.59375 65.921875 
Q 27.828125 65.921875 22.671875 59.328125 
Q 17.53125 52.734375 16.796875 39.40625 
Q 19.671875 43.65625 24.015625 45.921875 
Q 28.375 48.1875 33.59375 48.1875 
Q 44.578125 48.1875 50.953125 41.515625 
Q 57.328125 34.859375 57.328125 23.390625 
Q 57.328125 12.15625 50.6875 5.359375 
Q 44.046875 -1.421875 33.015625 -1.421875 
Q 20.359375 -1.421875 13.671875 8.265625 
Q 6.984375 17.96875 6.984375 36.375 
Q 6.984375 53.65625 15.1875 63.9375 
Q 23.390625 74.21875 37.203125 74.21875 
Q 40.921875 74.21875 44.703125 73.484375 
Q 48.484375 72.75 52.59375 71.296875 
" id="BitstreamVeraSans-Roman-36"/>
      </defs>
      <g transform="translate(60.365 243.996964286)scale(0.12 -0.12)">
       <use xlink:href="#BitstreamVeraSans-Roman-36"/>
      </g>
     </g>
    </g>
    <g id="ytick_5">
     <g id="line2d_32">
      <g>
       <use style="stroke:#000000;stroke-width:0.5;" x="72.0" xlink:href="#ma00198a8aa" y="191.314285714"/>
      </g>
     </g>
     <g id="line2d_33">
      <g>
       <use style="stroke:#000000;stroke-width:0.5;" x="518.4" xlink:href="#m27e0d19c20" y="191.314285714"/>
      </g>
     </g>
     <g id="text_15">
      <!-- 8 -->
      <g transform="translate(60.365 194.625535714)scale(0.12 -0.12)">
       <use xlink:href="#BitstreamVeraSans-Roman-38"/>
      </g>
     </g>
    </g>
    <g id="ytick_6">
     <g id="line2d_34">
      <g>
       <use style="stroke:#000000;stroke-width:0.5;" x="72.0" xlink:href="#ma00198a8aa" y="141.942857143"/>
      </g>
     </g>
     <g id="line2d_35">
      <g>
       <use style="stroke:#000000;stroke-width:0.5;" x="518.4" xlink:href="#m27e0d19c20" y="141.942857143"/>
      </g>
     </g>
     <g id="text_16">
      <!-- 10 -->
      <g transform="translate(52.73 145.254107143)scale(0.12 -0.12)">
       <use xlink:href="#BitstreamVeraSans-Roman-31"/>
       <use x="63.623046875" xlink:href="#BitstreamVeraSans-Roman-30"/>
      </g>
     </g>
    </g>
    <g id="ytick_7">
     <g id="line2d_36">
      <g>
       <use style="stroke:#000000;stroke-width:0.5;" x="72.0" xlink:href="#ma00198a8aa" y="92.5714285714"/>
      </g>
     </g>
     <g id="line2d_37">
      <g>
       <use style="stroke:#000000;stroke-width:0.5;" x="518.4" xlink:href="#m27e0d19c20" y="92.5714285714"/>
      </g>
     </g>
     <g id="text_17">
      <!-- 12 -->
      <g transform="translate(52.73 95.8826785714)scale(0.12 -0.12)">
       <use xlink:href="#BitstreamVeraSans-Roman-31"/>
       <use x="63.623046875" xlink:href="#BitstreamVeraSans-Roman-32"/>
      </g>
     </g>
    </g>
    <g id="ytick_8">
     <g id="line2d_38">
      <g>
       <use style="stroke:#000000;stroke-width:0.5;" x="72.0" xlink:href="#ma00198a8aa" y="43.2"/>
      </g>
     </g>
     <g id="line2d_39">
      <g>
       <use style="stroke:#000000;stroke-width:0.5;" x="518.4" xlink:href="#m27e0d19c20" y="43.2"/>
      </g>
     </g>
     <g id="text_18">
      <!-- 14 -->
      <g transform="translate(52.73 46.51125)scale(0.12 -0.12)">
       <use xlink:href="#BitstreamVeraSans-Roman-31"/>
       <use x="63.623046875" xlink:href="#BitstreamVeraSans-Roman-34"/>
      </g>
     </g>
    </g>
    <g id="text_19">
     <!-- kcal/mol -->
     <defs>
      <path d="M 25.390625 72.90625 
L 33.6875 72.90625 
L 8.296875 -9.28125 
L 0 -9.28125 
z
" id="BitstreamVeraSans-Roman-2f"/>
      <path d="M 9.421875 75.984375 
L 18.40625 75.984375 
L 18.40625 0 
L 9.421875 0 
z
" id="BitstreamVeraSans-Roman-6c"/>
      <path d="M 48.78125 52.59375 
L 48.78125 44.1875 
Q 44.96875 46.296875 41.140625 47.34375 
Q 37.3125 48.390625 33.40625 48.390625 
Q 24.65625 48.390625 19.8125 42.84375 
Q 14.984375 37.3125 14.984375 27.296875 
Q 14.984375 17.28125 19.8125 11.734375 
Q 24.65625 6.203125 33.40625 6.203125 
Q 37.3125 6.203125 41.140625 7.25 
Q 44.96875 8.296875 48.78125 10.40625 
L 48.78125 2.09375 
Q 45.015625 0.34375 40.984375 -0.53125 
Q 36.96875 -1.421875 32.421875 -1.421875 
Q 20.0625 -1.421875 12.78125 6.34375 
Q 5.515625 14.109375 5.515625 27.296875 
Q 5.515625 40.671875 12.859375 48.328125 
Q 20.21875 56 33.015625 56 
Q 37.15625 56 41.109375 55.140625 
Q 45.0625 54.296875 48.78125 52.59375 
" id="BitstreamVeraSans-Roman-63"/>
      <path d="M 30.609375 48.390625 
Q 23.390625 48.390625 19.1875 42.75 
Q 14.984375 37.109375 14.984375 27.296875 
Q 14.984375 17.484375 19.15625 11.84375 
Q 23.34375 6.203125 30.609375 6.203125 
Q 37.796875 6.203125 41.984375 11.859375 
Q 46.1875 17.53125 46.1875 27.296875 
Q 46.1875 37.015625 41.984375 42.703125 
Q 37.796875 48.390625 30.609375 48.390625 
M 30.609375 56 
Q 42.328125 56 49.015625 48.375 
Q 55.71875 40.765625 55.71875 27.296875 
Q 55.71875 13.875 49.015625 6.21875 
Q 42.328125 -1.421875 30.609375 -1.421875 
Q 18.84375 -1.421875 12.171875 6.21875 
Q 5.515625 13.875 5.515625 27.296875 
Q 5.515625 40.765625 12.171875 48.375 
Q 18.84375 56 30.609375 56 
" id="BitstreamVeraSans-Roman-6f"/>
      <path d="M 52 44.1875 
Q 55.375 50.25 60.0625 53.125 
Q 64.75 56 71.09375 56 
Q 79.640625 56 84.28125 50.015625 
Q 88.921875 44.046875 88.921875 33.015625 
L 88.921875 0 
L 79.890625 0 
L 79.890625 32.71875 
Q 79.890625 40.578125 77.09375 44.375 
Q 74.3125 48.1875 68.609375 48.1875 
Q 61.625 48.1875 57.5625 43.546875 
Q 53.515625 38.921875 53.515625 30.90625 
L 53.515625 0 
L 44.484375 0 
L 44.484375 32.71875 
Q 44.484375 40.625 41.703125 44.40625 
Q 38.921875 48.1875 33.109375 48.1875 
Q 26.21875 48.1875 22.15625 43.53125 
Q 18.109375 38.875 18.109375 30.90625 
L 18.109375 0 
L 9.078125 0 
L 9.078125 54.6875 
L 18.109375 54.6875 
L 18.109375 46.1875 
Q 21.1875 51.21875 25.484375 53.609375 
Q 29.78125 56 35.6875 56 
Q 41.65625 56 45.828125 52.96875 
Q 50 49.953125 52 44.1875 
" id="BitstreamVeraSans-Roman-6d"/>
      <path d="M 34.28125 27.484375 
Q 23.390625 27.484375 19.1875 25 
Q 14.984375 22.515625 14.984375 16.5 
Q 14.984375 11.71875 18.140625 8.90625 
Q 21.296875 6.109375 26.703125 6.109375 
Q 34.1875 6.109375 38.703125 11.40625 
Q 43.21875 16.703125 43.21875 25.484375 
L 43.21875 27.484375 
z
M 52.203125 31.203125 
L 52.203125 0 
L 43.21875 0 
L 43.21875 8.296875 
Q 40.140625 3.328125 35.546875 0.953125 
Q 30.953125 -1.421875 24.3125 -1.421875 
Q 15.921875 -1.421875 10.953125 3.296875 
Q 6 8.015625 6 15.921875 
Q 6 25.140625 12.171875 29.828125 
Q 18.359375 34.515625 30.609375 34.515625 
L 43.21875 34.515625 
L 43.21875 35.40625 
Q 43.21875 41.609375 39.140625 45 
Q 35.0625 48.390625 27.6875 48.390625 
Q 23 48.390625 18.546875 47.265625 
Q 14.109375 46.140625 10.015625 43.890625 
L 10.015625 52.203125 
Q 14.9375 54.109375 19.578125 55.046875 
Q 24.21875 56 28.609375 56 
Q 40.484375 56 46.34375 49.84375 
Q 52.203125 43.703125 52.203125 31.203125 
" id="BitstreamVeraSans-Roman-61"/>
      <path d="M 9.078125 75.984375 
L 18.109375 75.984375 
L 18.109375 31.109375 
L 44.921875 54.6875 
L 56.390625 54.6875 
L 27.390625 29.109375 
L 57.625 0 
L 45.90625 0 
L 18.109375 26.703125 
L 18.109375 0 
L 9.078125 0 
z
" id="BitstreamVeraSans-Roman-6b"/>
     </defs>
     <g transform="translate(45.234375 241.3209375)rotate(-90.0)scale(0.12 -0.12)">
      <use xlink:href="#BitstreamVeraSans-Roman-6b"/>
      <use x="57.91015625" xlink:href="#BitstreamVeraSans-Roman-63"/>
      <use x="112.890625" xlink:href="#BitstreamVeraSans-Roman-61"/>
      <use x="174.169921875" xlink:href="#BitstreamVeraSans-Roman-6c"/>
      <use x="201.953125" xlink:href="#BitstreamVeraSans-Roman-2f"/>
      <use x="235.64453125" xlink:href="#BitstreamVeraSans-Roman-6d"/>
      <use x="333.056640625" xlink:href="#BitstreamVeraSans-Roman-6f"/>
      <use x="394.23828125" xlink:href="#BitstreamVeraSans-Roman-6c"/>
     </g>
    </g>
   </g>
   <g id="text_20">
    <!-- O1-C1-O2-C6 -->
    <defs>
     <path d="M 64.40625 67.28125 
L 64.40625 56.890625 
Q 59.421875 61.53125 53.78125 63.8125 
Q 48.140625 66.109375 41.796875 66.109375 
Q 29.296875 66.109375 22.65625 58.46875 
Q 16.015625 50.828125 16.015625 36.375 
Q 16.015625 21.96875 22.65625 14.328125 
Q 29.296875 6.6875 41.796875 6.6875 
Q 48.140625 6.6875 53.78125 8.984375 
Q 59.421875 11.28125 64.40625 15.921875 
L 64.40625 5.609375 
Q 59.234375 2.09375 53.4375 0.328125 
Q 47.65625 -1.421875 41.21875 -1.421875 
Q 24.65625 -1.421875 15.125 8.703125 
Q 5.609375 18.84375 5.609375 36.375 
Q 5.609375 53.953125 15.125 64.078125 
Q 24.65625 74.21875 41.21875 74.21875 
Q 47.75 74.21875 53.53125 72.484375 
Q 59.328125 70.75 64.40625 67.28125 
" id="BitstreamVeraSans-Roman-43"/>
     <path d="M 39.40625 66.21875 
Q 28.65625 66.21875 22.328125 58.203125 
Q 16.015625 50.203125 16.015625 36.375 
Q 16.015625 22.609375 22.328125 14.59375 
Q 28.65625 6.59375 39.40625 6.59375 
Q 50.140625 6.59375 56.421875 14.59375 
Q 62.703125 22.609375 62.703125 36.375 
Q 62.703125 50.203125 56.421875 58.203125 
Q 50.140625 66.21875 39.40625 66.21875 
M 39.40625 74.21875 
Q 54.734375 74.21875 63.90625 63.9375 
Q 73.09375 53.65625 73.09375 36.375 
Q 73.09375 19.140625 63.90625 8.859375 
Q 54.734375 -1.421875 39.40625 -1.421875 
Q 24.03125 -1.421875 14.8125 8.828125 
Q 5.609375 19.09375 5.609375 36.375 
Q 5.609375 53.65625 14.8125 63.9375 
Q 24.03125 74.21875 39.40625 74.21875 
" id="BitstreamVeraSans-Roman-4f"/>
     <path d="M 4.890625 31.390625 
L 31.203125 31.390625 
L 31.203125 23.390625 
L 4.890625 23.390625 
z
" id="BitstreamVeraSans-Roman-2d"/>
    </defs>
    <g transform="translate(247.690125 38.2)scale(0.144 -0.144)">
     <use xlink:href="#BitstreamVeraSans-Roman-4f"/>
     <use x="78.7109375" xlink:href="#BitstreamVeraSans-Roman-31"/>
     <use x="142.333984375" xlink:href="#BitstreamVeraSans-Roman-2d"/>
     <use x="178.41796875" xlink:href="#BitstreamVeraSans-Roman-43"/>
     <use x="248.2421875" xlink:href="#BitstreamVeraSans-Roman-31"/>
     <use x="311.865234375" xlink:href="#BitstreamVeraSans-Roman-2d"/>
     <use x="347.98046875" xlink:href="#BitstreamVeraSans-Roman-4f"/>
     <use x="426.69140625" xlink:href="#BitstreamVeraSans-Roman-32"/>
     <use x="490.314453125" xlink:href="#BitstreamVeraSans-Roman-2d"/>
     <use x="526.3984375" xlink:href="#BitstreamVeraSans-Roman-43"/>
     <use x="596.22265625" xlink:href="#BitstreamVeraSans-Roman-36"/>
    </g>
   </g>
   <g id="legend_1">
    <g id="patch_7">
     <path d="M 406.15625 108.3125 
L 514.4 108.3125 
L 514.4 47.2 
L 406.15625 47.2 
z
" style="fill:#ffffff;stroke:#000000;stroke-linejoin:miter;"/>
    </g>
    <g id="line2d_40">
     <path d="M 411.75625 53.67875 
L 422.95625 53.67875 
" style="fill:none;stroke:#ff0000;stroke-linecap:square;"/>
    </g>
    <g id="line2d_41">
     <g>
      <use style="fill:#ff0000;stroke:#000000;stroke-width:0.5;" x="411.75625" xlink:href="#m4648f5c801" y="53.67875"/>
      <use style="fill:#ff0000;stroke:#000000;stroke-width:0.5;" x="422.95625" xlink:href="#m4648f5c801" y="53.67875"/>
     </g>
    </g>
    <g id="text_21">
     <!-- QM -->
     <defs>
      <path d="M 9.8125 72.90625 
L 24.515625 72.90625 
L 43.109375 23.296875 
L 61.8125 72.90625 
L 76.515625 72.90625 
L 76.515625 0 
L 66.890625 0 
L 66.890625 64.015625 
L 48.09375 14.015625 
L 38.1875 14.015625 
L 19.390625 64.015625 
L 19.390625 0 
L 9.8125 0 
z
" id="BitstreamVeraSans-Roman-4d"/>
      <path d="M 39.40625 66.21875 
Q 28.65625 66.21875 22.328125 58.203125 
Q 16.015625 50.203125 16.015625 36.375 
Q 16.015625 22.609375 22.328125 14.59375 
Q 28.65625 6.59375 39.40625 6.59375 
Q 50.140625 6.59375 56.421875 14.59375 
Q 62.703125 22.609375 62.703125 36.375 
Q 62.703125 50.203125 56.421875 58.203125 
Q 50.140625 66.21875 39.40625 66.21875 
M 53.21875 1.3125 
L 66.21875 -12.890625 
L 54.296875 -12.890625 
L 43.5 -1.21875 
Q 41.890625 -1.3125 41.03125 -1.359375 
Q 40.1875 -1.421875 39.40625 -1.421875 
Q 24.03125 -1.421875 14.8125 8.859375 
Q 5.609375 19.140625 5.609375 36.375 
Q 5.609375 53.65625 14.8125 63.9375 
Q 24.03125 74.21875 39.40625 74.21875 
Q 54.734375 74.21875 63.90625 63.9375 
Q 73.09375 53.65625 73.09375 36.375 
Q 73.09375 23.6875 67.984375 14.640625 
Q 62.890625 5.609375 53.21875 1.3125 
" id="BitstreamVeraSans-Roman-51"/>
     </defs>
     <g transform="translate(431.75625 56.47875)scale(0.08 -0.08)">
      <use xlink:href="#BitstreamVeraSans-Roman-51"/>
      <use x="78.7109375" xlink:href="#BitstreamVeraSans-Roman-4d"/>
     </g>
    </g>
    <g id="line2d_42">
     <path d="M 411.75625 65.42125 
L 422.95625 65.42125 
" style="fill:none;stroke:#0000ff;stroke-linecap:square;"/>
    </g>
    <g id="line2d_43">
     <g>
      <use style="fill:#0000ff;stroke:#000000;stroke-width:0.5;" x="411.75625" xlink:href="#mf216d1b24f" y="65.42125"/>
      <use style="fill:#0000ff;stroke:#000000;stroke-width:0.5;" x="422.95625" xlink:href="#mf216d1b24f" y="65.42125"/>
     </g>
    </g>
    <g id="text_22">
     <!-- MM Original -->
     <defs>
      <path d="M 41.109375 46.296875 
Q 39.59375 47.171875 37.8125 47.578125 
Q 36.03125 48 33.890625 48 
Q 26.265625 48 22.1875 43.046875 
Q 18.109375 38.09375 18.109375 28.8125 
L 18.109375 0 
L 9.078125 0 
L 9.078125 54.6875 
L 18.109375 54.6875 
L 18.109375 46.1875 
Q 20.953125 51.171875 25.484375 53.578125 
Q 30.03125 56 36.53125 56 
Q 37.453125 56 38.578125 55.875 
Q 39.703125 55.765625 41.0625 55.515625 
z
" id="BitstreamVeraSans-Roman-72"/>
      <path d="M 45.40625 27.984375 
Q 45.40625 37.75 41.375 43.109375 
Q 37.359375 48.484375 30.078125 48.484375 
Q 22.859375 48.484375 18.828125 43.109375 
Q 14.796875 37.75 14.796875 27.984375 
Q 14.796875 18.265625 18.828125 12.890625 
Q 22.859375 7.515625 30.078125 7.515625 
Q 37.359375 7.515625 41.375 12.890625 
Q 45.40625 18.265625 45.40625 27.984375 
M 54.390625 6.78125 
Q 54.390625 -7.171875 48.1875 -13.984375 
Q 42 -20.796875 29.203125 -20.796875 
Q 24.46875 -20.796875 20.265625 -20.09375 
Q 16.0625 -19.390625 12.109375 -17.921875 
L 12.109375 -9.1875 
Q 16.0625 -11.328125 19.921875 -12.34375 
Q 23.78125 -13.375 27.78125 -13.375 
Q 36.625 -13.375 41.015625 -8.765625 
Q 45.40625 -4.15625 45.40625 5.171875 
L 45.40625 9.625 
Q 42.625 4.78125 38.28125 2.390625 
Q 33.9375 0 27.875 0 
Q 17.828125 0 11.671875 7.65625 
Q 5.515625 15.328125 5.515625 27.984375 
Q 5.515625 40.671875 11.671875 48.328125 
Q 17.828125 56 27.875 56 
Q 33.9375 56 38.28125 53.609375 
Q 42.625 51.21875 45.40625 46.390625 
L 45.40625 54.6875 
L 54.390625 54.6875 
z
" id="BitstreamVeraSans-Roman-67"/>
      <path d="M 54.890625 33.015625 
L 54.890625 0 
L 45.90625 0 
L 45.90625 32.71875 
Q 45.90625 40.484375 42.875 44.328125 
Q 39.84375 48.1875 33.796875 48.1875 
Q 26.515625 48.1875 22.3125 43.546875 
Q 18.109375 38.921875 18.109375 30.90625 
L 18.109375 0 
L 9.078125 0 
L 9.078125 54.6875 
L 18.109375 54.6875 
L 18.109375 46.1875 
Q 21.34375 51.125 25.703125 53.5625 
Q 30.078125 56 35.796875 56 
Q 45.21875 56 50.046875 50.171875 
Q 54.890625 44.34375 54.890625 33.015625 
" id="BitstreamVeraSans-Roman-6e"/>
      <path id="BitstreamVeraSans-Roman-20"/>
     </defs>
     <g transform="translate(431.75625 68.22125)scale(0.08 -0.08)">
      <use xlink:href="#BitstreamVeraSans-Roman-4d"/>
      <use x="86.279296875" xlink:href="#BitstreamVeraSans-Roman-4d"/>
      <use x="172.55859375" xlink:href="#BitstreamVeraSans-Roman-20"/>
      <use x="204.345703125" xlink:href="#BitstreamVeraSans-Roman-4f"/>
      <use x="283.056640625" xlink:href="#BitstreamVeraSans-Roman-72"/>
      <use x="324.169921875" xlink:href="#BitstreamVeraSans-Roman-69"/>
      <use x="351.953125" xlink:href="#BitstreamVeraSans-Roman-67"/>
      <use x="415.4296875" xlink:href="#BitstreamVeraSans-Roman-69"/>
      <use x="443.212890625" xlink:href="#BitstreamVeraSans-Roman-6e"/>
      <use x="506.591796875" xlink:href="#BitstreamVeraSans-Roman-61"/>
      <use x="567.87109375" xlink:href="#BitstreamVeraSans-Roman-6c"/>
     </g>
    </g>
    <g id="line2d_44">
     <path d="M 411.75625 77.16375 
L 422.95625 77.16375 
" style="fill:none;stroke:#000000;stroke-linecap:square;"/>
    </g>
    <g id="line2d_45">
     <g>
      <use style="stroke:#000000;stroke-width:0.5;" x="411.75625" xlink:href="#m384534406c" y="77.16375"/>
      <use style="stroke:#000000;stroke-width:0.5;" x="422.95625" xlink:href="#m384534406c" y="77.16375"/>
     </g>
    </g>
    <g id="text_23">
     <!-- MM With phi zeroed -->
     <defs>
      <path d="M 56.203125 29.59375 
L 56.203125 25.203125 
L 14.890625 25.203125 
Q 15.484375 15.921875 20.484375 11.0625 
Q 25.484375 6.203125 34.421875 6.203125 
Q 39.59375 6.203125 44.453125 7.46875 
Q 49.3125 8.734375 54.109375 11.28125 
L 54.109375 2.78125 
Q 49.265625 0.734375 44.1875 -0.34375 
Q 39.109375 -1.421875 33.890625 -1.421875 
Q 20.796875 -1.421875 13.15625 6.1875 
Q 5.515625 13.8125 5.515625 26.8125 
Q 5.515625 40.234375 12.765625 48.109375 
Q 20.015625 56 32.328125 56 
Q 43.359375 56 49.78125 48.890625 
Q 56.203125 41.796875 56.203125 29.59375 
M 47.21875 32.234375 
Q 47.125 39.59375 43.09375 43.984375 
Q 39.0625 48.390625 32.421875 48.390625 
Q 24.90625 48.390625 20.390625 44.140625 
Q 15.875 39.890625 15.1875 32.171875 
z
" id="BitstreamVeraSans-Roman-65"/>
      <path d="M 18.3125 70.21875 
L 18.3125 54.6875 
L 36.8125 54.6875 
L 36.8125 47.703125 
L 18.3125 47.703125 
L 18.3125 18.015625 
Q 18.3125 11.328125 20.140625 9.421875 
Q 21.96875 7.515625 27.59375 7.515625 
L 36.8125 7.515625 
L 36.8125 0 
L 27.59375 0 
Q 17.1875 0 13.234375 3.875 
Q 9.28125 7.765625 9.28125 18.015625 
L 9.28125 47.703125 
L 2.6875 47.703125 
L 2.6875 54.6875 
L 9.28125 54.6875 
L 9.28125 70.21875 
z
" id="BitstreamVeraSans-Roman-74"/>
      <path d="M 45.40625 46.390625 
L 45.40625 75.984375 
L 54.390625 75.984375 
L 54.390625 0 
L 45.40625 0 
L 45.40625 8.203125 
Q 42.578125 3.328125 38.25 0.953125 
Q 33.9375 -1.421875 27.875 -1.421875 
Q 17.96875 -1.421875 11.734375 6.484375 
Q 5.515625 14.40625 5.515625 27.296875 
Q 5.515625 40.1875 11.734375 48.09375 
Q 17.96875 56 27.875 56 
Q 33.9375 56 38.25 53.625 
Q 42.578125 51.265625 45.40625 46.390625 
M 14.796875 27.296875 
Q 14.796875 17.390625 18.875 11.75 
Q 22.953125 6.109375 30.078125 6.109375 
Q 37.203125 6.109375 41.296875 11.75 
Q 45.40625 17.390625 45.40625 27.296875 
Q 45.40625 37.203125 41.296875 42.84375 
Q 37.203125 48.484375 30.078125 48.484375 
Q 22.953125 48.484375 18.875 42.84375 
Q 14.796875 37.203125 14.796875 27.296875 
" id="BitstreamVeraSans-Roman-64"/>
      <path d="M 5.515625 54.6875 
L 48.1875 54.6875 
L 48.1875 46.484375 
L 14.40625 7.171875 
L 48.1875 7.171875 
L 48.1875 0 
L 4.296875 0 
L 4.296875 8.203125 
L 38.09375 47.515625 
L 5.515625 47.515625 
z
" id="BitstreamVeraSans-Roman-7a"/>
      <path d="M 3.328125 72.90625 
L 13.28125 72.90625 
L 28.609375 11.28125 
L 43.890625 72.90625 
L 54.984375 72.90625 
L 70.3125 11.28125 
L 85.59375 72.90625 
L 95.609375 72.90625 
L 77.296875 0 
L 64.890625 0 
L 49.515625 63.28125 
L 33.984375 0 
L 21.578125 0 
z
" id="BitstreamVeraSans-Roman-57"/>
      <path d="M 18.109375 8.203125 
L 18.109375 -20.796875 
L 9.078125 -20.796875 
L 9.078125 54.6875 
L 18.109375 54.6875 
L 18.109375 46.390625 
Q 20.953125 51.265625 25.265625 53.625 
Q 29.59375 56 35.59375 56 
Q 45.5625 56 51.78125 48.09375 
Q 58.015625 40.1875 58.015625 27.296875 
Q 58.015625 14.40625 51.78125 6.484375 
Q 45.5625 -1.421875 35.59375 -1.421875 
Q 29.59375 -1.421875 25.265625 0.953125 
Q 20.953125 3.328125 18.109375 8.203125 
M 48.6875 27.296875 
Q 48.6875 37.203125 44.609375 42.84375 
Q 40.53125 48.484375 33.40625 48.484375 
Q 26.265625 48.484375 22.1875 42.84375 
Q 18.109375 37.203125 18.109375 27.296875 
Q 18.109375 17.390625 22.1875 11.75 
Q 26.265625 6.109375 33.40625 6.109375 
Q 40.53125 6.109375 44.609375 11.75 
Q 48.6875 17.390625 48.6875 27.296875 
" id="BitstreamVeraSans-Roman-70"/>
     </defs>
     <g transform="translate(431.75625 79.96375)scale(0.08 -0.08)">
      <use xlink:href="#BitstreamVeraSans-Roman-4d"/>
      <use x="86.279296875" xlink:href="#BitstreamVeraSans-Roman-4d"/>
      <use x="172.55859375" xlink:href="#BitstreamVeraSans-Roman-20"/>
      <use x="204.345703125" xlink:href="#BitstreamVeraSans-Roman-57"/>
      <use x="303.19140625" xlink:href="#BitstreamVeraSans-Roman-69"/>
      <use x="330.974609375" xlink:href="#BitstreamVeraSans-Roman-74"/>
      <use x="370.18359375" xlink:href="#BitstreamVeraSans-Roman-68"/>
      <use x="433.5625" xlink:href="#BitstreamVeraSans-Roman-20"/>
      <use x="465.349609375" xlink:href="#BitstreamVeraSans-Roman-70"/>
      <use x="528.826171875" xlink:href="#BitstreamVeraSans-Roman-68"/>
      <use x="592.205078125" xlink:href="#BitstreamVeraSans-Roman-69"/>
      <use x="619.98828125" xlink:href="#BitstreamVeraSans-Roman-20"/>
      <use x="651.775390625" xlink:href="#BitstreamVeraSans-Roman-7a"/>
      <use x="704.265625" xlink:href="#BitstreamVeraSans-Roman-65"/>
      <use x="765.7890625" xlink:href="#BitstreamVeraSans-Roman-72"/>
      <use x="806.87109375" xlink:href="#BitstreamVeraSans-Roman-6f"/>
      <use x="868.052734375" xlink:href="#BitstreamVeraSans-Roman-65"/>
      <use x="929.576171875" xlink:href="#BitstreamVeraSans-Roman-64"/>
     </g>
    </g>
    <g id="line2d_46">
     <path d="M 411.75625 88.90625 
L 422.95625 88.90625 
" style="fill:none;stroke:#ff00ff;stroke-linecap:square;"/>
    </g>
    <g id="line2d_47">
     <g>
      <use style="fill:#ff00ff;stroke:#ff00ff;stroke-width:0.5;" x="411.75625" xlink:href="#m3f14037abe" y="88.90625"/>
      <use style="fill:#ff00ff;stroke:#ff00ff;stroke-width:0.5;" x="422.95625" xlink:href="#m3f14037abe" y="88.90625"/>
     </g>
    </g>
    <g id="text_24">
     <!-- QM-MM target -->
     <g transform="translate(431.75625 91.70625)scale(0.08 -0.08)">
      <use xlink:href="#BitstreamVeraSans-Roman-51"/>
      <use x="78.7109375" xlink:href="#BitstreamVeraSans-Roman-4d"/>
      <use x="164.990234375" xlink:href="#BitstreamVeraSans-Roman-2d"/>
      <use x="201.07421875" xlink:href="#BitstreamVeraSans-Roman-4d"/>
      <use x="287.353515625" xlink:href="#BitstreamVeraSans-Roman-4d"/>
      <use x="373.6328125" xlink:href="#BitstreamVeraSans-Roman-20"/>
      <use x="405.419921875" xlink:href="#BitstreamVeraSans-Roman-74"/>
      <use x="444.62890625" xlink:href="#BitstreamVeraSans-Roman-61"/>
      <use x="505.908203125" xlink:href="#BitstreamVeraSans-Roman-72"/>
      <use x="547.005859375" xlink:href="#BitstreamVeraSans-Roman-67"/>
      <use x="610.482421875" xlink:href="#BitstreamVeraSans-Roman-65"/>
      <use x="672.005859375" xlink:href="#BitstreamVeraSans-Roman-74"/>
     </g>
    </g>
    <g id="line2d_48">
     <path d="M 411.75625 100.64875 
L 422.95625 100.64875 
" style="fill:none;stroke:#008000;stroke-linecap:square;"/>
    </g>
    <g id="line2d_49">
     <g>
      <use style="fill:#008000;stroke:#000000;stroke-width:0.5;" x="411.75625" xlink:href="#mfde699f199" y="100.64875"/>
      <use style="fill:#008000;stroke:#000000;stroke-width:0.5;" x="422.95625" xlink:href="#mfde699f199" y="100.64875"/>
     </g>
    </g>
    <g id="text_25">
     <!-- MM Fitted -->
     <defs>
      <path d="M 9.8125 72.90625 
L 51.703125 72.90625 
L 51.703125 64.59375 
L 19.671875 64.59375 
L 19.671875 43.109375 
L 48.578125 43.109375 
L 48.578125 34.8125 
L 19.671875 34.8125 
L 19.671875 0 
L 9.8125 0 
z
" id="BitstreamVeraSans-Roman-46"/>
     </defs>
     <g transform="translate(431.75625 103.44875)scale(0.08 -0.08)">
      <use xlink:href="#BitstreamVeraSans-Roman-4d"/>
      <use x="86.279296875" xlink:href="#BitstreamVeraSans-Roman-4d"/>
      <use x="172.55859375" xlink:href="#BitstreamVeraSans-Roman-20"/>
      <use x="204.345703125" xlink:href="#BitstreamVeraSans-Roman-46"/>
      <use x="261.755859375" xlink:href="#BitstreamVeraSans-Roman-69"/>
      <use x="289.5390625" xlink:href="#BitstreamVeraSans-Roman-74"/>
      <use x="328.748046875" xlink:href="#BitstreamVeraSans-Roman-74"/>
      <use x="367.95703125" xlink:href="#BitstreamVeraSans-Roman-65"/>
      <use x="429.48046875" xlink:href="#BitstreamVeraSans-Roman-64"/>
     </g>
    </g>
   </g>
  </g>
 </g>
 <defs>
  <clipPath id="pde18fad488">
   <rect height="345.6" width="446.4" x="72.0" y="43.2"/>
  </clipPath>
 </defs>
</svg>
