<?xml version="1.0" encoding="utf-8" standalone="no"?>
<!DOCTYPE svg PUBLIC "-//W3C//DTD SVG 1.1//EN"
  "http://www.w3.org/Graphics/SVG/1.1/DTD/svg11.dtd">
<!-- Created with matplotlib (http://matplotlib.org/) -->
<svg height="432pt" version="1.1" viewBox="0 0 576 432" width="576pt" xmlns="http://www.w3.org/2000/svg" xmlns:xlink="http://www.w3.org/1999/xlink">
 <defs>
  <style type="text/css">
*{stroke-linecap:butt;stroke-linejoin:round;stroke-miterlimit:100000;}
  </style>
 </defs>
 <g id="figure_1">
  <g id="patch_1">
   <path d="M 0 432 
L 576 432 
L 576 0 
L 0 0 
z
" style="fill:#ffffff;"/>
  </g>
  <g id="axes_1">
   <g id="patch_2">
    <path d="M 72 388.8 
L 518.4 388.8 
L 518.4 43.2 
L 72 43.2 
z
" style="fill:#ffffff;"/>
   </g>
   <g id="line2d_1">
    <path clip-path="url(#p3f7dd5bb23)" d="M 71.999382 388.8 
L 84.400016 364.860058 
L 96.800026 302.018684 
L 109.200054 216.363465 
L 121.600048 129.97812 
L 134.000021 66.25235 
L 146.400031 43.825587 
L 158.800012 70.047812 
L 171.199991 137.259826 
L 183.600016 225.737033 
L 195.999988 310.968186 
L 208.399999 370.330695 
L 220.800006 388.571912 
L 233.2 361.425066 
L 245.599959 296.456139 
L 257.999997 210.944429 
L 270.39996 127.057412 
L 282.800003 66.095162 
L 295.200853 43.774689 
L 307.599962 66.394789 
L 319.999973 128.491457 
L 332.39996 213.977701 
L 344.8 300.255351 
L 357.199979 364.183084 
L 369.599995 388.758917 
L 381.999968 367.861314 
L 394.399971 307.230393 
L 406.800006 222.47175 
L 419.199987 135.438508 
L 431.600008 69.468272 
L 444.000006 43.793442 
L 456.400026 66.808647 
L 468.800027 131.8309 
L 481.200037 219.734379 
L 493.600006 305.96044 
L 506.000053 367.513935 
" style="fill:none;stroke:#ff0000;stroke-linecap:square;"/>
    <defs>
     <path d="M 0 3 
C 0.795609 3 1.55874 2.683901 2.12132 2.12132 
C 2.683901 1.55874 3 0.795609 3 0 
C 3 -0.795609 2.683901 -1.55874 2.12132 -2.12132 
C 1.55874 -2.683901 0.795609 -3 0 -3 
C -0.795609 -3 -1.55874 -2.683901 -2.12132 -2.12132 
C -2.683901 -1.55874 -3 -0.795609 -3 0 
C -3 0.795609 -2.683901 1.55874 -2.12132 2.12132 
C -1.55874 2.683901 -0.795609 3 0 3 
z
" id="m8ee814a734" style="stroke:#000000;stroke-width:0.5;"/>
    </defs>
    <g clip-path="url(#p3f7dd5bb23)">
     <use style="fill:#ff0000;stroke:#000000;stroke-width:0.5;" x="71.9993818692" xlink:href="#m8ee814a734" y="388.8"/>
     <use style="fill:#ff0000;stroke:#000000;stroke-width:0.5;" x="84.4000160493" xlink:href="#m8ee814a734" y="364.860057882"/>
     <use style="fill:#ff0000;stroke:#000000;stroke-width:0.5;" x="96.8000262258" xlink:href="#m8ee814a734" y="302.018684209"/>
     <use style="fill:#ff0000;stroke:#000000;stroke-width:0.5;" x="109.2000544" xlink:href="#m8ee814a734" y="216.363464921"/>
     <use style="fill:#ff0000;stroke:#000000;stroke-width:0.5;" x="121.600047708" xlink:href="#m8ee814a734" y="129.978119925"/>
     <use style="fill:#ff0000;stroke:#000000;stroke-width:0.5;" x="134.000020617" xlink:href="#m8ee814a734" y="66.2523498049"/>
     <use style="fill:#ff0000;stroke:#000000;stroke-width:0.5;" x="146.400030552" xlink:href="#m8ee814a734" y="43.8255871882"/>
     <use style="fill:#ff0000;stroke:#000000;stroke-width:0.5;" x="158.800011601" xlink:href="#m8ee814a734" y="70.0478122115"/>
     <use style="fill:#ff0000;stroke:#000000;stroke-width:0.5;" x="171.199990781" xlink:href="#m8ee814a734" y="137.259825723"/>
     <use style="fill:#ff0000;stroke:#000000;stroke-width:0.5;" x="183.600016455" xlink:href="#m8ee814a734" y="225.737032541"/>
     <use style="fill:#ff0000;stroke:#000000;stroke-width:0.5;" x="195.999987892" xlink:href="#m8ee814a734" y="310.968185821"/>
     <use style="fill:#ff0000;stroke:#000000;stroke-width:0.5;" x="208.399999259" xlink:href="#m8ee814a734" y="370.330695447"/>
     <use style="fill:#ff0000;stroke:#000000;stroke-width:0.5;" x="220.800005639" xlink:href="#m8ee814a734" y="388.571911593"/>
     <use style="fill:#ff0000;stroke:#000000;stroke-width:0.5;" x="233.200000086" xlink:href="#m8ee814a734" y="361.425065751"/>
     <use style="fill:#ff0000;stroke:#000000;stroke-width:0.5;" x="245.599959335" xlink:href="#m8ee814a734" y="296.456138504"/>
     <use style="fill:#ff0000;stroke:#000000;stroke-width:0.5;" x="257.999996541" xlink:href="#m8ee814a734" y="210.944429216"/>
     <use style="fill:#ff0000;stroke:#000000;stroke-width:0.5;" x="270.399959703" xlink:href="#m8ee814a734" y="127.057411703"/>
     <use style="fill:#ff0000;stroke:#000000;stroke-width:0.5;" x="282.800002626" xlink:href="#m8ee814a734" y="66.0951620395"/>
     <use style="fill:#ff0000;stroke:#000000;stroke-width:0.5;" x="295.200852979" xlink:href="#m8ee814a734" y="43.7746893874"/>
     <use style="fill:#ff0000;stroke:#000000;stroke-width:0.5;" x="307.59996184" xlink:href="#m8ee814a734" y="66.3947888272"/>
     <use style="fill:#ff0000;stroke:#000000;stroke-width:0.5;" x="319.999972684" xlink:href="#m8ee814a734" y="128.491457455"/>
     <use style="fill:#ff0000;stroke:#000000;stroke-width:0.5;" x="332.399959726" xlink:href="#m8ee814a734" y="213.977701373"/>
     <use style="fill:#ff0000;stroke:#000000;stroke-width:0.5;" x="344.800000313" xlink:href="#m8ee814a734" y="300.255350659"/>
     <use style="fill:#ff0000;stroke:#000000;stroke-width:0.5;" x="357.199978513" xlink:href="#m8ee814a734" y="364.183084125"/>
     <use style="fill:#ff0000;stroke:#000000;stroke-width:0.5;" x="369.599995019" xlink:href="#m8ee814a734" y="388.758917338"/>
     <use style="fill:#ff0000;stroke:#000000;stroke-width:0.5;" x="381.99996788" xlink:href="#m8ee814a734" y="367.861314224"/>
     <use style="fill:#ff0000;stroke:#000000;stroke-width:0.5;" x="394.399971397" xlink:href="#m8ee814a734" y="307.230393176"/>
     <use style="fill:#ff0000;stroke:#000000;stroke-width:0.5;" x="406.800006157" xlink:href="#m8ee814a734" y="222.471750381"/>
     <use style="fill:#ff0000;stroke:#000000;stroke-width:0.5;" x="419.199986994" xlink:href="#m8ee814a734" y="135.438507607"/>
     <use style="fill:#ff0000;stroke:#000000;stroke-width:0.5;" x="431.600007787" xlink:href="#m8ee814a734" y="69.4682724582"/>
     <use style="fill:#ff0000;stroke:#000000;stroke-width:0.5;" x="444.000006097" xlink:href="#m8ee814a734" y="43.7934417661"/>
     <use style="fill:#ff0000;stroke:#000000;stroke-width:0.5;" x="456.400026413" xlink:href="#m8ee814a734" y="66.8086472864"/>
     <use style="fill:#ff0000;stroke:#000000;stroke-width:0.5;" x="468.800026861" xlink:href="#m8ee814a734" y="131.830900239"/>
     <use style="fill:#ff0000;stroke:#000000;stroke-width:0.5;" x="481.20003749" xlink:href="#m8ee814a734" y="219.734379044"/>
     <use style="fill:#ff0000;stroke:#000000;stroke-width:0.5;" x="493.6000062" xlink:href="#m8ee814a734" y="305.96044043"/>
     <use style="fill:#ff0000;stroke:#000000;stroke-width:0.5;" x="506.000053259" xlink:href="#m8ee814a734" y="367.513935493"/>
    </g>
   </g>
   <g id="line2d_2">
    <path clip-path="url(#p3f7dd5bb23)" d="M 71.999382 388.8 
L 84.400016 363.316119 
L 96.800026 297.216641 
L 109.200054 208.057994 
L 121.600048 120.079908 
L 134.000021 60.614035 
L 146.400031 46.643275 
L 158.800012 80.203379 
L 171.199991 150.382309 
L 183.600016 236.963289 
L 195.999988 318.537513 
L 208.399999 373.685794 
L 220.800006 388.47649 
L 233.2 358.100627 
L 245.599959 290.843786 
L 257.999997 203.289237 
L 270.39996 118.751139 
L 282.800003 61.933904 
L 295.200853 46.110102 
L 307.599962 73.211278 
L 319.999973 136.275179 
L 332.39996 219.800043 
L 344.8 302.827101 
L 357.199979 364.044783 
L 369.599995 387.630859 
L 381.999968 367.037114 
L 394.399971 306.645683 
L 406.800006 221.290492 
L 419.199987 132.754593 
L 431.600008 68.277499 
L 444.000006 46.187164 
L 456.400026 71.100236 
L 468.800027 136.220208 
L 481.200037 223.035153 
L 493.600006 308.847835 
L 506.000053 368.780536 
" style="fill:none;stroke:#0000ff;stroke-linecap:square;"/>
    <defs>
     <path d="M 0 3 
C 0.795609 3 1.55874 2.683901 2.12132 2.12132 
C 2.683901 1.55874 3 0.795609 3 0 
C 3 -0.795609 2.683901 -1.55874 2.12132 -2.12132 
C 1.55874 -2.683901 0.795609 -3 0 -3 
C -0.795609 -3 -1.55874 -2.683901 -2.12132 -2.12132 
C -2.683901 -1.55874 -3 -0.795609 -3 0 
C -3 0.795609 -2.683901 1.55874 -2.12132 2.12132 
C -1.55874 2.683901 -0.795609 3 0 3 
z
" id="mf808736ff6" style="stroke:#000000;stroke-width:0.5;"/>
    </defs>
    <g clip-path="url(#p3f7dd5bb23)">
     <use style="fill:#0000ff;stroke:#000000;stroke-width:0.5;" x="71.9993818692" xlink:href="#mf808736ff6" y="388.8"/>
     <use style="fill:#0000ff;stroke:#000000;stroke-width:0.5;" x="84.4000160493" xlink:href="#mf808736ff6" y="363.316119016"/>
     <use style="fill:#0000ff;stroke:#000000;stroke-width:0.5;" x="96.8000262258" xlink:href="#mf808736ff6" y="297.216640506"/>
     <use style="fill:#0000ff;stroke:#000000;stroke-width:0.5;" x="109.2000544" xlink:href="#mf808736ff6" y="208.057994015"/>
     <use style="fill:#0000ff;stroke:#000000;stroke-width:0.5;" x="121.600047708" xlink:href="#mf808736ff6" y="120.079907781"/>
     <use style="fill:#0000ff;stroke:#000000;stroke-width:0.5;" x="134.000020617" xlink:href="#mf808736ff6" y="60.6140348763"/>
     <use style="fill:#0000ff;stroke:#000000;stroke-width:0.5;" x="146.400030552" xlink:href="#mf808736ff6" y="46.6432751179"/>
     <use style="fill:#0000ff;stroke:#000000;stroke-width:0.5;" x="158.800011601" xlink:href="#mf808736ff6" y="80.2033788253"/>
     <use style="fill:#0000ff;stroke:#000000;stroke-width:0.5;" x="171.199990781" xlink:href="#mf808736ff6" y="150.382309378"/>
     <use style="fill:#0000ff;stroke:#000000;stroke-width:0.5;" x="183.600016455" xlink:href="#mf808736ff6" y="236.963288836"/>
     <use style="fill:#0000ff;stroke:#000000;stroke-width:0.5;" x="195.999987892" xlink:href="#mf808736ff6" y="318.537513225"/>
     <use style="fill:#0000ff;stroke:#000000;stroke-width:0.5;" x="208.399999259" xlink:href="#mf808736ff6" y="373.685793991"/>
     <use style="fill:#0000ff;stroke:#000000;stroke-width:0.5;" x="220.800005639" xlink:href="#mf808736ff6" y="388.476489557"/>
     <use style="fill:#0000ff;stroke:#000000;stroke-width:0.5;" x="233.200000086" xlink:href="#mf808736ff6" y="358.100626905"/>
     <use style="fill:#0000ff;stroke:#000000;stroke-width:0.5;" x="245.599959335" xlink:href="#mf808736ff6" y="290.843785541"/>
     <use style="fill:#0000ff;stroke:#000000;stroke-width:0.5;" x="257.999996541" xlink:href="#mf808736ff6" y="203.289236585"/>
     <use style="fill:#0000ff;stroke:#000000;stroke-width:0.5;" x="270.399959703" xlink:href="#mf808736ff6" y="118.751139105"/>
     <use style="fill:#0000ff;stroke:#000000;stroke-width:0.5;" x="282.800002626" xlink:href="#mf808736ff6" y="61.9339039227"/>
     <use style="fill:#0000ff;stroke:#000000;stroke-width:0.5;" x="295.200852979" xlink:href="#mf808736ff6" y="46.1101015923"/>
     <use style="fill:#0000ff;stroke:#000000;stroke-width:0.5;" x="307.59996184" xlink:href="#mf808736ff6" y="73.2112776387"/>
     <use style="fill:#0000ff;stroke:#000000;stroke-width:0.5;" x="319.999972684" xlink:href="#mf808736ff6" y="136.275179109"/>
     <use style="fill:#0000ff;stroke:#000000;stroke-width:0.5;" x="332.399959726" xlink:href="#mf808736ff6" y="219.800043011"/>
     <use style="fill:#0000ff;stroke:#000000;stroke-width:0.5;" x="344.800000313" xlink:href="#mf808736ff6" y="302.82710117"/>
     <use style="fill:#0000ff;stroke:#000000;stroke-width:0.5;" x="357.199978513" xlink:href="#mf808736ff6" y="364.044783232"/>
     <use style="fill:#0000ff;stroke:#000000;stroke-width:0.5;" x="369.599995019" xlink:href="#mf808736ff6" y="387.630858609"/>
     <use style="fill:#0000ff;stroke:#000000;stroke-width:0.5;" x="381.99996788" xlink:href="#mf808736ff6" y="367.037114161"/>
     <use style="fill:#0000ff;stroke:#000000;stroke-width:0.5;" x="394.399971397" xlink:href="#mf808736ff6" y="306.645682815"/>
     <use style="fill:#0000ff;stroke:#000000;stroke-width:0.5;" x="406.800006157" xlink:href="#mf808736ff6" y="221.290492139"/>
     <use style="fill:#0000ff;stroke:#000000;stroke-width:0.5;" x="419.199986994" xlink:href="#mf808736ff6" y="132.754593346"/>
     <use style="fill:#0000ff;stroke:#000000;stroke-width:0.5;" x="431.600007787" xlink:href="#mf808736ff6" y="68.2774985839"/>
     <use style="fill:#0000ff;stroke:#000000;stroke-width:0.5;" x="444.000006097" xlink:href="#mf808736ff6" y="46.1871641333"/>
     <use style="fill:#0000ff;stroke:#000000;stroke-width:0.5;" x="456.400026413" xlink:href="#mf808736ff6" y="71.1002357849"/>
     <use style="fill:#0000ff;stroke:#000000;stroke-width:0.5;" x="468.800026861" xlink:href="#mf808736ff6" y="136.220207981"/>
     <use style="fill:#0000ff;stroke:#000000;stroke-width:0.5;" x="481.20003749" xlink:href="#mf808736ff6" y="223.035153035"/>
     <use style="fill:#0000ff;stroke:#000000;stroke-width:0.5;" x="493.6000062" xlink:href="#mf808736ff6" y="308.847835063"/>
     <use style="fill:#0000ff;stroke:#000000;stroke-width:0.5;" x="506.000053259" xlink:href="#mf808736ff6" y="368.780536496"/>
    </g>
   </g>
   <g id="line2d_3">
    <path clip-path="url(#p3f7dd5bb23)" d="M 71.999382 388.8 
L 84.400016 377.834847 
L 96.800026 352.39014 
L 109.200054 320.981364 
L 121.600048 293.417623 
L 134.000021 279.73504 
L 146.400031 282.114185 
L 158.800012 296.874947 
L 171.199991 319.682928 
L 183.600016 345.523092 
L 195.999988 370.267467 
L 208.399999 386.376369 
L 220.800006 388.539083 
L 233.2 374.70334 
L 245.599959 349.596599 
L 257.999997 319.881226 
L 270.39996 294.215961 
L 282.800003 281.195891 
L 295.200853 281.605037 
L 307.599962 292.603213 
L 319.999973 311.887371 
L 332.39996 336.502995 
L 344.8 361.642697 
L 357.199979 380.7216 
L 369.599995 387.706753 
L 381.999968 379.659654 
L 394.399971 358.324339 
L 406.800006 329.869657 
L 419.199987 302.141439 
L 431.600008 285.020529 
L 444.000006 281.658352 
L 456.400026 290.159878 
L 468.800027 309.421578 
L 481.200037 335.839751 
L 493.600006 363.985075 
L 506.000053 383.341625 
" style="fill:none;stroke:#000000;stroke-linecap:square;"/>
    <defs>
     <path d="M -3 3 
L 3 -3 
M -3 -3 
L 3 3 
" id="mffd7d73c84" style="stroke:#000000;stroke-width:0.5;"/>
    </defs>
    <g clip-path="url(#p3f7dd5bb23)">
     <use style="stroke:#000000;stroke-width:0.5;" x="71.9993818692" xlink:href="#mffd7d73c84" y="388.8"/>
     <use style="stroke:#000000;stroke-width:0.5;" x="84.4000160493" xlink:href="#mffd7d73c84" y="377.834846847"/>
     <use style="stroke:#000000;stroke-width:0.5;" x="96.8000262258" xlink:href="#mffd7d73c84" y="352.390139976"/>
     <use style="stroke:#000000;stroke-width:0.5;" x="109.2000544" xlink:href="#mffd7d73c84" y="320.98136379"/>
     <use style="stroke:#000000;stroke-width:0.5;" x="121.600047708" xlink:href="#mffd7d73c84" y="293.417623317"/>
     <use style="stroke:#000000;stroke-width:0.5;" x="134.000020617" xlink:href="#mffd7d73c84" y="279.735039624"/>
     <use style="stroke:#000000;stroke-width:0.5;" x="146.400030552" xlink:href="#mffd7d73c84" y="282.114185021"/>
     <use style="stroke:#000000;stroke-width:0.5;" x="158.800011601" xlink:href="#mffd7d73c84" y="296.874946899"/>
     <use style="stroke:#000000;stroke-width:0.5;" x="171.199990781" xlink:href="#mffd7d73c84" y="319.682927938"/>
     <use style="stroke:#000000;stroke-width:0.5;" x="183.600016455" xlink:href="#mffd7d73c84" y="345.523091637"/>
     <use style="stroke:#000000;stroke-width:0.5;" x="195.999987892" xlink:href="#mffd7d73c84" y="370.267467041"/>
     <use style="stroke:#000000;stroke-width:0.5;" x="208.399999259" xlink:href="#mffd7d73c84" y="386.37636917"/>
     <use style="stroke:#000000;stroke-width:0.5;" x="220.800005639" xlink:href="#mffd7d73c84" y="388.539083298"/>
     <use style="stroke:#000000;stroke-width:0.5;" x="233.200000086" xlink:href="#mffd7d73c84" y="374.703339618"/>
     <use style="stroke:#000000;stroke-width:0.5;" x="245.599959335" xlink:href="#mffd7d73c84" y="349.596598667"/>
     <use style="stroke:#000000;stroke-width:0.5;" x="257.999996541" xlink:href="#mffd7d73c84" y="319.881225966"/>
     <use style="stroke:#000000;stroke-width:0.5;" x="270.399959703" xlink:href="#mffd7d73c84" y="294.215961176"/>
     <use style="stroke:#000000;stroke-width:0.5;" x="282.800002626" xlink:href="#mffd7d73c84" y="281.195891162"/>
     <use style="stroke:#000000;stroke-width:0.5;" x="295.200852979" xlink:href="#mffd7d73c84" y="281.605036939"/>
     <use style="stroke:#000000;stroke-width:0.5;" x="307.59996184" xlink:href="#mffd7d73c84" y="292.603213279"/>
     <use style="stroke:#000000;stroke-width:0.5;" x="319.999972684" xlink:href="#mffd7d73c84" y="311.887370659"/>
     <use style="stroke:#000000;stroke-width:0.5;" x="332.399959726" xlink:href="#mffd7d73c84" y="336.502994727"/>
     <use style="stroke:#000000;stroke-width:0.5;" x="344.800000313" xlink:href="#mffd7d73c84" y="361.642696738"/>
     <use style="stroke:#000000;stroke-width:0.5;" x="357.199978513" xlink:href="#mffd7d73c84" y="380.721599992"/>
     <use style="stroke:#000000;stroke-width:0.5;" x="369.599995019" xlink:href="#mffd7d73c84" y="387.70675335"/>
     <use style="stroke:#000000;stroke-width:0.5;" x="381.99996788" xlink:href="#mffd7d73c84" y="379.659653894"/>
     <use style="stroke:#000000;stroke-width:0.5;" x="394.399971397" xlink:href="#mffd7d73c84" y="358.324339222"/>
     <use style="stroke:#000000;stroke-width:0.5;" x="406.800006157" xlink:href="#mffd7d73c84" y="329.869657209"/>
     <use style="stroke:#000000;stroke-width:0.5;" x="419.199986994" xlink:href="#mffd7d73c84" y="302.141439004"/>
     <use style="stroke:#000000;stroke-width:0.5;" x="431.600007787" xlink:href="#mffd7d73c84" y="285.020529464"/>
     <use style="stroke:#000000;stroke-width:0.5;" x="444.000006097" xlink:href="#mffd7d73c84" y="281.658351844"/>
     <use style="stroke:#000000;stroke-width:0.5;" x="456.400026413" xlink:href="#mffd7d73c84" y="290.159878069"/>
     <use style="stroke:#000000;stroke-width:0.5;" x="468.800026861" xlink:href="#mffd7d73c84" y="309.421577907"/>
     <use style="stroke:#000000;stroke-width:0.5;" x="481.20003749" xlink:href="#mffd7d73c84" y="335.839750823"/>
     <use style="stroke:#000000;stroke-width:0.5;" x="493.6000062" xlink:href="#mffd7d73c84" y="363.985074907"/>
     <use style="stroke:#000000;stroke-width:0.5;" x="506.000053259" xlink:href="#mffd7d73c84" y="383.341624884"/>
    </g>
   </g>
   <g id="line2d_4">
    <path clip-path="url(#p3f7dd5bb23)" d="M 71.999382 387.747836 
L 84.400016 374.773047 
L 96.800026 337.37638 
L 109.200054 283.129937 
L 121.600048 224.308333 
L 134.000021 174.265146 
L 146.400031 149.459238 
L 158.800012 160.920701 
L 171.199991 205.324734 
L 183.600016 267.961777 
L 195.999988 328.448555 
L 208.399999 371.702162 
L 220.800006 387.780664 
L 233.2 374.469562 
L 245.599959 334.607376 
L 257.999997 278.811039 
L 270.39996 220.589287 
L 282.800003 172.647107 
L 295.200853 149.917488 
L 307.599962 161.539412 
L 319.999973 204.351923 
L 332.39996 265.222543 
L 344.8 326.36049 
L 357.199979 371.20932 
L 369.599995 388.8 
L 381.999968 375.949496 
L 394.399971 336.65389 
L 406.800006 280.349929 
L 419.199987 221.044905 
L 431.600008 172.195579 
L 444.000006 149.882926 
L 456.400026 164.396605 
L 468.800027 210.157158 
L 481.200037 271.642464 
L 493.600006 329.723202 
L 506.000053 371.920147 
" style="fill:none;stroke:#ff00ff;stroke-linecap:square;"/>
    <defs>
     <path d="M -3 3 
L 3 -3 
M -3 -3 
L 3 3 
" id="m08861d317b" style="stroke:#ff00ff;stroke-width:0.5;"/>
    </defs>
    <g clip-path="url(#p3f7dd5bb23)">
     <use style="fill:#ff00ff;stroke:#ff00ff;stroke-width:0.5;" x="71.9993818692" xlink:href="#m08861d317b" y="387.747836012"/>
     <use style="fill:#ff00ff;stroke:#ff00ff;stroke-width:0.5;" x="84.4000160493" xlink:href="#m08861d317b" y="374.773047047"/>
     <use style="fill:#ff00ff;stroke:#ff00ff;stroke-width:0.5;" x="96.8000262258" xlink:href="#m08861d317b" y="337.376380245"/>
     <use style="fill:#ff00ff;stroke:#ff00ff;stroke-width:0.5;" x="109.2000544" xlink:href="#m08861d317b" y="283.129937143"/>
     <use style="fill:#ff00ff;stroke:#ff00ff;stroke-width:0.5;" x="121.600047708" xlink:href="#m08861d317b" y="224.30833262"/>
     <use style="fill:#ff00ff;stroke:#ff00ff;stroke-width:0.5;" x="134.000020617" xlink:href="#m08861d317b" y="174.265146193"/>
     <use style="fill:#ff00ff;stroke:#ff00ff;stroke-width:0.5;" x="146.400030552" xlink:href="#m08861d317b" y="149.459238179"/>
     <use style="fill:#ff00ff;stroke:#ff00ff;stroke-width:0.5;" x="158.800011601" xlink:href="#m08861d317b" y="160.920701325"/>
     <use style="fill:#ff00ff;stroke:#ff00ff;stroke-width:0.5;" x="171.199990781" xlink:href="#m08861d317b" y="205.324733797"/>
     <use style="fill:#ff00ff;stroke:#ff00ff;stroke-width:0.5;" x="183.600016455" xlink:href="#m08861d317b" y="267.961776916"/>
     <use style="fill:#ff00ff;stroke:#ff00ff;stroke-width:0.5;" x="195.999987892" xlink:href="#m08861d317b" y="328.448554792"/>
     <use style="fill:#ff00ff;stroke:#ff00ff;stroke-width:0.5;" x="208.399999259" xlink:href="#m08861d317b" y="371.702162289"/>
     <use style="fill:#ff00ff;stroke:#ff00ff;stroke-width:0.5;" x="220.800005639" xlink:href="#m08861d317b" y="387.780664307"/>
     <use style="fill:#ff00ff;stroke:#ff00ff;stroke-width:0.5;" x="233.200000086" xlink:href="#m08861d317b" y="374.469562145"/>
     <use style="fill:#ff00ff;stroke:#ff00ff;stroke-width:0.5;" x="245.599959335" xlink:href="#m08861d317b" y="334.60737585"/>
     <use style="fill:#ff00ff;stroke:#ff00ff;stroke-width:0.5;" x="257.999996541" xlink:href="#m08861d317b" y="278.811039262"/>
     <use style="fill:#ff00ff;stroke:#ff00ff;stroke-width:0.5;" x="270.399959703" xlink:href="#m08861d317b" y="220.589286539"/>
     <use style="fill:#ff00ff;stroke:#ff00ff;stroke-width:0.5;" x="282.800002626" xlink:href="#m08861d317b" y="172.647106889"/>
     <use style="fill:#ff00ff;stroke:#ff00ff;stroke-width:0.5;" x="295.200852979" xlink:href="#m08861d317b" y="149.917488461"/>
     <use style="fill:#ff00ff;stroke:#ff00ff;stroke-width:0.5;" x="307.59996184" xlink:href="#m08861d317b" y="161.539411561"/>
     <use style="fill:#ff00ff;stroke:#ff00ff;stroke-width:0.5;" x="319.999972684" xlink:href="#m08861d317b" y="204.351922808"/>
     <use style="fill:#ff00ff;stroke:#ff00ff;stroke-width:0.5;" x="332.399959726" xlink:href="#m08861d317b" y="265.222542658"/>
     <use style="fill:#ff00ff;stroke:#ff00ff;stroke-width:0.5;" x="344.800000313" xlink:href="#m08861d317b" y="326.360489933"/>
     <use style="fill:#ff00ff;stroke:#ff00ff;stroke-width:0.5;" x="357.199978513" xlink:href="#m08861d317b" y="371.209320145"/>
     <use style="fill:#ff00ff;stroke:#ff00ff;stroke-width:0.5;" x="369.599995019" xlink:href="#m08861d317b" y="388.8"/>
     <use style="fill:#ff00ff;stroke:#ff00ff;stroke-width:0.5;" x="381.99996788" xlink:href="#m08861d317b" y="375.949496343"/>
     <use style="fill:#ff00ff;stroke:#ff00ff;stroke-width:0.5;" x="394.399971397" xlink:href="#m08861d317b" y="336.653889966"/>
     <use style="fill:#ff00ff;stroke:#ff00ff;stroke-width:0.5;" x="406.800006157" xlink:href="#m08861d317b" y="280.349929184"/>
     <use style="fill:#ff00ff;stroke:#ff00ff;stroke-width:0.5;" x="419.199986994" xlink:href="#m08861d317b" y="221.044904615"/>
     <use style="fill:#ff00ff;stroke:#ff00ff;stroke-width:0.5;" x="431.600007787" xlink:href="#m08861d317b" y="172.195579006"/>
     <use style="fill:#ff00ff;stroke:#ff00ff;stroke-width:0.5;" x="444.000006097" xlink:href="#m08861d317b" y="149.882925934"/>
     <use style="fill:#ff00ff;stroke:#ff00ff;stroke-width:0.5;" x="456.400026413" xlink:href="#m08861d317b" y="164.39660523"/>
     <use style="fill:#ff00ff;stroke:#ff00ff;stroke-width:0.5;" x="468.800026861" xlink:href="#m08861d317b" y="210.157158344"/>
     <use style="fill:#ff00ff;stroke:#ff00ff;stroke-width:0.5;" x="481.20003749" xlink:href="#m08861d317b" y="271.642464234"/>
     <use style="fill:#ff00ff;stroke:#ff00ff;stroke-width:0.5;" x="493.6000062" xlink:href="#m08861d317b" y="329.723201535"/>
     <use style="fill:#ff00ff;stroke:#ff00ff;stroke-width:0.5;" x="506.000053259" xlink:href="#m08861d317b" y="371.920146621"/>
    </g>
   </g>
   <g id="line2d_5">
    <path clip-path="url(#p3f7dd5bb23)" d="M 71.999382 388.8 
L 84.400016 363.594738 
L 96.800026 298.258673 
L 109.200054 210.069713 
L 121.600048 122.237754 
L 134.000021 61.26429 
L 146.400031 44.439095 
L 158.800012 75.411394 
L 171.199991 144.68101 
L 183.600016 231.997793 
L 195.999988 315.224898 
L 208.399999 372.195722 
L 220.800006 388.691598 
L 233.2 359.480777 
L 245.599959 292.722301 
L 257.999997 204.651582 
L 270.39996 118.697559 
L 282.800003 60.457041 
L 295.200853 44.102488 
L 307.599962 71.798347 
L 319.999973 136.285264 
L 332.39996 221.1718 
L 344.8 304.715751 
L 357.199979 365.393618 
L 369.599995 387.69753 
L 381.999968 365.474043 
L 394.399971 303.315468 
L 406.800006 216.324816 
L 419.199987 127.108435 
L 431.600008 63.538905 
L 444.000006 43.842104 
L 456.400026 71.655518 
L 468.800027 138.356748 
L 481.200037 225.064573 
L 493.600006 309.953264 
L 506.000053 369.070097 
" style="fill:none;stroke:#008000;stroke-linecap:square;"/>
    <defs>
     <path d="M 0 3 
C 0.795609 3 1.55874 2.683901 2.12132 2.12132 
C 2.683901 1.55874 3 0.795609 3 0 
C 3 -0.795609 2.683901 -1.55874 2.12132 -2.12132 
C 1.55874 -2.683901 0.795609 -3 0 -3 
C -0.795609 -3 -1.55874 -2.683901 -2.12132 -2.12132 
C -2.683901 -1.55874 -3 -0.795609 -3 0 
C -3 0.795609 -2.683901 1.55874 -2.12132 2.12132 
C -1.55874 2.683901 -0.795609 3 0 3 
z
" id="m8253965cad" style="stroke:#000000;stroke-width:0.5;"/>
    </defs>
    <g clip-path="url(#p3f7dd5bb23)">
     <use style="fill:#008000;stroke:#000000;stroke-width:0.5;" x="71.9993818692" xlink:href="#m8253965cad" y="388.8"/>
     <use style="fill:#008000;stroke:#000000;stroke-width:0.5;" x="84.4000160493" xlink:href="#m8253965cad" y="363.594737594"/>
     <use style="fill:#008000;stroke:#000000;stroke-width:0.5;" x="96.8000262258" xlink:href="#m8253965cad" y="298.258672699"/>
     <use style="fill:#008000;stroke:#000000;stroke-width:0.5;" x="109.2000544" xlink:href="#m8253965cad" y="210.069713494"/>
     <use style="fill:#008000;stroke:#000000;stroke-width:0.5;" x="121.600047708" xlink:href="#m8253965cad" y="122.237753916"/>
     <use style="fill:#008000;stroke:#000000;stroke-width:0.5;" x="134.000020617" xlink:href="#m8253965cad" y="61.2642900173"/>
     <use style="fill:#008000;stroke:#000000;stroke-width:0.5;" x="146.400030552" xlink:href="#m8253965cad" y="44.4390954118"/>
     <use style="fill:#008000;stroke:#000000;stroke-width:0.5;" x="158.800011601" xlink:href="#m8253965cad" y="75.4113935169"/>
     <use style="fill:#008000;stroke:#000000;stroke-width:0.5;" x="171.199990781" xlink:href="#m8253965cad" y="144.681009717"/>
     <use style="fill:#008000;stroke:#000000;stroke-width:0.5;" x="183.600016455" xlink:href="#m8253965cad" y="231.997793196"/>
     <use style="fill:#008000;stroke:#000000;stroke-width:0.5;" x="195.999987892" xlink:href="#m8253965cad" y="315.224897622"/>
     <use style="fill:#008000;stroke:#000000;stroke-width:0.5;" x="208.399999259" xlink:href="#m8253965cad" y="372.195721735"/>
     <use style="fill:#008000;stroke:#000000;stroke-width:0.5;" x="220.800005639" xlink:href="#m8253965cad" y="388.691598121"/>
     <use style="fill:#008000;stroke:#000000;stroke-width:0.5;" x="233.200000086" xlink:href="#m8253965cad" y="359.480776956"/>
     <use style="fill:#008000;stroke:#000000;stroke-width:0.5;" x="245.599959335" xlink:href="#m8253965cad" y="292.722301284"/>
     <use style="fill:#008000;stroke:#000000;stroke-width:0.5;" x="257.999996541" xlink:href="#m8253965cad" y="204.651582182"/>
     <use style="fill:#008000;stroke:#000000;stroke-width:0.5;" x="270.399959703" xlink:href="#m8253965cad" y="118.697559047"/>
     <use style="fill:#008000;stroke:#000000;stroke-width:0.5;" x="282.800002626" xlink:href="#m8253965cad" y="60.4570410838"/>
     <use style="fill:#008000;stroke:#000000;stroke-width:0.5;" x="295.200852979" xlink:href="#m8253965cad" y="44.1024881325"/>
     <use style="fill:#008000;stroke:#000000;stroke-width:0.5;" x="307.59996184" xlink:href="#m8253965cad" y="71.7983465772"/>
     <use style="fill:#008000;stroke:#000000;stroke-width:0.5;" x="319.999972684" xlink:href="#m8253965cad" y="136.285264019"/>
     <use style="fill:#008000;stroke:#000000;stroke-width:0.5;" x="332.399959726" xlink:href="#m8253965cad" y="221.171799545"/>
     <use style="fill:#008000;stroke:#000000;stroke-width:0.5;" x="344.800000313" xlink:href="#m8253965cad" y="304.71575104"/>
     <use style="fill:#008000;stroke:#000000;stroke-width:0.5;" x="357.199978513" xlink:href="#m8253965cad" y="365.393618038"/>
     <use style="fill:#008000;stroke:#000000;stroke-width:0.5;" x="369.599995019" xlink:href="#m8253965cad" y="387.697530157"/>
     <use style="fill:#008000;stroke:#000000;stroke-width:0.5;" x="381.99996788" xlink:href="#m8253965cad" y="365.474043464"/>
     <use style="fill:#008000;stroke:#000000;stroke-width:0.5;" x="394.399971397" xlink:href="#m8253965cad" y="303.315468402"/>
     <use style="fill:#008000;stroke:#000000;stroke-width:0.5;" x="406.800006157" xlink:href="#m8253965cad" y="216.324815595"/>
     <use style="fill:#008000;stroke:#000000;stroke-width:0.5;" x="419.199986994" xlink:href="#m8253965cad" y="127.108434619"/>
     <use style="fill:#008000;stroke:#000000;stroke-width:0.5;" x="431.600007787" xlink:href="#m8253965cad" y="63.5389053731"/>
     <use style="fill:#008000;stroke:#000000;stroke-width:0.5;" x="444.000006097" xlink:href="#m8253965cad" y="43.8421039922"/>
     <use style="fill:#008000;stroke:#000000;stroke-width:0.5;" x="456.400026413" xlink:href="#m8253965cad" y="71.6555178829"/>
     <use style="fill:#008000;stroke:#000000;stroke-width:0.5;" x="468.800026861" xlink:href="#m8253965cad" y="138.35674766"/>
     <use style="fill:#008000;stroke:#000000;stroke-width:0.5;" x="481.20003749" xlink:href="#m8253965cad" y="225.064573175"/>
     <use style="fill:#008000;stroke:#000000;stroke-width:0.5;" x="493.6000062" xlink:href="#m8253965cad" y="309.953264158"/>
     <use style="fill:#008000;stroke:#000000;stroke-width:0.5;" x="506.000053259" xlink:href="#m8253965cad" y="369.070097424"/>
    </g>
   </g>
   <g id="patch_3">
    <path d="M 72 388.8 
L 518.4 388.8 
" style="fill:none;stroke:#000000;stroke-linecap:square;stroke-linejoin:miter;"/>
   </g>
   <g id="patch_4">
    <path d="M 72 43.2 
L 518.4 43.2 
" style="fill:none;stroke:#000000;stroke-linecap:square;stroke-linejoin:miter;"/>
   </g>
   <g id="patch_5">
    <path d="M 72 388.8 
L 72 43.2 
" style="fill:none;stroke:#000000;stroke-linecap:square;stroke-linejoin:miter;"/>
   </g>
   <g id="patch_6">
    <path d="M 518.4 388.8 
L 518.4 43.2 
" style="fill:none;stroke:#000000;stroke-linecap:square;stroke-linejoin:miter;"/>
   </g>
   <g id="matplotlib.axis_1">
    <g id="xtick_1">
     <g id="line2d_6">
      <defs>
       <path d="M 0 0 
L 0 -4 
" id="m7c44d3b3c2" style="stroke:#000000;stroke-width:0.5;"/>
      </defs>
      <g>
       <use style="stroke:#000000;stroke-width:0.5;" x="72.0" xlink:href="#m7c44d3b3c2" y="388.8"/>
      </g>
     </g>
     <g id="line2d_7">
      <defs>
       <path d="M 0 0 
L 0 4 
" id="m840cf93f18" style="stroke:#000000;stroke-width:0.5;"/>
      </defs>
      <g>
       <use style="stroke:#000000;stroke-width:0.5;" x="72.0" xlink:href="#m840cf93f18" y="43.2"/>
      </g>
     </g>
     <g id="text_1">
      <!-- −180 -->
      <defs>
       <path d="M 10.59375 35.5 
L 73.1875 35.5 
L 73.1875 27.203125 
L 10.59375 27.203125 
z
" id="BitstreamVeraSans-Roman-2212"/>
       <path d="M 31.78125 34.625 
Q 24.75 34.625 20.71875 30.859375 
Q 16.703125 27.09375 16.703125 20.515625 
Q 16.703125 13.921875 20.71875 10.15625 
Q 24.75 6.390625 31.78125 6.390625 
Q 38.8125 6.390625 42.859375 10.171875 
Q 46.921875 13.96875 46.921875 20.515625 
Q 46.921875 27.09375 42.890625 30.859375 
Q 38.875 34.625 31.78125 34.625 
M 21.921875 38.8125 
Q 15.578125 40.375 12.03125 44.71875 
Q 8.5 49.078125 8.5 55.328125 
Q 8.5 64.0625 14.71875 69.140625 
Q 20.953125 74.21875 31.78125 74.21875 
Q 42.671875 74.21875 48.875 69.140625 
Q 55.078125 64.0625 55.078125 55.328125 
Q 55.078125 49.078125 51.53125 44.71875 
Q 48 40.375 41.703125 38.8125 
Q 48.828125 37.15625 52.796875 32.3125 
Q 56.78125 27.484375 56.78125 20.515625 
Q 56.78125 9.90625 50.3125 4.234375 
Q 43.84375 -1.421875 31.78125 -1.421875 
Q 19.734375 -1.421875 13.25 4.234375 
Q 6.78125 9.90625 6.78125 20.515625 
Q 6.78125 27.484375 10.78125 32.3125 
Q 14.796875 37.15625 21.921875 38.8125 
M 18.3125 54.390625 
Q 18.3125 48.734375 21.84375 45.5625 
Q 25.390625 42.390625 31.78125 42.390625 
Q 38.140625 42.390625 41.71875 45.5625 
Q 45.3125 48.734375 45.3125 54.390625 
Q 45.3125 60.0625 41.71875 63.234375 
Q 38.140625 66.40625 31.78125 66.40625 
Q 25.390625 66.40625 21.84375 63.234375 
Q 18.3125 60.0625 18.3125 54.390625 
" id="BitstreamVeraSans-Roman-38"/>
       <path d="M 31.78125 66.40625 
Q 24.171875 66.40625 20.328125 58.90625 
Q 16.5 51.421875 16.5 36.375 
Q 16.5 21.390625 20.328125 13.890625 
Q 24.171875 6.390625 31.78125 6.390625 
Q 39.453125 6.390625 43.28125 13.890625 
Q 47.125 21.390625 47.125 36.375 
Q 47.125 51.421875 43.28125 58.90625 
Q 39.453125 66.40625 31.78125 66.40625 
M 31.78125 74.21875 
Q 44.046875 74.21875 50.515625 64.515625 
Q 56.984375 54.828125 56.984375 36.375 
Q 56.984375 17.96875 50.515625 8.265625 
Q 44.046875 -1.421875 31.78125 -1.421875 
Q 19.53125 -1.421875 13.0625 8.265625 
Q 6.59375 17.96875 6.59375 36.375 
Q 6.59375 54.828125 13.0625 64.515625 
Q 19.53125 74.21875 31.78125 74.21875 
" id="BitstreamVeraSans-Roman-30"/>
       <path d="M 12.40625 8.296875 
L 28.515625 8.296875 
L 28.515625 63.921875 
L 10.984375 60.40625 
L 10.984375 69.390625 
L 28.421875 72.90625 
L 38.28125 72.90625 
L 38.28125 8.296875 
L 54.390625 8.296875 
L 54.390625 0 
L 12.40625 0 
z
" id="BitstreamVeraSans-Roman-31"/>
      </defs>
      <g transform="translate(55.5196875 401.918125)scale(0.12 -0.12)">
       <use xlink:href="#BitstreamVeraSans-Roman-2212"/>
       <use x="83.7890625" xlink:href="#BitstreamVeraSans-Roman-31"/>
       <use x="147.412109375" xlink:href="#BitstreamVeraSans-Roman-38"/>
       <use x="211.03515625" xlink:href="#BitstreamVeraSans-Roman-30"/>
      </g>
     </g>
    </g>
    <g id="xtick_2">
     <g id="line2d_8">
      <g>
       <use style="stroke:#000000;stroke-width:0.5;" x="127.8" xlink:href="#m7c44d3b3c2" y="388.8"/>
      </g>
     </g>
     <g id="line2d_9">
      <g>
       <use style="stroke:#000000;stroke-width:0.5;" x="127.8" xlink:href="#m840cf93f18" y="43.2"/>
      </g>
     </g>
     <g id="text_2">
      <!-- −135 -->
      <defs>
       <path d="M 10.796875 72.90625 
L 49.515625 72.90625 
L 49.515625 64.59375 
L 19.828125 64.59375 
L 19.828125 46.734375 
Q 21.96875 47.46875 24.109375 47.828125 
Q 26.265625 48.1875 28.421875 48.1875 
Q 40.625 48.1875 47.75 41.5 
Q 54.890625 34.8125 54.890625 23.390625 
Q 54.890625 11.625 47.5625 5.09375 
Q 40.234375 -1.421875 26.90625 -1.421875 
Q 22.3125 -1.421875 17.546875 -0.640625 
Q 12.796875 0.140625 7.71875 1.703125 
L 7.71875 11.625 
Q 12.109375 9.234375 16.796875 8.0625 
Q 21.484375 6.890625 26.703125 6.890625 
Q 35.15625 6.890625 40.078125 11.328125 
Q 45.015625 15.765625 45.015625 23.390625 
Q 45.015625 31 40.078125 35.4375 
Q 35.15625 39.890625 26.703125 39.890625 
Q 22.75 39.890625 18.8125 39.015625 
Q 14.890625 38.140625 10.796875 36.28125 
z
" id="BitstreamVeraSans-Roman-35"/>
       <path d="M 40.578125 39.3125 
Q 47.65625 37.796875 51.625 33 
Q 55.609375 28.21875 55.609375 21.1875 
Q 55.609375 10.40625 48.1875 4.484375 
Q 40.765625 -1.421875 27.09375 -1.421875 
Q 22.515625 -1.421875 17.65625 -0.515625 
Q 12.796875 0.390625 7.625 2.203125 
L 7.625 11.71875 
Q 11.71875 9.328125 16.59375 8.109375 
Q 21.484375 6.890625 26.8125 6.890625 
Q 36.078125 6.890625 40.9375 10.546875 
Q 45.796875 14.203125 45.796875 21.1875 
Q 45.796875 27.640625 41.28125 31.265625 
Q 36.765625 34.90625 28.71875 34.90625 
L 20.21875 34.90625 
L 20.21875 43.015625 
L 29.109375 43.015625 
Q 36.375 43.015625 40.234375 45.921875 
Q 44.09375 48.828125 44.09375 54.296875 
Q 44.09375 59.90625 40.109375 62.90625 
Q 36.140625 65.921875 28.71875 65.921875 
Q 24.65625 65.921875 20.015625 65.03125 
Q 15.375 64.15625 9.8125 62.3125 
L 9.8125 71.09375 
Q 15.4375 72.65625 20.34375 73.4375 
Q 25.25 74.21875 29.59375 74.21875 
Q 40.828125 74.21875 47.359375 69.109375 
Q 53.90625 64.015625 53.90625 55.328125 
Q 53.90625 49.265625 50.4375 45.09375 
Q 46.96875 40.921875 40.578125 39.3125 
" id="BitstreamVeraSans-Roman-33"/>
      </defs>
      <g transform="translate(111.3196875 401.918125)scale(0.12 -0.12)">
       <use xlink:href="#BitstreamVeraSans-Roman-2212"/>
       <use x="83.7890625" xlink:href="#BitstreamVeraSans-Roman-31"/>
       <use x="147.412109375" xlink:href="#BitstreamVeraSans-Roman-33"/>
       <use x="211.03515625" xlink:href="#BitstreamVeraSans-Roman-35"/>
      </g>
     </g>
    </g>
    <g id="xtick_3">
     <g id="line2d_10">
      <g>
       <use style="stroke:#000000;stroke-width:0.5;" x="183.6" xlink:href="#m7c44d3b3c2" y="388.8"/>
      </g>
     </g>
     <g id="line2d_11">
      <g>
       <use style="stroke:#000000;stroke-width:0.5;" x="183.6" xlink:href="#m840cf93f18" y="43.2"/>
      </g>
     </g>
     <g id="text_3">
      <!-- −90 -->
      <defs>
       <path d="M 10.984375 1.515625 
L 10.984375 10.5 
Q 14.703125 8.734375 18.5 7.8125 
Q 22.3125 6.890625 25.984375 6.890625 
Q 35.75 6.890625 40.890625 13.453125 
Q 46.046875 20.015625 46.78125 33.40625 
Q 43.953125 29.203125 39.59375 26.953125 
Q 35.25 24.703125 29.984375 24.703125 
Q 19.046875 24.703125 12.671875 31.3125 
Q 6.296875 37.9375 6.296875 49.421875 
Q 6.296875 60.640625 12.9375 67.421875 
Q 19.578125 74.21875 30.609375 74.21875 
Q 43.265625 74.21875 49.921875 64.515625 
Q 56.59375 54.828125 56.59375 36.375 
Q 56.59375 19.140625 48.40625 8.859375 
Q 40.234375 -1.421875 26.421875 -1.421875 
Q 22.703125 -1.421875 18.890625 -0.6875 
Q 15.09375 0.046875 10.984375 1.515625 
M 30.609375 32.421875 
Q 37.25 32.421875 41.125 36.953125 
Q 45.015625 41.5 45.015625 49.421875 
Q 45.015625 57.28125 41.125 61.84375 
Q 37.25 66.40625 30.609375 66.40625 
Q 23.96875 66.40625 20.09375 61.84375 
Q 16.21875 57.28125 16.21875 49.421875 
Q 16.21875 41.5 20.09375 36.953125 
Q 23.96875 32.421875 30.609375 32.421875 
" id="BitstreamVeraSans-Roman-39"/>
      </defs>
      <g transform="translate(170.9371875 401.918125)scale(0.12 -0.12)">
       <use xlink:href="#BitstreamVeraSans-Roman-2212"/>
       <use x="83.7890625" xlink:href="#BitstreamVeraSans-Roman-39"/>
       <use x="147.412109375" xlink:href="#BitstreamVeraSans-Roman-30"/>
      </g>
     </g>
    </g>
    <g id="xtick_4">
     <g id="line2d_12">
      <g>
       <use style="stroke:#000000;stroke-width:0.5;" x="239.4" xlink:href="#m7c44d3b3c2" y="388.8"/>
      </g>
     </g>
     <g id="line2d_13">
      <g>
       <use style="stroke:#000000;stroke-width:0.5;" x="239.4" xlink:href="#m840cf93f18" y="43.2"/>
      </g>
     </g>
     <g id="text_4">
      <!-- −45 -->
      <defs>
       <path d="M 37.796875 64.3125 
L 12.890625 25.390625 
L 37.796875 25.390625 
z
M 35.203125 72.90625 
L 47.609375 72.90625 
L 47.609375 25.390625 
L 58.015625 25.390625 
L 58.015625 17.1875 
L 47.609375 17.1875 
L 47.609375 0 
L 37.796875 0 
L 37.796875 17.1875 
L 4.890625 17.1875 
L 4.890625 26.703125 
z
" id="BitstreamVeraSans-Roman-34"/>
      </defs>
      <g transform="translate(226.7371875 401.918125)scale(0.12 -0.12)">
       <use xlink:href="#BitstreamVeraSans-Roman-2212"/>
       <use x="83.7890625" xlink:href="#BitstreamVeraSans-Roman-34"/>
       <use x="147.412109375" xlink:href="#BitstreamVeraSans-Roman-35"/>
      </g>
     </g>
    </g>
    <g id="xtick_5">
     <g id="line2d_14">
      <g>
       <use style="stroke:#000000;stroke-width:0.5;" x="295.2" xlink:href="#m7c44d3b3c2" y="388.8"/>
      </g>
     </g>
     <g id="line2d_15">
      <g>
       <use style="stroke:#000000;stroke-width:0.5;" x="295.2" xlink:href="#m840cf93f18" y="43.2"/>
      </g>
     </g>
     <g id="text_5">
      <!-- 0 -->
      <g transform="translate(291.3825 401.918125)scale(0.12 -0.12)">
       <use xlink:href="#BitstreamVeraSans-Roman-30"/>
      </g>
     </g>
    </g>
    <g id="xtick_6">
     <g id="line2d_16">
      <g>
       <use style="stroke:#000000;stroke-width:0.5;" x="351.0" xlink:href="#m7c44d3b3c2" y="388.8"/>
      </g>
     </g>
     <g id="line2d_17">
      <g>
       <use style="stroke:#000000;stroke-width:0.5;" x="351.0" xlink:href="#m840cf93f18" y="43.2"/>
      </g>
     </g>
     <g id="text_6">
      <!-- 45 -->
      <g transform="translate(343.365 401.918125)scale(0.12 -0.12)">
       <use xlink:href="#BitstreamVeraSans-Roman-34"/>
       <use x="63.623046875" xlink:href="#BitstreamVeraSans-Roman-35"/>
      </g>
     </g>
    </g>
    <g id="xtick_7">
     <g id="line2d_18">
      <g>
       <use style="stroke:#000000;stroke-width:0.5;" x="406.8" xlink:href="#m7c44d3b3c2" y="388.8"/>
      </g>
     </g>
     <g id="line2d_19">
      <g>
       <use style="stroke:#000000;stroke-width:0.5;" x="406.8" xlink:href="#m840cf93f18" y="43.2"/>
      </g>
     </g>
     <g id="text_7">
      <!-- 90 -->
      <g transform="translate(399.165 401.918125)scale(0.12 -0.12)">
       <use xlink:href="#BitstreamVeraSans-Roman-39"/>
       <use x="63.623046875" xlink:href="#BitstreamVeraSans-Roman-30"/>
      </g>
     </g>
    </g>
    <g id="xtick_8">
     <g id="line2d_20">
      <g>
       <use style="stroke:#000000;stroke-width:0.5;" x="462.6" xlink:href="#m7c44d3b3c2" y="388.8"/>
      </g>
     </g>
     <g id="line2d_21">
      <g>
       <use style="stroke:#000000;stroke-width:0.5;" x="462.6" xlink:href="#m840cf93f18" y="43.2"/>
      </g>
     </g>
     <g id="text_8">
      <!-- 135 -->
      <g transform="translate(451.1475 401.918125)scale(0.12 -0.12)">
       <use xlink:href="#BitstreamVeraSans-Roman-31"/>
       <use x="63.623046875" xlink:href="#BitstreamVeraSans-Roman-33"/>
       <use x="127.24609375" xlink:href="#BitstreamVeraSans-Roman-35"/>
      </g>
     </g>
    </g>
    <g id="xtick_9">
     <g id="line2d_22">
      <g>
       <use style="stroke:#000000;stroke-width:0.5;" x="518.4" xlink:href="#m7c44d3b3c2" y="388.8"/>
      </g>
     </g>
     <g id="line2d_23">
      <g>
       <use style="stroke:#000000;stroke-width:0.5;" x="518.4" xlink:href="#m840cf93f18" y="43.2"/>
      </g>
     </g>
     <g id="text_9">
      <!-- 180 -->
      <g transform="translate(506.9475 401.918125)scale(0.12 -0.12)">
       <use xlink:href="#BitstreamVeraSans-Roman-31"/>
       <use x="63.623046875" xlink:href="#BitstreamVeraSans-Roman-38"/>
       <use x="127.24609375" xlink:href="#BitstreamVeraSans-Roman-30"/>
      </g>
     </g>
    </g>
    <g id="text_10">
     <!-- Phi -->
     <defs>
      <path d="M 54.890625 33.015625 
L 54.890625 0 
L 45.90625 0 
L 45.90625 32.71875 
Q 45.90625 40.484375 42.875 44.328125 
Q 39.84375 48.1875 33.796875 48.1875 
Q 26.515625 48.1875 22.3125 43.546875 
Q 18.109375 38.921875 18.109375 30.90625 
L 18.109375 0 
L 9.078125 0 
L 9.078125 75.984375 
L 18.109375 75.984375 
L 18.109375 46.1875 
Q 21.34375 51.125 25.703125 53.5625 
Q 30.078125 56 35.796875 56 
Q 45.21875 56 50.046875 50.171875 
Q 54.890625 44.34375 54.890625 33.015625 
" id="BitstreamVeraSans-Roman-68"/>
      <path d="M 9.421875 54.6875 
L 18.40625 54.6875 
L 18.40625 0 
L 9.421875 0 
z
M 9.421875 75.984375 
L 18.40625 75.984375 
L 18.40625 64.59375 
L 9.421875 64.59375 
z
" id="BitstreamVeraSans-Roman-69"/>
      <path d="M 19.671875 64.796875 
L 19.671875 37.40625 
L 32.078125 37.40625 
Q 38.96875 37.40625 42.71875 40.96875 
Q 46.484375 44.53125 46.484375 51.125 
Q 46.484375 57.671875 42.71875 61.234375 
Q 38.96875 64.796875 32.078125 64.796875 
z
M 9.8125 72.90625 
L 32.078125 72.90625 
Q 44.34375 72.90625 50.609375 67.359375 
Q 56.890625 61.8125 56.890625 51.125 
Q 56.890625 40.328125 50.609375 34.8125 
Q 44.34375 29.296875 32.078125 29.296875 
L 19.671875 29.296875 
L 19.671875 0 
L 9.8125 0 
z
" id="BitstreamVeraSans-Roman-50"/>
     </defs>
     <g transform="translate(286.1128125 418.531875)scale(0.12 -0.12)">
      <use xlink:href="#BitstreamVeraSans-Roman-50"/>
      <use x="60.302734375" xlink:href="#BitstreamVeraSans-Roman-68"/>
      <use x="123.681640625" xlink:href="#BitstreamVeraSans-Roman-69"/>
     </g>
    </g>
   </g>
   <g id="matplotlib.axis_2">
    <g id="ytick_1">
     <g id="line2d_24">
      <defs>
       <path d="M 0 0 
L 4 0 
" id="ma3a7d48533" style="stroke:#000000;stroke-width:0.5;"/>
      </defs>
      <g>
       <use style="stroke:#000000;stroke-width:0.5;" x="72.0" xlink:href="#ma3a7d48533" y="388.8"/>
      </g>
     </g>
     <g id="line2d_25">
      <defs>
       <path d="M 0 0 
L -4 0 
" id="m146af472d4" style="stroke:#000000;stroke-width:0.5;"/>
      </defs>
      <g>
       <use style="stroke:#000000;stroke-width:0.5;" x="518.4" xlink:href="#m146af472d4" y="388.8"/>
      </g>
     </g>
     <g id="text_11">
      <!-- 0.0 -->
      <defs>
       <path d="M 10.6875 12.40625 
L 21 12.40625 
L 21 0 
L 10.6875 0 
z
" id="BitstreamVeraSans-Roman-2e"/>
      </defs>
      <g transform="translate(48.91625 392.11125)scale(0.12 -0.12)">
       <use xlink:href="#BitstreamVeraSans-Roman-30"/>
       <use x="63.623046875" xlink:href="#BitstreamVeraSans-Roman-2e"/>
       <use x="95.41015625" xlink:href="#BitstreamVeraSans-Roman-30"/>
      </g>
     </g>
    </g>
    <g id="ytick_2">
     <g id="line2d_26">
      <g>
       <use style="stroke:#000000;stroke-width:0.5;" x="72.0" xlink:href="#ma3a7d48533" y="319.68"/>
      </g>
     </g>
     <g id="line2d_27">
      <g>
       <use style="stroke:#000000;stroke-width:0.5;" x="518.4" xlink:href="#m146af472d4" y="319.68"/>
      </g>
     </g>
     <g id="text_12">
      <!-- 0.5 -->
      <g transform="translate(48.91625 322.99125)scale(0.12 -0.12)">
       <use xlink:href="#BitstreamVeraSans-Roman-30"/>
       <use x="63.623046875" xlink:href="#BitstreamVeraSans-Roman-2e"/>
       <use x="95.41015625" xlink:href="#BitstreamVeraSans-Roman-35"/>
      </g>
     </g>
    </g>
    <g id="ytick_3">
     <g id="line2d_28">
      <g>
       <use style="stroke:#000000;stroke-width:0.5;" x="72.0" xlink:href="#ma3a7d48533" y="250.56"/>
      </g>
     </g>
     <g id="line2d_29">
      <g>
       <use style="stroke:#000000;stroke-width:0.5;" x="518.4" xlink:href="#m146af472d4" y="250.56"/>
      </g>
     </g>
     <g id="text_13">
      <!-- 1.0 -->
      <g transform="translate(48.91625 253.87125)scale(0.12 -0.12)">
       <use xlink:href="#BitstreamVeraSans-Roman-31"/>
       <use x="63.623046875" xlink:href="#BitstreamVeraSans-Roman-2e"/>
       <use x="95.41015625" xlink:href="#BitstreamVeraSans-Roman-30"/>
      </g>
     </g>
    </g>
    <g id="ytick_4">
     <g id="line2d_30">
      <g>
       <use style="stroke:#000000;stroke-width:0.5;" x="72.0" xlink:href="#ma3a7d48533" y="181.44"/>
      </g>
     </g>
     <g id="line2d_31">
      <g>
       <use style="stroke:#000000;stroke-width:0.5;" x="518.4" xlink:href="#m146af472d4" y="181.44"/>
      </g>
     </g>
     <g id="text_14">
      <!-- 1.5 -->
      <g transform="translate(48.91625 184.75125)scale(0.12 -0.12)">
       <use xlink:href="#BitstreamVeraSans-Roman-31"/>
       <use x="63.623046875" xlink:href="#BitstreamVeraSans-Roman-2e"/>
       <use x="95.41015625" xlink:href="#BitstreamVeraSans-Roman-35"/>
      </g>
     </g>
    </g>
    <g id="ytick_5">
     <g id="line2d_32">
      <g>
       <use style="stroke:#000000;stroke-width:0.5;" x="72.0" xlink:href="#ma3a7d48533" y="112.32"/>
      </g>
     </g>
     <g id="line2d_33">
      <g>
       <use style="stroke:#000000;stroke-width:0.5;" x="518.4" xlink:href="#m146af472d4" y="112.32"/>
      </g>
     </g>
     <g id="text_15">
      <!-- 2.0 -->
      <defs>
       <path d="M 19.1875 8.296875 
L 53.609375 8.296875 
L 53.609375 0 
L 7.328125 0 
L 7.328125 8.296875 
Q 12.9375 14.109375 22.625 23.890625 
Q 32.328125 33.6875 34.8125 36.53125 
Q 39.546875 41.84375 41.421875 45.53125 
Q 43.3125 49.21875 43.3125 52.78125 
Q 43.3125 58.59375 39.234375 62.25 
Q 35.15625 65.921875 28.609375 65.921875 
Q 23.96875 65.921875 18.8125 64.3125 
Q 13.671875 62.703125 7.8125 59.421875 
L 7.8125 69.390625 
Q 13.765625 71.78125 18.9375 73 
Q 24.125 74.21875 28.421875 74.21875 
Q 39.75 74.21875 46.484375 68.546875 
Q 53.21875 62.890625 53.21875 53.421875 
Q 53.21875 48.921875 51.53125 44.890625 
Q 49.859375 40.875 45.40625 35.40625 
Q 44.1875 33.984375 37.640625 27.21875 
Q 31.109375 20.453125 19.1875 8.296875 
" id="BitstreamVeraSans-Roman-32"/>
      </defs>
      <g transform="translate(48.91625 115.63125)scale(0.12 -0.12)">
       <use xlink:href="#BitstreamVeraSans-Roman-32"/>
       <use x="63.623046875" xlink:href="#BitstreamVeraSans-Roman-2e"/>
       <use x="95.41015625" xlink:href="#BitstreamVeraSans-Roman-30"/>
      </g>
     </g>
    </g>
    <g id="ytick_6">
     <g id="line2d_34">
      <g>
       <use style="stroke:#000000;stroke-width:0.5;" x="72.0" xlink:href="#ma3a7d48533" y="43.2"/>
      </g>
     </g>
     <g id="line2d_35">
      <g>
       <use style="stroke:#000000;stroke-width:0.5;" x="518.4" xlink:href="#m146af472d4" y="43.2"/>
      </g>
     </g>
     <g id="text_16">
      <!-- 2.5 -->
      <g transform="translate(48.91625 46.51125)scale(0.12 -0.12)">
       <use xlink:href="#BitstreamVeraSans-Roman-32"/>
       <use x="63.623046875" xlink:href="#BitstreamVeraSans-Roman-2e"/>
       <use x="95.41015625" xlink:href="#BitstreamVeraSans-Roman-35"/>
      </g>
     </g>
    </g>
    <g id="text_17">
     <!-- kcal/mol -->
     <defs>
      <path d="M 25.390625 72.90625 
L 33.6875 72.90625 
L 8.296875 -9.28125 
L 0 -9.28125 
z
" id="BitstreamVeraSans-Roman-2f"/>
      <path d="M 9.078125 75.984375 
L 18.109375 75.984375 
L 18.109375 31.109375 
L 44.921875 54.6875 
L 56.390625 54.6875 
L 27.390625 29.109375 
L 57.625 0 
L 45.90625 0 
L 18.109375 26.703125 
L 18.109375 0 
L 9.078125 0 
z
" id="BitstreamVeraSans-Roman-6b"/>
      <path d="M 34.28125 27.484375 
Q 23.390625 27.484375 19.1875 25 
Q 14.984375 22.515625 14.984375 16.5 
Q 14.984375 11.71875 18.140625 8.90625 
Q 21.296875 6.109375 26.703125 6.109375 
Q 34.1875 6.109375 38.703125 11.40625 
Q 43.21875 16.703125 43.21875 25.484375 
L 43.21875 27.484375 
z
M 52.203125 31.203125 
L 52.203125 0 
L 43.21875 0 
L 43.21875 8.296875 
Q 40.140625 3.328125 35.546875 0.953125 
Q 30.953125 -1.421875 24.3125 -1.421875 
Q 15.921875 -1.421875 10.953125 3.296875 
Q 6 8.015625 6 15.921875 
Q 6 25.140625 12.171875 29.828125 
Q 18.359375 34.515625 30.609375 34.515625 
L 43.21875 34.515625 
L 43.21875 35.40625 
Q 43.21875 41.609375 39.140625 45 
Q 35.0625 48.390625 27.6875 48.390625 
Q 23 48.390625 18.546875 47.265625 
Q 14.109375 46.140625 10.015625 43.890625 
L 10.015625 52.203125 
Q 14.9375 54.109375 19.578125 55.046875 
Q 24.21875 56 28.609375 56 
Q 40.484375 56 46.34375 49.84375 
Q 52.203125 43.703125 52.203125 31.203125 
" id="BitstreamVeraSans-Roman-61"/>
      <path d="M 48.78125 52.59375 
L 48.78125 44.1875 
Q 44.96875 46.296875 41.140625 47.34375 
Q 37.3125 48.390625 33.40625 48.390625 
Q 24.65625 48.390625 19.8125 42.84375 
Q 14.984375 37.3125 14.984375 27.296875 
Q 14.984375 17.28125 19.8125 11.734375 
Q 24.65625 6.203125 33.40625 6.203125 
Q 37.3125 6.203125 41.140625 7.25 
Q 44.96875 8.296875 48.78125 10.40625 
L 48.78125 2.09375 
Q 45.015625 0.34375 40.984375 -0.53125 
Q 36.96875 -1.421875 32.421875 -1.421875 
Q 20.0625 -1.421875 12.78125 6.34375 
Q 5.515625 14.109375 5.515625 27.296875 
Q 5.515625 40.671875 12.859375 48.328125 
Q 20.21875 56 33.015625 56 
Q 37.15625 56 41.109375 55.140625 
Q 45.0625 54.296875 48.78125 52.59375 
" id="BitstreamVeraSans-Roman-63"/>
      <path d="M 52 44.1875 
Q 55.375 50.25 60.0625 53.125 
Q 64.75 56 71.09375 56 
Q 79.640625 56 84.28125 50.015625 
Q 88.921875 44.046875 88.921875 33.015625 
L 88.921875 0 
L 79.890625 0 
L 79.890625 32.71875 
Q 79.890625 40.578125 77.09375 44.375 
Q 74.3125 48.1875 68.609375 48.1875 
Q 61.625 48.1875 57.5625 43.546875 
Q 53.515625 38.921875 53.515625 30.90625 
L 53.515625 0 
L 44.484375 0 
L 44.484375 32.71875 
Q 44.484375 40.625 41.703125 44.40625 
Q 38.921875 48.1875 33.109375 48.1875 
Q 26.21875 48.1875 22.15625 43.53125 
Q 18.109375 38.875 18.109375 30.90625 
L 18.109375 0 
L 9.078125 0 
L 9.078125 54.6875 
L 18.109375 54.6875 
L 18.109375 46.1875 
Q 21.1875 51.21875 25.484375 53.609375 
Q 29.78125 56 35.6875 56 
Q 41.65625 56 45.828125 52.96875 
Q 50 49.953125 52 44.1875 
" id="BitstreamVeraSans-Roman-6d"/>
      <path d="M 9.421875 75.984375 
L 18.40625 75.984375 
L 18.40625 0 
L 9.421875 0 
z
" id="BitstreamVeraSans-Roman-6c"/>
      <path d="M 30.609375 48.390625 
Q 23.390625 48.390625 19.1875 42.75 
Q 14.984375 37.109375 14.984375 27.296875 
Q 14.984375 17.484375 19.15625 11.84375 
Q 23.34375 6.203125 30.609375 6.203125 
Q 37.796875 6.203125 41.984375 11.859375 
Q 46.1875 17.53125 46.1875 27.296875 
Q 46.1875 37.015625 41.984375 42.703125 
Q 37.796875 48.390625 30.609375 48.390625 
M 30.609375 56 
Q 42.328125 56 49.015625 48.375 
Q 55.71875 40.765625 55.71875 27.296875 
Q 55.71875 13.875 49.015625 6.21875 
Q 42.328125 -1.421875 30.609375 -1.421875 
Q 18.84375 -1.421875 12.171875 6.21875 
Q 5.515625 13.875 5.515625 27.296875 
Q 5.515625 40.765625 12.171875 48.375 
Q 18.84375 56 30.609375 56 
" id="BitstreamVeraSans-Roman-6f"/>
     </defs>
     <g transform="translate(41.420625 241.3209375)rotate(-90.0)scale(0.12 -0.12)">
      <use xlink:href="#BitstreamVeraSans-Roman-6b"/>
      <use x="57.91015625" xlink:href="#BitstreamVeraSans-Roman-63"/>
      <use x="112.890625" xlink:href="#BitstreamVeraSans-Roman-61"/>
      <use x="174.169921875" xlink:href="#BitstreamVeraSans-Roman-6c"/>
      <use x="201.953125" xlink:href="#BitstreamVeraSans-Roman-2f"/>
      <use x="235.64453125" xlink:href="#BitstreamVeraSans-Roman-6d"/>
      <use x="333.056640625" xlink:href="#BitstreamVeraSans-Roman-6f"/>
      <use x="394.23828125" xlink:href="#BitstreamVeraSans-Roman-6c"/>
     </g>
    </g>
   </g>
   <g id="text_18">
    <!-- C3-O2-C4-H8 -->
    <defs>
     <path d="M 4.890625 31.390625 
L 31.203125 31.390625 
L 31.203125 23.390625 
L 4.890625 23.390625 
z
" id="BitstreamVeraSans-Roman-2d"/>
     <path d="M 64.40625 67.28125 
L 64.40625 56.890625 
Q 59.421875 61.53125 53.78125 63.8125 
Q 48.140625 66.109375 41.796875 66.109375 
Q 29.296875 66.109375 22.65625 58.46875 
Q 16.015625 50.828125 16.015625 36.375 
Q 16.015625 21.96875 22.65625 14.328125 
Q 29.296875 6.6875 41.796875 6.6875 
Q 48.140625 6.6875 53.78125 8.984375 
Q 59.421875 11.28125 64.40625 15.921875 
L 64.40625 5.609375 
Q 59.234375 2.09375 53.4375 0.328125 
Q 47.65625 -1.421875 41.21875 -1.421875 
Q 24.65625 -1.421875 15.125 8.703125 
Q 5.609375 18.84375 5.609375 36.375 
Q 5.609375 53.953125 15.125 64.078125 
Q 24.65625 74.21875 41.21875 74.21875 
Q 47.75 74.21875 53.53125 72.484375 
Q 59.328125 70.75 64.40625 67.28125 
" id="BitstreamVeraSans-Roman-43"/>
     <path d="M 9.8125 72.90625 
L 19.671875 72.90625 
L 19.671875 43.015625 
L 55.515625 43.015625 
L 55.515625 72.90625 
L 65.375 72.90625 
L 65.375 0 
L 55.515625 0 
L 55.515625 34.71875 
L 19.671875 34.71875 
L 19.671875 0 
L 9.8125 0 
z
" id="BitstreamVeraSans-Roman-48"/>
     <path d="M 39.40625 66.21875 
Q 28.65625 66.21875 22.328125 58.203125 
Q 16.015625 50.203125 16.015625 36.375 
Q 16.015625 22.609375 22.328125 14.59375 
Q 28.65625 6.59375 39.40625 6.59375 
Q 50.140625 6.59375 56.421875 14.59375 
Q 62.703125 22.609375 62.703125 36.375 
Q 62.703125 50.203125 56.421875 58.203125 
Q 50.140625 66.21875 39.40625 66.21875 
M 39.40625 74.21875 
Q 54.734375 74.21875 63.90625 63.9375 
Q 73.09375 53.65625 73.09375 36.375 
Q 73.09375 19.140625 63.90625 8.859375 
Q 54.734375 -1.421875 39.40625 -1.421875 
Q 24.03125 -1.421875 14.8125 8.828125 
Q 5.609375 19.09375 5.609375 36.375 
Q 5.609375 53.65625 14.8125 63.9375 
Q 24.03125 74.21875 39.40625 74.21875 
" id="BitstreamVeraSans-Roman-4f"/>
    </defs>
    <g transform="translate(247.94325 38.2)scale(0.144 -0.144)">
     <use xlink:href="#BitstreamVeraSans-Roman-43"/>
     <use x="69.82421875" xlink:href="#BitstreamVeraSans-Roman-33"/>
     <use x="133.447265625" xlink:href="#BitstreamVeraSans-Roman-2d"/>
     <use x="169.5625" xlink:href="#BitstreamVeraSans-Roman-4f"/>
     <use x="248.2734375" xlink:href="#BitstreamVeraSans-Roman-32"/>
     <use x="311.896484375" xlink:href="#BitstreamVeraSans-Roman-2d"/>
     <use x="347.98046875" xlink:href="#BitstreamVeraSans-Roman-43"/>
     <use x="417.8046875" xlink:href="#BitstreamVeraSans-Roman-34"/>
     <use x="481.427734375" xlink:href="#BitstreamVeraSans-Roman-2d"/>
     <use x="517.51171875" xlink:href="#BitstreamVeraSans-Roman-48"/>
     <use x="592.70703125" xlink:href="#BitstreamVeraSans-Roman-38"/>
    </g>
   </g>
   <g id="legend_1">
    <g id="patch_7">
     <path d="M 406.15625 108.3125 
L 514.4 108.3125 
L 514.4 47.2 
L 406.15625 47.2 
z
" style="fill:#ffffff;stroke:#000000;stroke-linejoin:miter;"/>
    </g>
    <g id="line2d_36">
     <path d="M 411.75625 53.67875 
L 422.95625 53.67875 
" style="fill:none;stroke:#ff0000;stroke-linecap:square;"/>
    </g>
    <g id="line2d_37">
     <g>
      <use style="fill:#ff0000;stroke:#000000;stroke-width:0.5;" x="411.75625" xlink:href="#m8ee814a734" y="53.67875"/>
      <use style="fill:#ff0000;stroke:#000000;stroke-width:0.5;" x="422.95625" xlink:href="#m8ee814a734" y="53.67875"/>
     </g>
    </g>
    <g id="text_19">
     <!-- QM -->
     <defs>
      <path d="M 9.8125 72.90625 
L 24.515625 72.90625 
L 43.109375 23.296875 
L 61.8125 72.90625 
L 76.515625 72.90625 
L 76.515625 0 
L 66.890625 0 
L 66.890625 64.015625 
L 48.09375 14.015625 
L 38.1875 14.015625 
L 19.390625 64.015625 
L 19.390625 0 
L 9.8125 0 
z
" id="BitstreamVeraSans-Roman-4d"/>
      <path d="M 39.40625 66.21875 
Q 28.65625 66.21875 22.328125 58.203125 
Q 16.015625 50.203125 16.015625 36.375 
Q 16.015625 22.609375 22.328125 14.59375 
Q 28.65625 6.59375 39.40625 6.59375 
Q 50.140625 6.59375 56.421875 14.59375 
Q 62.703125 22.609375 62.703125 36.375 
Q 62.703125 50.203125 56.421875 58.203125 
Q 50.140625 66.21875 39.40625 66.21875 
M 53.21875 1.3125 
L 66.21875 -12.890625 
L 54.296875 -12.890625 
L 43.5 -1.21875 
Q 41.890625 -1.3125 41.03125 -1.359375 
Q 40.1875 -1.421875 39.40625 -1.421875 
Q 24.03125 -1.421875 14.8125 8.859375 
Q 5.609375 19.140625 5.609375 36.375 
Q 5.609375 53.65625 14.8125 63.9375 
Q 24.03125 74.21875 39.40625 74.21875 
Q 54.734375 74.21875 63.90625 63.9375 
Q 73.09375 53.65625 73.09375 36.375 
Q 73.09375 23.6875 67.984375 14.640625 
Q 62.890625 5.609375 53.21875 1.3125 
" id="BitstreamVeraSans-Roman-51"/>
     </defs>
     <g transform="translate(431.75625 56.47875)scale(0.08 -0.08)">
      <use xlink:href="#BitstreamVeraSans-Roman-51"/>
      <use x="78.7109375" xlink:href="#BitstreamVeraSans-Roman-4d"/>
     </g>
    </g>
    <g id="line2d_38">
     <path d="M 411.75625 65.42125 
L 422.95625 65.42125 
" style="fill:none;stroke:#0000ff;stroke-linecap:square;"/>
    </g>
    <g id="line2d_39">
     <g>
      <use style="fill:#0000ff;stroke:#000000;stroke-width:0.5;" x="411.75625" xlink:href="#mf808736ff6" y="65.42125"/>
      <use style="fill:#0000ff;stroke:#000000;stroke-width:0.5;" x="422.95625" xlink:href="#mf808736ff6" y="65.42125"/>
     </g>
    </g>
    <g id="text_20">
     <!-- MM Original -->
     <defs>
      <path d="M 41.109375 46.296875 
Q 39.59375 47.171875 37.8125 47.578125 
Q 36.03125 48 33.890625 48 
Q 26.265625 48 22.1875 43.046875 
Q 18.109375 38.09375 18.109375 28.8125 
L 18.109375 0 
L 9.078125 0 
L 9.078125 54.6875 
L 18.109375 54.6875 
L 18.109375 46.1875 
Q 20.953125 51.171875 25.484375 53.578125 
Q 30.03125 56 36.53125 56 
Q 37.453125 56 38.578125 55.875 
Q 39.703125 55.765625 41.0625 55.515625 
z
" id="BitstreamVeraSans-Roman-72"/>
      <path d="M 54.890625 33.015625 
L 54.890625 0 
L 45.90625 0 
L 45.90625 32.71875 
Q 45.90625 40.484375 42.875 44.328125 
Q 39.84375 48.1875 33.796875 48.1875 
Q 26.515625 48.1875 22.3125 43.546875 
Q 18.109375 38.921875 18.109375 30.90625 
L 18.109375 0 
L 9.078125 0 
L 9.078125 54.6875 
L 18.109375 54.6875 
L 18.109375 46.1875 
Q 21.34375 51.125 25.703125 53.5625 
Q 30.078125 56 35.796875 56 
Q 45.21875 56 50.046875 50.171875 
Q 54.890625 44.34375 54.890625 33.015625 
" id="BitstreamVeraSans-Roman-6e"/>
      <path id="BitstreamVeraSans-Roman-20"/>
      <path d="M 45.40625 27.984375 
Q 45.40625 37.75 41.375 43.109375 
Q 37.359375 48.484375 30.078125 48.484375 
Q 22.859375 48.484375 18.828125 43.109375 
Q 14.796875 37.75 14.796875 27.984375 
Q 14.796875 18.265625 18.828125 12.890625 
Q 22.859375 7.515625 30.078125 7.515625 
Q 37.359375 7.515625 41.375 12.890625 
Q 45.40625 18.265625 45.40625 27.984375 
M 54.390625 6.78125 
Q 54.390625 -7.171875 48.1875 -13.984375 
Q 42 -20.796875 29.203125 -20.796875 
Q 24.46875 -20.796875 20.265625 -20.09375 
Q 16.0625 -19.390625 12.109375 -17.921875 
L 12.109375 -9.1875 
Q 16.0625 -11.328125 19.921875 -12.34375 
Q 23.78125 -13.375 27.78125 -13.375 
Q 36.625 -13.375 41.015625 -8.765625 
Q 45.40625 -4.15625 45.40625 5.171875 
L 45.40625 9.625 
Q 42.625 4.78125 38.28125 2.390625 
Q 33.9375 0 27.875 0 
Q 17.828125 0 11.671875 7.65625 
Q 5.515625 15.328125 5.515625 27.984375 
Q 5.515625 40.671875 11.671875 48.328125 
Q 17.828125 56 27.875 56 
Q 33.9375 56 38.28125 53.609375 
Q 42.625 51.21875 45.40625 46.390625 
L 45.40625 54.6875 
L 54.390625 54.6875 
z
" id="BitstreamVeraSans-Roman-67"/>
     </defs>
     <g transform="translate(431.75625 68.22125)scale(0.08 -0.08)">
      <use xlink:href="#BitstreamVeraSans-Roman-4d"/>
      <use x="86.279296875" xlink:href="#BitstreamVeraSans-Roman-4d"/>
      <use x="172.55859375" xlink:href="#BitstreamVeraSans-Roman-20"/>
      <use x="204.345703125" xlink:href="#BitstreamVeraSans-Roman-4f"/>
      <use x="283.056640625" xlink:href="#BitstreamVeraSans-Roman-72"/>
      <use x="324.169921875" xlink:href="#BitstreamVeraSans-Roman-69"/>
      <use x="351.953125" xlink:href="#BitstreamVeraSans-Roman-67"/>
      <use x="415.4296875" xlink:href="#BitstreamVeraSans-Roman-69"/>
      <use x="443.212890625" xlink:href="#BitstreamVeraSans-Roman-6e"/>
      <use x="506.591796875" xlink:href="#BitstreamVeraSans-Roman-61"/>
      <use x="567.87109375" xlink:href="#BitstreamVeraSans-Roman-6c"/>
     </g>
    </g>
    <g id="line2d_40">
     <path d="M 411.75625 77.16375 
L 422.95625 77.16375 
" style="fill:none;stroke:#000000;stroke-linecap:square;"/>
    </g>
    <g id="line2d_41">
     <g>
      <use style="stroke:#000000;stroke-width:0.5;" x="411.75625" xlink:href="#mffd7d73c84" y="77.16375"/>
      <use style="stroke:#000000;stroke-width:0.5;" x="422.95625" xlink:href="#mffd7d73c84" y="77.16375"/>
     </g>
    </g>
    <g id="text_21">
     <!-- MM With phi zeroed -->
     <defs>
      <path d="M 18.109375 8.203125 
L 18.109375 -20.796875 
L 9.078125 -20.796875 
L 9.078125 54.6875 
L 18.109375 54.6875 
L 18.109375 46.390625 
Q 20.953125 51.265625 25.265625 53.625 
Q 29.59375 56 35.59375 56 
Q 45.5625 56 51.78125 48.09375 
Q 58.015625 40.1875 58.015625 27.296875 
Q 58.015625 14.40625 51.78125 6.484375 
Q 45.5625 -1.421875 35.59375 -1.421875 
Q 29.59375 -1.421875 25.265625 0.953125 
Q 20.953125 3.328125 18.109375 8.203125 
M 48.6875 27.296875 
Q 48.6875 37.203125 44.609375 42.84375 
Q 40.53125 48.484375 33.40625 48.484375 
Q 26.265625 48.484375 22.1875 42.84375 
Q 18.109375 37.203125 18.109375 27.296875 
Q 18.109375 17.390625 22.1875 11.75 
Q 26.265625 6.109375 33.40625 6.109375 
Q 40.53125 6.109375 44.609375 11.75 
Q 48.6875 17.390625 48.6875 27.296875 
" id="BitstreamVeraSans-Roman-70"/>
      <path d="M 5.515625 54.6875 
L 48.1875 54.6875 
L 48.1875 46.484375 
L 14.40625 7.171875 
L 48.1875 7.171875 
L 48.1875 0 
L 4.296875 0 
L 4.296875 8.203125 
L 38.09375 47.515625 
L 5.515625 47.515625 
z
" id="BitstreamVeraSans-Roman-7a"/>
      <path d="M 18.3125 70.21875 
L 18.3125 54.6875 
L 36.8125 54.6875 
L 36.8125 47.703125 
L 18.3125 47.703125 
L 18.3125 18.015625 
Q 18.3125 11.328125 20.140625 9.421875 
Q 21.96875 7.515625 27.59375 7.515625 
L 36.8125 7.515625 
L 36.8125 0 
L 27.59375 0 
Q 17.1875 0 13.234375 3.875 
Q 9.28125 7.765625 9.28125 18.015625 
L 9.28125 47.703125 
L 2.6875 47.703125 
L 2.6875 54.6875 
L 9.28125 54.6875 
L 9.28125 70.21875 
z
" id="BitstreamVeraSans-Roman-74"/>
      <path d="M 56.203125 29.59375 
L 56.203125 25.203125 
L 14.890625 25.203125 
Q 15.484375 15.921875 20.484375 11.0625 
Q 25.484375 6.203125 34.421875 6.203125 
Q 39.59375 6.203125 44.453125 7.46875 
Q 49.3125 8.734375 54.109375 11.28125 
L 54.109375 2.78125 
Q 49.265625 0.734375 44.1875 -0.34375 
Q 39.109375 -1.421875 33.890625 -1.421875 
Q 20.796875 -1.421875 13.15625 6.1875 
Q 5.515625 13.8125 5.515625 26.8125 
Q 5.515625 40.234375 12.765625 48.109375 
Q 20.015625 56 32.328125 56 
Q 43.359375 56 49.78125 48.890625 
Q 56.203125 41.796875 56.203125 29.59375 
M 47.21875 32.234375 
Q 47.125 39.59375 43.09375 43.984375 
Q 39.0625 48.390625 32.421875 48.390625 
Q 24.90625 48.390625 20.390625 44.140625 
Q 15.875 39.890625 15.1875 32.171875 
z
" id="BitstreamVeraSans-Roman-65"/>
      <path d="M 45.40625 46.390625 
L 45.40625 75.984375 
L 54.390625 75.984375 
L 54.390625 0 
L 45.40625 0 
L 45.40625 8.203125 
Q 42.578125 3.328125 38.25 0.953125 
Q 33.9375 -1.421875 27.875 -1.421875 
Q 17.96875 -1.421875 11.734375 6.484375 
Q 5.515625 14.40625 5.515625 27.296875 
Q 5.515625 40.1875 11.734375 48.09375 
Q 17.96875 56 27.875 56 
Q 33.9375 56 38.25 53.625 
Q 42.578125 51.265625 45.40625 46.390625 
M 14.796875 27.296875 
Q 14.796875 17.390625 18.875 11.75 
Q 22.953125 6.109375 30.078125 6.109375 
Q 37.203125 6.109375 41.296875 11.75 
Q 45.40625 17.390625 45.40625 27.296875 
Q 45.40625 37.203125 41.296875 42.84375 
Q 37.203125 48.484375 30.078125 48.484375 
Q 22.953125 48.484375 18.875 42.84375 
Q 14.796875 37.203125 14.796875 27.296875 
" id="BitstreamVeraSans-Roman-64"/>
      <path d="M 3.328125 72.90625 
L 13.28125 72.90625 
L 28.609375 11.28125 
L 43.890625 72.90625 
L 54.984375 72.90625 
L 70.3125 11.28125 
L 85.59375 72.90625 
L 95.609375 72.90625 
L 77.296875 0 
L 64.890625 0 
L 49.515625 63.28125 
L 33.984375 0 
L 21.578125 0 
z
" id="BitstreamVeraSans-Roman-57"/>
     </defs>
     <g transform="translate(431.75625 79.96375)scale(0.08 -0.08)">
      <use xlink:href="#BitstreamVeraSans-Roman-4d"/>
      <use x="86.279296875" xlink:href="#BitstreamVeraSans-Roman-4d"/>
      <use x="172.55859375" xlink:href="#BitstreamVeraSans-Roman-20"/>
      <use x="204.345703125" xlink:href="#BitstreamVeraSans-Roman-57"/>
      <use x="303.19140625" xlink:href="#BitstreamVeraSans-Roman-69"/>
      <use x="330.974609375" xlink:href="#BitstreamVeraSans-Roman-74"/>
      <use x="370.18359375" xlink:href="#BitstreamVeraSans-Roman-68"/>
      <use x="433.5625" xlink:href="#BitstreamVeraSans-Roman-20"/>
      <use x="465.349609375" xlink:href="#BitstreamVeraSans-Roman-70"/>
      <use x="528.826171875" xlink:href="#BitstreamVeraSans-Roman-68"/>
      <use x="592.205078125" xlink:href="#BitstreamVeraSans-Roman-69"/>
      <use x="619.98828125" xlink:href="#BitstreamVeraSans-Roman-20"/>
      <use x="651.775390625" xlink:href="#BitstreamVeraSans-Roman-7a"/>
      <use x="704.265625" xlink:href="#BitstreamVeraSans-Roman-65"/>
      <use x="765.7890625" xlink:href="#BitstreamVeraSans-Roman-72"/>
      <use x="806.87109375" xlink:href="#BitstreamVeraSans-Roman-6f"/>
      <use x="868.052734375" xlink:href="#BitstreamVeraSans-Roman-65"/>
      <use x="929.576171875" xlink:href="#BitstreamVeraSans-Roman-64"/>
     </g>
    </g>
    <g id="line2d_42">
     <path d="M 411.75625 88.90625 
L 422.95625 88.90625 
" style="fill:none;stroke:#ff00ff;stroke-linecap:square;"/>
    </g>
    <g id="line2d_43">
     <g>
      <use style="fill:#ff00ff;stroke:#ff00ff;stroke-width:0.5;" x="411.75625" xlink:href="#m08861d317b" y="88.90625"/>
      <use style="fill:#ff00ff;stroke:#ff00ff;stroke-width:0.5;" x="422.95625" xlink:href="#m08861d317b" y="88.90625"/>
     </g>
    </g>
    <g id="text_22">
     <!-- QM-MM target -->
     <g transform="translate(431.75625 91.70625)scale(0.08 -0.08)">
      <use xlink:href="#BitstreamVeraSans-Roman-51"/>
      <use x="78.7109375" xlink:href="#BitstreamVeraSans-Roman-4d"/>
      <use x="164.990234375" xlink:href="#BitstreamVeraSans-Roman-2d"/>
      <use x="201.07421875" xlink:href="#BitstreamVeraSans-Roman-4d"/>
      <use x="287.353515625" xlink:href="#BitstreamVeraSans-Roman-4d"/>
      <use x="373.6328125" xlink:href="#BitstreamVeraSans-Roman-20"/>
      <use x="405.419921875" xlink:href="#BitstreamVeraSans-Roman-74"/>
      <use x="444.62890625" xlink:href="#BitstreamVeraSans-Roman-61"/>
      <use x="505.908203125" xlink:href="#BitstreamVeraSans-Roman-72"/>
      <use x="547.005859375" xlink:href="#BitstreamVeraSans-Roman-67"/>
      <use x="610.482421875" xlink:href="#BitstreamVeraSans-Roman-65"/>
      <use x="672.005859375" xlink:href="#BitstreamVeraSans-Roman-74"/>
     </g>
    </g>
    <g id="line2d_44">
     <path d="M 411.75625 100.64875 
L 422.95625 100.64875 
" style="fill:none;stroke:#008000;stroke-linecap:square;"/>
    </g>
    <g id="line2d_45">
     <g>
      <use style="fill:#008000;stroke:#000000;stroke-width:0.5;" x="411.75625" xlink:href="#m8253965cad" y="100.64875"/>
      <use style="fill:#008000;stroke:#000000;stroke-width:0.5;" x="422.95625" xlink:href="#m8253965cad" y="100.64875"/>
     </g>
    </g>
    <g id="text_23">
     <!-- MM Fitted -->
     <defs>
      <path d="M 9.8125 72.90625 
L 51.703125 72.90625 
L 51.703125 64.59375 
L 19.671875 64.59375 
L 19.671875 43.109375 
L 48.578125 43.109375 
L 48.578125 34.8125 
L 19.671875 34.8125 
L 19.671875 0 
L 9.8125 0 
z
" id="BitstreamVeraSans-Roman-46"/>
     </defs>
     <g transform="translate(431.75625 103.44875)scale(0.08 -0.08)">
      <use xlink:href="#BitstreamVeraSans-Roman-4d"/>
      <use x="86.279296875" xlink:href="#BitstreamVeraSans-Roman-4d"/>
      <use x="172.55859375" xlink:href="#BitstreamVeraSans-Roman-20"/>
      <use x="204.345703125" xlink:href="#BitstreamVeraSans-Roman-46"/>
      <use x="261.755859375" xlink:href="#BitstreamVeraSans-Roman-69"/>
      <use x="289.5390625" xlink:href="#BitstreamVeraSans-Roman-74"/>
      <use x="328.748046875" xlink:href="#BitstreamVeraSans-Roman-74"/>
      <use x="367.95703125" xlink:href="#BitstreamVeraSans-Roman-65"/>
      <use x="429.48046875" xlink:href="#BitstreamVeraSans-Roman-64"/>
     </g>
    </g>
   </g>
  </g>
 </g>
 <defs>
  <clipPath id="p3f7dd5bb23">
   <rect height="345.6" width="446.4" x="72.0" y="43.2"/>
  </clipPath>
 </defs>
</svg>
