<?xml version="1.0" encoding="utf-8" standalone="no"?>
<!DOCTYPE svg PUBLIC "-//W3C//DTD SVG 1.1//EN"
  "http://www.w3.org/Graphics/SVG/1.1/DTD/svg11.dtd">
<!-- Created with matplotlib (http://matplotlib.org/) -->
<svg height="432pt" version="1.1" viewBox="0 0 576 432" width="576pt" xmlns="http://www.w3.org/2000/svg" xmlns:xlink="http://www.w3.org/1999/xlink">
 <defs>
  <style type="text/css">
*{stroke-linecap:butt;stroke-linejoin:round;stroke-miterlimit:100000;}
  </style>
 </defs>
 <g id="figure_1">
  <g id="patch_1">
   <path d="M 0 432 
L 576 432 
L 576 0 
L 0 0 
z
" style="fill:#ffffff;"/>
  </g>
  <g id="axes_1">
   <g id="patch_2">
    <path d="M 72 388.8 
L 518.4 388.8 
L 518.4 43.2 
L 72 43.2 
z
" style="fill:#ffffff;"/>
   </g>
   <g id="line2d_1">
    <path clip-path="url(#p9d89099838)" d="M 72.000701 388.8 
L 84.39994 378.768924 
L 96.799986 350.424346 
L 109.199972 309.0599 
L 121.599946 264.49243 
L 133.999982 229.519665 
L 146.399973 215.768825 
L 158.800007 227.201962 
L 171.200001 256.837789 
L 183.599985 291.404757 
L 196.000035 319.85697 
L 208.400009 336.581773 
L 220.799999 337.355361 
L 233.200024 318.021358 
L 245.600014 277.234306 
L 258.000008 219.695839 
L 270.400029 155.72767 
L 282.800037 101.708715 
L 295.199297 79.112847 
L 307.600032 101.554018 
L 320.000023 155.554634 
L 332.400012 219.570796 
L 344.800022 277.218139 
L 357.200047 318.032115 
L 369.600026 337.458807 
L 382.000046 336.604181 
L 394.400037 319.857222 
L 406.800031 291.320238 
L 419.199968 256.72469 
L 431.599985 227.140106 
L 444.000012 215.815906 
L 456.399971 229.635792 
L 468.800012 264.537304 
L 481.19999 308.953908 
L 493.600001 350.203504 
L 505.999947 378.514647 
" style="fill:none;stroke:#ff0000;stroke-linecap:square;"/>
    <defs>
     <path d="M 0 3 
C 0.795609 3 1.55874 2.683901 2.12132 2.12132 
C 2.683901 1.55874 3 0.795609 3 0 
C 3 -0.795609 2.683901 -1.55874 2.12132 -2.12132 
C 1.55874 -2.683901 0.795609 -3 0 -3 
C -0.795609 -3 -1.55874 -2.683901 -2.12132 -2.12132 
C -2.683901 -1.55874 -3 -0.795609 -3 0 
C -3 0.795609 -2.683901 1.55874 -2.12132 2.12132 
C -1.55874 2.683901 -0.795609 3 0 3 
z
" id="m73c692d319" style="stroke:#000000;stroke-width:0.5;"/>
    </defs>
    <g clip-path="url(#p9d89099838)">
     <use style="fill:#ff0000;stroke:#000000;stroke-width:0.5;" x="72.0007011007" xlink:href="#m73c692d319" y="388.8"/>
     <use style="fill:#ff0000;stroke:#000000;stroke-width:0.5;" x="84.3999401647" xlink:href="#m73c692d319" y="378.768923523"/>
     <use style="fill:#ff0000;stroke:#000000;stroke-width:0.5;" x="96.7999858471" xlink:href="#m73c692d319" y="350.424346304"/>
     <use style="fill:#ff0000;stroke:#000000;stroke-width:0.5;" x="109.199971654" xlink:href="#m73c692d319" y="309.059899664"/>
     <use style="fill:#ff0000;stroke:#000000;stroke-width:0.5;" x="121.599946181" xlink:href="#m73c692d319" y="264.492430116"/>
     <use style="fill:#ff0000;stroke:#000000;stroke-width:0.5;" x="133.999981555" xlink:href="#m73c692d319" y="229.519665251"/>
     <use style="fill:#ff0000;stroke:#000000;stroke-width:0.5;" x="146.399972509" xlink:href="#m73c692d319" y="215.76882465"/>
     <use style="fill:#ff0000;stroke:#000000;stroke-width:0.5;" x="158.800006825" xlink:href="#m73c692d319" y="227.201962078"/>
     <use style="fill:#ff0000;stroke:#000000;stroke-width:0.5;" x="171.200001327" xlink:href="#m73c692d319" y="256.837788663"/>
     <use style="fill:#ff0000;stroke:#000000;stroke-width:0.5;" x="183.59998469" xlink:href="#m73c692d319" y="291.404757252"/>
     <use style="fill:#ff0000;stroke:#000000;stroke-width:0.5;" x="196.000034579" xlink:href="#m73c692d319" y="319.856969603"/>
     <use style="fill:#ff0000;stroke:#000000;stroke-width:0.5;" x="208.40000891" xlink:href="#m73c692d319" y="336.581773029"/>
     <use style="fill:#ff0000;stroke:#000000;stroke-width:0.5;" x="220.799998925" xlink:href="#m73c692d319" y="337.355360557"/>
     <use style="fill:#ff0000;stroke:#000000;stroke-width:0.5;" x="233.200024092" xlink:href="#m73c692d319" y="318.021358113"/>
     <use style="fill:#ff0000;stroke:#000000;stroke-width:0.5;" x="245.600013902" xlink:href="#m73c692d319" y="277.234306076"/>
     <use style="fill:#ff0000;stroke:#000000;stroke-width:0.5;" x="258.000007608" xlink:href="#m73c692d319" y="219.695838657"/>
     <use style="fill:#ff0000;stroke:#000000;stroke-width:0.5;" x="270.400029274" xlink:href="#m73c692d319" y="155.727669878"/>
     <use style="fill:#ff0000;stroke:#000000;stroke-width:0.5;" x="282.800036521" xlink:href="#m73c692d319" y="101.708714602"/>
     <use style="fill:#ff0000;stroke:#000000;stroke-width:0.5;" x="295.199297081" xlink:href="#m73c692d319" y="79.1128474332"/>
     <use style="fill:#ff0000;stroke:#000000;stroke-width:0.5;" x="307.600032241" xlink:href="#m73c692d319" y="101.554017919"/>
     <use style="fill:#ff0000;stroke:#000000;stroke-width:0.5;" x="320.000023242" xlink:href="#m73c692d319" y="155.554634053"/>
     <use style="fill:#ff0000;stroke:#000000;stroke-width:0.5;" x="332.400011883" xlink:href="#m73c692d319" y="219.570796448"/>
     <use style="fill:#ff0000;stroke:#000000;stroke-width:0.5;" x="344.80002189" xlink:href="#m73c692d319" y="277.218139321"/>
     <use style="fill:#ff0000;stroke:#000000;stroke-width:0.5;" x="357.200047495" xlink:href="#m73c692d319" y="318.032114601"/>
     <use style="fill:#ff0000;stroke:#000000;stroke-width:0.5;" x="369.60002552" xlink:href="#m73c692d319" y="337.458807445"/>
     <use style="fill:#ff0000;stroke:#000000;stroke-width:0.5;" x="382.000045854" xlink:href="#m73c692d319" y="336.604180706"/>
     <use style="fill:#ff0000;stroke:#000000;stroke-width:0.5;" x="394.400036978" xlink:href="#m73c692d319" y="319.857221864"/>
     <use style="fill:#ff0000;stroke:#000000;stroke-width:0.5;" x="406.800031371" xlink:href="#m73c692d319" y="291.320237848"/>
     <use style="fill:#ff0000;stroke:#000000;stroke-width:0.5;" x="419.199967732" xlink:href="#m73c692d319" y="256.724690469"/>
     <use style="fill:#ff0000;stroke:#000000;stroke-width:0.5;" x="431.599984977" xlink:href="#m73c692d319" y="227.140105656"/>
     <use style="fill:#ff0000;stroke:#000000;stroke-width:0.5;" x="444.000011696" xlink:href="#m73c692d319" y="215.815905677"/>
     <use style="fill:#ff0000;stroke:#000000;stroke-width:0.5;" x="456.399971048" xlink:href="#m73c692d319" y="229.63579229"/>
     <use style="fill:#ff0000;stroke:#000000;stroke-width:0.5;" x="468.800012144" xlink:href="#m73c692d319" y="264.537304158"/>
     <use style="fill:#ff0000;stroke:#000000;stroke-width:0.5;" x="481.199990275" xlink:href="#m73c692d319" y="308.953908297"/>
     <use style="fill:#ff0000;stroke:#000000;stroke-width:0.5;" x="493.600001109" xlink:href="#m73c692d319" y="350.203504148"/>
     <use style="fill:#ff0000;stroke:#000000;stroke-width:0.5;" x="505.999947236" xlink:href="#m73c692d319" y="378.514646766"/>
    </g>
   </g>
   <g id="line2d_2">
    <path clip-path="url(#p9d89099838)" d="M 72.000701 388.8 
L 84.39994 374.760241 
L 96.799986 337.317667 
L 109.199972 285.755292 
L 121.599946 235.125178 
L 133.999982 202.590431 
L 146.399973 196.846955 
L 158.800007 213.992881 
L 171.200001 248.937501 
L 183.599985 293.046641 
L 196.000035 335.41324 
L 208.400009 361.831105 
L 220.799999 366.731688 
L 233.200024 348.53284 
L 245.600014 308.804757 
L 258.000008 250.355754 
L 270.400029 179.256761 
L 282.800037 113.671823 
L 295.199297 84.260192 
L 307.600032 114.722192 
L 320.000023 181.076972 
L 332.400012 251.315765 
L 344.800022 309.318898 
L 357.200047 348.652626 
L 369.600026 366.385656 
L 382.000046 361.493576 
L 394.400037 334.656949 
L 406.800031 292.552036 
L 419.199968 248.111487 
L 431.599985 213.575224 
L 444.000012 196.891857 
L 456.399971 203.958335 
L 468.800012 237.439629 
L 481.19999 288.177812 
L 493.600001 339.08105 
L 505.999947 375.413717 
" style="fill:none;stroke:#0000ff;stroke-linecap:square;"/>
    <defs>
     <path d="M 0 3 
C 0.795609 3 1.55874 2.683901 2.12132 2.12132 
C 2.683901 1.55874 3 0.795609 3 0 
C 3 -0.795609 2.683901 -1.55874 2.12132 -2.12132 
C 1.55874 -2.683901 0.795609 -3 0 -3 
C -0.795609 -3 -1.55874 -2.683901 -2.12132 -2.12132 
C -2.683901 -1.55874 -3 -0.795609 -3 0 
C -3 0.795609 -2.683901 1.55874 -2.12132 2.12132 
C -1.55874 2.683901 -0.795609 3 0 3 
z
" id="m60b17d5389" style="stroke:#000000;stroke-width:0.5;"/>
    </defs>
    <g clip-path="url(#p9d89099838)">
     <use style="fill:#0000ff;stroke:#000000;stroke-width:0.5;" x="72.0007011007" xlink:href="#m60b17d5389" y="388.8"/>
     <use style="fill:#0000ff;stroke:#000000;stroke-width:0.5;" x="84.3999401647" xlink:href="#m60b17d5389" y="374.7602408"/>
     <use style="fill:#0000ff;stroke:#000000;stroke-width:0.5;" x="96.7999858471" xlink:href="#m60b17d5389" y="337.317667306"/>
     <use style="fill:#0000ff;stroke:#000000;stroke-width:0.5;" x="109.199971654" xlink:href="#m60b17d5389" y="285.7552921"/>
     <use style="fill:#0000ff;stroke:#000000;stroke-width:0.5;" x="121.599946181" xlink:href="#m60b17d5389" y="235.12517823"/>
     <use style="fill:#0000ff;stroke:#000000;stroke-width:0.5;" x="133.999981555" xlink:href="#m60b17d5389" y="202.590431475"/>
     <use style="fill:#0000ff;stroke:#000000;stroke-width:0.5;" x="146.399972509" xlink:href="#m60b17d5389" y="196.846954679"/>
     <use style="fill:#0000ff;stroke:#000000;stroke-width:0.5;" x="158.800006825" xlink:href="#m60b17d5389" y="213.992881242"/>
     <use style="fill:#0000ff;stroke:#000000;stroke-width:0.5;" x="171.200001327" xlink:href="#m60b17d5389" y="248.937500728"/>
     <use style="fill:#0000ff;stroke:#000000;stroke-width:0.5;" x="183.59998469" xlink:href="#m60b17d5389" y="293.04664086"/>
     <use style="fill:#0000ff;stroke:#000000;stroke-width:0.5;" x="196.000034579" xlink:href="#m60b17d5389" y="335.413239521"/>
     <use style="fill:#0000ff;stroke:#000000;stroke-width:0.5;" x="208.40000891" xlink:href="#m60b17d5389" y="361.83110454"/>
     <use style="fill:#0000ff;stroke:#000000;stroke-width:0.5;" x="220.799998925" xlink:href="#m60b17d5389" y="366.731687903"/>
     <use style="fill:#0000ff;stroke:#000000;stroke-width:0.5;" x="233.200024092" xlink:href="#m60b17d5389" y="348.532840357"/>
     <use style="fill:#0000ff;stroke:#000000;stroke-width:0.5;" x="245.600013902" xlink:href="#m60b17d5389" y="308.804756845"/>
     <use style="fill:#0000ff;stroke:#000000;stroke-width:0.5;" x="258.000007608" xlink:href="#m60b17d5389" y="250.35575419"/>
     <use style="fill:#0000ff;stroke:#000000;stroke-width:0.5;" x="270.400029274" xlink:href="#m60b17d5389" y="179.256761008"/>
     <use style="fill:#0000ff;stroke:#000000;stroke-width:0.5;" x="282.800036521" xlink:href="#m60b17d5389" y="113.671822893"/>
     <use style="fill:#0000ff;stroke:#000000;stroke-width:0.5;" x="295.199297081" xlink:href="#m60b17d5389" y="84.260192459"/>
     <use style="fill:#0000ff;stroke:#000000;stroke-width:0.5;" x="307.600032241" xlink:href="#m60b17d5389" y="114.722191801"/>
     <use style="fill:#0000ff;stroke:#000000;stroke-width:0.5;" x="320.000023242" xlink:href="#m60b17d5389" y="181.076972002"/>
     <use style="fill:#0000ff;stroke:#000000;stroke-width:0.5;" x="332.400011883" xlink:href="#m60b17d5389" y="251.315764537"/>
     <use style="fill:#0000ff;stroke:#000000;stroke-width:0.5;" x="344.80002189" xlink:href="#m60b17d5389" y="309.318898135"/>
     <use style="fill:#0000ff;stroke:#000000;stroke-width:0.5;" x="357.200047495" xlink:href="#m60b17d5389" y="348.652625635"/>
     <use style="fill:#0000ff;stroke:#000000;stroke-width:0.5;" x="369.60002552" xlink:href="#m60b17d5389" y="366.38565608"/>
     <use style="fill:#0000ff;stroke:#000000;stroke-width:0.5;" x="382.000045854" xlink:href="#m60b17d5389" y="361.493575615"/>
     <use style="fill:#0000ff;stroke:#000000;stroke-width:0.5;" x="394.400036978" xlink:href="#m60b17d5389" y="334.656949072"/>
     <use style="fill:#0000ff;stroke:#000000;stroke-width:0.5;" x="406.800031371" xlink:href="#m60b17d5389" y="292.552035682"/>
     <use style="fill:#0000ff;stroke:#000000;stroke-width:0.5;" x="419.199967732" xlink:href="#m60b17d5389" y="248.11148651"/>
     <use style="fill:#0000ff;stroke:#000000;stroke-width:0.5;" x="431.599984977" xlink:href="#m60b17d5389" y="213.575223703"/>
     <use style="fill:#0000ff;stroke:#000000;stroke-width:0.5;" x="444.000011696" xlink:href="#m60b17d5389" y="196.891857244"/>
     <use style="fill:#0000ff;stroke:#000000;stroke-width:0.5;" x="456.399971048" xlink:href="#m60b17d5389" y="203.958334705"/>
     <use style="fill:#0000ff;stroke:#000000;stroke-width:0.5;" x="468.800012144" xlink:href="#m60b17d5389" y="237.439628507"/>
     <use style="fill:#0000ff;stroke:#000000;stroke-width:0.5;" x="481.199990275" xlink:href="#m60b17d5389" y="288.177811624"/>
     <use style="fill:#0000ff;stroke:#000000;stroke-width:0.5;" x="493.600001109" xlink:href="#m60b17d5389" y="339.081050309"/>
     <use style="fill:#0000ff;stroke:#000000;stroke-width:0.5;" x="505.999947236" xlink:href="#m60b17d5389" y="375.413717137"/>
    </g>
   </g>
   <g id="line2d_3">
    <path clip-path="url(#p9d89099838)" d="M 72.000701 388.8 
L 84.39994 379.616309 
L 96.799986 356.137113 
L 109.199972 324.830464 
L 121.599946 296.316547 
L 133.999982 281.548976 
L 146.399973 282.726573 
L 158.800007 293.133703 
L 171.200001 310.824574 
L 183.599985 333.235961 
L 196.000035 355.286694 
L 208.400009 367.326792 
L 220.799999 366.909959 
L 233.200024 353.27528 
L 245.600014 326.97936 
L 258.000008 288.063793 
L 270.400029 238.792358 
L 282.800037 191.516032 
L 295.199297 169.735765 
L 307.600032 192.626656 
L 320.000023 240.691812 
L 332.400012 289.139916 
L 344.800022 327.508132 
L 357.200047 353.438266 
L 369.600026 366.559497 
L 382.000046 366.94043 
L 394.400037 354.462676 
L 406.800031 332.736502 
L 419.199968 309.958995 
L 431.599985 292.718124 
L 444.000012 282.773532 
L 456.399971 282.958136 
L 468.800012 298.814761 
L 481.19999 327.450205 
L 493.600001 358.118514 
L 505.999947 380.452378 
" style="fill:none;stroke:#000000;stroke-linecap:square;"/>
    <defs>
     <path d="M -3 3 
L 3 -3 
M -3 -3 
L 3 3 
" id="m2dfd9750b5" style="stroke:#000000;stroke-width:0.5;"/>
    </defs>
    <g clip-path="url(#p9d89099838)">
     <use style="stroke:#000000;stroke-width:0.5;" x="72.0007011007" xlink:href="#m2dfd9750b5" y="388.8"/>
     <use style="stroke:#000000;stroke-width:0.5;" x="84.3999401647" xlink:href="#m2dfd9750b5" y="379.616309468"/>
     <use style="stroke:#000000;stroke-width:0.5;" x="96.7999858471" xlink:href="#m2dfd9750b5" y="356.137112934"/>
     <use style="stroke:#000000;stroke-width:0.5;" x="109.199971654" xlink:href="#m2dfd9750b5" y="324.830463618"/>
     <use style="stroke:#000000;stroke-width:0.5;" x="121.599946181" xlink:href="#m2dfd9750b5" y="296.316546915"/>
     <use style="stroke:#000000;stroke-width:0.5;" x="133.999981555" xlink:href="#m2dfd9750b5" y="281.54897617"/>
     <use style="stroke:#000000;stroke-width:0.5;" x="146.399972509" xlink:href="#m2dfd9750b5" y="282.726573358"/>
     <use style="stroke:#000000;stroke-width:0.5;" x="158.800006825" xlink:href="#m2dfd9750b5" y="293.133702646"/>
     <use style="stroke:#000000;stroke-width:0.5;" x="171.200001327" xlink:href="#m2dfd9750b5" y="310.824573691"/>
     <use style="stroke:#000000;stroke-width:0.5;" x="183.59998469" xlink:href="#m2dfd9750b5" y="333.235960851"/>
     <use style="stroke:#000000;stroke-width:0.5;" x="196.000034579" xlink:href="#m2dfd9750b5" y="355.286693716"/>
     <use style="stroke:#000000;stroke-width:0.5;" x="208.40000891" xlink:href="#m2dfd9750b5" y="367.326792433"/>
     <use style="stroke:#000000;stroke-width:0.5;" x="220.799998925" xlink:href="#m2dfd9750b5" y="366.909958755"/>
     <use style="stroke:#000000;stroke-width:0.5;" x="233.200024092" xlink:href="#m2dfd9750b5" y="353.275280073"/>
     <use style="stroke:#000000;stroke-width:0.5;" x="245.600013902" xlink:href="#m2dfd9750b5" y="326.979359782"/>
     <use style="stroke:#000000;stroke-width:0.5;" x="258.000007608" xlink:href="#m2dfd9750b5" y="288.063792805"/>
     <use style="stroke:#000000;stroke-width:0.5;" x="270.400029274" xlink:href="#m2dfd9750b5" y="238.792358407"/>
     <use style="stroke:#000000;stroke-width:0.5;" x="282.800036521" xlink:href="#m2dfd9750b5" y="191.51603175"/>
     <use style="stroke:#000000;stroke-width:0.5;" x="295.199297081" xlink:href="#m2dfd9750b5" y="169.735764844"/>
     <use style="stroke:#000000;stroke-width:0.5;" x="307.600032241" xlink:href="#m2dfd9750b5" y="192.626655845"/>
     <use style="stroke:#000000;stroke-width:0.5;" x="320.000023242" xlink:href="#m2dfd9750b5" y="240.691812398"/>
     <use style="stroke:#000000;stroke-width:0.5;" x="332.400011883" xlink:href="#m2dfd9750b5" y="289.139916343"/>
     <use style="stroke:#000000;stroke-width:0.5;" x="344.80002189" xlink:href="#m2dfd9750b5" y="327.50813188"/>
     <use style="stroke:#000000;stroke-width:0.5;" x="357.200047495" xlink:href="#m2dfd9750b5" y="353.43826634"/>
     <use style="stroke:#000000;stroke-width:0.5;" x="369.60002552" xlink:href="#m2dfd9750b5" y="366.559497234"/>
     <use style="stroke:#000000;stroke-width:0.5;" x="382.000045854" xlink:href="#m2dfd9750b5" y="366.940430276"/>
     <use style="stroke:#000000;stroke-width:0.5;" x="394.400036978" xlink:href="#m2dfd9750b5" y="354.462676269"/>
     <use style="stroke:#000000;stroke-width:0.5;" x="406.800031371" xlink:href="#m2dfd9750b5" y="332.736501526"/>
     <use style="stroke:#000000;stroke-width:0.5;" x="419.199967732" xlink:href="#m2dfd9750b5" y="309.958994517"/>
     <use style="stroke:#000000;stroke-width:0.5;" x="431.599984977" xlink:href="#m2dfd9750b5" y="292.718123523"/>
     <use style="stroke:#000000;stroke-width:0.5;" x="444.000011696" xlink:href="#m2dfd9750b5" y="282.773531628"/>
     <use style="stroke:#000000;stroke-width:0.5;" x="456.399971048" xlink:href="#m2dfd9750b5" y="282.958135788"/>
     <use style="stroke:#000000;stroke-width:0.5;" x="468.800012144" xlink:href="#m2dfd9750b5" y="298.814760677"/>
     <use style="stroke:#000000;stroke-width:0.5;" x="481.199990275" xlink:href="#m2dfd9750b5" y="327.450204687"/>
     <use style="stroke:#000000;stroke-width:0.5;" x="493.600001109" xlink:href="#m2dfd9750b5" y="358.118513589"/>
     <use style="stroke:#000000;stroke-width:0.5;" x="505.999947236" xlink:href="#m2dfd9750b5" y="380.452377686"/>
    </g>
   </g>
   <g id="line2d_4">
    <path clip-path="url(#p9d89099838)" d="M 72.000701 388.8 
L 84.39994 387.952614 
L 96.799986 383.087233 
L 109.199972 373.029436 
L 121.599946 356.975883 
L 133.999982 336.770689 
L 146.399973 321.842251 
L 158.800007 322.868259 
L 171.200001 334.813215 
L 183.599985 346.968796 
L 196.000035 353.370276 
L 208.400009 358.054981 
L 220.799999 359.245402 
L 233.200024 353.546078 
L 245.600014 339.054946 
L 258.000008 320.432046 
L 270.400029 305.735311 
L 282.800037 298.992683 
L 295.199297 298.177083 
L 307.600032 297.727362 
L 320.000023 303.662822 
L 332.400012 319.23088 
L 344.800022 338.510007 
L 357.200047 353.393848 
L 369.600026 359.69931 
L 382.000046 358.46375 
L 394.400037 354.194546 
L 406.800031 347.383736 
L 419.199968 335.565696 
L 431.599985 323.221982 
L 444.000012 321.842374 
L 456.399971 335.477657 
L 468.800012 354.522543 
L 481.19999 370.303704 
L 493.600001 380.884991 
L 505.999947 386.862269 
" style="fill:none;stroke:#ff00ff;stroke-linecap:square;"/>
    <defs>
     <path d="M -3 3 
L 3 -3 
M -3 -3 
L 3 3 
" id="m25460b8b17" style="stroke:#ff00ff;stroke-width:0.5;"/>
    </defs>
    <g clip-path="url(#p9d89099838)">
     <use style="fill:#ff00ff;stroke:#ff00ff;stroke-width:0.5;" x="72.0007011007" xlink:href="#m25460b8b17" y="388.8"/>
     <use style="fill:#ff00ff;stroke:#ff00ff;stroke-width:0.5;" x="84.3999401647" xlink:href="#m25460b8b17" y="387.952614055"/>
     <use style="fill:#ff00ff;stroke:#ff00ff;stroke-width:0.5;" x="96.7999858471" xlink:href="#m25460b8b17" y="383.08723337"/>
     <use style="fill:#ff00ff;stroke:#ff00ff;stroke-width:0.5;" x="109.199971654" xlink:href="#m25460b8b17" y="373.029436046"/>
     <use style="fill:#ff00ff;stroke:#ff00ff;stroke-width:0.5;" x="121.599946181" xlink:href="#m25460b8b17" y="356.975883201"/>
     <use style="fill:#ff00ff;stroke:#ff00ff;stroke-width:0.5;" x="133.999981555" xlink:href="#m25460b8b17" y="336.770689081"/>
     <use style="fill:#ff00ff;stroke:#ff00ff;stroke-width:0.5;" x="146.399972509" xlink:href="#m25460b8b17" y="321.842251291"/>
     <use style="fill:#ff00ff;stroke:#ff00ff;stroke-width:0.5;" x="158.800006825" xlink:href="#m25460b8b17" y="322.868259433"/>
     <use style="fill:#ff00ff;stroke:#ff00ff;stroke-width:0.5;" x="171.200001327" xlink:href="#m25460b8b17" y="334.813214971"/>
     <use style="fill:#ff00ff;stroke:#ff00ff;stroke-width:0.5;" x="183.59998469" xlink:href="#m25460b8b17" y="346.968796401"/>
     <use style="fill:#ff00ff;stroke:#ff00ff;stroke-width:0.5;" x="196.000034579" xlink:href="#m25460b8b17" y="353.370275887"/>
     <use style="fill:#ff00ff;stroke:#ff00ff;stroke-width:0.5;" x="208.40000891" xlink:href="#m25460b8b17" y="358.054980597"/>
     <use style="fill:#ff00ff;stroke:#ff00ff;stroke-width:0.5;" x="220.799998925" xlink:href="#m25460b8b17" y="359.245401802"/>
     <use style="fill:#ff00ff;stroke:#ff00ff;stroke-width:0.5;" x="233.200024092" xlink:href="#m25460b8b17" y="353.54607804"/>
     <use style="fill:#ff00ff;stroke:#ff00ff;stroke-width:0.5;" x="245.600013902" xlink:href="#m25460b8b17" y="339.054946295"/>
     <use style="fill:#ff00ff;stroke:#ff00ff;stroke-width:0.5;" x="258.000007608" xlink:href="#m25460b8b17" y="320.432045852"/>
     <use style="fill:#ff00ff;stroke:#ff00ff;stroke-width:0.5;" x="270.400029274" xlink:href="#m25460b8b17" y="305.735311471"/>
     <use style="fill:#ff00ff;stroke:#ff00ff;stroke-width:0.5;" x="282.800036521" xlink:href="#m25460b8b17" y="298.992682853"/>
     <use style="fill:#ff00ff;stroke:#ff00ff;stroke-width:0.5;" x="295.199297081" xlink:href="#m25460b8b17" y="298.177082589"/>
     <use style="fill:#ff00ff;stroke:#ff00ff;stroke-width:0.5;" x="307.600032241" xlink:href="#m25460b8b17" y="297.727362073"/>
     <use style="fill:#ff00ff;stroke:#ff00ff;stroke-width:0.5;" x="320.000023242" xlink:href="#m25460b8b17" y="303.662821656"/>
     <use style="fill:#ff00ff;stroke:#ff00ff;stroke-width:0.5;" x="332.400011883" xlink:href="#m25460b8b17" y="319.230880105"/>
     <use style="fill:#ff00ff;stroke:#ff00ff;stroke-width:0.5;" x="344.80002189" xlink:href="#m25460b8b17" y="338.510007441"/>
     <use style="fill:#ff00ff;stroke:#ff00ff;stroke-width:0.5;" x="357.200047495" xlink:href="#m25460b8b17" y="353.393848261"/>
     <use style="fill:#ff00ff;stroke:#ff00ff;stroke-width:0.5;" x="369.60002552" xlink:href="#m25460b8b17" y="359.699310211"/>
     <use style="fill:#ff00ff;stroke:#ff00ff;stroke-width:0.5;" x="382.000045854" xlink:href="#m25460b8b17" y="358.46375043"/>
     <use style="fill:#ff00ff;stroke:#ff00ff;stroke-width:0.5;" x="394.400036978" xlink:href="#m25460b8b17" y="354.194545596"/>
     <use style="fill:#ff00ff;stroke:#ff00ff;stroke-width:0.5;" x="406.800031371" xlink:href="#m25460b8b17" y="347.383736323"/>
     <use style="fill:#ff00ff;stroke:#ff00ff;stroke-width:0.5;" x="419.199967732" xlink:href="#m25460b8b17" y="335.565695951"/>
     <use style="fill:#ff00ff;stroke:#ff00ff;stroke-width:0.5;" x="431.599984977" xlink:href="#m25460b8b17" y="323.221982132"/>
     <use style="fill:#ff00ff;stroke:#ff00ff;stroke-width:0.5;" x="444.000011696" xlink:href="#m25460b8b17" y="321.842374049"/>
     <use style="fill:#ff00ff;stroke:#ff00ff;stroke-width:0.5;" x="456.399971048" xlink:href="#m25460b8b17" y="335.477656502"/>
     <use style="fill:#ff00ff;stroke:#ff00ff;stroke-width:0.5;" x="468.800012144" xlink:href="#m25460b8b17" y="354.522543481"/>
     <use style="fill:#ff00ff;stroke:#ff00ff;stroke-width:0.5;" x="481.199990275" xlink:href="#m25460b8b17" y="370.30370361"/>
     <use style="fill:#ff00ff;stroke:#ff00ff;stroke-width:0.5;" x="493.600001109" xlink:href="#m25460b8b17" y="380.884990559"/>
     <use style="fill:#ff00ff;stroke:#ff00ff;stroke-width:0.5;" x="505.999947236" xlink:href="#m25460b8b17" y="386.86226908"/>
    </g>
   </g>
   <g id="line2d_5">
    <path clip-path="url(#p9d89099838)" d="M 72.000701 388.8 
L 84.39994 377.82529 
L 96.799986 348.170184 
L 109.199972 305.531207 
L 121.599946 260.987577 
L 133.999982 228.734213 
L 146.399973 217.418463 
L 158.800007 226.357482 
L 171.200001 253.095667 
L 183.599985 288.900227 
L 196.000035 322.125685 
L 208.400009 338.94801 
L 220.799999 335.778534 
L 233.200024 313.175212 
L 245.600014 274.040913 
L 258.000008 220.835525 
L 270.400029 157.532696 
L 282.800037 99.400256 
L 295.199297 73.414264 
L 307.600032 100.47385 
L 320.000023 159.381417 
L 332.400012 221.810348 
L 344.800022 274.559008 
L 357.200047 313.281472 
L 369.600026 335.383573 
L 382.000046 338.561848 
L 394.400037 321.3343 
L 406.800031 288.402722 
L 419.199968 252.256501 
L 431.599985 225.961695 
L 444.000012 217.451187 
L 456.399971 230.096371 
L 468.800012 263.353743 
L 481.19999 308.046101 
L 493.600001 350.054783 
L 505.999947 378.582769 
" style="fill:none;stroke:#008000;stroke-linecap:square;"/>
    <defs>
     <path d="M 0 3 
C 0.795609 3 1.55874 2.683901 2.12132 2.12132 
C 2.683901 1.55874 3 0.795609 3 0 
C 3 -0.795609 2.683901 -1.55874 2.12132 -2.12132 
C 1.55874 -2.683901 0.795609 -3 0 -3 
C -0.795609 -3 -1.55874 -2.683901 -2.12132 -2.12132 
C -2.683901 -1.55874 -3 -0.795609 -3 0 
C -3 0.795609 -2.683901 1.55874 -2.12132 2.12132 
C -1.55874 2.683901 -0.795609 3 0 3 
z
" id="m01744d4ff1" style="stroke:#000000;stroke-width:0.5;"/>
    </defs>
    <g clip-path="url(#p9d89099838)">
     <use style="fill:#008000;stroke:#000000;stroke-width:0.5;" x="72.0007011007" xlink:href="#m01744d4ff1" y="388.8"/>
     <use style="fill:#008000;stroke:#000000;stroke-width:0.5;" x="84.3999401647" xlink:href="#m01744d4ff1" y="377.825289749"/>
     <use style="fill:#008000;stroke:#000000;stroke-width:0.5;" x="96.7999858471" xlink:href="#m01744d4ff1" y="348.170184097"/>
     <use style="fill:#008000;stroke:#000000;stroke-width:0.5;" x="109.199971654" xlink:href="#m01744d4ff1" y="305.531207317"/>
     <use style="fill:#008000;stroke:#000000;stroke-width:0.5;" x="121.599946181" xlink:href="#m01744d4ff1" y="260.987576845"/>
     <use style="fill:#008000;stroke:#000000;stroke-width:0.5;" x="133.999981555" xlink:href="#m01744d4ff1" y="228.734212587"/>
     <use style="fill:#008000;stroke:#000000;stroke-width:0.5;" x="146.399972509" xlink:href="#m01744d4ff1" y="217.418463261"/>
     <use style="fill:#008000;stroke:#000000;stroke-width:0.5;" x="158.800006825" xlink:href="#m01744d4ff1" y="226.357482224"/>
     <use style="fill:#008000;stroke:#000000;stroke-width:0.5;" x="171.200001327" xlink:href="#m01744d4ff1" y="253.095667024"/>
     <use style="fill:#008000;stroke:#000000;stroke-width:0.5;" x="183.59998469" xlink:href="#m01744d4ff1" y="288.900226874"/>
     <use style="fill:#008000;stroke:#000000;stroke-width:0.5;" x="196.000034579" xlink:href="#m01744d4ff1" y="322.125685486"/>
     <use style="fill:#008000;stroke:#000000;stroke-width:0.5;" x="208.40000891" xlink:href="#m01744d4ff1" y="338.948010463"/>
     <use style="fill:#008000;stroke:#000000;stroke-width:0.5;" x="220.799998925" xlink:href="#m01744d4ff1" y="335.778533554"/>
     <use style="fill:#008000;stroke:#000000;stroke-width:0.5;" x="233.200024092" xlink:href="#m01744d4ff1" y="313.175212201"/>
     <use style="fill:#008000;stroke:#000000;stroke-width:0.5;" x="245.600013902" xlink:href="#m01744d4ff1" y="274.04091286"/>
     <use style="fill:#008000;stroke:#000000;stroke-width:0.5;" x="258.000007608" xlink:href="#m01744d4ff1" y="220.835524685"/>
     <use style="fill:#008000;stroke:#000000;stroke-width:0.5;" x="270.400029274" xlink:href="#m01744d4ff1" y="157.532696229"/>
     <use style="fill:#008000;stroke:#000000;stroke-width:0.5;" x="282.800036521" xlink:href="#m01744d4ff1" y="99.4002564464"/>
     <use style="fill:#008000;stroke:#000000;stroke-width:0.5;" x="295.199297081" xlink:href="#m01744d4ff1" y="73.4142635606"/>
     <use style="fill:#008000;stroke:#000000;stroke-width:0.5;" x="307.600032241" xlink:href="#m01744d4ff1" y="100.473849693"/>
     <use style="fill:#008000;stroke:#000000;stroke-width:0.5;" x="320.000023242" xlink:href="#m01744d4ff1" y="159.381417371"/>
     <use style="fill:#008000;stroke:#000000;stroke-width:0.5;" x="332.400011883" xlink:href="#m01744d4ff1" y="221.810347546"/>
     <use style="fill:#008000;stroke:#000000;stroke-width:0.5;" x="344.80002189" xlink:href="#m01744d4ff1" y="274.55900785"/>
     <use style="fill:#008000;stroke:#000000;stroke-width:0.5;" x="357.200047495" xlink:href="#m01744d4ff1" y="313.281472365"/>
     <use style="fill:#008000;stroke:#000000;stroke-width:0.5;" x="369.60002552" xlink:href="#m01744d4ff1" y="335.383573335"/>
     <use style="fill:#008000;stroke:#000000;stroke-width:0.5;" x="382.000045854" xlink:href="#m01744d4ff1" y="338.56184845"/>
     <use style="fill:#008000;stroke:#000000;stroke-width:0.5;" x="394.400036978" xlink:href="#m01744d4ff1" y="321.334300481"/>
     <use style="fill:#008000;stroke:#000000;stroke-width:0.5;" x="406.800031371" xlink:href="#m01744d4ff1" y="288.402722302"/>
     <use style="fill:#008000;stroke:#000000;stroke-width:0.5;" x="419.199967732" xlink:href="#m01744d4ff1" y="252.256501213"/>
     <use style="fill:#008000;stroke:#000000;stroke-width:0.5;" x="431.599984977" xlink:href="#m01744d4ff1" y="225.961695385"/>
     <use style="fill:#008000;stroke:#000000;stroke-width:0.5;" x="444.000011696" xlink:href="#m01744d4ff1" y="217.451186958"/>
     <use style="fill:#008000;stroke:#000000;stroke-width:0.5;" x="456.399971048" xlink:href="#m01744d4ff1" y="230.096371471"/>
     <use style="fill:#008000;stroke:#000000;stroke-width:0.5;" x="468.800012144" xlink:href="#m01744d4ff1" y="263.353742537"/>
     <use style="fill:#008000;stroke:#000000;stroke-width:0.5;" x="481.199990275" xlink:href="#m01744d4ff1" y="308.046101283"/>
     <use style="fill:#008000;stroke:#000000;stroke-width:0.5;" x="493.600001109" xlink:href="#m01744d4ff1" y="350.054783152"/>
     <use style="fill:#008000;stroke:#000000;stroke-width:0.5;" x="505.999947236" xlink:href="#m01744d4ff1" y="378.582769154"/>
    </g>
   </g>
   <g id="patch_3">
    <path d="M 72 388.8 
L 72 43.2 
" style="fill:none;stroke:#000000;stroke-linecap:square;stroke-linejoin:miter;"/>
   </g>
   <g id="patch_4">
    <path d="M 72 388.8 
L 518.4 388.8 
" style="fill:none;stroke:#000000;stroke-linecap:square;stroke-linejoin:miter;"/>
   </g>
   <g id="patch_5">
    <path d="M 518.4 388.8 
L 518.4 43.2 
" style="fill:none;stroke:#000000;stroke-linecap:square;stroke-linejoin:miter;"/>
   </g>
   <g id="patch_6">
    <path d="M 72 43.2 
L 518.4 43.2 
" style="fill:none;stroke:#000000;stroke-linecap:square;stroke-linejoin:miter;"/>
   </g>
   <g id="matplotlib.axis_1">
    <g id="xtick_1">
     <g id="line2d_6">
      <defs>
       <path d="M 0 0 
L 0 -4 
" id="mfa73b94590" style="stroke:#000000;stroke-width:0.5;"/>
      </defs>
      <g>
       <use style="stroke:#000000;stroke-width:0.5;" x="72.0" xlink:href="#mfa73b94590" y="388.8"/>
      </g>
     </g>
     <g id="line2d_7">
      <defs>
       <path d="M 0 0 
L 0 4 
" id="mf33fcdea39" style="stroke:#000000;stroke-width:0.5;"/>
      </defs>
      <g>
       <use style="stroke:#000000;stroke-width:0.5;" x="72.0" xlink:href="#mf33fcdea39" y="43.2"/>
      </g>
     </g>
     <g id="text_1">
      <!-- −180 -->
      <defs>
       <path d="M 12.40625 8.296875 
L 28.515625 8.296875 
L 28.515625 63.921875 
L 10.984375 60.40625 
L 10.984375 69.390625 
L 28.421875 72.90625 
L 38.28125 72.90625 
L 38.28125 8.296875 
L 54.390625 8.296875 
L 54.390625 0 
L 12.40625 0 
z
" id="BitstreamVeraSans-Roman-31"/>
       <path d="M 31.78125 66.40625 
Q 24.171875 66.40625 20.328125 58.90625 
Q 16.5 51.421875 16.5 36.375 
Q 16.5 21.390625 20.328125 13.890625 
Q 24.171875 6.390625 31.78125 6.390625 
Q 39.453125 6.390625 43.28125 13.890625 
Q 47.125 21.390625 47.125 36.375 
Q 47.125 51.421875 43.28125 58.90625 
Q 39.453125 66.40625 31.78125 66.40625 
M 31.78125 74.21875 
Q 44.046875 74.21875 50.515625 64.515625 
Q 56.984375 54.828125 56.984375 36.375 
Q 56.984375 17.96875 50.515625 8.265625 
Q 44.046875 -1.421875 31.78125 -1.421875 
Q 19.53125 -1.421875 13.0625 8.265625 
Q 6.59375 17.96875 6.59375 36.375 
Q 6.59375 54.828125 13.0625 64.515625 
Q 19.53125 74.21875 31.78125 74.21875 
" id="BitstreamVeraSans-Roman-30"/>
       <path d="M 10.59375 35.5 
L 73.1875 35.5 
L 73.1875 27.203125 
L 10.59375 27.203125 
z
" id="BitstreamVeraSans-Roman-2212"/>
       <path d="M 31.78125 34.625 
Q 24.75 34.625 20.71875 30.859375 
Q 16.703125 27.09375 16.703125 20.515625 
Q 16.703125 13.921875 20.71875 10.15625 
Q 24.75 6.390625 31.78125 6.390625 
Q 38.8125 6.390625 42.859375 10.171875 
Q 46.921875 13.96875 46.921875 20.515625 
Q 46.921875 27.09375 42.890625 30.859375 
Q 38.875 34.625 31.78125 34.625 
M 21.921875 38.8125 
Q 15.578125 40.375 12.03125 44.71875 
Q 8.5 49.078125 8.5 55.328125 
Q 8.5 64.0625 14.71875 69.140625 
Q 20.953125 74.21875 31.78125 74.21875 
Q 42.671875 74.21875 48.875 69.140625 
Q 55.078125 64.0625 55.078125 55.328125 
Q 55.078125 49.078125 51.53125 44.71875 
Q 48 40.375 41.703125 38.8125 
Q 48.828125 37.15625 52.796875 32.3125 
Q 56.78125 27.484375 56.78125 20.515625 
Q 56.78125 9.90625 50.3125 4.234375 
Q 43.84375 -1.421875 31.78125 -1.421875 
Q 19.734375 -1.421875 13.25 4.234375 
Q 6.78125 9.90625 6.78125 20.515625 
Q 6.78125 27.484375 10.78125 32.3125 
Q 14.796875 37.15625 21.921875 38.8125 
M 18.3125 54.390625 
Q 18.3125 48.734375 21.84375 45.5625 
Q 25.390625 42.390625 31.78125 42.390625 
Q 38.140625 42.390625 41.71875 45.5625 
Q 45.3125 48.734375 45.3125 54.390625 
Q 45.3125 60.0625 41.71875 63.234375 
Q 38.140625 66.40625 31.78125 66.40625 
Q 25.390625 66.40625 21.84375 63.234375 
Q 18.3125 60.0625 18.3125 54.390625 
" id="BitstreamVeraSans-Roman-38"/>
      </defs>
      <g transform="translate(55.5196875 401.918125)scale(0.12 -0.12)">
       <use xlink:href="#BitstreamVeraSans-Roman-2212"/>
       <use x="83.7890625" xlink:href="#BitstreamVeraSans-Roman-31"/>
       <use x="147.412109375" xlink:href="#BitstreamVeraSans-Roman-38"/>
       <use x="211.03515625" xlink:href="#BitstreamVeraSans-Roman-30"/>
      </g>
     </g>
    </g>
    <g id="xtick_2">
     <g id="line2d_8">
      <g>
       <use style="stroke:#000000;stroke-width:0.5;" x="127.8" xlink:href="#mfa73b94590" y="388.8"/>
      </g>
     </g>
     <g id="line2d_9">
      <g>
       <use style="stroke:#000000;stroke-width:0.5;" x="127.8" xlink:href="#mf33fcdea39" y="43.2"/>
      </g>
     </g>
     <g id="text_2">
      <!-- −135 -->
      <defs>
       <path d="M 10.796875 72.90625 
L 49.515625 72.90625 
L 49.515625 64.59375 
L 19.828125 64.59375 
L 19.828125 46.734375 
Q 21.96875 47.46875 24.109375 47.828125 
Q 26.265625 48.1875 28.421875 48.1875 
Q 40.625 48.1875 47.75 41.5 
Q 54.890625 34.8125 54.890625 23.390625 
Q 54.890625 11.625 47.5625 5.09375 
Q 40.234375 -1.421875 26.90625 -1.421875 
Q 22.3125 -1.421875 17.546875 -0.640625 
Q 12.796875 0.140625 7.71875 1.703125 
L 7.71875 11.625 
Q 12.109375 9.234375 16.796875 8.0625 
Q 21.484375 6.890625 26.703125 6.890625 
Q 35.15625 6.890625 40.078125 11.328125 
Q 45.015625 15.765625 45.015625 23.390625 
Q 45.015625 31 40.078125 35.4375 
Q 35.15625 39.890625 26.703125 39.890625 
Q 22.75 39.890625 18.8125 39.015625 
Q 14.890625 38.140625 10.796875 36.28125 
z
" id="BitstreamVeraSans-Roman-35"/>
       <path d="M 40.578125 39.3125 
Q 47.65625 37.796875 51.625 33 
Q 55.609375 28.21875 55.609375 21.1875 
Q 55.609375 10.40625 48.1875 4.484375 
Q 40.765625 -1.421875 27.09375 -1.421875 
Q 22.515625 -1.421875 17.65625 -0.515625 
Q 12.796875 0.390625 7.625 2.203125 
L 7.625 11.71875 
Q 11.71875 9.328125 16.59375 8.109375 
Q 21.484375 6.890625 26.8125 6.890625 
Q 36.078125 6.890625 40.9375 10.546875 
Q 45.796875 14.203125 45.796875 21.1875 
Q 45.796875 27.640625 41.28125 31.265625 
Q 36.765625 34.90625 28.71875 34.90625 
L 20.21875 34.90625 
L 20.21875 43.015625 
L 29.109375 43.015625 
Q 36.375 43.015625 40.234375 45.921875 
Q 44.09375 48.828125 44.09375 54.296875 
Q 44.09375 59.90625 40.109375 62.90625 
Q 36.140625 65.921875 28.71875 65.921875 
Q 24.65625 65.921875 20.015625 65.03125 
Q 15.375 64.15625 9.8125 62.3125 
L 9.8125 71.09375 
Q 15.4375 72.65625 20.34375 73.4375 
Q 25.25 74.21875 29.59375 74.21875 
Q 40.828125 74.21875 47.359375 69.109375 
Q 53.90625 64.015625 53.90625 55.328125 
Q 53.90625 49.265625 50.4375 45.09375 
Q 46.96875 40.921875 40.578125 39.3125 
" id="BitstreamVeraSans-Roman-33"/>
      </defs>
      <g transform="translate(111.3196875 401.918125)scale(0.12 -0.12)">
       <use xlink:href="#BitstreamVeraSans-Roman-2212"/>
       <use x="83.7890625" xlink:href="#BitstreamVeraSans-Roman-31"/>
       <use x="147.412109375" xlink:href="#BitstreamVeraSans-Roman-33"/>
       <use x="211.03515625" xlink:href="#BitstreamVeraSans-Roman-35"/>
      </g>
     </g>
    </g>
    <g id="xtick_3">
     <g id="line2d_10">
      <g>
       <use style="stroke:#000000;stroke-width:0.5;" x="183.6" xlink:href="#mfa73b94590" y="388.8"/>
      </g>
     </g>
     <g id="line2d_11">
      <g>
       <use style="stroke:#000000;stroke-width:0.5;" x="183.6" xlink:href="#mf33fcdea39" y="43.2"/>
      </g>
     </g>
     <g id="text_3">
      <!-- −90 -->
      <defs>
       <path d="M 10.984375 1.515625 
L 10.984375 10.5 
Q 14.703125 8.734375 18.5 7.8125 
Q 22.3125 6.890625 25.984375 6.890625 
Q 35.75 6.890625 40.890625 13.453125 
Q 46.046875 20.015625 46.78125 33.40625 
Q 43.953125 29.203125 39.59375 26.953125 
Q 35.25 24.703125 29.984375 24.703125 
Q 19.046875 24.703125 12.671875 31.3125 
Q 6.296875 37.9375 6.296875 49.421875 
Q 6.296875 60.640625 12.9375 67.421875 
Q 19.578125 74.21875 30.609375 74.21875 
Q 43.265625 74.21875 49.921875 64.515625 
Q 56.59375 54.828125 56.59375 36.375 
Q 56.59375 19.140625 48.40625 8.859375 
Q 40.234375 -1.421875 26.421875 -1.421875 
Q 22.703125 -1.421875 18.890625 -0.6875 
Q 15.09375 0.046875 10.984375 1.515625 
M 30.609375 32.421875 
Q 37.25 32.421875 41.125 36.953125 
Q 45.015625 41.5 45.015625 49.421875 
Q 45.015625 57.28125 41.125 61.84375 
Q 37.25 66.40625 30.609375 66.40625 
Q 23.96875 66.40625 20.09375 61.84375 
Q 16.21875 57.28125 16.21875 49.421875 
Q 16.21875 41.5 20.09375 36.953125 
Q 23.96875 32.421875 30.609375 32.421875 
" id="BitstreamVeraSans-Roman-39"/>
      </defs>
      <g transform="translate(170.9371875 401.918125)scale(0.12 -0.12)">
       <use xlink:href="#BitstreamVeraSans-Roman-2212"/>
       <use x="83.7890625" xlink:href="#BitstreamVeraSans-Roman-39"/>
       <use x="147.412109375" xlink:href="#BitstreamVeraSans-Roman-30"/>
      </g>
     </g>
    </g>
    <g id="xtick_4">
     <g id="line2d_12">
      <g>
       <use style="stroke:#000000;stroke-width:0.5;" x="239.4" xlink:href="#mfa73b94590" y="388.8"/>
      </g>
     </g>
     <g id="line2d_13">
      <g>
       <use style="stroke:#000000;stroke-width:0.5;" x="239.4" xlink:href="#mf33fcdea39" y="43.2"/>
      </g>
     </g>
     <g id="text_4">
      <!-- −45 -->
      <defs>
       <path d="M 37.796875 64.3125 
L 12.890625 25.390625 
L 37.796875 25.390625 
z
M 35.203125 72.90625 
L 47.609375 72.90625 
L 47.609375 25.390625 
L 58.015625 25.390625 
L 58.015625 17.1875 
L 47.609375 17.1875 
L 47.609375 0 
L 37.796875 0 
L 37.796875 17.1875 
L 4.890625 17.1875 
L 4.890625 26.703125 
z
" id="BitstreamVeraSans-Roman-34"/>
      </defs>
      <g transform="translate(226.7371875 401.918125)scale(0.12 -0.12)">
       <use xlink:href="#BitstreamVeraSans-Roman-2212"/>
       <use x="83.7890625" xlink:href="#BitstreamVeraSans-Roman-34"/>
       <use x="147.412109375" xlink:href="#BitstreamVeraSans-Roman-35"/>
      </g>
     </g>
    </g>
    <g id="xtick_5">
     <g id="line2d_14">
      <g>
       <use style="stroke:#000000;stroke-width:0.5;" x="295.2" xlink:href="#mfa73b94590" y="388.8"/>
      </g>
     </g>
     <g id="line2d_15">
      <g>
       <use style="stroke:#000000;stroke-width:0.5;" x="295.2" xlink:href="#mf33fcdea39" y="43.2"/>
      </g>
     </g>
     <g id="text_5">
      <!-- 0 -->
      <g transform="translate(291.3825 401.918125)scale(0.12 -0.12)">
       <use xlink:href="#BitstreamVeraSans-Roman-30"/>
      </g>
     </g>
    </g>
    <g id="xtick_6">
     <g id="line2d_16">
      <g>
       <use style="stroke:#000000;stroke-width:0.5;" x="351.0" xlink:href="#mfa73b94590" y="388.8"/>
      </g>
     </g>
     <g id="line2d_17">
      <g>
       <use style="stroke:#000000;stroke-width:0.5;" x="351.0" xlink:href="#mf33fcdea39" y="43.2"/>
      </g>
     </g>
     <g id="text_6">
      <!-- 45 -->
      <g transform="translate(343.365 401.918125)scale(0.12 -0.12)">
       <use xlink:href="#BitstreamVeraSans-Roman-34"/>
       <use x="63.623046875" xlink:href="#BitstreamVeraSans-Roman-35"/>
      </g>
     </g>
    </g>
    <g id="xtick_7">
     <g id="line2d_18">
      <g>
       <use style="stroke:#000000;stroke-width:0.5;" x="406.8" xlink:href="#mfa73b94590" y="388.8"/>
      </g>
     </g>
     <g id="line2d_19">
      <g>
       <use style="stroke:#000000;stroke-width:0.5;" x="406.8" xlink:href="#mf33fcdea39" y="43.2"/>
      </g>
     </g>
     <g id="text_7">
      <!-- 90 -->
      <g transform="translate(399.165 401.918125)scale(0.12 -0.12)">
       <use xlink:href="#BitstreamVeraSans-Roman-39"/>
       <use x="63.623046875" xlink:href="#BitstreamVeraSans-Roman-30"/>
      </g>
     </g>
    </g>
    <g id="xtick_8">
     <g id="line2d_20">
      <g>
       <use style="stroke:#000000;stroke-width:0.5;" x="462.6" xlink:href="#mfa73b94590" y="388.8"/>
      </g>
     </g>
     <g id="line2d_21">
      <g>
       <use style="stroke:#000000;stroke-width:0.5;" x="462.6" xlink:href="#mf33fcdea39" y="43.2"/>
      </g>
     </g>
     <g id="text_8">
      <!-- 135 -->
      <g transform="translate(451.1475 401.918125)scale(0.12 -0.12)">
       <use xlink:href="#BitstreamVeraSans-Roman-31"/>
       <use x="63.623046875" xlink:href="#BitstreamVeraSans-Roman-33"/>
       <use x="127.24609375" xlink:href="#BitstreamVeraSans-Roman-35"/>
      </g>
     </g>
    </g>
    <g id="xtick_9">
     <g id="line2d_22">
      <g>
       <use style="stroke:#000000;stroke-width:0.5;" x="518.4" xlink:href="#mfa73b94590" y="388.8"/>
      </g>
     </g>
     <g id="line2d_23">
      <g>
       <use style="stroke:#000000;stroke-width:0.5;" x="518.4" xlink:href="#mf33fcdea39" y="43.2"/>
      </g>
     </g>
     <g id="text_9">
      <!-- 180 -->
      <g transform="translate(506.9475 401.918125)scale(0.12 -0.12)">
       <use xlink:href="#BitstreamVeraSans-Roman-31"/>
       <use x="63.623046875" xlink:href="#BitstreamVeraSans-Roman-38"/>
       <use x="127.24609375" xlink:href="#BitstreamVeraSans-Roman-30"/>
      </g>
     </g>
    </g>
    <g id="text_10">
     <!-- Phi -->
     <defs>
      <path d="M 19.671875 64.796875 
L 19.671875 37.40625 
L 32.078125 37.40625 
Q 38.96875 37.40625 42.71875 40.96875 
Q 46.484375 44.53125 46.484375 51.125 
Q 46.484375 57.671875 42.71875 61.234375 
Q 38.96875 64.796875 32.078125 64.796875 
z
M 9.8125 72.90625 
L 32.078125 72.90625 
Q 44.34375 72.90625 50.609375 67.359375 
Q 56.890625 61.8125 56.890625 51.125 
Q 56.890625 40.328125 50.609375 34.8125 
Q 44.34375 29.296875 32.078125 29.296875 
L 19.671875 29.296875 
L 19.671875 0 
L 9.8125 0 
z
" id="BitstreamVeraSans-Roman-50"/>
      <path d="M 9.421875 54.6875 
L 18.40625 54.6875 
L 18.40625 0 
L 9.421875 0 
z
M 9.421875 75.984375 
L 18.40625 75.984375 
L 18.40625 64.59375 
L 9.421875 64.59375 
z
" id="BitstreamVeraSans-Roman-69"/>
      <path d="M 54.890625 33.015625 
L 54.890625 0 
L 45.90625 0 
L 45.90625 32.71875 
Q 45.90625 40.484375 42.875 44.328125 
Q 39.84375 48.1875 33.796875 48.1875 
Q 26.515625 48.1875 22.3125 43.546875 
Q 18.109375 38.921875 18.109375 30.90625 
L 18.109375 0 
L 9.078125 0 
L 9.078125 75.984375 
L 18.109375 75.984375 
L 18.109375 46.1875 
Q 21.34375 51.125 25.703125 53.5625 
Q 30.078125 56 35.796875 56 
Q 45.21875 56 50.046875 50.171875 
Q 54.890625 44.34375 54.890625 33.015625 
" id="BitstreamVeraSans-Roman-68"/>
     </defs>
     <g transform="translate(286.1128125 418.531875)scale(0.12 -0.12)">
      <use xlink:href="#BitstreamVeraSans-Roman-50"/>
      <use x="60.302734375" xlink:href="#BitstreamVeraSans-Roman-68"/>
      <use x="123.681640625" xlink:href="#BitstreamVeraSans-Roman-69"/>
     </g>
    </g>
   </g>
   <g id="matplotlib.axis_2">
    <g id="ytick_1">
     <g id="line2d_24">
      <defs>
       <path d="M 0 0 
L 4 0 
" id="ma2e169fc37" style="stroke:#000000;stroke-width:0.5;"/>
      </defs>
      <g>
       <use style="stroke:#000000;stroke-width:0.5;" x="72.0" xlink:href="#ma2e169fc37" y="388.8"/>
      </g>
     </g>
     <g id="line2d_25">
      <defs>
       <path d="M 0 0 
L -4 0 
" id="m772d78a836" style="stroke:#000000;stroke-width:0.5;"/>
      </defs>
      <g>
       <use style="stroke:#000000;stroke-width:0.5;" x="518.4" xlink:href="#m772d78a836" y="388.8"/>
      </g>
     </g>
     <g id="text_11">
      <!-- 0 -->
      <g transform="translate(60.365 392.11125)scale(0.12 -0.12)">
       <use xlink:href="#BitstreamVeraSans-Roman-30"/>
      </g>
     </g>
    </g>
    <g id="ytick_2">
     <g id="line2d_26">
      <g>
       <use style="stroke:#000000;stroke-width:0.5;" x="72.0" xlink:href="#ma2e169fc37" y="339.428571429"/>
      </g>
     </g>
     <g id="line2d_27">
      <g>
       <use style="stroke:#000000;stroke-width:0.5;" x="518.4" xlink:href="#m772d78a836" y="339.428571429"/>
      </g>
     </g>
     <g id="text_12">
      <!-- 1 -->
      <g transform="translate(60.365 342.739821429)scale(0.12 -0.12)">
       <use xlink:href="#BitstreamVeraSans-Roman-31"/>
      </g>
     </g>
    </g>
    <g id="ytick_3">
     <g id="line2d_28">
      <g>
       <use style="stroke:#000000;stroke-width:0.5;" x="72.0" xlink:href="#ma2e169fc37" y="290.057142857"/>
      </g>
     </g>
     <g id="line2d_29">
      <g>
       <use style="stroke:#000000;stroke-width:0.5;" x="518.4" xlink:href="#m772d78a836" y="290.057142857"/>
      </g>
     </g>
     <g id="text_13">
      <!-- 2 -->
      <defs>
       <path d="M 19.1875 8.296875 
L 53.609375 8.296875 
L 53.609375 0 
L 7.328125 0 
L 7.328125 8.296875 
Q 12.9375 14.109375 22.625 23.890625 
Q 32.328125 33.6875 34.8125 36.53125 
Q 39.546875 41.84375 41.421875 45.53125 
Q 43.3125 49.21875 43.3125 52.78125 
Q 43.3125 58.59375 39.234375 62.25 
Q 35.15625 65.921875 28.609375 65.921875 
Q 23.96875 65.921875 18.8125 64.3125 
Q 13.671875 62.703125 7.8125 59.421875 
L 7.8125 69.390625 
Q 13.765625 71.78125 18.9375 73 
Q 24.125 74.21875 28.421875 74.21875 
Q 39.75 74.21875 46.484375 68.546875 
Q 53.21875 62.890625 53.21875 53.421875 
Q 53.21875 48.921875 51.53125 44.890625 
Q 49.859375 40.875 45.40625 35.40625 
Q 44.1875 33.984375 37.640625 27.21875 
Q 31.109375 20.453125 19.1875 8.296875 
" id="BitstreamVeraSans-Roman-32"/>
      </defs>
      <g transform="translate(60.365 293.368392857)scale(0.12 -0.12)">
       <use xlink:href="#BitstreamVeraSans-Roman-32"/>
      </g>
     </g>
    </g>
    <g id="ytick_4">
     <g id="line2d_30">
      <g>
       <use style="stroke:#000000;stroke-width:0.5;" x="72.0" xlink:href="#ma2e169fc37" y="240.685714286"/>
      </g>
     </g>
     <g id="line2d_31">
      <g>
       <use style="stroke:#000000;stroke-width:0.5;" x="518.4" xlink:href="#m772d78a836" y="240.685714286"/>
      </g>
     </g>
     <g id="text_14">
      <!-- 3 -->
      <g transform="translate(60.365 243.996964286)scale(0.12 -0.12)">
       <use xlink:href="#BitstreamVeraSans-Roman-33"/>
      </g>
     </g>
    </g>
    <g id="ytick_5">
     <g id="line2d_32">
      <g>
       <use style="stroke:#000000;stroke-width:0.5;" x="72.0" xlink:href="#ma2e169fc37" y="191.314285714"/>
      </g>
     </g>
     <g id="line2d_33">
      <g>
       <use style="stroke:#000000;stroke-width:0.5;" x="518.4" xlink:href="#m772d78a836" y="191.314285714"/>
      </g>
     </g>
     <g id="text_15">
      <!-- 4 -->
      <g transform="translate(60.365 194.625535714)scale(0.12 -0.12)">
       <use xlink:href="#BitstreamVeraSans-Roman-34"/>
      </g>
     </g>
    </g>
    <g id="ytick_6">
     <g id="line2d_34">
      <g>
       <use style="stroke:#000000;stroke-width:0.5;" x="72.0" xlink:href="#ma2e169fc37" y="141.942857143"/>
      </g>
     </g>
     <g id="line2d_35">
      <g>
       <use style="stroke:#000000;stroke-width:0.5;" x="518.4" xlink:href="#m772d78a836" y="141.942857143"/>
      </g>
     </g>
     <g id="text_16">
      <!-- 5 -->
      <g transform="translate(60.365 145.254107143)scale(0.12 -0.12)">
       <use xlink:href="#BitstreamVeraSans-Roman-35"/>
      </g>
     </g>
    </g>
    <g id="ytick_7">
     <g id="line2d_36">
      <g>
       <use style="stroke:#000000;stroke-width:0.5;" x="72.0" xlink:href="#ma2e169fc37" y="92.5714285714"/>
      </g>
     </g>
     <g id="line2d_37">
      <g>
       <use style="stroke:#000000;stroke-width:0.5;" x="518.4" xlink:href="#m772d78a836" y="92.5714285714"/>
      </g>
     </g>
     <g id="text_17">
      <!-- 6 -->
      <defs>
       <path d="M 33.015625 40.375 
Q 26.375 40.375 22.484375 35.828125 
Q 18.609375 31.296875 18.609375 23.390625 
Q 18.609375 15.53125 22.484375 10.953125 
Q 26.375 6.390625 33.015625 6.390625 
Q 39.65625 6.390625 43.53125 10.953125 
Q 47.40625 15.53125 47.40625 23.390625 
Q 47.40625 31.296875 43.53125 35.828125 
Q 39.65625 40.375 33.015625 40.375 
M 52.59375 71.296875 
L 52.59375 62.3125 
Q 48.875 64.0625 45.09375 64.984375 
Q 41.3125 65.921875 37.59375 65.921875 
Q 27.828125 65.921875 22.671875 59.328125 
Q 17.53125 52.734375 16.796875 39.40625 
Q 19.671875 43.65625 24.015625 45.921875 
Q 28.375 48.1875 33.59375 48.1875 
Q 44.578125 48.1875 50.953125 41.515625 
Q 57.328125 34.859375 57.328125 23.390625 
Q 57.328125 12.15625 50.6875 5.359375 
Q 44.046875 -1.421875 33.015625 -1.421875 
Q 20.359375 -1.421875 13.671875 8.265625 
Q 6.984375 17.96875 6.984375 36.375 
Q 6.984375 53.65625 15.1875 63.9375 
Q 23.390625 74.21875 37.203125 74.21875 
Q 40.921875 74.21875 44.703125 73.484375 
Q 48.484375 72.75 52.59375 71.296875 
" id="BitstreamVeraSans-Roman-36"/>
      </defs>
      <g transform="translate(60.365 95.8826785714)scale(0.12 -0.12)">
       <use xlink:href="#BitstreamVeraSans-Roman-36"/>
      </g>
     </g>
    </g>
    <g id="ytick_8">
     <g id="line2d_38">
      <g>
       <use style="stroke:#000000;stroke-width:0.5;" x="72.0" xlink:href="#ma2e169fc37" y="43.2"/>
      </g>
     </g>
     <g id="line2d_39">
      <g>
       <use style="stroke:#000000;stroke-width:0.5;" x="518.4" xlink:href="#m772d78a836" y="43.2"/>
      </g>
     </g>
     <g id="text_18">
      <!-- 7 -->
      <defs>
       <path d="M 8.203125 72.90625 
L 55.078125 72.90625 
L 55.078125 68.703125 
L 28.609375 0 
L 18.3125 0 
L 43.21875 64.59375 
L 8.203125 64.59375 
z
" id="BitstreamVeraSans-Roman-37"/>
      </defs>
      <g transform="translate(60.365 46.51125)scale(0.12 -0.12)">
       <use xlink:href="#BitstreamVeraSans-Roman-37"/>
      </g>
     </g>
    </g>
    <g id="text_19">
     <!-- kcal/mol -->
     <defs>
      <path d="M 52 44.1875 
Q 55.375 50.25 60.0625 53.125 
Q 64.75 56 71.09375 56 
Q 79.640625 56 84.28125 50.015625 
Q 88.921875 44.046875 88.921875 33.015625 
L 88.921875 0 
L 79.890625 0 
L 79.890625 32.71875 
Q 79.890625 40.578125 77.09375 44.375 
Q 74.3125 48.1875 68.609375 48.1875 
Q 61.625 48.1875 57.5625 43.546875 
Q 53.515625 38.921875 53.515625 30.90625 
L 53.515625 0 
L 44.484375 0 
L 44.484375 32.71875 
Q 44.484375 40.625 41.703125 44.40625 
Q 38.921875 48.1875 33.109375 48.1875 
Q 26.21875 48.1875 22.15625 43.53125 
Q 18.109375 38.875 18.109375 30.90625 
L 18.109375 0 
L 9.078125 0 
L 9.078125 54.6875 
L 18.109375 54.6875 
L 18.109375 46.1875 
Q 21.1875 51.21875 25.484375 53.609375 
Q 29.78125 56 35.6875 56 
Q 41.65625 56 45.828125 52.96875 
Q 50 49.953125 52 44.1875 
" id="BitstreamVeraSans-Roman-6d"/>
      <path d="M 48.78125 52.59375 
L 48.78125 44.1875 
Q 44.96875 46.296875 41.140625 47.34375 
Q 37.3125 48.390625 33.40625 48.390625 
Q 24.65625 48.390625 19.8125 42.84375 
Q 14.984375 37.3125 14.984375 27.296875 
Q 14.984375 17.28125 19.8125 11.734375 
Q 24.65625 6.203125 33.40625 6.203125 
Q 37.3125 6.203125 41.140625 7.25 
Q 44.96875 8.296875 48.78125 10.40625 
L 48.78125 2.09375 
Q 45.015625 0.34375 40.984375 -0.53125 
Q 36.96875 -1.421875 32.421875 -1.421875 
Q 20.0625 -1.421875 12.78125 6.34375 
Q 5.515625 14.109375 5.515625 27.296875 
Q 5.515625 40.671875 12.859375 48.328125 
Q 20.21875 56 33.015625 56 
Q 37.15625 56 41.109375 55.140625 
Q 45.0625 54.296875 48.78125 52.59375 
" id="BitstreamVeraSans-Roman-63"/>
      <path d="M 34.28125 27.484375 
Q 23.390625 27.484375 19.1875 25 
Q 14.984375 22.515625 14.984375 16.5 
Q 14.984375 11.71875 18.140625 8.90625 
Q 21.296875 6.109375 26.703125 6.109375 
Q 34.1875 6.109375 38.703125 11.40625 
Q 43.21875 16.703125 43.21875 25.484375 
L 43.21875 27.484375 
z
M 52.203125 31.203125 
L 52.203125 0 
L 43.21875 0 
L 43.21875 8.296875 
Q 40.140625 3.328125 35.546875 0.953125 
Q 30.953125 -1.421875 24.3125 -1.421875 
Q 15.921875 -1.421875 10.953125 3.296875 
Q 6 8.015625 6 15.921875 
Q 6 25.140625 12.171875 29.828125 
Q 18.359375 34.515625 30.609375 34.515625 
L 43.21875 34.515625 
L 43.21875 35.40625 
Q 43.21875 41.609375 39.140625 45 
Q 35.0625 48.390625 27.6875 48.390625 
Q 23 48.390625 18.546875 47.265625 
Q 14.109375 46.140625 10.015625 43.890625 
L 10.015625 52.203125 
Q 14.9375 54.109375 19.578125 55.046875 
Q 24.21875 56 28.609375 56 
Q 40.484375 56 46.34375 49.84375 
Q 52.203125 43.703125 52.203125 31.203125 
" id="BitstreamVeraSans-Roman-61"/>
      <path d="M 30.609375 48.390625 
Q 23.390625 48.390625 19.1875 42.75 
Q 14.984375 37.109375 14.984375 27.296875 
Q 14.984375 17.484375 19.15625 11.84375 
Q 23.34375 6.203125 30.609375 6.203125 
Q 37.796875 6.203125 41.984375 11.859375 
Q 46.1875 17.53125 46.1875 27.296875 
Q 46.1875 37.015625 41.984375 42.703125 
Q 37.796875 48.390625 30.609375 48.390625 
M 30.609375 56 
Q 42.328125 56 49.015625 48.375 
Q 55.71875 40.765625 55.71875 27.296875 
Q 55.71875 13.875 49.015625 6.21875 
Q 42.328125 -1.421875 30.609375 -1.421875 
Q 18.84375 -1.421875 12.171875 6.21875 
Q 5.515625 13.875 5.515625 27.296875 
Q 5.515625 40.765625 12.171875 48.375 
Q 18.84375 56 30.609375 56 
" id="BitstreamVeraSans-Roman-6f"/>
      <path d="M 9.078125 75.984375 
L 18.109375 75.984375 
L 18.109375 31.109375 
L 44.921875 54.6875 
L 56.390625 54.6875 
L 27.390625 29.109375 
L 57.625 0 
L 45.90625 0 
L 18.109375 26.703125 
L 18.109375 0 
L 9.078125 0 
z
" id="BitstreamVeraSans-Roman-6b"/>
      <path d="M 25.390625 72.90625 
L 33.6875 72.90625 
L 8.296875 -9.28125 
L 0 -9.28125 
z
" id="BitstreamVeraSans-Roman-2f"/>
      <path d="M 9.421875 75.984375 
L 18.40625 75.984375 
L 18.40625 0 
L 9.421875 0 
z
" id="BitstreamVeraSans-Roman-6c"/>
     </defs>
     <g transform="translate(52.869375 241.3209375)rotate(-90.0)scale(0.12 -0.12)">
      <use xlink:href="#BitstreamVeraSans-Roman-6b"/>
      <use x="57.91015625" xlink:href="#BitstreamVeraSans-Roman-63"/>
      <use x="112.890625" xlink:href="#BitstreamVeraSans-Roman-61"/>
      <use x="174.169921875" xlink:href="#BitstreamVeraSans-Roman-6c"/>
      <use x="201.953125" xlink:href="#BitstreamVeraSans-Roman-2f"/>
      <use x="235.64453125" xlink:href="#BitstreamVeraSans-Roman-6d"/>
      <use x="333.056640625" xlink:href="#BitstreamVeraSans-Roman-6f"/>
      <use x="394.23828125" xlink:href="#BitstreamVeraSans-Roman-6c"/>
     </g>
    </g>
   </g>
   <g id="text_20">
    <!-- H12-C6-C5-H10 -->
    <defs>
     <path d="M 9.8125 72.90625 
L 19.671875 72.90625 
L 19.671875 43.015625 
L 55.515625 43.015625 
L 55.515625 72.90625 
L 65.375 72.90625 
L 65.375 0 
L 55.515625 0 
L 55.515625 34.71875 
L 19.671875 34.71875 
L 19.671875 0 
L 9.8125 0 
z
" id="BitstreamVeraSans-Roman-48"/>
     <path d="M 4.890625 31.390625 
L 31.203125 31.390625 
L 31.203125 23.390625 
L 4.890625 23.390625 
z
" id="BitstreamVeraSans-Roman-2d"/>
     <path d="M 64.40625 67.28125 
L 64.40625 56.890625 
Q 59.421875 61.53125 53.78125 63.8125 
Q 48.140625 66.109375 41.796875 66.109375 
Q 29.296875 66.109375 22.65625 58.46875 
Q 16.015625 50.828125 16.015625 36.375 
Q 16.015625 21.96875 22.65625 14.328125 
Q 29.296875 6.6875 41.796875 6.6875 
Q 48.140625 6.6875 53.78125 8.984375 
Q 59.421875 11.28125 64.40625 15.921875 
L 64.40625 5.609375 
Q 59.234375 2.09375 53.4375 0.328125 
Q 47.65625 -1.421875 41.21875 -1.421875 
Q 24.65625 -1.421875 15.125 8.703125 
Q 5.609375 18.84375 5.609375 36.375 
Q 5.609375 53.953125 15.125 64.078125 
Q 24.65625 74.21875 41.21875 74.21875 
Q 47.75 74.21875 53.53125 72.484375 
Q 59.328125 70.75 64.40625 67.28125 
" id="BitstreamVeraSans-Roman-43"/>
    </defs>
    <g transform="translate(239.036625 38.2)scale(0.144 -0.144)">
     <use xlink:href="#BitstreamVeraSans-Roman-48"/>
     <use x="75.1953125" xlink:href="#BitstreamVeraSans-Roman-31"/>
     <use x="138.818359375" xlink:href="#BitstreamVeraSans-Roman-32"/>
     <use x="202.44140625" xlink:href="#BitstreamVeraSans-Roman-2d"/>
     <use x="238.525390625" xlink:href="#BitstreamVeraSans-Roman-43"/>
     <use x="308.349609375" xlink:href="#BitstreamVeraSans-Roman-36"/>
     <use x="371.97265625" xlink:href="#BitstreamVeraSans-Roman-2d"/>
     <use x="408.056640625" xlink:href="#BitstreamVeraSans-Roman-43"/>
     <use x="477.880859375" xlink:href="#BitstreamVeraSans-Roman-35"/>
     <use x="541.50390625" xlink:href="#BitstreamVeraSans-Roman-2d"/>
     <use x="577.587890625" xlink:href="#BitstreamVeraSans-Roman-48"/>
     <use x="652.783203125" xlink:href="#BitstreamVeraSans-Roman-31"/>
     <use x="716.40625" xlink:href="#BitstreamVeraSans-Roman-30"/>
    </g>
   </g>
   <g id="legend_1">
    <g id="patch_7">
     <path d="M 406.15625 108.3125 
L 514.4 108.3125 
L 514.4 47.2 
L 406.15625 47.2 
z
" style="fill:#ffffff;stroke:#000000;stroke-linejoin:miter;"/>
    </g>
    <g id="line2d_40">
     <path d="M 411.75625 53.67875 
L 422.95625 53.67875 
" style="fill:none;stroke:#ff0000;stroke-linecap:square;"/>
    </g>
    <g id="line2d_41">
     <g>
      <use style="fill:#ff0000;stroke:#000000;stroke-width:0.5;" x="411.75625" xlink:href="#m73c692d319" y="53.67875"/>
      <use style="fill:#ff0000;stroke:#000000;stroke-width:0.5;" x="422.95625" xlink:href="#m73c692d319" y="53.67875"/>
     </g>
    </g>
    <g id="text_21">
     <!-- QM -->
     <defs>
      <path d="M 9.8125 72.90625 
L 24.515625 72.90625 
L 43.109375 23.296875 
L 61.8125 72.90625 
L 76.515625 72.90625 
L 76.515625 0 
L 66.890625 0 
L 66.890625 64.015625 
L 48.09375 14.015625 
L 38.1875 14.015625 
L 19.390625 64.015625 
L 19.390625 0 
L 9.8125 0 
z
" id="BitstreamVeraSans-Roman-4d"/>
      <path d="M 39.40625 66.21875 
Q 28.65625 66.21875 22.328125 58.203125 
Q 16.015625 50.203125 16.015625 36.375 
Q 16.015625 22.609375 22.328125 14.59375 
Q 28.65625 6.59375 39.40625 6.59375 
Q 50.140625 6.59375 56.421875 14.59375 
Q 62.703125 22.609375 62.703125 36.375 
Q 62.703125 50.203125 56.421875 58.203125 
Q 50.140625 66.21875 39.40625 66.21875 
M 53.21875 1.3125 
L 66.21875 -12.890625 
L 54.296875 -12.890625 
L 43.5 -1.21875 
Q 41.890625 -1.3125 41.03125 -1.359375 
Q 40.1875 -1.421875 39.40625 -1.421875 
Q 24.03125 -1.421875 14.8125 8.859375 
Q 5.609375 19.140625 5.609375 36.375 
Q 5.609375 53.65625 14.8125 63.9375 
Q 24.03125 74.21875 39.40625 74.21875 
Q 54.734375 74.21875 63.90625 63.9375 
Q 73.09375 53.65625 73.09375 36.375 
Q 73.09375 23.6875 67.984375 14.640625 
Q 62.890625 5.609375 53.21875 1.3125 
" id="BitstreamVeraSans-Roman-51"/>
     </defs>
     <g transform="translate(431.75625 56.47875)scale(0.08 -0.08)">
      <use xlink:href="#BitstreamVeraSans-Roman-51"/>
      <use x="78.7109375" xlink:href="#BitstreamVeraSans-Roman-4d"/>
     </g>
    </g>
    <g id="line2d_42">
     <path d="M 411.75625 65.42125 
L 422.95625 65.42125 
" style="fill:none;stroke:#0000ff;stroke-linecap:square;"/>
    </g>
    <g id="line2d_43">
     <g>
      <use style="fill:#0000ff;stroke:#000000;stroke-width:0.5;" x="411.75625" xlink:href="#m60b17d5389" y="65.42125"/>
      <use style="fill:#0000ff;stroke:#000000;stroke-width:0.5;" x="422.95625" xlink:href="#m60b17d5389" y="65.42125"/>
     </g>
    </g>
    <g id="text_22">
     <!-- MM Original -->
     <defs>
      <path id="BitstreamVeraSans-Roman-20"/>
      <path d="M 39.40625 66.21875 
Q 28.65625 66.21875 22.328125 58.203125 
Q 16.015625 50.203125 16.015625 36.375 
Q 16.015625 22.609375 22.328125 14.59375 
Q 28.65625 6.59375 39.40625 6.59375 
Q 50.140625 6.59375 56.421875 14.59375 
Q 62.703125 22.609375 62.703125 36.375 
Q 62.703125 50.203125 56.421875 58.203125 
Q 50.140625 66.21875 39.40625 66.21875 
M 39.40625 74.21875 
Q 54.734375 74.21875 63.90625 63.9375 
Q 73.09375 53.65625 73.09375 36.375 
Q 73.09375 19.140625 63.90625 8.859375 
Q 54.734375 -1.421875 39.40625 -1.421875 
Q 24.03125 -1.421875 14.8125 8.828125 
Q 5.609375 19.09375 5.609375 36.375 
Q 5.609375 53.65625 14.8125 63.9375 
Q 24.03125 74.21875 39.40625 74.21875 
" id="BitstreamVeraSans-Roman-4f"/>
      <path d="M 41.109375 46.296875 
Q 39.59375 47.171875 37.8125 47.578125 
Q 36.03125 48 33.890625 48 
Q 26.265625 48 22.1875 43.046875 
Q 18.109375 38.09375 18.109375 28.8125 
L 18.109375 0 
L 9.078125 0 
L 9.078125 54.6875 
L 18.109375 54.6875 
L 18.109375 46.1875 
Q 20.953125 51.171875 25.484375 53.578125 
Q 30.03125 56 36.53125 56 
Q 37.453125 56 38.578125 55.875 
Q 39.703125 55.765625 41.0625 55.515625 
z
" id="BitstreamVeraSans-Roman-72"/>
      <path d="M 54.890625 33.015625 
L 54.890625 0 
L 45.90625 0 
L 45.90625 32.71875 
Q 45.90625 40.484375 42.875 44.328125 
Q 39.84375 48.1875 33.796875 48.1875 
Q 26.515625 48.1875 22.3125 43.546875 
Q 18.109375 38.921875 18.109375 30.90625 
L 18.109375 0 
L 9.078125 0 
L 9.078125 54.6875 
L 18.109375 54.6875 
L 18.109375 46.1875 
Q 21.34375 51.125 25.703125 53.5625 
Q 30.078125 56 35.796875 56 
Q 45.21875 56 50.046875 50.171875 
Q 54.890625 44.34375 54.890625 33.015625 
" id="BitstreamVeraSans-Roman-6e"/>
      <path d="M 45.40625 27.984375 
Q 45.40625 37.75 41.375 43.109375 
Q 37.359375 48.484375 30.078125 48.484375 
Q 22.859375 48.484375 18.828125 43.109375 
Q 14.796875 37.75 14.796875 27.984375 
Q 14.796875 18.265625 18.828125 12.890625 
Q 22.859375 7.515625 30.078125 7.515625 
Q 37.359375 7.515625 41.375 12.890625 
Q 45.40625 18.265625 45.40625 27.984375 
M 54.390625 6.78125 
Q 54.390625 -7.171875 48.1875 -13.984375 
Q 42 -20.796875 29.203125 -20.796875 
Q 24.46875 -20.796875 20.265625 -20.09375 
Q 16.0625 -19.390625 12.109375 -17.921875 
L 12.109375 -9.1875 
Q 16.0625 -11.328125 19.921875 -12.34375 
Q 23.78125 -13.375 27.78125 -13.375 
Q 36.625 -13.375 41.015625 -8.765625 
Q 45.40625 -4.15625 45.40625 5.171875 
L 45.40625 9.625 
Q 42.625 4.78125 38.28125 2.390625 
Q 33.9375 0 27.875 0 
Q 17.828125 0 11.671875 7.65625 
Q 5.515625 15.328125 5.515625 27.984375 
Q 5.515625 40.671875 11.671875 48.328125 
Q 17.828125 56 27.875 56 
Q 33.9375 56 38.28125 53.609375 
Q 42.625 51.21875 45.40625 46.390625 
L 45.40625 54.6875 
L 54.390625 54.6875 
z
" id="BitstreamVeraSans-Roman-67"/>
     </defs>
     <g transform="translate(431.75625 68.22125)scale(0.08 -0.08)">
      <use xlink:href="#BitstreamVeraSans-Roman-4d"/>
      <use x="86.279296875" xlink:href="#BitstreamVeraSans-Roman-4d"/>
      <use x="172.55859375" xlink:href="#BitstreamVeraSans-Roman-20"/>
      <use x="204.345703125" xlink:href="#BitstreamVeraSans-Roman-4f"/>
      <use x="283.056640625" xlink:href="#BitstreamVeraSans-Roman-72"/>
      <use x="324.169921875" xlink:href="#BitstreamVeraSans-Roman-69"/>
      <use x="351.953125" xlink:href="#BitstreamVeraSans-Roman-67"/>
      <use x="415.4296875" xlink:href="#BitstreamVeraSans-Roman-69"/>
      <use x="443.212890625" xlink:href="#BitstreamVeraSans-Roman-6e"/>
      <use x="506.591796875" xlink:href="#BitstreamVeraSans-Roman-61"/>
      <use x="567.87109375" xlink:href="#BitstreamVeraSans-Roman-6c"/>
     </g>
    </g>
    <g id="line2d_44">
     <path d="M 411.75625 77.16375 
L 422.95625 77.16375 
" style="fill:none;stroke:#000000;stroke-linecap:square;"/>
    </g>
    <g id="line2d_45">
     <g>
      <use style="stroke:#000000;stroke-width:0.5;" x="411.75625" xlink:href="#m2dfd9750b5" y="77.16375"/>
      <use style="stroke:#000000;stroke-width:0.5;" x="422.95625" xlink:href="#m2dfd9750b5" y="77.16375"/>
     </g>
    </g>
    <g id="text_23">
     <!-- MM With phi zeroed -->
     <defs>
      <path d="M 18.109375 8.203125 
L 18.109375 -20.796875 
L 9.078125 -20.796875 
L 9.078125 54.6875 
L 18.109375 54.6875 
L 18.109375 46.390625 
Q 20.953125 51.265625 25.265625 53.625 
Q 29.59375 56 35.59375 56 
Q 45.5625 56 51.78125 48.09375 
Q 58.015625 40.1875 58.015625 27.296875 
Q 58.015625 14.40625 51.78125 6.484375 
Q 45.5625 -1.421875 35.59375 -1.421875 
Q 29.59375 -1.421875 25.265625 0.953125 
Q 20.953125 3.328125 18.109375 8.203125 
M 48.6875 27.296875 
Q 48.6875 37.203125 44.609375 42.84375 
Q 40.53125 48.484375 33.40625 48.484375 
Q 26.265625 48.484375 22.1875 42.84375 
Q 18.109375 37.203125 18.109375 27.296875 
Q 18.109375 17.390625 22.1875 11.75 
Q 26.265625 6.109375 33.40625 6.109375 
Q 40.53125 6.109375 44.609375 11.75 
Q 48.6875 17.390625 48.6875 27.296875 
" id="BitstreamVeraSans-Roman-70"/>
      <path d="M 56.203125 29.59375 
L 56.203125 25.203125 
L 14.890625 25.203125 
Q 15.484375 15.921875 20.484375 11.0625 
Q 25.484375 6.203125 34.421875 6.203125 
Q 39.59375 6.203125 44.453125 7.46875 
Q 49.3125 8.734375 54.109375 11.28125 
L 54.109375 2.78125 
Q 49.265625 0.734375 44.1875 -0.34375 
Q 39.109375 -1.421875 33.890625 -1.421875 
Q 20.796875 -1.421875 13.15625 6.1875 
Q 5.515625 13.8125 5.515625 26.8125 
Q 5.515625 40.234375 12.765625 48.109375 
Q 20.015625 56 32.328125 56 
Q 43.359375 56 49.78125 48.890625 
Q 56.203125 41.796875 56.203125 29.59375 
M 47.21875 32.234375 
Q 47.125 39.59375 43.09375 43.984375 
Q 39.0625 48.390625 32.421875 48.390625 
Q 24.90625 48.390625 20.390625 44.140625 
Q 15.875 39.890625 15.1875 32.171875 
z
" id="BitstreamVeraSans-Roman-65"/>
      <path d="M 18.3125 70.21875 
L 18.3125 54.6875 
L 36.8125 54.6875 
L 36.8125 47.703125 
L 18.3125 47.703125 
L 18.3125 18.015625 
Q 18.3125 11.328125 20.140625 9.421875 
Q 21.96875 7.515625 27.59375 7.515625 
L 36.8125 7.515625 
L 36.8125 0 
L 27.59375 0 
Q 17.1875 0 13.234375 3.875 
Q 9.28125 7.765625 9.28125 18.015625 
L 9.28125 47.703125 
L 2.6875 47.703125 
L 2.6875 54.6875 
L 9.28125 54.6875 
L 9.28125 70.21875 
z
" id="BitstreamVeraSans-Roman-74"/>
      <path d="M 3.328125 72.90625 
L 13.28125 72.90625 
L 28.609375 11.28125 
L 43.890625 72.90625 
L 54.984375 72.90625 
L 70.3125 11.28125 
L 85.59375 72.90625 
L 95.609375 72.90625 
L 77.296875 0 
L 64.890625 0 
L 49.515625 63.28125 
L 33.984375 0 
L 21.578125 0 
z
" id="BitstreamVeraSans-Roman-57"/>
      <path d="M 5.515625 54.6875 
L 48.1875 54.6875 
L 48.1875 46.484375 
L 14.40625 7.171875 
L 48.1875 7.171875 
L 48.1875 0 
L 4.296875 0 
L 4.296875 8.203125 
L 38.09375 47.515625 
L 5.515625 47.515625 
z
" id="BitstreamVeraSans-Roman-7a"/>
      <path d="M 45.40625 46.390625 
L 45.40625 75.984375 
L 54.390625 75.984375 
L 54.390625 0 
L 45.40625 0 
L 45.40625 8.203125 
Q 42.578125 3.328125 38.25 0.953125 
Q 33.9375 -1.421875 27.875 -1.421875 
Q 17.96875 -1.421875 11.734375 6.484375 
Q 5.515625 14.40625 5.515625 27.296875 
Q 5.515625 40.1875 11.734375 48.09375 
Q 17.96875 56 27.875 56 
Q 33.9375 56 38.25 53.625 
Q 42.578125 51.265625 45.40625 46.390625 
M 14.796875 27.296875 
Q 14.796875 17.390625 18.875 11.75 
Q 22.953125 6.109375 30.078125 6.109375 
Q 37.203125 6.109375 41.296875 11.75 
Q 45.40625 17.390625 45.40625 27.296875 
Q 45.40625 37.203125 41.296875 42.84375 
Q 37.203125 48.484375 30.078125 48.484375 
Q 22.953125 48.484375 18.875 42.84375 
Q 14.796875 37.203125 14.796875 27.296875 
" id="BitstreamVeraSans-Roman-64"/>
     </defs>
     <g transform="translate(431.75625 79.96375)scale(0.08 -0.08)">
      <use xlink:href="#BitstreamVeraSans-Roman-4d"/>
      <use x="86.279296875" xlink:href="#BitstreamVeraSans-Roman-4d"/>
      <use x="172.55859375" xlink:href="#BitstreamVeraSans-Roman-20"/>
      <use x="204.345703125" xlink:href="#BitstreamVeraSans-Roman-57"/>
      <use x="303.19140625" xlink:href="#BitstreamVeraSans-Roman-69"/>
      <use x="330.974609375" xlink:href="#BitstreamVeraSans-Roman-74"/>
      <use x="370.18359375" xlink:href="#BitstreamVeraSans-Roman-68"/>
      <use x="433.5625" xlink:href="#BitstreamVeraSans-Roman-20"/>
      <use x="465.349609375" xlink:href="#BitstreamVeraSans-Roman-70"/>
      <use x="528.826171875" xlink:href="#BitstreamVeraSans-Roman-68"/>
      <use x="592.205078125" xlink:href="#BitstreamVeraSans-Roman-69"/>
      <use x="619.98828125" xlink:href="#BitstreamVeraSans-Roman-20"/>
      <use x="651.775390625" xlink:href="#BitstreamVeraSans-Roman-7a"/>
      <use x="704.265625" xlink:href="#BitstreamVeraSans-Roman-65"/>
      <use x="765.7890625" xlink:href="#BitstreamVeraSans-Roman-72"/>
      <use x="806.87109375" xlink:href="#BitstreamVeraSans-Roman-6f"/>
      <use x="868.052734375" xlink:href="#BitstreamVeraSans-Roman-65"/>
      <use x="929.576171875" xlink:href="#BitstreamVeraSans-Roman-64"/>
     </g>
    </g>
    <g id="line2d_46">
     <path d="M 411.75625 88.90625 
L 422.95625 88.90625 
" style="fill:none;stroke:#ff00ff;stroke-linecap:square;"/>
    </g>
    <g id="line2d_47">
     <g>
      <use style="fill:#ff00ff;stroke:#ff00ff;stroke-width:0.5;" x="411.75625" xlink:href="#m25460b8b17" y="88.90625"/>
      <use style="fill:#ff00ff;stroke:#ff00ff;stroke-width:0.5;" x="422.95625" xlink:href="#m25460b8b17" y="88.90625"/>
     </g>
    </g>
    <g id="text_24">
     <!-- QM-MM target -->
     <g transform="translate(431.75625 91.70625)scale(0.08 -0.08)">
      <use xlink:href="#BitstreamVeraSans-Roman-51"/>
      <use x="78.7109375" xlink:href="#BitstreamVeraSans-Roman-4d"/>
      <use x="164.990234375" xlink:href="#BitstreamVeraSans-Roman-2d"/>
      <use x="201.07421875" xlink:href="#BitstreamVeraSans-Roman-4d"/>
      <use x="287.353515625" xlink:href="#BitstreamVeraSans-Roman-4d"/>
      <use x="373.6328125" xlink:href="#BitstreamVeraSans-Roman-20"/>
      <use x="405.419921875" xlink:href="#BitstreamVeraSans-Roman-74"/>
      <use x="444.62890625" xlink:href="#BitstreamVeraSans-Roman-61"/>
      <use x="505.908203125" xlink:href="#BitstreamVeraSans-Roman-72"/>
      <use x="547.005859375" xlink:href="#BitstreamVeraSans-Roman-67"/>
      <use x="610.482421875" xlink:href="#BitstreamVeraSans-Roman-65"/>
      <use x="672.005859375" xlink:href="#BitstreamVeraSans-Roman-74"/>
     </g>
    </g>
    <g id="line2d_48">
     <path d="M 411.75625 100.64875 
L 422.95625 100.64875 
" style="fill:none;stroke:#008000;stroke-linecap:square;"/>
    </g>
    <g id="line2d_49">
     <g>
      <use style="fill:#008000;stroke:#000000;stroke-width:0.5;" x="411.75625" xlink:href="#m01744d4ff1" y="100.64875"/>
      <use style="fill:#008000;stroke:#000000;stroke-width:0.5;" x="422.95625" xlink:href="#m01744d4ff1" y="100.64875"/>
     </g>
    </g>
    <g id="text_25">
     <!-- MM Fitted -->
     <defs>
      <path d="M 9.8125 72.90625 
L 51.703125 72.90625 
L 51.703125 64.59375 
L 19.671875 64.59375 
L 19.671875 43.109375 
L 48.578125 43.109375 
L 48.578125 34.8125 
L 19.671875 34.8125 
L 19.671875 0 
L 9.8125 0 
z
" id="BitstreamVeraSans-Roman-46"/>
     </defs>
     <g transform="translate(431.75625 103.44875)scale(0.08 -0.08)">
      <use xlink:href="#BitstreamVeraSans-Roman-4d"/>
      <use x="86.279296875" xlink:href="#BitstreamVeraSans-Roman-4d"/>
      <use x="172.55859375" xlink:href="#BitstreamVeraSans-Roman-20"/>
      <use x="204.345703125" xlink:href="#BitstreamVeraSans-Roman-46"/>
      <use x="261.755859375" xlink:href="#BitstreamVeraSans-Roman-69"/>
      <use x="289.5390625" xlink:href="#BitstreamVeraSans-Roman-74"/>
      <use x="328.748046875" xlink:href="#BitstreamVeraSans-Roman-74"/>
      <use x="367.95703125" xlink:href="#BitstreamVeraSans-Roman-65"/>
      <use x="429.48046875" xlink:href="#BitstreamVeraSans-Roman-64"/>
     </g>
    </g>
   </g>
  </g>
 </g>
 <defs>
  <clipPath id="p9d89099838">
   <rect height="345.6" width="446.4" x="72.0" y="43.2"/>
  </clipPath>
 </defs>
</svg>
