<?xml version="1.0" encoding="utf-8" standalone="no"?>
<!DOCTYPE svg PUBLIC "-//W3C//DTD SVG 1.1//EN"
  "http://www.w3.org/Graphics/SVG/1.1/DTD/svg11.dtd">
<!-- Created with matplotlib (http://matplotlib.org/) -->
<svg height="432pt" version="1.1" viewBox="0 0 576 432" width="576pt" xmlns="http://www.w3.org/2000/svg" xmlns:xlink="http://www.w3.org/1999/xlink">
 <defs>
  <style type="text/css">
*{stroke-linecap:butt;stroke-linejoin:round;stroke-miterlimit:100000;}
  </style>
 </defs>
 <g id="figure_1">
  <g id="patch_1">
   <path d="M 0 432 
L 576 432 
L 576 0 
L 0 0 
z
" style="fill:#ffffff;"/>
  </g>
  <g id="axes_1">
   <g id="patch_2">
    <path d="M 72 388.8 
L 518.4 388.8 
L 518.4 43.2 
L 72 43.2 
z
" style="fill:#ffffff;"/>
   </g>
   <g id="line2d_1">
    <path clip-path="url(#p145df5c1c4)" d="M 71.999386 346.212067 
L 84.399985 323.31136 
L 96.799999 276.202204 
L 109.199978 211.521037 
L 121.599991 142.205625 
L 134.000002 84.979124 
L 146.400007 57.000169 
L 158.799964 73.58115 
L 171.199979 121.046344 
L 183.600017 176.334437 
L 196.000025 224.694444 
L 208.399991 256.180015 
L 220.799988 265.791933 
L 233.200049 257.013495 
L 245.600024 260.884523 
L 258.000027 267.085284 
L 270.400002 263.599614 
L 282.800038 254.917308 
L 295.19924 252.144132 
L 307.599999 264.255516 
L 320.000035 291.249704 
L 332.40001 325.525372 
L 344.800041 357.59389 
L 357.199991 380.118668 
L 369.600007 388.8 
L 382.000019 381.665897 
L 394.400036 359.522906 
L 406.799988 326.702205 
L 419.199988 291.395434 
L 431.599993 263.528252 
L 443.999991 252.166627 
L 456.400004 260.505155 
L 468.799968 283.379724 
L 481.2 310.036939 
L 493.599984 331.840607 
L 505.999985 346.232238 
" style="fill:none;stroke:#ff0000;stroke-linecap:square;"/>
    <defs>
     <path d="M 0 3 
C 0.795609 3 1.55874 2.683901 2.12132 2.12132 
C 2.683901 1.55874 3 0.795609 3 0 
C 3 -0.795609 2.683901 -1.55874 2.12132 -2.12132 
C 1.55874 -2.683901 0.795609 -3 0 -3 
C -0.795609 -3 -1.55874 -2.683901 -2.12132 -2.12132 
C -2.683901 -1.55874 -3 -0.795609 -3 0 
C -3 0.795609 -2.683901 1.55874 -2.12132 2.12132 
C -1.55874 2.683901 -0.795609 3 0 3 
z
" id="m6e77f2eaa0" style="stroke:#000000;stroke-width:0.5;"/>
    </defs>
    <g clip-path="url(#p145df5c1c4)">
     <use style="fill:#ff0000;stroke:#000000;stroke-width:0.5;" x="71.9993861357" xlink:href="#m6e77f2eaa0" y="346.212067127"/>
     <use style="fill:#ff0000;stroke:#000000;stroke-width:0.5;" x="84.399985464" xlink:href="#m6e77f2eaa0" y="323.311359832"/>
     <use style="fill:#ff0000;stroke:#000000;stroke-width:0.5;" x="96.79999883" xlink:href="#m6e77f2eaa0" y="276.20220411"/>
     <use style="fill:#ff0000;stroke:#000000;stroke-width:0.5;" x="109.199978074" xlink:href="#m6e77f2eaa0" y="211.521036675"/>
     <use style="fill:#ff0000;stroke:#000000;stroke-width:0.5;" x="121.599990551" xlink:href="#m6e77f2eaa0" y="142.205624982"/>
     <use style="fill:#ff0000;stroke:#000000;stroke-width:0.5;" x="134.000002055" xlink:href="#m6e77f2eaa0" y="84.9791240882"/>
     <use style="fill:#ff0000;stroke:#000000;stroke-width:0.5;" x="146.400006663" xlink:href="#m6e77f2eaa0" y="57.0001685489"/>
     <use style="fill:#ff0000;stroke:#000000;stroke-width:0.5;" x="158.799963962" xlink:href="#m6e77f2eaa0" y="73.5811504859"/>
     <use style="fill:#ff0000;stroke:#000000;stroke-width:0.5;" x="171.199978688" xlink:href="#m6e77f2eaa0" y="121.046343662"/>
     <use style="fill:#ff0000;stroke:#000000;stroke-width:0.5;" x="183.600016883" xlink:href="#m6e77f2eaa0" y="176.334436941"/>
     <use style="fill:#ff0000;stroke:#000000;stroke-width:0.5;" x="196.000025098" xlink:href="#m6e77f2eaa0" y="224.694443522"/>
     <use style="fill:#ff0000;stroke:#000000;stroke-width:0.5;" x="208.3999911" xlink:href="#m6e77f2eaa0" y="256.1800146"/>
     <use style="fill:#ff0000;stroke:#000000;stroke-width:0.5;" x="220.799987769" xlink:href="#m6e77f2eaa0" y="265.791932731"/>
     <use style="fill:#ff0000;stroke:#000000;stroke-width:0.5;" x="233.200048659" xlink:href="#m6e77f2eaa0" y="257.013494978"/>
     <use style="fill:#ff0000;stroke:#000000;stroke-width:0.5;" x="245.600023878" xlink:href="#m6e77f2eaa0" y="260.88452309"/>
     <use style="fill:#ff0000;stroke:#000000;stroke-width:0.5;" x="258.000027367" xlink:href="#m6e77f2eaa0" y="267.085284307"/>
     <use style="fill:#ff0000;stroke:#000000;stroke-width:0.5;" x="270.40000196" xlink:href="#m6e77f2eaa0" y="263.599613733"/>
     <use style="fill:#ff0000;stroke:#000000;stroke-width:0.5;" x="282.80003845" xlink:href="#m6e77f2eaa0" y="254.917308311"/>
     <use style="fill:#ff0000;stroke:#000000;stroke-width:0.5;" x="295.199239514" xlink:href="#m6e77f2eaa0" y="252.144131852"/>
     <use style="fill:#ff0000;stroke:#000000;stroke-width:0.5;" x="307.59999916" xlink:href="#m6e77f2eaa0" y="264.255516288"/>
     <use style="fill:#ff0000;stroke:#000000;stroke-width:0.5;" x="320.000035314" xlink:href="#m6e77f2eaa0" y="291.249703996"/>
     <use style="fill:#ff0000;stroke:#000000;stroke-width:0.5;" x="332.400010009" xlink:href="#m6e77f2eaa0" y="325.525371652"/>
     <use style="fill:#ff0000;stroke:#000000;stroke-width:0.5;" x="344.800041124" xlink:href="#m6e77f2eaa0" y="357.593889521"/>
     <use style="fill:#ff0000;stroke:#000000;stroke-width:0.5;" x="357.199990877" xlink:href="#m6e77f2eaa0" y="380.11866791"/>
     <use style="fill:#ff0000;stroke:#000000;stroke-width:0.5;" x="369.60000659" xlink:href="#m6e77f2eaa0" y="388.8"/>
     <use style="fill:#ff0000;stroke:#000000;stroke-width:0.5;" x="382.000019089" xlink:href="#m6e77f2eaa0" y="381.665896798"/>
     <use style="fill:#ff0000;stroke:#000000;stroke-width:0.5;" x="394.400035754" xlink:href="#m6e77f2eaa0" y="359.522905626"/>
     <use style="fill:#ff0000;stroke:#000000;stroke-width:0.5;" x="406.799988396" xlink:href="#m6e77f2eaa0" y="326.702204737"/>
     <use style="fill:#ff0000;stroke:#000000;stroke-width:0.5;" x="419.199988497" xlink:href="#m6e77f2eaa0" y="291.395434022"/>
     <use style="fill:#ff0000;stroke:#000000;stroke-width:0.5;" x="431.599993455" xlink:href="#m6e77f2eaa0" y="263.528251548"/>
     <use style="fill:#ff0000;stroke:#000000;stroke-width:0.5;" x="443.999991444" xlink:href="#m6e77f2eaa0" y="252.166627275"/>
     <use style="fill:#ff0000;stroke:#000000;stroke-width:0.5;" x="456.40000427" xlink:href="#m6e77f2eaa0" y="260.505155187"/>
     <use style="fill:#ff0000;stroke:#000000;stroke-width:0.5;" x="468.799967878" xlink:href="#m6e77f2eaa0" y="283.379724321"/>
     <use style="fill:#ff0000;stroke:#000000;stroke-width:0.5;" x="481.199999797" xlink:href="#m6e77f2eaa0" y="310.036939101"/>
     <use style="fill:#ff0000;stroke:#000000;stroke-width:0.5;" x="493.599984192" xlink:href="#m6e77f2eaa0" y="331.840606916"/>
     <use style="fill:#ff0000;stroke:#000000;stroke-width:0.5;" x="505.999985054" xlink:href="#m6e77f2eaa0" y="346.232238191"/>
    </g>
   </g>
   <g id="line2d_2">
    <path clip-path="url(#p145df5c1c4)" d="M 71.999386 366.091338 
L 84.399985 349.794746 
L 96.799999 308.710122 
L 109.199978 248.093438 
L 121.599991 180.725323 
L 134.000002 123.781117 
L 146.400007 95.075171 
L 158.799964 106.615323 
L 171.199979 151.636831 
L 183.600017 202.850874 
L 196.000025 247.580452 
L 208.399991 275.931602 
L 220.799988 283.276816 
L 233.200049 261.040805 
L 245.600024 262.036664 
L 258.000027 276.228872 
L 270.400002 270.378951 
L 282.800038 253.168444 
L 295.19924 242.715862 
L 307.599999 251.132282 
L 320.000035 278.149963 
L 332.40001 314.669252 
L 344.800041 350.348896 
L 357.199991 377.197009 
L 369.600007 388.8 
L 382.000019 382.350856 
L 394.400036 358.250954 
L 406.799988 320.847124 
L 419.199988 280.435083 
L 431.599993 246.703696 
L 443.999991 232.072383 
L 456.400004 241.678704 
L 468.799968 270.905738 
L 481.2 307.277548 
L 493.599984 338.817142 
L 505.999985 360.133251 
" style="fill:none;stroke:#0000ff;stroke-linecap:square;"/>
    <defs>
     <path d="M 0 3 
C 0.795609 3 1.55874 2.683901 2.12132 2.12132 
C 2.683901 1.55874 3 0.795609 3 0 
C 3 -0.795609 2.683901 -1.55874 2.12132 -2.12132 
C 1.55874 -2.683901 0.795609 -3 0 -3 
C -0.795609 -3 -1.55874 -2.683901 -2.12132 -2.12132 
C -2.683901 -1.55874 -3 -0.795609 -3 0 
C -3 0.795609 -2.683901 1.55874 -2.12132 2.12132 
C -1.55874 2.683901 -0.795609 3 0 3 
z
" id="m0b48820da4" style="stroke:#000000;stroke-width:0.5;"/>
    </defs>
    <g clip-path="url(#p145df5c1c4)">
     <use style="fill:#0000ff;stroke:#000000;stroke-width:0.5;" x="71.9993861357" xlink:href="#m0b48820da4" y="366.091338277"/>
     <use style="fill:#0000ff;stroke:#000000;stroke-width:0.5;" x="84.399985464" xlink:href="#m0b48820da4" y="349.794746313"/>
     <use style="fill:#0000ff;stroke:#000000;stroke-width:0.5;" x="96.79999883" xlink:href="#m0b48820da4" y="308.710122269"/>
     <use style="fill:#0000ff;stroke:#000000;stroke-width:0.5;" x="109.199978074" xlink:href="#m0b48820da4" y="248.09343802"/>
     <use style="fill:#0000ff;stroke:#000000;stroke-width:0.5;" x="121.599990551" xlink:href="#m0b48820da4" y="180.725323277"/>
     <use style="fill:#0000ff;stroke:#000000;stroke-width:0.5;" x="134.000002055" xlink:href="#m0b48820da4" y="123.781117177"/>
     <use style="fill:#0000ff;stroke:#000000;stroke-width:0.5;" x="146.400006663" xlink:href="#m0b48820da4" y="95.075171192"/>
     <use style="fill:#0000ff;stroke:#000000;stroke-width:0.5;" x="158.799963962" xlink:href="#m0b48820da4" y="106.615323494"/>
     <use style="fill:#0000ff;stroke:#000000;stroke-width:0.5;" x="171.199978688" xlink:href="#m0b48820da4" y="151.636831188"/>
     <use style="fill:#0000ff;stroke:#000000;stroke-width:0.5;" x="183.600016883" xlink:href="#m0b48820da4" y="202.850874482"/>
     <use style="fill:#0000ff;stroke:#000000;stroke-width:0.5;" x="196.000025098" xlink:href="#m0b48820da4" y="247.580451713"/>
     <use style="fill:#0000ff;stroke:#000000;stroke-width:0.5;" x="208.3999911" xlink:href="#m0b48820da4" y="275.931602339"/>
     <use style="fill:#0000ff;stroke:#000000;stroke-width:0.5;" x="220.799987769" xlink:href="#m0b48820da4" y="283.276816167"/>
     <use style="fill:#0000ff;stroke:#000000;stroke-width:0.5;" x="233.200048659" xlink:href="#m0b48820da4" y="261.040805176"/>
     <use style="fill:#0000ff;stroke:#000000;stroke-width:0.5;" x="245.600023878" xlink:href="#m0b48820da4" y="262.036664032"/>
     <use style="fill:#0000ff;stroke:#000000;stroke-width:0.5;" x="258.000027367" xlink:href="#m0b48820da4" y="276.228872067"/>
     <use style="fill:#0000ff;stroke:#000000;stroke-width:0.5;" x="270.40000196" xlink:href="#m0b48820da4" y="270.378951275"/>
     <use style="fill:#0000ff;stroke:#000000;stroke-width:0.5;" x="282.80003845" xlink:href="#m0b48820da4" y="253.168443924"/>
     <use style="fill:#0000ff;stroke:#000000;stroke-width:0.5;" x="295.199239514" xlink:href="#m0b48820da4" y="242.715862376"/>
     <use style="fill:#0000ff;stroke:#000000;stroke-width:0.5;" x="307.59999916" xlink:href="#m0b48820da4" y="251.132282368"/>
     <use style="fill:#0000ff;stroke:#000000;stroke-width:0.5;" x="320.000035314" xlink:href="#m0b48820da4" y="278.14996341"/>
     <use style="fill:#0000ff;stroke:#000000;stroke-width:0.5;" x="332.400010009" xlink:href="#m0b48820da4" y="314.669252276"/>
     <use style="fill:#0000ff;stroke:#000000;stroke-width:0.5;" x="344.800041124" xlink:href="#m0b48820da4" y="350.348895763"/>
     <use style="fill:#0000ff;stroke:#000000;stroke-width:0.5;" x="357.199990877" xlink:href="#m0b48820da4" y="377.197008766"/>
     <use style="fill:#0000ff;stroke:#000000;stroke-width:0.5;" x="369.60000659" xlink:href="#m0b48820da4" y="388.8"/>
     <use style="fill:#0000ff;stroke:#000000;stroke-width:0.5;" x="382.000019089" xlink:href="#m0b48820da4" y="382.350855674"/>
     <use style="fill:#0000ff;stroke:#000000;stroke-width:0.5;" x="394.400035754" xlink:href="#m0b48820da4" y="358.250954054"/>
     <use style="fill:#0000ff;stroke:#000000;stroke-width:0.5;" x="406.799988396" xlink:href="#m0b48820da4" y="320.847123541"/>
     <use style="fill:#0000ff;stroke:#000000;stroke-width:0.5;" x="419.199988497" xlink:href="#m0b48820da4" y="280.435083181"/>
     <use style="fill:#0000ff;stroke:#000000;stroke-width:0.5;" x="431.599993455" xlink:href="#m0b48820da4" y="246.703696106"/>
     <use style="fill:#0000ff;stroke:#000000;stroke-width:0.5;" x="443.999991444" xlink:href="#m0b48820da4" y="232.072383142"/>
     <use style="fill:#0000ff;stroke:#000000;stroke-width:0.5;" x="456.40000427" xlink:href="#m0b48820da4" y="241.678704354"/>
     <use style="fill:#0000ff;stroke:#000000;stroke-width:0.5;" x="468.799967878" xlink:href="#m0b48820da4" y="270.905737888"/>
     <use style="fill:#0000ff;stroke:#000000;stroke-width:0.5;" x="481.199999797" xlink:href="#m0b48820da4" y="307.277548133"/>
     <use style="fill:#0000ff;stroke:#000000;stroke-width:0.5;" x="493.599984192" xlink:href="#m0b48820da4" y="338.817142"/>
     <use style="fill:#0000ff;stroke:#000000;stroke-width:0.5;" x="505.999985054" xlink:href="#m0b48820da4" y="360.133250646"/>
    </g>
   </g>
   <g id="line2d_3">
    <path clip-path="url(#p145df5c1c4)" d="M 71.999386 366.872051 
L 84.399985 353.114269 
L 96.799999 317.382788 
L 109.199978 263.770699 
L 121.599991 203.3125 
L 134.000002 151.126432 
L 146.400007 123.302613 
L 158.799964 131.433105 
L 171.199979 170.320411 
L 183.600017 214.538124 
L 196.000025 253.164768 
L 208.399991 277.612482 
L 220.799988 284.143083 
L 233.200049 264.572064 
L 245.600024 271.276175 
L 258.000027 292.088178 
L 270.400002 292.517998 
L 282.800038 279.656027 
L 295.19924 270.189788 
L 307.599999 275.688025 
L 320.000035 296.775528 
L 332.40001 326.161126 
L 344.800041 355.414469 
L 357.199991 378.116998 
L 369.600007 388.8 
L 382.000019 384.853407 
L 394.400036 366.093559 
L 406.799988 335.635518 
L 419.199988 302.000397 
L 431.599993 273.003091 
L 443.999991 259.560211 
L 456.400004 266.420577 
L 468.799968 289.918268 
L 481.2 319.318807 
L 493.599984 344.48703 
L 505.999985 361.723348 
" style="fill:none;stroke:#000000;stroke-linecap:square;"/>
    <defs>
     <path d="M -3 3 
L 3 -3 
M -3 -3 
L 3 3 
" id="m1a21e16a90" style="stroke:#000000;stroke-width:0.5;"/>
    </defs>
    <g clip-path="url(#p145df5c1c4)">
     <use style="stroke:#000000;stroke-width:0.5;" x="71.9993861357" xlink:href="#m1a21e16a90" y="366.872051022"/>
     <use style="stroke:#000000;stroke-width:0.5;" x="84.399985464" xlink:href="#m1a21e16a90" y="353.114268838"/>
     <use style="stroke:#000000;stroke-width:0.5;" x="96.79999883" xlink:href="#m1a21e16a90" y="317.382788217"/>
     <use style="stroke:#000000;stroke-width:0.5;" x="109.199978074" xlink:href="#m1a21e16a90" y="263.770699482"/>
     <use style="stroke:#000000;stroke-width:0.5;" x="121.599990551" xlink:href="#m1a21e16a90" y="203.31250015"/>
     <use style="stroke:#000000;stroke-width:0.5;" x="134.000002055" xlink:href="#m1a21e16a90" y="151.126432349"/>
     <use style="stroke:#000000;stroke-width:0.5;" x="146.400006663" xlink:href="#m1a21e16a90" y="123.302612551"/>
     <use style="stroke:#000000;stroke-width:0.5;" x="158.799963962" xlink:href="#m1a21e16a90" y="131.433105095"/>
     <use style="stroke:#000000;stroke-width:0.5;" x="171.199978688" xlink:href="#m1a21e16a90" y="170.320411305"/>
     <use style="stroke:#000000;stroke-width:0.5;" x="183.600016883" xlink:href="#m1a21e16a90" y="214.538124029"/>
     <use style="stroke:#000000;stroke-width:0.5;" x="196.000025098" xlink:href="#m1a21e16a90" y="253.164768134"/>
     <use style="stroke:#000000;stroke-width:0.5;" x="208.3999911" xlink:href="#m1a21e16a90" y="277.612482264"/>
     <use style="stroke:#000000;stroke-width:0.5;" x="220.799987769" xlink:href="#m1a21e16a90" y="284.143083208"/>
     <use style="stroke:#000000;stroke-width:0.5;" x="233.200048659" xlink:href="#m1a21e16a90" y="264.57206411"/>
     <use style="stroke:#000000;stroke-width:0.5;" x="245.600023878" xlink:href="#m1a21e16a90" y="271.276174997"/>
     <use style="stroke:#000000;stroke-width:0.5;" x="258.000027367" xlink:href="#m1a21e16a90" y="292.088177672"/>
     <use style="stroke:#000000;stroke-width:0.5;" x="270.40000196" xlink:href="#m1a21e16a90" y="292.517998381"/>
     <use style="stroke:#000000;stroke-width:0.5;" x="282.80003845" xlink:href="#m1a21e16a90" y="279.656027186"/>
     <use style="stroke:#000000;stroke-width:0.5;" x="295.199239514" xlink:href="#m1a21e16a90" y="270.189787967"/>
     <use style="stroke:#000000;stroke-width:0.5;" x="307.59999916" xlink:href="#m1a21e16a90" y="275.688024552"/>
     <use style="stroke:#000000;stroke-width:0.5;" x="320.000035314" xlink:href="#m1a21e16a90" y="296.775528367"/>
     <use style="stroke:#000000;stroke-width:0.5;" x="332.400010009" xlink:href="#m1a21e16a90" y="326.161126183"/>
     <use style="stroke:#000000;stroke-width:0.5;" x="344.800041124" xlink:href="#m1a21e16a90" y="355.414468841"/>
     <use style="stroke:#000000;stroke-width:0.5;" x="357.199990877" xlink:href="#m1a21e16a90" y="378.116998323"/>
     <use style="stroke:#000000;stroke-width:0.5;" x="369.60000659" xlink:href="#m1a21e16a90" y="388.8"/>
     <use style="stroke:#000000;stroke-width:0.5;" x="382.000019089" xlink:href="#m1a21e16a90" y="384.853406955"/>
     <use style="stroke:#000000;stroke-width:0.5;" x="394.400035754" xlink:href="#m1a21e16a90" y="366.093558743"/>
     <use style="stroke:#000000;stroke-width:0.5;" x="406.799988396" xlink:href="#m1a21e16a90" y="335.635518268"/>
     <use style="stroke:#000000;stroke-width:0.5;" x="419.199988497" xlink:href="#m1a21e16a90" y="302.000396806"/>
     <use style="stroke:#000000;stroke-width:0.5;" x="431.599993455" xlink:href="#m1a21e16a90" y="273.003090979"/>
     <use style="stroke:#000000;stroke-width:0.5;" x="443.999991444" xlink:href="#m1a21e16a90" y="259.560210939"/>
     <use style="stroke:#000000;stroke-width:0.5;" x="456.40000427" xlink:href="#m1a21e16a90" y="266.420576604"/>
     <use style="stroke:#000000;stroke-width:0.5;" x="468.799967878" xlink:href="#m1a21e16a90" y="289.918268005"/>
     <use style="stroke:#000000;stroke-width:0.5;" x="481.199999797" xlink:href="#m1a21e16a90" y="319.318807031"/>
     <use style="stroke:#000000;stroke-width:0.5;" x="493.599984192" xlink:href="#m1a21e16a90" y="344.487030246"/>
     <use style="stroke:#000000;stroke-width:0.5;" x="505.999985054" xlink:href="#m1a21e16a90" y="361.723347802"/>
    </g>
   </g>
   <g id="line2d_4">
    <path clip-path="url(#p145df5c1c4)" d="M 71.999386 365.960595 
L 84.399985 356.81767 
L 96.799999 345.439995 
L 109.199978 334.370917 
L 121.599991 325.513704 
L 134.000002 320.473271 
L 146.400007 320.318135 
L 158.799964 328.768625 
L 171.199979 337.346512 
L 183.600017 348.416892 
L 196.000025 358.150255 
L 208.399991 365.188112 
L 220.799988 368.269429 
L 233.200049 379.06201 
L 245.600024 376.228927 
L 258.000027 361.617686 
L 270.400002 357.702195 
L 282.800038 361.88186 
L 295.19924 368.574923 
L 307.599999 375.188071 
L 320.000035 381.094755 
L 332.40001 385.984825 
L 344.800041 388.8 
L 357.199991 388.622249 
L 369.600007 386.620579 
L 382.000019 383.433069 
L 394.400036 380.049926 
L 406.799988 377.687266 
L 419.199988 376.015617 
L 431.599993 377.14574 
L 443.999991 379.226996 
L 456.400004 380.705158 
L 468.799968 380.082036 
L 481.2 377.338711 
L 493.599984 373.974156 
L 505.999985 371.12947 
" style="fill:none;stroke:#ff00ff;stroke-linecap:square;"/>
    <defs>
     <path d="M -3 3 
L 3 -3 
M -3 -3 
L 3 3 
" id="m5901c56422" style="stroke:#ff00ff;stroke-width:0.5;"/>
    </defs>
    <g clip-path="url(#p145df5c1c4)">
     <use style="fill:#ff00ff;stroke:#ff00ff;stroke-width:0.5;" x="71.9993861357" xlink:href="#m5901c56422" y="365.960595426"/>
     <use style="fill:#ff00ff;stroke:#ff00ff;stroke-width:0.5;" x="84.399985464" xlink:href="#m5901c56422" y="356.817670314"/>
     <use style="fill:#ff00ff;stroke:#ff00ff;stroke-width:0.5;" x="96.79999883" xlink:href="#m5901c56422" y="345.439995213"/>
     <use style="fill:#ff00ff;stroke:#ff00ff;stroke-width:0.5;" x="109.199978074" xlink:href="#m5901c56422" y="334.370916513"/>
     <use style="fill:#ff00ff;stroke:#ff00ff;stroke-width:0.5;" x="121.599990551" xlink:href="#m5901c56422" y="325.513704152"/>
     <use style="fill:#ff00ff;stroke:#ff00ff;stroke-width:0.5;" x="134.000002055" xlink:href="#m5901c56422" y="320.473271059"/>
     <use style="fill:#ff00ff;stroke:#ff00ff;stroke-width:0.5;" x="146.400006663" xlink:href="#m5901c56422" y="320.318135318"/>
     <use style="fill:#ff00ff;stroke:#ff00ff;stroke-width:0.5;" x="158.799963962" xlink:href="#m5901c56422" y="328.768624711"/>
     <use style="fill:#ff00ff;stroke:#ff00ff;stroke-width:0.5;" x="171.199978688" xlink:href="#m5901c56422" y="337.346511678"/>
     <use style="fill:#ff00ff;stroke:#ff00ff;stroke-width:0.5;" x="183.600016883" xlink:href="#m5901c56422" y="348.416892232"/>
     <use style="fill:#ff00ff;stroke:#ff00ff;stroke-width:0.5;" x="196.000025098" xlink:href="#m5901c56422" y="358.150254708"/>
     <use style="fill:#ff00ff;stroke:#ff00ff;stroke-width:0.5;" x="208.3999911" xlink:href="#m5901c56422" y="365.188111657"/>
     <use style="fill:#ff00ff;stroke:#ff00ff;stroke-width:0.5;" x="220.799987769" xlink:href="#m5901c56422" y="368.269428843"/>
     <use style="fill:#ff00ff;stroke:#ff00ff;stroke-width:0.5;" x="233.200048659" xlink:href="#m5901c56422" y="379.062010188"/>
     <use style="fill:#ff00ff;stroke:#ff00ff;stroke-width:0.5;" x="245.600023878" xlink:href="#m5901c56422" y="376.228927413"/>
     <use style="fill:#ff00ff;stroke:#ff00ff;stroke-width:0.5;" x="258.000027367" xlink:href="#m5901c56422" y="361.617685955"/>
     <use style="fill:#ff00ff;stroke:#ff00ff;stroke-width:0.5;" x="270.40000196" xlink:href="#m5901c56422" y="357.702194672"/>
     <use style="fill:#ff00ff;stroke:#ff00ff;stroke-width:0.5;" x="282.80003845" xlink:href="#m5901c56422" y="361.881860445"/>
     <use style="fill:#ff00ff;stroke:#ff00ff;stroke-width:0.5;" x="295.199239514" xlink:href="#m5901c56422" y="368.574923205"/>
     <use style="fill:#ff00ff;stroke:#ff00ff;stroke-width:0.5;" x="307.59999916" xlink:href="#m5901c56422" y="375.188071057"/>
     <use style="fill:#ff00ff;stroke:#ff00ff;stroke-width:0.5;" x="320.000035314" xlink:href="#m5901c56422" y="381.09475495"/>
     <use style="fill:#ff00ff;stroke:#ff00ff;stroke-width:0.5;" x="332.400010009" xlink:href="#m5901c56422" y="385.98482479"/>
     <use style="fill:#ff00ff;stroke:#ff00ff;stroke-width:0.5;" x="344.800041124" xlink:href="#m5901c56422" y="388.8"/>
     <use style="fill:#ff00ff;stroke:#ff00ff;stroke-width:0.5;" x="357.199990877" xlink:href="#m5901c56422" y="388.622248908"/>
     <use style="fill:#ff00ff;stroke:#ff00ff;stroke-width:0.5;" x="369.60000659" xlink:href="#m5901c56422" y="386.62057932"/>
     <use style="fill:#ff00ff;stroke:#ff00ff;stroke-width:0.5;" x="382.000019089" xlink:href="#m5901c56422" y="383.433069163"/>
     <use style="fill:#ff00ff;stroke:#ff00ff;stroke-width:0.5;" x="394.400035754" xlink:href="#m5901c56422" y="380.049926203"/>
     <use style="fill:#ff00ff;stroke:#ff00ff;stroke-width:0.5;" x="406.799988396" xlink:href="#m5901c56422" y="377.687265789"/>
     <use style="fill:#ff00ff;stroke:#ff00ff;stroke-width:0.5;" x="419.199988497" xlink:href="#m5901c56422" y="376.015616536"/>
     <use style="fill:#ff00ff;stroke:#ff00ff;stroke-width:0.5;" x="431.599993455" xlink:href="#m5901c56422" y="377.14573989"/>
     <use style="fill:#ff00ff;stroke:#ff00ff;stroke-width:0.5;" x="443.999991444" xlink:href="#m5901c56422" y="379.226995657"/>
     <use style="fill:#ff00ff;stroke:#ff00ff;stroke-width:0.5;" x="456.40000427" xlink:href="#m5901c56422" y="380.705157903"/>
     <use style="fill:#ff00ff;stroke:#ff00ff;stroke-width:0.5;" x="468.799967878" xlink:href="#m5901c56422" y="380.082035636"/>
     <use style="fill:#ff00ff;stroke:#ff00ff;stroke-width:0.5;" x="481.199999797" xlink:href="#m5901c56422" y="377.338711391"/>
     <use style="fill:#ff00ff;stroke:#ff00ff;stroke-width:0.5;" x="493.599984192" xlink:href="#m5901c56422" y="373.974155991"/>
     <use style="fill:#ff00ff;stroke:#ff00ff;stroke-width:0.5;" x="505.999985054" xlink:href="#m5901c56422" y="371.129469709"/>
    </g>
   </g>
   <g id="line2d_5">
    <path clip-path="url(#p145df5c1c4)" d="M 71.999386 348.803215 
L 84.399985 326.299006 
L 96.799999 279.396131 
L 109.199978 214.651153 
L 121.599991 145.272256 
L 134.000002 87.557989 
L 146.400007 58.383446 
L 158.799964 70.346827 
L 171.199979 117.43559 
L 183.600017 172.114451 
L 196.000025 221.420782 
L 208.399991 255.40084 
L 220.799988 269.000103 
L 233.200049 252.732319 
L 245.600024 258.768307 
L 258.000027 277.905278 
L 270.400002 276.556244 
L 282.800038 263.421727 
L 295.19924 256.059493 
L 307.599999 265.368424 
L 320.000035 290.570055 
L 332.40001 323.377111 
L 344.800041 354.855024 
L 357.199991 378.407839 
L 369.600007 388.8 
L 382.000019 383.772313 
L 394.400036 363.331529 
L 406.799988 330.457252 
L 419.199988 293.474158 
L 431.599993 260.6879 
L 443.999991 244.245884 
L 456.400004 250.025737 
L 468.799968 274.506268 
L 481.2 306.03243 
L 493.599984 332.61666 
L 505.999985 348.600158 
" style="fill:none;stroke:#008000;stroke-linecap:square;"/>
    <defs>
     <path d="M 0 3 
C 0.795609 3 1.55874 2.683901 2.12132 2.12132 
C 2.683901 1.55874 3 0.795609 3 0 
C 3 -0.795609 2.683901 -1.55874 2.12132 -2.12132 
C 1.55874 -2.683901 0.795609 -3 0 -3 
C -0.795609 -3 -1.55874 -2.683901 -2.12132 -2.12132 
C -2.683901 -1.55874 -3 -0.795609 -3 0 
C -3 0.795609 -2.683901 1.55874 -2.12132 2.12132 
C -1.55874 2.683901 -0.795609 3 0 3 
z
" id="ma69f443a2f" style="stroke:#000000;stroke-width:0.5;"/>
    </defs>
    <g clip-path="url(#p145df5c1c4)">
     <use style="fill:#008000;stroke:#000000;stroke-width:0.5;" x="71.9993861357" xlink:href="#ma69f443a2f" y="348.803215086"/>
     <use style="fill:#008000;stroke:#000000;stroke-width:0.5;" x="84.399985464" xlink:href="#ma69f443a2f" y="326.299006352"/>
     <use style="fill:#008000;stroke:#000000;stroke-width:0.5;" x="96.79999883" xlink:href="#ma69f443a2f" y="279.396131243"/>
     <use style="fill:#008000;stroke:#000000;stroke-width:0.5;" x="109.199978074" xlink:href="#ma69f443a2f" y="214.651153478"/>
     <use style="fill:#008000;stroke:#000000;stroke-width:0.5;" x="121.599990551" xlink:href="#ma69f443a2f" y="145.272256272"/>
     <use style="fill:#008000;stroke:#000000;stroke-width:0.5;" x="134.000002055" xlink:href="#ma69f443a2f" y="87.5579888709"/>
     <use style="fill:#008000;stroke:#000000;stroke-width:0.5;" x="146.400006663" xlink:href="#ma69f443a2f" y="58.3834455421"/>
     <use style="fill:#008000;stroke:#000000;stroke-width:0.5;" x="158.799963962" xlink:href="#ma69f443a2f" y="70.3468272546"/>
     <use style="fill:#008000;stroke:#000000;stroke-width:0.5;" x="171.199978688" xlink:href="#ma69f443a2f" y="117.435590365"/>
     <use style="fill:#008000;stroke:#000000;stroke-width:0.5;" x="183.600016883" xlink:href="#ma69f443a2f" y="172.114451137"/>
     <use style="fill:#008000;stroke:#000000;stroke-width:0.5;" x="196.000025098" xlink:href="#ma69f443a2f" y="221.420782248"/>
     <use style="fill:#008000;stroke:#000000;stroke-width:0.5;" x="208.3999911" xlink:href="#ma69f443a2f" y="255.400840268"/>
     <use style="fill:#008000;stroke:#000000;stroke-width:0.5;" x="220.799987769" xlink:href="#ma69f443a2f" y="269.000102618"/>
     <use style="fill:#008000;stroke:#000000;stroke-width:0.5;" x="233.200048659" xlink:href="#ma69f443a2f" y="252.732319162"/>
     <use style="fill:#008000;stroke:#000000;stroke-width:0.5;" x="245.600023878" xlink:href="#ma69f443a2f" y="258.768307492"/>
     <use style="fill:#008000;stroke:#000000;stroke-width:0.5;" x="258.000027367" xlink:href="#ma69f443a2f" y="277.905278285"/>
     <use style="fill:#008000;stroke:#000000;stroke-width:0.5;" x="270.40000196" xlink:href="#ma69f443a2f" y="276.556243943"/>
     <use style="fill:#008000;stroke:#000000;stroke-width:0.5;" x="282.80003845" xlink:href="#ma69f443a2f" y="263.421726569"/>
     <use style="fill:#008000;stroke:#000000;stroke-width:0.5;" x="295.199239514" xlink:href="#ma69f443a2f" y="256.059492921"/>
     <use style="fill:#008000;stroke:#000000;stroke-width:0.5;" x="307.59999916" xlink:href="#ma69f443a2f" y="265.368424399"/>
     <use style="fill:#008000;stroke:#000000;stroke-width:0.5;" x="320.000035314" xlink:href="#ma69f443a2f" y="290.570054808"/>
     <use style="fill:#008000;stroke:#000000;stroke-width:0.5;" x="332.400010009" xlink:href="#ma69f443a2f" y="323.377110732"/>
     <use style="fill:#008000;stroke:#000000;stroke-width:0.5;" x="344.800041124" xlink:href="#ma69f443a2f" y="354.855024046"/>
     <use style="fill:#008000;stroke:#000000;stroke-width:0.5;" x="357.199990877" xlink:href="#ma69f443a2f" y="378.407838576"/>
     <use style="fill:#008000;stroke:#000000;stroke-width:0.5;" x="369.60000659" xlink:href="#ma69f443a2f" y="388.8"/>
     <use style="fill:#008000;stroke:#000000;stroke-width:0.5;" x="382.000019089" xlink:href="#ma69f443a2f" y="383.772312546"/>
     <use style="fill:#008000;stroke:#000000;stroke-width:0.5;" x="394.400035754" xlink:href="#ma69f443a2f" y="363.331529016"/>
     <use style="fill:#008000;stroke:#000000;stroke-width:0.5;" x="406.799988396" xlink:href="#ma69f443a2f" y="330.457252141"/>
     <use style="fill:#008000;stroke:#000000;stroke-width:0.5;" x="419.199988497" xlink:href="#ma69f443a2f" y="293.474157695"/>
     <use style="fill:#008000;stroke:#000000;stroke-width:0.5;" x="431.599993455" xlink:href="#ma69f443a2f" y="260.687899748"/>
     <use style="fill:#008000;stroke:#000000;stroke-width:0.5;" x="443.999991444" xlink:href="#ma69f443a2f" y="244.245883553"/>
     <use style="fill:#008000;stroke:#000000;stroke-width:0.5;" x="456.40000427" xlink:href="#ma69f443a2f" y="250.025737119"/>
     <use style="fill:#008000;stroke:#000000;stroke-width:0.5;" x="468.799967878" xlink:href="#ma69f443a2f" y="274.506267677"/>
     <use style="fill:#008000;stroke:#000000;stroke-width:0.5;" x="481.199999797" xlink:href="#ma69f443a2f" y="306.032429998"/>
     <use style="fill:#008000;stroke:#000000;stroke-width:0.5;" x="493.599984192" xlink:href="#ma69f443a2f" y="332.616659534"/>
     <use style="fill:#008000;stroke:#000000;stroke-width:0.5;" x="505.999985054" xlink:href="#ma69f443a2f" y="348.600157594"/>
    </g>
   </g>
   <g id="patch_3">
    <path d="M 518.4 388.8 
L 518.4 43.2 
" style="fill:none;stroke:#000000;stroke-linecap:square;stroke-linejoin:miter;"/>
   </g>
   <g id="patch_4">
    <path d="M 72 388.8 
L 72 43.2 
" style="fill:none;stroke:#000000;stroke-linecap:square;stroke-linejoin:miter;"/>
   </g>
   <g id="patch_5">
    <path d="M 72 388.8 
L 518.4 388.8 
" style="fill:none;stroke:#000000;stroke-linecap:square;stroke-linejoin:miter;"/>
   </g>
   <g id="patch_6">
    <path d="M 72 43.2 
L 518.4 43.2 
" style="fill:none;stroke:#000000;stroke-linecap:square;stroke-linejoin:miter;"/>
   </g>
   <g id="matplotlib.axis_1">
    <g id="xtick_1">
     <g id="line2d_6">
      <defs>
       <path d="M 0 0 
L 0 -4 
" id="mf3c45ba64c" style="stroke:#000000;stroke-width:0.5;"/>
      </defs>
      <g>
       <use style="stroke:#000000;stroke-width:0.5;" x="72.0" xlink:href="#mf3c45ba64c" y="388.8"/>
      </g>
     </g>
     <g id="line2d_7">
      <defs>
       <path d="M 0 0 
L 0 4 
" id="m198bf5fc35" style="stroke:#000000;stroke-width:0.5;"/>
      </defs>
      <g>
       <use style="stroke:#000000;stroke-width:0.5;" x="72.0" xlink:href="#m198bf5fc35" y="43.2"/>
      </g>
     </g>
     <g id="text_1">
      <!-- −180 -->
      <defs>
       <path d="M 31.78125 34.625 
Q 24.75 34.625 20.71875 30.859375 
Q 16.703125 27.09375 16.703125 20.515625 
Q 16.703125 13.921875 20.71875 10.15625 
Q 24.75 6.390625 31.78125 6.390625 
Q 38.8125 6.390625 42.859375 10.171875 
Q 46.921875 13.96875 46.921875 20.515625 
Q 46.921875 27.09375 42.890625 30.859375 
Q 38.875 34.625 31.78125 34.625 
M 21.921875 38.8125 
Q 15.578125 40.375 12.03125 44.71875 
Q 8.5 49.078125 8.5 55.328125 
Q 8.5 64.0625 14.71875 69.140625 
Q 20.953125 74.21875 31.78125 74.21875 
Q 42.671875 74.21875 48.875 69.140625 
Q 55.078125 64.0625 55.078125 55.328125 
Q 55.078125 49.078125 51.53125 44.71875 
Q 48 40.375 41.703125 38.8125 
Q 48.828125 37.15625 52.796875 32.3125 
Q 56.78125 27.484375 56.78125 20.515625 
Q 56.78125 9.90625 50.3125 4.234375 
Q 43.84375 -1.421875 31.78125 -1.421875 
Q 19.734375 -1.421875 13.25 4.234375 
Q 6.78125 9.90625 6.78125 20.515625 
Q 6.78125 27.484375 10.78125 32.3125 
Q 14.796875 37.15625 21.921875 38.8125 
M 18.3125 54.390625 
Q 18.3125 48.734375 21.84375 45.5625 
Q 25.390625 42.390625 31.78125 42.390625 
Q 38.140625 42.390625 41.71875 45.5625 
Q 45.3125 48.734375 45.3125 54.390625 
Q 45.3125 60.0625 41.71875 63.234375 
Q 38.140625 66.40625 31.78125 66.40625 
Q 25.390625 66.40625 21.84375 63.234375 
Q 18.3125 60.0625 18.3125 54.390625 
" id="BitstreamVeraSans-Roman-38"/>
       <path d="M 31.78125 66.40625 
Q 24.171875 66.40625 20.328125 58.90625 
Q 16.5 51.421875 16.5 36.375 
Q 16.5 21.390625 20.328125 13.890625 
Q 24.171875 6.390625 31.78125 6.390625 
Q 39.453125 6.390625 43.28125 13.890625 
Q 47.125 21.390625 47.125 36.375 
Q 47.125 51.421875 43.28125 58.90625 
Q 39.453125 66.40625 31.78125 66.40625 
M 31.78125 74.21875 
Q 44.046875 74.21875 50.515625 64.515625 
Q 56.984375 54.828125 56.984375 36.375 
Q 56.984375 17.96875 50.515625 8.265625 
Q 44.046875 -1.421875 31.78125 -1.421875 
Q 19.53125 -1.421875 13.0625 8.265625 
Q 6.59375 17.96875 6.59375 36.375 
Q 6.59375 54.828125 13.0625 64.515625 
Q 19.53125 74.21875 31.78125 74.21875 
" id="BitstreamVeraSans-Roman-30"/>
       <path d="M 12.40625 8.296875 
L 28.515625 8.296875 
L 28.515625 63.921875 
L 10.984375 60.40625 
L 10.984375 69.390625 
L 28.421875 72.90625 
L 38.28125 72.90625 
L 38.28125 8.296875 
L 54.390625 8.296875 
L 54.390625 0 
L 12.40625 0 
z
" id="BitstreamVeraSans-Roman-31"/>
       <path d="M 10.59375 35.5 
L 73.1875 35.5 
L 73.1875 27.203125 
L 10.59375 27.203125 
z
" id="BitstreamVeraSans-Roman-2212"/>
      </defs>
      <g transform="translate(55.5196875 401.918125)scale(0.12 -0.12)">
       <use xlink:href="#BitstreamVeraSans-Roman-2212"/>
       <use x="83.7890625" xlink:href="#BitstreamVeraSans-Roman-31"/>
       <use x="147.412109375" xlink:href="#BitstreamVeraSans-Roman-38"/>
       <use x="211.03515625" xlink:href="#BitstreamVeraSans-Roman-30"/>
      </g>
     </g>
    </g>
    <g id="xtick_2">
     <g id="line2d_8">
      <g>
       <use style="stroke:#000000;stroke-width:0.5;" x="127.8" xlink:href="#mf3c45ba64c" y="388.8"/>
      </g>
     </g>
     <g id="line2d_9">
      <g>
       <use style="stroke:#000000;stroke-width:0.5;" x="127.8" xlink:href="#m198bf5fc35" y="43.2"/>
      </g>
     </g>
     <g id="text_2">
      <!-- −135 -->
      <defs>
       <path d="M 40.578125 39.3125 
Q 47.65625 37.796875 51.625 33 
Q 55.609375 28.21875 55.609375 21.1875 
Q 55.609375 10.40625 48.1875 4.484375 
Q 40.765625 -1.421875 27.09375 -1.421875 
Q 22.515625 -1.421875 17.65625 -0.515625 
Q 12.796875 0.390625 7.625 2.203125 
L 7.625 11.71875 
Q 11.71875 9.328125 16.59375 8.109375 
Q 21.484375 6.890625 26.8125 6.890625 
Q 36.078125 6.890625 40.9375 10.546875 
Q 45.796875 14.203125 45.796875 21.1875 
Q 45.796875 27.640625 41.28125 31.265625 
Q 36.765625 34.90625 28.71875 34.90625 
L 20.21875 34.90625 
L 20.21875 43.015625 
L 29.109375 43.015625 
Q 36.375 43.015625 40.234375 45.921875 
Q 44.09375 48.828125 44.09375 54.296875 
Q 44.09375 59.90625 40.109375 62.90625 
Q 36.140625 65.921875 28.71875 65.921875 
Q 24.65625 65.921875 20.015625 65.03125 
Q 15.375 64.15625 9.8125 62.3125 
L 9.8125 71.09375 
Q 15.4375 72.65625 20.34375 73.4375 
Q 25.25 74.21875 29.59375 74.21875 
Q 40.828125 74.21875 47.359375 69.109375 
Q 53.90625 64.015625 53.90625 55.328125 
Q 53.90625 49.265625 50.4375 45.09375 
Q 46.96875 40.921875 40.578125 39.3125 
" id="BitstreamVeraSans-Roman-33"/>
       <path d="M 10.796875 72.90625 
L 49.515625 72.90625 
L 49.515625 64.59375 
L 19.828125 64.59375 
L 19.828125 46.734375 
Q 21.96875 47.46875 24.109375 47.828125 
Q 26.265625 48.1875 28.421875 48.1875 
Q 40.625 48.1875 47.75 41.5 
Q 54.890625 34.8125 54.890625 23.390625 
Q 54.890625 11.625 47.5625 5.09375 
Q 40.234375 -1.421875 26.90625 -1.421875 
Q 22.3125 -1.421875 17.546875 -0.640625 
Q 12.796875 0.140625 7.71875 1.703125 
L 7.71875 11.625 
Q 12.109375 9.234375 16.796875 8.0625 
Q 21.484375 6.890625 26.703125 6.890625 
Q 35.15625 6.890625 40.078125 11.328125 
Q 45.015625 15.765625 45.015625 23.390625 
Q 45.015625 31 40.078125 35.4375 
Q 35.15625 39.890625 26.703125 39.890625 
Q 22.75 39.890625 18.8125 39.015625 
Q 14.890625 38.140625 10.796875 36.28125 
z
" id="BitstreamVeraSans-Roman-35"/>
      </defs>
      <g transform="translate(111.3196875 401.918125)scale(0.12 -0.12)">
       <use xlink:href="#BitstreamVeraSans-Roman-2212"/>
       <use x="83.7890625" xlink:href="#BitstreamVeraSans-Roman-31"/>
       <use x="147.412109375" xlink:href="#BitstreamVeraSans-Roman-33"/>
       <use x="211.03515625" xlink:href="#BitstreamVeraSans-Roman-35"/>
      </g>
     </g>
    </g>
    <g id="xtick_3">
     <g id="line2d_10">
      <g>
       <use style="stroke:#000000;stroke-width:0.5;" x="183.6" xlink:href="#mf3c45ba64c" y="388.8"/>
      </g>
     </g>
     <g id="line2d_11">
      <g>
       <use style="stroke:#000000;stroke-width:0.5;" x="183.6" xlink:href="#m198bf5fc35" y="43.2"/>
      </g>
     </g>
     <g id="text_3">
      <!-- −90 -->
      <defs>
       <path d="M 10.984375 1.515625 
L 10.984375 10.5 
Q 14.703125 8.734375 18.5 7.8125 
Q 22.3125 6.890625 25.984375 6.890625 
Q 35.75 6.890625 40.890625 13.453125 
Q 46.046875 20.015625 46.78125 33.40625 
Q 43.953125 29.203125 39.59375 26.953125 
Q 35.25 24.703125 29.984375 24.703125 
Q 19.046875 24.703125 12.671875 31.3125 
Q 6.296875 37.9375 6.296875 49.421875 
Q 6.296875 60.640625 12.9375 67.421875 
Q 19.578125 74.21875 30.609375 74.21875 
Q 43.265625 74.21875 49.921875 64.515625 
Q 56.59375 54.828125 56.59375 36.375 
Q 56.59375 19.140625 48.40625 8.859375 
Q 40.234375 -1.421875 26.421875 -1.421875 
Q 22.703125 -1.421875 18.890625 -0.6875 
Q 15.09375 0.046875 10.984375 1.515625 
M 30.609375 32.421875 
Q 37.25 32.421875 41.125 36.953125 
Q 45.015625 41.5 45.015625 49.421875 
Q 45.015625 57.28125 41.125 61.84375 
Q 37.25 66.40625 30.609375 66.40625 
Q 23.96875 66.40625 20.09375 61.84375 
Q 16.21875 57.28125 16.21875 49.421875 
Q 16.21875 41.5 20.09375 36.953125 
Q 23.96875 32.421875 30.609375 32.421875 
" id="BitstreamVeraSans-Roman-39"/>
      </defs>
      <g transform="translate(170.9371875 401.918125)scale(0.12 -0.12)">
       <use xlink:href="#BitstreamVeraSans-Roman-2212"/>
       <use x="83.7890625" xlink:href="#BitstreamVeraSans-Roman-39"/>
       <use x="147.412109375" xlink:href="#BitstreamVeraSans-Roman-30"/>
      </g>
     </g>
    </g>
    <g id="xtick_4">
     <g id="line2d_12">
      <g>
       <use style="stroke:#000000;stroke-width:0.5;" x="239.4" xlink:href="#mf3c45ba64c" y="388.8"/>
      </g>
     </g>
     <g id="line2d_13">
      <g>
       <use style="stroke:#000000;stroke-width:0.5;" x="239.4" xlink:href="#m198bf5fc35" y="43.2"/>
      </g>
     </g>
     <g id="text_4">
      <!-- −45 -->
      <defs>
       <path d="M 37.796875 64.3125 
L 12.890625 25.390625 
L 37.796875 25.390625 
z
M 35.203125 72.90625 
L 47.609375 72.90625 
L 47.609375 25.390625 
L 58.015625 25.390625 
L 58.015625 17.1875 
L 47.609375 17.1875 
L 47.609375 0 
L 37.796875 0 
L 37.796875 17.1875 
L 4.890625 17.1875 
L 4.890625 26.703125 
z
" id="BitstreamVeraSans-Roman-34"/>
      </defs>
      <g transform="translate(226.7371875 401.918125)scale(0.12 -0.12)">
       <use xlink:href="#BitstreamVeraSans-Roman-2212"/>
       <use x="83.7890625" xlink:href="#BitstreamVeraSans-Roman-34"/>
       <use x="147.412109375" xlink:href="#BitstreamVeraSans-Roman-35"/>
      </g>
     </g>
    </g>
    <g id="xtick_5">
     <g id="line2d_14">
      <g>
       <use style="stroke:#000000;stroke-width:0.5;" x="295.2" xlink:href="#mf3c45ba64c" y="388.8"/>
      </g>
     </g>
     <g id="line2d_15">
      <g>
       <use style="stroke:#000000;stroke-width:0.5;" x="295.2" xlink:href="#m198bf5fc35" y="43.2"/>
      </g>
     </g>
     <g id="text_5">
      <!-- 0 -->
      <g transform="translate(291.3825 401.918125)scale(0.12 -0.12)">
       <use xlink:href="#BitstreamVeraSans-Roman-30"/>
      </g>
     </g>
    </g>
    <g id="xtick_6">
     <g id="line2d_16">
      <g>
       <use style="stroke:#000000;stroke-width:0.5;" x="351.0" xlink:href="#mf3c45ba64c" y="388.8"/>
      </g>
     </g>
     <g id="line2d_17">
      <g>
       <use style="stroke:#000000;stroke-width:0.5;" x="351.0" xlink:href="#m198bf5fc35" y="43.2"/>
      </g>
     </g>
     <g id="text_6">
      <!-- 45 -->
      <g transform="translate(343.365 401.918125)scale(0.12 -0.12)">
       <use xlink:href="#BitstreamVeraSans-Roman-34"/>
       <use x="63.623046875" xlink:href="#BitstreamVeraSans-Roman-35"/>
      </g>
     </g>
    </g>
    <g id="xtick_7">
     <g id="line2d_18">
      <g>
       <use style="stroke:#000000;stroke-width:0.5;" x="406.8" xlink:href="#mf3c45ba64c" y="388.8"/>
      </g>
     </g>
     <g id="line2d_19">
      <g>
       <use style="stroke:#000000;stroke-width:0.5;" x="406.8" xlink:href="#m198bf5fc35" y="43.2"/>
      </g>
     </g>
     <g id="text_7">
      <!-- 90 -->
      <g transform="translate(399.165 401.918125)scale(0.12 -0.12)">
       <use xlink:href="#BitstreamVeraSans-Roman-39"/>
       <use x="63.623046875" xlink:href="#BitstreamVeraSans-Roman-30"/>
      </g>
     </g>
    </g>
    <g id="xtick_8">
     <g id="line2d_20">
      <g>
       <use style="stroke:#000000;stroke-width:0.5;" x="462.6" xlink:href="#mf3c45ba64c" y="388.8"/>
      </g>
     </g>
     <g id="line2d_21">
      <g>
       <use style="stroke:#000000;stroke-width:0.5;" x="462.6" xlink:href="#m198bf5fc35" y="43.2"/>
      </g>
     </g>
     <g id="text_8">
      <!-- 135 -->
      <g transform="translate(451.1475 401.918125)scale(0.12 -0.12)">
       <use xlink:href="#BitstreamVeraSans-Roman-31"/>
       <use x="63.623046875" xlink:href="#BitstreamVeraSans-Roman-33"/>
       <use x="127.24609375" xlink:href="#BitstreamVeraSans-Roman-35"/>
      </g>
     </g>
    </g>
    <g id="xtick_9">
     <g id="line2d_22">
      <g>
       <use style="stroke:#000000;stroke-width:0.5;" x="518.4" xlink:href="#mf3c45ba64c" y="388.8"/>
      </g>
     </g>
     <g id="line2d_23">
      <g>
       <use style="stroke:#000000;stroke-width:0.5;" x="518.4" xlink:href="#m198bf5fc35" y="43.2"/>
      </g>
     </g>
     <g id="text_9">
      <!-- 180 -->
      <g transform="translate(506.9475 401.918125)scale(0.12 -0.12)">
       <use xlink:href="#BitstreamVeraSans-Roman-31"/>
       <use x="63.623046875" xlink:href="#BitstreamVeraSans-Roman-38"/>
       <use x="127.24609375" xlink:href="#BitstreamVeraSans-Roman-30"/>
      </g>
     </g>
    </g>
    <g id="text_10">
     <!-- Phi -->
     <defs>
      <path d="M 54.890625 33.015625 
L 54.890625 0 
L 45.90625 0 
L 45.90625 32.71875 
Q 45.90625 40.484375 42.875 44.328125 
Q 39.84375 48.1875 33.796875 48.1875 
Q 26.515625 48.1875 22.3125 43.546875 
Q 18.109375 38.921875 18.109375 30.90625 
L 18.109375 0 
L 9.078125 0 
L 9.078125 75.984375 
L 18.109375 75.984375 
L 18.109375 46.1875 
Q 21.34375 51.125 25.703125 53.5625 
Q 30.078125 56 35.796875 56 
Q 45.21875 56 50.046875 50.171875 
Q 54.890625 44.34375 54.890625 33.015625 
" id="BitstreamVeraSans-Roman-68"/>
      <path d="M 19.671875 64.796875 
L 19.671875 37.40625 
L 32.078125 37.40625 
Q 38.96875 37.40625 42.71875 40.96875 
Q 46.484375 44.53125 46.484375 51.125 
Q 46.484375 57.671875 42.71875 61.234375 
Q 38.96875 64.796875 32.078125 64.796875 
z
M 9.8125 72.90625 
L 32.078125 72.90625 
Q 44.34375 72.90625 50.609375 67.359375 
Q 56.890625 61.8125 56.890625 51.125 
Q 56.890625 40.328125 50.609375 34.8125 
Q 44.34375 29.296875 32.078125 29.296875 
L 19.671875 29.296875 
L 19.671875 0 
L 9.8125 0 
z
" id="BitstreamVeraSans-Roman-50"/>
      <path d="M 9.421875 54.6875 
L 18.40625 54.6875 
L 18.40625 0 
L 9.421875 0 
z
M 9.421875 75.984375 
L 18.40625 75.984375 
L 18.40625 64.59375 
L 9.421875 64.59375 
z
" id="BitstreamVeraSans-Roman-69"/>
     </defs>
     <g transform="translate(286.1128125 418.531875)scale(0.12 -0.12)">
      <use xlink:href="#BitstreamVeraSans-Roman-50"/>
      <use x="60.302734375" xlink:href="#BitstreamVeraSans-Roman-68"/>
      <use x="123.681640625" xlink:href="#BitstreamVeraSans-Roman-69"/>
     </g>
    </g>
   </g>
   <g id="matplotlib.axis_2">
    <g id="ytick_1">
     <g id="line2d_24">
      <defs>
       <path d="M 0 0 
L 4 0 
" id="m2f1b916b70" style="stroke:#000000;stroke-width:0.5;"/>
      </defs>
      <g>
       <use style="stroke:#000000;stroke-width:0.5;" x="72.0" xlink:href="#m2f1b916b70" y="388.8"/>
      </g>
     </g>
     <g id="line2d_25">
      <defs>
       <path d="M 0 0 
L -4 0 
" id="m66fa3ace46" style="stroke:#000000;stroke-width:0.5;"/>
      </defs>
      <g>
       <use style="stroke:#000000;stroke-width:0.5;" x="518.4" xlink:href="#m66fa3ace46" y="388.8"/>
      </g>
     </g>
     <g id="text_11">
      <!-- 0 -->
      <g transform="translate(60.365 392.11125)scale(0.12 -0.12)">
       <use xlink:href="#BitstreamVeraSans-Roman-30"/>
      </g>
     </g>
    </g>
    <g id="ytick_2">
     <g id="line2d_26">
      <g>
       <use style="stroke:#000000;stroke-width:0.5;" x="72.0" xlink:href="#m2f1b916b70" y="345.6"/>
      </g>
     </g>
     <g id="line2d_27">
      <g>
       <use style="stroke:#000000;stroke-width:0.5;" x="518.4" xlink:href="#m66fa3ace46" y="345.6"/>
      </g>
     </g>
     <g id="text_12">
      <!-- 1 -->
      <g transform="translate(60.365 348.91125)scale(0.12 -0.12)">
       <use xlink:href="#BitstreamVeraSans-Roman-31"/>
      </g>
     </g>
    </g>
    <g id="ytick_3">
     <g id="line2d_28">
      <g>
       <use style="stroke:#000000;stroke-width:0.5;" x="72.0" xlink:href="#m2f1b916b70" y="302.4"/>
      </g>
     </g>
     <g id="line2d_29">
      <g>
       <use style="stroke:#000000;stroke-width:0.5;" x="518.4" xlink:href="#m66fa3ace46" y="302.4"/>
      </g>
     </g>
     <g id="text_13">
      <!-- 2 -->
      <defs>
       <path d="M 19.1875 8.296875 
L 53.609375 8.296875 
L 53.609375 0 
L 7.328125 0 
L 7.328125 8.296875 
Q 12.9375 14.109375 22.625 23.890625 
Q 32.328125 33.6875 34.8125 36.53125 
Q 39.546875 41.84375 41.421875 45.53125 
Q 43.3125 49.21875 43.3125 52.78125 
Q 43.3125 58.59375 39.234375 62.25 
Q 35.15625 65.921875 28.609375 65.921875 
Q 23.96875 65.921875 18.8125 64.3125 
Q 13.671875 62.703125 7.8125 59.421875 
L 7.8125 69.390625 
Q 13.765625 71.78125 18.9375 73 
Q 24.125 74.21875 28.421875 74.21875 
Q 39.75 74.21875 46.484375 68.546875 
Q 53.21875 62.890625 53.21875 53.421875 
Q 53.21875 48.921875 51.53125 44.890625 
Q 49.859375 40.875 45.40625 35.40625 
Q 44.1875 33.984375 37.640625 27.21875 
Q 31.109375 20.453125 19.1875 8.296875 
" id="BitstreamVeraSans-Roman-32"/>
      </defs>
      <g transform="translate(60.365 305.71125)scale(0.12 -0.12)">
       <use xlink:href="#BitstreamVeraSans-Roman-32"/>
      </g>
     </g>
    </g>
    <g id="ytick_4">
     <g id="line2d_30">
      <g>
       <use style="stroke:#000000;stroke-width:0.5;" x="72.0" xlink:href="#m2f1b916b70" y="259.2"/>
      </g>
     </g>
     <g id="line2d_31">
      <g>
       <use style="stroke:#000000;stroke-width:0.5;" x="518.4" xlink:href="#m66fa3ace46" y="259.2"/>
      </g>
     </g>
     <g id="text_14">
      <!-- 3 -->
      <g transform="translate(60.365 262.51125)scale(0.12 -0.12)">
       <use xlink:href="#BitstreamVeraSans-Roman-33"/>
      </g>
     </g>
    </g>
    <g id="ytick_5">
     <g id="line2d_32">
      <g>
       <use style="stroke:#000000;stroke-width:0.5;" x="72.0" xlink:href="#m2f1b916b70" y="216.0"/>
      </g>
     </g>
     <g id="line2d_33">
      <g>
       <use style="stroke:#000000;stroke-width:0.5;" x="518.4" xlink:href="#m66fa3ace46" y="216.0"/>
      </g>
     </g>
     <g id="text_15">
      <!-- 4 -->
      <g transform="translate(60.365 219.31125)scale(0.12 -0.12)">
       <use xlink:href="#BitstreamVeraSans-Roman-34"/>
      </g>
     </g>
    </g>
    <g id="ytick_6">
     <g id="line2d_34">
      <g>
       <use style="stroke:#000000;stroke-width:0.5;" x="72.0" xlink:href="#m2f1b916b70" y="172.8"/>
      </g>
     </g>
     <g id="line2d_35">
      <g>
       <use style="stroke:#000000;stroke-width:0.5;" x="518.4" xlink:href="#m66fa3ace46" y="172.8"/>
      </g>
     </g>
     <g id="text_16">
      <!-- 5 -->
      <g transform="translate(60.365 176.11125)scale(0.12 -0.12)">
       <use xlink:href="#BitstreamVeraSans-Roman-35"/>
      </g>
     </g>
    </g>
    <g id="ytick_7">
     <g id="line2d_36">
      <g>
       <use style="stroke:#000000;stroke-width:0.5;" x="72.0" xlink:href="#m2f1b916b70" y="129.6"/>
      </g>
     </g>
     <g id="line2d_37">
      <g>
       <use style="stroke:#000000;stroke-width:0.5;" x="518.4" xlink:href="#m66fa3ace46" y="129.6"/>
      </g>
     </g>
     <g id="text_17">
      <!-- 6 -->
      <defs>
       <path d="M 33.015625 40.375 
Q 26.375 40.375 22.484375 35.828125 
Q 18.609375 31.296875 18.609375 23.390625 
Q 18.609375 15.53125 22.484375 10.953125 
Q 26.375 6.390625 33.015625 6.390625 
Q 39.65625 6.390625 43.53125 10.953125 
Q 47.40625 15.53125 47.40625 23.390625 
Q 47.40625 31.296875 43.53125 35.828125 
Q 39.65625 40.375 33.015625 40.375 
M 52.59375 71.296875 
L 52.59375 62.3125 
Q 48.875 64.0625 45.09375 64.984375 
Q 41.3125 65.921875 37.59375 65.921875 
Q 27.828125 65.921875 22.671875 59.328125 
Q 17.53125 52.734375 16.796875 39.40625 
Q 19.671875 43.65625 24.015625 45.921875 
Q 28.375 48.1875 33.59375 48.1875 
Q 44.578125 48.1875 50.953125 41.515625 
Q 57.328125 34.859375 57.328125 23.390625 
Q 57.328125 12.15625 50.6875 5.359375 
Q 44.046875 -1.421875 33.015625 -1.421875 
Q 20.359375 -1.421875 13.671875 8.265625 
Q 6.984375 17.96875 6.984375 36.375 
Q 6.984375 53.65625 15.1875 63.9375 
Q 23.390625 74.21875 37.203125 74.21875 
Q 40.921875 74.21875 44.703125 73.484375 
Q 48.484375 72.75 52.59375 71.296875 
" id="BitstreamVeraSans-Roman-36"/>
      </defs>
      <g transform="translate(60.365 132.91125)scale(0.12 -0.12)">
       <use xlink:href="#BitstreamVeraSans-Roman-36"/>
      </g>
     </g>
    </g>
    <g id="ytick_8">
     <g id="line2d_38">
      <g>
       <use style="stroke:#000000;stroke-width:0.5;" x="72.0" xlink:href="#m2f1b916b70" y="86.4"/>
      </g>
     </g>
     <g id="line2d_39">
      <g>
       <use style="stroke:#000000;stroke-width:0.5;" x="518.4" xlink:href="#m66fa3ace46" y="86.4"/>
      </g>
     </g>
     <g id="text_18">
      <!-- 7 -->
      <defs>
       <path d="M 8.203125 72.90625 
L 55.078125 72.90625 
L 55.078125 68.703125 
L 28.609375 0 
L 18.3125 0 
L 43.21875 64.59375 
L 8.203125 64.59375 
z
" id="BitstreamVeraSans-Roman-37"/>
      </defs>
      <g transform="translate(60.365 89.71125)scale(0.12 -0.12)">
       <use xlink:href="#BitstreamVeraSans-Roman-37"/>
      </g>
     </g>
    </g>
    <g id="ytick_9">
     <g id="line2d_40">
      <g>
       <use style="stroke:#000000;stroke-width:0.5;" x="72.0" xlink:href="#m2f1b916b70" y="43.2"/>
      </g>
     </g>
     <g id="line2d_41">
      <g>
       <use style="stroke:#000000;stroke-width:0.5;" x="518.4" xlink:href="#m66fa3ace46" y="43.2"/>
      </g>
     </g>
     <g id="text_19">
      <!-- 8 -->
      <g transform="translate(60.365 46.51125)scale(0.12 -0.12)">
       <use xlink:href="#BitstreamVeraSans-Roman-38"/>
      </g>
     </g>
    </g>
    <g id="text_20">
     <!-- kcal/mol -->
     <defs>
      <path d="M 48.78125 52.59375 
L 48.78125 44.1875 
Q 44.96875 46.296875 41.140625 47.34375 
Q 37.3125 48.390625 33.40625 48.390625 
Q 24.65625 48.390625 19.8125 42.84375 
Q 14.984375 37.3125 14.984375 27.296875 
Q 14.984375 17.28125 19.8125 11.734375 
Q 24.65625 6.203125 33.40625 6.203125 
Q 37.3125 6.203125 41.140625 7.25 
Q 44.96875 8.296875 48.78125 10.40625 
L 48.78125 2.09375 
Q 45.015625 0.34375 40.984375 -0.53125 
Q 36.96875 -1.421875 32.421875 -1.421875 
Q 20.0625 -1.421875 12.78125 6.34375 
Q 5.515625 14.109375 5.515625 27.296875 
Q 5.515625 40.671875 12.859375 48.328125 
Q 20.21875 56 33.015625 56 
Q 37.15625 56 41.109375 55.140625 
Q 45.0625 54.296875 48.78125 52.59375 
" id="BitstreamVeraSans-Roman-63"/>
      <path d="M 30.609375 48.390625 
Q 23.390625 48.390625 19.1875 42.75 
Q 14.984375 37.109375 14.984375 27.296875 
Q 14.984375 17.484375 19.15625 11.84375 
Q 23.34375 6.203125 30.609375 6.203125 
Q 37.796875 6.203125 41.984375 11.859375 
Q 46.1875 17.53125 46.1875 27.296875 
Q 46.1875 37.015625 41.984375 42.703125 
Q 37.796875 48.390625 30.609375 48.390625 
M 30.609375 56 
Q 42.328125 56 49.015625 48.375 
Q 55.71875 40.765625 55.71875 27.296875 
Q 55.71875 13.875 49.015625 6.21875 
Q 42.328125 -1.421875 30.609375 -1.421875 
Q 18.84375 -1.421875 12.171875 6.21875 
Q 5.515625 13.875 5.515625 27.296875 
Q 5.515625 40.765625 12.171875 48.375 
Q 18.84375 56 30.609375 56 
" id="BitstreamVeraSans-Roman-6f"/>
      <path d="M 9.421875 75.984375 
L 18.40625 75.984375 
L 18.40625 0 
L 9.421875 0 
z
" id="BitstreamVeraSans-Roman-6c"/>
      <path d="M 34.28125 27.484375 
Q 23.390625 27.484375 19.1875 25 
Q 14.984375 22.515625 14.984375 16.5 
Q 14.984375 11.71875 18.140625 8.90625 
Q 21.296875 6.109375 26.703125 6.109375 
Q 34.1875 6.109375 38.703125 11.40625 
Q 43.21875 16.703125 43.21875 25.484375 
L 43.21875 27.484375 
z
M 52.203125 31.203125 
L 52.203125 0 
L 43.21875 0 
L 43.21875 8.296875 
Q 40.140625 3.328125 35.546875 0.953125 
Q 30.953125 -1.421875 24.3125 -1.421875 
Q 15.921875 -1.421875 10.953125 3.296875 
Q 6 8.015625 6 15.921875 
Q 6 25.140625 12.171875 29.828125 
Q 18.359375 34.515625 30.609375 34.515625 
L 43.21875 34.515625 
L 43.21875 35.40625 
Q 43.21875 41.609375 39.140625 45 
Q 35.0625 48.390625 27.6875 48.390625 
Q 23 48.390625 18.546875 47.265625 
Q 14.109375 46.140625 10.015625 43.890625 
L 10.015625 52.203125 
Q 14.9375 54.109375 19.578125 55.046875 
Q 24.21875 56 28.609375 56 
Q 40.484375 56 46.34375 49.84375 
Q 52.203125 43.703125 52.203125 31.203125 
" id="BitstreamVeraSans-Roman-61"/>
      <path d="M 25.390625 72.90625 
L 33.6875 72.90625 
L 8.296875 -9.28125 
L 0 -9.28125 
z
" id="BitstreamVeraSans-Roman-2f"/>
      <path d="M 52 44.1875 
Q 55.375 50.25 60.0625 53.125 
Q 64.75 56 71.09375 56 
Q 79.640625 56 84.28125 50.015625 
Q 88.921875 44.046875 88.921875 33.015625 
L 88.921875 0 
L 79.890625 0 
L 79.890625 32.71875 
Q 79.890625 40.578125 77.09375 44.375 
Q 74.3125 48.1875 68.609375 48.1875 
Q 61.625 48.1875 57.5625 43.546875 
Q 53.515625 38.921875 53.515625 30.90625 
L 53.515625 0 
L 44.484375 0 
L 44.484375 32.71875 
Q 44.484375 40.625 41.703125 44.40625 
Q 38.921875 48.1875 33.109375 48.1875 
Q 26.21875 48.1875 22.15625 43.53125 
Q 18.109375 38.875 18.109375 30.90625 
L 18.109375 0 
L 9.078125 0 
L 9.078125 54.6875 
L 18.109375 54.6875 
L 18.109375 46.1875 
Q 21.1875 51.21875 25.484375 53.609375 
Q 29.78125 56 35.6875 56 
Q 41.65625 56 45.828125 52.96875 
Q 50 49.953125 52 44.1875 
" id="BitstreamVeraSans-Roman-6d"/>
      <path d="M 9.078125 75.984375 
L 18.109375 75.984375 
L 18.109375 31.109375 
L 44.921875 54.6875 
L 56.390625 54.6875 
L 27.390625 29.109375 
L 57.625 0 
L 45.90625 0 
L 18.109375 26.703125 
L 18.109375 0 
L 9.078125 0 
z
" id="BitstreamVeraSans-Roman-6b"/>
     </defs>
     <g transform="translate(52.869375 241.3209375)rotate(-90.0)scale(0.12 -0.12)">
      <use xlink:href="#BitstreamVeraSans-Roman-6b"/>
      <use x="57.91015625" xlink:href="#BitstreamVeraSans-Roman-63"/>
      <use x="112.890625" xlink:href="#BitstreamVeraSans-Roman-61"/>
      <use x="174.169921875" xlink:href="#BitstreamVeraSans-Roman-6c"/>
      <use x="201.953125" xlink:href="#BitstreamVeraSans-Roman-2f"/>
      <use x="235.64453125" xlink:href="#BitstreamVeraSans-Roman-6d"/>
      <use x="333.056640625" xlink:href="#BitstreamVeraSans-Roman-6f"/>
      <use x="394.23828125" xlink:href="#BitstreamVeraSans-Roman-6c"/>
     </g>
    </g>
   </g>
   <g id="text_21">
    <!-- H10-C5-C4-C3 -->
    <defs>
     <path d="M 4.890625 31.390625 
L 31.203125 31.390625 
L 31.203125 23.390625 
L 4.890625 23.390625 
z
" id="BitstreamVeraSans-Roman-2d"/>
     <path d="M 64.40625 67.28125 
L 64.40625 56.890625 
Q 59.421875 61.53125 53.78125 63.8125 
Q 48.140625 66.109375 41.796875 66.109375 
Q 29.296875 66.109375 22.65625 58.46875 
Q 16.015625 50.828125 16.015625 36.375 
Q 16.015625 21.96875 22.65625 14.328125 
Q 29.296875 6.6875 41.796875 6.6875 
Q 48.140625 6.6875 53.78125 8.984375 
Q 59.421875 11.28125 64.40625 15.921875 
L 64.40625 5.609375 
Q 59.234375 2.09375 53.4375 0.328125 
Q 47.65625 -1.421875 41.21875 -1.421875 
Q 24.65625 -1.421875 15.125 8.703125 
Q 5.609375 18.84375 5.609375 36.375 
Q 5.609375 53.953125 15.125 64.078125 
Q 24.65625 74.21875 41.21875 74.21875 
Q 47.75 74.21875 53.53125 72.484375 
Q 59.328125 70.75 64.40625 67.28125 
" id="BitstreamVeraSans-Roman-43"/>
     <path d="M 9.8125 72.90625 
L 19.671875 72.90625 
L 19.671875 43.015625 
L 55.515625 43.015625 
L 55.515625 72.90625 
L 65.375 72.90625 
L 65.375 0 
L 55.515625 0 
L 55.515625 34.71875 
L 19.671875 34.71875 
L 19.671875 0 
L 9.8125 0 
z
" id="BitstreamVeraSans-Roman-48"/>
    </defs>
    <g transform="translate(244.004625 38.2)scale(0.144 -0.144)">
     <use xlink:href="#BitstreamVeraSans-Roman-48"/>
     <use x="75.1953125" xlink:href="#BitstreamVeraSans-Roman-31"/>
     <use x="138.818359375" xlink:href="#BitstreamVeraSans-Roman-30"/>
     <use x="202.44140625" xlink:href="#BitstreamVeraSans-Roman-2d"/>
     <use x="238.525390625" xlink:href="#BitstreamVeraSans-Roman-43"/>
     <use x="308.349609375" xlink:href="#BitstreamVeraSans-Roman-35"/>
     <use x="371.97265625" xlink:href="#BitstreamVeraSans-Roman-2d"/>
     <use x="408.056640625" xlink:href="#BitstreamVeraSans-Roman-43"/>
     <use x="477.880859375" xlink:href="#BitstreamVeraSans-Roman-34"/>
     <use x="541.50390625" xlink:href="#BitstreamVeraSans-Roman-2d"/>
     <use x="577.587890625" xlink:href="#BitstreamVeraSans-Roman-43"/>
     <use x="647.412109375" xlink:href="#BitstreamVeraSans-Roman-33"/>
    </g>
   </g>
   <g id="legend_1">
    <g id="patch_7">
     <path d="M 406.15625 108.3125 
L 514.4 108.3125 
L 514.4 47.2 
L 406.15625 47.2 
z
" style="fill:#ffffff;stroke:#000000;stroke-linejoin:miter;"/>
    </g>
    <g id="line2d_42">
     <path d="M 411.75625 53.67875 
L 422.95625 53.67875 
" style="fill:none;stroke:#ff0000;stroke-linecap:square;"/>
    </g>
    <g id="line2d_43">
     <g>
      <use style="fill:#ff0000;stroke:#000000;stroke-width:0.5;" x="411.75625" xlink:href="#m6e77f2eaa0" y="53.67875"/>
      <use style="fill:#ff0000;stroke:#000000;stroke-width:0.5;" x="422.95625" xlink:href="#m6e77f2eaa0" y="53.67875"/>
     </g>
    </g>
    <g id="text_22">
     <!-- QM -->
     <defs>
      <path d="M 9.8125 72.90625 
L 24.515625 72.90625 
L 43.109375 23.296875 
L 61.8125 72.90625 
L 76.515625 72.90625 
L 76.515625 0 
L 66.890625 0 
L 66.890625 64.015625 
L 48.09375 14.015625 
L 38.1875 14.015625 
L 19.390625 64.015625 
L 19.390625 0 
L 9.8125 0 
z
" id="BitstreamVeraSans-Roman-4d"/>
      <path d="M 39.40625 66.21875 
Q 28.65625 66.21875 22.328125 58.203125 
Q 16.015625 50.203125 16.015625 36.375 
Q 16.015625 22.609375 22.328125 14.59375 
Q 28.65625 6.59375 39.40625 6.59375 
Q 50.140625 6.59375 56.421875 14.59375 
Q 62.703125 22.609375 62.703125 36.375 
Q 62.703125 50.203125 56.421875 58.203125 
Q 50.140625 66.21875 39.40625 66.21875 
M 53.21875 1.3125 
L 66.21875 -12.890625 
L 54.296875 -12.890625 
L 43.5 -1.21875 
Q 41.890625 -1.3125 41.03125 -1.359375 
Q 40.1875 -1.421875 39.40625 -1.421875 
Q 24.03125 -1.421875 14.8125 8.859375 
Q 5.609375 19.140625 5.609375 36.375 
Q 5.609375 53.65625 14.8125 63.9375 
Q 24.03125 74.21875 39.40625 74.21875 
Q 54.734375 74.21875 63.90625 63.9375 
Q 73.09375 53.65625 73.09375 36.375 
Q 73.09375 23.6875 67.984375 14.640625 
Q 62.890625 5.609375 53.21875 1.3125 
" id="BitstreamVeraSans-Roman-51"/>
     </defs>
     <g transform="translate(431.75625 56.47875)scale(0.08 -0.08)">
      <use xlink:href="#BitstreamVeraSans-Roman-51"/>
      <use x="78.7109375" xlink:href="#BitstreamVeraSans-Roman-4d"/>
     </g>
    </g>
    <g id="line2d_44">
     <path d="M 411.75625 65.42125 
L 422.95625 65.42125 
" style="fill:none;stroke:#0000ff;stroke-linecap:square;"/>
    </g>
    <g id="line2d_45">
     <g>
      <use style="fill:#0000ff;stroke:#000000;stroke-width:0.5;" x="411.75625" xlink:href="#m0b48820da4" y="65.42125"/>
      <use style="fill:#0000ff;stroke:#000000;stroke-width:0.5;" x="422.95625" xlink:href="#m0b48820da4" y="65.42125"/>
     </g>
    </g>
    <g id="text_23">
     <!-- MM Original -->
     <defs>
      <path d="M 39.40625 66.21875 
Q 28.65625 66.21875 22.328125 58.203125 
Q 16.015625 50.203125 16.015625 36.375 
Q 16.015625 22.609375 22.328125 14.59375 
Q 28.65625 6.59375 39.40625 6.59375 
Q 50.140625 6.59375 56.421875 14.59375 
Q 62.703125 22.609375 62.703125 36.375 
Q 62.703125 50.203125 56.421875 58.203125 
Q 50.140625 66.21875 39.40625 66.21875 
M 39.40625 74.21875 
Q 54.734375 74.21875 63.90625 63.9375 
Q 73.09375 53.65625 73.09375 36.375 
Q 73.09375 19.140625 63.90625 8.859375 
Q 54.734375 -1.421875 39.40625 -1.421875 
Q 24.03125 -1.421875 14.8125 8.828125 
Q 5.609375 19.09375 5.609375 36.375 
Q 5.609375 53.65625 14.8125 63.9375 
Q 24.03125 74.21875 39.40625 74.21875 
" id="BitstreamVeraSans-Roman-4f"/>
      <path id="BitstreamVeraSans-Roman-20"/>
      <path d="M 45.40625 27.984375 
Q 45.40625 37.75 41.375 43.109375 
Q 37.359375 48.484375 30.078125 48.484375 
Q 22.859375 48.484375 18.828125 43.109375 
Q 14.796875 37.75 14.796875 27.984375 
Q 14.796875 18.265625 18.828125 12.890625 
Q 22.859375 7.515625 30.078125 7.515625 
Q 37.359375 7.515625 41.375 12.890625 
Q 45.40625 18.265625 45.40625 27.984375 
M 54.390625 6.78125 
Q 54.390625 -7.171875 48.1875 -13.984375 
Q 42 -20.796875 29.203125 -20.796875 
Q 24.46875 -20.796875 20.265625 -20.09375 
Q 16.0625 -19.390625 12.109375 -17.921875 
L 12.109375 -9.1875 
Q 16.0625 -11.328125 19.921875 -12.34375 
Q 23.78125 -13.375 27.78125 -13.375 
Q 36.625 -13.375 41.015625 -8.765625 
Q 45.40625 -4.15625 45.40625 5.171875 
L 45.40625 9.625 
Q 42.625 4.78125 38.28125 2.390625 
Q 33.9375 0 27.875 0 
Q 17.828125 0 11.671875 7.65625 
Q 5.515625 15.328125 5.515625 27.984375 
Q 5.515625 40.671875 11.671875 48.328125 
Q 17.828125 56 27.875 56 
Q 33.9375 56 38.28125 53.609375 
Q 42.625 51.21875 45.40625 46.390625 
L 45.40625 54.6875 
L 54.390625 54.6875 
z
" id="BitstreamVeraSans-Roman-67"/>
      <path d="M 54.890625 33.015625 
L 54.890625 0 
L 45.90625 0 
L 45.90625 32.71875 
Q 45.90625 40.484375 42.875 44.328125 
Q 39.84375 48.1875 33.796875 48.1875 
Q 26.515625 48.1875 22.3125 43.546875 
Q 18.109375 38.921875 18.109375 30.90625 
L 18.109375 0 
L 9.078125 0 
L 9.078125 54.6875 
L 18.109375 54.6875 
L 18.109375 46.1875 
Q 21.34375 51.125 25.703125 53.5625 
Q 30.078125 56 35.796875 56 
Q 45.21875 56 50.046875 50.171875 
Q 54.890625 44.34375 54.890625 33.015625 
" id="BitstreamVeraSans-Roman-6e"/>
      <path d="M 41.109375 46.296875 
Q 39.59375 47.171875 37.8125 47.578125 
Q 36.03125 48 33.890625 48 
Q 26.265625 48 22.1875 43.046875 
Q 18.109375 38.09375 18.109375 28.8125 
L 18.109375 0 
L 9.078125 0 
L 9.078125 54.6875 
L 18.109375 54.6875 
L 18.109375 46.1875 
Q 20.953125 51.171875 25.484375 53.578125 
Q 30.03125 56 36.53125 56 
Q 37.453125 56 38.578125 55.875 
Q 39.703125 55.765625 41.0625 55.515625 
z
" id="BitstreamVeraSans-Roman-72"/>
     </defs>
     <g transform="translate(431.75625 68.22125)scale(0.08 -0.08)">
      <use xlink:href="#BitstreamVeraSans-Roman-4d"/>
      <use x="86.279296875" xlink:href="#BitstreamVeraSans-Roman-4d"/>
      <use x="172.55859375" xlink:href="#BitstreamVeraSans-Roman-20"/>
      <use x="204.345703125" xlink:href="#BitstreamVeraSans-Roman-4f"/>
      <use x="283.056640625" xlink:href="#BitstreamVeraSans-Roman-72"/>
      <use x="324.169921875" xlink:href="#BitstreamVeraSans-Roman-69"/>
      <use x="351.953125" xlink:href="#BitstreamVeraSans-Roman-67"/>
      <use x="415.4296875" xlink:href="#BitstreamVeraSans-Roman-69"/>
      <use x="443.212890625" xlink:href="#BitstreamVeraSans-Roman-6e"/>
      <use x="506.591796875" xlink:href="#BitstreamVeraSans-Roman-61"/>
      <use x="567.87109375" xlink:href="#BitstreamVeraSans-Roman-6c"/>
     </g>
    </g>
    <g id="line2d_46">
     <path d="M 411.75625 77.16375 
L 422.95625 77.16375 
" style="fill:none;stroke:#000000;stroke-linecap:square;"/>
    </g>
    <g id="line2d_47">
     <g>
      <use style="stroke:#000000;stroke-width:0.5;" x="411.75625" xlink:href="#m1a21e16a90" y="77.16375"/>
      <use style="stroke:#000000;stroke-width:0.5;" x="422.95625" xlink:href="#m1a21e16a90" y="77.16375"/>
     </g>
    </g>
    <g id="text_24">
     <!-- MM With phi zeroed -->
     <defs>
      <path d="M 5.515625 54.6875 
L 48.1875 54.6875 
L 48.1875 46.484375 
L 14.40625 7.171875 
L 48.1875 7.171875 
L 48.1875 0 
L 4.296875 0 
L 4.296875 8.203125 
L 38.09375 47.515625 
L 5.515625 47.515625 
z
" id="BitstreamVeraSans-Roman-7a"/>
      <path d="M 3.328125 72.90625 
L 13.28125 72.90625 
L 28.609375 11.28125 
L 43.890625 72.90625 
L 54.984375 72.90625 
L 70.3125 11.28125 
L 85.59375 72.90625 
L 95.609375 72.90625 
L 77.296875 0 
L 64.890625 0 
L 49.515625 63.28125 
L 33.984375 0 
L 21.578125 0 
z
" id="BitstreamVeraSans-Roman-57"/>
      <path d="M 56.203125 29.59375 
L 56.203125 25.203125 
L 14.890625 25.203125 
Q 15.484375 15.921875 20.484375 11.0625 
Q 25.484375 6.203125 34.421875 6.203125 
Q 39.59375 6.203125 44.453125 7.46875 
Q 49.3125 8.734375 54.109375 11.28125 
L 54.109375 2.78125 
Q 49.265625 0.734375 44.1875 -0.34375 
Q 39.109375 -1.421875 33.890625 -1.421875 
Q 20.796875 -1.421875 13.15625 6.1875 
Q 5.515625 13.8125 5.515625 26.8125 
Q 5.515625 40.234375 12.765625 48.109375 
Q 20.015625 56 32.328125 56 
Q 43.359375 56 49.78125 48.890625 
Q 56.203125 41.796875 56.203125 29.59375 
M 47.21875 32.234375 
Q 47.125 39.59375 43.09375 43.984375 
Q 39.0625 48.390625 32.421875 48.390625 
Q 24.90625 48.390625 20.390625 44.140625 
Q 15.875 39.890625 15.1875 32.171875 
z
" id="BitstreamVeraSans-Roman-65"/>
      <path d="M 18.3125 70.21875 
L 18.3125 54.6875 
L 36.8125 54.6875 
L 36.8125 47.703125 
L 18.3125 47.703125 
L 18.3125 18.015625 
Q 18.3125 11.328125 20.140625 9.421875 
Q 21.96875 7.515625 27.59375 7.515625 
L 36.8125 7.515625 
L 36.8125 0 
L 27.59375 0 
Q 17.1875 0 13.234375 3.875 
Q 9.28125 7.765625 9.28125 18.015625 
L 9.28125 47.703125 
L 2.6875 47.703125 
L 2.6875 54.6875 
L 9.28125 54.6875 
L 9.28125 70.21875 
z
" id="BitstreamVeraSans-Roman-74"/>
      <path d="M 45.40625 46.390625 
L 45.40625 75.984375 
L 54.390625 75.984375 
L 54.390625 0 
L 45.40625 0 
L 45.40625 8.203125 
Q 42.578125 3.328125 38.25 0.953125 
Q 33.9375 -1.421875 27.875 -1.421875 
Q 17.96875 -1.421875 11.734375 6.484375 
Q 5.515625 14.40625 5.515625 27.296875 
Q 5.515625 40.1875 11.734375 48.09375 
Q 17.96875 56 27.875 56 
Q 33.9375 56 38.25 53.625 
Q 42.578125 51.265625 45.40625 46.390625 
M 14.796875 27.296875 
Q 14.796875 17.390625 18.875 11.75 
Q 22.953125 6.109375 30.078125 6.109375 
Q 37.203125 6.109375 41.296875 11.75 
Q 45.40625 17.390625 45.40625 27.296875 
Q 45.40625 37.203125 41.296875 42.84375 
Q 37.203125 48.484375 30.078125 48.484375 
Q 22.953125 48.484375 18.875 42.84375 
Q 14.796875 37.203125 14.796875 27.296875 
" id="BitstreamVeraSans-Roman-64"/>
      <path d="M 18.109375 8.203125 
L 18.109375 -20.796875 
L 9.078125 -20.796875 
L 9.078125 54.6875 
L 18.109375 54.6875 
L 18.109375 46.390625 
Q 20.953125 51.265625 25.265625 53.625 
Q 29.59375 56 35.59375 56 
Q 45.5625 56 51.78125 48.09375 
Q 58.015625 40.1875 58.015625 27.296875 
Q 58.015625 14.40625 51.78125 6.484375 
Q 45.5625 -1.421875 35.59375 -1.421875 
Q 29.59375 -1.421875 25.265625 0.953125 
Q 20.953125 3.328125 18.109375 8.203125 
M 48.6875 27.296875 
Q 48.6875 37.203125 44.609375 42.84375 
Q 40.53125 48.484375 33.40625 48.484375 
Q 26.265625 48.484375 22.1875 42.84375 
Q 18.109375 37.203125 18.109375 27.296875 
Q 18.109375 17.390625 22.1875 11.75 
Q 26.265625 6.109375 33.40625 6.109375 
Q 40.53125 6.109375 44.609375 11.75 
Q 48.6875 17.390625 48.6875 27.296875 
" id="BitstreamVeraSans-Roman-70"/>
     </defs>
     <g transform="translate(431.75625 79.96375)scale(0.08 -0.08)">
      <use xlink:href="#BitstreamVeraSans-Roman-4d"/>
      <use x="86.279296875" xlink:href="#BitstreamVeraSans-Roman-4d"/>
      <use x="172.55859375" xlink:href="#BitstreamVeraSans-Roman-20"/>
      <use x="204.345703125" xlink:href="#BitstreamVeraSans-Roman-57"/>
      <use x="303.19140625" xlink:href="#BitstreamVeraSans-Roman-69"/>
      <use x="330.974609375" xlink:href="#BitstreamVeraSans-Roman-74"/>
      <use x="370.18359375" xlink:href="#BitstreamVeraSans-Roman-68"/>
      <use x="433.5625" xlink:href="#BitstreamVeraSans-Roman-20"/>
      <use x="465.349609375" xlink:href="#BitstreamVeraSans-Roman-70"/>
      <use x="528.826171875" xlink:href="#BitstreamVeraSans-Roman-68"/>
      <use x="592.205078125" xlink:href="#BitstreamVeraSans-Roman-69"/>
      <use x="619.98828125" xlink:href="#BitstreamVeraSans-Roman-20"/>
      <use x="651.775390625" xlink:href="#BitstreamVeraSans-Roman-7a"/>
      <use x="704.265625" xlink:href="#BitstreamVeraSans-Roman-65"/>
      <use x="765.7890625" xlink:href="#BitstreamVeraSans-Roman-72"/>
      <use x="806.87109375" xlink:href="#BitstreamVeraSans-Roman-6f"/>
      <use x="868.052734375" xlink:href="#BitstreamVeraSans-Roman-65"/>
      <use x="929.576171875" xlink:href="#BitstreamVeraSans-Roman-64"/>
     </g>
    </g>
    <g id="line2d_48">
     <path d="M 411.75625 88.90625 
L 422.95625 88.90625 
" style="fill:none;stroke:#ff00ff;stroke-linecap:square;"/>
    </g>
    <g id="line2d_49">
     <g>
      <use style="fill:#ff00ff;stroke:#ff00ff;stroke-width:0.5;" x="411.75625" xlink:href="#m5901c56422" y="88.90625"/>
      <use style="fill:#ff00ff;stroke:#ff00ff;stroke-width:0.5;" x="422.95625" xlink:href="#m5901c56422" y="88.90625"/>
     </g>
    </g>
    <g id="text_25">
     <!-- QM-MM target -->
     <g transform="translate(431.75625 91.70625)scale(0.08 -0.08)">
      <use xlink:href="#BitstreamVeraSans-Roman-51"/>
      <use x="78.7109375" xlink:href="#BitstreamVeraSans-Roman-4d"/>
      <use x="164.990234375" xlink:href="#BitstreamVeraSans-Roman-2d"/>
      <use x="201.07421875" xlink:href="#BitstreamVeraSans-Roman-4d"/>
      <use x="287.353515625" xlink:href="#BitstreamVeraSans-Roman-4d"/>
      <use x="373.6328125" xlink:href="#BitstreamVeraSans-Roman-20"/>
      <use x="405.419921875" xlink:href="#BitstreamVeraSans-Roman-74"/>
      <use x="444.62890625" xlink:href="#BitstreamVeraSans-Roman-61"/>
      <use x="505.908203125" xlink:href="#BitstreamVeraSans-Roman-72"/>
      <use x="547.005859375" xlink:href="#BitstreamVeraSans-Roman-67"/>
      <use x="610.482421875" xlink:href="#BitstreamVeraSans-Roman-65"/>
      <use x="672.005859375" xlink:href="#BitstreamVeraSans-Roman-74"/>
     </g>
    </g>
    <g id="line2d_50">
     <path d="M 411.75625 100.64875 
L 422.95625 100.64875 
" style="fill:none;stroke:#008000;stroke-linecap:square;"/>
    </g>
    <g id="line2d_51">
     <g>
      <use style="fill:#008000;stroke:#000000;stroke-width:0.5;" x="411.75625" xlink:href="#ma69f443a2f" y="100.64875"/>
      <use style="fill:#008000;stroke:#000000;stroke-width:0.5;" x="422.95625" xlink:href="#ma69f443a2f" y="100.64875"/>
     </g>
    </g>
    <g id="text_26">
     <!-- MM Fitted -->
     <defs>
      <path d="M 9.8125 72.90625 
L 51.703125 72.90625 
L 51.703125 64.59375 
L 19.671875 64.59375 
L 19.671875 43.109375 
L 48.578125 43.109375 
L 48.578125 34.8125 
L 19.671875 34.8125 
L 19.671875 0 
L 9.8125 0 
z
" id="BitstreamVeraSans-Roman-46"/>
     </defs>
     <g transform="translate(431.75625 103.44875)scale(0.08 -0.08)">
      <use xlink:href="#BitstreamVeraSans-Roman-4d"/>
      <use x="86.279296875" xlink:href="#BitstreamVeraSans-Roman-4d"/>
      <use x="172.55859375" xlink:href="#BitstreamVeraSans-Roman-20"/>
      <use x="204.345703125" xlink:href="#BitstreamVeraSans-Roman-46"/>
      <use x="261.755859375" xlink:href="#BitstreamVeraSans-Roman-69"/>
      <use x="289.5390625" xlink:href="#BitstreamVeraSans-Roman-74"/>
      <use x="328.748046875" xlink:href="#BitstreamVeraSans-Roman-74"/>
      <use x="367.95703125" xlink:href="#BitstreamVeraSans-Roman-65"/>
      <use x="429.48046875" xlink:href="#BitstreamVeraSans-Roman-64"/>
     </g>
    </g>
   </g>
  </g>
 </g>
 <defs>
  <clipPath id="p145df5c1c4">
   <rect height="345.6" width="446.4" x="72.0" y="43.2"/>
  </clipPath>
 </defs>
</svg>
