<?xml version="1.0" encoding="utf-8" standalone="no"?>
<!DOCTYPE svg PUBLIC "-//W3C//DTD SVG 1.1//EN"
  "http://www.w3.org/Graphics/SVG/1.1/DTD/svg11.dtd">
<!-- Created with matplotlib (http://matplotlib.org/) -->
<svg height="432pt" version="1.1" viewBox="0 0 576 432" width="576pt" xmlns="http://www.w3.org/2000/svg" xmlns:xlink="http://www.w3.org/1999/xlink">
 <defs>
  <style type="text/css">
*{stroke-linecap:butt;stroke-linejoin:round;stroke-miterlimit:100000;}
  </style>
 </defs>
 <g id="figure_1">
  <g id="patch_1">
   <path d="M 0 432 
L 576 432 
L 576 0 
L 0 0 
z
" style="fill:#ffffff;"/>
  </g>
  <g id="axes_1">
   <g id="patch_2">
    <path d="M 72 388.8 
L 518.4 388.8 
L 518.4 43.2 
L 72 43.2 
z
" style="fill:#ffffff;"/>
   </g>
   <g id="line2d_1">
    <path clip-path="url(#p5c99841bd3)" d="M 72.000701 388.8 
L 84.39994 378.768924 
L 96.799986 350.424346 
L 109.199972 309.0599 
L 121.599946 264.49243 
L 133.999982 229.519665 
L 146.399973 215.768825 
L 158.800007 227.201962 
L 171.200001 256.837789 
L 183.599985 291.404757 
L 196.000035 319.85697 
L 208.400009 336.581773 
L 220.799999 337.355361 
L 233.200024 318.021358 
L 245.600014 277.234306 
L 258.000008 219.695839 
L 270.400029 155.72767 
L 282.800037 101.708715 
L 295.199297 79.112847 
L 307.600032 101.554018 
L 320.000023 155.554634 
L 332.400012 219.570796 
L 344.800022 277.218139 
L 357.200047 318.032115 
L 369.600026 337.458807 
L 382.000046 336.604181 
L 394.400037 319.857222 
L 406.800031 291.320238 
L 419.199968 256.72469 
L 431.599985 227.140106 
L 444.000012 215.815906 
L 456.399971 229.635792 
L 468.800012 264.537304 
L 481.19999 308.953908 
L 493.600001 350.203504 
L 505.999947 378.514647 
" style="fill:none;stroke:#ff0000;stroke-linecap:square;"/>
    <defs>
     <path d="M 0 3 
C 0.795609 3 1.55874 2.683901 2.12132 2.12132 
C 2.683901 1.55874 3 0.795609 3 0 
C 3 -0.795609 2.683901 -1.55874 2.12132 -2.12132 
C 1.55874 -2.683901 0.795609 -3 0 -3 
C -0.795609 -3 -1.55874 -2.683901 -2.12132 -2.12132 
C -2.683901 -1.55874 -3 -0.795609 -3 0 
C -3 0.795609 -2.683901 1.55874 -2.12132 2.12132 
C -1.55874 2.683901 -0.795609 3 0 3 
z
" id="m5efb89e24b" style="stroke:#000000;stroke-width:0.5;"/>
    </defs>
    <g clip-path="url(#p5c99841bd3)">
     <use style="fill:#ff0000;stroke:#000000;stroke-width:0.5;" x="72.0007011007" xlink:href="#m5efb89e24b" y="388.8"/>
     <use style="fill:#ff0000;stroke:#000000;stroke-width:0.5;" x="84.3999401647" xlink:href="#m5efb89e24b" y="378.768923523"/>
     <use style="fill:#ff0000;stroke:#000000;stroke-width:0.5;" x="96.7999858471" xlink:href="#m5efb89e24b" y="350.424346304"/>
     <use style="fill:#ff0000;stroke:#000000;stroke-width:0.5;" x="109.199971654" xlink:href="#m5efb89e24b" y="309.059899664"/>
     <use style="fill:#ff0000;stroke:#000000;stroke-width:0.5;" x="121.599946181" xlink:href="#m5efb89e24b" y="264.492430116"/>
     <use style="fill:#ff0000;stroke:#000000;stroke-width:0.5;" x="133.999981555" xlink:href="#m5efb89e24b" y="229.519665251"/>
     <use style="fill:#ff0000;stroke:#000000;stroke-width:0.5;" x="146.399972509" xlink:href="#m5efb89e24b" y="215.76882465"/>
     <use style="fill:#ff0000;stroke:#000000;stroke-width:0.5;" x="158.800006825" xlink:href="#m5efb89e24b" y="227.201962078"/>
     <use style="fill:#ff0000;stroke:#000000;stroke-width:0.5;" x="171.200001327" xlink:href="#m5efb89e24b" y="256.837788663"/>
     <use style="fill:#ff0000;stroke:#000000;stroke-width:0.5;" x="183.59998469" xlink:href="#m5efb89e24b" y="291.404757252"/>
     <use style="fill:#ff0000;stroke:#000000;stroke-width:0.5;" x="196.000034579" xlink:href="#m5efb89e24b" y="319.856969603"/>
     <use style="fill:#ff0000;stroke:#000000;stroke-width:0.5;" x="208.40000891" xlink:href="#m5efb89e24b" y="336.581773029"/>
     <use style="fill:#ff0000;stroke:#000000;stroke-width:0.5;" x="220.799998925" xlink:href="#m5efb89e24b" y="337.355360557"/>
     <use style="fill:#ff0000;stroke:#000000;stroke-width:0.5;" x="233.200024092" xlink:href="#m5efb89e24b" y="318.021358113"/>
     <use style="fill:#ff0000;stroke:#000000;stroke-width:0.5;" x="245.600013902" xlink:href="#m5efb89e24b" y="277.234306076"/>
     <use style="fill:#ff0000;stroke:#000000;stroke-width:0.5;" x="258.000007608" xlink:href="#m5efb89e24b" y="219.695838657"/>
     <use style="fill:#ff0000;stroke:#000000;stroke-width:0.5;" x="270.400029274" xlink:href="#m5efb89e24b" y="155.727669878"/>
     <use style="fill:#ff0000;stroke:#000000;stroke-width:0.5;" x="282.800036521" xlink:href="#m5efb89e24b" y="101.708714602"/>
     <use style="fill:#ff0000;stroke:#000000;stroke-width:0.5;" x="295.199297081" xlink:href="#m5efb89e24b" y="79.1128474332"/>
     <use style="fill:#ff0000;stroke:#000000;stroke-width:0.5;" x="307.600032241" xlink:href="#m5efb89e24b" y="101.554017919"/>
     <use style="fill:#ff0000;stroke:#000000;stroke-width:0.5;" x="320.000023242" xlink:href="#m5efb89e24b" y="155.554634053"/>
     <use style="fill:#ff0000;stroke:#000000;stroke-width:0.5;" x="332.400011883" xlink:href="#m5efb89e24b" y="219.570796448"/>
     <use style="fill:#ff0000;stroke:#000000;stroke-width:0.5;" x="344.80002189" xlink:href="#m5efb89e24b" y="277.218139321"/>
     <use style="fill:#ff0000;stroke:#000000;stroke-width:0.5;" x="357.200047495" xlink:href="#m5efb89e24b" y="318.032114601"/>
     <use style="fill:#ff0000;stroke:#000000;stroke-width:0.5;" x="369.60002552" xlink:href="#m5efb89e24b" y="337.458807445"/>
     <use style="fill:#ff0000;stroke:#000000;stroke-width:0.5;" x="382.000045854" xlink:href="#m5efb89e24b" y="336.604180706"/>
     <use style="fill:#ff0000;stroke:#000000;stroke-width:0.5;" x="394.400036978" xlink:href="#m5efb89e24b" y="319.857221864"/>
     <use style="fill:#ff0000;stroke:#000000;stroke-width:0.5;" x="406.800031371" xlink:href="#m5efb89e24b" y="291.320237848"/>
     <use style="fill:#ff0000;stroke:#000000;stroke-width:0.5;" x="419.199967732" xlink:href="#m5efb89e24b" y="256.724690469"/>
     <use style="fill:#ff0000;stroke:#000000;stroke-width:0.5;" x="431.599984977" xlink:href="#m5efb89e24b" y="227.140105656"/>
     <use style="fill:#ff0000;stroke:#000000;stroke-width:0.5;" x="444.000011696" xlink:href="#m5efb89e24b" y="215.815905677"/>
     <use style="fill:#ff0000;stroke:#000000;stroke-width:0.5;" x="456.399971048" xlink:href="#m5efb89e24b" y="229.63579229"/>
     <use style="fill:#ff0000;stroke:#000000;stroke-width:0.5;" x="468.800012144" xlink:href="#m5efb89e24b" y="264.537304158"/>
     <use style="fill:#ff0000;stroke:#000000;stroke-width:0.5;" x="481.199990275" xlink:href="#m5efb89e24b" y="308.953908297"/>
     <use style="fill:#ff0000;stroke:#000000;stroke-width:0.5;" x="493.600001109" xlink:href="#m5efb89e24b" y="350.203504148"/>
     <use style="fill:#ff0000;stroke:#000000;stroke-width:0.5;" x="505.999947236" xlink:href="#m5efb89e24b" y="378.514646766"/>
    </g>
   </g>
   <g id="line2d_2">
    <path clip-path="url(#p5c99841bd3)" d="M 72.000701 388.8 
L 84.39994 378.208237 
L 96.799986 349.20587 
L 109.199972 306.323654 
L 121.599946 259.443812 
L 133.999982 221.079945 
L 146.399973 204.946738 
L 158.800007 217.896911 
L 171.200001 252.897239 
L 183.599985 295.702824 
L 196.000035 330.988877 
L 208.400009 351.261813 
L 220.799999 353.990122 
L 233.200024 338.058856 
L 245.600014 304.265345 
L 258.000008 256.187015 
L 270.400029 202.590783 
L 282.800037 156.224123 
L 295.199297 137.129337 
L 307.600032 155.649972 
L 320.000023 200.515502 
L 332.400012 254.25524 
L 344.800022 302.512679 
L 357.200047 337.098331 
L 369.600026 353.461856 
L 382.000046 351.503269 
L 394.400037 331.785454 
L 406.800031 296.592263 
L 419.199968 254.245357 
L 431.599985 218.581629 
L 444.000012 204.768686 
L 456.399971 219.919355 
L 468.800012 257.440261 
L 481.19999 304.64695 
L 493.600001 347.761619 
L 505.999947 377.353612 
" style="fill:none;stroke:#0000ff;stroke-linecap:square;"/>
    <defs>
     <path d="M 0 3 
C 0.795609 3 1.55874 2.683901 2.12132 2.12132 
C 2.683901 1.55874 3 0.795609 3 0 
C 3 -0.795609 2.683901 -1.55874 2.12132 -2.12132 
C 1.55874 -2.683901 0.795609 -3 0 -3 
C -0.795609 -3 -1.55874 -2.683901 -2.12132 -2.12132 
C -2.683901 -1.55874 -3 -0.795609 -3 0 
C -3 0.795609 -2.683901 1.55874 -2.12132 2.12132 
C -1.55874 2.683901 -0.795609 3 0 3 
z
" id="m8d5d50d3ee" style="stroke:#000000;stroke-width:0.5;"/>
    </defs>
    <g clip-path="url(#p5c99841bd3)">
     <use style="fill:#0000ff;stroke:#000000;stroke-width:0.5;" x="72.0007011007" xlink:href="#m8d5d50d3ee" y="388.8"/>
     <use style="fill:#0000ff;stroke:#000000;stroke-width:0.5;" x="84.3999401647" xlink:href="#m8d5d50d3ee" y="378.208236619"/>
     <use style="fill:#0000ff;stroke:#000000;stroke-width:0.5;" x="96.7999858471" xlink:href="#m8d5d50d3ee" y="349.205870268"/>
     <use style="fill:#0000ff;stroke:#000000;stroke-width:0.5;" x="109.199971654" xlink:href="#m8d5d50d3ee" y="306.323654005"/>
     <use style="fill:#0000ff;stroke:#000000;stroke-width:0.5;" x="121.599946181" xlink:href="#m8d5d50d3ee" y="259.443812213"/>
     <use style="fill:#0000ff;stroke:#000000;stroke-width:0.5;" x="133.999981555" xlink:href="#m8d5d50d3ee" y="221.07994474"/>
     <use style="fill:#0000ff;stroke:#000000;stroke-width:0.5;" x="146.399972509" xlink:href="#m8d5d50d3ee" y="204.946738193"/>
     <use style="fill:#0000ff;stroke:#000000;stroke-width:0.5;" x="158.800006825" xlink:href="#m8d5d50d3ee" y="217.896910899"/>
     <use style="fill:#0000ff;stroke:#000000;stroke-width:0.5;" x="171.200001327" xlink:href="#m8d5d50d3ee" y="252.897239153"/>
     <use style="fill:#0000ff;stroke:#000000;stroke-width:0.5;" x="183.59998469" xlink:href="#m8d5d50d3ee" y="295.702823769"/>
     <use style="fill:#0000ff;stroke:#000000;stroke-width:0.5;" x="196.000034579" xlink:href="#m8d5d50d3ee" y="330.988877485"/>
     <use style="fill:#0000ff;stroke:#000000;stroke-width:0.5;" x="208.40000891" xlink:href="#m8d5d50d3ee" y="351.261813318"/>
     <use style="fill:#0000ff;stroke:#000000;stroke-width:0.5;" x="220.799998925" xlink:href="#m8d5d50d3ee" y="353.990122323"/>
     <use style="fill:#0000ff;stroke:#000000;stroke-width:0.5;" x="233.200024092" xlink:href="#m8d5d50d3ee" y="338.058855834"/>
     <use style="fill:#0000ff;stroke:#000000;stroke-width:0.5;" x="245.600013902" xlink:href="#m8d5d50d3ee" y="304.265345341"/>
     <use style="fill:#0000ff;stroke:#000000;stroke-width:0.5;" x="258.000007608" xlink:href="#m8d5d50d3ee" y="256.187014841"/>
     <use style="fill:#0000ff;stroke:#000000;stroke-width:0.5;" x="270.400029274" xlink:href="#m8d5d50d3ee" y="202.590782616"/>
     <use style="fill:#0000ff;stroke:#000000;stroke-width:0.5;" x="282.800036521" xlink:href="#m8d5d50d3ee" y="156.224123054"/>
     <use style="fill:#0000ff;stroke:#000000;stroke-width:0.5;" x="295.199297081" xlink:href="#m8d5d50d3ee" y="137.129336616"/>
     <use style="fill:#0000ff;stroke:#000000;stroke-width:0.5;" x="307.600032241" xlink:href="#m8d5d50d3ee" y="155.649972243"/>
     <use style="fill:#0000ff;stroke:#000000;stroke-width:0.5;" x="320.000023242" xlink:href="#m8d5d50d3ee" y="200.515501596"/>
     <use style="fill:#0000ff;stroke:#000000;stroke-width:0.5;" x="332.400011883" xlink:href="#m8d5d50d3ee" y="254.25523977"/>
     <use style="fill:#0000ff;stroke:#000000;stroke-width:0.5;" x="344.80002189" xlink:href="#m8d5d50d3ee" y="302.512678798"/>
     <use style="fill:#0000ff;stroke:#000000;stroke-width:0.5;" x="357.200047495" xlink:href="#m8d5d50d3ee" y="337.098331462"/>
     <use style="fill:#0000ff;stroke:#000000;stroke-width:0.5;" x="369.60002552" xlink:href="#m8d5d50d3ee" y="353.461856226"/>
     <use style="fill:#0000ff;stroke:#000000;stroke-width:0.5;" x="382.000045854" xlink:href="#m8d5d50d3ee" y="351.50326886"/>
     <use style="fill:#0000ff;stroke:#000000;stroke-width:0.5;" x="394.400036978" xlink:href="#m8d5d50d3ee" y="331.785453708"/>
     <use style="fill:#0000ff;stroke:#000000;stroke-width:0.5;" x="406.800031371" xlink:href="#m8d5d50d3ee" y="296.592263344"/>
     <use style="fill:#0000ff;stroke:#000000;stroke-width:0.5;" x="419.199967732" xlink:href="#m8d5d50d3ee" y="254.245357206"/>
     <use style="fill:#0000ff;stroke:#000000;stroke-width:0.5;" x="431.599984977" xlink:href="#m8d5d50d3ee" y="218.581629043"/>
     <use style="fill:#0000ff;stroke:#000000;stroke-width:0.5;" x="444.000011696" xlink:href="#m8d5d50d3ee" y="204.768685537"/>
     <use style="fill:#0000ff;stroke:#000000;stroke-width:0.5;" x="456.399971048" xlink:href="#m8d5d50d3ee" y="219.919354846"/>
     <use style="fill:#0000ff;stroke:#000000;stroke-width:0.5;" x="468.800012144" xlink:href="#m8d5d50d3ee" y="257.440260735"/>
     <use style="fill:#0000ff;stroke:#000000;stroke-width:0.5;" x="481.199990275" xlink:href="#m8d5d50d3ee" y="304.646950335"/>
     <use style="fill:#0000ff;stroke:#000000;stroke-width:0.5;" x="493.600001109" xlink:href="#m8d5d50d3ee" y="347.761618925"/>
     <use style="fill:#0000ff;stroke:#000000;stroke-width:0.5;" x="505.999947236" xlink:href="#m8d5d50d3ee" y="377.353611615"/>
    </g>
   </g>
   <g id="line2d_3">
    <path clip-path="url(#p5c99841bd3)" d="M 72.000701 388.8 
L 84.39994 381.51916 
L 96.799986 362.037204 
L 109.199972 332.965584 
L 121.599946 301.164801 
L 133.999982 274.914672 
L 146.399973 263.500035 
L 158.800007 271.855077 
L 171.200001 295.090765 
L 183.599985 323.101566 
L 196.000035 344.534892 
L 208.400009 355.003802 
L 220.799999 354.105711 
L 233.200024 341.285673 
L 245.600014 316.649932 
L 258.000008 281.889432 
L 270.400029 243.175365 
L 282.800037 209.291724 
L 295.199297 195.400078 
L 307.600032 208.758628 
L 320.000023 241.154136 
L 332.400012 280.036835 
L 344.800022 314.907223 
L 357.200047 340.354609 
L 369.600026 353.57443 
L 382.000046 355.211962 
L 394.400037 345.28529 
L 406.800031 323.987697 
L 419.199968 296.411919 
L 431.599985 272.541186 
L 444.000012 263.3234 
L 456.399971 273.78222 
L 468.800012 299.286538 
L 481.19999 331.423347 
L 493.600001 360.741593 
L 505.999947 380.789025 
" style="fill:none;stroke:#000000;stroke-linecap:square;"/>
    <defs>
     <path d="M -3 3 
L 3 -3 
M -3 -3 
L 3 3 
" id="me999425525" style="stroke:#000000;stroke-width:0.5;"/>
    </defs>
    <g clip-path="url(#p5c99841bd3)">
     <use style="stroke:#000000;stroke-width:0.5;" x="72.0007011007" xlink:href="#me999425525" y="388.8"/>
     <use style="stroke:#000000;stroke-width:0.5;" x="84.3999401647" xlink:href="#me999425525" y="381.519160394"/>
     <use style="stroke:#000000;stroke-width:0.5;" x="96.7999858471" xlink:href="#me999425525" y="362.037203708"/>
     <use style="stroke:#000000;stroke-width:0.5;" x="109.199971654" xlink:href="#me999425525" y="332.965584"/>
     <use style="stroke:#000000;stroke-width:0.5;" x="121.599946181" xlink:href="#me999425525" y="301.164800666"/>
     <use style="stroke:#000000;stroke-width:0.5;" x="133.999981555" xlink:href="#me999425525" y="274.914672252"/>
     <use style="stroke:#000000;stroke-width:0.5;" x="146.399972509" xlink:href="#me999425525" y="263.500034884"/>
     <use style="stroke:#000000;stroke-width:0.5;" x="158.800006825" xlink:href="#me999425525" y="271.855076505"/>
     <use style="stroke:#000000;stroke-width:0.5;" x="171.200001327" xlink:href="#me999425525" y="295.090765338"/>
     <use style="stroke:#000000;stroke-width:0.5;" x="183.59998469" xlink:href="#me999425525" y="323.101566366"/>
     <use style="stroke:#000000;stroke-width:0.5;" x="196.000034579" xlink:href="#me999425525" y="344.534891727"/>
     <use style="stroke:#000000;stroke-width:0.5;" x="208.40000891" xlink:href="#me999425525" y="355.003801803"/>
     <use style="stroke:#000000;stroke-width:0.5;" x="220.799998925" xlink:href="#me999425525" y="354.105711242"/>
     <use style="stroke:#000000;stroke-width:0.5;" x="233.200024092" xlink:href="#me999425525" y="341.285672836"/>
     <use style="stroke:#000000;stroke-width:0.5;" x="245.600013902" xlink:href="#me999425525" y="316.649931819"/>
     <use style="stroke:#000000;stroke-width:0.5;" x="258.000007608" xlink:href="#me999425525" y="281.889431639"/>
     <use style="stroke:#000000;stroke-width:0.5;" x="270.400029274" xlink:href="#me999425525" y="243.175364685"/>
     <use style="stroke:#000000;stroke-width:0.5;" x="282.800036521" xlink:href="#me999425525" y="209.291723678"/>
     <use style="stroke:#000000;stroke-width:0.5;" x="295.199297081" xlink:href="#me999425525" y="195.400078193"/>
     <use style="stroke:#000000;stroke-width:0.5;" x="307.600032241" xlink:href="#me999425525" y="208.758628194"/>
     <use style="stroke:#000000;stroke-width:0.5;" x="320.000023242" xlink:href="#me999425525" y="241.154136188"/>
     <use style="stroke:#000000;stroke-width:0.5;" x="332.400011883" xlink:href="#me999425525" y="280.036835122"/>
     <use style="stroke:#000000;stroke-width:0.5;" x="344.80002189" xlink:href="#me999425525" y="314.907222913"/>
     <use style="stroke:#000000;stroke-width:0.5;" x="357.200047495" xlink:href="#me999425525" y="340.35460884"/>
     <use style="stroke:#000000;stroke-width:0.5;" x="369.60002552" xlink:href="#me999425525" y="353.574429508"/>
     <use style="stroke:#000000;stroke-width:0.5;" x="382.000045854" xlink:href="#me999425525" y="355.21196193"/>
     <use style="stroke:#000000;stroke-width:0.5;" x="394.400036978" xlink:href="#me999425525" y="345.285290348"/>
     <use style="stroke:#000000;stroke-width:0.5;" x="406.800031371" xlink:href="#me999425525" y="323.987696816"/>
     <use style="stroke:#000000;stroke-width:0.5;" x="419.199967732" xlink:href="#me999425525" y="296.411918763"/>
     <use style="stroke:#000000;stroke-width:0.5;" x="431.599984977" xlink:href="#me999425525" y="272.541186058"/>
     <use style="stroke:#000000;stroke-width:0.5;" x="444.000011696" xlink:href="#me999425525" y="263.323399819"/>
     <use style="stroke:#000000;stroke-width:0.5;" x="456.399971048" xlink:href="#me999425525" y="273.782219831"/>
     <use style="stroke:#000000;stroke-width:0.5;" x="468.800012144" xlink:href="#me999425525" y="299.286538407"/>
     <use style="stroke:#000000;stroke-width:0.5;" x="481.199990275" xlink:href="#me999425525" y="331.42334654"/>
     <use style="stroke:#000000;stroke-width:0.5;" x="493.600001109" xlink:href="#me999425525" y="360.74159317"/>
     <use style="stroke:#000000;stroke-width:0.5;" x="505.999947236" xlink:href="#me999425525" y="380.789025029"/>
    </g>
   </g>
   <g id="line2d_4">
    <path clip-path="url(#p5c99841bd3)" d="M 72.000701 388.8 
L 84.39994 386.049763 
L 96.799986 377.187143 
L 109.199972 364.894316 
L 121.599946 352.127629 
L 133.999982 343.404993 
L 146.399973 341.06879 
L 158.800007 344.146886 
L 171.200001 350.547023 
L 183.599985 357.103191 
L 196.000035 364.122078 
L 208.400009 370.377971 
L 220.799999 372.049649 
L 233.200024 365.535685 
L 245.600014 349.384374 
L 258.000008 326.606407 
L 270.400029 301.352305 
L 282.800037 281.216991 
L 295.199297 272.512769 
L 307.600032 281.59539 
L 320.000023 303.200498 
L 332.400012 328.333961 
L 344.800022 351.110916 
L 357.200047 366.477506 
L 369.600026 372.684378 
L 382.000046 370.192219 
L 394.400037 363.371932 
L 406.800031 356.132541 
L 419.199968 349.112772 
L 431.599985 343.39892 
L 444.000012 341.292506 
L 456.399971 344.653572 
L 468.800012 354.050766 
L 481.19999 366.330562 
L 493.600001 378.261911 
L 505.999947 386.525622 
" style="fill:none;stroke:#ff00ff;stroke-linecap:square;"/>
    <defs>
     <path d="M -3 3 
L 3 -3 
M -3 -3 
L 3 3 
" id="m73ffdce801" style="stroke:#ff00ff;stroke-width:0.5;"/>
    </defs>
    <g clip-path="url(#p5c99841bd3)">
     <use style="fill:#ff00ff;stroke:#ff00ff;stroke-width:0.5;" x="72.0007011007" xlink:href="#m73ffdce801" y="388.8"/>
     <use style="fill:#ff00ff;stroke:#ff00ff;stroke-width:0.5;" x="84.3999401647" xlink:href="#m73ffdce801" y="386.049763129"/>
     <use style="fill:#ff00ff;stroke:#ff00ff;stroke-width:0.5;" x="96.7999858471" xlink:href="#m73ffdce801" y="377.187142596"/>
     <use style="fill:#ff00ff;stroke:#ff00ff;stroke-width:0.5;" x="109.199971654" xlink:href="#m73ffdce801" y="364.894315663"/>
     <use style="fill:#ff00ff;stroke:#ff00ff;stroke-width:0.5;" x="121.599946181" xlink:href="#m73ffdce801" y="352.12762945"/>
     <use style="fill:#ff00ff;stroke:#ff00ff;stroke-width:0.5;" x="133.999981555" xlink:href="#m73ffdce801" y="343.404992999"/>
     <use style="fill:#ff00ff;stroke:#ff00ff;stroke-width:0.5;" x="146.399972509" xlink:href="#m73ffdce801" y="341.068789766"/>
     <use style="fill:#ff00ff;stroke:#ff00ff;stroke-width:0.5;" x="158.800006825" xlink:href="#m73ffdce801" y="344.146885573"/>
     <use style="fill:#ff00ff;stroke:#ff00ff;stroke-width:0.5;" x="171.200001327" xlink:href="#m73ffdce801" y="350.547023324"/>
     <use style="fill:#ff00ff;stroke:#ff00ff;stroke-width:0.5;" x="183.59998469" xlink:href="#m73ffdce801" y="357.103190886"/>
     <use style="fill:#ff00ff;stroke:#ff00ff;stroke-width:0.5;" x="196.000034579" xlink:href="#m73ffdce801" y="364.122077876"/>
     <use style="fill:#ff00ff;stroke:#ff00ff;stroke-width:0.5;" x="208.40000891" xlink:href="#m73ffdce801" y="370.377971227"/>
     <use style="fill:#ff00ff;stroke:#ff00ff;stroke-width:0.5;" x="220.799998925" xlink:href="#m73ffdce801" y="372.049649315"/>
     <use style="fill:#ff00ff;stroke:#ff00ff;stroke-width:0.5;" x="233.200024092" xlink:href="#m73ffdce801" y="365.535685277"/>
     <use style="fill:#ff00ff;stroke:#ff00ff;stroke-width:0.5;" x="245.600013902" xlink:href="#m73ffdce801" y="349.384374257"/>
     <use style="fill:#ff00ff;stroke:#ff00ff;stroke-width:0.5;" x="258.000007608" xlink:href="#m73ffdce801" y="326.606407018"/>
     <use style="fill:#ff00ff;stroke:#ff00ff;stroke-width:0.5;" x="270.400029274" xlink:href="#m73ffdce801" y="301.352305193"/>
     <use style="fill:#ff00ff;stroke:#ff00ff;stroke-width:0.5;" x="282.800036521" xlink:href="#m73ffdce801" y="281.216990925"/>
     <use style="fill:#ff00ff;stroke:#ff00ff;stroke-width:0.5;" x="295.199297081" xlink:href="#m73ffdce801" y="272.51276924"/>
     <use style="fill:#ff00ff;stroke:#ff00ff;stroke-width:0.5;" x="307.600032241" xlink:href="#m73ffdce801" y="281.595389724"/>
     <use style="fill:#ff00ff;stroke:#ff00ff;stroke-width:0.5;" x="320.000023242" xlink:href="#m73ffdce801" y="303.200497865"/>
     <use style="fill:#ff00ff;stroke:#ff00ff;stroke-width:0.5;" x="332.400011883" xlink:href="#m73ffdce801" y="328.333961326"/>
     <use style="fill:#ff00ff;stroke:#ff00ff;stroke-width:0.5;" x="344.80002189" xlink:href="#m73ffdce801" y="351.110916408"/>
     <use style="fill:#ff00ff;stroke:#ff00ff;stroke-width:0.5;" x="357.200047495" xlink:href="#m73ffdce801" y="366.477505762"/>
     <use style="fill:#ff00ff;stroke:#ff00ff;stroke-width:0.5;" x="369.60002552" xlink:href="#m73ffdce801" y="372.684377937"/>
     <use style="fill:#ff00ff;stroke:#ff00ff;stroke-width:0.5;" x="382.000045854" xlink:href="#m73ffdce801" y="370.192218776"/>
     <use style="fill:#ff00ff;stroke:#ff00ff;stroke-width:0.5;" x="394.400036978" xlink:href="#m73ffdce801" y="363.371931516"/>
     <use style="fill:#ff00ff;stroke:#ff00ff;stroke-width:0.5;" x="406.800031371" xlink:href="#m73ffdce801" y="356.132541032"/>
     <use style="fill:#ff00ff;stroke:#ff00ff;stroke-width:0.5;" x="419.199967732" xlink:href="#m73ffdce801" y="349.112771706"/>
     <use style="fill:#ff00ff;stroke:#ff00ff;stroke-width:0.5;" x="431.599984977" xlink:href="#m73ffdce801" y="343.398919598"/>
     <use style="fill:#ff00ff;stroke:#ff00ff;stroke-width:0.5;" x="444.000011696" xlink:href="#m73ffdce801" y="341.292505858"/>
     <use style="fill:#ff00ff;stroke:#ff00ff;stroke-width:0.5;" x="456.399971048" xlink:href="#m73ffdce801" y="344.65357246"/>
     <use style="fill:#ff00ff;stroke:#ff00ff;stroke-width:0.5;" x="468.800012144" xlink:href="#m73ffdce801" y="354.050765751"/>
     <use style="fill:#ff00ff;stroke:#ff00ff;stroke-width:0.5;" x="481.199990275" xlink:href="#m73ffdce801" y="366.330561757"/>
     <use style="fill:#ff00ff;stroke:#ff00ff;stroke-width:0.5;" x="493.600001109" xlink:href="#m73ffdce801" y="378.261910978"/>
     <use style="fill:#ff00ff;stroke:#ff00ff;stroke-width:0.5;" x="505.999947236" xlink:href="#m73ffdce801" y="386.525621737"/>
    </g>
   </g>
   <g id="line2d_5">
    <path clip-path="url(#p5c99841bd3)" d="M 72.000701 388.8 
L 84.39994 378.197498 
L 96.799986 349.575824 
L 109.199972 308.324379 
L 121.599946 264.52652 
L 133.999982 229.749669 
L 146.399973 215.28087 
L 158.800007 225.635988 
L 171.200001 254.351701 
L 183.599985 289.921456 
L 196.000035 319.33316 
L 208.400009 335.955569 
L 220.799999 336.186919 
L 233.200024 316.855643 
L 245.600014 277.075594 
L 258.000008 220.185922 
L 270.400029 156.29869 
L 282.800037 100.729362 
L 295.199297 77.497343 
L 307.600032 100.117011 
L 320.000023 154.189126 
L 332.400012 218.219564 
L 344.800022 275.311738 
L 357.200047 315.87983 
L 369.600026 335.638044 
L 382.000046 336.184519 
L 394.400037 320.117882 
L 406.800031 290.797635 
L 419.199968 255.683605 
L 431.599985 226.301922 
L 444.000012 215.105185 
L 456.399971 228.591957 
L 468.800012 262.54334 
L 481.19999 306.655068 
L 493.600001 348.149553 
L 505.999947 377.350703 
" style="fill:none;stroke:#008000;stroke-linecap:square;"/>
    <defs>
     <path d="M 0 3 
C 0.795609 3 1.55874 2.683901 2.12132 2.12132 
C 2.683901 1.55874 3 0.795609 3 0 
C 3 -0.795609 2.683901 -1.55874 2.12132 -2.12132 
C 1.55874 -2.683901 0.795609 -3 0 -3 
C -0.795609 -3 -1.55874 -2.683901 -2.12132 -2.12132 
C -2.683901 -1.55874 -3 -0.795609 -3 0 
C -3 0.795609 -2.683901 1.55874 -2.12132 2.12132 
C -1.55874 2.683901 -0.795609 3 0 3 
z
" id="m65454c1016" style="stroke:#000000;stroke-width:0.5;"/>
    </defs>
    <g clip-path="url(#p5c99841bd3)">
     <use style="fill:#008000;stroke:#000000;stroke-width:0.5;" x="72.0007011007" xlink:href="#m65454c1016" y="388.8"/>
     <use style="fill:#008000;stroke:#000000;stroke-width:0.5;" x="84.3999401647" xlink:href="#m65454c1016" y="378.197498059"/>
     <use style="fill:#008000;stroke:#000000;stroke-width:0.5;" x="96.7999858471" xlink:href="#m65454c1016" y="349.575823772"/>
     <use style="fill:#008000;stroke:#000000;stroke-width:0.5;" x="109.199971654" xlink:href="#m65454c1016" y="308.324379054"/>
     <use style="fill:#008000;stroke:#000000;stroke-width:0.5;" x="121.599946181" xlink:href="#m65454c1016" y="264.526519987"/>
     <use style="fill:#008000;stroke:#000000;stroke-width:0.5;" x="133.999981555" xlink:href="#m65454c1016" y="229.749669024"/>
     <use style="fill:#008000;stroke:#000000;stroke-width:0.5;" x="146.399972509" xlink:href="#m65454c1016" y="215.280869915"/>
     <use style="fill:#008000;stroke:#000000;stroke-width:0.5;" x="158.800006825" xlink:href="#m65454c1016" y="225.635988142"/>
     <use style="fill:#008000;stroke:#000000;stroke-width:0.5;" x="171.200001327" xlink:href="#m65454c1016" y="254.351701094"/>
     <use style="fill:#008000;stroke:#000000;stroke-width:0.5;" x="183.59998469" xlink:href="#m65454c1016" y="289.921455935"/>
     <use style="fill:#008000;stroke:#000000;stroke-width:0.5;" x="196.000034579" xlink:href="#m65454c1016" y="319.333160451"/>
     <use style="fill:#008000;stroke:#000000;stroke-width:0.5;" x="208.40000891" xlink:href="#m65454c1016" y="335.955569147"/>
     <use style="fill:#008000;stroke:#000000;stroke-width:0.5;" x="220.799998925" xlink:href="#m65454c1016" y="336.186919314"/>
     <use style="fill:#008000;stroke:#000000;stroke-width:0.5;" x="233.200024092" xlink:href="#m65454c1016" y="316.855642864"/>
     <use style="fill:#008000;stroke:#000000;stroke-width:0.5;" x="245.600013902" xlink:href="#m65454c1016" y="277.075593709"/>
     <use style="fill:#008000;stroke:#000000;stroke-width:0.5;" x="258.000007608" xlink:href="#m65454c1016" y="220.18592158"/>
     <use style="fill:#008000;stroke:#000000;stroke-width:0.5;" x="270.400029274" xlink:href="#m65454c1016" y="156.298690376"/>
     <use style="fill:#008000;stroke:#000000;stroke-width:0.5;" x="282.800036521" xlink:href="#m65454c1016" y="100.729362461"/>
     <use style="fill:#008000;stroke:#000000;stroke-width:0.5;" x="295.199297081" xlink:href="#m65454c1016" y="77.4973432993"/>
     <use style="fill:#008000;stroke:#000000;stroke-width:0.5;" x="307.600032241" xlink:href="#m65454c1016" y="100.117011405"/>
     <use style="fill:#008000;stroke:#000000;stroke-width:0.5;" x="320.000023242" xlink:href="#m65454c1016" y="154.189125781"/>
     <use style="fill:#008000;stroke:#000000;stroke-width:0.5;" x="332.400011883" xlink:href="#m65454c1016" y="218.219563537"/>
     <use style="fill:#008000;stroke:#000000;stroke-width:0.5;" x="344.80002189" xlink:href="#m65454c1016" y="275.311738143"/>
     <use style="fill:#008000;stroke:#000000;stroke-width:0.5;" x="357.200047495" xlink:href="#m65454c1016" y="315.879830458"/>
     <use style="fill:#008000;stroke:#000000;stroke-width:0.5;" x="369.60002552" xlink:href="#m65454c1016" y="335.638044032"/>
     <use style="fill:#008000;stroke:#000000;stroke-width:0.5;" x="382.000045854" xlink:href="#m65454c1016" y="336.184518631"/>
     <use style="fill:#008000;stroke:#000000;stroke-width:0.5;" x="394.400036978" xlink:href="#m65454c1016" y="320.117882191"/>
     <use style="fill:#008000;stroke:#000000;stroke-width:0.5;" x="406.800031371" xlink:href="#m65454c1016" y="290.797635474"/>
     <use style="fill:#008000;stroke:#000000;stroke-width:0.5;" x="419.199967732" xlink:href="#m65454c1016" y="255.683605042"/>
     <use style="fill:#008000;stroke:#000000;stroke-width:0.5;" x="431.599984977" xlink:href="#m65454c1016" y="226.301921683"/>
     <use style="fill:#008000;stroke:#000000;stroke-width:0.5;" x="444.000011696" xlink:href="#m65454c1016" y="215.10518477"/>
     <use style="fill:#008000;stroke:#000000;stroke-width:0.5;" x="456.399971048" xlink:href="#m65454c1016" y="228.59195719"/>
     <use style="fill:#008000;stroke:#000000;stroke-width:0.5;" x="468.800012144" xlink:href="#m65454c1016" y="262.543340497"/>
     <use style="fill:#008000;stroke:#000000;stroke-width:0.5;" x="481.199990275" xlink:href="#m65454c1016" y="306.65506785"/>
     <use style="fill:#008000;stroke:#000000;stroke-width:0.5;" x="493.600001109" xlink:href="#m65454c1016" y="348.149552577"/>
     <use style="fill:#008000;stroke:#000000;stroke-width:0.5;" x="505.999947236" xlink:href="#m65454c1016" y="377.350702743"/>
    </g>
   </g>
   <g id="patch_3">
    <path d="M 518.4 388.8 
L 518.4 43.2 
" style="fill:none;stroke:#000000;stroke-linecap:square;stroke-linejoin:miter;"/>
   </g>
   <g id="patch_4">
    <path d="M 72 388.8 
L 72 43.2 
" style="fill:none;stroke:#000000;stroke-linecap:square;stroke-linejoin:miter;"/>
   </g>
   <g id="patch_5">
    <path d="M 72 43.2 
L 518.4 43.2 
" style="fill:none;stroke:#000000;stroke-linecap:square;stroke-linejoin:miter;"/>
   </g>
   <g id="patch_6">
    <path d="M 72 388.8 
L 518.4 388.8 
" style="fill:none;stroke:#000000;stroke-linecap:square;stroke-linejoin:miter;"/>
   </g>
   <g id="matplotlib.axis_1">
    <g id="xtick_1">
     <g id="line2d_6">
      <defs>
       <path d="M 0 0 
L 0 -4 
" id="m2eafb069e6" style="stroke:#000000;stroke-width:0.5;"/>
      </defs>
      <g>
       <use style="stroke:#000000;stroke-width:0.5;" x="72.0" xlink:href="#m2eafb069e6" y="388.8"/>
      </g>
     </g>
     <g id="line2d_7">
      <defs>
       <path d="M 0 0 
L 0 4 
" id="mdd10b1a5af" style="stroke:#000000;stroke-width:0.5;"/>
      </defs>
      <g>
       <use style="stroke:#000000;stroke-width:0.5;" x="72.0" xlink:href="#mdd10b1a5af" y="43.2"/>
      </g>
     </g>
     <g id="text_1">
      <!-- −180 -->
      <defs>
       <path d="M 31.78125 66.40625 
Q 24.171875 66.40625 20.328125 58.90625 
Q 16.5 51.421875 16.5 36.375 
Q 16.5 21.390625 20.328125 13.890625 
Q 24.171875 6.390625 31.78125 6.390625 
Q 39.453125 6.390625 43.28125 13.890625 
Q 47.125 21.390625 47.125 36.375 
Q 47.125 51.421875 43.28125 58.90625 
Q 39.453125 66.40625 31.78125 66.40625 
M 31.78125 74.21875 
Q 44.046875 74.21875 50.515625 64.515625 
Q 56.984375 54.828125 56.984375 36.375 
Q 56.984375 17.96875 50.515625 8.265625 
Q 44.046875 -1.421875 31.78125 -1.421875 
Q 19.53125 -1.421875 13.0625 8.265625 
Q 6.59375 17.96875 6.59375 36.375 
Q 6.59375 54.828125 13.0625 64.515625 
Q 19.53125 74.21875 31.78125 74.21875 
" id="BitstreamVeraSans-Roman-30"/>
       <path d="M 10.59375 35.5 
L 73.1875 35.5 
L 73.1875 27.203125 
L 10.59375 27.203125 
z
" id="BitstreamVeraSans-Roman-2212"/>
       <path d="M 31.78125 34.625 
Q 24.75 34.625 20.71875 30.859375 
Q 16.703125 27.09375 16.703125 20.515625 
Q 16.703125 13.921875 20.71875 10.15625 
Q 24.75 6.390625 31.78125 6.390625 
Q 38.8125 6.390625 42.859375 10.171875 
Q 46.921875 13.96875 46.921875 20.515625 
Q 46.921875 27.09375 42.890625 30.859375 
Q 38.875 34.625 31.78125 34.625 
M 21.921875 38.8125 
Q 15.578125 40.375 12.03125 44.71875 
Q 8.5 49.078125 8.5 55.328125 
Q 8.5 64.0625 14.71875 69.140625 
Q 20.953125 74.21875 31.78125 74.21875 
Q 42.671875 74.21875 48.875 69.140625 
Q 55.078125 64.0625 55.078125 55.328125 
Q 55.078125 49.078125 51.53125 44.71875 
Q 48 40.375 41.703125 38.8125 
Q 48.828125 37.15625 52.796875 32.3125 
Q 56.78125 27.484375 56.78125 20.515625 
Q 56.78125 9.90625 50.3125 4.234375 
Q 43.84375 -1.421875 31.78125 -1.421875 
Q 19.734375 -1.421875 13.25 4.234375 
Q 6.78125 9.90625 6.78125 20.515625 
Q 6.78125 27.484375 10.78125 32.3125 
Q 14.796875 37.15625 21.921875 38.8125 
M 18.3125 54.390625 
Q 18.3125 48.734375 21.84375 45.5625 
Q 25.390625 42.390625 31.78125 42.390625 
Q 38.140625 42.390625 41.71875 45.5625 
Q 45.3125 48.734375 45.3125 54.390625 
Q 45.3125 60.0625 41.71875 63.234375 
Q 38.140625 66.40625 31.78125 66.40625 
Q 25.390625 66.40625 21.84375 63.234375 
Q 18.3125 60.0625 18.3125 54.390625 
" id="BitstreamVeraSans-Roman-38"/>
       <path d="M 12.40625 8.296875 
L 28.515625 8.296875 
L 28.515625 63.921875 
L 10.984375 60.40625 
L 10.984375 69.390625 
L 28.421875 72.90625 
L 38.28125 72.90625 
L 38.28125 8.296875 
L 54.390625 8.296875 
L 54.390625 0 
L 12.40625 0 
z
" id="BitstreamVeraSans-Roman-31"/>
      </defs>
      <g transform="translate(55.5196875 401.918125)scale(0.12 -0.12)">
       <use xlink:href="#BitstreamVeraSans-Roman-2212"/>
       <use x="83.7890625" xlink:href="#BitstreamVeraSans-Roman-31"/>
       <use x="147.412109375" xlink:href="#BitstreamVeraSans-Roman-38"/>
       <use x="211.03515625" xlink:href="#BitstreamVeraSans-Roman-30"/>
      </g>
     </g>
    </g>
    <g id="xtick_2">
     <g id="line2d_8">
      <g>
       <use style="stroke:#000000;stroke-width:0.5;" x="127.8" xlink:href="#m2eafb069e6" y="388.8"/>
      </g>
     </g>
     <g id="line2d_9">
      <g>
       <use style="stroke:#000000;stroke-width:0.5;" x="127.8" xlink:href="#mdd10b1a5af" y="43.2"/>
      </g>
     </g>
     <g id="text_2">
      <!-- −135 -->
      <defs>
       <path d="M 10.796875 72.90625 
L 49.515625 72.90625 
L 49.515625 64.59375 
L 19.828125 64.59375 
L 19.828125 46.734375 
Q 21.96875 47.46875 24.109375 47.828125 
Q 26.265625 48.1875 28.421875 48.1875 
Q 40.625 48.1875 47.75 41.5 
Q 54.890625 34.8125 54.890625 23.390625 
Q 54.890625 11.625 47.5625 5.09375 
Q 40.234375 -1.421875 26.90625 -1.421875 
Q 22.3125 -1.421875 17.546875 -0.640625 
Q 12.796875 0.140625 7.71875 1.703125 
L 7.71875 11.625 
Q 12.109375 9.234375 16.796875 8.0625 
Q 21.484375 6.890625 26.703125 6.890625 
Q 35.15625 6.890625 40.078125 11.328125 
Q 45.015625 15.765625 45.015625 23.390625 
Q 45.015625 31 40.078125 35.4375 
Q 35.15625 39.890625 26.703125 39.890625 
Q 22.75 39.890625 18.8125 39.015625 
Q 14.890625 38.140625 10.796875 36.28125 
z
" id="BitstreamVeraSans-Roman-35"/>
       <path d="M 40.578125 39.3125 
Q 47.65625 37.796875 51.625 33 
Q 55.609375 28.21875 55.609375 21.1875 
Q 55.609375 10.40625 48.1875 4.484375 
Q 40.765625 -1.421875 27.09375 -1.421875 
Q 22.515625 -1.421875 17.65625 -0.515625 
Q 12.796875 0.390625 7.625 2.203125 
L 7.625 11.71875 
Q 11.71875 9.328125 16.59375 8.109375 
Q 21.484375 6.890625 26.8125 6.890625 
Q 36.078125 6.890625 40.9375 10.546875 
Q 45.796875 14.203125 45.796875 21.1875 
Q 45.796875 27.640625 41.28125 31.265625 
Q 36.765625 34.90625 28.71875 34.90625 
L 20.21875 34.90625 
L 20.21875 43.015625 
L 29.109375 43.015625 
Q 36.375 43.015625 40.234375 45.921875 
Q 44.09375 48.828125 44.09375 54.296875 
Q 44.09375 59.90625 40.109375 62.90625 
Q 36.140625 65.921875 28.71875 65.921875 
Q 24.65625 65.921875 20.015625 65.03125 
Q 15.375 64.15625 9.8125 62.3125 
L 9.8125 71.09375 
Q 15.4375 72.65625 20.34375 73.4375 
Q 25.25 74.21875 29.59375 74.21875 
Q 40.828125 74.21875 47.359375 69.109375 
Q 53.90625 64.015625 53.90625 55.328125 
Q 53.90625 49.265625 50.4375 45.09375 
Q 46.96875 40.921875 40.578125 39.3125 
" id="BitstreamVeraSans-Roman-33"/>
      </defs>
      <g transform="translate(111.3196875 401.918125)scale(0.12 -0.12)">
       <use xlink:href="#BitstreamVeraSans-Roman-2212"/>
       <use x="83.7890625" xlink:href="#BitstreamVeraSans-Roman-31"/>
       <use x="147.412109375" xlink:href="#BitstreamVeraSans-Roman-33"/>
       <use x="211.03515625" xlink:href="#BitstreamVeraSans-Roman-35"/>
      </g>
     </g>
    </g>
    <g id="xtick_3">
     <g id="line2d_10">
      <g>
       <use style="stroke:#000000;stroke-width:0.5;" x="183.6" xlink:href="#m2eafb069e6" y="388.8"/>
      </g>
     </g>
     <g id="line2d_11">
      <g>
       <use style="stroke:#000000;stroke-width:0.5;" x="183.6" xlink:href="#mdd10b1a5af" y="43.2"/>
      </g>
     </g>
     <g id="text_3">
      <!-- −90 -->
      <defs>
       <path d="M 10.984375 1.515625 
L 10.984375 10.5 
Q 14.703125 8.734375 18.5 7.8125 
Q 22.3125 6.890625 25.984375 6.890625 
Q 35.75 6.890625 40.890625 13.453125 
Q 46.046875 20.015625 46.78125 33.40625 
Q 43.953125 29.203125 39.59375 26.953125 
Q 35.25 24.703125 29.984375 24.703125 
Q 19.046875 24.703125 12.671875 31.3125 
Q 6.296875 37.9375 6.296875 49.421875 
Q 6.296875 60.640625 12.9375 67.421875 
Q 19.578125 74.21875 30.609375 74.21875 
Q 43.265625 74.21875 49.921875 64.515625 
Q 56.59375 54.828125 56.59375 36.375 
Q 56.59375 19.140625 48.40625 8.859375 
Q 40.234375 -1.421875 26.421875 -1.421875 
Q 22.703125 -1.421875 18.890625 -0.6875 
Q 15.09375 0.046875 10.984375 1.515625 
M 30.609375 32.421875 
Q 37.25 32.421875 41.125 36.953125 
Q 45.015625 41.5 45.015625 49.421875 
Q 45.015625 57.28125 41.125 61.84375 
Q 37.25 66.40625 30.609375 66.40625 
Q 23.96875 66.40625 20.09375 61.84375 
Q 16.21875 57.28125 16.21875 49.421875 
Q 16.21875 41.5 20.09375 36.953125 
Q 23.96875 32.421875 30.609375 32.421875 
" id="BitstreamVeraSans-Roman-39"/>
      </defs>
      <g transform="translate(170.9371875 401.918125)scale(0.12 -0.12)">
       <use xlink:href="#BitstreamVeraSans-Roman-2212"/>
       <use x="83.7890625" xlink:href="#BitstreamVeraSans-Roman-39"/>
       <use x="147.412109375" xlink:href="#BitstreamVeraSans-Roman-30"/>
      </g>
     </g>
    </g>
    <g id="xtick_4">
     <g id="line2d_12">
      <g>
       <use style="stroke:#000000;stroke-width:0.5;" x="239.4" xlink:href="#m2eafb069e6" y="388.8"/>
      </g>
     </g>
     <g id="line2d_13">
      <g>
       <use style="stroke:#000000;stroke-width:0.5;" x="239.4" xlink:href="#mdd10b1a5af" y="43.2"/>
      </g>
     </g>
     <g id="text_4">
      <!-- −45 -->
      <defs>
       <path d="M 37.796875 64.3125 
L 12.890625 25.390625 
L 37.796875 25.390625 
z
M 35.203125 72.90625 
L 47.609375 72.90625 
L 47.609375 25.390625 
L 58.015625 25.390625 
L 58.015625 17.1875 
L 47.609375 17.1875 
L 47.609375 0 
L 37.796875 0 
L 37.796875 17.1875 
L 4.890625 17.1875 
L 4.890625 26.703125 
z
" id="BitstreamVeraSans-Roman-34"/>
      </defs>
      <g transform="translate(226.7371875 401.918125)scale(0.12 -0.12)">
       <use xlink:href="#BitstreamVeraSans-Roman-2212"/>
       <use x="83.7890625" xlink:href="#BitstreamVeraSans-Roman-34"/>
       <use x="147.412109375" xlink:href="#BitstreamVeraSans-Roman-35"/>
      </g>
     </g>
    </g>
    <g id="xtick_5">
     <g id="line2d_14">
      <g>
       <use style="stroke:#000000;stroke-width:0.5;" x="295.2" xlink:href="#m2eafb069e6" y="388.8"/>
      </g>
     </g>
     <g id="line2d_15">
      <g>
       <use style="stroke:#000000;stroke-width:0.5;" x="295.2" xlink:href="#mdd10b1a5af" y="43.2"/>
      </g>
     </g>
     <g id="text_5">
      <!-- 0 -->
      <g transform="translate(291.3825 401.918125)scale(0.12 -0.12)">
       <use xlink:href="#BitstreamVeraSans-Roman-30"/>
      </g>
     </g>
    </g>
    <g id="xtick_6">
     <g id="line2d_16">
      <g>
       <use style="stroke:#000000;stroke-width:0.5;" x="351.0" xlink:href="#m2eafb069e6" y="388.8"/>
      </g>
     </g>
     <g id="line2d_17">
      <g>
       <use style="stroke:#000000;stroke-width:0.5;" x="351.0" xlink:href="#mdd10b1a5af" y="43.2"/>
      </g>
     </g>
     <g id="text_6">
      <!-- 45 -->
      <g transform="translate(343.365 401.918125)scale(0.12 -0.12)">
       <use xlink:href="#BitstreamVeraSans-Roman-34"/>
       <use x="63.623046875" xlink:href="#BitstreamVeraSans-Roman-35"/>
      </g>
     </g>
    </g>
    <g id="xtick_7">
     <g id="line2d_18">
      <g>
       <use style="stroke:#000000;stroke-width:0.5;" x="406.8" xlink:href="#m2eafb069e6" y="388.8"/>
      </g>
     </g>
     <g id="line2d_19">
      <g>
       <use style="stroke:#000000;stroke-width:0.5;" x="406.8" xlink:href="#mdd10b1a5af" y="43.2"/>
      </g>
     </g>
     <g id="text_7">
      <!-- 90 -->
      <g transform="translate(399.165 401.918125)scale(0.12 -0.12)">
       <use xlink:href="#BitstreamVeraSans-Roman-39"/>
       <use x="63.623046875" xlink:href="#BitstreamVeraSans-Roman-30"/>
      </g>
     </g>
    </g>
    <g id="xtick_8">
     <g id="line2d_20">
      <g>
       <use style="stroke:#000000;stroke-width:0.5;" x="462.6" xlink:href="#m2eafb069e6" y="388.8"/>
      </g>
     </g>
     <g id="line2d_21">
      <g>
       <use style="stroke:#000000;stroke-width:0.5;" x="462.6" xlink:href="#mdd10b1a5af" y="43.2"/>
      </g>
     </g>
     <g id="text_8">
      <!-- 135 -->
      <g transform="translate(451.1475 401.918125)scale(0.12 -0.12)">
       <use xlink:href="#BitstreamVeraSans-Roman-31"/>
       <use x="63.623046875" xlink:href="#BitstreamVeraSans-Roman-33"/>
       <use x="127.24609375" xlink:href="#BitstreamVeraSans-Roman-35"/>
      </g>
     </g>
    </g>
    <g id="xtick_9">
     <g id="line2d_22">
      <g>
       <use style="stroke:#000000;stroke-width:0.5;" x="518.4" xlink:href="#m2eafb069e6" y="388.8"/>
      </g>
     </g>
     <g id="line2d_23">
      <g>
       <use style="stroke:#000000;stroke-width:0.5;" x="518.4" xlink:href="#mdd10b1a5af" y="43.2"/>
      </g>
     </g>
     <g id="text_9">
      <!-- 180 -->
      <g transform="translate(506.9475 401.918125)scale(0.12 -0.12)">
       <use xlink:href="#BitstreamVeraSans-Roman-31"/>
       <use x="63.623046875" xlink:href="#BitstreamVeraSans-Roman-38"/>
       <use x="127.24609375" xlink:href="#BitstreamVeraSans-Roman-30"/>
      </g>
     </g>
    </g>
    <g id="text_10">
     <!-- Phi -->
     <defs>
      <path d="M 54.890625 33.015625 
L 54.890625 0 
L 45.90625 0 
L 45.90625 32.71875 
Q 45.90625 40.484375 42.875 44.328125 
Q 39.84375 48.1875 33.796875 48.1875 
Q 26.515625 48.1875 22.3125 43.546875 
Q 18.109375 38.921875 18.109375 30.90625 
L 18.109375 0 
L 9.078125 0 
L 9.078125 75.984375 
L 18.109375 75.984375 
L 18.109375 46.1875 
Q 21.34375 51.125 25.703125 53.5625 
Q 30.078125 56 35.796875 56 
Q 45.21875 56 50.046875 50.171875 
Q 54.890625 44.34375 54.890625 33.015625 
" id="BitstreamVeraSans-Roman-68"/>
      <path d="M 9.421875 54.6875 
L 18.40625 54.6875 
L 18.40625 0 
L 9.421875 0 
z
M 9.421875 75.984375 
L 18.40625 75.984375 
L 18.40625 64.59375 
L 9.421875 64.59375 
z
" id="BitstreamVeraSans-Roman-69"/>
      <path d="M 19.671875 64.796875 
L 19.671875 37.40625 
L 32.078125 37.40625 
Q 38.96875 37.40625 42.71875 40.96875 
Q 46.484375 44.53125 46.484375 51.125 
Q 46.484375 57.671875 42.71875 61.234375 
Q 38.96875 64.796875 32.078125 64.796875 
z
M 9.8125 72.90625 
L 32.078125 72.90625 
Q 44.34375 72.90625 50.609375 67.359375 
Q 56.890625 61.8125 56.890625 51.125 
Q 56.890625 40.328125 50.609375 34.8125 
Q 44.34375 29.296875 32.078125 29.296875 
L 19.671875 29.296875 
L 19.671875 0 
L 9.8125 0 
z
" id="BitstreamVeraSans-Roman-50"/>
     </defs>
     <g transform="translate(286.1128125 418.531875)scale(0.12 -0.12)">
      <use xlink:href="#BitstreamVeraSans-Roman-50"/>
      <use x="60.302734375" xlink:href="#BitstreamVeraSans-Roman-68"/>
      <use x="123.681640625" xlink:href="#BitstreamVeraSans-Roman-69"/>
     </g>
    </g>
   </g>
   <g id="matplotlib.axis_2">
    <g id="ytick_1">
     <g id="line2d_24">
      <defs>
       <path d="M 0 0 
L 4 0 
" id="ma4a04ae4f2" style="stroke:#000000;stroke-width:0.5;"/>
      </defs>
      <g>
       <use style="stroke:#000000;stroke-width:0.5;" x="72.0" xlink:href="#ma4a04ae4f2" y="388.8"/>
      </g>
     </g>
     <g id="line2d_25">
      <defs>
       <path d="M 0 0 
L -4 0 
" id="m5c813c7809" style="stroke:#000000;stroke-width:0.5;"/>
      </defs>
      <g>
       <use style="stroke:#000000;stroke-width:0.5;" x="518.4" xlink:href="#m5c813c7809" y="388.8"/>
      </g>
     </g>
     <g id="text_11">
      <!-- 0 -->
      <g transform="translate(60.365 392.11125)scale(0.12 -0.12)">
       <use xlink:href="#BitstreamVeraSans-Roman-30"/>
      </g>
     </g>
    </g>
    <g id="ytick_2">
     <g id="line2d_26">
      <g>
       <use style="stroke:#000000;stroke-width:0.5;" x="72.0" xlink:href="#ma4a04ae4f2" y="339.428571429"/>
      </g>
     </g>
     <g id="line2d_27">
      <g>
       <use style="stroke:#000000;stroke-width:0.5;" x="518.4" xlink:href="#m5c813c7809" y="339.428571429"/>
      </g>
     </g>
     <g id="text_12">
      <!-- 1 -->
      <g transform="translate(60.365 342.739821429)scale(0.12 -0.12)">
       <use xlink:href="#BitstreamVeraSans-Roman-31"/>
      </g>
     </g>
    </g>
    <g id="ytick_3">
     <g id="line2d_28">
      <g>
       <use style="stroke:#000000;stroke-width:0.5;" x="72.0" xlink:href="#ma4a04ae4f2" y="290.057142857"/>
      </g>
     </g>
     <g id="line2d_29">
      <g>
       <use style="stroke:#000000;stroke-width:0.5;" x="518.4" xlink:href="#m5c813c7809" y="290.057142857"/>
      </g>
     </g>
     <g id="text_13">
      <!-- 2 -->
      <defs>
       <path d="M 19.1875 8.296875 
L 53.609375 8.296875 
L 53.609375 0 
L 7.328125 0 
L 7.328125 8.296875 
Q 12.9375 14.109375 22.625 23.890625 
Q 32.328125 33.6875 34.8125 36.53125 
Q 39.546875 41.84375 41.421875 45.53125 
Q 43.3125 49.21875 43.3125 52.78125 
Q 43.3125 58.59375 39.234375 62.25 
Q 35.15625 65.921875 28.609375 65.921875 
Q 23.96875 65.921875 18.8125 64.3125 
Q 13.671875 62.703125 7.8125 59.421875 
L 7.8125 69.390625 
Q 13.765625 71.78125 18.9375 73 
Q 24.125 74.21875 28.421875 74.21875 
Q 39.75 74.21875 46.484375 68.546875 
Q 53.21875 62.890625 53.21875 53.421875 
Q 53.21875 48.921875 51.53125 44.890625 
Q 49.859375 40.875 45.40625 35.40625 
Q 44.1875 33.984375 37.640625 27.21875 
Q 31.109375 20.453125 19.1875 8.296875 
" id="BitstreamVeraSans-Roman-32"/>
      </defs>
      <g transform="translate(60.365 293.368392857)scale(0.12 -0.12)">
       <use xlink:href="#BitstreamVeraSans-Roman-32"/>
      </g>
     </g>
    </g>
    <g id="ytick_4">
     <g id="line2d_30">
      <g>
       <use style="stroke:#000000;stroke-width:0.5;" x="72.0" xlink:href="#ma4a04ae4f2" y="240.685714286"/>
      </g>
     </g>
     <g id="line2d_31">
      <g>
       <use style="stroke:#000000;stroke-width:0.5;" x="518.4" xlink:href="#m5c813c7809" y="240.685714286"/>
      </g>
     </g>
     <g id="text_14">
      <!-- 3 -->
      <g transform="translate(60.365 243.996964286)scale(0.12 -0.12)">
       <use xlink:href="#BitstreamVeraSans-Roman-33"/>
      </g>
     </g>
    </g>
    <g id="ytick_5">
     <g id="line2d_32">
      <g>
       <use style="stroke:#000000;stroke-width:0.5;" x="72.0" xlink:href="#ma4a04ae4f2" y="191.314285714"/>
      </g>
     </g>
     <g id="line2d_33">
      <g>
       <use style="stroke:#000000;stroke-width:0.5;" x="518.4" xlink:href="#m5c813c7809" y="191.314285714"/>
      </g>
     </g>
     <g id="text_15">
      <!-- 4 -->
      <g transform="translate(60.365 194.625535714)scale(0.12 -0.12)">
       <use xlink:href="#BitstreamVeraSans-Roman-34"/>
      </g>
     </g>
    </g>
    <g id="ytick_6">
     <g id="line2d_34">
      <g>
       <use style="stroke:#000000;stroke-width:0.5;" x="72.0" xlink:href="#ma4a04ae4f2" y="141.942857143"/>
      </g>
     </g>
     <g id="line2d_35">
      <g>
       <use style="stroke:#000000;stroke-width:0.5;" x="518.4" xlink:href="#m5c813c7809" y="141.942857143"/>
      </g>
     </g>
     <g id="text_16">
      <!-- 5 -->
      <g transform="translate(60.365 145.254107143)scale(0.12 -0.12)">
       <use xlink:href="#BitstreamVeraSans-Roman-35"/>
      </g>
     </g>
    </g>
    <g id="ytick_7">
     <g id="line2d_36">
      <g>
       <use style="stroke:#000000;stroke-width:0.5;" x="72.0" xlink:href="#ma4a04ae4f2" y="92.5714285714"/>
      </g>
     </g>
     <g id="line2d_37">
      <g>
       <use style="stroke:#000000;stroke-width:0.5;" x="518.4" xlink:href="#m5c813c7809" y="92.5714285714"/>
      </g>
     </g>
     <g id="text_17">
      <!-- 6 -->
      <defs>
       <path d="M 33.015625 40.375 
Q 26.375 40.375 22.484375 35.828125 
Q 18.609375 31.296875 18.609375 23.390625 
Q 18.609375 15.53125 22.484375 10.953125 
Q 26.375 6.390625 33.015625 6.390625 
Q 39.65625 6.390625 43.53125 10.953125 
Q 47.40625 15.53125 47.40625 23.390625 
Q 47.40625 31.296875 43.53125 35.828125 
Q 39.65625 40.375 33.015625 40.375 
M 52.59375 71.296875 
L 52.59375 62.3125 
Q 48.875 64.0625 45.09375 64.984375 
Q 41.3125 65.921875 37.59375 65.921875 
Q 27.828125 65.921875 22.671875 59.328125 
Q 17.53125 52.734375 16.796875 39.40625 
Q 19.671875 43.65625 24.015625 45.921875 
Q 28.375 48.1875 33.59375 48.1875 
Q 44.578125 48.1875 50.953125 41.515625 
Q 57.328125 34.859375 57.328125 23.390625 
Q 57.328125 12.15625 50.6875 5.359375 
Q 44.046875 -1.421875 33.015625 -1.421875 
Q 20.359375 -1.421875 13.671875 8.265625 
Q 6.984375 17.96875 6.984375 36.375 
Q 6.984375 53.65625 15.1875 63.9375 
Q 23.390625 74.21875 37.203125 74.21875 
Q 40.921875 74.21875 44.703125 73.484375 
Q 48.484375 72.75 52.59375 71.296875 
" id="BitstreamVeraSans-Roman-36"/>
      </defs>
      <g transform="translate(60.365 95.8826785714)scale(0.12 -0.12)">
       <use xlink:href="#BitstreamVeraSans-Roman-36"/>
      </g>
     </g>
    </g>
    <g id="ytick_8">
     <g id="line2d_38">
      <g>
       <use style="stroke:#000000;stroke-width:0.5;" x="72.0" xlink:href="#ma4a04ae4f2" y="43.2"/>
      </g>
     </g>
     <g id="line2d_39">
      <g>
       <use style="stroke:#000000;stroke-width:0.5;" x="518.4" xlink:href="#m5c813c7809" y="43.2"/>
      </g>
     </g>
     <g id="text_18">
      <!-- 7 -->
      <defs>
       <path d="M 8.203125 72.90625 
L 55.078125 72.90625 
L 55.078125 68.703125 
L 28.609375 0 
L 18.3125 0 
L 43.21875 64.59375 
L 8.203125 64.59375 
z
" id="BitstreamVeraSans-Roman-37"/>
      </defs>
      <g transform="translate(60.365 46.51125)scale(0.12 -0.12)">
       <use xlink:href="#BitstreamVeraSans-Roman-37"/>
      </g>
     </g>
    </g>
    <g id="text_19">
     <!-- kcal/mol -->
     <defs>
      <path d="M 25.390625 72.90625 
L 33.6875 72.90625 
L 8.296875 -9.28125 
L 0 -9.28125 
z
" id="BitstreamVeraSans-Roman-2f"/>
      <path d="M 9.078125 75.984375 
L 18.109375 75.984375 
L 18.109375 31.109375 
L 44.921875 54.6875 
L 56.390625 54.6875 
L 27.390625 29.109375 
L 57.625 0 
L 45.90625 0 
L 18.109375 26.703125 
L 18.109375 0 
L 9.078125 0 
z
" id="BitstreamVeraSans-Roman-6b"/>
      <path d="M 48.78125 52.59375 
L 48.78125 44.1875 
Q 44.96875 46.296875 41.140625 47.34375 
Q 37.3125 48.390625 33.40625 48.390625 
Q 24.65625 48.390625 19.8125 42.84375 
Q 14.984375 37.3125 14.984375 27.296875 
Q 14.984375 17.28125 19.8125 11.734375 
Q 24.65625 6.203125 33.40625 6.203125 
Q 37.3125 6.203125 41.140625 7.25 
Q 44.96875 8.296875 48.78125 10.40625 
L 48.78125 2.09375 
Q 45.015625 0.34375 40.984375 -0.53125 
Q 36.96875 -1.421875 32.421875 -1.421875 
Q 20.0625 -1.421875 12.78125 6.34375 
Q 5.515625 14.109375 5.515625 27.296875 
Q 5.515625 40.671875 12.859375 48.328125 
Q 20.21875 56 33.015625 56 
Q 37.15625 56 41.109375 55.140625 
Q 45.0625 54.296875 48.78125 52.59375 
" id="BitstreamVeraSans-Roman-63"/>
      <path d="M 9.421875 75.984375 
L 18.40625 75.984375 
L 18.40625 0 
L 9.421875 0 
z
" id="BitstreamVeraSans-Roman-6c"/>
      <path d="M 34.28125 27.484375 
Q 23.390625 27.484375 19.1875 25 
Q 14.984375 22.515625 14.984375 16.5 
Q 14.984375 11.71875 18.140625 8.90625 
Q 21.296875 6.109375 26.703125 6.109375 
Q 34.1875 6.109375 38.703125 11.40625 
Q 43.21875 16.703125 43.21875 25.484375 
L 43.21875 27.484375 
z
M 52.203125 31.203125 
L 52.203125 0 
L 43.21875 0 
L 43.21875 8.296875 
Q 40.140625 3.328125 35.546875 0.953125 
Q 30.953125 -1.421875 24.3125 -1.421875 
Q 15.921875 -1.421875 10.953125 3.296875 
Q 6 8.015625 6 15.921875 
Q 6 25.140625 12.171875 29.828125 
Q 18.359375 34.515625 30.609375 34.515625 
L 43.21875 34.515625 
L 43.21875 35.40625 
Q 43.21875 41.609375 39.140625 45 
Q 35.0625 48.390625 27.6875 48.390625 
Q 23 48.390625 18.546875 47.265625 
Q 14.109375 46.140625 10.015625 43.890625 
L 10.015625 52.203125 
Q 14.9375 54.109375 19.578125 55.046875 
Q 24.21875 56 28.609375 56 
Q 40.484375 56 46.34375 49.84375 
Q 52.203125 43.703125 52.203125 31.203125 
" id="BitstreamVeraSans-Roman-61"/>
      <path d="M 52 44.1875 
Q 55.375 50.25 60.0625 53.125 
Q 64.75 56 71.09375 56 
Q 79.640625 56 84.28125 50.015625 
Q 88.921875 44.046875 88.921875 33.015625 
L 88.921875 0 
L 79.890625 0 
L 79.890625 32.71875 
Q 79.890625 40.578125 77.09375 44.375 
Q 74.3125 48.1875 68.609375 48.1875 
Q 61.625 48.1875 57.5625 43.546875 
Q 53.515625 38.921875 53.515625 30.90625 
L 53.515625 0 
L 44.484375 0 
L 44.484375 32.71875 
Q 44.484375 40.625 41.703125 44.40625 
Q 38.921875 48.1875 33.109375 48.1875 
Q 26.21875 48.1875 22.15625 43.53125 
Q 18.109375 38.875 18.109375 30.90625 
L 18.109375 0 
L 9.078125 0 
L 9.078125 54.6875 
L 18.109375 54.6875 
L 18.109375 46.1875 
Q 21.1875 51.21875 25.484375 53.609375 
Q 29.78125 56 35.6875 56 
Q 41.65625 56 45.828125 52.96875 
Q 50 49.953125 52 44.1875 
" id="BitstreamVeraSans-Roman-6d"/>
      <path d="M 30.609375 48.390625 
Q 23.390625 48.390625 19.1875 42.75 
Q 14.984375 37.109375 14.984375 27.296875 
Q 14.984375 17.484375 19.15625 11.84375 
Q 23.34375 6.203125 30.609375 6.203125 
Q 37.796875 6.203125 41.984375 11.859375 
Q 46.1875 17.53125 46.1875 27.296875 
Q 46.1875 37.015625 41.984375 42.703125 
Q 37.796875 48.390625 30.609375 48.390625 
M 30.609375 56 
Q 42.328125 56 49.015625 48.375 
Q 55.71875 40.765625 55.71875 27.296875 
Q 55.71875 13.875 49.015625 6.21875 
Q 42.328125 -1.421875 30.609375 -1.421875 
Q 18.84375 -1.421875 12.171875 6.21875 
Q 5.515625 13.875 5.515625 27.296875 
Q 5.515625 40.765625 12.171875 48.375 
Q 18.84375 56 30.609375 56 
" id="BitstreamVeraSans-Roman-6f"/>
     </defs>
     <g transform="translate(52.869375 241.3209375)rotate(-90.0)scale(0.12 -0.12)">
      <use xlink:href="#BitstreamVeraSans-Roman-6b"/>
      <use x="57.91015625" xlink:href="#BitstreamVeraSans-Roman-63"/>
      <use x="112.890625" xlink:href="#BitstreamVeraSans-Roman-61"/>
      <use x="174.169921875" xlink:href="#BitstreamVeraSans-Roman-6c"/>
      <use x="201.953125" xlink:href="#BitstreamVeraSans-Roman-2f"/>
      <use x="235.64453125" xlink:href="#BitstreamVeraSans-Roman-6d"/>
      <use x="333.056640625" xlink:href="#BitstreamVeraSans-Roman-6f"/>
      <use x="394.23828125" xlink:href="#BitstreamVeraSans-Roman-6c"/>
     </g>
    </g>
   </g>
   <g id="text_20">
    <!-- H12-C6-C5-H10 -->
    <defs>
     <path d="M 9.8125 72.90625 
L 19.671875 72.90625 
L 19.671875 43.015625 
L 55.515625 43.015625 
L 55.515625 72.90625 
L 65.375 72.90625 
L 65.375 0 
L 55.515625 0 
L 55.515625 34.71875 
L 19.671875 34.71875 
L 19.671875 0 
L 9.8125 0 
z
" id="BitstreamVeraSans-Roman-48"/>
     <path d="M 4.890625 31.390625 
L 31.203125 31.390625 
L 31.203125 23.390625 
L 4.890625 23.390625 
z
" id="BitstreamVeraSans-Roman-2d"/>
     <path d="M 64.40625 67.28125 
L 64.40625 56.890625 
Q 59.421875 61.53125 53.78125 63.8125 
Q 48.140625 66.109375 41.796875 66.109375 
Q 29.296875 66.109375 22.65625 58.46875 
Q 16.015625 50.828125 16.015625 36.375 
Q 16.015625 21.96875 22.65625 14.328125 
Q 29.296875 6.6875 41.796875 6.6875 
Q 48.140625 6.6875 53.78125 8.984375 
Q 59.421875 11.28125 64.40625 15.921875 
L 64.40625 5.609375 
Q 59.234375 2.09375 53.4375 0.328125 
Q 47.65625 -1.421875 41.21875 -1.421875 
Q 24.65625 -1.421875 15.125 8.703125 
Q 5.609375 18.84375 5.609375 36.375 
Q 5.609375 53.953125 15.125 64.078125 
Q 24.65625 74.21875 41.21875 74.21875 
Q 47.75 74.21875 53.53125 72.484375 
Q 59.328125 70.75 64.40625 67.28125 
" id="BitstreamVeraSans-Roman-43"/>
    </defs>
    <g transform="translate(239.036625 38.2)scale(0.144 -0.144)">
     <use xlink:href="#BitstreamVeraSans-Roman-48"/>
     <use x="75.1953125" xlink:href="#BitstreamVeraSans-Roman-31"/>
     <use x="138.818359375" xlink:href="#BitstreamVeraSans-Roman-32"/>
     <use x="202.44140625" xlink:href="#BitstreamVeraSans-Roman-2d"/>
     <use x="238.525390625" xlink:href="#BitstreamVeraSans-Roman-43"/>
     <use x="308.349609375" xlink:href="#BitstreamVeraSans-Roman-36"/>
     <use x="371.97265625" xlink:href="#BitstreamVeraSans-Roman-2d"/>
     <use x="408.056640625" xlink:href="#BitstreamVeraSans-Roman-43"/>
     <use x="477.880859375" xlink:href="#BitstreamVeraSans-Roman-35"/>
     <use x="541.50390625" xlink:href="#BitstreamVeraSans-Roman-2d"/>
     <use x="577.587890625" xlink:href="#BitstreamVeraSans-Roman-48"/>
     <use x="652.783203125" xlink:href="#BitstreamVeraSans-Roman-31"/>
     <use x="716.40625" xlink:href="#BitstreamVeraSans-Roman-30"/>
    </g>
   </g>
   <g id="legend_1">
    <g id="patch_7">
     <path d="M 406.15625 108.3125 
L 514.4 108.3125 
L 514.4 47.2 
L 406.15625 47.2 
z
" style="fill:#ffffff;stroke:#000000;stroke-linejoin:miter;"/>
    </g>
    <g id="line2d_40">
     <path d="M 411.75625 53.67875 
L 422.95625 53.67875 
" style="fill:none;stroke:#ff0000;stroke-linecap:square;"/>
    </g>
    <g id="line2d_41">
     <g>
      <use style="fill:#ff0000;stroke:#000000;stroke-width:0.5;" x="411.75625" xlink:href="#m5efb89e24b" y="53.67875"/>
      <use style="fill:#ff0000;stroke:#000000;stroke-width:0.5;" x="422.95625" xlink:href="#m5efb89e24b" y="53.67875"/>
     </g>
    </g>
    <g id="text_21">
     <!-- QM -->
     <defs>
      <path d="M 39.40625 66.21875 
Q 28.65625 66.21875 22.328125 58.203125 
Q 16.015625 50.203125 16.015625 36.375 
Q 16.015625 22.609375 22.328125 14.59375 
Q 28.65625 6.59375 39.40625 6.59375 
Q 50.140625 6.59375 56.421875 14.59375 
Q 62.703125 22.609375 62.703125 36.375 
Q 62.703125 50.203125 56.421875 58.203125 
Q 50.140625 66.21875 39.40625 66.21875 
M 53.21875 1.3125 
L 66.21875 -12.890625 
L 54.296875 -12.890625 
L 43.5 -1.21875 
Q 41.890625 -1.3125 41.03125 -1.359375 
Q 40.1875 -1.421875 39.40625 -1.421875 
Q 24.03125 -1.421875 14.8125 8.859375 
Q 5.609375 19.140625 5.609375 36.375 
Q 5.609375 53.65625 14.8125 63.9375 
Q 24.03125 74.21875 39.40625 74.21875 
Q 54.734375 74.21875 63.90625 63.9375 
Q 73.09375 53.65625 73.09375 36.375 
Q 73.09375 23.6875 67.984375 14.640625 
Q 62.890625 5.609375 53.21875 1.3125 
" id="BitstreamVeraSans-Roman-51"/>
      <path d="M 9.8125 72.90625 
L 24.515625 72.90625 
L 43.109375 23.296875 
L 61.8125 72.90625 
L 76.515625 72.90625 
L 76.515625 0 
L 66.890625 0 
L 66.890625 64.015625 
L 48.09375 14.015625 
L 38.1875 14.015625 
L 19.390625 64.015625 
L 19.390625 0 
L 9.8125 0 
z
" id="BitstreamVeraSans-Roman-4d"/>
     </defs>
     <g transform="translate(431.75625 56.47875)scale(0.08 -0.08)">
      <use xlink:href="#BitstreamVeraSans-Roman-51"/>
      <use x="78.7109375" xlink:href="#BitstreamVeraSans-Roman-4d"/>
     </g>
    </g>
    <g id="line2d_42">
     <path d="M 411.75625 65.42125 
L 422.95625 65.42125 
" style="fill:none;stroke:#0000ff;stroke-linecap:square;"/>
    </g>
    <g id="line2d_43">
     <g>
      <use style="fill:#0000ff;stroke:#000000;stroke-width:0.5;" x="411.75625" xlink:href="#m8d5d50d3ee" y="65.42125"/>
      <use style="fill:#0000ff;stroke:#000000;stroke-width:0.5;" x="422.95625" xlink:href="#m8d5d50d3ee" y="65.42125"/>
     </g>
    </g>
    <g id="text_22">
     <!-- MM Original -->
     <defs>
      <path d="M 39.40625 66.21875 
Q 28.65625 66.21875 22.328125 58.203125 
Q 16.015625 50.203125 16.015625 36.375 
Q 16.015625 22.609375 22.328125 14.59375 
Q 28.65625 6.59375 39.40625 6.59375 
Q 50.140625 6.59375 56.421875 14.59375 
Q 62.703125 22.609375 62.703125 36.375 
Q 62.703125 50.203125 56.421875 58.203125 
Q 50.140625 66.21875 39.40625 66.21875 
M 39.40625 74.21875 
Q 54.734375 74.21875 63.90625 63.9375 
Q 73.09375 53.65625 73.09375 36.375 
Q 73.09375 19.140625 63.90625 8.859375 
Q 54.734375 -1.421875 39.40625 -1.421875 
Q 24.03125 -1.421875 14.8125 8.828125 
Q 5.609375 19.09375 5.609375 36.375 
Q 5.609375 53.65625 14.8125 63.9375 
Q 24.03125 74.21875 39.40625 74.21875 
" id="BitstreamVeraSans-Roman-4f"/>
      <path d="M 45.40625 27.984375 
Q 45.40625 37.75 41.375 43.109375 
Q 37.359375 48.484375 30.078125 48.484375 
Q 22.859375 48.484375 18.828125 43.109375 
Q 14.796875 37.75 14.796875 27.984375 
Q 14.796875 18.265625 18.828125 12.890625 
Q 22.859375 7.515625 30.078125 7.515625 
Q 37.359375 7.515625 41.375 12.890625 
Q 45.40625 18.265625 45.40625 27.984375 
M 54.390625 6.78125 
Q 54.390625 -7.171875 48.1875 -13.984375 
Q 42 -20.796875 29.203125 -20.796875 
Q 24.46875 -20.796875 20.265625 -20.09375 
Q 16.0625 -19.390625 12.109375 -17.921875 
L 12.109375 -9.1875 
Q 16.0625 -11.328125 19.921875 -12.34375 
Q 23.78125 -13.375 27.78125 -13.375 
Q 36.625 -13.375 41.015625 -8.765625 
Q 45.40625 -4.15625 45.40625 5.171875 
L 45.40625 9.625 
Q 42.625 4.78125 38.28125 2.390625 
Q 33.9375 0 27.875 0 
Q 17.828125 0 11.671875 7.65625 
Q 5.515625 15.328125 5.515625 27.984375 
Q 5.515625 40.671875 11.671875 48.328125 
Q 17.828125 56 27.875 56 
Q 33.9375 56 38.28125 53.609375 
Q 42.625 51.21875 45.40625 46.390625 
L 45.40625 54.6875 
L 54.390625 54.6875 
z
" id="BitstreamVeraSans-Roman-67"/>
      <path id="BitstreamVeraSans-Roman-20"/>
      <path d="M 54.890625 33.015625 
L 54.890625 0 
L 45.90625 0 
L 45.90625 32.71875 
Q 45.90625 40.484375 42.875 44.328125 
Q 39.84375 48.1875 33.796875 48.1875 
Q 26.515625 48.1875 22.3125 43.546875 
Q 18.109375 38.921875 18.109375 30.90625 
L 18.109375 0 
L 9.078125 0 
L 9.078125 54.6875 
L 18.109375 54.6875 
L 18.109375 46.1875 
Q 21.34375 51.125 25.703125 53.5625 
Q 30.078125 56 35.796875 56 
Q 45.21875 56 50.046875 50.171875 
Q 54.890625 44.34375 54.890625 33.015625 
" id="BitstreamVeraSans-Roman-6e"/>
      <path d="M 41.109375 46.296875 
Q 39.59375 47.171875 37.8125 47.578125 
Q 36.03125 48 33.890625 48 
Q 26.265625 48 22.1875 43.046875 
Q 18.109375 38.09375 18.109375 28.8125 
L 18.109375 0 
L 9.078125 0 
L 9.078125 54.6875 
L 18.109375 54.6875 
L 18.109375 46.1875 
Q 20.953125 51.171875 25.484375 53.578125 
Q 30.03125 56 36.53125 56 
Q 37.453125 56 38.578125 55.875 
Q 39.703125 55.765625 41.0625 55.515625 
z
" id="BitstreamVeraSans-Roman-72"/>
     </defs>
     <g transform="translate(431.75625 68.22125)scale(0.08 -0.08)">
      <use xlink:href="#BitstreamVeraSans-Roman-4d"/>
      <use x="86.279296875" xlink:href="#BitstreamVeraSans-Roman-4d"/>
      <use x="172.55859375" xlink:href="#BitstreamVeraSans-Roman-20"/>
      <use x="204.345703125" xlink:href="#BitstreamVeraSans-Roman-4f"/>
      <use x="283.056640625" xlink:href="#BitstreamVeraSans-Roman-72"/>
      <use x="324.169921875" xlink:href="#BitstreamVeraSans-Roman-69"/>
      <use x="351.953125" xlink:href="#BitstreamVeraSans-Roman-67"/>
      <use x="415.4296875" xlink:href="#BitstreamVeraSans-Roman-69"/>
      <use x="443.212890625" xlink:href="#BitstreamVeraSans-Roman-6e"/>
      <use x="506.591796875" xlink:href="#BitstreamVeraSans-Roman-61"/>
      <use x="567.87109375" xlink:href="#BitstreamVeraSans-Roman-6c"/>
     </g>
    </g>
    <g id="line2d_44">
     <path d="M 411.75625 77.16375 
L 422.95625 77.16375 
" style="fill:none;stroke:#000000;stroke-linecap:square;"/>
    </g>
    <g id="line2d_45">
     <g>
      <use style="stroke:#000000;stroke-width:0.5;" x="411.75625" xlink:href="#me999425525" y="77.16375"/>
      <use style="stroke:#000000;stroke-width:0.5;" x="422.95625" xlink:href="#me999425525" y="77.16375"/>
     </g>
    </g>
    <g id="text_23">
     <!-- MM With phi zeroed -->
     <defs>
      <path d="M 5.515625 54.6875 
L 48.1875 54.6875 
L 48.1875 46.484375 
L 14.40625 7.171875 
L 48.1875 7.171875 
L 48.1875 0 
L 4.296875 0 
L 4.296875 8.203125 
L 38.09375 47.515625 
L 5.515625 47.515625 
z
" id="BitstreamVeraSans-Roman-7a"/>
      <path d="M 18.3125 70.21875 
L 18.3125 54.6875 
L 36.8125 54.6875 
L 36.8125 47.703125 
L 18.3125 47.703125 
L 18.3125 18.015625 
Q 18.3125 11.328125 20.140625 9.421875 
Q 21.96875 7.515625 27.59375 7.515625 
L 36.8125 7.515625 
L 36.8125 0 
L 27.59375 0 
Q 17.1875 0 13.234375 3.875 
Q 9.28125 7.765625 9.28125 18.015625 
L 9.28125 47.703125 
L 2.6875 47.703125 
L 2.6875 54.6875 
L 9.28125 54.6875 
L 9.28125 70.21875 
z
" id="BitstreamVeraSans-Roman-74"/>
      <path d="M 56.203125 29.59375 
L 56.203125 25.203125 
L 14.890625 25.203125 
Q 15.484375 15.921875 20.484375 11.0625 
Q 25.484375 6.203125 34.421875 6.203125 
Q 39.59375 6.203125 44.453125 7.46875 
Q 49.3125 8.734375 54.109375 11.28125 
L 54.109375 2.78125 
Q 49.265625 0.734375 44.1875 -0.34375 
Q 39.109375 -1.421875 33.890625 -1.421875 
Q 20.796875 -1.421875 13.15625 6.1875 
Q 5.515625 13.8125 5.515625 26.8125 
Q 5.515625 40.234375 12.765625 48.109375 
Q 20.015625 56 32.328125 56 
Q 43.359375 56 49.78125 48.890625 
Q 56.203125 41.796875 56.203125 29.59375 
M 47.21875 32.234375 
Q 47.125 39.59375 43.09375 43.984375 
Q 39.0625 48.390625 32.421875 48.390625 
Q 24.90625 48.390625 20.390625 44.140625 
Q 15.875 39.890625 15.1875 32.171875 
z
" id="BitstreamVeraSans-Roman-65"/>
      <path d="M 45.40625 46.390625 
L 45.40625 75.984375 
L 54.390625 75.984375 
L 54.390625 0 
L 45.40625 0 
L 45.40625 8.203125 
Q 42.578125 3.328125 38.25 0.953125 
Q 33.9375 -1.421875 27.875 -1.421875 
Q 17.96875 -1.421875 11.734375 6.484375 
Q 5.515625 14.40625 5.515625 27.296875 
Q 5.515625 40.1875 11.734375 48.09375 
Q 17.96875 56 27.875 56 
Q 33.9375 56 38.25 53.625 
Q 42.578125 51.265625 45.40625 46.390625 
M 14.796875 27.296875 
Q 14.796875 17.390625 18.875 11.75 
Q 22.953125 6.109375 30.078125 6.109375 
Q 37.203125 6.109375 41.296875 11.75 
Q 45.40625 17.390625 45.40625 27.296875 
Q 45.40625 37.203125 41.296875 42.84375 
Q 37.203125 48.484375 30.078125 48.484375 
Q 22.953125 48.484375 18.875 42.84375 
Q 14.796875 37.203125 14.796875 27.296875 
" id="BitstreamVeraSans-Roman-64"/>
      <path d="M 3.328125 72.90625 
L 13.28125 72.90625 
L 28.609375 11.28125 
L 43.890625 72.90625 
L 54.984375 72.90625 
L 70.3125 11.28125 
L 85.59375 72.90625 
L 95.609375 72.90625 
L 77.296875 0 
L 64.890625 0 
L 49.515625 63.28125 
L 33.984375 0 
L 21.578125 0 
z
" id="BitstreamVeraSans-Roman-57"/>
      <path d="M 18.109375 8.203125 
L 18.109375 -20.796875 
L 9.078125 -20.796875 
L 9.078125 54.6875 
L 18.109375 54.6875 
L 18.109375 46.390625 
Q 20.953125 51.265625 25.265625 53.625 
Q 29.59375 56 35.59375 56 
Q 45.5625 56 51.78125 48.09375 
Q 58.015625 40.1875 58.015625 27.296875 
Q 58.015625 14.40625 51.78125 6.484375 
Q 45.5625 -1.421875 35.59375 -1.421875 
Q 29.59375 -1.421875 25.265625 0.953125 
Q 20.953125 3.328125 18.109375 8.203125 
M 48.6875 27.296875 
Q 48.6875 37.203125 44.609375 42.84375 
Q 40.53125 48.484375 33.40625 48.484375 
Q 26.265625 48.484375 22.1875 42.84375 
Q 18.109375 37.203125 18.109375 27.296875 
Q 18.109375 17.390625 22.1875 11.75 
Q 26.265625 6.109375 33.40625 6.109375 
Q 40.53125 6.109375 44.609375 11.75 
Q 48.6875 17.390625 48.6875 27.296875 
" id="BitstreamVeraSans-Roman-70"/>
     </defs>
     <g transform="translate(431.75625 79.96375)scale(0.08 -0.08)">
      <use xlink:href="#BitstreamVeraSans-Roman-4d"/>
      <use x="86.279296875" xlink:href="#BitstreamVeraSans-Roman-4d"/>
      <use x="172.55859375" xlink:href="#BitstreamVeraSans-Roman-20"/>
      <use x="204.345703125" xlink:href="#BitstreamVeraSans-Roman-57"/>
      <use x="303.19140625" xlink:href="#BitstreamVeraSans-Roman-69"/>
      <use x="330.974609375" xlink:href="#BitstreamVeraSans-Roman-74"/>
      <use x="370.18359375" xlink:href="#BitstreamVeraSans-Roman-68"/>
      <use x="433.5625" xlink:href="#BitstreamVeraSans-Roman-20"/>
      <use x="465.349609375" xlink:href="#BitstreamVeraSans-Roman-70"/>
      <use x="528.826171875" xlink:href="#BitstreamVeraSans-Roman-68"/>
      <use x="592.205078125" xlink:href="#BitstreamVeraSans-Roman-69"/>
      <use x="619.98828125" xlink:href="#BitstreamVeraSans-Roman-20"/>
      <use x="651.775390625" xlink:href="#BitstreamVeraSans-Roman-7a"/>
      <use x="704.265625" xlink:href="#BitstreamVeraSans-Roman-65"/>
      <use x="765.7890625" xlink:href="#BitstreamVeraSans-Roman-72"/>
      <use x="806.87109375" xlink:href="#BitstreamVeraSans-Roman-6f"/>
      <use x="868.052734375" xlink:href="#BitstreamVeraSans-Roman-65"/>
      <use x="929.576171875" xlink:href="#BitstreamVeraSans-Roman-64"/>
     </g>
    </g>
    <g id="line2d_46">
     <path d="M 411.75625 88.90625 
L 422.95625 88.90625 
" style="fill:none;stroke:#ff00ff;stroke-linecap:square;"/>
    </g>
    <g id="line2d_47">
     <g>
      <use style="fill:#ff00ff;stroke:#ff00ff;stroke-width:0.5;" x="411.75625" xlink:href="#m73ffdce801" y="88.90625"/>
      <use style="fill:#ff00ff;stroke:#ff00ff;stroke-width:0.5;" x="422.95625" xlink:href="#m73ffdce801" y="88.90625"/>
     </g>
    </g>
    <g id="text_24">
     <!-- QM-MM target -->
     <g transform="translate(431.75625 91.70625)scale(0.08 -0.08)">
      <use xlink:href="#BitstreamVeraSans-Roman-51"/>
      <use x="78.7109375" xlink:href="#BitstreamVeraSans-Roman-4d"/>
      <use x="164.990234375" xlink:href="#BitstreamVeraSans-Roman-2d"/>
      <use x="201.07421875" xlink:href="#BitstreamVeraSans-Roman-4d"/>
      <use x="287.353515625" xlink:href="#BitstreamVeraSans-Roman-4d"/>
      <use x="373.6328125" xlink:href="#BitstreamVeraSans-Roman-20"/>
      <use x="405.419921875" xlink:href="#BitstreamVeraSans-Roman-74"/>
      <use x="444.62890625" xlink:href="#BitstreamVeraSans-Roman-61"/>
      <use x="505.908203125" xlink:href="#BitstreamVeraSans-Roman-72"/>
      <use x="547.005859375" xlink:href="#BitstreamVeraSans-Roman-67"/>
      <use x="610.482421875" xlink:href="#BitstreamVeraSans-Roman-65"/>
      <use x="672.005859375" xlink:href="#BitstreamVeraSans-Roman-74"/>
     </g>
    </g>
    <g id="line2d_48">
     <path d="M 411.75625 100.64875 
L 422.95625 100.64875 
" style="fill:none;stroke:#008000;stroke-linecap:square;"/>
    </g>
    <g id="line2d_49">
     <g>
      <use style="fill:#008000;stroke:#000000;stroke-width:0.5;" x="411.75625" xlink:href="#m65454c1016" y="100.64875"/>
      <use style="fill:#008000;stroke:#000000;stroke-width:0.5;" x="422.95625" xlink:href="#m65454c1016" y="100.64875"/>
     </g>
    </g>
    <g id="text_25">
     <!-- MM Fitted -->
     <defs>
      <path d="M 9.8125 72.90625 
L 51.703125 72.90625 
L 51.703125 64.59375 
L 19.671875 64.59375 
L 19.671875 43.109375 
L 48.578125 43.109375 
L 48.578125 34.8125 
L 19.671875 34.8125 
L 19.671875 0 
L 9.8125 0 
z
" id="BitstreamVeraSans-Roman-46"/>
     </defs>
     <g transform="translate(431.75625 103.44875)scale(0.08 -0.08)">
      <use xlink:href="#BitstreamVeraSans-Roman-4d"/>
      <use x="86.279296875" xlink:href="#BitstreamVeraSans-Roman-4d"/>
      <use x="172.55859375" xlink:href="#BitstreamVeraSans-Roman-20"/>
      <use x="204.345703125" xlink:href="#BitstreamVeraSans-Roman-46"/>
      <use x="261.755859375" xlink:href="#BitstreamVeraSans-Roman-69"/>
      <use x="289.5390625" xlink:href="#BitstreamVeraSans-Roman-74"/>
      <use x="328.748046875" xlink:href="#BitstreamVeraSans-Roman-74"/>
      <use x="367.95703125" xlink:href="#BitstreamVeraSans-Roman-65"/>
      <use x="429.48046875" xlink:href="#BitstreamVeraSans-Roman-64"/>
     </g>
    </g>
   </g>
  </g>
 </g>
 <defs>
  <clipPath id="p5c99841bd3">
   <rect height="345.6" width="446.4" x="72.0" y="43.2"/>
  </clipPath>
 </defs>
</svg>
